G04 #@! TF.FileFunction,Copper,L2,Bot,Signal*
%FSLAX46Y46*%
G04 Gerber Fmt 4.6, Leading zero omitted, Abs format (unit mm)*
G04 Created by KiCad (PCBNEW 4.0.6) date 03/31/17 11:29:38*
%MOMM*%
%LPD*%
G01*
G04 APERTURE LIST*
%ADD10C,0.100000*%
%ADD11O,2.500000X1.500000*%
%ADD12C,3.000000*%
%ADD13O,1.400000X2.300000*%
%ADD14R,1.150000X1.000000*%
%ADD15R,1.000000X1.150000*%
%ADD16C,0.500000*%
%ADD17C,0.026000*%
G04 APERTURE END LIST*
D10*
D11*
X9000000Y-2500000D03*
X9000000Y-5000000D03*
X9000000Y-7500000D03*
X9000000Y-10000000D03*
D12*
X2500000Y-6250000D03*
D11*
X36000000Y-10000000D03*
X36000000Y-7500000D03*
X36000000Y-5000000D03*
X36000000Y-2500000D03*
D12*
X42500000Y-6250000D03*
D13*
X15000000Y-9500000D03*
X17540000Y-9500000D03*
X20080000Y-9500000D03*
X22620000Y-9500000D03*
X25160000Y-9500000D03*
X27700000Y-9500000D03*
X30240000Y-9500000D03*
X30240000Y-1880000D03*
X27700000Y-1880000D03*
X25160000Y-1880000D03*
X22620000Y-1880000D03*
X20080000Y-1880000D03*
X17540000Y-1880000D03*
X15000000Y-1880000D03*
D14*
X5750000Y-10000000D03*
X7250000Y-10000000D03*
X5750000Y-7500000D03*
X7250000Y-7500000D03*
X22500000Y-7000000D03*
X21000000Y-7000000D03*
X22500000Y-5000000D03*
X21000000Y-5000000D03*
X32000000Y-6500000D03*
X33500000Y-6500000D03*
D15*
X11000000Y-4500000D03*
X11000000Y-3000000D03*
D14*
X26500000Y-7000000D03*
X25000000Y-7000000D03*
X25000000Y-5000000D03*
X26500000Y-5000000D03*
X32000000Y-8500000D03*
X33500000Y-8500000D03*
D16*
X5750000Y-8750000D02*
X11750000Y-8750000D01*
X11750000Y-8750000D02*
X14500000Y-6000000D01*
X14500000Y-6000000D02*
X26500000Y-6000000D01*
X34250000Y-3750000D02*
X33500000Y-4500000D01*
X33500000Y-4500000D02*
X33500000Y-6500000D01*
X26500000Y-6000000D02*
X28500000Y-6000000D01*
X28500000Y-6000000D02*
X33500000Y-1000000D01*
X33500000Y-1000000D02*
X37500000Y-1000000D01*
X37500000Y-1000000D02*
X38000000Y-1500000D01*
X38000000Y-1500000D02*
X38000000Y-3000000D01*
X38000000Y-3000000D02*
X37250000Y-3750000D01*
X37250000Y-3750000D02*
X34250000Y-3750000D01*
X33500000Y-6500000D02*
X34500000Y-7500000D01*
X34500000Y-7500000D02*
X36000000Y-7500000D01*
X5750000Y-7500000D02*
X5750000Y-8750000D01*
X5750000Y-8750000D02*
X5750000Y-10000000D01*
X5750000Y-7500000D02*
X5750000Y-5750000D01*
X6500000Y-5000000D02*
X9000000Y-5000000D01*
X5750000Y-5750000D02*
X6500000Y-5000000D01*
X11000000Y-4500000D02*
X13500000Y-4500000D01*
X13500000Y-4500000D02*
X15000000Y-3000000D01*
X15000000Y-3000000D02*
X15000000Y-1880000D01*
X9000000Y-5000000D02*
X10500000Y-5000000D01*
X10500000Y-5000000D02*
X11000000Y-4500000D01*
X26500000Y-6000000D02*
X26500000Y-5000000D01*
X26500000Y-7000000D02*
X26500000Y-6000000D01*
X26500000Y-6000000D02*
X26500000Y-6250000D01*
X26500000Y-6250000D02*
X26500000Y-6000000D01*
X33500000Y-8500000D02*
X33500000Y-10000000D01*
X30240000Y-9500000D02*
X30740000Y-10000000D01*
X30740000Y-10000000D02*
X33500000Y-10000000D01*
X33500000Y-10000000D02*
X36000000Y-10000000D01*
X5500000Y-12500000D02*
X27240000Y-12500000D01*
X9000000Y-2500000D02*
X5500000Y-2500000D01*
X4500000Y-3500000D02*
X5500000Y-2500000D01*
X4500000Y-11500000D02*
X4500000Y-3500000D01*
X5500000Y-12500000D02*
X4500000Y-11500000D01*
X27240000Y-12500000D02*
X30240000Y-9500000D01*
X11000000Y-3000000D02*
X10500000Y-2500000D01*
X10500000Y-2500000D02*
X9000000Y-2500000D01*
X9000000Y-2500000D02*
X8000000Y-2500000D01*
X21000000Y-5000000D02*
X14250000Y-5000000D01*
X14250000Y-5000000D02*
X11750000Y-7500000D01*
X11750000Y-7500000D02*
X9000000Y-7500000D01*
X7250000Y-7500000D02*
X9000000Y-7500000D01*
X21000000Y-7000000D02*
X14750000Y-7000000D01*
X11750000Y-10000000D02*
X14750000Y-7000000D01*
X11750000Y-10000000D02*
X9000000Y-10000000D01*
X9000000Y-10000000D02*
X7250000Y-10000000D01*
X36000000Y-5000000D02*
X38250000Y-5000000D01*
X38250000Y-250000D02*
X31870000Y-250000D01*
X39500000Y-1500000D02*
X38250000Y-250000D01*
X39500000Y-3750000D02*
X39500000Y-1500000D01*
X38250000Y-5000000D02*
X39500000Y-3750000D01*
X25160000Y-1880000D02*
X26790000Y-250000D01*
X28610000Y-250000D02*
X30240000Y-1880000D01*
X26790000Y-250000D02*
X28610000Y-250000D01*
X20080000Y-1880000D02*
X21710000Y-250000D01*
X23530000Y-250000D02*
X25160000Y-1880000D01*
X21710000Y-250000D02*
X23530000Y-250000D01*
X30240000Y-1880000D02*
X31870000Y-250000D01*
X22620000Y-9500000D02*
X24370000Y-11250000D01*
X25950000Y-11250000D02*
X27700000Y-9500000D01*
X24370000Y-11250000D02*
X25950000Y-11250000D01*
X17540000Y-9500000D02*
X19290000Y-11250000D01*
X20870000Y-11250000D02*
X22620000Y-9500000D01*
X19290000Y-11250000D02*
X20870000Y-11250000D01*
X27700000Y-9500000D02*
X27700000Y-8050000D01*
X27700000Y-8050000D02*
X33250000Y-2500000D01*
X33250000Y-2500000D02*
X36000000Y-2500000D01*
X22500000Y-7000000D02*
X25000000Y-7000000D01*
X20080000Y-9500000D02*
X20500000Y-9500000D01*
X20500000Y-9500000D02*
X22500000Y-7500000D01*
X22500000Y-7500000D02*
X22500000Y-7000000D01*
X25160000Y-9500000D02*
X25000000Y-9340000D01*
X25000000Y-9340000D02*
X25000000Y-7000000D01*
X15000000Y-9500000D02*
X16750000Y-7750000D01*
X18330000Y-7750000D02*
X20080000Y-9500000D01*
X16750000Y-7750000D02*
X18330000Y-7750000D01*
X20080000Y-9500000D02*
X20400000Y-9500000D01*
X22500000Y-5000000D02*
X25000000Y-5000000D01*
X25000000Y-5000000D02*
X25000000Y-3500000D01*
X25000000Y-3500000D02*
X25000000Y-3750000D01*
X25000000Y-3750000D02*
X25000000Y-3500000D01*
X22620000Y-1880000D02*
X21000000Y-3500000D01*
X19160000Y-3500000D02*
X17540000Y-1880000D01*
X21000000Y-3500000D02*
X19160000Y-3500000D01*
X22620000Y-1880000D02*
X24240000Y-3500000D01*
X24240000Y-3500000D02*
X25000000Y-3500000D01*
X25000000Y-3500000D02*
X26080000Y-3500000D01*
X26080000Y-3500000D02*
X27700000Y-1880000D01*
X32000000Y-8500000D02*
X32000000Y-6500000D01*
D17*
G36*
X516444Y-6808169D02*
X702729Y-7257901D01*
X975307Y-7433867D01*
X977040Y-7432134D01*
X1317569Y-7773257D01*
X1316133Y-7774693D01*
X1492099Y-8047271D01*
X2256607Y-8296169D01*
X3058169Y-8233556D01*
X3507901Y-8047271D01*
X3683867Y-7774693D01*
X3682134Y-7772960D01*
X3837000Y-7618364D01*
X3837000Y-11500000D01*
X3887468Y-11753719D01*
X4031188Y-11968812D01*
X5031186Y-12968809D01*
X5031188Y-12968812D01*
X5058409Y-12987000D01*
X488000Y-12987000D01*
X488000Y-6444033D01*
X516444Y-6808169D01*
X516444Y-6808169D01*
G37*
X516444Y-6808169D02*
X702729Y-7257901D01*
X975307Y-7433867D01*
X977040Y-7432134D01*
X1317569Y-7773257D01*
X1316133Y-7774693D01*
X1492099Y-8047271D01*
X2256607Y-8296169D01*
X3058169Y-8233556D01*
X3507901Y-8047271D01*
X3683867Y-7774693D01*
X3682134Y-7772960D01*
X3837000Y-7618364D01*
X3837000Y-11500000D01*
X3887468Y-11753719D01*
X4031188Y-11968812D01*
X5031186Y-12968809D01*
X5031188Y-12968812D01*
X5058409Y-12987000D01*
X488000Y-12987000D01*
X488000Y-6444033D01*
X516444Y-6808169D01*
G36*
X40012000Y-12987000D02*
X27681591Y-12987000D01*
X27708812Y-12968812D01*
X29726943Y-10950681D01*
X29814073Y-11008899D01*
X30240000Y-11093621D01*
X30665927Y-11008899D01*
X31027010Y-10767631D01*
X31096922Y-10663000D01*
X34538570Y-10663000D01*
X34645055Y-10822365D01*
X35022359Y-11074472D01*
X35467420Y-11163000D01*
X36532580Y-11163000D01*
X36977641Y-11074472D01*
X37354945Y-10822365D01*
X37607052Y-10445061D01*
X37695580Y-10000000D01*
X37607052Y-9554939D01*
X37354945Y-9177635D01*
X36977641Y-8925528D01*
X36532580Y-8837000D01*
X35467420Y-8837000D01*
X35022359Y-8925528D01*
X34645055Y-9177635D01*
X34538570Y-9337000D01*
X34313976Y-9337000D01*
X34368614Y-9301841D01*
X34462915Y-9163828D01*
X34496091Y-9000000D01*
X34496091Y-8162223D01*
X34500000Y-8163001D01*
X34500005Y-8163000D01*
X34538570Y-8163000D01*
X34645055Y-8322365D01*
X35022359Y-8574472D01*
X35467420Y-8663000D01*
X36532580Y-8663000D01*
X36977641Y-8574472D01*
X37354945Y-8322365D01*
X37607052Y-7945061D01*
X37695580Y-7500000D01*
X37607052Y-7054939D01*
X37354945Y-6677635D01*
X36977641Y-6425528D01*
X36532580Y-6337000D01*
X35467420Y-6337000D01*
X35022359Y-6425528D01*
X34645055Y-6677635D01*
X34633120Y-6695497D01*
X34496091Y-6558468D01*
X34496091Y-6000000D01*
X34467293Y-5846951D01*
X34376841Y-5706386D01*
X34238828Y-5612085D01*
X34163000Y-5596729D01*
X34163000Y-4774624D01*
X34413614Y-4524010D01*
X34392948Y-4554939D01*
X34304420Y-5000000D01*
X34392948Y-5445061D01*
X34645055Y-5822365D01*
X35022359Y-6074472D01*
X35467420Y-6163000D01*
X36532580Y-6163000D01*
X36977641Y-6074472D01*
X37354945Y-5822365D01*
X37461430Y-5663000D01*
X38250000Y-5663000D01*
X38503719Y-5612532D01*
X38718812Y-5468812D01*
X39968812Y-4218812D01*
X40012000Y-4154176D01*
X40012000Y-12987000D01*
X40012000Y-12987000D01*
G37*
X40012000Y-12987000D02*
X27681591Y-12987000D01*
X27708812Y-12968812D01*
X29726943Y-10950681D01*
X29814073Y-11008899D01*
X30240000Y-11093621D01*
X30665927Y-11008899D01*
X31027010Y-10767631D01*
X31096922Y-10663000D01*
X34538570Y-10663000D01*
X34645055Y-10822365D01*
X35022359Y-11074472D01*
X35467420Y-11163000D01*
X36532580Y-11163000D01*
X36977641Y-11074472D01*
X37354945Y-10822365D01*
X37607052Y-10445061D01*
X37695580Y-10000000D01*
X37607052Y-9554939D01*
X37354945Y-9177635D01*
X36977641Y-8925528D01*
X36532580Y-8837000D01*
X35467420Y-8837000D01*
X35022359Y-8925528D01*
X34645055Y-9177635D01*
X34538570Y-9337000D01*
X34313976Y-9337000D01*
X34368614Y-9301841D01*
X34462915Y-9163828D01*
X34496091Y-9000000D01*
X34496091Y-8162223D01*
X34500000Y-8163001D01*
X34500005Y-8163000D01*
X34538570Y-8163000D01*
X34645055Y-8322365D01*
X35022359Y-8574472D01*
X35467420Y-8663000D01*
X36532580Y-8663000D01*
X36977641Y-8574472D01*
X37354945Y-8322365D01*
X37607052Y-7945061D01*
X37695580Y-7500000D01*
X37607052Y-7054939D01*
X37354945Y-6677635D01*
X36977641Y-6425528D01*
X36532580Y-6337000D01*
X35467420Y-6337000D01*
X35022359Y-6425528D01*
X34645055Y-6677635D01*
X34633120Y-6695497D01*
X34496091Y-6558468D01*
X34496091Y-6000000D01*
X34467293Y-5846951D01*
X34376841Y-5706386D01*
X34238828Y-5612085D01*
X34163000Y-5596729D01*
X34163000Y-4774624D01*
X34413614Y-4524010D01*
X34392948Y-4554939D01*
X34304420Y-5000000D01*
X34392948Y-5445061D01*
X34645055Y-5822365D01*
X35022359Y-6074472D01*
X35467420Y-6163000D01*
X36532580Y-6163000D01*
X36977641Y-6074472D01*
X37354945Y-5822365D01*
X37461430Y-5663000D01*
X38250000Y-5663000D01*
X38503719Y-5612532D01*
X38718812Y-5468812D01*
X39968812Y-4218812D01*
X40012000Y-4154176D01*
X40012000Y-12987000D01*
G36*
X13887000Y-9019379D02*
X13887000Y-9980621D01*
X13971722Y-10406548D01*
X14212990Y-10767631D01*
X14574073Y-11008899D01*
X15000000Y-11093621D01*
X15425927Y-11008899D01*
X15787010Y-10767631D01*
X16028278Y-10406548D01*
X16113000Y-9980621D01*
X16113000Y-9324624D01*
X16429174Y-9008450D01*
X16427000Y-9019379D01*
X16427000Y-9980621D01*
X16511722Y-10406548D01*
X16752990Y-10767631D01*
X17114073Y-11008899D01*
X17540000Y-11093621D01*
X17965927Y-11008899D01*
X18053057Y-10950681D01*
X18821188Y-11718812D01*
X18998070Y-11837000D01*
X5774623Y-11837000D01*
X5163000Y-11225376D01*
X5163000Y-10918661D01*
X5175000Y-10921091D01*
X6325000Y-10921091D01*
X6478049Y-10892293D01*
X6498407Y-10879193D01*
X6511172Y-10887915D01*
X6675000Y-10921091D01*
X7792809Y-10921091D01*
X8022359Y-11074472D01*
X8467420Y-11163000D01*
X9532580Y-11163000D01*
X9977641Y-11074472D01*
X10354945Y-10822365D01*
X10461430Y-10663000D01*
X11750000Y-10663000D01*
X12003719Y-10612532D01*
X12218812Y-10468812D01*
X13941317Y-8746307D01*
X13887000Y-9019379D01*
X13887000Y-9019379D01*
G37*
X13887000Y-9019379D02*
X13887000Y-9980621D01*
X13971722Y-10406548D01*
X14212990Y-10767631D01*
X14574073Y-11008899D01*
X15000000Y-11093621D01*
X15425927Y-11008899D01*
X15787010Y-10767631D01*
X16028278Y-10406548D01*
X16113000Y-9980621D01*
X16113000Y-9324624D01*
X16429174Y-9008450D01*
X16427000Y-9019379D01*
X16427000Y-9980621D01*
X16511722Y-10406548D01*
X16752990Y-10767631D01*
X17114073Y-11008899D01*
X17540000Y-11093621D01*
X17965927Y-11008899D01*
X18053057Y-10950681D01*
X18821188Y-11718812D01*
X18998070Y-11837000D01*
X5774623Y-11837000D01*
X5163000Y-11225376D01*
X5163000Y-10918661D01*
X5175000Y-10921091D01*
X6325000Y-10921091D01*
X6478049Y-10892293D01*
X6498407Y-10879193D01*
X6511172Y-10887915D01*
X6675000Y-10921091D01*
X7792809Y-10921091D01*
X8022359Y-11074472D01*
X8467420Y-11163000D01*
X9532580Y-11163000D01*
X9977641Y-11074472D01*
X10354945Y-10822365D01*
X10461430Y-10663000D01*
X11750000Y-10663000D01*
X12003719Y-10612532D01*
X12218812Y-10468812D01*
X13941317Y-8746307D01*
X13887000Y-9019379D01*
G36*
X27274073Y-11008899D02*
X27700000Y-11093621D01*
X27710929Y-11091447D01*
X26965376Y-11837000D01*
X26241930Y-11837000D01*
X26418812Y-11718812D01*
X27186943Y-10950681D01*
X27274073Y-11008899D01*
X27274073Y-11008899D01*
G37*
X27274073Y-11008899D02*
X27700000Y-11093621D01*
X27710929Y-11091447D01*
X26965376Y-11837000D01*
X26241930Y-11837000D01*
X26418812Y-11718812D01*
X27186943Y-10950681D01*
X27274073Y-11008899D01*
G36*
X23901188Y-11718812D02*
X24078070Y-11837000D01*
X21161930Y-11837000D01*
X21338812Y-11718812D01*
X22106943Y-10950681D01*
X22194073Y-11008899D01*
X22620000Y-11093621D01*
X23045927Y-11008899D01*
X23133057Y-10950681D01*
X23901188Y-11718812D01*
X23901188Y-11718812D01*
G37*
X23901188Y-11718812D02*
X24078070Y-11837000D01*
X21161930Y-11837000D01*
X21338812Y-11718812D01*
X22106943Y-10950681D01*
X22194073Y-11008899D01*
X22620000Y-11093621D01*
X23045927Y-11008899D01*
X23133057Y-10950681D01*
X23901188Y-11718812D01*
G36*
X33781188Y-3281188D02*
X33031188Y-4031188D01*
X32887468Y-4246281D01*
X32837000Y-4500000D01*
X32837000Y-5595467D01*
X32771951Y-5607707D01*
X32751593Y-5620807D01*
X32738828Y-5612085D01*
X32575000Y-5578909D01*
X31425000Y-5578909D01*
X31271951Y-5607707D01*
X31131386Y-5698159D01*
X31037085Y-5836172D01*
X31003909Y-6000000D01*
X31003909Y-7000000D01*
X31032707Y-7153049D01*
X31123159Y-7293614D01*
X31261172Y-7387915D01*
X31337000Y-7403271D01*
X31337000Y-7595467D01*
X31271951Y-7607707D01*
X31131386Y-7698159D01*
X31037085Y-7836172D01*
X31003909Y-8000000D01*
X31003909Y-8216933D01*
X30665927Y-7991101D01*
X30240000Y-7906379D01*
X29814073Y-7991101D01*
X29452990Y-8232369D01*
X29211722Y-8593452D01*
X29127000Y-9019379D01*
X29127000Y-9675376D01*
X28810826Y-9991550D01*
X28813000Y-9980621D01*
X28813000Y-9019379D01*
X28728278Y-8593452D01*
X28487010Y-8232369D01*
X28467974Y-8219650D01*
X33524624Y-3163000D01*
X33958070Y-3163000D01*
X33781188Y-3281188D01*
X33781188Y-3281188D01*
G37*
X33781188Y-3281188D02*
X33031188Y-4031188D01*
X32887468Y-4246281D01*
X32837000Y-4500000D01*
X32837000Y-5595467D01*
X32771951Y-5607707D01*
X32751593Y-5620807D01*
X32738828Y-5612085D01*
X32575000Y-5578909D01*
X31425000Y-5578909D01*
X31271951Y-5607707D01*
X31131386Y-5698159D01*
X31037085Y-5836172D01*
X31003909Y-6000000D01*
X31003909Y-7000000D01*
X31032707Y-7153049D01*
X31123159Y-7293614D01*
X31261172Y-7387915D01*
X31337000Y-7403271D01*
X31337000Y-7595467D01*
X31271951Y-7607707D01*
X31131386Y-7698159D01*
X31037085Y-7836172D01*
X31003909Y-8000000D01*
X31003909Y-8216933D01*
X30665927Y-7991101D01*
X30240000Y-7906379D01*
X29814073Y-7991101D01*
X29452990Y-8232369D01*
X29211722Y-8593452D01*
X29127000Y-9019379D01*
X29127000Y-9675376D01*
X28810826Y-9991550D01*
X28813000Y-9980621D01*
X28813000Y-9019379D01*
X28728278Y-8593452D01*
X28487010Y-8232369D01*
X28467974Y-8219650D01*
X33524624Y-3163000D01*
X33958070Y-3163000D01*
X33781188Y-3281188D01*
G36*
X21507000Y-9675376D02*
X21190826Y-9991550D01*
X21193000Y-9980621D01*
X21193000Y-9744624D01*
X21507000Y-9430624D01*
X21507000Y-9675376D01*
X21507000Y-9675376D01*
G37*
X21507000Y-9675376D02*
X21190826Y-9991550D01*
X21193000Y-9980621D01*
X21193000Y-9744624D01*
X21507000Y-9430624D01*
X21507000Y-9675376D01*
G36*
X25761172Y-7887915D02*
X25925000Y-7921091D01*
X27062642Y-7921091D01*
X27037000Y-8050000D01*
X27037000Y-8149508D01*
X26912990Y-8232369D01*
X26671722Y-8593452D01*
X26587000Y-9019379D01*
X26587000Y-9675376D01*
X26270826Y-9991550D01*
X26273000Y-9980621D01*
X26273000Y-9019379D01*
X26188278Y-8593452D01*
X25947010Y-8232369D01*
X25663000Y-8042600D01*
X25663000Y-7904533D01*
X25728049Y-7892293D01*
X25748407Y-7879193D01*
X25761172Y-7887915D01*
X25761172Y-7887915D01*
G37*
X25761172Y-7887915D02*
X25925000Y-7921091D01*
X27062642Y-7921091D01*
X27037000Y-8050000D01*
X27037000Y-8149508D01*
X26912990Y-8232369D01*
X26671722Y-8593452D01*
X26587000Y-9019379D01*
X26587000Y-9675376D01*
X26270826Y-9991550D01*
X26273000Y-9980621D01*
X26273000Y-9019379D01*
X26188278Y-8593452D01*
X25947010Y-8232369D01*
X25663000Y-8042600D01*
X25663000Y-7904533D01*
X25728049Y-7892293D01*
X25748407Y-7879193D01*
X25761172Y-7887915D01*
G36*
X24123159Y-7793614D02*
X24261172Y-7887915D01*
X24337000Y-7903271D01*
X24337000Y-8286232D01*
X24131722Y-8593452D01*
X24047000Y-9019379D01*
X24047000Y-9980621D01*
X24049174Y-9991550D01*
X23733000Y-9675376D01*
X23733000Y-9019379D01*
X23648278Y-8593452D01*
X23407010Y-8232369D01*
X23045927Y-7991101D01*
X22963015Y-7974609D01*
X22968812Y-7968812D01*
X23000698Y-7921091D01*
X23075000Y-7921091D01*
X23228049Y-7892293D01*
X23368614Y-7801841D01*
X23462915Y-7663828D01*
X23463083Y-7663000D01*
X24039110Y-7663000D01*
X24123159Y-7793614D01*
X24123159Y-7793614D01*
G37*
X24123159Y-7793614D02*
X24261172Y-7887915D01*
X24337000Y-7903271D01*
X24337000Y-8286232D01*
X24131722Y-8593452D01*
X24047000Y-9019379D01*
X24047000Y-9980621D01*
X24049174Y-9991550D01*
X23733000Y-9675376D01*
X23733000Y-9019379D01*
X23648278Y-8593452D01*
X23407010Y-8232369D01*
X23045927Y-7991101D01*
X22963015Y-7974609D01*
X22968812Y-7968812D01*
X23000698Y-7921091D01*
X23075000Y-7921091D01*
X23228049Y-7892293D01*
X23368614Y-7801841D01*
X23462915Y-7663828D01*
X23463083Y-7663000D01*
X24039110Y-7663000D01*
X24123159Y-7793614D01*
G36*
X18967000Y-9324624D02*
X18967000Y-9980621D01*
X18969174Y-9991550D01*
X18653000Y-9675376D01*
X18653000Y-9019379D01*
X18650826Y-9008450D01*
X18967000Y-9324624D01*
X18967000Y-9324624D01*
G37*
X18967000Y-9324624D02*
X18967000Y-9980621D01*
X18969174Y-9991550D01*
X18653000Y-9675376D01*
X18653000Y-9019379D01*
X18650826Y-9008450D01*
X18967000Y-9324624D01*
G36*
X20123159Y-7793614D02*
X20261172Y-7887915D01*
X20425000Y-7921091D01*
X21141285Y-7921091D01*
X20844828Y-8217548D01*
X20505927Y-7991101D01*
X20080000Y-7906379D01*
X19654073Y-7991101D01*
X19566943Y-8049319D01*
X19180624Y-7663000D01*
X20039110Y-7663000D01*
X20123159Y-7793614D01*
X20123159Y-7793614D01*
G37*
X20123159Y-7793614D02*
X20261172Y-7887915D01*
X20425000Y-7921091D01*
X21141285Y-7921091D01*
X20844828Y-8217548D01*
X20505927Y-7991101D01*
X20080000Y-7906379D01*
X19654073Y-7991101D01*
X19566943Y-8049319D01*
X19180624Y-7663000D01*
X20039110Y-7663000D01*
X20123159Y-7793614D01*
G36*
X15513057Y-8049319D02*
X15425927Y-7991101D01*
X15000000Y-7906379D01*
X14726928Y-7960696D01*
X15024624Y-7663000D01*
X15899376Y-7663000D01*
X15513057Y-8049319D01*
X15513057Y-8049319D01*
G37*
X15513057Y-8049319D02*
X15425927Y-7991101D01*
X15000000Y-7906379D01*
X14726928Y-7960696D01*
X15024624Y-7663000D01*
X15899376Y-7663000D01*
X15513057Y-8049319D01*
G36*
X32761172Y-7387915D02*
X32925000Y-7421091D01*
X33483467Y-7421091D01*
X33641286Y-7578909D01*
X32925000Y-7578909D01*
X32771951Y-7607707D01*
X32751593Y-7620807D01*
X32738828Y-7612085D01*
X32663000Y-7596729D01*
X32663000Y-7404533D01*
X32728049Y-7392293D01*
X32748407Y-7379193D01*
X32761172Y-7387915D01*
X32761172Y-7387915D01*
G37*
X32761172Y-7387915D02*
X32925000Y-7421091D01*
X33483467Y-7421091D01*
X33641286Y-7578909D01*
X32925000Y-7578909D01*
X32771951Y-7607707D01*
X32751593Y-7620807D01*
X32738828Y-7612085D01*
X32663000Y-7596729D01*
X32663000Y-7404533D01*
X32728049Y-7392293D01*
X32748407Y-7379193D01*
X32761172Y-7387915D01*
G36*
X27496091Y-7316285D02*
X27496091Y-6663000D01*
X28149376Y-6663000D01*
X27496091Y-7316285D01*
X27496091Y-7316285D01*
G37*
X27496091Y-7316285D02*
X27496091Y-6663000D01*
X28149376Y-6663000D01*
X27496091Y-7316285D01*
G36*
X11475376Y-6837000D02*
X10461430Y-6837000D01*
X10354945Y-6677635D01*
X9977641Y-6425528D01*
X9532580Y-6337000D01*
X8467420Y-6337000D01*
X8022359Y-6425528D01*
X7792809Y-6578909D01*
X6675000Y-6578909D01*
X6521951Y-6607707D01*
X6501593Y-6620807D01*
X6488828Y-6612085D01*
X6413000Y-6596729D01*
X6413000Y-6024624D01*
X6774624Y-5663000D01*
X7538570Y-5663000D01*
X7645055Y-5822365D01*
X8022359Y-6074472D01*
X8467420Y-6163000D01*
X9532580Y-6163000D01*
X9977641Y-6074472D01*
X10354945Y-5822365D01*
X10461430Y-5663000D01*
X10500000Y-5663000D01*
X10753719Y-5612532D01*
X10927986Y-5496091D01*
X11500000Y-5496091D01*
X11653049Y-5467293D01*
X11793614Y-5376841D01*
X11887915Y-5238828D01*
X11903271Y-5163000D01*
X13149376Y-5163000D01*
X11475376Y-6837000D01*
X11475376Y-6837000D01*
G37*
X11475376Y-6837000D02*
X10461430Y-6837000D01*
X10354945Y-6677635D01*
X9977641Y-6425528D01*
X9532580Y-6337000D01*
X8467420Y-6337000D01*
X8022359Y-6425528D01*
X7792809Y-6578909D01*
X6675000Y-6578909D01*
X6521951Y-6607707D01*
X6501593Y-6620807D01*
X6488828Y-6612085D01*
X6413000Y-6596729D01*
X6413000Y-6024624D01*
X6774624Y-5663000D01*
X7538570Y-5663000D01*
X7645055Y-5822365D01*
X8022359Y-6074472D01*
X8467420Y-6163000D01*
X9532580Y-6163000D01*
X9977641Y-6074472D01*
X10354945Y-5822365D01*
X10461430Y-5663000D01*
X10500000Y-5663000D01*
X10753719Y-5612532D01*
X10927986Y-5496091D01*
X11500000Y-5496091D01*
X11653049Y-5467293D01*
X11793614Y-5376841D01*
X11887915Y-5238828D01*
X11903271Y-5163000D01*
X13149376Y-5163000D01*
X11475376Y-6837000D01*
G36*
X40012000Y-1095824D02*
X39968812Y-1031188D01*
X38718812Y218812D01*
X38503719Y362532D01*
X38250000Y413000D01*
X31870000Y413000D01*
X31616281Y362532D01*
X31401188Y218812D01*
X30753057Y-429319D01*
X30665927Y-371101D01*
X30240000Y-286379D01*
X29814073Y-371101D01*
X29726943Y-429319D01*
X29078812Y218812D01*
X28863719Y362532D01*
X28610000Y413000D01*
X26790000Y413000D01*
X26536281Y362532D01*
X26321188Y218812D01*
X25673057Y-429319D01*
X25585927Y-371101D01*
X25160000Y-286379D01*
X24734073Y-371101D01*
X24646943Y-429319D01*
X23998812Y218812D01*
X23783719Y362532D01*
X23530000Y413000D01*
X21710000Y413000D01*
X21456281Y362532D01*
X21241188Y218812D01*
X20593057Y-429319D01*
X20505927Y-371101D01*
X20080000Y-286379D01*
X19654073Y-371101D01*
X19292990Y-612369D01*
X19051722Y-973452D01*
X18967000Y-1399379D01*
X18967000Y-2360621D01*
X18969174Y-2371550D01*
X18653000Y-2055376D01*
X18653000Y-1399379D01*
X18568278Y-973452D01*
X18327010Y-612369D01*
X17965927Y-371101D01*
X17540000Y-286379D01*
X17114073Y-371101D01*
X16752990Y-612369D01*
X16511722Y-973452D01*
X16427000Y-1399379D01*
X16427000Y-2360621D01*
X16511722Y-2786548D01*
X16752990Y-3147631D01*
X17114073Y-3388899D01*
X17540000Y-3473621D01*
X17965927Y-3388899D01*
X18053057Y-3330681D01*
X18691188Y-3968812D01*
X18906281Y-4112532D01*
X19160000Y-4163000D01*
X20186024Y-4163000D01*
X20131386Y-4198159D01*
X20037085Y-4336172D01*
X20036917Y-4337000D01*
X14600624Y-4337000D01*
X15468812Y-3468812D01*
X15599864Y-3272678D01*
X15787010Y-3147631D01*
X16028278Y-2786548D01*
X16113000Y-2360621D01*
X16113000Y-1399379D01*
X16028278Y-973452D01*
X15787010Y-612369D01*
X15425927Y-371101D01*
X15000000Y-286379D01*
X14574073Y-371101D01*
X14212990Y-612369D01*
X13971722Y-973452D01*
X13887000Y-1399379D01*
X13887000Y-2360621D01*
X13971722Y-2786548D01*
X14093530Y-2968846D01*
X13225376Y-3837000D01*
X11904533Y-3837000D01*
X11892293Y-3771951D01*
X11879193Y-3751593D01*
X11887915Y-3738828D01*
X11921091Y-3575000D01*
X11921091Y-2425000D01*
X11892293Y-2271951D01*
X11801841Y-2131386D01*
X11663828Y-2037085D01*
X11500000Y-2003909D01*
X10927986Y-2003909D01*
X10753719Y-1887468D01*
X10500000Y-1837000D01*
X10461430Y-1837000D01*
X10354945Y-1677635D01*
X9977641Y-1425528D01*
X9532580Y-1337000D01*
X8467420Y-1337000D01*
X8022359Y-1425528D01*
X7645055Y-1677635D01*
X7538570Y-1837000D01*
X5500005Y-1837000D01*
X5500000Y-1836999D01*
X5246281Y-1887468D01*
X5031188Y-2031188D01*
X5031186Y-2031191D01*
X4031188Y-3031188D01*
X3887468Y-3246281D01*
X3837000Y-3500000D01*
X3837000Y-4881581D01*
X3682431Y-4726743D01*
X3683867Y-4725307D01*
X3507901Y-4452729D01*
X2743393Y-4203831D01*
X1941831Y-4266444D01*
X1492099Y-4452729D01*
X1316133Y-4725307D01*
X1317866Y-4727040D01*
X976743Y-5067569D01*
X975307Y-5066133D01*
X702729Y-5242099D01*
X488000Y-5901654D01*
X488000Y512000D01*
X40012000Y512000D01*
X40012000Y-1095824D01*
X40012000Y-1095824D01*
G37*
X40012000Y-1095824D02*
X39968812Y-1031188D01*
X38718812Y218812D01*
X38503719Y362532D01*
X38250000Y413000D01*
X31870000Y413000D01*
X31616281Y362532D01*
X31401188Y218812D01*
X30753057Y-429319D01*
X30665927Y-371101D01*
X30240000Y-286379D01*
X29814073Y-371101D01*
X29726943Y-429319D01*
X29078812Y218812D01*
X28863719Y362532D01*
X28610000Y413000D01*
X26790000Y413000D01*
X26536281Y362532D01*
X26321188Y218812D01*
X25673057Y-429319D01*
X25585927Y-371101D01*
X25160000Y-286379D01*
X24734073Y-371101D01*
X24646943Y-429319D01*
X23998812Y218812D01*
X23783719Y362532D01*
X23530000Y413000D01*
X21710000Y413000D01*
X21456281Y362532D01*
X21241188Y218812D01*
X20593057Y-429319D01*
X20505927Y-371101D01*
X20080000Y-286379D01*
X19654073Y-371101D01*
X19292990Y-612369D01*
X19051722Y-973452D01*
X18967000Y-1399379D01*
X18967000Y-2360621D01*
X18969174Y-2371550D01*
X18653000Y-2055376D01*
X18653000Y-1399379D01*
X18568278Y-973452D01*
X18327010Y-612369D01*
X17965927Y-371101D01*
X17540000Y-286379D01*
X17114073Y-371101D01*
X16752990Y-612369D01*
X16511722Y-973452D01*
X16427000Y-1399379D01*
X16427000Y-2360621D01*
X16511722Y-2786548D01*
X16752990Y-3147631D01*
X17114073Y-3388899D01*
X17540000Y-3473621D01*
X17965927Y-3388899D01*
X18053057Y-3330681D01*
X18691188Y-3968812D01*
X18906281Y-4112532D01*
X19160000Y-4163000D01*
X20186024Y-4163000D01*
X20131386Y-4198159D01*
X20037085Y-4336172D01*
X20036917Y-4337000D01*
X14600624Y-4337000D01*
X15468812Y-3468812D01*
X15599864Y-3272678D01*
X15787010Y-3147631D01*
X16028278Y-2786548D01*
X16113000Y-2360621D01*
X16113000Y-1399379D01*
X16028278Y-973452D01*
X15787010Y-612369D01*
X15425927Y-371101D01*
X15000000Y-286379D01*
X14574073Y-371101D01*
X14212990Y-612369D01*
X13971722Y-973452D01*
X13887000Y-1399379D01*
X13887000Y-2360621D01*
X13971722Y-2786548D01*
X14093530Y-2968846D01*
X13225376Y-3837000D01*
X11904533Y-3837000D01*
X11892293Y-3771951D01*
X11879193Y-3751593D01*
X11887915Y-3738828D01*
X11921091Y-3575000D01*
X11921091Y-2425000D01*
X11892293Y-2271951D01*
X11801841Y-2131386D01*
X11663828Y-2037085D01*
X11500000Y-2003909D01*
X10927986Y-2003909D01*
X10753719Y-1887468D01*
X10500000Y-1837000D01*
X10461430Y-1837000D01*
X10354945Y-1677635D01*
X9977641Y-1425528D01*
X9532580Y-1337000D01*
X8467420Y-1337000D01*
X8022359Y-1425528D01*
X7645055Y-1677635D01*
X7538570Y-1837000D01*
X5500005Y-1837000D01*
X5500000Y-1836999D01*
X5246281Y-1887468D01*
X5031188Y-2031188D01*
X5031186Y-2031191D01*
X4031188Y-3031188D01*
X3887468Y-3246281D01*
X3837000Y-3500000D01*
X3837000Y-4881581D01*
X3682431Y-4726743D01*
X3683867Y-4725307D01*
X3507901Y-4452729D01*
X2743393Y-4203831D01*
X1941831Y-4266444D01*
X1492099Y-4452729D01*
X1316133Y-4725307D01*
X1317866Y-4727040D01*
X976743Y-5067569D01*
X975307Y-5066133D01*
X702729Y-5242099D01*
X488000Y-5901654D01*
X488000Y512000D01*
X40012000Y512000D01*
X40012000Y-1095824D01*
G36*
X7645055Y-3322365D02*
X8022359Y-3574472D01*
X8467420Y-3663000D01*
X9532580Y-3663000D01*
X9977641Y-3574472D01*
X10078909Y-3506807D01*
X10078909Y-3575000D01*
X10107707Y-3728049D01*
X10120807Y-3748407D01*
X10112085Y-3761172D01*
X10078909Y-3925000D01*
X10078909Y-3993193D01*
X9977641Y-3925528D01*
X9532580Y-3837000D01*
X8467420Y-3837000D01*
X8022359Y-3925528D01*
X7645055Y-4177635D01*
X7538570Y-4337000D01*
X6500000Y-4337000D01*
X6246281Y-4387468D01*
X6031188Y-4531188D01*
X5281188Y-5281188D01*
X5163000Y-5458070D01*
X5163000Y-3774624D01*
X5774623Y-3163000D01*
X7538570Y-3163000D01*
X7645055Y-3322365D01*
X7645055Y-3322365D01*
G37*
X7645055Y-3322365D02*
X8022359Y-3574472D01*
X8467420Y-3663000D01*
X9532580Y-3663000D01*
X9977641Y-3574472D01*
X10078909Y-3506807D01*
X10078909Y-3575000D01*
X10107707Y-3728049D01*
X10120807Y-3748407D01*
X10112085Y-3761172D01*
X10078909Y-3925000D01*
X10078909Y-3993193D01*
X9977641Y-3925528D01*
X9532580Y-3837000D01*
X8467420Y-3837000D01*
X8022359Y-3925528D01*
X7645055Y-4177635D01*
X7538570Y-4337000D01*
X6500000Y-4337000D01*
X6246281Y-4387468D01*
X6031188Y-4531188D01*
X5281188Y-5281188D01*
X5163000Y-5458070D01*
X5163000Y-3774624D01*
X5774623Y-3163000D01*
X7538570Y-3163000D01*
X7645055Y-3322365D01*
G36*
X29127000Y-1704624D02*
X29127000Y-2360621D01*
X29211722Y-2786548D01*
X29452990Y-3147631D01*
X29814073Y-3388899D01*
X30113848Y-3448528D01*
X28225376Y-5337000D01*
X27496091Y-5337000D01*
X27496091Y-4500000D01*
X27467293Y-4346951D01*
X27376841Y-4206386D01*
X27238828Y-4112085D01*
X27075000Y-4078909D01*
X26384040Y-4078909D01*
X26548812Y-3968812D01*
X27186943Y-3330681D01*
X27274073Y-3388899D01*
X27700000Y-3473621D01*
X28125927Y-3388899D01*
X28487010Y-3147631D01*
X28728278Y-2786548D01*
X28813000Y-2360621D01*
X28813000Y-1399379D01*
X28810826Y-1388450D01*
X29127000Y-1704624D01*
X29127000Y-1704624D01*
G37*
X29127000Y-1704624D02*
X29127000Y-2360621D01*
X29211722Y-2786548D01*
X29452990Y-3147631D01*
X29814073Y-3388899D01*
X30113848Y-3448528D01*
X28225376Y-5337000D01*
X27496091Y-5337000D01*
X27496091Y-4500000D01*
X27467293Y-4346951D01*
X27376841Y-4206386D01*
X27238828Y-4112085D01*
X27075000Y-4078909D01*
X26384040Y-4078909D01*
X26548812Y-3968812D01*
X27186943Y-3330681D01*
X27274073Y-3388899D01*
X27700000Y-3473621D01*
X28125927Y-3388899D01*
X28487010Y-3147631D01*
X28728278Y-2786548D01*
X28813000Y-2360621D01*
X28813000Y-1399379D01*
X28810826Y-1388450D01*
X29127000Y-1704624D01*
G36*
X38837000Y-1774624D02*
X38837000Y-3475376D01*
X37975376Y-4337000D01*
X37541930Y-4337000D01*
X37718812Y-4218812D01*
X38468812Y-3468812D01*
X38612532Y-3253719D01*
X38663000Y-3000000D01*
X38663000Y-1600624D01*
X38837000Y-1774624D01*
X38837000Y-1774624D01*
G37*
X38837000Y-1774624D02*
X38837000Y-3475376D01*
X37975376Y-4337000D01*
X37541930Y-4337000D01*
X37718812Y-4218812D01*
X38468812Y-3468812D01*
X38612532Y-3253719D01*
X38663000Y-3000000D01*
X38663000Y-1600624D01*
X38837000Y-1774624D01*
G36*
X23771188Y-3968812D02*
X23986281Y-4112532D01*
X24198769Y-4154799D01*
X24131386Y-4198159D01*
X24037085Y-4336172D01*
X24036917Y-4337000D01*
X23460890Y-4337000D01*
X23376841Y-4206386D01*
X23238828Y-4112085D01*
X23075000Y-4078909D01*
X21925000Y-4078909D01*
X21771951Y-4107707D01*
X21751593Y-4120807D01*
X21738828Y-4112085D01*
X21575000Y-4078909D01*
X21304040Y-4078909D01*
X21468812Y-3968812D01*
X22106943Y-3330681D01*
X22194073Y-3388899D01*
X22620000Y-3473621D01*
X23045927Y-3388899D01*
X23133057Y-3330681D01*
X23771188Y-3968812D01*
X23771188Y-3968812D01*
G37*
X23771188Y-3968812D02*
X23986281Y-4112532D01*
X24198769Y-4154799D01*
X24131386Y-4198159D01*
X24037085Y-4336172D01*
X24036917Y-4337000D01*
X23460890Y-4337000D01*
X23376841Y-4206386D01*
X23238828Y-4112085D01*
X23075000Y-4078909D01*
X21925000Y-4078909D01*
X21771951Y-4107707D01*
X21751593Y-4120807D01*
X21738828Y-4112085D01*
X21575000Y-4078909D01*
X21304040Y-4078909D01*
X21468812Y-3968812D01*
X22106943Y-3330681D01*
X22194073Y-3388899D01*
X22620000Y-3473621D01*
X23045927Y-3388899D01*
X23133057Y-3330681D01*
X23771188Y-3968812D01*
G36*
X26587000Y-1399379D02*
X26587000Y-2055376D01*
X26270826Y-2371550D01*
X26273000Y-2360621D01*
X26273000Y-1704624D01*
X26589174Y-1388450D01*
X26587000Y-1399379D01*
X26587000Y-1399379D01*
G37*
X26587000Y-1399379D02*
X26587000Y-2055376D01*
X26270826Y-2371550D01*
X26273000Y-2360621D01*
X26273000Y-1704624D01*
X26589174Y-1388450D01*
X26587000Y-1399379D01*
G36*
X24047000Y-1704624D02*
X24047000Y-2360621D01*
X24049174Y-2371550D01*
X23733000Y-2055376D01*
X23733000Y-1399379D01*
X23730826Y-1388450D01*
X24047000Y-1704624D01*
X24047000Y-1704624D01*
G37*
X24047000Y-1704624D02*
X24047000Y-2360621D01*
X24049174Y-2371550D01*
X23733000Y-2055376D01*
X23733000Y-1399379D01*
X23730826Y-1388450D01*
X24047000Y-1704624D01*
G36*
X21507000Y-1399379D02*
X21507000Y-2055376D01*
X21190826Y-2371550D01*
X21193000Y-2360621D01*
X21193000Y-1704624D01*
X21509174Y-1388450D01*
X21507000Y-1399379D01*
X21507000Y-1399379D01*
G37*
X21507000Y-1399379D02*
X21507000Y-2055376D01*
X21190826Y-2371550D01*
X21193000Y-2360621D01*
X21193000Y-1704624D01*
X21509174Y-1388450D01*
X21507000Y-1399379D01*
G36*
X31353000Y-2209376D02*
X31353000Y-1704624D01*
X32144624Y-913000D01*
X32649376Y-913000D01*
X31353000Y-2209376D01*
X31353000Y-2209376D01*
G37*
X31353000Y-2209376D02*
X31353000Y-1704624D01*
X32144624Y-913000D01*
X32649376Y-913000D01*
X31353000Y-2209376D01*
G36*
X34645055Y-1677635D02*
X34538570Y-1837000D01*
X33600624Y-1837000D01*
X33774624Y-1663000D01*
X34666958Y-1663000D01*
X34645055Y-1677635D01*
X34645055Y-1677635D01*
G37*
X34645055Y-1677635D02*
X34538570Y-1837000D01*
X33600624Y-1837000D01*
X33774624Y-1663000D01*
X34666958Y-1663000D01*
X34645055Y-1677635D01*
M02*
