G04 #@! TF.FileFunction,Copper,L1,Top,Signal*
%FSLAX46Y46*%
G04 Gerber Fmt 4.6, Leading zero omitted, Abs format (unit mm)*
G04 Created by KiCad (PCBNEW 4.0.6) date 03/21/17 17:18:47*
%MOMM*%
%LPD*%
G01*
G04 APERTURE LIST*
%ADD10C,0.100000*%
%ADD11R,0.800000X1.000000*%
%ADD12R,1.300000X1.500000*%
%ADD13R,2.000000X2.000000*%
%ADD14C,2.000000*%
%ADD15O,1.000000X1.524000*%
%ADD16R,1.600000X2.000000*%
%ADD17R,0.450000X1.450000*%
%ADD18R,2.032000X1.727200*%
%ADD19O,2.032000X1.727200*%
%ADD20R,2.400000X4.000000*%
%ADD21R,1.198880X1.198880*%
%ADD22C,0.800000*%
%ADD23C,0.600000*%
%ADD24C,0.500000*%
%ADD25C,0.250000*%
%ADD26C,0.026000*%
G04 APERTURE END LIST*
D10*
D11*
X28900000Y-7000000D03*
X27100000Y-7000000D03*
D12*
X21750000Y-4000000D03*
X19250000Y-4000000D03*
D13*
X9144000Y-2286000D03*
D14*
X9144000Y-4779000D03*
X9144000Y-7279000D03*
X9144000Y-9779000D03*
X9144000Y-12279000D03*
X9144000Y-14779000D03*
X9144000Y-17279000D03*
D15*
X24500000Y-1500000D03*
X26000000Y-1500000D03*
X27500000Y-1500000D03*
X29000000Y-1500000D03*
X30500000Y-1500000D03*
X32000000Y-1500000D03*
D11*
X21400000Y-6000000D03*
X19600000Y-6000000D03*
D16*
X19000000Y-7800000D03*
X19000000Y-13200000D03*
D17*
X15450000Y-2550000D03*
X14800000Y-2550000D03*
X14150000Y-2550000D03*
X13500000Y-2550000D03*
X12850000Y-2550000D03*
X12200000Y-2550000D03*
X11550000Y-2550000D03*
X11550000Y-8450000D03*
X12200000Y-8450000D03*
X12850000Y-8450000D03*
X13500000Y-8450000D03*
X14150000Y-8450000D03*
X14800000Y-8450000D03*
X15450000Y-8450000D03*
X11550000Y-17450000D03*
X12200000Y-17450000D03*
X12850000Y-17450000D03*
X13500000Y-17450000D03*
X14150000Y-17450000D03*
X14800000Y-17450000D03*
X15450000Y-17450000D03*
X15450000Y-11550000D03*
X14800000Y-11550000D03*
X14150000Y-11550000D03*
X13500000Y-11550000D03*
X12850000Y-11550000D03*
X12200000Y-11550000D03*
X11550000Y-11550000D03*
D18*
X37000000Y-2000000D03*
D19*
X37000000Y-4540000D03*
X37000000Y-7080000D03*
X37000000Y-9620000D03*
D20*
X22300000Y-14000000D03*
X34700000Y-14000000D03*
D21*
X33049020Y-6500000D03*
X30950980Y-6500000D03*
D11*
X18100000Y-19000000D03*
X19900000Y-19000000D03*
D21*
X37500000Y-12450980D03*
X37500000Y-14549020D03*
X37500000Y-16450980D03*
X37500000Y-18549020D03*
D12*
X19250000Y-1500000D03*
X21750000Y-1500000D03*
D22*
X20000000Y-13000000D03*
D23*
X29500000Y-11500000D03*
X30000000Y-15500000D03*
X32400000Y-3000000D03*
X33800000Y-8000000D03*
X34500000Y-10250000D03*
X16250000Y-15000000D03*
X16900000Y-12500000D03*
X14200000Y-13400000D03*
X25000000Y-7200000D03*
X17000000Y-7500000D03*
X16900000Y-7500000D03*
X4000000Y-14500000D03*
X1000000Y-10000000D03*
X1000000Y-18000000D03*
X3500000Y-2500000D03*
X20000000Y-4000000D03*
X28000000Y-10000000D03*
X29000000Y-9000000D03*
X28000000Y-8000000D03*
X17200000Y-3200000D03*
X14000000Y-6500000D03*
X17500000Y-10000000D03*
X17500000Y-5000000D03*
X27900000Y-11900000D03*
X19500000Y-6000000D03*
X34500000Y-14100000D03*
X18998860Y-18000000D03*
X34500000Y-18000000D03*
X23700000Y-5600000D03*
X28000000Y-9000000D03*
X21500000Y-4000000D03*
X28200000Y-2600000D03*
X28400000Y-3400000D03*
X14800000Y-3700000D03*
X11600000Y-4400000D03*
X12200000Y-7400000D03*
X12800000Y-6400000D03*
X12200000Y-16200000D03*
X14800000Y-16200000D03*
X25000000Y-16000000D03*
X26100000Y-11500000D03*
X23400000Y-1000000D03*
D22*
X17750000Y-750000D03*
X7750000Y-750000D03*
D23*
X6000000Y-10000000D03*
X5000000Y-6000000D03*
X27300000Y-5900000D03*
X28200000Y-5900000D03*
X3800000Y-12800000D03*
X3800000Y-10000000D03*
X24900000Y-9400000D03*
X25800000Y-6400000D03*
D22*
X37500000Y-11500000D03*
D23*
X24500000Y-13000000D03*
X25600000Y-12200000D03*
D22*
X35000000Y-19000000D03*
X19000000Y-16500000D03*
D24*
X21750000Y-1500000D02*
X21000000Y-1500000D01*
X20500000Y-3500000D02*
X20000000Y-4000000D01*
X20500000Y-2000000D02*
X20500000Y-3500000D01*
X21000000Y-1500000D02*
X20500000Y-2000000D01*
X19000000Y-13200000D02*
X17600000Y-13200000D01*
X17600000Y-13200000D02*
X16900000Y-12500000D01*
X16600000Y-2000000D02*
X16600000Y-2600000D01*
X16600000Y-2600000D02*
X17200000Y-3200000D01*
X17500000Y-5000000D02*
X17500000Y-3500000D01*
X17500000Y-3500000D02*
X17200000Y-3200000D01*
X17000000Y-7500000D02*
X17000000Y-5500000D01*
X17000000Y-5500000D02*
X17500000Y-5000000D01*
X17500000Y-10000000D02*
X17500000Y-8000000D01*
X17500000Y-8000000D02*
X17000000Y-7500000D01*
X16900000Y-12500000D02*
X16900000Y-10600000D01*
X16900000Y-10600000D02*
X17500000Y-10000000D01*
X20000000Y-13000000D02*
X19200000Y-13000000D01*
X19200000Y-13000000D02*
X19000000Y-13200000D01*
D25*
X30000000Y-12000000D02*
X29500000Y-11500000D01*
X30000000Y-15500000D02*
X30000000Y-12000000D01*
X37000000Y-4540000D02*
X35540000Y-4540000D01*
X35540000Y-4540000D02*
X34000000Y-3000000D01*
X34000000Y-3000000D02*
X32400000Y-3000000D01*
X34500000Y-10250000D02*
X33800000Y-9550000D01*
X33800000Y-9550000D02*
X33800000Y-8000000D01*
X16900000Y-12500000D02*
X16900000Y-13600000D01*
X16250000Y-15000000D02*
X16250000Y-14250000D01*
X16900000Y-13600000D02*
X16250000Y-14250000D01*
X14200000Y-13400000D02*
X14200000Y-12800000D01*
X27200000Y-8000000D02*
X27200000Y-7100000D01*
X27200000Y-7100000D02*
X27100000Y-7000000D01*
D24*
X28000000Y-8000000D02*
X27200000Y-8000000D01*
X27200000Y-8000000D02*
X25800000Y-8000000D01*
X25800000Y-8000000D02*
X25000000Y-7200000D01*
X24500000Y-6700000D02*
X24500000Y-1500000D01*
X25000000Y-7200000D02*
X24500000Y-6700000D01*
D25*
X16900000Y-7500000D02*
X17000000Y-7500000D01*
D24*
X1000000Y-14500000D02*
X4000000Y-14500000D01*
X1000000Y-10000000D02*
X1000000Y-5000000D01*
X1000000Y-14000000D02*
X1000000Y-10000000D01*
X1000000Y-18000000D02*
X1000000Y-14500000D01*
X1000000Y-14500000D02*
X1000000Y-14000000D01*
X3500000Y-2500000D02*
X1000000Y-5000000D01*
X9144000Y-2286000D02*
X3714000Y-2286000D01*
X3714000Y-2286000D02*
X3500000Y-2500000D01*
D25*
X19250000Y-4000000D02*
X20000000Y-4000000D01*
X29000000Y-9000000D02*
X28000000Y-10000000D01*
X28000000Y-8000000D02*
X29000000Y-9000000D01*
D24*
X8930000Y-2500000D02*
X9144000Y-2286000D01*
D25*
X13500000Y-8450000D02*
X13500000Y-7000000D01*
X13500000Y-7000000D02*
X14000000Y-6500000D01*
X13500000Y-12500000D02*
X13800000Y-12800000D01*
X13800000Y-12800000D02*
X14200000Y-12800000D01*
X14800000Y-12600000D02*
X14800000Y-11550000D01*
X14600000Y-12800000D02*
X14800000Y-12600000D01*
X14200000Y-12800000D02*
X14600000Y-12800000D01*
X13500000Y-11550000D02*
X13500000Y-12500000D01*
X12200000Y-12400000D02*
X12200000Y-11550000D01*
X12600000Y-12800000D02*
X12200000Y-12400000D01*
X13200000Y-12800000D02*
X12600000Y-12800000D01*
X13500000Y-12500000D02*
X13200000Y-12800000D01*
X27900000Y-11900000D02*
X26400000Y-10400000D01*
X19000000Y-7800000D02*
X19800000Y-7800000D01*
X19800000Y-7800000D02*
X22400000Y-10400000D01*
X22400000Y-10400000D02*
X26400000Y-10400000D01*
X19500000Y-6000000D02*
X19600000Y-6000000D01*
X19600000Y-6000000D02*
X19600000Y-7400000D01*
X34500000Y-14100000D02*
X34600000Y-14000000D01*
X34600000Y-14000000D02*
X34700000Y-14000000D01*
X20600000Y-18000000D02*
X21000000Y-18400000D01*
X21000000Y-18400000D02*
X34100000Y-18400000D01*
X34100000Y-18400000D02*
X34500000Y-18000000D01*
X18998860Y-18000000D02*
X20600000Y-18000000D01*
D24*
X19000000Y-18000000D02*
X18998860Y-18000000D01*
X18998860Y-18000000D02*
X19000000Y-18000000D01*
D25*
X22049020Y-3700980D02*
X21750000Y-4000000D01*
D24*
X21750000Y-4000000D02*
X23200000Y-4000000D01*
X23700000Y-4500000D02*
X23700000Y-5600000D01*
X23700000Y-5600000D02*
X23700000Y-7100000D01*
X25600000Y-9000000D02*
X28000000Y-9000000D01*
X23700000Y-7100000D02*
X25600000Y-9000000D01*
X23200000Y-4000000D02*
X23700000Y-4500000D01*
D25*
X21500000Y-4000000D02*
X21750000Y-4000000D01*
X21400000Y-6000000D02*
X21400000Y-5100000D01*
X21400000Y-5100000D02*
X21400000Y-4350000D01*
X21400000Y-4350000D02*
X21750000Y-4000000D01*
X28900000Y-7000000D02*
X29500000Y-7000000D01*
X30000000Y-6500000D02*
X30950980Y-6500000D01*
X29500000Y-7000000D02*
X30000000Y-6500000D01*
X11100000Y-1400000D02*
X10750000Y-1750000D01*
X10221000Y-4779000D02*
X10750000Y-4250000D01*
X10750000Y-4250000D02*
X10750000Y-1750000D01*
X9144000Y-4779000D02*
X10221000Y-4779000D01*
X14150000Y-1650000D02*
X13900000Y-1400000D01*
X13900000Y-1400000D02*
X11100000Y-1400000D01*
X14150000Y-1650000D02*
X14150000Y-2550000D01*
X9144000Y-7279000D02*
X10971000Y-7279000D01*
X12850000Y-5400000D02*
X12850000Y-2550000D01*
X10971000Y-7279000D02*
X12850000Y-5400000D01*
X9144000Y-9779000D02*
X12721000Y-9779000D01*
X12850000Y-9650000D02*
X12850000Y-8450000D01*
X12721000Y-9779000D02*
X12850000Y-9650000D01*
X9144000Y-12279000D02*
X11173000Y-10250000D01*
X14150000Y-9600000D02*
X14150000Y-8450000D01*
X13500000Y-10250000D02*
X14150000Y-9600000D01*
X11173000Y-10250000D02*
X13500000Y-10250000D01*
X12850000Y-17450000D02*
X12850000Y-15850000D01*
X11779000Y-14779000D02*
X9144000Y-14779000D01*
X12850000Y-15850000D02*
X11779000Y-14779000D01*
X30500000Y-1500000D02*
X29400000Y-2600000D01*
X29400000Y-2600000D02*
X28200000Y-2600000D01*
X32000000Y-1500000D02*
X30100000Y-3400000D01*
X30100000Y-3400000D02*
X28400000Y-3400000D01*
X14800000Y-2550000D02*
X14800000Y-3700000D01*
X14800000Y-2550000D02*
X15450000Y-2550000D01*
X12200000Y-2550000D02*
X12200000Y-3800000D01*
X12200000Y-3800000D02*
X11600000Y-4400000D01*
X12200000Y-2550000D02*
X11550000Y-2550000D01*
X12200000Y-8450000D02*
X12200000Y-7400000D01*
X11550000Y-8450000D02*
X12200000Y-8450000D01*
X14800000Y-8450000D02*
X14800000Y-6000000D01*
X13600000Y-5600000D02*
X12800000Y-6400000D01*
X14400000Y-5600000D02*
X13600000Y-5600000D01*
X14800000Y-6000000D02*
X14400000Y-5600000D01*
X14800000Y-8450000D02*
X15450000Y-8450000D01*
X12200000Y-17450000D02*
X12200000Y-16200000D01*
X11550000Y-17450000D02*
X12200000Y-17450000D01*
X14800000Y-17450000D02*
X14800000Y-16200000D01*
X14800000Y-17450000D02*
X15450000Y-17450000D01*
X25000000Y-16000000D02*
X25000000Y-14000000D01*
X25000000Y-14000000D02*
X26500000Y-12500000D01*
X26500000Y-12500000D02*
X26500000Y-11900000D01*
X26500000Y-11900000D02*
X26100000Y-11500000D01*
D24*
X18200000Y-14800000D02*
X21500000Y-14800000D01*
X21500000Y-14800000D02*
X22300000Y-14000000D01*
X16500000Y-18500000D02*
X16000000Y-19000000D01*
X16000000Y-19000000D02*
X14150000Y-19000000D01*
X17000000Y-19000000D02*
X18100000Y-19000000D01*
X16500000Y-18500000D02*
X17000000Y-19000000D01*
X16500000Y-16500000D02*
X16500000Y-18500000D01*
X18200000Y-14800000D02*
X16500000Y-16500000D01*
D25*
X14150000Y-17450000D02*
X14150000Y-19000000D01*
X14150000Y-19000000D02*
X14000000Y-19000000D01*
D24*
X14000000Y-19000000D02*
X10865000Y-19000000D01*
X10865000Y-19000000D02*
X9144000Y-17279000D01*
X22300000Y-14000000D02*
X21800000Y-14500000D01*
D25*
X22300000Y-14700000D02*
X22300000Y-14000000D01*
X22300000Y-14000000D02*
X21300000Y-15000000D01*
X13500000Y-17450000D02*
X13500000Y-16100000D01*
X13500000Y-3700000D02*
X13500000Y-2550000D01*
X16200000Y-6400000D02*
X13500000Y-3700000D01*
X16200000Y-13400000D02*
X16200000Y-6400000D01*
X13500000Y-16100000D02*
X14800000Y-14800000D01*
X14800000Y-14800000D02*
X15000000Y-14600000D01*
X15000000Y-14600000D02*
X16200000Y-13400000D01*
X13500000Y-17450000D02*
X14150000Y-17450000D01*
D24*
X19250000Y-1500000D02*
X18500000Y-750000D01*
X18500000Y-750000D02*
X17750000Y-750000D01*
D25*
X19000000Y-2000000D02*
X19500000Y-1500000D01*
X19500000Y-1500000D02*
X19950980Y-1500000D01*
X37000000Y-2000000D02*
X35400000Y-400000D01*
X23400000Y-1000000D02*
X24000000Y-400000D01*
X35400000Y-400000D02*
X24000000Y-400000D01*
D24*
X7750000Y-750000D02*
X17750000Y-750000D01*
X6000000Y-10000000D02*
X6000000Y-7000000D01*
X6000000Y-7000000D02*
X5000000Y-6000000D01*
D25*
X28600000Y-4600000D02*
X34520000Y-4600000D01*
X27300000Y-5900000D02*
X28600000Y-4600000D01*
X34520000Y-4600000D02*
X37000000Y-7080000D01*
X33800000Y-5100000D02*
X35500000Y-6800000D01*
X33800000Y-5100000D02*
X29000000Y-5100000D01*
X28200000Y-5900000D02*
X29000000Y-5100000D01*
X35500000Y-8120000D02*
X37000000Y-9620000D01*
X35500000Y-6800000D02*
X35500000Y-8120000D01*
X3800000Y-10000000D02*
X3800000Y-12800000D01*
X33049020Y-8650980D02*
X33049020Y-6600000D01*
X31000000Y-10700000D02*
X33049020Y-8650980D01*
X27600000Y-10700000D02*
X31000000Y-10700000D01*
X26700000Y-9800000D02*
X27600000Y-10700000D01*
X25300000Y-9800000D02*
X26700000Y-9800000D01*
X24900000Y-9400000D02*
X25300000Y-9800000D01*
D24*
X37500000Y-11500000D02*
X37500000Y-12450980D01*
D25*
X24500000Y-13000000D02*
X25300000Y-12200000D01*
X25300000Y-12200000D02*
X25600000Y-12200000D01*
D24*
X19900000Y-19000000D02*
X35000000Y-19000000D01*
X37500000Y-14549020D02*
X37500000Y-16450980D01*
X20600000Y-17000000D02*
X21400000Y-17800000D01*
X33400000Y-17800000D02*
X34200000Y-17000000D01*
X21400000Y-17800000D02*
X33400000Y-17800000D01*
X19500000Y-17000000D02*
X19000000Y-16500000D01*
X35950980Y-17000000D02*
X34200000Y-17000000D01*
X20600000Y-17000000D02*
X19500000Y-17000000D01*
X35950980Y-17000000D02*
X37500000Y-18549020D01*
D25*
X37500000Y-18549020D02*
X35950980Y-17000000D01*
D26*
G36*
X7230627Y-402310D02*
X7137107Y-627532D01*
X7136894Y-871398D01*
X7230021Y-1096783D01*
X7402310Y-1269373D01*
X7623000Y-1361011D01*
X7623000Y-1914750D01*
X7753250Y-2045000D01*
X8903000Y-2045000D01*
X8903000Y-2025000D01*
X9385000Y-2025000D01*
X9385000Y-2045000D01*
X9405000Y-2045000D01*
X9405000Y-2527000D01*
X9385000Y-2527000D01*
X9385000Y-2547000D01*
X8903000Y-2547000D01*
X8903000Y-2527000D01*
X7753250Y-2527000D01*
X7623000Y-2657250D01*
X7623000Y-3389633D01*
X7702317Y-3581122D01*
X7848877Y-3727682D01*
X8040366Y-3807000D01*
X8400758Y-3807000D01*
X8116268Y-4090994D01*
X7931211Y-4536661D01*
X7930790Y-5019222D01*
X8115069Y-5465212D01*
X8455994Y-5806732D01*
X8901661Y-5991789D01*
X9384222Y-5992210D01*
X9830212Y-5807931D01*
X10171732Y-5467006D01*
X10325716Y-5096170D01*
X10350347Y-5091271D01*
X10460002Y-5018002D01*
X10989002Y-4489002D01*
X11062271Y-4379347D01*
X11088000Y-4250000D01*
X11088000Y-1890004D01*
X11107828Y-1870176D01*
X11107828Y-3275000D01*
X11122680Y-3353933D01*
X11169329Y-3426428D01*
X11240508Y-3475062D01*
X11325000Y-3492172D01*
X11775000Y-3492172D01*
X11853933Y-3477320D01*
X11862000Y-3472129D01*
X11862000Y-3659996D01*
X11634965Y-3887031D01*
X11498406Y-3886911D01*
X11309789Y-3964846D01*
X11165354Y-4109030D01*
X11087090Y-4297510D01*
X11086911Y-4501594D01*
X11164846Y-4690211D01*
X11309030Y-4834646D01*
X11497510Y-4912910D01*
X11701594Y-4913089D01*
X11890211Y-4835154D01*
X12034646Y-4690970D01*
X12112910Y-4502490D01*
X12113031Y-4364973D01*
X12439002Y-4039002D01*
X12512000Y-3929753D01*
X12512000Y-5259996D01*
X10830996Y-6941000D01*
X10316809Y-6941000D01*
X10172931Y-6592788D01*
X9832006Y-6251268D01*
X9386339Y-6066211D01*
X8903778Y-6065790D01*
X8457788Y-6250069D01*
X8116268Y-6590994D01*
X7931211Y-7036661D01*
X7930790Y-7519222D01*
X8115069Y-7965212D01*
X8455994Y-8306732D01*
X8901661Y-8491789D01*
X9384222Y-8492210D01*
X9830212Y-8307931D01*
X10171732Y-7967006D01*
X10317067Y-7617000D01*
X10971000Y-7617000D01*
X11100347Y-7591271D01*
X11210002Y-7518002D01*
X12286964Y-6441040D01*
X12286911Y-6501594D01*
X12364846Y-6690211D01*
X12509030Y-6834646D01*
X12697510Y-6912910D01*
X12901594Y-6913089D01*
X13090211Y-6835154D01*
X13234646Y-6690970D01*
X13312910Y-6502490D01*
X13313031Y-6364973D01*
X13740004Y-5938000D01*
X14259996Y-5938000D01*
X14462000Y-6140004D01*
X14462000Y-7526652D01*
X14459492Y-7524938D01*
X14375000Y-7507828D01*
X14198971Y-7507828D01*
X14166683Y-7429878D01*
X14020123Y-7283318D01*
X13828634Y-7204000D01*
X13742750Y-7204000D01*
X13612500Y-7334250D01*
X13612500Y-8209000D01*
X13707828Y-8209000D01*
X13707828Y-8691000D01*
X13612500Y-8691000D01*
X13612500Y-9565750D01*
X13659373Y-9612623D01*
X13359996Y-9912000D01*
X13066004Y-9912000D01*
X13089002Y-9889002D01*
X13148471Y-9800000D01*
X13162271Y-9779347D01*
X13178850Y-9696000D01*
X13257250Y-9696000D01*
X13387500Y-9565750D01*
X13387500Y-8691000D01*
X13292172Y-8691000D01*
X13292172Y-8209000D01*
X13387500Y-8209000D01*
X13387500Y-7334250D01*
X13257250Y-7204000D01*
X13171366Y-7204000D01*
X12979877Y-7283318D01*
X12833317Y-7429878D01*
X12801029Y-7507828D01*
X12710693Y-7507828D01*
X12712910Y-7502490D01*
X12713089Y-7298406D01*
X12635154Y-7109789D01*
X12490970Y-6965354D01*
X12302490Y-6887090D01*
X12098406Y-6886911D01*
X11909789Y-6964846D01*
X11765354Y-7109030D01*
X11687090Y-7297510D01*
X11686911Y-7501594D01*
X11689487Y-7507828D01*
X11325000Y-7507828D01*
X11246067Y-7522680D01*
X11173572Y-7569329D01*
X11124938Y-7640508D01*
X11107828Y-7725000D01*
X11107828Y-9175000D01*
X11122680Y-9253933D01*
X11169329Y-9326428D01*
X11240508Y-9375062D01*
X11325000Y-9392172D01*
X11775000Y-9392172D01*
X11853933Y-9377320D01*
X11874471Y-9364104D01*
X11890508Y-9375062D01*
X11975000Y-9392172D01*
X12425000Y-9392172D01*
X12503933Y-9377320D01*
X12512000Y-9372129D01*
X12512000Y-9441000D01*
X10316809Y-9441000D01*
X10172931Y-9092788D01*
X9832006Y-8751268D01*
X9386339Y-8566211D01*
X8903778Y-8565790D01*
X8457788Y-8750069D01*
X8116268Y-9090994D01*
X7931211Y-9536661D01*
X7930790Y-10019222D01*
X8115069Y-10465212D01*
X8455994Y-10806732D01*
X8901661Y-10991789D01*
X9384222Y-10992210D01*
X9830212Y-10807931D01*
X10171732Y-10467006D01*
X10317067Y-10117000D01*
X10827996Y-10117000D01*
X9734299Y-11210697D01*
X9386339Y-11066211D01*
X8903778Y-11065790D01*
X8457788Y-11250069D01*
X8116268Y-11590994D01*
X7931211Y-12036661D01*
X7930790Y-12519222D01*
X8115069Y-12965212D01*
X8455994Y-13306732D01*
X8901661Y-13491789D01*
X9384222Y-13492210D01*
X9830212Y-13307931D01*
X10171732Y-12967006D01*
X10356789Y-12521339D01*
X10357210Y-12038778D01*
X10212486Y-11688518D01*
X11115909Y-10785095D01*
X11107828Y-10825000D01*
X11107828Y-12275000D01*
X11122680Y-12353933D01*
X11169329Y-12426428D01*
X11240508Y-12475062D01*
X11325000Y-12492172D01*
X11501029Y-12492172D01*
X11533317Y-12570122D01*
X11679877Y-12716682D01*
X11871366Y-12796000D01*
X11957250Y-12796000D01*
X12087500Y-12665750D01*
X12087500Y-11791000D01*
X11992172Y-11791000D01*
X11992172Y-11309000D01*
X12087500Y-11309000D01*
X12087500Y-11289000D01*
X12312500Y-11289000D01*
X12312500Y-11309000D01*
X12407828Y-11309000D01*
X12407828Y-11791000D01*
X12312500Y-11791000D01*
X12312500Y-12665750D01*
X12442750Y-12796000D01*
X12528634Y-12796000D01*
X12720123Y-12716682D01*
X12850000Y-12586805D01*
X12979877Y-12716682D01*
X13171366Y-12796000D01*
X13257250Y-12796000D01*
X13387500Y-12665750D01*
X13387500Y-11791000D01*
X13292172Y-11791000D01*
X13292172Y-11309000D01*
X13387500Y-11309000D01*
X13387500Y-11289000D01*
X13612500Y-11289000D01*
X13612500Y-11309000D01*
X13707828Y-11309000D01*
X13707828Y-11791000D01*
X13612500Y-11791000D01*
X13612500Y-12665750D01*
X13742750Y-12796000D01*
X13828634Y-12796000D01*
X14020123Y-12716682D01*
X14150000Y-12586805D01*
X14279877Y-12716682D01*
X14471366Y-12796000D01*
X14557250Y-12796000D01*
X14687500Y-12665750D01*
X14687500Y-11791000D01*
X14592172Y-11791000D01*
X14592172Y-11309000D01*
X14687500Y-11309000D01*
X14687500Y-10434250D01*
X14557250Y-10304000D01*
X14471366Y-10304000D01*
X14279877Y-10383318D01*
X14150000Y-10513195D01*
X14020123Y-10383318D01*
X13896071Y-10331933D01*
X14389002Y-9839002D01*
X14462271Y-9729347D01*
X14488000Y-9600000D01*
X14488000Y-9373348D01*
X14490508Y-9375062D01*
X14575000Y-9392172D01*
X15025000Y-9392172D01*
X15103933Y-9377320D01*
X15124471Y-9364104D01*
X15140508Y-9375062D01*
X15225000Y-9392172D01*
X15675000Y-9392172D01*
X15753933Y-9377320D01*
X15826428Y-9330671D01*
X15862000Y-9278609D01*
X15862000Y-10722259D01*
X15830671Y-10673572D01*
X15759492Y-10624938D01*
X15675000Y-10607828D01*
X15498971Y-10607828D01*
X15466683Y-10529878D01*
X15320123Y-10383318D01*
X15128634Y-10304000D01*
X15042750Y-10304000D01*
X14912500Y-10434250D01*
X14912500Y-11309000D01*
X15007828Y-11309000D01*
X15007828Y-11791000D01*
X14912500Y-11791000D01*
X14912500Y-12665750D01*
X15042750Y-12796000D01*
X15128634Y-12796000D01*
X15320123Y-12716682D01*
X15466683Y-12570122D01*
X15498971Y-12492172D01*
X15675000Y-12492172D01*
X15753933Y-12477320D01*
X15826428Y-12430671D01*
X15862000Y-12378609D01*
X15862000Y-13259996D01*
X13260998Y-15860998D01*
X13188000Y-15970247D01*
X13188000Y-15850000D01*
X13162271Y-15720653D01*
X13089002Y-15610998D01*
X12018002Y-14539998D01*
X11908347Y-14466729D01*
X11779000Y-14441000D01*
X10316809Y-14441000D01*
X10172931Y-14092788D01*
X9832006Y-13751268D01*
X9386339Y-13566211D01*
X8903778Y-13565790D01*
X8457788Y-13750069D01*
X8116268Y-14090994D01*
X7931211Y-14536661D01*
X7930790Y-15019222D01*
X8115069Y-15465212D01*
X8455994Y-15806732D01*
X8901661Y-15991789D01*
X9384222Y-15992210D01*
X9830212Y-15807931D01*
X10171732Y-15467006D01*
X10317067Y-15117000D01*
X11638996Y-15117000D01*
X12209004Y-15687008D01*
X12098406Y-15686911D01*
X11909789Y-15764846D01*
X11765354Y-15909030D01*
X11687090Y-16097510D01*
X11686911Y-16301594D01*
X11764846Y-16490211D01*
X11784316Y-16509714D01*
X11775000Y-16507828D01*
X11325000Y-16507828D01*
X11246067Y-16522680D01*
X11173572Y-16569329D01*
X11124938Y-16640508D01*
X11107828Y-16725000D01*
X11107828Y-18175000D01*
X11122680Y-18253933D01*
X11169329Y-18326428D01*
X11240508Y-18375062D01*
X11325000Y-18392172D01*
X11775000Y-18392172D01*
X11853933Y-18377320D01*
X11874471Y-18364104D01*
X11890508Y-18375062D01*
X11975000Y-18392172D01*
X12425000Y-18392172D01*
X12503933Y-18377320D01*
X12524471Y-18364104D01*
X12540508Y-18375062D01*
X12625000Y-18392172D01*
X13075000Y-18392172D01*
X13153933Y-18377320D01*
X13174471Y-18364104D01*
X13190508Y-18375062D01*
X13275000Y-18392172D01*
X13725000Y-18392172D01*
X13803933Y-18377320D01*
X13812000Y-18372129D01*
X13812000Y-18537000D01*
X11056781Y-18537000D01*
X10264170Y-17744390D01*
X10356789Y-17521339D01*
X10357210Y-17038778D01*
X10172931Y-16592788D01*
X9832006Y-16251268D01*
X9386339Y-16066211D01*
X8903778Y-16065790D01*
X8457788Y-16250069D01*
X8116268Y-16590994D01*
X7931211Y-17036661D01*
X7930790Y-17519222D01*
X8115069Y-17965212D01*
X8455994Y-18306732D01*
X8901661Y-18491789D01*
X9384222Y-18492210D01*
X9609392Y-18399172D01*
X10537610Y-19327391D01*
X10687818Y-19427756D01*
X10865000Y-19463000D01*
X14000000Y-19463000D01*
X14075000Y-19448081D01*
X14150000Y-19463000D01*
X16000000Y-19463000D01*
X16147786Y-19433603D01*
X16177183Y-19427756D01*
X16327390Y-19327390D01*
X16500000Y-19154780D01*
X16672610Y-19327391D01*
X16822818Y-19427756D01*
X17000000Y-19463000D01*
X17482828Y-19463000D01*
X17482828Y-19500000D01*
X17497680Y-19578933D01*
X17544329Y-19651428D01*
X17615508Y-19700062D01*
X17700000Y-19717172D01*
X18500000Y-19717172D01*
X18578933Y-19702320D01*
X18651428Y-19655671D01*
X18700062Y-19584492D01*
X18717172Y-19500000D01*
X18717172Y-18500000D01*
X18704175Y-18430924D01*
X18707890Y-18434646D01*
X18896370Y-18512910D01*
X19100454Y-18513089D01*
X19289071Y-18435154D01*
X19297705Y-18426535D01*
X19282828Y-18500000D01*
X19282828Y-19500000D01*
X19297680Y-19578933D01*
X19344329Y-19651428D01*
X19415508Y-19700062D01*
X19500000Y-19717172D01*
X20300000Y-19717172D01*
X20378933Y-19702320D01*
X20451428Y-19655671D01*
X20500062Y-19584492D01*
X20517172Y-19500000D01*
X20517172Y-19463000D01*
X34596035Y-19463000D01*
X34652310Y-19519373D01*
X34877532Y-19612893D01*
X35121398Y-19613106D01*
X35346783Y-19519979D01*
X35519373Y-19347690D01*
X35612893Y-19122468D01*
X35613106Y-18878602D01*
X35519979Y-18653217D01*
X35347690Y-18480627D01*
X35122468Y-18387107D01*
X34878602Y-18386894D01*
X34810273Y-18415127D01*
X34934646Y-18290970D01*
X35012910Y-18102490D01*
X35013089Y-17898406D01*
X34935154Y-17709789D01*
X34790970Y-17565354D01*
X34602490Y-17487090D01*
X34398406Y-17486911D01*
X34346368Y-17508413D01*
X34391781Y-17463000D01*
X35759200Y-17463000D01*
X36683388Y-18387189D01*
X36683388Y-19148460D01*
X36698240Y-19227393D01*
X36744889Y-19299888D01*
X36816068Y-19348522D01*
X36900560Y-19365632D01*
X38099440Y-19365632D01*
X38178373Y-19350780D01*
X38250868Y-19304131D01*
X38299502Y-19232952D01*
X38316612Y-19148460D01*
X38316612Y-17949580D01*
X38301760Y-17870647D01*
X38255111Y-17798152D01*
X38183932Y-17749518D01*
X38099440Y-17732408D01*
X37338169Y-17732408D01*
X36866444Y-17260683D01*
X36900560Y-17267592D01*
X38099440Y-17267592D01*
X38178373Y-17252740D01*
X38250868Y-17206091D01*
X38299502Y-17134912D01*
X38316612Y-17050420D01*
X38316612Y-15851540D01*
X38301760Y-15772607D01*
X38255111Y-15700112D01*
X38183932Y-15651478D01*
X38099440Y-15634368D01*
X37963000Y-15634368D01*
X37963000Y-15365632D01*
X38099440Y-15365632D01*
X38178373Y-15350780D01*
X38250868Y-15304131D01*
X38299502Y-15232952D01*
X38316612Y-15148460D01*
X38316612Y-13949580D01*
X38301760Y-13870647D01*
X38255111Y-13798152D01*
X38183932Y-13749518D01*
X38099440Y-13732408D01*
X36900560Y-13732408D01*
X36821627Y-13747260D01*
X36749132Y-13793909D01*
X36700498Y-13865088D01*
X36683388Y-13949580D01*
X36683388Y-15148460D01*
X36698240Y-15227393D01*
X36744889Y-15299888D01*
X36816068Y-15348522D01*
X36900560Y-15365632D01*
X37037000Y-15365632D01*
X37037000Y-15634368D01*
X36900560Y-15634368D01*
X36821627Y-15649220D01*
X36749132Y-15695869D01*
X36700498Y-15767048D01*
X36683388Y-15851540D01*
X36683388Y-17050420D01*
X36689694Y-17083934D01*
X36278370Y-16672610D01*
X36128163Y-16572244D01*
X36098766Y-16566397D01*
X35950980Y-16537000D01*
X34200000Y-16537000D01*
X34037473Y-16569329D01*
X34022818Y-16572244D01*
X33872610Y-16672609D01*
X33208220Y-17337000D01*
X21591781Y-17337000D01*
X20927390Y-16672610D01*
X20777183Y-16572244D01*
X20747786Y-16566397D01*
X20600000Y-16537000D01*
X19691781Y-16537000D01*
X19613036Y-16458256D01*
X19613106Y-16378602D01*
X19519979Y-16153217D01*
X19347690Y-15980627D01*
X19122468Y-15887107D01*
X18878602Y-15886894D01*
X18653217Y-15980021D01*
X18480627Y-16152310D01*
X18387107Y-16377532D01*
X18386894Y-16621398D01*
X18480021Y-16846783D01*
X18652310Y-17019373D01*
X18877532Y-17112893D01*
X18958183Y-17112963D01*
X19172610Y-17327391D01*
X19322818Y-17427756D01*
X19500000Y-17463000D01*
X20408220Y-17463000D01*
X20609012Y-17663793D01*
X20600000Y-17662000D01*
X19386308Y-17662000D01*
X19289830Y-17565354D01*
X19101350Y-17487090D01*
X18897266Y-17486911D01*
X18708649Y-17564846D01*
X18564214Y-17709030D01*
X18485950Y-17897510D01*
X18485771Y-18101594D01*
X18563706Y-18290211D01*
X18570610Y-18297127D01*
X18500000Y-18282828D01*
X17700000Y-18282828D01*
X17621067Y-18297680D01*
X17548572Y-18344329D01*
X17499938Y-18415508D01*
X17482828Y-18500000D01*
X17482828Y-18537000D01*
X17191781Y-18537000D01*
X16963000Y-18308220D01*
X16963000Y-16691780D01*
X18391780Y-15263000D01*
X20882828Y-15263000D01*
X20882828Y-16000000D01*
X20897680Y-16078933D01*
X20944329Y-16151428D01*
X21015508Y-16200062D01*
X21100000Y-16217172D01*
X23500000Y-16217172D01*
X23578933Y-16202320D01*
X23651428Y-16155671D01*
X23700062Y-16084492D01*
X23717172Y-16000000D01*
X23717172Y-13101594D01*
X23986911Y-13101594D01*
X24064846Y-13290211D01*
X24209030Y-13434646D01*
X24397510Y-13512910D01*
X24601594Y-13513089D01*
X24790211Y-13435154D01*
X24934646Y-13290970D01*
X25012910Y-13102490D01*
X25013031Y-12964973D01*
X25333286Y-12644718D01*
X25497510Y-12712910D01*
X25701594Y-12713089D01*
X25884470Y-12637526D01*
X24760998Y-13760998D01*
X24687729Y-13870653D01*
X24662000Y-14000000D01*
X24662000Y-15612552D01*
X24565354Y-15709030D01*
X24487090Y-15897510D01*
X24486911Y-16101594D01*
X24564846Y-16290211D01*
X24709030Y-16434646D01*
X24897510Y-16512910D01*
X25101594Y-16513089D01*
X25290211Y-16435154D01*
X25434646Y-16290970D01*
X25512910Y-16102490D01*
X25513089Y-15898406D01*
X25435154Y-15709789D01*
X25338000Y-15612466D01*
X25338000Y-14140004D01*
X26739002Y-12739002D01*
X26812271Y-12629347D01*
X26838000Y-12500000D01*
X26838000Y-11900000D01*
X26812271Y-11770653D01*
X26739002Y-11660998D01*
X26612969Y-11534965D01*
X26613089Y-11398406D01*
X26535154Y-11209789D01*
X26390970Y-11065354D01*
X26202490Y-10987090D01*
X25998406Y-10986911D01*
X25809789Y-11064846D01*
X25665354Y-11209030D01*
X25587090Y-11397510D01*
X25586911Y-11601594D01*
X25622208Y-11687020D01*
X25498406Y-11686911D01*
X25309789Y-11764846D01*
X25190683Y-11883745D01*
X25170653Y-11887729D01*
X25060998Y-11960998D01*
X24534965Y-12487031D01*
X24398406Y-12486911D01*
X24209789Y-12564846D01*
X24065354Y-12709030D01*
X23987090Y-12897510D01*
X23986911Y-13101594D01*
X23717172Y-13101594D01*
X23717172Y-12000000D01*
X23702320Y-11921067D01*
X23655671Y-11848572D01*
X23584492Y-11799938D01*
X23500000Y-11782828D01*
X21100000Y-11782828D01*
X21021067Y-11797680D01*
X20948572Y-11844329D01*
X20899938Y-11915508D01*
X20882828Y-12000000D01*
X20882828Y-14337000D01*
X20307179Y-14337000D01*
X20321000Y-14303633D01*
X20321000Y-13571250D01*
X20190750Y-13441000D01*
X19241000Y-13441000D01*
X19241000Y-13461000D01*
X18759000Y-13461000D01*
X18759000Y-13441000D01*
X17809250Y-13441000D01*
X17679000Y-13571250D01*
X17679000Y-14303633D01*
X17758317Y-14495122D01*
X17804208Y-14541013D01*
X16172610Y-16172610D01*
X16072244Y-16322817D01*
X16072244Y-16322818D01*
X16037000Y-16500000D01*
X16037000Y-18308219D01*
X15808220Y-18537000D01*
X14488000Y-18537000D01*
X14488000Y-18373348D01*
X14490508Y-18375062D01*
X14575000Y-18392172D01*
X15025000Y-18392172D01*
X15103933Y-18377320D01*
X15124471Y-18364104D01*
X15140508Y-18375062D01*
X15225000Y-18392172D01*
X15675000Y-18392172D01*
X15753933Y-18377320D01*
X15826428Y-18330671D01*
X15875062Y-18259492D01*
X15892172Y-18175000D01*
X15892172Y-16725000D01*
X15877320Y-16646067D01*
X15830671Y-16573572D01*
X15759492Y-16524938D01*
X15675000Y-16507828D01*
X15225000Y-16507828D01*
X15216077Y-16509507D01*
X15234646Y-16490970D01*
X15312910Y-16302490D01*
X15313089Y-16098406D01*
X15235154Y-15909789D01*
X15090970Y-15765354D01*
X14902490Y-15687090D01*
X14698406Y-15686911D01*
X14509789Y-15764846D01*
X14365354Y-15909030D01*
X14287090Y-16097510D01*
X14286911Y-16301594D01*
X14364846Y-16490211D01*
X14384316Y-16509714D01*
X14375000Y-16507828D01*
X13925000Y-16507828D01*
X13846067Y-16522680D01*
X13838000Y-16527871D01*
X13838000Y-16240004D01*
X16439002Y-13639002D01*
X16512271Y-13529347D01*
X16538000Y-13400000D01*
X16538000Y-12096367D01*
X17679000Y-12096367D01*
X17679000Y-12828750D01*
X17809250Y-12959000D01*
X18759000Y-12959000D01*
X18759000Y-11809250D01*
X19241000Y-11809250D01*
X19241000Y-12959000D01*
X20190750Y-12959000D01*
X20321000Y-12828750D01*
X20321000Y-12096367D01*
X20241683Y-11904878D01*
X20095123Y-11758318D01*
X19903634Y-11679000D01*
X19371250Y-11679000D01*
X19241000Y-11809250D01*
X18759000Y-11809250D01*
X18628750Y-11679000D01*
X18096366Y-11679000D01*
X17904877Y-11758318D01*
X17758317Y-11904878D01*
X17679000Y-12096367D01*
X16538000Y-12096367D01*
X16538000Y-6800000D01*
X17982828Y-6800000D01*
X17982828Y-8800000D01*
X17997680Y-8878933D01*
X18044329Y-8951428D01*
X18115508Y-9000062D01*
X18200000Y-9017172D01*
X19800000Y-9017172D01*
X19878933Y-9002320D01*
X19951428Y-8955671D01*
X20000062Y-8884492D01*
X20017172Y-8800000D01*
X20017172Y-8495176D01*
X22160998Y-10639002D01*
X22270653Y-10712271D01*
X22400000Y-10738000D01*
X26259996Y-10738000D01*
X27387031Y-11865035D01*
X27386911Y-12001594D01*
X27464846Y-12190211D01*
X27609030Y-12334646D01*
X27797510Y-12412910D01*
X28001594Y-12413089D01*
X28190211Y-12335154D01*
X28334646Y-12190970D01*
X28412910Y-12002490D01*
X28412912Y-12000000D01*
X33282828Y-12000000D01*
X33282828Y-16000000D01*
X33297680Y-16078933D01*
X33344329Y-16151428D01*
X33415508Y-16200062D01*
X33500000Y-16217172D01*
X35900000Y-16217172D01*
X35978933Y-16202320D01*
X36051428Y-16155671D01*
X36100062Y-16084492D01*
X36117172Y-16000000D01*
X36117172Y-12000000D01*
X36102320Y-11921067D01*
X36057581Y-11851540D01*
X36683388Y-11851540D01*
X36683388Y-13050420D01*
X36698240Y-13129353D01*
X36744889Y-13201848D01*
X36816068Y-13250482D01*
X36900560Y-13267592D01*
X38099440Y-13267592D01*
X38178373Y-13252740D01*
X38250868Y-13206091D01*
X38299502Y-13134912D01*
X38316612Y-13050420D01*
X38316612Y-11851540D01*
X38301760Y-11772607D01*
X38255111Y-11700112D01*
X38183932Y-11651478D01*
X38107291Y-11635958D01*
X38112893Y-11622468D01*
X38113106Y-11378602D01*
X38019979Y-11153217D01*
X37847690Y-10980627D01*
X37622468Y-10887107D01*
X37378602Y-10886894D01*
X37153217Y-10980021D01*
X36980627Y-11152310D01*
X36887107Y-11377532D01*
X36886894Y-11621398D01*
X36892852Y-11635818D01*
X36821627Y-11649220D01*
X36749132Y-11695869D01*
X36700498Y-11767048D01*
X36683388Y-11851540D01*
X36057581Y-11851540D01*
X36055671Y-11848572D01*
X35984492Y-11799938D01*
X35900000Y-11782828D01*
X33500000Y-11782828D01*
X33421067Y-11797680D01*
X33348572Y-11844329D01*
X33299938Y-11915508D01*
X33282828Y-12000000D01*
X28412912Y-12000000D01*
X28413089Y-11798406D01*
X28335154Y-11609789D01*
X28190970Y-11465354D01*
X28002490Y-11387090D01*
X27864973Y-11386969D01*
X27495147Y-11017143D01*
X27600000Y-11038000D01*
X31000000Y-11038000D01*
X31129347Y-11012271D01*
X31239002Y-10939002D01*
X33288022Y-8889982D01*
X33361291Y-8780327D01*
X33387020Y-8650980D01*
X33387020Y-7316612D01*
X33648460Y-7316612D01*
X33727393Y-7301760D01*
X33799888Y-7255111D01*
X33848522Y-7183932D01*
X33865632Y-7099440D01*
X33865632Y-5900560D01*
X33850780Y-5821627D01*
X33804131Y-5749132D01*
X33732952Y-5700498D01*
X33648460Y-5683388D01*
X32449580Y-5683388D01*
X32370647Y-5698240D01*
X32298152Y-5744889D01*
X32249518Y-5816068D01*
X32232408Y-5900560D01*
X32232408Y-7099440D01*
X32247260Y-7178373D01*
X32293909Y-7250868D01*
X32365088Y-7299502D01*
X32449580Y-7316612D01*
X32711020Y-7316612D01*
X32711020Y-8510976D01*
X30859996Y-10362000D01*
X27740004Y-10362000D01*
X26939002Y-9560998D01*
X26829347Y-9487729D01*
X26705027Y-9463000D01*
X27777314Y-9463000D01*
X27897510Y-9512910D01*
X28101594Y-9513089D01*
X28290211Y-9435154D01*
X28434646Y-9290970D01*
X28512910Y-9102490D01*
X28513089Y-8898406D01*
X28435154Y-8709789D01*
X28290970Y-8565354D01*
X28102490Y-8487090D01*
X27898406Y-8486911D01*
X27777181Y-8537000D01*
X25791781Y-8537000D01*
X24626031Y-7371250D01*
X26179000Y-7371250D01*
X26179000Y-7603634D01*
X26258318Y-7795123D01*
X26404878Y-7941683D01*
X26596367Y-8021000D01*
X26769750Y-8021000D01*
X26900000Y-7890750D01*
X26900000Y-7241000D01*
X27300000Y-7241000D01*
X27300000Y-7890750D01*
X27430250Y-8021000D01*
X27603633Y-8021000D01*
X27795122Y-7941683D01*
X27941682Y-7795123D01*
X28021000Y-7603634D01*
X28021000Y-7371250D01*
X27890750Y-7241000D01*
X27300000Y-7241000D01*
X26900000Y-7241000D01*
X26309250Y-7241000D01*
X26179000Y-7371250D01*
X24626031Y-7371250D01*
X24163000Y-6908220D01*
X24163000Y-6501594D01*
X25286911Y-6501594D01*
X25364846Y-6690211D01*
X25509030Y-6834646D01*
X25697510Y-6912910D01*
X25901594Y-6913089D01*
X26090211Y-6835154D01*
X26234646Y-6690970D01*
X26236575Y-6686325D01*
X26309250Y-6759000D01*
X26900000Y-6759000D01*
X26900000Y-6739000D01*
X27300000Y-6739000D01*
X27300000Y-6759000D01*
X27890750Y-6759000D01*
X28021000Y-6628750D01*
X28021000Y-6396366D01*
X28013383Y-6377977D01*
X28097510Y-6412910D01*
X28301591Y-6413089D01*
X28299938Y-6415508D01*
X28282828Y-6500000D01*
X28282828Y-7500000D01*
X28297680Y-7578933D01*
X28344329Y-7651428D01*
X28415508Y-7700062D01*
X28500000Y-7717172D01*
X29300000Y-7717172D01*
X29378933Y-7702320D01*
X29451428Y-7655671D01*
X29500062Y-7584492D01*
X29517172Y-7500000D01*
X29517172Y-7334584D01*
X29629347Y-7312271D01*
X29739002Y-7239002D01*
X30134368Y-6843636D01*
X30134368Y-7099440D01*
X30149220Y-7178373D01*
X30195869Y-7250868D01*
X30267048Y-7299502D01*
X30351540Y-7316612D01*
X31550420Y-7316612D01*
X31629353Y-7301760D01*
X31701848Y-7255111D01*
X31750482Y-7183932D01*
X31767592Y-7099440D01*
X31767592Y-5900560D01*
X31752740Y-5821627D01*
X31706091Y-5749132D01*
X31634912Y-5700498D01*
X31550420Y-5683388D01*
X30351540Y-5683388D01*
X30272607Y-5698240D01*
X30200112Y-5744889D01*
X30151478Y-5816068D01*
X30134368Y-5900560D01*
X30134368Y-6162000D01*
X30000000Y-6162000D01*
X29870653Y-6187729D01*
X29760998Y-6260998D01*
X29517172Y-6504824D01*
X29517172Y-6500000D01*
X29502320Y-6421067D01*
X29455671Y-6348572D01*
X29384492Y-6299938D01*
X29300000Y-6282828D01*
X28542628Y-6282828D01*
X28634646Y-6190970D01*
X28712910Y-6002490D01*
X28713031Y-5864973D01*
X29140004Y-5438000D01*
X33659996Y-5438000D01*
X35162000Y-6940004D01*
X35162000Y-8120000D01*
X35187729Y-8249347D01*
X35260998Y-8359002D01*
X35941476Y-9039480D01*
X35828873Y-9208003D01*
X35746922Y-9620000D01*
X35828873Y-10031997D01*
X36062251Y-10381271D01*
X36411525Y-10614649D01*
X36823522Y-10696600D01*
X37176478Y-10696600D01*
X37588475Y-10614649D01*
X37937749Y-10381271D01*
X38171127Y-10031997D01*
X38253078Y-9620000D01*
X38171127Y-9208003D01*
X37937749Y-8858729D01*
X37588475Y-8625351D01*
X37176478Y-8543400D01*
X36823522Y-8543400D01*
X36471438Y-8613434D01*
X35838000Y-7979996D01*
X35838000Y-7505656D01*
X36062251Y-7841271D01*
X36411525Y-8074649D01*
X36823522Y-8156600D01*
X37176478Y-8156600D01*
X37588475Y-8074649D01*
X37937749Y-7841271D01*
X38171127Y-7491997D01*
X38253078Y-7080000D01*
X38171127Y-6668003D01*
X37937749Y-6318729D01*
X37588475Y-6085351D01*
X37176478Y-6003400D01*
X36823522Y-6003400D01*
X36471438Y-6073434D01*
X36076100Y-5678096D01*
X36544700Y-5886063D01*
X36759000Y-5786625D01*
X36759000Y-4781000D01*
X37241000Y-4781000D01*
X37241000Y-5786625D01*
X37455300Y-5886063D01*
X37947359Y-5667685D01*
X38318393Y-5277627D01*
X38461378Y-4991326D01*
X38383380Y-4781000D01*
X37241000Y-4781000D01*
X36759000Y-4781000D01*
X35616620Y-4781000D01*
X35538622Y-4991326D01*
X35681607Y-5277627D01*
X35798160Y-5400156D01*
X34759002Y-4360998D01*
X34649347Y-4287729D01*
X34520000Y-4262000D01*
X28600000Y-4262000D01*
X28470653Y-4287729D01*
X28360998Y-4360998D01*
X27334965Y-5387031D01*
X27198406Y-5386911D01*
X27009789Y-5464846D01*
X26865354Y-5609030D01*
X26787090Y-5797510D01*
X26786916Y-5996166D01*
X26769750Y-5979000D01*
X26596367Y-5979000D01*
X26404878Y-6058317D01*
X26269729Y-6193466D01*
X26235154Y-6109789D01*
X26090970Y-5965354D01*
X25902490Y-5887090D01*
X25698406Y-5886911D01*
X25509789Y-5964846D01*
X25365354Y-6109030D01*
X25287090Y-6297510D01*
X25286911Y-6501594D01*
X24163000Y-6501594D01*
X24163000Y-5822686D01*
X24212910Y-5702490D01*
X24213089Y-5498406D01*
X24163000Y-5377181D01*
X24163000Y-4500000D01*
X24127756Y-4322818D01*
X24111841Y-4299000D01*
X24027391Y-4172610D01*
X23943455Y-4088674D01*
X35538622Y-4088674D01*
X35616620Y-4299000D01*
X36759000Y-4299000D01*
X36759000Y-3293375D01*
X37241000Y-3293375D01*
X37241000Y-4299000D01*
X38383380Y-4299000D01*
X38461378Y-4088674D01*
X38318393Y-3802373D01*
X37947359Y-3412315D01*
X37455300Y-3193937D01*
X37241000Y-3293375D01*
X36759000Y-3293375D01*
X36544700Y-3193937D01*
X36052641Y-3412315D01*
X35681607Y-3802373D01*
X35538622Y-4088674D01*
X23943455Y-4088674D01*
X23527390Y-3672610D01*
X23377183Y-3572244D01*
X23339990Y-3564846D01*
X23200000Y-3537000D01*
X22617172Y-3537000D01*
X22617172Y-3250000D01*
X22602320Y-3171067D01*
X22555671Y-3098572D01*
X22484492Y-3049938D01*
X22400000Y-3032828D01*
X21100000Y-3032828D01*
X21021067Y-3047680D01*
X20948572Y-3094329D01*
X20899938Y-3165508D01*
X20882828Y-3250000D01*
X20882828Y-4750000D01*
X20897680Y-4828933D01*
X20944329Y-4901428D01*
X21015508Y-4950062D01*
X21062000Y-4959477D01*
X21062000Y-5282828D01*
X21000000Y-5282828D01*
X20921067Y-5297680D01*
X20848572Y-5344329D01*
X20799938Y-5415508D01*
X20782828Y-5500000D01*
X20782828Y-6500000D01*
X20797680Y-6578933D01*
X20844329Y-6651428D01*
X20915508Y-6700062D01*
X21000000Y-6717172D01*
X21800000Y-6717172D01*
X21878933Y-6702320D01*
X21951428Y-6655671D01*
X22000062Y-6584492D01*
X22017172Y-6500000D01*
X22017172Y-5500000D01*
X22002320Y-5421067D01*
X21955671Y-5348572D01*
X21884492Y-5299938D01*
X21800000Y-5282828D01*
X21738000Y-5282828D01*
X21738000Y-4967172D01*
X22400000Y-4967172D01*
X22478933Y-4952320D01*
X22551428Y-4905671D01*
X22600062Y-4834492D01*
X22617172Y-4750000D01*
X22617172Y-4463000D01*
X23008220Y-4463000D01*
X23237000Y-4691781D01*
X23237000Y-5377314D01*
X23187090Y-5497510D01*
X23186911Y-5701594D01*
X23237000Y-5822819D01*
X23237000Y-7100000D01*
X23265047Y-7241000D01*
X23272244Y-7277183D01*
X23372610Y-7427390D01*
X24832160Y-8886941D01*
X24798406Y-8886911D01*
X24609789Y-8964846D01*
X24465354Y-9109030D01*
X24387090Y-9297510D01*
X24386911Y-9501594D01*
X24464846Y-9690211D01*
X24609030Y-9834646D01*
X24797510Y-9912910D01*
X24935027Y-9913031D01*
X25060998Y-10039002D01*
X25095417Y-10062000D01*
X22540004Y-10062000D01*
X20039002Y-7560998D01*
X20017172Y-7546412D01*
X20017172Y-6800000D01*
X20002320Y-6721067D01*
X19999814Y-6717172D01*
X20000000Y-6717172D01*
X20078933Y-6702320D01*
X20151428Y-6655671D01*
X20200062Y-6584492D01*
X20217172Y-6500000D01*
X20217172Y-5500000D01*
X20202320Y-5421067D01*
X20155671Y-5348572D01*
X20084492Y-5299938D01*
X20000000Y-5282828D01*
X19200000Y-5282828D01*
X19121067Y-5297680D01*
X19048572Y-5344329D01*
X18999938Y-5415508D01*
X18982828Y-5500000D01*
X18982828Y-6500000D01*
X18997680Y-6578933D01*
X19000186Y-6582828D01*
X18200000Y-6582828D01*
X18121067Y-6597680D01*
X18048572Y-6644329D01*
X17999938Y-6715508D01*
X17982828Y-6800000D01*
X16538000Y-6800000D01*
X16538000Y-6400000D01*
X16512271Y-6270653D01*
X16439002Y-6160998D01*
X14649254Y-4371250D01*
X18079000Y-4371250D01*
X18079000Y-4853634D01*
X18158318Y-5045123D01*
X18304878Y-5191683D01*
X18496367Y-5271000D01*
X18878750Y-5271000D01*
X19009000Y-5140750D01*
X19009000Y-4241000D01*
X19491000Y-4241000D01*
X19491000Y-5140750D01*
X19621250Y-5271000D01*
X20003633Y-5271000D01*
X20195122Y-5191683D01*
X20341682Y-5045123D01*
X20421000Y-4853634D01*
X20421000Y-4371250D01*
X20290750Y-4241000D01*
X19491000Y-4241000D01*
X19009000Y-4241000D01*
X18209250Y-4241000D01*
X18079000Y-4371250D01*
X14649254Y-4371250D01*
X13838000Y-3559996D01*
X13838000Y-3473348D01*
X13840508Y-3475062D01*
X13925000Y-3492172D01*
X14330830Y-3492172D01*
X14287090Y-3597510D01*
X14286911Y-3801594D01*
X14364846Y-3990211D01*
X14509030Y-4134646D01*
X14697510Y-4212910D01*
X14901594Y-4213089D01*
X15090211Y-4135154D01*
X15234646Y-3990970D01*
X15312910Y-3802490D01*
X15313089Y-3598406D01*
X15269194Y-3492172D01*
X15675000Y-3492172D01*
X15753933Y-3477320D01*
X15826428Y-3430671D01*
X15875062Y-3359492D01*
X15892172Y-3275000D01*
X15892172Y-3146366D01*
X18079000Y-3146366D01*
X18079000Y-3628750D01*
X18209250Y-3759000D01*
X19009000Y-3759000D01*
X19009000Y-2859250D01*
X19491000Y-2859250D01*
X19491000Y-3759000D01*
X20290750Y-3759000D01*
X20421000Y-3628750D01*
X20421000Y-3146366D01*
X20341682Y-2954877D01*
X20195122Y-2808317D01*
X20003633Y-2729000D01*
X19621250Y-2729000D01*
X19491000Y-2859250D01*
X19009000Y-2859250D01*
X18878750Y-2729000D01*
X18496367Y-2729000D01*
X18304878Y-2808317D01*
X18158318Y-2954877D01*
X18079000Y-3146366D01*
X15892172Y-3146366D01*
X15892172Y-1825000D01*
X15877320Y-1746067D01*
X15830671Y-1673572D01*
X15759492Y-1624938D01*
X15675000Y-1607828D01*
X15225000Y-1607828D01*
X15146067Y-1622680D01*
X15125529Y-1635896D01*
X15109492Y-1624938D01*
X15025000Y-1607828D01*
X14575000Y-1607828D01*
X14496067Y-1622680D01*
X14484098Y-1630382D01*
X14462271Y-1520653D01*
X14389002Y-1410998D01*
X14191004Y-1213000D01*
X17346035Y-1213000D01*
X17402310Y-1269373D01*
X17627532Y-1362893D01*
X17871398Y-1363106D01*
X18096783Y-1269979D01*
X18153862Y-1213000D01*
X18308220Y-1213000D01*
X18382828Y-1287608D01*
X18382828Y-2250000D01*
X18397680Y-2328933D01*
X18444329Y-2401428D01*
X18515508Y-2450062D01*
X18600000Y-2467172D01*
X19900000Y-2467172D01*
X19978933Y-2452320D01*
X20051428Y-2405671D01*
X20100062Y-2334492D01*
X20117172Y-2250000D01*
X20117172Y-1871250D01*
X20579000Y-1871250D01*
X20579000Y-2353634D01*
X20658318Y-2545123D01*
X20804878Y-2691683D01*
X20996367Y-2771000D01*
X21378750Y-2771000D01*
X21509000Y-2640750D01*
X21509000Y-1741000D01*
X21991000Y-1741000D01*
X21991000Y-2640750D01*
X22121250Y-2771000D01*
X22503633Y-2771000D01*
X22695122Y-2691683D01*
X22841682Y-2545123D01*
X22921000Y-2353634D01*
X22921000Y-1871250D01*
X22790750Y-1741000D01*
X21991000Y-1741000D01*
X21509000Y-1741000D01*
X20709250Y-1741000D01*
X20579000Y-1871250D01*
X20117172Y-1871250D01*
X20117172Y-1787652D01*
X20189982Y-1739002D01*
X20263251Y-1629347D01*
X20288980Y-1500000D01*
X20263251Y-1370653D01*
X20189982Y-1260998D01*
X20117172Y-1212348D01*
X20117172Y-750000D01*
X20102320Y-671067D01*
X20055671Y-598572D01*
X19984492Y-549938D01*
X19900000Y-532828D01*
X18937608Y-532828D01*
X18827390Y-422610D01*
X18677183Y-322244D01*
X18647786Y-316397D01*
X18500000Y-287000D01*
X18153965Y-287000D01*
X18130007Y-263000D01*
X20914283Y-263000D01*
X20804878Y-308317D01*
X20658318Y-454877D01*
X20579000Y-646366D01*
X20579000Y-1128750D01*
X20709250Y-1259000D01*
X21509000Y-1259000D01*
X21509000Y-1239000D01*
X21991000Y-1239000D01*
X21991000Y-1259000D01*
X22790750Y-1259000D01*
X22904818Y-1144932D01*
X22964846Y-1290211D01*
X23109030Y-1434646D01*
X23297510Y-1512910D01*
X23479000Y-1513069D01*
X23479000Y-1741002D01*
X23606775Y-1741002D01*
X23485843Y-1901365D01*
X23616374Y-2278858D01*
X23881429Y-2577664D01*
X24106761Y-2704233D01*
X24259000Y-2619528D01*
X24259000Y-1741000D01*
X24239000Y-1741000D01*
X24239000Y-1259000D01*
X24259000Y-1259000D01*
X24259000Y-1239000D01*
X24741000Y-1239000D01*
X24741000Y-1259000D01*
X24761000Y-1259000D01*
X24761000Y-1741000D01*
X24741000Y-1741000D01*
X24741000Y-2619528D01*
X24893239Y-2704233D01*
X25118571Y-2577664D01*
X25383626Y-2278858D01*
X25420431Y-2172420D01*
X25495833Y-2285268D01*
X25727147Y-2439827D01*
X26000000Y-2494101D01*
X26272853Y-2439827D01*
X26504167Y-2285268D01*
X26658726Y-2053954D01*
X26713000Y-1781101D01*
X26713000Y-1218899D01*
X26658726Y-946046D01*
X26519714Y-738000D01*
X26980286Y-738000D01*
X26841274Y-946046D01*
X26787000Y-1218899D01*
X26787000Y-1781101D01*
X26841274Y-2053954D01*
X26995833Y-2285268D01*
X27227147Y-2439827D01*
X27500000Y-2494101D01*
X27705477Y-2453229D01*
X27687090Y-2497510D01*
X27686911Y-2701594D01*
X27764846Y-2890211D01*
X27909030Y-3034646D01*
X28001432Y-3073015D01*
X27965354Y-3109030D01*
X27887090Y-3297510D01*
X27886911Y-3501594D01*
X27964846Y-3690211D01*
X28109030Y-3834646D01*
X28297510Y-3912910D01*
X28501594Y-3913089D01*
X28690211Y-3835154D01*
X28787534Y-3738000D01*
X30100000Y-3738000D01*
X30229347Y-3712271D01*
X30339002Y-3639002D01*
X31613868Y-2364136D01*
X31727147Y-2439827D01*
X32000000Y-2494101D01*
X32272853Y-2439827D01*
X32504167Y-2285268D01*
X32658726Y-2053954D01*
X32713000Y-1781101D01*
X32713000Y-1218899D01*
X32658726Y-946046D01*
X32519714Y-738000D01*
X35259996Y-738000D01*
X35766828Y-1244832D01*
X35766828Y-2863600D01*
X35781680Y-2942533D01*
X35828329Y-3015028D01*
X35899508Y-3063662D01*
X35984000Y-3080772D01*
X38016000Y-3080772D01*
X38094933Y-3065920D01*
X38167428Y-3019271D01*
X38216062Y-2948092D01*
X38233172Y-2863600D01*
X38233172Y-1136400D01*
X38218320Y-1057467D01*
X38171671Y-984972D01*
X38100492Y-936338D01*
X38016000Y-919228D01*
X36397232Y-919228D01*
X35741004Y-263000D01*
X38737000Y-263000D01*
X38737000Y-19737000D01*
X263000Y-19737000D01*
X263000Y-10101594D01*
X3286911Y-10101594D01*
X3364846Y-10290211D01*
X3462000Y-10387534D01*
X3462000Y-12412552D01*
X3365354Y-12509030D01*
X3287090Y-12697510D01*
X3286911Y-12901594D01*
X3364846Y-13090211D01*
X3509030Y-13234646D01*
X3697510Y-13312910D01*
X3901594Y-13313089D01*
X4090211Y-13235154D01*
X4234646Y-13090970D01*
X4312910Y-12902490D01*
X4313089Y-12698406D01*
X4235154Y-12509789D01*
X4138000Y-12412466D01*
X4138000Y-10387448D01*
X4234646Y-10290970D01*
X4312910Y-10102490D01*
X4313089Y-9898406D01*
X4235154Y-9709789D01*
X4090970Y-9565354D01*
X3902490Y-9487090D01*
X3698406Y-9486911D01*
X3509789Y-9564846D01*
X3365354Y-9709030D01*
X3287090Y-9897510D01*
X3286911Y-10101594D01*
X263000Y-10101594D01*
X263000Y-6101594D01*
X4486911Y-6101594D01*
X4564846Y-6290211D01*
X4709030Y-6434646D01*
X4830166Y-6484946D01*
X5537000Y-7191781D01*
X5537000Y-9777314D01*
X5487090Y-9897510D01*
X5486911Y-10101594D01*
X5564846Y-10290211D01*
X5709030Y-10434646D01*
X5897510Y-10512910D01*
X6101594Y-10513089D01*
X6290211Y-10435154D01*
X6434646Y-10290970D01*
X6512910Y-10102490D01*
X6513089Y-9898406D01*
X6463000Y-9777181D01*
X6463000Y-7000000D01*
X6427756Y-6822818D01*
X6420709Y-6812271D01*
X6327391Y-6672610D01*
X5484855Y-5830075D01*
X5435154Y-5709789D01*
X5290970Y-5565354D01*
X5102490Y-5487090D01*
X4898406Y-5486911D01*
X4709789Y-5564846D01*
X4565354Y-5709030D01*
X4487090Y-5897510D01*
X4486911Y-6101594D01*
X263000Y-6101594D01*
X263000Y-263000D01*
X7370180Y-263000D01*
X7230627Y-402310D01*
X7230627Y-402310D01*
G37*
X7230627Y-402310D02*
X7137107Y-627532D01*
X7136894Y-871398D01*
X7230021Y-1096783D01*
X7402310Y-1269373D01*
X7623000Y-1361011D01*
X7623000Y-1914750D01*
X7753250Y-2045000D01*
X8903000Y-2045000D01*
X8903000Y-2025000D01*
X9385000Y-2025000D01*
X9385000Y-2045000D01*
X9405000Y-2045000D01*
X9405000Y-2527000D01*
X9385000Y-2527000D01*
X9385000Y-2547000D01*
X8903000Y-2547000D01*
X8903000Y-2527000D01*
X7753250Y-2527000D01*
X7623000Y-2657250D01*
X7623000Y-3389633D01*
X7702317Y-3581122D01*
X7848877Y-3727682D01*
X8040366Y-3807000D01*
X8400758Y-3807000D01*
X8116268Y-4090994D01*
X7931211Y-4536661D01*
X7930790Y-5019222D01*
X8115069Y-5465212D01*
X8455994Y-5806732D01*
X8901661Y-5991789D01*
X9384222Y-5992210D01*
X9830212Y-5807931D01*
X10171732Y-5467006D01*
X10325716Y-5096170D01*
X10350347Y-5091271D01*
X10460002Y-5018002D01*
X10989002Y-4489002D01*
X11062271Y-4379347D01*
X11088000Y-4250000D01*
X11088000Y-1890004D01*
X11107828Y-1870176D01*
X11107828Y-3275000D01*
X11122680Y-3353933D01*
X11169329Y-3426428D01*
X11240508Y-3475062D01*
X11325000Y-3492172D01*
X11775000Y-3492172D01*
X11853933Y-3477320D01*
X11862000Y-3472129D01*
X11862000Y-3659996D01*
X11634965Y-3887031D01*
X11498406Y-3886911D01*
X11309789Y-3964846D01*
X11165354Y-4109030D01*
X11087090Y-4297510D01*
X11086911Y-4501594D01*
X11164846Y-4690211D01*
X11309030Y-4834646D01*
X11497510Y-4912910D01*
X11701594Y-4913089D01*
X11890211Y-4835154D01*
X12034646Y-4690970D01*
X12112910Y-4502490D01*
X12113031Y-4364973D01*
X12439002Y-4039002D01*
X12512000Y-3929753D01*
X12512000Y-5259996D01*
X10830996Y-6941000D01*
X10316809Y-6941000D01*
X10172931Y-6592788D01*
X9832006Y-6251268D01*
X9386339Y-6066211D01*
X8903778Y-6065790D01*
X8457788Y-6250069D01*
X8116268Y-6590994D01*
X7931211Y-7036661D01*
X7930790Y-7519222D01*
X8115069Y-7965212D01*
X8455994Y-8306732D01*
X8901661Y-8491789D01*
X9384222Y-8492210D01*
X9830212Y-8307931D01*
X10171732Y-7967006D01*
X10317067Y-7617000D01*
X10971000Y-7617000D01*
X11100347Y-7591271D01*
X11210002Y-7518002D01*
X12286964Y-6441040D01*
X12286911Y-6501594D01*
X12364846Y-6690211D01*
X12509030Y-6834646D01*
X12697510Y-6912910D01*
X12901594Y-6913089D01*
X13090211Y-6835154D01*
X13234646Y-6690970D01*
X13312910Y-6502490D01*
X13313031Y-6364973D01*
X13740004Y-5938000D01*
X14259996Y-5938000D01*
X14462000Y-6140004D01*
X14462000Y-7526652D01*
X14459492Y-7524938D01*
X14375000Y-7507828D01*
X14198971Y-7507828D01*
X14166683Y-7429878D01*
X14020123Y-7283318D01*
X13828634Y-7204000D01*
X13742750Y-7204000D01*
X13612500Y-7334250D01*
X13612500Y-8209000D01*
X13707828Y-8209000D01*
X13707828Y-8691000D01*
X13612500Y-8691000D01*
X13612500Y-9565750D01*
X13659373Y-9612623D01*
X13359996Y-9912000D01*
X13066004Y-9912000D01*
X13089002Y-9889002D01*
X13148471Y-9800000D01*
X13162271Y-9779347D01*
X13178850Y-9696000D01*
X13257250Y-9696000D01*
X13387500Y-9565750D01*
X13387500Y-8691000D01*
X13292172Y-8691000D01*
X13292172Y-8209000D01*
X13387500Y-8209000D01*
X13387500Y-7334250D01*
X13257250Y-7204000D01*
X13171366Y-7204000D01*
X12979877Y-7283318D01*
X12833317Y-7429878D01*
X12801029Y-7507828D01*
X12710693Y-7507828D01*
X12712910Y-7502490D01*
X12713089Y-7298406D01*
X12635154Y-7109789D01*
X12490970Y-6965354D01*
X12302490Y-6887090D01*
X12098406Y-6886911D01*
X11909789Y-6964846D01*
X11765354Y-7109030D01*
X11687090Y-7297510D01*
X11686911Y-7501594D01*
X11689487Y-7507828D01*
X11325000Y-7507828D01*
X11246067Y-7522680D01*
X11173572Y-7569329D01*
X11124938Y-7640508D01*
X11107828Y-7725000D01*
X11107828Y-9175000D01*
X11122680Y-9253933D01*
X11169329Y-9326428D01*
X11240508Y-9375062D01*
X11325000Y-9392172D01*
X11775000Y-9392172D01*
X11853933Y-9377320D01*
X11874471Y-9364104D01*
X11890508Y-9375062D01*
X11975000Y-9392172D01*
X12425000Y-9392172D01*
X12503933Y-9377320D01*
X12512000Y-9372129D01*
X12512000Y-9441000D01*
X10316809Y-9441000D01*
X10172931Y-9092788D01*
X9832006Y-8751268D01*
X9386339Y-8566211D01*
X8903778Y-8565790D01*
X8457788Y-8750069D01*
X8116268Y-9090994D01*
X7931211Y-9536661D01*
X7930790Y-10019222D01*
X8115069Y-10465212D01*
X8455994Y-10806732D01*
X8901661Y-10991789D01*
X9384222Y-10992210D01*
X9830212Y-10807931D01*
X10171732Y-10467006D01*
X10317067Y-10117000D01*
X10827996Y-10117000D01*
X9734299Y-11210697D01*
X9386339Y-11066211D01*
X8903778Y-11065790D01*
X8457788Y-11250069D01*
X8116268Y-11590994D01*
X7931211Y-12036661D01*
X7930790Y-12519222D01*
X8115069Y-12965212D01*
X8455994Y-13306732D01*
X8901661Y-13491789D01*
X9384222Y-13492210D01*
X9830212Y-13307931D01*
X10171732Y-12967006D01*
X10356789Y-12521339D01*
X10357210Y-12038778D01*
X10212486Y-11688518D01*
X11115909Y-10785095D01*
X11107828Y-10825000D01*
X11107828Y-12275000D01*
X11122680Y-12353933D01*
X11169329Y-12426428D01*
X11240508Y-12475062D01*
X11325000Y-12492172D01*
X11501029Y-12492172D01*
X11533317Y-12570122D01*
X11679877Y-12716682D01*
X11871366Y-12796000D01*
X11957250Y-12796000D01*
X12087500Y-12665750D01*
X12087500Y-11791000D01*
X11992172Y-11791000D01*
X11992172Y-11309000D01*
X12087500Y-11309000D01*
X12087500Y-11289000D01*
X12312500Y-11289000D01*
X12312500Y-11309000D01*
X12407828Y-11309000D01*
X12407828Y-11791000D01*
X12312500Y-11791000D01*
X12312500Y-12665750D01*
X12442750Y-12796000D01*
X12528634Y-12796000D01*
X12720123Y-12716682D01*
X12850000Y-12586805D01*
X12979877Y-12716682D01*
X13171366Y-12796000D01*
X13257250Y-12796000D01*
X13387500Y-12665750D01*
X13387500Y-11791000D01*
X13292172Y-11791000D01*
X13292172Y-11309000D01*
X13387500Y-11309000D01*
X13387500Y-11289000D01*
X13612500Y-11289000D01*
X13612500Y-11309000D01*
X13707828Y-11309000D01*
X13707828Y-11791000D01*
X13612500Y-11791000D01*
X13612500Y-12665750D01*
X13742750Y-12796000D01*
X13828634Y-12796000D01*
X14020123Y-12716682D01*
X14150000Y-12586805D01*
X14279877Y-12716682D01*
X14471366Y-12796000D01*
X14557250Y-12796000D01*
X14687500Y-12665750D01*
X14687500Y-11791000D01*
X14592172Y-11791000D01*
X14592172Y-11309000D01*
X14687500Y-11309000D01*
X14687500Y-10434250D01*
X14557250Y-10304000D01*
X14471366Y-10304000D01*
X14279877Y-10383318D01*
X14150000Y-10513195D01*
X14020123Y-10383318D01*
X13896071Y-10331933D01*
X14389002Y-9839002D01*
X14462271Y-9729347D01*
X14488000Y-9600000D01*
X14488000Y-9373348D01*
X14490508Y-9375062D01*
X14575000Y-9392172D01*
X15025000Y-9392172D01*
X15103933Y-9377320D01*
X15124471Y-9364104D01*
X15140508Y-9375062D01*
X15225000Y-9392172D01*
X15675000Y-9392172D01*
X15753933Y-9377320D01*
X15826428Y-9330671D01*
X15862000Y-9278609D01*
X15862000Y-10722259D01*
X15830671Y-10673572D01*
X15759492Y-10624938D01*
X15675000Y-10607828D01*
X15498971Y-10607828D01*
X15466683Y-10529878D01*
X15320123Y-10383318D01*
X15128634Y-10304000D01*
X15042750Y-10304000D01*
X14912500Y-10434250D01*
X14912500Y-11309000D01*
X15007828Y-11309000D01*
X15007828Y-11791000D01*
X14912500Y-11791000D01*
X14912500Y-12665750D01*
X15042750Y-12796000D01*
X15128634Y-12796000D01*
X15320123Y-12716682D01*
X15466683Y-12570122D01*
X15498971Y-12492172D01*
X15675000Y-12492172D01*
X15753933Y-12477320D01*
X15826428Y-12430671D01*
X15862000Y-12378609D01*
X15862000Y-13259996D01*
X13260998Y-15860998D01*
X13188000Y-15970247D01*
X13188000Y-15850000D01*
X13162271Y-15720653D01*
X13089002Y-15610998D01*
X12018002Y-14539998D01*
X11908347Y-14466729D01*
X11779000Y-14441000D01*
X10316809Y-14441000D01*
X10172931Y-14092788D01*
X9832006Y-13751268D01*
X9386339Y-13566211D01*
X8903778Y-13565790D01*
X8457788Y-13750069D01*
X8116268Y-14090994D01*
X7931211Y-14536661D01*
X7930790Y-15019222D01*
X8115069Y-15465212D01*
X8455994Y-15806732D01*
X8901661Y-15991789D01*
X9384222Y-15992210D01*
X9830212Y-15807931D01*
X10171732Y-15467006D01*
X10317067Y-15117000D01*
X11638996Y-15117000D01*
X12209004Y-15687008D01*
X12098406Y-15686911D01*
X11909789Y-15764846D01*
X11765354Y-15909030D01*
X11687090Y-16097510D01*
X11686911Y-16301594D01*
X11764846Y-16490211D01*
X11784316Y-16509714D01*
X11775000Y-16507828D01*
X11325000Y-16507828D01*
X11246067Y-16522680D01*
X11173572Y-16569329D01*
X11124938Y-16640508D01*
X11107828Y-16725000D01*
X11107828Y-18175000D01*
X11122680Y-18253933D01*
X11169329Y-18326428D01*
X11240508Y-18375062D01*
X11325000Y-18392172D01*
X11775000Y-18392172D01*
X11853933Y-18377320D01*
X11874471Y-18364104D01*
X11890508Y-18375062D01*
X11975000Y-18392172D01*
X12425000Y-18392172D01*
X12503933Y-18377320D01*
X12524471Y-18364104D01*
X12540508Y-18375062D01*
X12625000Y-18392172D01*
X13075000Y-18392172D01*
X13153933Y-18377320D01*
X13174471Y-18364104D01*
X13190508Y-18375062D01*
X13275000Y-18392172D01*
X13725000Y-18392172D01*
X13803933Y-18377320D01*
X13812000Y-18372129D01*
X13812000Y-18537000D01*
X11056781Y-18537000D01*
X10264170Y-17744390D01*
X10356789Y-17521339D01*
X10357210Y-17038778D01*
X10172931Y-16592788D01*
X9832006Y-16251268D01*
X9386339Y-16066211D01*
X8903778Y-16065790D01*
X8457788Y-16250069D01*
X8116268Y-16590994D01*
X7931211Y-17036661D01*
X7930790Y-17519222D01*
X8115069Y-17965212D01*
X8455994Y-18306732D01*
X8901661Y-18491789D01*
X9384222Y-18492210D01*
X9609392Y-18399172D01*
X10537610Y-19327391D01*
X10687818Y-19427756D01*
X10865000Y-19463000D01*
X14000000Y-19463000D01*
X14075000Y-19448081D01*
X14150000Y-19463000D01*
X16000000Y-19463000D01*
X16147786Y-19433603D01*
X16177183Y-19427756D01*
X16327390Y-19327390D01*
X16500000Y-19154780D01*
X16672610Y-19327391D01*
X16822818Y-19427756D01*
X17000000Y-19463000D01*
X17482828Y-19463000D01*
X17482828Y-19500000D01*
X17497680Y-19578933D01*
X17544329Y-19651428D01*
X17615508Y-19700062D01*
X17700000Y-19717172D01*
X18500000Y-19717172D01*
X18578933Y-19702320D01*
X18651428Y-19655671D01*
X18700062Y-19584492D01*
X18717172Y-19500000D01*
X18717172Y-18500000D01*
X18704175Y-18430924D01*
X18707890Y-18434646D01*
X18896370Y-18512910D01*
X19100454Y-18513089D01*
X19289071Y-18435154D01*
X19297705Y-18426535D01*
X19282828Y-18500000D01*
X19282828Y-19500000D01*
X19297680Y-19578933D01*
X19344329Y-19651428D01*
X19415508Y-19700062D01*
X19500000Y-19717172D01*
X20300000Y-19717172D01*
X20378933Y-19702320D01*
X20451428Y-19655671D01*
X20500062Y-19584492D01*
X20517172Y-19500000D01*
X20517172Y-19463000D01*
X34596035Y-19463000D01*
X34652310Y-19519373D01*
X34877532Y-19612893D01*
X35121398Y-19613106D01*
X35346783Y-19519979D01*
X35519373Y-19347690D01*
X35612893Y-19122468D01*
X35613106Y-18878602D01*
X35519979Y-18653217D01*
X35347690Y-18480627D01*
X35122468Y-18387107D01*
X34878602Y-18386894D01*
X34810273Y-18415127D01*
X34934646Y-18290970D01*
X35012910Y-18102490D01*
X35013089Y-17898406D01*
X34935154Y-17709789D01*
X34790970Y-17565354D01*
X34602490Y-17487090D01*
X34398406Y-17486911D01*
X34346368Y-17508413D01*
X34391781Y-17463000D01*
X35759200Y-17463000D01*
X36683388Y-18387189D01*
X36683388Y-19148460D01*
X36698240Y-19227393D01*
X36744889Y-19299888D01*
X36816068Y-19348522D01*
X36900560Y-19365632D01*
X38099440Y-19365632D01*
X38178373Y-19350780D01*
X38250868Y-19304131D01*
X38299502Y-19232952D01*
X38316612Y-19148460D01*
X38316612Y-17949580D01*
X38301760Y-17870647D01*
X38255111Y-17798152D01*
X38183932Y-17749518D01*
X38099440Y-17732408D01*
X37338169Y-17732408D01*
X36866444Y-17260683D01*
X36900560Y-17267592D01*
X38099440Y-17267592D01*
X38178373Y-17252740D01*
X38250868Y-17206091D01*
X38299502Y-17134912D01*
X38316612Y-17050420D01*
X38316612Y-15851540D01*
X38301760Y-15772607D01*
X38255111Y-15700112D01*
X38183932Y-15651478D01*
X38099440Y-15634368D01*
X37963000Y-15634368D01*
X37963000Y-15365632D01*
X38099440Y-15365632D01*
X38178373Y-15350780D01*
X38250868Y-15304131D01*
X38299502Y-15232952D01*
X38316612Y-15148460D01*
X38316612Y-13949580D01*
X38301760Y-13870647D01*
X38255111Y-13798152D01*
X38183932Y-13749518D01*
X38099440Y-13732408D01*
X36900560Y-13732408D01*
X36821627Y-13747260D01*
X36749132Y-13793909D01*
X36700498Y-13865088D01*
X36683388Y-13949580D01*
X36683388Y-15148460D01*
X36698240Y-15227393D01*
X36744889Y-15299888D01*
X36816068Y-15348522D01*
X36900560Y-15365632D01*
X37037000Y-15365632D01*
X37037000Y-15634368D01*
X36900560Y-15634368D01*
X36821627Y-15649220D01*
X36749132Y-15695869D01*
X36700498Y-15767048D01*
X36683388Y-15851540D01*
X36683388Y-17050420D01*
X36689694Y-17083934D01*
X36278370Y-16672610D01*
X36128163Y-16572244D01*
X36098766Y-16566397D01*
X35950980Y-16537000D01*
X34200000Y-16537000D01*
X34037473Y-16569329D01*
X34022818Y-16572244D01*
X33872610Y-16672609D01*
X33208220Y-17337000D01*
X21591781Y-17337000D01*
X20927390Y-16672610D01*
X20777183Y-16572244D01*
X20747786Y-16566397D01*
X20600000Y-16537000D01*
X19691781Y-16537000D01*
X19613036Y-16458256D01*
X19613106Y-16378602D01*
X19519979Y-16153217D01*
X19347690Y-15980627D01*
X19122468Y-15887107D01*
X18878602Y-15886894D01*
X18653217Y-15980021D01*
X18480627Y-16152310D01*
X18387107Y-16377532D01*
X18386894Y-16621398D01*
X18480021Y-16846783D01*
X18652310Y-17019373D01*
X18877532Y-17112893D01*
X18958183Y-17112963D01*
X19172610Y-17327391D01*
X19322818Y-17427756D01*
X19500000Y-17463000D01*
X20408220Y-17463000D01*
X20609012Y-17663793D01*
X20600000Y-17662000D01*
X19386308Y-17662000D01*
X19289830Y-17565354D01*
X19101350Y-17487090D01*
X18897266Y-17486911D01*
X18708649Y-17564846D01*
X18564214Y-17709030D01*
X18485950Y-17897510D01*
X18485771Y-18101594D01*
X18563706Y-18290211D01*
X18570610Y-18297127D01*
X18500000Y-18282828D01*
X17700000Y-18282828D01*
X17621067Y-18297680D01*
X17548572Y-18344329D01*
X17499938Y-18415508D01*
X17482828Y-18500000D01*
X17482828Y-18537000D01*
X17191781Y-18537000D01*
X16963000Y-18308220D01*
X16963000Y-16691780D01*
X18391780Y-15263000D01*
X20882828Y-15263000D01*
X20882828Y-16000000D01*
X20897680Y-16078933D01*
X20944329Y-16151428D01*
X21015508Y-16200062D01*
X21100000Y-16217172D01*
X23500000Y-16217172D01*
X23578933Y-16202320D01*
X23651428Y-16155671D01*
X23700062Y-16084492D01*
X23717172Y-16000000D01*
X23717172Y-13101594D01*
X23986911Y-13101594D01*
X24064846Y-13290211D01*
X24209030Y-13434646D01*
X24397510Y-13512910D01*
X24601594Y-13513089D01*
X24790211Y-13435154D01*
X24934646Y-13290970D01*
X25012910Y-13102490D01*
X25013031Y-12964973D01*
X25333286Y-12644718D01*
X25497510Y-12712910D01*
X25701594Y-12713089D01*
X25884470Y-12637526D01*
X24760998Y-13760998D01*
X24687729Y-13870653D01*
X24662000Y-14000000D01*
X24662000Y-15612552D01*
X24565354Y-15709030D01*
X24487090Y-15897510D01*
X24486911Y-16101594D01*
X24564846Y-16290211D01*
X24709030Y-16434646D01*
X24897510Y-16512910D01*
X25101594Y-16513089D01*
X25290211Y-16435154D01*
X25434646Y-16290970D01*
X25512910Y-16102490D01*
X25513089Y-15898406D01*
X25435154Y-15709789D01*
X25338000Y-15612466D01*
X25338000Y-14140004D01*
X26739002Y-12739002D01*
X26812271Y-12629347D01*
X26838000Y-12500000D01*
X26838000Y-11900000D01*
X26812271Y-11770653D01*
X26739002Y-11660998D01*
X26612969Y-11534965D01*
X26613089Y-11398406D01*
X26535154Y-11209789D01*
X26390970Y-11065354D01*
X26202490Y-10987090D01*
X25998406Y-10986911D01*
X25809789Y-11064846D01*
X25665354Y-11209030D01*
X25587090Y-11397510D01*
X25586911Y-11601594D01*
X25622208Y-11687020D01*
X25498406Y-11686911D01*
X25309789Y-11764846D01*
X25190683Y-11883745D01*
X25170653Y-11887729D01*
X25060998Y-11960998D01*
X24534965Y-12487031D01*
X24398406Y-12486911D01*
X24209789Y-12564846D01*
X24065354Y-12709030D01*
X23987090Y-12897510D01*
X23986911Y-13101594D01*
X23717172Y-13101594D01*
X23717172Y-12000000D01*
X23702320Y-11921067D01*
X23655671Y-11848572D01*
X23584492Y-11799938D01*
X23500000Y-11782828D01*
X21100000Y-11782828D01*
X21021067Y-11797680D01*
X20948572Y-11844329D01*
X20899938Y-11915508D01*
X20882828Y-12000000D01*
X20882828Y-14337000D01*
X20307179Y-14337000D01*
X20321000Y-14303633D01*
X20321000Y-13571250D01*
X20190750Y-13441000D01*
X19241000Y-13441000D01*
X19241000Y-13461000D01*
X18759000Y-13461000D01*
X18759000Y-13441000D01*
X17809250Y-13441000D01*
X17679000Y-13571250D01*
X17679000Y-14303633D01*
X17758317Y-14495122D01*
X17804208Y-14541013D01*
X16172610Y-16172610D01*
X16072244Y-16322817D01*
X16072244Y-16322818D01*
X16037000Y-16500000D01*
X16037000Y-18308219D01*
X15808220Y-18537000D01*
X14488000Y-18537000D01*
X14488000Y-18373348D01*
X14490508Y-18375062D01*
X14575000Y-18392172D01*
X15025000Y-18392172D01*
X15103933Y-18377320D01*
X15124471Y-18364104D01*
X15140508Y-18375062D01*
X15225000Y-18392172D01*
X15675000Y-18392172D01*
X15753933Y-18377320D01*
X15826428Y-18330671D01*
X15875062Y-18259492D01*
X15892172Y-18175000D01*
X15892172Y-16725000D01*
X15877320Y-16646067D01*
X15830671Y-16573572D01*
X15759492Y-16524938D01*
X15675000Y-16507828D01*
X15225000Y-16507828D01*
X15216077Y-16509507D01*
X15234646Y-16490970D01*
X15312910Y-16302490D01*
X15313089Y-16098406D01*
X15235154Y-15909789D01*
X15090970Y-15765354D01*
X14902490Y-15687090D01*
X14698406Y-15686911D01*
X14509789Y-15764846D01*
X14365354Y-15909030D01*
X14287090Y-16097510D01*
X14286911Y-16301594D01*
X14364846Y-16490211D01*
X14384316Y-16509714D01*
X14375000Y-16507828D01*
X13925000Y-16507828D01*
X13846067Y-16522680D01*
X13838000Y-16527871D01*
X13838000Y-16240004D01*
X16439002Y-13639002D01*
X16512271Y-13529347D01*
X16538000Y-13400000D01*
X16538000Y-12096367D01*
X17679000Y-12096367D01*
X17679000Y-12828750D01*
X17809250Y-12959000D01*
X18759000Y-12959000D01*
X18759000Y-11809250D01*
X19241000Y-11809250D01*
X19241000Y-12959000D01*
X20190750Y-12959000D01*
X20321000Y-12828750D01*
X20321000Y-12096367D01*
X20241683Y-11904878D01*
X20095123Y-11758318D01*
X19903634Y-11679000D01*
X19371250Y-11679000D01*
X19241000Y-11809250D01*
X18759000Y-11809250D01*
X18628750Y-11679000D01*
X18096366Y-11679000D01*
X17904877Y-11758318D01*
X17758317Y-11904878D01*
X17679000Y-12096367D01*
X16538000Y-12096367D01*
X16538000Y-6800000D01*
X17982828Y-6800000D01*
X17982828Y-8800000D01*
X17997680Y-8878933D01*
X18044329Y-8951428D01*
X18115508Y-9000062D01*
X18200000Y-9017172D01*
X19800000Y-9017172D01*
X19878933Y-9002320D01*
X19951428Y-8955671D01*
X20000062Y-8884492D01*
X20017172Y-8800000D01*
X20017172Y-8495176D01*
X22160998Y-10639002D01*
X22270653Y-10712271D01*
X22400000Y-10738000D01*
X26259996Y-10738000D01*
X27387031Y-11865035D01*
X27386911Y-12001594D01*
X27464846Y-12190211D01*
X27609030Y-12334646D01*
X27797510Y-12412910D01*
X28001594Y-12413089D01*
X28190211Y-12335154D01*
X28334646Y-12190970D01*
X28412910Y-12002490D01*
X28412912Y-12000000D01*
X33282828Y-12000000D01*
X33282828Y-16000000D01*
X33297680Y-16078933D01*
X33344329Y-16151428D01*
X33415508Y-16200062D01*
X33500000Y-16217172D01*
X35900000Y-16217172D01*
X35978933Y-16202320D01*
X36051428Y-16155671D01*
X36100062Y-16084492D01*
X36117172Y-16000000D01*
X36117172Y-12000000D01*
X36102320Y-11921067D01*
X36057581Y-11851540D01*
X36683388Y-11851540D01*
X36683388Y-13050420D01*
X36698240Y-13129353D01*
X36744889Y-13201848D01*
X36816068Y-13250482D01*
X36900560Y-13267592D01*
X38099440Y-13267592D01*
X38178373Y-13252740D01*
X38250868Y-13206091D01*
X38299502Y-13134912D01*
X38316612Y-13050420D01*
X38316612Y-11851540D01*
X38301760Y-11772607D01*
X38255111Y-11700112D01*
X38183932Y-11651478D01*
X38107291Y-11635958D01*
X38112893Y-11622468D01*
X38113106Y-11378602D01*
X38019979Y-11153217D01*
X37847690Y-10980627D01*
X37622468Y-10887107D01*
X37378602Y-10886894D01*
X37153217Y-10980021D01*
X36980627Y-11152310D01*
X36887107Y-11377532D01*
X36886894Y-11621398D01*
X36892852Y-11635818D01*
X36821627Y-11649220D01*
X36749132Y-11695869D01*
X36700498Y-11767048D01*
X36683388Y-11851540D01*
X36057581Y-11851540D01*
X36055671Y-11848572D01*
X35984492Y-11799938D01*
X35900000Y-11782828D01*
X33500000Y-11782828D01*
X33421067Y-11797680D01*
X33348572Y-11844329D01*
X33299938Y-11915508D01*
X33282828Y-12000000D01*
X28412912Y-12000000D01*
X28413089Y-11798406D01*
X28335154Y-11609789D01*
X28190970Y-11465354D01*
X28002490Y-11387090D01*
X27864973Y-11386969D01*
X27495147Y-11017143D01*
X27600000Y-11038000D01*
X31000000Y-11038000D01*
X31129347Y-11012271D01*
X31239002Y-10939002D01*
X33288022Y-8889982D01*
X33361291Y-8780327D01*
X33387020Y-8650980D01*
X33387020Y-7316612D01*
X33648460Y-7316612D01*
X33727393Y-7301760D01*
X33799888Y-7255111D01*
X33848522Y-7183932D01*
X33865632Y-7099440D01*
X33865632Y-5900560D01*
X33850780Y-5821627D01*
X33804131Y-5749132D01*
X33732952Y-5700498D01*
X33648460Y-5683388D01*
X32449580Y-5683388D01*
X32370647Y-5698240D01*
X32298152Y-5744889D01*
X32249518Y-5816068D01*
X32232408Y-5900560D01*
X32232408Y-7099440D01*
X32247260Y-7178373D01*
X32293909Y-7250868D01*
X32365088Y-7299502D01*
X32449580Y-7316612D01*
X32711020Y-7316612D01*
X32711020Y-8510976D01*
X30859996Y-10362000D01*
X27740004Y-10362000D01*
X26939002Y-9560998D01*
X26829347Y-9487729D01*
X26705027Y-9463000D01*
X27777314Y-9463000D01*
X27897510Y-9512910D01*
X28101594Y-9513089D01*
X28290211Y-9435154D01*
X28434646Y-9290970D01*
X28512910Y-9102490D01*
X28513089Y-8898406D01*
X28435154Y-8709789D01*
X28290970Y-8565354D01*
X28102490Y-8487090D01*
X27898406Y-8486911D01*
X27777181Y-8537000D01*
X25791781Y-8537000D01*
X24626031Y-7371250D01*
X26179000Y-7371250D01*
X26179000Y-7603634D01*
X26258318Y-7795123D01*
X26404878Y-7941683D01*
X26596367Y-8021000D01*
X26769750Y-8021000D01*
X26900000Y-7890750D01*
X26900000Y-7241000D01*
X27300000Y-7241000D01*
X27300000Y-7890750D01*
X27430250Y-8021000D01*
X27603633Y-8021000D01*
X27795122Y-7941683D01*
X27941682Y-7795123D01*
X28021000Y-7603634D01*
X28021000Y-7371250D01*
X27890750Y-7241000D01*
X27300000Y-7241000D01*
X26900000Y-7241000D01*
X26309250Y-7241000D01*
X26179000Y-7371250D01*
X24626031Y-7371250D01*
X24163000Y-6908220D01*
X24163000Y-6501594D01*
X25286911Y-6501594D01*
X25364846Y-6690211D01*
X25509030Y-6834646D01*
X25697510Y-6912910D01*
X25901594Y-6913089D01*
X26090211Y-6835154D01*
X26234646Y-6690970D01*
X26236575Y-6686325D01*
X26309250Y-6759000D01*
X26900000Y-6759000D01*
X26900000Y-6739000D01*
X27300000Y-6739000D01*
X27300000Y-6759000D01*
X27890750Y-6759000D01*
X28021000Y-6628750D01*
X28021000Y-6396366D01*
X28013383Y-6377977D01*
X28097510Y-6412910D01*
X28301591Y-6413089D01*
X28299938Y-6415508D01*
X28282828Y-6500000D01*
X28282828Y-7500000D01*
X28297680Y-7578933D01*
X28344329Y-7651428D01*
X28415508Y-7700062D01*
X28500000Y-7717172D01*
X29300000Y-7717172D01*
X29378933Y-7702320D01*
X29451428Y-7655671D01*
X29500062Y-7584492D01*
X29517172Y-7500000D01*
X29517172Y-7334584D01*
X29629347Y-7312271D01*
X29739002Y-7239002D01*
X30134368Y-6843636D01*
X30134368Y-7099440D01*
X30149220Y-7178373D01*
X30195869Y-7250868D01*
X30267048Y-7299502D01*
X30351540Y-7316612D01*
X31550420Y-7316612D01*
X31629353Y-7301760D01*
X31701848Y-7255111D01*
X31750482Y-7183932D01*
X31767592Y-7099440D01*
X31767592Y-5900560D01*
X31752740Y-5821627D01*
X31706091Y-5749132D01*
X31634912Y-5700498D01*
X31550420Y-5683388D01*
X30351540Y-5683388D01*
X30272607Y-5698240D01*
X30200112Y-5744889D01*
X30151478Y-5816068D01*
X30134368Y-5900560D01*
X30134368Y-6162000D01*
X30000000Y-6162000D01*
X29870653Y-6187729D01*
X29760998Y-6260998D01*
X29517172Y-6504824D01*
X29517172Y-6500000D01*
X29502320Y-6421067D01*
X29455671Y-6348572D01*
X29384492Y-6299938D01*
X29300000Y-6282828D01*
X28542628Y-6282828D01*
X28634646Y-6190970D01*
X28712910Y-6002490D01*
X28713031Y-5864973D01*
X29140004Y-5438000D01*
X33659996Y-5438000D01*
X35162000Y-6940004D01*
X35162000Y-8120000D01*
X35187729Y-8249347D01*
X35260998Y-8359002D01*
X35941476Y-9039480D01*
X35828873Y-9208003D01*
X35746922Y-9620000D01*
X35828873Y-10031997D01*
X36062251Y-10381271D01*
X36411525Y-10614649D01*
X36823522Y-10696600D01*
X37176478Y-10696600D01*
X37588475Y-10614649D01*
X37937749Y-10381271D01*
X38171127Y-10031997D01*
X38253078Y-9620000D01*
X38171127Y-9208003D01*
X37937749Y-8858729D01*
X37588475Y-8625351D01*
X37176478Y-8543400D01*
X36823522Y-8543400D01*
X36471438Y-8613434D01*
X35838000Y-7979996D01*
X35838000Y-7505656D01*
X36062251Y-7841271D01*
X36411525Y-8074649D01*
X36823522Y-8156600D01*
X37176478Y-8156600D01*
X37588475Y-8074649D01*
X37937749Y-7841271D01*
X38171127Y-7491997D01*
X38253078Y-7080000D01*
X38171127Y-6668003D01*
X37937749Y-6318729D01*
X37588475Y-6085351D01*
X37176478Y-6003400D01*
X36823522Y-6003400D01*
X36471438Y-6073434D01*
X36076100Y-5678096D01*
X36544700Y-5886063D01*
X36759000Y-5786625D01*
X36759000Y-4781000D01*
X37241000Y-4781000D01*
X37241000Y-5786625D01*
X37455300Y-5886063D01*
X37947359Y-5667685D01*
X38318393Y-5277627D01*
X38461378Y-4991326D01*
X38383380Y-4781000D01*
X37241000Y-4781000D01*
X36759000Y-4781000D01*
X35616620Y-4781000D01*
X35538622Y-4991326D01*
X35681607Y-5277627D01*
X35798160Y-5400156D01*
X34759002Y-4360998D01*
X34649347Y-4287729D01*
X34520000Y-4262000D01*
X28600000Y-4262000D01*
X28470653Y-4287729D01*
X28360998Y-4360998D01*
X27334965Y-5387031D01*
X27198406Y-5386911D01*
X27009789Y-5464846D01*
X26865354Y-5609030D01*
X26787090Y-5797510D01*
X26786916Y-5996166D01*
X26769750Y-5979000D01*
X26596367Y-5979000D01*
X26404878Y-6058317D01*
X26269729Y-6193466D01*
X26235154Y-6109789D01*
X26090970Y-5965354D01*
X25902490Y-5887090D01*
X25698406Y-5886911D01*
X25509789Y-5964846D01*
X25365354Y-6109030D01*
X25287090Y-6297510D01*
X25286911Y-6501594D01*
X24163000Y-6501594D01*
X24163000Y-5822686D01*
X24212910Y-5702490D01*
X24213089Y-5498406D01*
X24163000Y-5377181D01*
X24163000Y-4500000D01*
X24127756Y-4322818D01*
X24111841Y-4299000D01*
X24027391Y-4172610D01*
X23943455Y-4088674D01*
X35538622Y-4088674D01*
X35616620Y-4299000D01*
X36759000Y-4299000D01*
X36759000Y-3293375D01*
X37241000Y-3293375D01*
X37241000Y-4299000D01*
X38383380Y-4299000D01*
X38461378Y-4088674D01*
X38318393Y-3802373D01*
X37947359Y-3412315D01*
X37455300Y-3193937D01*
X37241000Y-3293375D01*
X36759000Y-3293375D01*
X36544700Y-3193937D01*
X36052641Y-3412315D01*
X35681607Y-3802373D01*
X35538622Y-4088674D01*
X23943455Y-4088674D01*
X23527390Y-3672610D01*
X23377183Y-3572244D01*
X23339990Y-3564846D01*
X23200000Y-3537000D01*
X22617172Y-3537000D01*
X22617172Y-3250000D01*
X22602320Y-3171067D01*
X22555671Y-3098572D01*
X22484492Y-3049938D01*
X22400000Y-3032828D01*
X21100000Y-3032828D01*
X21021067Y-3047680D01*
X20948572Y-3094329D01*
X20899938Y-3165508D01*
X20882828Y-3250000D01*
X20882828Y-4750000D01*
X20897680Y-4828933D01*
X20944329Y-4901428D01*
X21015508Y-4950062D01*
X21062000Y-4959477D01*
X21062000Y-5282828D01*
X21000000Y-5282828D01*
X20921067Y-5297680D01*
X20848572Y-5344329D01*
X20799938Y-5415508D01*
X20782828Y-5500000D01*
X20782828Y-6500000D01*
X20797680Y-6578933D01*
X20844329Y-6651428D01*
X20915508Y-6700062D01*
X21000000Y-6717172D01*
X21800000Y-6717172D01*
X21878933Y-6702320D01*
X21951428Y-6655671D01*
X22000062Y-6584492D01*
X22017172Y-6500000D01*
X22017172Y-5500000D01*
X22002320Y-5421067D01*
X21955671Y-5348572D01*
X21884492Y-5299938D01*
X21800000Y-5282828D01*
X21738000Y-5282828D01*
X21738000Y-4967172D01*
X22400000Y-4967172D01*
X22478933Y-4952320D01*
X22551428Y-4905671D01*
X22600062Y-4834492D01*
X22617172Y-4750000D01*
X22617172Y-4463000D01*
X23008220Y-4463000D01*
X23237000Y-4691781D01*
X23237000Y-5377314D01*
X23187090Y-5497510D01*
X23186911Y-5701594D01*
X23237000Y-5822819D01*
X23237000Y-7100000D01*
X23265047Y-7241000D01*
X23272244Y-7277183D01*
X23372610Y-7427390D01*
X24832160Y-8886941D01*
X24798406Y-8886911D01*
X24609789Y-8964846D01*
X24465354Y-9109030D01*
X24387090Y-9297510D01*
X24386911Y-9501594D01*
X24464846Y-9690211D01*
X24609030Y-9834646D01*
X24797510Y-9912910D01*
X24935027Y-9913031D01*
X25060998Y-10039002D01*
X25095417Y-10062000D01*
X22540004Y-10062000D01*
X20039002Y-7560998D01*
X20017172Y-7546412D01*
X20017172Y-6800000D01*
X20002320Y-6721067D01*
X19999814Y-6717172D01*
X20000000Y-6717172D01*
X20078933Y-6702320D01*
X20151428Y-6655671D01*
X20200062Y-6584492D01*
X20217172Y-6500000D01*
X20217172Y-5500000D01*
X20202320Y-5421067D01*
X20155671Y-5348572D01*
X20084492Y-5299938D01*
X20000000Y-5282828D01*
X19200000Y-5282828D01*
X19121067Y-5297680D01*
X19048572Y-5344329D01*
X18999938Y-5415508D01*
X18982828Y-5500000D01*
X18982828Y-6500000D01*
X18997680Y-6578933D01*
X19000186Y-6582828D01*
X18200000Y-6582828D01*
X18121067Y-6597680D01*
X18048572Y-6644329D01*
X17999938Y-6715508D01*
X17982828Y-6800000D01*
X16538000Y-6800000D01*
X16538000Y-6400000D01*
X16512271Y-6270653D01*
X16439002Y-6160998D01*
X14649254Y-4371250D01*
X18079000Y-4371250D01*
X18079000Y-4853634D01*
X18158318Y-5045123D01*
X18304878Y-5191683D01*
X18496367Y-5271000D01*
X18878750Y-5271000D01*
X19009000Y-5140750D01*
X19009000Y-4241000D01*
X19491000Y-4241000D01*
X19491000Y-5140750D01*
X19621250Y-5271000D01*
X20003633Y-5271000D01*
X20195122Y-5191683D01*
X20341682Y-5045123D01*
X20421000Y-4853634D01*
X20421000Y-4371250D01*
X20290750Y-4241000D01*
X19491000Y-4241000D01*
X19009000Y-4241000D01*
X18209250Y-4241000D01*
X18079000Y-4371250D01*
X14649254Y-4371250D01*
X13838000Y-3559996D01*
X13838000Y-3473348D01*
X13840508Y-3475062D01*
X13925000Y-3492172D01*
X14330830Y-3492172D01*
X14287090Y-3597510D01*
X14286911Y-3801594D01*
X14364846Y-3990211D01*
X14509030Y-4134646D01*
X14697510Y-4212910D01*
X14901594Y-4213089D01*
X15090211Y-4135154D01*
X15234646Y-3990970D01*
X15312910Y-3802490D01*
X15313089Y-3598406D01*
X15269194Y-3492172D01*
X15675000Y-3492172D01*
X15753933Y-3477320D01*
X15826428Y-3430671D01*
X15875062Y-3359492D01*
X15892172Y-3275000D01*
X15892172Y-3146366D01*
X18079000Y-3146366D01*
X18079000Y-3628750D01*
X18209250Y-3759000D01*
X19009000Y-3759000D01*
X19009000Y-2859250D01*
X19491000Y-2859250D01*
X19491000Y-3759000D01*
X20290750Y-3759000D01*
X20421000Y-3628750D01*
X20421000Y-3146366D01*
X20341682Y-2954877D01*
X20195122Y-2808317D01*
X20003633Y-2729000D01*
X19621250Y-2729000D01*
X19491000Y-2859250D01*
X19009000Y-2859250D01*
X18878750Y-2729000D01*
X18496367Y-2729000D01*
X18304878Y-2808317D01*
X18158318Y-2954877D01*
X18079000Y-3146366D01*
X15892172Y-3146366D01*
X15892172Y-1825000D01*
X15877320Y-1746067D01*
X15830671Y-1673572D01*
X15759492Y-1624938D01*
X15675000Y-1607828D01*
X15225000Y-1607828D01*
X15146067Y-1622680D01*
X15125529Y-1635896D01*
X15109492Y-1624938D01*
X15025000Y-1607828D01*
X14575000Y-1607828D01*
X14496067Y-1622680D01*
X14484098Y-1630382D01*
X14462271Y-1520653D01*
X14389002Y-1410998D01*
X14191004Y-1213000D01*
X17346035Y-1213000D01*
X17402310Y-1269373D01*
X17627532Y-1362893D01*
X17871398Y-1363106D01*
X18096783Y-1269979D01*
X18153862Y-1213000D01*
X18308220Y-1213000D01*
X18382828Y-1287608D01*
X18382828Y-2250000D01*
X18397680Y-2328933D01*
X18444329Y-2401428D01*
X18515508Y-2450062D01*
X18600000Y-2467172D01*
X19900000Y-2467172D01*
X19978933Y-2452320D01*
X20051428Y-2405671D01*
X20100062Y-2334492D01*
X20117172Y-2250000D01*
X20117172Y-1871250D01*
X20579000Y-1871250D01*
X20579000Y-2353634D01*
X20658318Y-2545123D01*
X20804878Y-2691683D01*
X20996367Y-2771000D01*
X21378750Y-2771000D01*
X21509000Y-2640750D01*
X21509000Y-1741000D01*
X21991000Y-1741000D01*
X21991000Y-2640750D01*
X22121250Y-2771000D01*
X22503633Y-2771000D01*
X22695122Y-2691683D01*
X22841682Y-2545123D01*
X22921000Y-2353634D01*
X22921000Y-1871250D01*
X22790750Y-1741000D01*
X21991000Y-1741000D01*
X21509000Y-1741000D01*
X20709250Y-1741000D01*
X20579000Y-1871250D01*
X20117172Y-1871250D01*
X20117172Y-1787652D01*
X20189982Y-1739002D01*
X20263251Y-1629347D01*
X20288980Y-1500000D01*
X20263251Y-1370653D01*
X20189982Y-1260998D01*
X20117172Y-1212348D01*
X20117172Y-750000D01*
X20102320Y-671067D01*
X20055671Y-598572D01*
X19984492Y-549938D01*
X19900000Y-532828D01*
X18937608Y-532828D01*
X18827390Y-422610D01*
X18677183Y-322244D01*
X18647786Y-316397D01*
X18500000Y-287000D01*
X18153965Y-287000D01*
X18130007Y-263000D01*
X20914283Y-263000D01*
X20804878Y-308317D01*
X20658318Y-454877D01*
X20579000Y-646366D01*
X20579000Y-1128750D01*
X20709250Y-1259000D01*
X21509000Y-1259000D01*
X21509000Y-1239000D01*
X21991000Y-1239000D01*
X21991000Y-1259000D01*
X22790750Y-1259000D01*
X22904818Y-1144932D01*
X22964846Y-1290211D01*
X23109030Y-1434646D01*
X23297510Y-1512910D01*
X23479000Y-1513069D01*
X23479000Y-1741002D01*
X23606775Y-1741002D01*
X23485843Y-1901365D01*
X23616374Y-2278858D01*
X23881429Y-2577664D01*
X24106761Y-2704233D01*
X24259000Y-2619528D01*
X24259000Y-1741000D01*
X24239000Y-1741000D01*
X24239000Y-1259000D01*
X24259000Y-1259000D01*
X24259000Y-1239000D01*
X24741000Y-1239000D01*
X24741000Y-1259000D01*
X24761000Y-1259000D01*
X24761000Y-1741000D01*
X24741000Y-1741000D01*
X24741000Y-2619528D01*
X24893239Y-2704233D01*
X25118571Y-2577664D01*
X25383626Y-2278858D01*
X25420431Y-2172420D01*
X25495833Y-2285268D01*
X25727147Y-2439827D01*
X26000000Y-2494101D01*
X26272853Y-2439827D01*
X26504167Y-2285268D01*
X26658726Y-2053954D01*
X26713000Y-1781101D01*
X26713000Y-1218899D01*
X26658726Y-946046D01*
X26519714Y-738000D01*
X26980286Y-738000D01*
X26841274Y-946046D01*
X26787000Y-1218899D01*
X26787000Y-1781101D01*
X26841274Y-2053954D01*
X26995833Y-2285268D01*
X27227147Y-2439827D01*
X27500000Y-2494101D01*
X27705477Y-2453229D01*
X27687090Y-2497510D01*
X27686911Y-2701594D01*
X27764846Y-2890211D01*
X27909030Y-3034646D01*
X28001432Y-3073015D01*
X27965354Y-3109030D01*
X27887090Y-3297510D01*
X27886911Y-3501594D01*
X27964846Y-3690211D01*
X28109030Y-3834646D01*
X28297510Y-3912910D01*
X28501594Y-3913089D01*
X28690211Y-3835154D01*
X28787534Y-3738000D01*
X30100000Y-3738000D01*
X30229347Y-3712271D01*
X30339002Y-3639002D01*
X31613868Y-2364136D01*
X31727147Y-2439827D01*
X32000000Y-2494101D01*
X32272853Y-2439827D01*
X32504167Y-2285268D01*
X32658726Y-2053954D01*
X32713000Y-1781101D01*
X32713000Y-1218899D01*
X32658726Y-946046D01*
X32519714Y-738000D01*
X35259996Y-738000D01*
X35766828Y-1244832D01*
X35766828Y-2863600D01*
X35781680Y-2942533D01*
X35828329Y-3015028D01*
X35899508Y-3063662D01*
X35984000Y-3080772D01*
X38016000Y-3080772D01*
X38094933Y-3065920D01*
X38167428Y-3019271D01*
X38216062Y-2948092D01*
X38233172Y-2863600D01*
X38233172Y-1136400D01*
X38218320Y-1057467D01*
X38171671Y-984972D01*
X38100492Y-936338D01*
X38016000Y-919228D01*
X36397232Y-919228D01*
X35741004Y-263000D01*
X38737000Y-263000D01*
X38737000Y-19737000D01*
X263000Y-19737000D01*
X263000Y-10101594D01*
X3286911Y-10101594D01*
X3364846Y-10290211D01*
X3462000Y-10387534D01*
X3462000Y-12412552D01*
X3365354Y-12509030D01*
X3287090Y-12697510D01*
X3286911Y-12901594D01*
X3364846Y-13090211D01*
X3509030Y-13234646D01*
X3697510Y-13312910D01*
X3901594Y-13313089D01*
X4090211Y-13235154D01*
X4234646Y-13090970D01*
X4312910Y-12902490D01*
X4313089Y-12698406D01*
X4235154Y-12509789D01*
X4138000Y-12412466D01*
X4138000Y-10387448D01*
X4234646Y-10290970D01*
X4312910Y-10102490D01*
X4313089Y-9898406D01*
X4235154Y-9709789D01*
X4090970Y-9565354D01*
X3902490Y-9487090D01*
X3698406Y-9486911D01*
X3509789Y-9564846D01*
X3365354Y-9709030D01*
X3287090Y-9897510D01*
X3286911Y-10101594D01*
X263000Y-10101594D01*
X263000Y-6101594D01*
X4486911Y-6101594D01*
X4564846Y-6290211D01*
X4709030Y-6434646D01*
X4830166Y-6484946D01*
X5537000Y-7191781D01*
X5537000Y-9777314D01*
X5487090Y-9897510D01*
X5486911Y-10101594D01*
X5564846Y-10290211D01*
X5709030Y-10434646D01*
X5897510Y-10512910D01*
X6101594Y-10513089D01*
X6290211Y-10435154D01*
X6434646Y-10290970D01*
X6512910Y-10102490D01*
X6513089Y-9898406D01*
X6463000Y-9777181D01*
X6463000Y-7000000D01*
X6427756Y-6822818D01*
X6420709Y-6812271D01*
X6327391Y-6672610D01*
X5484855Y-5830075D01*
X5435154Y-5709789D01*
X5290970Y-5565354D01*
X5102490Y-5487090D01*
X4898406Y-5486911D01*
X4709789Y-5564846D01*
X4565354Y-5709030D01*
X4487090Y-5897510D01*
X4486911Y-6101594D01*
X263000Y-6101594D01*
X263000Y-263000D01*
X7370180Y-263000D01*
X7230627Y-402310D01*
M02*
