G04 #@! TF.FileFunction,Copper,L1,Top,Signal*
%FSLAX46Y46*%
G04 Gerber Fmt 4.6, Leading zero omitted, Abs format (unit mm)*
G04 Created by KiCad (PCBNEW 4.0.5) date 01/12/17 11:30:12*
%MOMM*%
%LPD*%
G01*
G04 APERTURE LIST*
%ADD10C,0.100000*%
%ADD11O,2.500000X1.500000*%
%ADD12C,3.000000*%
%ADD13R,0.800000X1.000000*%
%ADD14R,1.300000X1.500000*%
%ADD15R,1.198880X1.198880*%
%ADD16R,1.270000X0.965200*%
%ADD17O,1.524000X1.000000*%
%ADD18R,2.032000X2.032000*%
%ADD19O,2.032000X2.032000*%
%ADD20R,1.000000X0.800000*%
%ADD21R,1.600000X2.000000*%
%ADD22R,1.699260X1.300480*%
%ADD23O,1.600000X2.300000*%
%ADD24C,0.800000*%
%ADD25C,0.600000*%
%ADD26C,0.250000*%
%ADD27C,0.500000*%
%ADD28C,1.000000*%
%ADD29C,0.026000*%
G04 APERTURE END LIST*
D10*
D11*
X21000000Y-22500000D03*
X21000000Y-20000000D03*
X21000000Y-17500000D03*
X21000000Y-15000000D03*
D12*
X27500000Y-18750000D03*
D11*
X9000000Y-15000000D03*
X9000000Y-17500000D03*
X9000000Y-20000000D03*
X9000000Y-22500000D03*
D12*
X2500000Y-18750000D03*
D13*
X22650000Y-12250000D03*
X20850000Y-12250000D03*
D14*
X14750000Y-14000000D03*
X17250000Y-14000000D03*
X14750000Y-16500000D03*
X17250000Y-16500000D03*
D13*
X13600000Y-750000D03*
X15400000Y-750000D03*
D15*
X17250000Y-18700980D03*
X17250000Y-20799020D03*
X15200980Y-11250000D03*
X17299020Y-11250000D03*
D16*
X14000000Y-5270000D03*
X14000000Y-4000000D03*
X14000000Y-2730000D03*
D17*
X11500000Y-2500000D03*
X11500000Y-4000000D03*
X11500000Y-5500000D03*
X11500000Y-7000000D03*
X11500000Y-8500000D03*
X11500000Y-10000000D03*
D18*
X16500000Y-23500000D03*
D19*
X13960000Y-23500000D03*
D20*
X19500000Y-2350000D03*
X19500000Y-4150000D03*
D13*
X21150000Y-750000D03*
X19350000Y-750000D03*
D20*
X19000000Y-16150000D03*
X19000000Y-14350000D03*
D21*
X17000000Y-3300000D03*
X17000000Y-8700000D03*
D11*
X9000000Y-2500000D03*
X9000000Y-5000000D03*
X9000000Y-7500000D03*
X9000000Y-10000000D03*
D12*
X2500000Y-6250000D03*
D16*
X14000000Y-18480000D03*
X14000000Y-19750000D03*
X14000000Y-21020000D03*
D22*
X11750000Y-18000060D03*
X11750000Y-14499940D03*
D23*
X27500000Y-2500000D03*
X24960000Y-2500000D03*
X22420000Y-2500000D03*
X22420000Y-10120000D03*
X24960000Y-10120000D03*
X27500000Y-10120000D03*
D24*
X15500000Y-18500000D03*
D25*
X17000000Y-8700000D03*
D24*
X16000000Y-15250000D03*
D25*
X21750000Y-750000D03*
X27750000Y-13500000D03*
X24500000Y-7250000D03*
X29000000Y-6000000D03*
D24*
X5500000Y-6500000D03*
X3000000Y-16500000D03*
X6000000Y-16500000D03*
D25*
X21250000Y-6500000D03*
D24*
X13500000Y-15250000D03*
X21250000Y-4250000D03*
D25*
X20250000Y-6250000D03*
D24*
X24750000Y-13500000D03*
D25*
X18250000Y-6250000D03*
X19250000Y-7250000D03*
X19250000Y-5250000D03*
D24*
X23500000Y-22500000D03*
X14000000Y-17500000D03*
D25*
X14500000Y-12500000D03*
X18750000Y-13250000D03*
X23750000Y-11250000D03*
X21750000Y-8500000D03*
X12800000Y-9700000D03*
X23500000Y-2500000D03*
X25250000Y-5000000D03*
X22000000Y-5750000D03*
X26500000Y-10000000D03*
X14750000Y-10000000D03*
X16000000Y-6000000D03*
X6250000Y-13750000D03*
X4750000Y-12500000D03*
D24*
X2750000Y-12500000D03*
D25*
X7250000Y-14750000D03*
X19250000Y-750000D03*
D24*
X4250000Y-11500000D03*
D26*
X22650000Y-12250000D02*
X24920000Y-12250000D01*
X24920000Y-12250000D02*
X24960000Y-12210000D01*
D27*
X15500000Y-18250000D02*
X17250000Y-16500000D01*
X15500000Y-18500000D02*
X15500000Y-18250000D01*
D26*
X19000000Y-14350000D02*
X18650000Y-14000000D01*
X18650000Y-14000000D02*
X17250000Y-14000000D01*
X11500000Y-2500000D02*
X11500000Y-1500000D01*
X12250000Y-750000D02*
X13600000Y-750000D01*
X11500000Y-1500000D02*
X12250000Y-750000D01*
D27*
X16000000Y-15250000D02*
X17250000Y-15250000D01*
D26*
X21150000Y-750000D02*
X21750000Y-750000D01*
X24960000Y-10120000D02*
X24960000Y-12210000D01*
X26250000Y-13500000D02*
X27750000Y-13500000D01*
X24960000Y-12210000D02*
X26250000Y-13500000D01*
X24500000Y-6000000D02*
X29000000Y-6000000D01*
X24960000Y-2500000D02*
X24500000Y-2960000D01*
X24500000Y-2960000D02*
X24500000Y-6000000D01*
X24500000Y-6000000D02*
X24500000Y-7250000D01*
X24500000Y-7250000D02*
X24500000Y-9660000D01*
X24500000Y-9660000D02*
X24960000Y-10120000D01*
X24960000Y-2500000D02*
X24960000Y-3460000D01*
X6000000Y-16500000D02*
X3000000Y-16500000D01*
D28*
X9000000Y-15000000D02*
X5500000Y-11500000D01*
X7000000Y-2500000D02*
X9000000Y-2500000D01*
X5500000Y-4000000D02*
X7000000Y-2500000D01*
X5500000Y-11500000D02*
X5500000Y-6500000D01*
X5500000Y-6500000D02*
X5500000Y-4000000D01*
D27*
X17250000Y-17000000D02*
X17250000Y-15250000D01*
X17250000Y-15250000D02*
X17250000Y-14500000D01*
D26*
X19500000Y-4150000D02*
X21250000Y-5900000D01*
X21250000Y-5900000D02*
X21250000Y-6500000D01*
X17000000Y-3300000D02*
X18650000Y-3300000D01*
X18650000Y-3300000D02*
X19500000Y-4150000D01*
X20850000Y-12250000D02*
X20000000Y-11400000D01*
X20000000Y-11400000D02*
X20000000Y-7750000D01*
X20000000Y-7750000D02*
X21250000Y-6500000D01*
X14000000Y-5270000D02*
X15030000Y-5270000D01*
X15030000Y-5270000D02*
X17000000Y-3300000D01*
D27*
X14750000Y-14500000D02*
X14250000Y-14500000D01*
X14250000Y-14500000D02*
X13500000Y-15250000D01*
X13500000Y-15250000D02*
X11750000Y-17000000D01*
X11750000Y-17000000D02*
X11750000Y-18000060D01*
D26*
X17250000Y-20799020D02*
X17049020Y-21000000D01*
X17049020Y-21000000D02*
X16500000Y-21000000D01*
X16500000Y-21000000D02*
X16500000Y-21020000D01*
X15400000Y-750000D02*
X15400000Y-1750000D01*
X15400000Y-1750000D02*
X15250000Y-1750000D01*
D27*
X19500000Y-21250000D02*
X19270000Y-21020000D01*
X19270000Y-21020000D02*
X16500000Y-21020000D01*
X16500000Y-21020000D02*
X14000000Y-21020000D01*
X19500000Y-2350000D02*
X21250000Y-4100000D01*
X21250000Y-4250000D02*
X21250000Y-4100000D01*
X19500000Y-2350000D02*
X18600000Y-2350000D01*
X18600000Y-2350000D02*
X18000000Y-1750000D01*
X18000000Y-1750000D02*
X15250000Y-1750000D01*
X15250000Y-1750000D02*
X14980000Y-1750000D01*
X14980000Y-1750000D02*
X14000000Y-2730000D01*
X19250000Y-7250000D02*
X19250000Y-12500000D01*
X20250000Y-13500000D02*
X24750000Y-13500000D01*
X19250000Y-12500000D02*
X20250000Y-13500000D01*
X19250000Y-7250000D02*
X18250000Y-6250000D01*
X20250000Y-6250000D02*
X19250000Y-7250000D01*
X19250000Y-5250000D02*
X20250000Y-6250000D01*
X19500000Y-21250000D02*
X22250000Y-21250000D01*
X22250000Y-21250000D02*
X23500000Y-22500000D01*
X14000000Y-18480000D02*
X14000000Y-17500000D01*
X14000000Y-17500000D02*
X14000000Y-17250000D01*
X14000000Y-17250000D02*
X14750000Y-16500000D01*
X14770000Y-17000000D02*
X14750000Y-17000000D01*
D26*
X17250000Y-18700980D02*
X19000000Y-16950980D01*
X19000000Y-16950980D02*
X19000000Y-16150000D01*
X15200980Y-11250000D02*
X14500000Y-11950980D01*
X14500000Y-11950980D02*
X14500000Y-12500000D01*
X18750000Y-13250000D02*
X17299020Y-11799020D01*
X17299020Y-11799020D02*
X17299020Y-11250000D01*
D28*
X11750000Y-14499940D02*
X11750000Y-13250000D01*
X7500000Y-5000000D02*
X9000000Y-5000000D01*
X6750000Y-5750000D02*
X7500000Y-5000000D01*
X6750000Y-10500000D02*
X6750000Y-5750000D01*
X8000000Y-11750000D02*
X6750000Y-10500000D01*
X10250000Y-11750000D02*
X8000000Y-11750000D01*
X11750000Y-13250000D02*
X10250000Y-11750000D01*
X9000000Y-17500000D02*
X9500000Y-17500000D01*
X9500000Y-17500000D02*
X11750000Y-15250000D01*
X11750000Y-15250000D02*
X11750000Y-14499940D01*
X9000000Y-17500000D02*
X9249940Y-17500000D01*
D27*
X12000000Y-14749940D02*
X12249940Y-14500000D01*
X11500000Y-4000000D02*
X14000000Y-4000000D01*
D26*
X9000000Y-20000000D02*
X11000000Y-22000000D01*
X15000000Y-22000000D02*
X16500000Y-23500000D01*
X11000000Y-22000000D02*
X15000000Y-22000000D01*
X23000000Y-8500000D02*
X21750000Y-8500000D01*
X23750000Y-11250000D02*
X23750000Y-9250000D01*
X23750000Y-9250000D02*
X23000000Y-8500000D01*
X12800000Y-9700000D02*
X11600000Y-8500000D01*
X11600000Y-8500000D02*
X11500000Y-8500000D01*
X23500000Y-2500000D02*
X22420000Y-2500000D01*
X27500000Y-2500000D02*
X27500000Y-2750000D01*
X27500000Y-2750000D02*
X25250000Y-5000000D01*
X22000000Y-5750000D02*
X22000000Y-7000000D01*
X22000000Y-7000000D02*
X21000000Y-8000000D01*
X22420000Y-10120000D02*
X21000000Y-8700000D01*
X21000000Y-8700000D02*
X21000000Y-8000000D01*
X26620000Y-10120000D02*
X27500000Y-10120000D01*
X26500000Y-10000000D02*
X26620000Y-10120000D01*
X14750000Y-7250000D02*
X14750000Y-10000000D01*
X16000000Y-6000000D02*
X14750000Y-7250000D01*
X6000000Y-13750000D02*
X6250000Y-13750000D01*
X4750000Y-12500000D02*
X6000000Y-13750000D01*
X2750000Y-12500000D02*
X5000000Y-14750000D01*
X5000000Y-14750000D02*
X7250000Y-14750000D01*
X19250000Y-750000D02*
X19350000Y-750000D01*
D27*
X14000000Y-19750000D02*
X11000000Y-19750000D01*
X10000000Y-18750000D02*
X11000000Y-19750000D01*
X8000000Y-18750000D02*
X10000000Y-18750000D01*
X7250000Y-18000000D02*
X8000000Y-18750000D01*
X7250000Y-16000000D02*
X7250000Y-18000000D01*
X6750000Y-15500000D02*
X7250000Y-16000000D01*
X3000000Y-15500000D02*
X6750000Y-15500000D01*
X1750000Y-14250000D02*
X3000000Y-15500000D01*
X1750000Y-12000000D02*
X1750000Y-14250000D01*
X2250000Y-11500000D02*
X1750000Y-12000000D01*
X4250000Y-11500000D02*
X2250000Y-11500000D01*
D29*
G36*
X12679000Y-378750D02*
X12809250Y-509000D01*
X13400000Y-509000D01*
X13400000Y-489000D01*
X13800000Y-489000D01*
X13800000Y-509000D01*
X14390750Y-509000D01*
X14521000Y-378750D01*
X14521000Y-263000D01*
X14782828Y-263000D01*
X14782828Y-1250000D01*
X14797136Y-1326040D01*
X14652609Y-1422610D01*
X14044992Y-2030228D01*
X13365000Y-2030228D01*
X13286067Y-2045080D01*
X13213572Y-2091729D01*
X13164938Y-2162908D01*
X13147828Y-2247400D01*
X13147828Y-3212600D01*
X13162680Y-3291533D01*
X13209329Y-3364028D01*
X13211151Y-3365273D01*
X13164938Y-3432908D01*
X13147828Y-3517400D01*
X13147828Y-3537000D01*
X12312775Y-3537000D01*
X12285268Y-3495833D01*
X12172420Y-3420431D01*
X12278858Y-3383626D01*
X12577664Y-3118571D01*
X12704233Y-2893239D01*
X12619528Y-2741000D01*
X11741000Y-2741000D01*
X11741000Y-2761000D01*
X11259000Y-2761000D01*
X11259000Y-2741000D01*
X9241000Y-2741000D01*
X9241000Y-3771000D01*
X9741000Y-3771000D01*
X10209046Y-3582024D01*
X10558191Y-3239081D01*
X10721142Y-3383626D01*
X10827580Y-3420431D01*
X10714732Y-3495833D01*
X10560173Y-3727147D01*
X10505899Y-4000000D01*
X10560173Y-4272853D01*
X10714732Y-4504167D01*
X10946046Y-4658726D01*
X11218899Y-4713000D01*
X11781101Y-4713000D01*
X12053954Y-4658726D01*
X12285268Y-4504167D01*
X12312775Y-4463000D01*
X13147828Y-4463000D01*
X13147828Y-4482600D01*
X13162680Y-4561533D01*
X13209329Y-4634028D01*
X13211151Y-4635273D01*
X13164938Y-4702908D01*
X13147828Y-4787400D01*
X13147828Y-5752600D01*
X13162680Y-5831533D01*
X13209329Y-5904028D01*
X13280508Y-5952662D01*
X13365000Y-5969772D01*
X14635000Y-5969772D01*
X14713933Y-5954920D01*
X14786428Y-5908271D01*
X14835062Y-5837092D01*
X14852172Y-5752600D01*
X14852172Y-5608000D01*
X15030000Y-5608000D01*
X15159347Y-5582271D01*
X15269002Y-5509002D01*
X16260832Y-4517172D01*
X17800000Y-4517172D01*
X17878933Y-4502320D01*
X17951428Y-4455671D01*
X18000062Y-4384492D01*
X18017172Y-4300000D01*
X18017172Y-3638000D01*
X18509996Y-3638000D01*
X18782828Y-3910832D01*
X18782828Y-4550000D01*
X18797680Y-4628933D01*
X18844329Y-4701428D01*
X18915508Y-4750062D01*
X19000000Y-4767172D01*
X19075169Y-4767172D01*
X18959789Y-4814846D01*
X18815354Y-4959030D01*
X18737090Y-5147510D01*
X18736911Y-5351594D01*
X18814846Y-5540211D01*
X18959030Y-5684646D01*
X19080166Y-5734946D01*
X19595219Y-6250000D01*
X19250000Y-6595220D01*
X18734855Y-6080075D01*
X18685154Y-5959789D01*
X18540970Y-5815354D01*
X18352490Y-5737090D01*
X18148406Y-5736911D01*
X17959789Y-5814846D01*
X17815354Y-5959030D01*
X17737090Y-6147510D01*
X17736911Y-6351594D01*
X17814846Y-6540211D01*
X17959030Y-6684646D01*
X18080166Y-6734946D01*
X18765145Y-7419926D01*
X18787000Y-7472819D01*
X18787000Y-12500000D01*
X18811148Y-12621398D01*
X18822244Y-12677183D01*
X18866030Y-12742712D01*
X18852490Y-12737090D01*
X18714973Y-12736969D01*
X18009259Y-12031255D01*
X18049888Y-12005111D01*
X18098522Y-11933932D01*
X18115632Y-11849440D01*
X18115632Y-10650560D01*
X18100780Y-10571627D01*
X18054131Y-10499132D01*
X17982952Y-10450498D01*
X17898460Y-10433388D01*
X16699580Y-10433388D01*
X16620647Y-10448240D01*
X16548152Y-10494889D01*
X16499518Y-10566068D01*
X16482408Y-10650560D01*
X16482408Y-11849440D01*
X16497260Y-11928373D01*
X16543909Y-12000868D01*
X16615088Y-12049502D01*
X16699580Y-12066612D01*
X17088608Y-12066612D01*
X17750996Y-12729000D01*
X17621250Y-12729000D01*
X17491000Y-12859250D01*
X17491000Y-13759000D01*
X17511000Y-13759000D01*
X17511000Y-14241000D01*
X17491000Y-14241000D01*
X17491000Y-15140750D01*
X17600250Y-15250000D01*
X17491000Y-15359250D01*
X17491000Y-16259000D01*
X17511000Y-16259000D01*
X17511000Y-16741000D01*
X17491000Y-16741000D01*
X17491000Y-17640750D01*
X17621250Y-17771000D01*
X17701976Y-17771000D01*
X17588608Y-17884368D01*
X16650560Y-17884368D01*
X16571627Y-17899220D01*
X16499132Y-17945869D01*
X16450498Y-18017048D01*
X16433388Y-18101540D01*
X16433388Y-19300420D01*
X16448240Y-19379353D01*
X16494889Y-19451848D01*
X16566068Y-19500482D01*
X16650560Y-19517592D01*
X17849440Y-19517592D01*
X17928373Y-19502740D01*
X18000868Y-19456091D01*
X18049502Y-19384912D01*
X18066612Y-19300420D01*
X18066612Y-18362372D01*
X18928984Y-17500000D01*
X19508338Y-17500000D01*
X19581642Y-17868524D01*
X19790394Y-18180944D01*
X20102814Y-18389696D01*
X20471338Y-18463000D01*
X21528662Y-18463000D01*
X21897186Y-18389696D01*
X22209606Y-18180944D01*
X22418358Y-17868524D01*
X22491662Y-17500000D01*
X22418358Y-17131476D01*
X22209606Y-16819056D01*
X21897186Y-16610304D01*
X21528662Y-16537000D01*
X20471338Y-16537000D01*
X20102814Y-16610304D01*
X19790394Y-16819056D01*
X19581642Y-17131476D01*
X19508338Y-17500000D01*
X18928984Y-17500000D01*
X19239002Y-17189982D01*
X19312271Y-17080327D01*
X19338000Y-16950980D01*
X19338000Y-16767172D01*
X19500000Y-16767172D01*
X19578933Y-16752320D01*
X19651428Y-16705671D01*
X19700062Y-16634492D01*
X19717172Y-16550000D01*
X19717172Y-15750000D01*
X19702320Y-15671067D01*
X19655671Y-15598572D01*
X19584492Y-15549938D01*
X19500000Y-15532828D01*
X18500000Y-15532828D01*
X18421067Y-15547680D01*
X18388739Y-15568482D01*
X18341682Y-15454877D01*
X18195122Y-15308317D01*
X18054332Y-15250000D01*
X18195122Y-15191683D01*
X18200000Y-15186805D01*
X18204877Y-15191682D01*
X18396366Y-15271000D01*
X18628750Y-15271000D01*
X18759000Y-15140750D01*
X18759000Y-14550000D01*
X18739000Y-14550000D01*
X18739000Y-14150000D01*
X18759000Y-14150000D01*
X18759000Y-14089000D01*
X19241000Y-14089000D01*
X19241000Y-14150000D01*
X19261000Y-14150000D01*
X19261000Y-14550000D01*
X19241000Y-14550000D01*
X19241000Y-15140750D01*
X19371250Y-15271000D01*
X19562243Y-15271000D01*
X19581642Y-15368524D01*
X19790394Y-15680944D01*
X20102814Y-15889696D01*
X20471338Y-15963000D01*
X21528662Y-15963000D01*
X21897186Y-15889696D01*
X22209606Y-15680944D01*
X22418358Y-15368524D01*
X22491662Y-15000000D01*
X22418358Y-14631476D01*
X22209606Y-14319056D01*
X21897186Y-14110304D01*
X21528662Y-14037000D01*
X20471338Y-14037000D01*
X20102814Y-14110304D01*
X20021000Y-14164970D01*
X20021000Y-14108998D01*
X19931752Y-14108998D01*
X20021000Y-14019750D01*
X20021000Y-13893133D01*
X20072818Y-13927756D01*
X20250000Y-13963000D01*
X24346035Y-13963000D01*
X24402310Y-14019373D01*
X24627532Y-14112893D01*
X24871398Y-14113106D01*
X25096783Y-14019979D01*
X25269373Y-13847690D01*
X25362893Y-13622468D01*
X25363106Y-13378602D01*
X25269979Y-13153217D01*
X25097690Y-12980627D01*
X24872468Y-12887107D01*
X24628602Y-12886894D01*
X24403217Y-12980021D01*
X24346138Y-13037000D01*
X23495047Y-13037000D01*
X23571000Y-12853634D01*
X23571000Y-12621250D01*
X23440750Y-12491000D01*
X22850000Y-12491000D01*
X22850000Y-12511000D01*
X22450000Y-12511000D01*
X22450000Y-12491000D01*
X21859250Y-12491000D01*
X21729000Y-12621250D01*
X21729000Y-12853634D01*
X21804953Y-13037000D01*
X20441781Y-13037000D01*
X20331836Y-12927055D01*
X20365508Y-12950062D01*
X20450000Y-12967172D01*
X21250000Y-12967172D01*
X21328933Y-12952320D01*
X21401428Y-12905671D01*
X21450062Y-12834492D01*
X21467172Y-12750000D01*
X21467172Y-11750000D01*
X21452320Y-11671067D01*
X21405671Y-11598572D01*
X21334492Y-11549938D01*
X21250000Y-11532828D01*
X20610832Y-11532828D01*
X20338000Y-11259996D01*
X20338000Y-7890004D01*
X21215035Y-7012969D01*
X21351594Y-7013089D01*
X21540211Y-6935154D01*
X21662000Y-6813577D01*
X21662000Y-6859996D01*
X20760998Y-7760998D01*
X20687729Y-7870653D01*
X20662000Y-8000000D01*
X20662000Y-8700000D01*
X20687729Y-8829347D01*
X20760998Y-8939002D01*
X21433263Y-9611267D01*
X21407000Y-9743297D01*
X21407000Y-10496703D01*
X21484110Y-10884361D01*
X21703701Y-11213002D01*
X21911408Y-11351787D01*
X21808318Y-11454877D01*
X21729000Y-11646366D01*
X21729000Y-11878750D01*
X21859250Y-12009000D01*
X22450000Y-12009000D01*
X22450000Y-11989000D01*
X22850000Y-11989000D01*
X22850000Y-12009000D01*
X23440750Y-12009000D01*
X23571000Y-11878750D01*
X23571000Y-11731140D01*
X23647510Y-11762910D01*
X23851594Y-11763089D01*
X24040211Y-11685154D01*
X24184646Y-11540970D01*
X24186954Y-11535412D01*
X24518785Y-11715139D01*
X24719000Y-11636107D01*
X24719000Y-10361000D01*
X24699000Y-10361000D01*
X24699000Y-9879000D01*
X24719000Y-9879000D01*
X24719000Y-8603893D01*
X25201000Y-8603893D01*
X25201000Y-9879000D01*
X25221000Y-9879000D01*
X25221000Y-10361000D01*
X25201000Y-10361000D01*
X25201000Y-11636107D01*
X25401215Y-11715139D01*
X25830464Y-11482649D01*
X26151728Y-11072454D01*
X26291562Y-10570540D01*
X26202691Y-10428296D01*
X26209030Y-10434646D01*
X26397510Y-10512910D01*
X26490240Y-10512991D01*
X26564110Y-10884361D01*
X26783701Y-11213002D01*
X27112342Y-11432593D01*
X27500000Y-11509703D01*
X27887658Y-11432593D01*
X28216299Y-11213002D01*
X28435890Y-10884361D01*
X28513000Y-10496703D01*
X28513000Y-9743297D01*
X28435890Y-9355639D01*
X28216299Y-9026998D01*
X27887658Y-8807407D01*
X27500000Y-8730297D01*
X27112342Y-8807407D01*
X26783701Y-9026998D01*
X26564110Y-9355639D01*
X26537974Y-9487033D01*
X26398406Y-9486911D01*
X26256984Y-9545346D01*
X26151728Y-9167546D01*
X25830464Y-8757351D01*
X25401215Y-8524861D01*
X25201000Y-8603893D01*
X24719000Y-8603893D01*
X24518785Y-8524861D01*
X24089536Y-8757351D01*
X23933976Y-8955972D01*
X23239002Y-8260998D01*
X23129347Y-8187729D01*
X23000000Y-8162000D01*
X22137448Y-8162000D01*
X22040970Y-8065354D01*
X21852490Y-7987090D01*
X21648406Y-7986911D01*
X21459789Y-8064846D01*
X21338000Y-8186423D01*
X21338000Y-8140004D01*
X22239002Y-7239002D01*
X22299536Y-7148406D01*
X22312271Y-7129347D01*
X22338000Y-7000000D01*
X22338000Y-6137448D01*
X22434646Y-6040970D01*
X22512910Y-5852490D01*
X22513089Y-5648406D01*
X22435154Y-5459789D01*
X22290970Y-5315354D01*
X22102490Y-5237090D01*
X21898406Y-5236911D01*
X21709789Y-5314846D01*
X21565354Y-5459030D01*
X21487090Y-5647510D01*
X21487080Y-5659076D01*
X20929598Y-5101594D01*
X24736911Y-5101594D01*
X24814846Y-5290211D01*
X24959030Y-5434646D01*
X25147510Y-5512910D01*
X25351594Y-5513089D01*
X25540211Y-5435154D01*
X25684646Y-5290970D01*
X25762910Y-5102490D01*
X25763031Y-4964973D01*
X26994291Y-3733713D01*
X27112342Y-3812593D01*
X27500000Y-3889703D01*
X27887658Y-3812593D01*
X28216299Y-3593002D01*
X28435890Y-3264361D01*
X28513000Y-2876703D01*
X28513000Y-2123297D01*
X28435890Y-1735639D01*
X28216299Y-1406998D01*
X27887658Y-1187407D01*
X27500000Y-1110297D01*
X27112342Y-1187407D01*
X26783701Y-1406998D01*
X26564110Y-1735639D01*
X26487000Y-2123297D01*
X26487000Y-2876703D01*
X26554740Y-3217256D01*
X25284965Y-4487031D01*
X25148406Y-4486911D01*
X24959789Y-4564846D01*
X24815354Y-4709030D01*
X24737090Y-4897510D01*
X24736911Y-5101594D01*
X20929598Y-5101594D01*
X20217172Y-4389168D01*
X20217172Y-3750000D01*
X20210671Y-3715452D01*
X20637094Y-4141875D01*
X20636894Y-4371398D01*
X20730021Y-4596783D01*
X20902310Y-4769373D01*
X21127532Y-4862893D01*
X21371398Y-4863106D01*
X21596783Y-4769979D01*
X21769373Y-4597690D01*
X21862893Y-4372468D01*
X21863106Y-4128602D01*
X21769979Y-3903217D01*
X21597690Y-3730627D01*
X21491182Y-3686401D01*
X20217172Y-2412392D01*
X20217172Y-1950000D01*
X20202320Y-1871067D01*
X20155671Y-1798572D01*
X20084492Y-1749938D01*
X20000000Y-1732828D01*
X19000000Y-1732828D01*
X18921067Y-1747680D01*
X18848572Y-1794329D01*
X18799938Y-1865508D01*
X18795586Y-1887000D01*
X18791781Y-1887000D01*
X18327390Y-1422610D01*
X18177183Y-1322244D01*
X18147786Y-1316397D01*
X18000000Y-1287000D01*
X16009679Y-1287000D01*
X16017172Y-1250000D01*
X16017172Y-263000D01*
X18732828Y-263000D01*
X18732828Y-1250000D01*
X18747680Y-1328933D01*
X18794329Y-1401428D01*
X18865508Y-1450062D01*
X18950000Y-1467172D01*
X19750000Y-1467172D01*
X19828933Y-1452320D01*
X19901428Y-1405671D01*
X19950062Y-1334492D01*
X19967172Y-1250000D01*
X19967172Y-1121250D01*
X20229000Y-1121250D01*
X20229000Y-1353634D01*
X20308318Y-1545123D01*
X20454878Y-1691683D01*
X20646367Y-1771000D01*
X20819750Y-1771000D01*
X20950000Y-1640750D01*
X20950000Y-991000D01*
X21350000Y-991000D01*
X21350000Y-1640750D01*
X21477603Y-1768353D01*
X21407000Y-2123297D01*
X21407000Y-2876703D01*
X21484110Y-3264361D01*
X21703701Y-3593002D01*
X22032342Y-3812593D01*
X22420000Y-3889703D01*
X22807658Y-3812593D01*
X23136299Y-3593002D01*
X23355890Y-3264361D01*
X23405905Y-3012917D01*
X23601594Y-3013089D01*
X23641294Y-2996685D01*
X23768272Y-3452454D01*
X24089536Y-3862649D01*
X24518785Y-4095139D01*
X24719000Y-4016107D01*
X24719000Y-2741000D01*
X25201000Y-2741000D01*
X25201000Y-4016107D01*
X25401215Y-4095139D01*
X25830464Y-3862649D01*
X26151728Y-3452454D01*
X26291562Y-2950540D01*
X26160646Y-2741000D01*
X25201000Y-2741000D01*
X24719000Y-2741000D01*
X24699000Y-2741000D01*
X24699000Y-2259000D01*
X24719000Y-2259000D01*
X24719000Y-983893D01*
X25201000Y-983893D01*
X25201000Y-2259000D01*
X26160646Y-2259000D01*
X26291562Y-2049460D01*
X26151728Y-1547546D01*
X25830464Y-1137351D01*
X25401215Y-904861D01*
X25201000Y-983893D01*
X24719000Y-983893D01*
X24518785Y-904861D01*
X24089536Y-1137351D01*
X23768272Y-1547546D01*
X23641322Y-2003215D01*
X23602490Y-1987090D01*
X23405872Y-1986918D01*
X23355890Y-1735639D01*
X23136299Y-1406998D01*
X22807658Y-1187407D01*
X22420000Y-1110297D01*
X22071000Y-1179717D01*
X22071000Y-1121250D01*
X21940750Y-991000D01*
X21350000Y-991000D01*
X20950000Y-991000D01*
X20359250Y-991000D01*
X20229000Y-1121250D01*
X19967172Y-1121250D01*
X19967172Y-263000D01*
X20229000Y-263000D01*
X20229000Y-378750D01*
X20359250Y-509000D01*
X20950000Y-509000D01*
X20950000Y-489000D01*
X21350000Y-489000D01*
X21350000Y-509000D01*
X21940750Y-509000D01*
X22071000Y-378750D01*
X22071000Y-263000D01*
X29737000Y-263000D01*
X29737000Y-24737000D01*
X14040830Y-24737000D01*
X14430318Y-24659526D01*
X14829034Y-24393112D01*
X15095448Y-23994396D01*
X15189000Y-23524078D01*
X15189000Y-23475922D01*
X15095448Y-23005604D01*
X14829034Y-22606888D01*
X14430318Y-22340474D01*
X14417880Y-22338000D01*
X14859996Y-22338000D01*
X15266828Y-22744832D01*
X15266828Y-24516000D01*
X15281680Y-24594933D01*
X15328329Y-24667428D01*
X15399508Y-24716062D01*
X15484000Y-24733172D01*
X17516000Y-24733172D01*
X17594933Y-24718320D01*
X17667428Y-24671671D01*
X17716062Y-24600492D01*
X17733172Y-24516000D01*
X17733172Y-22933254D01*
X19305123Y-22933254D01*
X19430854Y-23228320D01*
X19790954Y-23582024D01*
X20259000Y-23771000D01*
X20759000Y-23771000D01*
X20759000Y-22741000D01*
X21241000Y-22741000D01*
X21241000Y-23771000D01*
X21741000Y-23771000D01*
X22209046Y-23582024D01*
X22569146Y-23228320D01*
X22694877Y-22933254D01*
X22615002Y-22741000D01*
X21241000Y-22741000D01*
X20759000Y-22741000D01*
X19384998Y-22741000D01*
X19305123Y-22933254D01*
X17733172Y-22933254D01*
X17733172Y-22484000D01*
X17718320Y-22405067D01*
X17671671Y-22332572D01*
X17600492Y-22283938D01*
X17516000Y-22266828D01*
X15744832Y-22266828D01*
X15239002Y-21760998D01*
X15129347Y-21687729D01*
X15000000Y-21662000D01*
X14780633Y-21662000D01*
X14786428Y-21658271D01*
X14835062Y-21587092D01*
X14852172Y-21502600D01*
X14852172Y-21483000D01*
X16451848Y-21483000D01*
X16494889Y-21549888D01*
X16566068Y-21598522D01*
X16650560Y-21615632D01*
X17849440Y-21615632D01*
X17928373Y-21600780D01*
X18000868Y-21554131D01*
X18049469Y-21483000D01*
X19078219Y-21483000D01*
X19172609Y-21577390D01*
X19322817Y-21677756D01*
X19352214Y-21683603D01*
X19492179Y-21711444D01*
X19430854Y-21771680D01*
X19305123Y-22066746D01*
X19384998Y-22259000D01*
X20759000Y-22259000D01*
X20759000Y-22239000D01*
X21241000Y-22239000D01*
X21241000Y-22259000D01*
X22604220Y-22259000D01*
X22886964Y-22541744D01*
X22886894Y-22621398D01*
X22980021Y-22846783D01*
X23152310Y-23019373D01*
X23377532Y-23112893D01*
X23621398Y-23113106D01*
X23846783Y-23019979D01*
X24019373Y-22847690D01*
X24112893Y-22622468D01*
X24113106Y-22378602D01*
X24019979Y-22153217D01*
X23847690Y-21980627D01*
X23622468Y-21887107D01*
X23541817Y-21887037D01*
X22577390Y-20922610D01*
X22427183Y-20822244D01*
X22397786Y-20816397D01*
X22250000Y-20787000D01*
X22050882Y-20787000D01*
X22209606Y-20680944D01*
X22418358Y-20368524D01*
X22491662Y-20000000D01*
X22418358Y-19631476D01*
X22209606Y-19319056D01*
X21897186Y-19110304D01*
X21791301Y-19089242D01*
X25786703Y-19089242D01*
X26046942Y-19719069D01*
X26528396Y-20201364D01*
X27157768Y-20462702D01*
X27839242Y-20463297D01*
X28469069Y-20203058D01*
X28951364Y-19721604D01*
X29212702Y-19092232D01*
X29213297Y-18410758D01*
X28953058Y-17780931D01*
X28471604Y-17298636D01*
X27842232Y-17037298D01*
X27160758Y-17036703D01*
X26530931Y-17296942D01*
X26048636Y-17778396D01*
X25787298Y-18407768D01*
X25786703Y-19089242D01*
X21791301Y-19089242D01*
X21528662Y-19037000D01*
X20471338Y-19037000D01*
X20102814Y-19110304D01*
X19790394Y-19319056D01*
X19581642Y-19631476D01*
X19508338Y-20000000D01*
X19581642Y-20368524D01*
X19790394Y-20680944D01*
X19949118Y-20787000D01*
X19691780Y-20787000D01*
X19597390Y-20692610D01*
X19447183Y-20592244D01*
X19417786Y-20586397D01*
X19270000Y-20557000D01*
X18066612Y-20557000D01*
X18066612Y-20199580D01*
X18051760Y-20120647D01*
X18005111Y-20048152D01*
X17933932Y-19999518D01*
X17849440Y-19982408D01*
X16650560Y-19982408D01*
X16571627Y-19997260D01*
X16499132Y-20043909D01*
X16450498Y-20115088D01*
X16433388Y-20199580D01*
X16433388Y-20557000D01*
X14852172Y-20557000D01*
X14852172Y-20537400D01*
X14837320Y-20458467D01*
X14790671Y-20385972D01*
X14788849Y-20384727D01*
X14835062Y-20317092D01*
X14852172Y-20232600D01*
X14852172Y-19267400D01*
X14837320Y-19188467D01*
X14790671Y-19115972D01*
X14788849Y-19114727D01*
X14835062Y-19047092D01*
X14852172Y-18962600D01*
X14852172Y-17997400D01*
X14837320Y-17918467D01*
X14790671Y-17845972D01*
X14719492Y-17797338D01*
X14635000Y-17780228D01*
X14547386Y-17780228D01*
X14612893Y-17622468D01*
X14613029Y-17467172D01*
X15400000Y-17467172D01*
X15478933Y-17452320D01*
X15551428Y-17405671D01*
X15600062Y-17334492D01*
X15617172Y-17250000D01*
X15617172Y-16871250D01*
X16079000Y-16871250D01*
X16079000Y-17353634D01*
X16158318Y-17545123D01*
X16304878Y-17691683D01*
X16496367Y-17771000D01*
X16878750Y-17771000D01*
X17009000Y-17640750D01*
X17009000Y-16741000D01*
X16209250Y-16741000D01*
X16079000Y-16871250D01*
X15617172Y-16871250D01*
X15617172Y-15750000D01*
X15602320Y-15671067D01*
X15555671Y-15598572D01*
X15484492Y-15549938D01*
X15400000Y-15532828D01*
X14100000Y-15532828D01*
X14041755Y-15543787D01*
X14112893Y-15372468D01*
X14112963Y-15291817D01*
X14437609Y-14967172D01*
X15400000Y-14967172D01*
X15478933Y-14952320D01*
X15551428Y-14905671D01*
X15600062Y-14834492D01*
X15617172Y-14750000D01*
X15617172Y-14371250D01*
X16079000Y-14371250D01*
X16079000Y-14853634D01*
X16158318Y-15045123D01*
X16304878Y-15191683D01*
X16445668Y-15250000D01*
X16304878Y-15308317D01*
X16158318Y-15454877D01*
X16079000Y-15646366D01*
X16079000Y-16128750D01*
X16209250Y-16259000D01*
X17009000Y-16259000D01*
X17009000Y-15359250D01*
X16899750Y-15250000D01*
X17009000Y-15140750D01*
X17009000Y-14241000D01*
X16209250Y-14241000D01*
X16079000Y-14371250D01*
X15617172Y-14371250D01*
X15617172Y-13250000D01*
X15602320Y-13171067D01*
X15586426Y-13146366D01*
X16079000Y-13146366D01*
X16079000Y-13628750D01*
X16209250Y-13759000D01*
X17009000Y-13759000D01*
X17009000Y-12859250D01*
X16878750Y-12729000D01*
X16496367Y-12729000D01*
X16304878Y-12808317D01*
X16158318Y-12954877D01*
X16079000Y-13146366D01*
X15586426Y-13146366D01*
X15555671Y-13098572D01*
X15484492Y-13049938D01*
X15400000Y-13032828D01*
X14100000Y-13032828D01*
X14021067Y-13047680D01*
X13948572Y-13094329D01*
X13899938Y-13165508D01*
X13882828Y-13250000D01*
X13882828Y-14212391D01*
X13458256Y-14636964D01*
X13378602Y-14636894D01*
X13153217Y-14730021D01*
X12980627Y-14902310D01*
X12887107Y-15127532D01*
X12887037Y-15208183D01*
X11422610Y-16672610D01*
X11322244Y-16822817D01*
X11322244Y-16822818D01*
X11287000Y-17000000D01*
X11287000Y-17132648D01*
X10900370Y-17132648D01*
X10869965Y-17138369D01*
X12254167Y-15754167D01*
X12408726Y-15522853D01*
X12439657Y-15367352D01*
X12599630Y-15367352D01*
X12678563Y-15352500D01*
X12751058Y-15305851D01*
X12799692Y-15234672D01*
X12816802Y-15150180D01*
X12816802Y-13849700D01*
X12801950Y-13770767D01*
X12755301Y-13698272D01*
X12684122Y-13649638D01*
X12599630Y-13632528D01*
X12463000Y-13632528D01*
X12463000Y-13250000D01*
X12447299Y-13171067D01*
X12408726Y-12977146D01*
X12254167Y-12745833D01*
X12109928Y-12601594D01*
X13986911Y-12601594D01*
X14064846Y-12790211D01*
X14209030Y-12934646D01*
X14397510Y-13012910D01*
X14601594Y-13013089D01*
X14790211Y-12935154D01*
X14934646Y-12790970D01*
X15012910Y-12602490D01*
X15013089Y-12398406D01*
X14935154Y-12209789D01*
X14838000Y-12112466D01*
X14838000Y-12090984D01*
X14862372Y-12066612D01*
X15800420Y-12066612D01*
X15879353Y-12051760D01*
X15951848Y-12005111D01*
X16000482Y-11933932D01*
X16017592Y-11849440D01*
X16017592Y-10650560D01*
X16002740Y-10571627D01*
X15956091Y-10499132D01*
X15884912Y-10450498D01*
X15800420Y-10433388D01*
X15041980Y-10433388D01*
X15184646Y-10290970D01*
X15262910Y-10102490D01*
X15263089Y-9898406D01*
X15185154Y-9709789D01*
X15088000Y-9612466D01*
X15088000Y-9071250D01*
X15679000Y-9071250D01*
X15679000Y-9803633D01*
X15758317Y-9995122D01*
X15904877Y-10141682D01*
X16096366Y-10221000D01*
X16628750Y-10221000D01*
X16759000Y-10090750D01*
X16759000Y-8941000D01*
X17241000Y-8941000D01*
X17241000Y-10090750D01*
X17371250Y-10221000D01*
X17903634Y-10221000D01*
X18095123Y-10141682D01*
X18241683Y-9995122D01*
X18321000Y-9803633D01*
X18321000Y-9071250D01*
X18190750Y-8941000D01*
X17241000Y-8941000D01*
X16759000Y-8941000D01*
X15809250Y-8941000D01*
X15679000Y-9071250D01*
X15088000Y-9071250D01*
X15088000Y-7596367D01*
X15679000Y-7596367D01*
X15679000Y-8328750D01*
X15809250Y-8459000D01*
X16759000Y-8459000D01*
X16759000Y-7309250D01*
X17241000Y-7309250D01*
X17241000Y-8459000D01*
X18190750Y-8459000D01*
X18321000Y-8328750D01*
X18321000Y-7596367D01*
X18241683Y-7404878D01*
X18095123Y-7258318D01*
X17903634Y-7179000D01*
X17371250Y-7179000D01*
X17241000Y-7309250D01*
X16759000Y-7309250D01*
X16628750Y-7179000D01*
X16096366Y-7179000D01*
X15904877Y-7258318D01*
X15758317Y-7404878D01*
X15679000Y-7596367D01*
X15088000Y-7596367D01*
X15088000Y-7390004D01*
X15965035Y-6512969D01*
X16101594Y-6513089D01*
X16290211Y-6435154D01*
X16434646Y-6290970D01*
X16512910Y-6102490D01*
X16513089Y-5898406D01*
X16435154Y-5709789D01*
X16290970Y-5565354D01*
X16102490Y-5487090D01*
X15898406Y-5486911D01*
X15709789Y-5564846D01*
X15565354Y-5709030D01*
X15487090Y-5897510D01*
X15486969Y-6035027D01*
X14510998Y-7010998D01*
X14437729Y-7120653D01*
X14412000Y-7250000D01*
X14412000Y-9612552D01*
X14315354Y-9709030D01*
X14237090Y-9897510D01*
X14236911Y-10101594D01*
X14314846Y-10290211D01*
X14459030Y-10434646D01*
X14510512Y-10456023D01*
X14450112Y-10494889D01*
X14401478Y-10566068D01*
X14384368Y-10650560D01*
X14384368Y-11588608D01*
X14260998Y-11711978D01*
X14187729Y-11821633D01*
X14162000Y-11950980D01*
X14162000Y-12112552D01*
X14065354Y-12209030D01*
X13987090Y-12397510D01*
X13986911Y-12601594D01*
X12109928Y-12601594D01*
X10754167Y-11245833D01*
X10522853Y-11091274D01*
X10250000Y-11037000D01*
X8295334Y-11037000D01*
X8159257Y-10900923D01*
X8471338Y-10963000D01*
X9528662Y-10963000D01*
X9897186Y-10889696D01*
X10209606Y-10680944D01*
X10418358Y-10368524D01*
X10491662Y-10000000D01*
X10418358Y-9631476D01*
X10209606Y-9319056D01*
X9897186Y-9110304D01*
X9528662Y-9037000D01*
X8471338Y-9037000D01*
X8102814Y-9110304D01*
X7790394Y-9319056D01*
X7581642Y-9631476D01*
X7508338Y-10000000D01*
X7570415Y-10312081D01*
X7463000Y-10204666D01*
X7463000Y-8500000D01*
X10505899Y-8500000D01*
X10560173Y-8772853D01*
X10714732Y-9004167D01*
X10946046Y-9158726D01*
X11218899Y-9213000D01*
X11781101Y-9213000D01*
X11826054Y-9204058D01*
X11940753Y-9318757D01*
X11781101Y-9287000D01*
X11218899Y-9287000D01*
X10946046Y-9341274D01*
X10714732Y-9495833D01*
X10560173Y-9727147D01*
X10505899Y-10000000D01*
X10560173Y-10272853D01*
X10714732Y-10504167D01*
X10946046Y-10658726D01*
X11218899Y-10713000D01*
X11781101Y-10713000D01*
X12053954Y-10658726D01*
X12285268Y-10504167D01*
X12439827Y-10272853D01*
X12474249Y-10099804D01*
X12509030Y-10134646D01*
X12697510Y-10212910D01*
X12901594Y-10213089D01*
X13090211Y-10135154D01*
X13234646Y-9990970D01*
X13312910Y-9802490D01*
X13313089Y-9598406D01*
X13235154Y-9409789D01*
X13090970Y-9265354D01*
X12902490Y-9187090D01*
X12764973Y-9186969D01*
X12404191Y-8826187D01*
X12439827Y-8772853D01*
X12494101Y-8500000D01*
X12439827Y-8227147D01*
X12285268Y-7995833D01*
X12053954Y-7841274D01*
X11781101Y-7787000D01*
X11218899Y-7787000D01*
X10946046Y-7841274D01*
X10714732Y-7995833D01*
X10560173Y-8227147D01*
X10505899Y-8500000D01*
X7463000Y-8500000D01*
X7463000Y-7500000D01*
X7508338Y-7500000D01*
X7581642Y-7868524D01*
X7790394Y-8180944D01*
X8102814Y-8389696D01*
X8471338Y-8463000D01*
X9528662Y-8463000D01*
X9897186Y-8389696D01*
X10209606Y-8180944D01*
X10418358Y-7868524D01*
X10491662Y-7500000D01*
X10418358Y-7131476D01*
X10330509Y-7000000D01*
X10505899Y-7000000D01*
X10560173Y-7272853D01*
X10714732Y-7504167D01*
X10946046Y-7658726D01*
X11218899Y-7713000D01*
X11781101Y-7713000D01*
X12053954Y-7658726D01*
X12285268Y-7504167D01*
X12439827Y-7272853D01*
X12494101Y-7000000D01*
X12439827Y-6727147D01*
X12285268Y-6495833D01*
X12053954Y-6341274D01*
X11781101Y-6287000D01*
X11218899Y-6287000D01*
X10946046Y-6341274D01*
X10714732Y-6495833D01*
X10560173Y-6727147D01*
X10505899Y-7000000D01*
X10330509Y-7000000D01*
X10209606Y-6819056D01*
X9897186Y-6610304D01*
X9528662Y-6537000D01*
X8471338Y-6537000D01*
X8102814Y-6610304D01*
X7790394Y-6819056D01*
X7581642Y-7131476D01*
X7508338Y-7500000D01*
X7463000Y-7500000D01*
X7463000Y-6045334D01*
X7795334Y-5713000D01*
X7838369Y-5713000D01*
X8102814Y-5889696D01*
X8471338Y-5963000D01*
X9528662Y-5963000D01*
X9897186Y-5889696D01*
X10209606Y-5680944D01*
X10330508Y-5500000D01*
X10505899Y-5500000D01*
X10560173Y-5772853D01*
X10714732Y-6004167D01*
X10946046Y-6158726D01*
X11218899Y-6213000D01*
X11781101Y-6213000D01*
X12053954Y-6158726D01*
X12285268Y-6004167D01*
X12439827Y-5772853D01*
X12494101Y-5500000D01*
X12439827Y-5227147D01*
X12285268Y-4995833D01*
X12053954Y-4841274D01*
X11781101Y-4787000D01*
X11218899Y-4787000D01*
X10946046Y-4841274D01*
X10714732Y-4995833D01*
X10560173Y-5227147D01*
X10505899Y-5500000D01*
X10330508Y-5500000D01*
X10418358Y-5368524D01*
X10491662Y-5000000D01*
X10418358Y-4631476D01*
X10209606Y-4319056D01*
X9897186Y-4110304D01*
X9528662Y-4037000D01*
X8471338Y-4037000D01*
X8102814Y-4110304D01*
X7838369Y-4287000D01*
X7500000Y-4287000D01*
X7227146Y-4341274D01*
X6995833Y-4495833D01*
X6245833Y-5245833D01*
X6091274Y-5477147D01*
X6037000Y-5750000D01*
X6037000Y-10500000D01*
X6091274Y-10772853D01*
X6245833Y-11004167D01*
X7495833Y-12254167D01*
X7727147Y-12408726D01*
X8000000Y-12463000D01*
X9954666Y-12463000D01*
X11037000Y-13545334D01*
X11037000Y-13632528D01*
X10900370Y-13632528D01*
X10821437Y-13647380D01*
X10748942Y-13694029D01*
X10700308Y-13765208D01*
X10683198Y-13849700D01*
X10683198Y-14539338D01*
X10569146Y-14271680D01*
X10209046Y-13917976D01*
X9741000Y-13729000D01*
X9241000Y-13729000D01*
X9241000Y-14759000D01*
X9261000Y-14759000D01*
X9261000Y-15241000D01*
X9241000Y-15241000D01*
X9241000Y-16271000D01*
X9720666Y-16271000D01*
X9454666Y-16537000D01*
X8471338Y-16537000D01*
X8102814Y-16610304D01*
X7790394Y-16819056D01*
X7713000Y-16934885D01*
X7713000Y-16005455D01*
X7790954Y-16082024D01*
X8259000Y-16271000D01*
X8759000Y-16271000D01*
X8759000Y-15241000D01*
X8739000Y-15241000D01*
X8739000Y-14759000D01*
X8759000Y-14759000D01*
X8759000Y-13729000D01*
X8259000Y-13729000D01*
X7790954Y-13917976D01*
X7432321Y-14270239D01*
X7352490Y-14237090D01*
X7148406Y-14236911D01*
X6959789Y-14314846D01*
X6862466Y-14412000D01*
X5140004Y-14412000D01*
X3359249Y-12631245D01*
X3362893Y-12622468D01*
X3363106Y-12378602D01*
X3269979Y-12153217D01*
X3097690Y-11980627D01*
X3055239Y-11963000D01*
X3846035Y-11963000D01*
X3902310Y-12019373D01*
X4127532Y-12112893D01*
X4371398Y-12113106D01*
X4439727Y-12084873D01*
X4315354Y-12209030D01*
X4237090Y-12397510D01*
X4236911Y-12601594D01*
X4314846Y-12790211D01*
X4459030Y-12934646D01*
X4647510Y-13012910D01*
X4785027Y-13013031D01*
X5760998Y-13989002D01*
X5806154Y-14019174D01*
X5814846Y-14040211D01*
X5959030Y-14184646D01*
X6147510Y-14262910D01*
X6351594Y-14263089D01*
X6540211Y-14185154D01*
X6684646Y-14040970D01*
X6762910Y-13852490D01*
X6763089Y-13648406D01*
X6685154Y-13459789D01*
X6540970Y-13315354D01*
X6352490Y-13237090D01*
X6148406Y-13236911D01*
X6018564Y-13290560D01*
X5262969Y-12534965D01*
X5263089Y-12398406D01*
X5185154Y-12209789D01*
X5040970Y-12065354D01*
X4852490Y-11987090D01*
X4648406Y-11986911D01*
X4616845Y-11999952D01*
X4769373Y-11847690D01*
X4862893Y-11622468D01*
X4863106Y-11378602D01*
X4769979Y-11153217D01*
X4597690Y-10980627D01*
X4372468Y-10887107D01*
X4128602Y-10886894D01*
X3903217Y-10980021D01*
X3846138Y-11037000D01*
X2250000Y-11037000D01*
X2072818Y-11072244D01*
X1922610Y-11172609D01*
X1422610Y-11672610D01*
X1322244Y-11822817D01*
X1316397Y-11852214D01*
X1287000Y-12000000D01*
X1287000Y-14250000D01*
X1316397Y-14397786D01*
X1322244Y-14427183D01*
X1422610Y-14577390D01*
X2672610Y-15827390D01*
X2822817Y-15927756D01*
X2852214Y-15933603D01*
X3000000Y-15963000D01*
X6558220Y-15963000D01*
X6787000Y-16191781D01*
X6787000Y-18000000D01*
X6816397Y-18147786D01*
X6822244Y-18177183D01*
X6922610Y-18327390D01*
X7672609Y-19077390D01*
X7822817Y-19177756D01*
X7848719Y-19182908D01*
X7960791Y-19205201D01*
X7790394Y-19319056D01*
X7581642Y-19631476D01*
X7508338Y-20000000D01*
X7581642Y-20368524D01*
X7790394Y-20680944D01*
X8102814Y-20889696D01*
X8471338Y-20963000D01*
X9484996Y-20963000D01*
X10760998Y-22239002D01*
X10870653Y-22312271D01*
X11000000Y-22338000D01*
X13502120Y-22338000D01*
X13489682Y-22340474D01*
X13090966Y-22606888D01*
X12824552Y-23005604D01*
X12731000Y-23475922D01*
X12731000Y-23524078D01*
X12824552Y-23994396D01*
X13090966Y-24393112D01*
X13489682Y-24659526D01*
X13879170Y-24737000D01*
X263000Y-24737000D01*
X263000Y-22500000D01*
X7508338Y-22500000D01*
X7581642Y-22868524D01*
X7790394Y-23180944D01*
X8102814Y-23389696D01*
X8471338Y-23463000D01*
X9528662Y-23463000D01*
X9897186Y-23389696D01*
X10209606Y-23180944D01*
X10418358Y-22868524D01*
X10491662Y-22500000D01*
X10418358Y-22131476D01*
X10209606Y-21819056D01*
X9897186Y-21610304D01*
X9528662Y-21537000D01*
X8471338Y-21537000D01*
X8102814Y-21610304D01*
X7790394Y-21819056D01*
X7581642Y-22131476D01*
X7508338Y-22500000D01*
X263000Y-22500000D01*
X263000Y-19089242D01*
X786703Y-19089242D01*
X1046942Y-19719069D01*
X1528396Y-20201364D01*
X2157768Y-20462702D01*
X2839242Y-20463297D01*
X3469069Y-20203058D01*
X3951364Y-19721604D01*
X4212702Y-19092232D01*
X4213297Y-18410758D01*
X3953058Y-17780931D01*
X3471604Y-17298636D01*
X2842232Y-17037298D01*
X2160758Y-17036703D01*
X1530931Y-17296942D01*
X1048636Y-17778396D01*
X787298Y-18407768D01*
X786703Y-19089242D01*
X263000Y-19089242D01*
X263000Y-6589242D01*
X786703Y-6589242D01*
X1046942Y-7219069D01*
X1528396Y-7701364D01*
X2157768Y-7962702D01*
X2839242Y-7963297D01*
X3469069Y-7703058D01*
X3951364Y-7221604D01*
X4212702Y-6592232D01*
X4213297Y-5910758D01*
X3953058Y-5280931D01*
X3471604Y-4798636D01*
X2842232Y-4537298D01*
X2160758Y-4536703D01*
X1530931Y-4796942D01*
X1048636Y-5278396D01*
X787298Y-5907768D01*
X786703Y-6589242D01*
X263000Y-6589242D01*
X263000Y-2933254D01*
X7305123Y-2933254D01*
X7430854Y-3228320D01*
X7790954Y-3582024D01*
X8259000Y-3771000D01*
X8759000Y-3771000D01*
X8759000Y-2741000D01*
X7384998Y-2741000D01*
X7305123Y-2933254D01*
X263000Y-2933254D01*
X263000Y-2066746D01*
X7305123Y-2066746D01*
X7384998Y-2259000D01*
X8759000Y-2259000D01*
X8759000Y-1229000D01*
X9241000Y-1229000D01*
X9241000Y-2259000D01*
X11259000Y-2259000D01*
X11259000Y-1606777D01*
X11741000Y-1606777D01*
X11741000Y-2259000D01*
X12619528Y-2259000D01*
X12704233Y-2106761D01*
X12577664Y-1881429D01*
X12278858Y-1616374D01*
X11901365Y-1485843D01*
X11741000Y-1606777D01*
X11259000Y-1606777D01*
X11098635Y-1485843D01*
X10721142Y-1616374D01*
X10558191Y-1760919D01*
X10209046Y-1417976D01*
X9741000Y-1229000D01*
X9241000Y-1229000D01*
X8759000Y-1229000D01*
X8259000Y-1229000D01*
X7790954Y-1417976D01*
X7430854Y-1771680D01*
X7305123Y-2066746D01*
X263000Y-2066746D01*
X263000Y-1121250D01*
X12679000Y-1121250D01*
X12679000Y-1353634D01*
X12758318Y-1545123D01*
X12904878Y-1691683D01*
X13096367Y-1771000D01*
X13269750Y-1771000D01*
X13400000Y-1640750D01*
X13400000Y-991000D01*
X13800000Y-991000D01*
X13800000Y-1640750D01*
X13930250Y-1771000D01*
X14103633Y-1771000D01*
X14295122Y-1691683D01*
X14441682Y-1545123D01*
X14521000Y-1353634D01*
X14521000Y-1121250D01*
X14390750Y-991000D01*
X13800000Y-991000D01*
X13400000Y-991000D01*
X12809250Y-991000D01*
X12679000Y-1121250D01*
X263000Y-1121250D01*
X263000Y-263000D01*
X12679000Y-263000D01*
X12679000Y-378750D01*
X12679000Y-378750D01*
G37*
X12679000Y-378750D02*
X12809250Y-509000D01*
X13400000Y-509000D01*
X13400000Y-489000D01*
X13800000Y-489000D01*
X13800000Y-509000D01*
X14390750Y-509000D01*
X14521000Y-378750D01*
X14521000Y-263000D01*
X14782828Y-263000D01*
X14782828Y-1250000D01*
X14797136Y-1326040D01*
X14652609Y-1422610D01*
X14044992Y-2030228D01*
X13365000Y-2030228D01*
X13286067Y-2045080D01*
X13213572Y-2091729D01*
X13164938Y-2162908D01*
X13147828Y-2247400D01*
X13147828Y-3212600D01*
X13162680Y-3291533D01*
X13209329Y-3364028D01*
X13211151Y-3365273D01*
X13164938Y-3432908D01*
X13147828Y-3517400D01*
X13147828Y-3537000D01*
X12312775Y-3537000D01*
X12285268Y-3495833D01*
X12172420Y-3420431D01*
X12278858Y-3383626D01*
X12577664Y-3118571D01*
X12704233Y-2893239D01*
X12619528Y-2741000D01*
X11741000Y-2741000D01*
X11741000Y-2761000D01*
X11259000Y-2761000D01*
X11259000Y-2741000D01*
X9241000Y-2741000D01*
X9241000Y-3771000D01*
X9741000Y-3771000D01*
X10209046Y-3582024D01*
X10558191Y-3239081D01*
X10721142Y-3383626D01*
X10827580Y-3420431D01*
X10714732Y-3495833D01*
X10560173Y-3727147D01*
X10505899Y-4000000D01*
X10560173Y-4272853D01*
X10714732Y-4504167D01*
X10946046Y-4658726D01*
X11218899Y-4713000D01*
X11781101Y-4713000D01*
X12053954Y-4658726D01*
X12285268Y-4504167D01*
X12312775Y-4463000D01*
X13147828Y-4463000D01*
X13147828Y-4482600D01*
X13162680Y-4561533D01*
X13209329Y-4634028D01*
X13211151Y-4635273D01*
X13164938Y-4702908D01*
X13147828Y-4787400D01*
X13147828Y-5752600D01*
X13162680Y-5831533D01*
X13209329Y-5904028D01*
X13280508Y-5952662D01*
X13365000Y-5969772D01*
X14635000Y-5969772D01*
X14713933Y-5954920D01*
X14786428Y-5908271D01*
X14835062Y-5837092D01*
X14852172Y-5752600D01*
X14852172Y-5608000D01*
X15030000Y-5608000D01*
X15159347Y-5582271D01*
X15269002Y-5509002D01*
X16260832Y-4517172D01*
X17800000Y-4517172D01*
X17878933Y-4502320D01*
X17951428Y-4455671D01*
X18000062Y-4384492D01*
X18017172Y-4300000D01*
X18017172Y-3638000D01*
X18509996Y-3638000D01*
X18782828Y-3910832D01*
X18782828Y-4550000D01*
X18797680Y-4628933D01*
X18844329Y-4701428D01*
X18915508Y-4750062D01*
X19000000Y-4767172D01*
X19075169Y-4767172D01*
X18959789Y-4814846D01*
X18815354Y-4959030D01*
X18737090Y-5147510D01*
X18736911Y-5351594D01*
X18814846Y-5540211D01*
X18959030Y-5684646D01*
X19080166Y-5734946D01*
X19595219Y-6250000D01*
X19250000Y-6595220D01*
X18734855Y-6080075D01*
X18685154Y-5959789D01*
X18540970Y-5815354D01*
X18352490Y-5737090D01*
X18148406Y-5736911D01*
X17959789Y-5814846D01*
X17815354Y-5959030D01*
X17737090Y-6147510D01*
X17736911Y-6351594D01*
X17814846Y-6540211D01*
X17959030Y-6684646D01*
X18080166Y-6734946D01*
X18765145Y-7419926D01*
X18787000Y-7472819D01*
X18787000Y-12500000D01*
X18811148Y-12621398D01*
X18822244Y-12677183D01*
X18866030Y-12742712D01*
X18852490Y-12737090D01*
X18714973Y-12736969D01*
X18009259Y-12031255D01*
X18049888Y-12005111D01*
X18098522Y-11933932D01*
X18115632Y-11849440D01*
X18115632Y-10650560D01*
X18100780Y-10571627D01*
X18054131Y-10499132D01*
X17982952Y-10450498D01*
X17898460Y-10433388D01*
X16699580Y-10433388D01*
X16620647Y-10448240D01*
X16548152Y-10494889D01*
X16499518Y-10566068D01*
X16482408Y-10650560D01*
X16482408Y-11849440D01*
X16497260Y-11928373D01*
X16543909Y-12000868D01*
X16615088Y-12049502D01*
X16699580Y-12066612D01*
X17088608Y-12066612D01*
X17750996Y-12729000D01*
X17621250Y-12729000D01*
X17491000Y-12859250D01*
X17491000Y-13759000D01*
X17511000Y-13759000D01*
X17511000Y-14241000D01*
X17491000Y-14241000D01*
X17491000Y-15140750D01*
X17600250Y-15250000D01*
X17491000Y-15359250D01*
X17491000Y-16259000D01*
X17511000Y-16259000D01*
X17511000Y-16741000D01*
X17491000Y-16741000D01*
X17491000Y-17640750D01*
X17621250Y-17771000D01*
X17701976Y-17771000D01*
X17588608Y-17884368D01*
X16650560Y-17884368D01*
X16571627Y-17899220D01*
X16499132Y-17945869D01*
X16450498Y-18017048D01*
X16433388Y-18101540D01*
X16433388Y-19300420D01*
X16448240Y-19379353D01*
X16494889Y-19451848D01*
X16566068Y-19500482D01*
X16650560Y-19517592D01*
X17849440Y-19517592D01*
X17928373Y-19502740D01*
X18000868Y-19456091D01*
X18049502Y-19384912D01*
X18066612Y-19300420D01*
X18066612Y-18362372D01*
X18928984Y-17500000D01*
X19508338Y-17500000D01*
X19581642Y-17868524D01*
X19790394Y-18180944D01*
X20102814Y-18389696D01*
X20471338Y-18463000D01*
X21528662Y-18463000D01*
X21897186Y-18389696D01*
X22209606Y-18180944D01*
X22418358Y-17868524D01*
X22491662Y-17500000D01*
X22418358Y-17131476D01*
X22209606Y-16819056D01*
X21897186Y-16610304D01*
X21528662Y-16537000D01*
X20471338Y-16537000D01*
X20102814Y-16610304D01*
X19790394Y-16819056D01*
X19581642Y-17131476D01*
X19508338Y-17500000D01*
X18928984Y-17500000D01*
X19239002Y-17189982D01*
X19312271Y-17080327D01*
X19338000Y-16950980D01*
X19338000Y-16767172D01*
X19500000Y-16767172D01*
X19578933Y-16752320D01*
X19651428Y-16705671D01*
X19700062Y-16634492D01*
X19717172Y-16550000D01*
X19717172Y-15750000D01*
X19702320Y-15671067D01*
X19655671Y-15598572D01*
X19584492Y-15549938D01*
X19500000Y-15532828D01*
X18500000Y-15532828D01*
X18421067Y-15547680D01*
X18388739Y-15568482D01*
X18341682Y-15454877D01*
X18195122Y-15308317D01*
X18054332Y-15250000D01*
X18195122Y-15191683D01*
X18200000Y-15186805D01*
X18204877Y-15191682D01*
X18396366Y-15271000D01*
X18628750Y-15271000D01*
X18759000Y-15140750D01*
X18759000Y-14550000D01*
X18739000Y-14550000D01*
X18739000Y-14150000D01*
X18759000Y-14150000D01*
X18759000Y-14089000D01*
X19241000Y-14089000D01*
X19241000Y-14150000D01*
X19261000Y-14150000D01*
X19261000Y-14550000D01*
X19241000Y-14550000D01*
X19241000Y-15140750D01*
X19371250Y-15271000D01*
X19562243Y-15271000D01*
X19581642Y-15368524D01*
X19790394Y-15680944D01*
X20102814Y-15889696D01*
X20471338Y-15963000D01*
X21528662Y-15963000D01*
X21897186Y-15889696D01*
X22209606Y-15680944D01*
X22418358Y-15368524D01*
X22491662Y-15000000D01*
X22418358Y-14631476D01*
X22209606Y-14319056D01*
X21897186Y-14110304D01*
X21528662Y-14037000D01*
X20471338Y-14037000D01*
X20102814Y-14110304D01*
X20021000Y-14164970D01*
X20021000Y-14108998D01*
X19931752Y-14108998D01*
X20021000Y-14019750D01*
X20021000Y-13893133D01*
X20072818Y-13927756D01*
X20250000Y-13963000D01*
X24346035Y-13963000D01*
X24402310Y-14019373D01*
X24627532Y-14112893D01*
X24871398Y-14113106D01*
X25096783Y-14019979D01*
X25269373Y-13847690D01*
X25362893Y-13622468D01*
X25363106Y-13378602D01*
X25269979Y-13153217D01*
X25097690Y-12980627D01*
X24872468Y-12887107D01*
X24628602Y-12886894D01*
X24403217Y-12980021D01*
X24346138Y-13037000D01*
X23495047Y-13037000D01*
X23571000Y-12853634D01*
X23571000Y-12621250D01*
X23440750Y-12491000D01*
X22850000Y-12491000D01*
X22850000Y-12511000D01*
X22450000Y-12511000D01*
X22450000Y-12491000D01*
X21859250Y-12491000D01*
X21729000Y-12621250D01*
X21729000Y-12853634D01*
X21804953Y-13037000D01*
X20441781Y-13037000D01*
X20331836Y-12927055D01*
X20365508Y-12950062D01*
X20450000Y-12967172D01*
X21250000Y-12967172D01*
X21328933Y-12952320D01*
X21401428Y-12905671D01*
X21450062Y-12834492D01*
X21467172Y-12750000D01*
X21467172Y-11750000D01*
X21452320Y-11671067D01*
X21405671Y-11598572D01*
X21334492Y-11549938D01*
X21250000Y-11532828D01*
X20610832Y-11532828D01*
X20338000Y-11259996D01*
X20338000Y-7890004D01*
X21215035Y-7012969D01*
X21351594Y-7013089D01*
X21540211Y-6935154D01*
X21662000Y-6813577D01*
X21662000Y-6859996D01*
X20760998Y-7760998D01*
X20687729Y-7870653D01*
X20662000Y-8000000D01*
X20662000Y-8700000D01*
X20687729Y-8829347D01*
X20760998Y-8939002D01*
X21433263Y-9611267D01*
X21407000Y-9743297D01*
X21407000Y-10496703D01*
X21484110Y-10884361D01*
X21703701Y-11213002D01*
X21911408Y-11351787D01*
X21808318Y-11454877D01*
X21729000Y-11646366D01*
X21729000Y-11878750D01*
X21859250Y-12009000D01*
X22450000Y-12009000D01*
X22450000Y-11989000D01*
X22850000Y-11989000D01*
X22850000Y-12009000D01*
X23440750Y-12009000D01*
X23571000Y-11878750D01*
X23571000Y-11731140D01*
X23647510Y-11762910D01*
X23851594Y-11763089D01*
X24040211Y-11685154D01*
X24184646Y-11540970D01*
X24186954Y-11535412D01*
X24518785Y-11715139D01*
X24719000Y-11636107D01*
X24719000Y-10361000D01*
X24699000Y-10361000D01*
X24699000Y-9879000D01*
X24719000Y-9879000D01*
X24719000Y-8603893D01*
X25201000Y-8603893D01*
X25201000Y-9879000D01*
X25221000Y-9879000D01*
X25221000Y-10361000D01*
X25201000Y-10361000D01*
X25201000Y-11636107D01*
X25401215Y-11715139D01*
X25830464Y-11482649D01*
X26151728Y-11072454D01*
X26291562Y-10570540D01*
X26202691Y-10428296D01*
X26209030Y-10434646D01*
X26397510Y-10512910D01*
X26490240Y-10512991D01*
X26564110Y-10884361D01*
X26783701Y-11213002D01*
X27112342Y-11432593D01*
X27500000Y-11509703D01*
X27887658Y-11432593D01*
X28216299Y-11213002D01*
X28435890Y-10884361D01*
X28513000Y-10496703D01*
X28513000Y-9743297D01*
X28435890Y-9355639D01*
X28216299Y-9026998D01*
X27887658Y-8807407D01*
X27500000Y-8730297D01*
X27112342Y-8807407D01*
X26783701Y-9026998D01*
X26564110Y-9355639D01*
X26537974Y-9487033D01*
X26398406Y-9486911D01*
X26256984Y-9545346D01*
X26151728Y-9167546D01*
X25830464Y-8757351D01*
X25401215Y-8524861D01*
X25201000Y-8603893D01*
X24719000Y-8603893D01*
X24518785Y-8524861D01*
X24089536Y-8757351D01*
X23933976Y-8955972D01*
X23239002Y-8260998D01*
X23129347Y-8187729D01*
X23000000Y-8162000D01*
X22137448Y-8162000D01*
X22040970Y-8065354D01*
X21852490Y-7987090D01*
X21648406Y-7986911D01*
X21459789Y-8064846D01*
X21338000Y-8186423D01*
X21338000Y-8140004D01*
X22239002Y-7239002D01*
X22299536Y-7148406D01*
X22312271Y-7129347D01*
X22338000Y-7000000D01*
X22338000Y-6137448D01*
X22434646Y-6040970D01*
X22512910Y-5852490D01*
X22513089Y-5648406D01*
X22435154Y-5459789D01*
X22290970Y-5315354D01*
X22102490Y-5237090D01*
X21898406Y-5236911D01*
X21709789Y-5314846D01*
X21565354Y-5459030D01*
X21487090Y-5647510D01*
X21487080Y-5659076D01*
X20929598Y-5101594D01*
X24736911Y-5101594D01*
X24814846Y-5290211D01*
X24959030Y-5434646D01*
X25147510Y-5512910D01*
X25351594Y-5513089D01*
X25540211Y-5435154D01*
X25684646Y-5290970D01*
X25762910Y-5102490D01*
X25763031Y-4964973D01*
X26994291Y-3733713D01*
X27112342Y-3812593D01*
X27500000Y-3889703D01*
X27887658Y-3812593D01*
X28216299Y-3593002D01*
X28435890Y-3264361D01*
X28513000Y-2876703D01*
X28513000Y-2123297D01*
X28435890Y-1735639D01*
X28216299Y-1406998D01*
X27887658Y-1187407D01*
X27500000Y-1110297D01*
X27112342Y-1187407D01*
X26783701Y-1406998D01*
X26564110Y-1735639D01*
X26487000Y-2123297D01*
X26487000Y-2876703D01*
X26554740Y-3217256D01*
X25284965Y-4487031D01*
X25148406Y-4486911D01*
X24959789Y-4564846D01*
X24815354Y-4709030D01*
X24737090Y-4897510D01*
X24736911Y-5101594D01*
X20929598Y-5101594D01*
X20217172Y-4389168D01*
X20217172Y-3750000D01*
X20210671Y-3715452D01*
X20637094Y-4141875D01*
X20636894Y-4371398D01*
X20730021Y-4596783D01*
X20902310Y-4769373D01*
X21127532Y-4862893D01*
X21371398Y-4863106D01*
X21596783Y-4769979D01*
X21769373Y-4597690D01*
X21862893Y-4372468D01*
X21863106Y-4128602D01*
X21769979Y-3903217D01*
X21597690Y-3730627D01*
X21491182Y-3686401D01*
X20217172Y-2412392D01*
X20217172Y-1950000D01*
X20202320Y-1871067D01*
X20155671Y-1798572D01*
X20084492Y-1749938D01*
X20000000Y-1732828D01*
X19000000Y-1732828D01*
X18921067Y-1747680D01*
X18848572Y-1794329D01*
X18799938Y-1865508D01*
X18795586Y-1887000D01*
X18791781Y-1887000D01*
X18327390Y-1422610D01*
X18177183Y-1322244D01*
X18147786Y-1316397D01*
X18000000Y-1287000D01*
X16009679Y-1287000D01*
X16017172Y-1250000D01*
X16017172Y-263000D01*
X18732828Y-263000D01*
X18732828Y-1250000D01*
X18747680Y-1328933D01*
X18794329Y-1401428D01*
X18865508Y-1450062D01*
X18950000Y-1467172D01*
X19750000Y-1467172D01*
X19828933Y-1452320D01*
X19901428Y-1405671D01*
X19950062Y-1334492D01*
X19967172Y-1250000D01*
X19967172Y-1121250D01*
X20229000Y-1121250D01*
X20229000Y-1353634D01*
X20308318Y-1545123D01*
X20454878Y-1691683D01*
X20646367Y-1771000D01*
X20819750Y-1771000D01*
X20950000Y-1640750D01*
X20950000Y-991000D01*
X21350000Y-991000D01*
X21350000Y-1640750D01*
X21477603Y-1768353D01*
X21407000Y-2123297D01*
X21407000Y-2876703D01*
X21484110Y-3264361D01*
X21703701Y-3593002D01*
X22032342Y-3812593D01*
X22420000Y-3889703D01*
X22807658Y-3812593D01*
X23136299Y-3593002D01*
X23355890Y-3264361D01*
X23405905Y-3012917D01*
X23601594Y-3013089D01*
X23641294Y-2996685D01*
X23768272Y-3452454D01*
X24089536Y-3862649D01*
X24518785Y-4095139D01*
X24719000Y-4016107D01*
X24719000Y-2741000D01*
X25201000Y-2741000D01*
X25201000Y-4016107D01*
X25401215Y-4095139D01*
X25830464Y-3862649D01*
X26151728Y-3452454D01*
X26291562Y-2950540D01*
X26160646Y-2741000D01*
X25201000Y-2741000D01*
X24719000Y-2741000D01*
X24699000Y-2741000D01*
X24699000Y-2259000D01*
X24719000Y-2259000D01*
X24719000Y-983893D01*
X25201000Y-983893D01*
X25201000Y-2259000D01*
X26160646Y-2259000D01*
X26291562Y-2049460D01*
X26151728Y-1547546D01*
X25830464Y-1137351D01*
X25401215Y-904861D01*
X25201000Y-983893D01*
X24719000Y-983893D01*
X24518785Y-904861D01*
X24089536Y-1137351D01*
X23768272Y-1547546D01*
X23641322Y-2003215D01*
X23602490Y-1987090D01*
X23405872Y-1986918D01*
X23355890Y-1735639D01*
X23136299Y-1406998D01*
X22807658Y-1187407D01*
X22420000Y-1110297D01*
X22071000Y-1179717D01*
X22071000Y-1121250D01*
X21940750Y-991000D01*
X21350000Y-991000D01*
X20950000Y-991000D01*
X20359250Y-991000D01*
X20229000Y-1121250D01*
X19967172Y-1121250D01*
X19967172Y-263000D01*
X20229000Y-263000D01*
X20229000Y-378750D01*
X20359250Y-509000D01*
X20950000Y-509000D01*
X20950000Y-489000D01*
X21350000Y-489000D01*
X21350000Y-509000D01*
X21940750Y-509000D01*
X22071000Y-378750D01*
X22071000Y-263000D01*
X29737000Y-263000D01*
X29737000Y-24737000D01*
X14040830Y-24737000D01*
X14430318Y-24659526D01*
X14829034Y-24393112D01*
X15095448Y-23994396D01*
X15189000Y-23524078D01*
X15189000Y-23475922D01*
X15095448Y-23005604D01*
X14829034Y-22606888D01*
X14430318Y-22340474D01*
X14417880Y-22338000D01*
X14859996Y-22338000D01*
X15266828Y-22744832D01*
X15266828Y-24516000D01*
X15281680Y-24594933D01*
X15328329Y-24667428D01*
X15399508Y-24716062D01*
X15484000Y-24733172D01*
X17516000Y-24733172D01*
X17594933Y-24718320D01*
X17667428Y-24671671D01*
X17716062Y-24600492D01*
X17733172Y-24516000D01*
X17733172Y-22933254D01*
X19305123Y-22933254D01*
X19430854Y-23228320D01*
X19790954Y-23582024D01*
X20259000Y-23771000D01*
X20759000Y-23771000D01*
X20759000Y-22741000D01*
X21241000Y-22741000D01*
X21241000Y-23771000D01*
X21741000Y-23771000D01*
X22209046Y-23582024D01*
X22569146Y-23228320D01*
X22694877Y-22933254D01*
X22615002Y-22741000D01*
X21241000Y-22741000D01*
X20759000Y-22741000D01*
X19384998Y-22741000D01*
X19305123Y-22933254D01*
X17733172Y-22933254D01*
X17733172Y-22484000D01*
X17718320Y-22405067D01*
X17671671Y-22332572D01*
X17600492Y-22283938D01*
X17516000Y-22266828D01*
X15744832Y-22266828D01*
X15239002Y-21760998D01*
X15129347Y-21687729D01*
X15000000Y-21662000D01*
X14780633Y-21662000D01*
X14786428Y-21658271D01*
X14835062Y-21587092D01*
X14852172Y-21502600D01*
X14852172Y-21483000D01*
X16451848Y-21483000D01*
X16494889Y-21549888D01*
X16566068Y-21598522D01*
X16650560Y-21615632D01*
X17849440Y-21615632D01*
X17928373Y-21600780D01*
X18000868Y-21554131D01*
X18049469Y-21483000D01*
X19078219Y-21483000D01*
X19172609Y-21577390D01*
X19322817Y-21677756D01*
X19352214Y-21683603D01*
X19492179Y-21711444D01*
X19430854Y-21771680D01*
X19305123Y-22066746D01*
X19384998Y-22259000D01*
X20759000Y-22259000D01*
X20759000Y-22239000D01*
X21241000Y-22239000D01*
X21241000Y-22259000D01*
X22604220Y-22259000D01*
X22886964Y-22541744D01*
X22886894Y-22621398D01*
X22980021Y-22846783D01*
X23152310Y-23019373D01*
X23377532Y-23112893D01*
X23621398Y-23113106D01*
X23846783Y-23019979D01*
X24019373Y-22847690D01*
X24112893Y-22622468D01*
X24113106Y-22378602D01*
X24019979Y-22153217D01*
X23847690Y-21980627D01*
X23622468Y-21887107D01*
X23541817Y-21887037D01*
X22577390Y-20922610D01*
X22427183Y-20822244D01*
X22397786Y-20816397D01*
X22250000Y-20787000D01*
X22050882Y-20787000D01*
X22209606Y-20680944D01*
X22418358Y-20368524D01*
X22491662Y-20000000D01*
X22418358Y-19631476D01*
X22209606Y-19319056D01*
X21897186Y-19110304D01*
X21791301Y-19089242D01*
X25786703Y-19089242D01*
X26046942Y-19719069D01*
X26528396Y-20201364D01*
X27157768Y-20462702D01*
X27839242Y-20463297D01*
X28469069Y-20203058D01*
X28951364Y-19721604D01*
X29212702Y-19092232D01*
X29213297Y-18410758D01*
X28953058Y-17780931D01*
X28471604Y-17298636D01*
X27842232Y-17037298D01*
X27160758Y-17036703D01*
X26530931Y-17296942D01*
X26048636Y-17778396D01*
X25787298Y-18407768D01*
X25786703Y-19089242D01*
X21791301Y-19089242D01*
X21528662Y-19037000D01*
X20471338Y-19037000D01*
X20102814Y-19110304D01*
X19790394Y-19319056D01*
X19581642Y-19631476D01*
X19508338Y-20000000D01*
X19581642Y-20368524D01*
X19790394Y-20680944D01*
X19949118Y-20787000D01*
X19691780Y-20787000D01*
X19597390Y-20692610D01*
X19447183Y-20592244D01*
X19417786Y-20586397D01*
X19270000Y-20557000D01*
X18066612Y-20557000D01*
X18066612Y-20199580D01*
X18051760Y-20120647D01*
X18005111Y-20048152D01*
X17933932Y-19999518D01*
X17849440Y-19982408D01*
X16650560Y-19982408D01*
X16571627Y-19997260D01*
X16499132Y-20043909D01*
X16450498Y-20115088D01*
X16433388Y-20199580D01*
X16433388Y-20557000D01*
X14852172Y-20557000D01*
X14852172Y-20537400D01*
X14837320Y-20458467D01*
X14790671Y-20385972D01*
X14788849Y-20384727D01*
X14835062Y-20317092D01*
X14852172Y-20232600D01*
X14852172Y-19267400D01*
X14837320Y-19188467D01*
X14790671Y-19115972D01*
X14788849Y-19114727D01*
X14835062Y-19047092D01*
X14852172Y-18962600D01*
X14852172Y-17997400D01*
X14837320Y-17918467D01*
X14790671Y-17845972D01*
X14719492Y-17797338D01*
X14635000Y-17780228D01*
X14547386Y-17780228D01*
X14612893Y-17622468D01*
X14613029Y-17467172D01*
X15400000Y-17467172D01*
X15478933Y-17452320D01*
X15551428Y-17405671D01*
X15600062Y-17334492D01*
X15617172Y-17250000D01*
X15617172Y-16871250D01*
X16079000Y-16871250D01*
X16079000Y-17353634D01*
X16158318Y-17545123D01*
X16304878Y-17691683D01*
X16496367Y-17771000D01*
X16878750Y-17771000D01*
X17009000Y-17640750D01*
X17009000Y-16741000D01*
X16209250Y-16741000D01*
X16079000Y-16871250D01*
X15617172Y-16871250D01*
X15617172Y-15750000D01*
X15602320Y-15671067D01*
X15555671Y-15598572D01*
X15484492Y-15549938D01*
X15400000Y-15532828D01*
X14100000Y-15532828D01*
X14041755Y-15543787D01*
X14112893Y-15372468D01*
X14112963Y-15291817D01*
X14437609Y-14967172D01*
X15400000Y-14967172D01*
X15478933Y-14952320D01*
X15551428Y-14905671D01*
X15600062Y-14834492D01*
X15617172Y-14750000D01*
X15617172Y-14371250D01*
X16079000Y-14371250D01*
X16079000Y-14853634D01*
X16158318Y-15045123D01*
X16304878Y-15191683D01*
X16445668Y-15250000D01*
X16304878Y-15308317D01*
X16158318Y-15454877D01*
X16079000Y-15646366D01*
X16079000Y-16128750D01*
X16209250Y-16259000D01*
X17009000Y-16259000D01*
X17009000Y-15359250D01*
X16899750Y-15250000D01*
X17009000Y-15140750D01*
X17009000Y-14241000D01*
X16209250Y-14241000D01*
X16079000Y-14371250D01*
X15617172Y-14371250D01*
X15617172Y-13250000D01*
X15602320Y-13171067D01*
X15586426Y-13146366D01*
X16079000Y-13146366D01*
X16079000Y-13628750D01*
X16209250Y-13759000D01*
X17009000Y-13759000D01*
X17009000Y-12859250D01*
X16878750Y-12729000D01*
X16496367Y-12729000D01*
X16304878Y-12808317D01*
X16158318Y-12954877D01*
X16079000Y-13146366D01*
X15586426Y-13146366D01*
X15555671Y-13098572D01*
X15484492Y-13049938D01*
X15400000Y-13032828D01*
X14100000Y-13032828D01*
X14021067Y-13047680D01*
X13948572Y-13094329D01*
X13899938Y-13165508D01*
X13882828Y-13250000D01*
X13882828Y-14212391D01*
X13458256Y-14636964D01*
X13378602Y-14636894D01*
X13153217Y-14730021D01*
X12980627Y-14902310D01*
X12887107Y-15127532D01*
X12887037Y-15208183D01*
X11422610Y-16672610D01*
X11322244Y-16822817D01*
X11322244Y-16822818D01*
X11287000Y-17000000D01*
X11287000Y-17132648D01*
X10900370Y-17132648D01*
X10869965Y-17138369D01*
X12254167Y-15754167D01*
X12408726Y-15522853D01*
X12439657Y-15367352D01*
X12599630Y-15367352D01*
X12678563Y-15352500D01*
X12751058Y-15305851D01*
X12799692Y-15234672D01*
X12816802Y-15150180D01*
X12816802Y-13849700D01*
X12801950Y-13770767D01*
X12755301Y-13698272D01*
X12684122Y-13649638D01*
X12599630Y-13632528D01*
X12463000Y-13632528D01*
X12463000Y-13250000D01*
X12447299Y-13171067D01*
X12408726Y-12977146D01*
X12254167Y-12745833D01*
X12109928Y-12601594D01*
X13986911Y-12601594D01*
X14064846Y-12790211D01*
X14209030Y-12934646D01*
X14397510Y-13012910D01*
X14601594Y-13013089D01*
X14790211Y-12935154D01*
X14934646Y-12790970D01*
X15012910Y-12602490D01*
X15013089Y-12398406D01*
X14935154Y-12209789D01*
X14838000Y-12112466D01*
X14838000Y-12090984D01*
X14862372Y-12066612D01*
X15800420Y-12066612D01*
X15879353Y-12051760D01*
X15951848Y-12005111D01*
X16000482Y-11933932D01*
X16017592Y-11849440D01*
X16017592Y-10650560D01*
X16002740Y-10571627D01*
X15956091Y-10499132D01*
X15884912Y-10450498D01*
X15800420Y-10433388D01*
X15041980Y-10433388D01*
X15184646Y-10290970D01*
X15262910Y-10102490D01*
X15263089Y-9898406D01*
X15185154Y-9709789D01*
X15088000Y-9612466D01*
X15088000Y-9071250D01*
X15679000Y-9071250D01*
X15679000Y-9803633D01*
X15758317Y-9995122D01*
X15904877Y-10141682D01*
X16096366Y-10221000D01*
X16628750Y-10221000D01*
X16759000Y-10090750D01*
X16759000Y-8941000D01*
X17241000Y-8941000D01*
X17241000Y-10090750D01*
X17371250Y-10221000D01*
X17903634Y-10221000D01*
X18095123Y-10141682D01*
X18241683Y-9995122D01*
X18321000Y-9803633D01*
X18321000Y-9071250D01*
X18190750Y-8941000D01*
X17241000Y-8941000D01*
X16759000Y-8941000D01*
X15809250Y-8941000D01*
X15679000Y-9071250D01*
X15088000Y-9071250D01*
X15088000Y-7596367D01*
X15679000Y-7596367D01*
X15679000Y-8328750D01*
X15809250Y-8459000D01*
X16759000Y-8459000D01*
X16759000Y-7309250D01*
X17241000Y-7309250D01*
X17241000Y-8459000D01*
X18190750Y-8459000D01*
X18321000Y-8328750D01*
X18321000Y-7596367D01*
X18241683Y-7404878D01*
X18095123Y-7258318D01*
X17903634Y-7179000D01*
X17371250Y-7179000D01*
X17241000Y-7309250D01*
X16759000Y-7309250D01*
X16628750Y-7179000D01*
X16096366Y-7179000D01*
X15904877Y-7258318D01*
X15758317Y-7404878D01*
X15679000Y-7596367D01*
X15088000Y-7596367D01*
X15088000Y-7390004D01*
X15965035Y-6512969D01*
X16101594Y-6513089D01*
X16290211Y-6435154D01*
X16434646Y-6290970D01*
X16512910Y-6102490D01*
X16513089Y-5898406D01*
X16435154Y-5709789D01*
X16290970Y-5565354D01*
X16102490Y-5487090D01*
X15898406Y-5486911D01*
X15709789Y-5564846D01*
X15565354Y-5709030D01*
X15487090Y-5897510D01*
X15486969Y-6035027D01*
X14510998Y-7010998D01*
X14437729Y-7120653D01*
X14412000Y-7250000D01*
X14412000Y-9612552D01*
X14315354Y-9709030D01*
X14237090Y-9897510D01*
X14236911Y-10101594D01*
X14314846Y-10290211D01*
X14459030Y-10434646D01*
X14510512Y-10456023D01*
X14450112Y-10494889D01*
X14401478Y-10566068D01*
X14384368Y-10650560D01*
X14384368Y-11588608D01*
X14260998Y-11711978D01*
X14187729Y-11821633D01*
X14162000Y-11950980D01*
X14162000Y-12112552D01*
X14065354Y-12209030D01*
X13987090Y-12397510D01*
X13986911Y-12601594D01*
X12109928Y-12601594D01*
X10754167Y-11245833D01*
X10522853Y-11091274D01*
X10250000Y-11037000D01*
X8295334Y-11037000D01*
X8159257Y-10900923D01*
X8471338Y-10963000D01*
X9528662Y-10963000D01*
X9897186Y-10889696D01*
X10209606Y-10680944D01*
X10418358Y-10368524D01*
X10491662Y-10000000D01*
X10418358Y-9631476D01*
X10209606Y-9319056D01*
X9897186Y-9110304D01*
X9528662Y-9037000D01*
X8471338Y-9037000D01*
X8102814Y-9110304D01*
X7790394Y-9319056D01*
X7581642Y-9631476D01*
X7508338Y-10000000D01*
X7570415Y-10312081D01*
X7463000Y-10204666D01*
X7463000Y-8500000D01*
X10505899Y-8500000D01*
X10560173Y-8772853D01*
X10714732Y-9004167D01*
X10946046Y-9158726D01*
X11218899Y-9213000D01*
X11781101Y-9213000D01*
X11826054Y-9204058D01*
X11940753Y-9318757D01*
X11781101Y-9287000D01*
X11218899Y-9287000D01*
X10946046Y-9341274D01*
X10714732Y-9495833D01*
X10560173Y-9727147D01*
X10505899Y-10000000D01*
X10560173Y-10272853D01*
X10714732Y-10504167D01*
X10946046Y-10658726D01*
X11218899Y-10713000D01*
X11781101Y-10713000D01*
X12053954Y-10658726D01*
X12285268Y-10504167D01*
X12439827Y-10272853D01*
X12474249Y-10099804D01*
X12509030Y-10134646D01*
X12697510Y-10212910D01*
X12901594Y-10213089D01*
X13090211Y-10135154D01*
X13234646Y-9990970D01*
X13312910Y-9802490D01*
X13313089Y-9598406D01*
X13235154Y-9409789D01*
X13090970Y-9265354D01*
X12902490Y-9187090D01*
X12764973Y-9186969D01*
X12404191Y-8826187D01*
X12439827Y-8772853D01*
X12494101Y-8500000D01*
X12439827Y-8227147D01*
X12285268Y-7995833D01*
X12053954Y-7841274D01*
X11781101Y-7787000D01*
X11218899Y-7787000D01*
X10946046Y-7841274D01*
X10714732Y-7995833D01*
X10560173Y-8227147D01*
X10505899Y-8500000D01*
X7463000Y-8500000D01*
X7463000Y-7500000D01*
X7508338Y-7500000D01*
X7581642Y-7868524D01*
X7790394Y-8180944D01*
X8102814Y-8389696D01*
X8471338Y-8463000D01*
X9528662Y-8463000D01*
X9897186Y-8389696D01*
X10209606Y-8180944D01*
X10418358Y-7868524D01*
X10491662Y-7500000D01*
X10418358Y-7131476D01*
X10330509Y-7000000D01*
X10505899Y-7000000D01*
X10560173Y-7272853D01*
X10714732Y-7504167D01*
X10946046Y-7658726D01*
X11218899Y-7713000D01*
X11781101Y-7713000D01*
X12053954Y-7658726D01*
X12285268Y-7504167D01*
X12439827Y-7272853D01*
X12494101Y-7000000D01*
X12439827Y-6727147D01*
X12285268Y-6495833D01*
X12053954Y-6341274D01*
X11781101Y-6287000D01*
X11218899Y-6287000D01*
X10946046Y-6341274D01*
X10714732Y-6495833D01*
X10560173Y-6727147D01*
X10505899Y-7000000D01*
X10330509Y-7000000D01*
X10209606Y-6819056D01*
X9897186Y-6610304D01*
X9528662Y-6537000D01*
X8471338Y-6537000D01*
X8102814Y-6610304D01*
X7790394Y-6819056D01*
X7581642Y-7131476D01*
X7508338Y-7500000D01*
X7463000Y-7500000D01*
X7463000Y-6045334D01*
X7795334Y-5713000D01*
X7838369Y-5713000D01*
X8102814Y-5889696D01*
X8471338Y-5963000D01*
X9528662Y-5963000D01*
X9897186Y-5889696D01*
X10209606Y-5680944D01*
X10330508Y-5500000D01*
X10505899Y-5500000D01*
X10560173Y-5772853D01*
X10714732Y-6004167D01*
X10946046Y-6158726D01*
X11218899Y-6213000D01*
X11781101Y-6213000D01*
X12053954Y-6158726D01*
X12285268Y-6004167D01*
X12439827Y-5772853D01*
X12494101Y-5500000D01*
X12439827Y-5227147D01*
X12285268Y-4995833D01*
X12053954Y-4841274D01*
X11781101Y-4787000D01*
X11218899Y-4787000D01*
X10946046Y-4841274D01*
X10714732Y-4995833D01*
X10560173Y-5227147D01*
X10505899Y-5500000D01*
X10330508Y-5500000D01*
X10418358Y-5368524D01*
X10491662Y-5000000D01*
X10418358Y-4631476D01*
X10209606Y-4319056D01*
X9897186Y-4110304D01*
X9528662Y-4037000D01*
X8471338Y-4037000D01*
X8102814Y-4110304D01*
X7838369Y-4287000D01*
X7500000Y-4287000D01*
X7227146Y-4341274D01*
X6995833Y-4495833D01*
X6245833Y-5245833D01*
X6091274Y-5477147D01*
X6037000Y-5750000D01*
X6037000Y-10500000D01*
X6091274Y-10772853D01*
X6245833Y-11004167D01*
X7495833Y-12254167D01*
X7727147Y-12408726D01*
X8000000Y-12463000D01*
X9954666Y-12463000D01*
X11037000Y-13545334D01*
X11037000Y-13632528D01*
X10900370Y-13632528D01*
X10821437Y-13647380D01*
X10748942Y-13694029D01*
X10700308Y-13765208D01*
X10683198Y-13849700D01*
X10683198Y-14539338D01*
X10569146Y-14271680D01*
X10209046Y-13917976D01*
X9741000Y-13729000D01*
X9241000Y-13729000D01*
X9241000Y-14759000D01*
X9261000Y-14759000D01*
X9261000Y-15241000D01*
X9241000Y-15241000D01*
X9241000Y-16271000D01*
X9720666Y-16271000D01*
X9454666Y-16537000D01*
X8471338Y-16537000D01*
X8102814Y-16610304D01*
X7790394Y-16819056D01*
X7713000Y-16934885D01*
X7713000Y-16005455D01*
X7790954Y-16082024D01*
X8259000Y-16271000D01*
X8759000Y-16271000D01*
X8759000Y-15241000D01*
X8739000Y-15241000D01*
X8739000Y-14759000D01*
X8759000Y-14759000D01*
X8759000Y-13729000D01*
X8259000Y-13729000D01*
X7790954Y-13917976D01*
X7432321Y-14270239D01*
X7352490Y-14237090D01*
X7148406Y-14236911D01*
X6959789Y-14314846D01*
X6862466Y-14412000D01*
X5140004Y-14412000D01*
X3359249Y-12631245D01*
X3362893Y-12622468D01*
X3363106Y-12378602D01*
X3269979Y-12153217D01*
X3097690Y-11980627D01*
X3055239Y-11963000D01*
X3846035Y-11963000D01*
X3902310Y-12019373D01*
X4127532Y-12112893D01*
X4371398Y-12113106D01*
X4439727Y-12084873D01*
X4315354Y-12209030D01*
X4237090Y-12397510D01*
X4236911Y-12601594D01*
X4314846Y-12790211D01*
X4459030Y-12934646D01*
X4647510Y-13012910D01*
X4785027Y-13013031D01*
X5760998Y-13989002D01*
X5806154Y-14019174D01*
X5814846Y-14040211D01*
X5959030Y-14184646D01*
X6147510Y-14262910D01*
X6351594Y-14263089D01*
X6540211Y-14185154D01*
X6684646Y-14040970D01*
X6762910Y-13852490D01*
X6763089Y-13648406D01*
X6685154Y-13459789D01*
X6540970Y-13315354D01*
X6352490Y-13237090D01*
X6148406Y-13236911D01*
X6018564Y-13290560D01*
X5262969Y-12534965D01*
X5263089Y-12398406D01*
X5185154Y-12209789D01*
X5040970Y-12065354D01*
X4852490Y-11987090D01*
X4648406Y-11986911D01*
X4616845Y-11999952D01*
X4769373Y-11847690D01*
X4862893Y-11622468D01*
X4863106Y-11378602D01*
X4769979Y-11153217D01*
X4597690Y-10980627D01*
X4372468Y-10887107D01*
X4128602Y-10886894D01*
X3903217Y-10980021D01*
X3846138Y-11037000D01*
X2250000Y-11037000D01*
X2072818Y-11072244D01*
X1922610Y-11172609D01*
X1422610Y-11672610D01*
X1322244Y-11822817D01*
X1316397Y-11852214D01*
X1287000Y-12000000D01*
X1287000Y-14250000D01*
X1316397Y-14397786D01*
X1322244Y-14427183D01*
X1422610Y-14577390D01*
X2672610Y-15827390D01*
X2822817Y-15927756D01*
X2852214Y-15933603D01*
X3000000Y-15963000D01*
X6558220Y-15963000D01*
X6787000Y-16191781D01*
X6787000Y-18000000D01*
X6816397Y-18147786D01*
X6822244Y-18177183D01*
X6922610Y-18327390D01*
X7672609Y-19077390D01*
X7822817Y-19177756D01*
X7848719Y-19182908D01*
X7960791Y-19205201D01*
X7790394Y-19319056D01*
X7581642Y-19631476D01*
X7508338Y-20000000D01*
X7581642Y-20368524D01*
X7790394Y-20680944D01*
X8102814Y-20889696D01*
X8471338Y-20963000D01*
X9484996Y-20963000D01*
X10760998Y-22239002D01*
X10870653Y-22312271D01*
X11000000Y-22338000D01*
X13502120Y-22338000D01*
X13489682Y-22340474D01*
X13090966Y-22606888D01*
X12824552Y-23005604D01*
X12731000Y-23475922D01*
X12731000Y-23524078D01*
X12824552Y-23994396D01*
X13090966Y-24393112D01*
X13489682Y-24659526D01*
X13879170Y-24737000D01*
X263000Y-24737000D01*
X263000Y-22500000D01*
X7508338Y-22500000D01*
X7581642Y-22868524D01*
X7790394Y-23180944D01*
X8102814Y-23389696D01*
X8471338Y-23463000D01*
X9528662Y-23463000D01*
X9897186Y-23389696D01*
X10209606Y-23180944D01*
X10418358Y-22868524D01*
X10491662Y-22500000D01*
X10418358Y-22131476D01*
X10209606Y-21819056D01*
X9897186Y-21610304D01*
X9528662Y-21537000D01*
X8471338Y-21537000D01*
X8102814Y-21610304D01*
X7790394Y-21819056D01*
X7581642Y-22131476D01*
X7508338Y-22500000D01*
X263000Y-22500000D01*
X263000Y-19089242D01*
X786703Y-19089242D01*
X1046942Y-19719069D01*
X1528396Y-20201364D01*
X2157768Y-20462702D01*
X2839242Y-20463297D01*
X3469069Y-20203058D01*
X3951364Y-19721604D01*
X4212702Y-19092232D01*
X4213297Y-18410758D01*
X3953058Y-17780931D01*
X3471604Y-17298636D01*
X2842232Y-17037298D01*
X2160758Y-17036703D01*
X1530931Y-17296942D01*
X1048636Y-17778396D01*
X787298Y-18407768D01*
X786703Y-19089242D01*
X263000Y-19089242D01*
X263000Y-6589242D01*
X786703Y-6589242D01*
X1046942Y-7219069D01*
X1528396Y-7701364D01*
X2157768Y-7962702D01*
X2839242Y-7963297D01*
X3469069Y-7703058D01*
X3951364Y-7221604D01*
X4212702Y-6592232D01*
X4213297Y-5910758D01*
X3953058Y-5280931D01*
X3471604Y-4798636D01*
X2842232Y-4537298D01*
X2160758Y-4536703D01*
X1530931Y-4796942D01*
X1048636Y-5278396D01*
X787298Y-5907768D01*
X786703Y-6589242D01*
X263000Y-6589242D01*
X263000Y-2933254D01*
X7305123Y-2933254D01*
X7430854Y-3228320D01*
X7790954Y-3582024D01*
X8259000Y-3771000D01*
X8759000Y-3771000D01*
X8759000Y-2741000D01*
X7384998Y-2741000D01*
X7305123Y-2933254D01*
X263000Y-2933254D01*
X263000Y-2066746D01*
X7305123Y-2066746D01*
X7384998Y-2259000D01*
X8759000Y-2259000D01*
X8759000Y-1229000D01*
X9241000Y-1229000D01*
X9241000Y-2259000D01*
X11259000Y-2259000D01*
X11259000Y-1606777D01*
X11741000Y-1606777D01*
X11741000Y-2259000D01*
X12619528Y-2259000D01*
X12704233Y-2106761D01*
X12577664Y-1881429D01*
X12278858Y-1616374D01*
X11901365Y-1485843D01*
X11741000Y-1606777D01*
X11259000Y-1606777D01*
X11098635Y-1485843D01*
X10721142Y-1616374D01*
X10558191Y-1760919D01*
X10209046Y-1417976D01*
X9741000Y-1229000D01*
X9241000Y-1229000D01*
X8759000Y-1229000D01*
X8259000Y-1229000D01*
X7790954Y-1417976D01*
X7430854Y-1771680D01*
X7305123Y-2066746D01*
X263000Y-2066746D01*
X263000Y-1121250D01*
X12679000Y-1121250D01*
X12679000Y-1353634D01*
X12758318Y-1545123D01*
X12904878Y-1691683D01*
X13096367Y-1771000D01*
X13269750Y-1771000D01*
X13400000Y-1640750D01*
X13400000Y-991000D01*
X13800000Y-991000D01*
X13800000Y-1640750D01*
X13930250Y-1771000D01*
X14103633Y-1771000D01*
X14295122Y-1691683D01*
X14441682Y-1545123D01*
X14521000Y-1353634D01*
X14521000Y-1121250D01*
X14390750Y-991000D01*
X13800000Y-991000D01*
X13400000Y-991000D01*
X12809250Y-991000D01*
X12679000Y-1121250D01*
X263000Y-1121250D01*
X263000Y-263000D01*
X12679000Y-263000D01*
X12679000Y-378750D01*
M02*
