  0
SECTION
  2
HEADER
  9
$ANGBASE
  50
0.0
  9
$ANGDIR
  70
  1
  9
$MEASUREMENT
  70
0
  0
ENDSEC
  0
SECTION
  2
TABLES
  0
TABLE
  2
LTYPE
  70
1
  0
LTYPE
  2
CONTINUOUS
  70
0
  3
Solid line
  72
65
  73
0
  40
0.0
  0
ENDTAB
  0
TABLE
  2
STYLE
  70
4
  0
STYLE
  2
KICAD
  70
0
  40
0
  41
1
  42
1
  50
0
  71
0
  3
isocp.shx
  0
STYLE
  2
KICADB
  70
0
  40
0
  41
1
  42
1
  50
0
  71
0
  3
isocp.shx
  0
STYLE
  2
KICADI
  70
0
  40
0
  41
1
  42
1
  50
15
  71
0
  3
isocp.shx
  0
STYLE
  2
KICADBI
  70
0
  40
0
  41
1
  42
1
  50
15
  71
0
  3
isocp.shx
  0
ENDTAB
  0
TABLE
  2
LAYER
  70
30
  0
LAYER
  2
BLACK
  70
0
  62
7
  6
CONTINUOUS
  0
LAYER
  2
GRAY1
  70
0
  62
251
  6
CONTINUOUS
  0
LAYER
  2
GRAY2
  70
0
  62
8
  6
CONTINUOUS
  0
LAYER
  2
GRAY3
  70
0
  62
9
  6
CONTINUOUS
  0
LAYER
  2
WHITE
  70
0
  62
7
  6
CONTINUOUS
  0
LAYER
  2
LYELLOW
  70
0
  62
51
  6
CONTINUOUS
  0
LAYER
  2
BLUE1
  70
0
  62
178
  6
CONTINUOUS
  0
LAYER
  2
GREEN1
  70
0
  62
98
  6
CONTINUOUS
  0
LAYER
  2
CYAN1
  70
0
  62
138
  6
CONTINUOUS
  0
LAYER
  2
RED1
  70
0
  62
18
  6
CONTINUOUS
  0
LAYER
  2
MAGENTA1
  70
0
  62
228
  6
CONTINUOUS
  0
LAYER
  2
BROWN1
  70
0
  62
58
  6
CONTINUOUS
  0
LAYER
  2
BLUE2
  70
0
  62
5
  6
CONTINUOUS
  0
LAYER
  2
GREEN2
  70
0
  62
3
  6
CONTINUOUS
  0
LAYER
  2
CYAN2
  70
0
  62
4
  6
CONTINUOUS
  0
LAYER
  2
RED2
  70
0
  62
1
  6
CONTINUOUS
  0
LAYER
  2
MAGENTA2
  70
0
  62
6
  6
CONTINUOUS
  0
LAYER
  2
BROWN2
  70
0
  62
54
  6
CONTINUOUS
  0
LAYER
  2
BLUE3
  70
0
  62
171
  6
CONTINUOUS
  0
LAYER
  2
GREEN3
  70
0
  62
91
  6
CONTINUOUS
  0
LAYER
  2
CYAN3
  70
0
  62
131
  6
CONTINUOUS
  0
LAYER
  2
RED3
  70
0
  62
11
  6
CONTINUOUS
  0
LAYER
  2
MAGENTA3
  70
0
  62
221
  6
CONTINUOUS
  0
LAYER
  2
YELLOW3
  70
0
  62
2
  6
CONTINUOUS
  0
LAYER
  2
BLUE4
  70
0
  62
5
  6
CONTINUOUS
  0
LAYER
  2
GREEN4
  70
0
  62
3
  6
CONTINUOUS
  0
LAYER
  2
CYAN4
  70
0
  62
4
  6
CONTINUOUS
  0
LAYER
  2
RED4
  70
0
  62
1
  6
CONTINUOUS
  0
LAYER
  2
MAGENTA4
  70
0
  62
6
  6
CONTINUOUS
  0
LAYER
  2
YELLOW4
  70
0
  62
2
  6
CONTINUOUS
  0
ENDTAB
  0
ENDSEC
  0
SECTION
  2
ENTITIES
0
LINE
8
Black
10
73.0065
20
5.07386
11
73.013
21
5.07386
0
LINE
8
Black
10
73.013
20
5.07386
11
74.0391
21
4.89294
0
LINE
8
Black
10
74.0391
20
4.89294
11
74.0636
21
4.88403
0
LINE
8
Black
10
74.0636
20
4.88403
11
74.0636
21
4.88403
0
LINE
8
Black
10
74.0636
20
4.88403
11
74.9659
21
4.36308
0
LINE
8
Black
10
74.9659
20
4.36308
11
74.9858
21
4.34634
0
LINE
8
Black
10
74.9858
20
4.34634
11
74.9858
21
4.34634
0
LINE
8
Black
10
74.9858
20
4.34634
11
75.6555
21
3.54821
0
LINE
8
Black
10
75.6555
20
3.54821
11
75.6686
21
3.52565
0
LINE
8
Black
10
75.6686
20
3.52565
11
75.6686
21
3.52565
0
LINE
8
Black
10
75.6686
20
3.52565
11
76.0249
21
2.5466
0
LINE
8
Black
10
76.0249
20
2.5466
11
76.0266
21
2.53695
0
LINE
8
Black
10
76.0266
20
2.53695
11
76.0291
21
2.52748
0
LINE
8
Black
10
76.0291
20
2.52748
11
76.0747
21
2.00654
0
LINE
8
Black
10
76.0747
20
2.00654
11
76.0744
21
2.00325
0
LINE
8
Black
10
76.0744
20
2.00325
11
76.075
21
2
0
LINE
8
Black
10
76.075
20
2
11
76.075
21
0
0
LINE
8
Black
10
76.075
20
0
11
76.0744
21
-0.003248
0
LINE
8
Black
10
76.0744
20
-0.003248
11
76.0747
21
-0.006536
0
LINE
8
Black
10
76.0747
20
-0.006536
11
76.0722
21
-0.016005
0
LINE
8
Black
10
76.0722
20
-0.016005
11
76.0705
21
-0.025652
0
LINE
8
Black
10
76.0705
20
-0.025652
11
76.0688
21
-0.028508
0
LINE
8
Black
10
76.0688
20
-0.028508
11
76.068
21
-0.031696
0
LINE
8
Black
10
76.068
20
-0.031696
11
76.0623
21
-0.039727
0
LINE
8
Black
10
76.0623
20
-0.039727
11
76.0575
21
-0.048209
0
LINE
8
Black
10
76.0575
20
-0.048209
11
76.0549
21
-0.050329
0
LINE
8
Black
10
76.0549
20
-0.050329
11
76.053
21
-0.053033
0
LINE
8
Black
10
76.053
20
-0.053033
11
73.075
21
-3.03107
0
LINE
8
Black
10
73.075
20
-3.03107
11
73.075
21
-40.9689
0
LINE
8
Black
10
73.075
20
-40.9689
11
76.053
21
-43.947
0
LINE
8
Black
10
76.053
20
-43.947
11
76.0549
21
-43.9497
0
LINE
8
Black
10
76.0549
20
-43.9497
11
76.0575
21
-43.9518
0
LINE
8
Black
10
76.0575
20
-43.9518
11
76.0623
21
-43.9603
0
LINE
8
Black
10
76.0623
20
-43.9603
11
76.068
21
-43.9683
0
LINE
8
Black
10
76.068
20
-43.9683
11
76.0688
21
-43.9715
0
LINE
8
Black
10
76.0688
20
-43.9715
11
76.0705
21
-43.9743
0
LINE
8
Black
10
76.0705
20
-43.9743
11
76.0722
21
-43.984
0
LINE
8
Black
10
76.0722
20
-43.984
11
76.0747
21
-43.9935
0
LINE
8
Black
10
76.0747
20
-43.9935
11
76.0744
21
-43.9968
0
LINE
8
Black
10
76.0744
20
-43.9968
11
76.075
21
-44
0
LINE
8
Black
10
76.075
20
-44
11
76.075
21
-46
0
LINE
8
Black
10
76.075
20
-46
11
76.0739
21
-46.0065
0
LINE
8
Black
10
76.0739
20
-46.0065
11
76.0739
21
-46.013
0
LINE
8
Black
10
76.0739
20
-46.013
11
75.8929
21
-47.0391
0
LINE
8
Black
10
75.8929
20
-47.0391
11
75.884
21
-47.0636
0
LINE
8
Black
10
75.884
20
-47.0636
11
75.3631
21
-47.9659
0
LINE
8
Black
10
75.3631
20
-47.9659
11
75.3463
21
-47.9858
0
LINE
8
Black
10
75.3463
20
-47.9858
11
75.3463
21
-47.9858
0
LINE
8
Black
10
75.3463
20
-47.9858
11
74.5482
21
-48.6555
0
LINE
8
Black
10
74.5482
20
-48.6555
11
74.5482
21
-48.6555
0
LINE
8
Black
10
74.5482
20
-48.6555
11
74.5257
21
-48.6686
0
LINE
8
Black
10
74.5257
20
-48.6686
11
73.5466
21
-49.0249
0
LINE
8
Black
10
73.5466
20
-49.0249
11
73.5369
21
-49.0266
0
LINE
8
Black
10
73.5369
20
-49.0266
11
73.5275
21
-49.0291
0
LINE
8
Black
10
73.5275
20
-49.0291
11
73.0065
21
-49.0747
0
LINE
8
Black
10
73.0065
20
-49.0747
11
73.0032
21
-49.0744
0
LINE
8
Black
10
73.0032
20
-49.0744
11
73
21
-49.075
0
LINE
8
Black
10
73
20
-49.075
11
9
21
-49.075
0
LINE
8
Black
10
9
20
-49.075
11
8.99354
21
-49.0739
0
LINE
8
Black
10
8.99354
20
-49.0739
11
8.98698
21
-49.0739
0
LINE
8
Black
10
8.98698
20
-49.0739
11
7.96092
21
-48.8929
0
LINE
8
Black
10
7.96092
20
-48.8929
11
7.93644
21
-48.884
0
LINE
8
Black
10
7.93644
20
-48.884
11
7.03414
21
-48.3631
0
LINE
8
Black
10
7.03414
20
-48.3631
11
7.03414
21
-48.3631
0
LINE
8
Black
10
7.03414
20
-48.3631
11
7.03093
21
-48.3604
0
LINE
8
Black
10
7.03093
20
-48.3604
11
7.01418
21
-48.3463
0
LINE
8
Black
10
7.01418
20
-48.3463
11
7.01418
21
-48.3463
0
LINE
8
Black
10
7.01418
20
-48.3463
11
6.34447
21
-47.5482
0
LINE
8
Black
10
6.34447
20
-47.5482
11
6.34447
21
-47.5482
0
LINE
8
Black
10
6.34447
20
-47.5482
11
6.33145
21
-47.5257
0
LINE
8
Black
10
6.33145
20
-47.5257
11
5.9751
21
-46.5466
0
LINE
8
Black
10
5.9751
20
-46.5466
11
5.9734
21
-46.5369
0
LINE
8
Black
10
5.9734
20
-46.5369
11
5.97086
21
-46.5275
0
LINE
8
Black
10
5.97086
20
-46.5275
11
5.92528
21
-46.0065
0
LINE
8
Black
10
5.92528
20
-46.0065
11
5.92557
21
-46.0032
0
LINE
8
Black
10
5.92557
20
-46.0032
11
5.925
21
-46
0
LINE
8
Black
10
5.925
20
-46
11
5.925
21
-44
0
LINE
8
Black
10
5.925
20
-44
11
5.92557
21
-43.9967
0
LINE
8
Black
10
5.92557
20
-43.9967
11
5.92529
21
-43.9935
0
LINE
8
Black
10
5.92529
20
-43.9935
11
5.92782
21
-43.984
0
LINE
8
Black
10
5.92782
20
-43.984
11
5.92952
21
-43.9743
0
LINE
8
Black
10
5.92952
20
-43.9743
11
5.93117
21
-43.9715
0
LINE
8
Black
10
5.93117
20
-43.9715
11
5.93203
21
-43.9683
0
LINE
8
Black
10
5.93203
20
-43.9683
11
5.93765
21
-43.9603
0
LINE
8
Black
10
5.93765
20
-43.9603
11
5.94255
21
-43.9518
0
LINE
8
Black
10
5.94255
20
-43.9518
11
5.94507
21
-43.9497
0
LINE
8
Black
10
5.94507
20
-43.9497
11
5.94697
21
-43.947
0
LINE
8
Black
10
5.94697
20
-43.947
11
8.925
21
-40.9689
0
LINE
8
Black
10
8.925
20
-40.9689
11
8.925
21
-3.03107
0
LINE
8
Black
10
8.925
20
-3.03107
11
5.94697
21
-0.053033
0
LINE
8
Black
10
5.94697
20
-0.053033
11
5.94507
21
-0.050329
0
LINE
8
Black
10
5.94507
20
-0.050329
11
5.94255
21
-0.048209
0
LINE
8
Black
10
5.94255
20
-0.048209
11
5.93765
21
-0.039722
0
LINE
8
Black
10
5.93765
20
-0.039722
11
5.93203
21
-0.031696
0
LINE
8
Black
10
5.93203
20
-0.031696
11
5.93117
21
-0.028511
0
LINE
8
Black
10
5.93117
20
-0.028511
11
5.92952
21
-0.025652
0
LINE
8
Black
10
5.92952
20
-0.025652
11
5.92782
21
-0.015995
0
LINE
8
Black
10
5.92782
20
-0.015995
11
5.92529
21
-0.006536
0
LINE
8
Black
10
5.92529
20
-0.006536
11
5.92557
21
-0.003251
0
LINE
8
Black
10
5.92557
20
-0.003251
11
5.925
21
0
0
LINE
8
Black
10
5.925
20
0
11
5.925
21
2
0
LINE
8
Black
10
5.925
20
2
11
5.92614
21
2.00646
0
LINE
8
Black
10
5.92614
20
2.00646
11
5.92614
21
2.01302
0
LINE
8
Black
10
5.92614
20
2.01302
11
6.10706
21
3.03908
0
LINE
8
Black
10
6.10706
20
3.03908
11
6.11597
21
3.06356
0
LINE
8
Black
10
6.11597
20
3.06356
11
6.11597
21
3.06356
0
LINE
8
Black
10
6.11597
20
3.06356
11
6.63692
21
3.96586
0
LINE
8
Black
10
6.63692
20
3.96586
11
6.65366
21
3.98582
0
LINE
8
Black
10
6.65366
20
3.98582
11
6.65366
21
3.98582
0
LINE
8
Black
10
6.65366
20
3.98582
11
7.45179
21
4.65553
0
LINE
8
Black
10
7.45179
20
4.65553
11
7.47435
21
4.66855
0
LINE
8
Black
10
7.47435
20
4.66855
11
7.47435
21
4.66855
0
LINE
8
Black
10
7.47435
20
4.66855
11
8.4534
21
5.0249
0
LINE
8
Black
10
8.4534
20
5.0249
11
8.46305
21
5.0266
0
LINE
8
Black
10
8.46305
20
5.0266
11
8.47252
21
5.02914
0
LINE
8
Black
10
8.47252
20
5.02914
11
8.99346
21
5.07471
0
LINE
8
Black
10
8.99346
20
5.07471
11
8.99675
21
5.07443
0
LINE
8
Black
10
8.99675
20
5.07443
11
9
21
5.075
0
LINE
8
Black
10
9
20
5.075
11
73
21
5.075
0
LINE
8
Black
10
73
20
5.075
11
73.0065
21
5.07386
0
LINE
8
Black
10
9.00328
20
4.925
11
8.49543
21
4.88057
0
LINE
8
Black
10
8.49543
20
4.88057
11
7.53808
21
4.53212
0
LINE
8
Black
10
7.53808
20
4.53212
11
6.76021
21
3.87941
0
LINE
8
Black
10
6.76021
20
3.87941
11
6.25249
21
3.00001
0
LINE
8
Black
10
6.25249
20
3.00001
11
6.075
21
1.99344
0
LINE
8
Black
10
6.075
20
1.99344
11
6.075
21
0.031066
0
LINE
8
Black
10
6.075
20
0.031066
11
9.05303
21
-2.94697
0
LINE
8
Black
10
9.05303
20
-2.94697
11
9.05493
21
-2.94967
0
LINE
8
Black
10
9.05493
20
-2.94967
11
9.05745
21
-2.95179
0
LINE
8
Black
10
9.05745
20
-2.95179
11
9.06235
21
-2.96027
0
LINE
8
Black
10
9.06235
20
-2.96027
11
9.06797
21
-2.9683
0
LINE
8
Black
10
9.06797
20
-2.9683
11
9.06883
21
-2.97149
0
LINE
8
Black
10
9.06883
20
-2.97149
11
9.07048
21
-2.97435
0
LINE
8
Black
10
9.07048
20
-2.97435
11
9.07218
21
-2.98399
0
LINE
8
Black
10
9.07218
20
-2.98399
11
9.07471
21
-2.99346
0
LINE
8
Black
10
9.07471
20
-2.99346
11
9.07443
21
-2.99675
0
LINE
8
Black
10
9.07443
20
-2.99675
11
9.075
21
-3
0
LINE
8
Black
10
9.075
20
-3
11
9.075
21
-41
0
LINE
8
Black
10
9.075
20
-41
11
9.07443
21
-41.0032
0
LINE
8
Black
10
9.07443
20
-41.0032
11
9.07471
21
-41.0065
0
LINE
8
Black
10
9.07471
20
-41.0065
11
9.07218
21
-41.016
0
LINE
8
Black
10
9.07218
20
-41.016
11
9.07048
21
-41.0257
0
LINE
8
Black
10
9.07048
20
-41.0257
11
9.06883
21
-41.0285
0
LINE
8
Black
10
9.06883
20
-41.0285
11
9.06797
21
-41.0317
0
LINE
8
Black
10
9.06797
20
-41.0317
11
9.06235
21
-41.0397
0
LINE
8
Black
10
9.06235
20
-41.0397
11
9.05745
21
-41.0482
0
LINE
8
Black
10
9.05745
20
-41.0482
11
9.05493
21
-41.0503
0
LINE
8
Black
10
9.05493
20
-41.0503
11
9.05303
21
-41.053
0
LINE
8
Black
10
9.05303
20
-41.053
11
6.075
21
-44.0311
0
LINE
8
Black
10
6.075
20
-44.0311
11
6.075
21
-45.9967
0
LINE
8
Black
10
6.075
20
-45.9967
11
6.11943
21
-46.5046
0
LINE
8
Black
10
6.11943
20
-46.5046
11
6.46788
21
-47.4619
0
LINE
8
Black
10
6.46788
20
-47.4619
11
7.12059
21
-48.2398
0
LINE
8
Black
10
7.12059
20
-48.2398
11
7.99999
21
-48.7475
0
LINE
8
Black
10
7.99999
20
-48.7475
11
9.00656
21
-48.925
0
LINE
8
Black
10
9.00656
20
-48.925
11
72.9967
21
-48.925
0
LINE
8
Black
10
72.9967
20
-48.925
11
73.5046
21
-48.8806
0
LINE
8
Black
10
73.5046
20
-48.8806
11
74.4619
21
-48.5321
0
LINE
8
Black
10
74.4619
20
-48.5321
11
75.2398
21
-47.8794
0
LINE
8
Black
10
75.2398
20
-47.8794
11
75.7475
21
-47
0
LINE
8
Black
10
75.7475
20
-47
11
75.925
21
-45.9934
0
LINE
8
Black
10
75.925
20
-45.9934
11
75.925
21
-44.0311
0
LINE
8
Black
10
75.925
20
-44.0311
11
72.947
21
-41.053
0
LINE
8
Black
10
72.947
20
-41.053
11
72.9451
21
-41.0503
0
LINE
8
Black
10
72.9451
20
-41.0503
11
72.9425
21
-41.0482
0
LINE
8
Black
10
72.9425
20
-41.0482
11
72.9376
21
-41.0397
0
LINE
8
Black
10
72.9376
20
-41.0397
11
72.932
21
-41.0317
0
LINE
8
Black
10
72.932
20
-41.0317
11
72.9312
21
-41.0285
0
LINE
8
Black
10
72.9312
20
-41.0285
11
72.9295
21
-41.0257
0
LINE
8
Black
10
72.9295
20
-41.0257
11
72.9278
21
-41.016
0
LINE
8
Black
10
72.9278
20
-41.016
11
72.9253
21
-41.0065
0
LINE
8
Black
10
72.9253
20
-41.0065
11
72.9256
21
-41.0033
0
LINE
8
Black
10
72.9256
20
-41.0033
11
72.925
21
-41
0
LINE
8
Black
10
72.925
20
-41
11
72.925
21
-3
0
LINE
8
Black
10
72.925
20
-3
11
72.9256
21
-2.99675
0
LINE
8
Black
10
72.9256
20
-2.99675
11
72.9253
21
-2.99346
0
LINE
8
Black
10
72.9253
20
-2.99346
11
72.9278
21
-2.984
0
LINE
8
Black
10
72.9278
20
-2.984
11
72.9295
21
-2.97435
0
LINE
8
Black
10
72.9295
20
-2.97435
11
72.9312
21
-2.97149
0
LINE
8
Black
10
72.9312
20
-2.97149
11
72.932
21
-2.9683
0
LINE
8
Black
10
72.932
20
-2.9683
11
72.9376
21
-2.96028
0
LINE
8
Black
10
72.9376
20
-2.96028
11
72.9425
21
-2.95179
0
LINE
8
Black
10
72.9425
20
-2.95179
11
72.9451
21
-2.94967
0
LINE
8
Black
10
72.9451
20
-2.94967
11
72.947
21
-2.94697
0
LINE
8
Black
10
72.947
20
-2.94697
11
75.925
21
0.031066
0
LINE
8
Black
10
75.925
20
0.031066
11
75.925
21
1.99672
0
LINE
8
Black
10
75.925
20
1.99672
11
75.8806
21
2.50457
0
LINE
8
Black
10
75.8806
20
2.50457
11
75.5321
21
3.46192
0
LINE
8
Black
10
75.5321
20
3.46192
11
74.8794
21
4.23979
0
LINE
8
Black
10
74.8794
20
4.23979
11
74
21
4.74751
0
LINE
8
Black
10
74
20
4.74751
11
72.9934
21
4.925
0
LINE
8
Black
10
72.9934
20
4.925
11
9.00328
21
4.925
0
LINE
8
Black
10
52.0765
20
2.61386
11
52.083
21
2.61386
0
LINE
8
Black
10
52.083
20
2.61386
11
52.0892
21
2.61162
0
LINE
8
Black
10
52.0892
20
2.61162
11
52.0957
21
2.61048
0
LINE
8
Black
10
52.0957
20
2.61048
11
52.1013
21
2.6072
0
LINE
8
Black
10
52.1013
20
2.6072
11
52.1075
21
2.60495
0
LINE
8
Black
10
52.1075
20
2.60495
11
52.1125
21
2.60073
0
LINE
8
Black
10
52.1125
20
2.60073
11
52.1182
21
2.59745
0
LINE
8
Black
10
52.1182
20
2.59745
11
52.1224
21
2.59243
0
LINE
8
Black
10
52.1224
20
2.59243
11
52.1275
21
2.58821
0
LINE
8
Black
10
52.1275
20
2.58821
11
52.1307
21
2.58253
0
LINE
8
Black
10
52.1307
20
2.58253
11
52.135
21
2.5775
0
LINE
8
Black
10
52.135
20
2.5775
11
52.1372
21
2.57133
0
LINE
8
Black
10
52.1372
20
2.57133
11
52.1405
21
2.56565
0
LINE
8
Black
10
52.1405
20
2.56565
11
52.1416
21
2.55919
0
LINE
8
Black
10
52.1416
20
2.55919
11
52.1439
21
2.55302
0
LINE
8
Black
10
52.1439
20
2.55302
11
52.1439
21
2.54646
0
LINE
8
Black
10
52.1439
20
2.54646
11
52.145
21
2.54
0
LINE
8
Black
10
52.145
20
2.54
11
52.145
21
-13.97
0
LINE
8
Black
10
52.145
20
-13.97
11
52.1444
21
-13.9733
0
LINE
8
Black
10
52.1444
20
-13.9733
11
52.1447
21
-13.9765
0
LINE
8
Black
10
52.1447
20
-13.9765
11
52.1422
21
-13.986
0
LINE
8
Black
10
52.1422
20
-13.986
11
52.1405
21
-13.9957
0
LINE
8
Black
10
52.1405
20
-13.9957
11
52.1388
21
-13.9985
0
LINE
8
Black
10
52.1388
20
-13.9985
11
52.138
21
-14.0017
0
LINE
8
Black
10
52.138
20
-14.0017
11
52.1324
21
-14.0097
0
LINE
8
Black
10
52.1324
20
-14.0097
11
52.1275
21
-14.0182
0
LINE
8
Black
10
52.1275
20
-14.0182
11
52.1249
21
-14.0203
0
LINE
8
Black
10
52.1249
20
-14.0203
11
52.123
21
-14.023
0
LINE
8
Black
10
52.123
20
-14.023
11
49.605
21
-16.5411
0
LINE
8
Black
10
49.605
20
-16.5411
11
49.605
21
-38.1
0
LINE
8
Black
10
49.605
20
-38.1
11
49.6044
21
-38.1032
0
LINE
8
Black
10
49.6044
20
-38.1032
11
49.6047
21
-38.1065
0
LINE
8
Black
10
49.6047
20
-38.1065
11
49.6022
21
-38.116
0
LINE
8
Black
10
49.6022
20
-38.116
11
49.6005
21
-38.1257
0
LINE
8
Black
10
49.6005
20
-38.1257
11
49.5988
21
-38.1285
0
LINE
8
Black
10
49.5988
20
-38.1285
11
49.598
21
-38.1317
0
LINE
8
Black
10
49.598
20
-38.1317
11
49.5923
21
-38.1397
0
LINE
8
Black
10
49.5923
20
-38.1397
11
49.5875
21
-38.1482
0
LINE
8
Black
10
49.5875
20
-38.1482
11
49.5849
21
-38.1503
0
LINE
8
Black
10
49.5849
20
-38.1503
11
49.583
21
-38.153
0
LINE
8
Black
10
49.583
20
-38.153
11
45.773
21
-41.963
0
LINE
8
Black
10
45.773
20
-41.963
11
45.7703
21
-41.9649
0
LINE
8
Black
10
45.7703
20
-41.9649
11
45.7682
21
-41.9675
0
LINE
8
Black
10
45.7682
20
-41.9675
11
45.7597
21
-41.9724
0
LINE
8
Black
10
45.7597
20
-41.9724
11
45.7517
21
-41.978
0
LINE
8
Black
10
45.7517
20
-41.978
11
45.7485
21
-41.9788
0
LINE
8
Black
10
45.7485
20
-41.9788
11
45.7457
21
-41.9805
0
LINE
8
Black
10
45.7457
20
-41.9805
11
45.736
21
-41.9822
0
LINE
8
Black
10
45.736
20
-41.9822
11
45.7265
21
-41.9847
0
LINE
8
Black
10
45.7265
20
-41.9847
11
45.7233
21
-41.9844
0
LINE
8
Black
10
45.7233
20
-41.9844
11
45.72
21
-41.985
0
LINE
8
Black
10
45.72
20
-41.985
11
38.1
21
-41.985
0
LINE
8
Black
10
38.1
20
-41.985
11
38.0968
21
-41.9844
0
LINE
8
Black
10
38.0968
20
-41.9844
11
38.0935
21
-41.9847
0
LINE
8
Black
10
38.0935
20
-41.9847
11
38.084
21
-41.9822
0
LINE
8
Black
10
38.084
20
-41.9822
11
38.0743
21
-41.9805
0
LINE
8
Black
10
38.0743
20
-41.9805
11
38.0715
21
-41.9788
0
LINE
8
Black
10
38.0715
20
-41.9788
11
38.0683
21
-41.978
0
LINE
8
Black
10
38.0683
20
-41.978
11
38.0603
21
-41.9723
0
LINE
8
Black
10
38.0603
20
-41.9723
11
38.0518
21
-41.9675
0
LINE
8
Black
10
38.0518
20
-41.9675
11
38.0497
21
-41.9649
0
LINE
8
Black
10
38.0497
20
-41.9649
11
38.047
21
-41.963
0
LINE
8
Black
10
38.047
20
-41.963
11
34.237
21
-38.153
0
LINE
8
Black
10
34.237
20
-38.153
11
34.2351
21
-38.1503
0
LINE
8
Black
10
34.2351
20
-38.1503
11
34.2325
21
-38.1482
0
LINE
8
Black
10
34.2325
20
-38.1482
11
34.2276
21
-38.1397
0
LINE
8
Black
10
34.2276
20
-38.1397
11
34.222
21
-38.1317
0
LINE
8
Black
10
34.222
20
-38.1317
11
34.2212
21
-38.1285
0
LINE
8
Black
10
34.2212
20
-38.1285
11
34.2195
21
-38.1257
0
LINE
8
Black
10
34.2195
20
-38.1257
11
34.2178
21
-38.116
0
LINE
8
Black
10
34.2178
20
-38.116
11
34.2153
21
-38.1065
0
LINE
8
Black
10
34.2153
20
-38.1065
11
34.2156
21
-38.1033
0
LINE
8
Black
10
34.2156
20
-38.1033
11
34.215
21
-38.1
0
LINE
8
Black
10
34.215
20
-38.1
11
34.215
21
-30.5111
0
LINE
8
Black
10
34.215
20
-30.5111
11
31.697
21
-27.993
0
LINE
8
Black
10
31.697
20
-27.993
11
31.6951
21
-27.9903
0
LINE
8
Black
10
31.6951
20
-27.9903
11
31.6925
21
-27.9882
0
LINE
8
Black
10
31.6925
20
-27.9882
11
31.6876
21
-27.9797
0
LINE
8
Black
10
31.6876
20
-27.9797
11
31.682
21
-27.9717
0
LINE
8
Black
10
31.682
20
-27.9717
11
31.6812
21
-27.9685
0
LINE
8
Black
10
31.6812
20
-27.9685
11
31.6795
21
-27.9657
0
LINE
8
Black
10
31.6795
20
-27.9657
11
31.6778
21
-27.956
0
LINE
8
Black
10
31.6778
20
-27.956
11
31.6753
21
-27.9465
0
LINE
8
Black
10
31.6753
20
-27.9465
11
31.6756
21
-27.9433
0
LINE
8
Black
10
31.6756
20
-27.9433
11
31.675
21
-27.94
0
LINE
8
Black
10
31.675
20
-27.94
11
31.675
21
-20.3511
0
LINE
8
Black
10
31.675
20
-20.3511
11
29.157
21
-17.833
0
LINE
8
Black
10
29.157
20
-17.833
11
29.1551
21
-17.8303
0
LINE
8
Black
10
29.1551
20
-17.8303
11
29.1525
21
-17.8282
0
LINE
8
Black
10
29.1525
20
-17.8282
11
29.1476
21
-17.8197
0
LINE
8
Black
10
29.1476
20
-17.8197
11
29.142
21
-17.8117
0
LINE
8
Black
10
29.142
20
-17.8117
11
29.1412
21
-17.8085
0
LINE
8
Black
10
29.1412
20
-17.8085
11
29.1395
21
-17.8057
0
LINE
8
Black
10
29.1395
20
-17.8057
11
29.1378
21
-17.796
0
LINE
8
Black
10
29.1378
20
-17.796
11
29.1353
21
-17.7865
0
LINE
8
Black
10
29.1353
20
-17.7865
11
29.1356
21
-17.7833
0
LINE
8
Black
10
29.1356
20
-17.7833
11
29.135
21
-17.78
0
LINE
8
Black
10
29.135
20
-17.78
11
29.135
21
2.54
0
LINE
8
Black
10
29.135
20
2.54
11
29.1361
21
2.54646
0
LINE
8
Black
10
29.1361
20
2.54646
11
29.1361
21
2.55302
0
LINE
8
Black
10
29.1361
20
2.55302
11
29.1384
21
2.55919
0
LINE
8
Black
10
29.1384
20
2.55919
11
29.1395
21
2.56565
0
LINE
8
Black
10
29.1395
20
2.56565
11
29.1428
21
2.57133
0
LINE
8
Black
10
29.1428
20
2.57133
11
29.145
21
2.5775
0
LINE
8
Black
10
29.145
20
2.5775
11
29.1493
21
2.58253
0
LINE
8
Black
10
29.1493
20
2.58253
11
29.1525
21
2.58821
0
LINE
8
Black
10
29.1525
20
2.58821
11
29.1576
21
2.59243
0
LINE
8
Black
10
29.1576
20
2.59243
11
29.1618
21
2.59745
0
LINE
8
Black
10
29.1618
20
2.59745
11
29.1675
21
2.60073
0
LINE
8
Black
10
29.1675
20
2.60073
11
29.1725
21
2.60495
0
LINE
8
Black
10
29.1725
20
2.60495
11
29.1787
21
2.6072
0
LINE
8
Black
10
29.1787
20
2.6072
11
29.1843
21
2.61048
0
LINE
8
Black
10
29.1843
20
2.61048
11
29.1908
21
2.61162
0
LINE
8
Black
10
29.1908
20
2.61162
11
29.197
21
2.61386
0
LINE
8
Black
10
29.197
20
2.61386
11
29.2035
21
2.61386
0
LINE
8
Black
10
29.2035
20
2.61386
11
29.21
21
2.615
0
LINE
8
Black
10
29.21
20
2.615
11
52.07
21
2.615
0
LINE
8
Black
10
52.07
20
2.615
11
52.0765
21
2.61386
0
LINE
8
Black
10
29.285
20
2.465
11
29.285
21
-17.7489
0
LINE
8
Black
10
29.285
20
-17.7489
11
31.803
21
-20.267
0
LINE
8
Black
10
31.803
20
-20.267
11
31.8049
21
-20.2697
0
LINE
8
Black
10
31.8049
20
-20.2697
11
31.8075
21
-20.2718
0
LINE
8
Black
10
31.8075
20
-20.2718
11
31.8124
21
-20.2803
0
LINE
8
Black
10
31.8124
20
-20.2803
11
31.818
21
-20.2883
0
LINE
8
Black
10
31.818
20
-20.2883
11
31.8188
21
-20.2915
0
LINE
8
Black
10
31.8188
20
-20.2915
11
31.8205
21
-20.2943
0
LINE
8
Black
10
31.8205
20
-20.2943
11
31.8222
21
-20.304
0
LINE
8
Black
10
31.8222
20
-20.304
11
31.8247
21
-20.3135
0
LINE
8
Black
10
31.8247
20
-20.3135
11
31.8244
21
-20.3167
0
LINE
8
Black
10
31.8244
20
-20.3167
11
31.825
21
-20.32
0
LINE
8
Black
10
31.825
20
-20.32
11
31.825
21
-27.9089
0
LINE
8
Black
10
31.825
20
-27.9089
11
34.343
21
-30.427
0
LINE
8
Black
10
34.343
20
-30.427
11
34.3449
21
-30.4297
0
LINE
8
Black
10
34.3449
20
-30.4297
11
34.3475
21
-30.4318
0
LINE
8
Black
10
34.3475
20
-30.4318
11
34.3524
21
-30.4403
0
LINE
8
Black
10
34.3524
20
-30.4403
11
34.358
21
-30.4483
0
LINE
8
Black
10
34.358
20
-30.4483
11
34.3588
21
-30.4515
0
LINE
8
Black
10
34.3588
20
-30.4515
11
34.3605
21
-30.4543
0
LINE
8
Black
10
34.3605
20
-30.4543
11
34.3622
21
-30.464
0
LINE
8
Black
10
34.3622
20
-30.464
11
34.3647
21
-30.4735
0
LINE
8
Black
10
34.3647
20
-30.4735
11
34.3644
21
-30.4767
0
LINE
8
Black
10
34.3644
20
-30.4767
11
34.365
21
-30.48
0
LINE
8
Black
10
34.365
20
-30.48
11
34.365
21
-38.0689
0
LINE
8
Black
10
34.365
20
-38.0689
11
38.1311
21
-41.835
0
LINE
8
Black
10
38.1311
20
-41.835
11
45.6889
21
-41.835
0
LINE
8
Black
10
45.6889
20
-41.835
11
49.455
21
-38.0689
0
LINE
8
Black
10
49.455
20
-38.0689
11
49.455
21
-16.51
0
LINE
8
Black
10
49.455
20
-16.51
11
49.4556
21
-16.5067
0
LINE
8
Black
10
49.4556
20
-16.5067
11
49.4553
21
-16.5035
0
LINE
8
Black
10
49.4553
20
-16.5035
11
49.4578
21
-16.494
0
LINE
8
Black
10
49.4578
20
-16.494
11
49.4595
21
-16.4843
0
LINE
8
Black
10
49.4595
20
-16.4843
11
49.4612
21
-16.4815
0
LINE
8
Black
10
49.4612
20
-16.4815
11
49.462
21
-16.4783
0
LINE
8
Black
10
49.462
20
-16.4783
11
49.4676
21
-16.4703
0
LINE
8
Black
10
49.4676
20
-16.4703
11
49.4725
21
-16.4618
0
LINE
8
Black
10
49.4725
20
-16.4618
11
49.4751
21
-16.4597
0
LINE
8
Black
10
49.4751
20
-16.4597
11
49.477
21
-16.457
0
LINE
8
Black
10
49.477
20
-16.457
11
51.995
21
-13.9389
0
LINE
8
Black
10
51.995
20
-13.9389
11
51.995
21
2.465
0
LINE
8
Black
10
51.995
20
2.465
11
29.285
21
2.465
  0
ENDSEC
  0
EOF
