M48
;DRILL file {KiCad 4.0.2-stable} date 2016/08/04 19:18:26
;FORMAT={-:-/ absolute / metric / decimal}
FMAT,2
METRIC,TZ
T1C0.800
T2C1.001
T3C1.200
%
G90
G05
M71
T1
X140.97Y-98.425
X146.05Y-98.425
X147.955Y-98.425
X153.035Y-98.425
X156.845Y-98.425
X161.925Y-98.425
X163.83Y-98.425
X168.91Y-98.425
T2
X142.24Y-101.6
X142.24Y-104.14
X149.86Y-101.6
X149.86Y-104.14
X160.02Y-101.6
X160.02Y-104.14
X167.64Y-101.6
X167.64Y-104.14
T3
X144.82Y-94.615
X147.32Y-94.615
X149.86Y-94.615
X160.06Y-94.615
X162.56Y-94.615
X165.1Y-94.615
T0
M30
