G04 #@! TF.FileFunction,Copper,L2,Bot,Signal*
%FSLAX46Y46*%
G04 Gerber Fmt 4.6, Leading zero omitted, Abs format (unit mm)*
G04 Created by KiCad (PCBNEW 4.0.2-stable) date 2016/08/09 5:59:02*
%MOMM*%
G01*
G04 APERTURE LIST*
%ADD10C,0.100000*%
%ADD11C,1.676400*%
%ADD12R,2.000000X2.000000*%
%ADD13C,2.000000*%
%ADD14R,1.200000X4.000000*%
%ADD15R,1.400000X4.000000*%
%ADD16R,1.000000X1.100000*%
%ADD17C,0.500000*%
%ADD18C,0.200000*%
G04 APERTURE END LIST*
D10*
D11*
X149225000Y-98425000D03*
X144145000Y-98425000D03*
D12*
X167640000Y-104140000D03*
D13*
X167640000Y-101600000D03*
D12*
X160020000Y-101600000D03*
D13*
X160020000Y-104140000D03*
D11*
X160655000Y-98425000D03*
X165735000Y-98425000D03*
D12*
X142240000Y-101600000D03*
D13*
X142240000Y-104140000D03*
D12*
X149860000Y-104140000D03*
D13*
X149860000Y-101600000D03*
D14*
X160695000Y-93980000D03*
D15*
X163195000Y-93980000D03*
D14*
X165695000Y-93980000D03*
X149185000Y-93980000D03*
D15*
X146685000Y-93980000D03*
D14*
X144185000Y-93980000D03*
D16*
X158115000Y-101180000D03*
X158115000Y-99480000D03*
X151765000Y-101180000D03*
X151765000Y-99480000D03*
D17*
X163195000Y-93980000D02*
X163195000Y-98425000D01*
X163195000Y-98425000D02*
X160020000Y-101600000D01*
X146685000Y-93980000D02*
X146685000Y-99695000D01*
X146685000Y-99695000D02*
X144780000Y-101600000D01*
X160020000Y-101600000D02*
X162560000Y-101600000D01*
X165100000Y-104140000D02*
X167640000Y-104140000D01*
X162560000Y-101600000D02*
X165100000Y-104140000D01*
X142240000Y-101600000D02*
X144780000Y-101600000D01*
X147320000Y-104140000D02*
X149860000Y-104140000D01*
X144780000Y-101600000D02*
X147320000Y-104140000D01*
X167640000Y-101600000D02*
X167640000Y-100330000D01*
X167640000Y-100330000D02*
X165735000Y-98425000D01*
X165695000Y-93980000D02*
X165695000Y-98385000D01*
X165695000Y-98385000D02*
X165735000Y-98425000D01*
X142240000Y-104140000D02*
X141605000Y-104140000D01*
X141605000Y-104140000D02*
X140335000Y-102870000D01*
X140335000Y-102870000D02*
X140335000Y-99695000D01*
X140335000Y-99695000D02*
X141605000Y-98425000D01*
X141605000Y-98425000D02*
X144145000Y-98425000D01*
X144185000Y-93980000D02*
X144185000Y-98385000D01*
X144185000Y-98385000D02*
X144145000Y-98425000D01*
X160020000Y-104140000D02*
X159385000Y-104140000D01*
X159385000Y-104140000D02*
X158115000Y-102870000D01*
X158115000Y-102870000D02*
X158115000Y-101180000D01*
X158115000Y-99480000D02*
X159170000Y-98425000D01*
X159170000Y-98425000D02*
X160655000Y-98425000D01*
X160695000Y-93980000D02*
X160695000Y-98385000D01*
X160695000Y-98385000D02*
X160655000Y-98425000D01*
X149225000Y-98425000D02*
X150710000Y-98425000D01*
X150710000Y-98425000D02*
X151765000Y-99480000D01*
X149185000Y-93980000D02*
X149185000Y-98385000D01*
X149185000Y-98385000D02*
X149225000Y-98425000D01*
X149860000Y-101600000D02*
X151345000Y-101600000D01*
X151345000Y-101600000D02*
X151765000Y-101180000D01*
D18*
G36*
X159585205Y-95980000D02*
X159620069Y-96165289D01*
X159729575Y-96335465D01*
X159896661Y-96449630D01*
X159945000Y-96459419D01*
X159945000Y-97270432D01*
X159897961Y-97289868D01*
X159521191Y-97665981D01*
X159517446Y-97675000D01*
X159170000Y-97675000D01*
X158882987Y-97732090D01*
X158639670Y-97894670D01*
X158114135Y-98420205D01*
X157615000Y-98420205D01*
X157429711Y-98455069D01*
X157259535Y-98564575D01*
X157145370Y-98731661D01*
X157105205Y-98930000D01*
X157105205Y-100030000D01*
X157140069Y-100215289D01*
X157214344Y-100330715D01*
X157145370Y-100431661D01*
X157105205Y-100630000D01*
X157105205Y-101730000D01*
X157140069Y-101915289D01*
X157249575Y-102085465D01*
X157365000Y-102164332D01*
X157365000Y-102870000D01*
X157422090Y-103157013D01*
X157584670Y-103400330D01*
X158519829Y-104335489D01*
X158519740Y-104437059D01*
X158747620Y-104988572D01*
X159169209Y-105410897D01*
X159720323Y-105639739D01*
X160317059Y-105640260D01*
X160868572Y-105412380D01*
X161290897Y-104990791D01*
X161519739Y-104439677D01*
X161520260Y-103842941D01*
X161292380Y-103291428D01*
X161096664Y-103095370D01*
X161205289Y-103074931D01*
X161375465Y-102965425D01*
X161489630Y-102798339D01*
X161529795Y-102600000D01*
X161529795Y-102350000D01*
X162249340Y-102350000D01*
X164569670Y-104670330D01*
X164812987Y-104832910D01*
X165100000Y-104890000D01*
X166130205Y-104890000D01*
X166130205Y-105140000D01*
X166165069Y-105325289D01*
X166274575Y-105495465D01*
X166441661Y-105609630D01*
X166640000Y-105649795D01*
X168640000Y-105649795D01*
X168825289Y-105614931D01*
X168995465Y-105505425D01*
X169109630Y-105338339D01*
X169149795Y-105140000D01*
X169149795Y-103140000D01*
X169114931Y-102954711D01*
X169005425Y-102784535D01*
X168838339Y-102670370D01*
X168715794Y-102645554D01*
X168910897Y-102450791D01*
X169139739Y-101899677D01*
X169140260Y-101302941D01*
X168912380Y-100751428D01*
X168490791Y-100329103D01*
X168380731Y-100283402D01*
X168332910Y-100042987D01*
X168170330Y-99799670D01*
X167070046Y-98699386D01*
X167072967Y-98692352D01*
X167073432Y-98159983D01*
X166870132Y-97667961D01*
X166494019Y-97291191D01*
X166445000Y-97270837D01*
X166445000Y-96461571D01*
X166480289Y-96454931D01*
X166650465Y-96345425D01*
X166764630Y-96178339D01*
X166804795Y-95980000D01*
X166804795Y-92015000D01*
X169605000Y-92015000D01*
X169605000Y-106105000D01*
X155515000Y-106105000D01*
X155515000Y-92015000D01*
X159585205Y-92015000D01*
X159585205Y-95980000D01*
X159585205Y-95980000D01*
G37*
X159585205Y-95980000D02*
X159620069Y-96165289D01*
X159729575Y-96335465D01*
X159896661Y-96449630D01*
X159945000Y-96459419D01*
X159945000Y-97270432D01*
X159897961Y-97289868D01*
X159521191Y-97665981D01*
X159517446Y-97675000D01*
X159170000Y-97675000D01*
X158882987Y-97732090D01*
X158639670Y-97894670D01*
X158114135Y-98420205D01*
X157615000Y-98420205D01*
X157429711Y-98455069D01*
X157259535Y-98564575D01*
X157145370Y-98731661D01*
X157105205Y-98930000D01*
X157105205Y-100030000D01*
X157140069Y-100215289D01*
X157214344Y-100330715D01*
X157145370Y-100431661D01*
X157105205Y-100630000D01*
X157105205Y-101730000D01*
X157140069Y-101915289D01*
X157249575Y-102085465D01*
X157365000Y-102164332D01*
X157365000Y-102870000D01*
X157422090Y-103157013D01*
X157584670Y-103400330D01*
X158519829Y-104335489D01*
X158519740Y-104437059D01*
X158747620Y-104988572D01*
X159169209Y-105410897D01*
X159720323Y-105639739D01*
X160317059Y-105640260D01*
X160868572Y-105412380D01*
X161290897Y-104990791D01*
X161519739Y-104439677D01*
X161520260Y-103842941D01*
X161292380Y-103291428D01*
X161096664Y-103095370D01*
X161205289Y-103074931D01*
X161375465Y-102965425D01*
X161489630Y-102798339D01*
X161529795Y-102600000D01*
X161529795Y-102350000D01*
X162249340Y-102350000D01*
X164569670Y-104670330D01*
X164812987Y-104832910D01*
X165100000Y-104890000D01*
X166130205Y-104890000D01*
X166130205Y-105140000D01*
X166165069Y-105325289D01*
X166274575Y-105495465D01*
X166441661Y-105609630D01*
X166640000Y-105649795D01*
X168640000Y-105649795D01*
X168825289Y-105614931D01*
X168995465Y-105505425D01*
X169109630Y-105338339D01*
X169149795Y-105140000D01*
X169149795Y-103140000D01*
X169114931Y-102954711D01*
X169005425Y-102784535D01*
X168838339Y-102670370D01*
X168715794Y-102645554D01*
X168910897Y-102450791D01*
X169139739Y-101899677D01*
X169140260Y-101302941D01*
X168912380Y-100751428D01*
X168490791Y-100329103D01*
X168380731Y-100283402D01*
X168332910Y-100042987D01*
X168170330Y-99799670D01*
X167070046Y-98699386D01*
X167072967Y-98692352D01*
X167073432Y-98159983D01*
X166870132Y-97667961D01*
X166494019Y-97291191D01*
X166445000Y-97270837D01*
X166445000Y-96461571D01*
X166480289Y-96454931D01*
X166650465Y-96345425D01*
X166764630Y-96178339D01*
X166804795Y-95980000D01*
X166804795Y-92015000D01*
X169605000Y-92015000D01*
X169605000Y-106105000D01*
X155515000Y-106105000D01*
X155515000Y-92015000D01*
X159585205Y-92015000D01*
X159585205Y-95980000D01*
G36*
X154365000Y-106105000D02*
X140275000Y-106105000D01*
X140275000Y-103870660D01*
X140739829Y-104335489D01*
X140739740Y-104437059D01*
X140967620Y-104988572D01*
X141389209Y-105410897D01*
X141940323Y-105639739D01*
X142537059Y-105640260D01*
X143088572Y-105412380D01*
X143510897Y-104990791D01*
X143739739Y-104439677D01*
X143740260Y-103842941D01*
X143512380Y-103291428D01*
X143316664Y-103095370D01*
X143425289Y-103074931D01*
X143595465Y-102965425D01*
X143709630Y-102798339D01*
X143749795Y-102600000D01*
X143749795Y-102350000D01*
X144469340Y-102350000D01*
X146789670Y-104670330D01*
X147032987Y-104832910D01*
X147320000Y-104890000D01*
X148350205Y-104890000D01*
X148350205Y-105140000D01*
X148385069Y-105325289D01*
X148494575Y-105495465D01*
X148661661Y-105609630D01*
X148860000Y-105649795D01*
X150860000Y-105649795D01*
X151045289Y-105614931D01*
X151215465Y-105505425D01*
X151329630Y-105338339D01*
X151369795Y-105140000D01*
X151369795Y-103140000D01*
X151334931Y-102954711D01*
X151225425Y-102784535D01*
X151058339Y-102670370D01*
X150935794Y-102645554D01*
X151130897Y-102450791D01*
X151172749Y-102350000D01*
X151345000Y-102350000D01*
X151632013Y-102292910D01*
X151711505Y-102239795D01*
X152265000Y-102239795D01*
X152450289Y-102204931D01*
X152620465Y-102095425D01*
X152734630Y-101928339D01*
X152774795Y-101730000D01*
X152774795Y-100630000D01*
X152739931Y-100444711D01*
X152665656Y-100329285D01*
X152734630Y-100228339D01*
X152774795Y-100030000D01*
X152774795Y-98930000D01*
X152739931Y-98744711D01*
X152630425Y-98574535D01*
X152463339Y-98460370D01*
X152265000Y-98420205D01*
X151765865Y-98420205D01*
X151240330Y-97894670D01*
X150997013Y-97732090D01*
X150710000Y-97675000D01*
X150363040Y-97675000D01*
X150360132Y-97667961D01*
X149984019Y-97291191D01*
X149935000Y-97270837D01*
X149935000Y-96461571D01*
X149970289Y-96454931D01*
X150140465Y-96345425D01*
X150254630Y-96178339D01*
X150294795Y-95980000D01*
X150294795Y-92015000D01*
X154365000Y-92015000D01*
X154365000Y-106105000D01*
X154365000Y-106105000D01*
G37*
X154365000Y-106105000D02*
X140275000Y-106105000D01*
X140275000Y-103870660D01*
X140739829Y-104335489D01*
X140739740Y-104437059D01*
X140967620Y-104988572D01*
X141389209Y-105410897D01*
X141940323Y-105639739D01*
X142537059Y-105640260D01*
X143088572Y-105412380D01*
X143510897Y-104990791D01*
X143739739Y-104439677D01*
X143740260Y-103842941D01*
X143512380Y-103291428D01*
X143316664Y-103095370D01*
X143425289Y-103074931D01*
X143595465Y-102965425D01*
X143709630Y-102798339D01*
X143749795Y-102600000D01*
X143749795Y-102350000D01*
X144469340Y-102350000D01*
X146789670Y-104670330D01*
X147032987Y-104832910D01*
X147320000Y-104890000D01*
X148350205Y-104890000D01*
X148350205Y-105140000D01*
X148385069Y-105325289D01*
X148494575Y-105495465D01*
X148661661Y-105609630D01*
X148860000Y-105649795D01*
X150860000Y-105649795D01*
X151045289Y-105614931D01*
X151215465Y-105505425D01*
X151329630Y-105338339D01*
X151369795Y-105140000D01*
X151369795Y-103140000D01*
X151334931Y-102954711D01*
X151225425Y-102784535D01*
X151058339Y-102670370D01*
X150935794Y-102645554D01*
X151130897Y-102450791D01*
X151172749Y-102350000D01*
X151345000Y-102350000D01*
X151632013Y-102292910D01*
X151711505Y-102239795D01*
X152265000Y-102239795D01*
X152450289Y-102204931D01*
X152620465Y-102095425D01*
X152734630Y-101928339D01*
X152774795Y-101730000D01*
X152774795Y-100630000D01*
X152739931Y-100444711D01*
X152665656Y-100329285D01*
X152734630Y-100228339D01*
X152774795Y-100030000D01*
X152774795Y-98930000D01*
X152739931Y-98744711D01*
X152630425Y-98574535D01*
X152463339Y-98460370D01*
X152265000Y-98420205D01*
X151765865Y-98420205D01*
X151240330Y-97894670D01*
X150997013Y-97732090D01*
X150710000Y-97675000D01*
X150363040Y-97675000D01*
X150360132Y-97667961D01*
X149984019Y-97291191D01*
X149935000Y-97270837D01*
X149935000Y-96461571D01*
X149970289Y-96454931D01*
X150140465Y-96345425D01*
X150254630Y-96178339D01*
X150294795Y-95980000D01*
X150294795Y-92015000D01*
X154365000Y-92015000D01*
X154365000Y-106105000D01*
G36*
X164585205Y-95980000D02*
X164620069Y-96165289D01*
X164729575Y-96335465D01*
X164896661Y-96449630D01*
X164945000Y-96459419D01*
X164945000Y-97322772D01*
X164601191Y-97665981D01*
X164397033Y-98157648D01*
X164396568Y-98690017D01*
X164599868Y-99182039D01*
X164975981Y-99558809D01*
X165467648Y-99762967D01*
X166000017Y-99763432D01*
X166009043Y-99759703D01*
X166684100Y-100434760D01*
X166369103Y-100749209D01*
X166140261Y-101300323D01*
X166139740Y-101897059D01*
X166367620Y-102448572D01*
X166563336Y-102644630D01*
X166454711Y-102665069D01*
X166284535Y-102774575D01*
X166170370Y-102941661D01*
X166130205Y-103140000D01*
X166130205Y-103390000D01*
X165410660Y-103390000D01*
X163090330Y-101069670D01*
X162847013Y-100907090D01*
X162560000Y-100850000D01*
X161830660Y-100850000D01*
X163725330Y-98955330D01*
X163887910Y-98712013D01*
X163945000Y-98425000D01*
X163945000Y-96480387D01*
X164080289Y-96454931D01*
X164250465Y-96345425D01*
X164364630Y-96178339D01*
X164404795Y-95980000D01*
X164404795Y-92015000D01*
X164585205Y-92015000D01*
X164585205Y-95980000D01*
X164585205Y-95980000D01*
G37*
X164585205Y-95980000D02*
X164620069Y-96165289D01*
X164729575Y-96335465D01*
X164896661Y-96449630D01*
X164945000Y-96459419D01*
X164945000Y-97322772D01*
X164601191Y-97665981D01*
X164397033Y-98157648D01*
X164396568Y-98690017D01*
X164599868Y-99182039D01*
X164975981Y-99558809D01*
X165467648Y-99762967D01*
X166000017Y-99763432D01*
X166009043Y-99759703D01*
X166684100Y-100434760D01*
X166369103Y-100749209D01*
X166140261Y-101300323D01*
X166139740Y-101897059D01*
X166367620Y-102448572D01*
X166563336Y-102644630D01*
X166454711Y-102665069D01*
X166284535Y-102774575D01*
X166170370Y-102941661D01*
X166130205Y-103140000D01*
X166130205Y-103390000D01*
X165410660Y-103390000D01*
X163090330Y-101069670D01*
X162847013Y-100907090D01*
X162560000Y-100850000D01*
X161830660Y-100850000D01*
X163725330Y-98955330D01*
X163887910Y-98712013D01*
X163945000Y-98425000D01*
X163945000Y-96480387D01*
X164080289Y-96454931D01*
X164250465Y-96345425D01*
X164364630Y-96178339D01*
X164404795Y-95980000D01*
X164404795Y-92015000D01*
X164585205Y-92015000D01*
X164585205Y-95980000D01*
G36*
X148075205Y-95980000D02*
X148110069Y-96165289D01*
X148219575Y-96335465D01*
X148386661Y-96449630D01*
X148435000Y-96459419D01*
X148435000Y-97322772D01*
X148091191Y-97665981D01*
X147887033Y-98157648D01*
X147886568Y-98690017D01*
X148089868Y-99182039D01*
X148465981Y-99558809D01*
X148957648Y-99762967D01*
X149490017Y-99763432D01*
X149982039Y-99560132D01*
X150358809Y-99184019D01*
X150362554Y-99175000D01*
X150399340Y-99175000D01*
X150755205Y-99530865D01*
X150755205Y-100030000D01*
X150790069Y-100215289D01*
X150864344Y-100330715D01*
X150802603Y-100421075D01*
X150710791Y-100329103D01*
X150159677Y-100100261D01*
X149562941Y-100099740D01*
X149011428Y-100327620D01*
X148589103Y-100749209D01*
X148360261Y-101300323D01*
X148359740Y-101897059D01*
X148587620Y-102448572D01*
X148783336Y-102644630D01*
X148674711Y-102665069D01*
X148504535Y-102774575D01*
X148390370Y-102941661D01*
X148350205Y-103140000D01*
X148350205Y-103390000D01*
X147630660Y-103390000D01*
X145840660Y-101600000D01*
X147215330Y-100225330D01*
X147262277Y-100155069D01*
X147377910Y-99982013D01*
X147435000Y-99695000D01*
X147435000Y-96480387D01*
X147570289Y-96454931D01*
X147740465Y-96345425D01*
X147854630Y-96178339D01*
X147894795Y-95980000D01*
X147894795Y-92015000D01*
X148075205Y-92015000D01*
X148075205Y-95980000D01*
X148075205Y-95980000D01*
G37*
X148075205Y-95980000D02*
X148110069Y-96165289D01*
X148219575Y-96335465D01*
X148386661Y-96449630D01*
X148435000Y-96459419D01*
X148435000Y-97322772D01*
X148091191Y-97665981D01*
X147887033Y-98157648D01*
X147886568Y-98690017D01*
X148089868Y-99182039D01*
X148465981Y-99558809D01*
X148957648Y-99762967D01*
X149490017Y-99763432D01*
X149982039Y-99560132D01*
X150358809Y-99184019D01*
X150362554Y-99175000D01*
X150399340Y-99175000D01*
X150755205Y-99530865D01*
X150755205Y-100030000D01*
X150790069Y-100215289D01*
X150864344Y-100330715D01*
X150802603Y-100421075D01*
X150710791Y-100329103D01*
X150159677Y-100100261D01*
X149562941Y-100099740D01*
X149011428Y-100327620D01*
X148589103Y-100749209D01*
X148360261Y-101300323D01*
X148359740Y-101897059D01*
X148587620Y-102448572D01*
X148783336Y-102644630D01*
X148674711Y-102665069D01*
X148504535Y-102774575D01*
X148390370Y-102941661D01*
X148350205Y-103140000D01*
X148350205Y-103390000D01*
X147630660Y-103390000D01*
X145840660Y-101600000D01*
X147215330Y-100225330D01*
X147262277Y-100155069D01*
X147377910Y-99982013D01*
X147435000Y-99695000D01*
X147435000Y-96480387D01*
X147570289Y-96454931D01*
X147740465Y-96345425D01*
X147854630Y-96178339D01*
X147894795Y-95980000D01*
X147894795Y-92015000D01*
X148075205Y-92015000D01*
X148075205Y-95980000D01*
G36*
X145475205Y-95980000D02*
X145510069Y-96165289D01*
X145619575Y-96335465D01*
X145786661Y-96449630D01*
X145935000Y-96479670D01*
X145935000Y-99384340D01*
X144469340Y-100850000D01*
X143749795Y-100850000D01*
X143749795Y-100600000D01*
X143714931Y-100414711D01*
X143605425Y-100244535D01*
X143438339Y-100130370D01*
X143240000Y-100090205D01*
X141240000Y-100090205D01*
X141085000Y-100119370D01*
X141085000Y-100005660D01*
X141915660Y-99175000D01*
X143006960Y-99175000D01*
X143009868Y-99182039D01*
X143385981Y-99558809D01*
X143877648Y-99762967D01*
X144410017Y-99763432D01*
X144902039Y-99560132D01*
X145278809Y-99184019D01*
X145482967Y-98692352D01*
X145483432Y-98159983D01*
X145280132Y-97667961D01*
X144935000Y-97322226D01*
X144935000Y-96461571D01*
X144970289Y-96454931D01*
X145140465Y-96345425D01*
X145254630Y-96178339D01*
X145294795Y-95980000D01*
X145294795Y-92015000D01*
X145475205Y-92015000D01*
X145475205Y-95980000D01*
X145475205Y-95980000D01*
G37*
X145475205Y-95980000D02*
X145510069Y-96165289D01*
X145619575Y-96335465D01*
X145786661Y-96449630D01*
X145935000Y-96479670D01*
X145935000Y-99384340D01*
X144469340Y-100850000D01*
X143749795Y-100850000D01*
X143749795Y-100600000D01*
X143714931Y-100414711D01*
X143605425Y-100244535D01*
X143438339Y-100130370D01*
X143240000Y-100090205D01*
X141240000Y-100090205D01*
X141085000Y-100119370D01*
X141085000Y-100005660D01*
X141915660Y-99175000D01*
X143006960Y-99175000D01*
X143009868Y-99182039D01*
X143385981Y-99558809D01*
X143877648Y-99762967D01*
X144410017Y-99763432D01*
X144902039Y-99560132D01*
X145278809Y-99184019D01*
X145482967Y-98692352D01*
X145483432Y-98159983D01*
X145280132Y-97667961D01*
X144935000Y-97322226D01*
X144935000Y-96461571D01*
X144970289Y-96454931D01*
X145140465Y-96345425D01*
X145254630Y-96178339D01*
X145294795Y-95980000D01*
X145294795Y-92015000D01*
X145475205Y-92015000D01*
X145475205Y-95980000D01*
G36*
X159519868Y-99182039D02*
X159895981Y-99558809D01*
X160387648Y-99762967D01*
X160796016Y-99763324D01*
X160469135Y-100090205D01*
X159112603Y-100090205D01*
X159124795Y-100030000D01*
X159124795Y-99530865D01*
X159480660Y-99175000D01*
X159516960Y-99175000D01*
X159519868Y-99182039D01*
X159519868Y-99182039D01*
G37*
X159519868Y-99182039D02*
X159895981Y-99558809D01*
X160387648Y-99762967D01*
X160796016Y-99763324D01*
X160469135Y-100090205D01*
X159112603Y-100090205D01*
X159124795Y-100030000D01*
X159124795Y-99530865D01*
X159480660Y-99175000D01*
X159516960Y-99175000D01*
X159519868Y-99182039D01*
G36*
X143075205Y-95980000D02*
X143110069Y-96165289D01*
X143219575Y-96335465D01*
X143386661Y-96449630D01*
X143435000Y-96459419D01*
X143435000Y-97270432D01*
X143387961Y-97289868D01*
X143011191Y-97665981D01*
X143007446Y-97675000D01*
X141605000Y-97675000D01*
X141317987Y-97732090D01*
X141074670Y-97894670D01*
X140275000Y-98694340D01*
X140275000Y-92015000D01*
X143075205Y-92015000D01*
X143075205Y-95980000D01*
X143075205Y-95980000D01*
G37*
X143075205Y-95980000D02*
X143110069Y-96165289D01*
X143219575Y-96335465D01*
X143386661Y-96449630D01*
X143435000Y-96459419D01*
X143435000Y-97270432D01*
X143387961Y-97289868D01*
X143011191Y-97665981D01*
X143007446Y-97675000D01*
X141605000Y-97675000D01*
X141317987Y-97732090D01*
X141074670Y-97894670D01*
X140275000Y-98694340D01*
X140275000Y-92015000D01*
X143075205Y-92015000D01*
X143075205Y-95980000D01*
G36*
X161985205Y-95980000D02*
X162020069Y-96165289D01*
X162129575Y-96335465D01*
X162296661Y-96449630D01*
X162445000Y-96479670D01*
X162445000Y-98114340D01*
X161993077Y-98566263D01*
X161993432Y-98159983D01*
X161790132Y-97667961D01*
X161445000Y-97322226D01*
X161445000Y-96461571D01*
X161480289Y-96454931D01*
X161650465Y-96345425D01*
X161764630Y-96178339D01*
X161804795Y-95980000D01*
X161804795Y-92015000D01*
X161985205Y-92015000D01*
X161985205Y-95980000D01*
X161985205Y-95980000D01*
G37*
X161985205Y-95980000D02*
X162020069Y-96165289D01*
X162129575Y-96335465D01*
X162296661Y-96449630D01*
X162445000Y-96479670D01*
X162445000Y-98114340D01*
X161993077Y-98566263D01*
X161993432Y-98159983D01*
X161790132Y-97667961D01*
X161445000Y-97322226D01*
X161445000Y-96461571D01*
X161480289Y-96454931D01*
X161650465Y-96345425D01*
X161764630Y-96178339D01*
X161804795Y-95980000D01*
X161804795Y-92015000D01*
X161985205Y-92015000D01*
X161985205Y-95980000D01*
M02*
