G04 #@! TF.FileFunction,Copper,L2,Bot,Signal*
%FSLAX46Y46*%
G04 Gerber Fmt 4.6, Leading zero omitted, Abs format (unit mm)*
G04 Created by KiCad (PCBNEW 4.0.2-stable) date 2016/08/04 19:18:25*
%MOMM*%
G01*
G04 APERTURE LIST*
%ADD10C,0.100000*%
%ADD11R,2.000000X2.000000*%
%ADD12C,2.000000*%
%ADD13C,1.676400*%
%ADD14C,1.000000*%
G04 APERTURE END LIST*
D10*
D11*
X167640000Y-104140000D03*
D12*
X167640000Y-101600000D03*
D11*
X160020000Y-101600000D03*
D12*
X160020000Y-104140000D03*
D13*
X163830000Y-98425000D03*
X168910000Y-98425000D03*
X156845000Y-98425000D03*
X161925000Y-98425000D03*
D11*
X165100000Y-94615000D03*
D12*
X162560000Y-94615000D03*
X160060000Y-94615000D03*
D11*
X142240000Y-101600000D03*
D12*
X142240000Y-104140000D03*
D11*
X149860000Y-104140000D03*
D12*
X149860000Y-101600000D03*
D11*
X149860000Y-94615000D03*
D12*
X147320000Y-94615000D03*
X144820000Y-94615000D03*
D13*
X146050000Y-98425000D03*
X140970000Y-98425000D03*
X153035000Y-98425000D03*
X147955000Y-98425000D03*
D14*
X147320000Y-94615000D02*
X142240000Y-99695000D01*
X142240000Y-99695000D02*
X142240000Y-101600000D01*
X162560000Y-94615000D02*
X160020000Y-97155000D01*
X160020000Y-97155000D02*
X160020000Y-101600000D01*
X149860000Y-104140000D02*
X147320000Y-104140000D01*
X144780000Y-101600000D02*
X142240000Y-101600000D01*
X147320000Y-104140000D02*
X144780000Y-101600000D01*
X160020000Y-101600000D02*
X162560000Y-101600000D01*
X165100000Y-104140000D02*
X167640000Y-104140000D01*
X162560000Y-101600000D02*
X165100000Y-104140000D01*
X168910000Y-98425000D02*
X168910000Y-100330000D01*
X168910000Y-100330000D02*
X167640000Y-101600000D01*
X160060000Y-94615000D02*
X161965000Y-92710000D01*
X168910000Y-93980000D02*
X168910000Y-98425000D01*
X167640000Y-92710000D02*
X168910000Y-93980000D01*
X161965000Y-92710000D02*
X167640000Y-92710000D01*
X140970000Y-98425000D02*
X140335000Y-99060000D01*
X140970000Y-104140000D02*
X142240000Y-104140000D01*
X140335000Y-103505000D02*
X140970000Y-104140000D01*
X140335000Y-99060000D02*
X140335000Y-103505000D01*
X140970000Y-98425000D02*
X141010000Y-98425000D01*
X141010000Y-98425000D02*
X144820000Y-94615000D01*
X142240000Y-104140000D02*
X141605000Y-104140000D01*
X156845000Y-98425000D02*
X156845000Y-102235000D01*
X158750000Y-104140000D02*
X160020000Y-104140000D01*
X156845000Y-102235000D02*
X158750000Y-104140000D01*
X160020000Y-104140000D02*
X159385000Y-104140000D01*
X163830000Y-98425000D02*
X161925000Y-98425000D01*
X165100000Y-94615000D02*
X165100000Y-97155000D01*
X165100000Y-97155000D02*
X163830000Y-98425000D01*
X147955000Y-98425000D02*
X149860000Y-96520000D01*
X149860000Y-96520000D02*
X149860000Y-94615000D01*
X146050000Y-98425000D02*
X147955000Y-98425000D01*
X153035000Y-98425000D02*
X149860000Y-101600000D01*
M02*
