G04 #@! TF.FileFunction,Soldermask,Top*
%FSLAX46Y46*%
G04 Gerber Fmt 4.6, Leading zero omitted, Abs format (unit mm)*
G04 Created by KiCad (PCBNEW 4.0.4-stable) date 12/14/16 08:21:57*
%MOMM*%
%LPD*%
G01*
G04 APERTURE LIST*
%ADD10C,0.100000*%
%ADD11R,1.598880X1.598880*%
%ADD12R,6.900000X3.400000*%
%ADD13R,3.400000X6.851600*%
%ADD14R,1.800000X3.100000*%
G04 APERTURE END LIST*
D10*
D11*
X45000000Y-16049020D03*
X45000000Y-13950980D03*
X40000000Y-21049020D03*
X40000000Y-18950980D03*
X45000000Y-31049020D03*
X45000000Y-28950980D03*
X30000000Y-41049020D03*
X30000000Y-38950980D03*
X40000000Y-56049020D03*
X40000000Y-53950980D03*
X25000000Y-66049020D03*
X25000000Y-63950980D03*
X35000000Y-81049020D03*
X35000000Y-78950980D03*
X20000000Y-91049020D03*
X20000000Y-88950980D03*
X55000000Y-16049020D03*
X55000000Y-13950980D03*
X60000000Y-21049020D03*
X60000000Y-18950980D03*
X55000000Y-31049020D03*
X55000000Y-28950980D03*
X70000000Y-41049020D03*
X70000000Y-38950980D03*
X60000000Y-56049020D03*
X60000000Y-53950980D03*
X75000000Y-66049020D03*
X75000000Y-63950980D03*
X65000000Y-81049020D03*
X65000000Y-78950980D03*
X80000000Y-91049020D03*
X80000000Y-88950980D03*
D12*
X55000000Y-87200000D03*
D13*
X55400000Y-92900000D03*
D12*
X45000000Y-85700000D03*
D13*
X45900000Y-92900000D03*
D14*
X33300000Y-91000000D03*
X36700000Y-91000000D03*
X66700000Y-91000000D03*
X63300000Y-91000000D03*
M02*
