G04 #@! TF.FileFunction,Copper,L1,Top,Signal*
%FSLAX46Y46*%
G04 Gerber Fmt 4.6, Leading zero omitted, Abs format (unit mm)*
G04 Created by KiCad (PCBNEW 4.0.6) date 08/21/17 17:29:22*
%MOMM*%
%LPD*%
G01*
G04 APERTURE LIST*
%ADD10C,0.100000*%
%ADD11R,1.600000X1.800000*%
%ADD12O,1.524000X1.000000*%
%ADD13R,1.000760X1.501140*%
%ADD14R,1.998980X2.999740*%
%ADD15C,3.000000*%
%ADD16C,1.200000*%
%ADD17C,0.600000*%
%ADD18C,0.500000*%
%ADD19C,0.250000*%
%ADD20C,0.026000*%
G04 APERTURE END LIST*
D10*
D11*
X8400000Y-6500000D03*
X11600000Y-6500000D03*
X8400000Y-15000000D03*
X11600000Y-15000000D03*
D12*
X5000000Y-7000000D03*
X5000000Y-8500000D03*
X5000000Y-10000000D03*
X5000000Y-11500000D03*
X5000000Y-13000000D03*
X5000000Y-14500000D03*
X20000000Y-7000000D03*
X20000000Y-8500000D03*
X20000000Y-10000000D03*
X20000000Y-11500000D03*
X20000000Y-13000000D03*
X20000000Y-14500000D03*
X16000000Y-7000000D03*
X16000000Y-8500000D03*
X16000000Y-10000000D03*
X16000000Y-11500000D03*
X16000000Y-13000000D03*
X16000000Y-14500000D03*
D13*
X11501140Y-9148340D03*
X10000000Y-9148340D03*
X8498860Y-9148340D03*
D14*
X10000000Y-12099820D03*
D10*
G36*
X8999240Y-10625350D02*
X9499620Y-9876050D01*
X10500380Y-9876050D01*
X11000760Y-10625350D01*
X8999240Y-10625350D01*
X8999240Y-10625350D01*
G37*
D11*
X37600000Y-13500000D03*
X34400000Y-13500000D03*
X37600000Y-5000000D03*
X34400000Y-5000000D03*
D12*
X26000000Y-13000000D03*
X26000000Y-11500000D03*
X26000000Y-10000000D03*
X26000000Y-8500000D03*
X26000000Y-7000000D03*
X26000000Y-5500000D03*
X30000000Y-13000000D03*
X30000000Y-11500000D03*
X30000000Y-10000000D03*
X30000000Y-8500000D03*
X30000000Y-7000000D03*
X30000000Y-5500000D03*
X41000000Y-13000000D03*
X41000000Y-11500000D03*
X41000000Y-10000000D03*
X41000000Y-8500000D03*
X41000000Y-7000000D03*
X41000000Y-5500000D03*
D13*
X34498860Y-10851660D03*
X36000000Y-10851660D03*
X37501140Y-10851660D03*
D14*
X36000000Y-7900180D03*
D10*
G36*
X37000760Y-9374650D02*
X36500380Y-10123950D01*
X35499620Y-10123950D01*
X34999240Y-9374650D01*
X37000760Y-9374650D01*
X37000760Y-9374650D01*
G37*
D15*
X31000000Y-2000000D03*
X31000000Y-18000000D03*
X15000000Y-18000000D03*
X15000000Y-2000000D03*
X26000000Y-18000000D03*
X26000000Y-2000000D03*
X20000000Y-2000000D03*
X20000000Y-18000000D03*
X10000000Y-18000000D03*
X10000000Y-2000000D03*
X36000000Y-18000000D03*
X36000000Y-2000000D03*
D16*
X38500000Y-13500000D03*
X7500000Y-6500000D03*
D17*
X34500000Y-8500000D03*
X11500000Y-11500000D03*
D16*
X33000000Y-13500000D03*
X13000000Y-6500000D03*
D17*
X14000000Y-13500000D03*
X13000000Y-13000000D03*
X39500000Y-6500000D03*
X31500000Y-6500000D03*
X32500000Y-7000000D03*
D16*
X10000000Y-9000000D03*
X36000000Y-10500000D03*
D18*
X24000000Y-10000000D02*
X22000000Y-10000000D01*
X21000000Y-8500000D02*
X21500000Y-9000000D01*
X21500000Y-9000000D02*
X21500000Y-9500000D01*
X21500000Y-9500000D02*
X22000000Y-10000000D01*
X20000000Y-8500000D02*
X21000000Y-8500000D01*
X24500000Y-11000000D02*
X25000000Y-11500000D01*
X24500000Y-10500000D02*
X24500000Y-11000000D01*
X24000000Y-10000000D02*
X24500000Y-10500000D01*
X25000000Y-11500000D02*
X26000000Y-11500000D01*
X37600000Y-13500000D02*
X38500000Y-13500000D01*
X8400000Y-6500000D02*
X7500000Y-6500000D01*
X8498860Y-9148340D02*
X8498860Y-6598860D01*
X8498860Y-6598860D02*
X8400000Y-6500000D01*
X16000000Y-8500000D02*
X15000000Y-8500000D01*
X9900000Y-5000000D02*
X8400000Y-6500000D01*
X14000000Y-5000000D02*
X9900000Y-5000000D01*
X14500000Y-5500000D02*
X14000000Y-5000000D01*
X14500000Y-8000000D02*
X14500000Y-5500000D01*
X15000000Y-8500000D02*
X14500000Y-8000000D01*
X8498860Y-9148340D02*
X7850520Y-8500000D01*
X7850520Y-8500000D02*
X5000000Y-8500000D01*
X8400000Y-9049480D02*
X8498860Y-9148340D01*
X16000000Y-8500000D02*
X20000000Y-8500000D01*
X37600000Y-13500000D02*
X36100000Y-15000000D01*
X31000000Y-11500000D02*
X30000000Y-11500000D01*
X31500000Y-12000000D02*
X31000000Y-11500000D01*
X31500000Y-14500000D02*
X31500000Y-12000000D01*
X32000000Y-15000000D02*
X31500000Y-14500000D01*
X36100000Y-15000000D02*
X32000000Y-15000000D01*
X37600000Y-13500000D02*
X37501140Y-13401140D01*
X37501140Y-13401140D02*
X37501140Y-10851660D01*
X37501140Y-10851660D02*
X38149480Y-11500000D01*
X38149480Y-11500000D02*
X41000000Y-11500000D01*
X26000000Y-11500000D02*
X30000000Y-11500000D01*
D19*
X34500000Y-8500000D02*
X34498860Y-8500000D01*
X34498860Y-8500000D02*
X34500000Y-8500000D01*
X34500000Y-8500000D02*
X34498860Y-8500000D01*
D18*
X34400000Y-5000000D02*
X34498860Y-5098860D01*
X34498860Y-5098860D02*
X34498860Y-8500000D01*
X34498860Y-8500000D02*
X34498860Y-10851660D01*
D19*
X11500000Y-11500000D02*
X11501140Y-11500000D01*
X11501140Y-11500000D02*
X11500000Y-11500000D01*
X11500000Y-11500000D02*
X11501140Y-11500000D01*
D18*
X11600000Y-15000000D02*
X11501140Y-14901140D01*
X11501140Y-14901140D02*
X11501140Y-11500000D01*
X11501140Y-11500000D02*
X11501140Y-9148340D01*
X33000000Y-13500000D02*
X34400000Y-13500000D01*
X13000000Y-6500000D02*
X11600000Y-6500000D01*
X11600000Y-6500000D02*
X11501140Y-6598860D01*
X11501140Y-6598860D02*
X11501140Y-9148340D01*
X20000000Y-7000000D02*
X16000000Y-7000000D01*
X34498860Y-10851660D02*
X34498860Y-13401140D01*
X34498860Y-13401140D02*
X34400000Y-13500000D01*
X30000000Y-13000000D02*
X26000000Y-13000000D01*
D19*
X16000000Y-13000000D02*
X20000000Y-13000000D01*
X16000000Y-11500000D02*
X14500000Y-11500000D01*
X14000000Y-12000000D02*
X14000000Y-13500000D01*
X14500000Y-11500000D02*
X14000000Y-12000000D01*
X20000000Y-11500000D02*
X16000000Y-11500000D01*
X14500000Y-10000000D02*
X16000000Y-10000000D01*
X13000000Y-11500000D02*
X14500000Y-10000000D01*
X13000000Y-13000000D02*
X13000000Y-11500000D01*
X16000000Y-10000000D02*
X20000000Y-10000000D01*
X20000000Y-14500000D02*
X16000000Y-14500000D01*
X30000000Y-7000000D02*
X26000000Y-7000000D01*
X30000000Y-8500000D02*
X31500000Y-7000000D01*
X40000000Y-8500000D02*
X41000000Y-8500000D01*
X39500000Y-6500000D02*
X39500000Y-8000000D01*
X39500000Y-8000000D02*
X40000000Y-8500000D01*
X31500000Y-7000000D02*
X31500000Y-6500000D01*
X26000000Y-8500000D02*
X30000000Y-8500000D01*
X32500000Y-7500000D02*
X32500000Y-7000000D01*
X30000000Y-10000000D02*
X32500000Y-7500000D01*
X30000000Y-10000000D02*
X26000000Y-10000000D01*
X26000000Y-5500000D02*
X30000000Y-5500000D01*
D18*
X10000000Y-9000000D02*
X10000000Y-9148340D01*
X10000000Y-10250700D02*
X10000000Y-9148340D01*
X10000000Y-12099820D02*
X10000000Y-10250700D01*
X8400000Y-15000000D02*
X10000000Y-13400000D01*
X10000000Y-13400000D02*
X10000000Y-12099820D01*
X36000000Y-7900180D02*
X36000000Y-9749300D01*
X36000000Y-10500000D02*
X36000000Y-10851660D01*
X37600000Y-5000000D02*
X36000000Y-6600000D01*
X36000000Y-6600000D02*
X36000000Y-7900180D01*
D19*
X36000000Y-11000000D02*
X36000000Y-10749300D01*
X36000000Y-10749300D02*
X36000000Y-8900180D01*
X36000000Y-11851660D02*
X36000000Y-10749300D01*
D20*
G36*
X14030931Y-546942D02*
X13548636Y-1028396D01*
X13287298Y-1657768D01*
X13286703Y-2339242D01*
X13546942Y-2969069D01*
X14028396Y-3451364D01*
X14657768Y-3712702D01*
X15339242Y-3713297D01*
X15969069Y-3453058D01*
X16451364Y-2971604D01*
X16712702Y-2342232D01*
X16713297Y-1660758D01*
X16453058Y-1030931D01*
X15971604Y-548636D01*
X15343923Y-288000D01*
X19657619Y-288000D01*
X19030931Y-546942D01*
X18548636Y-1028396D01*
X18287298Y-1657768D01*
X18286703Y-2339242D01*
X18546942Y-2969069D01*
X19028396Y-3451364D01*
X19657768Y-3712702D01*
X20339242Y-3713297D01*
X20969069Y-3453058D01*
X21451364Y-2971604D01*
X21712000Y-2343923D01*
X21712000Y-7000000D01*
X21717534Y-7027821D01*
X21717534Y-7056186D01*
X21793654Y-7438869D01*
X21836657Y-7542687D01*
X22053430Y-7867111D01*
X22132889Y-7946570D01*
X22457313Y-8163343D01*
X22561131Y-8206346D01*
X22943812Y-8282466D01*
X23056186Y-8282466D01*
X23438869Y-8206346D01*
X23542687Y-8163343D01*
X23867111Y-7946570D01*
X23946570Y-7867111D01*
X24163343Y-7542687D01*
X24206346Y-7438869D01*
X24282466Y-7056186D01*
X24282466Y-7027821D01*
X24288000Y-7000000D01*
X25005899Y-7000000D01*
X25060173Y-7272853D01*
X25214732Y-7504167D01*
X25446046Y-7658726D01*
X25718899Y-7713000D01*
X26281101Y-7713000D01*
X26553954Y-7658726D01*
X26785268Y-7504167D01*
X26896297Y-7338000D01*
X29103703Y-7338000D01*
X29214732Y-7504167D01*
X29446046Y-7658726D01*
X29718899Y-7713000D01*
X30281101Y-7713000D01*
X30315922Y-7706074D01*
X30234996Y-7787000D01*
X29718899Y-7787000D01*
X29446046Y-7841274D01*
X29214732Y-7995833D01*
X29103703Y-8162000D01*
X26896297Y-8162000D01*
X26785268Y-7995833D01*
X26553954Y-7841274D01*
X26281101Y-7787000D01*
X25718899Y-7787000D01*
X25446046Y-7841274D01*
X25214732Y-7995833D01*
X25060173Y-8227147D01*
X25005899Y-8500000D01*
X25060173Y-8772853D01*
X25214732Y-9004167D01*
X25446046Y-9158726D01*
X25718899Y-9213000D01*
X26281101Y-9213000D01*
X26553954Y-9158726D01*
X26785268Y-9004167D01*
X26896297Y-8838000D01*
X29103703Y-8838000D01*
X29214732Y-9004167D01*
X29446046Y-9158726D01*
X29718899Y-9213000D01*
X30281101Y-9213000D01*
X30315922Y-9206074D01*
X30234996Y-9287000D01*
X29718899Y-9287000D01*
X29446046Y-9341274D01*
X29214732Y-9495833D01*
X29103703Y-9662000D01*
X26896297Y-9662000D01*
X26785268Y-9495833D01*
X26553954Y-9341274D01*
X26281101Y-9287000D01*
X25718899Y-9287000D01*
X25446046Y-9341274D01*
X25214732Y-9495833D01*
X25060173Y-9727147D01*
X25005899Y-10000000D01*
X25060173Y-10272853D01*
X25214732Y-10504167D01*
X25446046Y-10658726D01*
X25718899Y-10713000D01*
X26281101Y-10713000D01*
X26553954Y-10658726D01*
X26785268Y-10504167D01*
X26896297Y-10338000D01*
X29103703Y-10338000D01*
X29214732Y-10504167D01*
X29446046Y-10658726D01*
X29718899Y-10713000D01*
X30281101Y-10713000D01*
X30553954Y-10658726D01*
X30785268Y-10504167D01*
X30939827Y-10272853D01*
X30994101Y-10000000D01*
X30993595Y-9997456D01*
X33477480Y-9997456D01*
X33477480Y-10480410D01*
X33607730Y-10610660D01*
X34257860Y-10610660D01*
X34257860Y-9710340D01*
X34127610Y-9580090D01*
X33894847Y-9580090D01*
X33703358Y-9659407D01*
X33556798Y-9805967D01*
X33477480Y-9997456D01*
X30993595Y-9997456D01*
X30939827Y-9727147D01*
X30864136Y-9613868D01*
X32739002Y-7739002D01*
X32812271Y-7629347D01*
X32838000Y-7500000D01*
X32838000Y-7387448D01*
X32934646Y-7290970D01*
X33012910Y-7102490D01*
X33013089Y-6898406D01*
X32935154Y-6709789D01*
X32790970Y-6565354D01*
X32602490Y-6487090D01*
X32398406Y-6486911D01*
X32209789Y-6564846D01*
X32065354Y-6709030D01*
X31987090Y-6897510D01*
X31986911Y-7101594D01*
X32064846Y-7290211D01*
X32148243Y-7373753D01*
X30987175Y-8534821D01*
X30994101Y-8500000D01*
X30939827Y-8227147D01*
X30864136Y-8113868D01*
X31739002Y-7239002D01*
X31812271Y-7129347D01*
X31838000Y-7000000D01*
X31838000Y-6887448D01*
X31934646Y-6790970D01*
X32012910Y-6602490D01*
X32013089Y-6398406D01*
X31935154Y-6209789D01*
X31790970Y-6065354D01*
X31602490Y-5987090D01*
X31398406Y-5986911D01*
X31209789Y-6064846D01*
X31065354Y-6209030D01*
X30987090Y-6397510D01*
X30986911Y-6601594D01*
X31064846Y-6790211D01*
X31148243Y-6873753D01*
X30987175Y-7034821D01*
X30994101Y-7000000D01*
X30939827Y-6727147D01*
X30785268Y-6495833D01*
X30553954Y-6341274D01*
X30281101Y-6287000D01*
X29718899Y-6287000D01*
X29446046Y-6341274D01*
X29214732Y-6495833D01*
X29103703Y-6662000D01*
X26896297Y-6662000D01*
X26785268Y-6495833D01*
X26553954Y-6341274D01*
X26281101Y-6287000D01*
X25718899Y-6287000D01*
X25446046Y-6341274D01*
X25214732Y-6495833D01*
X25060173Y-6727147D01*
X25005899Y-7000000D01*
X24288000Y-7000000D01*
X24288000Y-5500000D01*
X25005899Y-5500000D01*
X25060173Y-5772853D01*
X25214732Y-6004167D01*
X25446046Y-6158726D01*
X25718899Y-6213000D01*
X26281101Y-6213000D01*
X26553954Y-6158726D01*
X26785268Y-6004167D01*
X26896297Y-5838000D01*
X29103703Y-5838000D01*
X29214732Y-6004167D01*
X29446046Y-6158726D01*
X29718899Y-6213000D01*
X30281101Y-6213000D01*
X30553954Y-6158726D01*
X30785268Y-6004167D01*
X30939827Y-5772853D01*
X30994101Y-5500000D01*
X30968491Y-5371250D01*
X33079000Y-5371250D01*
X33079000Y-6003634D01*
X33158318Y-6195123D01*
X33304878Y-6341683D01*
X33496367Y-6421000D01*
X34028750Y-6421000D01*
X34159000Y-6290750D01*
X34159000Y-5241000D01*
X33209250Y-5241000D01*
X33079000Y-5371250D01*
X30968491Y-5371250D01*
X30939827Y-5227147D01*
X30785268Y-4995833D01*
X30553954Y-4841274D01*
X30281101Y-4787000D01*
X29718899Y-4787000D01*
X29446046Y-4841274D01*
X29214732Y-4995833D01*
X29103703Y-5162000D01*
X26896297Y-5162000D01*
X26785268Y-4995833D01*
X26553954Y-4841274D01*
X26281101Y-4787000D01*
X25718899Y-4787000D01*
X25446046Y-4841274D01*
X25214732Y-4995833D01*
X25060173Y-5227147D01*
X25005899Y-5500000D01*
X24288000Y-5500000D01*
X24288000Y-3996366D01*
X33079000Y-3996366D01*
X33079000Y-4628750D01*
X33209250Y-4759000D01*
X34159000Y-4759000D01*
X34159000Y-3709250D01*
X34641000Y-3709250D01*
X34641000Y-4759000D01*
X35590750Y-4759000D01*
X35721000Y-4628750D01*
X35721000Y-3996366D01*
X35641682Y-3804877D01*
X35495122Y-3658317D01*
X35303633Y-3579000D01*
X34771250Y-3579000D01*
X34641000Y-3709250D01*
X34159000Y-3709250D01*
X34028750Y-3579000D01*
X33496367Y-3579000D01*
X33304878Y-3658317D01*
X33158318Y-3804877D01*
X33079000Y-3996366D01*
X24288000Y-3996366D01*
X24288000Y-2342381D01*
X24546942Y-2969069D01*
X25028396Y-3451364D01*
X25657768Y-3712702D01*
X26339242Y-3713297D01*
X26969069Y-3453058D01*
X27451364Y-2971604D01*
X27712702Y-2342232D01*
X27713297Y-1660758D01*
X27453058Y-1030931D01*
X26971604Y-548636D01*
X26343923Y-288000D01*
X30657619Y-288000D01*
X30030931Y-546942D01*
X29548636Y-1028396D01*
X29287298Y-1657768D01*
X29286703Y-2339242D01*
X29546942Y-2969069D01*
X30028396Y-3451364D01*
X30657768Y-3712702D01*
X31339242Y-3713297D01*
X31969069Y-3453058D01*
X32451364Y-2971604D01*
X32712702Y-2342232D01*
X32713297Y-1660758D01*
X32453058Y-1030931D01*
X31971604Y-548636D01*
X31343923Y-288000D01*
X35657619Y-288000D01*
X35030931Y-546942D01*
X34548636Y-1028396D01*
X34287298Y-1657768D01*
X34286703Y-2339242D01*
X34546942Y-2969069D01*
X35028396Y-3451364D01*
X35657768Y-3712702D01*
X36339242Y-3713297D01*
X36969069Y-3453058D01*
X37451364Y-2971604D01*
X37712702Y-2342232D01*
X37713297Y-1660758D01*
X37453058Y-1030931D01*
X36971604Y-548636D01*
X36686246Y-430145D01*
X39714462Y-1032495D01*
X42863433Y-3136570D01*
X44967505Y-6285539D01*
X45706358Y-10000000D01*
X44967505Y-13714461D01*
X42863433Y-16863430D01*
X39714462Y-18967505D01*
X36686540Y-19569797D01*
X36969069Y-19453058D01*
X37451364Y-18971604D01*
X37712702Y-18342232D01*
X37713297Y-17660758D01*
X37453058Y-17030931D01*
X36971604Y-16548636D01*
X36342232Y-16287298D01*
X35660758Y-16286703D01*
X35030931Y-16546942D01*
X34548636Y-17028396D01*
X34287298Y-17657768D01*
X34286703Y-18339242D01*
X34546942Y-18969069D01*
X35028396Y-19451364D01*
X35656077Y-19712000D01*
X31342381Y-19712000D01*
X31969069Y-19453058D01*
X32451364Y-18971604D01*
X32712702Y-18342232D01*
X32713297Y-17660758D01*
X32453058Y-17030931D01*
X31971604Y-16548636D01*
X31342232Y-16287298D01*
X30660758Y-16286703D01*
X30030931Y-16546942D01*
X29548636Y-17028396D01*
X29287298Y-17657768D01*
X29286703Y-18339242D01*
X29546942Y-18969069D01*
X30028396Y-19451364D01*
X30656077Y-19712000D01*
X26342381Y-19712000D01*
X26969069Y-19453058D01*
X27451364Y-18971604D01*
X27712702Y-18342232D01*
X27713297Y-17660758D01*
X27453058Y-17030931D01*
X26971604Y-16548636D01*
X26342232Y-16287298D01*
X25660758Y-16286703D01*
X25030931Y-16546942D01*
X24548636Y-17028396D01*
X24288000Y-17656077D01*
X24288000Y-13393239D01*
X24795767Y-13393239D01*
X24922336Y-13618571D01*
X25221142Y-13883626D01*
X25598635Y-14014157D01*
X25759000Y-13893223D01*
X25759000Y-13241000D01*
X26241000Y-13241000D01*
X26241000Y-13893223D01*
X26401365Y-14014157D01*
X26778858Y-13883626D01*
X27077664Y-13618571D01*
X27204233Y-13393239D01*
X28795767Y-13393239D01*
X28922336Y-13618571D01*
X29221142Y-13883626D01*
X29598635Y-14014157D01*
X29759000Y-13893223D01*
X29759000Y-13241000D01*
X28880472Y-13241000D01*
X28795767Y-13393239D01*
X27204233Y-13393239D01*
X27119528Y-13241000D01*
X26241000Y-13241000D01*
X25759000Y-13241000D01*
X24880472Y-13241000D01*
X24795767Y-13393239D01*
X24288000Y-13393239D01*
X24288000Y-13000000D01*
X24282466Y-12972179D01*
X24282466Y-12943814D01*
X24206346Y-12561131D01*
X24163343Y-12457313D01*
X24163342Y-12457312D01*
X23946570Y-12132889D01*
X23867111Y-12053430D01*
X23542687Y-11836657D01*
X23438869Y-11793654D01*
X23056186Y-11717534D01*
X22943812Y-11717534D01*
X22561131Y-11793654D01*
X22457313Y-11836657D01*
X22132889Y-12053430D01*
X22053430Y-12132889D01*
X21836658Y-12457312D01*
X21836657Y-12457313D01*
X21793654Y-12561131D01*
X21717534Y-12943814D01*
X21717534Y-12972179D01*
X21712000Y-13000000D01*
X21712000Y-17657619D01*
X21453058Y-17030931D01*
X20971604Y-16548636D01*
X20342232Y-16287298D01*
X19660758Y-16286703D01*
X19030931Y-16546942D01*
X18548636Y-17028396D01*
X18287298Y-17657768D01*
X18286703Y-18339242D01*
X18546942Y-18969069D01*
X19028396Y-19451364D01*
X19656077Y-19712000D01*
X15342381Y-19712000D01*
X15969069Y-19453058D01*
X16451364Y-18971604D01*
X16712702Y-18342232D01*
X16713297Y-17660758D01*
X16453058Y-17030931D01*
X15971604Y-16548636D01*
X15342232Y-16287298D01*
X14660758Y-16286703D01*
X14030931Y-16546942D01*
X13548636Y-17028396D01*
X13287298Y-17657768D01*
X13286703Y-18339242D01*
X13546942Y-18969069D01*
X14028396Y-19451364D01*
X14656077Y-19712000D01*
X10342381Y-19712000D01*
X10969069Y-19453058D01*
X11451364Y-18971604D01*
X11712702Y-18342232D01*
X11713297Y-17660758D01*
X11453058Y-17030931D01*
X10971604Y-16548636D01*
X10342232Y-16287298D01*
X9660758Y-16286703D01*
X9030931Y-16546942D01*
X8548636Y-17028396D01*
X8287298Y-17657768D01*
X8286703Y-18339242D01*
X8546942Y-18969069D01*
X9028396Y-19451364D01*
X9313754Y-19569855D01*
X6285539Y-18967505D01*
X3136570Y-16863433D01*
X1557375Y-14500000D01*
X4005899Y-14500000D01*
X4060173Y-14772853D01*
X4214732Y-15004167D01*
X4446046Y-15158726D01*
X4718899Y-15213000D01*
X5281101Y-15213000D01*
X5553954Y-15158726D01*
X5785268Y-15004167D01*
X5939827Y-14772853D01*
X5994101Y-14500000D01*
X5939827Y-14227147D01*
X5785268Y-13995833D01*
X5553954Y-13841274D01*
X5281101Y-13787000D01*
X4718899Y-13787000D01*
X4446046Y-13841274D01*
X4214732Y-13995833D01*
X4060173Y-14227147D01*
X4005899Y-14500000D01*
X1557375Y-14500000D01*
X1032495Y-13714462D01*
X890380Y-13000000D01*
X4005899Y-13000000D01*
X4060173Y-13272853D01*
X4214732Y-13504167D01*
X4446046Y-13658726D01*
X4718899Y-13713000D01*
X5281101Y-13713000D01*
X5553954Y-13658726D01*
X5785268Y-13504167D01*
X5939827Y-13272853D01*
X5994101Y-13000000D01*
X5939827Y-12727147D01*
X5785268Y-12495833D01*
X5553954Y-12341274D01*
X5281101Y-12287000D01*
X4718899Y-12287000D01*
X4446046Y-12341274D01*
X4214732Y-12495833D01*
X4060173Y-12727147D01*
X4005899Y-13000000D01*
X890380Y-13000000D01*
X592011Y-11500000D01*
X4005899Y-11500000D01*
X4060173Y-11772853D01*
X4214732Y-12004167D01*
X4446046Y-12158726D01*
X4718899Y-12213000D01*
X5281101Y-12213000D01*
X5553954Y-12158726D01*
X5785268Y-12004167D01*
X5939827Y-11772853D01*
X5994101Y-11500000D01*
X5939827Y-11227147D01*
X5785268Y-10995833D01*
X5553954Y-10841274D01*
X5281101Y-10787000D01*
X4718899Y-10787000D01*
X4446046Y-10841274D01*
X4214732Y-10995833D01*
X4060173Y-11227147D01*
X4005899Y-11500000D01*
X592011Y-11500000D01*
X293642Y-10000000D01*
X4005899Y-10000000D01*
X4060173Y-10272853D01*
X4214732Y-10504167D01*
X4446046Y-10658726D01*
X4718899Y-10713000D01*
X5281101Y-10713000D01*
X5553954Y-10658726D01*
X5785268Y-10504167D01*
X5939827Y-10272853D01*
X5994101Y-10000000D01*
X5939827Y-9727147D01*
X5785268Y-9495833D01*
X5553954Y-9341274D01*
X5281101Y-9287000D01*
X4718899Y-9287000D01*
X4446046Y-9341274D01*
X4214732Y-9495833D01*
X4060173Y-9727147D01*
X4005899Y-10000000D01*
X293642Y-10000000D01*
X812159Y-7393239D01*
X3795767Y-7393239D01*
X3922336Y-7618571D01*
X4221142Y-7883626D01*
X4327580Y-7920431D01*
X4214732Y-7995833D01*
X4060173Y-8227147D01*
X4005899Y-8500000D01*
X4060173Y-8772853D01*
X4214732Y-9004167D01*
X4446046Y-9158726D01*
X4718899Y-9213000D01*
X5281101Y-9213000D01*
X5553954Y-9158726D01*
X5785268Y-9004167D01*
X5812775Y-8963000D01*
X7658740Y-8963000D01*
X7781308Y-9085568D01*
X7781308Y-9898910D01*
X7796160Y-9977843D01*
X7842809Y-10050338D01*
X7913988Y-10098972D01*
X7998480Y-10116082D01*
X8999240Y-10116082D01*
X9078173Y-10101230D01*
X9095581Y-10090028D01*
X8866497Y-10433073D01*
X8849082Y-10444279D01*
X8800448Y-10515458D01*
X8783338Y-10599950D01*
X8783338Y-10615621D01*
X8782151Y-10619350D01*
X8783338Y-10626176D01*
X8783338Y-13599690D01*
X8798190Y-13678623D01*
X8844839Y-13751118D01*
X8916018Y-13799752D01*
X8940508Y-13804711D01*
X8862392Y-13882828D01*
X7600000Y-13882828D01*
X7521067Y-13897680D01*
X7448572Y-13944329D01*
X7399938Y-14015508D01*
X7382828Y-14100000D01*
X7382828Y-15900000D01*
X7397680Y-15978933D01*
X7444329Y-16051428D01*
X7515508Y-16100062D01*
X7600000Y-16117172D01*
X9200000Y-16117172D01*
X9278933Y-16102320D01*
X9351428Y-16055671D01*
X9400062Y-15984492D01*
X9417172Y-15900000D01*
X9417172Y-15371250D01*
X10279000Y-15371250D01*
X10279000Y-16003634D01*
X10358318Y-16195123D01*
X10504878Y-16341683D01*
X10696367Y-16421000D01*
X11228750Y-16421000D01*
X11359000Y-16290750D01*
X11359000Y-15241000D01*
X11841000Y-15241000D01*
X11841000Y-16290750D01*
X11971250Y-16421000D01*
X12503633Y-16421000D01*
X12695122Y-16341683D01*
X12841682Y-16195123D01*
X12921000Y-16003634D01*
X12921000Y-15371250D01*
X12790750Y-15241000D01*
X11841000Y-15241000D01*
X11359000Y-15241000D01*
X10409250Y-15241000D01*
X10279000Y-15371250D01*
X9417172Y-15371250D01*
X9417172Y-14637608D01*
X10237919Y-13816862D01*
X10353354Y-13816862D01*
X10279000Y-13996366D01*
X10279000Y-14628750D01*
X10409250Y-14759000D01*
X11359000Y-14759000D01*
X11359000Y-13709250D01*
X11841000Y-13709250D01*
X11841000Y-14759000D01*
X12790750Y-14759000D01*
X12921000Y-14628750D01*
X12921000Y-14500000D01*
X15005899Y-14500000D01*
X15060173Y-14772853D01*
X15214732Y-15004167D01*
X15446046Y-15158726D01*
X15718899Y-15213000D01*
X16281101Y-15213000D01*
X16553954Y-15158726D01*
X16785268Y-15004167D01*
X16896297Y-14838000D01*
X19103703Y-14838000D01*
X19214732Y-15004167D01*
X19446046Y-15158726D01*
X19718899Y-15213000D01*
X20281101Y-15213000D01*
X20553954Y-15158726D01*
X20785268Y-15004167D01*
X20939827Y-14772853D01*
X20994101Y-14500000D01*
X20939827Y-14227147D01*
X20785268Y-13995833D01*
X20553954Y-13841274D01*
X20281101Y-13787000D01*
X19718899Y-13787000D01*
X19446046Y-13841274D01*
X19214732Y-13995833D01*
X19103703Y-14162000D01*
X16896297Y-14162000D01*
X16785268Y-13995833D01*
X16553954Y-13841274D01*
X16281101Y-13787000D01*
X15718899Y-13787000D01*
X15446046Y-13841274D01*
X15214732Y-13995833D01*
X15060173Y-14227147D01*
X15005899Y-14500000D01*
X12921000Y-14500000D01*
X12921000Y-13996366D01*
X12841682Y-13804877D01*
X12695122Y-13658317D01*
X12558180Y-13601594D01*
X13486911Y-13601594D01*
X13564846Y-13790211D01*
X13709030Y-13934646D01*
X13897510Y-14012910D01*
X14101594Y-14013089D01*
X14290211Y-13935154D01*
X14434646Y-13790970D01*
X14512910Y-13602490D01*
X14513089Y-13398406D01*
X14435154Y-13209789D01*
X14338000Y-13112466D01*
X14338000Y-13000000D01*
X15005899Y-13000000D01*
X15060173Y-13272853D01*
X15214732Y-13504167D01*
X15446046Y-13658726D01*
X15718899Y-13713000D01*
X16281101Y-13713000D01*
X16553954Y-13658726D01*
X16785268Y-13504167D01*
X16896297Y-13338000D01*
X19103703Y-13338000D01*
X19214732Y-13504167D01*
X19446046Y-13658726D01*
X19718899Y-13713000D01*
X20281101Y-13713000D01*
X20553954Y-13658726D01*
X20785268Y-13504167D01*
X20939827Y-13272853D01*
X20994101Y-13000000D01*
X20939827Y-12727147D01*
X20785268Y-12495833D01*
X20553954Y-12341274D01*
X20281101Y-12287000D01*
X19718899Y-12287000D01*
X19446046Y-12341274D01*
X19214732Y-12495833D01*
X19103703Y-12662000D01*
X16896297Y-12662000D01*
X16785268Y-12495833D01*
X16553954Y-12341274D01*
X16281101Y-12287000D01*
X15718899Y-12287000D01*
X15446046Y-12341274D01*
X15214732Y-12495833D01*
X15060173Y-12727147D01*
X15005899Y-13000000D01*
X14338000Y-13000000D01*
X14338000Y-12140004D01*
X14640004Y-11838000D01*
X15103703Y-11838000D01*
X15214732Y-12004167D01*
X15446046Y-12158726D01*
X15718899Y-12213000D01*
X16281101Y-12213000D01*
X16553954Y-12158726D01*
X16785268Y-12004167D01*
X16896297Y-11838000D01*
X19103703Y-11838000D01*
X19214732Y-12004167D01*
X19446046Y-12158726D01*
X19718899Y-12213000D01*
X20281101Y-12213000D01*
X20553954Y-12158726D01*
X20785268Y-12004167D01*
X20939827Y-11772853D01*
X20994101Y-11500000D01*
X20939827Y-11227147D01*
X20785268Y-10995833D01*
X20553954Y-10841274D01*
X20281101Y-10787000D01*
X19718899Y-10787000D01*
X19446046Y-10841274D01*
X19214732Y-10995833D01*
X19103703Y-11162000D01*
X16896297Y-11162000D01*
X16785268Y-10995833D01*
X16553954Y-10841274D01*
X16281101Y-10787000D01*
X15718899Y-10787000D01*
X15446046Y-10841274D01*
X15214732Y-10995833D01*
X15103703Y-11162000D01*
X14500000Y-11162000D01*
X14370653Y-11187729D01*
X14260998Y-11260998D01*
X13760998Y-11760998D01*
X13687729Y-11870653D01*
X13662000Y-12000000D01*
X13662000Y-13112552D01*
X13565354Y-13209030D01*
X13487090Y-13397510D01*
X13486911Y-13601594D01*
X12558180Y-13601594D01*
X12503633Y-13579000D01*
X11971250Y-13579000D01*
X11841000Y-13709250D01*
X11359000Y-13709250D01*
X11228750Y-13579000D01*
X11216662Y-13579000D01*
X11216662Y-13101594D01*
X12486911Y-13101594D01*
X12564846Y-13290211D01*
X12709030Y-13434646D01*
X12897510Y-13512910D01*
X13101594Y-13513089D01*
X13290211Y-13435154D01*
X13434646Y-13290970D01*
X13512910Y-13102490D01*
X13513089Y-12898406D01*
X13435154Y-12709789D01*
X13338000Y-12612466D01*
X13338000Y-11640004D01*
X14640004Y-10338000D01*
X15103703Y-10338000D01*
X15214732Y-10504167D01*
X15446046Y-10658726D01*
X15718899Y-10713000D01*
X16281101Y-10713000D01*
X16553954Y-10658726D01*
X16785268Y-10504167D01*
X16896297Y-10338000D01*
X19103703Y-10338000D01*
X19214732Y-10504167D01*
X19446046Y-10658726D01*
X19718899Y-10713000D01*
X20281101Y-10713000D01*
X20553954Y-10658726D01*
X20785268Y-10504167D01*
X20939827Y-10272853D01*
X20994101Y-10000000D01*
X20939827Y-9727147D01*
X20785268Y-9495833D01*
X20553954Y-9341274D01*
X20281101Y-9287000D01*
X19718899Y-9287000D01*
X19446046Y-9341274D01*
X19214732Y-9495833D01*
X19103703Y-9662000D01*
X16896297Y-9662000D01*
X16785268Y-9495833D01*
X16553954Y-9341274D01*
X16281101Y-9287000D01*
X15718899Y-9287000D01*
X15446046Y-9341274D01*
X15214732Y-9495833D01*
X15103703Y-9662000D01*
X14500000Y-9662000D01*
X14370653Y-9687729D01*
X14260998Y-9760998D01*
X12760998Y-11260998D01*
X12687729Y-11370653D01*
X12662000Y-11500000D01*
X12662000Y-12612552D01*
X12565354Y-12709030D01*
X12487090Y-12897510D01*
X12486911Y-13101594D01*
X11216662Y-13101594D01*
X11216662Y-10599950D01*
X11214041Y-10586020D01*
X11214057Y-10584510D01*
X11213502Y-10583156D01*
X11201810Y-10521017D01*
X11155161Y-10448522D01*
X11134302Y-10434270D01*
X11124713Y-10419910D01*
X11129890Y-10419910D01*
X11260140Y-10289660D01*
X11260140Y-9389340D01*
X11742140Y-9389340D01*
X11742140Y-10289660D01*
X11872390Y-10419910D01*
X12105153Y-10419910D01*
X12296642Y-10340593D01*
X12443202Y-10194033D01*
X12522520Y-10002544D01*
X12522520Y-9519590D01*
X12392270Y-9389340D01*
X11742140Y-9389340D01*
X11260140Y-9389340D01*
X11240140Y-9389340D01*
X11240140Y-8907340D01*
X11260140Y-8907340D01*
X11260140Y-8007020D01*
X11742140Y-8007020D01*
X11742140Y-8907340D01*
X12392270Y-8907340D01*
X12522520Y-8777090D01*
X12522520Y-8294136D01*
X12443202Y-8102647D01*
X12296642Y-7956087D01*
X12211934Y-7921000D01*
X12503633Y-7921000D01*
X12695122Y-7841683D01*
X12841682Y-7695123D01*
X12921000Y-7503634D01*
X12921000Y-6871250D01*
X12790750Y-6741000D01*
X11841000Y-6741000D01*
X11841000Y-7790750D01*
X11927020Y-7876770D01*
X11872390Y-7876770D01*
X11742140Y-8007020D01*
X11260140Y-8007020D01*
X11174120Y-7921000D01*
X11228750Y-7921000D01*
X11359000Y-7790750D01*
X11359000Y-6741000D01*
X10409250Y-6741000D01*
X10279000Y-6871250D01*
X10279000Y-7503634D01*
X10358318Y-7695123D01*
X10504878Y-7841683D01*
X10696367Y-7921000D01*
X10790346Y-7921000D01*
X10705638Y-7956087D01*
X10559078Y-8102647D01*
X10524746Y-8185532D01*
X10500380Y-8180598D01*
X9499620Y-8180598D01*
X9420687Y-8195450D01*
X9348192Y-8242099D01*
X9299558Y-8313278D01*
X9282448Y-8397770D01*
X9282448Y-8608051D01*
X9216412Y-8767083D01*
X9216412Y-8397770D01*
X9201560Y-8318837D01*
X9154911Y-8246342D01*
X9083732Y-8197708D01*
X8999240Y-8180598D01*
X8961860Y-8180598D01*
X8961860Y-7617172D01*
X9200000Y-7617172D01*
X9278933Y-7602320D01*
X9351428Y-7555671D01*
X9400062Y-7484492D01*
X9417172Y-7400000D01*
X9417172Y-6137608D01*
X10091781Y-5463000D01*
X10292821Y-5463000D01*
X10279000Y-5496366D01*
X10279000Y-6128750D01*
X10409250Y-6259000D01*
X11359000Y-6259000D01*
X11359000Y-6239000D01*
X11841000Y-6239000D01*
X11841000Y-6259000D01*
X12790750Y-6259000D01*
X12921000Y-6128750D01*
X12921000Y-5496366D01*
X12907179Y-5463000D01*
X13808220Y-5463000D01*
X14037000Y-5691781D01*
X14037000Y-8000000D01*
X14053686Y-8083884D01*
X14072244Y-8177183D01*
X14172610Y-8327390D01*
X14672610Y-8827391D01*
X14792263Y-8907340D01*
X14822818Y-8927756D01*
X15000000Y-8963000D01*
X15187225Y-8963000D01*
X15214732Y-9004167D01*
X15446046Y-9158726D01*
X15718899Y-9213000D01*
X16281101Y-9213000D01*
X16553954Y-9158726D01*
X16785268Y-9004167D01*
X16812775Y-8963000D01*
X19187225Y-8963000D01*
X19214732Y-9004167D01*
X19446046Y-9158726D01*
X19718899Y-9213000D01*
X20281101Y-9213000D01*
X20553954Y-9158726D01*
X20785268Y-9004167D01*
X20810950Y-8965731D01*
X21037000Y-9191781D01*
X21037000Y-9500000D01*
X21052137Y-9576096D01*
X21072244Y-9677183D01*
X21172610Y-9827390D01*
X21672610Y-10327391D01*
X21822818Y-10427756D01*
X22000000Y-10463000D01*
X23808220Y-10463000D01*
X24037000Y-10691781D01*
X24037000Y-11000000D01*
X24062729Y-11129347D01*
X24072244Y-11177183D01*
X24172610Y-11327390D01*
X24672610Y-11827391D01*
X24822818Y-11927756D01*
X25000000Y-11963000D01*
X25187225Y-11963000D01*
X25214732Y-12004167D01*
X25327580Y-12079569D01*
X25221142Y-12116374D01*
X24922336Y-12381429D01*
X24795767Y-12606761D01*
X24880472Y-12759000D01*
X25759000Y-12759000D01*
X25759000Y-12739000D01*
X26241000Y-12739000D01*
X26241000Y-12759000D01*
X27119528Y-12759000D01*
X27204233Y-12606761D01*
X27077664Y-12381429D01*
X26778858Y-12116374D01*
X26672420Y-12079569D01*
X26785268Y-12004167D01*
X26812775Y-11963000D01*
X29187225Y-11963000D01*
X29214732Y-12004167D01*
X29327580Y-12079569D01*
X29221142Y-12116374D01*
X28922336Y-12381429D01*
X28795767Y-12606761D01*
X28880472Y-12759000D01*
X29759000Y-12759000D01*
X29759000Y-12739000D01*
X30241000Y-12739000D01*
X30241000Y-12759000D01*
X30261000Y-12759000D01*
X30261000Y-13241000D01*
X30241000Y-13241000D01*
X30241000Y-13893223D01*
X30401365Y-14014157D01*
X30778858Y-13883626D01*
X31037000Y-13654642D01*
X31037000Y-14500000D01*
X31056904Y-14600062D01*
X31072244Y-14677183D01*
X31172610Y-14827390D01*
X31672610Y-15327391D01*
X31822818Y-15427756D01*
X32000000Y-15463000D01*
X36100000Y-15463000D01*
X36247786Y-15433603D01*
X36277183Y-15427756D01*
X36427390Y-15327390D01*
X37137608Y-14617172D01*
X38400000Y-14617172D01*
X38478933Y-14602320D01*
X38551428Y-14555671D01*
X38600062Y-14484492D01*
X38617172Y-14400000D01*
X38617172Y-14313103D01*
X38661006Y-14313141D01*
X38959926Y-14189630D01*
X39188826Y-13961129D01*
X39312859Y-13662425D01*
X39313093Y-13393239D01*
X39795767Y-13393239D01*
X39922336Y-13618571D01*
X40221142Y-13883626D01*
X40598635Y-14014157D01*
X40759000Y-13893223D01*
X40759000Y-13241000D01*
X41241000Y-13241000D01*
X41241000Y-13893223D01*
X41401365Y-14014157D01*
X41778858Y-13883626D01*
X42077664Y-13618571D01*
X42204233Y-13393239D01*
X42119528Y-13241000D01*
X41241000Y-13241000D01*
X40759000Y-13241000D01*
X39880472Y-13241000D01*
X39795767Y-13393239D01*
X39313093Y-13393239D01*
X39313141Y-13338994D01*
X39189630Y-13040074D01*
X38961129Y-12811174D01*
X38662425Y-12687141D01*
X38617172Y-12687102D01*
X38617172Y-12600000D01*
X38602320Y-12521067D01*
X38555671Y-12448572D01*
X38484492Y-12399938D01*
X38400000Y-12382828D01*
X37964140Y-12382828D01*
X37964140Y-11922306D01*
X37972297Y-11927756D01*
X38001694Y-11933603D01*
X38149480Y-11963000D01*
X40187225Y-11963000D01*
X40214732Y-12004167D01*
X40327580Y-12079569D01*
X40221142Y-12116374D01*
X39922336Y-12381429D01*
X39795767Y-12606761D01*
X39880472Y-12759000D01*
X40759000Y-12759000D01*
X40759000Y-12739000D01*
X41241000Y-12739000D01*
X41241000Y-12759000D01*
X42119528Y-12759000D01*
X42204233Y-12606761D01*
X42077664Y-12381429D01*
X41778858Y-12116374D01*
X41672420Y-12079569D01*
X41785268Y-12004167D01*
X41939827Y-11772853D01*
X41994101Y-11500000D01*
X41939827Y-11227147D01*
X41785268Y-10995833D01*
X41553954Y-10841274D01*
X41281101Y-10787000D01*
X40718899Y-10787000D01*
X40446046Y-10841274D01*
X40214732Y-10995833D01*
X40187225Y-11037000D01*
X38341261Y-11037000D01*
X38218692Y-10914431D01*
X38218692Y-10101090D01*
X38203840Y-10022157D01*
X38189583Y-10000000D01*
X40005899Y-10000000D01*
X40060173Y-10272853D01*
X40214732Y-10504167D01*
X40446046Y-10658726D01*
X40718899Y-10713000D01*
X41281101Y-10713000D01*
X41553954Y-10658726D01*
X41785268Y-10504167D01*
X41939827Y-10272853D01*
X41994101Y-10000000D01*
X41939827Y-9727147D01*
X41785268Y-9495833D01*
X41553954Y-9341274D01*
X41281101Y-9287000D01*
X40718899Y-9287000D01*
X40446046Y-9341274D01*
X40214732Y-9495833D01*
X40060173Y-9727147D01*
X40005899Y-10000000D01*
X38189583Y-10000000D01*
X38157191Y-9949662D01*
X38086012Y-9901028D01*
X38001520Y-9883918D01*
X37000760Y-9883918D01*
X36921827Y-9898770D01*
X36904419Y-9909972D01*
X37133503Y-9566927D01*
X37150918Y-9555721D01*
X37199552Y-9484542D01*
X37216662Y-9400050D01*
X37216662Y-9384379D01*
X37217849Y-9380650D01*
X37216662Y-9373824D01*
X37216662Y-6601594D01*
X38986911Y-6601594D01*
X39064846Y-6790211D01*
X39162000Y-6887534D01*
X39162000Y-8000000D01*
X39187729Y-8129347D01*
X39260998Y-8239002D01*
X39760998Y-8739002D01*
X39870653Y-8812271D01*
X40000000Y-8838000D01*
X40103703Y-8838000D01*
X40214732Y-9004167D01*
X40446046Y-9158726D01*
X40718899Y-9213000D01*
X41281101Y-9213000D01*
X41553954Y-9158726D01*
X41785268Y-9004167D01*
X41939827Y-8772853D01*
X41994101Y-8500000D01*
X41939827Y-8227147D01*
X41785268Y-7995833D01*
X41553954Y-7841274D01*
X41281101Y-7787000D01*
X40718899Y-7787000D01*
X40446046Y-7841274D01*
X40214732Y-7995833D01*
X40118243Y-8140239D01*
X39838000Y-7859996D01*
X39838000Y-7000000D01*
X40005899Y-7000000D01*
X40060173Y-7272853D01*
X40214732Y-7504167D01*
X40446046Y-7658726D01*
X40718899Y-7713000D01*
X41281101Y-7713000D01*
X41553954Y-7658726D01*
X41785268Y-7504167D01*
X41939827Y-7272853D01*
X41994101Y-7000000D01*
X41939827Y-6727147D01*
X41785268Y-6495833D01*
X41553954Y-6341274D01*
X41281101Y-6287000D01*
X40718899Y-6287000D01*
X40446046Y-6341274D01*
X40214732Y-6495833D01*
X40060173Y-6727147D01*
X40005899Y-7000000D01*
X39838000Y-7000000D01*
X39838000Y-6887448D01*
X39934646Y-6790970D01*
X40012910Y-6602490D01*
X40013089Y-6398406D01*
X39935154Y-6209789D01*
X39790970Y-6065354D01*
X39602490Y-5987090D01*
X39398406Y-5986911D01*
X39209789Y-6064846D01*
X39065354Y-6209030D01*
X38987090Y-6397510D01*
X38986911Y-6601594D01*
X37216662Y-6601594D01*
X37216662Y-6400310D01*
X37201810Y-6321377D01*
X37155161Y-6248882D01*
X37083982Y-6200248D01*
X37059492Y-6195289D01*
X37137609Y-6117172D01*
X38400000Y-6117172D01*
X38478933Y-6102320D01*
X38551428Y-6055671D01*
X38600062Y-5984492D01*
X38617172Y-5900000D01*
X38617172Y-5500000D01*
X40005899Y-5500000D01*
X40060173Y-5772853D01*
X40214732Y-6004167D01*
X40446046Y-6158726D01*
X40718899Y-6213000D01*
X41281101Y-6213000D01*
X41553954Y-6158726D01*
X41785268Y-6004167D01*
X41939827Y-5772853D01*
X41994101Y-5500000D01*
X41939827Y-5227147D01*
X41785268Y-4995833D01*
X41553954Y-4841274D01*
X41281101Y-4787000D01*
X40718899Y-4787000D01*
X40446046Y-4841274D01*
X40214732Y-4995833D01*
X40060173Y-5227147D01*
X40005899Y-5500000D01*
X38617172Y-5500000D01*
X38617172Y-4100000D01*
X38602320Y-4021067D01*
X38555671Y-3948572D01*
X38484492Y-3899938D01*
X38400000Y-3882828D01*
X36800000Y-3882828D01*
X36721067Y-3897680D01*
X36648572Y-3944329D01*
X36599938Y-4015508D01*
X36582828Y-4100000D01*
X36582828Y-5362391D01*
X35762082Y-6183138D01*
X35646646Y-6183138D01*
X35721000Y-6003634D01*
X35721000Y-5371250D01*
X35590750Y-5241000D01*
X34641000Y-5241000D01*
X34641000Y-6290750D01*
X34771250Y-6421000D01*
X34783338Y-6421000D01*
X34783338Y-9400050D01*
X34785959Y-9413980D01*
X34785943Y-9415490D01*
X34786498Y-9416844D01*
X34798190Y-9478983D01*
X34844839Y-9551478D01*
X34865698Y-9565730D01*
X34875287Y-9580090D01*
X34870110Y-9580090D01*
X34739860Y-9710340D01*
X34739860Y-10610660D01*
X34759860Y-10610660D01*
X34759860Y-11092660D01*
X34739860Y-11092660D01*
X34739860Y-11992980D01*
X34825880Y-12079000D01*
X34771250Y-12079000D01*
X34641000Y-12209250D01*
X34641000Y-13259000D01*
X35590750Y-13259000D01*
X35721000Y-13128750D01*
X35721000Y-12496366D01*
X35641682Y-12304877D01*
X35495122Y-12158317D01*
X35303633Y-12079000D01*
X35209654Y-12079000D01*
X35294362Y-12043913D01*
X35440922Y-11897353D01*
X35475254Y-11814468D01*
X35499620Y-11819402D01*
X35662000Y-11819402D01*
X35662000Y-11851660D01*
X35687729Y-11981007D01*
X35760998Y-12090662D01*
X35870653Y-12163931D01*
X36000000Y-12189660D01*
X36129347Y-12163931D01*
X36239002Y-12090662D01*
X36312271Y-11981007D01*
X36338000Y-11851660D01*
X36338000Y-11819402D01*
X36500380Y-11819402D01*
X36579313Y-11804550D01*
X36651808Y-11757901D01*
X36700442Y-11686722D01*
X36717552Y-11602230D01*
X36717552Y-10891949D01*
X36783588Y-10732917D01*
X36783588Y-11602230D01*
X36798440Y-11681163D01*
X36845089Y-11753658D01*
X36916268Y-11802292D01*
X37000760Y-11819402D01*
X37038140Y-11819402D01*
X37038140Y-12382828D01*
X36800000Y-12382828D01*
X36721067Y-12397680D01*
X36648572Y-12444329D01*
X36599938Y-12515508D01*
X36582828Y-12600000D01*
X36582828Y-13862391D01*
X35908220Y-14537000D01*
X35707179Y-14537000D01*
X35721000Y-14503634D01*
X35721000Y-13871250D01*
X35590750Y-13741000D01*
X34641000Y-13741000D01*
X34641000Y-13761000D01*
X34159000Y-13761000D01*
X34159000Y-13741000D01*
X33209250Y-13741000D01*
X33079000Y-13871250D01*
X33079000Y-14503634D01*
X33092821Y-14537000D01*
X32191781Y-14537000D01*
X31963000Y-14308220D01*
X31963000Y-12496366D01*
X33079000Y-12496366D01*
X33079000Y-13128750D01*
X33209250Y-13259000D01*
X34159000Y-13259000D01*
X34159000Y-12209250D01*
X34072980Y-12123230D01*
X34127610Y-12123230D01*
X34257860Y-11992980D01*
X34257860Y-11092660D01*
X33607730Y-11092660D01*
X33477480Y-11222910D01*
X33477480Y-11705864D01*
X33556798Y-11897353D01*
X33703358Y-12043913D01*
X33788066Y-12079000D01*
X33496367Y-12079000D01*
X33304878Y-12158317D01*
X33158318Y-12304877D01*
X33079000Y-12496366D01*
X31963000Y-12496366D01*
X31963000Y-12000000D01*
X31927756Y-11822818D01*
X31827391Y-11672610D01*
X31327390Y-11172610D01*
X31177183Y-11072244D01*
X31147786Y-11066397D01*
X31000000Y-11037000D01*
X30812775Y-11037000D01*
X30785268Y-10995833D01*
X30553954Y-10841274D01*
X30281101Y-10787000D01*
X29718899Y-10787000D01*
X29446046Y-10841274D01*
X29214732Y-10995833D01*
X29187225Y-11037000D01*
X26812775Y-11037000D01*
X26785268Y-10995833D01*
X26553954Y-10841274D01*
X26281101Y-10787000D01*
X25718899Y-10787000D01*
X25446046Y-10841274D01*
X25214732Y-10995833D01*
X25189050Y-11034269D01*
X24963000Y-10808220D01*
X24963000Y-10500000D01*
X24927756Y-10322818D01*
X24916064Y-10305319D01*
X24827391Y-10172610D01*
X24327390Y-9672610D01*
X24177183Y-9572244D01*
X24147786Y-9566397D01*
X24000000Y-9537000D01*
X22191781Y-9537000D01*
X21963000Y-9308220D01*
X21963000Y-9000000D01*
X21927756Y-8822818D01*
X21920709Y-8812271D01*
X21827391Y-8672610D01*
X21327390Y-8172610D01*
X21177183Y-8072244D01*
X21147786Y-8066397D01*
X21000000Y-8037000D01*
X20812775Y-8037000D01*
X20785268Y-7995833D01*
X20672420Y-7920431D01*
X20778858Y-7883626D01*
X21077664Y-7618571D01*
X21204233Y-7393239D01*
X21119528Y-7241000D01*
X20241000Y-7241000D01*
X20241000Y-7261000D01*
X19759000Y-7261000D01*
X19759000Y-7241000D01*
X18880472Y-7241000D01*
X18795767Y-7393239D01*
X18922336Y-7618571D01*
X19221142Y-7883626D01*
X19327580Y-7920431D01*
X19214732Y-7995833D01*
X19187225Y-8037000D01*
X16812775Y-8037000D01*
X16785268Y-7995833D01*
X16672420Y-7920431D01*
X16778858Y-7883626D01*
X17077664Y-7618571D01*
X17204233Y-7393239D01*
X17119528Y-7241000D01*
X16241000Y-7241000D01*
X16241000Y-7261000D01*
X15759000Y-7261000D01*
X15759000Y-7241000D01*
X15739000Y-7241000D01*
X15739000Y-6759000D01*
X15759000Y-6759000D01*
X15759000Y-6106777D01*
X16241000Y-6106777D01*
X16241000Y-6759000D01*
X17119528Y-6759000D01*
X17204233Y-6606761D01*
X18795767Y-6606761D01*
X18880472Y-6759000D01*
X19759000Y-6759000D01*
X19759000Y-6106777D01*
X20241000Y-6106777D01*
X20241000Y-6759000D01*
X21119528Y-6759000D01*
X21204233Y-6606761D01*
X21077664Y-6381429D01*
X20778858Y-6116374D01*
X20401365Y-5985843D01*
X20241000Y-6106777D01*
X19759000Y-6106777D01*
X19598635Y-5985843D01*
X19221142Y-6116374D01*
X18922336Y-6381429D01*
X18795767Y-6606761D01*
X17204233Y-6606761D01*
X17077664Y-6381429D01*
X16778858Y-6116374D01*
X16401365Y-5985843D01*
X16241000Y-6106777D01*
X15759000Y-6106777D01*
X15598635Y-5985843D01*
X15221142Y-6116374D01*
X14963000Y-6345358D01*
X14963000Y-5500000D01*
X14927756Y-5322818D01*
X14915768Y-5304877D01*
X14827391Y-5172610D01*
X14327390Y-4672610D01*
X14177183Y-4572244D01*
X14147786Y-4566397D01*
X14000000Y-4537000D01*
X9900000Y-4537000D01*
X9752214Y-4566397D01*
X9722817Y-4572244D01*
X9572609Y-4672610D01*
X8862391Y-5382828D01*
X7600000Y-5382828D01*
X7521067Y-5397680D01*
X7448572Y-5444329D01*
X7399938Y-5515508D01*
X7382828Y-5600000D01*
X7382828Y-5686897D01*
X7338994Y-5686859D01*
X7040074Y-5810370D01*
X6811174Y-6038871D01*
X6687141Y-6337575D01*
X6686859Y-6661006D01*
X6810370Y-6959926D01*
X7038871Y-7188826D01*
X7337575Y-7312859D01*
X7382828Y-7312898D01*
X7382828Y-7400000D01*
X7397680Y-7478933D01*
X7444329Y-7551428D01*
X7515508Y-7600062D01*
X7600000Y-7617172D01*
X8035860Y-7617172D01*
X8035860Y-8077694D01*
X8027703Y-8072244D01*
X7998306Y-8066397D01*
X7850520Y-8037000D01*
X5812775Y-8037000D01*
X5785268Y-7995833D01*
X5672420Y-7920431D01*
X5778858Y-7883626D01*
X6077664Y-7618571D01*
X6204233Y-7393239D01*
X6119528Y-7241000D01*
X5241000Y-7241000D01*
X5241000Y-7261000D01*
X4759000Y-7261000D01*
X4759000Y-7241000D01*
X3880472Y-7241000D01*
X3795767Y-7393239D01*
X812159Y-7393239D01*
X968599Y-6606761D01*
X3795767Y-6606761D01*
X3880472Y-6759000D01*
X4759000Y-6759000D01*
X4759000Y-6106777D01*
X5241000Y-6106777D01*
X5241000Y-6759000D01*
X6119528Y-6759000D01*
X6204233Y-6606761D01*
X6077664Y-6381429D01*
X5778858Y-6116374D01*
X5401365Y-5985843D01*
X5241000Y-6106777D01*
X4759000Y-6106777D01*
X4598635Y-5985843D01*
X4221142Y-6116374D01*
X3922336Y-6381429D01*
X3795767Y-6606761D01*
X968599Y-6606761D01*
X1032495Y-6285538D01*
X3136570Y-3136567D01*
X6285539Y-1032495D01*
X9313460Y-430203D01*
X9030931Y-546942D01*
X8548636Y-1028396D01*
X8287298Y-1657768D01*
X8286703Y-2339242D01*
X8546942Y-2969069D01*
X9028396Y-3451364D01*
X9657768Y-3712702D01*
X10339242Y-3713297D01*
X10969069Y-3453058D01*
X11451364Y-2971604D01*
X11712702Y-2342232D01*
X11713297Y-1660758D01*
X11453058Y-1030931D01*
X10971604Y-548636D01*
X10343923Y-288000D01*
X14657619Y-288000D01*
X14030931Y-546942D01*
X14030931Y-546942D01*
G37*
X14030931Y-546942D02*
X13548636Y-1028396D01*
X13287298Y-1657768D01*
X13286703Y-2339242D01*
X13546942Y-2969069D01*
X14028396Y-3451364D01*
X14657768Y-3712702D01*
X15339242Y-3713297D01*
X15969069Y-3453058D01*
X16451364Y-2971604D01*
X16712702Y-2342232D01*
X16713297Y-1660758D01*
X16453058Y-1030931D01*
X15971604Y-548636D01*
X15343923Y-288000D01*
X19657619Y-288000D01*
X19030931Y-546942D01*
X18548636Y-1028396D01*
X18287298Y-1657768D01*
X18286703Y-2339242D01*
X18546942Y-2969069D01*
X19028396Y-3451364D01*
X19657768Y-3712702D01*
X20339242Y-3713297D01*
X20969069Y-3453058D01*
X21451364Y-2971604D01*
X21712000Y-2343923D01*
X21712000Y-7000000D01*
X21717534Y-7027821D01*
X21717534Y-7056186D01*
X21793654Y-7438869D01*
X21836657Y-7542687D01*
X22053430Y-7867111D01*
X22132889Y-7946570D01*
X22457313Y-8163343D01*
X22561131Y-8206346D01*
X22943812Y-8282466D01*
X23056186Y-8282466D01*
X23438869Y-8206346D01*
X23542687Y-8163343D01*
X23867111Y-7946570D01*
X23946570Y-7867111D01*
X24163343Y-7542687D01*
X24206346Y-7438869D01*
X24282466Y-7056186D01*
X24282466Y-7027821D01*
X24288000Y-7000000D01*
X25005899Y-7000000D01*
X25060173Y-7272853D01*
X25214732Y-7504167D01*
X25446046Y-7658726D01*
X25718899Y-7713000D01*
X26281101Y-7713000D01*
X26553954Y-7658726D01*
X26785268Y-7504167D01*
X26896297Y-7338000D01*
X29103703Y-7338000D01*
X29214732Y-7504167D01*
X29446046Y-7658726D01*
X29718899Y-7713000D01*
X30281101Y-7713000D01*
X30315922Y-7706074D01*
X30234996Y-7787000D01*
X29718899Y-7787000D01*
X29446046Y-7841274D01*
X29214732Y-7995833D01*
X29103703Y-8162000D01*
X26896297Y-8162000D01*
X26785268Y-7995833D01*
X26553954Y-7841274D01*
X26281101Y-7787000D01*
X25718899Y-7787000D01*
X25446046Y-7841274D01*
X25214732Y-7995833D01*
X25060173Y-8227147D01*
X25005899Y-8500000D01*
X25060173Y-8772853D01*
X25214732Y-9004167D01*
X25446046Y-9158726D01*
X25718899Y-9213000D01*
X26281101Y-9213000D01*
X26553954Y-9158726D01*
X26785268Y-9004167D01*
X26896297Y-8838000D01*
X29103703Y-8838000D01*
X29214732Y-9004167D01*
X29446046Y-9158726D01*
X29718899Y-9213000D01*
X30281101Y-9213000D01*
X30315922Y-9206074D01*
X30234996Y-9287000D01*
X29718899Y-9287000D01*
X29446046Y-9341274D01*
X29214732Y-9495833D01*
X29103703Y-9662000D01*
X26896297Y-9662000D01*
X26785268Y-9495833D01*
X26553954Y-9341274D01*
X26281101Y-9287000D01*
X25718899Y-9287000D01*
X25446046Y-9341274D01*
X25214732Y-9495833D01*
X25060173Y-9727147D01*
X25005899Y-10000000D01*
X25060173Y-10272853D01*
X25214732Y-10504167D01*
X25446046Y-10658726D01*
X25718899Y-10713000D01*
X26281101Y-10713000D01*
X26553954Y-10658726D01*
X26785268Y-10504167D01*
X26896297Y-10338000D01*
X29103703Y-10338000D01*
X29214732Y-10504167D01*
X29446046Y-10658726D01*
X29718899Y-10713000D01*
X30281101Y-10713000D01*
X30553954Y-10658726D01*
X30785268Y-10504167D01*
X30939827Y-10272853D01*
X30994101Y-10000000D01*
X30993595Y-9997456D01*
X33477480Y-9997456D01*
X33477480Y-10480410D01*
X33607730Y-10610660D01*
X34257860Y-10610660D01*
X34257860Y-9710340D01*
X34127610Y-9580090D01*
X33894847Y-9580090D01*
X33703358Y-9659407D01*
X33556798Y-9805967D01*
X33477480Y-9997456D01*
X30993595Y-9997456D01*
X30939827Y-9727147D01*
X30864136Y-9613868D01*
X32739002Y-7739002D01*
X32812271Y-7629347D01*
X32838000Y-7500000D01*
X32838000Y-7387448D01*
X32934646Y-7290970D01*
X33012910Y-7102490D01*
X33013089Y-6898406D01*
X32935154Y-6709789D01*
X32790970Y-6565354D01*
X32602490Y-6487090D01*
X32398406Y-6486911D01*
X32209789Y-6564846D01*
X32065354Y-6709030D01*
X31987090Y-6897510D01*
X31986911Y-7101594D01*
X32064846Y-7290211D01*
X32148243Y-7373753D01*
X30987175Y-8534821D01*
X30994101Y-8500000D01*
X30939827Y-8227147D01*
X30864136Y-8113868D01*
X31739002Y-7239002D01*
X31812271Y-7129347D01*
X31838000Y-7000000D01*
X31838000Y-6887448D01*
X31934646Y-6790970D01*
X32012910Y-6602490D01*
X32013089Y-6398406D01*
X31935154Y-6209789D01*
X31790970Y-6065354D01*
X31602490Y-5987090D01*
X31398406Y-5986911D01*
X31209789Y-6064846D01*
X31065354Y-6209030D01*
X30987090Y-6397510D01*
X30986911Y-6601594D01*
X31064846Y-6790211D01*
X31148243Y-6873753D01*
X30987175Y-7034821D01*
X30994101Y-7000000D01*
X30939827Y-6727147D01*
X30785268Y-6495833D01*
X30553954Y-6341274D01*
X30281101Y-6287000D01*
X29718899Y-6287000D01*
X29446046Y-6341274D01*
X29214732Y-6495833D01*
X29103703Y-6662000D01*
X26896297Y-6662000D01*
X26785268Y-6495833D01*
X26553954Y-6341274D01*
X26281101Y-6287000D01*
X25718899Y-6287000D01*
X25446046Y-6341274D01*
X25214732Y-6495833D01*
X25060173Y-6727147D01*
X25005899Y-7000000D01*
X24288000Y-7000000D01*
X24288000Y-5500000D01*
X25005899Y-5500000D01*
X25060173Y-5772853D01*
X25214732Y-6004167D01*
X25446046Y-6158726D01*
X25718899Y-6213000D01*
X26281101Y-6213000D01*
X26553954Y-6158726D01*
X26785268Y-6004167D01*
X26896297Y-5838000D01*
X29103703Y-5838000D01*
X29214732Y-6004167D01*
X29446046Y-6158726D01*
X29718899Y-6213000D01*
X30281101Y-6213000D01*
X30553954Y-6158726D01*
X30785268Y-6004167D01*
X30939827Y-5772853D01*
X30994101Y-5500000D01*
X30968491Y-5371250D01*
X33079000Y-5371250D01*
X33079000Y-6003634D01*
X33158318Y-6195123D01*
X33304878Y-6341683D01*
X33496367Y-6421000D01*
X34028750Y-6421000D01*
X34159000Y-6290750D01*
X34159000Y-5241000D01*
X33209250Y-5241000D01*
X33079000Y-5371250D01*
X30968491Y-5371250D01*
X30939827Y-5227147D01*
X30785268Y-4995833D01*
X30553954Y-4841274D01*
X30281101Y-4787000D01*
X29718899Y-4787000D01*
X29446046Y-4841274D01*
X29214732Y-4995833D01*
X29103703Y-5162000D01*
X26896297Y-5162000D01*
X26785268Y-4995833D01*
X26553954Y-4841274D01*
X26281101Y-4787000D01*
X25718899Y-4787000D01*
X25446046Y-4841274D01*
X25214732Y-4995833D01*
X25060173Y-5227147D01*
X25005899Y-5500000D01*
X24288000Y-5500000D01*
X24288000Y-3996366D01*
X33079000Y-3996366D01*
X33079000Y-4628750D01*
X33209250Y-4759000D01*
X34159000Y-4759000D01*
X34159000Y-3709250D01*
X34641000Y-3709250D01*
X34641000Y-4759000D01*
X35590750Y-4759000D01*
X35721000Y-4628750D01*
X35721000Y-3996366D01*
X35641682Y-3804877D01*
X35495122Y-3658317D01*
X35303633Y-3579000D01*
X34771250Y-3579000D01*
X34641000Y-3709250D01*
X34159000Y-3709250D01*
X34028750Y-3579000D01*
X33496367Y-3579000D01*
X33304878Y-3658317D01*
X33158318Y-3804877D01*
X33079000Y-3996366D01*
X24288000Y-3996366D01*
X24288000Y-2342381D01*
X24546942Y-2969069D01*
X25028396Y-3451364D01*
X25657768Y-3712702D01*
X26339242Y-3713297D01*
X26969069Y-3453058D01*
X27451364Y-2971604D01*
X27712702Y-2342232D01*
X27713297Y-1660758D01*
X27453058Y-1030931D01*
X26971604Y-548636D01*
X26343923Y-288000D01*
X30657619Y-288000D01*
X30030931Y-546942D01*
X29548636Y-1028396D01*
X29287298Y-1657768D01*
X29286703Y-2339242D01*
X29546942Y-2969069D01*
X30028396Y-3451364D01*
X30657768Y-3712702D01*
X31339242Y-3713297D01*
X31969069Y-3453058D01*
X32451364Y-2971604D01*
X32712702Y-2342232D01*
X32713297Y-1660758D01*
X32453058Y-1030931D01*
X31971604Y-548636D01*
X31343923Y-288000D01*
X35657619Y-288000D01*
X35030931Y-546942D01*
X34548636Y-1028396D01*
X34287298Y-1657768D01*
X34286703Y-2339242D01*
X34546942Y-2969069D01*
X35028396Y-3451364D01*
X35657768Y-3712702D01*
X36339242Y-3713297D01*
X36969069Y-3453058D01*
X37451364Y-2971604D01*
X37712702Y-2342232D01*
X37713297Y-1660758D01*
X37453058Y-1030931D01*
X36971604Y-548636D01*
X36686246Y-430145D01*
X39714462Y-1032495D01*
X42863433Y-3136570D01*
X44967505Y-6285539D01*
X45706358Y-10000000D01*
X44967505Y-13714461D01*
X42863433Y-16863430D01*
X39714462Y-18967505D01*
X36686540Y-19569797D01*
X36969069Y-19453058D01*
X37451364Y-18971604D01*
X37712702Y-18342232D01*
X37713297Y-17660758D01*
X37453058Y-17030931D01*
X36971604Y-16548636D01*
X36342232Y-16287298D01*
X35660758Y-16286703D01*
X35030931Y-16546942D01*
X34548636Y-17028396D01*
X34287298Y-17657768D01*
X34286703Y-18339242D01*
X34546942Y-18969069D01*
X35028396Y-19451364D01*
X35656077Y-19712000D01*
X31342381Y-19712000D01*
X31969069Y-19453058D01*
X32451364Y-18971604D01*
X32712702Y-18342232D01*
X32713297Y-17660758D01*
X32453058Y-17030931D01*
X31971604Y-16548636D01*
X31342232Y-16287298D01*
X30660758Y-16286703D01*
X30030931Y-16546942D01*
X29548636Y-17028396D01*
X29287298Y-17657768D01*
X29286703Y-18339242D01*
X29546942Y-18969069D01*
X30028396Y-19451364D01*
X30656077Y-19712000D01*
X26342381Y-19712000D01*
X26969069Y-19453058D01*
X27451364Y-18971604D01*
X27712702Y-18342232D01*
X27713297Y-17660758D01*
X27453058Y-17030931D01*
X26971604Y-16548636D01*
X26342232Y-16287298D01*
X25660758Y-16286703D01*
X25030931Y-16546942D01*
X24548636Y-17028396D01*
X24288000Y-17656077D01*
X24288000Y-13393239D01*
X24795767Y-13393239D01*
X24922336Y-13618571D01*
X25221142Y-13883626D01*
X25598635Y-14014157D01*
X25759000Y-13893223D01*
X25759000Y-13241000D01*
X26241000Y-13241000D01*
X26241000Y-13893223D01*
X26401365Y-14014157D01*
X26778858Y-13883626D01*
X27077664Y-13618571D01*
X27204233Y-13393239D01*
X28795767Y-13393239D01*
X28922336Y-13618571D01*
X29221142Y-13883626D01*
X29598635Y-14014157D01*
X29759000Y-13893223D01*
X29759000Y-13241000D01*
X28880472Y-13241000D01*
X28795767Y-13393239D01*
X27204233Y-13393239D01*
X27119528Y-13241000D01*
X26241000Y-13241000D01*
X25759000Y-13241000D01*
X24880472Y-13241000D01*
X24795767Y-13393239D01*
X24288000Y-13393239D01*
X24288000Y-13000000D01*
X24282466Y-12972179D01*
X24282466Y-12943814D01*
X24206346Y-12561131D01*
X24163343Y-12457313D01*
X24163342Y-12457312D01*
X23946570Y-12132889D01*
X23867111Y-12053430D01*
X23542687Y-11836657D01*
X23438869Y-11793654D01*
X23056186Y-11717534D01*
X22943812Y-11717534D01*
X22561131Y-11793654D01*
X22457313Y-11836657D01*
X22132889Y-12053430D01*
X22053430Y-12132889D01*
X21836658Y-12457312D01*
X21836657Y-12457313D01*
X21793654Y-12561131D01*
X21717534Y-12943814D01*
X21717534Y-12972179D01*
X21712000Y-13000000D01*
X21712000Y-17657619D01*
X21453058Y-17030931D01*
X20971604Y-16548636D01*
X20342232Y-16287298D01*
X19660758Y-16286703D01*
X19030931Y-16546942D01*
X18548636Y-17028396D01*
X18287298Y-17657768D01*
X18286703Y-18339242D01*
X18546942Y-18969069D01*
X19028396Y-19451364D01*
X19656077Y-19712000D01*
X15342381Y-19712000D01*
X15969069Y-19453058D01*
X16451364Y-18971604D01*
X16712702Y-18342232D01*
X16713297Y-17660758D01*
X16453058Y-17030931D01*
X15971604Y-16548636D01*
X15342232Y-16287298D01*
X14660758Y-16286703D01*
X14030931Y-16546942D01*
X13548636Y-17028396D01*
X13287298Y-17657768D01*
X13286703Y-18339242D01*
X13546942Y-18969069D01*
X14028396Y-19451364D01*
X14656077Y-19712000D01*
X10342381Y-19712000D01*
X10969069Y-19453058D01*
X11451364Y-18971604D01*
X11712702Y-18342232D01*
X11713297Y-17660758D01*
X11453058Y-17030931D01*
X10971604Y-16548636D01*
X10342232Y-16287298D01*
X9660758Y-16286703D01*
X9030931Y-16546942D01*
X8548636Y-17028396D01*
X8287298Y-17657768D01*
X8286703Y-18339242D01*
X8546942Y-18969069D01*
X9028396Y-19451364D01*
X9313754Y-19569855D01*
X6285539Y-18967505D01*
X3136570Y-16863433D01*
X1557375Y-14500000D01*
X4005899Y-14500000D01*
X4060173Y-14772853D01*
X4214732Y-15004167D01*
X4446046Y-15158726D01*
X4718899Y-15213000D01*
X5281101Y-15213000D01*
X5553954Y-15158726D01*
X5785268Y-15004167D01*
X5939827Y-14772853D01*
X5994101Y-14500000D01*
X5939827Y-14227147D01*
X5785268Y-13995833D01*
X5553954Y-13841274D01*
X5281101Y-13787000D01*
X4718899Y-13787000D01*
X4446046Y-13841274D01*
X4214732Y-13995833D01*
X4060173Y-14227147D01*
X4005899Y-14500000D01*
X1557375Y-14500000D01*
X1032495Y-13714462D01*
X890380Y-13000000D01*
X4005899Y-13000000D01*
X4060173Y-13272853D01*
X4214732Y-13504167D01*
X4446046Y-13658726D01*
X4718899Y-13713000D01*
X5281101Y-13713000D01*
X5553954Y-13658726D01*
X5785268Y-13504167D01*
X5939827Y-13272853D01*
X5994101Y-13000000D01*
X5939827Y-12727147D01*
X5785268Y-12495833D01*
X5553954Y-12341274D01*
X5281101Y-12287000D01*
X4718899Y-12287000D01*
X4446046Y-12341274D01*
X4214732Y-12495833D01*
X4060173Y-12727147D01*
X4005899Y-13000000D01*
X890380Y-13000000D01*
X592011Y-11500000D01*
X4005899Y-11500000D01*
X4060173Y-11772853D01*
X4214732Y-12004167D01*
X4446046Y-12158726D01*
X4718899Y-12213000D01*
X5281101Y-12213000D01*
X5553954Y-12158726D01*
X5785268Y-12004167D01*
X5939827Y-11772853D01*
X5994101Y-11500000D01*
X5939827Y-11227147D01*
X5785268Y-10995833D01*
X5553954Y-10841274D01*
X5281101Y-10787000D01*
X4718899Y-10787000D01*
X4446046Y-10841274D01*
X4214732Y-10995833D01*
X4060173Y-11227147D01*
X4005899Y-11500000D01*
X592011Y-11500000D01*
X293642Y-10000000D01*
X4005899Y-10000000D01*
X4060173Y-10272853D01*
X4214732Y-10504167D01*
X4446046Y-10658726D01*
X4718899Y-10713000D01*
X5281101Y-10713000D01*
X5553954Y-10658726D01*
X5785268Y-10504167D01*
X5939827Y-10272853D01*
X5994101Y-10000000D01*
X5939827Y-9727147D01*
X5785268Y-9495833D01*
X5553954Y-9341274D01*
X5281101Y-9287000D01*
X4718899Y-9287000D01*
X4446046Y-9341274D01*
X4214732Y-9495833D01*
X4060173Y-9727147D01*
X4005899Y-10000000D01*
X293642Y-10000000D01*
X812159Y-7393239D01*
X3795767Y-7393239D01*
X3922336Y-7618571D01*
X4221142Y-7883626D01*
X4327580Y-7920431D01*
X4214732Y-7995833D01*
X4060173Y-8227147D01*
X4005899Y-8500000D01*
X4060173Y-8772853D01*
X4214732Y-9004167D01*
X4446046Y-9158726D01*
X4718899Y-9213000D01*
X5281101Y-9213000D01*
X5553954Y-9158726D01*
X5785268Y-9004167D01*
X5812775Y-8963000D01*
X7658740Y-8963000D01*
X7781308Y-9085568D01*
X7781308Y-9898910D01*
X7796160Y-9977843D01*
X7842809Y-10050338D01*
X7913988Y-10098972D01*
X7998480Y-10116082D01*
X8999240Y-10116082D01*
X9078173Y-10101230D01*
X9095581Y-10090028D01*
X8866497Y-10433073D01*
X8849082Y-10444279D01*
X8800448Y-10515458D01*
X8783338Y-10599950D01*
X8783338Y-10615621D01*
X8782151Y-10619350D01*
X8783338Y-10626176D01*
X8783338Y-13599690D01*
X8798190Y-13678623D01*
X8844839Y-13751118D01*
X8916018Y-13799752D01*
X8940508Y-13804711D01*
X8862392Y-13882828D01*
X7600000Y-13882828D01*
X7521067Y-13897680D01*
X7448572Y-13944329D01*
X7399938Y-14015508D01*
X7382828Y-14100000D01*
X7382828Y-15900000D01*
X7397680Y-15978933D01*
X7444329Y-16051428D01*
X7515508Y-16100062D01*
X7600000Y-16117172D01*
X9200000Y-16117172D01*
X9278933Y-16102320D01*
X9351428Y-16055671D01*
X9400062Y-15984492D01*
X9417172Y-15900000D01*
X9417172Y-15371250D01*
X10279000Y-15371250D01*
X10279000Y-16003634D01*
X10358318Y-16195123D01*
X10504878Y-16341683D01*
X10696367Y-16421000D01*
X11228750Y-16421000D01*
X11359000Y-16290750D01*
X11359000Y-15241000D01*
X11841000Y-15241000D01*
X11841000Y-16290750D01*
X11971250Y-16421000D01*
X12503633Y-16421000D01*
X12695122Y-16341683D01*
X12841682Y-16195123D01*
X12921000Y-16003634D01*
X12921000Y-15371250D01*
X12790750Y-15241000D01*
X11841000Y-15241000D01*
X11359000Y-15241000D01*
X10409250Y-15241000D01*
X10279000Y-15371250D01*
X9417172Y-15371250D01*
X9417172Y-14637608D01*
X10237919Y-13816862D01*
X10353354Y-13816862D01*
X10279000Y-13996366D01*
X10279000Y-14628750D01*
X10409250Y-14759000D01*
X11359000Y-14759000D01*
X11359000Y-13709250D01*
X11841000Y-13709250D01*
X11841000Y-14759000D01*
X12790750Y-14759000D01*
X12921000Y-14628750D01*
X12921000Y-14500000D01*
X15005899Y-14500000D01*
X15060173Y-14772853D01*
X15214732Y-15004167D01*
X15446046Y-15158726D01*
X15718899Y-15213000D01*
X16281101Y-15213000D01*
X16553954Y-15158726D01*
X16785268Y-15004167D01*
X16896297Y-14838000D01*
X19103703Y-14838000D01*
X19214732Y-15004167D01*
X19446046Y-15158726D01*
X19718899Y-15213000D01*
X20281101Y-15213000D01*
X20553954Y-15158726D01*
X20785268Y-15004167D01*
X20939827Y-14772853D01*
X20994101Y-14500000D01*
X20939827Y-14227147D01*
X20785268Y-13995833D01*
X20553954Y-13841274D01*
X20281101Y-13787000D01*
X19718899Y-13787000D01*
X19446046Y-13841274D01*
X19214732Y-13995833D01*
X19103703Y-14162000D01*
X16896297Y-14162000D01*
X16785268Y-13995833D01*
X16553954Y-13841274D01*
X16281101Y-13787000D01*
X15718899Y-13787000D01*
X15446046Y-13841274D01*
X15214732Y-13995833D01*
X15060173Y-14227147D01*
X15005899Y-14500000D01*
X12921000Y-14500000D01*
X12921000Y-13996366D01*
X12841682Y-13804877D01*
X12695122Y-13658317D01*
X12558180Y-13601594D01*
X13486911Y-13601594D01*
X13564846Y-13790211D01*
X13709030Y-13934646D01*
X13897510Y-14012910D01*
X14101594Y-14013089D01*
X14290211Y-13935154D01*
X14434646Y-13790970D01*
X14512910Y-13602490D01*
X14513089Y-13398406D01*
X14435154Y-13209789D01*
X14338000Y-13112466D01*
X14338000Y-13000000D01*
X15005899Y-13000000D01*
X15060173Y-13272853D01*
X15214732Y-13504167D01*
X15446046Y-13658726D01*
X15718899Y-13713000D01*
X16281101Y-13713000D01*
X16553954Y-13658726D01*
X16785268Y-13504167D01*
X16896297Y-13338000D01*
X19103703Y-13338000D01*
X19214732Y-13504167D01*
X19446046Y-13658726D01*
X19718899Y-13713000D01*
X20281101Y-13713000D01*
X20553954Y-13658726D01*
X20785268Y-13504167D01*
X20939827Y-13272853D01*
X20994101Y-13000000D01*
X20939827Y-12727147D01*
X20785268Y-12495833D01*
X20553954Y-12341274D01*
X20281101Y-12287000D01*
X19718899Y-12287000D01*
X19446046Y-12341274D01*
X19214732Y-12495833D01*
X19103703Y-12662000D01*
X16896297Y-12662000D01*
X16785268Y-12495833D01*
X16553954Y-12341274D01*
X16281101Y-12287000D01*
X15718899Y-12287000D01*
X15446046Y-12341274D01*
X15214732Y-12495833D01*
X15060173Y-12727147D01*
X15005899Y-13000000D01*
X14338000Y-13000000D01*
X14338000Y-12140004D01*
X14640004Y-11838000D01*
X15103703Y-11838000D01*
X15214732Y-12004167D01*
X15446046Y-12158726D01*
X15718899Y-12213000D01*
X16281101Y-12213000D01*
X16553954Y-12158726D01*
X16785268Y-12004167D01*
X16896297Y-11838000D01*
X19103703Y-11838000D01*
X19214732Y-12004167D01*
X19446046Y-12158726D01*
X19718899Y-12213000D01*
X20281101Y-12213000D01*
X20553954Y-12158726D01*
X20785268Y-12004167D01*
X20939827Y-11772853D01*
X20994101Y-11500000D01*
X20939827Y-11227147D01*
X20785268Y-10995833D01*
X20553954Y-10841274D01*
X20281101Y-10787000D01*
X19718899Y-10787000D01*
X19446046Y-10841274D01*
X19214732Y-10995833D01*
X19103703Y-11162000D01*
X16896297Y-11162000D01*
X16785268Y-10995833D01*
X16553954Y-10841274D01*
X16281101Y-10787000D01*
X15718899Y-10787000D01*
X15446046Y-10841274D01*
X15214732Y-10995833D01*
X15103703Y-11162000D01*
X14500000Y-11162000D01*
X14370653Y-11187729D01*
X14260998Y-11260998D01*
X13760998Y-11760998D01*
X13687729Y-11870653D01*
X13662000Y-12000000D01*
X13662000Y-13112552D01*
X13565354Y-13209030D01*
X13487090Y-13397510D01*
X13486911Y-13601594D01*
X12558180Y-13601594D01*
X12503633Y-13579000D01*
X11971250Y-13579000D01*
X11841000Y-13709250D01*
X11359000Y-13709250D01*
X11228750Y-13579000D01*
X11216662Y-13579000D01*
X11216662Y-13101594D01*
X12486911Y-13101594D01*
X12564846Y-13290211D01*
X12709030Y-13434646D01*
X12897510Y-13512910D01*
X13101594Y-13513089D01*
X13290211Y-13435154D01*
X13434646Y-13290970D01*
X13512910Y-13102490D01*
X13513089Y-12898406D01*
X13435154Y-12709789D01*
X13338000Y-12612466D01*
X13338000Y-11640004D01*
X14640004Y-10338000D01*
X15103703Y-10338000D01*
X15214732Y-10504167D01*
X15446046Y-10658726D01*
X15718899Y-10713000D01*
X16281101Y-10713000D01*
X16553954Y-10658726D01*
X16785268Y-10504167D01*
X16896297Y-10338000D01*
X19103703Y-10338000D01*
X19214732Y-10504167D01*
X19446046Y-10658726D01*
X19718899Y-10713000D01*
X20281101Y-10713000D01*
X20553954Y-10658726D01*
X20785268Y-10504167D01*
X20939827Y-10272853D01*
X20994101Y-10000000D01*
X20939827Y-9727147D01*
X20785268Y-9495833D01*
X20553954Y-9341274D01*
X20281101Y-9287000D01*
X19718899Y-9287000D01*
X19446046Y-9341274D01*
X19214732Y-9495833D01*
X19103703Y-9662000D01*
X16896297Y-9662000D01*
X16785268Y-9495833D01*
X16553954Y-9341274D01*
X16281101Y-9287000D01*
X15718899Y-9287000D01*
X15446046Y-9341274D01*
X15214732Y-9495833D01*
X15103703Y-9662000D01*
X14500000Y-9662000D01*
X14370653Y-9687729D01*
X14260998Y-9760998D01*
X12760998Y-11260998D01*
X12687729Y-11370653D01*
X12662000Y-11500000D01*
X12662000Y-12612552D01*
X12565354Y-12709030D01*
X12487090Y-12897510D01*
X12486911Y-13101594D01*
X11216662Y-13101594D01*
X11216662Y-10599950D01*
X11214041Y-10586020D01*
X11214057Y-10584510D01*
X11213502Y-10583156D01*
X11201810Y-10521017D01*
X11155161Y-10448522D01*
X11134302Y-10434270D01*
X11124713Y-10419910D01*
X11129890Y-10419910D01*
X11260140Y-10289660D01*
X11260140Y-9389340D01*
X11742140Y-9389340D01*
X11742140Y-10289660D01*
X11872390Y-10419910D01*
X12105153Y-10419910D01*
X12296642Y-10340593D01*
X12443202Y-10194033D01*
X12522520Y-10002544D01*
X12522520Y-9519590D01*
X12392270Y-9389340D01*
X11742140Y-9389340D01*
X11260140Y-9389340D01*
X11240140Y-9389340D01*
X11240140Y-8907340D01*
X11260140Y-8907340D01*
X11260140Y-8007020D01*
X11742140Y-8007020D01*
X11742140Y-8907340D01*
X12392270Y-8907340D01*
X12522520Y-8777090D01*
X12522520Y-8294136D01*
X12443202Y-8102647D01*
X12296642Y-7956087D01*
X12211934Y-7921000D01*
X12503633Y-7921000D01*
X12695122Y-7841683D01*
X12841682Y-7695123D01*
X12921000Y-7503634D01*
X12921000Y-6871250D01*
X12790750Y-6741000D01*
X11841000Y-6741000D01*
X11841000Y-7790750D01*
X11927020Y-7876770D01*
X11872390Y-7876770D01*
X11742140Y-8007020D01*
X11260140Y-8007020D01*
X11174120Y-7921000D01*
X11228750Y-7921000D01*
X11359000Y-7790750D01*
X11359000Y-6741000D01*
X10409250Y-6741000D01*
X10279000Y-6871250D01*
X10279000Y-7503634D01*
X10358318Y-7695123D01*
X10504878Y-7841683D01*
X10696367Y-7921000D01*
X10790346Y-7921000D01*
X10705638Y-7956087D01*
X10559078Y-8102647D01*
X10524746Y-8185532D01*
X10500380Y-8180598D01*
X9499620Y-8180598D01*
X9420687Y-8195450D01*
X9348192Y-8242099D01*
X9299558Y-8313278D01*
X9282448Y-8397770D01*
X9282448Y-8608051D01*
X9216412Y-8767083D01*
X9216412Y-8397770D01*
X9201560Y-8318837D01*
X9154911Y-8246342D01*
X9083732Y-8197708D01*
X8999240Y-8180598D01*
X8961860Y-8180598D01*
X8961860Y-7617172D01*
X9200000Y-7617172D01*
X9278933Y-7602320D01*
X9351428Y-7555671D01*
X9400062Y-7484492D01*
X9417172Y-7400000D01*
X9417172Y-6137608D01*
X10091781Y-5463000D01*
X10292821Y-5463000D01*
X10279000Y-5496366D01*
X10279000Y-6128750D01*
X10409250Y-6259000D01*
X11359000Y-6259000D01*
X11359000Y-6239000D01*
X11841000Y-6239000D01*
X11841000Y-6259000D01*
X12790750Y-6259000D01*
X12921000Y-6128750D01*
X12921000Y-5496366D01*
X12907179Y-5463000D01*
X13808220Y-5463000D01*
X14037000Y-5691781D01*
X14037000Y-8000000D01*
X14053686Y-8083884D01*
X14072244Y-8177183D01*
X14172610Y-8327390D01*
X14672610Y-8827391D01*
X14792263Y-8907340D01*
X14822818Y-8927756D01*
X15000000Y-8963000D01*
X15187225Y-8963000D01*
X15214732Y-9004167D01*
X15446046Y-9158726D01*
X15718899Y-9213000D01*
X16281101Y-9213000D01*
X16553954Y-9158726D01*
X16785268Y-9004167D01*
X16812775Y-8963000D01*
X19187225Y-8963000D01*
X19214732Y-9004167D01*
X19446046Y-9158726D01*
X19718899Y-9213000D01*
X20281101Y-9213000D01*
X20553954Y-9158726D01*
X20785268Y-9004167D01*
X20810950Y-8965731D01*
X21037000Y-9191781D01*
X21037000Y-9500000D01*
X21052137Y-9576096D01*
X21072244Y-9677183D01*
X21172610Y-9827390D01*
X21672610Y-10327391D01*
X21822818Y-10427756D01*
X22000000Y-10463000D01*
X23808220Y-10463000D01*
X24037000Y-10691781D01*
X24037000Y-11000000D01*
X24062729Y-11129347D01*
X24072244Y-11177183D01*
X24172610Y-11327390D01*
X24672610Y-11827391D01*
X24822818Y-11927756D01*
X25000000Y-11963000D01*
X25187225Y-11963000D01*
X25214732Y-12004167D01*
X25327580Y-12079569D01*
X25221142Y-12116374D01*
X24922336Y-12381429D01*
X24795767Y-12606761D01*
X24880472Y-12759000D01*
X25759000Y-12759000D01*
X25759000Y-12739000D01*
X26241000Y-12739000D01*
X26241000Y-12759000D01*
X27119528Y-12759000D01*
X27204233Y-12606761D01*
X27077664Y-12381429D01*
X26778858Y-12116374D01*
X26672420Y-12079569D01*
X26785268Y-12004167D01*
X26812775Y-11963000D01*
X29187225Y-11963000D01*
X29214732Y-12004167D01*
X29327580Y-12079569D01*
X29221142Y-12116374D01*
X28922336Y-12381429D01*
X28795767Y-12606761D01*
X28880472Y-12759000D01*
X29759000Y-12759000D01*
X29759000Y-12739000D01*
X30241000Y-12739000D01*
X30241000Y-12759000D01*
X30261000Y-12759000D01*
X30261000Y-13241000D01*
X30241000Y-13241000D01*
X30241000Y-13893223D01*
X30401365Y-14014157D01*
X30778858Y-13883626D01*
X31037000Y-13654642D01*
X31037000Y-14500000D01*
X31056904Y-14600062D01*
X31072244Y-14677183D01*
X31172610Y-14827390D01*
X31672610Y-15327391D01*
X31822818Y-15427756D01*
X32000000Y-15463000D01*
X36100000Y-15463000D01*
X36247786Y-15433603D01*
X36277183Y-15427756D01*
X36427390Y-15327390D01*
X37137608Y-14617172D01*
X38400000Y-14617172D01*
X38478933Y-14602320D01*
X38551428Y-14555671D01*
X38600062Y-14484492D01*
X38617172Y-14400000D01*
X38617172Y-14313103D01*
X38661006Y-14313141D01*
X38959926Y-14189630D01*
X39188826Y-13961129D01*
X39312859Y-13662425D01*
X39313093Y-13393239D01*
X39795767Y-13393239D01*
X39922336Y-13618571D01*
X40221142Y-13883626D01*
X40598635Y-14014157D01*
X40759000Y-13893223D01*
X40759000Y-13241000D01*
X41241000Y-13241000D01*
X41241000Y-13893223D01*
X41401365Y-14014157D01*
X41778858Y-13883626D01*
X42077664Y-13618571D01*
X42204233Y-13393239D01*
X42119528Y-13241000D01*
X41241000Y-13241000D01*
X40759000Y-13241000D01*
X39880472Y-13241000D01*
X39795767Y-13393239D01*
X39313093Y-13393239D01*
X39313141Y-13338994D01*
X39189630Y-13040074D01*
X38961129Y-12811174D01*
X38662425Y-12687141D01*
X38617172Y-12687102D01*
X38617172Y-12600000D01*
X38602320Y-12521067D01*
X38555671Y-12448572D01*
X38484492Y-12399938D01*
X38400000Y-12382828D01*
X37964140Y-12382828D01*
X37964140Y-11922306D01*
X37972297Y-11927756D01*
X38001694Y-11933603D01*
X38149480Y-11963000D01*
X40187225Y-11963000D01*
X40214732Y-12004167D01*
X40327580Y-12079569D01*
X40221142Y-12116374D01*
X39922336Y-12381429D01*
X39795767Y-12606761D01*
X39880472Y-12759000D01*
X40759000Y-12759000D01*
X40759000Y-12739000D01*
X41241000Y-12739000D01*
X41241000Y-12759000D01*
X42119528Y-12759000D01*
X42204233Y-12606761D01*
X42077664Y-12381429D01*
X41778858Y-12116374D01*
X41672420Y-12079569D01*
X41785268Y-12004167D01*
X41939827Y-11772853D01*
X41994101Y-11500000D01*
X41939827Y-11227147D01*
X41785268Y-10995833D01*
X41553954Y-10841274D01*
X41281101Y-10787000D01*
X40718899Y-10787000D01*
X40446046Y-10841274D01*
X40214732Y-10995833D01*
X40187225Y-11037000D01*
X38341261Y-11037000D01*
X38218692Y-10914431D01*
X38218692Y-10101090D01*
X38203840Y-10022157D01*
X38189583Y-10000000D01*
X40005899Y-10000000D01*
X40060173Y-10272853D01*
X40214732Y-10504167D01*
X40446046Y-10658726D01*
X40718899Y-10713000D01*
X41281101Y-10713000D01*
X41553954Y-10658726D01*
X41785268Y-10504167D01*
X41939827Y-10272853D01*
X41994101Y-10000000D01*
X41939827Y-9727147D01*
X41785268Y-9495833D01*
X41553954Y-9341274D01*
X41281101Y-9287000D01*
X40718899Y-9287000D01*
X40446046Y-9341274D01*
X40214732Y-9495833D01*
X40060173Y-9727147D01*
X40005899Y-10000000D01*
X38189583Y-10000000D01*
X38157191Y-9949662D01*
X38086012Y-9901028D01*
X38001520Y-9883918D01*
X37000760Y-9883918D01*
X36921827Y-9898770D01*
X36904419Y-9909972D01*
X37133503Y-9566927D01*
X37150918Y-9555721D01*
X37199552Y-9484542D01*
X37216662Y-9400050D01*
X37216662Y-9384379D01*
X37217849Y-9380650D01*
X37216662Y-9373824D01*
X37216662Y-6601594D01*
X38986911Y-6601594D01*
X39064846Y-6790211D01*
X39162000Y-6887534D01*
X39162000Y-8000000D01*
X39187729Y-8129347D01*
X39260998Y-8239002D01*
X39760998Y-8739002D01*
X39870653Y-8812271D01*
X40000000Y-8838000D01*
X40103703Y-8838000D01*
X40214732Y-9004167D01*
X40446046Y-9158726D01*
X40718899Y-9213000D01*
X41281101Y-9213000D01*
X41553954Y-9158726D01*
X41785268Y-9004167D01*
X41939827Y-8772853D01*
X41994101Y-8500000D01*
X41939827Y-8227147D01*
X41785268Y-7995833D01*
X41553954Y-7841274D01*
X41281101Y-7787000D01*
X40718899Y-7787000D01*
X40446046Y-7841274D01*
X40214732Y-7995833D01*
X40118243Y-8140239D01*
X39838000Y-7859996D01*
X39838000Y-7000000D01*
X40005899Y-7000000D01*
X40060173Y-7272853D01*
X40214732Y-7504167D01*
X40446046Y-7658726D01*
X40718899Y-7713000D01*
X41281101Y-7713000D01*
X41553954Y-7658726D01*
X41785268Y-7504167D01*
X41939827Y-7272853D01*
X41994101Y-7000000D01*
X41939827Y-6727147D01*
X41785268Y-6495833D01*
X41553954Y-6341274D01*
X41281101Y-6287000D01*
X40718899Y-6287000D01*
X40446046Y-6341274D01*
X40214732Y-6495833D01*
X40060173Y-6727147D01*
X40005899Y-7000000D01*
X39838000Y-7000000D01*
X39838000Y-6887448D01*
X39934646Y-6790970D01*
X40012910Y-6602490D01*
X40013089Y-6398406D01*
X39935154Y-6209789D01*
X39790970Y-6065354D01*
X39602490Y-5987090D01*
X39398406Y-5986911D01*
X39209789Y-6064846D01*
X39065354Y-6209030D01*
X38987090Y-6397510D01*
X38986911Y-6601594D01*
X37216662Y-6601594D01*
X37216662Y-6400310D01*
X37201810Y-6321377D01*
X37155161Y-6248882D01*
X37083982Y-6200248D01*
X37059492Y-6195289D01*
X37137609Y-6117172D01*
X38400000Y-6117172D01*
X38478933Y-6102320D01*
X38551428Y-6055671D01*
X38600062Y-5984492D01*
X38617172Y-5900000D01*
X38617172Y-5500000D01*
X40005899Y-5500000D01*
X40060173Y-5772853D01*
X40214732Y-6004167D01*
X40446046Y-6158726D01*
X40718899Y-6213000D01*
X41281101Y-6213000D01*
X41553954Y-6158726D01*
X41785268Y-6004167D01*
X41939827Y-5772853D01*
X41994101Y-5500000D01*
X41939827Y-5227147D01*
X41785268Y-4995833D01*
X41553954Y-4841274D01*
X41281101Y-4787000D01*
X40718899Y-4787000D01*
X40446046Y-4841274D01*
X40214732Y-4995833D01*
X40060173Y-5227147D01*
X40005899Y-5500000D01*
X38617172Y-5500000D01*
X38617172Y-4100000D01*
X38602320Y-4021067D01*
X38555671Y-3948572D01*
X38484492Y-3899938D01*
X38400000Y-3882828D01*
X36800000Y-3882828D01*
X36721067Y-3897680D01*
X36648572Y-3944329D01*
X36599938Y-4015508D01*
X36582828Y-4100000D01*
X36582828Y-5362391D01*
X35762082Y-6183138D01*
X35646646Y-6183138D01*
X35721000Y-6003634D01*
X35721000Y-5371250D01*
X35590750Y-5241000D01*
X34641000Y-5241000D01*
X34641000Y-6290750D01*
X34771250Y-6421000D01*
X34783338Y-6421000D01*
X34783338Y-9400050D01*
X34785959Y-9413980D01*
X34785943Y-9415490D01*
X34786498Y-9416844D01*
X34798190Y-9478983D01*
X34844839Y-9551478D01*
X34865698Y-9565730D01*
X34875287Y-9580090D01*
X34870110Y-9580090D01*
X34739860Y-9710340D01*
X34739860Y-10610660D01*
X34759860Y-10610660D01*
X34759860Y-11092660D01*
X34739860Y-11092660D01*
X34739860Y-11992980D01*
X34825880Y-12079000D01*
X34771250Y-12079000D01*
X34641000Y-12209250D01*
X34641000Y-13259000D01*
X35590750Y-13259000D01*
X35721000Y-13128750D01*
X35721000Y-12496366D01*
X35641682Y-12304877D01*
X35495122Y-12158317D01*
X35303633Y-12079000D01*
X35209654Y-12079000D01*
X35294362Y-12043913D01*
X35440922Y-11897353D01*
X35475254Y-11814468D01*
X35499620Y-11819402D01*
X35662000Y-11819402D01*
X35662000Y-11851660D01*
X35687729Y-11981007D01*
X35760998Y-12090662D01*
X35870653Y-12163931D01*
X36000000Y-12189660D01*
X36129347Y-12163931D01*
X36239002Y-12090662D01*
X36312271Y-11981007D01*
X36338000Y-11851660D01*
X36338000Y-11819402D01*
X36500380Y-11819402D01*
X36579313Y-11804550D01*
X36651808Y-11757901D01*
X36700442Y-11686722D01*
X36717552Y-11602230D01*
X36717552Y-10891949D01*
X36783588Y-10732917D01*
X36783588Y-11602230D01*
X36798440Y-11681163D01*
X36845089Y-11753658D01*
X36916268Y-11802292D01*
X37000760Y-11819402D01*
X37038140Y-11819402D01*
X37038140Y-12382828D01*
X36800000Y-12382828D01*
X36721067Y-12397680D01*
X36648572Y-12444329D01*
X36599938Y-12515508D01*
X36582828Y-12600000D01*
X36582828Y-13862391D01*
X35908220Y-14537000D01*
X35707179Y-14537000D01*
X35721000Y-14503634D01*
X35721000Y-13871250D01*
X35590750Y-13741000D01*
X34641000Y-13741000D01*
X34641000Y-13761000D01*
X34159000Y-13761000D01*
X34159000Y-13741000D01*
X33209250Y-13741000D01*
X33079000Y-13871250D01*
X33079000Y-14503634D01*
X33092821Y-14537000D01*
X32191781Y-14537000D01*
X31963000Y-14308220D01*
X31963000Y-12496366D01*
X33079000Y-12496366D01*
X33079000Y-13128750D01*
X33209250Y-13259000D01*
X34159000Y-13259000D01*
X34159000Y-12209250D01*
X34072980Y-12123230D01*
X34127610Y-12123230D01*
X34257860Y-11992980D01*
X34257860Y-11092660D01*
X33607730Y-11092660D01*
X33477480Y-11222910D01*
X33477480Y-11705864D01*
X33556798Y-11897353D01*
X33703358Y-12043913D01*
X33788066Y-12079000D01*
X33496367Y-12079000D01*
X33304878Y-12158317D01*
X33158318Y-12304877D01*
X33079000Y-12496366D01*
X31963000Y-12496366D01*
X31963000Y-12000000D01*
X31927756Y-11822818D01*
X31827391Y-11672610D01*
X31327390Y-11172610D01*
X31177183Y-11072244D01*
X31147786Y-11066397D01*
X31000000Y-11037000D01*
X30812775Y-11037000D01*
X30785268Y-10995833D01*
X30553954Y-10841274D01*
X30281101Y-10787000D01*
X29718899Y-10787000D01*
X29446046Y-10841274D01*
X29214732Y-10995833D01*
X29187225Y-11037000D01*
X26812775Y-11037000D01*
X26785268Y-10995833D01*
X26553954Y-10841274D01*
X26281101Y-10787000D01*
X25718899Y-10787000D01*
X25446046Y-10841274D01*
X25214732Y-10995833D01*
X25189050Y-11034269D01*
X24963000Y-10808220D01*
X24963000Y-10500000D01*
X24927756Y-10322818D01*
X24916064Y-10305319D01*
X24827391Y-10172610D01*
X24327390Y-9672610D01*
X24177183Y-9572244D01*
X24147786Y-9566397D01*
X24000000Y-9537000D01*
X22191781Y-9537000D01*
X21963000Y-9308220D01*
X21963000Y-9000000D01*
X21927756Y-8822818D01*
X21920709Y-8812271D01*
X21827391Y-8672610D01*
X21327390Y-8172610D01*
X21177183Y-8072244D01*
X21147786Y-8066397D01*
X21000000Y-8037000D01*
X20812775Y-8037000D01*
X20785268Y-7995833D01*
X20672420Y-7920431D01*
X20778858Y-7883626D01*
X21077664Y-7618571D01*
X21204233Y-7393239D01*
X21119528Y-7241000D01*
X20241000Y-7241000D01*
X20241000Y-7261000D01*
X19759000Y-7261000D01*
X19759000Y-7241000D01*
X18880472Y-7241000D01*
X18795767Y-7393239D01*
X18922336Y-7618571D01*
X19221142Y-7883626D01*
X19327580Y-7920431D01*
X19214732Y-7995833D01*
X19187225Y-8037000D01*
X16812775Y-8037000D01*
X16785268Y-7995833D01*
X16672420Y-7920431D01*
X16778858Y-7883626D01*
X17077664Y-7618571D01*
X17204233Y-7393239D01*
X17119528Y-7241000D01*
X16241000Y-7241000D01*
X16241000Y-7261000D01*
X15759000Y-7261000D01*
X15759000Y-7241000D01*
X15739000Y-7241000D01*
X15739000Y-6759000D01*
X15759000Y-6759000D01*
X15759000Y-6106777D01*
X16241000Y-6106777D01*
X16241000Y-6759000D01*
X17119528Y-6759000D01*
X17204233Y-6606761D01*
X18795767Y-6606761D01*
X18880472Y-6759000D01*
X19759000Y-6759000D01*
X19759000Y-6106777D01*
X20241000Y-6106777D01*
X20241000Y-6759000D01*
X21119528Y-6759000D01*
X21204233Y-6606761D01*
X21077664Y-6381429D01*
X20778858Y-6116374D01*
X20401365Y-5985843D01*
X20241000Y-6106777D01*
X19759000Y-6106777D01*
X19598635Y-5985843D01*
X19221142Y-6116374D01*
X18922336Y-6381429D01*
X18795767Y-6606761D01*
X17204233Y-6606761D01*
X17077664Y-6381429D01*
X16778858Y-6116374D01*
X16401365Y-5985843D01*
X16241000Y-6106777D01*
X15759000Y-6106777D01*
X15598635Y-5985843D01*
X15221142Y-6116374D01*
X14963000Y-6345358D01*
X14963000Y-5500000D01*
X14927756Y-5322818D01*
X14915768Y-5304877D01*
X14827391Y-5172610D01*
X14327390Y-4672610D01*
X14177183Y-4572244D01*
X14147786Y-4566397D01*
X14000000Y-4537000D01*
X9900000Y-4537000D01*
X9752214Y-4566397D01*
X9722817Y-4572244D01*
X9572609Y-4672610D01*
X8862391Y-5382828D01*
X7600000Y-5382828D01*
X7521067Y-5397680D01*
X7448572Y-5444329D01*
X7399938Y-5515508D01*
X7382828Y-5600000D01*
X7382828Y-5686897D01*
X7338994Y-5686859D01*
X7040074Y-5810370D01*
X6811174Y-6038871D01*
X6687141Y-6337575D01*
X6686859Y-6661006D01*
X6810370Y-6959926D01*
X7038871Y-7188826D01*
X7337575Y-7312859D01*
X7382828Y-7312898D01*
X7382828Y-7400000D01*
X7397680Y-7478933D01*
X7444329Y-7551428D01*
X7515508Y-7600062D01*
X7600000Y-7617172D01*
X8035860Y-7617172D01*
X8035860Y-8077694D01*
X8027703Y-8072244D01*
X7998306Y-8066397D01*
X7850520Y-8037000D01*
X5812775Y-8037000D01*
X5785268Y-7995833D01*
X5672420Y-7920431D01*
X5778858Y-7883626D01*
X6077664Y-7618571D01*
X6204233Y-7393239D01*
X6119528Y-7241000D01*
X5241000Y-7241000D01*
X5241000Y-7261000D01*
X4759000Y-7261000D01*
X4759000Y-7241000D01*
X3880472Y-7241000D01*
X3795767Y-7393239D01*
X812159Y-7393239D01*
X968599Y-6606761D01*
X3795767Y-6606761D01*
X3880472Y-6759000D01*
X4759000Y-6759000D01*
X4759000Y-6106777D01*
X5241000Y-6106777D01*
X5241000Y-6759000D01*
X6119528Y-6759000D01*
X6204233Y-6606761D01*
X6077664Y-6381429D01*
X5778858Y-6116374D01*
X5401365Y-5985843D01*
X5241000Y-6106777D01*
X4759000Y-6106777D01*
X4598635Y-5985843D01*
X4221142Y-6116374D01*
X3922336Y-6381429D01*
X3795767Y-6606761D01*
X968599Y-6606761D01*
X1032495Y-6285538D01*
X3136570Y-3136567D01*
X6285539Y-1032495D01*
X9313460Y-430203D01*
X9030931Y-546942D01*
X8548636Y-1028396D01*
X8287298Y-1657768D01*
X8286703Y-2339242D01*
X8546942Y-2969069D01*
X9028396Y-3451364D01*
X9657768Y-3712702D01*
X10339242Y-3713297D01*
X10969069Y-3453058D01*
X11451364Y-2971604D01*
X11712702Y-2342232D01*
X11713297Y-1660758D01*
X11453058Y-1030931D01*
X10971604Y-548636D01*
X10343923Y-288000D01*
X14657619Y-288000D01*
X14030931Y-546942D01*
M02*
