M48
;DRILL file {KiCad 4.0.1-stable} date 2016/05/09 17:06:53
;FORMAT={-:-/ absolute / metric / decimal}
FMAT,2
METRIC,TZ
T1C0.800
T2C3.000
%
G90
G05
M71
T1
X177.8Y-104.14
X177.8Y-106.68
X177.8Y-109.22
X177.8Y-111.76
X177.8Y-114.3
X177.8Y-116.84
X177.8Y-119.38
X177.8Y-121.92
X177.8Y-124.46
X177.8Y-127.
X177.8Y-129.54
X177.8Y-132.08
X181.77Y-95.25
X184.27Y-95.25
X186.77Y-95.25
X189.27Y-95.25
X191.77Y-95.25
X193.04Y-104.14
X193.04Y-106.68
X193.04Y-109.22
X193.04Y-111.76
X193.04Y-114.3
X193.04Y-116.84
X193.04Y-119.38
X193.04Y-121.92
X193.04Y-124.46
X193.04Y-127.
X193.04Y-129.54
X193.04Y-132.08
T2
X186.77Y-88.75
T0
M30
