ISO-10303-21;
HEADER;
/* Generated by software containing ST-Developer
 * from STEP Tools, Inc. (www.steptools.com) 
 */

FILE_DESCRIPTION(
/* description */ (''),
/* implementation_level */ '2;1');

FILE_NAME(
/* name */ 'A30-F v2.step',
/* time_stamp */ '2025-08-11T01:32:27+09:00',
/* author */ (''),
/* organization */ (''),
/* preprocessor_version */ 'ST-DEVELOPER v20.1',
/* originating_system */ 'Autodesk Translation Framework v14.10.0.0',
/* authorisation */ '');

FILE_SCHEMA (('AUTOMOTIVE_DESIGN { 1 0 10303 214 3 1 1 }'));
ENDSEC;

DATA;
#10=MECHANICAL_DESIGN_GEOMETRIC_PRESENTATION_REPRESENTATION('',(#13,#14,
#15),#707);
#11=SHAPE_REPRESENTATION_RELATIONSHIP('SRR','None',#714,#12);
#12=ADVANCED_BREP_SHAPE_REPRESENTATION('',(#16,#17,#18),#706);
#13=STYLED_ITEM('',(#724),#16);
#14=STYLED_ITEM('',(#725),#17);
#15=STYLED_ITEM('',(#725),#18);
#16=MANIFOLD_SOLID_BREP('\X2\30DC30C730A3\X0\1',#413);
#17=MANIFOLD_SOLID_BREP('\X2\30DC30C730A3\X0\2',#414);
#18=MANIFOLD_SOLID_BREP('\X2\30DC30C730A3\X0\3',#415);
#19=FACE_BOUND('',#65,.T.);
#20=PLANE('',#432);
#21=PLANE('',#437);
#22=PLANE('',#442);
#23=PLANE('',#445);
#24=PLANE('',#446);
#25=PLANE('',#447);
#26=PLANE('',#448);
#27=PLANE('',#449);
#28=PLANE('',#450);
#29=PLANE('',#451);
#30=PLANE('',#452);
#31=PLANE('',#455);
#32=PLANE('',#456);
#33=PLANE('',#457);
#34=PLANE('',#461);
#35=PLANE('',#462);
#36=PLANE('',#466);
#37=PLANE('',#467);
#38=FACE_OUTER_BOUND('',#63,.T.);
#39=FACE_OUTER_BOUND('',#64,.T.);
#40=FACE_OUTER_BOUND('',#66,.T.);
#41=FACE_OUTER_BOUND('',#67,.T.);
#42=FACE_OUTER_BOUND('',#68,.T.);
#43=FACE_OUTER_BOUND('',#69,.T.);
#44=FACE_OUTER_BOUND('',#70,.T.);
#45=FACE_OUTER_BOUND('',#71,.T.);
#46=FACE_OUTER_BOUND('',#72,.T.);
#47=FACE_OUTER_BOUND('',#73,.T.);
#48=FACE_OUTER_BOUND('',#74,.T.);
#49=FACE_OUTER_BOUND('',#75,.T.);
#50=FACE_OUTER_BOUND('',#76,.T.);
#51=FACE_OUTER_BOUND('',#77,.T.);
#52=FACE_OUTER_BOUND('',#78,.T.);
#53=FACE_OUTER_BOUND('',#79,.T.);
#54=FACE_OUTER_BOUND('',#80,.T.);
#55=FACE_OUTER_BOUND('',#81,.T.);
#56=FACE_OUTER_BOUND('',#82,.T.);
#57=FACE_OUTER_BOUND('',#83,.T.);
#58=FACE_OUTER_BOUND('',#84,.T.);
#59=FACE_OUTER_BOUND('',#85,.T.);
#60=FACE_OUTER_BOUND('',#86,.T.);
#61=FACE_OUTER_BOUND('',#87,.T.);
#62=FACE_OUTER_BOUND('',#88,.T.);
#63=EDGE_LOOP('',(#273,#274,#275,#276));
#64=EDGE_LOOP('',(#277,#278,#279,#280,#281,#282,#283,#284));
#65=EDGE_LOOP('',(#285,#286,#287,#288,#289,#290,#291,#292));
#66=EDGE_LOOP('',(#293,#294,#295,#296));
#67=EDGE_LOOP('',(#297,#298,#299,#300));
#68=EDGE_LOOP('',(#301,#302,#303,#304));
#69=EDGE_LOOP('',(#305,#306,#307,#308));
#70=EDGE_LOOP('',(#309,#310,#311,#312));
#71=EDGE_LOOP('',(#313,#314,#315,#316));
#72=EDGE_LOOP('',(#317,#318,#319,#320));
#73=EDGE_LOOP('',(#321,#322,#323,#324));
#74=EDGE_LOOP('',(#325,#326,#327,#328));
#75=EDGE_LOOP('',(#329,#330,#331,#332));
#76=EDGE_LOOP('',(#333,#334,#335,#336));
#77=EDGE_LOOP('',(#337,#338,#339,#340));
#78=EDGE_LOOP('',(#341,#342,#343,#344));
#79=EDGE_LOOP('',(#345,#346,#347,#348));
#80=EDGE_LOOP('',(#349,#350,#351,#352));
#81=EDGE_LOOP('',(#353,#354,#355,#356,#357,#358,#359,#360));
#82=EDGE_LOOP('',(#361,#362,#363,#364,#365,#366,#367,#368));
#83=EDGE_LOOP('',(#369,#370,#371,#372));
#84=EDGE_LOOP('',(#373));
#85=EDGE_LOOP('',(#374));
#86=EDGE_LOOP('',(#375,#376,#377,#378));
#87=EDGE_LOOP('',(#379));
#88=EDGE_LOOP('',(#380));
#89=LINE('',#594,#129);
#90=LINE('',#597,#130);
#91=LINE('',#600,#131);
#92=LINE('',#604,#132);
#93=LINE('',#608,#133);
#94=LINE('',#611,#134);
#95=LINE('',#616,#135);
#96=LINE('',#618,#136);
#97=LINE('',#620,#137);
#98=LINE('',#622,#138);
#99=LINE('',#624,#139);
#100=LINE('',#626,#140);
#101=LINE('',#627,#141);
#102=LINE('',#630,#142);
#103=LINE('',#631,#143);
#104=LINE('',#635,#144);
#105=LINE('',#638,#145);
#106=LINE('',#641,#146);
#107=LINE('',#644,#147);
#108=LINE('',#645,#148);
#109=LINE('',#648,#149);
#110=LINE('',#651,#150);
#111=LINE('',#655,#151);
#112=LINE('',#656,#152);
#113=LINE('',#657,#153);
#114=LINE('',#660,#154);
#115=LINE('',#661,#155);
#116=LINE('',#664,#156);
#117=LINE('',#665,#157);
#118=LINE('',#668,#158);
#119=LINE('',#669,#159);
#120=LINE('',#672,#160);
#121=LINE('',#673,#161);
#122=LINE('',#676,#162);
#123=LINE('',#677,#163);
#124=LINE('',#680,#164);
#125=LINE('',#681,#165);
#126=LINE('',#685,#166);
#127=LINE('',#692,#167);
#128=LINE('',#700,#168);
#129=VECTOR('',#474,10.);
#130=VECTOR('',#477,10.);
#131=VECTOR('',#480,10.);
#132=VECTOR('',#483,10.);
#133=VECTOR('',#486,10.);
#134=VECTOR('',#489,10.);
#135=VECTOR('',#492,10.);
#136=VECTOR('',#493,10.);
#137=VECTOR('',#494,10.);
#138=VECTOR('',#495,10.);
#139=VECTOR('',#496,10.);
#140=VECTOR('',#497,10.);
#141=VECTOR('',#498,10.);
#142=VECTOR('',#501,10.);
#143=VECTOR('',#502,10.);
#144=VECTOR('',#507,10.);
#145=VECTOR('',#510,10.);
#146=VECTOR('',#513,10.);
#147=VECTOR('',#516,10.);
#148=VECTOR('',#517,10.);
#149=VECTOR('',#520,10.);
#150=VECTOR('',#525,10.);
#151=VECTOR('',#528,10.);
#152=VECTOR('',#529,10.);
#153=VECTOR('',#530,10.);
#154=VECTOR('',#533,10.);
#155=VECTOR('',#534,10.);
#156=VECTOR('',#537,10.);
#157=VECTOR('',#538,10.);
#158=VECTOR('',#541,10.);
#159=VECTOR('',#542,10.);
#160=VECTOR('',#545,10.);
#161=VECTOR('',#546,10.);
#162=VECTOR('',#549,10.);
#163=VECTOR('',#550,10.);
#164=VECTOR('',#553,10.);
#165=VECTOR('',#554,10.);
#166=VECTOR('',#561,10.);
#167=VECTOR('',#570,0.65);
#168=VECTOR('',#581,0.65);
#169=CIRCLE('',#430,0.2);
#170=CIRCLE('',#431,0.2);
#171=CIRCLE('',#433,0.2);
#172=CIRCLE('',#434,0.2);
#173=CIRCLE('',#435,0.2);
#174=CIRCLE('',#436,1.5);
#175=CIRCLE('',#439,0.2);
#176=CIRCLE('',#441,0.2);
#177=CIRCLE('',#444,0.2);
#178=CIRCLE('',#454,1.5);
#179=CIRCLE('',#459,0.65);
#180=CIRCLE('',#460,0.65);
#181=CIRCLE('',#464,0.65);
#182=CIRCLE('',#465,0.65);
#183=VERTEX_POINT('',#590);
#184=VERTEX_POINT('',#591);
#185=VERTEX_POINT('',#593);
#186=VERTEX_POINT('',#595);
#187=VERTEX_POINT('',#599);
#188=VERTEX_POINT('',#601);
#189=VERTEX_POINT('',#603);
#190=VERTEX_POINT('',#605);
#191=VERTEX_POINT('',#607);
#192=VERTEX_POINT('',#609);
#193=VERTEX_POINT('',#612);
#194=VERTEX_POINT('',#613);
#195=VERTEX_POINT('',#615);
#196=VERTEX_POINT('',#617);
#197=VERTEX_POINT('',#619);
#198=VERTEX_POINT('',#621);
#199=VERTEX_POINT('',#623);
#200=VERTEX_POINT('',#625);
#201=VERTEX_POINT('',#629);
#202=VERTEX_POINT('',#633);
#203=VERTEX_POINT('',#637);
#204=VERTEX_POINT('',#639);
#205=VERTEX_POINT('',#643);
#206=VERTEX_POINT('',#647);
#207=VERTEX_POINT('',#653);
#208=VERTEX_POINT('',#654);
#209=VERTEX_POINT('',#659);
#210=VERTEX_POINT('',#663);
#211=VERTEX_POINT('',#667);
#212=VERTEX_POINT('',#671);
#213=VERTEX_POINT('',#675);
#214=VERTEX_POINT('',#679);
#215=VERTEX_POINT('',#689);
#216=VERTEX_POINT('',#691);
#217=VERTEX_POINT('',#697);
#218=VERTEX_POINT('',#699);
#219=EDGE_CURVE('',#183,#184,#169,.T.);
#220=EDGE_CURVE('',#184,#185,#89,.T.);
#221=EDGE_CURVE('',#185,#186,#170,.T.);
#222=EDGE_CURVE('',#186,#183,#90,.T.);
#223=EDGE_CURVE('',#183,#187,#91,.T.);
#224=EDGE_CURVE('',#188,#187,#171,.T.);
#225=EDGE_CURVE('',#188,#189,#92,.T.);
#226=EDGE_CURVE('',#190,#189,#172,.T.);
#227=EDGE_CURVE('',#190,#191,#93,.T.);
#228=EDGE_CURVE('',#192,#191,#173,.T.);
#229=EDGE_CURVE('',#192,#184,#94,.T.);
#230=EDGE_CURVE('',#193,#194,#174,.T.);
#231=EDGE_CURVE('',#194,#195,#95,.T.);
#232=EDGE_CURVE('',#195,#196,#96,.T.);
#233=EDGE_CURVE('',#196,#197,#97,.T.);
#234=EDGE_CURVE('',#197,#198,#98,.T.);
#235=EDGE_CURVE('',#198,#199,#99,.T.);
#236=EDGE_CURVE('',#199,#200,#100,.T.);
#237=EDGE_CURVE('',#200,#193,#101,.T.);
#238=EDGE_CURVE('',#186,#201,#102,.T.);
#239=EDGE_CURVE('',#187,#201,#103,.T.);
#240=EDGE_CURVE('',#201,#202,#175,.T.);
#241=EDGE_CURVE('',#202,#188,#104,.T.);
#242=EDGE_CURVE('',#191,#203,#105,.T.);
#243=EDGE_CURVE('',#203,#204,#176,.T.);
#244=EDGE_CURVE('',#204,#192,#106,.T.);
#245=EDGE_CURVE('',#205,#190,#107,.T.);
#246=EDGE_CURVE('',#205,#203,#108,.T.);
#247=EDGE_CURVE('',#189,#206,#109,.T.);
#248=EDGE_CURVE('',#206,#205,#177,.T.);
#249=EDGE_CURVE('',#202,#206,#110,.T.);
#250=EDGE_CURVE('',#207,#208,#111,.T.);
#251=EDGE_CURVE('',#207,#193,#112,.T.);
#252=EDGE_CURVE('',#208,#200,#113,.T.);
#253=EDGE_CURVE('',#208,#209,#114,.T.);
#254=EDGE_CURVE('',#209,#199,#115,.T.);
#255=EDGE_CURVE('',#209,#210,#116,.T.);
#256=EDGE_CURVE('',#210,#198,#117,.T.);
#257=EDGE_CURVE('',#210,#211,#118,.T.);
#258=EDGE_CURVE('',#211,#197,#119,.T.);
#259=EDGE_CURVE('',#211,#212,#120,.T.);
#260=EDGE_CURVE('',#212,#196,#121,.T.);
#261=EDGE_CURVE('',#212,#213,#122,.T.);
#262=EDGE_CURVE('',#213,#195,#123,.T.);
#263=EDGE_CURVE('',#213,#214,#124,.T.);
#264=EDGE_CURVE('',#214,#194,#125,.T.);
#265=EDGE_CURVE('',#214,#207,#178,.T.);
#266=EDGE_CURVE('',#204,#185,#126,.T.);
#267=EDGE_CURVE('',#215,#215,#179,.T.);
#268=EDGE_CURVE('',#215,#216,#127,.T.);
#269=EDGE_CURVE('',#216,#216,#180,.T.);
#270=EDGE_CURVE('',#217,#217,#181,.T.);
#271=EDGE_CURVE('',#217,#218,#128,.T.);
#272=EDGE_CURVE('',#218,#218,#182,.T.);
#273=ORIENTED_EDGE('',*,*,#219,.T.);
#274=ORIENTED_EDGE('',*,*,#220,.T.);
#275=ORIENTED_EDGE('',*,*,#221,.T.);
#276=ORIENTED_EDGE('',*,*,#222,.T.);
#277=ORIENTED_EDGE('',*,*,#219,.F.);
#278=ORIENTED_EDGE('',*,*,#223,.T.);
#279=ORIENTED_EDGE('',*,*,#224,.F.);
#280=ORIENTED_EDGE('',*,*,#225,.T.);
#281=ORIENTED_EDGE('',*,*,#226,.F.);
#282=ORIENTED_EDGE('',*,*,#227,.T.);
#283=ORIENTED_EDGE('',*,*,#228,.F.);
#284=ORIENTED_EDGE('',*,*,#229,.T.);
#285=ORIENTED_EDGE('',*,*,#230,.T.);
#286=ORIENTED_EDGE('',*,*,#231,.T.);
#287=ORIENTED_EDGE('',*,*,#232,.T.);
#288=ORIENTED_EDGE('',*,*,#233,.T.);
#289=ORIENTED_EDGE('',*,*,#234,.T.);
#290=ORIENTED_EDGE('',*,*,#235,.T.);
#291=ORIENTED_EDGE('',*,*,#236,.T.);
#292=ORIENTED_EDGE('',*,*,#237,.T.);
#293=ORIENTED_EDGE('',*,*,#222,.F.);
#294=ORIENTED_EDGE('',*,*,#238,.T.);
#295=ORIENTED_EDGE('',*,*,#239,.F.);
#296=ORIENTED_EDGE('',*,*,#223,.F.);
#297=ORIENTED_EDGE('',*,*,#224,.T.);
#298=ORIENTED_EDGE('',*,*,#239,.T.);
#299=ORIENTED_EDGE('',*,*,#240,.T.);
#300=ORIENTED_EDGE('',*,*,#241,.T.);
#301=ORIENTED_EDGE('',*,*,#228,.T.);
#302=ORIENTED_EDGE('',*,*,#242,.T.);
#303=ORIENTED_EDGE('',*,*,#243,.T.);
#304=ORIENTED_EDGE('',*,*,#244,.T.);
#305=ORIENTED_EDGE('',*,*,#242,.F.);
#306=ORIENTED_EDGE('',*,*,#227,.F.);
#307=ORIENTED_EDGE('',*,*,#245,.F.);
#308=ORIENTED_EDGE('',*,*,#246,.T.);
#309=ORIENTED_EDGE('',*,*,#226,.T.);
#310=ORIENTED_EDGE('',*,*,#247,.T.);
#311=ORIENTED_EDGE('',*,*,#248,.T.);
#312=ORIENTED_EDGE('',*,*,#245,.T.);
#313=ORIENTED_EDGE('',*,*,#241,.F.);
#314=ORIENTED_EDGE('',*,*,#249,.T.);
#315=ORIENTED_EDGE('',*,*,#247,.F.);
#316=ORIENTED_EDGE('',*,*,#225,.F.);
#317=ORIENTED_EDGE('',*,*,#250,.F.);
#318=ORIENTED_EDGE('',*,*,#251,.T.);
#319=ORIENTED_EDGE('',*,*,#237,.F.);
#320=ORIENTED_EDGE('',*,*,#252,.F.);
#321=ORIENTED_EDGE('',*,*,#253,.F.);
#322=ORIENTED_EDGE('',*,*,#252,.T.);
#323=ORIENTED_EDGE('',*,*,#236,.F.);
#324=ORIENTED_EDGE('',*,*,#254,.F.);
#325=ORIENTED_EDGE('',*,*,#255,.F.);
#326=ORIENTED_EDGE('',*,*,#254,.T.);
#327=ORIENTED_EDGE('',*,*,#235,.F.);
#328=ORIENTED_EDGE('',*,*,#256,.F.);
#329=ORIENTED_EDGE('',*,*,#257,.F.);
#330=ORIENTED_EDGE('',*,*,#256,.T.);
#331=ORIENTED_EDGE('',*,*,#234,.F.);
#332=ORIENTED_EDGE('',*,*,#258,.F.);
#333=ORIENTED_EDGE('',*,*,#259,.F.);
#334=ORIENTED_EDGE('',*,*,#258,.T.);
#335=ORIENTED_EDGE('',*,*,#233,.F.);
#336=ORIENTED_EDGE('',*,*,#260,.F.);
#337=ORIENTED_EDGE('',*,*,#261,.F.);
#338=ORIENTED_EDGE('',*,*,#260,.T.);
#339=ORIENTED_EDGE('',*,*,#232,.F.);
#340=ORIENTED_EDGE('',*,*,#262,.F.);
#341=ORIENTED_EDGE('',*,*,#263,.F.);
#342=ORIENTED_EDGE('',*,*,#262,.T.);
#343=ORIENTED_EDGE('',*,*,#231,.F.);
#344=ORIENTED_EDGE('',*,*,#264,.F.);
#345=ORIENTED_EDGE('',*,*,#265,.F.);
#346=ORIENTED_EDGE('',*,*,#264,.T.);
#347=ORIENTED_EDGE('',*,*,#230,.F.);
#348=ORIENTED_EDGE('',*,*,#251,.F.);
#349=ORIENTED_EDGE('',*,*,#220,.F.);
#350=ORIENTED_EDGE('',*,*,#229,.F.);
#351=ORIENTED_EDGE('',*,*,#244,.F.);
#352=ORIENTED_EDGE('',*,*,#266,.T.);
#353=ORIENTED_EDGE('',*,*,#250,.T.);
#354=ORIENTED_EDGE('',*,*,#253,.T.);
#355=ORIENTED_EDGE('',*,*,#255,.T.);
#356=ORIENTED_EDGE('',*,*,#257,.T.);
#357=ORIENTED_EDGE('',*,*,#259,.T.);
#358=ORIENTED_EDGE('',*,*,#261,.T.);
#359=ORIENTED_EDGE('',*,*,#263,.T.);
#360=ORIENTED_EDGE('',*,*,#265,.T.);
#361=ORIENTED_EDGE('',*,*,#221,.F.);
#362=ORIENTED_EDGE('',*,*,#266,.F.);
#363=ORIENTED_EDGE('',*,*,#243,.F.);
#364=ORIENTED_EDGE('',*,*,#246,.F.);
#365=ORIENTED_EDGE('',*,*,#248,.F.);
#366=ORIENTED_EDGE('',*,*,#249,.F.);
#367=ORIENTED_EDGE('',*,*,#240,.F.);
#368=ORIENTED_EDGE('',*,*,#238,.F.);
#369=ORIENTED_EDGE('',*,*,#267,.F.);
#370=ORIENTED_EDGE('',*,*,#268,.T.);
#371=ORIENTED_EDGE('',*,*,#269,.T.);
#372=ORIENTED_EDGE('',*,*,#268,.F.);
#373=ORIENTED_EDGE('',*,*,#267,.T.);
#374=ORIENTED_EDGE('',*,*,#269,.F.);
#375=ORIENTED_EDGE('',*,*,#270,.F.);
#376=ORIENTED_EDGE('',*,*,#271,.T.);
#377=ORIENTED_EDGE('',*,*,#272,.T.);
#378=ORIENTED_EDGE('',*,*,#271,.F.);
#379=ORIENTED_EDGE('',*,*,#270,.T.);
#380=ORIENTED_EDGE('',*,*,#272,.F.);
#381=CYLINDRICAL_SURFACE('',#429,0.2);
#382=CYLINDRICAL_SURFACE('',#438,0.2);
#383=CYLINDRICAL_SURFACE('',#440,0.2);
#384=CYLINDRICAL_SURFACE('',#443,0.2);
#385=CYLINDRICAL_SURFACE('',#453,1.5);
#386=CYLINDRICAL_SURFACE('',#458,0.65);
#387=CYLINDRICAL_SURFACE('',#463,0.65);
#388=ADVANCED_FACE('',(#38),#381,.T.);
#389=ADVANCED_FACE('',(#39,#19),#20,.T.);
#390=ADVANCED_FACE('',(#40),#21,.T.);
#391=ADVANCED_FACE('',(#41),#382,.T.);
#392=ADVANCED_FACE('',(#42),#383,.T.);
#393=ADVANCED_FACE('',(#43),#22,.T.);
#394=ADVANCED_FACE('',(#44),#384,.T.);
#395=ADVANCED_FACE('',(#45),#23,.T.);
#396=ADVANCED_FACE('',(#46),#24,.T.);
#397=ADVANCED_FACE('',(#47),#25,.T.);
#398=ADVANCED_FACE('',(#48),#26,.T.);
#399=ADVANCED_FACE('',(#49),#27,.T.);
#400=ADVANCED_FACE('',(#50),#28,.T.);
#401=ADVANCED_FACE('',(#51),#29,.T.);
#402=ADVANCED_FACE('',(#52),#30,.T.);
#403=ADVANCED_FACE('',(#53),#385,.F.);
#404=ADVANCED_FACE('',(#54),#31,.T.);
#405=ADVANCED_FACE('',(#55),#32,.T.);
#406=ADVANCED_FACE('',(#56),#33,.F.);
#407=ADVANCED_FACE('',(#57),#386,.T.);
#408=ADVANCED_FACE('',(#58),#34,.T.);
#409=ADVANCED_FACE('',(#59),#35,.F.);
#410=ADVANCED_FACE('',(#60),#387,.T.);
#411=ADVANCED_FACE('',(#61),#36,.T.);
#412=ADVANCED_FACE('',(#62),#37,.F.);
#413=CLOSED_SHELL('',(#388,#389,#390,#391,#392,#393,#394,#395,#396,#397,
#398,#399,#400,#401,#402,#403,#404,#405,#406));
#414=CLOSED_SHELL('',(#407,#408,#409));
#415=CLOSED_SHELL('',(#410,#411,#412));
#416=DERIVED_UNIT_ELEMENT(#418,1.);
#417=DERIVED_UNIT_ELEMENT(#709,-3.);
#418=(
MASS_UNIT()
NAMED_UNIT(*)
SI_UNIT(.KILO.,.GRAM.)
);
#419=DERIVED_UNIT((#416,#417));
#420=MEASURE_REPRESENTATION_ITEM('density measure',
POSITIVE_RATIO_MEASURE(7850.),#419);
#421=PROPERTY_DEFINITION_REPRESENTATION(#426,#423);
#422=PROPERTY_DEFINITION_REPRESENTATION(#427,#424);
#423=REPRESENTATION('material name',(#425),#706);
#424=REPRESENTATION('density',(#420),#706);
#425=DESCRIPTIVE_REPRESENTATION_ITEM('\X2\92FC\X0\','\X2\92FC\X0\');
#426=PROPERTY_DEFINITION('material property','material name',#716);
#427=PROPERTY_DEFINITION('material property','density of part',#716);
#428=AXIS2_PLACEMENT_3D('',#588,#468,#469);
#429=AXIS2_PLACEMENT_3D('',#589,#470,#471);
#430=AXIS2_PLACEMENT_3D('',#592,#472,#473);
#431=AXIS2_PLACEMENT_3D('',#596,#475,#476);
#432=AXIS2_PLACEMENT_3D('',#598,#478,#479);
#433=AXIS2_PLACEMENT_3D('',#602,#481,#482);
#434=AXIS2_PLACEMENT_3D('',#606,#484,#485);
#435=AXIS2_PLACEMENT_3D('',#610,#487,#488);
#436=AXIS2_PLACEMENT_3D('',#614,#490,#491);
#437=AXIS2_PLACEMENT_3D('',#628,#499,#500);
#438=AXIS2_PLACEMENT_3D('',#632,#503,#504);
#439=AXIS2_PLACEMENT_3D('',#634,#505,#506);
#440=AXIS2_PLACEMENT_3D('',#636,#508,#509);
#441=AXIS2_PLACEMENT_3D('',#640,#511,#512);
#442=AXIS2_PLACEMENT_3D('',#642,#514,#515);
#443=AXIS2_PLACEMENT_3D('',#646,#518,#519);
#444=AXIS2_PLACEMENT_3D('',#649,#521,#522);
#445=AXIS2_PLACEMENT_3D('',#650,#523,#524);
#446=AXIS2_PLACEMENT_3D('',#652,#526,#527);
#447=AXIS2_PLACEMENT_3D('',#658,#531,#532);
#448=AXIS2_PLACEMENT_3D('',#662,#535,#536);
#449=AXIS2_PLACEMENT_3D('',#666,#539,#540);
#450=AXIS2_PLACEMENT_3D('',#670,#543,#544);
#451=AXIS2_PLACEMENT_3D('',#674,#547,#548);
#452=AXIS2_PLACEMENT_3D('',#678,#551,#552);
#453=AXIS2_PLACEMENT_3D('',#682,#555,#556);
#454=AXIS2_PLACEMENT_3D('',#683,#557,#558);
#455=AXIS2_PLACEMENT_3D('',#684,#559,#560);
#456=AXIS2_PLACEMENT_3D('',#686,#562,#563);
#457=AXIS2_PLACEMENT_3D('',#687,#564,#565);
#458=AXIS2_PLACEMENT_3D('',#688,#566,#567);
#459=AXIS2_PLACEMENT_3D('',#690,#568,#569);
#460=AXIS2_PLACEMENT_3D('',#693,#571,#572);
#461=AXIS2_PLACEMENT_3D('',#694,#573,#574);
#462=AXIS2_PLACEMENT_3D('',#695,#575,#576);
#463=AXIS2_PLACEMENT_3D('',#696,#577,#578);
#464=AXIS2_PLACEMENT_3D('',#698,#579,#580);
#465=AXIS2_PLACEMENT_3D('',#701,#582,#583);
#466=AXIS2_PLACEMENT_3D('',#702,#584,#585);
#467=AXIS2_PLACEMENT_3D('',#703,#586,#587);
#468=DIRECTION('axis',(0.,0.,1.));
#469=DIRECTION('refdir',(1.,0.,0.));
#470=DIRECTION('center_axis',(0.,1.,0.));
#471=DIRECTION('ref_axis',(-0.707106781186548,0.,-0.707106781186548));
#472=DIRECTION('center_axis',(0.,-1.,0.));
#473=DIRECTION('ref_axis',(-0.707106781186548,0.,-0.707106781186548));
#474=DIRECTION('',(0.,-1.,0.));
#475=DIRECTION('center_axis',(0.,1.,0.));
#476=DIRECTION('ref_axis',(-0.707106781186548,0.,-0.707106781186548));
#477=DIRECTION('',(0.,1.,0.));
#478=DIRECTION('center_axis',(0.,1.,0.));
#479=DIRECTION('ref_axis',(-1.,0.,0.));
#480=DIRECTION('',(0.,0.,1.));
#481=DIRECTION('center_axis',(0.,-1.,0.));
#482=DIRECTION('ref_axis',(-0.707106781186547,0.,0.707106781186548));
#483=DIRECTION('',(1.,0.,0.));
#484=DIRECTION('center_axis',(0.,-1.,0.));
#485=DIRECTION('ref_axis',(0.707106781186548,0.,0.707106781186547));
#486=DIRECTION('',(0.,0.,-1.));
#487=DIRECTION('center_axis',(0.,-1.,0.));
#488=DIRECTION('ref_axis',(0.707106781186548,0.,-0.707106781186548));
#489=DIRECTION('',(-1.,0.,0.));
#490=DIRECTION('center_axis',(0.,-1.,0.));
#491=DIRECTION('ref_axis',(-5.36441787287363E-8,0.,0.999999999999999));
#492=DIRECTION('',(-1.,0.,1.68215613893413E-16));
#493=DIRECTION('',(0.,0.,-1.));
#494=DIRECTION('',(1.,0.,0.));
#495=DIRECTION('',(0.499999999999998,0.,0.86602540378444));
#496=DIRECTION('',(1.,0.,1.56078202081063E-15));
#497=DIRECTION('',(0.499999999999999,0.,-0.866025403784439));
#498=DIRECTION('',(1.,0.,0.));
#499=DIRECTION('center_axis',(-1.,0.,0.));
#500=DIRECTION('ref_axis',(0.,0.,1.));
#501=DIRECTION('',(0.,0.,1.));
#502=DIRECTION('',(0.,-1.,0.));
#503=DIRECTION('center_axis',(0.,1.,0.));
#504=DIRECTION('ref_axis',(-0.707106781186547,0.,0.707106781186548));
#505=DIRECTION('center_axis',(0.,1.,0.));
#506=DIRECTION('ref_axis',(-0.707106781186547,0.,0.707106781186548));
#507=DIRECTION('',(0.,1.,0.));
#508=DIRECTION('center_axis',(0.,1.,0.));
#509=DIRECTION('ref_axis',(0.707106781186548,0.,-0.707106781186548));
#510=DIRECTION('',(0.,-1.,0.));
#511=DIRECTION('center_axis',(0.,1.,0.));
#512=DIRECTION('ref_axis',(0.707106781186548,0.,-0.707106781186548));
#513=DIRECTION('',(0.,1.,0.));
#514=DIRECTION('center_axis',(1.,0.,0.));
#515=DIRECTION('ref_axis',(0.,0.,-1.));
#516=DIRECTION('',(0.,1.,0.));
#517=DIRECTION('',(0.,0.,-1.));
#518=DIRECTION('center_axis',(0.,1.,0.));
#519=DIRECTION('ref_axis',(0.707106781186548,0.,0.707106781186547));
#520=DIRECTION('',(0.,-1.,0.));
#521=DIRECTION('center_axis',(0.,1.,0.));
#522=DIRECTION('ref_axis',(0.707106781186548,0.,0.707106781186547));
#523=DIRECTION('center_axis',(0.,0.,1.));
#524=DIRECTION('ref_axis',(1.,0.,0.));
#525=DIRECTION('',(1.,0.,0.));
#526=DIRECTION('center_axis',(0.,0.,1.));
#527=DIRECTION('ref_axis',(1.,0.,0.));
#528=DIRECTION('',(-1.,0.,0.));
#529=DIRECTION('',(0.,1.,0.));
#530=DIRECTION('',(0.,1.,0.));
#531=DIRECTION('center_axis',(0.866025403784439,0.,0.499999999999999));
#532=DIRECTION('ref_axis',(0.499999999999999,0.,-0.866025403784439));
#533=DIRECTION('',(-0.499999999999999,0.,0.866025403784439));
#534=DIRECTION('',(0.,1.,0.));
#535=DIRECTION('center_axis',(-1.56078202081063E-15,0.,1.));
#536=DIRECTION('ref_axis',(1.,0.,1.56078202081063E-15));
#537=DIRECTION('',(-1.,0.,-1.56078202081063E-15));
#538=DIRECTION('',(0.,1.,0.));
#539=DIRECTION('center_axis',(-0.86602540378444,0.,0.499999999999998));
#540=DIRECTION('ref_axis',(0.499999999999998,0.,0.86602540378444));
#541=DIRECTION('',(-0.499999999999998,0.,-0.86602540378444));
#542=DIRECTION('',(0.,1.,0.));
#543=DIRECTION('center_axis',(0.,0.,1.));
#544=DIRECTION('ref_axis',(1.,0.,0.));
#545=DIRECTION('',(-1.,0.,0.));
#546=DIRECTION('',(0.,1.,0.));
#547=DIRECTION('center_axis',(1.,0.,0.));
#548=DIRECTION('ref_axis',(0.,0.,-1.));
#549=DIRECTION('',(0.,0.,1.));
#550=DIRECTION('',(0.,1.,0.));
#551=DIRECTION('center_axis',(-1.68215613893413E-16,0.,-1.));
#552=DIRECTION('ref_axis',(-1.,0.,1.68215613893413E-16));
#553=DIRECTION('',(1.,0.,-1.68215613893413E-16));
#554=DIRECTION('',(0.,1.,0.));
#555=DIRECTION('center_axis',(0.,1.,0.));
#556=DIRECTION('ref_axis',(1.,0.,2.68220895736302E-8));
#557=DIRECTION('center_axis',(0.,1.,0.));
#558=DIRECTION('ref_axis',(-5.36441787287363E-8,0.,0.999999999999999));
#559=DIRECTION('center_axis',(0.,0.,-1.));
#560=DIRECTION('ref_axis',(-1.,0.,0.));
#561=DIRECTION('',(-1.,0.,0.));
#562=DIRECTION('center_axis',(0.,1.,0.));
#563=DIRECTION('ref_axis',(0.,0.,1.));
#564=DIRECTION('center_axis',(0.,1.,0.));
#565=DIRECTION('ref_axis',(1.,0.,0.));
#566=DIRECTION('center_axis',(0.,-1.,0.));
#567=DIRECTION('ref_axis',(1.,0.,0.));
#568=DIRECTION('center_axis',(0.,-1.,0.));
#569=DIRECTION('ref_axis',(1.,0.,0.));
#570=DIRECTION('',(0.,1.,0.));
#571=DIRECTION('center_axis',(0.,-1.,0.));
#572=DIRECTION('ref_axis',(1.,0.,0.));
#573=DIRECTION('center_axis',(0.,-1.,0.));
#574=DIRECTION('ref_axis',(1.,0.,0.));
#575=DIRECTION('center_axis',(0.,-1.,0.));
#576=DIRECTION('ref_axis',(1.,0.,0.));
#577=DIRECTION('center_axis',(0.,-1.,0.));
#578=DIRECTION('ref_axis',(1.,0.,0.));
#579=DIRECTION('center_axis',(0.,-1.,0.));
#580=DIRECTION('ref_axis',(1.,0.,0.));
#581=DIRECTION('',(0.,1.,0.));
#582=DIRECTION('center_axis',(0.,-1.,0.));
#583=DIRECTION('ref_axis',(1.,0.,0.));
#584=DIRECTION('center_axis',(0.,-1.,0.));
#585=DIRECTION('ref_axis',(1.,0.,0.));
#586=DIRECTION('center_axis',(0.,-1.,0.));
#587=DIRECTION('ref_axis',(1.,0.,0.));
#588=CARTESIAN_POINT('',(0.,0.,0.));
#589=CARTESIAN_POINT('Origin',(0.2,0.,-4.));
#590=CARTESIAN_POINT('',(0.,6.5,-4.));
#591=CARTESIAN_POINT('',(0.2,6.5,-4.2));
#592=CARTESIAN_POINT('Origin',(0.2,6.5,-4.));
#593=CARTESIAN_POINT('',(0.2,0.,-4.2));
#594=CARTESIAN_POINT('',(0.2,0.,-4.2));
#595=CARTESIAN_POINT('',(0.,0.,-4.));
#596=CARTESIAN_POINT('Origin',(0.2,0.,-4.));
#597=CARTESIAN_POINT('',(0.,0.,-4.));
#598=CARTESIAN_POINT('Origin',(2.9,6.5,-2.1));
#599=CARTESIAN_POINT('',(0.,6.5,-0.2));
#600=CARTESIAN_POINT('',(0.,6.5,-4.2));
#601=CARTESIAN_POINT('',(0.2,6.5,0.));
#602=CARTESIAN_POINT('Origin',(0.2,6.5,-0.2));
#603=CARTESIAN_POINT('',(5.6,6.5,0.));
#604=CARTESIAN_POINT('',(0.,6.5,0.));
#605=CARTESIAN_POINT('',(5.8,6.5,-0.2));
#606=CARTESIAN_POINT('Origin',(5.6,6.5,-0.2));
#607=CARTESIAN_POINT('',(5.8,6.5,-4.));
#608=CARTESIAN_POINT('',(5.8,6.5,0.));
#609=CARTESIAN_POINT('',(5.6,6.5,-4.2));
#610=CARTESIAN_POINT('Origin',(5.6,6.5,-4.));
#611=CARTESIAN_POINT('',(5.8,6.5,-4.2));
#612=CARTESIAN_POINT('',(3.8,6.5,-3.6));
#613=CARTESIAN_POINT('',(3.79999991953373,6.5,-0.6));
#614=CARTESIAN_POINT('Origin',(3.8,6.5,-2.1));
#615=CARTESIAN_POINT('',(0.5,6.5,-0.599999999999999));
#616=CARTESIAN_POINT('',(3.79999991953373,6.5,-0.6));
#617=CARTESIAN_POINT('',(0.5,6.5,-3.59999991953373));
#618=CARTESIAN_POINT('',(0.5,6.5,-3.59999991953373));
#619=CARTESIAN_POINT('',(2.1113248886338,6.5,-3.59999991953373));
#620=CARTESIAN_POINT('',(2.1113248886338,6.5,-3.59999991953373));
#621=CARTESIAN_POINT('',(2.4,6.5,-3.09999995976687));
#622=CARTESIAN_POINT('',(2.4,6.5,-3.09999995976687));
#623=CARTESIAN_POINT('',(3.11132484217658,6.5,-3.09999995976686));
#624=CARTESIAN_POINT('',(3.11132484217658,6.5,-3.09999995976686));
#625=CARTESIAN_POINT('',(3.4,6.5,-3.6));
#626=CARTESIAN_POINT('',(3.4,6.5,-3.6));
#627=CARTESIAN_POINT('',(3.8,6.5,-3.6));
#628=CARTESIAN_POINT('Origin',(0.,0.,-4.2));
#629=CARTESIAN_POINT('',(0.,0.,-0.2));
#630=CARTESIAN_POINT('',(0.,0.,-4.2));
#631=CARTESIAN_POINT('',(0.,0.,-0.2));
#632=CARTESIAN_POINT('Origin',(0.2,0.,-0.2));
#633=CARTESIAN_POINT('',(0.2,0.,0.));
#634=CARTESIAN_POINT('Origin',(0.2,0.,-0.2));
#635=CARTESIAN_POINT('',(0.2,0.,0.));
#636=CARTESIAN_POINT('Origin',(5.6,0.,-4.));
#637=CARTESIAN_POINT('',(5.8,0.,-4.));
#638=CARTESIAN_POINT('',(5.8,0.,-4.));
#639=CARTESIAN_POINT('',(5.6,0.,-4.2));
#640=CARTESIAN_POINT('Origin',(5.6,0.,-4.));
#641=CARTESIAN_POINT('',(5.6,0.,-4.2));
#642=CARTESIAN_POINT('Origin',(5.8,0.,0.));
#643=CARTESIAN_POINT('',(5.8,0.,-0.2));
#644=CARTESIAN_POINT('',(5.8,0.,-0.2));
#645=CARTESIAN_POINT('',(5.8,0.,0.));
#646=CARTESIAN_POINT('Origin',(5.6,0.,-0.2));
#647=CARTESIAN_POINT('',(5.6,0.,0.));
#648=CARTESIAN_POINT('',(5.6,0.,0.));
#649=CARTESIAN_POINT('Origin',(5.6,0.,-0.2));
#650=CARTESIAN_POINT('Origin',(0.,0.,0.));
#651=CARTESIAN_POINT('',(0.,0.,0.));
#652=CARTESIAN_POINT('Origin',(3.4,1.,-3.6));
#653=CARTESIAN_POINT('',(3.8,1.,-3.6));
#654=CARTESIAN_POINT('',(3.4,1.,-3.6));
#655=CARTESIAN_POINT('',(3.15,1.,-3.6));
#656=CARTESIAN_POINT('',(3.8,1.,-3.6));
#657=CARTESIAN_POINT('',(3.4,1.,-3.6));
#658=CARTESIAN_POINT('Origin',(3.11132484217658,1.,-3.09999995976686));
#659=CARTESIAN_POINT('',(3.11132484217658,1.,-3.09999995976686));
#660=CARTESIAN_POINT('',(2.86840289466912,1.,-2.67924680441038));
#661=CARTESIAN_POINT('',(3.11132484217658,1.,-3.09999995976686));
#662=CARTESIAN_POINT('Origin',(2.4,1.,-3.09999995976687));
#663=CARTESIAN_POINT('',(2.4,1.,-3.09999995976687));
#664=CARTESIAN_POINT('',(2.65,1.,-3.09999995976686));
#665=CARTESIAN_POINT('',(2.4,1.,-3.09999995976687));
#666=CARTESIAN_POINT('Origin',(2.1113248886338,1.,-3.59999991953373));
#667=CARTESIAN_POINT('',(2.1113248886338,1.,-3.59999991953373));
#668=CARTESIAN_POINT('',(2.53466878655228,1.,-2.86674677926467));
#669=CARTESIAN_POINT('',(2.1113248886338,1.,-3.59999991953373));
#670=CARTESIAN_POINT('Origin',(0.5,1.,-3.59999991953373));
#671=CARTESIAN_POINT('',(0.5,1.,-3.59999991953373));
#672=CARTESIAN_POINT('',(1.7,1.,-3.59999991953373));
#673=CARTESIAN_POINT('',(0.5,1.,-3.59999991953373));
#674=CARTESIAN_POINT('Origin',(0.5,1.,-0.599999999999999));
#675=CARTESIAN_POINT('',(0.5,1.,-0.599999999999999));
#676=CARTESIAN_POINT('',(0.5,1.,-1.35));
#677=CARTESIAN_POINT('',(0.5,1.,-0.599999999999999));
#678=CARTESIAN_POINT('Origin',(3.79999991953373,1.,-0.6));
#679=CARTESIAN_POINT('',(3.79999991953373,1.,-0.6));
#680=CARTESIAN_POINT('',(3.34999995976687,1.,-0.6));
#681=CARTESIAN_POINT('',(3.79999991953373,1.,-0.6));
#682=CARTESIAN_POINT('Origin',(3.8,1.,-2.1));
#683=CARTESIAN_POINT('Origin',(3.8,1.,-2.1));
#684=CARTESIAN_POINT('Origin',(5.8,0.,-4.2));
#685=CARTESIAN_POINT('',(5.8,0.,-4.2));
#686=CARTESIAN_POINT('Origin',(2.9,1.,-2.1));
#687=CARTESIAN_POINT('Origin',(2.9,0.,-2.1));
#688=CARTESIAN_POINT('Origin',(3.9,0.,-2.09999993019379));
#689=CARTESIAN_POINT('',(3.25,-2.,-2.09999993019379));
#690=CARTESIAN_POINT('Origin',(3.9,-2.,-2.09999993019379));
#691=CARTESIAN_POINT('',(3.25,0.,-2.09999993019379));
#692=CARTESIAN_POINT('',(3.25,0.,-2.09999993019379));
#693=CARTESIAN_POINT('Origin',(3.9,0.,-2.09999993019379));
#694=CARTESIAN_POINT('Origin',(3.9,-2.,-2.09999993019379));
#695=CARTESIAN_POINT('Origin',(3.9,0.,-2.09999993019379));
#696=CARTESIAN_POINT('Origin',(1.89999995753169,0.,-2.09999995306134));
#697=CARTESIAN_POINT('',(1.24999995753169,-2.,-2.09999995306134));
#698=CARTESIAN_POINT('Origin',(1.89999995753169,-2.,-2.09999995306134));
#699=CARTESIAN_POINT('',(1.24999995753169,0.,-2.09999995306134));
#700=CARTESIAN_POINT('',(1.24999995753169,0.,-2.09999995306134));
#701=CARTESIAN_POINT('Origin',(1.89999995753169,0.,-2.09999995306134));
#702=CARTESIAN_POINT('Origin',(1.89999995753169,-2.,-2.09999995306134));
#703=CARTESIAN_POINT('Origin',(1.89999995753169,0.,-2.09999995306134));
#704=UNCERTAINTY_MEASURE_WITH_UNIT(LENGTH_MEASURE(0.01),#708,
'DISTANCE_ACCURACY_VALUE',
'Maximum model space distance between geometric entities at asserted c
onnectivities');
#705=UNCERTAINTY_MEASURE_WITH_UNIT(LENGTH_MEASURE(0.01),#708,
'DISTANCE_ACCURACY_VALUE',
'Maximum model space distance between geometric entities at asserted c
onnectivities');
#706=(
GEOMETRIC_REPRESENTATION_CONTEXT(3)
GLOBAL_UNCERTAINTY_ASSIGNED_CONTEXT((#704))
GLOBAL_UNIT_ASSIGNED_CONTEXT((#708,#710,#711))
REPRESENTATION_CONTEXT('','3D')
);
#707=(
GEOMETRIC_REPRESENTATION_CONTEXT(3)
GLOBAL_UNCERTAINTY_ASSIGNED_CONTEXT((#705))
GLOBAL_UNIT_ASSIGNED_CONTEXT((#708,#710,#711))
REPRESENTATION_CONTEXT('','3D')
);
#708=(
LENGTH_UNIT()
NAMED_UNIT(*)
SI_UNIT(.MILLI.,.METRE.)
);
#709=(
LENGTH_UNIT()
NAMED_UNIT(*)
SI_UNIT($,.METRE.)
);
#710=(
NAMED_UNIT(*)
PLANE_ANGLE_UNIT()
SI_UNIT($,.RADIAN.)
);
#711=(
NAMED_UNIT(*)
SI_UNIT($,.STERADIAN.)
SOLID_ANGLE_UNIT()
);
#712=SHAPE_DEFINITION_REPRESENTATION(#713,#714);
#713=PRODUCT_DEFINITION_SHAPE('',$,#716);
#714=SHAPE_REPRESENTATION('',(#428),#706);
#715=PRODUCT_DEFINITION_CONTEXT('part definition',#720,'design');
#716=PRODUCT_DEFINITION('A30-F','A30-F v2',#717,#715);
#717=PRODUCT_DEFINITION_FORMATION('',$,#722);
#718=PRODUCT_RELATED_PRODUCT_CATEGORY('A30-F v2','A30-F v2',(#722));
#719=APPLICATION_PROTOCOL_DEFINITION('international standard',
'automotive_design',2009,#720);
#720=APPLICATION_CONTEXT(
'Core Data for Automotive Mechanical Design Process');
#721=PRODUCT_CONTEXT('part definition',#720,'mechanical');
#722=PRODUCT('A30-F','A30-F v2',$,(#721));
#723=PRESENTATION_STYLE_ASSIGNMENT((#726));
#724=PRESENTATION_STYLE_ASSIGNMENT((#727));
#725=PRESENTATION_STYLE_ASSIGNMENT((#728));
#726=SURFACE_STYLE_USAGE(.BOTH.,#729);
#727=SURFACE_STYLE_USAGE(.BOTH.,#730);
#728=SURFACE_STYLE_USAGE(.BOTH.,#731);
#729=SURFACE_SIDE_STYLE('',(#732));
#730=SURFACE_SIDE_STYLE('',(#733));
#731=SURFACE_SIDE_STYLE('',(#734));
#732=SURFACE_STYLE_FILL_AREA(#735);
#733=SURFACE_STYLE_FILL_AREA(#736);
#734=SURFACE_STYLE_FILL_AREA(#737);
#735=FILL_AREA_STYLE('\X2\92FC\X0\ - \X2\30B530C630F3\X0\',(#738));
#736=FILL_AREA_STYLE('ABS(\X2\767D\X0\)',(#739));
#737=FILL_AREA_STYLE('\X2\771F936E\X0\ - \X2\3064308451FA3057\X0\',(#740));
#738=FILL_AREA_STYLE_COLOUR('\X2\92FC\X0\ - \X2\30B530C630F3\X0\',#741);
#739=FILL_AREA_STYLE_COLOUR('ABS(\X2\767D\X0\)',#742);
#740=FILL_AREA_STYLE_COLOUR('\X2\771F936E\X0\ - \X2\3064308451FA3057\X0\',
#743);
#741=COLOUR_RGB('\X2\92FC\X0\ - \X2\30B530C630F3\X0\',0.627450980392157,
0.627450980392157,0.627450980392157);
#742=COLOUR_RGB('ABS(\X2\767D\X0\)',0.964705882352941,0.964705882352941,
0.952941176470588);
#743=COLOUR_RGB('\X2\771F936E\X0\ - \X2\3064308451FA3057\X0\',0.952941176470588,
0.796078431372549,0.486274509803922);
ENDSEC;
END-ISO-10303-21;
