ISO-10303-21;
HEADER;
/* Generated by software containing ST-Developer
 * from STEP Tools, Inc. (www.steptools.com) 
 */

FILE_DESCRIPTION(
/* description */ (''),
/* implementation_level */ '2;1');

FILE_NAME(
/* name */ 'A30-M v2.step',
/* time_stamp */ '2025-08-11T01:32:32+09:00',
/* author */ (''),
/* organization */ (''),
/* preprocessor_version */ 'ST-DEVELOPER v20.1',
/* originating_system */ 'Autodesk Translation Framework v14.10.0.0',
/* authorisation */ '');

FILE_SCHEMA (('AUTOMOTIVE_DESIGN { 1 0 10303 214 3 1 1 }'));
ENDSEC;

DATA;
#10=MECHANICAL_DESIGN_GEOMETRIC_PRESENTATION_REPRESENTATION('',(#13,#14,
#15),#847);
#11=SHAPE_REPRESENTATION_RELATIONSHIP('SRR','None',#854,#12);
#12=ADVANCED_BREP_SHAPE_REPRESENTATION('',(#16,#17,#18),#846);
#13=STYLED_ITEM('',(#864),#16);
#14=STYLED_ITEM('',(#865),#17);
#15=STYLED_ITEM('',(#865),#18);
#16=MANIFOLD_SOLID_BREP('\X2\30DC30C730A3\X0\1',#491);
#17=MANIFOLD_SOLID_BREP('\X2\30DC30C730A3\X0\2',#492);
#18=MANIFOLD_SOLID_BREP('\X2\30DC30C730A3\X0\3',#493);
#19=CONICAL_SURFACE('',#524,0.7,0.785398163397448);
#20=CONICAL_SURFACE('',#532,0.7,0.785398163397448);
#21=FACE_BOUND('',#77,.T.);
#22=FACE_BOUND('',#86,.T.);
#23=FACE_BOUND('',#87,.T.);
#24=PLANE('',#510);
#25=PLANE('',#515);
#26=PLANE('',#520);
#27=PLANE('',#523);
#28=PLANE('',#527);
#29=PLANE('',#536);
#30=PLANE('',#537);
#31=PLANE('',#538);
#32=PLANE('',#539);
#33=PLANE('',#540);
#34=PLANE('',#541);
#35=PLANE('',#543);
#36=PLANE('',#544);
#37=PLANE('',#545);
#38=PLANE('',#546);
#39=PLANE('',#547);
#40=PLANE('',#551);
#41=PLANE('',#552);
#42=PLANE('',#556);
#43=PLANE('',#557);
#44=FACE_OUTER_BOUND('',#75,.T.);
#45=FACE_OUTER_BOUND('',#76,.T.);
#46=FACE_OUTER_BOUND('',#78,.T.);
#47=FACE_OUTER_BOUND('',#79,.T.);
#48=FACE_OUTER_BOUND('',#80,.T.);
#49=FACE_OUTER_BOUND('',#81,.T.);
#50=FACE_OUTER_BOUND('',#82,.T.);
#51=FACE_OUTER_BOUND('',#83,.T.);
#52=FACE_OUTER_BOUND('',#84,.T.);
#53=FACE_OUTER_BOUND('',#85,.T.);
#54=FACE_OUTER_BOUND('',#88,.T.);
#55=FACE_OUTER_BOUND('',#89,.T.);
#56=FACE_OUTER_BOUND('',#90,.T.);
#57=FACE_OUTER_BOUND('',#91,.T.);
#58=FACE_OUTER_BOUND('',#92,.T.);
#59=FACE_OUTER_BOUND('',#93,.T.);
#60=FACE_OUTER_BOUND('',#94,.T.);
#61=FACE_OUTER_BOUND('',#95,.T.);
#62=FACE_OUTER_BOUND('',#96,.T.);
#63=FACE_OUTER_BOUND('',#97,.T.);
#64=FACE_OUTER_BOUND('',#98,.T.);
#65=FACE_OUTER_BOUND('',#99,.T.);
#66=FACE_OUTER_BOUND('',#100,.T.);
#67=FACE_OUTER_BOUND('',#101,.T.);
#68=FACE_OUTER_BOUND('',#102,.T.);
#69=FACE_OUTER_BOUND('',#103,.T.);
#70=FACE_OUTER_BOUND('',#104,.T.);
#71=FACE_OUTER_BOUND('',#105,.T.);
#72=FACE_OUTER_BOUND('',#106,.T.);
#73=FACE_OUTER_BOUND('',#107,.T.);
#74=FACE_OUTER_BOUND('',#108,.T.);
#75=EDGE_LOOP('',(#323,#324,#325,#326));
#76=EDGE_LOOP('',(#327,#328,#329,#330,#331,#332,#333,#334));
#77=EDGE_LOOP('',(#335,#336,#337,#338,#339,#340,#341,#342));
#78=EDGE_LOOP('',(#343,#344,#345,#346));
#79=EDGE_LOOP('',(#347,#348,#349,#350));
#80=EDGE_LOOP('',(#351,#352,#353,#354));
#81=EDGE_LOOP('',(#355,#356,#357,#358));
#82=EDGE_LOOP('',(#359,#360,#361,#362));
#83=EDGE_LOOP('',(#363,#364,#365,#366));
#84=EDGE_LOOP('',(#367,#368,#369,#370));
#85=EDGE_LOOP('',(#371,#372,#373,#374,#375,#376,#377,#378));
#86=EDGE_LOOP('',(#379));
#87=EDGE_LOOP('',(#380));
#88=EDGE_LOOP('',(#381,#382,#383,#384));
#89=EDGE_LOOP('',(#385,#386,#387,#388));
#90=EDGE_LOOP('',(#389,#390,#391,#392));
#91=EDGE_LOOP('',(#393,#394,#395,#396));
#92=EDGE_LOOP('',(#397,#398,#399,#400));
#93=EDGE_LOOP('',(#401,#402,#403,#404));
#94=EDGE_LOOP('',(#405,#406,#407,#408));
#95=EDGE_LOOP('',(#409,#410,#411,#412));
#96=EDGE_LOOP('',(#413,#414,#415,#416));
#97=EDGE_LOOP('',(#417,#418,#419,#420));
#98=EDGE_LOOP('',(#421,#422,#423,#424));
#99=EDGE_LOOP('',(#425));
#100=EDGE_LOOP('',(#426,#427,#428,#429));
#101=EDGE_LOOP('',(#430));
#102=EDGE_LOOP('',(#431,#432,#433,#434,#435,#436,#437,#438));
#103=EDGE_LOOP('',(#439,#440,#441,#442));
#104=EDGE_LOOP('',(#443));
#105=EDGE_LOOP('',(#444));
#106=EDGE_LOOP('',(#445,#446,#447,#448));
#107=EDGE_LOOP('',(#449));
#108=EDGE_LOOP('',(#450));
#109=LINE('',#712,#153);
#110=LINE('',#715,#154);
#111=LINE('',#718,#155);
#112=LINE('',#722,#156);
#113=LINE('',#726,#157);
#114=LINE('',#729,#158);
#115=LINE('',#732,#159);
#116=LINE('',#734,#160);
#117=LINE('',#736,#161);
#118=LINE('',#738,#162);
#119=LINE('',#740,#163);
#120=LINE('',#742,#164);
#121=LINE('',#745,#165);
#122=LINE('',#748,#166);
#123=LINE('',#749,#167);
#124=LINE('',#753,#168);
#125=LINE('',#756,#169);
#126=LINE('',#759,#170);
#127=LINE('',#762,#171);
#128=LINE('',#763,#172);
#129=LINE('',#766,#173);
#130=LINE('',#769,#174);
#131=LINE('',#774,#175);
#132=LINE('',#779,#176);
#133=LINE('',#783,#177);
#134=LINE('',#785,#178);
#135=LINE('',#787,#179);
#136=LINE('',#789,#180);
#137=LINE('',#791,#181);
#138=LINE('',#792,#182);
#139=LINE('',#797,#183);
#140=LINE('',#801,#184);
#141=LINE('',#805,#185);
#142=LINE('',#808,#186);
#143=LINE('',#809,#187);
#144=LINE('',#811,#188);
#145=LINE('',#813,#189);
#146=LINE('',#815,#190);
#147=LINE('',#817,#191);
#148=LINE('',#819,#192);
#149=LINE('',#821,#193);
#150=LINE('',#825,#194);
#151=LINE('',#832,#195);
#152=LINE('',#840,#196);
#153=VECTOR('',#564,10.);
#154=VECTOR('',#567,10.);
#155=VECTOR('',#570,10.);
#156=VECTOR('',#573,10.);
#157=VECTOR('',#576,10.);
#158=VECTOR('',#579,10.);
#159=VECTOR('',#580,10.);
#160=VECTOR('',#581,10.);
#161=VECTOR('',#582,10.);
#162=VECTOR('',#583,10.);
#163=VECTOR('',#584,10.);
#164=VECTOR('',#585,10.);
#165=VECTOR('',#588,10.);
#166=VECTOR('',#591,10.);
#167=VECTOR('',#592,10.);
#168=VECTOR('',#597,10.);
#169=VECTOR('',#600,10.);
#170=VECTOR('',#603,10.);
#171=VECTOR('',#606,10.);
#172=VECTOR('',#607,10.);
#173=VECTOR('',#610,10.);
#174=VECTOR('',#615,10.);
#175=VECTOR('',#620,0.7);
#176=VECTOR('',#625,10.);
#177=VECTOR('',#628,10.);
#178=VECTOR('',#629,10.);
#179=VECTOR('',#630,10.);
#180=VECTOR('',#631,10.);
#181=VECTOR('',#632,10.);
#182=VECTOR('',#633,10.);
#183=VECTOR('',#638,0.6);
#184=VECTOR('',#643,0.7);
#185=VECTOR('',#648,0.6);
#186=VECTOR('',#653,10.);
#187=VECTOR('',#654,10.);
#188=VECTOR('',#657,10.);
#189=VECTOR('',#660,10.);
#190=VECTOR('',#663,10.);
#191=VECTOR('',#666,10.);
#192=VECTOR('',#669,10.);
#193=VECTOR('',#672,10.);
#194=VECTOR('',#679,10.);
#195=VECTOR('',#688,0.65);
#196=VECTOR('',#699,0.65);
#197=CIRCLE('',#508,0.2);
#198=CIRCLE('',#509,0.2);
#199=CIRCLE('',#511,0.2);
#200=CIRCLE('',#512,0.2);
#201=CIRCLE('',#513,0.2);
#202=CIRCLE('',#514,1.3);
#203=CIRCLE('',#517,0.2);
#204=CIRCLE('',#519,0.2);
#205=CIRCLE('',#522,0.2);
#206=CIRCLE('',#525,0.8);
#207=CIRCLE('',#526,0.6);
#208=CIRCLE('',#528,1.3);
#209=CIRCLE('',#529,0.8);
#210=CIRCLE('',#531,0.6);
#211=CIRCLE('',#533,0.6);
#212=CIRCLE('',#535,0.6);
#213=CIRCLE('',#549,0.65);
#214=CIRCLE('',#550,0.65);
#215=CIRCLE('',#554,0.65);
#216=CIRCLE('',#555,0.65);
#217=VERTEX_POINT('',#708);
#218=VERTEX_POINT('',#709);
#219=VERTEX_POINT('',#711);
#220=VERTEX_POINT('',#713);
#221=VERTEX_POINT('',#717);
#222=VERTEX_POINT('',#719);
#223=VERTEX_POINT('',#721);
#224=VERTEX_POINT('',#723);
#225=VERTEX_POINT('',#725);
#226=VERTEX_POINT('',#727);
#227=VERTEX_POINT('',#730);
#228=VERTEX_POINT('',#731);
#229=VERTEX_POINT('',#733);
#230=VERTEX_POINT('',#735);
#231=VERTEX_POINT('',#737);
#232=VERTEX_POINT('',#739);
#233=VERTEX_POINT('',#741);
#234=VERTEX_POINT('',#743);
#235=VERTEX_POINT('',#747);
#236=VERTEX_POINT('',#751);
#237=VERTEX_POINT('',#755);
#238=VERTEX_POINT('',#757);
#239=VERTEX_POINT('',#761);
#240=VERTEX_POINT('',#765);
#241=VERTEX_POINT('',#771);
#242=VERTEX_POINT('',#773);
#243=VERTEX_POINT('',#777);
#244=VERTEX_POINT('',#778);
#245=VERTEX_POINT('',#780);
#246=VERTEX_POINT('',#782);
#247=VERTEX_POINT('',#784);
#248=VERTEX_POINT('',#786);
#249=VERTEX_POINT('',#788);
#250=VERTEX_POINT('',#790);
#251=VERTEX_POINT('',#793);
#252=VERTEX_POINT('',#796);
#253=VERTEX_POINT('',#800);
#254=VERTEX_POINT('',#804);
#255=VERTEX_POINT('',#829);
#256=VERTEX_POINT('',#831);
#257=VERTEX_POINT('',#837);
#258=VERTEX_POINT('',#839);
#259=EDGE_CURVE('',#217,#218,#197,.T.);
#260=EDGE_CURVE('',#218,#219,#109,.T.);
#261=EDGE_CURVE('',#219,#220,#198,.T.);
#262=EDGE_CURVE('',#220,#217,#110,.T.);
#263=EDGE_CURVE('',#217,#221,#111,.T.);
#264=EDGE_CURVE('',#222,#221,#199,.T.);
#265=EDGE_CURVE('',#222,#223,#112,.T.);
#266=EDGE_CURVE('',#224,#223,#200,.T.);
#267=EDGE_CURVE('',#224,#225,#113,.T.);
#268=EDGE_CURVE('',#226,#225,#201,.T.);
#269=EDGE_CURVE('',#226,#218,#114,.T.);
#270=EDGE_CURVE('',#227,#228,#115,.T.);
#271=EDGE_CURVE('',#228,#229,#116,.T.);
#272=EDGE_CURVE('',#229,#230,#117,.T.);
#273=EDGE_CURVE('',#230,#231,#118,.T.);
#274=EDGE_CURVE('',#231,#232,#119,.T.);
#275=EDGE_CURVE('',#232,#233,#120,.T.);
#276=EDGE_CURVE('',#233,#234,#202,.T.);
#277=EDGE_CURVE('',#234,#227,#121,.T.);
#278=EDGE_CURVE('',#220,#235,#122,.T.);
#279=EDGE_CURVE('',#221,#235,#123,.T.);
#280=EDGE_CURVE('',#235,#236,#203,.T.);
#281=EDGE_CURVE('',#236,#222,#124,.T.);
#282=EDGE_CURVE('',#225,#237,#125,.T.);
#283=EDGE_CURVE('',#237,#238,#204,.T.);
#284=EDGE_CURVE('',#238,#226,#126,.T.);
#285=EDGE_CURVE('',#239,#224,#127,.T.);
#286=EDGE_CURVE('',#239,#237,#128,.T.);
#287=EDGE_CURVE('',#223,#240,#129,.T.);
#288=EDGE_CURVE('',#240,#239,#205,.T.);
#289=EDGE_CURVE('',#236,#240,#130,.T.);
#290=EDGE_CURVE('',#241,#241,#206,.T.);
#291=EDGE_CURVE('',#241,#242,#131,.T.);
#292=EDGE_CURVE('',#242,#242,#207,.T.);
#293=EDGE_CURVE('',#243,#244,#132,.T.);
#294=EDGE_CURVE('',#244,#245,#208,.T.);
#295=EDGE_CURVE('',#245,#246,#133,.T.);
#296=EDGE_CURVE('',#246,#247,#134,.T.);
#297=EDGE_CURVE('',#247,#248,#135,.T.);
#298=EDGE_CURVE('',#248,#249,#136,.T.);
#299=EDGE_CURVE('',#249,#250,#137,.T.);
#300=EDGE_CURVE('',#250,#243,#138,.T.);
#301=EDGE_CURVE('',#251,#251,#209,.T.);
#302=EDGE_CURVE('',#242,#252,#139,.T.);
#303=EDGE_CURVE('',#252,#252,#210,.T.);
#304=EDGE_CURVE('',#251,#253,#140,.T.);
#305=EDGE_CURVE('',#253,#253,#211,.T.);
#306=EDGE_CURVE('',#253,#254,#141,.T.);
#307=EDGE_CURVE('',#254,#254,#212,.T.);
#308=EDGE_CURVE('',#227,#243,#142,.T.);
#309=EDGE_CURVE('',#228,#250,#143,.T.);
#310=EDGE_CURVE('',#229,#249,#144,.T.);
#311=EDGE_CURVE('',#230,#248,#145,.T.);
#312=EDGE_CURVE('',#231,#247,#146,.T.);
#313=EDGE_CURVE('',#232,#246,#147,.T.);
#314=EDGE_CURVE('',#233,#245,#148,.T.);
#315=EDGE_CURVE('',#234,#244,#149,.T.);
#316=EDGE_CURVE('',#238,#219,#150,.T.);
#317=EDGE_CURVE('',#255,#255,#213,.T.);
#318=EDGE_CURVE('',#255,#256,#151,.T.);
#319=EDGE_CURVE('',#256,#256,#214,.T.);
#320=EDGE_CURVE('',#257,#257,#215,.T.);
#321=EDGE_CURVE('',#257,#258,#152,.T.);
#322=EDGE_CURVE('',#258,#258,#216,.T.);
#323=ORIENTED_EDGE('',*,*,#259,.T.);
#324=ORIENTED_EDGE('',*,*,#260,.T.);
#325=ORIENTED_EDGE('',*,*,#261,.T.);
#326=ORIENTED_EDGE('',*,*,#262,.T.);
#327=ORIENTED_EDGE('',*,*,#259,.F.);
#328=ORIENTED_EDGE('',*,*,#263,.T.);
#329=ORIENTED_EDGE('',*,*,#264,.F.);
#330=ORIENTED_EDGE('',*,*,#265,.T.);
#331=ORIENTED_EDGE('',*,*,#266,.F.);
#332=ORIENTED_EDGE('',*,*,#267,.T.);
#333=ORIENTED_EDGE('',*,*,#268,.F.);
#334=ORIENTED_EDGE('',*,*,#269,.T.);
#335=ORIENTED_EDGE('',*,*,#270,.T.);
#336=ORIENTED_EDGE('',*,*,#271,.T.);
#337=ORIENTED_EDGE('',*,*,#272,.T.);
#338=ORIENTED_EDGE('',*,*,#273,.T.);
#339=ORIENTED_EDGE('',*,*,#274,.T.);
#340=ORIENTED_EDGE('',*,*,#275,.T.);
#341=ORIENTED_EDGE('',*,*,#276,.T.);
#342=ORIENTED_EDGE('',*,*,#277,.T.);
#343=ORIENTED_EDGE('',*,*,#262,.F.);
#344=ORIENTED_EDGE('',*,*,#278,.T.);
#345=ORIENTED_EDGE('',*,*,#279,.F.);
#346=ORIENTED_EDGE('',*,*,#263,.F.);
#347=ORIENTED_EDGE('',*,*,#264,.T.);
#348=ORIENTED_EDGE('',*,*,#279,.T.);
#349=ORIENTED_EDGE('',*,*,#280,.T.);
#350=ORIENTED_EDGE('',*,*,#281,.T.);
#351=ORIENTED_EDGE('',*,*,#268,.T.);
#352=ORIENTED_EDGE('',*,*,#282,.T.);
#353=ORIENTED_EDGE('',*,*,#283,.T.);
#354=ORIENTED_EDGE('',*,*,#284,.T.);
#355=ORIENTED_EDGE('',*,*,#282,.F.);
#356=ORIENTED_EDGE('',*,*,#267,.F.);
#357=ORIENTED_EDGE('',*,*,#285,.F.);
#358=ORIENTED_EDGE('',*,*,#286,.T.);
#359=ORIENTED_EDGE('',*,*,#266,.T.);
#360=ORIENTED_EDGE('',*,*,#287,.T.);
#361=ORIENTED_EDGE('',*,*,#288,.T.);
#362=ORIENTED_EDGE('',*,*,#285,.T.);
#363=ORIENTED_EDGE('',*,*,#281,.F.);
#364=ORIENTED_EDGE('',*,*,#289,.T.);
#365=ORIENTED_EDGE('',*,*,#287,.F.);
#366=ORIENTED_EDGE('',*,*,#265,.F.);
#367=ORIENTED_EDGE('',*,*,#290,.T.);
#368=ORIENTED_EDGE('',*,*,#291,.T.);
#369=ORIENTED_EDGE('',*,*,#292,.T.);
#370=ORIENTED_EDGE('',*,*,#291,.F.);
#371=ORIENTED_EDGE('',*,*,#293,.T.);
#372=ORIENTED_EDGE('',*,*,#294,.T.);
#373=ORIENTED_EDGE('',*,*,#295,.T.);
#374=ORIENTED_EDGE('',*,*,#296,.T.);
#375=ORIENTED_EDGE('',*,*,#297,.T.);
#376=ORIENTED_EDGE('',*,*,#298,.T.);
#377=ORIENTED_EDGE('',*,*,#299,.T.);
#378=ORIENTED_EDGE('',*,*,#300,.T.);
#379=ORIENTED_EDGE('',*,*,#301,.F.);
#380=ORIENTED_EDGE('',*,*,#290,.F.);
#381=ORIENTED_EDGE('',*,*,#292,.F.);
#382=ORIENTED_EDGE('',*,*,#302,.T.);
#383=ORIENTED_EDGE('',*,*,#303,.F.);
#384=ORIENTED_EDGE('',*,*,#302,.F.);
#385=ORIENTED_EDGE('',*,*,#301,.T.);
#386=ORIENTED_EDGE('',*,*,#304,.T.);
#387=ORIENTED_EDGE('',*,*,#305,.T.);
#388=ORIENTED_EDGE('',*,*,#304,.F.);
#389=ORIENTED_EDGE('',*,*,#305,.F.);
#390=ORIENTED_EDGE('',*,*,#306,.T.);
#391=ORIENTED_EDGE('',*,*,#307,.F.);
#392=ORIENTED_EDGE('',*,*,#306,.F.);
#393=ORIENTED_EDGE('',*,*,#270,.F.);
#394=ORIENTED_EDGE('',*,*,#308,.T.);
#395=ORIENTED_EDGE('',*,*,#300,.F.);
#396=ORIENTED_EDGE('',*,*,#309,.F.);
#397=ORIENTED_EDGE('',*,*,#271,.F.);
#398=ORIENTED_EDGE('',*,*,#309,.T.);
#399=ORIENTED_EDGE('',*,*,#299,.F.);
#400=ORIENTED_EDGE('',*,*,#310,.F.);
#401=ORIENTED_EDGE('',*,*,#272,.F.);
#402=ORIENTED_EDGE('',*,*,#310,.T.);
#403=ORIENTED_EDGE('',*,*,#298,.F.);
#404=ORIENTED_EDGE('',*,*,#311,.F.);
#405=ORIENTED_EDGE('',*,*,#273,.F.);
#406=ORIENTED_EDGE('',*,*,#311,.T.);
#407=ORIENTED_EDGE('',*,*,#297,.F.);
#408=ORIENTED_EDGE('',*,*,#312,.F.);
#409=ORIENTED_EDGE('',*,*,#274,.F.);
#410=ORIENTED_EDGE('',*,*,#312,.T.);
#411=ORIENTED_EDGE('',*,*,#296,.F.);
#412=ORIENTED_EDGE('',*,*,#313,.F.);
#413=ORIENTED_EDGE('',*,*,#275,.F.);
#414=ORIENTED_EDGE('',*,*,#313,.T.);
#415=ORIENTED_EDGE('',*,*,#295,.F.);
#416=ORIENTED_EDGE('',*,*,#314,.F.);
#417=ORIENTED_EDGE('',*,*,#276,.F.);
#418=ORIENTED_EDGE('',*,*,#314,.T.);
#419=ORIENTED_EDGE('',*,*,#294,.F.);
#420=ORIENTED_EDGE('',*,*,#315,.F.);
#421=ORIENTED_EDGE('',*,*,#277,.F.);
#422=ORIENTED_EDGE('',*,*,#315,.T.);
#423=ORIENTED_EDGE('',*,*,#293,.F.);
#424=ORIENTED_EDGE('',*,*,#308,.F.);
#425=ORIENTED_EDGE('',*,*,#307,.T.);
#426=ORIENTED_EDGE('',*,*,#260,.F.);
#427=ORIENTED_EDGE('',*,*,#269,.F.);
#428=ORIENTED_EDGE('',*,*,#284,.F.);
#429=ORIENTED_EDGE('',*,*,#316,.T.);
#430=ORIENTED_EDGE('',*,*,#303,.T.);
#431=ORIENTED_EDGE('',*,*,#261,.F.);
#432=ORIENTED_EDGE('',*,*,#316,.F.);
#433=ORIENTED_EDGE('',*,*,#283,.F.);
#434=ORIENTED_EDGE('',*,*,#286,.F.);
#435=ORIENTED_EDGE('',*,*,#288,.F.);
#436=ORIENTED_EDGE('',*,*,#289,.F.);
#437=ORIENTED_EDGE('',*,*,#280,.F.);
#438=ORIENTED_EDGE('',*,*,#278,.F.);
#439=ORIENTED_EDGE('',*,*,#317,.F.);
#440=ORIENTED_EDGE('',*,*,#318,.T.);
#441=ORIENTED_EDGE('',*,*,#319,.T.);
#442=ORIENTED_EDGE('',*,*,#318,.F.);
#443=ORIENTED_EDGE('',*,*,#317,.T.);
#444=ORIENTED_EDGE('',*,*,#319,.F.);
#445=ORIENTED_EDGE('',*,*,#320,.F.);
#446=ORIENTED_EDGE('',*,*,#321,.T.);
#447=ORIENTED_EDGE('',*,*,#322,.T.);
#448=ORIENTED_EDGE('',*,*,#321,.F.);
#449=ORIENTED_EDGE('',*,*,#320,.T.);
#450=ORIENTED_EDGE('',*,*,#322,.F.);
#451=CYLINDRICAL_SURFACE('',#507,0.2);
#452=CYLINDRICAL_SURFACE('',#516,0.2);
#453=CYLINDRICAL_SURFACE('',#518,0.2);
#454=CYLINDRICAL_SURFACE('',#521,0.2);
#455=CYLINDRICAL_SURFACE('',#530,0.6);
#456=CYLINDRICAL_SURFACE('',#534,0.6);
#457=CYLINDRICAL_SURFACE('',#542,1.3);
#458=CYLINDRICAL_SURFACE('',#548,0.65);
#459=CYLINDRICAL_SURFACE('',#553,0.65);
#460=ADVANCED_FACE('',(#44),#451,.T.);
#461=ADVANCED_FACE('',(#45,#21),#24,.T.);
#462=ADVANCED_FACE('',(#46),#25,.T.);
#463=ADVANCED_FACE('',(#47),#452,.T.);
#464=ADVANCED_FACE('',(#48),#453,.T.);
#465=ADVANCED_FACE('',(#49),#26,.T.);
#466=ADVANCED_FACE('',(#50),#454,.T.);
#467=ADVANCED_FACE('',(#51),#27,.T.);
#468=ADVANCED_FACE('',(#52),#19,.F.);
#469=ADVANCED_FACE('',(#53,#22,#23),#28,.T.);
#470=ADVANCED_FACE('',(#54),#455,.F.);
#471=ADVANCED_FACE('',(#55),#20,.F.);
#472=ADVANCED_FACE('',(#56),#456,.F.);
#473=ADVANCED_FACE('',(#57),#29,.T.);
#474=ADVANCED_FACE('',(#58),#30,.T.);
#475=ADVANCED_FACE('',(#59),#31,.T.);
#476=ADVANCED_FACE('',(#60),#32,.T.);
#477=ADVANCED_FACE('',(#61),#33,.T.);
#478=ADVANCED_FACE('',(#62),#34,.T.);
#479=ADVANCED_FACE('',(#63),#457,.T.);
#480=ADVANCED_FACE('',(#64),#35,.T.);
#481=ADVANCED_FACE('',(#65),#36,.T.);
#482=ADVANCED_FACE('',(#66),#37,.T.);
#483=ADVANCED_FACE('',(#67),#38,.T.);
#484=ADVANCED_FACE('',(#68),#39,.F.);
#485=ADVANCED_FACE('',(#69),#458,.T.);
#486=ADVANCED_FACE('',(#70),#40,.T.);
#487=ADVANCED_FACE('',(#71),#41,.F.);
#488=ADVANCED_FACE('',(#72),#459,.T.);
#489=ADVANCED_FACE('',(#73),#42,.T.);
#490=ADVANCED_FACE('',(#74),#43,.F.);
#491=CLOSED_SHELL('',(#460,#461,#462,#463,#464,#465,#466,#467,#468,#469,
#470,#471,#472,#473,#474,#475,#476,#477,#478,#479,#480,#481,#482,#483,#484));
#492=CLOSED_SHELL('',(#485,#486,#487));
#493=CLOSED_SHELL('',(#488,#489,#490));
#494=DERIVED_UNIT_ELEMENT(#496,1.);
#495=DERIVED_UNIT_ELEMENT(#849,-3.);
#496=(
MASS_UNIT()
NAMED_UNIT(*)
SI_UNIT(.KILO.,.GRAM.)
);
#497=DERIVED_UNIT((#494,#495));
#498=MEASURE_REPRESENTATION_ITEM('density measure',
POSITIVE_RATIO_MEASURE(7850.),#497);
#499=PROPERTY_DEFINITION_REPRESENTATION(#504,#501);
#500=PROPERTY_DEFINITION_REPRESENTATION(#505,#502);
#501=REPRESENTATION('material name',(#503),#846);
#502=REPRESENTATION('density',(#498),#846);
#503=DESCRIPTIVE_REPRESENTATION_ITEM('\X2\92FC\X0\','\X2\92FC\X0\');
#504=PROPERTY_DEFINITION('material property','material name',#856);
#505=PROPERTY_DEFINITION('material property','density of part',#856);
#506=AXIS2_PLACEMENT_3D('',#706,#558,#559);
#507=AXIS2_PLACEMENT_3D('',#707,#560,#561);
#508=AXIS2_PLACEMENT_3D('',#710,#562,#563);
#509=AXIS2_PLACEMENT_3D('',#714,#565,#566);
#510=AXIS2_PLACEMENT_3D('',#716,#568,#569);
#511=AXIS2_PLACEMENT_3D('',#720,#571,#572);
#512=AXIS2_PLACEMENT_3D('',#724,#574,#575);
#513=AXIS2_PLACEMENT_3D('',#728,#577,#578);
#514=AXIS2_PLACEMENT_3D('',#744,#586,#587);
#515=AXIS2_PLACEMENT_3D('',#746,#589,#590);
#516=AXIS2_PLACEMENT_3D('',#750,#593,#594);
#517=AXIS2_PLACEMENT_3D('',#752,#595,#596);
#518=AXIS2_PLACEMENT_3D('',#754,#598,#599);
#519=AXIS2_PLACEMENT_3D('',#758,#601,#602);
#520=AXIS2_PLACEMENT_3D('',#760,#604,#605);
#521=AXIS2_PLACEMENT_3D('',#764,#608,#609);
#522=AXIS2_PLACEMENT_3D('',#767,#611,#612);
#523=AXIS2_PLACEMENT_3D('',#768,#613,#614);
#524=AXIS2_PLACEMENT_3D('',#770,#616,#617);
#525=AXIS2_PLACEMENT_3D('',#772,#618,#619);
#526=AXIS2_PLACEMENT_3D('',#775,#621,#622);
#527=AXIS2_PLACEMENT_3D('',#776,#623,#624);
#528=AXIS2_PLACEMENT_3D('',#781,#626,#627);
#529=AXIS2_PLACEMENT_3D('',#794,#634,#635);
#530=AXIS2_PLACEMENT_3D('',#795,#636,#637);
#531=AXIS2_PLACEMENT_3D('',#798,#639,#640);
#532=AXIS2_PLACEMENT_3D('',#799,#641,#642);
#533=AXIS2_PLACEMENT_3D('',#802,#644,#645);
#534=AXIS2_PLACEMENT_3D('',#803,#646,#647);
#535=AXIS2_PLACEMENT_3D('',#806,#649,#650);
#536=AXIS2_PLACEMENT_3D('',#807,#651,#652);
#537=AXIS2_PLACEMENT_3D('',#810,#655,#656);
#538=AXIS2_PLACEMENT_3D('',#812,#658,#659);
#539=AXIS2_PLACEMENT_3D('',#814,#661,#662);
#540=AXIS2_PLACEMENT_3D('',#816,#664,#665);
#541=AXIS2_PLACEMENT_3D('',#818,#667,#668);
#542=AXIS2_PLACEMENT_3D('',#820,#670,#671);
#543=AXIS2_PLACEMENT_3D('',#822,#673,#674);
#544=AXIS2_PLACEMENT_3D('',#823,#675,#676);
#545=AXIS2_PLACEMENT_3D('',#824,#677,#678);
#546=AXIS2_PLACEMENT_3D('',#826,#680,#681);
#547=AXIS2_PLACEMENT_3D('',#827,#682,#683);
#548=AXIS2_PLACEMENT_3D('',#828,#684,#685);
#549=AXIS2_PLACEMENT_3D('',#830,#686,#687);
#550=AXIS2_PLACEMENT_3D('',#833,#689,#690);
#551=AXIS2_PLACEMENT_3D('',#834,#691,#692);
#552=AXIS2_PLACEMENT_3D('',#835,#693,#694);
#553=AXIS2_PLACEMENT_3D('',#836,#695,#696);
#554=AXIS2_PLACEMENT_3D('',#838,#697,#698);
#555=AXIS2_PLACEMENT_3D('',#841,#700,#701);
#556=AXIS2_PLACEMENT_3D('',#842,#702,#703);
#557=AXIS2_PLACEMENT_3D('',#843,#704,#705);
#558=DIRECTION('axis',(0.,0.,1.));
#559=DIRECTION('refdir',(1.,0.,0.));
#560=DIRECTION('center_axis',(0.,1.,0.));
#561=DIRECTION('ref_axis',(-0.707106781186548,0.,-0.707106781186548));
#562=DIRECTION('center_axis',(0.,-1.,0.));
#563=DIRECTION('ref_axis',(-0.707106781186548,0.,-0.707106781186548));
#564=DIRECTION('',(0.,-1.,0.));
#565=DIRECTION('center_axis',(0.,1.,0.));
#566=DIRECTION('ref_axis',(-0.707106781186548,0.,-0.707106781186548));
#567=DIRECTION('',(0.,1.,0.));
#568=DIRECTION('center_axis',(0.,1.,0.));
#569=DIRECTION('ref_axis',(0.,0.,1.));
#570=DIRECTION('',(0.,0.,1.));
#571=DIRECTION('center_axis',(0.,-1.,0.));
#572=DIRECTION('ref_axis',(-0.707106781186547,0.,0.707106781186548));
#573=DIRECTION('',(1.,0.,0.));
#574=DIRECTION('center_axis',(0.,-1.,0.));
#575=DIRECTION('ref_axis',(0.707106781186548,0.,0.707106781186547));
#576=DIRECTION('',(0.,0.,-1.));
#577=DIRECTION('center_axis',(0.,-1.,0.));
#578=DIRECTION('ref_axis',(0.707106781186548,0.,-0.707106781186548));
#579=DIRECTION('',(-1.,0.,0.));
#580=DIRECTION('',(-0.499999999999998,0.,-0.86602540378444));
#581=DIRECTION('',(-1.,0.,2.12331750650717E-16));
#582=DIRECTION('',(-0.500000000000001,0.,0.866025403784438));
#583=DIRECTION('',(-1.,0.,4.33680868994202E-16));
#584=DIRECTION('',(0.,0.,-1.));
#585=DIRECTION('',(1.,0.,-9.7461131119548E-9));
#586=DIRECTION('center_axis',(0.,-1.,0.));
#587=DIRECTION('ref_axis',(4.2700885562506E-16,0.,1.));
#588=DIRECTION('',(-1.,0.,0.));
#589=DIRECTION('center_axis',(-1.,0.,0.));
#590=DIRECTION('ref_axis',(0.,0.,1.));
#591=DIRECTION('',(0.,0.,1.));
#592=DIRECTION('',(0.,-1.,0.));
#593=DIRECTION('center_axis',(0.,1.,0.));
#594=DIRECTION('ref_axis',(-0.707106781186547,0.,0.707106781186548));
#595=DIRECTION('center_axis',(0.,1.,0.));
#596=DIRECTION('ref_axis',(-0.707106781186547,0.,0.707106781186548));
#597=DIRECTION('',(0.,1.,0.));
#598=DIRECTION('center_axis',(0.,1.,0.));
#599=DIRECTION('ref_axis',(0.707106781186548,0.,-0.707106781186548));
#600=DIRECTION('',(0.,-1.,0.));
#601=DIRECTION('center_axis',(0.,1.,0.));
#602=DIRECTION('ref_axis',(0.707106781186548,0.,-0.707106781186548));
#603=DIRECTION('',(0.,1.,0.));
#604=DIRECTION('center_axis',(1.,0.,0.));
#605=DIRECTION('ref_axis',(0.,0.,-1.));
#606=DIRECTION('',(0.,1.,0.));
#607=DIRECTION('',(0.,0.,-1.));
#608=DIRECTION('center_axis',(0.,1.,0.));
#609=DIRECTION('ref_axis',(0.707106781186548,0.,0.707106781186547));
#610=DIRECTION('',(0.,-1.,0.));
#611=DIRECTION('center_axis',(0.,1.,0.));
#612=DIRECTION('ref_axis',(0.707106781186548,0.,0.707106781186547));
#613=DIRECTION('center_axis',(0.,0.,1.));
#614=DIRECTION('ref_axis',(1.,0.,0.));
#615=DIRECTION('',(1.,0.,0.));
#616=DIRECTION('center_axis',(0.,1.,0.));
#617=DIRECTION('ref_axis',(-1.,0.,0.));
#618=DIRECTION('center_axis',(0.,1.,0.));
#619=DIRECTION('ref_axis',(-1.,0.,0.));
#620=DIRECTION('',(-0.707106781186547,-0.707106781186547,8.65956056235493E-17));
#621=DIRECTION('center_axis',(0.,-1.,0.));
#622=DIRECTION('ref_axis',(-1.,0.,0.));
#623=DIRECTION('center_axis',(0.,1.,0.));
#624=DIRECTION('ref_axis',(-1.,0.,0.));
#625=DIRECTION('',(1.,0.,0.));
#626=DIRECTION('center_axis',(0.,1.,0.));
#627=DIRECTION('ref_axis',(4.2700885562506E-16,0.,1.));
#628=DIRECTION('',(-1.,0.,9.7461131119548E-9));
#629=DIRECTION('',(0.,0.,1.));
#630=DIRECTION('',(1.,0.,-4.33680868994202E-16));
#631=DIRECTION('',(0.500000000000001,0.,-0.866025403784438));
#632=DIRECTION('',(1.,0.,-2.12331750650717E-16));
#633=DIRECTION('',(0.499999999999998,0.,0.86602540378444));
#634=DIRECTION('center_axis',(0.,1.,0.));
#635=DIRECTION('ref_axis',(-1.,0.,0.));
#636=DIRECTION('center_axis',(0.,1.,0.));
#637=DIRECTION('ref_axis',(-1.,0.,0.));
#638=DIRECTION('',(0.,-1.,0.));
#639=DIRECTION('center_axis',(0.,1.,0.));
#640=DIRECTION('ref_axis',(-1.,0.,0.));
#641=DIRECTION('center_axis',(0.,1.,0.));
#642=DIRECTION('ref_axis',(-1.,0.,0.));
#643=DIRECTION('',(-0.707106781186547,-0.707106781186548,8.65956056235493E-17));
#644=DIRECTION('center_axis',(0.,-1.,0.));
#645=DIRECTION('ref_axis',(-1.,0.,0.));
#646=DIRECTION('center_axis',(0.,1.,0.));
#647=DIRECTION('ref_axis',(-1.,0.,0.));
#648=DIRECTION('',(0.,-1.,0.));
#649=DIRECTION('center_axis',(0.,1.,0.));
#650=DIRECTION('ref_axis',(-1.,0.,0.));
#651=DIRECTION('center_axis',(-0.86602540378444,0.,0.499999999999998));
#652=DIRECTION('ref_axis',(0.499999999999998,0.,0.86602540378444));
#653=DIRECTION('',(0.,1.,0.));
#654=DIRECTION('',(0.,1.,0.));
#655=DIRECTION('center_axis',(2.12331750650717E-16,0.,1.));
#656=DIRECTION('ref_axis',(1.,0.,-2.12331750650717E-16));
#657=DIRECTION('',(0.,1.,0.));
#658=DIRECTION('center_axis',(0.866025403784438,0.,0.500000000000001));
#659=DIRECTION('ref_axis',(0.500000000000001,0.,-0.866025403784438));
#660=DIRECTION('',(0.,1.,0.));
#661=DIRECTION('center_axis',(4.33680868994202E-16,0.,1.));
#662=DIRECTION('ref_axis',(1.,0.,-4.33680868994202E-16));
#663=DIRECTION('',(0.,1.,0.));
#664=DIRECTION('center_axis',(-1.,0.,0.));
#665=DIRECTION('ref_axis',(0.,0.,1.));
#666=DIRECTION('',(0.,1.,0.));
#667=DIRECTION('center_axis',(-9.7461131119548E-9,0.,-1.));
#668=DIRECTION('ref_axis',(-1.,0.,9.7461131119548E-9));
#669=DIRECTION('',(0.,1.,0.));
#670=DIRECTION('center_axis',(0.,1.,0.));
#671=DIRECTION('ref_axis',(4.2700885562506E-16,0.,1.));
#672=DIRECTION('',(0.,1.,0.));
#673=DIRECTION('center_axis',(0.,0.,1.));
#674=DIRECTION('ref_axis',(1.,0.,0.));
#675=DIRECTION('center_axis',(0.,1.,0.));
#676=DIRECTION('ref_axis',(0.,0.,1.));
#677=DIRECTION('center_axis',(0.,0.,-1.));
#678=DIRECTION('ref_axis',(-1.,0.,0.));
#679=DIRECTION('',(-1.,0.,0.));
#680=DIRECTION('center_axis',(0.,1.,0.));
#681=DIRECTION('ref_axis',(0.,0.,1.));
#682=DIRECTION('center_axis',(0.,1.,0.));
#683=DIRECTION('ref_axis',(1.,0.,0.));
#684=DIRECTION('center_axis',(0.,-1.,0.));
#685=DIRECTION('ref_axis',(1.,0.,0.));
#686=DIRECTION('center_axis',(0.,-1.,0.));
#687=DIRECTION('ref_axis',(1.,0.,0.));
#688=DIRECTION('',(0.,1.,0.));
#689=DIRECTION('center_axis',(0.,-1.,0.));
#690=DIRECTION('ref_axis',(1.,0.,0.));
#691=DIRECTION('center_axis',(0.,-1.,0.));
#692=DIRECTION('ref_axis',(1.,0.,0.));
#693=DIRECTION('center_axis',(0.,-1.,0.));
#694=DIRECTION('ref_axis',(1.,0.,0.));
#695=DIRECTION('center_axis',(0.,-1.,0.));
#696=DIRECTION('ref_axis',(1.,0.,0.));
#697=DIRECTION('center_axis',(0.,-1.,0.));
#698=DIRECTION('ref_axis',(1.,0.,0.));
#699=DIRECTION('',(0.,1.,0.));
#700=DIRECTION('center_axis',(0.,-1.,0.));
#701=DIRECTION('ref_axis',(1.,0.,0.));
#702=DIRECTION('center_axis',(0.,-1.,0.));
#703=DIRECTION('ref_axis',(1.,0.,0.));
#704=DIRECTION('center_axis',(0.,-1.,0.));
#705=DIRECTION('ref_axis',(1.,0.,0.));
#706=CARTESIAN_POINT('',(0.,0.,0.));
#707=CARTESIAN_POINT('Origin',(0.2,0.,-4.));
#708=CARTESIAN_POINT('',(0.,1.,-4.));
#709=CARTESIAN_POINT('',(0.2,1.,-4.2));
#710=CARTESIAN_POINT('Origin',(0.2,1.,-4.));
#711=CARTESIAN_POINT('',(0.2,0.,-4.2));
#712=CARTESIAN_POINT('',(0.2,0.,-4.2));
#713=CARTESIAN_POINT('',(0.,0.,-4.));
#714=CARTESIAN_POINT('Origin',(0.2,0.,-4.));
#715=CARTESIAN_POINT('',(0.,0.,-4.));
#716=CARTESIAN_POINT('Origin',(2.9,1.,-2.1));
#717=CARTESIAN_POINT('',(0.,1.,-0.2));
#718=CARTESIAN_POINT('',(0.,1.,-4.2));
#719=CARTESIAN_POINT('',(0.2,1.,0.));
#720=CARTESIAN_POINT('Origin',(0.2,1.,-0.2));
#721=CARTESIAN_POINT('',(5.6,1.,0.));
#722=CARTESIAN_POINT('',(0.,1.,0.));
#723=CARTESIAN_POINT('',(5.8,1.,-0.2));
#724=CARTESIAN_POINT('Origin',(5.6,1.,-0.2));
#725=CARTESIAN_POINT('',(5.8,1.,-4.));
#726=CARTESIAN_POINT('',(5.8,1.,0.));
#727=CARTESIAN_POINT('',(5.6,1.,-4.2));
#728=CARTESIAN_POINT('Origin',(5.6,1.,-4.));
#729=CARTESIAN_POINT('',(5.8,1.,-4.2));
#730=CARTESIAN_POINT('',(3.4,1.,-0.8));
#731=CARTESIAN_POINT('',(3.22679491924311,1.,-1.1));
#732=CARTESIAN_POINT('',(2.96943920339162,1.,-1.54575317547306));
#733=CARTESIAN_POINT('',(2.57320506443882,1.,-1.1));
#734=CARTESIAN_POINT('',(2.73660253221941,1.,-1.1));
#735=CARTESIAN_POINT('',(2.4,1.,-0.80000002826373));
#736=CARTESIAN_POINT('',(2.74395825011067,1.,-1.39575319313789));
#737=CARTESIAN_POINT('',(0.8,1.,-0.800000028263729));
#738=CARTESIAN_POINT('',(1.85,1.,-0.800000028263729));
#739=CARTESIAN_POINT('',(0.8,1.,-3.39999997173627));
#740=CARTESIAN_POINT('',(0.8,1.,-2.74999998586814));
#741=CARTESIAN_POINT('',(3.7,1.,-3.4));
#742=CARTESIAN_POINT('',(3.29999999366503,1.,-3.39999999610155));
#743=CARTESIAN_POINT('',(3.7,1.,-0.8));
#744=CARTESIAN_POINT('Origin',(3.7,1.,-2.1));
#745=CARTESIAN_POINT('',(3.15,1.,-0.8));
#746=CARTESIAN_POINT('Origin',(0.,0.,-4.2));
#747=CARTESIAN_POINT('',(0.,0.,-0.2));
#748=CARTESIAN_POINT('',(0.,0.,-4.2));
#749=CARTESIAN_POINT('',(0.,0.,-0.2));
#750=CARTESIAN_POINT('Origin',(0.2,0.,-0.2));
#751=CARTESIAN_POINT('',(0.2,0.,0.));
#752=CARTESIAN_POINT('Origin',(0.2,0.,-0.2));
#753=CARTESIAN_POINT('',(0.2,0.,0.));
#754=CARTESIAN_POINT('Origin',(5.6,0.,-4.));
#755=CARTESIAN_POINT('',(5.8,0.,-4.));
#756=CARTESIAN_POINT('',(5.8,0.,-4.));
#757=CARTESIAN_POINT('',(5.6,0.,-4.2));
#758=CARTESIAN_POINT('Origin',(5.6,0.,-4.));
#759=CARTESIAN_POINT('',(5.6,0.,-4.2));
#760=CARTESIAN_POINT('Origin',(5.8,0.,0.));
#761=CARTESIAN_POINT('',(5.8,0.,-0.2));
#762=CARTESIAN_POINT('',(5.8,0.,-0.2));
#763=CARTESIAN_POINT('',(5.8,0.,0.));
#764=CARTESIAN_POINT('Origin',(5.6,0.,-0.2));
#765=CARTESIAN_POINT('',(5.6,0.,0.));
#766=CARTESIAN_POINT('',(5.6,0.,0.));
#767=CARTESIAN_POINT('Origin',(5.6,0.,-0.2));
#768=CARTESIAN_POINT('Origin',(0.,0.,0.));
#769=CARTESIAN_POINT('',(0.,0.,0.));
#770=CARTESIAN_POINT('Origin',(3.9,6.4,-2.1));
#771=CARTESIAN_POINT('',(4.7,6.5,-2.1));
#772=CARTESIAN_POINT('Origin',(3.9,6.5,-2.1));
#773=CARTESIAN_POINT('',(4.5,6.3,-2.1));
#774=CARTESIAN_POINT('',(4.6,6.4,-2.1));
#775=CARTESIAN_POINT('Origin',(3.9,6.3,-2.1));
#776=CARTESIAN_POINT('Origin',(2.9,6.5,-2.1));
#777=CARTESIAN_POINT('',(3.4,6.5,-0.8));
#778=CARTESIAN_POINT('',(3.7,6.5,-0.8));
#779=CARTESIAN_POINT('',(3.4,6.5,-0.8));
#780=CARTESIAN_POINT('',(3.7,6.5,-3.4));
#781=CARTESIAN_POINT('Origin',(3.7,6.5,-2.1));
#782=CARTESIAN_POINT('',(0.8,6.5,-3.39999997173627));
#783=CARTESIAN_POINT('',(3.7,6.5,-3.4));
#784=CARTESIAN_POINT('',(0.8,6.5,-0.800000028263729));
#785=CARTESIAN_POINT('',(0.8,6.5,-3.39999997173627));
#786=CARTESIAN_POINT('',(2.4,6.5,-0.80000002826373));
#787=CARTESIAN_POINT('',(2.4,6.5,-0.80000002826373));
#788=CARTESIAN_POINT('',(2.57320506443882,6.5,-1.1));
#789=CARTESIAN_POINT('',(2.57320506443882,6.5,-1.1));
#790=CARTESIAN_POINT('',(3.22679491924311,6.5,-1.1));
#791=CARTESIAN_POINT('',(3.22679491924311,6.5,-1.1));
#792=CARTESIAN_POINT('',(3.4,6.5,-0.8));
#793=CARTESIAN_POINT('',(2.7,6.5,-2.1));
#794=CARTESIAN_POINT('Origin',(1.9,6.5,-2.1));
#795=CARTESIAN_POINT('Origin',(3.9,1.,-2.1));
#796=CARTESIAN_POINT('',(4.5,1.,-2.1));
#797=CARTESIAN_POINT('',(4.5,1.,-2.1));
#798=CARTESIAN_POINT('Origin',(3.9,1.,-2.1));
#799=CARTESIAN_POINT('Origin',(1.9,6.4,-2.1));
#800=CARTESIAN_POINT('',(2.5,6.3,-2.1));
#801=CARTESIAN_POINT('',(2.6,6.4,-2.1));
#802=CARTESIAN_POINT('Origin',(1.9,6.3,-2.1));
#803=CARTESIAN_POINT('Origin',(1.9,1.,-2.1));
#804=CARTESIAN_POINT('',(2.5,1.,-2.1));
#805=CARTESIAN_POINT('',(2.5,1.,-2.1));
#806=CARTESIAN_POINT('Origin',(1.9,1.,-2.1));
#807=CARTESIAN_POINT('Origin',(3.22679491924311,1.,-1.1));
#808=CARTESIAN_POINT('',(3.4,1.,-0.8));
#809=CARTESIAN_POINT('',(3.22679491924311,1.,-1.1));
#810=CARTESIAN_POINT('Origin',(2.57320506443882,1.,-1.1));
#811=CARTESIAN_POINT('',(2.57320506443882,1.,-1.1));
#812=CARTESIAN_POINT('Origin',(2.4,1.,-0.80000002826373));
#813=CARTESIAN_POINT('',(2.4,1.,-0.80000002826373));
#814=CARTESIAN_POINT('Origin',(0.8,1.,-0.800000028263729));
#815=CARTESIAN_POINT('',(0.8,1.,-0.800000028263729));
#816=CARTESIAN_POINT('Origin',(0.8,1.,-3.39999997173627));
#817=CARTESIAN_POINT('',(0.8,1.,-3.39999997173627));
#818=CARTESIAN_POINT('Origin',(3.7,1.,-3.4));
#819=CARTESIAN_POINT('',(3.7,1.,-3.4));
#820=CARTESIAN_POINT('Origin',(3.7,1.,-2.1));
#821=CARTESIAN_POINT('',(3.7,1.,-0.8));
#822=CARTESIAN_POINT('Origin',(3.4,1.,-0.8));
#823=CARTESIAN_POINT('Origin',(2.9,1.,-2.1));
#824=CARTESIAN_POINT('Origin',(5.8,0.,-4.2));
#825=CARTESIAN_POINT('',(5.8,0.,-4.2));
#826=CARTESIAN_POINT('Origin',(2.9,1.,-2.1));
#827=CARTESIAN_POINT('Origin',(2.9,0.,-2.1));
#828=CARTESIAN_POINT('Origin',(3.9,0.,-2.09999993019379));
#829=CARTESIAN_POINT('',(3.25,-2.,-2.09999993019379));
#830=CARTESIAN_POINT('Origin',(3.9,-2.,-2.09999993019379));
#831=CARTESIAN_POINT('',(3.25,0.,-2.09999993019379));
#832=CARTESIAN_POINT('',(3.25,0.,-2.09999993019379));
#833=CARTESIAN_POINT('Origin',(3.9,0.,-2.09999993019379));
#834=CARTESIAN_POINT('Origin',(3.9,-2.,-2.09999993019379));
#835=CARTESIAN_POINT('Origin',(3.9,0.,-2.09999993019379));
#836=CARTESIAN_POINT('Origin',(1.89999995753169,0.,-2.09999995306134));
#837=CARTESIAN_POINT('',(1.24999995753169,-2.,-2.09999995306134));
#838=CARTESIAN_POINT('Origin',(1.89999995753169,-2.,-2.09999995306134));
#839=CARTESIAN_POINT('',(1.24999995753169,0.,-2.09999995306134));
#840=CARTESIAN_POINT('',(1.24999995753169,0.,-2.09999995306134));
#841=CARTESIAN_POINT('Origin',(1.89999995753169,0.,-2.09999995306134));
#842=CARTESIAN_POINT('Origin',(1.89999995753169,-2.,-2.09999995306134));
#843=CARTESIAN_POINT('Origin',(1.89999995753169,0.,-2.09999995306134));
#844=UNCERTAINTY_MEASURE_WITH_UNIT(LENGTH_MEASURE(0.01),#848,
'DISTANCE_ACCURACY_VALUE',
'Maximum model space distance between geometric entities at asserted c
onnectivities');
#845=UNCERTAINTY_MEASURE_WITH_UNIT(LENGTH_MEASURE(0.01),#848,
'DISTANCE_ACCURACY_VALUE',
'Maximum model space distance between geometric entities at asserted c
onnectivities');
#846=(
GEOMETRIC_REPRESENTATION_CONTEXT(3)
GLOBAL_UNCERTAINTY_ASSIGNED_CONTEXT((#844))
GLOBAL_UNIT_ASSIGNED_CONTEXT((#848,#850,#851))
REPRESENTATION_CONTEXT('','3D')
);
#847=(
GEOMETRIC_REPRESENTATION_CONTEXT(3)
GLOBAL_UNCERTAINTY_ASSIGNED_CONTEXT((#845))
GLOBAL_UNIT_ASSIGNED_CONTEXT((#848,#850,#851))
REPRESENTATION_CONTEXT('','3D')
);
#848=(
LENGTH_UNIT()
NAMED_UNIT(*)
SI_UNIT(.MILLI.,.METRE.)
);
#849=(
LENGTH_UNIT()
NAMED_UNIT(*)
SI_UNIT($,.METRE.)
);
#850=(
NAMED_UNIT(*)
PLANE_ANGLE_UNIT()
SI_UNIT($,.RADIAN.)
);
#851=(
NAMED_UNIT(*)
SI_UNIT($,.STERADIAN.)
SOLID_ANGLE_UNIT()
);
#852=SHAPE_DEFINITION_REPRESENTATION(#853,#854);
#853=PRODUCT_DEFINITION_SHAPE('',$,#856);
#854=SHAPE_REPRESENTATION('',(#506),#846);
#855=PRODUCT_DEFINITION_CONTEXT('part definition',#860,'design');
#856=PRODUCT_DEFINITION('A30-M','A30-M v2',#857,#855);
#857=PRODUCT_DEFINITION_FORMATION('',$,#862);
#858=PRODUCT_RELATED_PRODUCT_CATEGORY('A30-M v2','A30-M v2',(#862));
#859=APPLICATION_PROTOCOL_DEFINITION('international standard',
'automotive_design',2009,#860);
#860=APPLICATION_CONTEXT(
'Core Data for Automotive Mechanical Design Process');
#861=PRODUCT_CONTEXT('part definition',#860,'mechanical');
#862=PRODUCT('A30-M','A30-M v2',$,(#861));
#863=PRESENTATION_STYLE_ASSIGNMENT((#866));
#864=PRESENTATION_STYLE_ASSIGNMENT((#867));
#865=PRESENTATION_STYLE_ASSIGNMENT((#868));
#866=SURFACE_STYLE_USAGE(.BOTH.,#869);
#867=SURFACE_STYLE_USAGE(.BOTH.,#870);
#868=SURFACE_STYLE_USAGE(.BOTH.,#871);
#869=SURFACE_SIDE_STYLE('',(#872));
#870=SURFACE_SIDE_STYLE('',(#873));
#871=SURFACE_SIDE_STYLE('',(#874));
#872=SURFACE_STYLE_FILL_AREA(#875);
#873=SURFACE_STYLE_FILL_AREA(#876);
#874=SURFACE_STYLE_FILL_AREA(#877);
#875=FILL_AREA_STYLE('\X2\92FC\X0\ - \X2\30B530C630F3\X0\',(#878));
#876=FILL_AREA_STYLE('ABS(\X2\767D\X0\)',(#879));
#877=FILL_AREA_STYLE('\X2\771F936E\X0\ - \X2\3064308451FA3057\X0\',(#880));
#878=FILL_AREA_STYLE_COLOUR('\X2\92FC\X0\ - \X2\30B530C630F3\X0\',#881);
#879=FILL_AREA_STYLE_COLOUR('ABS(\X2\767D\X0\)',#882);
#880=FILL_AREA_STYLE_COLOUR('\X2\771F936E\X0\ - \X2\3064308451FA3057\X0\',
#883);
#881=COLOUR_RGB('\X2\92FC\X0\ - \X2\30B530C630F3\X0\',0.627450980392157,
0.627450980392157,0.627450980392157);
#882=COLOUR_RGB('ABS(\X2\767D\X0\)',0.964705882352941,0.964705882352941,
0.952941176470588);
#883=COLOUR_RGB('\X2\771F936E\X0\ - \X2\3064308451FA3057\X0\',0.952941176470588,
0.796078431372549,0.486274509803922);
ENDSEC;
END-ISO-10303-21;
