M48
;DRILL file {KiCad 4.0.4-stable} date 10/31/16 15:00:15
;FORMAT={-:-/ absolute / metric / decimal}
FMAT,2
METRIC,TZ
T1C0.800
T2C1.000
T3C2.500
T4C3.000
%
G90
G05
M71
T1
X24.13Y-27.94
X24.13Y-31.115
X25.4Y-15.24
X27.94Y-17.78
X30.48Y-15.24
X33.02Y-17.78
X36.83Y-27.94
X36.83Y-31.115
X40.64Y-17.78
X45.72Y-17.78
T2
X10.Y-15.
X10.Y-17.5
X10.Y-20.
X10.Y-22.5
X10.Y-25.
X23.02Y-10.16
X25.52Y-10.16
X27.94Y-27.94
X28.02Y-10.16
X30.44Y-27.94
X30.52Y-10.16
X32.94Y-27.94
X33.02Y-10.16
X40.64Y-27.94
X43.14Y-27.94
X45.64Y-27.94
T4
X5.Y-5.
X45.Y-5.
T3
X30.19Y-34.44G85X30.69Y-34.44
G05
X42.89Y-34.44G85X43.39Y-34.44
G05
T0
M30
