M48
;DRILL file {KiCad 4.0.6} date 03/21/17 17:18:29
;FORMAT={-:-/ absolute / metric / decimal}
FMAT,2
METRIC,TZ
T1C0.300
T2C0.500
T3C0.600
T4C0.700
T5C0.762
T6C0.800
T7C1.000
T8C1.016
T9C1.600
T10C1.800
T11C3.000
T12C3.048
%
G90
G05
M71
T1
X1.5Y-68.5
X6.Y-69.5
X11.Y-51.
X16.5Y-52.
X18.Y-72.
X18.5Y-63.
X20.5Y-45.
X20.5Y-73.
X21.5Y-50.9
X26.4Y-51.5
X27.Y-65.
X27.4Y-53.9
X27.4Y-55.1
X28.6Y-53.925
X28.6Y-55.1
X28.7Y-51.5
X28.8Y-53.1
X29.5Y-52.
X29.5Y-55.5
X30.Y-43.
X30.Y-45.
X31.Y-49.
X31.Y-65.
X32.Y-50.
X34.Y-45.
X36.Y-17.5
X36.4Y-50.4
X36.4Y-55.2
X36.5Y-43.
X37.Y-17.5
X37.2Y-50.4
X37.2Y-55.4
X37.5Y-63.3
X37.8Y-48.6
X38.Y-50.4
X38.Y-55.6
X38.8Y-55.8
X39.4Y-49.2
X39.4Y-56.2
X39.4Y-64.6
X40.Y-50.4
X40.Y-56.6
X42.Y-43.
X42.Y-45.
X46.Y-45.
X48.Y-17.5
X48.5Y-43.
X49.Y-17.5
X54.Y-45.
X54.095Y-43.
X58.Y-45.
X60.Y-17.5
X60.Y-64.
X60.5Y-43.
X61.Y-17.5
X62.5Y-64.
X63.5Y-24.5
X63.5Y-29.
X63.5Y-31.
X63.555Y-35.3
X64.5Y-33.
X65.Y-24.5
X65.6Y-28.7
X65.6Y-31.3
X66.5Y-24.5
X66.5Y-26.
X66.5Y-28.
X69.5Y-34.
X70.Y-33.
X72.5Y-31.
X72.5Y-43.
X72.5Y-45.
T2
X19.Y-48.
X21.Y-48.
X25.5Y-47.5
X26.5Y-44.5
X38.5Y-44.5
X50.5Y-44.5
X67.Y-52.
X67.5Y-50.
X68.Y-48.
T3
X27.5Y-28.
X34.Y-28.
X35.5Y-29.
X35.5Y-30.5
X39.5Y-28.
X41.8Y-55.2
X46.Y-28.
X47.5Y-29.
X47.5Y-30.5
X51.5Y-28.
X58.Y-28.
X59.5Y-29.
X59.5Y-30.5
X63.Y-7.
X74.5Y-21.6
T4
X1.5Y-55.
X3.Y-55.
X4.5Y-55.
X6.Y-55.
X7.5Y-55.
X9.Y-55.
X16.5Y-43.
X18.Y-43.
X19.5Y-43.
X21.Y-43.
X22.5Y-43.
X24.Y-43.
T5
X1.19Y-59.96
X1.19Y-62.5
X1.19Y-65.04
X7.09Y-42.
X8.81Y-59.96
X8.81Y-62.5
X8.81Y-65.04
X9.Y-42.
X10.91Y-42.
T6
X37.5Y-75.
X40.Y-75.
X40.5Y-72.
X66.5Y-15.
X67.5Y-8.5
X69.Y-15.
X72.5Y-19.5
X72.5Y-23.5
T7
X13.Y-69.
X15.5Y-69.
X18.Y-69.
X20.5Y-69.
X25.5Y-69.
X28.Y-69.
X30.5Y-69.
X33.Y-69.
X55.Y-69.
X57.5Y-69.
X60.Y-69.
X62.5Y-69.
T8
X8.5Y-72.96
X8.5Y-75.5
T11
X3.Y-75.
X16.75Y-75.5
X29.25Y-75.5
X58.75Y-75.5
X73.Y-3.
X73.Y-75.
T12
X31.Y-18.
X43.Y-18.
X55.Y-18.
T9
X2.Y-20.6G85X6.Y-20.6
G05
X12.Y-20.6G85X16.Y-20.6
G05
T10
X2.2Y-6.05G85X2.2Y-2.95
G05
X3.7Y-14.35G85X3.7Y-11.65
G05
X7.85Y-3.6G85X10.95Y-3.6
G05
X8.05Y-12.6G85X10.75Y-12.6
G05
T0
M30
