G04 #@! TF.FileFunction,Soldermask,Top*
%FSLAX46Y46*%
G04 Gerber Fmt 4.6, Leading zero omitted, Abs format (unit mm)*
G04 Created by KiCad (PCBNEW 4.0.5) date 03/14/17 16:25:11*
%MOMM*%
%LPD*%
G01*
G04 APERTURE LIST*
%ADD10C,0.100000*%
%ADD11C,0.010000*%
%ADD12C,2.100000*%
%ADD13R,2.100000X2.100000*%
%ADD14R,1.000000X1.900000*%
%ADD15C,1.700000*%
%ADD16R,1.700000X1.700000*%
%ADD17R,2.000000X2.200000*%
%ADD18R,2.432000X2.432000*%
%ADD19O,2.432000X2.432000*%
%ADD20R,2.200000X2.000000*%
%ADD21R,1.200000X1.400000*%
%ADD22R,1.400000X1.200000*%
%ADD23C,1.600000*%
%ADD24R,2.127200X2.432000*%
%ADD25O,2.127200X2.432000*%
%ADD26R,2.127200X2.127200*%
%ADD27O,2.127200X2.127200*%
%ADD28R,3.000000X1.900000*%
%ADD29O,1.400000X1.924000*%
%ADD30C,1.924000*%
%ADD31C,2.400000*%
%ADD32C,4.400000*%
%ADD33O,1.900000X2.900000*%
%ADD34C,3.400000*%
%ADD35R,3.400000X6.900000*%
%ADD36R,6.851600X3.400000*%
%ADD37C,1.400000*%
%ADD38R,1.365200X1.670000*%
%ADD39C,8.400000*%
%ADD40R,4.400000X4.400000*%
G04 APERTURE END LIST*
D10*
D11*
G36*
X70645800Y-18371600D02*
X71591950Y-18372154D01*
X72538100Y-18372707D01*
X72999686Y-18797604D01*
X73127015Y-18915762D01*
X73240976Y-19023338D01*
X73336477Y-19115372D01*
X73408423Y-19186908D01*
X73451719Y-19232986D01*
X73462328Y-19247900D01*
X73444560Y-19272563D01*
X73394813Y-19324139D01*
X73319561Y-19396344D01*
X73225280Y-19482895D01*
X73162314Y-19539060D01*
X73057922Y-19630375D01*
X72965983Y-19709232D01*
X72893584Y-19769673D01*
X72847814Y-19805742D01*
X72836180Y-19813174D01*
X72811411Y-19798357D01*
X72758144Y-19752085D01*
X72682459Y-19680115D01*
X72590439Y-19588207D01*
X72501924Y-19496614D01*
X72192731Y-19171700D01*
X71419265Y-19162868D01*
X70645799Y-19154035D01*
X70645799Y-18762818D01*
X70645800Y-18371600D01*
X70645800Y-18371600D01*
G37*
X70645800Y-18371600D02*
X71591950Y-18372154D01*
X72538100Y-18372707D01*
X72999686Y-18797604D01*
X73127015Y-18915762D01*
X73240976Y-19023338D01*
X73336477Y-19115372D01*
X73408423Y-19186908D01*
X73451719Y-19232986D01*
X73462328Y-19247900D01*
X73444560Y-19272563D01*
X73394813Y-19324139D01*
X73319561Y-19396344D01*
X73225280Y-19482895D01*
X73162314Y-19539060D01*
X73057922Y-19630375D01*
X72965983Y-19709232D01*
X72893584Y-19769673D01*
X72847814Y-19805742D01*
X72836180Y-19813174D01*
X72811411Y-19798357D01*
X72758144Y-19752085D01*
X72682459Y-19680115D01*
X72590439Y-19588207D01*
X72501924Y-19496614D01*
X72192731Y-19171700D01*
X71419265Y-19162868D01*
X70645799Y-19154035D01*
X70645799Y-18762818D01*
X70645800Y-18371600D01*
G36*
X72003904Y-9684800D02*
X72009281Y-9626283D01*
X72016003Y-9529663D01*
X72023271Y-9407594D01*
X72030284Y-9272727D01*
X72031338Y-9250619D01*
X72047579Y-8905337D01*
X72231441Y-8917136D01*
X72408885Y-8910385D01*
X72554299Y-8867081D01*
X72665115Y-8789729D01*
X72738765Y-8680832D01*
X72772681Y-8542895D01*
X72766953Y-8394939D01*
X72726251Y-8277385D01*
X72649386Y-8182689D01*
X72547175Y-8117360D01*
X72430431Y-8087905D01*
X72309971Y-8100836D01*
X72289799Y-8107756D01*
X72222128Y-8147849D01*
X72199589Y-8193310D01*
X72218159Y-8236664D01*
X72273821Y-8270437D01*
X72362555Y-8287154D01*
X72386618Y-8287800D01*
X72481294Y-8301947D01*
X72543792Y-8348925D01*
X72581610Y-8435543D01*
X72589598Y-8472063D01*
X72588634Y-8576762D01*
X72542928Y-8657577D01*
X72453032Y-8713622D01*
X72434438Y-8720281D01*
X72364481Y-8733986D01*
X72275917Y-8739254D01*
X72186371Y-8736549D01*
X72113466Y-8726336D01*
X72076372Y-8710840D01*
X72070800Y-8679225D01*
X72069535Y-8606661D01*
X72071946Y-8502758D01*
X72077399Y-8377127D01*
X72085261Y-8239378D01*
X72094900Y-8099122D01*
X72105683Y-7965968D01*
X72116976Y-7849526D01*
X72128147Y-7759408D01*
X72138564Y-7705224D01*
X72143292Y-7694608D01*
X72183984Y-7679948D01*
X72266779Y-7670099D01*
X72383129Y-7665995D01*
X72406080Y-7665936D01*
X72530113Y-7668607D01*
X72618586Y-7677717D01*
X72686582Y-7695738D01*
X72741300Y-7720845D01*
X72899063Y-7831792D01*
X73016705Y-7973079D01*
X73093544Y-8143033D01*
X73128903Y-8339982D01*
X73122101Y-8562253D01*
X73111772Y-8633423D01*
X73054623Y-8850390D01*
X72962069Y-9032442D01*
X72832624Y-9182478D01*
X72828920Y-9185827D01*
X72765049Y-9246280D01*
X72719849Y-9294844D01*
X72703368Y-9320381D01*
X72721043Y-9344666D01*
X72769388Y-9396282D01*
X72841573Y-9468285D01*
X72930773Y-9553733D01*
X72957368Y-9578657D01*
X73049960Y-9666243D01*
X73127428Y-9741854D01*
X73182967Y-9798668D01*
X73209770Y-9829865D01*
X73211200Y-9833071D01*
X73194101Y-9856079D01*
X73146842Y-9908303D01*
X73075479Y-9983337D01*
X72986068Y-10074772D01*
X72921006Y-10140099D01*
X72630813Y-10429469D01*
X72311761Y-10101585D01*
X72198021Y-9984132D01*
X72115340Y-9896453D01*
X72059041Y-9832216D01*
X72024447Y-9785089D01*
X72006881Y-9748741D01*
X72001666Y-9716841D01*
X72003904Y-9684800D01*
X72003904Y-9684800D01*
G37*
X72003904Y-9684800D02*
X72009281Y-9626283D01*
X72016003Y-9529663D01*
X72023271Y-9407594D01*
X72030284Y-9272727D01*
X72031338Y-9250619D01*
X72047579Y-8905337D01*
X72231441Y-8917136D01*
X72408885Y-8910385D01*
X72554299Y-8867081D01*
X72665115Y-8789729D01*
X72738765Y-8680832D01*
X72772681Y-8542895D01*
X72766953Y-8394939D01*
X72726251Y-8277385D01*
X72649386Y-8182689D01*
X72547175Y-8117360D01*
X72430431Y-8087905D01*
X72309971Y-8100836D01*
X72289799Y-8107756D01*
X72222128Y-8147849D01*
X72199589Y-8193310D01*
X72218159Y-8236664D01*
X72273821Y-8270437D01*
X72362555Y-8287154D01*
X72386618Y-8287800D01*
X72481294Y-8301947D01*
X72543792Y-8348925D01*
X72581610Y-8435543D01*
X72589598Y-8472063D01*
X72588634Y-8576762D01*
X72542928Y-8657577D01*
X72453032Y-8713622D01*
X72434438Y-8720281D01*
X72364481Y-8733986D01*
X72275917Y-8739254D01*
X72186371Y-8736549D01*
X72113466Y-8726336D01*
X72076372Y-8710840D01*
X72070800Y-8679225D01*
X72069535Y-8606661D01*
X72071946Y-8502758D01*
X72077399Y-8377127D01*
X72085261Y-8239378D01*
X72094900Y-8099122D01*
X72105683Y-7965968D01*
X72116976Y-7849526D01*
X72128147Y-7759408D01*
X72138564Y-7705224D01*
X72143292Y-7694608D01*
X72183984Y-7679948D01*
X72266779Y-7670099D01*
X72383129Y-7665995D01*
X72406080Y-7665936D01*
X72530113Y-7668607D01*
X72618586Y-7677717D01*
X72686582Y-7695738D01*
X72741300Y-7720845D01*
X72899063Y-7831792D01*
X73016705Y-7973079D01*
X73093544Y-8143033D01*
X73128903Y-8339982D01*
X73122101Y-8562253D01*
X73111772Y-8633423D01*
X73054623Y-8850390D01*
X72962069Y-9032442D01*
X72832624Y-9182478D01*
X72828920Y-9185827D01*
X72765049Y-9246280D01*
X72719849Y-9294844D01*
X72703368Y-9320381D01*
X72721043Y-9344666D01*
X72769388Y-9396282D01*
X72841573Y-9468285D01*
X72930773Y-9553733D01*
X72957368Y-9578657D01*
X73049960Y-9666243D01*
X73127428Y-9741854D01*
X73182967Y-9798668D01*
X73209770Y-9829865D01*
X73211200Y-9833071D01*
X73194101Y-9856079D01*
X73146842Y-9908303D01*
X73075479Y-9983337D01*
X72986068Y-10074772D01*
X72921006Y-10140099D01*
X72630813Y-10429469D01*
X72311761Y-10101585D01*
X72198021Y-9984132D01*
X72115340Y-9896453D01*
X72059041Y-9832216D01*
X72024447Y-9785089D01*
X72006881Y-9748741D01*
X72001666Y-9716841D01*
X72003904Y-9684800D01*
G36*
X70823600Y-24061200D02*
X70823600Y-23896100D01*
X70825332Y-23812011D01*
X70829866Y-23752545D01*
X70835944Y-23731000D01*
X70860325Y-23745075D01*
X70916257Y-23783040D01*
X70994503Y-23838506D01*
X71056343Y-23883400D01*
X71152429Y-23952680D01*
X71221609Y-23997142D01*
X71277589Y-24022483D01*
X71334079Y-24034398D01*
X71404788Y-24038581D01*
X71431348Y-24039190D01*
X71505887Y-24040864D01*
X71621234Y-24043657D01*
X71767413Y-24047317D01*
X71934451Y-24051593D01*
X72112373Y-24056235D01*
X72188214Y-24058240D01*
X72778128Y-24073900D01*
X72030100Y-25051374D01*
X71458600Y-25051800D01*
X71458600Y-25356600D01*
X70874400Y-25356600D01*
X70874400Y-25077200D01*
X70493400Y-25077200D01*
X70493400Y-24061200D01*
X70823600Y-24061200D01*
X70823600Y-24061200D01*
G37*
X70823600Y-24061200D02*
X70823600Y-23896100D01*
X70825332Y-23812011D01*
X70829866Y-23752545D01*
X70835944Y-23731000D01*
X70860325Y-23745075D01*
X70916257Y-23783040D01*
X70994503Y-23838506D01*
X71056343Y-23883400D01*
X71152429Y-23952680D01*
X71221609Y-23997142D01*
X71277589Y-24022483D01*
X71334079Y-24034398D01*
X71404788Y-24038581D01*
X71431348Y-24039190D01*
X71505887Y-24040864D01*
X71621234Y-24043657D01*
X71767413Y-24047317D01*
X71934451Y-24051593D01*
X72112373Y-24056235D01*
X72188214Y-24058240D01*
X72778128Y-24073900D01*
X72030100Y-25051374D01*
X71458600Y-25051800D01*
X71458600Y-25356600D01*
X70874400Y-25356600D01*
X70874400Y-25077200D01*
X70493400Y-25077200D01*
X70493400Y-24061200D01*
X70823600Y-24061200D01*
G36*
X71687200Y-19921000D02*
X71687200Y-19616200D01*
X71972950Y-19615921D01*
X72099194Y-19614399D01*
X72216364Y-19610504D01*
X72309288Y-19604875D01*
X72353950Y-19599898D01*
X72449200Y-19584154D01*
X72449200Y-20657600D01*
X70645800Y-20657600D01*
X70645800Y-19921000D01*
X71687200Y-19921000D01*
X71687200Y-19921000D01*
G37*
X71687200Y-19921000D02*
X71687200Y-19616200D01*
X71972950Y-19615921D01*
X72099194Y-19614399D01*
X72216364Y-19610504D01*
X72309288Y-19604875D01*
X72353950Y-19599898D01*
X72449200Y-19584154D01*
X72449200Y-20657600D01*
X70645800Y-20657600D01*
X70645800Y-19921000D01*
X71687200Y-19921000D01*
G36*
X70696854Y-16748845D02*
X70697584Y-16513740D01*
X70698740Y-16299447D01*
X70700273Y-16110728D01*
X70702135Y-15952345D01*
X70704275Y-15829060D01*
X70706645Y-15745634D01*
X70709196Y-15706829D01*
X70709982Y-15704600D01*
X70733468Y-15720092D01*
X70787271Y-15762200D01*
X70863228Y-15824373D01*
X70947349Y-15895100D01*
X71171333Y-16085600D01*
X71473716Y-16085947D01*
X71597660Y-16087296D01*
X71707108Y-16090699D01*
X71789656Y-16095632D01*
X71831341Y-16101111D01*
X71851984Y-16111467D01*
X71871135Y-16135014D01*
X71891092Y-16178296D01*
X71914153Y-16247859D01*
X71942616Y-16350246D01*
X71978782Y-16492002D01*
X72002933Y-16589714D01*
X72039312Y-16740118D01*
X72071026Y-16875570D01*
X72096170Y-16987578D01*
X72112840Y-17067651D01*
X72119133Y-17107298D01*
X72119142Y-17107950D01*
X72114704Y-17125945D01*
X72096296Y-17138340D01*
X72056075Y-17146158D01*
X71986196Y-17150421D01*
X71878817Y-17152150D01*
X71777997Y-17152400D01*
X71436994Y-17152400D01*
X71451720Y-17723900D01*
X71466447Y-18295400D01*
X70696600Y-18295400D01*
X70696600Y-17000000D01*
X70696854Y-16748845D01*
X70696854Y-16748845D01*
G37*
X70696854Y-16748845D02*
X70697584Y-16513740D01*
X70698740Y-16299447D01*
X70700273Y-16110728D01*
X70702135Y-15952345D01*
X70704275Y-15829060D01*
X70706645Y-15745634D01*
X70709196Y-15706829D01*
X70709982Y-15704600D01*
X70733468Y-15720092D01*
X70787271Y-15762200D01*
X70863228Y-15824373D01*
X70947349Y-15895100D01*
X71171333Y-16085600D01*
X71473716Y-16085947D01*
X71597660Y-16087296D01*
X71707108Y-16090699D01*
X71789656Y-16095632D01*
X71831341Y-16101111D01*
X71851984Y-16111467D01*
X71871135Y-16135014D01*
X71891092Y-16178296D01*
X71914153Y-16247859D01*
X71942616Y-16350246D01*
X71978782Y-16492002D01*
X72002933Y-16589714D01*
X72039312Y-16740118D01*
X72071026Y-16875570D01*
X72096170Y-16987578D01*
X72112840Y-17067651D01*
X72119133Y-17107298D01*
X72119142Y-17107950D01*
X72114704Y-17125945D01*
X72096296Y-17138340D01*
X72056075Y-17146158D01*
X71986196Y-17150421D01*
X71878817Y-17152150D01*
X71777997Y-17152400D01*
X71436994Y-17152400D01*
X71451720Y-17723900D01*
X71466447Y-18295400D01*
X70696600Y-18295400D01*
X70696600Y-17000000D01*
X70696854Y-16748845D01*
G36*
X70980394Y-25638370D02*
X70982510Y-25581591D01*
X70984604Y-25568129D01*
X71012313Y-25564906D01*
X71080782Y-25563271D01*
X71179995Y-25563309D01*
X71299935Y-25565104D01*
X71311914Y-25565366D01*
X71629327Y-25572500D01*
X71309013Y-25988471D01*
X70988700Y-26404442D01*
X70981703Y-25991234D01*
X70979931Y-25851890D01*
X70979515Y-25731369D01*
X70980394Y-25638370D01*
X70980394Y-25638370D01*
G37*
X70980394Y-25638370D02*
X70982510Y-25581591D01*
X70984604Y-25568129D01*
X71012313Y-25564906D01*
X71080782Y-25563271D01*
X71179995Y-25563309D01*
X71299935Y-25565104D01*
X71311914Y-25565366D01*
X71629327Y-25572500D01*
X71309013Y-25988471D01*
X70988700Y-26404442D01*
X70981703Y-25991234D01*
X70979931Y-25851890D01*
X70979515Y-25731369D01*
X70980394Y-25638370D01*
G36*
X71568666Y-20818467D02*
X71598810Y-20815427D01*
X71602533Y-20818467D01*
X71599046Y-20833567D01*
X71585600Y-20835400D01*
X71564692Y-20826107D01*
X71568666Y-20818467D01*
X71568666Y-20818467D01*
G37*
X71568666Y-20818467D02*
X71598810Y-20815427D01*
X71602533Y-20818467D01*
X71599046Y-20833567D01*
X71585600Y-20835400D01*
X71564692Y-20826107D01*
X71568666Y-20818467D01*
D12*
X44000000Y-9000000D03*
D13*
X44000000Y-4000000D03*
D14*
X27555000Y-41700000D03*
X28825000Y-41700000D03*
X30095000Y-41700000D03*
X31365000Y-41700000D03*
X32635000Y-41700000D03*
X33905000Y-41700000D03*
X35175000Y-41700000D03*
X36445000Y-41700000D03*
X36445000Y-36300000D03*
X35175000Y-36300000D03*
X33905000Y-36300000D03*
X32635000Y-36300000D03*
X31365000Y-36300000D03*
X30095000Y-36300000D03*
X28825000Y-36300000D03*
X27555000Y-36300000D03*
D10*
G36*
X22608311Y-56462221D02*
X22148692Y-56002602D01*
X23350773Y-54800521D01*
X23810392Y-55260140D01*
X22608311Y-56462221D01*
X22608311Y-56462221D01*
G37*
G36*
X22961864Y-56815774D02*
X22502245Y-56356155D01*
X23704326Y-55154074D01*
X24163945Y-55613693D01*
X22961864Y-56815774D01*
X22961864Y-56815774D01*
G37*
G36*
X23315418Y-57169328D02*
X22855799Y-56709709D01*
X24057880Y-55507628D01*
X24517499Y-55967247D01*
X23315418Y-57169328D01*
X23315418Y-57169328D01*
G37*
G36*
X23668971Y-57522881D02*
X23209352Y-57063262D01*
X24411433Y-55861181D01*
X24871052Y-56320800D01*
X23668971Y-57522881D01*
X23668971Y-57522881D01*
G37*
G36*
X24022524Y-57876434D02*
X23562905Y-57416815D01*
X24764986Y-56214734D01*
X25224605Y-56674353D01*
X24022524Y-57876434D01*
X24022524Y-57876434D01*
G37*
G36*
X24376078Y-58229988D02*
X23916459Y-57770369D01*
X25118540Y-56568288D01*
X25578159Y-57027907D01*
X24376078Y-58229988D01*
X24376078Y-58229988D01*
G37*
G36*
X24729631Y-58583541D02*
X24270012Y-58123922D01*
X25472093Y-56921841D01*
X25931712Y-57381460D01*
X24729631Y-58583541D01*
X24729631Y-58583541D01*
G37*
G36*
X25083185Y-58937095D02*
X24623566Y-58477476D01*
X25825647Y-57275395D01*
X26285266Y-57735014D01*
X25083185Y-58937095D01*
X25083185Y-58937095D01*
G37*
G36*
X25436738Y-59290648D02*
X24977119Y-58831029D01*
X26179200Y-57628948D01*
X26638819Y-58088567D01*
X25436738Y-59290648D01*
X25436738Y-59290648D01*
G37*
G36*
X25790291Y-59644201D02*
X25330672Y-59184582D01*
X26532753Y-57982501D01*
X26992372Y-58442120D01*
X25790291Y-59644201D01*
X25790291Y-59644201D01*
G37*
G36*
X26143845Y-59997755D02*
X25684226Y-59538136D01*
X26886307Y-58336055D01*
X27345926Y-58795674D01*
X26143845Y-59997755D01*
X26143845Y-59997755D01*
G37*
G36*
X26497398Y-60351308D02*
X26037779Y-59891689D01*
X27239860Y-58689608D01*
X27699479Y-59149227D01*
X26497398Y-60351308D01*
X26497398Y-60351308D01*
G37*
G36*
X29962221Y-59891689D02*
X29502602Y-60351308D01*
X28300521Y-59149227D01*
X28760140Y-58689608D01*
X29962221Y-59891689D01*
X29962221Y-59891689D01*
G37*
G36*
X30315774Y-59538136D02*
X29856155Y-59997755D01*
X28654074Y-58795674D01*
X29113693Y-58336055D01*
X30315774Y-59538136D01*
X30315774Y-59538136D01*
G37*
G36*
X30669328Y-59184582D02*
X30209709Y-59644201D01*
X29007628Y-58442120D01*
X29467247Y-57982501D01*
X30669328Y-59184582D01*
X30669328Y-59184582D01*
G37*
G36*
X31022881Y-58831029D02*
X30563262Y-59290648D01*
X29361181Y-58088567D01*
X29820800Y-57628948D01*
X31022881Y-58831029D01*
X31022881Y-58831029D01*
G37*
G36*
X31376434Y-58477476D02*
X30916815Y-58937095D01*
X29714734Y-57735014D01*
X30174353Y-57275395D01*
X31376434Y-58477476D01*
X31376434Y-58477476D01*
G37*
G36*
X31729988Y-58123922D02*
X31270369Y-58583541D01*
X30068288Y-57381460D01*
X30527907Y-56921841D01*
X31729988Y-58123922D01*
X31729988Y-58123922D01*
G37*
G36*
X32083541Y-57770369D02*
X31623922Y-58229988D01*
X30421841Y-57027907D01*
X30881460Y-56568288D01*
X32083541Y-57770369D01*
X32083541Y-57770369D01*
G37*
G36*
X32437095Y-57416815D02*
X31977476Y-57876434D01*
X30775395Y-56674353D01*
X31235014Y-56214734D01*
X32437095Y-57416815D01*
X32437095Y-57416815D01*
G37*
G36*
X32790648Y-57063262D02*
X32331029Y-57522881D01*
X31128948Y-56320800D01*
X31588567Y-55861181D01*
X32790648Y-57063262D01*
X32790648Y-57063262D01*
G37*
G36*
X33144201Y-56709709D02*
X32684582Y-57169328D01*
X31482501Y-55967247D01*
X31942120Y-55507628D01*
X33144201Y-56709709D01*
X33144201Y-56709709D01*
G37*
G36*
X33497755Y-56356155D02*
X33038136Y-56815774D01*
X31836055Y-55613693D01*
X32295674Y-55154074D01*
X33497755Y-56356155D01*
X33497755Y-56356155D01*
G37*
G36*
X33851308Y-56002602D02*
X33391689Y-56462221D01*
X32189608Y-55260140D01*
X32649227Y-54800521D01*
X33851308Y-56002602D01*
X33851308Y-56002602D01*
G37*
G36*
X32649227Y-54199479D02*
X32189608Y-53739860D01*
X33391689Y-52537779D01*
X33851308Y-52997398D01*
X32649227Y-54199479D01*
X32649227Y-54199479D01*
G37*
G36*
X32295674Y-53845926D02*
X31836055Y-53386307D01*
X33038136Y-52184226D01*
X33497755Y-52643845D01*
X32295674Y-53845926D01*
X32295674Y-53845926D01*
G37*
G36*
X31942120Y-53492372D02*
X31482501Y-53032753D01*
X32684582Y-51830672D01*
X33144201Y-52290291D01*
X31942120Y-53492372D01*
X31942120Y-53492372D01*
G37*
G36*
X31588567Y-53138819D02*
X31128948Y-52679200D01*
X32331029Y-51477119D01*
X32790648Y-51936738D01*
X31588567Y-53138819D01*
X31588567Y-53138819D01*
G37*
G36*
X31235014Y-52785266D02*
X30775395Y-52325647D01*
X31977476Y-51123566D01*
X32437095Y-51583185D01*
X31235014Y-52785266D01*
X31235014Y-52785266D01*
G37*
G36*
X30881460Y-52431712D02*
X30421841Y-51972093D01*
X31623922Y-50770012D01*
X32083541Y-51229631D01*
X30881460Y-52431712D01*
X30881460Y-52431712D01*
G37*
G36*
X30527907Y-52078159D02*
X30068288Y-51618540D01*
X31270369Y-50416459D01*
X31729988Y-50876078D01*
X30527907Y-52078159D01*
X30527907Y-52078159D01*
G37*
G36*
X30174353Y-51724605D02*
X29714734Y-51264986D01*
X30916815Y-50062905D01*
X31376434Y-50522524D01*
X30174353Y-51724605D01*
X30174353Y-51724605D01*
G37*
G36*
X29820800Y-51371052D02*
X29361181Y-50911433D01*
X30563262Y-49709352D01*
X31022881Y-50168971D01*
X29820800Y-51371052D01*
X29820800Y-51371052D01*
G37*
G36*
X29467247Y-51017499D02*
X29007628Y-50557880D01*
X30209709Y-49355799D01*
X30669328Y-49815418D01*
X29467247Y-51017499D01*
X29467247Y-51017499D01*
G37*
G36*
X29113693Y-50663945D02*
X28654074Y-50204326D01*
X29856155Y-49002245D01*
X30315774Y-49461864D01*
X29113693Y-50663945D01*
X29113693Y-50663945D01*
G37*
G36*
X28760140Y-50310392D02*
X28300521Y-49850773D01*
X29502602Y-48648692D01*
X29962221Y-49108311D01*
X28760140Y-50310392D01*
X28760140Y-50310392D01*
G37*
G36*
X27699479Y-49850773D02*
X27239860Y-50310392D01*
X26037779Y-49108311D01*
X26497398Y-48648692D01*
X27699479Y-49850773D01*
X27699479Y-49850773D01*
G37*
G36*
X27345926Y-50204326D02*
X26886307Y-50663945D01*
X25684226Y-49461864D01*
X26143845Y-49002245D01*
X27345926Y-50204326D01*
X27345926Y-50204326D01*
G37*
G36*
X26992372Y-50557880D02*
X26532753Y-51017499D01*
X25330672Y-49815418D01*
X25790291Y-49355799D01*
X26992372Y-50557880D01*
X26992372Y-50557880D01*
G37*
G36*
X26638819Y-50911433D02*
X26179200Y-51371052D01*
X24977119Y-50168971D01*
X25436738Y-49709352D01*
X26638819Y-50911433D01*
X26638819Y-50911433D01*
G37*
G36*
X26285266Y-51264986D02*
X25825647Y-51724605D01*
X24623566Y-50522524D01*
X25083185Y-50062905D01*
X26285266Y-51264986D01*
X26285266Y-51264986D01*
G37*
G36*
X25931712Y-51618540D02*
X25472093Y-52078159D01*
X24270012Y-50876078D01*
X24729631Y-50416459D01*
X25931712Y-51618540D01*
X25931712Y-51618540D01*
G37*
G36*
X25578159Y-51972093D02*
X25118540Y-52431712D01*
X23916459Y-51229631D01*
X24376078Y-50770012D01*
X25578159Y-51972093D01*
X25578159Y-51972093D01*
G37*
G36*
X25224605Y-52325647D02*
X24764986Y-52785266D01*
X23562905Y-51583185D01*
X24022524Y-51123566D01*
X25224605Y-52325647D01*
X25224605Y-52325647D01*
G37*
G36*
X24871052Y-52679200D02*
X24411433Y-53138819D01*
X23209352Y-51936738D01*
X23668971Y-51477119D01*
X24871052Y-52679200D01*
X24871052Y-52679200D01*
G37*
G36*
X24517499Y-53032753D02*
X24057880Y-53492372D01*
X22855799Y-52290291D01*
X23315418Y-51830672D01*
X24517499Y-53032753D01*
X24517499Y-53032753D01*
G37*
G36*
X24163945Y-53386307D02*
X23704326Y-53845926D01*
X22502245Y-52643845D01*
X22961864Y-52184226D01*
X24163945Y-53386307D01*
X24163945Y-53386307D01*
G37*
G36*
X23810392Y-53739860D02*
X23350773Y-54199479D01*
X22148692Y-52997398D01*
X22608311Y-52537779D01*
X23810392Y-53739860D01*
X23810392Y-53739860D01*
G37*
D15*
X40000000Y-75000000D03*
D16*
X37500000Y-75000000D03*
D17*
X27400000Y-33500000D03*
X30600000Y-33500000D03*
X33400000Y-33500000D03*
X36600000Y-33500000D03*
X15400000Y-33500000D03*
X18600000Y-33500000D03*
X21400000Y-33500000D03*
X24600000Y-33500000D03*
X60400000Y-33500000D03*
X63600000Y-33500000D03*
X66400000Y-33500000D03*
X69600000Y-33500000D03*
X48400000Y-33500000D03*
X51600000Y-33500000D03*
X54400000Y-33500000D03*
X57600000Y-33500000D03*
D18*
X8500000Y-75500000D03*
D19*
X8500000Y-72960000D03*
D14*
X15555000Y-41700000D03*
X16825000Y-41700000D03*
X18095000Y-41700000D03*
X19365000Y-41700000D03*
X20635000Y-41700000D03*
X21905000Y-41700000D03*
X23175000Y-41700000D03*
X24445000Y-41700000D03*
X24445000Y-36300000D03*
X23175000Y-36300000D03*
X21905000Y-36300000D03*
X20635000Y-36300000D03*
X19365000Y-36300000D03*
X18095000Y-36300000D03*
X16825000Y-36300000D03*
X15555000Y-36300000D03*
X60555000Y-41700000D03*
X61825000Y-41700000D03*
X63095000Y-41700000D03*
X64365000Y-41700000D03*
X65635000Y-41700000D03*
X66905000Y-41700000D03*
X68175000Y-41700000D03*
X69445000Y-41700000D03*
X69445000Y-36300000D03*
X68175000Y-36300000D03*
X66905000Y-36300000D03*
X65635000Y-36300000D03*
X64365000Y-36300000D03*
X63095000Y-36300000D03*
X61825000Y-36300000D03*
X60555000Y-36300000D03*
X48555000Y-41700000D03*
X49825000Y-41700000D03*
X51095000Y-41700000D03*
X52365000Y-41700000D03*
X53635000Y-41700000D03*
X54905000Y-41700000D03*
X56175000Y-41700000D03*
X57445000Y-41700000D03*
X57445000Y-36300000D03*
X56175000Y-36300000D03*
X54905000Y-36300000D03*
X53635000Y-36300000D03*
X52365000Y-36300000D03*
X51095000Y-36300000D03*
X49825000Y-36300000D03*
X48555000Y-36300000D03*
D20*
X39000000Y-20100000D03*
X39000000Y-16900000D03*
X42000000Y-20100000D03*
X42000000Y-16900000D03*
D10*
G36*
X15194365Y-61434315D02*
X16184315Y-60444365D01*
X17032843Y-61292893D01*
X16042893Y-62282843D01*
X15194365Y-61434315D01*
X15194365Y-61434315D01*
G37*
G36*
X16467157Y-62707107D02*
X17457107Y-61717157D01*
X18305635Y-62565685D01*
X17315685Y-63555635D01*
X16467157Y-62707107D01*
X16467157Y-62707107D01*
G37*
G36*
X21055635Y-65315685D02*
X20065685Y-66305635D01*
X19217157Y-65457107D01*
X20207107Y-64467157D01*
X21055635Y-65315685D01*
X21055635Y-65315685D01*
G37*
G36*
X19782843Y-64042893D02*
X18792893Y-65032843D01*
X17944365Y-64184315D01*
X18934315Y-63194365D01*
X19782843Y-64042893D01*
X19782843Y-64042893D01*
G37*
D21*
X28900000Y-48000000D03*
X27100000Y-48000000D03*
D22*
X21500000Y-53600000D03*
X21500000Y-55400000D03*
D21*
X15100000Y-49500000D03*
X16900000Y-49500000D03*
D22*
X34500000Y-55400000D03*
X34500000Y-53600000D03*
D21*
X15100000Y-52500000D03*
X16900000Y-52500000D03*
X14150000Y-66250000D03*
X12350000Y-66250000D03*
D22*
X73500000Y-33600000D03*
X73500000Y-35400000D03*
D21*
X27900000Y-28500000D03*
X26100000Y-28500000D03*
X15900000Y-28500000D03*
X14100000Y-28500000D03*
X32900000Y-28500000D03*
X31100000Y-28500000D03*
X60900000Y-28500000D03*
X59100000Y-28500000D03*
X48900000Y-28500000D03*
X47100000Y-28500000D03*
X53900000Y-28500000D03*
X52100000Y-28500000D03*
X20900000Y-28500000D03*
X19100000Y-28500000D03*
X65900000Y-28500000D03*
X64100000Y-28500000D03*
X15100000Y-47500000D03*
X16900000Y-47500000D03*
X11100000Y-49500000D03*
X12900000Y-49500000D03*
X11100000Y-52500000D03*
X12900000Y-52500000D03*
X17400000Y-66250000D03*
X15600000Y-66250000D03*
D22*
X73500000Y-30100000D03*
X73500000Y-31900000D03*
D21*
X11100000Y-47500000D03*
X12900000Y-47500000D03*
D20*
X43500000Y-73400000D03*
X43500000Y-76600000D03*
D23*
X73000000Y-63000000D03*
X73000000Y-67500000D03*
D24*
X47500000Y-54500000D03*
D25*
X44960000Y-54500000D03*
X42420000Y-54500000D03*
X39880000Y-54500000D03*
D26*
X69000000Y-64000000D03*
D27*
X69000000Y-61460000D03*
X66460000Y-64000000D03*
X66460000Y-61460000D03*
X63920000Y-64000000D03*
X63920000Y-61460000D03*
X61380000Y-64000000D03*
X61380000Y-61460000D03*
X58840000Y-64000000D03*
X58840000Y-61460000D03*
X56300000Y-64000000D03*
X56300000Y-61460000D03*
D24*
X44000000Y-14500000D03*
D25*
X41460000Y-14500000D03*
X38920000Y-14500000D03*
D28*
X1700000Y-69500000D03*
X7300000Y-69500000D03*
X1700000Y-45500000D03*
X7300000Y-45500000D03*
X1700000Y-50500000D03*
X7300000Y-50500000D03*
D29*
X1500000Y-55000000D03*
X3000000Y-55000000D03*
X4500000Y-55000000D03*
X6000000Y-55000000D03*
X7500000Y-55000000D03*
X9000000Y-55000000D03*
D30*
X8810000Y-65040000D03*
X8810000Y-62500000D03*
X8810000Y-59960000D03*
X1190000Y-59960000D03*
X1190000Y-62500000D03*
X1190000Y-65040000D03*
D10*
G36*
X16393755Y-60015075D02*
X18515075Y-57893755D01*
X20353553Y-59732233D01*
X18232233Y-61853553D01*
X16393755Y-60015075D01*
X16393755Y-60015075D01*
G37*
G36*
X19717158Y-63338478D02*
X21838478Y-61217158D01*
X23535534Y-62914214D01*
X21414214Y-65035534D01*
X19717158Y-63338478D01*
X19717158Y-63338478D01*
G37*
D31*
X8540000Y-12000000D03*
X8540000Y-17080000D03*
X3460000Y-12000000D03*
X3460000Y-17080000D03*
D32*
X6000000Y-4380000D03*
D33*
X13000000Y-69000000D03*
X15500000Y-69000000D03*
X18000000Y-69000000D03*
X20500000Y-69000000D03*
D34*
X16750000Y-75500000D03*
D33*
X25500000Y-69000000D03*
X28000000Y-69000000D03*
X30500000Y-69000000D03*
X33000000Y-69000000D03*
D34*
X29250000Y-75500000D03*
D35*
X9800000Y-22500000D03*
D36*
X4100000Y-22900000D03*
D35*
X11300000Y-31000000D03*
D36*
X4100000Y-31900000D03*
D21*
X26100000Y-30500000D03*
X27900000Y-30500000D03*
X14100000Y-30500000D03*
X15900000Y-30500000D03*
X59100000Y-30500000D03*
X60900000Y-30500000D03*
X47100000Y-30500000D03*
X48900000Y-30500000D03*
X31100000Y-30500000D03*
X32900000Y-30500000D03*
X19100000Y-30500000D03*
X20900000Y-30500000D03*
X64100000Y-30500000D03*
X65900000Y-30500000D03*
X52100000Y-30500000D03*
X53900000Y-30500000D03*
D37*
X44000000Y-31500000D03*
D21*
X69988000Y-55364000D03*
X68188000Y-55364000D03*
X69988000Y-53840000D03*
X68188000Y-53840000D03*
X69988000Y-52316000D03*
X68188000Y-52316000D03*
X69988000Y-50792000D03*
X68188000Y-50792000D03*
X64632000Y-55364000D03*
X66432000Y-55364000D03*
X64632000Y-53840000D03*
X66432000Y-53840000D03*
X64632000Y-52316000D03*
X66432000Y-52316000D03*
X64632000Y-50792000D03*
X66432000Y-50792000D03*
X69988000Y-48760000D03*
X68188000Y-48760000D03*
X69988000Y-47236000D03*
X68188000Y-47236000D03*
X69988000Y-45712000D03*
X68188000Y-45712000D03*
X69988000Y-44188000D03*
X68188000Y-44188000D03*
D38*
X59135000Y-50000000D03*
X57865000Y-50000000D03*
X56135000Y-52000000D03*
X54865000Y-52000000D03*
X59135000Y-54000000D03*
X57865000Y-54000000D03*
X56135000Y-56000000D03*
X54865000Y-56000000D03*
D21*
X64632000Y-48760000D03*
X66432000Y-48760000D03*
X64632000Y-47236000D03*
X66432000Y-47236000D03*
X64632000Y-45712000D03*
X66432000Y-45712000D03*
X64632000Y-44188000D03*
X66432000Y-44188000D03*
D26*
X72000000Y-42000000D03*
D27*
X74540000Y-42000000D03*
X72000000Y-44540000D03*
X74540000Y-44540000D03*
X72000000Y-47080000D03*
X74540000Y-47080000D03*
X72000000Y-49620000D03*
X74540000Y-49620000D03*
X72000000Y-52160000D03*
X74540000Y-52160000D03*
X72000000Y-54700000D03*
X74540000Y-54700000D03*
X72000000Y-57240000D03*
X74540000Y-57240000D03*
X72000000Y-59780000D03*
X74540000Y-59780000D03*
D33*
X47500000Y-69000000D03*
X50000000Y-69000000D03*
X52500000Y-69000000D03*
X55000000Y-69000000D03*
D34*
X51250000Y-75500000D03*
D33*
X60000000Y-69000000D03*
X62500000Y-69000000D03*
X65000000Y-69000000D03*
X67500000Y-69000000D03*
D34*
X63750000Y-75500000D03*
D15*
X36500000Y-25500000D03*
D16*
X36500000Y-23000000D03*
D15*
X44500000Y-25500000D03*
D16*
X44500000Y-23000000D03*
D17*
X37400000Y-70000000D03*
X40600000Y-70000000D03*
D20*
X36500000Y-12900000D03*
X36500000Y-16100000D03*
D21*
X50600000Y-66500000D03*
X52400000Y-66500000D03*
X51100000Y-65000000D03*
X52900000Y-65000000D03*
X51600000Y-63500000D03*
X53400000Y-63500000D03*
X52100000Y-62000000D03*
X53900000Y-62000000D03*
D39*
X17000000Y-16500000D03*
D40*
X17000000Y-16500000D03*
D39*
X29000000Y-16500000D03*
D40*
X29000000Y-16500000D03*
D39*
X50000000Y-16500000D03*
D40*
X50000000Y-16500000D03*
D39*
X62000000Y-16500000D03*
D40*
X62000000Y-16500000D03*
M02*
