G04 #@! TF.FileFunction,Copper,L2,Bot,Signal*
%FSLAX46Y46*%
G04 Gerber Fmt 4.6, Leading zero omitted, Abs format (unit mm)*
G04 Created by KiCad (PCBNEW 4.0.2-stable) date 2016/07/13 17:42:33*
%MOMM*%
G01*
G04 APERTURE LIST*
%ADD10C,0.100000*%
%ADD11C,1.300000*%
%ADD12R,1.300000X1.300000*%
%ADD13R,2.032000X1.727200*%
%ADD14O,2.032000X1.727200*%
%ADD15R,1.727200X2.032000*%
%ADD16O,1.727200X2.032000*%
%ADD17R,1.500000X1.300000*%
%ADD18R,1.600000X1.800000*%
%ADD19R,1.300000X1.500000*%
%ADD20R,1.998980X3.799840*%
%ADD21R,11.501120X8.999220*%
%ADD22C,1.676400*%
%ADD23R,3.657600X2.032000*%
%ADD24R,1.016000X2.032000*%
%ADD25R,0.508000X1.143000*%
%ADD26R,1.000000X1.100000*%
%ADD27C,1.200000*%
%ADD28C,0.500000*%
%ADD29C,0.025400*%
G04 APERTURE END LIST*
D10*
D11*
X78740000Y-72715000D03*
D12*
X78740000Y-69215000D03*
D13*
X75565000Y-93345000D03*
D14*
X75565000Y-90805000D03*
X75565000Y-88265000D03*
D15*
X95250000Y-92075000D03*
D16*
X97790000Y-92075000D03*
X100330000Y-92075000D03*
X102870000Y-92075000D03*
X105410000Y-92075000D03*
X107950000Y-92075000D03*
X110490000Y-92075000D03*
D11*
X89535000Y-77145000D03*
D12*
X89535000Y-80645000D03*
D17*
X101600000Y-84475000D03*
X101600000Y-86975000D03*
X119380000Y-84475000D03*
X119380000Y-86975000D03*
X77470000Y-80625000D03*
X77470000Y-78125000D03*
X87630000Y-80625000D03*
X87630000Y-78125000D03*
D18*
X98095000Y-74295000D03*
X101295000Y-74295000D03*
X109525000Y-74295000D03*
X112725000Y-74295000D03*
X115875000Y-74295000D03*
X119075000Y-74295000D03*
X91745000Y-74295000D03*
X94945000Y-74295000D03*
D19*
X80665000Y-90805000D03*
X83165000Y-90805000D03*
D12*
X78740000Y-53340000D03*
D11*
X86240000Y-53340000D03*
D12*
X78740000Y-35560000D03*
D11*
X86240000Y-35560000D03*
D20*
X99019360Y-38569900D03*
X94020640Y-38569900D03*
D21*
X96520000Y-27470100D03*
D20*
X99019360Y-63969900D03*
X94020640Y-63969900D03*
D21*
X96520000Y-52870100D03*
D20*
X116799360Y-38569900D03*
X111800640Y-38569900D03*
D21*
X114300000Y-27470100D03*
D20*
X116799360Y-63969900D03*
X111800640Y-63969900D03*
D21*
X114300000Y-52870100D03*
D22*
X104140000Y-64770000D03*
X104140000Y-72390000D03*
X96520000Y-64770000D03*
X96520000Y-72390000D03*
X121920000Y-64770000D03*
X121920000Y-72390000D03*
X114300000Y-64770000D03*
X114300000Y-72390000D03*
X78105000Y-88265000D03*
X85725000Y-88265000D03*
D23*
X82550000Y-73533000D03*
D24*
X82550000Y-80137000D03*
X80264000Y-80137000D03*
X84836000Y-80137000D03*
D25*
X104140000Y-76200000D03*
X101600000Y-76200000D03*
X100330000Y-76200000D03*
X99060000Y-76200000D03*
X97790000Y-76200000D03*
X96520000Y-76200000D03*
X95250000Y-76200000D03*
X95250000Y-82550000D03*
X96520000Y-82550000D03*
X97790000Y-82550000D03*
X99060000Y-82550000D03*
X100330000Y-82550000D03*
X101600000Y-82550000D03*
X102870000Y-82550000D03*
X104140000Y-82550000D03*
X102870000Y-76200000D03*
X121920000Y-76200000D03*
X119380000Y-76200000D03*
X118110000Y-76200000D03*
X116840000Y-76200000D03*
X115570000Y-76200000D03*
X114300000Y-76200000D03*
X113030000Y-76200000D03*
X113030000Y-82550000D03*
X114300000Y-82550000D03*
X115570000Y-82550000D03*
X116840000Y-82550000D03*
X118110000Y-82550000D03*
X119380000Y-82550000D03*
X120650000Y-82550000D03*
X121920000Y-82550000D03*
X120650000Y-76200000D03*
D26*
X97790000Y-84875000D03*
X97790000Y-86575000D03*
X115570000Y-84875000D03*
X115570000Y-86575000D03*
D27*
X101600000Y-72390000D03*
X101600000Y-64770000D03*
X119380000Y-72390000D03*
X119380000Y-64770000D03*
X116840000Y-83820000D03*
X116840000Y-92075000D03*
X99060000Y-83820000D03*
X99060000Y-88265000D03*
X104140000Y-83820000D03*
X104140000Y-88265000D03*
D28*
X97790000Y-92075000D02*
X95250000Y-89535000D01*
X95250000Y-89535000D02*
X95250000Y-82550000D01*
X95250000Y-89535000D02*
X95250000Y-82550000D01*
X101600000Y-84475000D02*
X101600000Y-82550000D01*
X119380000Y-82550000D02*
X119380000Y-84475000D01*
X101600000Y-82550000D02*
X101600000Y-81280000D01*
X113030000Y-82550000D02*
X113030000Y-81280000D01*
X95250000Y-82550000D02*
X95250000Y-81915000D01*
X119380000Y-81915000D02*
X119380000Y-82550000D01*
X118745000Y-81280000D02*
X119380000Y-81915000D01*
X95885000Y-81280000D02*
X101600000Y-81280000D01*
X101600000Y-81280000D02*
X113030000Y-81280000D01*
X113030000Y-81280000D02*
X118745000Y-81280000D01*
X95250000Y-81915000D02*
X95885000Y-81280000D01*
X100330000Y-92075000D02*
X98425000Y-93980000D01*
X80665000Y-88880000D02*
X80665000Y-90805000D01*
X83185000Y-86360000D02*
X80665000Y-88880000D01*
X85725000Y-86360000D02*
X83185000Y-86360000D01*
X93345000Y-93980000D02*
X85725000Y-86360000D01*
X98425000Y-93980000D02*
X93345000Y-93980000D01*
X75565000Y-90805000D02*
X80665000Y-90805000D01*
X100330000Y-92075000D02*
X97790000Y-89535000D01*
X97790000Y-89535000D02*
X97790000Y-86575000D01*
X100330000Y-82550000D02*
X100330000Y-86995000D01*
X100330000Y-86995000D02*
X100330000Y-86975000D01*
X114935000Y-86975000D02*
X115170000Y-86975000D01*
X115170000Y-86975000D02*
X115570000Y-86575000D01*
X97790000Y-86575000D02*
X98190000Y-86975000D01*
X98190000Y-86975000D02*
X100330000Y-86975000D01*
X100330000Y-86975000D02*
X101600000Y-86975000D01*
X100965000Y-86995000D02*
X101580000Y-86995000D01*
X101580000Y-86995000D02*
X101600000Y-86975000D01*
X118110000Y-82550000D02*
X118110000Y-86995000D01*
X118110000Y-86995000D02*
X118110000Y-86975000D01*
X101600000Y-86975000D02*
X114935000Y-86975000D01*
X114935000Y-86975000D02*
X118110000Y-86975000D01*
X118110000Y-86975000D02*
X119380000Y-86975000D01*
X78740000Y-72715000D02*
X87485100Y-63969900D01*
X87485100Y-63969900D02*
X94020640Y-63969900D01*
X77470000Y-78125000D02*
X77470000Y-73985000D01*
X77470000Y-73985000D02*
X78740000Y-72715000D01*
X89535000Y-77145000D02*
X89535000Y-68580000D01*
X89535000Y-68455540D02*
X94020640Y-63969900D01*
X89535000Y-68580000D02*
X89535000Y-68455540D01*
X87630000Y-78125000D02*
X88610000Y-77145000D01*
X88610000Y-77145000D02*
X89535000Y-77145000D01*
X77470000Y-78125000D02*
X82824000Y-78125000D01*
X82824000Y-78125000D02*
X84836000Y-80137000D01*
X84836000Y-80137000D02*
X86848000Y-78125000D01*
X86848000Y-78125000D02*
X87630000Y-78125000D01*
X94945000Y-74295000D02*
X94020640Y-73370640D01*
X94020640Y-73370640D02*
X94020640Y-63969900D01*
X112725000Y-74295000D02*
X111800640Y-73370640D01*
X111800640Y-73370640D02*
X111800640Y-63969900D01*
X112725000Y-74295000D02*
X113030000Y-74600000D01*
X113030000Y-74600000D02*
X113030000Y-76200000D01*
X94945000Y-74295000D02*
X95250000Y-74600000D01*
X95250000Y-74600000D02*
X95250000Y-76200000D01*
X78740000Y-69215000D02*
X75565000Y-72390000D01*
X75565000Y-78720000D02*
X77470000Y-80625000D01*
X75565000Y-72390000D02*
X75565000Y-78720000D01*
X78740000Y-69215000D02*
X78740000Y-53340000D01*
X77450000Y-80645000D02*
X77470000Y-80625000D01*
X77470000Y-80625000D02*
X77958000Y-80137000D01*
X77958000Y-80137000D02*
X80264000Y-80137000D01*
X89535000Y-80645000D02*
X93980000Y-80645000D01*
X93980000Y-80645000D02*
X97155000Y-77470000D01*
X82550000Y-80137000D02*
X82550000Y-81915000D01*
X87630000Y-81915000D02*
X87630000Y-80625000D01*
X86995000Y-82550000D02*
X87630000Y-81915000D01*
X83185000Y-82550000D02*
X86995000Y-82550000D01*
X82550000Y-81915000D02*
X83185000Y-82550000D01*
X89535000Y-80645000D02*
X87650000Y-80645000D01*
X87650000Y-80645000D02*
X87630000Y-80625000D01*
X91745000Y-74295000D02*
X91745000Y-76505000D01*
X95250000Y-77470000D02*
X97155000Y-77470000D01*
X91745000Y-76505000D02*
X92710000Y-77470000D01*
X92710000Y-77470000D02*
X95250000Y-77470000D01*
X114935000Y-77470000D02*
X121285000Y-77470000D01*
X121920000Y-76835000D02*
X121920000Y-76200000D01*
X121285000Y-77470000D02*
X121920000Y-76835000D01*
X103505000Y-77470000D02*
X114935000Y-77470000D01*
X115570000Y-76835000D02*
X115570000Y-76200000D01*
X114935000Y-77470000D02*
X115570000Y-76835000D01*
X97155000Y-77470000D02*
X103505000Y-77470000D01*
X104140000Y-76835000D02*
X104140000Y-76200000D01*
X103505000Y-77470000D02*
X104140000Y-76835000D01*
X97790000Y-76835000D02*
X97790000Y-76200000D01*
X97155000Y-77470000D02*
X97790000Y-76835000D01*
X109525000Y-74295000D02*
X107620000Y-76200000D01*
X107620000Y-76200000D02*
X104140000Y-76200000D01*
X115570000Y-76200000D02*
X115570000Y-74600000D01*
X115570000Y-74600000D02*
X115875000Y-74295000D01*
X97790000Y-76200000D02*
X97790000Y-74600000D01*
X97790000Y-74600000D02*
X98095000Y-74295000D01*
X96520000Y-52870100D02*
X101600000Y-57950100D01*
X101600000Y-72390000D02*
X101600000Y-73990000D01*
X101600000Y-57950100D02*
X101600000Y-64770000D01*
X101600000Y-73990000D02*
X101295000Y-74295000D01*
X101600000Y-76200000D02*
X101600000Y-74600000D01*
X101600000Y-74600000D02*
X101295000Y-74295000D01*
X114300000Y-52870100D02*
X119380000Y-57950100D01*
X119380000Y-72390000D02*
X119380000Y-73990000D01*
X119380000Y-57950100D02*
X119380000Y-64770000D01*
X119380000Y-73990000D02*
X119075000Y-74295000D01*
X119380000Y-76200000D02*
X119380000Y-74600000D01*
X119380000Y-74600000D02*
X119075000Y-74295000D01*
X85725000Y-88265000D02*
X92710000Y-95250000D01*
X99695000Y-95250000D02*
X102870000Y-92075000D01*
X92710000Y-95250000D02*
X99695000Y-95250000D01*
X83165000Y-90805000D02*
X83185000Y-90805000D01*
X83185000Y-90805000D02*
X85725000Y-88265000D01*
X105410000Y-92075000D02*
X107315000Y-93980000D01*
X116840000Y-83820000D02*
X116840000Y-82550000D01*
X116840000Y-92075000D02*
X114935000Y-93980000D01*
X107315000Y-93980000D02*
X114935000Y-93980000D01*
X105410000Y-92075000D02*
X101600000Y-88265000D01*
X99060000Y-83820000D02*
X99060000Y-82550000D01*
X101600000Y-88265000D02*
X99060000Y-88265000D01*
X107950000Y-92075000D02*
X104140000Y-88265000D01*
X104140000Y-83820000D02*
X104140000Y-82550000D01*
X110490000Y-92075000D02*
X114300000Y-88265000D01*
X121920000Y-86995000D02*
X121920000Y-82550000D01*
X120650000Y-88265000D02*
X121920000Y-86995000D01*
X114300000Y-88265000D02*
X120650000Y-88265000D01*
X75565000Y-93345000D02*
X73660000Y-91440000D01*
X88265000Y-85090000D02*
X95250000Y-92075000D01*
X75565000Y-85090000D02*
X88265000Y-85090000D01*
X73660000Y-86995000D02*
X75565000Y-85090000D01*
X73660000Y-91440000D02*
X73660000Y-86995000D01*
X75565000Y-88265000D02*
X78105000Y-88265000D01*
X104140000Y-64770000D02*
X104140000Y-41275000D01*
X101434900Y-38569900D02*
X99019360Y-38569900D01*
X104140000Y-41275000D02*
X101434900Y-38569900D01*
X96520000Y-64770000D02*
X97320100Y-63969900D01*
X97320100Y-63969900D02*
X99019360Y-63969900D01*
X121920000Y-64770000D02*
X121920000Y-41275000D01*
X119214900Y-38569900D02*
X116799360Y-38569900D01*
X121920000Y-41275000D02*
X119214900Y-38569900D01*
X114300000Y-64770000D02*
X115100100Y-63969900D01*
X115100100Y-63969900D02*
X116799360Y-63969900D01*
X97790000Y-84875000D02*
X97790000Y-82550000D01*
X115570000Y-84875000D02*
X115570000Y-82550000D01*
X102870000Y-76200000D02*
X102870000Y-73660000D01*
X102870000Y-73660000D02*
X104140000Y-72390000D01*
X96520000Y-76200000D02*
X96520000Y-72390000D01*
X120650000Y-76200000D02*
X120650000Y-73660000D01*
X120650000Y-73660000D02*
X121920000Y-72390000D01*
X114300000Y-72390000D02*
X114300000Y-76200000D01*
D29*
G36*
X96507300Y-41910000D02*
X96508301Y-41914941D01*
X96511145Y-41919103D01*
X96515384Y-41921831D01*
X96520000Y-41922700D01*
X102857300Y-41922700D01*
X102857300Y-58407300D01*
X90182700Y-58407300D01*
X90182700Y-35572700D01*
X96507300Y-35572700D01*
X96507300Y-41910000D01*
X96507300Y-41910000D01*
G37*
X96507300Y-41910000D02*
X96508301Y-41914941D01*
X96511145Y-41919103D01*
X96515384Y-41921831D01*
X96520000Y-41922700D01*
X102857300Y-41922700D01*
X102857300Y-58407300D01*
X90182700Y-58407300D01*
X90182700Y-35572700D01*
X96507300Y-35572700D01*
X96507300Y-41910000D01*
G36*
X114287300Y-41910000D02*
X114288301Y-41914941D01*
X114291145Y-41919103D01*
X114295384Y-41921831D01*
X114300000Y-41922700D01*
X120637300Y-41922700D01*
X120637300Y-58407300D01*
X107962700Y-58407300D01*
X107962700Y-35572700D01*
X114287300Y-35572700D01*
X114287300Y-41910000D01*
X114287300Y-41910000D01*
G37*
X114287300Y-41910000D02*
X114288301Y-41914941D01*
X114291145Y-41919103D01*
X114295384Y-41921831D01*
X114300000Y-41922700D01*
X120637300Y-41922700D01*
X120637300Y-58407300D01*
X107962700Y-58407300D01*
X107962700Y-35572700D01*
X114287300Y-35572700D01*
X114287300Y-41910000D01*
G36*
X88887300Y-60960000D02*
X88888301Y-60964941D01*
X88891145Y-60969103D01*
X88895384Y-60971831D01*
X88900000Y-60972700D01*
X95237300Y-60972700D01*
X95237300Y-66675000D01*
X95238301Y-66679941D01*
X95241145Y-66684103D01*
X95245384Y-66686831D01*
X95250000Y-66687700D01*
X106680000Y-66687700D01*
X106684941Y-66686699D01*
X106689103Y-66683855D01*
X106691831Y-66679616D01*
X106692700Y-66675000D01*
X106692700Y-60972700D01*
X113017300Y-60972700D01*
X113017300Y-66675000D01*
X113018301Y-66679941D01*
X113021145Y-66684103D01*
X113025384Y-66686831D01*
X113030000Y-66687700D01*
X123337300Y-66687700D01*
X123337300Y-78727300D01*
X96834900Y-78727300D01*
X97429500Y-78132700D01*
X121285000Y-78132700D01*
X121538605Y-78082255D01*
X121753600Y-77938600D01*
X122388597Y-77303602D01*
X122388600Y-77303600D01*
X122532255Y-77088604D01*
X122555131Y-76973600D01*
X122582701Y-76835000D01*
X122582700Y-76834995D01*
X122582700Y-76831177D01*
X122594785Y-76771500D01*
X122594785Y-75628500D01*
X122566008Y-75475563D01*
X122475622Y-75335099D01*
X122337709Y-75240867D01*
X122174000Y-75207715D01*
X121666000Y-75207715D01*
X121513063Y-75236492D01*
X121372599Y-75326878D01*
X121312700Y-75414543D01*
X121312700Y-73934500D01*
X121625169Y-73622031D01*
X121670089Y-73640683D01*
X122167728Y-73641117D01*
X122627652Y-73451080D01*
X122979843Y-73099503D01*
X123170683Y-72639911D01*
X123171117Y-72142272D01*
X122981080Y-71682348D01*
X122629503Y-71330157D01*
X122169911Y-71139317D01*
X121672272Y-71138883D01*
X121212348Y-71328920D01*
X120860157Y-71680497D01*
X120669317Y-72140089D01*
X120668883Y-72637728D01*
X120688235Y-72684565D01*
X120213653Y-73159147D01*
X120176622Y-73101599D01*
X120131481Y-73070755D01*
X120238025Y-72964397D01*
X120392524Y-72592322D01*
X120392875Y-72189445D01*
X120239026Y-71817101D01*
X119954397Y-71531975D01*
X119582322Y-71377476D01*
X119179445Y-71377125D01*
X118807101Y-71530974D01*
X118521975Y-71815603D01*
X118367476Y-72187678D01*
X118367125Y-72590555D01*
X118520974Y-72962899D01*
X118532270Y-72974215D01*
X118275000Y-72974215D01*
X118122063Y-73002992D01*
X117981599Y-73093378D01*
X117887367Y-73231291D01*
X117854215Y-73395000D01*
X117854215Y-75195000D01*
X117856607Y-75207715D01*
X117856000Y-75207715D01*
X117703063Y-75236492D01*
X117562599Y-75326878D01*
X117473882Y-75456719D01*
X117395622Y-75335099D01*
X117257709Y-75240867D01*
X117094000Y-75207715D01*
X117093210Y-75207715D01*
X117095785Y-75195000D01*
X117095785Y-73395000D01*
X117067008Y-73242063D01*
X116976622Y-73101599D01*
X116838709Y-73007367D01*
X116675000Y-72974215D01*
X115411867Y-72974215D01*
X115550683Y-72639911D01*
X115551117Y-72142272D01*
X115361080Y-71682348D01*
X115009503Y-71330157D01*
X114549911Y-71139317D01*
X114052272Y-71138883D01*
X113592348Y-71328920D01*
X113240157Y-71680497D01*
X113049317Y-72140089D01*
X113048883Y-72637728D01*
X113238920Y-73097652D01*
X113590497Y-73449843D01*
X113637300Y-73469277D01*
X113637300Y-75568823D01*
X113625215Y-75628500D01*
X113625215Y-76771500D01*
X113631951Y-76807300D01*
X107881021Y-76807300D01*
X108088600Y-76668600D01*
X109141415Y-75615785D01*
X110325000Y-75615785D01*
X110477937Y-75587008D01*
X110618401Y-75496622D01*
X110712633Y-75358709D01*
X110745785Y-75195000D01*
X110745785Y-73395000D01*
X110717008Y-73242063D01*
X110626622Y-73101599D01*
X110488709Y-73007367D01*
X110325000Y-72974215D01*
X108725000Y-72974215D01*
X108572063Y-73002992D01*
X108431599Y-73093378D01*
X108337367Y-73231291D01*
X108304215Y-73395000D01*
X108304215Y-74578585D01*
X107345500Y-75537300D01*
X104797625Y-75537300D01*
X104786008Y-75475563D01*
X104695622Y-75335099D01*
X104557709Y-75240867D01*
X104394000Y-75207715D01*
X103886000Y-75207715D01*
X103733063Y-75236492D01*
X103592599Y-75326878D01*
X103532700Y-75414543D01*
X103532700Y-73934500D01*
X103845169Y-73622031D01*
X103890089Y-73640683D01*
X104387728Y-73641117D01*
X104847652Y-73451080D01*
X105199843Y-73099503D01*
X105390683Y-72639911D01*
X105391117Y-72142272D01*
X105201080Y-71682348D01*
X104849503Y-71330157D01*
X104389911Y-71139317D01*
X103892272Y-71138883D01*
X103432348Y-71328920D01*
X103080157Y-71680497D01*
X102889317Y-72140089D01*
X102888883Y-72637728D01*
X102908235Y-72684565D01*
X102433653Y-73159147D01*
X102396622Y-73101599D01*
X102351481Y-73070755D01*
X102458025Y-72964397D01*
X102612524Y-72592322D01*
X102612875Y-72189445D01*
X102459026Y-71817101D01*
X102174397Y-71531975D01*
X101802322Y-71377476D01*
X101399445Y-71377125D01*
X101027101Y-71530974D01*
X100741975Y-71815603D01*
X100587476Y-72187678D01*
X100587125Y-72590555D01*
X100740974Y-72962899D01*
X100752270Y-72974215D01*
X100495000Y-72974215D01*
X100342063Y-73002992D01*
X100201599Y-73093378D01*
X100107367Y-73231291D01*
X100074215Y-73395000D01*
X100074215Y-75195000D01*
X100076607Y-75207715D01*
X100076000Y-75207715D01*
X99923063Y-75236492D01*
X99782599Y-75326878D01*
X99693882Y-75456719D01*
X99615622Y-75335099D01*
X99477709Y-75240867D01*
X99314000Y-75207715D01*
X99313210Y-75207715D01*
X99315785Y-75195000D01*
X99315785Y-73395000D01*
X99287008Y-73242063D01*
X99196622Y-73101599D01*
X99058709Y-73007367D01*
X98895000Y-72974215D01*
X97631867Y-72974215D01*
X97770683Y-72639911D01*
X97771117Y-72142272D01*
X97581080Y-71682348D01*
X97229503Y-71330157D01*
X96769911Y-71139317D01*
X96272272Y-71138883D01*
X95812348Y-71328920D01*
X95460157Y-71680497D01*
X95269317Y-72140089D01*
X95268883Y-72637728D01*
X95458920Y-73097652D01*
X95810497Y-73449843D01*
X95857300Y-73469277D01*
X95857300Y-75568823D01*
X95845215Y-75628500D01*
X95845215Y-76771500D01*
X95851951Y-76807300D01*
X92984500Y-76807300D01*
X92407700Y-76230500D01*
X92407700Y-75615785D01*
X92545000Y-75615785D01*
X92697937Y-75587008D01*
X92838401Y-75496622D01*
X92932633Y-75358709D01*
X92965785Y-75195000D01*
X92965785Y-73395000D01*
X92937008Y-73242063D01*
X92846622Y-73101599D01*
X92708709Y-73007367D01*
X92545000Y-72974215D01*
X90945000Y-72974215D01*
X90792063Y-73002992D01*
X90651599Y-73093378D01*
X90557367Y-73231291D01*
X90524215Y-73395000D01*
X90524215Y-75195000D01*
X90552992Y-75347937D01*
X90643378Y-75488401D01*
X90781291Y-75582633D01*
X90945000Y-75615785D01*
X91082300Y-75615785D01*
X91082300Y-76505000D01*
X91132745Y-76758605D01*
X91276400Y-76973600D01*
X92241400Y-77938600D01*
X92456395Y-78082255D01*
X92710000Y-78132700D01*
X95555100Y-78132700D01*
X93705500Y-79982300D01*
X90603395Y-79982300D01*
X90577008Y-79842063D01*
X90486622Y-79701599D01*
X90348709Y-79607367D01*
X90185000Y-79574215D01*
X88885000Y-79574215D01*
X88732063Y-79602992D01*
X88646838Y-79657832D01*
X88543709Y-79587367D01*
X88380000Y-79554215D01*
X86880000Y-79554215D01*
X86727063Y-79582992D01*
X86586599Y-79673378D01*
X86492367Y-79811291D01*
X86459215Y-79975000D01*
X86459215Y-81275000D01*
X86487992Y-81427937D01*
X86578378Y-81568401D01*
X86716291Y-81662633D01*
X86880000Y-81695785D01*
X86912016Y-81695785D01*
X86720500Y-81887300D01*
X83459499Y-81887300D01*
X83212700Y-81640500D01*
X83212700Y-81543874D01*
X83351401Y-81454622D01*
X83445633Y-81316709D01*
X83478785Y-81153000D01*
X83478785Y-79121000D01*
X83450008Y-78968063D01*
X83359622Y-78827599D01*
X83221709Y-78733367D01*
X83197700Y-78728505D01*
X83197700Y-74969785D01*
X84378800Y-74969785D01*
X84531737Y-74941008D01*
X84672201Y-74850622D01*
X84766433Y-74712709D01*
X84799585Y-74549000D01*
X84799585Y-72517000D01*
X84770808Y-72364063D01*
X84680422Y-72223599D01*
X84542509Y-72129367D01*
X84378800Y-72096215D01*
X83197700Y-72096215D01*
X83197700Y-34302700D01*
X88887300Y-34302700D01*
X88887300Y-60960000D01*
X88887300Y-60960000D01*
G37*
X88887300Y-60960000D02*
X88888301Y-60964941D01*
X88891145Y-60969103D01*
X88895384Y-60971831D01*
X88900000Y-60972700D01*
X95237300Y-60972700D01*
X95237300Y-66675000D01*
X95238301Y-66679941D01*
X95241145Y-66684103D01*
X95245384Y-66686831D01*
X95250000Y-66687700D01*
X106680000Y-66687700D01*
X106684941Y-66686699D01*
X106689103Y-66683855D01*
X106691831Y-66679616D01*
X106692700Y-66675000D01*
X106692700Y-60972700D01*
X113017300Y-60972700D01*
X113017300Y-66675000D01*
X113018301Y-66679941D01*
X113021145Y-66684103D01*
X113025384Y-66686831D01*
X113030000Y-66687700D01*
X123337300Y-66687700D01*
X123337300Y-78727300D01*
X96834900Y-78727300D01*
X97429500Y-78132700D01*
X121285000Y-78132700D01*
X121538605Y-78082255D01*
X121753600Y-77938600D01*
X122388597Y-77303602D01*
X122388600Y-77303600D01*
X122532255Y-77088604D01*
X122555131Y-76973600D01*
X122582701Y-76835000D01*
X122582700Y-76834995D01*
X122582700Y-76831177D01*
X122594785Y-76771500D01*
X122594785Y-75628500D01*
X122566008Y-75475563D01*
X122475622Y-75335099D01*
X122337709Y-75240867D01*
X122174000Y-75207715D01*
X121666000Y-75207715D01*
X121513063Y-75236492D01*
X121372599Y-75326878D01*
X121312700Y-75414543D01*
X121312700Y-73934500D01*
X121625169Y-73622031D01*
X121670089Y-73640683D01*
X122167728Y-73641117D01*
X122627652Y-73451080D01*
X122979843Y-73099503D01*
X123170683Y-72639911D01*
X123171117Y-72142272D01*
X122981080Y-71682348D01*
X122629503Y-71330157D01*
X122169911Y-71139317D01*
X121672272Y-71138883D01*
X121212348Y-71328920D01*
X120860157Y-71680497D01*
X120669317Y-72140089D01*
X120668883Y-72637728D01*
X120688235Y-72684565D01*
X120213653Y-73159147D01*
X120176622Y-73101599D01*
X120131481Y-73070755D01*
X120238025Y-72964397D01*
X120392524Y-72592322D01*
X120392875Y-72189445D01*
X120239026Y-71817101D01*
X119954397Y-71531975D01*
X119582322Y-71377476D01*
X119179445Y-71377125D01*
X118807101Y-71530974D01*
X118521975Y-71815603D01*
X118367476Y-72187678D01*
X118367125Y-72590555D01*
X118520974Y-72962899D01*
X118532270Y-72974215D01*
X118275000Y-72974215D01*
X118122063Y-73002992D01*
X117981599Y-73093378D01*
X117887367Y-73231291D01*
X117854215Y-73395000D01*
X117854215Y-75195000D01*
X117856607Y-75207715D01*
X117856000Y-75207715D01*
X117703063Y-75236492D01*
X117562599Y-75326878D01*
X117473882Y-75456719D01*
X117395622Y-75335099D01*
X117257709Y-75240867D01*
X117094000Y-75207715D01*
X117093210Y-75207715D01*
X117095785Y-75195000D01*
X117095785Y-73395000D01*
X117067008Y-73242063D01*
X116976622Y-73101599D01*
X116838709Y-73007367D01*
X116675000Y-72974215D01*
X115411867Y-72974215D01*
X115550683Y-72639911D01*
X115551117Y-72142272D01*
X115361080Y-71682348D01*
X115009503Y-71330157D01*
X114549911Y-71139317D01*
X114052272Y-71138883D01*
X113592348Y-71328920D01*
X113240157Y-71680497D01*
X113049317Y-72140089D01*
X113048883Y-72637728D01*
X113238920Y-73097652D01*
X113590497Y-73449843D01*
X113637300Y-73469277D01*
X113637300Y-75568823D01*
X113625215Y-75628500D01*
X113625215Y-76771500D01*
X113631951Y-76807300D01*
X107881021Y-76807300D01*
X108088600Y-76668600D01*
X109141415Y-75615785D01*
X110325000Y-75615785D01*
X110477937Y-75587008D01*
X110618401Y-75496622D01*
X110712633Y-75358709D01*
X110745785Y-75195000D01*
X110745785Y-73395000D01*
X110717008Y-73242063D01*
X110626622Y-73101599D01*
X110488709Y-73007367D01*
X110325000Y-72974215D01*
X108725000Y-72974215D01*
X108572063Y-73002992D01*
X108431599Y-73093378D01*
X108337367Y-73231291D01*
X108304215Y-73395000D01*
X108304215Y-74578585D01*
X107345500Y-75537300D01*
X104797625Y-75537300D01*
X104786008Y-75475563D01*
X104695622Y-75335099D01*
X104557709Y-75240867D01*
X104394000Y-75207715D01*
X103886000Y-75207715D01*
X103733063Y-75236492D01*
X103592599Y-75326878D01*
X103532700Y-75414543D01*
X103532700Y-73934500D01*
X103845169Y-73622031D01*
X103890089Y-73640683D01*
X104387728Y-73641117D01*
X104847652Y-73451080D01*
X105199843Y-73099503D01*
X105390683Y-72639911D01*
X105391117Y-72142272D01*
X105201080Y-71682348D01*
X104849503Y-71330157D01*
X104389911Y-71139317D01*
X103892272Y-71138883D01*
X103432348Y-71328920D01*
X103080157Y-71680497D01*
X102889317Y-72140089D01*
X102888883Y-72637728D01*
X102908235Y-72684565D01*
X102433653Y-73159147D01*
X102396622Y-73101599D01*
X102351481Y-73070755D01*
X102458025Y-72964397D01*
X102612524Y-72592322D01*
X102612875Y-72189445D01*
X102459026Y-71817101D01*
X102174397Y-71531975D01*
X101802322Y-71377476D01*
X101399445Y-71377125D01*
X101027101Y-71530974D01*
X100741975Y-71815603D01*
X100587476Y-72187678D01*
X100587125Y-72590555D01*
X100740974Y-72962899D01*
X100752270Y-72974215D01*
X100495000Y-72974215D01*
X100342063Y-73002992D01*
X100201599Y-73093378D01*
X100107367Y-73231291D01*
X100074215Y-73395000D01*
X100074215Y-75195000D01*
X100076607Y-75207715D01*
X100076000Y-75207715D01*
X99923063Y-75236492D01*
X99782599Y-75326878D01*
X99693882Y-75456719D01*
X99615622Y-75335099D01*
X99477709Y-75240867D01*
X99314000Y-75207715D01*
X99313210Y-75207715D01*
X99315785Y-75195000D01*
X99315785Y-73395000D01*
X99287008Y-73242063D01*
X99196622Y-73101599D01*
X99058709Y-73007367D01*
X98895000Y-72974215D01*
X97631867Y-72974215D01*
X97770683Y-72639911D01*
X97771117Y-72142272D01*
X97581080Y-71682348D01*
X97229503Y-71330157D01*
X96769911Y-71139317D01*
X96272272Y-71138883D01*
X95812348Y-71328920D01*
X95460157Y-71680497D01*
X95269317Y-72140089D01*
X95268883Y-72637728D01*
X95458920Y-73097652D01*
X95810497Y-73449843D01*
X95857300Y-73469277D01*
X95857300Y-75568823D01*
X95845215Y-75628500D01*
X95845215Y-76771500D01*
X95851951Y-76807300D01*
X92984500Y-76807300D01*
X92407700Y-76230500D01*
X92407700Y-75615785D01*
X92545000Y-75615785D01*
X92697937Y-75587008D01*
X92838401Y-75496622D01*
X92932633Y-75358709D01*
X92965785Y-75195000D01*
X92965785Y-73395000D01*
X92937008Y-73242063D01*
X92846622Y-73101599D01*
X92708709Y-73007367D01*
X92545000Y-72974215D01*
X90945000Y-72974215D01*
X90792063Y-73002992D01*
X90651599Y-73093378D01*
X90557367Y-73231291D01*
X90524215Y-73395000D01*
X90524215Y-75195000D01*
X90552992Y-75347937D01*
X90643378Y-75488401D01*
X90781291Y-75582633D01*
X90945000Y-75615785D01*
X91082300Y-75615785D01*
X91082300Y-76505000D01*
X91132745Y-76758605D01*
X91276400Y-76973600D01*
X92241400Y-77938600D01*
X92456395Y-78082255D01*
X92710000Y-78132700D01*
X95555100Y-78132700D01*
X93705500Y-79982300D01*
X90603395Y-79982300D01*
X90577008Y-79842063D01*
X90486622Y-79701599D01*
X90348709Y-79607367D01*
X90185000Y-79574215D01*
X88885000Y-79574215D01*
X88732063Y-79602992D01*
X88646838Y-79657832D01*
X88543709Y-79587367D01*
X88380000Y-79554215D01*
X86880000Y-79554215D01*
X86727063Y-79582992D01*
X86586599Y-79673378D01*
X86492367Y-79811291D01*
X86459215Y-79975000D01*
X86459215Y-81275000D01*
X86487992Y-81427937D01*
X86578378Y-81568401D01*
X86716291Y-81662633D01*
X86880000Y-81695785D01*
X86912016Y-81695785D01*
X86720500Y-81887300D01*
X83459499Y-81887300D01*
X83212700Y-81640500D01*
X83212700Y-81543874D01*
X83351401Y-81454622D01*
X83445633Y-81316709D01*
X83478785Y-81153000D01*
X83478785Y-79121000D01*
X83450008Y-78968063D01*
X83359622Y-78827599D01*
X83221709Y-78733367D01*
X83197700Y-78728505D01*
X83197700Y-74969785D01*
X84378800Y-74969785D01*
X84531737Y-74941008D01*
X84672201Y-74850622D01*
X84766433Y-74712709D01*
X84799585Y-74549000D01*
X84799585Y-72517000D01*
X84770808Y-72364063D01*
X84680422Y-72223599D01*
X84542509Y-72129367D01*
X84378800Y-72096215D01*
X83197700Y-72096215D01*
X83197700Y-34302700D01*
X88887300Y-34302700D01*
X88887300Y-60960000D01*
G36*
X123177300Y-33007300D02*
X81915000Y-33007300D01*
X81910059Y-33008301D01*
X81905897Y-33011145D01*
X81903169Y-33015384D01*
X81902300Y-33020000D01*
X81902300Y-54597300D01*
X74942700Y-54597300D01*
X74942700Y-21602700D01*
X123177300Y-21602700D01*
X123177300Y-33007300D01*
X123177300Y-33007300D01*
G37*
X123177300Y-33007300D02*
X81915000Y-33007300D01*
X81910059Y-33008301D01*
X81905897Y-33011145D01*
X81903169Y-33015384D01*
X81902300Y-33020000D01*
X81902300Y-54597300D01*
X74942700Y-54597300D01*
X74942700Y-21602700D01*
X123177300Y-21602700D01*
X123177300Y-33007300D01*
G36*
X123337300Y-96032300D02*
X71607700Y-96032300D01*
X71607700Y-86995000D01*
X72997300Y-86995000D01*
X72997300Y-91440000D01*
X73047745Y-91693605D01*
X73191400Y-91908600D01*
X74128215Y-92845415D01*
X74128215Y-94208600D01*
X74156992Y-94361537D01*
X74247378Y-94502001D01*
X74385291Y-94596233D01*
X74549000Y-94629385D01*
X76581000Y-94629385D01*
X76733937Y-94600608D01*
X76874401Y-94510222D01*
X76968633Y-94372309D01*
X77001785Y-94208600D01*
X77001785Y-92481400D01*
X76973008Y-92328463D01*
X76882622Y-92187999D01*
X76744709Y-92093767D01*
X76581000Y-92060615D01*
X75752302Y-92060615D01*
X75752302Y-91975566D01*
X75951127Y-92057599D01*
X76412684Y-91872807D01*
X76768391Y-91525451D01*
X76935039Y-91187490D01*
X76906961Y-91095475D01*
X79602300Y-91095475D01*
X79602300Y-91637091D01*
X79665130Y-91788776D01*
X79781224Y-91904870D01*
X79932909Y-91967700D01*
X80374525Y-91967700D01*
X80477700Y-91864525D01*
X80477700Y-90992300D01*
X80852300Y-90992300D01*
X80852300Y-91864525D01*
X80955475Y-91967700D01*
X81397091Y-91967700D01*
X81548776Y-91904870D01*
X81664870Y-91788776D01*
X81727700Y-91637091D01*
X81727700Y-91095475D01*
X81624525Y-90992300D01*
X80852300Y-90992300D01*
X80477700Y-90992300D01*
X79705475Y-90992300D01*
X79602300Y-91095475D01*
X76906961Y-91095475D01*
X76875476Y-90992300D01*
X75752300Y-90992300D01*
X75752300Y-91012300D01*
X75377700Y-91012300D01*
X75377700Y-90992300D01*
X75357700Y-90992300D01*
X75357700Y-90617700D01*
X75377700Y-90617700D01*
X75377700Y-90597700D01*
X75752300Y-90597700D01*
X75752300Y-90617700D01*
X76875476Y-90617700D01*
X76935039Y-90422510D01*
X76768391Y-90084549D01*
X76654067Y-89972909D01*
X79602300Y-89972909D01*
X79602300Y-90514525D01*
X79705475Y-90617700D01*
X80477700Y-90617700D01*
X80477700Y-89745475D01*
X80852300Y-89745475D01*
X80852300Y-90617700D01*
X81624525Y-90617700D01*
X81727700Y-90514525D01*
X81727700Y-89972909D01*
X81664870Y-89821224D01*
X81548776Y-89705130D01*
X81397091Y-89642300D01*
X80955475Y-89642300D01*
X80852300Y-89745475D01*
X80477700Y-89745475D01*
X80374525Y-89642300D01*
X79932909Y-89642300D01*
X79781224Y-89705130D01*
X79665130Y-89821224D01*
X79602300Y-89972909D01*
X76654067Y-89972909D01*
X76412684Y-89737193D01*
X75951127Y-89552401D01*
X75752302Y-89634434D01*
X75752302Y-89539925D01*
X76233809Y-89444147D01*
X76647870Y-89167480D01*
X76808086Y-88927700D01*
X77025346Y-88927700D01*
X77043920Y-88972652D01*
X77395497Y-89324843D01*
X77855089Y-89515683D01*
X78352728Y-89516117D01*
X78812652Y-89326080D01*
X79164843Y-88974503D01*
X79355683Y-88514911D01*
X79356117Y-88017272D01*
X79166080Y-87557348D01*
X78814503Y-87205157D01*
X78354911Y-87014317D01*
X77857272Y-87013883D01*
X77397348Y-87203920D01*
X77045157Y-87555497D01*
X77025723Y-87602300D01*
X76808086Y-87602300D01*
X76647870Y-87362520D01*
X76233809Y-87085853D01*
X75745390Y-86988700D01*
X75384610Y-86988700D01*
X74896191Y-87085853D01*
X74482130Y-87362520D01*
X74322700Y-87601124D01*
X74322700Y-87269500D01*
X75839500Y-85752700D01*
X87990500Y-85752700D01*
X93965615Y-91727814D01*
X93965615Y-93091000D01*
X93994392Y-93243937D01*
X94084778Y-93384401D01*
X94222691Y-93478633D01*
X94386400Y-93511785D01*
X96113600Y-93511785D01*
X96266537Y-93483008D01*
X96407001Y-93392622D01*
X96501233Y-93254709D01*
X96534385Y-93091000D01*
X96534385Y-92359380D01*
X96610853Y-92743809D01*
X96887520Y-93157870D01*
X97301581Y-93434537D01*
X97790000Y-93531690D01*
X98278419Y-93434537D01*
X98692480Y-93157870D01*
X98969147Y-92743809D01*
X99064925Y-92262302D01*
X99159434Y-92262302D01*
X99077401Y-92461127D01*
X99262193Y-92922684D01*
X99609549Y-93278391D01*
X99947510Y-93445039D01*
X100142700Y-93385476D01*
X100142700Y-92262300D01*
X100122700Y-92262300D01*
X100122700Y-91887700D01*
X100142700Y-91887700D01*
X100142700Y-90764524D01*
X99947510Y-90704961D01*
X99609549Y-90871609D01*
X99262193Y-91227316D01*
X99077401Y-91688873D01*
X99159434Y-91887698D01*
X99064925Y-91887698D01*
X98969147Y-91406191D01*
X98692480Y-90992130D01*
X98278419Y-90715463D01*
X97790000Y-90618310D01*
X97356699Y-90704499D01*
X95912700Y-89260500D01*
X95912700Y-86865475D01*
X96877300Y-86865475D01*
X96877300Y-87207091D01*
X96940130Y-87358776D01*
X97056224Y-87474870D01*
X97207909Y-87537700D01*
X97499525Y-87537700D01*
X97602700Y-87434525D01*
X97602700Y-86762300D01*
X96980475Y-86762300D01*
X96877300Y-86865475D01*
X95912700Y-86865475D01*
X95912700Y-83334591D01*
X95964378Y-83414901D01*
X96102291Y-83509133D01*
X96266000Y-83542285D01*
X96774000Y-83542285D01*
X96926937Y-83513508D01*
X97067401Y-83423122D01*
X97127300Y-83335457D01*
X97127300Y-83939274D01*
X96996599Y-84023378D01*
X96902367Y-84161291D01*
X96869215Y-84325000D01*
X96869215Y-85425000D01*
X96897992Y-85577937D01*
X96988378Y-85718401D01*
X97002978Y-85728376D01*
X96940130Y-85791224D01*
X96877300Y-85942909D01*
X96877300Y-86284525D01*
X96980475Y-86387700D01*
X97602700Y-86387700D01*
X97602700Y-86367700D01*
X97977300Y-86367700D01*
X97977300Y-86387700D01*
X98599525Y-86387700D01*
X98702700Y-86284525D01*
X98702700Y-86242909D01*
X100437300Y-86242909D01*
X100437300Y-86684525D01*
X100540475Y-86787700D01*
X101412700Y-86787700D01*
X101412700Y-86015475D01*
X101787300Y-86015475D01*
X101787300Y-86787700D01*
X102659525Y-86787700D01*
X102762700Y-86684525D01*
X102762700Y-86242909D01*
X102699870Y-86091224D01*
X102583776Y-85975130D01*
X102432091Y-85912300D01*
X101890475Y-85912300D01*
X101787300Y-86015475D01*
X101412700Y-86015475D01*
X101309525Y-85912300D01*
X100767909Y-85912300D01*
X100616224Y-85975130D01*
X100500130Y-86091224D01*
X100437300Y-86242909D01*
X98702700Y-86242909D01*
X98702700Y-85942909D01*
X98639870Y-85791224D01*
X98578452Y-85729806D01*
X98583401Y-85726622D01*
X98677633Y-85588709D01*
X98710785Y-85425000D01*
X98710785Y-84771529D01*
X98857678Y-84832524D01*
X99260555Y-84832875D01*
X99632899Y-84679026D01*
X99918025Y-84394397D01*
X100072524Y-84022322D01*
X100072875Y-83619445D01*
X100037653Y-83534200D01*
X100099825Y-83534200D01*
X100203000Y-83431025D01*
X100203000Y-82737300D01*
X100122700Y-82737300D01*
X100122700Y-82362700D01*
X100203000Y-82362700D01*
X100203000Y-82342700D01*
X100457000Y-82342700D01*
X100457000Y-82362700D01*
X100537300Y-82362700D01*
X100537300Y-82737300D01*
X100457000Y-82737300D01*
X100457000Y-83431025D01*
X100553658Y-83527683D01*
X100462367Y-83661291D01*
X100429215Y-83825000D01*
X100429215Y-85125000D01*
X100457992Y-85277937D01*
X100548378Y-85418401D01*
X100686291Y-85512633D01*
X100850000Y-85545785D01*
X102350000Y-85545785D01*
X102502937Y-85517008D01*
X102643401Y-85426622D01*
X102737633Y-85288709D01*
X102770785Y-85125000D01*
X102770785Y-83825000D01*
X102742008Y-83672063D01*
X102658498Y-83542285D01*
X103124000Y-83542285D01*
X103161730Y-83535186D01*
X103127476Y-83617678D01*
X103127125Y-84020555D01*
X103280974Y-84392899D01*
X103565603Y-84678025D01*
X103937678Y-84832524D01*
X104340555Y-84832875D01*
X104712899Y-84679026D01*
X104998025Y-84394397D01*
X105152524Y-84022322D01*
X105152875Y-83619445D01*
X104999026Y-83247101D01*
X104814785Y-83062538D01*
X104814785Y-81978500D01*
X104808049Y-81942700D01*
X112362465Y-81942700D01*
X112355215Y-81978500D01*
X112355215Y-83121500D01*
X112383992Y-83274437D01*
X112474378Y-83414901D01*
X112612291Y-83509133D01*
X112776000Y-83542285D01*
X113284000Y-83542285D01*
X113436937Y-83513508D01*
X113577401Y-83423122D01*
X113666118Y-83293281D01*
X113744378Y-83414901D01*
X113882291Y-83509133D01*
X114046000Y-83542285D01*
X114554000Y-83542285D01*
X114706937Y-83513508D01*
X114847401Y-83423122D01*
X114907300Y-83335457D01*
X114907300Y-83939274D01*
X114776599Y-84023378D01*
X114682367Y-84161291D01*
X114649215Y-84325000D01*
X114649215Y-85425000D01*
X114677992Y-85577937D01*
X114768378Y-85718401D01*
X114782978Y-85728376D01*
X114720130Y-85791224D01*
X114657300Y-85942909D01*
X114657300Y-86284525D01*
X114760475Y-86387700D01*
X115382700Y-86387700D01*
X115382700Y-86367700D01*
X115757300Y-86367700D01*
X115757300Y-86387700D01*
X116379525Y-86387700D01*
X116482700Y-86284525D01*
X116482700Y-86242909D01*
X118217300Y-86242909D01*
X118217300Y-86684525D01*
X118320475Y-86787700D01*
X119192700Y-86787700D01*
X119192700Y-86015475D01*
X119567300Y-86015475D01*
X119567300Y-86787700D01*
X120439525Y-86787700D01*
X120542700Y-86684525D01*
X120542700Y-86242909D01*
X120479870Y-86091224D01*
X120363776Y-85975130D01*
X120212091Y-85912300D01*
X119670475Y-85912300D01*
X119567300Y-86015475D01*
X119192700Y-86015475D01*
X119089525Y-85912300D01*
X118547909Y-85912300D01*
X118396224Y-85975130D01*
X118280130Y-86091224D01*
X118217300Y-86242909D01*
X116482700Y-86242909D01*
X116482700Y-85942909D01*
X116419870Y-85791224D01*
X116358452Y-85729806D01*
X116363401Y-85726622D01*
X116457633Y-85588709D01*
X116490785Y-85425000D01*
X116490785Y-84771529D01*
X116637678Y-84832524D01*
X117040555Y-84832875D01*
X117412899Y-84679026D01*
X117698025Y-84394397D01*
X117852524Y-84022322D01*
X117852875Y-83619445D01*
X117817653Y-83534200D01*
X117879825Y-83534200D01*
X117983000Y-83431025D01*
X117983000Y-82737300D01*
X117902700Y-82737300D01*
X117902700Y-82362700D01*
X117983000Y-82362700D01*
X117983000Y-82342700D01*
X118237000Y-82342700D01*
X118237000Y-82362700D01*
X118317300Y-82362700D01*
X118317300Y-82737300D01*
X118237000Y-82737300D01*
X118237000Y-83431025D01*
X118333658Y-83527683D01*
X118242367Y-83661291D01*
X118209215Y-83825000D01*
X118209215Y-85125000D01*
X118237992Y-85277937D01*
X118328378Y-85418401D01*
X118466291Y-85512633D01*
X118630000Y-85545785D01*
X120130000Y-85545785D01*
X120282937Y-85517008D01*
X120423401Y-85426622D01*
X120517633Y-85288709D01*
X120550785Y-85125000D01*
X120550785Y-83825000D01*
X120522008Y-83672063D01*
X120438498Y-83542285D01*
X120904000Y-83542285D01*
X121056937Y-83513508D01*
X121197401Y-83423122D01*
X121257300Y-83335457D01*
X121257300Y-86720500D01*
X120542700Y-87435100D01*
X120542700Y-87265475D01*
X120439525Y-87162300D01*
X119567300Y-87162300D01*
X119567300Y-87182300D01*
X119192700Y-87182300D01*
X119192700Y-87162300D01*
X118320475Y-87162300D01*
X118217300Y-87265475D01*
X118217300Y-87602300D01*
X114300005Y-87602300D01*
X114300000Y-87602299D01*
X114046396Y-87652745D01*
X113831400Y-87796400D01*
X113831398Y-87796403D01*
X110923301Y-90704499D01*
X110490000Y-90618310D01*
X110001581Y-90715463D01*
X109587520Y-90992130D01*
X109310853Y-91406191D01*
X109220000Y-91862938D01*
X109129147Y-91406191D01*
X108852480Y-90992130D01*
X108438419Y-90715463D01*
X107950000Y-90618310D01*
X107516699Y-90704499D01*
X105152635Y-88340435D01*
X105152875Y-88064445D01*
X104999026Y-87692101D01*
X104714397Y-87406975D01*
X104342322Y-87252476D01*
X103939445Y-87252125D01*
X103567101Y-87405974D01*
X103281975Y-87690603D01*
X103127476Y-88062678D01*
X103127125Y-88465555D01*
X103280974Y-88837899D01*
X103565603Y-89123025D01*
X103937678Y-89277524D01*
X104215566Y-89277766D01*
X105592390Y-90654590D01*
X105410000Y-90618310D01*
X104976699Y-90704499D01*
X102309900Y-88037700D01*
X102432091Y-88037700D01*
X102583776Y-87974870D01*
X102699870Y-87858776D01*
X102762700Y-87707091D01*
X102762700Y-87265475D01*
X102659525Y-87162300D01*
X101787300Y-87162300D01*
X101787300Y-87182300D01*
X101412700Y-87182300D01*
X101412700Y-87162300D01*
X100540475Y-87162300D01*
X100437300Y-87265475D01*
X100437300Y-87602300D01*
X99829382Y-87602300D01*
X99634397Y-87406975D01*
X99262322Y-87252476D01*
X98859445Y-87252125D01*
X98647828Y-87339563D01*
X98702700Y-87207091D01*
X98702700Y-86865475D01*
X114657300Y-86865475D01*
X114657300Y-87207091D01*
X114720130Y-87358776D01*
X114836224Y-87474870D01*
X114987909Y-87537700D01*
X115279525Y-87537700D01*
X115382700Y-87434525D01*
X115382700Y-86762300D01*
X115757300Y-86762300D01*
X115757300Y-87434525D01*
X115860475Y-87537700D01*
X116152091Y-87537700D01*
X116303776Y-87474870D01*
X116419870Y-87358776D01*
X116482700Y-87207091D01*
X116482700Y-86865475D01*
X116379525Y-86762300D01*
X115757300Y-86762300D01*
X115382700Y-86762300D01*
X114760475Y-86762300D01*
X114657300Y-86865475D01*
X98702700Y-86865475D01*
X98599525Y-86762300D01*
X97977300Y-86762300D01*
X97977300Y-87434525D01*
X98080475Y-87537700D01*
X98355145Y-87537700D01*
X98201975Y-87690603D01*
X98047476Y-88062678D01*
X98047125Y-88465555D01*
X98200974Y-88837899D01*
X98485603Y-89123025D01*
X98857678Y-89277524D01*
X99260555Y-89277875D01*
X99632899Y-89124026D01*
X99829568Y-88927700D01*
X101325500Y-88927700D01*
X103052390Y-90654590D01*
X102870000Y-90618310D01*
X102381581Y-90715463D01*
X101967520Y-90992130D01*
X101690853Y-91406191D01*
X101595075Y-91887698D01*
X101500566Y-91887698D01*
X101582599Y-91688873D01*
X101397807Y-91227316D01*
X101050451Y-90871609D01*
X100712490Y-90704961D01*
X100517300Y-90764524D01*
X100517300Y-91887700D01*
X100537300Y-91887700D01*
X100537300Y-92262300D01*
X100517300Y-92262300D01*
X100517300Y-93385476D01*
X100597769Y-93410031D01*
X99420500Y-94587300D01*
X92984499Y-94587300D01*
X86957031Y-88559831D01*
X86975683Y-88514911D01*
X86976117Y-88017272D01*
X86786080Y-87557348D01*
X86434503Y-87205157D01*
X85974911Y-87014317D01*
X85477272Y-87013883D01*
X85017348Y-87203920D01*
X84665157Y-87555497D01*
X84474317Y-88015089D01*
X84473883Y-88512728D01*
X84493236Y-88559565D01*
X83418585Y-89634215D01*
X82515000Y-89634215D01*
X82362063Y-89662992D01*
X82221599Y-89753378D01*
X82127367Y-89891291D01*
X82094215Y-90055000D01*
X82094215Y-91555000D01*
X82122992Y-91707937D01*
X82213378Y-91848401D01*
X82351291Y-91942633D01*
X82515000Y-91975785D01*
X83815000Y-91975785D01*
X83967937Y-91947008D01*
X84108401Y-91856622D01*
X84202633Y-91718709D01*
X84235785Y-91555000D01*
X84235785Y-90691415D01*
X85430169Y-89497030D01*
X85475089Y-89515683D01*
X85972728Y-89516117D01*
X86019565Y-89496764D01*
X92241398Y-95718597D01*
X92241400Y-95718600D01*
X92456396Y-95862255D01*
X92710000Y-95912701D01*
X92710005Y-95912700D01*
X99695000Y-95912700D01*
X99948605Y-95862255D01*
X100163600Y-95718600D01*
X102436699Y-93445501D01*
X102870000Y-93531690D01*
X103358419Y-93434537D01*
X103772480Y-93157870D01*
X104049147Y-92743809D01*
X104140000Y-92287062D01*
X104230853Y-92743809D01*
X104507520Y-93157870D01*
X104921581Y-93434537D01*
X105410000Y-93531690D01*
X105843301Y-93445501D01*
X106846400Y-94448600D01*
X107061396Y-94592255D01*
X107315000Y-94642701D01*
X107315005Y-94642700D01*
X114935000Y-94642700D01*
X115188605Y-94592255D01*
X115403600Y-94448600D01*
X116764565Y-93087635D01*
X117040555Y-93087875D01*
X117412899Y-92934026D01*
X117698025Y-92649397D01*
X117852524Y-92277322D01*
X117852875Y-91874445D01*
X117699026Y-91502101D01*
X117414397Y-91216975D01*
X117042322Y-91062476D01*
X116639445Y-91062125D01*
X116267101Y-91215974D01*
X115981975Y-91500603D01*
X115827476Y-91872678D01*
X115827234Y-92150566D01*
X114660500Y-93317300D01*
X111153876Y-93317300D01*
X111392480Y-93157870D01*
X111669147Y-92743809D01*
X111766300Y-92255390D01*
X111766300Y-91894610D01*
X111739968Y-91762232D01*
X114574499Y-88927700D01*
X120650000Y-88927700D01*
X120903605Y-88877255D01*
X121118600Y-88733600D01*
X122388600Y-87463600D01*
X122532255Y-87248605D01*
X122582700Y-86995000D01*
X122582700Y-83181177D01*
X122594785Y-83121500D01*
X122594785Y-81978500D01*
X122566008Y-81825563D01*
X122475622Y-81685099D01*
X122337709Y-81590867D01*
X122174000Y-81557715D01*
X121666000Y-81557715D01*
X121513063Y-81586492D01*
X121372599Y-81676878D01*
X121283882Y-81806719D01*
X121205622Y-81685099D01*
X121067709Y-81590867D01*
X120904000Y-81557715D01*
X120396000Y-81557715D01*
X120243063Y-81586492D01*
X120102599Y-81676878D01*
X120019521Y-81798467D01*
X119992255Y-81661396D01*
X119992254Y-81661395D01*
X119848600Y-81446400D01*
X119848597Y-81446398D01*
X119213600Y-80811400D01*
X118998605Y-80667745D01*
X118745000Y-80617300D01*
X95885005Y-80617300D01*
X95885000Y-80617299D01*
X95631396Y-80667745D01*
X95416400Y-80811400D01*
X95416398Y-80811403D01*
X94781400Y-81446400D01*
X94637745Y-81661395D01*
X94626926Y-81715785D01*
X94587300Y-81915000D01*
X94587300Y-81918823D01*
X94575215Y-81978500D01*
X94575215Y-83121500D01*
X94587300Y-83185726D01*
X94587300Y-89535000D01*
X94637745Y-89788605D01*
X94781400Y-90003600D01*
X95416015Y-90638215D01*
X94750414Y-90638215D01*
X88733600Y-84621400D01*
X88518605Y-84477745D01*
X88265000Y-84427300D01*
X75565005Y-84427300D01*
X75565000Y-84427299D01*
X75311396Y-84477745D01*
X75096400Y-84621400D01*
X73191400Y-86526400D01*
X73047745Y-86741395D01*
X73023064Y-86865475D01*
X72997300Y-86995000D01*
X71607700Y-86995000D01*
X71607700Y-83832700D01*
X92075000Y-83832700D01*
X92079941Y-83831699D01*
X92083980Y-83828980D01*
X96525260Y-79387700D01*
X123337300Y-79387700D01*
X123337300Y-96032300D01*
X123337300Y-96032300D01*
G37*
X123337300Y-96032300D02*
X71607700Y-96032300D01*
X71607700Y-86995000D01*
X72997300Y-86995000D01*
X72997300Y-91440000D01*
X73047745Y-91693605D01*
X73191400Y-91908600D01*
X74128215Y-92845415D01*
X74128215Y-94208600D01*
X74156992Y-94361537D01*
X74247378Y-94502001D01*
X74385291Y-94596233D01*
X74549000Y-94629385D01*
X76581000Y-94629385D01*
X76733937Y-94600608D01*
X76874401Y-94510222D01*
X76968633Y-94372309D01*
X77001785Y-94208600D01*
X77001785Y-92481400D01*
X76973008Y-92328463D01*
X76882622Y-92187999D01*
X76744709Y-92093767D01*
X76581000Y-92060615D01*
X75752302Y-92060615D01*
X75752302Y-91975566D01*
X75951127Y-92057599D01*
X76412684Y-91872807D01*
X76768391Y-91525451D01*
X76935039Y-91187490D01*
X76906961Y-91095475D01*
X79602300Y-91095475D01*
X79602300Y-91637091D01*
X79665130Y-91788776D01*
X79781224Y-91904870D01*
X79932909Y-91967700D01*
X80374525Y-91967700D01*
X80477700Y-91864525D01*
X80477700Y-90992300D01*
X80852300Y-90992300D01*
X80852300Y-91864525D01*
X80955475Y-91967700D01*
X81397091Y-91967700D01*
X81548776Y-91904870D01*
X81664870Y-91788776D01*
X81727700Y-91637091D01*
X81727700Y-91095475D01*
X81624525Y-90992300D01*
X80852300Y-90992300D01*
X80477700Y-90992300D01*
X79705475Y-90992300D01*
X79602300Y-91095475D01*
X76906961Y-91095475D01*
X76875476Y-90992300D01*
X75752300Y-90992300D01*
X75752300Y-91012300D01*
X75377700Y-91012300D01*
X75377700Y-90992300D01*
X75357700Y-90992300D01*
X75357700Y-90617700D01*
X75377700Y-90617700D01*
X75377700Y-90597700D01*
X75752300Y-90597700D01*
X75752300Y-90617700D01*
X76875476Y-90617700D01*
X76935039Y-90422510D01*
X76768391Y-90084549D01*
X76654067Y-89972909D01*
X79602300Y-89972909D01*
X79602300Y-90514525D01*
X79705475Y-90617700D01*
X80477700Y-90617700D01*
X80477700Y-89745475D01*
X80852300Y-89745475D01*
X80852300Y-90617700D01*
X81624525Y-90617700D01*
X81727700Y-90514525D01*
X81727700Y-89972909D01*
X81664870Y-89821224D01*
X81548776Y-89705130D01*
X81397091Y-89642300D01*
X80955475Y-89642300D01*
X80852300Y-89745475D01*
X80477700Y-89745475D01*
X80374525Y-89642300D01*
X79932909Y-89642300D01*
X79781224Y-89705130D01*
X79665130Y-89821224D01*
X79602300Y-89972909D01*
X76654067Y-89972909D01*
X76412684Y-89737193D01*
X75951127Y-89552401D01*
X75752302Y-89634434D01*
X75752302Y-89539925D01*
X76233809Y-89444147D01*
X76647870Y-89167480D01*
X76808086Y-88927700D01*
X77025346Y-88927700D01*
X77043920Y-88972652D01*
X77395497Y-89324843D01*
X77855089Y-89515683D01*
X78352728Y-89516117D01*
X78812652Y-89326080D01*
X79164843Y-88974503D01*
X79355683Y-88514911D01*
X79356117Y-88017272D01*
X79166080Y-87557348D01*
X78814503Y-87205157D01*
X78354911Y-87014317D01*
X77857272Y-87013883D01*
X77397348Y-87203920D01*
X77045157Y-87555497D01*
X77025723Y-87602300D01*
X76808086Y-87602300D01*
X76647870Y-87362520D01*
X76233809Y-87085853D01*
X75745390Y-86988700D01*
X75384610Y-86988700D01*
X74896191Y-87085853D01*
X74482130Y-87362520D01*
X74322700Y-87601124D01*
X74322700Y-87269500D01*
X75839500Y-85752700D01*
X87990500Y-85752700D01*
X93965615Y-91727814D01*
X93965615Y-93091000D01*
X93994392Y-93243937D01*
X94084778Y-93384401D01*
X94222691Y-93478633D01*
X94386400Y-93511785D01*
X96113600Y-93511785D01*
X96266537Y-93483008D01*
X96407001Y-93392622D01*
X96501233Y-93254709D01*
X96534385Y-93091000D01*
X96534385Y-92359380D01*
X96610853Y-92743809D01*
X96887520Y-93157870D01*
X97301581Y-93434537D01*
X97790000Y-93531690D01*
X98278419Y-93434537D01*
X98692480Y-93157870D01*
X98969147Y-92743809D01*
X99064925Y-92262302D01*
X99159434Y-92262302D01*
X99077401Y-92461127D01*
X99262193Y-92922684D01*
X99609549Y-93278391D01*
X99947510Y-93445039D01*
X100142700Y-93385476D01*
X100142700Y-92262300D01*
X100122700Y-92262300D01*
X100122700Y-91887700D01*
X100142700Y-91887700D01*
X100142700Y-90764524D01*
X99947510Y-90704961D01*
X99609549Y-90871609D01*
X99262193Y-91227316D01*
X99077401Y-91688873D01*
X99159434Y-91887698D01*
X99064925Y-91887698D01*
X98969147Y-91406191D01*
X98692480Y-90992130D01*
X98278419Y-90715463D01*
X97790000Y-90618310D01*
X97356699Y-90704499D01*
X95912700Y-89260500D01*
X95912700Y-86865475D01*
X96877300Y-86865475D01*
X96877300Y-87207091D01*
X96940130Y-87358776D01*
X97056224Y-87474870D01*
X97207909Y-87537700D01*
X97499525Y-87537700D01*
X97602700Y-87434525D01*
X97602700Y-86762300D01*
X96980475Y-86762300D01*
X96877300Y-86865475D01*
X95912700Y-86865475D01*
X95912700Y-83334591D01*
X95964378Y-83414901D01*
X96102291Y-83509133D01*
X96266000Y-83542285D01*
X96774000Y-83542285D01*
X96926937Y-83513508D01*
X97067401Y-83423122D01*
X97127300Y-83335457D01*
X97127300Y-83939274D01*
X96996599Y-84023378D01*
X96902367Y-84161291D01*
X96869215Y-84325000D01*
X96869215Y-85425000D01*
X96897992Y-85577937D01*
X96988378Y-85718401D01*
X97002978Y-85728376D01*
X96940130Y-85791224D01*
X96877300Y-85942909D01*
X96877300Y-86284525D01*
X96980475Y-86387700D01*
X97602700Y-86387700D01*
X97602700Y-86367700D01*
X97977300Y-86367700D01*
X97977300Y-86387700D01*
X98599525Y-86387700D01*
X98702700Y-86284525D01*
X98702700Y-86242909D01*
X100437300Y-86242909D01*
X100437300Y-86684525D01*
X100540475Y-86787700D01*
X101412700Y-86787700D01*
X101412700Y-86015475D01*
X101787300Y-86015475D01*
X101787300Y-86787700D01*
X102659525Y-86787700D01*
X102762700Y-86684525D01*
X102762700Y-86242909D01*
X102699870Y-86091224D01*
X102583776Y-85975130D01*
X102432091Y-85912300D01*
X101890475Y-85912300D01*
X101787300Y-86015475D01*
X101412700Y-86015475D01*
X101309525Y-85912300D01*
X100767909Y-85912300D01*
X100616224Y-85975130D01*
X100500130Y-86091224D01*
X100437300Y-86242909D01*
X98702700Y-86242909D01*
X98702700Y-85942909D01*
X98639870Y-85791224D01*
X98578452Y-85729806D01*
X98583401Y-85726622D01*
X98677633Y-85588709D01*
X98710785Y-85425000D01*
X98710785Y-84771529D01*
X98857678Y-84832524D01*
X99260555Y-84832875D01*
X99632899Y-84679026D01*
X99918025Y-84394397D01*
X100072524Y-84022322D01*
X100072875Y-83619445D01*
X100037653Y-83534200D01*
X100099825Y-83534200D01*
X100203000Y-83431025D01*
X100203000Y-82737300D01*
X100122700Y-82737300D01*
X100122700Y-82362700D01*
X100203000Y-82362700D01*
X100203000Y-82342700D01*
X100457000Y-82342700D01*
X100457000Y-82362700D01*
X100537300Y-82362700D01*
X100537300Y-82737300D01*
X100457000Y-82737300D01*
X100457000Y-83431025D01*
X100553658Y-83527683D01*
X100462367Y-83661291D01*
X100429215Y-83825000D01*
X100429215Y-85125000D01*
X100457992Y-85277937D01*
X100548378Y-85418401D01*
X100686291Y-85512633D01*
X100850000Y-85545785D01*
X102350000Y-85545785D01*
X102502937Y-85517008D01*
X102643401Y-85426622D01*
X102737633Y-85288709D01*
X102770785Y-85125000D01*
X102770785Y-83825000D01*
X102742008Y-83672063D01*
X102658498Y-83542285D01*
X103124000Y-83542285D01*
X103161730Y-83535186D01*
X103127476Y-83617678D01*
X103127125Y-84020555D01*
X103280974Y-84392899D01*
X103565603Y-84678025D01*
X103937678Y-84832524D01*
X104340555Y-84832875D01*
X104712899Y-84679026D01*
X104998025Y-84394397D01*
X105152524Y-84022322D01*
X105152875Y-83619445D01*
X104999026Y-83247101D01*
X104814785Y-83062538D01*
X104814785Y-81978500D01*
X104808049Y-81942700D01*
X112362465Y-81942700D01*
X112355215Y-81978500D01*
X112355215Y-83121500D01*
X112383992Y-83274437D01*
X112474378Y-83414901D01*
X112612291Y-83509133D01*
X112776000Y-83542285D01*
X113284000Y-83542285D01*
X113436937Y-83513508D01*
X113577401Y-83423122D01*
X113666118Y-83293281D01*
X113744378Y-83414901D01*
X113882291Y-83509133D01*
X114046000Y-83542285D01*
X114554000Y-83542285D01*
X114706937Y-83513508D01*
X114847401Y-83423122D01*
X114907300Y-83335457D01*
X114907300Y-83939274D01*
X114776599Y-84023378D01*
X114682367Y-84161291D01*
X114649215Y-84325000D01*
X114649215Y-85425000D01*
X114677992Y-85577937D01*
X114768378Y-85718401D01*
X114782978Y-85728376D01*
X114720130Y-85791224D01*
X114657300Y-85942909D01*
X114657300Y-86284525D01*
X114760475Y-86387700D01*
X115382700Y-86387700D01*
X115382700Y-86367700D01*
X115757300Y-86367700D01*
X115757300Y-86387700D01*
X116379525Y-86387700D01*
X116482700Y-86284525D01*
X116482700Y-86242909D01*
X118217300Y-86242909D01*
X118217300Y-86684525D01*
X118320475Y-86787700D01*
X119192700Y-86787700D01*
X119192700Y-86015475D01*
X119567300Y-86015475D01*
X119567300Y-86787700D01*
X120439525Y-86787700D01*
X120542700Y-86684525D01*
X120542700Y-86242909D01*
X120479870Y-86091224D01*
X120363776Y-85975130D01*
X120212091Y-85912300D01*
X119670475Y-85912300D01*
X119567300Y-86015475D01*
X119192700Y-86015475D01*
X119089525Y-85912300D01*
X118547909Y-85912300D01*
X118396224Y-85975130D01*
X118280130Y-86091224D01*
X118217300Y-86242909D01*
X116482700Y-86242909D01*
X116482700Y-85942909D01*
X116419870Y-85791224D01*
X116358452Y-85729806D01*
X116363401Y-85726622D01*
X116457633Y-85588709D01*
X116490785Y-85425000D01*
X116490785Y-84771529D01*
X116637678Y-84832524D01*
X117040555Y-84832875D01*
X117412899Y-84679026D01*
X117698025Y-84394397D01*
X117852524Y-84022322D01*
X117852875Y-83619445D01*
X117817653Y-83534200D01*
X117879825Y-83534200D01*
X117983000Y-83431025D01*
X117983000Y-82737300D01*
X117902700Y-82737300D01*
X117902700Y-82362700D01*
X117983000Y-82362700D01*
X117983000Y-82342700D01*
X118237000Y-82342700D01*
X118237000Y-82362700D01*
X118317300Y-82362700D01*
X118317300Y-82737300D01*
X118237000Y-82737300D01*
X118237000Y-83431025D01*
X118333658Y-83527683D01*
X118242367Y-83661291D01*
X118209215Y-83825000D01*
X118209215Y-85125000D01*
X118237992Y-85277937D01*
X118328378Y-85418401D01*
X118466291Y-85512633D01*
X118630000Y-85545785D01*
X120130000Y-85545785D01*
X120282937Y-85517008D01*
X120423401Y-85426622D01*
X120517633Y-85288709D01*
X120550785Y-85125000D01*
X120550785Y-83825000D01*
X120522008Y-83672063D01*
X120438498Y-83542285D01*
X120904000Y-83542285D01*
X121056937Y-83513508D01*
X121197401Y-83423122D01*
X121257300Y-83335457D01*
X121257300Y-86720500D01*
X120542700Y-87435100D01*
X120542700Y-87265475D01*
X120439525Y-87162300D01*
X119567300Y-87162300D01*
X119567300Y-87182300D01*
X119192700Y-87182300D01*
X119192700Y-87162300D01*
X118320475Y-87162300D01*
X118217300Y-87265475D01*
X118217300Y-87602300D01*
X114300005Y-87602300D01*
X114300000Y-87602299D01*
X114046396Y-87652745D01*
X113831400Y-87796400D01*
X113831398Y-87796403D01*
X110923301Y-90704499D01*
X110490000Y-90618310D01*
X110001581Y-90715463D01*
X109587520Y-90992130D01*
X109310853Y-91406191D01*
X109220000Y-91862938D01*
X109129147Y-91406191D01*
X108852480Y-90992130D01*
X108438419Y-90715463D01*
X107950000Y-90618310D01*
X107516699Y-90704499D01*
X105152635Y-88340435D01*
X105152875Y-88064445D01*
X104999026Y-87692101D01*
X104714397Y-87406975D01*
X104342322Y-87252476D01*
X103939445Y-87252125D01*
X103567101Y-87405974D01*
X103281975Y-87690603D01*
X103127476Y-88062678D01*
X103127125Y-88465555D01*
X103280974Y-88837899D01*
X103565603Y-89123025D01*
X103937678Y-89277524D01*
X104215566Y-89277766D01*
X105592390Y-90654590D01*
X105410000Y-90618310D01*
X104976699Y-90704499D01*
X102309900Y-88037700D01*
X102432091Y-88037700D01*
X102583776Y-87974870D01*
X102699870Y-87858776D01*
X102762700Y-87707091D01*
X102762700Y-87265475D01*
X102659525Y-87162300D01*
X101787300Y-87162300D01*
X101787300Y-87182300D01*
X101412700Y-87182300D01*
X101412700Y-87162300D01*
X100540475Y-87162300D01*
X100437300Y-87265475D01*
X100437300Y-87602300D01*
X99829382Y-87602300D01*
X99634397Y-87406975D01*
X99262322Y-87252476D01*
X98859445Y-87252125D01*
X98647828Y-87339563D01*
X98702700Y-87207091D01*
X98702700Y-86865475D01*
X114657300Y-86865475D01*
X114657300Y-87207091D01*
X114720130Y-87358776D01*
X114836224Y-87474870D01*
X114987909Y-87537700D01*
X115279525Y-87537700D01*
X115382700Y-87434525D01*
X115382700Y-86762300D01*
X115757300Y-86762300D01*
X115757300Y-87434525D01*
X115860475Y-87537700D01*
X116152091Y-87537700D01*
X116303776Y-87474870D01*
X116419870Y-87358776D01*
X116482700Y-87207091D01*
X116482700Y-86865475D01*
X116379525Y-86762300D01*
X115757300Y-86762300D01*
X115382700Y-86762300D01*
X114760475Y-86762300D01*
X114657300Y-86865475D01*
X98702700Y-86865475D01*
X98599525Y-86762300D01*
X97977300Y-86762300D01*
X97977300Y-87434525D01*
X98080475Y-87537700D01*
X98355145Y-87537700D01*
X98201975Y-87690603D01*
X98047476Y-88062678D01*
X98047125Y-88465555D01*
X98200974Y-88837899D01*
X98485603Y-89123025D01*
X98857678Y-89277524D01*
X99260555Y-89277875D01*
X99632899Y-89124026D01*
X99829568Y-88927700D01*
X101325500Y-88927700D01*
X103052390Y-90654590D01*
X102870000Y-90618310D01*
X102381581Y-90715463D01*
X101967520Y-90992130D01*
X101690853Y-91406191D01*
X101595075Y-91887698D01*
X101500566Y-91887698D01*
X101582599Y-91688873D01*
X101397807Y-91227316D01*
X101050451Y-90871609D01*
X100712490Y-90704961D01*
X100517300Y-90764524D01*
X100517300Y-91887700D01*
X100537300Y-91887700D01*
X100537300Y-92262300D01*
X100517300Y-92262300D01*
X100517300Y-93385476D01*
X100597769Y-93410031D01*
X99420500Y-94587300D01*
X92984499Y-94587300D01*
X86957031Y-88559831D01*
X86975683Y-88514911D01*
X86976117Y-88017272D01*
X86786080Y-87557348D01*
X86434503Y-87205157D01*
X85974911Y-87014317D01*
X85477272Y-87013883D01*
X85017348Y-87203920D01*
X84665157Y-87555497D01*
X84474317Y-88015089D01*
X84473883Y-88512728D01*
X84493236Y-88559565D01*
X83418585Y-89634215D01*
X82515000Y-89634215D01*
X82362063Y-89662992D01*
X82221599Y-89753378D01*
X82127367Y-89891291D01*
X82094215Y-90055000D01*
X82094215Y-91555000D01*
X82122992Y-91707937D01*
X82213378Y-91848401D01*
X82351291Y-91942633D01*
X82515000Y-91975785D01*
X83815000Y-91975785D01*
X83967937Y-91947008D01*
X84108401Y-91856622D01*
X84202633Y-91718709D01*
X84235785Y-91555000D01*
X84235785Y-90691415D01*
X85430169Y-89497030D01*
X85475089Y-89515683D01*
X85972728Y-89516117D01*
X86019565Y-89496764D01*
X92241398Y-95718597D01*
X92241400Y-95718600D01*
X92456396Y-95862255D01*
X92710000Y-95912701D01*
X92710005Y-95912700D01*
X99695000Y-95912700D01*
X99948605Y-95862255D01*
X100163600Y-95718600D01*
X102436699Y-93445501D01*
X102870000Y-93531690D01*
X103358419Y-93434537D01*
X103772480Y-93157870D01*
X104049147Y-92743809D01*
X104140000Y-92287062D01*
X104230853Y-92743809D01*
X104507520Y-93157870D01*
X104921581Y-93434537D01*
X105410000Y-93531690D01*
X105843301Y-93445501D01*
X106846400Y-94448600D01*
X107061396Y-94592255D01*
X107315000Y-94642701D01*
X107315005Y-94642700D01*
X114935000Y-94642700D01*
X115188605Y-94592255D01*
X115403600Y-94448600D01*
X116764565Y-93087635D01*
X117040555Y-93087875D01*
X117412899Y-92934026D01*
X117698025Y-92649397D01*
X117852524Y-92277322D01*
X117852875Y-91874445D01*
X117699026Y-91502101D01*
X117414397Y-91216975D01*
X117042322Y-91062476D01*
X116639445Y-91062125D01*
X116267101Y-91215974D01*
X115981975Y-91500603D01*
X115827476Y-91872678D01*
X115827234Y-92150566D01*
X114660500Y-93317300D01*
X111153876Y-93317300D01*
X111392480Y-93157870D01*
X111669147Y-92743809D01*
X111766300Y-92255390D01*
X111766300Y-91894610D01*
X111739968Y-91762232D01*
X114574499Y-88927700D01*
X120650000Y-88927700D01*
X120903605Y-88877255D01*
X121118600Y-88733600D01*
X122388600Y-87463600D01*
X122532255Y-87248605D01*
X122582700Y-86995000D01*
X122582700Y-83181177D01*
X122594785Y-83121500D01*
X122594785Y-81978500D01*
X122566008Y-81825563D01*
X122475622Y-81685099D01*
X122337709Y-81590867D01*
X122174000Y-81557715D01*
X121666000Y-81557715D01*
X121513063Y-81586492D01*
X121372599Y-81676878D01*
X121283882Y-81806719D01*
X121205622Y-81685099D01*
X121067709Y-81590867D01*
X120904000Y-81557715D01*
X120396000Y-81557715D01*
X120243063Y-81586492D01*
X120102599Y-81676878D01*
X120019521Y-81798467D01*
X119992255Y-81661396D01*
X119992254Y-81661395D01*
X119848600Y-81446400D01*
X119848597Y-81446398D01*
X119213600Y-80811400D01*
X118998605Y-80667745D01*
X118745000Y-80617300D01*
X95885005Y-80617300D01*
X95885000Y-80617299D01*
X95631396Y-80667745D01*
X95416400Y-80811400D01*
X95416398Y-80811403D01*
X94781400Y-81446400D01*
X94637745Y-81661395D01*
X94626926Y-81715785D01*
X94587300Y-81915000D01*
X94587300Y-81918823D01*
X94575215Y-81978500D01*
X94575215Y-83121500D01*
X94587300Y-83185726D01*
X94587300Y-89535000D01*
X94637745Y-89788605D01*
X94781400Y-90003600D01*
X95416015Y-90638215D01*
X94750414Y-90638215D01*
X88733600Y-84621400D01*
X88518605Y-84477745D01*
X88265000Y-84427300D01*
X75565005Y-84427300D01*
X75565000Y-84427299D01*
X75311396Y-84477745D01*
X75096400Y-84621400D01*
X73191400Y-86526400D01*
X73047745Y-86741395D01*
X73023064Y-86865475D01*
X72997300Y-86995000D01*
X71607700Y-86995000D01*
X71607700Y-83832700D01*
X92075000Y-83832700D01*
X92079941Y-83831699D01*
X92083980Y-83828980D01*
X96525260Y-79387700D01*
X123337300Y-79387700D01*
X123337300Y-96032300D01*
M02*
