G04 #@! TF.FileFunction,Legend,Top*
%FSLAX46Y46*%
G04 Gerber Fmt 4.6, Leading zero omitted, Abs format (unit mm)*
G04 Created by KiCad (PCBNEW 4.0.6) date 05/02/17 10:19:31*
%MOMM*%
%LPD*%
G01*
G04 APERTURE LIST*
%ADD10C,0.100000*%
%ADD11C,0.300000*%
%ADD12C,0.150000*%
%ADD13C,0.200000*%
%ADD14C,0.500000*%
%ADD15C,0.375000*%
%ADD16C,0.101600*%
%ADD17C,0.304800*%
%ADD18C,1.700000*%
%ADD19R,1.700000X1.700000*%
%ADD20O,1.900000X2.900000*%
%ADD21C,3.400000*%
%ADD22O,2.900000X1.900000*%
%ADD23C,2.100000*%
%ADD24R,2.100000X2.100000*%
%ADD25R,1.000000X1.900000*%
%ADD26R,2.000000X2.200000*%
%ADD27R,2.432000X2.432000*%
%ADD28O,2.432000X2.432000*%
%ADD29R,1.200000X1.400000*%
%ADD30R,1.400000X1.200000*%
%ADD31R,2.200000X2.000000*%
%ADD32R,3.000000X1.900000*%
%ADD33O,1.400000X1.924000*%
%ADD34C,1.924000*%
%ADD35R,3.400000X6.900000*%
%ADD36R,6.851600X3.400000*%
%ADD37R,2.100000X1.600000*%
%ADD38R,2.100000X3.700000*%
%ADD39R,1.950000X1.000000*%
%ADD40R,2.900000X6.900000*%
%ADD41R,2.400000X3.900000*%
%ADD42R,2.432000X2.127200*%
%ADD43O,2.432000X2.127200*%
%ADD44R,3.900000X2.400000*%
%ADD45R,2.800000X5.900000*%
%ADD46R,5.900000X2.800000*%
G04 APERTURE END LIST*
D10*
D11*
X18071428Y-15607143D02*
X16928571Y-15607143D01*
X17500000Y-16178571D02*
X17500000Y-15035714D01*
X42071428Y-15607143D02*
X40928571Y-15607143D01*
X41500000Y-16178571D02*
X41500000Y-15035714D01*
D12*
X71000000Y-57000000D02*
X73000000Y-59000000D01*
D13*
X64042857Y-73157142D02*
X63471429Y-73557142D01*
X64042857Y-73842857D02*
X62842857Y-73842857D01*
X62842857Y-73385714D01*
X62900000Y-73271428D01*
X62957143Y-73214285D01*
X63071429Y-73157142D01*
X63242857Y-73157142D01*
X63357143Y-73214285D01*
X63414286Y-73271428D01*
X63471429Y-73385714D01*
X63471429Y-73842857D01*
X63985714Y-72700000D02*
X64042857Y-72528571D01*
X64042857Y-72242857D01*
X63985714Y-72128571D01*
X63928571Y-72071428D01*
X63814286Y-72014285D01*
X63700000Y-72014285D01*
X63585714Y-72071428D01*
X63528571Y-72128571D01*
X63471429Y-72242857D01*
X63414286Y-72471428D01*
X63357143Y-72585714D01*
X63300000Y-72642857D01*
X63185714Y-72700000D01*
X63071429Y-72700000D01*
X62957143Y-72642857D01*
X62900000Y-72585714D01*
X62842857Y-72471428D01*
X62842857Y-72185714D01*
X62900000Y-72014285D01*
X62842857Y-71671428D02*
X62842857Y-70985714D01*
X64042857Y-71328571D02*
X62842857Y-71328571D01*
D14*
X37928571Y-17404762D02*
X37928571Y-15404762D01*
X39071429Y-17404762D01*
X39071429Y-15404762D01*
X13928571Y-17404762D02*
X13928571Y-15404762D01*
X15071429Y-17404762D01*
X15071429Y-15404762D01*
X2476190Y-7857143D02*
X2761904Y-7952381D01*
X2857143Y-8047619D01*
X2952381Y-8238095D01*
X2952381Y-8523810D01*
X2857143Y-8714286D01*
X2761904Y-8809524D01*
X2571428Y-8904762D01*
X1809523Y-8904762D01*
X1809523Y-6904762D01*
X2476190Y-6904762D01*
X2666666Y-7000000D01*
X2761904Y-7095238D01*
X2857143Y-7285714D01*
X2857143Y-7476190D01*
X2761904Y-7666667D01*
X2666666Y-7761905D01*
X2476190Y-7857143D01*
X1809523Y-7857143D01*
X3714285Y-8333333D02*
X4666666Y-8333333D01*
X3523809Y-8904762D02*
X4190476Y-6904762D01*
X4857143Y-8904762D01*
X5238095Y-6904762D02*
X6380952Y-6904762D01*
X5809524Y-8904762D02*
X5809524Y-6904762D01*
X6761905Y-6904762D02*
X7904762Y-6904762D01*
X7333334Y-8904762D02*
X7333334Y-6904762D01*
X8095239Y-9095238D02*
X9619049Y-9095238D01*
X10095239Y-8904762D02*
X10095239Y-6904762D01*
X11047620Y-8904762D02*
X11047620Y-6904762D01*
X12190478Y-8904762D01*
X12190478Y-6904762D01*
X44238095Y-13904762D02*
X44619047Y-13904762D01*
X44809523Y-14000000D01*
X45000000Y-14190476D01*
X45095238Y-14571429D01*
X45095238Y-15238095D01*
X45000000Y-15619048D01*
X44809523Y-15809524D01*
X44619047Y-15904762D01*
X44238095Y-15904762D01*
X44047619Y-15809524D01*
X43857142Y-15619048D01*
X43761904Y-15238095D01*
X43761904Y-14571429D01*
X43857142Y-14190476D01*
X44047619Y-14000000D01*
X44238095Y-13904762D01*
X45952380Y-13904762D02*
X45952380Y-15523810D01*
X46047619Y-15714286D01*
X46142857Y-15809524D01*
X46333333Y-15904762D01*
X46714285Y-15904762D01*
X46904761Y-15809524D01*
X47000000Y-15714286D01*
X47095238Y-15523810D01*
X47095238Y-13904762D01*
X47761904Y-13904762D02*
X48904761Y-13904762D01*
X48333333Y-15904762D02*
X48333333Y-13904762D01*
X49095238Y-16095238D02*
X50619048Y-16095238D01*
X51761905Y-14857143D02*
X52047619Y-14952381D01*
X52142858Y-15047619D01*
X52238096Y-15238095D01*
X52238096Y-15523810D01*
X52142858Y-15714286D01*
X52047619Y-15809524D01*
X51857143Y-15904762D01*
X51095238Y-15904762D01*
X51095238Y-13904762D01*
X51761905Y-13904762D01*
X51952381Y-14000000D01*
X52047619Y-14095238D01*
X52142858Y-14285714D01*
X52142858Y-14476190D01*
X52047619Y-14666667D01*
X51952381Y-14761905D01*
X51761905Y-14857143D01*
X51095238Y-14857143D01*
X20380952Y-13904762D02*
X20761904Y-13904762D01*
X20952380Y-14000000D01*
X21142857Y-14190476D01*
X21238095Y-14571429D01*
X21238095Y-15238095D01*
X21142857Y-15619048D01*
X20952380Y-15809524D01*
X20761904Y-15904762D01*
X20380952Y-15904762D01*
X20190476Y-15809524D01*
X19999999Y-15619048D01*
X19904761Y-15238095D01*
X19904761Y-14571429D01*
X19999999Y-14190476D01*
X20190476Y-14000000D01*
X20380952Y-13904762D01*
X22095237Y-13904762D02*
X22095237Y-15523810D01*
X22190476Y-15714286D01*
X22285714Y-15809524D01*
X22476190Y-15904762D01*
X22857142Y-15904762D01*
X23047618Y-15809524D01*
X23142857Y-15714286D01*
X23238095Y-15523810D01*
X23238095Y-13904762D01*
X23904761Y-13904762D02*
X25047618Y-13904762D01*
X24476190Y-15904762D02*
X24476190Y-13904762D01*
X25238095Y-16095238D02*
X26761905Y-16095238D01*
X27142857Y-15333333D02*
X28095238Y-15333333D01*
X26952381Y-15904762D02*
X27619048Y-13904762D01*
X28285715Y-15904762D01*
D13*
X57900000Y-33899999D02*
X57842857Y-34014285D01*
X57842857Y-34185714D01*
X57900000Y-34357142D01*
X58014286Y-34471428D01*
X58128571Y-34528571D01*
X58357143Y-34585714D01*
X58528571Y-34585714D01*
X58757143Y-34528571D01*
X58871429Y-34471428D01*
X58985714Y-34357142D01*
X59042857Y-34185714D01*
X59042857Y-34071428D01*
X58985714Y-33899999D01*
X58928571Y-33842856D01*
X58528571Y-33842856D01*
X58528571Y-34071428D01*
X59042857Y-33328571D02*
X57842857Y-33328571D01*
X57842857Y-33042856D01*
X57900000Y-32871428D01*
X58014286Y-32757142D01*
X58128571Y-32699999D01*
X58357143Y-32642856D01*
X58528571Y-32642856D01*
X58757143Y-32699999D01*
X58871429Y-32757142D01*
X58985714Y-32871428D01*
X59042857Y-33042856D01*
X59042857Y-33328571D01*
X59157143Y-32414285D02*
X59157143Y-31499999D01*
X59042857Y-30585713D02*
X59042857Y-31271428D01*
X59042857Y-30928570D02*
X57842857Y-30928570D01*
X58014286Y-31042856D01*
X58128571Y-31157142D01*
X58185714Y-31271428D01*
X57957143Y-30128571D02*
X57900000Y-30071428D01*
X57842857Y-29957142D01*
X57842857Y-29671428D01*
X57900000Y-29557142D01*
X57957143Y-29499999D01*
X58071429Y-29442856D01*
X58185714Y-29442856D01*
X58357143Y-29499999D01*
X59042857Y-30185713D01*
X59042857Y-29442856D01*
X57842857Y-29099999D02*
X59042857Y-28699999D01*
X57842857Y-28299999D01*
X65414286Y-25471428D02*
X65414286Y-25871428D01*
X66042857Y-25871428D02*
X64842857Y-25871428D01*
X64842857Y-25299999D01*
X65700000Y-24900000D02*
X65700000Y-24328571D01*
X66042857Y-25014285D02*
X64842857Y-24614285D01*
X66042857Y-24214285D01*
X66042857Y-23814286D02*
X64842857Y-23814286D01*
X66042857Y-23128571D01*
X64842857Y-23128571D01*
X25771429Y-58342857D02*
X25200000Y-58342857D01*
X25142857Y-58914286D01*
X25200000Y-58857143D01*
X25314286Y-58800000D01*
X25600000Y-58800000D01*
X25714286Y-58857143D01*
X25771429Y-58914286D01*
X25828572Y-59028571D01*
X25828572Y-59314286D01*
X25771429Y-59428571D01*
X25714286Y-59485714D01*
X25600000Y-59542857D01*
X25314286Y-59542857D01*
X25200000Y-59485714D01*
X25142857Y-59428571D01*
X26171429Y-58342857D02*
X26571429Y-59542857D01*
X26971429Y-58342857D01*
X25085715Y-55400000D02*
X24971429Y-55342857D01*
X24800000Y-55342857D01*
X24628572Y-55400000D01*
X24514286Y-55514286D01*
X24457143Y-55628571D01*
X24400000Y-55857143D01*
X24400000Y-56028571D01*
X24457143Y-56257143D01*
X24514286Y-56371429D01*
X24628572Y-56485714D01*
X24800000Y-56542857D01*
X24914286Y-56542857D01*
X25085715Y-56485714D01*
X25142858Y-56428571D01*
X25142858Y-56028571D01*
X24914286Y-56028571D01*
X25657143Y-56542857D02*
X25657143Y-55342857D01*
X26342858Y-56542857D01*
X26342858Y-55342857D01*
X26914286Y-56542857D02*
X26914286Y-55342857D01*
X27200001Y-55342857D01*
X27371429Y-55400000D01*
X27485715Y-55514286D01*
X27542858Y-55628571D01*
X27600001Y-55857143D01*
X27600001Y-56028571D01*
X27542858Y-56257143D01*
X27485715Y-56371429D01*
X27371429Y-56485714D01*
X27200001Y-56542857D01*
X26914286Y-56542857D01*
X25800001Y-54042857D02*
X25400001Y-53471429D01*
X25114286Y-54042857D02*
X25114286Y-52842857D01*
X25571429Y-52842857D01*
X25685715Y-52900000D01*
X25742858Y-52957143D01*
X25800001Y-53071429D01*
X25800001Y-53242857D01*
X25742858Y-53357143D01*
X25685715Y-53414286D01*
X25571429Y-53471429D01*
X25114286Y-53471429D01*
X26200001Y-52842857D02*
X27000001Y-54042857D01*
X27000001Y-52842857D02*
X26200001Y-54042857D01*
X25085715Y-50342857D02*
X25771429Y-50342857D01*
X25428572Y-51542857D02*
X25428572Y-50342857D01*
X26057144Y-50342857D02*
X26857144Y-51542857D01*
X26857144Y-50342857D02*
X26057144Y-51542857D01*
X33728572Y-57342857D02*
X34471429Y-57342857D01*
X34071429Y-57800000D01*
X34242857Y-57800000D01*
X34357143Y-57857143D01*
X34414286Y-57914286D01*
X34471429Y-58028571D01*
X34471429Y-58314286D01*
X34414286Y-58428571D01*
X34357143Y-58485714D01*
X34242857Y-58542857D01*
X33900000Y-58542857D01*
X33785714Y-58485714D01*
X33728572Y-58428571D01*
X34985714Y-58428571D02*
X35042857Y-58485714D01*
X34985714Y-58542857D01*
X34928571Y-58485714D01*
X34985714Y-58428571D01*
X34985714Y-58542857D01*
X35442858Y-57342857D02*
X36185715Y-57342857D01*
X35785715Y-57800000D01*
X35957143Y-57800000D01*
X36071429Y-57857143D01*
X36128572Y-57914286D01*
X36185715Y-58028571D01*
X36185715Y-58314286D01*
X36128572Y-58428571D01*
X36071429Y-58485714D01*
X35957143Y-58542857D01*
X35614286Y-58542857D01*
X35500000Y-58485714D01*
X35442858Y-58428571D01*
X36528572Y-57342857D02*
X36928572Y-58542857D01*
X37328572Y-57342857D01*
X40742857Y-56414286D02*
X41142857Y-56414286D01*
X41314286Y-57042857D02*
X40742857Y-57042857D01*
X40742857Y-55842857D01*
X41314286Y-55842857D01*
X40685714Y-55542857D02*
X40685714Y-54342857D01*
X40971429Y-54342857D01*
X41142857Y-54400000D01*
X41257143Y-54514286D01*
X41314286Y-54628571D01*
X41371429Y-54857143D01*
X41371429Y-55028571D01*
X41314286Y-55257143D01*
X41257143Y-55371429D01*
X41142857Y-55485714D01*
X40971429Y-55542857D01*
X40685714Y-55542857D01*
X41371429Y-53928571D02*
X41314286Y-53985714D01*
X41142857Y-54042857D01*
X41028571Y-54042857D01*
X40857143Y-53985714D01*
X40742857Y-53871429D01*
X40685714Y-53757143D01*
X40628571Y-53528571D01*
X40628571Y-53357143D01*
X40685714Y-53128571D01*
X40742857Y-53014286D01*
X40857143Y-52900000D01*
X41028571Y-52842857D01*
X41142857Y-52842857D01*
X41314286Y-52900000D01*
X41371429Y-52957143D01*
X41085714Y-51914286D02*
X41257143Y-51971429D01*
X41314286Y-52028571D01*
X41371429Y-52142857D01*
X41371429Y-52314286D01*
X41314286Y-52428571D01*
X41257143Y-52485714D01*
X41142857Y-52542857D01*
X40685714Y-52542857D01*
X40685714Y-51342857D01*
X41085714Y-51342857D01*
X41200000Y-51400000D01*
X41257143Y-51457143D01*
X41314286Y-51571429D01*
X41314286Y-51685714D01*
X41257143Y-51800000D01*
X41200000Y-51857143D01*
X41085714Y-51914286D01*
X40685714Y-51914286D01*
X40714286Y-50700000D02*
X41285715Y-50700000D01*
X40600001Y-51042857D02*
X41000001Y-49842857D01*
X41400001Y-51042857D01*
D15*
X58833333Y-50809524D02*
X59119048Y-50904762D01*
X59595238Y-50904762D01*
X59785714Y-50809524D01*
X59880952Y-50714286D01*
X59976191Y-50523810D01*
X59976191Y-50333333D01*
X59880952Y-50142857D01*
X59785714Y-50047619D01*
X59595238Y-49952381D01*
X59214286Y-49857143D01*
X59023810Y-49761905D01*
X58928571Y-49666667D01*
X58833333Y-49476190D01*
X58833333Y-49285714D01*
X58928571Y-49095238D01*
X59023810Y-49000000D01*
X59214286Y-48904762D01*
X59690476Y-48904762D01*
X59976191Y-49000000D01*
X60642857Y-48904762D02*
X61119048Y-50904762D01*
X61500000Y-49476190D01*
X61880953Y-50904762D01*
X62357143Y-48904762D01*
X63023809Y-49095238D02*
X63119047Y-49000000D01*
X63309524Y-48904762D01*
X63785714Y-48904762D01*
X63976190Y-49000000D01*
X64071428Y-49095238D01*
X64166667Y-49285714D01*
X64166667Y-49476190D01*
X64071428Y-49761905D01*
X62928571Y-50904762D01*
X64166667Y-50904762D01*
X58833333Y-55309524D02*
X59119048Y-55404762D01*
X59595238Y-55404762D01*
X59785714Y-55309524D01*
X59880952Y-55214286D01*
X59976191Y-55023810D01*
X59976191Y-54833333D01*
X59880952Y-54642857D01*
X59785714Y-54547619D01*
X59595238Y-54452381D01*
X59214286Y-54357143D01*
X59023810Y-54261905D01*
X58928571Y-54166667D01*
X58833333Y-53976190D01*
X58833333Y-53785714D01*
X58928571Y-53595238D01*
X59023810Y-53500000D01*
X59214286Y-53404762D01*
X59690476Y-53404762D01*
X59976191Y-53500000D01*
X60642857Y-53404762D02*
X61119048Y-55404762D01*
X61500000Y-53976190D01*
X61880953Y-55404762D01*
X62357143Y-53404762D01*
X64166667Y-55404762D02*
X63023809Y-55404762D01*
X63595238Y-55404762D02*
X63595238Y-53404762D01*
X63404762Y-53690476D01*
X63214286Y-53880952D01*
X63023809Y-53976190D01*
X1714286Y-44714286D02*
X1619048Y-44809524D01*
X1333333Y-44904762D01*
X1142857Y-44904762D01*
X857143Y-44809524D01*
X666667Y-44619048D01*
X571428Y-44428571D01*
X476190Y-44047619D01*
X476190Y-43761905D01*
X571428Y-43380952D01*
X666667Y-43190476D01*
X857143Y-43000000D01*
X1142857Y-42904762D01*
X1333333Y-42904762D01*
X1619048Y-43000000D01*
X1714286Y-43095238D01*
X2476190Y-44333333D02*
X3428571Y-44333333D01*
X2285714Y-44904762D02*
X2952381Y-42904762D01*
X3619048Y-44904762D01*
X4285714Y-44904762D02*
X4285714Y-42904762D01*
X5428572Y-44904762D01*
X5428572Y-42904762D01*
X14250000Y-69607143D02*
X14178571Y-69750000D01*
X14178571Y-69964286D01*
X14250000Y-70178571D01*
X14392857Y-70321429D01*
X14535714Y-70392857D01*
X14821429Y-70464286D01*
X15035714Y-70464286D01*
X15321429Y-70392857D01*
X15464286Y-70321429D01*
X15607143Y-70178571D01*
X15678571Y-69964286D01*
X15678571Y-69821429D01*
X15607143Y-69607143D01*
X15535714Y-69535714D01*
X15035714Y-69535714D01*
X15035714Y-69821429D01*
X19250000Y-69607143D02*
X19178571Y-69750000D01*
X19178571Y-69964286D01*
X19250000Y-70178571D01*
X19392857Y-70321429D01*
X19535714Y-70392857D01*
X19821429Y-70464286D01*
X20035714Y-70464286D01*
X20321429Y-70392857D01*
X20464286Y-70321429D01*
X20607143Y-70178571D01*
X20678571Y-69964286D01*
X20678571Y-69821429D01*
X20607143Y-69607143D01*
X20535714Y-69535714D01*
X20035714Y-69535714D01*
X20035714Y-69821429D01*
X39250000Y-69607143D02*
X39178571Y-69750000D01*
X39178571Y-69964286D01*
X39250000Y-70178571D01*
X39392857Y-70321429D01*
X39535714Y-70392857D01*
X39821429Y-70464286D01*
X40035714Y-70464286D01*
X40321429Y-70392857D01*
X40464286Y-70321429D01*
X40607143Y-70178571D01*
X40678571Y-69964286D01*
X40678571Y-69821429D01*
X40607143Y-69607143D01*
X40535714Y-69535714D01*
X40035714Y-69535714D01*
X40035714Y-69821429D01*
X44250000Y-69607143D02*
X44178571Y-69750000D01*
X44178571Y-69964286D01*
X44250000Y-70178571D01*
X44392857Y-70321429D01*
X44535714Y-70392857D01*
X44821429Y-70464286D01*
X45035714Y-70464286D01*
X45321429Y-70392857D01*
X45464286Y-70321429D01*
X45607143Y-70178571D01*
X45678571Y-69964286D01*
X45678571Y-69821429D01*
X45607143Y-69607143D01*
X45535714Y-69535714D01*
X45035714Y-69535714D01*
X45035714Y-69821429D01*
X48178571Y-69571428D02*
X48178571Y-70428571D01*
X48178571Y-69999999D02*
X46678571Y-69999999D01*
X46892857Y-70142856D01*
X47035714Y-70285714D01*
X47107143Y-70428571D01*
X41678571Y-70071428D02*
X41678571Y-69928571D01*
X41750000Y-69785714D01*
X41821429Y-69714285D01*
X41964286Y-69642856D01*
X42250000Y-69571428D01*
X42607143Y-69571428D01*
X42892857Y-69642856D01*
X43035714Y-69714285D01*
X43107143Y-69785714D01*
X43178571Y-69928571D01*
X43178571Y-70071428D01*
X43107143Y-70214285D01*
X43035714Y-70285714D01*
X42892857Y-70357142D01*
X42607143Y-70428571D01*
X42250000Y-70428571D01*
X41964286Y-70357142D01*
X41821429Y-70285714D01*
X41750000Y-70214285D01*
X41678571Y-70071428D01*
X16678571Y-70071428D02*
X16678571Y-69928571D01*
X16750000Y-69785714D01*
X16821429Y-69714285D01*
X16964286Y-69642856D01*
X17250000Y-69571428D01*
X17607143Y-69571428D01*
X17892857Y-69642856D01*
X18035714Y-69714285D01*
X18107143Y-69785714D01*
X18178571Y-69928571D01*
X18178571Y-70071428D01*
X18107143Y-70214285D01*
X18035714Y-70285714D01*
X17892857Y-70357142D01*
X17607143Y-70428571D01*
X17250000Y-70428571D01*
X16964286Y-70357142D01*
X16821429Y-70285714D01*
X16750000Y-70214285D01*
X16678571Y-70071428D01*
X23178571Y-69571428D02*
X23178571Y-70428571D01*
X23178571Y-69999999D02*
X21678571Y-69999999D01*
X21892857Y-70142856D01*
X22035714Y-70285714D01*
X22107143Y-70428571D01*
X43500000Y-68178571D02*
X42785714Y-68178571D01*
X42785714Y-66678571D01*
X44000000Y-68178571D02*
X44000000Y-66678571D01*
X44714286Y-68178571D02*
X44714286Y-66678571D01*
X45214286Y-67750000D01*
X45714286Y-66678571D01*
X45714286Y-68178571D01*
X46428572Y-68178571D02*
X46428572Y-66678571D01*
X46928572Y-66678571D02*
X47785715Y-66678571D01*
X47357144Y-68178571D02*
X47357144Y-66678571D01*
X47928572Y-68321429D02*
X49071429Y-68321429D01*
X49928572Y-67392857D02*
X50142858Y-67464286D01*
X50214286Y-67535714D01*
X50285715Y-67678571D01*
X50285715Y-67892857D01*
X50214286Y-68035714D01*
X50142858Y-68107143D01*
X50000000Y-68178571D01*
X49428572Y-68178571D01*
X49428572Y-66678571D01*
X49928572Y-66678571D01*
X50071429Y-66750000D01*
X50142858Y-66821429D01*
X50214286Y-66964286D01*
X50214286Y-67107143D01*
X50142858Y-67250000D01*
X50071429Y-67321429D01*
X49928572Y-67392857D01*
X49428572Y-67392857D01*
X11678571Y-79892857D02*
X11678571Y-80607143D01*
X10178571Y-80607143D01*
X11678571Y-79392857D02*
X10178571Y-79392857D01*
X11678571Y-78678571D02*
X10178571Y-78678571D01*
X11250000Y-78178571D01*
X10178571Y-77678571D01*
X11678571Y-77678571D01*
X11678571Y-76964285D02*
X10178571Y-76964285D01*
X10178571Y-76464285D02*
X10178571Y-75607142D01*
X11678571Y-76035713D02*
X10178571Y-76035713D01*
X11821429Y-75464285D02*
X11821429Y-74321428D01*
X11250000Y-74035714D02*
X11250000Y-73321428D01*
X11678571Y-74178571D02*
X10178571Y-73678571D01*
X11678571Y-73178571D01*
X52261904Y-64857143D02*
X52928571Y-64857143D01*
X53214285Y-65904762D02*
X52261904Y-65904762D01*
X52261904Y-63904762D01*
X53214285Y-63904762D01*
X54071428Y-65904762D02*
X54071428Y-63904762D01*
X55214286Y-65904762D01*
X55214286Y-63904762D01*
X57309524Y-65714286D02*
X57214286Y-65809524D01*
X56928571Y-65904762D01*
X56738095Y-65904762D01*
X56452381Y-65809524D01*
X56261905Y-65619048D01*
X56166666Y-65428571D01*
X56071428Y-65047619D01*
X56071428Y-64761905D01*
X56166666Y-64380952D01*
X56261905Y-64190476D01*
X56452381Y-64000000D01*
X56738095Y-63904762D01*
X56928571Y-63904762D01*
X57214286Y-64000000D01*
X57309524Y-64095238D01*
X57690476Y-66095238D02*
X59214286Y-66095238D01*
X60357143Y-64857143D02*
X60642857Y-64952381D01*
X60738096Y-65047619D01*
X60833334Y-65238095D01*
X60833334Y-65523810D01*
X60738096Y-65714286D01*
X60642857Y-65809524D01*
X60452381Y-65904762D01*
X59690476Y-65904762D01*
X59690476Y-63904762D01*
X60357143Y-63904762D01*
X60547619Y-64000000D01*
X60642857Y-64095238D01*
X60738096Y-64285714D01*
X60738096Y-64476190D01*
X60642857Y-64666667D01*
X60547619Y-64761905D01*
X60357143Y-64857143D01*
X59690476Y-64857143D01*
X27404761Y-64857143D02*
X28071428Y-64857143D01*
X28357142Y-65904762D02*
X27404761Y-65904762D01*
X27404761Y-63904762D01*
X28357142Y-63904762D01*
X29214285Y-65904762D02*
X29214285Y-63904762D01*
X30357143Y-65904762D01*
X30357143Y-63904762D01*
X32452381Y-65714286D02*
X32357143Y-65809524D01*
X32071428Y-65904762D01*
X31880952Y-65904762D01*
X31595238Y-65809524D01*
X31404762Y-65619048D01*
X31309523Y-65428571D01*
X31214285Y-65047619D01*
X31214285Y-64761905D01*
X31309523Y-64380952D01*
X31404762Y-64190476D01*
X31595238Y-64000000D01*
X31880952Y-63904762D01*
X32071428Y-63904762D01*
X32357143Y-64000000D01*
X32452381Y-64095238D01*
X32833333Y-66095238D02*
X34357143Y-66095238D01*
X34738095Y-65333333D02*
X35690476Y-65333333D01*
X34547619Y-65904762D02*
X35214286Y-63904762D01*
X35880953Y-65904762D01*
D12*
X64175000Y-12149000D02*
X64175000Y-5851000D01*
X64035000Y-12143000D02*
X64035000Y-5857000D01*
X63895000Y-12130000D02*
X63895000Y-9446000D01*
X63895000Y-8554000D02*
X63895000Y-5870000D01*
X63755000Y-12111000D02*
X63755000Y-9656000D01*
X63755000Y-8344000D02*
X63755000Y-5889000D01*
X63615000Y-12085000D02*
X63615000Y-9789000D01*
X63615000Y-8211000D02*
X63615000Y-5915000D01*
X63475000Y-12053000D02*
X63475000Y-9880000D01*
X63475000Y-8120000D02*
X63475000Y-5947000D01*
X63335000Y-12014000D02*
X63335000Y-9942000D01*
X63335000Y-8058000D02*
X63335000Y-5986000D01*
X63195000Y-11968000D02*
X63195000Y-9981000D01*
X63195000Y-8019000D02*
X63195000Y-6032000D01*
X63055000Y-11915000D02*
X63055000Y-9998000D01*
X63055000Y-8002000D02*
X63055000Y-6085000D01*
X62915000Y-11853000D02*
X62915000Y-9996000D01*
X62915000Y-8004000D02*
X62915000Y-6147000D01*
X62775000Y-11783000D02*
X62775000Y-9974000D01*
X62775000Y-8026000D02*
X62775000Y-6217000D01*
X62635000Y-11704000D02*
X62635000Y-9931000D01*
X62635000Y-8069000D02*
X62635000Y-6296000D01*
X62495000Y-11616000D02*
X62495000Y-9863000D01*
X62495000Y-8137000D02*
X62495000Y-6384000D01*
X62355000Y-11516000D02*
X62355000Y-9764000D01*
X62355000Y-8236000D02*
X62355000Y-6484000D01*
X62215000Y-11404000D02*
X62215000Y-9619000D01*
X62215000Y-8381000D02*
X62215000Y-6596000D01*
X62075000Y-11279000D02*
X62075000Y-9380000D01*
X62075000Y-8620000D02*
X62075000Y-6721000D01*
X61935000Y-11136000D02*
X61935000Y-6864000D01*
X61795000Y-10974000D02*
X61795000Y-7026000D01*
X61655000Y-10786000D02*
X61655000Y-7214000D01*
X61515000Y-10563000D02*
X61515000Y-7437000D01*
X61375000Y-10287000D02*
X61375000Y-7713000D01*
X61235000Y-9912000D02*
X61235000Y-8088000D01*
X64000000Y-9000000D02*
G75*
G03X64000000Y-9000000I-1000000J0D01*
G01*
X67437500Y-9000000D02*
G75*
G03X67437500Y-9000000I-3187500J0D01*
G01*
D11*
X62500000Y-81200000D02*
X50000000Y-81200000D01*
X62500000Y-68600000D02*
X62500000Y-81200000D01*
X61500000Y-72100000D02*
X61500000Y-68600000D01*
X61500000Y-68600000D02*
X62500000Y-68600000D01*
X50000000Y-72100000D02*
X62500000Y-72100000D01*
X58000000Y-74400000D02*
X58000000Y-79000000D01*
X58000000Y-74400000D02*
X62500000Y-74400000D01*
X54500000Y-79000000D02*
X54500000Y-74400000D01*
X54500000Y-74400000D02*
X50000000Y-74400000D01*
X50000000Y-79000000D02*
X62500000Y-79000000D01*
X50000000Y-68600000D02*
X50000000Y-81200000D01*
X50000000Y-68600000D02*
X51000000Y-68600000D01*
X51000000Y-68600000D02*
X51000000Y-72100000D01*
X25000000Y-81200000D02*
X12500000Y-81200000D01*
X25000000Y-68600000D02*
X25000000Y-81200000D01*
X24000000Y-72100000D02*
X24000000Y-68600000D01*
X24000000Y-68600000D02*
X25000000Y-68600000D01*
X12500000Y-72100000D02*
X25000000Y-72100000D01*
X20500000Y-74400000D02*
X20500000Y-79000000D01*
X20500000Y-74400000D02*
X25000000Y-74400000D01*
X17000000Y-79000000D02*
X17000000Y-74400000D01*
X17000000Y-74400000D02*
X12500000Y-74400000D01*
X12500000Y-79000000D02*
X25000000Y-79000000D01*
X12500000Y-68600000D02*
X12500000Y-81200000D01*
X12500000Y-68600000D02*
X13500000Y-68600000D01*
X13500000Y-68600000D02*
X13500000Y-72100000D01*
X-200000Y-70500000D02*
X-200000Y-58000000D01*
X12400000Y-70500000D02*
X-200000Y-70500000D01*
X8900000Y-69500000D02*
X12400000Y-69500000D01*
X12400000Y-69500000D02*
X12400000Y-70500000D01*
X8900000Y-58000000D02*
X8900000Y-70500000D01*
X6600000Y-66000000D02*
X2000000Y-66000000D01*
X6600000Y-66000000D02*
X6600000Y-70500000D01*
X2000000Y-62500000D02*
X6600000Y-62500000D01*
X6600000Y-62500000D02*
X6600000Y-58000000D01*
X2000000Y-58000000D02*
X2000000Y-70500000D01*
X12400000Y-58000000D02*
X-200000Y-58000000D01*
X12400000Y-58000000D02*
X12400000Y-59000000D01*
X12400000Y-59000000D02*
X8900000Y-59000000D01*
D12*
X6425000Y-39750000D02*
X6425000Y-27250000D01*
X6285000Y-39746000D02*
X6285000Y-27254000D01*
X6145000Y-39740000D02*
X6145000Y-27260000D01*
X6005000Y-39730000D02*
X6005000Y-27270000D01*
X5865000Y-39718000D02*
X5865000Y-27282000D01*
X5725000Y-39702000D02*
X5725000Y-27298000D01*
X5585000Y-39683000D02*
X5585000Y-27317000D01*
X5445000Y-39660000D02*
X5445000Y-27340000D01*
X5305000Y-39635000D02*
X5305000Y-27365000D01*
X5165000Y-39606000D02*
X5165000Y-27394000D01*
X5025000Y-39573000D02*
X5025000Y-34021000D01*
X5025000Y-32979000D02*
X5025000Y-27427000D01*
X4885000Y-39538000D02*
X4885000Y-34234000D01*
X4885000Y-32766000D02*
X4885000Y-27462000D01*
X4745000Y-39499000D02*
X4745000Y-34376000D01*
X4745000Y-32624000D02*
X4745000Y-27501000D01*
X4605000Y-39456000D02*
X4605000Y-34478000D01*
X4605000Y-32522000D02*
X4605000Y-27544000D01*
X4465000Y-39409000D02*
X4465000Y-34552000D01*
X4465000Y-32448000D02*
X4465000Y-27591000D01*
X4325000Y-39359000D02*
X4325000Y-34603000D01*
X4325000Y-32397000D02*
X4325000Y-27641000D01*
X4185000Y-39305000D02*
X4185000Y-34635000D01*
X4185000Y-32365000D02*
X4185000Y-27695000D01*
X4045000Y-39248000D02*
X4045000Y-34649000D01*
X4045000Y-32351000D02*
X4045000Y-27752000D01*
X3905000Y-39186000D02*
X3905000Y-34646000D01*
X3905000Y-32354000D02*
X3905000Y-27814000D01*
X3765000Y-39120000D02*
X3765000Y-34626000D01*
X3765000Y-32374000D02*
X3765000Y-27880000D01*
X3625000Y-39049000D02*
X3625000Y-34587000D01*
X3625000Y-32413000D02*
X3625000Y-27951000D01*
X3485000Y-38975000D02*
X3485000Y-34528000D01*
X3485000Y-32472000D02*
X3485000Y-28025000D01*
X3345000Y-38895000D02*
X3345000Y-34445000D01*
X3345000Y-32555000D02*
X3345000Y-28105000D01*
X3205000Y-38811000D02*
X3205000Y-34331000D01*
X3205000Y-32669000D02*
X3205000Y-28189000D01*
X3065000Y-38721000D02*
X3065000Y-34170000D01*
X3065000Y-32830000D02*
X3065000Y-28279000D01*
X2925000Y-38627000D02*
X2925000Y-33909000D01*
X2925000Y-33091000D02*
X2925000Y-28373000D01*
X2785000Y-38526000D02*
X2785000Y-28474000D01*
X2645000Y-38419000D02*
X2645000Y-28581000D01*
X2505000Y-38307000D02*
X2505000Y-28693000D01*
X2365000Y-38187000D02*
X2365000Y-28813000D01*
X2225000Y-38059000D02*
X2225000Y-28941000D01*
X2085000Y-37924000D02*
X2085000Y-29076000D01*
X1945000Y-37780000D02*
X1945000Y-29220000D01*
X1805000Y-37625000D02*
X1805000Y-29375000D01*
X1665000Y-37460000D02*
X1665000Y-29540000D01*
X1525000Y-37283000D02*
X1525000Y-29717000D01*
X1385000Y-37092000D02*
X1385000Y-29908000D01*
X1245000Y-36883000D02*
X1245000Y-30117000D01*
X1105000Y-36655000D02*
X1105000Y-30345000D01*
X965000Y-36403000D02*
X965000Y-30597000D01*
X825000Y-36119000D02*
X825000Y-30881000D01*
X685000Y-35791000D02*
X685000Y-31209000D01*
X545000Y-35397000D02*
X545000Y-31603000D01*
X405000Y-34883000D02*
X405000Y-32117000D01*
X265000Y-33933000D02*
X265000Y-33067000D01*
X5150000Y-33500000D02*
G75*
G03X5150000Y-33500000I-1150000J0D01*
G01*
X12787500Y-33500000D02*
G75*
G03X12787500Y-33500000I-6287500J0D01*
G01*
X24925000Y-45075000D02*
X25030000Y-45075000D01*
X24925000Y-40925000D02*
X25030000Y-40925000D01*
X35075000Y-40925000D02*
X34970000Y-40925000D01*
X35075000Y-45075000D02*
X34970000Y-45075000D01*
X24925000Y-45075000D02*
X24925000Y-40925000D01*
X35075000Y-45075000D02*
X35075000Y-40925000D01*
X25030000Y-45075000D02*
X25030000Y-46450000D01*
X43373476Y-58500000D02*
X43744707Y-58871231D01*
X48500000Y-53373476D02*
X48871231Y-53744707D01*
X53626524Y-58500000D02*
X53255293Y-58128769D01*
X48500000Y-63626524D02*
X48128769Y-63255293D01*
X43373476Y-58500000D02*
X43744707Y-58128769D01*
X48500000Y-63626524D02*
X48871231Y-63255293D01*
X53626524Y-58500000D02*
X53255293Y-58871231D01*
X48500000Y-53373476D02*
X48128769Y-53744707D01*
X43744707Y-58871231D02*
X42772435Y-59843503D01*
X19649000Y-51325000D02*
X13351000Y-51325000D01*
X19643000Y-51465000D02*
X13357000Y-51465000D01*
X19630000Y-51605000D02*
X16946000Y-51605000D01*
X16054000Y-51605000D02*
X13370000Y-51605000D01*
X19611000Y-51745000D02*
X17156000Y-51745000D01*
X15844000Y-51745000D02*
X13389000Y-51745000D01*
X19585000Y-51885000D02*
X17289000Y-51885000D01*
X15711000Y-51885000D02*
X13415000Y-51885000D01*
X19553000Y-52025000D02*
X17380000Y-52025000D01*
X15620000Y-52025000D02*
X13447000Y-52025000D01*
X19514000Y-52165000D02*
X17442000Y-52165000D01*
X15558000Y-52165000D02*
X13486000Y-52165000D01*
X19468000Y-52305000D02*
X17481000Y-52305000D01*
X15519000Y-52305000D02*
X13532000Y-52305000D01*
X19415000Y-52445000D02*
X17498000Y-52445000D01*
X15502000Y-52445000D02*
X13585000Y-52445000D01*
X19353000Y-52585000D02*
X17496000Y-52585000D01*
X15504000Y-52585000D02*
X13647000Y-52585000D01*
X19283000Y-52725000D02*
X17474000Y-52725000D01*
X15526000Y-52725000D02*
X13717000Y-52725000D01*
X19204000Y-52865000D02*
X17431000Y-52865000D01*
X15569000Y-52865000D02*
X13796000Y-52865000D01*
X19116000Y-53005000D02*
X17363000Y-53005000D01*
X15637000Y-53005000D02*
X13884000Y-53005000D01*
X19016000Y-53145000D02*
X17264000Y-53145000D01*
X15736000Y-53145000D02*
X13984000Y-53145000D01*
X18904000Y-53285000D02*
X17119000Y-53285000D01*
X15881000Y-53285000D02*
X14096000Y-53285000D01*
X18779000Y-53425000D02*
X16880000Y-53425000D01*
X16120000Y-53425000D02*
X14221000Y-53425000D01*
X18636000Y-53565000D02*
X14364000Y-53565000D01*
X18474000Y-53705000D02*
X14526000Y-53705000D01*
X18286000Y-53845000D02*
X14714000Y-53845000D01*
X18063000Y-53985000D02*
X14937000Y-53985000D01*
X17787000Y-54125000D02*
X15213000Y-54125000D01*
X17412000Y-54265000D02*
X15588000Y-54265000D01*
X17500000Y-52500000D02*
G75*
G03X17500000Y-52500000I-1000000J0D01*
G01*
X19687500Y-51250000D02*
G75*
G03X19687500Y-51250000I-3187500J0D01*
G01*
X2770000Y-71230000D02*
X5310000Y-71230000D01*
X-50000Y-70950000D02*
X1500000Y-70950000D01*
X2770000Y-71230000D02*
X2770000Y-73770000D01*
X1500000Y-74050000D02*
X-50000Y-74050000D01*
X-50000Y-74050000D02*
X-50000Y-70950000D01*
X2770000Y-73770000D02*
X5310000Y-73770000D01*
X5310000Y-73770000D02*
X5310000Y-71230000D01*
X12925000Y-45075000D02*
X13030000Y-45075000D01*
X12925000Y-40925000D02*
X13030000Y-40925000D01*
X23075000Y-40925000D02*
X22970000Y-40925000D01*
X23075000Y-45075000D02*
X22970000Y-45075000D01*
X12925000Y-45075000D02*
X12925000Y-40925000D01*
X23075000Y-45075000D02*
X23075000Y-40925000D01*
X13030000Y-45075000D02*
X13030000Y-46450000D01*
X48925000Y-45075000D02*
X49030000Y-45075000D01*
X48925000Y-40925000D02*
X49030000Y-40925000D01*
X59075000Y-40925000D02*
X58970000Y-40925000D01*
X59075000Y-45075000D02*
X58970000Y-45075000D01*
X48925000Y-45075000D02*
X48925000Y-40925000D01*
X59075000Y-45075000D02*
X59075000Y-40925000D01*
X49030000Y-45075000D02*
X49030000Y-46450000D01*
X36925000Y-45075000D02*
X37030000Y-45075000D01*
X36925000Y-40925000D02*
X37030000Y-40925000D01*
X47075000Y-40925000D02*
X46970000Y-40925000D01*
X47075000Y-45075000D02*
X46970000Y-45075000D01*
X36925000Y-45075000D02*
X36925000Y-40925000D01*
X47075000Y-45075000D02*
X47075000Y-40925000D01*
X37030000Y-45075000D02*
X37030000Y-46450000D01*
D11*
X70000000Y-71700000D02*
X67000000Y-71700000D01*
X67000000Y-71700000D02*
X67000000Y-73300000D01*
X67000000Y-73300000D02*
X70000000Y-73300000D01*
X70000000Y-73300000D02*
X70000000Y-71700000D01*
X71500000Y-70700000D02*
X65500000Y-70700000D01*
X65500000Y-70700000D02*
X65500000Y-74300000D01*
X65500000Y-74300000D02*
X71500000Y-74300000D01*
X71500000Y-74300000D02*
X71500000Y-70700000D01*
X70000000Y-53700000D02*
X67000000Y-53700000D01*
X67000000Y-53700000D02*
X67000000Y-55300000D01*
X67000000Y-55300000D02*
X70000000Y-55300000D01*
X70000000Y-55300000D02*
X70000000Y-53700000D01*
X71500000Y-52700000D02*
X65500000Y-52700000D01*
X65500000Y-52700000D02*
X65500000Y-56300000D01*
X65500000Y-56300000D02*
X71500000Y-56300000D01*
X71500000Y-56300000D02*
X71500000Y-52700000D01*
X70000000Y-49200000D02*
X67000000Y-49200000D01*
X67000000Y-49200000D02*
X67000000Y-50800000D01*
X67000000Y-50800000D02*
X70000000Y-50800000D01*
X70000000Y-50800000D02*
X70000000Y-49200000D01*
X71500000Y-48200000D02*
X65500000Y-48200000D01*
X65500000Y-48200000D02*
X65500000Y-51800000D01*
X65500000Y-51800000D02*
X71500000Y-51800000D01*
X71500000Y-51800000D02*
X71500000Y-48200000D01*
X73000000Y-70550000D02*
X62500000Y-70550000D01*
X62500000Y-70550000D02*
X62500000Y-67050000D01*
X62500000Y-67050000D02*
X73000000Y-67050000D01*
X73000000Y-67050000D02*
X73000000Y-70550000D01*
X69900000Y-62000000D02*
G75*
G03X69900000Y-62000000I-1900000J0D01*
G01*
X68600000Y-63800000D02*
X68600000Y-60300000D01*
X67400000Y-63800000D02*
X67400000Y-60200000D01*
X63000000Y-67000000D02*
X63000000Y-57000000D01*
X63000000Y-57000000D02*
X73000000Y-57000000D01*
X73000000Y-57000000D02*
X73000000Y-67000000D01*
X73000000Y-67000000D02*
X63000000Y-67000000D01*
X37600862Y-62863604D02*
X41136396Y-66399138D01*
X39863604Y-60600862D02*
X43399138Y-64136396D01*
X-200000Y-58000000D02*
X-200000Y-45500000D01*
X12400000Y-58000000D02*
X-200000Y-58000000D01*
X8900000Y-57000000D02*
X12400000Y-57000000D01*
X12400000Y-57000000D02*
X12400000Y-58000000D01*
X8900000Y-45500000D02*
X8900000Y-58000000D01*
X6600000Y-53500000D02*
X2000000Y-53500000D01*
X6600000Y-53500000D02*
X6600000Y-58000000D01*
X2000000Y-50000000D02*
X6600000Y-50000000D01*
X6600000Y-50000000D02*
X6600000Y-45500000D01*
X2000000Y-45500000D02*
X2000000Y-58000000D01*
X12400000Y-45500000D02*
X-200000Y-45500000D01*
X12400000Y-45500000D02*
X12400000Y-46500000D01*
X12400000Y-46500000D02*
X8900000Y-46500000D01*
D10*
X12500000Y-18300000D02*
X6700000Y-18300000D01*
X1000000Y-17600000D02*
X6000000Y-17600000D01*
X900000Y-10400000D02*
X6000000Y-10400000D01*
X12500000Y-9700000D02*
X6700000Y-9700000D01*
X12500000Y-10200000D02*
X7000000Y-10200000D01*
X13500000Y-16800000D02*
X13500000Y-11200000D01*
X7000000Y-17800000D02*
X12500000Y-17800000D01*
X1000000Y-17100000D02*
X6300000Y-17100000D01*
X1000000Y-10900000D02*
X6300000Y-10900000D01*
X0Y-16100000D02*
X0Y-11900000D01*
X0Y-16100000D02*
G75*
G03X1000000Y-17100000I1000000J0D01*
G01*
X1000000Y-10900000D02*
G75*
G03X0Y-11900000I0J-1000000D01*
G01*
X12500000Y-17800000D02*
G75*
G03X13500000Y-16800000I0J1000000D01*
G01*
X13500000Y-11200000D02*
G75*
G03X12500000Y-10200000I-1000000J0D01*
G01*
X6700000Y-9700000D02*
X6000000Y-10400000D01*
X6700000Y-18300000D02*
X6000000Y-17600000D01*
X7000000Y-17800000D02*
X6300000Y-17100000D01*
X7000000Y-10200000D02*
X6300000Y-10900000D01*
D14*
X15500000Y-60700000D02*
X18600000Y-60700000D01*
X15500000Y-67300000D02*
X18600000Y-67300000D01*
X18600000Y-67300000D02*
X18600000Y-60700000D01*
X15500000Y-67300000D02*
X15500000Y-60700000D01*
D11*
X37500000Y-81200000D02*
X25000000Y-81200000D01*
X37500000Y-68600000D02*
X37500000Y-81200000D01*
X36500000Y-72100000D02*
X36500000Y-68600000D01*
X36500000Y-68600000D02*
X37500000Y-68600000D01*
X25000000Y-72100000D02*
X37500000Y-72100000D01*
X33000000Y-74400000D02*
X33000000Y-79000000D01*
X33000000Y-74400000D02*
X37500000Y-74400000D01*
X29500000Y-79000000D02*
X29500000Y-74400000D01*
X29500000Y-74400000D02*
X25000000Y-74400000D01*
X25000000Y-79000000D02*
X37500000Y-79000000D01*
X25000000Y-68600000D02*
X25000000Y-81200000D01*
X25000000Y-68600000D02*
X26000000Y-68600000D01*
X26000000Y-68600000D02*
X26000000Y-72100000D01*
D12*
X71325000Y-38625000D02*
X70970000Y-38625000D01*
X71325000Y-46375000D02*
X70970000Y-46375000D01*
X60675000Y-46375000D02*
X61030000Y-46375000D01*
X60675000Y-38625000D02*
X61030000Y-38625000D01*
X71325000Y-38625000D02*
X71325000Y-46375000D01*
X60675000Y-38625000D02*
X60675000Y-46375000D01*
X70970000Y-38625000D02*
X70970000Y-37100000D01*
X45925000Y-4925000D02*
X45925000Y-5070000D01*
X50075000Y-4925000D02*
X50075000Y-5070000D01*
X50075000Y-10075000D02*
X50075000Y-9930000D01*
X45925000Y-10075000D02*
X45925000Y-9930000D01*
X45925000Y-4925000D02*
X50075000Y-4925000D01*
X45925000Y-10075000D02*
X50075000Y-10075000D01*
X45925000Y-5070000D02*
X44525000Y-5070000D01*
X21925000Y-4925000D02*
X21925000Y-5070000D01*
X26075000Y-4925000D02*
X26075000Y-5070000D01*
X26075000Y-10075000D02*
X26075000Y-9930000D01*
X21925000Y-10075000D02*
X21925000Y-9930000D01*
X21925000Y-4925000D02*
X26075000Y-4925000D01*
X21925000Y-10075000D02*
X26075000Y-10075000D01*
X21925000Y-5070000D02*
X20525000Y-5070000D01*
D11*
X50000000Y-81200000D02*
X37500000Y-81200000D01*
X50000000Y-68600000D02*
X50000000Y-81200000D01*
X49000000Y-72100000D02*
X49000000Y-68600000D01*
X49000000Y-68600000D02*
X50000000Y-68600000D01*
X37500000Y-72100000D02*
X50000000Y-72100000D01*
X45500000Y-74400000D02*
X45500000Y-79000000D01*
X45500000Y-74400000D02*
X50000000Y-74400000D01*
X42000000Y-79000000D02*
X42000000Y-74400000D01*
X42000000Y-74400000D02*
X37500000Y-74400000D01*
X37500000Y-79000000D02*
X50000000Y-79000000D01*
X37500000Y-68600000D02*
X37500000Y-81200000D01*
X37500000Y-68600000D02*
X38500000Y-68600000D01*
X38500000Y-68600000D02*
X38500000Y-72100000D01*
D10*
X12500000Y-26800000D02*
X6700000Y-26800000D01*
X1000000Y-26100000D02*
X6000000Y-26100000D01*
X900000Y-18900000D02*
X6000000Y-18900000D01*
X12500000Y-18200000D02*
X6700000Y-18200000D01*
X12500000Y-18700000D02*
X7000000Y-18700000D01*
X13500000Y-25300000D02*
X13500000Y-19700000D01*
X7000000Y-26300000D02*
X12500000Y-26300000D01*
X1000000Y-25600000D02*
X6300000Y-25600000D01*
X1000000Y-19400000D02*
X6300000Y-19400000D01*
X0Y-24600000D02*
X0Y-20400000D01*
X0Y-24600000D02*
G75*
G03X1000000Y-25600000I1000000J0D01*
G01*
X1000000Y-19400000D02*
G75*
G03X0Y-20400000I0J-1000000D01*
G01*
X12500000Y-26300000D02*
G75*
G03X13500000Y-25300000I0J1000000D01*
G01*
X13500000Y-19700000D02*
G75*
G03X12500000Y-18700000I-1000000J0D01*
G01*
X6700000Y-18200000D02*
X6000000Y-18900000D01*
X6700000Y-26800000D02*
X6000000Y-26100000D01*
X7000000Y-26300000D02*
X6300000Y-25600000D01*
X7000000Y-18700000D02*
X6300000Y-19400000D01*
D12*
X64032000Y-1460000D02*
X59968000Y-1460000D01*
X64032000Y-5540000D02*
X59968000Y-5540000D01*
X21730000Y-57230000D02*
X21730000Y-49610000D01*
X24270000Y-57230000D02*
X24270000Y-49610000D01*
X24550000Y-60050000D02*
X24550000Y-58500000D01*
X21730000Y-49610000D02*
X24270000Y-49610000D01*
X24270000Y-57230000D02*
X21730000Y-57230000D01*
X21450000Y-58500000D02*
X21450000Y-60050000D01*
X21450000Y-60050000D02*
X24550000Y-60050000D01*
X71540000Y-13532000D02*
X71540000Y-9468000D01*
X67460000Y-13532000D02*
X67460000Y-9468000D01*
D10*
X40500000Y-16700000D02*
X46300000Y-16700000D01*
X52000000Y-17400000D02*
X47000000Y-17400000D01*
X52100000Y-24600000D02*
X47000000Y-24600000D01*
X40500000Y-25300000D02*
X46300000Y-25300000D01*
X40500000Y-24800000D02*
X46000000Y-24800000D01*
X39500000Y-18200000D02*
X39500000Y-23800000D01*
X46000000Y-17200000D02*
X40500000Y-17200000D01*
X52000000Y-17900000D02*
X46700000Y-17900000D01*
X52000000Y-24100000D02*
X46700000Y-24100000D01*
X53000000Y-18900000D02*
X53000000Y-23100000D01*
X53000000Y-18900000D02*
G75*
G03X52000000Y-17900000I-1000000J0D01*
G01*
X52000000Y-24100000D02*
G75*
G03X53000000Y-23100000I0J1000000D01*
G01*
X40500000Y-17200000D02*
G75*
G03X39500000Y-18200000I0J-1000000D01*
G01*
X39500000Y-23800000D02*
G75*
G03X40500000Y-24800000I1000000J0D01*
G01*
X46300000Y-25300000D02*
X47000000Y-24600000D01*
X46300000Y-16700000D02*
X47000000Y-17400000D01*
X46000000Y-17200000D02*
X46700000Y-17900000D01*
X46000000Y-24800000D02*
X46700000Y-24100000D01*
X16500000Y-16700000D02*
X22300000Y-16700000D01*
X28000000Y-17400000D02*
X23000000Y-17400000D01*
X28100000Y-24600000D02*
X23000000Y-24600000D01*
X16500000Y-25300000D02*
X22300000Y-25300000D01*
X16500000Y-24800000D02*
X22000000Y-24800000D01*
X15500000Y-18200000D02*
X15500000Y-23800000D01*
X22000000Y-17200000D02*
X16500000Y-17200000D01*
X28000000Y-17900000D02*
X22700000Y-17900000D01*
X28000000Y-24100000D02*
X22700000Y-24100000D01*
X29000000Y-18900000D02*
X29000000Y-23100000D01*
X29000000Y-18900000D02*
G75*
G03X28000000Y-17900000I-1000000J0D01*
G01*
X28000000Y-24100000D02*
G75*
G03X29000000Y-23100000I0J1000000D01*
G01*
X16500000Y-17200000D02*
G75*
G03X15500000Y-18200000I0J-1000000D01*
G01*
X15500000Y-23800000D02*
G75*
G03X16500000Y-24800000I1000000J0D01*
G01*
X22300000Y-25300000D02*
X23000000Y-24600000D01*
X22300000Y-16700000D02*
X23000000Y-17400000D01*
X22000000Y-17200000D02*
X22700000Y-17900000D01*
X22000000Y-24800000D02*
X22700000Y-24100000D01*
D11*
X73200000Y-28000000D02*
X73200000Y-26000000D01*
X73200000Y-26000000D02*
X72200000Y-26000000D01*
X72200000Y-26000000D02*
X72200000Y-22500000D01*
X72200000Y-22500000D02*
X73200000Y-22500000D01*
X73200000Y-22500000D02*
X73200000Y-20500000D01*
X66800000Y-28000000D02*
X73200000Y-28000000D01*
X73200000Y-20500000D02*
X66800000Y-20500000D01*
X66800000Y-20500000D02*
X66800000Y-28000000D01*
D16*
X25804333Y-41638214D02*
X25804333Y-42442548D01*
X25517071Y-41178595D02*
X25229810Y-42040381D01*
X25976690Y-42040381D01*
X26436310Y-42327643D02*
X26493762Y-42385095D01*
X26436310Y-42442548D01*
X26378858Y-42385095D01*
X26436310Y-42327643D01*
X26436310Y-42442548D01*
X26895929Y-41236048D02*
X27700262Y-41236048D01*
X27183191Y-42442548D01*
X28676953Y-41638214D02*
X28676953Y-42442548D01*
X28159882Y-41638214D02*
X28159882Y-42270190D01*
X28217334Y-42385095D01*
X28332239Y-42442548D01*
X28504596Y-42442548D01*
X28619501Y-42385095D01*
X28676953Y-42327643D01*
X31304333Y-41638214D02*
X31304333Y-42442548D01*
X31017071Y-41178595D02*
X30729810Y-42040381D01*
X31476690Y-42040381D01*
X31936310Y-42327643D02*
X31993762Y-42385095D01*
X31936310Y-42442548D01*
X31878858Y-42385095D01*
X31936310Y-42327643D01*
X31936310Y-42442548D01*
X32395929Y-41236048D02*
X33200262Y-41236048D01*
X32683191Y-42442548D01*
X34176953Y-41638214D02*
X34176953Y-42442548D01*
X33659882Y-41638214D02*
X33659882Y-42270190D01*
X33717334Y-42385095D01*
X33832239Y-42442548D01*
X34004596Y-42442548D01*
X34119501Y-42385095D01*
X34176953Y-42327643D01*
X13804333Y-41638214D02*
X13804333Y-42442548D01*
X13517071Y-41178595D02*
X13229810Y-42040381D01*
X13976690Y-42040381D01*
X14436310Y-42327643D02*
X14493762Y-42385095D01*
X14436310Y-42442548D01*
X14378858Y-42385095D01*
X14436310Y-42327643D01*
X14436310Y-42442548D01*
X14895929Y-41236048D02*
X15700262Y-41236048D01*
X15183191Y-42442548D01*
X16676953Y-41638214D02*
X16676953Y-42442548D01*
X16159882Y-41638214D02*
X16159882Y-42270190D01*
X16217334Y-42385095D01*
X16332239Y-42442548D01*
X16504596Y-42442548D01*
X16619501Y-42385095D01*
X16676953Y-42327643D01*
X19804333Y-41638214D02*
X19804333Y-42442548D01*
X19517071Y-41178595D02*
X19229810Y-42040381D01*
X19976690Y-42040381D01*
X20436310Y-42327643D02*
X20493762Y-42385095D01*
X20436310Y-42442548D01*
X20378858Y-42385095D01*
X20436310Y-42327643D01*
X20436310Y-42442548D01*
X20895929Y-41236048D02*
X21700262Y-41236048D01*
X21183191Y-42442548D01*
X22676953Y-41638214D02*
X22676953Y-42442548D01*
X22159882Y-41638214D02*
X22159882Y-42270190D01*
X22217334Y-42385095D01*
X22332239Y-42442548D01*
X22504596Y-42442548D01*
X22619501Y-42385095D01*
X22676953Y-42327643D01*
X49804333Y-41638214D02*
X49804333Y-42442548D01*
X49517071Y-41178595D02*
X49229810Y-42040381D01*
X49976690Y-42040381D01*
X50436310Y-42327643D02*
X50493762Y-42385095D01*
X50436310Y-42442548D01*
X50378858Y-42385095D01*
X50436310Y-42327643D01*
X50436310Y-42442548D01*
X50895929Y-41236048D02*
X51700262Y-41236048D01*
X51183191Y-42442548D01*
X52676953Y-41638214D02*
X52676953Y-42442548D01*
X52159882Y-41638214D02*
X52159882Y-42270190D01*
X52217334Y-42385095D01*
X52332239Y-42442548D01*
X52504596Y-42442548D01*
X52619501Y-42385095D01*
X52676953Y-42327643D01*
X55804333Y-41638214D02*
X55804333Y-42442548D01*
X55517071Y-41178595D02*
X55229810Y-42040381D01*
X55976690Y-42040381D01*
X56436310Y-42327643D02*
X56493762Y-42385095D01*
X56436310Y-42442548D01*
X56378858Y-42385095D01*
X56436310Y-42327643D01*
X56436310Y-42442548D01*
X56895929Y-41236048D02*
X57700262Y-41236048D01*
X57183191Y-42442548D01*
X58676953Y-41638214D02*
X58676953Y-42442548D01*
X58159882Y-41638214D02*
X58159882Y-42270190D01*
X58217334Y-42385095D01*
X58332239Y-42442548D01*
X58504596Y-42442548D01*
X58619501Y-42385095D01*
X58676953Y-42327643D01*
X37804333Y-41638214D02*
X37804333Y-42442548D01*
X37517071Y-41178595D02*
X37229810Y-42040381D01*
X37976690Y-42040381D01*
X38436310Y-42327643D02*
X38493762Y-42385095D01*
X38436310Y-42442548D01*
X38378858Y-42385095D01*
X38436310Y-42327643D01*
X38436310Y-42442548D01*
X38895929Y-41236048D02*
X39700262Y-41236048D01*
X39183191Y-42442548D01*
X40676953Y-41638214D02*
X40676953Y-42442548D01*
X40159882Y-41638214D02*
X40159882Y-42270190D01*
X40217334Y-42385095D01*
X40332239Y-42442548D01*
X40504596Y-42442548D01*
X40619501Y-42385095D01*
X40676953Y-42327643D01*
X43804333Y-41638214D02*
X43804333Y-42442548D01*
X43517071Y-41178595D02*
X43229810Y-42040381D01*
X43976690Y-42040381D01*
X44436310Y-42327643D02*
X44493762Y-42385095D01*
X44436310Y-42442548D01*
X44378858Y-42385095D01*
X44436310Y-42327643D01*
X44436310Y-42442548D01*
X44895929Y-41236048D02*
X45700262Y-41236048D01*
X45183191Y-42442548D01*
X46676953Y-41638214D02*
X46676953Y-42442548D01*
X46159882Y-41638214D02*
X46159882Y-42270190D01*
X46217334Y-42385095D01*
X46332239Y-42442548D01*
X46504596Y-42442548D01*
X46619501Y-42385095D01*
X46676953Y-42327643D01*
X34850001Y-62025000D02*
X34850001Y-61943751D01*
X34890626Y-61821876D01*
X35093751Y-61618751D01*
X35215625Y-61578126D01*
X35296875Y-61578126D01*
X35418750Y-61618751D01*
X35500000Y-61700001D01*
X35581250Y-61862501D01*
X35581250Y-62837500D01*
X36109375Y-62309376D01*
X35662500Y-61212501D02*
X35662500Y-61131251D01*
X35703126Y-61009376D01*
X35906251Y-60806251D01*
X36028125Y-60765627D01*
X36109375Y-60765626D01*
X36231250Y-60806251D01*
X36312500Y-60887502D01*
X36393750Y-61050001D01*
X36393750Y-62025001D01*
X36921874Y-61496876D01*
X36718749Y-60562501D02*
X37571874Y-61415625D01*
X36759375Y-60603127D02*
X36800000Y-60481251D01*
X36962499Y-60318751D01*
X37084375Y-60278127D01*
X37165624Y-60278127D01*
X37287499Y-60318751D01*
X37531249Y-60562501D01*
X37571874Y-60684377D01*
X37571874Y-60765626D01*
X37531249Y-60887502D01*
X37368750Y-61050001D01*
X37246874Y-61090626D01*
X39350001Y-68525000D02*
X39350001Y-68443751D01*
X39390626Y-68321876D01*
X39593751Y-68118751D01*
X39715625Y-68078126D01*
X39796875Y-68078126D01*
X39918750Y-68118751D01*
X40000000Y-68200001D01*
X40081250Y-68362501D01*
X40081250Y-69337500D01*
X40609375Y-68809376D01*
X40162500Y-67712501D02*
X40162500Y-67631251D01*
X40203126Y-67509376D01*
X40406251Y-67306251D01*
X40528125Y-67265627D01*
X40609375Y-67265626D01*
X40731250Y-67306251D01*
X40812500Y-67387502D01*
X40893750Y-67550001D01*
X40893750Y-68525001D01*
X41421874Y-67996876D01*
X41218749Y-67062501D02*
X42071874Y-67915625D01*
X41259375Y-67103127D02*
X41300000Y-66981251D01*
X41462499Y-66818751D01*
X41584375Y-66778127D01*
X41665624Y-66778127D01*
X41787499Y-66818751D01*
X42031249Y-67062501D01*
X42071874Y-67184377D01*
X42071874Y-67265626D01*
X42031249Y-67387502D01*
X41868750Y-67550001D01*
X41746874Y-67590626D01*
X47517071Y-50036048D02*
X47631976Y-50036048D01*
X47746881Y-50093500D01*
X47804333Y-50150952D01*
X47861786Y-50265857D01*
X47919238Y-50495667D01*
X47919238Y-50782929D01*
X47861786Y-51012738D01*
X47804333Y-51127643D01*
X47746881Y-51185095D01*
X47631976Y-51242548D01*
X47517071Y-51242548D01*
X47402167Y-51185095D01*
X47344714Y-51127643D01*
X47287262Y-51012738D01*
X47229810Y-50782929D01*
X47229810Y-50495667D01*
X47287262Y-50265857D01*
X47344714Y-50150952D01*
X47402167Y-50093500D01*
X47517071Y-50036048D01*
X48436310Y-51127643D02*
X48493762Y-51185095D01*
X48436310Y-51242548D01*
X48378858Y-51185095D01*
X48436310Y-51127643D01*
X48436310Y-51242548D01*
X49642810Y-51242548D02*
X48953382Y-51242548D01*
X49298096Y-51242548D02*
X49298096Y-50036048D01*
X49183191Y-50208405D01*
X49068286Y-50323310D01*
X48953382Y-50380762D01*
X50676953Y-50438214D02*
X50676953Y-51242548D01*
X50159882Y-50438214D02*
X50159882Y-51070190D01*
X50217334Y-51185095D01*
X50332239Y-51242548D01*
X50504596Y-51242548D01*
X50619501Y-51185095D01*
X50676953Y-51127643D01*
X40236048Y-60482929D02*
X40236048Y-60368024D01*
X40293500Y-60253119D01*
X40350952Y-60195667D01*
X40465857Y-60138214D01*
X40695667Y-60080762D01*
X40982929Y-60080762D01*
X41212738Y-60138214D01*
X41327643Y-60195667D01*
X41385095Y-60253119D01*
X41442548Y-60368024D01*
X41442548Y-60482929D01*
X41385095Y-60597833D01*
X41327643Y-60655286D01*
X41212738Y-60712738D01*
X40982929Y-60770190D01*
X40695667Y-60770190D01*
X40465857Y-60712738D01*
X40350952Y-60655286D01*
X40293500Y-60597833D01*
X40236048Y-60482929D01*
X41327643Y-59563690D02*
X41385095Y-59506238D01*
X41442548Y-59563690D01*
X41385095Y-59621142D01*
X41327643Y-59563690D01*
X41442548Y-59563690D01*
X41442548Y-58357190D02*
X41442548Y-59046618D01*
X41442548Y-58701904D02*
X40236048Y-58701904D01*
X40408405Y-58816809D01*
X40523310Y-58931714D01*
X40580762Y-59046618D01*
X40638214Y-57323047D02*
X41442548Y-57323047D01*
X40638214Y-57840118D02*
X41270190Y-57840118D01*
X41385095Y-57782666D01*
X41442548Y-57667761D01*
X41442548Y-57495404D01*
X41385095Y-57380499D01*
X41327643Y-57323047D01*
X27919238Y-51942548D02*
X27229810Y-51942548D01*
X27574524Y-51942548D02*
X27574524Y-50736048D01*
X27459619Y-50908405D01*
X27344714Y-51023310D01*
X27229810Y-51080762D01*
X28666119Y-50736048D02*
X28781024Y-50736048D01*
X28895929Y-50793500D01*
X28953381Y-50850952D01*
X29010834Y-50965857D01*
X29068286Y-51195667D01*
X29068286Y-51482929D01*
X29010834Y-51712738D01*
X28953381Y-51827643D01*
X28895929Y-51885095D01*
X28781024Y-51942548D01*
X28666119Y-51942548D01*
X28551215Y-51885095D01*
X28493762Y-51827643D01*
X28436310Y-51712738D01*
X28378858Y-51482929D01*
X28378858Y-51195667D01*
X28436310Y-50965857D01*
X28493762Y-50850952D01*
X28551215Y-50793500D01*
X28666119Y-50736048D01*
X29815167Y-50736048D02*
X29930072Y-50736048D01*
X30044977Y-50793500D01*
X30102429Y-50850952D01*
X30159882Y-50965857D01*
X30217334Y-51195667D01*
X30217334Y-51482929D01*
X30159882Y-51712738D01*
X30102429Y-51827643D01*
X30044977Y-51885095D01*
X29930072Y-51942548D01*
X29815167Y-51942548D01*
X29700263Y-51885095D01*
X29642810Y-51827643D01*
X29585358Y-51712738D01*
X29527906Y-51482929D01*
X29527906Y-51195667D01*
X29585358Y-50965857D01*
X29642810Y-50850952D01*
X29700263Y-50793500D01*
X29815167Y-50736048D01*
X55736048Y-59982929D02*
X55736048Y-59868024D01*
X55793500Y-59753119D01*
X55850952Y-59695667D01*
X55965857Y-59638214D01*
X56195667Y-59580762D01*
X56482929Y-59580762D01*
X56712738Y-59638214D01*
X56827643Y-59695667D01*
X56885095Y-59753119D01*
X56942548Y-59868024D01*
X56942548Y-59982929D01*
X56885095Y-60097833D01*
X56827643Y-60155286D01*
X56712738Y-60212738D01*
X56482929Y-60270190D01*
X56195667Y-60270190D01*
X55965857Y-60212738D01*
X55850952Y-60155286D01*
X55793500Y-60097833D01*
X55736048Y-59982929D01*
X56827643Y-59063690D02*
X56885095Y-59006238D01*
X56942548Y-59063690D01*
X56885095Y-59121142D01*
X56827643Y-59063690D01*
X56942548Y-59063690D01*
X56942548Y-57857190D02*
X56942548Y-58546618D01*
X56942548Y-58201904D02*
X55736048Y-58201904D01*
X55908405Y-58316809D01*
X56023310Y-58431714D01*
X56080762Y-58546618D01*
X56138214Y-56823047D02*
X56942548Y-56823047D01*
X56138214Y-57340118D02*
X56770190Y-57340118D01*
X56885095Y-57282666D01*
X56942548Y-57167761D01*
X56942548Y-56995404D01*
X56885095Y-56880499D01*
X56827643Y-56823047D01*
X32810571Y-26810571D02*
X32810571Y-27212738D01*
X33442548Y-27212738D02*
X32236048Y-27212738D01*
X32236048Y-26638214D01*
X33442548Y-26178595D02*
X32236048Y-26178595D01*
X33442548Y-25029547D02*
X33442548Y-25604071D01*
X32236048Y-25604071D01*
X32236048Y-24799738D02*
X32236048Y-24110310D01*
X33442548Y-24455024D02*
X32236048Y-24455024D01*
X32810571Y-23708143D02*
X32810571Y-23305976D01*
X33442548Y-23133619D02*
X33442548Y-23708143D01*
X32236048Y-23708143D01*
X32236048Y-23133619D01*
X33442548Y-21927120D02*
X32868024Y-22329286D01*
X33442548Y-22616548D02*
X32236048Y-22616548D01*
X32236048Y-22156929D01*
X32293500Y-22042024D01*
X32350952Y-21984572D01*
X32465857Y-21927120D01*
X32638214Y-21927120D01*
X32753119Y-21984572D01*
X32810571Y-22042024D01*
X32868024Y-22156929D01*
X32868024Y-22616548D01*
X21310571Y-30310571D02*
X21310571Y-30712738D01*
X21942548Y-30712738D02*
X20736048Y-30712738D01*
X20736048Y-30138214D01*
X21942548Y-29678595D02*
X20736048Y-29678595D01*
X21942548Y-28529547D02*
X21942548Y-29104071D01*
X20736048Y-29104071D01*
X20736048Y-28299738D02*
X20736048Y-27610310D01*
X21942548Y-27955024D02*
X20736048Y-27955024D01*
X21310571Y-27208143D02*
X21310571Y-26805976D01*
X21942548Y-26633619D02*
X21942548Y-27208143D01*
X20736048Y-27208143D01*
X20736048Y-26633619D01*
X21942548Y-25427120D02*
X21368024Y-25829286D01*
X21942548Y-26116548D02*
X20736048Y-26116548D01*
X20736048Y-25656929D01*
X20793500Y-25542024D01*
X20850952Y-25484572D01*
X20965857Y-25427120D01*
X21138214Y-25427120D01*
X21253119Y-25484572D01*
X21310571Y-25542024D01*
X21368024Y-25656929D01*
X21368024Y-26116548D01*
X56810571Y-27310571D02*
X56810571Y-27712738D01*
X57442548Y-27712738D02*
X56236048Y-27712738D01*
X56236048Y-27138214D01*
X57442548Y-26678595D02*
X56236048Y-26678595D01*
X57442548Y-25529547D02*
X57442548Y-26104071D01*
X56236048Y-26104071D01*
X56236048Y-25299738D02*
X56236048Y-24610310D01*
X57442548Y-24955024D02*
X56236048Y-24955024D01*
X56810571Y-24208143D02*
X56810571Y-23805976D01*
X57442548Y-23633619D02*
X57442548Y-24208143D01*
X56236048Y-24208143D01*
X56236048Y-23633619D01*
X57442548Y-22427120D02*
X56868024Y-22829286D01*
X57442548Y-23116548D02*
X56236048Y-23116548D01*
X56236048Y-22656929D01*
X56293500Y-22542024D01*
X56350952Y-22484572D01*
X56465857Y-22427120D01*
X56638214Y-22427120D01*
X56753119Y-22484572D01*
X56810571Y-22542024D01*
X56868024Y-22656929D01*
X56868024Y-23116548D01*
X45810571Y-30310571D02*
X45810571Y-30712738D01*
X46442548Y-30712738D02*
X45236048Y-30712738D01*
X45236048Y-30138214D01*
X46442548Y-29678595D02*
X45236048Y-29678595D01*
X46442548Y-28529547D02*
X46442548Y-29104071D01*
X45236048Y-29104071D01*
X45236048Y-28299738D02*
X45236048Y-27610310D01*
X46442548Y-27955024D02*
X45236048Y-27955024D01*
X45810571Y-27208143D02*
X45810571Y-26805976D01*
X46442548Y-26633619D02*
X46442548Y-27208143D01*
X45236048Y-27208143D01*
X45236048Y-26633619D01*
X46442548Y-25427120D02*
X45868024Y-25829286D01*
X46442548Y-26116548D02*
X45236048Y-26116548D01*
X45236048Y-25656929D01*
X45293500Y-25542024D01*
X45350952Y-25484572D01*
X45465857Y-25427120D01*
X45638214Y-25427120D01*
X45753119Y-25484572D01*
X45810571Y-25542024D01*
X45868024Y-25656929D01*
X45868024Y-26116548D01*
X27919238Y-59942548D02*
X27229810Y-59942548D01*
X27574524Y-59942548D02*
X27574524Y-58736048D01*
X27459619Y-58908405D01*
X27344714Y-59023310D01*
X27229810Y-59080762D01*
X28666119Y-58736048D02*
X28781024Y-58736048D01*
X28895929Y-58793500D01*
X28953381Y-58850952D01*
X29010834Y-58965857D01*
X29068286Y-59195667D01*
X29068286Y-59482929D01*
X29010834Y-59712738D01*
X28953381Y-59827643D01*
X28895929Y-59885095D01*
X28781024Y-59942548D01*
X28666119Y-59942548D01*
X28551215Y-59885095D01*
X28493762Y-59827643D01*
X28436310Y-59712738D01*
X28378858Y-59482929D01*
X28378858Y-59195667D01*
X28436310Y-58965857D01*
X28493762Y-58850952D01*
X28551215Y-58793500D01*
X28666119Y-58736048D01*
X29815167Y-58736048D02*
X29930072Y-58736048D01*
X30044977Y-58793500D01*
X30102429Y-58850952D01*
X30159882Y-58965857D01*
X30217334Y-59195667D01*
X30217334Y-59482929D01*
X30159882Y-59712738D01*
X30102429Y-59827643D01*
X30044977Y-59885095D01*
X29930072Y-59942548D01*
X29815167Y-59942548D01*
X29700263Y-59885095D01*
X29642810Y-59827643D01*
X29585358Y-59712738D01*
X29527906Y-59482929D01*
X29527906Y-59195667D01*
X29585358Y-58965857D01*
X29642810Y-58850952D01*
X29700263Y-58793500D01*
X29815167Y-58736048D01*
X12638214Y-49695667D02*
X13442548Y-49695667D01*
X12178595Y-49982929D02*
X13040381Y-50270190D01*
X13040381Y-49523310D01*
X13327643Y-49063690D02*
X13385095Y-49006238D01*
X13442548Y-49063690D01*
X13385095Y-49121142D01*
X13327643Y-49063690D01*
X13442548Y-49063690D01*
X12236048Y-48604071D02*
X12236048Y-47799738D01*
X13442548Y-48316809D01*
X13442548Y-47340118D02*
X12236048Y-47340118D01*
X12982929Y-47225213D02*
X13442548Y-46880499D01*
X12638214Y-46880499D02*
X13097833Y-47340118D01*
X60138214Y-34195667D02*
X60942548Y-34195667D01*
X59678595Y-34482929D02*
X60540381Y-34770190D01*
X60540381Y-34023310D01*
X60827643Y-33563690D02*
X60885095Y-33506238D01*
X60942548Y-33563690D01*
X60885095Y-33621142D01*
X60827643Y-33563690D01*
X60942548Y-33563690D01*
X59736048Y-33104071D02*
X59736048Y-32299738D01*
X60942548Y-32816809D01*
X60942548Y-31840118D02*
X59736048Y-31840118D01*
X60482929Y-31725213D02*
X60942548Y-31380499D01*
X60138214Y-31380499D02*
X60597833Y-31840118D01*
X27419238Y-31942548D02*
X26729810Y-31942548D01*
X27074524Y-31942548D02*
X27074524Y-30736048D01*
X26959619Y-30908405D01*
X26844714Y-31023310D01*
X26729810Y-31080762D01*
X15419238Y-31942548D02*
X14729810Y-31942548D01*
X15074524Y-31942548D02*
X15074524Y-30736048D01*
X14959619Y-30908405D01*
X14844714Y-31023310D01*
X14729810Y-31080762D01*
X32419238Y-31942548D02*
X31729810Y-31942548D01*
X32074524Y-31942548D02*
X32074524Y-30736048D01*
X31959619Y-30908405D01*
X31844714Y-31023310D01*
X31729810Y-31080762D01*
X51419238Y-31942548D02*
X50729810Y-31942548D01*
X51074524Y-31942548D02*
X51074524Y-30736048D01*
X50959619Y-30908405D01*
X50844714Y-31023310D01*
X50729810Y-31080762D01*
X39419238Y-31942548D02*
X38729810Y-31942548D01*
X39074524Y-31942548D02*
X39074524Y-30736048D01*
X38959619Y-30908405D01*
X38844714Y-31023310D01*
X38729810Y-31080762D01*
X44419238Y-31942548D02*
X43729810Y-31942548D01*
X44074524Y-31942548D02*
X44074524Y-30736048D01*
X43959619Y-30908405D01*
X43844714Y-31023310D01*
X43729810Y-31080762D01*
X20419238Y-31942548D02*
X19729810Y-31942548D01*
X20074524Y-31942548D02*
X20074524Y-30736048D01*
X19959619Y-30908405D01*
X19844714Y-31023310D01*
X19729810Y-31080762D01*
X56419238Y-31942548D02*
X55729810Y-31942548D01*
X56074524Y-31942548D02*
X56074524Y-30736048D01*
X55959619Y-30908405D01*
X55844714Y-31023310D01*
X55729810Y-31080762D01*
X24138214Y-66195667D02*
X24942548Y-66195667D01*
X23678595Y-66482929D02*
X24540381Y-66770190D01*
X24540381Y-66023310D01*
X24827643Y-65563690D02*
X24885095Y-65506238D01*
X24942548Y-65563690D01*
X24885095Y-65621142D01*
X24827643Y-65563690D01*
X24942548Y-65563690D01*
X23736048Y-65104071D02*
X23736048Y-64299738D01*
X24942548Y-64816809D01*
X24138214Y-63323047D02*
X24942548Y-63323047D01*
X24138214Y-63840118D02*
X24770190Y-63840118D01*
X24885095Y-63782666D01*
X24942548Y-63667761D01*
X24942548Y-63495404D01*
X24885095Y-63380499D01*
X24827643Y-63323047D01*
X27919238Y-50442548D02*
X27229810Y-50442548D01*
X27574524Y-50442548D02*
X27574524Y-49236048D01*
X27459619Y-49408405D01*
X27344714Y-49523310D01*
X27229810Y-49580762D01*
X28666119Y-49236048D02*
X28781024Y-49236048D01*
X28895929Y-49293500D01*
X28953381Y-49350952D01*
X29010834Y-49465857D01*
X29068286Y-49695667D01*
X29068286Y-49982929D01*
X29010834Y-50212738D01*
X28953381Y-50327643D01*
X28895929Y-50385095D01*
X28781024Y-50442548D01*
X28666119Y-50442548D01*
X28551215Y-50385095D01*
X28493762Y-50327643D01*
X28436310Y-50212738D01*
X28378858Y-49982929D01*
X28378858Y-49695667D01*
X28436310Y-49465857D01*
X28493762Y-49350952D01*
X28551215Y-49293500D01*
X28666119Y-49236048D01*
X29815167Y-49236048D02*
X29930072Y-49236048D01*
X30044977Y-49293500D01*
X30102429Y-49350952D01*
X30159882Y-49465857D01*
X30217334Y-49695667D01*
X30217334Y-49982929D01*
X30159882Y-50212738D01*
X30102429Y-50327643D01*
X30044977Y-50385095D01*
X29930072Y-50442548D01*
X29815167Y-50442548D01*
X29700263Y-50385095D01*
X29642810Y-50327643D01*
X29585358Y-50212738D01*
X29527906Y-49982929D01*
X29527906Y-49695667D01*
X29585358Y-49465857D01*
X29642810Y-49350952D01*
X29700263Y-49293500D01*
X29815167Y-49236048D01*
X37861786Y-52442548D02*
X37287262Y-52442548D01*
X37287262Y-51236048D01*
X38263952Y-51810571D02*
X38666119Y-51810571D01*
X38838476Y-52442548D02*
X38263952Y-52442548D01*
X38263952Y-51236048D01*
X38838476Y-51236048D01*
X39355547Y-52442548D02*
X39355547Y-51236048D01*
X39642809Y-51236048D01*
X39815166Y-51293500D01*
X39930071Y-51408405D01*
X39987523Y-51523310D01*
X40044975Y-51753119D01*
X40044975Y-51925476D01*
X39987523Y-52155286D01*
X39930071Y-52270190D01*
X39815166Y-52385095D01*
X39642809Y-52442548D01*
X39355547Y-52442548D01*
X37861786Y-59942548D02*
X37287262Y-59942548D01*
X37287262Y-58736048D01*
X38263952Y-59310571D02*
X38666119Y-59310571D01*
X38838476Y-59942548D02*
X38263952Y-59942548D01*
X38263952Y-58736048D01*
X38838476Y-58736048D01*
X39355547Y-59942548D02*
X39355547Y-58736048D01*
X39642809Y-58736048D01*
X39815166Y-58793500D01*
X39930071Y-58908405D01*
X39987523Y-59023310D01*
X40044975Y-59253119D01*
X40044975Y-59425476D01*
X39987523Y-59655286D01*
X39930071Y-59770190D01*
X39815166Y-59885095D01*
X39642809Y-59942548D01*
X39355547Y-59942548D01*
X11942548Y-56138214D02*
X11942548Y-56712738D01*
X10736048Y-56712738D01*
X11310571Y-55736048D02*
X11310571Y-55333881D01*
X11942548Y-55161524D02*
X11942548Y-55736048D01*
X10736048Y-55736048D01*
X10736048Y-55161524D01*
X11942548Y-54644453D02*
X10736048Y-54644453D01*
X10736048Y-54357191D01*
X10793500Y-54184834D01*
X10908405Y-54069929D01*
X11023310Y-54012477D01*
X11253119Y-53955025D01*
X11425476Y-53955025D01*
X11655286Y-54012477D01*
X11770190Y-54069929D01*
X11885095Y-54184834D01*
X11942548Y-54357191D01*
X11942548Y-54644453D01*
X60942548Y-30138214D02*
X60942548Y-30712738D01*
X59736048Y-30712738D01*
X60310571Y-29736048D02*
X60310571Y-29333881D01*
X60942548Y-29161524D02*
X60942548Y-29736048D01*
X59736048Y-29736048D01*
X59736048Y-29161524D01*
X60942548Y-28644453D02*
X59736048Y-28644453D01*
X59736048Y-28357191D01*
X59793500Y-28184834D01*
X59908405Y-28069929D01*
X60023310Y-28012477D01*
X60253119Y-27955025D01*
X60425476Y-27955025D01*
X60655286Y-28012477D01*
X60770190Y-28069929D01*
X60885095Y-28184834D01*
X60942548Y-28357191D01*
X60942548Y-28644453D01*
X37861786Y-50942548D02*
X37287262Y-50942548D01*
X37287262Y-49736048D01*
X38263952Y-50310571D02*
X38666119Y-50310571D01*
X38838476Y-50942548D02*
X38263952Y-50942548D01*
X38263952Y-49736048D01*
X38838476Y-49736048D01*
X39355547Y-50942548D02*
X39355547Y-49736048D01*
X39642809Y-49736048D01*
X39815166Y-49793500D01*
X39930071Y-49908405D01*
X39987523Y-50023310D01*
X40044975Y-50253119D01*
X40044975Y-50425476D01*
X39987523Y-50655286D01*
X39930071Y-50770190D01*
X39815166Y-50885095D01*
X39642809Y-50942548D01*
X39355547Y-50942548D01*
X15638214Y-58195667D02*
X16442548Y-58195667D01*
X15178595Y-58482929D02*
X16040381Y-58770190D01*
X16040381Y-58023310D01*
X16327643Y-57563690D02*
X16385095Y-57506238D01*
X16442548Y-57563690D01*
X16385095Y-57621142D01*
X16327643Y-57563690D01*
X16442548Y-57563690D01*
X15236048Y-57104071D02*
X15236048Y-56299738D01*
X16442548Y-56816809D01*
X15638214Y-55323047D02*
X16442548Y-55323047D01*
X15638214Y-55840118D02*
X16270190Y-55840118D01*
X16385095Y-55782666D01*
X16442548Y-55667761D01*
X16442548Y-55495404D01*
X16385095Y-55380499D01*
X16327643Y-55323047D01*
X20638214Y-58195667D02*
X21442548Y-58195667D01*
X20178595Y-58482929D02*
X21040381Y-58770190D01*
X21040381Y-58023310D01*
X21327643Y-57563690D02*
X21385095Y-57506238D01*
X21442548Y-57563690D01*
X21385095Y-57621142D01*
X21327643Y-57563690D01*
X21442548Y-57563690D01*
X20236048Y-57104071D02*
X20236048Y-56299738D01*
X21442548Y-56816809D01*
X20638214Y-55323047D02*
X21442548Y-55323047D01*
X20638214Y-55840118D02*
X21270190Y-55840118D01*
X21385095Y-55782666D01*
X21442548Y-55667761D01*
X21442548Y-55495404D01*
X21385095Y-55380499D01*
X21327643Y-55323047D01*
D17*
X2648572Y-11165429D02*
X3156572Y-12689429D01*
X3664572Y-11165429D01*
X4172572Y-12108857D02*
X5333715Y-12108857D01*
X7865429Y-15451428D02*
X9389429Y-14943428D01*
X7865429Y-14435428D01*
X8808857Y-13927428D02*
X8808857Y-12766285D01*
X9389429Y-13346856D02*
X8228286Y-13346856D01*
D16*
X24287262Y-36442548D02*
X24287262Y-35236048D01*
X24574524Y-35236048D01*
X24746881Y-35293500D01*
X24861786Y-35408405D01*
X24919238Y-35523310D01*
X24976690Y-35753119D01*
X24976690Y-35925476D01*
X24919238Y-36155286D01*
X24861786Y-36270190D01*
X24746881Y-36385095D01*
X24574524Y-36442548D01*
X24287262Y-36442548D01*
X25493762Y-36442548D02*
X25493762Y-35236048D01*
X26298095Y-35236048D02*
X26527905Y-35236048D01*
X26642810Y-35293500D01*
X26757714Y-35408405D01*
X26815167Y-35638214D01*
X26815167Y-36040381D01*
X26757714Y-36270190D01*
X26642810Y-36385095D01*
X26527905Y-36442548D01*
X26298095Y-36442548D01*
X26183191Y-36385095D01*
X26068286Y-36270190D01*
X26010834Y-36040381D01*
X26010834Y-35638214D01*
X26068286Y-35408405D01*
X26183191Y-35293500D01*
X26298095Y-35236048D01*
X27332238Y-36442548D02*
X27332238Y-35236048D01*
X27619500Y-35236048D01*
X27791857Y-35293500D01*
X27906762Y-35408405D01*
X27964214Y-35523310D01*
X28021666Y-35753119D01*
X28021666Y-35925476D01*
X27964214Y-36155286D01*
X27906762Y-36270190D01*
X27791857Y-36385095D01*
X27619500Y-36442548D01*
X27332238Y-36442548D01*
X28538738Y-35810571D02*
X28940905Y-35810571D01*
X29113262Y-36442548D02*
X28538738Y-36442548D01*
X28538738Y-35236048D01*
X29113262Y-35236048D01*
X12287262Y-36442548D02*
X12287262Y-35236048D01*
X12574524Y-35236048D01*
X12746881Y-35293500D01*
X12861786Y-35408405D01*
X12919238Y-35523310D01*
X12976690Y-35753119D01*
X12976690Y-35925476D01*
X12919238Y-36155286D01*
X12861786Y-36270190D01*
X12746881Y-36385095D01*
X12574524Y-36442548D01*
X12287262Y-36442548D01*
X13493762Y-36442548D02*
X13493762Y-35236048D01*
X14298095Y-35236048D02*
X14527905Y-35236048D01*
X14642810Y-35293500D01*
X14757714Y-35408405D01*
X14815167Y-35638214D01*
X14815167Y-36040381D01*
X14757714Y-36270190D01*
X14642810Y-36385095D01*
X14527905Y-36442548D01*
X14298095Y-36442548D01*
X14183191Y-36385095D01*
X14068286Y-36270190D01*
X14010834Y-36040381D01*
X14010834Y-35638214D01*
X14068286Y-35408405D01*
X14183191Y-35293500D01*
X14298095Y-35236048D01*
X15332238Y-36442548D02*
X15332238Y-35236048D01*
X15619500Y-35236048D01*
X15791857Y-35293500D01*
X15906762Y-35408405D01*
X15964214Y-35523310D01*
X16021666Y-35753119D01*
X16021666Y-35925476D01*
X15964214Y-36155286D01*
X15906762Y-36270190D01*
X15791857Y-36385095D01*
X15619500Y-36442548D01*
X15332238Y-36442548D01*
X16538738Y-35810571D02*
X16940905Y-35810571D01*
X17113262Y-36442548D02*
X16538738Y-36442548D01*
X16538738Y-35236048D01*
X17113262Y-35236048D01*
X48287262Y-36442548D02*
X48287262Y-35236048D01*
X48574524Y-35236048D01*
X48746881Y-35293500D01*
X48861786Y-35408405D01*
X48919238Y-35523310D01*
X48976690Y-35753119D01*
X48976690Y-35925476D01*
X48919238Y-36155286D01*
X48861786Y-36270190D01*
X48746881Y-36385095D01*
X48574524Y-36442548D01*
X48287262Y-36442548D01*
X49493762Y-36442548D02*
X49493762Y-35236048D01*
X50298095Y-35236048D02*
X50527905Y-35236048D01*
X50642810Y-35293500D01*
X50757714Y-35408405D01*
X50815167Y-35638214D01*
X50815167Y-36040381D01*
X50757714Y-36270190D01*
X50642810Y-36385095D01*
X50527905Y-36442548D01*
X50298095Y-36442548D01*
X50183191Y-36385095D01*
X50068286Y-36270190D01*
X50010834Y-36040381D01*
X50010834Y-35638214D01*
X50068286Y-35408405D01*
X50183191Y-35293500D01*
X50298095Y-35236048D01*
X51332238Y-36442548D02*
X51332238Y-35236048D01*
X51619500Y-35236048D01*
X51791857Y-35293500D01*
X51906762Y-35408405D01*
X51964214Y-35523310D01*
X52021666Y-35753119D01*
X52021666Y-35925476D01*
X51964214Y-36155286D01*
X51906762Y-36270190D01*
X51791857Y-36385095D01*
X51619500Y-36442548D01*
X51332238Y-36442548D01*
X52538738Y-35810571D02*
X52940905Y-35810571D01*
X53113262Y-36442548D02*
X52538738Y-36442548D01*
X52538738Y-35236048D01*
X53113262Y-35236048D01*
X36287262Y-36442548D02*
X36287262Y-35236048D01*
X36574524Y-35236048D01*
X36746881Y-35293500D01*
X36861786Y-35408405D01*
X36919238Y-35523310D01*
X36976690Y-35753119D01*
X36976690Y-35925476D01*
X36919238Y-36155286D01*
X36861786Y-36270190D01*
X36746881Y-36385095D01*
X36574524Y-36442548D01*
X36287262Y-36442548D01*
X37493762Y-36442548D02*
X37493762Y-35236048D01*
X38298095Y-35236048D02*
X38527905Y-35236048D01*
X38642810Y-35293500D01*
X38757714Y-35408405D01*
X38815167Y-35638214D01*
X38815167Y-36040381D01*
X38757714Y-36270190D01*
X38642810Y-36385095D01*
X38527905Y-36442548D01*
X38298095Y-36442548D01*
X38183191Y-36385095D01*
X38068286Y-36270190D01*
X38010834Y-36040381D01*
X38010834Y-35638214D01*
X38068286Y-35408405D01*
X38183191Y-35293500D01*
X38298095Y-35236048D01*
X39332238Y-36442548D02*
X39332238Y-35236048D01*
X39619500Y-35236048D01*
X39791857Y-35293500D01*
X39906762Y-35408405D01*
X39964214Y-35523310D01*
X40021666Y-35753119D01*
X40021666Y-35925476D01*
X39964214Y-36155286D01*
X39906762Y-36270190D01*
X39791857Y-36385095D01*
X39619500Y-36442548D01*
X39332238Y-36442548D01*
X40538738Y-35810571D02*
X40940905Y-35810571D01*
X41113262Y-36442548D02*
X40538738Y-36442548D01*
X40538738Y-35236048D01*
X41113262Y-35236048D01*
X29787262Y-36442548D02*
X29787262Y-35236048D01*
X30074524Y-35236048D01*
X30246881Y-35293500D01*
X30361786Y-35408405D01*
X30419238Y-35523310D01*
X30476690Y-35753119D01*
X30476690Y-35925476D01*
X30419238Y-36155286D01*
X30361786Y-36270190D01*
X30246881Y-36385095D01*
X30074524Y-36442548D01*
X29787262Y-36442548D01*
X30993762Y-36442548D02*
X30993762Y-35236048D01*
X31798095Y-35236048D02*
X32027905Y-35236048D01*
X32142810Y-35293500D01*
X32257714Y-35408405D01*
X32315167Y-35638214D01*
X32315167Y-36040381D01*
X32257714Y-36270190D01*
X32142810Y-36385095D01*
X32027905Y-36442548D01*
X31798095Y-36442548D01*
X31683191Y-36385095D01*
X31568286Y-36270190D01*
X31510834Y-36040381D01*
X31510834Y-35638214D01*
X31568286Y-35408405D01*
X31683191Y-35293500D01*
X31798095Y-35236048D01*
X32832238Y-36442548D02*
X32832238Y-35236048D01*
X33119500Y-35236048D01*
X33291857Y-35293500D01*
X33406762Y-35408405D01*
X33464214Y-35523310D01*
X33521666Y-35753119D01*
X33521666Y-35925476D01*
X33464214Y-36155286D01*
X33406762Y-36270190D01*
X33291857Y-36385095D01*
X33119500Y-36442548D01*
X32832238Y-36442548D01*
X34038738Y-35810571D02*
X34440905Y-35810571D01*
X34613262Y-36442548D02*
X34038738Y-36442548D01*
X34038738Y-35236048D01*
X34613262Y-35236048D01*
X17787262Y-36442548D02*
X17787262Y-35236048D01*
X18074524Y-35236048D01*
X18246881Y-35293500D01*
X18361786Y-35408405D01*
X18419238Y-35523310D01*
X18476690Y-35753119D01*
X18476690Y-35925476D01*
X18419238Y-36155286D01*
X18361786Y-36270190D01*
X18246881Y-36385095D01*
X18074524Y-36442548D01*
X17787262Y-36442548D01*
X18993762Y-36442548D02*
X18993762Y-35236048D01*
X19798095Y-35236048D02*
X20027905Y-35236048D01*
X20142810Y-35293500D01*
X20257714Y-35408405D01*
X20315167Y-35638214D01*
X20315167Y-36040381D01*
X20257714Y-36270190D01*
X20142810Y-36385095D01*
X20027905Y-36442548D01*
X19798095Y-36442548D01*
X19683191Y-36385095D01*
X19568286Y-36270190D01*
X19510834Y-36040381D01*
X19510834Y-35638214D01*
X19568286Y-35408405D01*
X19683191Y-35293500D01*
X19798095Y-35236048D01*
X20832238Y-36442548D02*
X20832238Y-35236048D01*
X21119500Y-35236048D01*
X21291857Y-35293500D01*
X21406762Y-35408405D01*
X21464214Y-35523310D01*
X21521666Y-35753119D01*
X21521666Y-35925476D01*
X21464214Y-36155286D01*
X21406762Y-36270190D01*
X21291857Y-36385095D01*
X21119500Y-36442548D01*
X20832238Y-36442548D01*
X22038738Y-35810571D02*
X22440905Y-35810571D01*
X22613262Y-36442548D02*
X22038738Y-36442548D01*
X22038738Y-35236048D01*
X22613262Y-35236048D01*
X53787262Y-36442548D02*
X53787262Y-35236048D01*
X54074524Y-35236048D01*
X54246881Y-35293500D01*
X54361786Y-35408405D01*
X54419238Y-35523310D01*
X54476690Y-35753119D01*
X54476690Y-35925476D01*
X54419238Y-36155286D01*
X54361786Y-36270190D01*
X54246881Y-36385095D01*
X54074524Y-36442548D01*
X53787262Y-36442548D01*
X54993762Y-36442548D02*
X54993762Y-35236048D01*
X55798095Y-35236048D02*
X56027905Y-35236048D01*
X56142810Y-35293500D01*
X56257714Y-35408405D01*
X56315167Y-35638214D01*
X56315167Y-36040381D01*
X56257714Y-36270190D01*
X56142810Y-36385095D01*
X56027905Y-36442548D01*
X55798095Y-36442548D01*
X55683191Y-36385095D01*
X55568286Y-36270190D01*
X55510834Y-36040381D01*
X55510834Y-35638214D01*
X55568286Y-35408405D01*
X55683191Y-35293500D01*
X55798095Y-35236048D01*
X56832238Y-36442548D02*
X56832238Y-35236048D01*
X57119500Y-35236048D01*
X57291857Y-35293500D01*
X57406762Y-35408405D01*
X57464214Y-35523310D01*
X57521666Y-35753119D01*
X57521666Y-35925476D01*
X57464214Y-36155286D01*
X57406762Y-36270190D01*
X57291857Y-36385095D01*
X57119500Y-36442548D01*
X56832238Y-36442548D01*
X58038738Y-35810571D02*
X58440905Y-35810571D01*
X58613262Y-36442548D02*
X58038738Y-36442548D01*
X58038738Y-35236048D01*
X58613262Y-35236048D01*
X41787262Y-36442548D02*
X41787262Y-35236048D01*
X42074524Y-35236048D01*
X42246881Y-35293500D01*
X42361786Y-35408405D01*
X42419238Y-35523310D01*
X42476690Y-35753119D01*
X42476690Y-35925476D01*
X42419238Y-36155286D01*
X42361786Y-36270190D01*
X42246881Y-36385095D01*
X42074524Y-36442548D01*
X41787262Y-36442548D01*
X42993762Y-36442548D02*
X42993762Y-35236048D01*
X43798095Y-35236048D02*
X44027905Y-35236048D01*
X44142810Y-35293500D01*
X44257714Y-35408405D01*
X44315167Y-35638214D01*
X44315167Y-36040381D01*
X44257714Y-36270190D01*
X44142810Y-36385095D01*
X44027905Y-36442548D01*
X43798095Y-36442548D01*
X43683191Y-36385095D01*
X43568286Y-36270190D01*
X43510834Y-36040381D01*
X43510834Y-35638214D01*
X43568286Y-35408405D01*
X43683191Y-35293500D01*
X43798095Y-35236048D01*
X44832238Y-36442548D02*
X44832238Y-35236048D01*
X45119500Y-35236048D01*
X45291857Y-35293500D01*
X45406762Y-35408405D01*
X45464214Y-35523310D01*
X45521666Y-35753119D01*
X45521666Y-35925476D01*
X45464214Y-36155286D01*
X45406762Y-36270190D01*
X45291857Y-36385095D01*
X45119500Y-36442548D01*
X44832238Y-36442548D01*
X46038738Y-35810571D02*
X46440905Y-35810571D01*
X46613262Y-36442548D02*
X46038738Y-36442548D01*
X46038738Y-35236048D01*
X46613262Y-35236048D01*
X52287262Y-1942548D02*
X52287262Y-736048D01*
X52574524Y-736048D01*
X52746881Y-793500D01*
X52861786Y-908405D01*
X52919238Y-1023310D01*
X52976690Y-1253119D01*
X52976690Y-1425476D01*
X52919238Y-1655286D01*
X52861786Y-1770190D01*
X52746881Y-1885095D01*
X52574524Y-1942548D01*
X52287262Y-1942548D01*
X53493762Y-1942548D02*
X53493762Y-736048D01*
X54298095Y-736048D02*
X54527905Y-736048D01*
X54642810Y-793500D01*
X54757714Y-908405D01*
X54815167Y-1138214D01*
X54815167Y-1540381D01*
X54757714Y-1770190D01*
X54642810Y-1885095D01*
X54527905Y-1942548D01*
X54298095Y-1942548D01*
X54183191Y-1885095D01*
X54068286Y-1770190D01*
X54010834Y-1540381D01*
X54010834Y-1138214D01*
X54068286Y-908405D01*
X54183191Y-793500D01*
X54298095Y-736048D01*
X55332238Y-1942548D02*
X55332238Y-736048D01*
X55619500Y-736048D01*
X55791857Y-793500D01*
X55906762Y-908405D01*
X55964214Y-1023310D01*
X56021666Y-1253119D01*
X56021666Y-1425476D01*
X55964214Y-1655286D01*
X55906762Y-1770190D01*
X55791857Y-1885095D01*
X55619500Y-1942548D01*
X55332238Y-1942548D01*
X56538738Y-1310571D02*
X56940905Y-1310571D01*
X57113262Y-1942548D02*
X56538738Y-1942548D01*
X56538738Y-736048D01*
X57113262Y-736048D01*
X28804333Y-66638214D02*
X28804333Y-67442548D01*
X28517071Y-66178595D02*
X28229810Y-67040381D01*
X28976690Y-67040381D01*
X29436310Y-67327643D02*
X29493762Y-67385095D01*
X29436310Y-67442548D01*
X29378858Y-67385095D01*
X29436310Y-67327643D01*
X29436310Y-67442548D01*
X29895929Y-66236048D02*
X30700262Y-66236048D01*
X30183191Y-67442548D01*
X31159882Y-67442548D02*
X31159882Y-66236048D01*
X31274787Y-66982929D02*
X31619501Y-67442548D01*
X31619501Y-66638214D02*
X31159882Y-67097833D01*
X36804333Y-67138214D02*
X36804333Y-67942548D01*
X36517071Y-66678595D02*
X36229810Y-67540381D01*
X36976690Y-67540381D01*
X37436310Y-67827643D02*
X37493762Y-67885095D01*
X37436310Y-67942548D01*
X37378858Y-67885095D01*
X37436310Y-67827643D01*
X37436310Y-67942548D01*
X37895929Y-66736048D02*
X38700262Y-66736048D01*
X38183191Y-67942548D01*
X39159882Y-67942548D02*
X39159882Y-66736048D01*
X39274787Y-67482929D02*
X39619501Y-67942548D01*
X39619501Y-67138214D02*
X39159882Y-67597833D01*
X27942548Y-70080762D02*
X27942548Y-70770190D01*
X27942548Y-70425476D02*
X26736048Y-70425476D01*
X26908405Y-70540381D01*
X27023310Y-70655286D01*
X27080762Y-70770190D01*
X26736048Y-69333881D02*
X26736048Y-69218976D01*
X26793500Y-69104071D01*
X26850952Y-69046619D01*
X26965857Y-68989166D01*
X27195667Y-68931714D01*
X27482929Y-68931714D01*
X27712738Y-68989166D01*
X27827643Y-69046619D01*
X27885095Y-69104071D01*
X27942548Y-69218976D01*
X27942548Y-69333881D01*
X27885095Y-69448785D01*
X27827643Y-69506238D01*
X27712738Y-69563690D01*
X27482929Y-69621142D01*
X27195667Y-69621142D01*
X26965857Y-69563690D01*
X26850952Y-69506238D01*
X26793500Y-69448785D01*
X26736048Y-69333881D01*
X27942548Y-68414642D02*
X26736048Y-68414642D01*
X27482929Y-68299737D02*
X27942548Y-67955023D01*
X27138214Y-67955023D02*
X27597833Y-68414642D01*
X33419238Y-67442548D02*
X32729810Y-67442548D01*
X33074524Y-67442548D02*
X33074524Y-66236048D01*
X32959619Y-66408405D01*
X32844714Y-66523310D01*
X32729810Y-66580762D01*
X34166119Y-66236048D02*
X34281024Y-66236048D01*
X34395929Y-66293500D01*
X34453381Y-66350952D01*
X34510834Y-66465857D01*
X34568286Y-66695667D01*
X34568286Y-66982929D01*
X34510834Y-67212738D01*
X34453381Y-67327643D01*
X34395929Y-67385095D01*
X34281024Y-67442548D01*
X34166119Y-67442548D01*
X34051215Y-67385095D01*
X33993762Y-67327643D01*
X33936310Y-67212738D01*
X33878858Y-66982929D01*
X33878858Y-66695667D01*
X33936310Y-66465857D01*
X33993762Y-66350952D01*
X34051215Y-66293500D01*
X34166119Y-66236048D01*
X35085358Y-67442548D02*
X35085358Y-66236048D01*
X35200263Y-66982929D02*
X35544977Y-67442548D01*
X35544977Y-66638214D02*
X35085358Y-67097833D01*
X52942548Y-69580762D02*
X52942548Y-70270190D01*
X52942548Y-69925476D02*
X51736048Y-69925476D01*
X51908405Y-70040381D01*
X52023310Y-70155286D01*
X52080762Y-70270190D01*
X51736048Y-68833881D02*
X51736048Y-68718976D01*
X51793500Y-68604071D01*
X51850952Y-68546619D01*
X51965857Y-68489166D01*
X52195667Y-68431714D01*
X52482929Y-68431714D01*
X52712738Y-68489166D01*
X52827643Y-68546619D01*
X52885095Y-68604071D01*
X52942548Y-68718976D01*
X52942548Y-68833881D01*
X52885095Y-68948785D01*
X52827643Y-69006238D01*
X52712738Y-69063690D01*
X52482929Y-69121142D01*
X52195667Y-69121142D01*
X51965857Y-69063690D01*
X51850952Y-69006238D01*
X51793500Y-68948785D01*
X51736048Y-68833881D01*
X52942548Y-67914642D02*
X51736048Y-67914642D01*
X52482929Y-67799737D02*
X52942548Y-67455023D01*
X52138214Y-67455023D02*
X52597833Y-67914642D01*
X53804333Y-66638214D02*
X53804333Y-67442548D01*
X53517071Y-66178595D02*
X53229810Y-67040381D01*
X53976690Y-67040381D01*
X54436310Y-67327643D02*
X54493762Y-67385095D01*
X54436310Y-67442548D01*
X54378858Y-67385095D01*
X54436310Y-67327643D01*
X54436310Y-67442548D01*
X54895929Y-66236048D02*
X55700262Y-66236048D01*
X55183191Y-67442548D01*
X56159882Y-67442548D02*
X56159882Y-66236048D01*
X56274787Y-66982929D02*
X56619501Y-67442548D01*
X56619501Y-66638214D02*
X56159882Y-67097833D01*
X57919238Y-67442548D02*
X57229810Y-67442548D01*
X57574524Y-67442548D02*
X57574524Y-66236048D01*
X57459619Y-66408405D01*
X57344714Y-66523310D01*
X57229810Y-66580762D01*
X58666119Y-66236048D02*
X58781024Y-66236048D01*
X58895929Y-66293500D01*
X58953381Y-66350952D01*
X59010834Y-66465857D01*
X59068286Y-66695667D01*
X59068286Y-66982929D01*
X59010834Y-67212738D01*
X58953381Y-67327643D01*
X58895929Y-67385095D01*
X58781024Y-67442548D01*
X58666119Y-67442548D01*
X58551215Y-67385095D01*
X58493762Y-67327643D01*
X58436310Y-67212738D01*
X58378858Y-66982929D01*
X58378858Y-66695667D01*
X58436310Y-66465857D01*
X58493762Y-66350952D01*
X58551215Y-66293500D01*
X58666119Y-66236048D01*
X59585358Y-67442548D02*
X59585358Y-66236048D01*
X59700263Y-66982929D02*
X60044977Y-67442548D01*
X60044977Y-66638214D02*
X59585358Y-67097833D01*
X61638214Y-67695667D02*
X62442548Y-67695667D01*
X61178595Y-67982929D02*
X62040381Y-68270190D01*
X62040381Y-67523310D01*
X62327643Y-67063690D02*
X62385095Y-67006238D01*
X62442548Y-67063690D01*
X62385095Y-67121142D01*
X62327643Y-67063690D01*
X62442548Y-67063690D01*
X61236048Y-66604071D02*
X61236048Y-65799738D01*
X62442548Y-66316809D01*
X62442548Y-65340118D02*
X61236048Y-65340118D01*
X61982929Y-65225213D02*
X62442548Y-64880499D01*
X61638214Y-64880499D02*
X62097833Y-65340118D01*
X69236048Y-31482929D02*
X69236048Y-31368024D01*
X69293500Y-31253119D01*
X69350952Y-31195667D01*
X69465857Y-31138214D01*
X69695667Y-31080762D01*
X69982929Y-31080762D01*
X70212738Y-31138214D01*
X70327643Y-31195667D01*
X70385095Y-31253119D01*
X70442548Y-31368024D01*
X70442548Y-31482929D01*
X70385095Y-31597833D01*
X70327643Y-31655286D01*
X70212738Y-31712738D01*
X69982929Y-31770190D01*
X69695667Y-31770190D01*
X69465857Y-31712738D01*
X69350952Y-31655286D01*
X69293500Y-31597833D01*
X69236048Y-31482929D01*
X70327643Y-30563690D02*
X70385095Y-30506238D01*
X70442548Y-30563690D01*
X70385095Y-30621142D01*
X70327643Y-30563690D01*
X70442548Y-30563690D01*
X70442548Y-29357190D02*
X70442548Y-30046618D01*
X70442548Y-29701904D02*
X69236048Y-29701904D01*
X69408405Y-29816809D01*
X69523310Y-29931714D01*
X69580762Y-30046618D01*
X69638214Y-28323047D02*
X70442548Y-28323047D01*
X69638214Y-28840118D02*
X70270190Y-28840118D01*
X70385095Y-28782666D01*
X70442548Y-28667761D01*
X70442548Y-28495404D01*
X70385095Y-28380499D01*
X70327643Y-28323047D01*
X53236048Y-9482929D02*
X53236048Y-9368024D01*
X53293500Y-9253119D01*
X53350952Y-9195667D01*
X53465857Y-9138214D01*
X53695667Y-9080762D01*
X53982929Y-9080762D01*
X54212738Y-9138214D01*
X54327643Y-9195667D01*
X54385095Y-9253119D01*
X54442548Y-9368024D01*
X54442548Y-9482929D01*
X54385095Y-9597833D01*
X54327643Y-9655286D01*
X54212738Y-9712738D01*
X53982929Y-9770190D01*
X53695667Y-9770190D01*
X53465857Y-9712738D01*
X53350952Y-9655286D01*
X53293500Y-9597833D01*
X53236048Y-9482929D01*
X54327643Y-8563690D02*
X54385095Y-8506238D01*
X54442548Y-8563690D01*
X54385095Y-8621142D01*
X54327643Y-8563690D01*
X54442548Y-8563690D01*
X54442548Y-7357190D02*
X54442548Y-8046618D01*
X54442548Y-7701904D02*
X53236048Y-7701904D01*
X53408405Y-7816809D01*
X53523310Y-7931714D01*
X53580762Y-8046618D01*
X53638214Y-6323047D02*
X54442548Y-6323047D01*
X53638214Y-6840118D02*
X54270190Y-6840118D01*
X54385095Y-6782666D01*
X54442548Y-6667761D01*
X54442548Y-6495404D01*
X54385095Y-6380499D01*
X54327643Y-6323047D01*
X29141048Y-8617929D02*
X29141048Y-8503024D01*
X29198500Y-8388119D01*
X29255952Y-8330667D01*
X29370857Y-8273214D01*
X29600667Y-8215762D01*
X29887929Y-8215762D01*
X30117738Y-8273214D01*
X30232643Y-8330667D01*
X30290095Y-8388119D01*
X30347548Y-8503024D01*
X30347548Y-8617929D01*
X30290095Y-8732833D01*
X30232643Y-8790286D01*
X30117738Y-8847738D01*
X29887929Y-8905190D01*
X29600667Y-8905190D01*
X29370857Y-8847738D01*
X29255952Y-8790286D01*
X29198500Y-8732833D01*
X29141048Y-8617929D01*
X30232643Y-7698690D02*
X30290095Y-7641238D01*
X30347548Y-7698690D01*
X30290095Y-7756142D01*
X30232643Y-7698690D01*
X30347548Y-7698690D01*
X30347548Y-6492190D02*
X30347548Y-7181618D01*
X30347548Y-6836904D02*
X29141048Y-6836904D01*
X29313405Y-6951809D01*
X29428310Y-7066714D01*
X29485762Y-7181618D01*
X29543214Y-5458047D02*
X30347548Y-5458047D01*
X29543214Y-5975118D02*
X30175190Y-5975118D01*
X30290095Y-5917666D01*
X30347548Y-5802761D01*
X30347548Y-5630404D01*
X30290095Y-5515499D01*
X30232643Y-5458047D01*
X64442548Y-31080762D02*
X64442548Y-31770190D01*
X64442548Y-31425476D02*
X63236048Y-31425476D01*
X63408405Y-31540381D01*
X63523310Y-31655286D01*
X63580762Y-31770190D01*
X63236048Y-30333881D02*
X63236048Y-30218976D01*
X63293500Y-30104071D01*
X63350952Y-30046619D01*
X63465857Y-29989166D01*
X63695667Y-29931714D01*
X63982929Y-29931714D01*
X64212738Y-29989166D01*
X64327643Y-30046619D01*
X64385095Y-30104071D01*
X64442548Y-30218976D01*
X64442548Y-30333881D01*
X64385095Y-30448785D01*
X64327643Y-30506238D01*
X64212738Y-30563690D01*
X63982929Y-30621142D01*
X63695667Y-30621142D01*
X63465857Y-30563690D01*
X63350952Y-30506238D01*
X63293500Y-30448785D01*
X63236048Y-30333881D01*
X64442548Y-29414642D02*
X63236048Y-29414642D01*
X63982929Y-29299737D02*
X64442548Y-28955023D01*
X63638214Y-28955023D02*
X64097833Y-29414642D01*
D17*
X2648572Y-19665429D02*
X3156572Y-21189429D01*
X3664572Y-19665429D01*
X4172572Y-20608857D02*
X5333715Y-20608857D01*
X7865429Y-23951428D02*
X9389429Y-23443428D01*
X7865429Y-22935428D01*
X8808857Y-22427428D02*
X8808857Y-21266285D01*
X9389429Y-21846856D02*
X8228286Y-21846856D01*
D16*
X68442548Y-30580762D02*
X68442548Y-31270190D01*
X68442548Y-30925476D02*
X67236048Y-30925476D01*
X67408405Y-31040381D01*
X67523310Y-31155286D01*
X67580762Y-31270190D01*
X68442548Y-30063690D02*
X67236048Y-30063690D01*
X67982929Y-29948785D02*
X68442548Y-29604071D01*
X67638214Y-29604071D02*
X68097833Y-30063690D01*
X66442548Y-30580762D02*
X66442548Y-31270190D01*
X66442548Y-30925476D02*
X65236048Y-30925476D01*
X65408405Y-31040381D01*
X65523310Y-31155286D01*
X65580762Y-31270190D01*
X66442548Y-30063690D02*
X65236048Y-30063690D01*
X65982929Y-29948785D02*
X66442548Y-29604071D01*
X65638214Y-29604071D02*
X66097833Y-30063690D01*
X37861786Y-56942548D02*
X37287262Y-56942548D01*
X37287262Y-55736048D01*
X38263952Y-56310571D02*
X38666119Y-56310571D01*
X38838476Y-56942548D02*
X38263952Y-56942548D01*
X38263952Y-55736048D01*
X38838476Y-55736048D01*
X39355547Y-56942548D02*
X39355547Y-55736048D01*
X39642809Y-55736048D01*
X39815166Y-55793500D01*
X39930071Y-55908405D01*
X39987523Y-56023310D01*
X40044975Y-56253119D01*
X40044975Y-56425476D01*
X39987523Y-56655286D01*
X39930071Y-56770190D01*
X39815166Y-56885095D01*
X39642809Y-56942548D01*
X39355547Y-56942548D01*
X37861786Y-55442548D02*
X37287262Y-55442548D01*
X37287262Y-54236048D01*
X38263952Y-54810571D02*
X38666119Y-54810571D01*
X38838476Y-55442548D02*
X38263952Y-55442548D01*
X38263952Y-54236048D01*
X38838476Y-54236048D01*
X39355547Y-55442548D02*
X39355547Y-54236048D01*
X39642809Y-54236048D01*
X39815166Y-54293500D01*
X39930071Y-54408405D01*
X39987523Y-54523310D01*
X40044975Y-54753119D01*
X40044975Y-54925476D01*
X39987523Y-55155286D01*
X39930071Y-55270190D01*
X39815166Y-55385095D01*
X39642809Y-55442548D01*
X39355547Y-55442548D01*
X37861786Y-53942548D02*
X37287262Y-53942548D01*
X37287262Y-52736048D01*
X38263952Y-53310571D02*
X38666119Y-53310571D01*
X38838476Y-53942548D02*
X38263952Y-53942548D01*
X38263952Y-52736048D01*
X38838476Y-52736048D01*
X39355547Y-53942548D02*
X39355547Y-52736048D01*
X39642809Y-52736048D01*
X39815166Y-52793500D01*
X39930071Y-52908405D01*
X39987523Y-53023310D01*
X40044975Y-53253119D01*
X40044975Y-53425476D01*
X39987523Y-53655286D01*
X39930071Y-53770190D01*
X39815166Y-53885095D01*
X39642809Y-53942548D01*
X39355547Y-53942548D01*
X27919238Y-57942548D02*
X27229810Y-57942548D01*
X27574524Y-57942548D02*
X27574524Y-56736048D01*
X27459619Y-56908405D01*
X27344714Y-57023310D01*
X27229810Y-57080762D01*
X28666119Y-56736048D02*
X28781024Y-56736048D01*
X28895929Y-56793500D01*
X28953381Y-56850952D01*
X29010834Y-56965857D01*
X29068286Y-57195667D01*
X29068286Y-57482929D01*
X29010834Y-57712738D01*
X28953381Y-57827643D01*
X28895929Y-57885095D01*
X28781024Y-57942548D01*
X28666119Y-57942548D01*
X28551215Y-57885095D01*
X28493762Y-57827643D01*
X28436310Y-57712738D01*
X28378858Y-57482929D01*
X28378858Y-57195667D01*
X28436310Y-56965857D01*
X28493762Y-56850952D01*
X28551215Y-56793500D01*
X28666119Y-56736048D01*
X29815167Y-56736048D02*
X29930072Y-56736048D01*
X30044977Y-56793500D01*
X30102429Y-56850952D01*
X30159882Y-56965857D01*
X30217334Y-57195667D01*
X30217334Y-57482929D01*
X30159882Y-57712738D01*
X30102429Y-57827643D01*
X30044977Y-57885095D01*
X29930072Y-57942548D01*
X29815167Y-57942548D01*
X29700263Y-57885095D01*
X29642810Y-57827643D01*
X29585358Y-57712738D01*
X29527906Y-57482929D01*
X29527906Y-57195667D01*
X29585358Y-56965857D01*
X29642810Y-56850952D01*
X29700263Y-56793500D01*
X29815167Y-56736048D01*
X27919238Y-54942548D02*
X27229810Y-54942548D01*
X27574524Y-54942548D02*
X27574524Y-53736048D01*
X27459619Y-53908405D01*
X27344714Y-54023310D01*
X27229810Y-54080762D01*
X28666119Y-53736048D02*
X28781024Y-53736048D01*
X28895929Y-53793500D01*
X28953381Y-53850952D01*
X29010834Y-53965857D01*
X29068286Y-54195667D01*
X29068286Y-54482929D01*
X29010834Y-54712738D01*
X28953381Y-54827643D01*
X28895929Y-54885095D01*
X28781024Y-54942548D01*
X28666119Y-54942548D01*
X28551215Y-54885095D01*
X28493762Y-54827643D01*
X28436310Y-54712738D01*
X28378858Y-54482929D01*
X28378858Y-54195667D01*
X28436310Y-53965857D01*
X28493762Y-53850952D01*
X28551215Y-53793500D01*
X28666119Y-53736048D01*
X29815167Y-53736048D02*
X29930072Y-53736048D01*
X30044977Y-53793500D01*
X30102429Y-53850952D01*
X30159882Y-53965857D01*
X30217334Y-54195667D01*
X30217334Y-54482929D01*
X30159882Y-54712738D01*
X30102429Y-54827643D01*
X30044977Y-54885095D01*
X29930072Y-54942548D01*
X29815167Y-54942548D01*
X29700263Y-54885095D01*
X29642810Y-54827643D01*
X29585358Y-54712738D01*
X29527906Y-54482929D01*
X29527906Y-54195667D01*
X29585358Y-53965857D01*
X29642810Y-53850952D01*
X29700263Y-53793500D01*
X29815167Y-53736048D01*
X27919238Y-53442548D02*
X27229810Y-53442548D01*
X27574524Y-53442548D02*
X27574524Y-52236048D01*
X27459619Y-52408405D01*
X27344714Y-52523310D01*
X27229810Y-52580762D01*
X28666119Y-52236048D02*
X28781024Y-52236048D01*
X28895929Y-52293500D01*
X28953381Y-52350952D01*
X29010834Y-52465857D01*
X29068286Y-52695667D01*
X29068286Y-52982929D01*
X29010834Y-53212738D01*
X28953381Y-53327643D01*
X28895929Y-53385095D01*
X28781024Y-53442548D01*
X28666119Y-53442548D01*
X28551215Y-53385095D01*
X28493762Y-53327643D01*
X28436310Y-53212738D01*
X28378858Y-52982929D01*
X28378858Y-52695667D01*
X28436310Y-52465857D01*
X28493762Y-52350952D01*
X28551215Y-52293500D01*
X28666119Y-52236048D01*
X29815167Y-52236048D02*
X29930072Y-52236048D01*
X30044977Y-52293500D01*
X30102429Y-52350952D01*
X30159882Y-52465857D01*
X30217334Y-52695667D01*
X30217334Y-52982929D01*
X30159882Y-53212738D01*
X30102429Y-53327643D01*
X30044977Y-53385095D01*
X29930072Y-53442548D01*
X29815167Y-53442548D01*
X29700263Y-53385095D01*
X29642810Y-53327643D01*
X29585358Y-53212738D01*
X29527906Y-52982929D01*
X29527906Y-52695667D01*
X29585358Y-52465857D01*
X29642810Y-52350952D01*
X29700263Y-52293500D01*
X29815167Y-52236048D01*
D17*
X47448572Y-22165429D02*
X47956572Y-23689429D01*
X48464572Y-22165429D01*
X48972572Y-23108857D02*
X50133715Y-23108857D01*
X43465429Y-22451428D02*
X44989429Y-21943428D01*
X43465429Y-21435428D01*
X44408857Y-20927428D02*
X44408857Y-19766285D01*
X44989429Y-20346856D02*
X43828286Y-20346856D01*
X23448572Y-22165429D02*
X23956572Y-23689429D01*
X24464572Y-22165429D01*
X24972572Y-23108857D02*
X26133715Y-23108857D01*
X19465429Y-22451428D02*
X20989429Y-21943428D01*
X19465429Y-21435428D01*
X20408857Y-20927428D02*
X20408857Y-19766285D01*
X20989429Y-20346856D02*
X19828286Y-20346856D01*
%LPC*%
D18*
X63000000Y-9000000D03*
D19*
X65500000Y-9000000D03*
D20*
X52500000Y-72000000D03*
X55000000Y-72000000D03*
X57500000Y-72000000D03*
X60000000Y-72000000D03*
D21*
X56250000Y-78500000D03*
D20*
X15000000Y-72000000D03*
X17500000Y-72000000D03*
X20000000Y-72000000D03*
X22500000Y-72000000D03*
D21*
X18750000Y-78500000D03*
D22*
X9000000Y-60500000D03*
X9000000Y-63000000D03*
X9000000Y-65500000D03*
X9000000Y-68000000D03*
D21*
X2500000Y-64250000D03*
D23*
X4000000Y-33500000D03*
D24*
X9000000Y-33500000D03*
D25*
X25555000Y-45700000D03*
X26825000Y-45700000D03*
X28095000Y-45700000D03*
X29365000Y-45700000D03*
X30635000Y-45700000D03*
X31905000Y-45700000D03*
X33175000Y-45700000D03*
X34445000Y-45700000D03*
X34445000Y-40300000D03*
X33175000Y-40300000D03*
X31905000Y-40300000D03*
X30635000Y-40300000D03*
X29365000Y-40300000D03*
X28095000Y-40300000D03*
X26825000Y-40300000D03*
X25555000Y-40300000D03*
D10*
G36*
X43108311Y-60462221D02*
X42648692Y-60002602D01*
X43850773Y-58800521D01*
X44310392Y-59260140D01*
X43108311Y-60462221D01*
X43108311Y-60462221D01*
G37*
G36*
X43461864Y-60815774D02*
X43002245Y-60356155D01*
X44204326Y-59154074D01*
X44663945Y-59613693D01*
X43461864Y-60815774D01*
X43461864Y-60815774D01*
G37*
G36*
X43815418Y-61169328D02*
X43355799Y-60709709D01*
X44557880Y-59507628D01*
X45017499Y-59967247D01*
X43815418Y-61169328D01*
X43815418Y-61169328D01*
G37*
G36*
X44168971Y-61522881D02*
X43709352Y-61063262D01*
X44911433Y-59861181D01*
X45371052Y-60320800D01*
X44168971Y-61522881D01*
X44168971Y-61522881D01*
G37*
G36*
X44522524Y-61876434D02*
X44062905Y-61416815D01*
X45264986Y-60214734D01*
X45724605Y-60674353D01*
X44522524Y-61876434D01*
X44522524Y-61876434D01*
G37*
G36*
X44876078Y-62229988D02*
X44416459Y-61770369D01*
X45618540Y-60568288D01*
X46078159Y-61027907D01*
X44876078Y-62229988D01*
X44876078Y-62229988D01*
G37*
G36*
X45229631Y-62583541D02*
X44770012Y-62123922D01*
X45972093Y-60921841D01*
X46431712Y-61381460D01*
X45229631Y-62583541D01*
X45229631Y-62583541D01*
G37*
G36*
X45583185Y-62937095D02*
X45123566Y-62477476D01*
X46325647Y-61275395D01*
X46785266Y-61735014D01*
X45583185Y-62937095D01*
X45583185Y-62937095D01*
G37*
G36*
X45936738Y-63290648D02*
X45477119Y-62831029D01*
X46679200Y-61628948D01*
X47138819Y-62088567D01*
X45936738Y-63290648D01*
X45936738Y-63290648D01*
G37*
G36*
X46290291Y-63644201D02*
X45830672Y-63184582D01*
X47032753Y-61982501D01*
X47492372Y-62442120D01*
X46290291Y-63644201D01*
X46290291Y-63644201D01*
G37*
G36*
X46643845Y-63997755D02*
X46184226Y-63538136D01*
X47386307Y-62336055D01*
X47845926Y-62795674D01*
X46643845Y-63997755D01*
X46643845Y-63997755D01*
G37*
G36*
X46997398Y-64351308D02*
X46537779Y-63891689D01*
X47739860Y-62689608D01*
X48199479Y-63149227D01*
X46997398Y-64351308D01*
X46997398Y-64351308D01*
G37*
G36*
X50462221Y-63891689D02*
X50002602Y-64351308D01*
X48800521Y-63149227D01*
X49260140Y-62689608D01*
X50462221Y-63891689D01*
X50462221Y-63891689D01*
G37*
G36*
X50815774Y-63538136D02*
X50356155Y-63997755D01*
X49154074Y-62795674D01*
X49613693Y-62336055D01*
X50815774Y-63538136D01*
X50815774Y-63538136D01*
G37*
G36*
X51169328Y-63184582D02*
X50709709Y-63644201D01*
X49507628Y-62442120D01*
X49967247Y-61982501D01*
X51169328Y-63184582D01*
X51169328Y-63184582D01*
G37*
G36*
X51522881Y-62831029D02*
X51063262Y-63290648D01*
X49861181Y-62088567D01*
X50320800Y-61628948D01*
X51522881Y-62831029D01*
X51522881Y-62831029D01*
G37*
G36*
X51876434Y-62477476D02*
X51416815Y-62937095D01*
X50214734Y-61735014D01*
X50674353Y-61275395D01*
X51876434Y-62477476D01*
X51876434Y-62477476D01*
G37*
G36*
X52229988Y-62123922D02*
X51770369Y-62583541D01*
X50568288Y-61381460D01*
X51027907Y-60921841D01*
X52229988Y-62123922D01*
X52229988Y-62123922D01*
G37*
G36*
X52583541Y-61770369D02*
X52123922Y-62229988D01*
X50921841Y-61027907D01*
X51381460Y-60568288D01*
X52583541Y-61770369D01*
X52583541Y-61770369D01*
G37*
G36*
X52937095Y-61416815D02*
X52477476Y-61876434D01*
X51275395Y-60674353D01*
X51735014Y-60214734D01*
X52937095Y-61416815D01*
X52937095Y-61416815D01*
G37*
G36*
X53290648Y-61063262D02*
X52831029Y-61522881D01*
X51628948Y-60320800D01*
X52088567Y-59861181D01*
X53290648Y-61063262D01*
X53290648Y-61063262D01*
G37*
G36*
X53644201Y-60709709D02*
X53184582Y-61169328D01*
X51982501Y-59967247D01*
X52442120Y-59507628D01*
X53644201Y-60709709D01*
X53644201Y-60709709D01*
G37*
G36*
X53997755Y-60356155D02*
X53538136Y-60815774D01*
X52336055Y-59613693D01*
X52795674Y-59154074D01*
X53997755Y-60356155D01*
X53997755Y-60356155D01*
G37*
G36*
X54351308Y-60002602D02*
X53891689Y-60462221D01*
X52689608Y-59260140D01*
X53149227Y-58800521D01*
X54351308Y-60002602D01*
X54351308Y-60002602D01*
G37*
G36*
X53149227Y-58199479D02*
X52689608Y-57739860D01*
X53891689Y-56537779D01*
X54351308Y-56997398D01*
X53149227Y-58199479D01*
X53149227Y-58199479D01*
G37*
G36*
X52795674Y-57845926D02*
X52336055Y-57386307D01*
X53538136Y-56184226D01*
X53997755Y-56643845D01*
X52795674Y-57845926D01*
X52795674Y-57845926D01*
G37*
G36*
X52442120Y-57492372D02*
X51982501Y-57032753D01*
X53184582Y-55830672D01*
X53644201Y-56290291D01*
X52442120Y-57492372D01*
X52442120Y-57492372D01*
G37*
G36*
X52088567Y-57138819D02*
X51628948Y-56679200D01*
X52831029Y-55477119D01*
X53290648Y-55936738D01*
X52088567Y-57138819D01*
X52088567Y-57138819D01*
G37*
G36*
X51735014Y-56785266D02*
X51275395Y-56325647D01*
X52477476Y-55123566D01*
X52937095Y-55583185D01*
X51735014Y-56785266D01*
X51735014Y-56785266D01*
G37*
G36*
X51381460Y-56431712D02*
X50921841Y-55972093D01*
X52123922Y-54770012D01*
X52583541Y-55229631D01*
X51381460Y-56431712D01*
X51381460Y-56431712D01*
G37*
G36*
X51027907Y-56078159D02*
X50568288Y-55618540D01*
X51770369Y-54416459D01*
X52229988Y-54876078D01*
X51027907Y-56078159D01*
X51027907Y-56078159D01*
G37*
G36*
X50674353Y-55724605D02*
X50214734Y-55264986D01*
X51416815Y-54062905D01*
X51876434Y-54522524D01*
X50674353Y-55724605D01*
X50674353Y-55724605D01*
G37*
G36*
X50320800Y-55371052D02*
X49861181Y-54911433D01*
X51063262Y-53709352D01*
X51522881Y-54168971D01*
X50320800Y-55371052D01*
X50320800Y-55371052D01*
G37*
G36*
X49967247Y-55017499D02*
X49507628Y-54557880D01*
X50709709Y-53355799D01*
X51169328Y-53815418D01*
X49967247Y-55017499D01*
X49967247Y-55017499D01*
G37*
G36*
X49613693Y-54663945D02*
X49154074Y-54204326D01*
X50356155Y-53002245D01*
X50815774Y-53461864D01*
X49613693Y-54663945D01*
X49613693Y-54663945D01*
G37*
G36*
X49260140Y-54310392D02*
X48800521Y-53850773D01*
X50002602Y-52648692D01*
X50462221Y-53108311D01*
X49260140Y-54310392D01*
X49260140Y-54310392D01*
G37*
G36*
X48199479Y-53850773D02*
X47739860Y-54310392D01*
X46537779Y-53108311D01*
X46997398Y-52648692D01*
X48199479Y-53850773D01*
X48199479Y-53850773D01*
G37*
G36*
X47845926Y-54204326D02*
X47386307Y-54663945D01*
X46184226Y-53461864D01*
X46643845Y-53002245D01*
X47845926Y-54204326D01*
X47845926Y-54204326D01*
G37*
G36*
X47492372Y-54557880D02*
X47032753Y-55017499D01*
X45830672Y-53815418D01*
X46290291Y-53355799D01*
X47492372Y-54557880D01*
X47492372Y-54557880D01*
G37*
G36*
X47138819Y-54911433D02*
X46679200Y-55371052D01*
X45477119Y-54168971D01*
X45936738Y-53709352D01*
X47138819Y-54911433D01*
X47138819Y-54911433D01*
G37*
G36*
X46785266Y-55264986D02*
X46325647Y-55724605D01*
X45123566Y-54522524D01*
X45583185Y-54062905D01*
X46785266Y-55264986D01*
X46785266Y-55264986D01*
G37*
G36*
X46431712Y-55618540D02*
X45972093Y-56078159D01*
X44770012Y-54876078D01*
X45229631Y-54416459D01*
X46431712Y-55618540D01*
X46431712Y-55618540D01*
G37*
G36*
X46078159Y-55972093D02*
X45618540Y-56431712D01*
X44416459Y-55229631D01*
X44876078Y-54770012D01*
X46078159Y-55972093D01*
X46078159Y-55972093D01*
G37*
G36*
X45724605Y-56325647D02*
X45264986Y-56785266D01*
X44062905Y-55583185D01*
X44522524Y-55123566D01*
X45724605Y-56325647D01*
X45724605Y-56325647D01*
G37*
G36*
X45371052Y-56679200D02*
X44911433Y-57138819D01*
X43709352Y-55936738D01*
X44168971Y-55477119D01*
X45371052Y-56679200D01*
X45371052Y-56679200D01*
G37*
G36*
X45017499Y-57032753D02*
X44557880Y-57492372D01*
X43355799Y-56290291D01*
X43815418Y-55830672D01*
X45017499Y-57032753D01*
X45017499Y-57032753D01*
G37*
G36*
X44663945Y-57386307D02*
X44204326Y-57845926D01*
X43002245Y-56643845D01*
X43461864Y-56184226D01*
X44663945Y-57386307D01*
X44663945Y-57386307D01*
G37*
G36*
X44310392Y-57739860D02*
X43850773Y-58199479D01*
X42648692Y-56997398D01*
X43108311Y-56537779D01*
X44310392Y-57739860D01*
X44310392Y-57739860D01*
G37*
D18*
X16500000Y-52500000D03*
D19*
X16500000Y-50000000D03*
D26*
X25400000Y-37500000D03*
X28600000Y-37500000D03*
X31400000Y-37500000D03*
X34600000Y-37500000D03*
X13400000Y-37500000D03*
X16600000Y-37500000D03*
X19400000Y-37500000D03*
X22600000Y-37500000D03*
X49400000Y-37500000D03*
X52600000Y-37500000D03*
X55400000Y-37500000D03*
X58600000Y-37500000D03*
X37400000Y-37500000D03*
X40600000Y-37500000D03*
X43400000Y-37500000D03*
X46600000Y-37500000D03*
D27*
X1500000Y-72500000D03*
D28*
X4040000Y-72500000D03*
D25*
X13555000Y-45700000D03*
X14825000Y-45700000D03*
X16095000Y-45700000D03*
X17365000Y-45700000D03*
X18635000Y-45700000D03*
X19905000Y-45700000D03*
X21175000Y-45700000D03*
X22445000Y-45700000D03*
X22445000Y-40300000D03*
X21175000Y-40300000D03*
X19905000Y-40300000D03*
X18635000Y-40300000D03*
X17365000Y-40300000D03*
X16095000Y-40300000D03*
X14825000Y-40300000D03*
X13555000Y-40300000D03*
X49555000Y-45700000D03*
X50825000Y-45700000D03*
X52095000Y-45700000D03*
X53365000Y-45700000D03*
X54635000Y-45700000D03*
X55905000Y-45700000D03*
X57175000Y-45700000D03*
X58445000Y-45700000D03*
X58445000Y-40300000D03*
X57175000Y-40300000D03*
X55905000Y-40300000D03*
X54635000Y-40300000D03*
X53365000Y-40300000D03*
X52095000Y-40300000D03*
X50825000Y-40300000D03*
X49555000Y-40300000D03*
X37555000Y-45700000D03*
X38825000Y-45700000D03*
X40095000Y-45700000D03*
X41365000Y-45700000D03*
X42635000Y-45700000D03*
X43905000Y-45700000D03*
X45175000Y-45700000D03*
X46445000Y-45700000D03*
X46445000Y-40300000D03*
X45175000Y-40300000D03*
X43905000Y-40300000D03*
X42635000Y-40300000D03*
X41365000Y-40300000D03*
X40095000Y-40300000D03*
X38825000Y-40300000D03*
X37555000Y-40300000D03*
D10*
G36*
X35444365Y-62934315D02*
X36434315Y-61944365D01*
X37282843Y-62792893D01*
X36292893Y-63782843D01*
X35444365Y-62934315D01*
X35444365Y-62934315D01*
G37*
G36*
X36717157Y-64207107D02*
X37707107Y-63217157D01*
X38555635Y-64065685D01*
X37565685Y-65055635D01*
X36717157Y-64207107D01*
X36717157Y-64207107D01*
G37*
G36*
X41055635Y-66565685D02*
X40065685Y-67555635D01*
X39217157Y-66707107D01*
X40207107Y-65717157D01*
X41055635Y-66565685D01*
X41055635Y-66565685D01*
G37*
G36*
X39782843Y-65292893D02*
X38792893Y-66282843D01*
X37944365Y-65434315D01*
X38934315Y-64444365D01*
X39782843Y-65292893D01*
X39782843Y-65292893D01*
G37*
D29*
X49400000Y-52000000D03*
X47600000Y-52000000D03*
D30*
X42000000Y-57600000D03*
X42000000Y-59400000D03*
D29*
X32900000Y-52000000D03*
X31100000Y-52000000D03*
D30*
X55000000Y-59400000D03*
X55000000Y-57600000D03*
X31000000Y-27400000D03*
X31000000Y-25600000D03*
X20000000Y-27400000D03*
X20000000Y-25600000D03*
X55000000Y-27400000D03*
X55000000Y-25600000D03*
X44000000Y-27400000D03*
X44000000Y-25600000D03*
D29*
X32900000Y-59500000D03*
X31100000Y-59500000D03*
D30*
X11500000Y-49900000D03*
X11500000Y-48100000D03*
X62000000Y-32600000D03*
X62000000Y-34400000D03*
D29*
X26100000Y-32500000D03*
X27900000Y-32500000D03*
X14100000Y-32500000D03*
X15900000Y-32500000D03*
X31100000Y-32500000D03*
X32900000Y-32500000D03*
X50100000Y-32500000D03*
X51900000Y-32500000D03*
X38100000Y-32500000D03*
X39900000Y-32500000D03*
X43100000Y-32500000D03*
X44900000Y-32500000D03*
X19100000Y-32500000D03*
X20900000Y-32500000D03*
X55100000Y-32500000D03*
X56900000Y-32500000D03*
D31*
X22500000Y-63400000D03*
X22500000Y-66600000D03*
D29*
X32900000Y-50500000D03*
X31100000Y-50500000D03*
X36400000Y-52000000D03*
X34600000Y-52000000D03*
X36400000Y-59500000D03*
X34600000Y-59500000D03*
D30*
X11500000Y-53400000D03*
X11500000Y-51600000D03*
X62000000Y-29100000D03*
X62000000Y-30900000D03*
D29*
X36400000Y-50500000D03*
X34600000Y-50500000D03*
D31*
X14000000Y-55400000D03*
X14000000Y-58600000D03*
X19000000Y-55400000D03*
X19000000Y-58600000D03*
D32*
X71300000Y-72500000D03*
X65700000Y-72500000D03*
X71300000Y-54500000D03*
X65700000Y-54500000D03*
X71300000Y-50000000D03*
X65700000Y-50000000D03*
D33*
X71500000Y-69250000D03*
X70000000Y-69250000D03*
X68500000Y-69250000D03*
X67000000Y-69250000D03*
X65500000Y-69250000D03*
X64000000Y-69250000D03*
D34*
X71810000Y-64540000D03*
X71810000Y-62000000D03*
X71810000Y-59460000D03*
X64190000Y-59460000D03*
X64190000Y-62000000D03*
X64190000Y-64540000D03*
D10*
G36*
X36893755Y-62015075D02*
X39015075Y-59893755D01*
X40853553Y-61732233D01*
X38732233Y-63853553D01*
X36893755Y-62015075D01*
X36893755Y-62015075D01*
G37*
G36*
X40217158Y-65338478D02*
X42338478Y-63217158D01*
X44035534Y-64914214D01*
X41914214Y-67035534D01*
X40217158Y-65338478D01*
X40217158Y-65338478D01*
G37*
D22*
X9000000Y-48000000D03*
X9000000Y-50500000D03*
X9000000Y-53000000D03*
X9000000Y-55500000D03*
D21*
X2500000Y-51750000D03*
D35*
X9800000Y-14000000D03*
D36*
X4100000Y-14400000D03*
D29*
X27900000Y-34500000D03*
X26100000Y-34500000D03*
X15900000Y-34500000D03*
X14100000Y-34500000D03*
X51900000Y-34500000D03*
X50100000Y-34500000D03*
X39900000Y-34500000D03*
X38100000Y-34500000D03*
X32900000Y-34500000D03*
X31100000Y-34500000D03*
X20900000Y-34500000D03*
X19100000Y-34500000D03*
X56900000Y-34500000D03*
X55100000Y-34500000D03*
X44900000Y-34500000D03*
X43100000Y-34500000D03*
D37*
X20000000Y-66300000D03*
X20000000Y-64000000D03*
X20000000Y-61700000D03*
D38*
X13700000Y-64000000D03*
D20*
X27500000Y-72000000D03*
X30000000Y-72000000D03*
X32500000Y-72000000D03*
X35000000Y-72000000D03*
D21*
X31250000Y-78500000D03*
D26*
X52900000Y-3500000D03*
X56100000Y-3500000D03*
D30*
X31000000Y-68100000D03*
X31000000Y-69900000D03*
X35000000Y-68100000D03*
X35000000Y-69900000D03*
X29000000Y-69900000D03*
X29000000Y-68100000D03*
X33000000Y-69900000D03*
X33000000Y-68100000D03*
X54000000Y-69900000D03*
X54000000Y-68100000D03*
X56000000Y-68100000D03*
X56000000Y-69900000D03*
X58000000Y-69900000D03*
X58000000Y-68100000D03*
X60000000Y-68100000D03*
X60000000Y-69900000D03*
D25*
X70445000Y-37850000D03*
X69175000Y-37850000D03*
X67905000Y-37850000D03*
X66635000Y-37850000D03*
X65365000Y-37850000D03*
X64095000Y-37850000D03*
X62825000Y-37850000D03*
X61555000Y-37850000D03*
X61555000Y-47150000D03*
X62825000Y-47150000D03*
X64095000Y-47150000D03*
X65365000Y-47150000D03*
X66635000Y-47150000D03*
X67905000Y-47150000D03*
X69175000Y-47150000D03*
X70445000Y-47150000D03*
D39*
X45300000Y-5595000D03*
X45300000Y-6865000D03*
X45300000Y-8135000D03*
X45300000Y-9405000D03*
X50700000Y-9405000D03*
X50700000Y-8135000D03*
X50700000Y-6865000D03*
X50700000Y-5595000D03*
X21300000Y-5595000D03*
X21300000Y-6865000D03*
X21300000Y-8135000D03*
X21300000Y-9405000D03*
X26700000Y-9405000D03*
X26700000Y-8135000D03*
X26700000Y-6865000D03*
X26700000Y-5595000D03*
D30*
X70000000Y-34400000D03*
X70000000Y-32600000D03*
X52500000Y-9400000D03*
X52500000Y-7600000D03*
X28500000Y-9400000D03*
X28500000Y-7600000D03*
D20*
X40000000Y-72000000D03*
X42500000Y-72000000D03*
X45000000Y-72000000D03*
X47500000Y-72000000D03*
D21*
X43750000Y-78500000D03*
D30*
X64000000Y-32600000D03*
X64000000Y-34400000D03*
D40*
X11300000Y-22500000D03*
D36*
X4100000Y-23400000D03*
D30*
X68000000Y-34400000D03*
X68000000Y-32600000D03*
X66000000Y-34400000D03*
X66000000Y-32600000D03*
D29*
X36400000Y-56500000D03*
X34600000Y-56500000D03*
X36400000Y-55000000D03*
X34600000Y-55000000D03*
X36400000Y-53500000D03*
X34600000Y-53500000D03*
X32900000Y-56500000D03*
X31100000Y-56500000D03*
X32900000Y-55000000D03*
X31100000Y-55000000D03*
X32900000Y-53500000D03*
X31100000Y-53500000D03*
D41*
X65150000Y-3500000D03*
X58850000Y-3500000D03*
D42*
X23000000Y-58500000D03*
D43*
X23000000Y-55960000D03*
X23000000Y-53420000D03*
X23000000Y-50880000D03*
D44*
X69500000Y-14650000D03*
X69500000Y-8350000D03*
D45*
X41700000Y-21000000D03*
D46*
X48900000Y-20100000D03*
D45*
X17700000Y-21000000D03*
D46*
X24900000Y-20100000D03*
D22*
X70000000Y-25500000D03*
X70000000Y-23000000D03*
M02*
