G04 #@! TF.FileFunction,Copper,L2,Bot,Signal*
%FSLAX46Y46*%
G04 Gerber Fmt 4.6, Leading zero omitted, Abs format (unit mm)*
G04 Created by KiCad (PCBNEW 4.0.2-stable) date 2016/07/28 10:49:37*
%MOMM*%
G01*
G04 APERTURE LIST*
%ADD10C,0.100000*%
%ADD11R,2.032000X1.727200*%
%ADD12O,2.032000X1.727200*%
%ADD13O,1.500000X2.500000*%
%ADD14C,3.000000*%
%ADD15O,1.501140X2.499360*%
%ADD16R,1.100000X1.000000*%
%ADD17C,1.300000*%
%ADD18R,1.300000X1.300000*%
%ADD19O,2.500000X1.500000*%
%ADD20C,4.000000*%
%ADD21C,1.000000*%
%ADD22C,0.200000*%
G04 APERTURE END LIST*
D10*
D11*
X66040000Y-22860000D03*
D12*
X66040000Y-25400000D03*
X66040000Y-27940000D03*
X66040000Y-30480000D03*
X66040000Y-33020000D03*
X66040000Y-35560000D03*
X66040000Y-38100000D03*
D13*
X55880000Y-40640000D03*
X58380000Y-40640000D03*
D14*
X57130000Y-47140000D03*
D13*
X45720000Y-40640000D03*
X48220000Y-40640000D03*
D14*
X46970000Y-47140000D03*
D13*
X35560000Y-40640000D03*
X38060000Y-40640000D03*
D14*
X36810000Y-47140000D03*
D13*
X25400000Y-40640000D03*
X27900000Y-40640000D03*
D14*
X26650000Y-47140000D03*
D13*
X15240000Y-40640000D03*
X17740000Y-40640000D03*
D14*
X16490000Y-47140000D03*
D15*
X15240000Y-33020000D03*
X17780000Y-33020000D03*
X12700000Y-33020000D03*
D16*
X44870000Y-20955000D03*
X46570000Y-20955000D03*
X44870000Y-17780000D03*
X46570000Y-17780000D03*
D17*
X57785000Y-16200000D03*
D18*
X57785000Y-12700000D03*
D19*
X66040000Y-15240000D03*
X66040000Y-12740000D03*
D14*
X72540000Y-13990000D03*
D20*
X70000000Y-5000000D03*
X70000000Y-45000000D03*
X5000000Y-45000000D03*
X5000000Y-5000000D03*
D21*
X57785000Y-16200000D02*
X56205000Y-17780000D01*
X56205000Y-17780000D02*
X46570000Y-17780000D01*
X57785000Y-16200000D02*
X58745000Y-15240000D01*
X58745000Y-15240000D02*
X66040000Y-15240000D01*
X17780000Y-33020000D02*
X24130000Y-33020000D01*
X24130000Y-33020000D02*
X27305000Y-36195000D01*
X64135000Y-43180000D02*
X55880000Y-43180000D01*
X66040000Y-15240000D02*
X69215000Y-15240000D01*
X69215000Y-15240000D02*
X70485000Y-16510000D01*
X70485000Y-16510000D02*
X70485000Y-36830000D01*
X70485000Y-36830000D02*
X64135000Y-43180000D01*
X45720000Y-43180000D02*
X55880000Y-43180000D01*
X55880000Y-43180000D02*
X55880000Y-40640000D01*
X35560000Y-43180000D02*
X45720000Y-43180000D01*
X45720000Y-43180000D02*
X45720000Y-40640000D01*
X25400000Y-40640000D02*
X25400000Y-43180000D01*
X35560000Y-43180000D02*
X35560000Y-40640000D01*
X25400000Y-43180000D02*
X35560000Y-43180000D01*
X66040000Y-25400000D02*
X38100000Y-25400000D01*
X25400000Y-38100000D02*
X25400000Y-40640000D01*
X38100000Y-25400000D02*
X27305000Y-36195000D01*
X27305000Y-36195000D02*
X25400000Y-38100000D01*
X27900000Y-40640000D02*
X40600000Y-27940000D01*
X40600000Y-27940000D02*
X66040000Y-27940000D01*
X38060000Y-40640000D02*
X48220000Y-30480000D01*
X48220000Y-30480000D02*
X66040000Y-30480000D01*
X48220000Y-40640000D02*
X55840000Y-33020000D01*
X55840000Y-33020000D02*
X66040000Y-33020000D01*
X46570000Y-20955000D02*
X48895000Y-20955000D01*
X67945000Y-33655000D02*
X67945000Y-21590000D01*
X67945000Y-21590000D02*
X67310000Y-20955000D01*
X67310000Y-20955000D02*
X48895000Y-20955000D01*
X67945000Y-33655000D02*
X66040000Y-35560000D01*
X58380000Y-40640000D02*
X60920000Y-38100000D01*
X60920000Y-38100000D02*
X66040000Y-38100000D01*
X15240000Y-40640000D02*
X15240000Y-33020000D01*
X17740000Y-40640000D02*
X17740000Y-41950000D01*
X17740000Y-41950000D02*
X16510000Y-43180000D01*
X56515000Y-12700000D02*
X57785000Y-12700000D01*
X56515000Y-12700000D02*
X52070000Y-12700000D01*
X66000000Y-12700000D02*
X56515000Y-12700000D01*
X16510000Y-43180000D02*
X10795000Y-43180000D01*
X10795000Y-43180000D02*
X9525000Y-41910000D01*
X9525000Y-41910000D02*
X9525000Y-31750000D01*
X9525000Y-31750000D02*
X28575000Y-12700000D01*
X28575000Y-12700000D02*
X52070000Y-12700000D01*
X66000000Y-12700000D02*
X66040000Y-12740000D01*
X44870000Y-17780000D02*
X44870000Y-20955000D01*
X12700000Y-33020000D02*
X12700000Y-31115000D01*
X22860000Y-20955000D02*
X44870000Y-20955000D01*
X12700000Y-31115000D02*
X22860000Y-20955000D01*
D22*
G36*
X74425000Y-13314762D02*
X74236506Y-12858571D01*
X73674388Y-12295471D01*
X72939570Y-11990348D01*
X72143921Y-11989654D01*
X71408571Y-12293494D01*
X70845471Y-12855612D01*
X70540348Y-13590430D01*
X70539654Y-14386079D01*
X70843494Y-15121429D01*
X71405612Y-15684529D01*
X72140430Y-15989652D01*
X72936079Y-15990346D01*
X73671429Y-15686506D01*
X74234529Y-15124388D01*
X74425000Y-14665683D01*
X74425000Y-49425000D01*
X575000Y-49425000D01*
X575000Y-47536079D01*
X14489654Y-47536079D01*
X14793494Y-48271429D01*
X15355612Y-48834529D01*
X16090430Y-49139652D01*
X16886079Y-49140346D01*
X17621429Y-48836506D01*
X18184529Y-48274388D01*
X18489652Y-47539570D01*
X18489655Y-47536079D01*
X24649654Y-47536079D01*
X24953494Y-48271429D01*
X25515612Y-48834529D01*
X26250430Y-49139652D01*
X27046079Y-49140346D01*
X27781429Y-48836506D01*
X28344529Y-48274388D01*
X28649652Y-47539570D01*
X28649655Y-47536079D01*
X34809654Y-47536079D01*
X35113494Y-48271429D01*
X35675612Y-48834529D01*
X36410430Y-49139652D01*
X37206079Y-49140346D01*
X37941429Y-48836506D01*
X38504529Y-48274388D01*
X38809652Y-47539570D01*
X38809655Y-47536079D01*
X44969654Y-47536079D01*
X45273494Y-48271429D01*
X45835612Y-48834529D01*
X46570430Y-49139652D01*
X47366079Y-49140346D01*
X48101429Y-48836506D01*
X48664529Y-48274388D01*
X48969652Y-47539570D01*
X48969655Y-47536079D01*
X55129654Y-47536079D01*
X55433494Y-48271429D01*
X55995612Y-48834529D01*
X56730430Y-49139652D01*
X57526079Y-49140346D01*
X58261429Y-48836506D01*
X58824529Y-48274388D01*
X59129652Y-47539570D01*
X59130346Y-46743921D01*
X58826506Y-46008571D01*
X58313930Y-45495099D01*
X67499567Y-45495099D01*
X67879367Y-46414286D01*
X68582015Y-47118161D01*
X69500538Y-47499565D01*
X70495099Y-47500433D01*
X71414286Y-47120633D01*
X72118161Y-46417985D01*
X72499565Y-45499462D01*
X72500433Y-44504901D01*
X72120633Y-43585714D01*
X71417985Y-42881839D01*
X70499462Y-42500435D01*
X69504901Y-42499567D01*
X68585714Y-42879367D01*
X67881839Y-43582015D01*
X67500435Y-44500538D01*
X67499567Y-45495099D01*
X58313930Y-45495099D01*
X58264388Y-45445471D01*
X57529570Y-45140348D01*
X56733921Y-45139654D01*
X55998571Y-45443494D01*
X55435471Y-46005612D01*
X55130348Y-46740430D01*
X55129654Y-47536079D01*
X48969655Y-47536079D01*
X48970346Y-46743921D01*
X48666506Y-46008571D01*
X48104388Y-45445471D01*
X47369570Y-45140348D01*
X46573921Y-45139654D01*
X45838571Y-45443494D01*
X45275471Y-46005612D01*
X44970348Y-46740430D01*
X44969654Y-47536079D01*
X38809655Y-47536079D01*
X38810346Y-46743921D01*
X38506506Y-46008571D01*
X37944388Y-45445471D01*
X37209570Y-45140348D01*
X36413921Y-45139654D01*
X35678571Y-45443494D01*
X35115471Y-46005612D01*
X34810348Y-46740430D01*
X34809654Y-47536079D01*
X28649655Y-47536079D01*
X28650346Y-46743921D01*
X28346506Y-46008571D01*
X27784388Y-45445471D01*
X27049570Y-45140348D01*
X26253921Y-45139654D01*
X25518571Y-45443494D01*
X24955471Y-46005612D01*
X24650348Y-46740430D01*
X24649654Y-47536079D01*
X18489655Y-47536079D01*
X18490346Y-46743921D01*
X18186506Y-46008571D01*
X17624388Y-45445471D01*
X16889570Y-45140348D01*
X16093921Y-45139654D01*
X15358571Y-45443494D01*
X14795471Y-46005612D01*
X14490348Y-46740430D01*
X14489654Y-47536079D01*
X575000Y-47536079D01*
X575000Y-45495099D01*
X2499567Y-45495099D01*
X2879367Y-46414286D01*
X3582015Y-47118161D01*
X4500538Y-47499565D01*
X5495099Y-47500433D01*
X6414286Y-47120633D01*
X7118161Y-46417985D01*
X7499565Y-45499462D01*
X7500433Y-44504901D01*
X7120633Y-43585714D01*
X6417985Y-42881839D01*
X5499462Y-42500435D01*
X4504901Y-42499567D01*
X3585714Y-42879367D01*
X2881839Y-43582015D01*
X2500435Y-44500538D01*
X2499567Y-45495099D01*
X575000Y-45495099D01*
X575000Y-31750000D01*
X8525000Y-31750000D01*
X8525000Y-41910000D01*
X8601120Y-42292684D01*
X8817893Y-42617107D01*
X10087893Y-43887107D01*
X10412317Y-44103880D01*
X10795000Y-44180000D01*
X16510000Y-44180000D01*
X16892684Y-44103880D01*
X17217107Y-43887107D01*
X18447107Y-42657107D01*
X18663880Y-42332684D01*
X18740001Y-41950000D01*
X18740000Y-41949995D01*
X18740000Y-41884387D01*
X18894849Y-41652639D01*
X18990000Y-41174285D01*
X18990000Y-40794000D01*
X24042000Y-40794000D01*
X24042000Y-41294000D01*
X24204305Y-41801962D01*
X24548644Y-42209146D01*
X25036828Y-42448538D01*
X25246000Y-42336127D01*
X25246000Y-40794000D01*
X24042000Y-40794000D01*
X18990000Y-40794000D01*
X18990000Y-40105715D01*
X18966188Y-39986000D01*
X24042000Y-39986000D01*
X24042000Y-40486000D01*
X25246000Y-40486000D01*
X25246000Y-38943873D01*
X25036828Y-38831462D01*
X24548644Y-39070854D01*
X24204305Y-39478038D01*
X24042000Y-39986000D01*
X18966188Y-39986000D01*
X18894849Y-39627361D01*
X18623883Y-39221832D01*
X18218354Y-38950866D01*
X17740000Y-38855715D01*
X17261646Y-38950866D01*
X16856117Y-39221832D01*
X16585151Y-39627361D01*
X16490000Y-40105715D01*
X16394849Y-39627361D01*
X16240000Y-39395613D01*
X16240000Y-34264498D01*
X16395376Y-34031960D01*
X16449363Y-33760547D01*
X16583778Y-34181290D01*
X16928240Y-34588659D01*
X17416739Y-34828214D01*
X17626000Y-34715812D01*
X17626000Y-33174000D01*
X17934000Y-33174000D01*
X17934000Y-34715812D01*
X18143261Y-34828214D01*
X18631760Y-34588659D01*
X18976222Y-34181290D01*
X19138570Y-33673110D01*
X19138570Y-33174000D01*
X17934000Y-33174000D01*
X17626000Y-33174000D01*
X17606000Y-33174000D01*
X17606000Y-32866000D01*
X17626000Y-32866000D01*
X17626000Y-31324188D01*
X17934000Y-31324188D01*
X17934000Y-32866000D01*
X19138570Y-32866000D01*
X19138570Y-32366890D01*
X18976222Y-31858710D01*
X18631760Y-31451341D01*
X18143261Y-31211786D01*
X17934000Y-31324188D01*
X17626000Y-31324188D01*
X17416739Y-31211786D01*
X16928240Y-31451341D01*
X16583778Y-31858710D01*
X16449363Y-32279453D01*
X16395376Y-32008040D01*
X16124287Y-31602325D01*
X15718572Y-31331236D01*
X15240000Y-31236042D01*
X14761428Y-31331236D01*
X14355713Y-31602325D01*
X14084624Y-32008040D01*
X13989430Y-32486612D01*
X13989430Y-33553388D01*
X14084624Y-34031960D01*
X14240000Y-34264498D01*
X14240000Y-39395613D01*
X14085151Y-39627361D01*
X13990000Y-40105715D01*
X13990000Y-41174285D01*
X14085151Y-41652639D01*
X14356117Y-42058168D01*
X14538451Y-42180000D01*
X11209214Y-42180000D01*
X10525000Y-41495786D01*
X10525000Y-32164214D01*
X11731233Y-30957981D01*
X11722511Y-31001827D01*
X11700000Y-31115000D01*
X11700000Y-31775502D01*
X11544624Y-32008040D01*
X11449430Y-32486612D01*
X11449430Y-33553388D01*
X11544624Y-34031960D01*
X11815713Y-34437675D01*
X12221428Y-34708764D01*
X12700000Y-34803958D01*
X13178572Y-34708764D01*
X13584287Y-34437675D01*
X13855376Y-34031960D01*
X13950570Y-33553388D01*
X13950570Y-32486612D01*
X13855376Y-32008040D01*
X13700000Y-31775502D01*
X13700000Y-31529214D01*
X23274214Y-21955000D01*
X44271631Y-21955000D01*
X44320000Y-21964795D01*
X45420000Y-21964795D01*
X45605289Y-21929931D01*
X45720715Y-21855656D01*
X45821661Y-21924630D01*
X46020000Y-21964795D01*
X47120000Y-21964795D01*
X47172057Y-21955000D01*
X64522589Y-21955000D01*
X64514205Y-21996400D01*
X64514205Y-23723600D01*
X64549069Y-23908889D01*
X64658575Y-24079065D01*
X64825661Y-24193230D01*
X65023350Y-24233263D01*
X64696178Y-24536359D01*
X64466189Y-25018951D01*
X64577017Y-25246000D01*
X65886000Y-25246000D01*
X65886000Y-25226000D01*
X66194000Y-25226000D01*
X66194000Y-25246000D01*
X66214000Y-25246000D01*
X66214000Y-25554000D01*
X66194000Y-25554000D01*
X66194000Y-25574000D01*
X65886000Y-25574000D01*
X65886000Y-25554000D01*
X64577017Y-25554000D01*
X64466189Y-25781049D01*
X64696178Y-26263641D01*
X65117371Y-26653838D01*
X65283495Y-26715330D01*
X64947251Y-26940000D01*
X40600000Y-26940000D01*
X40217317Y-27016120D01*
X40217315Y-27016121D01*
X40217316Y-27016121D01*
X39892893Y-27232893D01*
X28208672Y-38917114D01*
X27900000Y-38855715D01*
X27421646Y-38950866D01*
X27016117Y-39221832D01*
X26745151Y-39627361D01*
X26706114Y-39823613D01*
X26595695Y-39478038D01*
X26251356Y-39070854D01*
X25763172Y-38831462D01*
X25554000Y-38943873D01*
X25554000Y-40486000D01*
X25574000Y-40486000D01*
X25574000Y-40794000D01*
X25554000Y-40794000D01*
X25554000Y-42336127D01*
X25763172Y-42448538D01*
X26251356Y-42209146D01*
X26595695Y-41801962D01*
X26706114Y-41456387D01*
X26745151Y-41652639D01*
X27016117Y-42058168D01*
X27421646Y-42329134D01*
X27900000Y-42424285D01*
X28378354Y-42329134D01*
X28783883Y-42058168D01*
X29054849Y-41652639D01*
X29150000Y-41174285D01*
X29150000Y-40804214D01*
X29160214Y-40794000D01*
X34202000Y-40794000D01*
X34202000Y-41294000D01*
X34364305Y-41801962D01*
X34708644Y-42209146D01*
X35196828Y-42448538D01*
X35406000Y-42336127D01*
X35406000Y-40794000D01*
X34202000Y-40794000D01*
X29160214Y-40794000D01*
X29968214Y-39986000D01*
X34202000Y-39986000D01*
X34202000Y-40486000D01*
X35406000Y-40486000D01*
X35406000Y-38943873D01*
X35196828Y-38831462D01*
X34708644Y-39070854D01*
X34364305Y-39478038D01*
X34202000Y-39986000D01*
X29968214Y-39986000D01*
X41014214Y-28940000D01*
X64947251Y-28940000D01*
X65336073Y-29199802D01*
X65387342Y-29210000D01*
X65336073Y-29220198D01*
X64947251Y-29480000D01*
X48220000Y-29480000D01*
X47837316Y-29556120D01*
X47512893Y-29772893D01*
X38368672Y-38917114D01*
X38060000Y-38855715D01*
X37581646Y-38950866D01*
X37176117Y-39221832D01*
X36905151Y-39627361D01*
X36866114Y-39823613D01*
X36755695Y-39478038D01*
X36411356Y-39070854D01*
X35923172Y-38831462D01*
X35714000Y-38943873D01*
X35714000Y-40486000D01*
X35734000Y-40486000D01*
X35734000Y-40794000D01*
X35714000Y-40794000D01*
X35714000Y-42336127D01*
X35923172Y-42448538D01*
X36411356Y-42209146D01*
X36755695Y-41801962D01*
X36866114Y-41456387D01*
X36905151Y-41652639D01*
X37176117Y-42058168D01*
X37581646Y-42329134D01*
X38060000Y-42424285D01*
X38538354Y-42329134D01*
X38943883Y-42058168D01*
X39214849Y-41652639D01*
X39310000Y-41174285D01*
X39310000Y-40804214D01*
X39320214Y-40794000D01*
X44362000Y-40794000D01*
X44362000Y-41294000D01*
X44524305Y-41801962D01*
X44868644Y-42209146D01*
X45356828Y-42448538D01*
X45566000Y-42336127D01*
X45566000Y-40794000D01*
X44362000Y-40794000D01*
X39320214Y-40794000D01*
X40128214Y-39986000D01*
X44362000Y-39986000D01*
X44362000Y-40486000D01*
X45566000Y-40486000D01*
X45566000Y-38943873D01*
X45356828Y-38831462D01*
X44868644Y-39070854D01*
X44524305Y-39478038D01*
X44362000Y-39986000D01*
X40128214Y-39986000D01*
X48634214Y-31480000D01*
X64947251Y-31480000D01*
X65336073Y-31739802D01*
X65387342Y-31750000D01*
X65336073Y-31760198D01*
X64947251Y-32020000D01*
X55840000Y-32020000D01*
X55457317Y-32096120D01*
X55402595Y-32132684D01*
X55132893Y-32312893D01*
X48528672Y-38917114D01*
X48220000Y-38855715D01*
X47741646Y-38950866D01*
X47336117Y-39221832D01*
X47065151Y-39627361D01*
X47026114Y-39823613D01*
X46915695Y-39478038D01*
X46571356Y-39070854D01*
X46083172Y-38831462D01*
X45874000Y-38943873D01*
X45874000Y-40486000D01*
X45894000Y-40486000D01*
X45894000Y-40794000D01*
X45874000Y-40794000D01*
X45874000Y-42336127D01*
X46083172Y-42448538D01*
X46571356Y-42209146D01*
X46915695Y-41801962D01*
X47026114Y-41456387D01*
X47065151Y-41652639D01*
X47336117Y-42058168D01*
X47741646Y-42329134D01*
X48220000Y-42424285D01*
X48698354Y-42329134D01*
X49103883Y-42058168D01*
X49374849Y-41652639D01*
X49470000Y-41174285D01*
X49470000Y-40804214D01*
X49480214Y-40794000D01*
X54522000Y-40794000D01*
X54522000Y-41294000D01*
X54684305Y-41801962D01*
X55028644Y-42209146D01*
X55516828Y-42448538D01*
X55726000Y-42336127D01*
X55726000Y-40794000D01*
X54522000Y-40794000D01*
X49480214Y-40794000D01*
X50288214Y-39986000D01*
X54522000Y-39986000D01*
X54522000Y-40486000D01*
X55726000Y-40486000D01*
X55726000Y-38943873D01*
X55516828Y-38831462D01*
X55028644Y-39070854D01*
X54684305Y-39478038D01*
X54522000Y-39986000D01*
X50288214Y-39986000D01*
X56254214Y-34020000D01*
X64947251Y-34020000D01*
X65336073Y-34279802D01*
X65387342Y-34290000D01*
X65336073Y-34300198D01*
X64893689Y-34595789D01*
X64598098Y-35038173D01*
X64494300Y-35560000D01*
X64598098Y-36081827D01*
X64893689Y-36524211D01*
X65336073Y-36819802D01*
X65387342Y-36830000D01*
X65336073Y-36840198D01*
X64947251Y-37100000D01*
X60920000Y-37100000D01*
X60537317Y-37176120D01*
X60212893Y-37392893D01*
X60212891Y-37392896D01*
X58688672Y-38917114D01*
X58380000Y-38855715D01*
X57901646Y-38950866D01*
X57496117Y-39221832D01*
X57225151Y-39627361D01*
X57186114Y-39823613D01*
X57075695Y-39478038D01*
X56731356Y-39070854D01*
X56243172Y-38831462D01*
X56034000Y-38943873D01*
X56034000Y-40486000D01*
X56054000Y-40486000D01*
X56054000Y-40794000D01*
X56034000Y-40794000D01*
X56034000Y-42336127D01*
X56243172Y-42448538D01*
X56731356Y-42209146D01*
X57075695Y-41801962D01*
X57186114Y-41456387D01*
X57225151Y-41652639D01*
X57496117Y-42058168D01*
X57901646Y-42329134D01*
X58380000Y-42424285D01*
X58858354Y-42329134D01*
X59263883Y-42058168D01*
X59534849Y-41652639D01*
X59630000Y-41174285D01*
X59630000Y-40804214D01*
X61334213Y-39100000D01*
X64947251Y-39100000D01*
X65336073Y-39359802D01*
X65857900Y-39463600D01*
X66222100Y-39463600D01*
X66743927Y-39359802D01*
X67186311Y-39064211D01*
X67481902Y-38621827D01*
X67585700Y-38100000D01*
X67481902Y-37578173D01*
X67186311Y-37135789D01*
X66743927Y-36840198D01*
X66692658Y-36830000D01*
X66743927Y-36819802D01*
X67186311Y-36524211D01*
X67481902Y-36081827D01*
X67585700Y-35560000D01*
X67563885Y-35450329D01*
X68652107Y-34362107D01*
X68868880Y-34037684D01*
X68945000Y-33655000D01*
X68945000Y-21590005D01*
X68945001Y-21590000D01*
X68868880Y-21207316D01*
X68652107Y-20882893D01*
X68017107Y-20247893D01*
X67692684Y-20031120D01*
X67310000Y-19955000D01*
X47168369Y-19955000D01*
X47120000Y-19945205D01*
X46020000Y-19945205D01*
X45870000Y-19973429D01*
X45870000Y-18875962D01*
X45899061Y-18888000D01*
X46264000Y-18888000D01*
X46416000Y-18736000D01*
X46416000Y-17934000D01*
X46724000Y-17934000D01*
X46724000Y-18736000D01*
X46876000Y-18888000D01*
X47240939Y-18888000D01*
X47464405Y-18795437D01*
X47635438Y-18624404D01*
X47728000Y-18400938D01*
X47728000Y-18086000D01*
X47576000Y-17934000D01*
X46724000Y-17934000D01*
X46416000Y-17934000D01*
X46396000Y-17934000D01*
X46396000Y-17626000D01*
X46416000Y-17626000D01*
X46416000Y-16824000D01*
X46724000Y-16824000D01*
X46724000Y-17626000D01*
X47576000Y-17626000D01*
X47728000Y-17474000D01*
X47728000Y-17159062D01*
X47703922Y-17100931D01*
X57101858Y-17100931D01*
X57161122Y-17320694D01*
X57637483Y-17474134D01*
X58136302Y-17433599D01*
X58408878Y-17320694D01*
X58468142Y-17100931D01*
X57785000Y-16417789D01*
X57101858Y-17100931D01*
X47703922Y-17100931D01*
X47635438Y-16935596D01*
X47464405Y-16764563D01*
X47240939Y-16672000D01*
X46876000Y-16672000D01*
X46724000Y-16824000D01*
X46416000Y-16824000D01*
X46264000Y-16672000D01*
X45899061Y-16672000D01*
X45675595Y-16764563D01*
X45625141Y-16815017D01*
X45618339Y-16810370D01*
X45420000Y-16770205D01*
X44320000Y-16770205D01*
X44134711Y-16805069D01*
X43964535Y-16914575D01*
X43850370Y-17081661D01*
X43810205Y-17280000D01*
X43810205Y-18280000D01*
X43845069Y-18465289D01*
X43870000Y-18504033D01*
X43870000Y-19955000D01*
X22860000Y-19955000D01*
X22702981Y-19986233D01*
X26636731Y-16052483D01*
X56510866Y-16052483D01*
X56551401Y-16551302D01*
X56664306Y-16823878D01*
X56884069Y-16883142D01*
X57567211Y-16200000D01*
X58002789Y-16200000D01*
X58685931Y-16883142D01*
X58905694Y-16823878D01*
X59059134Y-16347517D01*
X59018599Y-15848698D01*
X58916899Y-15603172D01*
X64231462Y-15603172D01*
X64470854Y-16091356D01*
X64878038Y-16435695D01*
X65386000Y-16598000D01*
X65886000Y-16598000D01*
X65886000Y-15394000D01*
X66194000Y-15394000D01*
X66194000Y-16598000D01*
X66694000Y-16598000D01*
X67201962Y-16435695D01*
X67609146Y-16091356D01*
X67848538Y-15603172D01*
X67736127Y-15394000D01*
X66194000Y-15394000D01*
X65886000Y-15394000D01*
X64343873Y-15394000D01*
X64231462Y-15603172D01*
X58916899Y-15603172D01*
X58905694Y-15576122D01*
X58685931Y-15516858D01*
X58002789Y-16200000D01*
X57567211Y-16200000D01*
X56884069Y-15516858D01*
X56664306Y-15576122D01*
X56510866Y-16052483D01*
X26636731Y-16052483D01*
X27390145Y-15299069D01*
X57101858Y-15299069D01*
X57785000Y-15982211D01*
X58468142Y-15299069D01*
X58408878Y-15079306D01*
X57932517Y-14925866D01*
X57433698Y-14966401D01*
X57161122Y-15079306D01*
X57101858Y-15299069D01*
X27390145Y-15299069D01*
X28989214Y-13700000D01*
X56766058Y-13700000D01*
X56769575Y-13705465D01*
X56936661Y-13819630D01*
X57135000Y-13859795D01*
X58435000Y-13859795D01*
X58620289Y-13824931D01*
X58790465Y-13715425D01*
X58801004Y-13700000D01*
X64735749Y-13700000D01*
X65027361Y-13894849D01*
X65223613Y-13933886D01*
X64878038Y-14044305D01*
X64470854Y-14388644D01*
X64231462Y-14876828D01*
X64343873Y-15086000D01*
X65886000Y-15086000D01*
X65886000Y-15066000D01*
X66194000Y-15066000D01*
X66194000Y-15086000D01*
X67736127Y-15086000D01*
X67848538Y-14876828D01*
X67609146Y-14388644D01*
X67201962Y-14044305D01*
X66856387Y-13933886D01*
X67052639Y-13894849D01*
X67458168Y-13623883D01*
X67729134Y-13218354D01*
X67824285Y-12740000D01*
X67729134Y-12261646D01*
X67458168Y-11856117D01*
X67052639Y-11585151D01*
X66574285Y-11490000D01*
X65505715Y-11490000D01*
X65027361Y-11585151D01*
X64855477Y-11700000D01*
X58803942Y-11700000D01*
X58800425Y-11694535D01*
X58633339Y-11580370D01*
X58435000Y-11540205D01*
X57135000Y-11540205D01*
X56949711Y-11575069D01*
X56779535Y-11684575D01*
X56768996Y-11700000D01*
X28575000Y-11700000D01*
X28192317Y-11776120D01*
X28192315Y-11776121D01*
X28192316Y-11776121D01*
X27867893Y-11992893D01*
X8817893Y-31042893D01*
X8601120Y-31367316D01*
X8554374Y-31602325D01*
X8525000Y-31750000D01*
X575000Y-31750000D01*
X575000Y-5495099D01*
X2499567Y-5495099D01*
X2879367Y-6414286D01*
X3582015Y-7118161D01*
X4500538Y-7499565D01*
X5495099Y-7500433D01*
X6414286Y-7120633D01*
X7118161Y-6417985D01*
X7499565Y-5499462D01*
X7499568Y-5495099D01*
X67499567Y-5495099D01*
X67879367Y-6414286D01*
X68582015Y-7118161D01*
X69500538Y-7499565D01*
X70495099Y-7500433D01*
X71414286Y-7120633D01*
X72118161Y-6417985D01*
X72499565Y-5499462D01*
X72500433Y-4504901D01*
X72120633Y-3585714D01*
X71417985Y-2881839D01*
X70499462Y-2500435D01*
X69504901Y-2499567D01*
X68585714Y-2879367D01*
X67881839Y-3582015D01*
X67500435Y-4500538D01*
X67499567Y-5495099D01*
X7499568Y-5495099D01*
X7500433Y-4504901D01*
X7120633Y-3585714D01*
X6417985Y-2881839D01*
X5499462Y-2500435D01*
X4504901Y-2499567D01*
X3585714Y-2879367D01*
X2881839Y-3582015D01*
X2500435Y-4500538D01*
X2499567Y-5495099D01*
X575000Y-5495099D01*
X575000Y-575000D01*
X74425000Y-575000D01*
X74425000Y-13314762D01*
X74425000Y-13314762D01*
G37*
X74425000Y-13314762D02*
X74236506Y-12858571D01*
X73674388Y-12295471D01*
X72939570Y-11990348D01*
X72143921Y-11989654D01*
X71408571Y-12293494D01*
X70845471Y-12855612D01*
X70540348Y-13590430D01*
X70539654Y-14386079D01*
X70843494Y-15121429D01*
X71405612Y-15684529D01*
X72140430Y-15989652D01*
X72936079Y-15990346D01*
X73671429Y-15686506D01*
X74234529Y-15124388D01*
X74425000Y-14665683D01*
X74425000Y-49425000D01*
X575000Y-49425000D01*
X575000Y-47536079D01*
X14489654Y-47536079D01*
X14793494Y-48271429D01*
X15355612Y-48834529D01*
X16090430Y-49139652D01*
X16886079Y-49140346D01*
X17621429Y-48836506D01*
X18184529Y-48274388D01*
X18489652Y-47539570D01*
X18489655Y-47536079D01*
X24649654Y-47536079D01*
X24953494Y-48271429D01*
X25515612Y-48834529D01*
X26250430Y-49139652D01*
X27046079Y-49140346D01*
X27781429Y-48836506D01*
X28344529Y-48274388D01*
X28649652Y-47539570D01*
X28649655Y-47536079D01*
X34809654Y-47536079D01*
X35113494Y-48271429D01*
X35675612Y-48834529D01*
X36410430Y-49139652D01*
X37206079Y-49140346D01*
X37941429Y-48836506D01*
X38504529Y-48274388D01*
X38809652Y-47539570D01*
X38809655Y-47536079D01*
X44969654Y-47536079D01*
X45273494Y-48271429D01*
X45835612Y-48834529D01*
X46570430Y-49139652D01*
X47366079Y-49140346D01*
X48101429Y-48836506D01*
X48664529Y-48274388D01*
X48969652Y-47539570D01*
X48969655Y-47536079D01*
X55129654Y-47536079D01*
X55433494Y-48271429D01*
X55995612Y-48834529D01*
X56730430Y-49139652D01*
X57526079Y-49140346D01*
X58261429Y-48836506D01*
X58824529Y-48274388D01*
X59129652Y-47539570D01*
X59130346Y-46743921D01*
X58826506Y-46008571D01*
X58313930Y-45495099D01*
X67499567Y-45495099D01*
X67879367Y-46414286D01*
X68582015Y-47118161D01*
X69500538Y-47499565D01*
X70495099Y-47500433D01*
X71414286Y-47120633D01*
X72118161Y-46417985D01*
X72499565Y-45499462D01*
X72500433Y-44504901D01*
X72120633Y-43585714D01*
X71417985Y-42881839D01*
X70499462Y-42500435D01*
X69504901Y-42499567D01*
X68585714Y-42879367D01*
X67881839Y-43582015D01*
X67500435Y-44500538D01*
X67499567Y-45495099D01*
X58313930Y-45495099D01*
X58264388Y-45445471D01*
X57529570Y-45140348D01*
X56733921Y-45139654D01*
X55998571Y-45443494D01*
X55435471Y-46005612D01*
X55130348Y-46740430D01*
X55129654Y-47536079D01*
X48969655Y-47536079D01*
X48970346Y-46743921D01*
X48666506Y-46008571D01*
X48104388Y-45445471D01*
X47369570Y-45140348D01*
X46573921Y-45139654D01*
X45838571Y-45443494D01*
X45275471Y-46005612D01*
X44970348Y-46740430D01*
X44969654Y-47536079D01*
X38809655Y-47536079D01*
X38810346Y-46743921D01*
X38506506Y-46008571D01*
X37944388Y-45445471D01*
X37209570Y-45140348D01*
X36413921Y-45139654D01*
X35678571Y-45443494D01*
X35115471Y-46005612D01*
X34810348Y-46740430D01*
X34809654Y-47536079D01*
X28649655Y-47536079D01*
X28650346Y-46743921D01*
X28346506Y-46008571D01*
X27784388Y-45445471D01*
X27049570Y-45140348D01*
X26253921Y-45139654D01*
X25518571Y-45443494D01*
X24955471Y-46005612D01*
X24650348Y-46740430D01*
X24649654Y-47536079D01*
X18489655Y-47536079D01*
X18490346Y-46743921D01*
X18186506Y-46008571D01*
X17624388Y-45445471D01*
X16889570Y-45140348D01*
X16093921Y-45139654D01*
X15358571Y-45443494D01*
X14795471Y-46005612D01*
X14490348Y-46740430D01*
X14489654Y-47536079D01*
X575000Y-47536079D01*
X575000Y-45495099D01*
X2499567Y-45495099D01*
X2879367Y-46414286D01*
X3582015Y-47118161D01*
X4500538Y-47499565D01*
X5495099Y-47500433D01*
X6414286Y-47120633D01*
X7118161Y-46417985D01*
X7499565Y-45499462D01*
X7500433Y-44504901D01*
X7120633Y-43585714D01*
X6417985Y-42881839D01*
X5499462Y-42500435D01*
X4504901Y-42499567D01*
X3585714Y-42879367D01*
X2881839Y-43582015D01*
X2500435Y-44500538D01*
X2499567Y-45495099D01*
X575000Y-45495099D01*
X575000Y-31750000D01*
X8525000Y-31750000D01*
X8525000Y-41910000D01*
X8601120Y-42292684D01*
X8817893Y-42617107D01*
X10087893Y-43887107D01*
X10412317Y-44103880D01*
X10795000Y-44180000D01*
X16510000Y-44180000D01*
X16892684Y-44103880D01*
X17217107Y-43887107D01*
X18447107Y-42657107D01*
X18663880Y-42332684D01*
X18740001Y-41950000D01*
X18740000Y-41949995D01*
X18740000Y-41884387D01*
X18894849Y-41652639D01*
X18990000Y-41174285D01*
X18990000Y-40794000D01*
X24042000Y-40794000D01*
X24042000Y-41294000D01*
X24204305Y-41801962D01*
X24548644Y-42209146D01*
X25036828Y-42448538D01*
X25246000Y-42336127D01*
X25246000Y-40794000D01*
X24042000Y-40794000D01*
X18990000Y-40794000D01*
X18990000Y-40105715D01*
X18966188Y-39986000D01*
X24042000Y-39986000D01*
X24042000Y-40486000D01*
X25246000Y-40486000D01*
X25246000Y-38943873D01*
X25036828Y-38831462D01*
X24548644Y-39070854D01*
X24204305Y-39478038D01*
X24042000Y-39986000D01*
X18966188Y-39986000D01*
X18894849Y-39627361D01*
X18623883Y-39221832D01*
X18218354Y-38950866D01*
X17740000Y-38855715D01*
X17261646Y-38950866D01*
X16856117Y-39221832D01*
X16585151Y-39627361D01*
X16490000Y-40105715D01*
X16394849Y-39627361D01*
X16240000Y-39395613D01*
X16240000Y-34264498D01*
X16395376Y-34031960D01*
X16449363Y-33760547D01*
X16583778Y-34181290D01*
X16928240Y-34588659D01*
X17416739Y-34828214D01*
X17626000Y-34715812D01*
X17626000Y-33174000D01*
X17934000Y-33174000D01*
X17934000Y-34715812D01*
X18143261Y-34828214D01*
X18631760Y-34588659D01*
X18976222Y-34181290D01*
X19138570Y-33673110D01*
X19138570Y-33174000D01*
X17934000Y-33174000D01*
X17626000Y-33174000D01*
X17606000Y-33174000D01*
X17606000Y-32866000D01*
X17626000Y-32866000D01*
X17626000Y-31324188D01*
X17934000Y-31324188D01*
X17934000Y-32866000D01*
X19138570Y-32866000D01*
X19138570Y-32366890D01*
X18976222Y-31858710D01*
X18631760Y-31451341D01*
X18143261Y-31211786D01*
X17934000Y-31324188D01*
X17626000Y-31324188D01*
X17416739Y-31211786D01*
X16928240Y-31451341D01*
X16583778Y-31858710D01*
X16449363Y-32279453D01*
X16395376Y-32008040D01*
X16124287Y-31602325D01*
X15718572Y-31331236D01*
X15240000Y-31236042D01*
X14761428Y-31331236D01*
X14355713Y-31602325D01*
X14084624Y-32008040D01*
X13989430Y-32486612D01*
X13989430Y-33553388D01*
X14084624Y-34031960D01*
X14240000Y-34264498D01*
X14240000Y-39395613D01*
X14085151Y-39627361D01*
X13990000Y-40105715D01*
X13990000Y-41174285D01*
X14085151Y-41652639D01*
X14356117Y-42058168D01*
X14538451Y-42180000D01*
X11209214Y-42180000D01*
X10525000Y-41495786D01*
X10525000Y-32164214D01*
X11731233Y-30957981D01*
X11722511Y-31001827D01*
X11700000Y-31115000D01*
X11700000Y-31775502D01*
X11544624Y-32008040D01*
X11449430Y-32486612D01*
X11449430Y-33553388D01*
X11544624Y-34031960D01*
X11815713Y-34437675D01*
X12221428Y-34708764D01*
X12700000Y-34803958D01*
X13178572Y-34708764D01*
X13584287Y-34437675D01*
X13855376Y-34031960D01*
X13950570Y-33553388D01*
X13950570Y-32486612D01*
X13855376Y-32008040D01*
X13700000Y-31775502D01*
X13700000Y-31529214D01*
X23274214Y-21955000D01*
X44271631Y-21955000D01*
X44320000Y-21964795D01*
X45420000Y-21964795D01*
X45605289Y-21929931D01*
X45720715Y-21855656D01*
X45821661Y-21924630D01*
X46020000Y-21964795D01*
X47120000Y-21964795D01*
X47172057Y-21955000D01*
X64522589Y-21955000D01*
X64514205Y-21996400D01*
X64514205Y-23723600D01*
X64549069Y-23908889D01*
X64658575Y-24079065D01*
X64825661Y-24193230D01*
X65023350Y-24233263D01*
X64696178Y-24536359D01*
X64466189Y-25018951D01*
X64577017Y-25246000D01*
X65886000Y-25246000D01*
X65886000Y-25226000D01*
X66194000Y-25226000D01*
X66194000Y-25246000D01*
X66214000Y-25246000D01*
X66214000Y-25554000D01*
X66194000Y-25554000D01*
X66194000Y-25574000D01*
X65886000Y-25574000D01*
X65886000Y-25554000D01*
X64577017Y-25554000D01*
X64466189Y-25781049D01*
X64696178Y-26263641D01*
X65117371Y-26653838D01*
X65283495Y-26715330D01*
X64947251Y-26940000D01*
X40600000Y-26940000D01*
X40217317Y-27016120D01*
X40217315Y-27016121D01*
X40217316Y-27016121D01*
X39892893Y-27232893D01*
X28208672Y-38917114D01*
X27900000Y-38855715D01*
X27421646Y-38950866D01*
X27016117Y-39221832D01*
X26745151Y-39627361D01*
X26706114Y-39823613D01*
X26595695Y-39478038D01*
X26251356Y-39070854D01*
X25763172Y-38831462D01*
X25554000Y-38943873D01*
X25554000Y-40486000D01*
X25574000Y-40486000D01*
X25574000Y-40794000D01*
X25554000Y-40794000D01*
X25554000Y-42336127D01*
X25763172Y-42448538D01*
X26251356Y-42209146D01*
X26595695Y-41801962D01*
X26706114Y-41456387D01*
X26745151Y-41652639D01*
X27016117Y-42058168D01*
X27421646Y-42329134D01*
X27900000Y-42424285D01*
X28378354Y-42329134D01*
X28783883Y-42058168D01*
X29054849Y-41652639D01*
X29150000Y-41174285D01*
X29150000Y-40804214D01*
X29160214Y-40794000D01*
X34202000Y-40794000D01*
X34202000Y-41294000D01*
X34364305Y-41801962D01*
X34708644Y-42209146D01*
X35196828Y-42448538D01*
X35406000Y-42336127D01*
X35406000Y-40794000D01*
X34202000Y-40794000D01*
X29160214Y-40794000D01*
X29968214Y-39986000D01*
X34202000Y-39986000D01*
X34202000Y-40486000D01*
X35406000Y-40486000D01*
X35406000Y-38943873D01*
X35196828Y-38831462D01*
X34708644Y-39070854D01*
X34364305Y-39478038D01*
X34202000Y-39986000D01*
X29968214Y-39986000D01*
X41014214Y-28940000D01*
X64947251Y-28940000D01*
X65336073Y-29199802D01*
X65387342Y-29210000D01*
X65336073Y-29220198D01*
X64947251Y-29480000D01*
X48220000Y-29480000D01*
X47837316Y-29556120D01*
X47512893Y-29772893D01*
X38368672Y-38917114D01*
X38060000Y-38855715D01*
X37581646Y-38950866D01*
X37176117Y-39221832D01*
X36905151Y-39627361D01*
X36866114Y-39823613D01*
X36755695Y-39478038D01*
X36411356Y-39070854D01*
X35923172Y-38831462D01*
X35714000Y-38943873D01*
X35714000Y-40486000D01*
X35734000Y-40486000D01*
X35734000Y-40794000D01*
X35714000Y-40794000D01*
X35714000Y-42336127D01*
X35923172Y-42448538D01*
X36411356Y-42209146D01*
X36755695Y-41801962D01*
X36866114Y-41456387D01*
X36905151Y-41652639D01*
X37176117Y-42058168D01*
X37581646Y-42329134D01*
X38060000Y-42424285D01*
X38538354Y-42329134D01*
X38943883Y-42058168D01*
X39214849Y-41652639D01*
X39310000Y-41174285D01*
X39310000Y-40804214D01*
X39320214Y-40794000D01*
X44362000Y-40794000D01*
X44362000Y-41294000D01*
X44524305Y-41801962D01*
X44868644Y-42209146D01*
X45356828Y-42448538D01*
X45566000Y-42336127D01*
X45566000Y-40794000D01*
X44362000Y-40794000D01*
X39320214Y-40794000D01*
X40128214Y-39986000D01*
X44362000Y-39986000D01*
X44362000Y-40486000D01*
X45566000Y-40486000D01*
X45566000Y-38943873D01*
X45356828Y-38831462D01*
X44868644Y-39070854D01*
X44524305Y-39478038D01*
X44362000Y-39986000D01*
X40128214Y-39986000D01*
X48634214Y-31480000D01*
X64947251Y-31480000D01*
X65336073Y-31739802D01*
X65387342Y-31750000D01*
X65336073Y-31760198D01*
X64947251Y-32020000D01*
X55840000Y-32020000D01*
X55457317Y-32096120D01*
X55402595Y-32132684D01*
X55132893Y-32312893D01*
X48528672Y-38917114D01*
X48220000Y-38855715D01*
X47741646Y-38950866D01*
X47336117Y-39221832D01*
X47065151Y-39627361D01*
X47026114Y-39823613D01*
X46915695Y-39478038D01*
X46571356Y-39070854D01*
X46083172Y-38831462D01*
X45874000Y-38943873D01*
X45874000Y-40486000D01*
X45894000Y-40486000D01*
X45894000Y-40794000D01*
X45874000Y-40794000D01*
X45874000Y-42336127D01*
X46083172Y-42448538D01*
X46571356Y-42209146D01*
X46915695Y-41801962D01*
X47026114Y-41456387D01*
X47065151Y-41652639D01*
X47336117Y-42058168D01*
X47741646Y-42329134D01*
X48220000Y-42424285D01*
X48698354Y-42329134D01*
X49103883Y-42058168D01*
X49374849Y-41652639D01*
X49470000Y-41174285D01*
X49470000Y-40804214D01*
X49480214Y-40794000D01*
X54522000Y-40794000D01*
X54522000Y-41294000D01*
X54684305Y-41801962D01*
X55028644Y-42209146D01*
X55516828Y-42448538D01*
X55726000Y-42336127D01*
X55726000Y-40794000D01*
X54522000Y-40794000D01*
X49480214Y-40794000D01*
X50288214Y-39986000D01*
X54522000Y-39986000D01*
X54522000Y-40486000D01*
X55726000Y-40486000D01*
X55726000Y-38943873D01*
X55516828Y-38831462D01*
X55028644Y-39070854D01*
X54684305Y-39478038D01*
X54522000Y-39986000D01*
X50288214Y-39986000D01*
X56254214Y-34020000D01*
X64947251Y-34020000D01*
X65336073Y-34279802D01*
X65387342Y-34290000D01*
X65336073Y-34300198D01*
X64893689Y-34595789D01*
X64598098Y-35038173D01*
X64494300Y-35560000D01*
X64598098Y-36081827D01*
X64893689Y-36524211D01*
X65336073Y-36819802D01*
X65387342Y-36830000D01*
X65336073Y-36840198D01*
X64947251Y-37100000D01*
X60920000Y-37100000D01*
X60537317Y-37176120D01*
X60212893Y-37392893D01*
X60212891Y-37392896D01*
X58688672Y-38917114D01*
X58380000Y-38855715D01*
X57901646Y-38950866D01*
X57496117Y-39221832D01*
X57225151Y-39627361D01*
X57186114Y-39823613D01*
X57075695Y-39478038D01*
X56731356Y-39070854D01*
X56243172Y-38831462D01*
X56034000Y-38943873D01*
X56034000Y-40486000D01*
X56054000Y-40486000D01*
X56054000Y-40794000D01*
X56034000Y-40794000D01*
X56034000Y-42336127D01*
X56243172Y-42448538D01*
X56731356Y-42209146D01*
X57075695Y-41801962D01*
X57186114Y-41456387D01*
X57225151Y-41652639D01*
X57496117Y-42058168D01*
X57901646Y-42329134D01*
X58380000Y-42424285D01*
X58858354Y-42329134D01*
X59263883Y-42058168D01*
X59534849Y-41652639D01*
X59630000Y-41174285D01*
X59630000Y-40804214D01*
X61334213Y-39100000D01*
X64947251Y-39100000D01*
X65336073Y-39359802D01*
X65857900Y-39463600D01*
X66222100Y-39463600D01*
X66743927Y-39359802D01*
X67186311Y-39064211D01*
X67481902Y-38621827D01*
X67585700Y-38100000D01*
X67481902Y-37578173D01*
X67186311Y-37135789D01*
X66743927Y-36840198D01*
X66692658Y-36830000D01*
X66743927Y-36819802D01*
X67186311Y-36524211D01*
X67481902Y-36081827D01*
X67585700Y-35560000D01*
X67563885Y-35450329D01*
X68652107Y-34362107D01*
X68868880Y-34037684D01*
X68945000Y-33655000D01*
X68945000Y-21590005D01*
X68945001Y-21590000D01*
X68868880Y-21207316D01*
X68652107Y-20882893D01*
X68017107Y-20247893D01*
X67692684Y-20031120D01*
X67310000Y-19955000D01*
X47168369Y-19955000D01*
X47120000Y-19945205D01*
X46020000Y-19945205D01*
X45870000Y-19973429D01*
X45870000Y-18875962D01*
X45899061Y-18888000D01*
X46264000Y-18888000D01*
X46416000Y-18736000D01*
X46416000Y-17934000D01*
X46724000Y-17934000D01*
X46724000Y-18736000D01*
X46876000Y-18888000D01*
X47240939Y-18888000D01*
X47464405Y-18795437D01*
X47635438Y-18624404D01*
X47728000Y-18400938D01*
X47728000Y-18086000D01*
X47576000Y-17934000D01*
X46724000Y-17934000D01*
X46416000Y-17934000D01*
X46396000Y-17934000D01*
X46396000Y-17626000D01*
X46416000Y-17626000D01*
X46416000Y-16824000D01*
X46724000Y-16824000D01*
X46724000Y-17626000D01*
X47576000Y-17626000D01*
X47728000Y-17474000D01*
X47728000Y-17159062D01*
X47703922Y-17100931D01*
X57101858Y-17100931D01*
X57161122Y-17320694D01*
X57637483Y-17474134D01*
X58136302Y-17433599D01*
X58408878Y-17320694D01*
X58468142Y-17100931D01*
X57785000Y-16417789D01*
X57101858Y-17100931D01*
X47703922Y-17100931D01*
X47635438Y-16935596D01*
X47464405Y-16764563D01*
X47240939Y-16672000D01*
X46876000Y-16672000D01*
X46724000Y-16824000D01*
X46416000Y-16824000D01*
X46264000Y-16672000D01*
X45899061Y-16672000D01*
X45675595Y-16764563D01*
X45625141Y-16815017D01*
X45618339Y-16810370D01*
X45420000Y-16770205D01*
X44320000Y-16770205D01*
X44134711Y-16805069D01*
X43964535Y-16914575D01*
X43850370Y-17081661D01*
X43810205Y-17280000D01*
X43810205Y-18280000D01*
X43845069Y-18465289D01*
X43870000Y-18504033D01*
X43870000Y-19955000D01*
X22860000Y-19955000D01*
X22702981Y-19986233D01*
X26636731Y-16052483D01*
X56510866Y-16052483D01*
X56551401Y-16551302D01*
X56664306Y-16823878D01*
X56884069Y-16883142D01*
X57567211Y-16200000D01*
X58002789Y-16200000D01*
X58685931Y-16883142D01*
X58905694Y-16823878D01*
X59059134Y-16347517D01*
X59018599Y-15848698D01*
X58916899Y-15603172D01*
X64231462Y-15603172D01*
X64470854Y-16091356D01*
X64878038Y-16435695D01*
X65386000Y-16598000D01*
X65886000Y-16598000D01*
X65886000Y-15394000D01*
X66194000Y-15394000D01*
X66194000Y-16598000D01*
X66694000Y-16598000D01*
X67201962Y-16435695D01*
X67609146Y-16091356D01*
X67848538Y-15603172D01*
X67736127Y-15394000D01*
X66194000Y-15394000D01*
X65886000Y-15394000D01*
X64343873Y-15394000D01*
X64231462Y-15603172D01*
X58916899Y-15603172D01*
X58905694Y-15576122D01*
X58685931Y-15516858D01*
X58002789Y-16200000D01*
X57567211Y-16200000D01*
X56884069Y-15516858D01*
X56664306Y-15576122D01*
X56510866Y-16052483D01*
X26636731Y-16052483D01*
X27390145Y-15299069D01*
X57101858Y-15299069D01*
X57785000Y-15982211D01*
X58468142Y-15299069D01*
X58408878Y-15079306D01*
X57932517Y-14925866D01*
X57433698Y-14966401D01*
X57161122Y-15079306D01*
X57101858Y-15299069D01*
X27390145Y-15299069D01*
X28989214Y-13700000D01*
X56766058Y-13700000D01*
X56769575Y-13705465D01*
X56936661Y-13819630D01*
X57135000Y-13859795D01*
X58435000Y-13859795D01*
X58620289Y-13824931D01*
X58790465Y-13715425D01*
X58801004Y-13700000D01*
X64735749Y-13700000D01*
X65027361Y-13894849D01*
X65223613Y-13933886D01*
X64878038Y-14044305D01*
X64470854Y-14388644D01*
X64231462Y-14876828D01*
X64343873Y-15086000D01*
X65886000Y-15086000D01*
X65886000Y-15066000D01*
X66194000Y-15066000D01*
X66194000Y-15086000D01*
X67736127Y-15086000D01*
X67848538Y-14876828D01*
X67609146Y-14388644D01*
X67201962Y-14044305D01*
X66856387Y-13933886D01*
X67052639Y-13894849D01*
X67458168Y-13623883D01*
X67729134Y-13218354D01*
X67824285Y-12740000D01*
X67729134Y-12261646D01*
X67458168Y-11856117D01*
X67052639Y-11585151D01*
X66574285Y-11490000D01*
X65505715Y-11490000D01*
X65027361Y-11585151D01*
X64855477Y-11700000D01*
X58803942Y-11700000D01*
X58800425Y-11694535D01*
X58633339Y-11580370D01*
X58435000Y-11540205D01*
X57135000Y-11540205D01*
X56949711Y-11575069D01*
X56779535Y-11684575D01*
X56768996Y-11700000D01*
X28575000Y-11700000D01*
X28192317Y-11776120D01*
X28192315Y-11776121D01*
X28192316Y-11776121D01*
X27867893Y-11992893D01*
X8817893Y-31042893D01*
X8601120Y-31367316D01*
X8554374Y-31602325D01*
X8525000Y-31750000D01*
X575000Y-31750000D01*
X575000Y-5495099D01*
X2499567Y-5495099D01*
X2879367Y-6414286D01*
X3582015Y-7118161D01*
X4500538Y-7499565D01*
X5495099Y-7500433D01*
X6414286Y-7120633D01*
X7118161Y-6417985D01*
X7499565Y-5499462D01*
X7499568Y-5495099D01*
X67499567Y-5495099D01*
X67879367Y-6414286D01*
X68582015Y-7118161D01*
X69500538Y-7499565D01*
X70495099Y-7500433D01*
X71414286Y-7120633D01*
X72118161Y-6417985D01*
X72499565Y-5499462D01*
X72500433Y-4504901D01*
X72120633Y-3585714D01*
X71417985Y-2881839D01*
X70499462Y-2500435D01*
X69504901Y-2499567D01*
X68585714Y-2879367D01*
X67881839Y-3582015D01*
X67500435Y-4500538D01*
X67499567Y-5495099D01*
X7499568Y-5495099D01*
X7500433Y-4504901D01*
X7120633Y-3585714D01*
X6417985Y-2881839D01*
X5499462Y-2500435D01*
X4504901Y-2499567D01*
X3585714Y-2879367D01*
X2881839Y-3582015D01*
X2500435Y-4500538D01*
X2499567Y-5495099D01*
X575000Y-5495099D01*
X575000Y-575000D01*
X74425000Y-575000D01*
X74425000Y-13314762D01*
M02*
