ISO-10303-21;
HEADER;
/* Generated by software containing ST-Developer
 * from STEP Tools, Inc. (www.steptools.com) 
 */

FILE_DESCRIPTION(
/* description */ (''),
/* implementation_level */ '2;1');

FILE_NAME(
/* name */ 'VCNT2020 v3.step',
/* time_stamp */ '2025-08-11T02:36:58+09:00',
/* author */ (''),
/* organization */ (''),
/* preprocessor_version */ 'ST-DEVELOPER v20.1',
/* originating_system */ 'Autodesk Translation Framework v14.10.0.0',
/* authorisation */ '');

FILE_SCHEMA (('AUTOMOTIVE_DESIGN { 1 0 10303 214 3 1 1 }'));
ENDSEC;

DATA;
#10=MECHANICAL_DESIGN_GEOMETRIC_PRESENTATION_REPRESENTATION('',(#13),#339);
#11=SHAPE_REPRESENTATION_RELATIONSHIP('SRR','None',#346,#12);
#12=ADVANCED_BREP_SHAPE_REPRESENTATION('',(#14),#338);
#13=STYLED_ITEM('',(#356),#14);
#14=MANIFOLD_SOLID_BREP('\X2\30DC30C730A3\X0\1',#199);
#15=FACE_BOUND('',#50,.T.);
#16=FACE_BOUND('',#51,.T.);
#17=PLANE('',#216);
#18=PLANE('',#220);
#19=PLANE('',#221);
#20=PLANE('',#222);
#21=PLANE('',#223);
#22=PLANE('',#224);
#23=PLANE('',#225);
#24=PLANE('',#226);
#25=PLANE('',#227);
#26=PLANE('',#228);
#27=FACE_OUTER_BOUND('',#39,.T.);
#28=FACE_OUTER_BOUND('',#40,.T.);
#29=FACE_OUTER_BOUND('',#41,.T.);
#30=FACE_OUTER_BOUND('',#42,.T.);
#31=FACE_OUTER_BOUND('',#43,.T.);
#32=FACE_OUTER_BOUND('',#44,.T.);
#33=FACE_OUTER_BOUND('',#45,.T.);
#34=FACE_OUTER_BOUND('',#46,.T.);
#35=FACE_OUTER_BOUND('',#47,.T.);
#36=FACE_OUTER_BOUND('',#48,.T.);
#37=FACE_OUTER_BOUND('',#49,.T.);
#38=FACE_OUTER_BOUND('',#52,.T.);
#39=EDGE_LOOP('',(#137,#138,#139,#140));
#40=EDGE_LOOP('',(#141,#142));
#41=EDGE_LOOP('',(#143,#144,#145,#146));
#42=EDGE_LOOP('',(#147,#148));
#43=EDGE_LOOP('',(#149,#150));
#44=EDGE_LOOP('',(#151,#152));
#45=EDGE_LOOP('',(#153,#154,#155,#156));
#46=EDGE_LOOP('',(#157,#158,#159,#160));
#47=EDGE_LOOP('',(#161,#162,#163,#164));
#48=EDGE_LOOP('',(#165,#166,#167,#168));
#49=EDGE_LOOP('',(#169,#170,#171,#172));
#50=EDGE_LOOP('',(#173,#174,#175,#176));
#51=EDGE_LOOP('',(#177,#178,#179,#180));
#52=EDGE_LOOP('',(#181,#182,#183,#184));
#53=LINE('',#289,#73);
#54=LINE('',#292,#74);
#55=LINE('',#294,#75);
#56=LINE('',#300,#76);
#57=LINE('',#303,#77);
#58=LINE('',#305,#78);
#59=LINE('',#307,#79);
#60=LINE('',#309,#80);
#61=LINE('',#313,#81);
#62=LINE('',#315,#82);
#63=LINE('',#317,#83);
#64=LINE('',#318,#84);
#65=LINE('',#321,#85);
#66=LINE('',#323,#86);
#67=LINE('',#324,#87);
#68=LINE('',#327,#88);
#69=LINE('',#329,#89);
#70=LINE('',#330,#90);
#71=LINE('',#332,#91);
#72=LINE('',#333,#92);
#73=VECTOR('',#235,10.);
#74=VECTOR('',#238,10.);
#75=VECTOR('',#241,10.);
#76=VECTOR('',#246,10.);
#77=VECTOR('',#249,10.);
#78=VECTOR('',#252,10.);
#79=VECTOR('',#255,10.);
#80=VECTOR('',#258,10.);
#81=VECTOR('',#261,10.);
#82=VECTOR('',#262,10.);
#83=VECTOR('',#263,10.);
#84=VECTOR('',#264,10.);
#85=VECTOR('',#267,10.);
#86=VECTOR('',#268,10.);
#87=VECTOR('',#269,10.);
#88=VECTOR('',#272,10.);
#89=VECTOR('',#273,10.);
#90=VECTOR('',#274,10.);
#91=VECTOR('',#277,10.);
#92=VECTOR('',#278,10.);
#93=CIRCLE('',#214,0.55);
#94=CIRCLE('',#215,0.55);
#95=CIRCLE('',#218,0.55);
#96=CIRCLE('',#219,0.55);
#97=VERTEX_POINT('',#285);
#98=VERTEX_POINT('',#286);
#99=VERTEX_POINT('',#288);
#100=VERTEX_POINT('',#290);
#101=VERTEX_POINT('',#296);
#102=VERTEX_POINT('',#297);
#103=VERTEX_POINT('',#299);
#104=VERTEX_POINT('',#301);
#105=VERTEX_POINT('',#311);
#106=VERTEX_POINT('',#312);
#107=VERTEX_POINT('',#314);
#108=VERTEX_POINT('',#316);
#109=VERTEX_POINT('',#320);
#110=VERTEX_POINT('',#322);
#111=VERTEX_POINT('',#326);
#112=VERTEX_POINT('',#328);
#113=EDGE_CURVE('',#97,#98,#93,.T.);
#114=EDGE_CURVE('',#99,#97,#53,.T.);
#115=EDGE_CURVE('',#100,#99,#94,.T.);
#116=EDGE_CURVE('',#98,#100,#54,.T.);
#117=EDGE_CURVE('',#100,#99,#55,.T.);
#118=EDGE_CURVE('',#101,#102,#95,.T.);
#119=EDGE_CURVE('',#103,#101,#56,.T.);
#120=EDGE_CURVE('',#104,#103,#96,.T.);
#121=EDGE_CURVE('',#102,#104,#57,.T.);
#122=EDGE_CURVE('',#104,#103,#58,.T.);
#123=EDGE_CURVE('',#101,#102,#59,.T.);
#124=EDGE_CURVE('',#97,#98,#60,.T.);
#125=EDGE_CURVE('',#105,#106,#61,.T.);
#126=EDGE_CURVE('',#106,#107,#62,.T.);
#127=EDGE_CURVE('',#108,#107,#63,.T.);
#128=EDGE_CURVE('',#105,#108,#64,.T.);
#129=EDGE_CURVE('',#109,#105,#65,.T.);
#130=EDGE_CURVE('',#110,#108,#66,.T.);
#131=EDGE_CURVE('',#109,#110,#67,.T.);
#132=EDGE_CURVE('',#111,#109,#68,.T.);
#133=EDGE_CURVE('',#112,#110,#69,.T.);
#134=EDGE_CURVE('',#111,#112,#70,.T.);
#135=EDGE_CURVE('',#106,#111,#71,.T.);
#136=EDGE_CURVE('',#107,#112,#72,.T.);
#137=ORIENTED_EDGE('',*,*,#113,.F.);
#138=ORIENTED_EDGE('',*,*,#114,.F.);
#139=ORIENTED_EDGE('',*,*,#115,.F.);
#140=ORIENTED_EDGE('',*,*,#116,.F.);
#141=ORIENTED_EDGE('',*,*,#115,.T.);
#142=ORIENTED_EDGE('',*,*,#117,.F.);
#143=ORIENTED_EDGE('',*,*,#118,.F.);
#144=ORIENTED_EDGE('',*,*,#119,.F.);
#145=ORIENTED_EDGE('',*,*,#120,.F.);
#146=ORIENTED_EDGE('',*,*,#121,.F.);
#147=ORIENTED_EDGE('',*,*,#120,.T.);
#148=ORIENTED_EDGE('',*,*,#122,.F.);
#149=ORIENTED_EDGE('',*,*,#118,.T.);
#150=ORIENTED_EDGE('',*,*,#123,.F.);
#151=ORIENTED_EDGE('',*,*,#113,.T.);
#152=ORIENTED_EDGE('',*,*,#124,.F.);
#153=ORIENTED_EDGE('',*,*,#125,.T.);
#154=ORIENTED_EDGE('',*,*,#126,.T.);
#155=ORIENTED_EDGE('',*,*,#127,.F.);
#156=ORIENTED_EDGE('',*,*,#128,.F.);
#157=ORIENTED_EDGE('',*,*,#129,.T.);
#158=ORIENTED_EDGE('',*,*,#128,.T.);
#159=ORIENTED_EDGE('',*,*,#130,.F.);
#160=ORIENTED_EDGE('',*,*,#131,.F.);
#161=ORIENTED_EDGE('',*,*,#132,.T.);
#162=ORIENTED_EDGE('',*,*,#131,.T.);
#163=ORIENTED_EDGE('',*,*,#133,.F.);
#164=ORIENTED_EDGE('',*,*,#134,.F.);
#165=ORIENTED_EDGE('',*,*,#135,.T.);
#166=ORIENTED_EDGE('',*,*,#134,.T.);
#167=ORIENTED_EDGE('',*,*,#136,.F.);
#168=ORIENTED_EDGE('',*,*,#126,.F.);
#169=ORIENTED_EDGE('',*,*,#136,.T.);
#170=ORIENTED_EDGE('',*,*,#133,.T.);
#171=ORIENTED_EDGE('',*,*,#130,.T.);
#172=ORIENTED_EDGE('',*,*,#127,.T.);
#173=ORIENTED_EDGE('',*,*,#119,.T.);
#174=ORIENTED_EDGE('',*,*,#123,.T.);
#175=ORIENTED_EDGE('',*,*,#121,.T.);
#176=ORIENTED_EDGE('',*,*,#122,.T.);
#177=ORIENTED_EDGE('',*,*,#114,.T.);
#178=ORIENTED_EDGE('',*,*,#124,.T.);
#179=ORIENTED_EDGE('',*,*,#116,.T.);
#180=ORIENTED_EDGE('',*,*,#117,.T.);
#181=ORIENTED_EDGE('',*,*,#135,.F.);
#182=ORIENTED_EDGE('',*,*,#125,.F.);
#183=ORIENTED_EDGE('',*,*,#129,.F.);
#184=ORIENTED_EDGE('',*,*,#132,.F.);
#185=CYLINDRICAL_SURFACE('',#213,0.55);
#186=CYLINDRICAL_SURFACE('',#217,0.55);
#187=ADVANCED_FACE('',(#27),#185,.F.);
#188=ADVANCED_FACE('',(#28),#17,.F.);
#189=ADVANCED_FACE('',(#29),#186,.F.);
#190=ADVANCED_FACE('',(#30),#18,.F.);
#191=ADVANCED_FACE('',(#31),#19,.F.);
#192=ADVANCED_FACE('',(#32),#20,.F.);
#193=ADVANCED_FACE('',(#33),#21,.T.);
#194=ADVANCED_FACE('',(#34),#22,.T.);
#195=ADVANCED_FACE('',(#35),#23,.T.);
#196=ADVANCED_FACE('',(#36),#24,.T.);
#197=ADVANCED_FACE('',(#37,#15,#16),#25,.T.);
#198=ADVANCED_FACE('',(#38),#26,.F.);
#199=CLOSED_SHELL('',(#187,#188,#189,#190,#191,#192,#193,#194,#195,#196,
#197,#198));
#200=DERIVED_UNIT_ELEMENT(#202,1.);
#201=DERIVED_UNIT_ELEMENT(#341,-3.);
#202=(
MASS_UNIT()
NAMED_UNIT(*)
SI_UNIT(.KILO.,.GRAM.)
);
#203=DERIVED_UNIT((#200,#201));
#204=MEASURE_REPRESENTATION_ITEM('density measure',
POSITIVE_RATIO_MEASURE(7850.),#203);
#205=PROPERTY_DEFINITION_REPRESENTATION(#210,#207);
#206=PROPERTY_DEFINITION_REPRESENTATION(#211,#208);
#207=REPRESENTATION('material name',(#209),#338);
#208=REPRESENTATION('density',(#204),#338);
#209=DESCRIPTIVE_REPRESENTATION_ITEM('\X2\92FC\X0\','\X2\92FC\X0\');
#210=PROPERTY_DEFINITION('material property','material name',#348);
#211=PROPERTY_DEFINITION('material property','density of part',#348);
#212=AXIS2_PLACEMENT_3D('',#283,#229,#230);
#213=AXIS2_PLACEMENT_3D('',#284,#231,#232);
#214=AXIS2_PLACEMENT_3D('',#287,#233,#234);
#215=AXIS2_PLACEMENT_3D('',#291,#236,#237);
#216=AXIS2_PLACEMENT_3D('',#293,#239,#240);
#217=AXIS2_PLACEMENT_3D('',#295,#242,#243);
#218=AXIS2_PLACEMENT_3D('',#298,#244,#245);
#219=AXIS2_PLACEMENT_3D('',#302,#247,#248);
#220=AXIS2_PLACEMENT_3D('',#304,#250,#251);
#221=AXIS2_PLACEMENT_3D('',#306,#253,#254);
#222=AXIS2_PLACEMENT_3D('',#308,#256,#257);
#223=AXIS2_PLACEMENT_3D('',#310,#259,#260);
#224=AXIS2_PLACEMENT_3D('',#319,#265,#266);
#225=AXIS2_PLACEMENT_3D('',#325,#270,#271);
#226=AXIS2_PLACEMENT_3D('',#331,#275,#276);
#227=AXIS2_PLACEMENT_3D('',#334,#279,#280);
#228=AXIS2_PLACEMENT_3D('',#335,#281,#282);
#229=DIRECTION('axis',(0.,0.,1.));
#230=DIRECTION('refdir',(1.,0.,0.));
#231=DIRECTION('center_axis',(-8.67361737988403E-17,0.,1.));
#232=DIRECTION('ref_axis',(-0.727272727272727,-0.686348585024614,-1.26161707343768E-16));
#233=DIRECTION('center_axis',(0.,0.,-1.));
#234=DIRECTION('ref_axis',(-0.727272727272727,-0.686348585024614,-1.26161707343768E-16));
#235=DIRECTION('',(0.,0.,1.));
#236=DIRECTION('center_axis',(0.,0.,1.));
#237=DIRECTION('ref_axis',(-0.727272727272727,-0.686348585024614,-1.26161707343768E-16));
#238=DIRECTION('',(0.,0.,-1.));
#239=DIRECTION('center_axis',(0.,0.,-1.));
#240=DIRECTION('ref_axis',(1.,0.,0.));
#241=DIRECTION('',(1.,0.,0.));
#242=DIRECTION('center_axis',(-8.67361737988404E-17,0.,1.));
#243=DIRECTION('ref_axis',(-0.727272727272727,-0.686348585024614,-1.26161707343768E-16));
#244=DIRECTION('center_axis',(0.,0.,-1.));
#245=DIRECTION('ref_axis',(-0.727272727272727,-0.686348585024614,-1.26161707343768E-16));
#246=DIRECTION('',(0.,0.,1.));
#247=DIRECTION('center_axis',(0.,0.,1.));
#248=DIRECTION('ref_axis',(-0.727272727272727,-0.686348585024614,-1.26161707343768E-16));
#249=DIRECTION('',(0.,0.,-1.));
#250=DIRECTION('center_axis',(0.,0.,-1.));
#251=DIRECTION('ref_axis',(1.,0.,0.));
#252=DIRECTION('',(1.,0.,0.));
#253=DIRECTION('center_axis',(0.,0.,1.));
#254=DIRECTION('ref_axis',(-1.,0.,0.));
#255=DIRECTION('',(-1.,0.,0.));
#256=DIRECTION('center_axis',(0.,0.,1.));
#257=DIRECTION('ref_axis',(-1.,0.,0.));
#258=DIRECTION('',(-1.,0.,0.));
#259=DIRECTION('center_axis',(0.,0.,-1.));
#260=DIRECTION('ref_axis',(-1.,0.,0.));
#261=DIRECTION('',(-1.,0.,0.));
#262=DIRECTION('',(0.,1.,0.));
#263=DIRECTION('',(-1.,0.,0.));
#264=DIRECTION('',(0.,1.,0.));
#265=DIRECTION('center_axis',(1.,0.,0.));
#266=DIRECTION('ref_axis',(0.,0.,-1.));
#267=DIRECTION('',(0.,0.,-1.));
#268=DIRECTION('',(0.,0.,-1.));
#269=DIRECTION('',(0.,1.,0.));
#270=DIRECTION('center_axis',(0.,0.,1.));
#271=DIRECTION('ref_axis',(1.,0.,0.));
#272=DIRECTION('',(1.,0.,0.));
#273=DIRECTION('',(1.,0.,0.));
#274=DIRECTION('',(0.,1.,0.));
#275=DIRECTION('center_axis',(-1.,0.,0.));
#276=DIRECTION('ref_axis',(0.,0.,1.));
#277=DIRECTION('',(0.,0.,1.));
#278=DIRECTION('',(0.,0.,1.));
#279=DIRECTION('center_axis',(0.,1.,0.));
#280=DIRECTION('ref_axis',(0.,0.,1.));
#281=DIRECTION('center_axis',(0.,1.,0.));
#282=DIRECTION('ref_axis',(1.,0.,0.));
#283=CARTESIAN_POINT('',(0.,0.,0.));
#284=CARTESIAN_POINT('Origin',(0.7,1.17749172176354,-0.6));
#285=CARTESIAN_POINT('',(1.1,0.8,-0.2));
#286=CARTESIAN_POINT('',(0.3,0.8,-0.2));
#287=CARTESIAN_POINT('Origin',(0.7,1.17749172176354,-0.2));
#288=CARTESIAN_POINT('',(1.1,0.8,-1.8));
#289=CARTESIAN_POINT('',(1.1,0.8,-1.4));
#290=CARTESIAN_POINT('',(0.3,0.8,-1.8));
#291=CARTESIAN_POINT('Origin',(0.7,1.17749172176354,-1.8));
#292=CARTESIAN_POINT('',(0.3,0.8,-0.6));
#293=CARTESIAN_POINT('Origin',(0.3,0.8,-1.8));
#294=CARTESIAN_POINT('',(0.775,0.8,-1.8));
#295=CARTESIAN_POINT('Origin',(1.8,1.17749172176354,-0.6));
#296=CARTESIAN_POINT('',(2.2,0.8,-0.2));
#297=CARTESIAN_POINT('',(1.4,0.8,-0.2));
#298=CARTESIAN_POINT('Origin',(1.8,1.17749172176354,-0.2));
#299=CARTESIAN_POINT('',(2.2,0.8,-1.8));
#300=CARTESIAN_POINT('',(2.2,0.8,-1.4));
#301=CARTESIAN_POINT('',(1.4,0.8,-1.8));
#302=CARTESIAN_POINT('Origin',(1.8,1.17749172176354,-1.8));
#303=CARTESIAN_POINT('',(1.4,0.8,-0.6));
#304=CARTESIAN_POINT('Origin',(1.4,0.8,-1.8));
#305=CARTESIAN_POINT('',(1.325,0.8,-1.8));
#306=CARTESIAN_POINT('Origin',(2.2,0.8,-0.2));
#307=CARTESIAN_POINT('',(1.725,0.8,-0.2));
#308=CARTESIAN_POINT('Origin',(1.1,0.8,-0.2));
#309=CARTESIAN_POINT('',(1.175,0.8,-0.2));
#310=CARTESIAN_POINT('Origin',(2.5,0.,-2.));
#311=CARTESIAN_POINT('',(2.5,0.,-2.));
#312=CARTESIAN_POINT('',(0.,0.,-2.));
#313=CARTESIAN_POINT('',(2.5,0.,-2.));
#314=CARTESIAN_POINT('',(0.,0.8,-2.));
#315=CARTESIAN_POINT('',(0.,0.,-2.));
#316=CARTESIAN_POINT('',(2.5,0.8,-2.));
#317=CARTESIAN_POINT('',(2.5,0.8,-2.));
#318=CARTESIAN_POINT('',(2.5,0.,-2.));
#319=CARTESIAN_POINT('Origin',(2.5,0.,0.));
#320=CARTESIAN_POINT('',(2.5,0.,0.));
#321=CARTESIAN_POINT('',(2.5,0.,0.));
#322=CARTESIAN_POINT('',(2.5,0.8,0.));
#323=CARTESIAN_POINT('',(2.5,0.8,0.));
#324=CARTESIAN_POINT('',(2.5,0.,0.));
#325=CARTESIAN_POINT('Origin',(0.,0.,0.));
#326=CARTESIAN_POINT('',(0.,0.,0.));
#327=CARTESIAN_POINT('',(0.,0.,0.));
#328=CARTESIAN_POINT('',(0.,0.8,0.));
#329=CARTESIAN_POINT('',(0.,0.8,0.));
#330=CARTESIAN_POINT('',(0.,0.,0.));
#331=CARTESIAN_POINT('Origin',(0.,0.,-2.));
#332=CARTESIAN_POINT('',(0.,0.,-2.));
#333=CARTESIAN_POINT('',(0.,0.8,-2.));
#334=CARTESIAN_POINT('Origin',(1.25,0.8,-1.));
#335=CARTESIAN_POINT('Origin',(1.25,0.,-1.));
#336=UNCERTAINTY_MEASURE_WITH_UNIT(LENGTH_MEASURE(0.01),#340,
'DISTANCE_ACCURACY_VALUE',
'Maximum model space distance between geometric entities at asserted c
onnectivities');
#337=UNCERTAINTY_MEASURE_WITH_UNIT(LENGTH_MEASURE(0.01),#340,
'DISTANCE_ACCURACY_VALUE',
'Maximum model space distance between geometric entities at asserted c
onnectivities');
#338=(
GEOMETRIC_REPRESENTATION_CONTEXT(3)
GLOBAL_UNCERTAINTY_ASSIGNED_CONTEXT((#336))
GLOBAL_UNIT_ASSIGNED_CONTEXT((#340,#342,#343))
REPRESENTATION_CONTEXT('','3D')
);
#339=(
GEOMETRIC_REPRESENTATION_CONTEXT(3)
GLOBAL_UNCERTAINTY_ASSIGNED_CONTEXT((#337))
GLOBAL_UNIT_ASSIGNED_CONTEXT((#340,#342,#343))
REPRESENTATION_CONTEXT('','3D')
);
#340=(
LENGTH_UNIT()
NAMED_UNIT(*)
SI_UNIT(.MILLI.,.METRE.)
);
#341=(
LENGTH_UNIT()
NAMED_UNIT(*)
SI_UNIT($,.METRE.)
);
#342=(
NAMED_UNIT(*)
PLANE_ANGLE_UNIT()
SI_UNIT($,.RADIAN.)
);
#343=(
NAMED_UNIT(*)
SI_UNIT($,.STERADIAN.)
SOLID_ANGLE_UNIT()
);
#344=SHAPE_DEFINITION_REPRESENTATION(#345,#346);
#345=PRODUCT_DEFINITION_SHAPE('',$,#348);
#346=SHAPE_REPRESENTATION('',(#212),#338);
#347=PRODUCT_DEFINITION_CONTEXT('part definition',#352,'design');
#348=PRODUCT_DEFINITION('VCNT2020','VCNT2020 v2',#349,#347);
#349=PRODUCT_DEFINITION_FORMATION('',$,#354);
#350=PRODUCT_RELATED_PRODUCT_CATEGORY('VCNT2020 v2','VCNT2020 v2',(#354));
#351=APPLICATION_PROTOCOL_DEFINITION('international standard',
'automotive_design',2009,#352);
#352=APPLICATION_CONTEXT(
'Core Data for Automotive Mechanical Design Process');
#353=PRODUCT_CONTEXT('part definition',#352,'mechanical');
#354=PRODUCT('VCNT2020','VCNT2020 v2',$,(#353));
#355=PRESENTATION_STYLE_ASSIGNMENT((#357));
#356=PRESENTATION_STYLE_ASSIGNMENT((#358));
#357=SURFACE_STYLE_USAGE(.BOTH.,#359);
#358=SURFACE_STYLE_USAGE(.BOTH.,#360);
#359=SURFACE_SIDE_STYLE('',(#361));
#360=SURFACE_SIDE_STYLE('',(#362));
#361=SURFACE_STYLE_FILL_AREA(#363);
#362=SURFACE_STYLE_FILL_AREA(#364);
#363=FILL_AREA_STYLE('\X2\92FC\X0\ - \X2\30B530C630F3\X0\',(#365));
#364=FILL_AREA_STYLE('\X2\30D730E930B930C130C330AF\X0\ - \X2\30DE30C330C8\X0\(
\X2\9ED2\X0\)',(#366));
#365=FILL_AREA_STYLE_COLOUR('\X2\92FC\X0\ - \X2\30B530C630F3\X0\',#367);
#366=FILL_AREA_STYLE_COLOUR('\X2\30D730E930B930C130C330AF\X0\ - \X2\30DE30C330C8\X0\(
\X2\9ED2\X0\)',#368);
#367=COLOUR_RGB('\X2\92FC\X0\ - \X2\30B530C630F3\X0\',0.627450980392157,
0.627450980392157,0.627450980392157);
#368=COLOUR_RGB('\X2\30D730E930B930C130C330AF\X0\ - \X2\30DE30C330C8\X0\(
\X2\9ED2\X0\)',0.0980392156862745,0.0980392156862745,0.0980392156862745);
ENDSEC;
END-ISO-10303-21;
