G04 #@! TF.FileFunction,Legend,Bot*
%FSLAX46Y46*%
G04 Gerber Fmt 4.6, Leading zero omitted, Abs format (unit mm)*
G04 Created by KiCad (PCBNEW 4.0.6) date 05/02/17 10:19:31*
%MOMM*%
%LPD*%
G01*
G04 APERTURE LIST*
%ADD10C,0.100000*%
%ADD11C,0.200000*%
%ADD12C,0.300000*%
%ADD13C,0.150000*%
%ADD14C,0.101600*%
%ADD15C,1.700000*%
%ADD16R,1.700000X1.700000*%
%ADD17O,1.900000X2.900000*%
%ADD18C,3.400000*%
%ADD19O,2.900000X1.900000*%
%ADD20C,2.100000*%
%ADD21R,2.100000X2.100000*%
%ADD22R,1.950000X1.000000*%
%ADD23R,1.400000X1.200000*%
%ADD24R,3.448000X2.051000*%
%ADD25R,6.496000X6.496000*%
%ADD26R,2.432000X2.432000*%
%ADD27O,2.432000X2.432000*%
%ADD28R,2.000000X2.200000*%
%ADD29R,1.200000X1.400000*%
%ADD30O,1.400000X1.924000*%
%ADD31C,1.924000*%
%ADD32R,3.400000X6.900000*%
%ADD33R,6.851600X3.400000*%
%ADD34R,2.051000X3.448000*%
%ADD35R,1.901140X1.400760*%
%ADD36R,3.399740X2.398980*%
%ADD37R,3.400000X2.400000*%
%ADD38R,2.900000X6.900000*%
%ADD39R,2.200000X3.700000*%
%ADD40R,3.400000X3.900000*%
%ADD41R,10.400000X8.400000*%
%ADD42R,1.050000X2.100000*%
%ADD43R,2.432000X2.127200*%
%ADD44O,2.432000X2.127200*%
%ADD45R,2.800000X5.900000*%
%ADD46R,5.900000X2.800000*%
%ADD47C,0.026000*%
%ADD48C,0.254000*%
G04 APERTURE END LIST*
D10*
D11*
X66771429Y-79457143D02*
X66714286Y-79400000D01*
X66600000Y-79342857D01*
X66314286Y-79342857D01*
X66200000Y-79400000D01*
X66142857Y-79457143D01*
X66085714Y-79571429D01*
X66085714Y-79685714D01*
X66142857Y-79857143D01*
X66828571Y-80542857D01*
X66085714Y-80542857D01*
X65342857Y-79342857D02*
X65228572Y-79342857D01*
X65114286Y-79400000D01*
X65057143Y-79457143D01*
X65000000Y-79571429D01*
X64942857Y-79800000D01*
X64942857Y-80085714D01*
X65000000Y-80314286D01*
X65057143Y-80428571D01*
X65114286Y-80485714D01*
X65228572Y-80542857D01*
X65342857Y-80542857D01*
X65457143Y-80485714D01*
X65514286Y-80428571D01*
X65571429Y-80314286D01*
X65628572Y-80085714D01*
X65628572Y-79800000D01*
X65571429Y-79571429D01*
X65514286Y-79457143D01*
X65457143Y-79400000D01*
X65342857Y-79342857D01*
X63800000Y-80542857D02*
X64485715Y-80542857D01*
X64142857Y-80542857D02*
X64142857Y-79342857D01*
X64257143Y-79514286D01*
X64371429Y-79628571D01*
X64485715Y-79685714D01*
X63400000Y-79342857D02*
X62600000Y-79342857D01*
X63114286Y-80542857D01*
X62142858Y-80428571D02*
X62085715Y-80485714D01*
X62142858Y-80542857D01*
X62200001Y-80485714D01*
X62142858Y-80428571D01*
X62142858Y-80542857D01*
X61000000Y-79342857D02*
X61571429Y-79342857D01*
X61628572Y-79914286D01*
X61571429Y-79857143D01*
X61457143Y-79800000D01*
X61171429Y-79800000D01*
X61057143Y-79857143D01*
X61000000Y-79914286D01*
X60942857Y-80028571D01*
X60942857Y-80314286D01*
X61000000Y-80428571D01*
X61057143Y-80485714D01*
X61171429Y-80542857D01*
X61457143Y-80542857D01*
X61571429Y-80485714D01*
X61628572Y-80428571D01*
X60428572Y-80428571D02*
X60371429Y-80485714D01*
X60428572Y-80542857D01*
X60485715Y-80485714D01*
X60428572Y-80428571D01*
X60428572Y-80542857D01*
X59914286Y-79457143D02*
X59857143Y-79400000D01*
X59742857Y-79342857D01*
X59457143Y-79342857D01*
X59342857Y-79400000D01*
X59285714Y-79457143D01*
X59228571Y-79571429D01*
X59228571Y-79685714D01*
X59285714Y-79857143D01*
X59971428Y-80542857D01*
X59228571Y-80542857D01*
X63542857Y-40057143D02*
X62742857Y-40057143D01*
X62971429Y-40057143D02*
X62857143Y-40114286D01*
X62800000Y-40171429D01*
X62742857Y-40285715D01*
X62742857Y-40400000D01*
X63485714Y-41257143D02*
X63542857Y-41142857D01*
X63542857Y-40914286D01*
X63485714Y-40800000D01*
X63371429Y-40742857D01*
X62914286Y-40742857D01*
X62800000Y-40800000D01*
X62742857Y-40914286D01*
X62742857Y-41142857D01*
X62800000Y-41257143D01*
X62914286Y-41314286D01*
X63028571Y-41314286D01*
X63142857Y-40742857D01*
X63485714Y-41771428D02*
X63542857Y-41885714D01*
X63542857Y-42114286D01*
X63485714Y-42228571D01*
X63371429Y-42285714D01*
X63314286Y-42285714D01*
X63200000Y-42228571D01*
X63142857Y-42114286D01*
X63142857Y-41942857D01*
X63085714Y-41828571D01*
X62971429Y-41771428D01*
X62914286Y-41771428D01*
X62800000Y-41828571D01*
X62742857Y-41942857D01*
X62742857Y-42114286D01*
X62800000Y-42228571D01*
X63485714Y-43257143D02*
X63542857Y-43142857D01*
X63542857Y-42914286D01*
X63485714Y-42800000D01*
X63371429Y-42742857D01*
X62914286Y-42742857D01*
X62800000Y-42800000D01*
X62742857Y-42914286D01*
X62742857Y-43142857D01*
X62800000Y-43257143D01*
X62914286Y-43314286D01*
X63028571Y-43314286D01*
X63142857Y-42742857D01*
X62742857Y-43657143D02*
X62742857Y-44114286D01*
X62342857Y-43828571D02*
X63371429Y-43828571D01*
X63485714Y-43885714D01*
X63542857Y-44000000D01*
X63542857Y-44114286D01*
X67742857Y-39571429D02*
X68942857Y-39571429D01*
X67800000Y-39571429D02*
X67742857Y-39685715D01*
X67742857Y-39914286D01*
X67800000Y-40028572D01*
X67857143Y-40085715D01*
X67971429Y-40142858D01*
X68314286Y-40142858D01*
X68428571Y-40085715D01*
X68485714Y-40028572D01*
X68542857Y-39914286D01*
X68542857Y-39685715D01*
X68485714Y-39571429D01*
X67742857Y-40542858D02*
X68542857Y-40771429D01*
X67971429Y-41000000D01*
X68542857Y-41228572D01*
X67742857Y-41457143D01*
X68542857Y-43000001D02*
X68485714Y-42885715D01*
X68428571Y-42828572D01*
X68314286Y-42771429D01*
X67971429Y-42771429D01*
X67857143Y-42828572D01*
X67800000Y-42885715D01*
X67742857Y-43000001D01*
X67742857Y-43171429D01*
X67800000Y-43285715D01*
X67857143Y-43342858D01*
X67971429Y-43400001D01*
X68314286Y-43400001D01*
X68428571Y-43342858D01*
X68485714Y-43285715D01*
X68542857Y-43171429D01*
X68542857Y-43000001D01*
X67742857Y-43914286D02*
X68542857Y-43914286D01*
X67857143Y-43914286D02*
X67800000Y-43971429D01*
X67742857Y-44085715D01*
X67742857Y-44257143D01*
X67800000Y-44371429D01*
X67914286Y-44428572D01*
X68542857Y-44428572D01*
D12*
X40994049Y-69404762D02*
X40744049Y-67404762D01*
X39851191Y-69404762D02*
X40565477Y-68261905D01*
X39601191Y-67404762D02*
X40886906Y-68547619D01*
X38136906Y-69404762D02*
X38005954Y-68357143D01*
X38077382Y-68166667D01*
X38255954Y-68071429D01*
X38636906Y-68071429D01*
X38839287Y-68166667D01*
X38125001Y-69309524D02*
X38327382Y-69404762D01*
X38803572Y-69404762D01*
X38982144Y-69309524D01*
X39053573Y-69119048D01*
X39029763Y-68928571D01*
X38910716Y-68738095D01*
X38708334Y-68642857D01*
X38232144Y-68642857D01*
X38029763Y-68547619D01*
X36160716Y-68071429D02*
X36327382Y-69404762D01*
X37017859Y-68071429D02*
X37148811Y-69119048D01*
X37077381Y-69309524D01*
X36898810Y-69404762D01*
X36613096Y-69404762D01*
X36410715Y-69309524D01*
X36303573Y-69214286D01*
X35458334Y-69309524D02*
X35279762Y-69404762D01*
X34898810Y-69404762D01*
X34696429Y-69309524D01*
X34577382Y-69119048D01*
X34565477Y-69023810D01*
X34636906Y-68833333D01*
X34815477Y-68738095D01*
X35101191Y-68738095D01*
X35279763Y-68642857D01*
X35351192Y-68452381D01*
X35339287Y-68357143D01*
X35220239Y-68166667D01*
X35017858Y-68071429D01*
X34732144Y-68071429D01*
X34553572Y-68166667D01*
X32255953Y-68833333D02*
X31303572Y-68833333D01*
X32517857Y-69404762D02*
X31601190Y-67404762D01*
X31184523Y-69404762D01*
X29494048Y-68071429D02*
X29660714Y-69404762D01*
X30351191Y-68071429D02*
X30482143Y-69119048D01*
X30410713Y-69309524D01*
X30232142Y-69404762D01*
X29946428Y-69404762D01*
X29744047Y-69309524D01*
X29636905Y-69214286D01*
X28791666Y-69309524D02*
X28613094Y-69404762D01*
X28232142Y-69404762D01*
X28029761Y-69309524D01*
X27910714Y-69119048D01*
X27898809Y-69023810D01*
X27970238Y-68833333D01*
X28148809Y-68738095D01*
X28434523Y-68738095D01*
X28613095Y-68642857D01*
X28684524Y-68452381D01*
X28672619Y-68357143D01*
X28553571Y-68166667D01*
X28351190Y-68071429D01*
X28065476Y-68071429D01*
X27886904Y-68166667D01*
X27208333Y-68071429D02*
X26446428Y-68071429D01*
X26839285Y-67404762D02*
X27053571Y-69119048D01*
X26982141Y-69309524D01*
X26803570Y-69404762D01*
X26613094Y-69404762D01*
X25946428Y-69404762D02*
X25779762Y-68071429D01*
X25827381Y-68452381D02*
X25708332Y-68261905D01*
X25601189Y-68166667D01*
X25398809Y-68071429D01*
X25208333Y-68071429D01*
X23851190Y-69404762D02*
X23720238Y-68357143D01*
X23791666Y-68166667D01*
X23970238Y-68071429D01*
X24351190Y-68071429D01*
X24553571Y-68166667D01*
X23839285Y-69309524D02*
X24041666Y-69404762D01*
X24517856Y-69404762D01*
X24696428Y-69309524D01*
X24767857Y-69119048D01*
X24744047Y-68928571D01*
X24625000Y-68738095D01*
X24422618Y-68642857D01*
X23946428Y-68642857D01*
X23744047Y-68547619D01*
X22613094Y-69404762D02*
X22791665Y-69309524D01*
X22863095Y-69119048D01*
X22648809Y-67404762D01*
X21851190Y-69404762D02*
X21684524Y-68071429D01*
X21601190Y-67404762D02*
X21708333Y-67500000D01*
X21625000Y-67595238D01*
X21517856Y-67500000D01*
X21601190Y-67404762D01*
X21625000Y-67595238D01*
X20982142Y-69309524D02*
X20803570Y-69404762D01*
X20422618Y-69404762D01*
X20220237Y-69309524D01*
X20101190Y-69119048D01*
X20089285Y-69023810D01*
X20160714Y-68833333D01*
X20339285Y-68738095D01*
X20624999Y-68738095D01*
X20803571Y-68642857D01*
X20875000Y-68452381D01*
X20863095Y-68357143D01*
X20744047Y-68166667D01*
X20541666Y-68071429D01*
X20255952Y-68071429D01*
X20077380Y-68166667D01*
X60985715Y-65642857D02*
X61071429Y-65728571D01*
X61328572Y-65814286D01*
X61500001Y-65814286D01*
X61757144Y-65728571D01*
X61928572Y-65557143D01*
X62014287Y-65385714D01*
X62100001Y-65042857D01*
X62100001Y-64785714D01*
X62014287Y-64442857D01*
X61928572Y-64271429D01*
X61757144Y-64100000D01*
X61500001Y-64014286D01*
X61328572Y-64014286D01*
X61071429Y-64100000D01*
X60985715Y-64185714D01*
X60300001Y-65300000D02*
X59442858Y-65300000D01*
X60471429Y-65814286D02*
X59871429Y-64014286D01*
X59271429Y-65814286D01*
X58671430Y-65814286D02*
X58671430Y-64014286D01*
X57642858Y-65814286D01*
X57642858Y-64014286D01*
X55414287Y-65814286D02*
X55414287Y-64014286D01*
X54985715Y-64014286D01*
X54728572Y-64100000D01*
X54557144Y-64271429D01*
X54471429Y-64442857D01*
X54385715Y-64785714D01*
X54385715Y-65042857D01*
X54471429Y-65385714D01*
X54557144Y-65557143D01*
X54728572Y-65728571D01*
X54985715Y-65814286D01*
X55414287Y-65814286D01*
X52585715Y-65642857D02*
X52671429Y-65728571D01*
X52928572Y-65814286D01*
X53100001Y-65814286D01*
X53357144Y-65728571D01*
X53528572Y-65557143D01*
X53614287Y-65385714D01*
X53700001Y-65042857D01*
X53700001Y-64785714D01*
X53614287Y-64442857D01*
X53528572Y-64271429D01*
X53357144Y-64100000D01*
X53100001Y-64014286D01*
X52928572Y-64014286D01*
X52671429Y-64100000D01*
X52585715Y-64185714D01*
X50442858Y-65814286D02*
X50442858Y-64014286D01*
X49842858Y-65300000D01*
X49242858Y-64014286D01*
X49242858Y-65814286D01*
X48128572Y-65814286D02*
X48300000Y-65728571D01*
X48385715Y-65642857D01*
X48471429Y-65471429D01*
X48471429Y-64957143D01*
X48385715Y-64785714D01*
X48300000Y-64700000D01*
X48128572Y-64614286D01*
X47871429Y-64614286D01*
X47700000Y-64700000D01*
X47614286Y-64785714D01*
X47528572Y-64957143D01*
X47528572Y-65471429D01*
X47614286Y-65642857D01*
X47700000Y-65728571D01*
X47871429Y-65814286D01*
X48128572Y-65814286D01*
X47014286Y-64614286D02*
X46328572Y-64614286D01*
X46757144Y-64014286D02*
X46757144Y-65557143D01*
X46671429Y-65728571D01*
X46500001Y-65814286D01*
X46328572Y-65814286D01*
X45471430Y-65814286D02*
X45642858Y-65728571D01*
X45728573Y-65642857D01*
X45814287Y-65471429D01*
X45814287Y-64957143D01*
X45728573Y-64785714D01*
X45642858Y-64700000D01*
X45471430Y-64614286D01*
X45214287Y-64614286D01*
X45042858Y-64700000D01*
X44957144Y-64785714D01*
X44871430Y-64957143D01*
X44871430Y-65471429D01*
X44957144Y-65642857D01*
X45042858Y-65728571D01*
X45214287Y-65814286D01*
X45471430Y-65814286D01*
X44100002Y-65814286D02*
X44100002Y-64614286D01*
X44100002Y-64957143D02*
X44014287Y-64785714D01*
X43928573Y-64700000D01*
X43757144Y-64614286D01*
X43585716Y-64614286D01*
X41614287Y-65814286D02*
X41614287Y-64014286D01*
X41185715Y-64014286D01*
X40928572Y-64100000D01*
X40757144Y-64271429D01*
X40671429Y-64442857D01*
X40585715Y-64785714D01*
X40585715Y-65042857D01*
X40671429Y-65385714D01*
X40757144Y-65557143D01*
X40928572Y-65728571D01*
X41185715Y-65814286D01*
X41614287Y-65814286D01*
X39814287Y-65814286D02*
X39814287Y-64614286D01*
X39814287Y-64957143D02*
X39728572Y-64785714D01*
X39642858Y-64700000D01*
X39471429Y-64614286D01*
X39300001Y-64614286D01*
X38700001Y-65814286D02*
X38700001Y-64614286D01*
X38700001Y-64014286D02*
X38785715Y-64100000D01*
X38700001Y-64185714D01*
X38614286Y-64100000D01*
X38700001Y-64014286D01*
X38700001Y-64185714D01*
X38014286Y-64614286D02*
X37585715Y-65814286D01*
X37157143Y-64614286D01*
X35785714Y-65728571D02*
X35957143Y-65814286D01*
X36300000Y-65814286D01*
X36471429Y-65728571D01*
X36557143Y-65557143D01*
X36557143Y-64871429D01*
X36471429Y-64700000D01*
X36300000Y-64614286D01*
X35957143Y-64614286D01*
X35785714Y-64700000D01*
X35700000Y-64871429D01*
X35700000Y-65042857D01*
X36557143Y-65214286D01*
X34928572Y-65814286D02*
X34928572Y-64614286D01*
X34928572Y-64957143D02*
X34842857Y-64785714D01*
X34757143Y-64700000D01*
X34585714Y-64614286D01*
X34414286Y-64614286D01*
X32614285Y-64614286D02*
X32185714Y-65814286D01*
X31757142Y-64614286D01*
X30385713Y-65728571D02*
X30557142Y-65814286D01*
X30899999Y-65814286D01*
X31071428Y-65728571D01*
X31157142Y-65557143D01*
X31157142Y-64871429D01*
X31071428Y-64700000D01*
X30899999Y-64614286D01*
X30557142Y-64614286D01*
X30385713Y-64700000D01*
X30299999Y-64871429D01*
X30299999Y-65042857D01*
X31157142Y-65214286D01*
X29528571Y-65814286D02*
X29528571Y-64614286D01*
X29528571Y-64957143D02*
X29442856Y-64785714D01*
X29357142Y-64700000D01*
X29185713Y-64614286D01*
X29014285Y-64614286D01*
X27471427Y-65814286D02*
X28499999Y-65814286D01*
X27985713Y-65814286D02*
X27985713Y-64014286D01*
X28157142Y-64271429D01*
X28328570Y-64442857D01*
X28499999Y-64528571D01*
X26699999Y-65642857D02*
X26614284Y-65728571D01*
X26699999Y-65814286D01*
X26785713Y-65728571D01*
X26699999Y-65642857D01*
X26699999Y-65814286D01*
X24899998Y-65814286D02*
X25928570Y-65814286D01*
X25414284Y-65814286D02*
X25414284Y-64014286D01*
X25585713Y-64271429D01*
X25757141Y-64442857D01*
X25928570Y-64528571D01*
D13*
X16575000Y-64425000D02*
X16575000Y-64570000D01*
X12425000Y-64425000D02*
X12425000Y-64570000D01*
X12425000Y-69575000D02*
X12425000Y-69430000D01*
X16575000Y-69575000D02*
X16575000Y-69430000D01*
X16575000Y-64425000D02*
X12425000Y-64425000D01*
X16575000Y-69575000D02*
X12425000Y-69575000D01*
X16575000Y-64570000D02*
X17975000Y-64570000D01*
X68976000Y-16397000D02*
X72151000Y-16397000D01*
X72151000Y-16397000D02*
X72151000Y-18175000D01*
X72151000Y-18175000D02*
X68976000Y-18175000D01*
X68976000Y-11825000D02*
X72151000Y-11825000D01*
X72151000Y-11825000D02*
X72151000Y-13603000D01*
X72151000Y-13603000D02*
X68976000Y-13603000D01*
X62880000Y-18429000D02*
X68976000Y-18429000D01*
X68976000Y-18429000D02*
X68976000Y-11571000D01*
X68976000Y-11571000D02*
X61102000Y-11571000D01*
X60975000Y-11571000D02*
X60975000Y-18429000D01*
X61102000Y-18429000D02*
X62880000Y-18429000D01*
X17897000Y-55024000D02*
X17897000Y-51849000D01*
X17897000Y-51849000D02*
X19675000Y-51849000D01*
X19675000Y-51849000D02*
X19675000Y-55024000D01*
X13325000Y-55024000D02*
X13325000Y-51849000D01*
X13325000Y-51849000D02*
X15103000Y-51849000D01*
X15103000Y-51849000D02*
X15103000Y-55024000D01*
X19929000Y-61120000D02*
X19929000Y-55024000D01*
X19929000Y-55024000D02*
X13071000Y-55024000D01*
X13071000Y-55024000D02*
X13071000Y-62898000D01*
X13071000Y-63025000D02*
X19929000Y-63025000D01*
X19929000Y-62898000D02*
X19929000Y-61120000D01*
X65299340Y-25399920D02*
X65599060Y-25151000D01*
X65599060Y-25151000D02*
X65748920Y-25049400D01*
X65748920Y-25049400D02*
X64900560Y-25049400D01*
X66800480Y-25750440D02*
X64999620Y-25750440D01*
X66800480Y-25750440D02*
X66800480Y-25100200D01*
X66800480Y-21249560D02*
X64999620Y-21249560D01*
X66800480Y-21249560D02*
X66800480Y-21899800D01*
D10*
X39750000Y-6500000D02*
X37250000Y-6500000D01*
X37250000Y-6500000D02*
X37250000Y-1500000D01*
X37250000Y-1500000D02*
X39750000Y-1500000D01*
X39750000Y-1500000D02*
X39750000Y-6500000D01*
X15750000Y-6500000D02*
X13250000Y-6500000D01*
X13250000Y-6500000D02*
X13250000Y-1500000D01*
X13250000Y-1500000D02*
X15750000Y-1500000D01*
X15750000Y-1500000D02*
X15750000Y-6500000D01*
X42750000Y-6500000D02*
X40250000Y-6500000D01*
X40250000Y-6500000D02*
X40250000Y-1500000D01*
X40250000Y-1500000D02*
X42750000Y-1500000D01*
X42750000Y-1500000D02*
X42750000Y-6500000D01*
X18750000Y-6500000D02*
X16250000Y-6500000D01*
X16250000Y-6500000D02*
X16250000Y-1500000D01*
X16250000Y-1500000D02*
X18750000Y-1500000D01*
X18750000Y-1500000D02*
X18750000Y-6500000D01*
X30500000Y-18000000D02*
X30500000Y-18500000D01*
X30500000Y-18500000D02*
X29500000Y-18500000D01*
X29500000Y-18500000D02*
X29500000Y-18000000D01*
X28000000Y-18000000D02*
X28000000Y-22500000D01*
X28000000Y-22500000D02*
X27000000Y-22500000D01*
X27000000Y-22500000D02*
X27000000Y-18000000D01*
X33000000Y-18000000D02*
X33000000Y-22500000D01*
X33000000Y-22500000D02*
X32000000Y-22500000D01*
X32000000Y-22500000D02*
X32000000Y-18000000D01*
X25500000Y-7500000D02*
X34500000Y-7500000D01*
X34500000Y-7500000D02*
X35000000Y-8000000D01*
X25000000Y-8000000D02*
X25500000Y-7500000D01*
X25000000Y-9000000D02*
X25000000Y-8000000D01*
X35000000Y-9000000D02*
X35000000Y-8000000D01*
X35000000Y-9000000D02*
X35000000Y-18000000D01*
X25000000Y-9000000D02*
X35000000Y-9000000D01*
X25000000Y-18000000D02*
X25000000Y-9000000D01*
X25000000Y-18000000D02*
X35000000Y-18000000D01*
X42500000Y-18000000D02*
X42500000Y-18500000D01*
X42500000Y-18500000D02*
X41500000Y-18500000D01*
X41500000Y-18500000D02*
X41500000Y-18000000D01*
X40000000Y-18000000D02*
X40000000Y-22500000D01*
X40000000Y-22500000D02*
X39000000Y-22500000D01*
X39000000Y-22500000D02*
X39000000Y-18000000D01*
X45000000Y-18000000D02*
X45000000Y-22500000D01*
X45000000Y-22500000D02*
X44000000Y-22500000D01*
X44000000Y-22500000D02*
X44000000Y-18000000D01*
X37500000Y-7500000D02*
X46500000Y-7500000D01*
X46500000Y-7500000D02*
X47000000Y-8000000D01*
X37000000Y-8000000D02*
X37500000Y-7500000D01*
X37000000Y-9000000D02*
X37000000Y-8000000D01*
X47000000Y-9000000D02*
X47000000Y-8000000D01*
X47000000Y-9000000D02*
X47000000Y-18000000D01*
X37000000Y-9000000D02*
X47000000Y-9000000D01*
X37000000Y-18000000D02*
X37000000Y-9000000D01*
X37000000Y-18000000D02*
X47000000Y-18000000D01*
X54500000Y-18000000D02*
X54500000Y-18500000D01*
X54500000Y-18500000D02*
X53500000Y-18500000D01*
X53500000Y-18500000D02*
X53500000Y-18000000D01*
X52000000Y-18000000D02*
X52000000Y-22500000D01*
X52000000Y-22500000D02*
X51000000Y-22500000D01*
X51000000Y-22500000D02*
X51000000Y-18000000D01*
X57000000Y-18000000D02*
X57000000Y-22500000D01*
X57000000Y-22500000D02*
X56000000Y-22500000D01*
X56000000Y-22500000D02*
X56000000Y-18000000D01*
X49500000Y-7500000D02*
X58500000Y-7500000D01*
X58500000Y-7500000D02*
X59000000Y-8000000D01*
X49000000Y-8000000D02*
X49500000Y-7500000D01*
X49000000Y-9000000D02*
X49000000Y-8000000D01*
X59000000Y-9000000D02*
X59000000Y-8000000D01*
X59000000Y-9000000D02*
X59000000Y-18000000D01*
X49000000Y-9000000D02*
X59000000Y-9000000D01*
X49000000Y-18000000D02*
X49000000Y-9000000D01*
X49000000Y-18000000D02*
X59000000Y-18000000D01*
X18500000Y-34000000D02*
X18500000Y-34500000D01*
X18500000Y-34500000D02*
X17500000Y-34500000D01*
X17500000Y-34500000D02*
X17500000Y-34000000D01*
X16000000Y-34000000D02*
X16000000Y-38500000D01*
X16000000Y-38500000D02*
X15000000Y-38500000D01*
X15000000Y-38500000D02*
X15000000Y-34000000D01*
X21000000Y-34000000D02*
X21000000Y-38500000D01*
X21000000Y-38500000D02*
X20000000Y-38500000D01*
X20000000Y-38500000D02*
X20000000Y-34000000D01*
X13500000Y-23500000D02*
X22500000Y-23500000D01*
X22500000Y-23500000D02*
X23000000Y-24000000D01*
X13000000Y-24000000D02*
X13500000Y-23500000D01*
X13000000Y-25000000D02*
X13000000Y-24000000D01*
X23000000Y-25000000D02*
X23000000Y-24000000D01*
X23000000Y-25000000D02*
X23000000Y-34000000D01*
X13000000Y-25000000D02*
X23000000Y-25000000D01*
X13000000Y-34000000D02*
X13000000Y-25000000D01*
X13000000Y-34000000D02*
X23000000Y-34000000D01*
X30500000Y-34000000D02*
X30500000Y-34500000D01*
X30500000Y-34500000D02*
X29500000Y-34500000D01*
X29500000Y-34500000D02*
X29500000Y-34000000D01*
X28000000Y-34000000D02*
X28000000Y-38500000D01*
X28000000Y-38500000D02*
X27000000Y-38500000D01*
X27000000Y-38500000D02*
X27000000Y-34000000D01*
X33000000Y-34000000D02*
X33000000Y-38500000D01*
X33000000Y-38500000D02*
X32000000Y-38500000D01*
X32000000Y-38500000D02*
X32000000Y-34000000D01*
X25500000Y-23500000D02*
X34500000Y-23500000D01*
X34500000Y-23500000D02*
X35000000Y-24000000D01*
X25000000Y-24000000D02*
X25500000Y-23500000D01*
X25000000Y-25000000D02*
X25000000Y-24000000D01*
X35000000Y-25000000D02*
X35000000Y-24000000D01*
X35000000Y-25000000D02*
X35000000Y-34000000D01*
X25000000Y-25000000D02*
X35000000Y-25000000D01*
X25000000Y-34000000D02*
X25000000Y-25000000D01*
X25000000Y-34000000D02*
X35000000Y-34000000D01*
X42500000Y-34000000D02*
X42500000Y-34500000D01*
X42500000Y-34500000D02*
X41500000Y-34500000D01*
X41500000Y-34500000D02*
X41500000Y-34000000D01*
X40000000Y-34000000D02*
X40000000Y-38500000D01*
X40000000Y-38500000D02*
X39000000Y-38500000D01*
X39000000Y-38500000D02*
X39000000Y-34000000D01*
X45000000Y-34000000D02*
X45000000Y-38500000D01*
X45000000Y-38500000D02*
X44000000Y-38500000D01*
X44000000Y-38500000D02*
X44000000Y-34000000D01*
X37500000Y-23500000D02*
X46500000Y-23500000D01*
X46500000Y-23500000D02*
X47000000Y-24000000D01*
X37000000Y-24000000D02*
X37500000Y-23500000D01*
X37000000Y-25000000D02*
X37000000Y-24000000D01*
X47000000Y-25000000D02*
X47000000Y-24000000D01*
X47000000Y-25000000D02*
X47000000Y-34000000D01*
X37000000Y-25000000D02*
X47000000Y-25000000D01*
X37000000Y-34000000D02*
X37000000Y-25000000D01*
X37000000Y-34000000D02*
X47000000Y-34000000D01*
X54500000Y-34000000D02*
X54500000Y-34500000D01*
X54500000Y-34500000D02*
X53500000Y-34500000D01*
X53500000Y-34500000D02*
X53500000Y-34000000D01*
X52000000Y-34000000D02*
X52000000Y-38500000D01*
X52000000Y-38500000D02*
X51000000Y-38500000D01*
X51000000Y-38500000D02*
X51000000Y-34000000D01*
X57000000Y-34000000D02*
X57000000Y-38500000D01*
X57000000Y-38500000D02*
X56000000Y-38500000D01*
X56000000Y-38500000D02*
X56000000Y-34000000D01*
X49500000Y-23500000D02*
X58500000Y-23500000D01*
X58500000Y-23500000D02*
X59000000Y-24000000D01*
X49000000Y-24000000D02*
X49500000Y-23500000D01*
X49000000Y-25000000D02*
X49000000Y-24000000D01*
X59000000Y-25000000D02*
X59000000Y-24000000D01*
X59000000Y-25000000D02*
X59000000Y-34000000D01*
X49000000Y-25000000D02*
X59000000Y-25000000D01*
X49000000Y-34000000D02*
X49000000Y-25000000D01*
X49000000Y-34000000D02*
X59000000Y-34000000D01*
D11*
X65500000Y-42000000D02*
X65500000Y-41000000D01*
X65500000Y-45000000D02*
X66000000Y-44500000D01*
X65500000Y-45000000D02*
X65000000Y-44500000D01*
X65500000Y-44000000D02*
X65500000Y-45000000D01*
X64500000Y-43500000D02*
X66500000Y-43500000D01*
X64500000Y-42500000D02*
X66500000Y-42500000D01*
X64400000Y-40400000D02*
X64400000Y-39000000D01*
X66600000Y-40400000D02*
X67100000Y-40400000D01*
X67100000Y-40400000D02*
X67100000Y-45600000D01*
X67100000Y-45600000D02*
X66600000Y-45600000D01*
X64400000Y-40400000D02*
X63900000Y-40400000D01*
X63900000Y-40400000D02*
X63900000Y-45600000D01*
X63900000Y-45600000D02*
X64400000Y-45600000D01*
X60500000Y-44000000D02*
X60500000Y-45000000D01*
X60500000Y-41000000D02*
X60000000Y-41500000D01*
X60500000Y-41000000D02*
X61000000Y-41500000D01*
X60500000Y-42000000D02*
X60500000Y-41000000D01*
X61500000Y-42500000D02*
X59500000Y-42500000D01*
X61500000Y-43500000D02*
X59500000Y-43500000D01*
X61600000Y-45600000D02*
X61600000Y-47000000D01*
X59400000Y-45600000D02*
X58900000Y-45600000D01*
X58900000Y-45600000D02*
X58900000Y-40400000D01*
X58900000Y-40400000D02*
X59400000Y-40400000D01*
X61600000Y-45600000D02*
X62100000Y-45600000D01*
X62100000Y-45600000D02*
X62100000Y-40400000D01*
X62100000Y-40400000D02*
X61600000Y-40400000D01*
D10*
X18500000Y-18000000D02*
X18500000Y-18500000D01*
X18500000Y-18500000D02*
X17500000Y-18500000D01*
X17500000Y-18500000D02*
X17500000Y-18000000D01*
X16000000Y-18000000D02*
X16000000Y-22500000D01*
X16000000Y-22500000D02*
X15000000Y-22500000D01*
X15000000Y-22500000D02*
X15000000Y-18000000D01*
X21000000Y-18000000D02*
X21000000Y-22500000D01*
X21000000Y-22500000D02*
X20000000Y-22500000D01*
X20000000Y-22500000D02*
X20000000Y-18000000D01*
X13500000Y-7500000D02*
X22500000Y-7500000D01*
X22500000Y-7500000D02*
X23000000Y-8000000D01*
X13000000Y-8000000D02*
X13500000Y-7500000D01*
X13000000Y-9000000D02*
X13000000Y-8000000D01*
X23000000Y-9000000D02*
X23000000Y-8000000D01*
X23000000Y-9000000D02*
X23000000Y-18000000D01*
X13000000Y-9000000D02*
X23000000Y-9000000D01*
X13000000Y-18000000D02*
X13000000Y-9000000D01*
X13000000Y-18000000D02*
X23000000Y-18000000D01*
D14*
X21080762Y-44442548D02*
X21770190Y-44442548D01*
X21425476Y-44442548D02*
X21425476Y-43236048D01*
X21540381Y-43408405D01*
X21655286Y-43523310D01*
X21770190Y-43580762D01*
X20333881Y-43236048D02*
X20218976Y-43236048D01*
X20104071Y-43293500D01*
X20046619Y-43350952D01*
X19989166Y-43465857D01*
X19931714Y-43695667D01*
X19931714Y-43982929D01*
X19989166Y-44212738D01*
X20046619Y-44327643D01*
X20104071Y-44385095D01*
X20218976Y-44442548D01*
X20333881Y-44442548D01*
X20448785Y-44385095D01*
X20506238Y-44327643D01*
X20563690Y-44212738D01*
X20621142Y-43982929D01*
X20621142Y-43695667D01*
X20563690Y-43465857D01*
X20506238Y-43350952D01*
X20448785Y-43293500D01*
X20333881Y-43236048D01*
X19414642Y-43982929D02*
X18495404Y-43982929D01*
X17288904Y-44442548D02*
X17978332Y-44442548D01*
X17633618Y-44442548D02*
X17633618Y-43236048D01*
X17748523Y-43408405D01*
X17863428Y-43523310D01*
X17978332Y-43580762D01*
X16542023Y-43236048D02*
X16427118Y-43236048D01*
X16312213Y-43293500D01*
X16254761Y-43350952D01*
X16197308Y-43465857D01*
X16139856Y-43695667D01*
X16139856Y-43982929D01*
X16197308Y-44212738D01*
X16254761Y-44327643D01*
X16312213Y-44385095D01*
X16427118Y-44442548D01*
X16542023Y-44442548D01*
X16656927Y-44385095D01*
X16714380Y-44327643D01*
X16771832Y-44212738D01*
X16829284Y-43982929D01*
X16829284Y-43695667D01*
X16771832Y-43465857D01*
X16714380Y-43350952D01*
X16656927Y-43293500D01*
X16542023Y-43236048D01*
X15392975Y-43236048D02*
X15278070Y-43236048D01*
X15163165Y-43293500D01*
X15105713Y-43350952D01*
X15048260Y-43465857D01*
X14990808Y-43695667D01*
X14990808Y-43982929D01*
X15048260Y-44212738D01*
X15105713Y-44327643D01*
X15163165Y-44385095D01*
X15278070Y-44442548D01*
X15392975Y-44442548D01*
X15507879Y-44385095D01*
X15565332Y-44327643D01*
X15622784Y-44212738D01*
X15680236Y-43982929D01*
X15680236Y-43695667D01*
X15622784Y-43465857D01*
X15565332Y-43350952D01*
X15507879Y-43293500D01*
X15392975Y-43236048D01*
X14473736Y-44442548D02*
X14473736Y-43236048D01*
X14358831Y-43982929D02*
X14014117Y-44442548D01*
X14014117Y-43638214D02*
X14473736Y-44097833D01*
X65695667Y-10638214D02*
X65695667Y-11442548D01*
X65982929Y-10178595D02*
X66270190Y-11040381D01*
X65523310Y-11040381D01*
X65063690Y-11327643D02*
X65006238Y-11385095D01*
X65063690Y-11442548D01*
X65121142Y-11385095D01*
X65063690Y-11327643D01*
X65063690Y-11442548D01*
X64604071Y-10236048D02*
X63799738Y-10236048D01*
X64316809Y-11442548D01*
X62823047Y-10638214D02*
X62823047Y-11442548D01*
X63340118Y-10638214D02*
X63340118Y-11270190D01*
X63282666Y-11385095D01*
X63167761Y-11442548D01*
X62995404Y-11442548D01*
X62880499Y-11385095D01*
X62823047Y-11327643D01*
X65695667Y-19638214D02*
X65695667Y-20442548D01*
X65982929Y-19178595D02*
X66270190Y-20040381D01*
X65523310Y-20040381D01*
X65063690Y-20327643D02*
X65006238Y-20385095D01*
X65063690Y-20442548D01*
X65121142Y-20385095D01*
X65063690Y-20327643D01*
X65063690Y-20442548D01*
X64604071Y-19236048D02*
X63799738Y-19236048D01*
X64316809Y-20442548D01*
X62823047Y-19638214D02*
X62823047Y-20442548D01*
X63340118Y-19638214D02*
X63340118Y-20270190D01*
X63282666Y-20385095D01*
X63167761Y-20442548D01*
X62995404Y-20442548D01*
X62880499Y-20385095D01*
X62823047Y-20327643D01*
X27236048Y-48517071D02*
X27236048Y-48631976D01*
X27293500Y-48746881D01*
X27350952Y-48804333D01*
X27465857Y-48861786D01*
X27695667Y-48919238D01*
X27982929Y-48919238D01*
X28212738Y-48861786D01*
X28327643Y-48804333D01*
X28385095Y-48746881D01*
X28442548Y-48631976D01*
X28442548Y-48517071D01*
X28385095Y-48402167D01*
X28327643Y-48344714D01*
X28212738Y-48287262D01*
X27982929Y-48229810D01*
X27695667Y-48229810D01*
X27465857Y-48287262D01*
X27350952Y-48344714D01*
X27293500Y-48402167D01*
X27236048Y-48517071D01*
X28327643Y-49436310D02*
X28385095Y-49493762D01*
X28442548Y-49436310D01*
X28385095Y-49378858D01*
X28327643Y-49436310D01*
X28442548Y-49436310D01*
X28442548Y-50642810D02*
X28442548Y-49953382D01*
X28442548Y-50298096D02*
X27236048Y-50298096D01*
X27408405Y-50183191D01*
X27523310Y-50068286D01*
X27580762Y-49953382D01*
X27638214Y-51676953D02*
X28442548Y-51676953D01*
X27638214Y-51159882D02*
X28270190Y-51159882D01*
X28385095Y-51217334D01*
X28442548Y-51332239D01*
X28442548Y-51504596D01*
X28385095Y-51619501D01*
X28327643Y-51676953D01*
X51236048Y-48517071D02*
X51236048Y-48631976D01*
X51293500Y-48746881D01*
X51350952Y-48804333D01*
X51465857Y-48861786D01*
X51695667Y-48919238D01*
X51982929Y-48919238D01*
X52212738Y-48861786D01*
X52327643Y-48804333D01*
X52385095Y-48746881D01*
X52442548Y-48631976D01*
X52442548Y-48517071D01*
X52385095Y-48402167D01*
X52327643Y-48344714D01*
X52212738Y-48287262D01*
X51982929Y-48229810D01*
X51695667Y-48229810D01*
X51465857Y-48287262D01*
X51350952Y-48344714D01*
X51293500Y-48402167D01*
X51236048Y-48517071D01*
X52327643Y-49436310D02*
X52385095Y-49493762D01*
X52442548Y-49436310D01*
X52385095Y-49378858D01*
X52327643Y-49436310D01*
X52442548Y-49436310D01*
X52442548Y-50642810D02*
X52442548Y-49953382D01*
X52442548Y-50298096D02*
X51236048Y-50298096D01*
X51408405Y-50183191D01*
X51523310Y-50068286D01*
X51580762Y-49953382D01*
X51638214Y-51676953D02*
X52442548Y-51676953D01*
X51638214Y-51159882D02*
X52270190Y-51159882D01*
X52385095Y-51217334D01*
X52442548Y-51332239D01*
X52442548Y-51504596D01*
X52385095Y-51619501D01*
X52327643Y-51676953D01*
X39236048Y-48517071D02*
X39236048Y-48631976D01*
X39293500Y-48746881D01*
X39350952Y-48804333D01*
X39465857Y-48861786D01*
X39695667Y-48919238D01*
X39982929Y-48919238D01*
X40212738Y-48861786D01*
X40327643Y-48804333D01*
X40385095Y-48746881D01*
X40442548Y-48631976D01*
X40442548Y-48517071D01*
X40385095Y-48402167D01*
X40327643Y-48344714D01*
X40212738Y-48287262D01*
X39982929Y-48229810D01*
X39695667Y-48229810D01*
X39465857Y-48287262D01*
X39350952Y-48344714D01*
X39293500Y-48402167D01*
X39236048Y-48517071D01*
X40327643Y-49436310D02*
X40385095Y-49493762D01*
X40442548Y-49436310D01*
X40385095Y-49378858D01*
X40327643Y-49436310D01*
X40442548Y-49436310D01*
X40442548Y-50642810D02*
X40442548Y-49953382D01*
X40442548Y-50298096D02*
X39236048Y-50298096D01*
X39408405Y-50183191D01*
X39523310Y-50068286D01*
X39580762Y-49953382D01*
X39638214Y-51676953D02*
X40442548Y-51676953D01*
X39638214Y-51159882D02*
X40270190Y-51159882D01*
X40385095Y-51217334D01*
X40442548Y-51332239D01*
X40442548Y-51504596D01*
X40385095Y-51619501D01*
X40327643Y-51676953D01*
X71942548Y-70919238D02*
X71942548Y-70229810D01*
X71942548Y-70574524D02*
X70736048Y-70574524D01*
X70908405Y-70459619D01*
X71023310Y-70344714D01*
X71080762Y-70229810D01*
X70736048Y-71666119D02*
X70736048Y-71781024D01*
X70793500Y-71895929D01*
X70850952Y-71953381D01*
X70965857Y-72010834D01*
X71195667Y-72068286D01*
X71482929Y-72068286D01*
X71712738Y-72010834D01*
X71827643Y-71953381D01*
X71885095Y-71895929D01*
X71942548Y-71781024D01*
X71942548Y-71666119D01*
X71885095Y-71551215D01*
X71827643Y-71493762D01*
X71712738Y-71436310D01*
X71482929Y-71378858D01*
X71195667Y-71378858D01*
X70965857Y-71436310D01*
X70850952Y-71493762D01*
X70793500Y-71551215D01*
X70736048Y-71666119D01*
X71942548Y-72585358D02*
X70736048Y-72585358D01*
X71482929Y-72700263D02*
X71942548Y-73044977D01*
X71138214Y-73044977D02*
X71597833Y-72585358D01*
X43730762Y-58342548D02*
X44420190Y-58342548D01*
X44075476Y-58342548D02*
X44075476Y-57136048D01*
X44190381Y-57308405D01*
X44305286Y-57423310D01*
X44420190Y-57480762D01*
X43213690Y-58342548D02*
X43213690Y-57136048D01*
X43098785Y-57882929D02*
X42754071Y-58342548D01*
X42754071Y-57538214D02*
X43213690Y-57997833D01*
X33080762Y-44442548D02*
X33770190Y-44442548D01*
X33425476Y-44442548D02*
X33425476Y-43236048D01*
X33540381Y-43408405D01*
X33655286Y-43523310D01*
X33770190Y-43580762D01*
X32333881Y-43236048D02*
X32218976Y-43236048D01*
X32104071Y-43293500D01*
X32046619Y-43350952D01*
X31989166Y-43465857D01*
X31931714Y-43695667D01*
X31931714Y-43982929D01*
X31989166Y-44212738D01*
X32046619Y-44327643D01*
X32104071Y-44385095D01*
X32218976Y-44442548D01*
X32333881Y-44442548D01*
X32448785Y-44385095D01*
X32506238Y-44327643D01*
X32563690Y-44212738D01*
X32621142Y-43982929D01*
X32621142Y-43695667D01*
X32563690Y-43465857D01*
X32506238Y-43350952D01*
X32448785Y-43293500D01*
X32333881Y-43236048D01*
X31414642Y-43982929D02*
X30495404Y-43982929D01*
X29288904Y-44442548D02*
X29978332Y-44442548D01*
X29633618Y-44442548D02*
X29633618Y-43236048D01*
X29748523Y-43408405D01*
X29863428Y-43523310D01*
X29978332Y-43580762D01*
X28542023Y-43236048D02*
X28427118Y-43236048D01*
X28312213Y-43293500D01*
X28254761Y-43350952D01*
X28197308Y-43465857D01*
X28139856Y-43695667D01*
X28139856Y-43982929D01*
X28197308Y-44212738D01*
X28254761Y-44327643D01*
X28312213Y-44385095D01*
X28427118Y-44442548D01*
X28542023Y-44442548D01*
X28656927Y-44385095D01*
X28714380Y-44327643D01*
X28771832Y-44212738D01*
X28829284Y-43982929D01*
X28829284Y-43695667D01*
X28771832Y-43465857D01*
X28714380Y-43350952D01*
X28656927Y-43293500D01*
X28542023Y-43236048D01*
X27392975Y-43236048D02*
X27278070Y-43236048D01*
X27163165Y-43293500D01*
X27105713Y-43350952D01*
X27048260Y-43465857D01*
X26990808Y-43695667D01*
X26990808Y-43982929D01*
X27048260Y-44212738D01*
X27105713Y-44327643D01*
X27163165Y-44385095D01*
X27278070Y-44442548D01*
X27392975Y-44442548D01*
X27507879Y-44385095D01*
X27565332Y-44327643D01*
X27622784Y-44212738D01*
X27680236Y-43982929D01*
X27680236Y-43695667D01*
X27622784Y-43465857D01*
X27565332Y-43350952D01*
X27507879Y-43293500D01*
X27392975Y-43236048D01*
X26473736Y-44442548D02*
X26473736Y-43236048D01*
X26358831Y-43982929D02*
X26014117Y-44442548D01*
X26014117Y-43638214D02*
X26473736Y-44097833D01*
X57080762Y-44442548D02*
X57770190Y-44442548D01*
X57425476Y-44442548D02*
X57425476Y-43236048D01*
X57540381Y-43408405D01*
X57655286Y-43523310D01*
X57770190Y-43580762D01*
X56333881Y-43236048D02*
X56218976Y-43236048D01*
X56104071Y-43293500D01*
X56046619Y-43350952D01*
X55989166Y-43465857D01*
X55931714Y-43695667D01*
X55931714Y-43982929D01*
X55989166Y-44212738D01*
X56046619Y-44327643D01*
X56104071Y-44385095D01*
X56218976Y-44442548D01*
X56333881Y-44442548D01*
X56448785Y-44385095D01*
X56506238Y-44327643D01*
X56563690Y-44212738D01*
X56621142Y-43982929D01*
X56621142Y-43695667D01*
X56563690Y-43465857D01*
X56506238Y-43350952D01*
X56448785Y-43293500D01*
X56333881Y-43236048D01*
X55414642Y-43982929D02*
X54495404Y-43982929D01*
X53288904Y-44442548D02*
X53978332Y-44442548D01*
X53633618Y-44442548D02*
X53633618Y-43236048D01*
X53748523Y-43408405D01*
X53863428Y-43523310D01*
X53978332Y-43580762D01*
X52542023Y-43236048D02*
X52427118Y-43236048D01*
X52312213Y-43293500D01*
X52254761Y-43350952D01*
X52197308Y-43465857D01*
X52139856Y-43695667D01*
X52139856Y-43982929D01*
X52197308Y-44212738D01*
X52254761Y-44327643D01*
X52312213Y-44385095D01*
X52427118Y-44442548D01*
X52542023Y-44442548D01*
X52656927Y-44385095D01*
X52714380Y-44327643D01*
X52771832Y-44212738D01*
X52829284Y-43982929D01*
X52829284Y-43695667D01*
X52771832Y-43465857D01*
X52714380Y-43350952D01*
X52656927Y-43293500D01*
X52542023Y-43236048D01*
X51392975Y-43236048D02*
X51278070Y-43236048D01*
X51163165Y-43293500D01*
X51105713Y-43350952D01*
X51048260Y-43465857D01*
X50990808Y-43695667D01*
X50990808Y-43982929D01*
X51048260Y-44212738D01*
X51105713Y-44327643D01*
X51163165Y-44385095D01*
X51278070Y-44442548D01*
X51392975Y-44442548D01*
X51507879Y-44385095D01*
X51565332Y-44327643D01*
X51622784Y-44212738D01*
X51680236Y-43982929D01*
X51680236Y-43695667D01*
X51622784Y-43465857D01*
X51565332Y-43350952D01*
X51507879Y-43293500D01*
X51392975Y-43236048D01*
X50473736Y-44442548D02*
X50473736Y-43236048D01*
X50358831Y-43982929D02*
X50014117Y-44442548D01*
X50014117Y-43638214D02*
X50473736Y-44097833D01*
X45080762Y-44442548D02*
X45770190Y-44442548D01*
X45425476Y-44442548D02*
X45425476Y-43236048D01*
X45540381Y-43408405D01*
X45655286Y-43523310D01*
X45770190Y-43580762D01*
X44333881Y-43236048D02*
X44218976Y-43236048D01*
X44104071Y-43293500D01*
X44046619Y-43350952D01*
X43989166Y-43465857D01*
X43931714Y-43695667D01*
X43931714Y-43982929D01*
X43989166Y-44212738D01*
X44046619Y-44327643D01*
X44104071Y-44385095D01*
X44218976Y-44442548D01*
X44333881Y-44442548D01*
X44448785Y-44385095D01*
X44506238Y-44327643D01*
X44563690Y-44212738D01*
X44621142Y-43982929D01*
X44621142Y-43695667D01*
X44563690Y-43465857D01*
X44506238Y-43350952D01*
X44448785Y-43293500D01*
X44333881Y-43236048D01*
X43414642Y-43982929D02*
X42495404Y-43982929D01*
X41288904Y-44442548D02*
X41978332Y-44442548D01*
X41633618Y-44442548D02*
X41633618Y-43236048D01*
X41748523Y-43408405D01*
X41863428Y-43523310D01*
X41978332Y-43580762D01*
X40542023Y-43236048D02*
X40427118Y-43236048D01*
X40312213Y-43293500D01*
X40254761Y-43350952D01*
X40197308Y-43465857D01*
X40139856Y-43695667D01*
X40139856Y-43982929D01*
X40197308Y-44212738D01*
X40254761Y-44327643D01*
X40312213Y-44385095D01*
X40427118Y-44442548D01*
X40542023Y-44442548D01*
X40656927Y-44385095D01*
X40714380Y-44327643D01*
X40771832Y-44212738D01*
X40829284Y-43982929D01*
X40829284Y-43695667D01*
X40771832Y-43465857D01*
X40714380Y-43350952D01*
X40656927Y-43293500D01*
X40542023Y-43236048D01*
X39392975Y-43236048D02*
X39278070Y-43236048D01*
X39163165Y-43293500D01*
X39105713Y-43350952D01*
X39048260Y-43465857D01*
X38990808Y-43695667D01*
X38990808Y-43982929D01*
X39048260Y-44212738D01*
X39105713Y-44327643D01*
X39163165Y-44385095D01*
X39278070Y-44442548D01*
X39392975Y-44442548D01*
X39507879Y-44385095D01*
X39565332Y-44327643D01*
X39622784Y-44212738D01*
X39680236Y-43982929D01*
X39680236Y-43695667D01*
X39622784Y-43465857D01*
X39565332Y-43350952D01*
X39507879Y-43293500D01*
X39392975Y-43236048D01*
X38473736Y-44442548D02*
X38473736Y-43236048D01*
X38358831Y-43982929D02*
X38014117Y-44442548D01*
X38014117Y-43638214D02*
X38473736Y-44097833D01*
X7580762Y-74442548D02*
X8270190Y-74442548D01*
X7925476Y-74442548D02*
X7925476Y-73236048D01*
X8040381Y-73408405D01*
X8155286Y-73523310D01*
X8270190Y-73580762D01*
X7121142Y-73350952D02*
X7063690Y-73293500D01*
X6948785Y-73236048D01*
X6661523Y-73236048D01*
X6546619Y-73293500D01*
X6489166Y-73350952D01*
X6431714Y-73465857D01*
X6431714Y-73580762D01*
X6489166Y-73753119D01*
X7178595Y-74442548D01*
X6431714Y-74442548D01*
X5684833Y-73236048D02*
X5569928Y-73236048D01*
X5455023Y-73293500D01*
X5397571Y-73350952D01*
X5340118Y-73465857D01*
X5282666Y-73695667D01*
X5282666Y-73982929D01*
X5340118Y-74212738D01*
X5397571Y-74327643D01*
X5455023Y-74385095D01*
X5569928Y-74442548D01*
X5684833Y-74442548D01*
X5799737Y-74385095D01*
X5857190Y-74327643D01*
X5914642Y-74212738D01*
X5972094Y-73982929D01*
X5972094Y-73695667D01*
X5914642Y-73465857D01*
X5857190Y-73350952D01*
X5799737Y-73293500D01*
X5684833Y-73236048D01*
X34310571Y-32810571D02*
X34712738Y-32810571D01*
X34712738Y-33442548D02*
X34712738Y-32236048D01*
X34138214Y-32236048D01*
X33678595Y-33442548D02*
X33678595Y-32236048D01*
X32529547Y-33442548D02*
X33104071Y-33442548D01*
X33104071Y-32236048D01*
X32299738Y-32236048D02*
X31610310Y-32236048D01*
X31955024Y-33442548D02*
X31955024Y-32236048D01*
X31208143Y-32810571D02*
X30805976Y-32810571D01*
X30633619Y-33442548D02*
X31208143Y-33442548D01*
X31208143Y-32236048D01*
X30633619Y-32236048D01*
X29427120Y-33442548D02*
X29829286Y-32868024D01*
X30116548Y-33442548D02*
X30116548Y-32236048D01*
X29656929Y-32236048D01*
X29542024Y-32293500D01*
X29484572Y-32350952D01*
X29427120Y-32465857D01*
X29427120Y-32638214D01*
X29484572Y-32753119D01*
X29542024Y-32810571D01*
X29656929Y-32868024D01*
X30116548Y-32868024D01*
X22310571Y-32810571D02*
X22712738Y-32810571D01*
X22712738Y-33442548D02*
X22712738Y-32236048D01*
X22138214Y-32236048D01*
X21678595Y-33442548D02*
X21678595Y-32236048D01*
X20529547Y-33442548D02*
X21104071Y-33442548D01*
X21104071Y-32236048D01*
X20299738Y-32236048D02*
X19610310Y-32236048D01*
X19955024Y-33442548D02*
X19955024Y-32236048D01*
X19208143Y-32810571D02*
X18805976Y-32810571D01*
X18633619Y-33442548D02*
X19208143Y-33442548D01*
X19208143Y-32236048D01*
X18633619Y-32236048D01*
X17427120Y-33442548D02*
X17829286Y-32868024D01*
X18116548Y-33442548D02*
X18116548Y-32236048D01*
X17656929Y-32236048D01*
X17542024Y-32293500D01*
X17484572Y-32350952D01*
X17427120Y-32465857D01*
X17427120Y-32638214D01*
X17484572Y-32753119D01*
X17542024Y-32810571D01*
X17656929Y-32868024D01*
X18116548Y-32868024D01*
X58310571Y-32810571D02*
X58712738Y-32810571D01*
X58712738Y-33442548D02*
X58712738Y-32236048D01*
X58138214Y-32236048D01*
X57678595Y-33442548D02*
X57678595Y-32236048D01*
X56529547Y-33442548D02*
X57104071Y-33442548D01*
X57104071Y-32236048D01*
X56299738Y-32236048D02*
X55610310Y-32236048D01*
X55955024Y-33442548D02*
X55955024Y-32236048D01*
X55208143Y-32810571D02*
X54805976Y-32810571D01*
X54633619Y-33442548D02*
X55208143Y-33442548D01*
X55208143Y-32236048D01*
X54633619Y-32236048D01*
X53427120Y-33442548D02*
X53829286Y-32868024D01*
X54116548Y-33442548D02*
X54116548Y-32236048D01*
X53656929Y-32236048D01*
X53542024Y-32293500D01*
X53484572Y-32350952D01*
X53427120Y-32465857D01*
X53427120Y-32638214D01*
X53484572Y-32753119D01*
X53542024Y-32810571D01*
X53656929Y-32868024D01*
X54116548Y-32868024D01*
X46310571Y-32810571D02*
X46712738Y-32810571D01*
X46712738Y-33442548D02*
X46712738Y-32236048D01*
X46138214Y-32236048D01*
X45678595Y-33442548D02*
X45678595Y-32236048D01*
X44529547Y-33442548D02*
X45104071Y-33442548D01*
X45104071Y-32236048D01*
X44299738Y-32236048D02*
X43610310Y-32236048D01*
X43955024Y-33442548D02*
X43955024Y-32236048D01*
X43208143Y-32810571D02*
X42805976Y-32810571D01*
X42633619Y-33442548D02*
X43208143Y-33442548D01*
X43208143Y-32236048D01*
X42633619Y-32236048D01*
X41427120Y-33442548D02*
X41829286Y-32868024D01*
X42116548Y-33442548D02*
X42116548Y-32236048D01*
X41656929Y-32236048D01*
X41542024Y-32293500D01*
X41484572Y-32350952D01*
X41427120Y-32465857D01*
X41427120Y-32638214D01*
X41484572Y-32753119D01*
X41542024Y-32810571D01*
X41656929Y-32868024D01*
X42116548Y-32868024D01*
X14736048Y-65517071D02*
X14736048Y-65631976D01*
X14793500Y-65746881D01*
X14850952Y-65804333D01*
X14965857Y-65861786D01*
X15195667Y-65919238D01*
X15482929Y-65919238D01*
X15712738Y-65861786D01*
X15827643Y-65804333D01*
X15885095Y-65746881D01*
X15942548Y-65631976D01*
X15942548Y-65517071D01*
X15885095Y-65402167D01*
X15827643Y-65344714D01*
X15712738Y-65287262D01*
X15482929Y-65229810D01*
X15195667Y-65229810D01*
X14965857Y-65287262D01*
X14850952Y-65344714D01*
X14793500Y-65402167D01*
X14736048Y-65517071D01*
X15827643Y-66436310D02*
X15885095Y-66493762D01*
X15942548Y-66436310D01*
X15885095Y-66378858D01*
X15827643Y-66436310D01*
X15942548Y-66436310D01*
X15942548Y-67642810D02*
X15942548Y-66953382D01*
X15942548Y-67298096D02*
X14736048Y-67298096D01*
X14908405Y-67183191D01*
X15023310Y-67068286D01*
X15080762Y-66953382D01*
X15138214Y-68676953D02*
X15942548Y-68676953D01*
X15138214Y-68159882D02*
X15770190Y-68159882D01*
X15885095Y-68217334D01*
X15942548Y-68332239D01*
X15942548Y-68504596D01*
X15885095Y-68619501D01*
X15827643Y-68676953D01*
X48442548Y-48919238D02*
X48442548Y-48229810D01*
X48442548Y-48574524D02*
X47236048Y-48574524D01*
X47408405Y-48459619D01*
X47523310Y-48344714D01*
X47580762Y-48229810D01*
X47236048Y-49666119D02*
X47236048Y-49781024D01*
X47293500Y-49895929D01*
X47350952Y-49953381D01*
X47465857Y-50010834D01*
X47695667Y-50068286D01*
X47982929Y-50068286D01*
X48212738Y-50010834D01*
X48327643Y-49953381D01*
X48385095Y-49895929D01*
X48442548Y-49781024D01*
X48442548Y-49666119D01*
X48385095Y-49551215D01*
X48327643Y-49493762D01*
X48212738Y-49436310D01*
X47982929Y-49378858D01*
X47695667Y-49378858D01*
X47465857Y-49436310D01*
X47350952Y-49493762D01*
X47293500Y-49551215D01*
X47236048Y-49666119D01*
X48442548Y-50585358D02*
X47236048Y-50585358D01*
X47982929Y-50700263D02*
X48442548Y-51044977D01*
X47638214Y-51044977D02*
X48097833Y-50585358D01*
X31442548Y-74419238D02*
X31442548Y-73729810D01*
X31442548Y-74074524D02*
X30236048Y-74074524D01*
X30408405Y-73959619D01*
X30523310Y-73844714D01*
X30580762Y-73729810D01*
X31442548Y-74936310D02*
X30236048Y-74936310D01*
X30982929Y-75051215D02*
X31442548Y-75395929D01*
X30638214Y-75395929D02*
X31097833Y-74936310D01*
X37442548Y-74419238D02*
X37442548Y-73729810D01*
X37442548Y-74074524D02*
X36236048Y-74074524D01*
X36408405Y-73959619D01*
X36523310Y-73844714D01*
X36580762Y-73729810D01*
X37442548Y-74936310D02*
X36236048Y-74936310D01*
X36982929Y-75051215D02*
X37442548Y-75395929D01*
X36638214Y-75395929D02*
X37097833Y-74936310D01*
X56442548Y-74419238D02*
X56442548Y-73729810D01*
X56442548Y-74074524D02*
X55236048Y-74074524D01*
X55408405Y-73959619D01*
X55523310Y-73844714D01*
X55580762Y-73729810D01*
X56442548Y-74936310D02*
X55236048Y-74936310D01*
X55982929Y-75051215D02*
X56442548Y-75395929D01*
X55638214Y-75395929D02*
X56097833Y-74936310D01*
X62442548Y-74419238D02*
X62442548Y-73729810D01*
X62442548Y-74074524D02*
X61236048Y-74074524D01*
X61408405Y-73959619D01*
X61523310Y-73844714D01*
X61580762Y-73729810D01*
X62442548Y-74936310D02*
X61236048Y-74936310D01*
X61982929Y-75051215D02*
X62442548Y-75395929D01*
X61638214Y-75395929D02*
X62097833Y-74936310D01*
X13736048Y-46017071D02*
X13736048Y-46131976D01*
X13793500Y-46246881D01*
X13850952Y-46304333D01*
X13965857Y-46361786D01*
X14195667Y-46419238D01*
X14482929Y-46419238D01*
X14712738Y-46361786D01*
X14827643Y-46304333D01*
X14885095Y-46246881D01*
X14942548Y-46131976D01*
X14942548Y-46017071D01*
X14885095Y-45902167D01*
X14827643Y-45844714D01*
X14712738Y-45787262D01*
X14482929Y-45729810D01*
X14195667Y-45729810D01*
X13965857Y-45787262D01*
X13850952Y-45844714D01*
X13793500Y-45902167D01*
X13736048Y-46017071D01*
X14827643Y-46936310D02*
X14885095Y-46993762D01*
X14942548Y-46936310D01*
X14885095Y-46878858D01*
X14827643Y-46936310D01*
X14942548Y-46936310D01*
X14942548Y-48142810D02*
X14942548Y-47453382D01*
X14942548Y-47798096D02*
X13736048Y-47798096D01*
X13908405Y-47683191D01*
X14023310Y-47568286D01*
X14080762Y-47453382D01*
X14138214Y-49176953D02*
X14942548Y-49176953D01*
X14138214Y-48659882D02*
X14770190Y-48659882D01*
X14885095Y-48717334D01*
X14942548Y-48832239D01*
X14942548Y-49004596D01*
X14885095Y-49119501D01*
X14827643Y-49176953D01*
X24442548Y-48919238D02*
X24442548Y-48229810D01*
X24442548Y-48574524D02*
X23236048Y-48574524D01*
X23408405Y-48459619D01*
X23523310Y-48344714D01*
X23580762Y-48229810D01*
X23236048Y-49666119D02*
X23236048Y-49781024D01*
X23293500Y-49895929D01*
X23350952Y-49953381D01*
X23465857Y-50010834D01*
X23695667Y-50068286D01*
X23982929Y-50068286D01*
X24212738Y-50010834D01*
X24327643Y-49953381D01*
X24385095Y-49895929D01*
X24442548Y-49781024D01*
X24442548Y-49666119D01*
X24385095Y-49551215D01*
X24327643Y-49493762D01*
X24212738Y-49436310D01*
X23982929Y-49378858D01*
X23695667Y-49378858D01*
X23465857Y-49436310D01*
X23350952Y-49493762D01*
X23293500Y-49551215D01*
X23236048Y-49666119D01*
X24442548Y-50585358D02*
X23236048Y-50585358D01*
X23982929Y-50700263D02*
X24442548Y-51044977D01*
X23638214Y-51044977D02*
X24097833Y-50585358D01*
X12942548Y-51787262D02*
X11736048Y-51787262D01*
X11736048Y-52074524D01*
X11793500Y-52246881D01*
X11908405Y-52361786D01*
X12023310Y-52419238D01*
X12253119Y-52476690D01*
X12425476Y-52476690D01*
X12655286Y-52419238D01*
X12770190Y-52361786D01*
X12885095Y-52246881D01*
X12942548Y-52074524D01*
X12942548Y-51787262D01*
X12942548Y-52993762D02*
X11736048Y-52993762D01*
X11736048Y-53798095D02*
X11736048Y-54027905D01*
X11793500Y-54142810D01*
X11908405Y-54257714D01*
X12138214Y-54315167D01*
X12540381Y-54315167D01*
X12770190Y-54257714D01*
X12885095Y-54142810D01*
X12942548Y-54027905D01*
X12942548Y-53798095D01*
X12885095Y-53683191D01*
X12770190Y-53568286D01*
X12540381Y-53510834D01*
X12138214Y-53510834D01*
X11908405Y-53568286D01*
X11793500Y-53683191D01*
X11736048Y-53798095D01*
X12942548Y-54832238D02*
X11736048Y-54832238D01*
X11736048Y-55119500D01*
X11793500Y-55291857D01*
X11908405Y-55406762D01*
X12023310Y-55464214D01*
X12253119Y-55521666D01*
X12425476Y-55521666D01*
X12655286Y-55464214D01*
X12770190Y-55406762D01*
X12885095Y-55291857D01*
X12942548Y-55119500D01*
X12942548Y-54832238D01*
X12310571Y-56038738D02*
X12310571Y-56440905D01*
X12942548Y-56613262D02*
X12942548Y-56038738D01*
X11736048Y-56038738D01*
X11736048Y-56613262D01*
X62236048Y-48517071D02*
X62236048Y-48631976D01*
X62293500Y-48746881D01*
X62350952Y-48804333D01*
X62465857Y-48861786D01*
X62695667Y-48919238D01*
X62982929Y-48919238D01*
X63212738Y-48861786D01*
X63327643Y-48804333D01*
X63385095Y-48746881D01*
X63442548Y-48631976D01*
X63442548Y-48517071D01*
X63385095Y-48402167D01*
X63327643Y-48344714D01*
X63212738Y-48287262D01*
X62982929Y-48229810D01*
X62695667Y-48229810D01*
X62465857Y-48287262D01*
X62350952Y-48344714D01*
X62293500Y-48402167D01*
X62236048Y-48517071D01*
X63327643Y-49436310D02*
X63385095Y-49493762D01*
X63442548Y-49436310D01*
X63385095Y-49378858D01*
X63327643Y-49436310D01*
X63442548Y-49436310D01*
X63442548Y-50642810D02*
X63442548Y-49953382D01*
X63442548Y-50298096D02*
X62236048Y-50298096D01*
X62408405Y-50183191D01*
X62523310Y-50068286D01*
X62580762Y-49953382D01*
X62638214Y-51676953D02*
X63442548Y-51676953D01*
X62638214Y-51159882D02*
X63270190Y-51159882D01*
X63385095Y-51217334D01*
X63442548Y-51332239D01*
X63442548Y-51504596D01*
X63385095Y-51619501D01*
X63327643Y-51676953D01*
X61138214Y-25804333D02*
X61942548Y-25804333D01*
X60678595Y-25517071D02*
X61540381Y-25229810D01*
X61540381Y-25976690D01*
X61827643Y-26436310D02*
X61885095Y-26493762D01*
X61942548Y-26436310D01*
X61885095Y-26378858D01*
X61827643Y-26436310D01*
X61942548Y-26436310D01*
X60736048Y-26895929D02*
X60736048Y-27700262D01*
X61942548Y-27183191D01*
X61138214Y-28676953D02*
X61942548Y-28676953D01*
X61138214Y-28159882D02*
X61770190Y-28159882D01*
X61885095Y-28217334D01*
X61942548Y-28332239D01*
X61942548Y-28504596D01*
X61885095Y-28619501D01*
X61827643Y-28676953D01*
X61942548Y-32919238D02*
X61942548Y-32229810D01*
X61942548Y-32574524D02*
X60736048Y-32574524D01*
X60908405Y-32459619D01*
X61023310Y-32344714D01*
X61080762Y-32229810D01*
X61942548Y-33436310D02*
X60736048Y-33436310D01*
X61482929Y-33551215D02*
X61942548Y-33895929D01*
X61138214Y-33895929D02*
X61597833Y-33436310D01*
X65442548Y-32919238D02*
X65442548Y-32229810D01*
X65442548Y-32574524D02*
X64236048Y-32574524D01*
X64408405Y-32459619D01*
X64523310Y-32344714D01*
X64580762Y-32229810D01*
X65442548Y-33436310D02*
X64236048Y-33436310D01*
X64982929Y-33551215D02*
X65442548Y-33895929D01*
X64638214Y-33895929D02*
X65097833Y-33436310D01*
X20347548Y-74784238D02*
X20347548Y-74094810D01*
X20347548Y-74439524D02*
X19141048Y-74439524D01*
X19313405Y-74324619D01*
X19428310Y-74209714D01*
X19485762Y-74094810D01*
X20347548Y-75301310D02*
X19141048Y-75301310D01*
X19887929Y-75416215D02*
X20347548Y-75760929D01*
X19543214Y-75760929D02*
X20002833Y-75301310D01*
X25347548Y-74784238D02*
X25347548Y-74094810D01*
X25347548Y-74439524D02*
X24141048Y-74439524D01*
X24313405Y-74324619D01*
X24428310Y-74209714D01*
X24485762Y-74094810D01*
X25347548Y-75301310D02*
X24141048Y-75301310D01*
X24887929Y-75416215D02*
X25347548Y-75760929D01*
X24543214Y-75760929D02*
X25002833Y-75301310D01*
X45347548Y-74784238D02*
X45347548Y-74094810D01*
X45347548Y-74439524D02*
X44141048Y-74439524D01*
X44313405Y-74324619D01*
X44428310Y-74209714D01*
X44485762Y-74094810D01*
X45347548Y-75301310D02*
X44141048Y-75301310D01*
X44887929Y-75416215D02*
X45347548Y-75760929D01*
X44543214Y-75760929D02*
X45002833Y-75301310D01*
X50347548Y-74784238D02*
X50347548Y-74094810D01*
X50347548Y-74439524D02*
X49141048Y-74439524D01*
X49313405Y-74324619D01*
X49428310Y-74209714D01*
X49485762Y-74094810D01*
X50347548Y-75301310D02*
X49141048Y-75301310D01*
X49887929Y-75416215D02*
X50347548Y-75760929D01*
X49543214Y-75760929D02*
X50002833Y-75301310D01*
X26736048Y-76517071D02*
X26736048Y-76631976D01*
X26793500Y-76746881D01*
X26850952Y-76804333D01*
X26965857Y-76861786D01*
X27195667Y-76919238D01*
X27482929Y-76919238D01*
X27712738Y-76861786D01*
X27827643Y-76804333D01*
X27885095Y-76746881D01*
X27942548Y-76631976D01*
X27942548Y-76517071D01*
X27885095Y-76402167D01*
X27827643Y-76344714D01*
X27712738Y-76287262D01*
X27482929Y-76229810D01*
X27195667Y-76229810D01*
X26965857Y-76287262D01*
X26850952Y-76344714D01*
X26793500Y-76402167D01*
X26736048Y-76517071D01*
X27827643Y-77436310D02*
X27885095Y-77493762D01*
X27942548Y-77436310D01*
X27885095Y-77378858D01*
X27827643Y-77436310D01*
X27942548Y-77436310D01*
X27942548Y-78642810D02*
X27942548Y-77953382D01*
X27942548Y-78298096D02*
X26736048Y-78298096D01*
X26908405Y-78183191D01*
X27023310Y-78068286D01*
X27080762Y-77953382D01*
X27138214Y-79676953D02*
X27942548Y-79676953D01*
X27138214Y-79159882D02*
X27770190Y-79159882D01*
X27885095Y-79217334D01*
X27942548Y-79332239D01*
X27942548Y-79504596D01*
X27885095Y-79619501D01*
X27827643Y-79676953D01*
X51736048Y-76517071D02*
X51736048Y-76631976D01*
X51793500Y-76746881D01*
X51850952Y-76804333D01*
X51965857Y-76861786D01*
X52195667Y-76919238D01*
X52482929Y-76919238D01*
X52712738Y-76861786D01*
X52827643Y-76804333D01*
X52885095Y-76746881D01*
X52942548Y-76631976D01*
X52942548Y-76517071D01*
X52885095Y-76402167D01*
X52827643Y-76344714D01*
X52712738Y-76287262D01*
X52482929Y-76229810D01*
X52195667Y-76229810D01*
X51965857Y-76287262D01*
X51850952Y-76344714D01*
X51793500Y-76402167D01*
X51736048Y-76517071D01*
X52827643Y-77436310D02*
X52885095Y-77493762D01*
X52942548Y-77436310D01*
X52885095Y-77378858D01*
X52827643Y-77436310D01*
X52942548Y-77436310D01*
X52942548Y-78642810D02*
X52942548Y-77953382D01*
X52942548Y-78298096D02*
X51736048Y-78298096D01*
X51908405Y-78183191D01*
X52023310Y-78068286D01*
X52080762Y-77953382D01*
X52138214Y-79676953D02*
X52942548Y-79676953D01*
X52138214Y-79159882D02*
X52770190Y-79159882D01*
X52885095Y-79217334D01*
X52942548Y-79332239D01*
X52942548Y-79504596D01*
X52885095Y-79619501D01*
X52827643Y-79676953D01*
X15736048Y-76517071D02*
X15736048Y-76631976D01*
X15793500Y-76746881D01*
X15850952Y-76804333D01*
X15965857Y-76861786D01*
X16195667Y-76919238D01*
X16482929Y-76919238D01*
X16712738Y-76861786D01*
X16827643Y-76804333D01*
X16885095Y-76746881D01*
X16942548Y-76631976D01*
X16942548Y-76517071D01*
X16885095Y-76402167D01*
X16827643Y-76344714D01*
X16712738Y-76287262D01*
X16482929Y-76229810D01*
X16195667Y-76229810D01*
X15965857Y-76287262D01*
X15850952Y-76344714D01*
X15793500Y-76402167D01*
X15736048Y-76517071D01*
X16827643Y-77436310D02*
X16885095Y-77493762D01*
X16942548Y-77436310D01*
X16885095Y-77378858D01*
X16827643Y-77436310D01*
X16942548Y-77436310D01*
X16942548Y-78642810D02*
X16942548Y-77953382D01*
X16942548Y-78298096D02*
X15736048Y-78298096D01*
X15908405Y-78183191D01*
X16023310Y-78068286D01*
X16080762Y-77953382D01*
X16138214Y-79676953D02*
X16942548Y-79676953D01*
X16138214Y-79159882D02*
X16770190Y-79159882D01*
X16885095Y-79217334D01*
X16942548Y-79332239D01*
X16942548Y-79504596D01*
X16885095Y-79619501D01*
X16827643Y-79676953D01*
X20736048Y-76517071D02*
X20736048Y-76631976D01*
X20793500Y-76746881D01*
X20850952Y-76804333D01*
X20965857Y-76861786D01*
X21195667Y-76919238D01*
X21482929Y-76919238D01*
X21712738Y-76861786D01*
X21827643Y-76804333D01*
X21885095Y-76746881D01*
X21942548Y-76631976D01*
X21942548Y-76517071D01*
X21885095Y-76402167D01*
X21827643Y-76344714D01*
X21712738Y-76287262D01*
X21482929Y-76229810D01*
X21195667Y-76229810D01*
X20965857Y-76287262D01*
X20850952Y-76344714D01*
X20793500Y-76402167D01*
X20736048Y-76517071D01*
X21827643Y-77436310D02*
X21885095Y-77493762D01*
X21942548Y-77436310D01*
X21885095Y-77378858D01*
X21827643Y-77436310D01*
X21942548Y-77436310D01*
X21942548Y-78642810D02*
X21942548Y-77953382D01*
X21942548Y-78298096D02*
X20736048Y-78298096D01*
X20908405Y-78183191D01*
X21023310Y-78068286D01*
X21080762Y-77953382D01*
X21138214Y-79676953D02*
X21942548Y-79676953D01*
X21138214Y-79159882D02*
X21770190Y-79159882D01*
X21885095Y-79217334D01*
X21942548Y-79332239D01*
X21942548Y-79504596D01*
X21885095Y-79619501D01*
X21827643Y-79676953D01*
X40736048Y-76517071D02*
X40736048Y-76631976D01*
X40793500Y-76746881D01*
X40850952Y-76804333D01*
X40965857Y-76861786D01*
X41195667Y-76919238D01*
X41482929Y-76919238D01*
X41712738Y-76861786D01*
X41827643Y-76804333D01*
X41885095Y-76746881D01*
X41942548Y-76631976D01*
X41942548Y-76517071D01*
X41885095Y-76402167D01*
X41827643Y-76344714D01*
X41712738Y-76287262D01*
X41482929Y-76229810D01*
X41195667Y-76229810D01*
X40965857Y-76287262D01*
X40850952Y-76344714D01*
X40793500Y-76402167D01*
X40736048Y-76517071D01*
X41827643Y-77436310D02*
X41885095Y-77493762D01*
X41942548Y-77436310D01*
X41885095Y-77378858D01*
X41827643Y-77436310D01*
X41942548Y-77436310D01*
X41942548Y-78642810D02*
X41942548Y-77953382D01*
X41942548Y-78298096D02*
X40736048Y-78298096D01*
X40908405Y-78183191D01*
X41023310Y-78068286D01*
X41080762Y-77953382D01*
X41138214Y-79676953D02*
X41942548Y-79676953D01*
X41138214Y-79159882D02*
X41770190Y-79159882D01*
X41885095Y-79217334D01*
X41942548Y-79332239D01*
X41942548Y-79504596D01*
X41885095Y-79619501D01*
X41827643Y-79676953D01*
X45736048Y-76517071D02*
X45736048Y-76631976D01*
X45793500Y-76746881D01*
X45850952Y-76804333D01*
X45965857Y-76861786D01*
X46195667Y-76919238D01*
X46482929Y-76919238D01*
X46712738Y-76861786D01*
X46827643Y-76804333D01*
X46885095Y-76746881D01*
X46942548Y-76631976D01*
X46942548Y-76517071D01*
X46885095Y-76402167D01*
X46827643Y-76344714D01*
X46712738Y-76287262D01*
X46482929Y-76229810D01*
X46195667Y-76229810D01*
X45965857Y-76287262D01*
X45850952Y-76344714D01*
X45793500Y-76402167D01*
X45736048Y-76517071D01*
X46827643Y-77436310D02*
X46885095Y-77493762D01*
X46942548Y-77436310D01*
X46885095Y-77378858D01*
X46827643Y-77436310D01*
X46942548Y-77436310D01*
X46942548Y-78642810D02*
X46942548Y-77953382D01*
X46942548Y-78298096D02*
X45736048Y-78298096D01*
X45908405Y-78183191D01*
X46023310Y-78068286D01*
X46080762Y-77953382D01*
X46138214Y-79676953D02*
X46942548Y-79676953D01*
X46138214Y-79159882D02*
X46770190Y-79159882D01*
X46885095Y-79217334D01*
X46942548Y-79332239D01*
X46942548Y-79504596D01*
X46885095Y-79619501D01*
X46827643Y-79676953D01*
X8695667Y-28638214D02*
X8695667Y-29442548D01*
X8982929Y-28178595D02*
X9270190Y-29040381D01*
X8523310Y-29040381D01*
X8063690Y-29327643D02*
X8006238Y-29385095D01*
X8063690Y-29442548D01*
X8121142Y-29385095D01*
X8063690Y-29327643D01*
X8063690Y-29442548D01*
X7604071Y-28236048D02*
X6799738Y-28236048D01*
X7316809Y-29442548D01*
X5823047Y-28638214D02*
X5823047Y-29442548D01*
X6340118Y-28638214D02*
X6340118Y-29270190D01*
X6282666Y-29385095D01*
X6167761Y-29442548D01*
X5995404Y-29442548D01*
X5880499Y-29385095D01*
X5823047Y-29327643D01*
X8695667Y-7138214D02*
X8695667Y-7942548D01*
X8982929Y-6678595D02*
X9270190Y-7540381D01*
X8523310Y-7540381D01*
X8063690Y-7827643D02*
X8006238Y-7885095D01*
X8063690Y-7942548D01*
X8121142Y-7885095D01*
X8063690Y-7827643D01*
X8063690Y-7942548D01*
X7604071Y-6736048D02*
X6799738Y-6736048D01*
X7316809Y-7942548D01*
X5823047Y-7138214D02*
X5823047Y-7942548D01*
X6340118Y-7138214D02*
X6340118Y-7770190D01*
X6282666Y-7885095D01*
X6167761Y-7942548D01*
X5995404Y-7942548D01*
X5880499Y-7885095D01*
X5823047Y-7827643D01*
X70236048Y-31017071D02*
X70236048Y-31131976D01*
X70293500Y-31246881D01*
X70350952Y-31304333D01*
X70465857Y-31361786D01*
X70695667Y-31419238D01*
X70982929Y-31419238D01*
X71212738Y-31361786D01*
X71327643Y-31304333D01*
X71385095Y-31246881D01*
X71442548Y-31131976D01*
X71442548Y-31017071D01*
X71385095Y-30902167D01*
X71327643Y-30844714D01*
X71212738Y-30787262D01*
X70982929Y-30729810D01*
X70695667Y-30729810D01*
X70465857Y-30787262D01*
X70350952Y-30844714D01*
X70293500Y-30902167D01*
X70236048Y-31017071D01*
X71327643Y-31936310D02*
X71385095Y-31993762D01*
X71442548Y-31936310D01*
X71385095Y-31878858D01*
X71327643Y-31936310D01*
X71442548Y-31936310D01*
X71442548Y-33142810D02*
X71442548Y-32453382D01*
X71442548Y-32798096D02*
X70236048Y-32798096D01*
X70408405Y-32683191D01*
X70523310Y-32568286D01*
X70580762Y-32453382D01*
X70638214Y-34176953D02*
X71442548Y-34176953D01*
X70638214Y-33659882D02*
X71270190Y-33659882D01*
X71385095Y-33717334D01*
X71442548Y-33832239D01*
X71442548Y-34004596D01*
X71385095Y-34119501D01*
X71327643Y-34176953D01*
X68236048Y-31017071D02*
X68236048Y-31131976D01*
X68293500Y-31246881D01*
X68350952Y-31304333D01*
X68465857Y-31361786D01*
X68695667Y-31419238D01*
X68982929Y-31419238D01*
X69212738Y-31361786D01*
X69327643Y-31304333D01*
X69385095Y-31246881D01*
X69442548Y-31131976D01*
X69442548Y-31017071D01*
X69385095Y-30902167D01*
X69327643Y-30844714D01*
X69212738Y-30787262D01*
X68982929Y-30729810D01*
X68695667Y-30729810D01*
X68465857Y-30787262D01*
X68350952Y-30844714D01*
X68293500Y-30902167D01*
X68236048Y-31017071D01*
X69327643Y-31936310D02*
X69385095Y-31993762D01*
X69442548Y-31936310D01*
X69385095Y-31878858D01*
X69327643Y-31936310D01*
X69442548Y-31936310D01*
X69442548Y-33142810D02*
X69442548Y-32453382D01*
X69442548Y-32798096D02*
X68236048Y-32798096D01*
X68408405Y-32683191D01*
X68523310Y-32568286D01*
X68580762Y-32453382D01*
X68638214Y-34176953D02*
X69442548Y-34176953D01*
X68638214Y-33659882D02*
X69270190Y-33659882D01*
X69385095Y-33717334D01*
X69442548Y-33832239D01*
X69442548Y-34004596D01*
X69385095Y-34119501D01*
X69327643Y-34176953D01*
X66236048Y-31017071D02*
X66236048Y-31131976D01*
X66293500Y-31246881D01*
X66350952Y-31304333D01*
X66465857Y-31361786D01*
X66695667Y-31419238D01*
X66982929Y-31419238D01*
X67212738Y-31361786D01*
X67327643Y-31304333D01*
X67385095Y-31246881D01*
X67442548Y-31131976D01*
X67442548Y-31017071D01*
X67385095Y-30902167D01*
X67327643Y-30844714D01*
X67212738Y-30787262D01*
X66982929Y-30729810D01*
X66695667Y-30729810D01*
X66465857Y-30787262D01*
X66350952Y-30844714D01*
X66293500Y-30902167D01*
X66236048Y-31017071D01*
X67327643Y-31936310D02*
X67385095Y-31993762D01*
X67442548Y-31936310D01*
X67385095Y-31878858D01*
X67327643Y-31936310D01*
X67442548Y-31936310D01*
X67442548Y-33142810D02*
X67442548Y-32453382D01*
X67442548Y-32798096D02*
X66236048Y-32798096D01*
X66408405Y-32683191D01*
X66523310Y-32568286D01*
X66580762Y-32453382D01*
X66638214Y-34176953D02*
X67442548Y-34176953D01*
X66638214Y-33659882D02*
X67270190Y-33659882D01*
X67385095Y-33717334D01*
X67442548Y-33832239D01*
X67442548Y-34004596D01*
X67385095Y-34119501D01*
X67327643Y-34176953D01*
X57236048Y-48172357D02*
X57236048Y-48919238D01*
X57695667Y-48517071D01*
X57695667Y-48689429D01*
X57753119Y-48804333D01*
X57810571Y-48861786D01*
X57925476Y-48919238D01*
X58212738Y-48919238D01*
X58327643Y-48861786D01*
X58385095Y-48804333D01*
X58442548Y-48689429D01*
X58442548Y-48344714D01*
X58385095Y-48229810D01*
X58327643Y-48172357D01*
X57236048Y-49321405D02*
X57236048Y-50068286D01*
X57695667Y-49666119D01*
X57695667Y-49838477D01*
X57753119Y-49953381D01*
X57810571Y-50010834D01*
X57925476Y-50068286D01*
X58212738Y-50068286D01*
X58327643Y-50010834D01*
X58385095Y-49953381D01*
X58442548Y-49838477D01*
X58442548Y-49493762D01*
X58385095Y-49378858D01*
X58327643Y-49321405D01*
X57236048Y-50815167D02*
X57236048Y-50930072D01*
X57293500Y-51044977D01*
X57350952Y-51102429D01*
X57465857Y-51159882D01*
X57695667Y-51217334D01*
X57982929Y-51217334D01*
X58212738Y-51159882D01*
X58327643Y-51102429D01*
X58385095Y-51044977D01*
X58442548Y-50930072D01*
X58442548Y-50815167D01*
X58385095Y-50700263D01*
X58327643Y-50642810D01*
X58212738Y-50585358D01*
X57982929Y-50527906D01*
X57695667Y-50527906D01*
X57465857Y-50585358D01*
X57350952Y-50642810D01*
X57293500Y-50700263D01*
X57236048Y-50815167D01*
X68442548Y-48919238D02*
X68442548Y-48229810D01*
X68442548Y-48574524D02*
X67236048Y-48574524D01*
X67408405Y-48459619D01*
X67523310Y-48344714D01*
X67580762Y-48229810D01*
X67236048Y-49666119D02*
X67236048Y-49781024D01*
X67293500Y-49895929D01*
X67350952Y-49953381D01*
X67465857Y-50010834D01*
X67695667Y-50068286D01*
X67982929Y-50068286D01*
X68212738Y-50010834D01*
X68327643Y-49953381D01*
X68385095Y-49895929D01*
X68442548Y-49781024D01*
X68442548Y-49666119D01*
X68385095Y-49551215D01*
X68327643Y-49493762D01*
X68212738Y-49436310D01*
X67982929Y-49378858D01*
X67695667Y-49378858D01*
X67465857Y-49436310D01*
X67350952Y-49493762D01*
X67293500Y-49551215D01*
X67236048Y-49666119D01*
X68442548Y-50585358D02*
X67236048Y-50585358D01*
X67982929Y-50700263D02*
X68442548Y-51044977D01*
X67638214Y-51044977D02*
X68097833Y-50585358D01*
X63442548Y-32419238D02*
X63442548Y-31729810D01*
X63442548Y-32074524D02*
X62236048Y-32074524D01*
X62408405Y-31959619D01*
X62523310Y-31844714D01*
X62580762Y-31729810D01*
X62236048Y-33166119D02*
X62236048Y-33281024D01*
X62293500Y-33395929D01*
X62350952Y-33453381D01*
X62465857Y-33510834D01*
X62695667Y-33568286D01*
X62982929Y-33568286D01*
X63212738Y-33510834D01*
X63327643Y-33453381D01*
X63385095Y-33395929D01*
X63442548Y-33281024D01*
X63442548Y-33166119D01*
X63385095Y-33051215D01*
X63327643Y-32993762D01*
X63212738Y-32936310D01*
X62982929Y-32878858D01*
X62695667Y-32878858D01*
X62465857Y-32936310D01*
X62350952Y-32993762D01*
X62293500Y-33051215D01*
X62236048Y-33166119D01*
X63442548Y-34085358D02*
X62236048Y-34085358D01*
X62982929Y-34200263D02*
X63442548Y-34544977D01*
X62638214Y-34544977D02*
X63097833Y-34085358D01*
%LPC*%
D15*
X63000000Y-9000000D03*
D16*
X65500000Y-9000000D03*
D17*
X52500000Y-72000000D03*
X55000000Y-72000000D03*
X57500000Y-72000000D03*
X60000000Y-72000000D03*
D18*
X56250000Y-78500000D03*
D17*
X15000000Y-72000000D03*
X17500000Y-72000000D03*
X20000000Y-72000000D03*
X22500000Y-72000000D03*
D18*
X18750000Y-78500000D03*
D19*
X9000000Y-60500000D03*
X9000000Y-63000000D03*
X9000000Y-65500000D03*
X9000000Y-68000000D03*
D18*
X2500000Y-64250000D03*
D20*
X4000000Y-33500000D03*
D21*
X9000000Y-33500000D03*
D22*
X17200000Y-65095000D03*
X17200000Y-66365000D03*
X17200000Y-67635000D03*
X17200000Y-68905000D03*
X11800000Y-68905000D03*
X11800000Y-67635000D03*
X11800000Y-66365000D03*
X11800000Y-65095000D03*
D23*
X20000000Y-47400000D03*
X20000000Y-45600000D03*
D24*
X70500000Y-12714000D03*
D25*
X64150000Y-15000000D03*
D24*
X70500000Y-17286000D03*
D15*
X16500000Y-52500000D03*
D16*
X16500000Y-50000000D03*
D26*
X1500000Y-72500000D03*
D27*
X4040000Y-72500000D03*
D28*
X71100000Y-10000000D03*
X67900000Y-10000000D03*
X71100000Y-20000000D03*
X67900000Y-20000000D03*
D23*
X28000000Y-45600000D03*
X28000000Y-47400000D03*
X52000000Y-45600000D03*
X52000000Y-47400000D03*
X40000000Y-45600000D03*
X40000000Y-47400000D03*
X70000000Y-70350000D03*
X70000000Y-72150000D03*
D29*
X46650000Y-57500000D03*
X44850000Y-57500000D03*
D23*
X32000000Y-47400000D03*
X32000000Y-45600000D03*
X56000000Y-47400000D03*
X56000000Y-45600000D03*
X44000000Y-47400000D03*
X44000000Y-45600000D03*
D29*
X7900000Y-72500000D03*
X6100000Y-72500000D03*
D23*
X34500000Y-35100000D03*
X34500000Y-36900000D03*
X22500000Y-35100000D03*
X22500000Y-36900000D03*
X58500000Y-35100000D03*
X58500000Y-36900000D03*
X46500000Y-35100000D03*
X46500000Y-36900000D03*
X19000000Y-66100000D03*
X19000000Y-67900000D03*
X48000000Y-45600000D03*
X48000000Y-47400000D03*
X32500000Y-75400000D03*
X32500000Y-73600000D03*
X35000000Y-75400000D03*
X35000000Y-73600000D03*
X57500000Y-75400000D03*
X57500000Y-73600000D03*
X60000000Y-75400000D03*
X60000000Y-73600000D03*
X16000000Y-45600000D03*
X16000000Y-47400000D03*
X24000000Y-45600000D03*
X24000000Y-47400000D03*
D30*
X71500000Y-69250000D03*
X70000000Y-69250000D03*
X68500000Y-69250000D03*
X67000000Y-69250000D03*
X65500000Y-69250000D03*
X64000000Y-69250000D03*
D31*
X71810000Y-64540000D03*
X71810000Y-62000000D03*
X71810000Y-59460000D03*
X64190000Y-59460000D03*
X64190000Y-62000000D03*
X64190000Y-64540000D03*
D19*
X9000000Y-48000000D03*
X9000000Y-50500000D03*
X9000000Y-53000000D03*
X9000000Y-55500000D03*
D18*
X2500000Y-51750000D03*
D32*
X9800000Y-14000000D03*
D33*
X4100000Y-14400000D03*
D34*
X14214000Y-53500000D03*
D25*
X16500000Y-59850000D03*
D34*
X18786000Y-53500000D03*
D17*
X27500000Y-72000000D03*
X30000000Y-72000000D03*
X32500000Y-72000000D03*
X35000000Y-72000000D03*
D18*
X31250000Y-78500000D03*
D28*
X11400000Y-50500000D03*
X14600000Y-50500000D03*
D23*
X63000000Y-45600000D03*
X63000000Y-47400000D03*
D28*
X66600000Y-27000000D03*
X63400000Y-27000000D03*
D17*
X40000000Y-72000000D03*
X42500000Y-72000000D03*
X45000000Y-72000000D03*
X47500000Y-72000000D03*
D18*
X43750000Y-78500000D03*
D23*
X60500000Y-35100000D03*
X60500000Y-36900000D03*
X64500000Y-36900000D03*
X64500000Y-35100000D03*
D35*
X63648340Y-25001140D03*
X63648340Y-23500000D03*
X63648340Y-21998860D03*
D36*
X66599820Y-23500000D03*
D10*
G36*
X64176050Y-22799620D02*
X65325350Y-22299240D01*
X65325350Y-24700760D01*
X64176050Y-24200380D01*
X64176050Y-22799620D01*
X64176050Y-22799620D01*
G37*
D23*
X18500000Y-73600000D03*
X18500000Y-75400000D03*
X23500000Y-73600000D03*
X23500000Y-75400000D03*
X43500000Y-73600000D03*
X43500000Y-75400000D03*
X48500000Y-73600000D03*
X48500000Y-75400000D03*
X27500000Y-73600000D03*
X27500000Y-75400000D03*
X52500000Y-73600000D03*
X52500000Y-75400000D03*
X16500000Y-75400000D03*
X16500000Y-73600000D03*
X21500000Y-75400000D03*
X21500000Y-73600000D03*
X41500000Y-75400000D03*
X41500000Y-73600000D03*
X46500000Y-75400000D03*
X46500000Y-73600000D03*
D37*
X38500000Y-1500000D03*
X38500000Y-6500000D03*
X14500000Y-1500000D03*
X14500000Y-6500000D03*
X41500000Y-1500000D03*
X41500000Y-6500000D03*
X17500000Y-1500000D03*
X17500000Y-6500000D03*
D38*
X11300000Y-22500000D03*
D33*
X4100000Y-23400000D03*
D28*
X9100000Y-27000000D03*
X5900000Y-27000000D03*
X9100000Y-9500000D03*
X5900000Y-9500000D03*
D23*
X70500000Y-36900000D03*
X70500000Y-35100000D03*
X68500000Y-36900000D03*
X68500000Y-35100000D03*
X66500000Y-36900000D03*
X66500000Y-35100000D03*
D39*
X32540000Y-20900000D03*
D40*
X27460000Y-21000000D03*
D41*
X30000000Y-11000000D03*
D39*
X44540000Y-20900000D03*
D40*
X39460000Y-21000000D03*
D41*
X42000000Y-11000000D03*
D39*
X56540000Y-20900000D03*
D40*
X51460000Y-21000000D03*
D41*
X54000000Y-11000000D03*
D39*
X20540000Y-36900000D03*
D40*
X15460000Y-37000000D03*
D41*
X18000000Y-27000000D03*
D39*
X32540000Y-36900000D03*
D40*
X27460000Y-37000000D03*
D41*
X30000000Y-27000000D03*
D39*
X44540000Y-36900000D03*
D40*
X39460000Y-37000000D03*
D41*
X42000000Y-27000000D03*
D39*
X56540000Y-36900000D03*
D40*
X51460000Y-37000000D03*
D41*
X54000000Y-27000000D03*
D23*
X58000000Y-47400000D03*
X58000000Y-45600000D03*
X68000000Y-47400000D03*
X68000000Y-45600000D03*
X62500000Y-35100000D03*
X62500000Y-36900000D03*
D42*
X64865000Y-39700000D03*
X66135000Y-39700000D03*
X66135000Y-46300000D03*
X64865000Y-46300000D03*
X61135000Y-46300000D03*
X59865000Y-46300000D03*
X59865000Y-39700000D03*
X61135000Y-39700000D03*
D43*
X23000000Y-58500000D03*
D44*
X23000000Y-55960000D03*
X23000000Y-53420000D03*
X23000000Y-50880000D03*
D39*
X20540000Y-20900000D03*
D40*
X15460000Y-21000000D03*
D41*
X18000000Y-11000000D03*
D45*
X41700000Y-21000000D03*
D46*
X48900000Y-20100000D03*
D45*
X17700000Y-21000000D03*
D46*
X24900000Y-20100000D03*
D19*
X70000000Y-25500000D03*
X70000000Y-23000000D03*
D47*
G36*
X42987000Y-1487000D02*
X12000000Y-1487000D01*
X11994942Y-1488024D01*
X11990681Y-1490935D01*
X11987889Y-1495275D01*
X11987000Y-1500000D01*
X11987000Y-20987000D01*
X10513000Y-20987000D01*
X10513000Y-13000D01*
X42987000Y-13000D01*
X42987000Y-1487000D01*
X42987000Y-1487000D01*
G37*
X42987000Y-1487000D02*
X12000000Y-1487000D01*
X11994942Y-1488024D01*
X11990681Y-1490935D01*
X11987889Y-1495275D01*
X11987000Y-1500000D01*
X11987000Y-20987000D01*
X10513000Y-20987000D01*
X10513000Y-13000D01*
X42987000Y-13000D01*
X42987000Y-1487000D01*
D48*
G36*
X2373000Y-39000000D02*
X2383006Y-39049410D01*
X2411447Y-39091035D01*
X2453841Y-39118315D01*
X2500000Y-39127000D01*
X13500000Y-39127000D01*
X13549410Y-39116994D01*
X13591035Y-39088553D01*
X13618315Y-39046159D01*
X13627000Y-39000000D01*
X13627000Y-35127000D01*
X16873000Y-35127000D01*
X16873000Y-39000000D01*
X16883006Y-39049410D01*
X16911447Y-39091035D01*
X16953841Y-39118315D01*
X17000000Y-39127000D01*
X25500000Y-39127000D01*
X25549410Y-39116994D01*
X25591035Y-39088553D01*
X25618315Y-39046159D01*
X25627000Y-39000000D01*
X25627000Y-35127000D01*
X28873000Y-35127000D01*
X28873000Y-39000000D01*
X28883006Y-39049410D01*
X28911447Y-39091035D01*
X28953841Y-39118315D01*
X29000000Y-39127000D01*
X37500000Y-39127000D01*
X37549410Y-39116994D01*
X37591035Y-39088553D01*
X37618315Y-39046159D01*
X37627000Y-39000000D01*
X37627000Y-35127000D01*
X40873000Y-35127000D01*
X40873000Y-39000000D01*
X40883006Y-39049410D01*
X40911447Y-39091035D01*
X40953841Y-39118315D01*
X41000000Y-39127000D01*
X49500000Y-39127000D01*
X49549410Y-39116994D01*
X49591035Y-39088553D01*
X49618315Y-39046159D01*
X49627000Y-39000000D01*
X49627000Y-35127000D01*
X52873000Y-35127000D01*
X52873000Y-39000000D01*
X52883006Y-39049410D01*
X52911447Y-39091035D01*
X52953841Y-39118315D01*
X53000000Y-39127000D01*
X54373000Y-39127000D01*
X54373000Y-40373000D01*
X1127000Y-40373000D01*
X1127000Y-14627000D01*
X2373000Y-14627000D01*
X2373000Y-39000000D01*
X2373000Y-39000000D01*
G37*
X2373000Y-39000000D02*
X2383006Y-39049410D01*
X2411447Y-39091035D01*
X2453841Y-39118315D01*
X2500000Y-39127000D01*
X13500000Y-39127000D01*
X13549410Y-39116994D01*
X13591035Y-39088553D01*
X13618315Y-39046159D01*
X13627000Y-39000000D01*
X13627000Y-35127000D01*
X16873000Y-35127000D01*
X16873000Y-39000000D01*
X16883006Y-39049410D01*
X16911447Y-39091035D01*
X16953841Y-39118315D01*
X17000000Y-39127000D01*
X25500000Y-39127000D01*
X25549410Y-39116994D01*
X25591035Y-39088553D01*
X25618315Y-39046159D01*
X25627000Y-39000000D01*
X25627000Y-35127000D01*
X28873000Y-35127000D01*
X28873000Y-39000000D01*
X28883006Y-39049410D01*
X28911447Y-39091035D01*
X28953841Y-39118315D01*
X29000000Y-39127000D01*
X37500000Y-39127000D01*
X37549410Y-39116994D01*
X37591035Y-39088553D01*
X37618315Y-39046159D01*
X37627000Y-39000000D01*
X37627000Y-35127000D01*
X40873000Y-35127000D01*
X40873000Y-39000000D01*
X40883006Y-39049410D01*
X40911447Y-39091035D01*
X40953841Y-39118315D01*
X41000000Y-39127000D01*
X49500000Y-39127000D01*
X49549410Y-39116994D01*
X49591035Y-39088553D01*
X49618315Y-39046159D01*
X49627000Y-39000000D01*
X49627000Y-35127000D01*
X52873000Y-35127000D01*
X52873000Y-39000000D01*
X52883006Y-39049410D01*
X52911447Y-39091035D01*
X52953841Y-39118315D01*
X53000000Y-39127000D01*
X54373000Y-39127000D01*
X54373000Y-40373000D01*
X1127000Y-40373000D01*
X1127000Y-14627000D01*
X2373000Y-14627000D01*
X2373000Y-39000000D01*
D47*
G36*
X16987000Y-22987000D02*
X14013000Y-22987000D01*
X14013000Y-21513000D01*
X16987000Y-21513000D01*
X16987000Y-22987000D01*
X16987000Y-22987000D01*
G37*
X16987000Y-22987000D02*
X14013000Y-22987000D01*
X14013000Y-21513000D01*
X16987000Y-21513000D01*
X16987000Y-22987000D01*
G36*
X28987000Y-22987000D02*
X25013000Y-22987000D01*
X25013000Y-21013000D01*
X28987000Y-21013000D01*
X28987000Y-22987000D01*
X28987000Y-22987000D01*
G37*
X28987000Y-22987000D02*
X25013000Y-22987000D01*
X25013000Y-21013000D01*
X28987000Y-21013000D01*
X28987000Y-22987000D01*
G36*
X40987000Y-22987000D02*
X38013000Y-22987000D01*
X38013000Y-21513000D01*
X40987000Y-21513000D01*
X40987000Y-22987000D01*
X40987000Y-22987000D01*
G37*
X40987000Y-22987000D02*
X38013000Y-22987000D01*
X38013000Y-21513000D01*
X40987000Y-21513000D01*
X40987000Y-22987000D01*
G36*
X52987000Y-22987000D02*
X49013000Y-22987000D01*
X49013000Y-21013000D01*
X52987000Y-21013000D01*
X52987000Y-22987000D01*
X52987000Y-22987000D01*
G37*
X52987000Y-22987000D02*
X49013000Y-22987000D01*
X49013000Y-21013000D01*
X52987000Y-21013000D01*
X52987000Y-22987000D01*
D48*
G36*
X34873000Y-7373000D02*
X19127000Y-7373000D01*
X19127000Y-6127000D01*
X34873000Y-6127000D01*
X34873000Y-7373000D01*
X34873000Y-7373000D01*
G37*
X34873000Y-7373000D02*
X19127000Y-7373000D01*
X19127000Y-6127000D01*
X34873000Y-6127000D01*
X34873000Y-7373000D01*
G36*
X58873000Y-7373000D02*
X43127000Y-7373000D01*
X43127000Y-6127000D01*
X58873000Y-6127000D01*
X58873000Y-7373000D01*
X58873000Y-7373000D01*
G37*
X58873000Y-7373000D02*
X43127000Y-7373000D01*
X43127000Y-6127000D01*
X58873000Y-6127000D01*
X58873000Y-7373000D01*
M02*
