M48
;DRILL file {KiCad 4.0.6} date 05/02/17 10:19:32
;FORMAT={-:-/ absolute / metric / decimal}
FMAT,2
METRIC,TZ
T1C0.300
T2C0.500
T3C0.700
T4C0.750
T5C0.762
T6C0.800
T7C1.000
T8C1.016
T9C1.200
T10C1.800
T11C3.000
%
G90
G05
M71
T1
X12.5Y-45.5
X14.75Y-47.
X16.Y-47.4
X16.Y-67.25
X17.5Y-45.6
X19.Y-46.5
X19.5Y-66.
X20.Y-47.4
X24.Y-45.6
X25.75Y-48.25
X28.Y-47.4
X29.5Y-45.6
X30.5Y-46.5
X32.Y-47.4
X34.5Y-47.5
X36.Y-45.6
X36.5Y-58.5
X37.Y-66.5
X37.Y-67.5
X40.Y-47.4
X41.5Y-45.6
X43.Y-46.5
X43.48Y-58.5
X44.Y-47.4
X45.5Y-57.
X46.Y-53.25
X46.4Y-60.8
X47.75Y-54.75
X47.75Y-57.75
X47.75Y-59.25
X48.Y-45.6
X48.4Y-61.2
X49.25Y-57.75
X49.25Y-59.25
X49.5Y-60.
X49.75Y-55.25
X49.75Y-56.
X51.2Y-60.2
X51.75Y-53.75
X52.Y-47.4
X52.5Y-66.5
X53.25Y-67.
X53.5Y-45.6
X53.5Y-53.5
X53.75Y-47.25
X54.Y-54.5
X54.5Y-46.5
X55.5Y-53.
X55.5Y-64.
X56.Y-47.4
X56.Y-66.
X56.75Y-66.5
X57.75Y-55.5
X57.75Y-56.5
X57.75Y-57.5
X57.75Y-58.5
X58.5Y-65.
X62.825Y-47.15
X65.Y-48.25
X66.25Y-48.25
X68.5Y-72.
T2
X13.5Y-32.5
X15.5Y-17.5
X17.5Y-4.5
X17.5Y-6.
X18.5Y-32.5
X20.Y-22.
X22.5Y-33.5
X22.5Y-35.
X23.5Y-63.5
X23.5Y-65.
X26.Y-32.5
X27.5Y-17.5
X30.Y-50.5
X30.Y-58.5
X30.5Y-32.5
X31.Y-22.
X34.5Y-33.5
X34.5Y-35.
X36.Y-50.5
X36.Y-52.
X38.Y-32.5
X39.5Y-17.5
X41.5Y-4.5
X41.5Y-6.
X42.5Y-32.5
X44.Y-22.
X46.5Y-33.5
X46.5Y-35.
X48.5Y-58.5
X50.Y-32.5
X51.5Y-17.5
X54.5Y-32.5
X55.Y-22.
X58.5Y-33.5
X58.5Y-35.
X59.8Y-39.8
X60.Y-8.
X60.Y-11.
X60.Y-12.5
X60.Y-16.
X60.Y-48.5
X60.5Y-3.5
X60.5Y-65.75
X61.5Y-36.
X62.Y-22.
X62.Y-29.5
X62.Y-35.
X63.5Y-36.
X64.Y-23.5
X65.5Y-36.9
X67.Y-6.5
X67.Y-31.
X67.5Y-36.
X68.Y-45.6
X69.5Y-36.
X70.Y-29.5
X70.5Y-34.
X72.Y-35.
T3
X64.Y-69.25
X65.5Y-69.25
X67.Y-69.25
X68.5Y-69.25
X70.Y-69.25
X71.5Y-69.25
T4
X9.Y-18.
X9.Y-19.5
X9.Y-21.
X9.Y-22.5
X9.Y-24.
X9.Y-25.5
X9.Y-27.
X10.5Y-18.
X10.5Y-27.
X14.Y-54.5
X14.5Y-19.
X14.5Y-20.5
X14.5Y-22.
X14.5Y-23.5
X14.5Y-25.
X14.5Y-26.5
X14.5Y-28.
X14.5Y-29.5
X16.Y-19.
X16.Y-20.5
X16.Y-22.
X16.Y-23.5
X16.Y-25.
X16.Y-26.5
X16.Y-28.
X16.Y-29.5
X17.5Y-25.
X17.5Y-26.5
X17.5Y-28.
X19.Y-54.5
X25.Y-22.
X25.Y-23.5
X25.Y-25.
X25.Y-26.5
X25.Y-28.
X25.Y-29.5
X25.Y-72.
X26.5Y-22.
X26.5Y-23.5
X26.5Y-25.
X26.5Y-26.5
X26.5Y-28.
X26.5Y-29.5
X28.Y-19.
X28.Y-20.5
X28.Y-22.
X28.Y-23.5
X28.Y-25.
X28.Y-26.5
X28.Y-28.
X38.5Y-19.
X38.5Y-20.5
X38.5Y-22.
X38.5Y-23.5
X38.5Y-25.
X38.5Y-26.5
X38.5Y-28.
X38.5Y-29.5
X40.Y-19.
X40.Y-20.5
X40.Y-22.
X40.Y-23.5
X40.Y-25.
X40.Y-26.5
X40.Y-28.
X40.Y-29.5
X41.5Y-25.
X41.5Y-26.5
X41.5Y-28.
X49.Y-22.
X49.Y-23.5
X49.Y-25.
X49.Y-26.5
X49.Y-28.
X49.Y-29.5
X50.5Y-22.
X50.5Y-23.5
X50.5Y-25.
X50.5Y-26.5
X50.5Y-28.
X50.5Y-29.5
X52.Y-19.
X52.Y-20.5
X52.Y-22.
X52.Y-23.5
X52.Y-25.
X52.Y-26.5
X52.Y-28.
T5
X64.19Y-59.46
X64.19Y-62.
X64.19Y-64.54
X71.81Y-59.46
X71.81Y-62.
X71.81Y-64.54
T6
X16.5Y-50.
X16.5Y-52.5
X63.Y-9.
X65.5Y-9.
T7
X9.Y-48.
X9.Y-50.5
X9.Y-53.
X9.Y-55.5
X9.Y-60.5
X9.Y-63.
X9.Y-65.5
X9.Y-68.
X15.Y-72.
X17.5Y-72.
X20.Y-72.
X22.5Y-72.
X27.5Y-72.
X30.Y-72.
X32.5Y-72.
X35.Y-72.
X40.Y-72.
X42.5Y-72.
X45.Y-72.
X47.5Y-72.
X52.5Y-72.
X55.Y-72.
X57.5Y-72.
X60.Y-72.
X70.Y-23.
X70.Y-25.5
T8
X1.5Y-72.5
X4.04Y-72.5
X23.Y-50.88
X23.Y-53.42
X23.Y-55.96
X23.Y-58.5
T9
X4.Y-33.5
X9.Y-33.5
T11
X2.5Y-51.75
X2.5Y-64.25
X3.Y-3.
X3.Y-78.
X18.75Y-78.5
X31.25Y-78.5
X43.75Y-78.5
X56.25Y-78.5
X70.Y-3.
X70.Y-78.
T10
X5.45Y-14.4G85X2.75Y-14.4
G05
X5.65Y-23.4G85X2.55Y-23.4
G05
X9.8Y-12.65G85X9.8Y-15.35
G05
X11.3Y-20.95G85X11.3Y-24.05
G05
X17.7Y-22.55G85X17.7Y-19.45
G05
X23.35Y-20.1G85X26.45Y-20.1
G05
X41.7Y-22.55G85X41.7Y-19.45
G05
X47.35Y-20.1G85X50.45Y-20.1
G05
T0
M30
