G04 #@! TF.FileFunction,Profile,NP*
%FSLAX46Y46*%
G04 Gerber Fmt 4.6, Leading zero omitted, Abs format (unit mm)*
G04 Created by KiCad (PCBNEW 4.0.5) date 02/09/17 17:45:46*
%MOMM*%
%LPD*%
G01*
G04 APERTURE LIST*
%ADD10C,0.100000*%
%ADD11C,0.150000*%
G04 APERTURE END LIST*
D10*
D11*
X71500000Y-42000000D02*
X76000000Y-42000000D01*
X76000000Y-6000000D02*
X76000000Y-42000000D01*
X71500000Y-42000000D02*
G75*
G03X70500000Y-43000000I0J-1000000D01*
G01*
X70500000Y-62000000D02*
X70500000Y-43000000D01*
X73000000Y-6000000D02*
X76000000Y-6000000D01*
X70000000Y-3000000D02*
G75*
G03X73000000Y-6000000I3000000J0D01*
G01*
X70000000Y-3000000D02*
X70000000Y0D01*
X14000000Y-33000000D02*
X14000000Y0D01*
X11000000Y-45000000D02*
X11000000Y-75000000D01*
X3000000Y-42000000D02*
X8000000Y-42000000D01*
X11000000Y-36000000D02*
X3000000Y-36000000D01*
X11000000Y-45000000D02*
G75*
G03X8000000Y-42000000I-3000000J0D01*
G01*
X11000000Y-36000000D02*
G75*
G03X14000000Y-33000000I0J3000000D01*
G01*
X70000000Y-72000000D02*
X70000000Y-75000000D01*
X71500000Y-63000000D02*
X73000000Y-63000000D01*
X70500000Y-62000000D02*
G75*
G03X71500000Y-63000000I1000000J0D01*
G01*
X73000000Y-69000000D02*
G75*
G03X70000000Y-72000000I0J-3000000D01*
G01*
X70000000Y0D02*
X50500000Y0D01*
X73000000Y-69000000D02*
G75*
G03X76000000Y-66000000I0J3000000D01*
G01*
X76000000Y-66000000D02*
G75*
G03X73000000Y-63000000I-3000000J0D01*
G01*
X3000000Y-36000000D02*
G75*
G03X0Y-39000000I0J-3000000D01*
G01*
X0Y-39000000D02*
G75*
G03X3000000Y-42000000I3000000J0D01*
G01*
X14000000Y0D02*
X37500000Y0D01*
X37500000Y-5000000D02*
X37500000Y0D01*
X50500000Y0D02*
X50500000Y-5000000D01*
X37500000Y-5000000D02*
G75*
G03X44000000Y-11500000I6500000J0D01*
G01*
X44000000Y-11500000D02*
G75*
G03X50500000Y-5000000I0J6500000D01*
G01*
X11000000Y-75000000D02*
X70000000Y-75000000D01*
M02*
