M48
;DRILL file {KiCad 4.0.2-stable} date 2016/08/05 13:27:35
;FORMAT={-:-/ absolute / metric / decimal}
FMAT,2
METRIC,TZ
T1C0.800
T2C0.813
T3C1.000
T4C1.016
%
G90
G05
M71
T1
X145.796Y-60.452
X145.796Y-62.992
X145.796Y-65.532
X145.796Y-68.072
X145.796Y-70.612
X145.796Y-73.152
X145.796Y-75.692
X145.796Y-78.232
X145.796Y-80.772
X145.796Y-83.312
X145.796Y-85.852
X145.796Y-88.392
X145.796Y-90.932
X145.796Y-93.472
X145.796Y-96.012
X145.796Y-98.552
X148.336Y-62.992
X148.336Y-72.644
X148.336Y-74.676
X150.876Y-77.216
X161.036Y-60.452
X161.036Y-62.992
X161.036Y-65.532
X161.036Y-68.072
X161.036Y-70.612
X161.036Y-73.152
X161.036Y-75.692
X161.036Y-78.232
X161.036Y-80.772
X161.036Y-83.312
X161.036Y-85.852
X161.036Y-88.392
X161.036Y-90.932
X161.036Y-93.472
X161.036Y-96.012
X161.036Y-98.552
T2
X141.732Y-60.452
X141.732Y-65.532
T3
X133.16Y-61.976
X133.16Y-67.976
X137.16Y-61.976
X137.16Y-67.976
T4
X139.7Y-93.472
X139.7Y-96.012
X142.748Y-73.152
X142.748Y-75.692
X142.748Y-78.232
X142.748Y-80.772
X142.748Y-83.312
X142.748Y-85.852
X142.748Y-88.392
X142.748Y-90.932
X142.748Y-93.472
X142.748Y-96.012
X158.496Y-102.616
X161.036Y-102.616
X164.084Y-65.532
X164.084Y-68.072
X164.084Y-70.612
X164.084Y-73.152
X164.084Y-75.692
X164.084Y-78.232
X164.084Y-85.852
X164.084Y-88.392
X164.084Y-90.932
X164.084Y-93.472
X164.084Y-96.012
X167.132Y-75.692
X167.132Y-78.232
X167.132Y-80.772
X167.132Y-83.312
T0
M30
