G04 #@! TF.FileFunction,Legend,Top*
%FSLAX46Y46*%
G04 Gerber Fmt 4.6, Leading zero omitted, Abs format (unit mm)*
G04 Created by KiCad (PCBNEW 4.0.5) date 02/08/17 19:58:37*
%MOMM*%
%LPD*%
G01*
G04 APERTURE LIST*
%ADD10C,0.100000*%
%ADD11C,0.200000*%
%ADD12C,0.300000*%
%ADD13C,0.150000*%
%ADD14C,0.304800*%
%ADD15C,0.101600*%
G04 APERTURE END LIST*
D10*
D11*
X1000000Y-39000000D02*
X5000000Y-39000000D01*
D12*
X61207143Y-63914286D02*
X61607143Y-63914286D01*
X61778572Y-64542857D02*
X61207143Y-64542857D01*
X61207143Y-63342857D01*
X61778572Y-63342857D01*
X62292857Y-64542857D02*
X62292857Y-63342857D01*
X62978572Y-64542857D01*
X62978572Y-63342857D01*
X64235715Y-64428571D02*
X64178572Y-64485714D01*
X64007143Y-64542857D01*
X63892857Y-64542857D01*
X63721429Y-64485714D01*
X63607143Y-64371429D01*
X63550000Y-64257143D01*
X63492857Y-64028571D01*
X63492857Y-63857143D01*
X63550000Y-63628571D01*
X63607143Y-63514286D01*
X63721429Y-63400000D01*
X63892857Y-63342857D01*
X64007143Y-63342857D01*
X64178572Y-63400000D01*
X64235715Y-63457143D01*
X64464286Y-64657143D02*
X65378572Y-64657143D01*
X66064286Y-63914286D02*
X66235715Y-63971429D01*
X66292858Y-64028571D01*
X66350001Y-64142857D01*
X66350001Y-64314286D01*
X66292858Y-64428571D01*
X66235715Y-64485714D01*
X66121429Y-64542857D01*
X65664286Y-64542857D01*
X65664286Y-63342857D01*
X66064286Y-63342857D01*
X66178572Y-63400000D01*
X66235715Y-63457143D01*
X66292858Y-63571429D01*
X66292858Y-63685714D01*
X66235715Y-63800000D01*
X66178572Y-63857143D01*
X66064286Y-63914286D01*
X65664286Y-63914286D01*
X48792857Y-63914286D02*
X49192857Y-63914286D01*
X49364286Y-64542857D02*
X48792857Y-64542857D01*
X48792857Y-63342857D01*
X49364286Y-63342857D01*
X49878571Y-64542857D02*
X49878571Y-63342857D01*
X50564286Y-64542857D01*
X50564286Y-63342857D01*
X51821429Y-64428571D02*
X51764286Y-64485714D01*
X51592857Y-64542857D01*
X51478571Y-64542857D01*
X51307143Y-64485714D01*
X51192857Y-64371429D01*
X51135714Y-64257143D01*
X51078571Y-64028571D01*
X51078571Y-63857143D01*
X51135714Y-63628571D01*
X51192857Y-63514286D01*
X51307143Y-63400000D01*
X51478571Y-63342857D01*
X51592857Y-63342857D01*
X51764286Y-63400000D01*
X51821429Y-63457143D01*
X52050000Y-64657143D02*
X52964286Y-64657143D01*
X53192857Y-64200000D02*
X53764286Y-64200000D01*
X53078572Y-64542857D02*
X53478572Y-63342857D01*
X53878572Y-64542857D01*
X25928571Y-63521428D02*
X25985714Y-63578571D01*
X26042857Y-63750000D01*
X26042857Y-63864286D01*
X25985714Y-64035714D01*
X25871429Y-64150000D01*
X25757143Y-64207143D01*
X25528571Y-64264286D01*
X25357143Y-64264286D01*
X25128571Y-64207143D01*
X25014286Y-64150000D01*
X24900000Y-64035714D01*
X24842857Y-63864286D01*
X24842857Y-63750000D01*
X24900000Y-63578571D01*
X24957143Y-63521428D01*
X25700000Y-63064286D02*
X25700000Y-62492857D01*
X26042857Y-63178571D02*
X24842857Y-62778571D01*
X26042857Y-62378571D01*
X26042857Y-61978572D02*
X24842857Y-61978572D01*
X26042857Y-61292857D01*
X24842857Y-61292857D01*
X10042857Y-67657142D02*
X9471429Y-68057142D01*
X10042857Y-68342857D02*
X8842857Y-68342857D01*
X8842857Y-67885714D01*
X8900000Y-67771428D01*
X8957143Y-67714285D01*
X9071429Y-67657142D01*
X9242857Y-67657142D01*
X9357143Y-67714285D01*
X9414286Y-67771428D01*
X9471429Y-67885714D01*
X9471429Y-68342857D01*
X9985714Y-67200000D02*
X10042857Y-67028571D01*
X10042857Y-66742857D01*
X9985714Y-66628571D01*
X9928571Y-66571428D01*
X9814286Y-66514285D01*
X9700000Y-66514285D01*
X9585714Y-66571428D01*
X9528571Y-66628571D01*
X9471429Y-66742857D01*
X9414286Y-66971428D01*
X9357143Y-67085714D01*
X9300000Y-67142857D01*
X9185714Y-67200000D01*
X9071429Y-67200000D01*
X8957143Y-67142857D01*
X8900000Y-67085714D01*
X8842857Y-66971428D01*
X8842857Y-66685714D01*
X8900000Y-66514285D01*
X8842857Y-66171428D02*
X8842857Y-65485714D01*
X10042857Y-65828571D02*
X8842857Y-65828571D01*
X14228572Y-48092857D02*
X14971429Y-48092857D01*
X14571429Y-48550000D01*
X14742857Y-48550000D01*
X14857143Y-48607143D01*
X14914286Y-48664286D01*
X14971429Y-48778571D01*
X14971429Y-49064286D01*
X14914286Y-49178571D01*
X14857143Y-49235714D01*
X14742857Y-49292857D01*
X14400000Y-49292857D01*
X14285714Y-49235714D01*
X14228572Y-49178571D01*
X15485714Y-49178571D02*
X15542857Y-49235714D01*
X15485714Y-49292857D01*
X15428571Y-49235714D01*
X15485714Y-49178571D01*
X15485714Y-49292857D01*
X15942858Y-48092857D02*
X16685715Y-48092857D01*
X16285715Y-48550000D01*
X16457143Y-48550000D01*
X16571429Y-48607143D01*
X16628572Y-48664286D01*
X16685715Y-48778571D01*
X16685715Y-49064286D01*
X16628572Y-49178571D01*
X16571429Y-49235714D01*
X16457143Y-49292857D01*
X16114286Y-49292857D01*
X16000000Y-49235714D01*
X15942858Y-49178571D01*
X17028572Y-48092857D02*
X17428572Y-49292857D01*
X17828572Y-48092857D01*
X14085714Y-46914286D02*
X14257143Y-46971429D01*
X14314286Y-47028571D01*
X14371429Y-47142857D01*
X14371429Y-47314286D01*
X14314286Y-47428571D01*
X14257143Y-47485714D01*
X14142857Y-47542857D01*
X13685714Y-47542857D01*
X13685714Y-46342857D01*
X14085714Y-46342857D01*
X14200000Y-46400000D01*
X14257143Y-46457143D01*
X14314286Y-46571429D01*
X14314286Y-46685714D01*
X14257143Y-46800000D01*
X14200000Y-46857143D01*
X14085714Y-46914286D01*
X13685714Y-46914286D01*
X13714286Y-45200000D02*
X14285715Y-45200000D01*
X13600001Y-45542857D02*
X14000001Y-44342857D01*
X14400001Y-45542857D01*
X10235714Y-50600000D02*
X10292857Y-50428571D01*
X10292857Y-50142857D01*
X10235714Y-50028571D01*
X10178571Y-49971428D01*
X10064286Y-49914285D01*
X9950000Y-49914285D01*
X9835714Y-49971428D01*
X9778571Y-50028571D01*
X9721429Y-50142857D01*
X9664286Y-50371428D01*
X9607143Y-50485714D01*
X9550000Y-50542857D01*
X9435714Y-50600000D01*
X9321429Y-50600000D01*
X9207143Y-50542857D01*
X9150000Y-50485714D01*
X9092857Y-50371428D01*
X9092857Y-50085714D01*
X9150000Y-49914285D01*
X9092857Y-49514285D02*
X10292857Y-49228571D01*
X9435714Y-49000000D01*
X10292857Y-48771428D01*
X9092857Y-48485714D01*
X9207143Y-48085714D02*
X9150000Y-48028571D01*
X9092857Y-47914285D01*
X9092857Y-47628571D01*
X9150000Y-47514285D01*
X9207143Y-47457142D01*
X9321429Y-47399999D01*
X9435714Y-47399999D01*
X9607143Y-47457142D01*
X10292857Y-48142856D01*
X10292857Y-47399999D01*
X10235714Y-46350000D02*
X10292857Y-46178571D01*
X10292857Y-45892857D01*
X10235714Y-45778571D01*
X10178571Y-45721428D01*
X10064286Y-45664285D01*
X9950000Y-45664285D01*
X9835714Y-45721428D01*
X9778571Y-45778571D01*
X9721429Y-45892857D01*
X9664286Y-46121428D01*
X9607143Y-46235714D01*
X9550000Y-46292857D01*
X9435714Y-46350000D01*
X9321429Y-46350000D01*
X9207143Y-46292857D01*
X9150000Y-46235714D01*
X9092857Y-46121428D01*
X9092857Y-45835714D01*
X9150000Y-45664285D01*
X9092857Y-45264285D02*
X10292857Y-44978571D01*
X9435714Y-44750000D01*
X10292857Y-44521428D01*
X9092857Y-44235714D01*
X10292857Y-43149999D02*
X10292857Y-43835714D01*
X10292857Y-43492856D02*
X9092857Y-43492856D01*
X9264286Y-43607142D01*
X9378571Y-43721428D01*
X9435714Y-43835714D01*
X10957142Y-53735714D02*
X11128571Y-53792857D01*
X11414285Y-53792857D01*
X11528571Y-53735714D01*
X11585714Y-53678571D01*
X11642857Y-53564286D01*
X11642857Y-53450000D01*
X11585714Y-53335714D01*
X11528571Y-53278571D01*
X11414285Y-53221429D01*
X11185714Y-53164286D01*
X11071428Y-53107143D01*
X11014285Y-53050000D01*
X10957142Y-52935714D01*
X10957142Y-52821429D01*
X11014285Y-52707143D01*
X11071428Y-52650000D01*
X11185714Y-52592857D01*
X11471428Y-52592857D01*
X11642857Y-52650000D01*
X11985714Y-52592857D02*
X12671428Y-52592857D01*
X12328571Y-53792857D02*
X12328571Y-52592857D01*
X13071428Y-53335714D02*
X13985714Y-53335714D01*
X15128571Y-53792857D02*
X14557142Y-53792857D01*
X14557142Y-52592857D01*
X15528571Y-53792857D02*
X15528571Y-52592857D01*
X16100000Y-53792857D02*
X16100000Y-52592857D01*
X16785715Y-53792857D01*
X16785715Y-52592857D01*
X17357143Y-53792857D02*
X17357143Y-52592857D01*
X18042858Y-53792857D02*
X17528572Y-53107143D01*
X18042858Y-52592857D02*
X17357143Y-53278571D01*
X11950000Y-62042857D02*
X11950000Y-61471428D01*
X12292857Y-62157142D02*
X11092857Y-61757142D01*
X12292857Y-61357142D01*
X12292857Y-60957143D02*
X11092857Y-60957143D01*
X11092857Y-60671428D01*
X11150000Y-60500000D01*
X11264286Y-60385714D01*
X11378571Y-60328571D01*
X11607143Y-60271428D01*
X11778571Y-60271428D01*
X12007143Y-60328571D01*
X12121429Y-60385714D01*
X12235714Y-60500000D01*
X12292857Y-60671428D01*
X12292857Y-60957143D01*
X12292857Y-59757143D02*
X11092857Y-59757143D01*
X11092857Y-59471428D01*
X11150000Y-59300000D01*
X11264286Y-59185714D01*
X11378571Y-59128571D01*
X11607143Y-59071428D01*
X11778571Y-59071428D01*
X12007143Y-59128571D01*
X12121429Y-59185714D01*
X12235714Y-59300000D01*
X12292857Y-59471428D01*
X12292857Y-59757143D01*
X12407143Y-58842857D02*
X12407143Y-57928571D01*
X12235714Y-57700000D02*
X12292857Y-57528571D01*
X12292857Y-57242857D01*
X12235714Y-57128571D01*
X12178571Y-57071428D01*
X12064286Y-57014285D01*
X11950000Y-57014285D01*
X11835714Y-57071428D01*
X11778571Y-57128571D01*
X11721429Y-57242857D01*
X11664286Y-57471428D01*
X11607143Y-57585714D01*
X11550000Y-57642857D01*
X11435714Y-57700000D01*
X11321429Y-57700000D01*
X11207143Y-57642857D01*
X11150000Y-57585714D01*
X11092857Y-57471428D01*
X11092857Y-57185714D01*
X11150000Y-57014285D01*
X11664286Y-56500000D02*
X11664286Y-56100000D01*
X12292857Y-55928571D02*
X12292857Y-56500000D01*
X11092857Y-56500000D01*
X11092857Y-55928571D01*
X12292857Y-54842857D02*
X12292857Y-55414286D01*
X11092857Y-55414286D01*
X40664286Y-49928571D02*
X40607143Y-49985714D01*
X40435714Y-50042857D01*
X40321428Y-50042857D01*
X40150000Y-49985714D01*
X40035714Y-49871429D01*
X39978571Y-49757143D01*
X39921428Y-49528571D01*
X39921428Y-49357143D01*
X39978571Y-49128571D01*
X40035714Y-49014286D01*
X40150000Y-48900000D01*
X40321428Y-48842857D01*
X40435714Y-48842857D01*
X40607143Y-48900000D01*
X40664286Y-48957143D01*
X41178571Y-48842857D02*
X41178571Y-49814286D01*
X41235714Y-49928571D01*
X41292857Y-49985714D01*
X41407143Y-50042857D01*
X41635714Y-50042857D01*
X41750000Y-49985714D01*
X41807143Y-49928571D01*
X41864286Y-49814286D01*
X41864286Y-48842857D01*
X43121429Y-50042857D02*
X42721429Y-49471429D01*
X42435714Y-50042857D02*
X42435714Y-48842857D01*
X42892857Y-48842857D01*
X43007143Y-48900000D01*
X43064286Y-48957143D01*
X43121429Y-49071429D01*
X43121429Y-49242857D01*
X43064286Y-49357143D01*
X43007143Y-49414286D01*
X42892857Y-49471429D01*
X42435714Y-49471429D01*
X44321429Y-50042857D02*
X43921429Y-49471429D01*
X43635714Y-50042857D02*
X43635714Y-48842857D01*
X44092857Y-48842857D01*
X44207143Y-48900000D01*
X44264286Y-48957143D01*
X44321429Y-49071429D01*
X44321429Y-49242857D01*
X44264286Y-49357143D01*
X44207143Y-49414286D01*
X44092857Y-49471429D01*
X43635714Y-49471429D01*
X44835714Y-49414286D02*
X45235714Y-49414286D01*
X45407143Y-50042857D02*
X44835714Y-50042857D01*
X44835714Y-48842857D01*
X45407143Y-48842857D01*
X45921428Y-50042857D02*
X45921428Y-48842857D01*
X46607143Y-50042857D01*
X46607143Y-48842857D01*
X47007143Y-48842857D02*
X47692857Y-48842857D01*
X47350000Y-50042857D02*
X47350000Y-48842857D01*
X49662968Y-56245183D02*
X50609379Y-57084413D01*
X50355789Y-55845183D01*
X51081282Y-56416063D02*
X51576154Y-56130348D01*
X51153737Y-56770128D02*
X50900147Y-55530897D01*
X51846557Y-56370128D01*
X52687839Y-55884414D02*
X52192967Y-56170128D01*
X51592967Y-55130898D01*
X52285788Y-54730897D02*
X53232198Y-55570128D01*
X52978608Y-54330897D01*
X53610732Y-54625770D02*
X53957142Y-54425770D01*
X54419890Y-54884414D02*
X53925017Y-55170128D01*
X53325017Y-54130898D01*
X53819890Y-53845183D01*
X54674981Y-54869103D02*
X55466776Y-54411960D01*
X55255017Y-53016612D02*
X55452966Y-52902326D01*
X55580512Y-52894671D01*
X55736629Y-52936502D01*
X55900401Y-53105880D01*
X56100401Y-53452290D01*
X56165201Y-53678810D01*
X56123369Y-53834927D01*
X56052966Y-53941557D01*
X55855017Y-54055842D01*
X55727471Y-54063498D01*
X55571354Y-54021667D01*
X55407581Y-53852290D01*
X55207581Y-53505880D01*
X55142783Y-53279360D01*
X55184614Y-53123242D01*
X55255017Y-53016612D01*
X56145786Y-52502326D02*
X56631501Y-53343609D01*
X56738130Y-53414011D01*
X56816189Y-53434927D01*
X56943735Y-53427271D01*
X57141684Y-53312985D01*
X57212087Y-53206355D01*
X57233002Y-53128296D01*
X57225347Y-53000751D01*
X56739633Y-52159469D01*
X57086043Y-51959469D02*
X57679889Y-51616612D01*
X57982966Y-52827271D02*
X57382966Y-51788040D01*
X62850001Y-54342857D02*
X63650001Y-54342857D01*
X63135715Y-55542857D01*
X63478572Y-52842857D02*
X63250001Y-52842857D01*
X63135715Y-52900000D01*
X63078572Y-52957143D01*
X62964286Y-53128571D01*
X62907143Y-53357143D01*
X62907143Y-53814286D01*
X62964286Y-53928571D01*
X63021429Y-53985714D01*
X63135715Y-54042857D01*
X63364286Y-54042857D01*
X63478572Y-53985714D01*
X63535715Y-53928571D01*
X63592858Y-53814286D01*
X63592858Y-53528571D01*
X63535715Y-53414286D01*
X63478572Y-53357143D01*
X63364286Y-53300000D01*
X63135715Y-53300000D01*
X63021429Y-53357143D01*
X62964286Y-53414286D01*
X62907143Y-53528571D01*
X63535715Y-51342857D02*
X62964286Y-51342857D01*
X62907143Y-51914286D01*
X62964286Y-51857143D01*
X63078572Y-51800000D01*
X63364286Y-51800000D01*
X63478572Y-51857143D01*
X63535715Y-51914286D01*
X63592858Y-52028571D01*
X63592858Y-52314286D01*
X63535715Y-52428571D01*
X63478572Y-52485714D01*
X63364286Y-52542857D01*
X63078572Y-52542857D01*
X62964286Y-52485714D01*
X62907143Y-52428571D01*
X63478572Y-50242857D02*
X63478572Y-51042857D01*
X63192858Y-49785714D02*
X62907143Y-50642857D01*
X63650001Y-50642857D01*
X62850001Y-47592857D02*
X63592858Y-47592857D01*
X63192858Y-48050000D01*
X63364286Y-48050000D01*
X63478572Y-48107143D01*
X63535715Y-48164286D01*
X63592858Y-48278571D01*
X63592858Y-48564286D01*
X63535715Y-48678571D01*
X63478572Y-48735714D01*
X63364286Y-48792857D01*
X63021429Y-48792857D01*
X62907143Y-48735714D01*
X62850001Y-48678571D01*
X62907143Y-46207143D02*
X62964286Y-46150000D01*
X63078572Y-46092857D01*
X63364286Y-46092857D01*
X63478572Y-46150000D01*
X63535715Y-46207143D01*
X63592858Y-46321429D01*
X63592858Y-46435714D01*
X63535715Y-46607143D01*
X62850001Y-47292857D01*
X63592858Y-47292857D01*
X63592858Y-45792857D02*
X62907143Y-45792857D01*
X63250001Y-45792857D02*
X63250001Y-44592857D01*
X63135715Y-44764286D01*
X63021429Y-44878571D01*
X62907143Y-44935714D01*
X63192858Y-43092857D02*
X63307143Y-43092857D01*
X63421429Y-43150000D01*
X63478572Y-43207143D01*
X63535715Y-43321429D01*
X63592858Y-43550000D01*
X63592858Y-43835714D01*
X63535715Y-44064286D01*
X63478572Y-44178571D01*
X63421429Y-44235714D01*
X63307143Y-44292857D01*
X63192858Y-44292857D01*
X63078572Y-44235714D01*
X63021429Y-44178571D01*
X62964286Y-44064286D01*
X62907143Y-43835714D01*
X62907143Y-43550000D01*
X62964286Y-43321429D01*
X63021429Y-43207143D01*
X63078572Y-43150000D01*
X63192858Y-43092857D01*
D11*
X75000000Y-66000000D02*
X71000000Y-66000000D01*
X73000000Y-64000000D02*
X73000000Y-68000000D01*
X3000000Y-37000000D02*
X3000000Y-41000000D01*
X54500000Y-50500000D02*
X58500000Y-50500000D01*
X29000000Y-50000000D02*
X33000000Y-50000000D01*
X65000000Y-14500000D02*
X65000000Y-42500000D01*
X53000000Y-15000000D02*
X53000000Y-42500000D01*
X6000000Y-72000000D02*
G75*
G03X6000000Y-72000000I-3000000J0D01*
G01*
X76000000Y-72000000D02*
G75*
G03X76000000Y-72000000I-3000000J0D01*
G01*
X76000000Y-3000000D02*
G75*
G03X76000000Y-3000000I-3000000J0D01*
G01*
D10*
X20500000Y-19700000D02*
X26300000Y-19700000D01*
X32000000Y-20400000D02*
X27000000Y-20400000D01*
X32100000Y-27600000D02*
X27000000Y-27600000D01*
X20500000Y-28300000D02*
X26300000Y-28300000D01*
X20500000Y-27800000D02*
X26000000Y-27800000D01*
X19500000Y-21200000D02*
X19500000Y-26800000D01*
X26000000Y-20200000D02*
X20500000Y-20200000D01*
X32000000Y-20900000D02*
X26700000Y-20900000D01*
X32000000Y-27100000D02*
X26700000Y-27100000D01*
X33000000Y-21900000D02*
X33000000Y-26100000D01*
X33000000Y-21900000D02*
G75*
G03X32000000Y-20900000I-1000000J0D01*
G01*
X32000000Y-27100000D02*
G75*
G03X33000000Y-26100000I0J1000000D01*
G01*
X20500000Y-20200000D02*
G75*
G03X19500000Y-21200000I0J-1000000D01*
G01*
X19500000Y-26800000D02*
G75*
G03X20500000Y-27800000I1000000J0D01*
G01*
X26300000Y-28300000D02*
X27000000Y-27600000D01*
X26300000Y-19700000D02*
X27000000Y-20400000D01*
X26000000Y-20200000D02*
X26700000Y-20900000D01*
X26000000Y-27800000D02*
X26700000Y-27100000D01*
D13*
X37750000Y-4925000D02*
X50250000Y-4925000D01*
X37754000Y-4785000D02*
X50246000Y-4785000D01*
X37760000Y-4645000D02*
X50240000Y-4645000D01*
X37770000Y-4505000D02*
X50230000Y-4505000D01*
X37782000Y-4365000D02*
X50218000Y-4365000D01*
X37798000Y-4225000D02*
X50202000Y-4225000D01*
X37817000Y-4085000D02*
X50183000Y-4085000D01*
X37840000Y-3945000D02*
X50160000Y-3945000D01*
X37865000Y-3805000D02*
X50135000Y-3805000D01*
X37894000Y-3665000D02*
X50106000Y-3665000D01*
X37927000Y-3525000D02*
X43479000Y-3525000D01*
X44521000Y-3525000D02*
X50073000Y-3525000D01*
X37962000Y-3385000D02*
X43266000Y-3385000D01*
X44734000Y-3385000D02*
X50038000Y-3385000D01*
X38001000Y-3245000D02*
X43124000Y-3245000D01*
X44876000Y-3245000D02*
X49999000Y-3245000D01*
X38044000Y-3105000D02*
X43022000Y-3105000D01*
X44978000Y-3105000D02*
X49956000Y-3105000D01*
X38091000Y-2965000D02*
X42948000Y-2965000D01*
X45052000Y-2965000D02*
X49909000Y-2965000D01*
X38141000Y-2825000D02*
X42897000Y-2825000D01*
X45103000Y-2825000D02*
X49859000Y-2825000D01*
X38195000Y-2685000D02*
X42865000Y-2685000D01*
X45135000Y-2685000D02*
X49805000Y-2685000D01*
X38252000Y-2545000D02*
X42851000Y-2545000D01*
X45149000Y-2545000D02*
X49748000Y-2545000D01*
X38314000Y-2405000D02*
X42854000Y-2405000D01*
X45146000Y-2405000D02*
X49686000Y-2405000D01*
X38380000Y-2265000D02*
X42874000Y-2265000D01*
X45126000Y-2265000D02*
X49620000Y-2265000D01*
X38451000Y-2125000D02*
X42913000Y-2125000D01*
X45087000Y-2125000D02*
X49549000Y-2125000D01*
X38525000Y-1985000D02*
X42972000Y-1985000D01*
X45028000Y-1985000D02*
X49475000Y-1985000D01*
X38605000Y-1845000D02*
X43055000Y-1845000D01*
X44945000Y-1845000D02*
X49395000Y-1845000D01*
X38689000Y-1705000D02*
X43169000Y-1705000D01*
X44831000Y-1705000D02*
X49311000Y-1705000D01*
X38779000Y-1565000D02*
X43330000Y-1565000D01*
X44670000Y-1565000D02*
X49221000Y-1565000D01*
X38873000Y-1425000D02*
X43591000Y-1425000D01*
X44409000Y-1425000D02*
X49127000Y-1425000D01*
X38974000Y-1285000D02*
X49026000Y-1285000D01*
X39081000Y-1145000D02*
X48919000Y-1145000D01*
X39193000Y-1005000D02*
X48807000Y-1005000D01*
X39313000Y-865000D02*
X48687000Y-865000D01*
X39441000Y-725000D02*
X48559000Y-725000D01*
X39576000Y-585000D02*
X48424000Y-585000D01*
X39720000Y-445000D02*
X48280000Y-445000D01*
X39875000Y-305000D02*
X48125000Y-305000D01*
X40040000Y-165000D02*
X47960000Y-165000D01*
X40217000Y-25000D02*
X47783000Y-25000D01*
X40408000Y115000D02*
X47592000Y115000D01*
X40617000Y255000D02*
X47383000Y255000D01*
X40845000Y395000D02*
X47155000Y395000D01*
X41097000Y535000D02*
X46903000Y535000D01*
X41381000Y675000D02*
X46619000Y675000D01*
X41709000Y815000D02*
X46291000Y815000D01*
X42103000Y955000D02*
X45897000Y955000D01*
X42617000Y1095000D02*
X45383000Y1095000D01*
X43567000Y1235000D02*
X44433000Y1235000D01*
X45150000Y-2500000D02*
G75*
G03X45150000Y-2500000I-1150000J0D01*
G01*
X50287500Y-5000000D02*
G75*
G03X50287500Y-5000000I-6287500J0D01*
G01*
X22873476Y-52000000D02*
X23244707Y-52371231D01*
X28000000Y-46873476D02*
X28371231Y-47244707D01*
X33126524Y-52000000D02*
X32755293Y-51628769D01*
X28000000Y-57126524D02*
X27628769Y-56755293D01*
X22873476Y-52000000D02*
X23244707Y-51628769D01*
X28000000Y-57126524D02*
X28371231Y-56755293D01*
X33126524Y-52000000D02*
X32755293Y-52371231D01*
X28000000Y-46873476D02*
X27628769Y-47244707D01*
X23244707Y-52371231D02*
X22272435Y-53343503D01*
X38825000Y-63351000D02*
X38825000Y-69649000D01*
X38965000Y-63357000D02*
X38965000Y-69643000D01*
X39105000Y-63370000D02*
X39105000Y-66054000D01*
X39105000Y-66946000D02*
X39105000Y-69630000D01*
X39245000Y-63389000D02*
X39245000Y-65844000D01*
X39245000Y-67156000D02*
X39245000Y-69611000D01*
X39385000Y-63415000D02*
X39385000Y-65711000D01*
X39385000Y-67289000D02*
X39385000Y-69585000D01*
X39525000Y-63447000D02*
X39525000Y-65620000D01*
X39525000Y-67380000D02*
X39525000Y-69553000D01*
X39665000Y-63486000D02*
X39665000Y-65558000D01*
X39665000Y-67442000D02*
X39665000Y-69514000D01*
X39805000Y-63532000D02*
X39805000Y-65519000D01*
X39805000Y-67481000D02*
X39805000Y-69468000D01*
X39945000Y-63585000D02*
X39945000Y-65502000D01*
X39945000Y-67498000D02*
X39945000Y-69415000D01*
X40085000Y-63647000D02*
X40085000Y-65504000D01*
X40085000Y-67496000D02*
X40085000Y-69353000D01*
X40225000Y-63717000D02*
X40225000Y-65526000D01*
X40225000Y-67474000D02*
X40225000Y-69283000D01*
X40365000Y-63796000D02*
X40365000Y-65569000D01*
X40365000Y-67431000D02*
X40365000Y-69204000D01*
X40505000Y-63884000D02*
X40505000Y-65637000D01*
X40505000Y-67363000D02*
X40505000Y-69116000D01*
X40645000Y-63984000D02*
X40645000Y-65736000D01*
X40645000Y-67264000D02*
X40645000Y-69016000D01*
X40785000Y-64096000D02*
X40785000Y-65881000D01*
X40785000Y-67119000D02*
X40785000Y-68904000D01*
X40925000Y-64221000D02*
X40925000Y-66120000D01*
X40925000Y-66880000D02*
X40925000Y-68779000D01*
X41065000Y-64364000D02*
X41065000Y-68636000D01*
X41205000Y-64526000D02*
X41205000Y-68474000D01*
X41345000Y-64714000D02*
X41345000Y-68286000D01*
X41485000Y-64937000D02*
X41485000Y-68063000D01*
X41625000Y-65213000D02*
X41625000Y-67787000D01*
X41765000Y-65588000D02*
X41765000Y-67412000D01*
X41000000Y-66500000D02*
G75*
G03X41000000Y-66500000I-1000000J0D01*
G01*
X41937500Y-66500000D02*
G75*
G03X41937500Y-66500000I-3187500J0D01*
G01*
X7230000Y-71730000D02*
X7230000Y-69190000D01*
X6950000Y-74550000D02*
X6950000Y-73000000D01*
X7230000Y-71730000D02*
X9770000Y-71730000D01*
X10050000Y-73000000D02*
X10050000Y-74550000D01*
X10050000Y-74550000D02*
X6950000Y-74550000D01*
X9770000Y-71730000D02*
X9770000Y-69190000D01*
X9770000Y-69190000D02*
X7230000Y-69190000D01*
X46230000Y-53270000D02*
X38610000Y-53270000D01*
X46230000Y-50730000D02*
X38610000Y-50730000D01*
X49050000Y-50450000D02*
X47500000Y-50450000D01*
X38610000Y-53270000D02*
X38610000Y-50730000D01*
X46230000Y-50730000D02*
X46230000Y-53270000D01*
X47500000Y-53550000D02*
X49050000Y-53550000D01*
X49050000Y-53550000D02*
X49050000Y-50450000D01*
X54730000Y-56890000D02*
X69970000Y-56890000D01*
X67430000Y-61970000D02*
X54730000Y-61970000D01*
X54730000Y-56890000D02*
X54730000Y-61970000D01*
X69970000Y-56890000D02*
X69970000Y-59430000D01*
X68700000Y-62250000D02*
X70250000Y-62250000D01*
X69970000Y-59430000D02*
X67430000Y-59430000D01*
X67430000Y-59430000D02*
X67430000Y-61970000D01*
X70250000Y-62250000D02*
X70250000Y-60700000D01*
X46500000Y-14550000D02*
X48050000Y-14550000D01*
X48050000Y-14550000D02*
X48050000Y-11450000D01*
X48050000Y-11450000D02*
X46500000Y-11450000D01*
X45230000Y-14270000D02*
X40150000Y-14270000D01*
X40150000Y-14270000D02*
X40150000Y-11730000D01*
X40150000Y-11730000D02*
X45230000Y-11730000D01*
X45230000Y-11730000D02*
X45230000Y-14270000D01*
D12*
X3000000Y-67800000D02*
X6000000Y-67800000D01*
X6000000Y-67800000D02*
X6000000Y-66200000D01*
X6000000Y-66200000D02*
X3000000Y-66200000D01*
X3000000Y-66200000D02*
X3000000Y-67800000D01*
X1500000Y-68800000D02*
X7500000Y-68800000D01*
X7500000Y-68800000D02*
X7500000Y-65200000D01*
X7500000Y-65200000D02*
X1500000Y-65200000D01*
X1500000Y-65200000D02*
X1500000Y-68800000D01*
X3000000Y-45800000D02*
X6000000Y-45800000D01*
X6000000Y-45800000D02*
X6000000Y-44200000D01*
X6000000Y-44200000D02*
X3000000Y-44200000D01*
X3000000Y-44200000D02*
X3000000Y-45800000D01*
X1500000Y-46800000D02*
X7500000Y-46800000D01*
X7500000Y-46800000D02*
X7500000Y-43200000D01*
X7500000Y-43200000D02*
X1500000Y-43200000D01*
X1500000Y-43200000D02*
X1500000Y-46800000D01*
X3000000Y-49800000D02*
X6000000Y-49800000D01*
X6000000Y-49800000D02*
X6000000Y-48200000D01*
X6000000Y-48200000D02*
X3000000Y-48200000D01*
X3000000Y-48200000D02*
X3000000Y-49800000D01*
X1500000Y-50800000D02*
X7500000Y-50800000D01*
X7500000Y-50800000D02*
X7500000Y-47200000D01*
X7500000Y-47200000D02*
X1500000Y-47200000D01*
X1500000Y-47200000D02*
X1500000Y-50800000D01*
X0Y-51200000D02*
X10500000Y-51200000D01*
X10500000Y-51200000D02*
X10500000Y-54700000D01*
X10500000Y-54700000D02*
X0Y-54700000D01*
X0Y-54700000D02*
X0Y-51200000D01*
X7400000Y-60000000D02*
G75*
G03X7400000Y-60000000I-1900000J0D01*
G01*
X6100000Y-61800000D02*
X6100000Y-58300000D01*
X4900000Y-61800000D02*
X4900000Y-58200000D01*
X500000Y-65000000D02*
X500000Y-55000000D01*
X500000Y-55000000D02*
X10500000Y-55000000D01*
X10500000Y-55000000D02*
X10500000Y-65000000D01*
X10500000Y-65000000D02*
X500000Y-65000000D01*
X17100862Y-58363604D02*
X20636396Y-61899138D01*
X19363604Y-56100862D02*
X22899138Y-59636396D01*
X400000Y-600000D02*
X12600000Y-600000D01*
X400000Y-17900000D02*
X400000Y9000000D01*
X400000Y9000000D02*
X12600000Y9000000D01*
X12600000Y9000000D02*
X12600000Y-17900000D01*
X12600000Y-17900000D02*
X400000Y-17900000D01*
X23000000Y-75200000D02*
X10500000Y-75200000D01*
X23000000Y-62600000D02*
X23000000Y-75200000D01*
X22000000Y-66100000D02*
X22000000Y-62600000D01*
X22000000Y-62600000D02*
X23000000Y-62600000D01*
X10500000Y-66100000D02*
X23000000Y-66100000D01*
X18500000Y-68400000D02*
X18500000Y-73000000D01*
X18500000Y-68400000D02*
X23000000Y-68400000D01*
X15000000Y-73000000D02*
X15000000Y-68400000D01*
X15000000Y-68400000D02*
X10500000Y-68400000D01*
X10500000Y-73000000D02*
X23000000Y-73000000D01*
X10500000Y-62600000D02*
X10500000Y-75200000D01*
X10500000Y-62600000D02*
X11500000Y-62600000D01*
X11500000Y-62600000D02*
X11500000Y-66100000D01*
X35500000Y-75200000D02*
X23000000Y-75200000D01*
X35500000Y-62600000D02*
X35500000Y-75200000D01*
X34500000Y-66100000D02*
X34500000Y-62600000D01*
X34500000Y-62600000D02*
X35500000Y-62600000D01*
X23000000Y-66100000D02*
X35500000Y-66100000D01*
X31000000Y-68400000D02*
X31000000Y-73000000D01*
X31000000Y-68400000D02*
X35500000Y-68400000D01*
X27500000Y-73000000D02*
X27500000Y-68400000D01*
X27500000Y-68400000D02*
X23000000Y-68400000D01*
X23000000Y-73000000D02*
X35500000Y-73000000D01*
X23000000Y-62600000D02*
X23000000Y-75200000D01*
X23000000Y-62600000D02*
X24000000Y-62600000D01*
X24000000Y-62600000D02*
X24000000Y-66100000D01*
D10*
X56500000Y-19700000D02*
X62300000Y-19700000D01*
X68000000Y-20400000D02*
X63000000Y-20400000D01*
X68100000Y-27600000D02*
X63000000Y-27600000D01*
X56500000Y-28300000D02*
X62300000Y-28300000D01*
X56500000Y-27800000D02*
X62000000Y-27800000D01*
X55500000Y-21200000D02*
X55500000Y-26800000D01*
X62000000Y-20200000D02*
X56500000Y-20200000D01*
X68000000Y-20900000D02*
X62700000Y-20900000D01*
X68000000Y-27100000D02*
X62700000Y-27100000D01*
X69000000Y-21900000D02*
X69000000Y-26100000D01*
X69000000Y-21900000D02*
G75*
G03X68000000Y-20900000I-1000000J0D01*
G01*
X68000000Y-27100000D02*
G75*
G03X69000000Y-26100000I0J1000000D01*
G01*
X56500000Y-20200000D02*
G75*
G03X55500000Y-21200000I0J-1000000D01*
G01*
X55500000Y-26800000D02*
G75*
G03X56500000Y-27800000I1000000J0D01*
G01*
X62300000Y-28300000D02*
X63000000Y-27600000D01*
X62300000Y-19700000D02*
X63000000Y-20400000D01*
X62000000Y-20200000D02*
X62700000Y-20900000D01*
X62000000Y-27800000D02*
X62700000Y-27100000D01*
X12500000Y-26800000D02*
X6700000Y-26800000D01*
X1000000Y-26100000D02*
X6000000Y-26100000D01*
X900000Y-18900000D02*
X6000000Y-18900000D01*
X12500000Y-18200000D02*
X6700000Y-18200000D01*
X12500000Y-18700000D02*
X7000000Y-18700000D01*
X13500000Y-25300000D02*
X13500000Y-19700000D01*
X7000000Y-26300000D02*
X12500000Y-26300000D01*
X1000000Y-25600000D02*
X6300000Y-25600000D01*
X1000000Y-19400000D02*
X6300000Y-19400000D01*
X0Y-24600000D02*
X0Y-20400000D01*
X0Y-24600000D02*
G75*
G03X1000000Y-25600000I1000000J0D01*
G01*
X1000000Y-19400000D02*
G75*
G03X0Y-20400000I0J-1000000D01*
G01*
X12500000Y-26300000D02*
G75*
G03X13500000Y-25300000I0J1000000D01*
G01*
X13500000Y-19700000D02*
G75*
G03X12500000Y-18700000I-1000000J0D01*
G01*
X6700000Y-18200000D02*
X6000000Y-18900000D01*
X6700000Y-26800000D02*
X6000000Y-26100000D01*
X7000000Y-26300000D02*
X6300000Y-25600000D01*
X7000000Y-18700000D02*
X6300000Y-19400000D01*
X12500000Y-35300000D02*
X6700000Y-35300000D01*
X1000000Y-34600000D02*
X6000000Y-34600000D01*
X900000Y-27400000D02*
X6000000Y-27400000D01*
X12500000Y-26700000D02*
X6700000Y-26700000D01*
X12500000Y-27200000D02*
X7000000Y-27200000D01*
X13500000Y-33800000D02*
X13500000Y-28200000D01*
X7000000Y-34800000D02*
X12500000Y-34800000D01*
X1000000Y-34100000D02*
X6300000Y-34100000D01*
X1000000Y-27900000D02*
X6300000Y-27900000D01*
X0Y-33100000D02*
X0Y-28900000D01*
X0Y-33100000D02*
G75*
G03X1000000Y-34100000I1000000J0D01*
G01*
X1000000Y-27900000D02*
G75*
G03X0Y-28900000I0J-1000000D01*
G01*
X12500000Y-34800000D02*
G75*
G03X13500000Y-33800000I0J1000000D01*
G01*
X13500000Y-28200000D02*
G75*
G03X12500000Y-27200000I-1000000J0D01*
G01*
X6700000Y-26700000D02*
X6000000Y-27400000D01*
X6700000Y-35300000D02*
X6000000Y-34600000D01*
X7000000Y-34800000D02*
X6300000Y-34100000D01*
X7000000Y-27200000D02*
X6300000Y-27900000D01*
X19000000Y-9000000D02*
X19000000Y-8500000D01*
X19000000Y-8500000D02*
X18000000Y-8500000D01*
X18000000Y-8500000D02*
X18000000Y-9000000D01*
X16500000Y-9000000D02*
X16500000Y-4500000D01*
X16500000Y-4500000D02*
X15500000Y-4500000D01*
X15500000Y-4500000D02*
X15500000Y-9000000D01*
X21500000Y-9000000D02*
X21500000Y-4500000D01*
X21500000Y-4500000D02*
X20500000Y-4500000D01*
X20500000Y-4500000D02*
X20500000Y-9000000D01*
X14000000Y-19500000D02*
X23000000Y-19500000D01*
X23000000Y-19500000D02*
X23500000Y-19000000D01*
X13500000Y-19000000D02*
X14000000Y-19500000D01*
X13500000Y-18000000D02*
X13500000Y-19000000D01*
X23500000Y-18000000D02*
X23500000Y-19000000D01*
X23500000Y-18000000D02*
X23500000Y-9000000D01*
X13500000Y-18000000D02*
X23500000Y-18000000D01*
X13500000Y-9000000D02*
X13500000Y-18000000D01*
X13500000Y-9000000D02*
X23500000Y-9000000D01*
X31000000Y-9000000D02*
X31000000Y-8500000D01*
X31000000Y-8500000D02*
X30000000Y-8500000D01*
X30000000Y-8500000D02*
X30000000Y-9000000D01*
X28500000Y-9000000D02*
X28500000Y-4500000D01*
X28500000Y-4500000D02*
X27500000Y-4500000D01*
X27500000Y-4500000D02*
X27500000Y-9000000D01*
X33500000Y-9000000D02*
X33500000Y-4500000D01*
X33500000Y-4500000D02*
X32500000Y-4500000D01*
X32500000Y-4500000D02*
X32500000Y-9000000D01*
X26000000Y-19500000D02*
X35000000Y-19500000D01*
X35000000Y-19500000D02*
X35500000Y-19000000D01*
X25500000Y-19000000D02*
X26000000Y-19500000D01*
X25500000Y-18000000D02*
X25500000Y-19000000D01*
X35500000Y-18000000D02*
X35500000Y-19000000D01*
X35500000Y-18000000D02*
X35500000Y-9000000D01*
X25500000Y-18000000D02*
X35500000Y-18000000D01*
X25500000Y-9000000D02*
X25500000Y-18000000D01*
X25500000Y-9000000D02*
X35500000Y-9000000D01*
X55000000Y-9000000D02*
X55000000Y-8500000D01*
X55000000Y-8500000D02*
X54000000Y-8500000D01*
X54000000Y-8500000D02*
X54000000Y-9000000D01*
X52500000Y-9000000D02*
X52500000Y-4500000D01*
X52500000Y-4500000D02*
X51500000Y-4500000D01*
X51500000Y-4500000D02*
X51500000Y-9000000D01*
X57500000Y-9000000D02*
X57500000Y-4500000D01*
X57500000Y-4500000D02*
X56500000Y-4500000D01*
X56500000Y-4500000D02*
X56500000Y-9000000D01*
X50000000Y-19500000D02*
X59000000Y-19500000D01*
X59000000Y-19500000D02*
X59500000Y-19000000D01*
X49500000Y-19000000D02*
X50000000Y-19500000D01*
X49500000Y-18000000D02*
X49500000Y-19000000D01*
X59500000Y-18000000D02*
X59500000Y-19000000D01*
X59500000Y-18000000D02*
X59500000Y-9000000D01*
X49500000Y-18000000D02*
X59500000Y-18000000D01*
X49500000Y-9000000D02*
X49500000Y-18000000D01*
X49500000Y-9000000D02*
X59500000Y-9000000D01*
X67000000Y-9000000D02*
X67000000Y-8500000D01*
X67000000Y-8500000D02*
X66000000Y-8500000D01*
X66000000Y-8500000D02*
X66000000Y-9000000D01*
X64500000Y-9000000D02*
X64500000Y-4500000D01*
X64500000Y-4500000D02*
X63500000Y-4500000D01*
X63500000Y-4500000D02*
X63500000Y-9000000D01*
X69500000Y-9000000D02*
X69500000Y-4500000D01*
X69500000Y-4500000D02*
X68500000Y-4500000D01*
X68500000Y-4500000D02*
X68500000Y-9000000D01*
X62000000Y-19500000D02*
X71000000Y-19500000D01*
X71000000Y-19500000D02*
X71500000Y-19000000D01*
X61500000Y-19000000D02*
X62000000Y-19500000D01*
X61500000Y-18000000D02*
X61500000Y-19000000D01*
X71500000Y-18000000D02*
X71500000Y-19000000D01*
X71500000Y-18000000D02*
X71500000Y-9000000D01*
X61500000Y-18000000D02*
X71500000Y-18000000D01*
X61500000Y-9000000D02*
X61500000Y-18000000D01*
X61500000Y-9000000D02*
X71500000Y-9000000D01*
D13*
X58166000Y-49657000D02*
X55626000Y-49657000D01*
X55626000Y-51435000D02*
X58166000Y-51435000D01*
X55626000Y-51435000D02*
X55626000Y-49657000D01*
X58166000Y-49657000D02*
X58166000Y-51435000D01*
X55626000Y-50927000D02*
X53086000Y-50927000D01*
X53086000Y-52705000D02*
X55626000Y-52705000D01*
X53086000Y-52705000D02*
X53086000Y-50927000D01*
X55626000Y-50927000D02*
X55626000Y-52705000D01*
X53086000Y-52197000D02*
X50546000Y-52197000D01*
X50546000Y-53975000D02*
X53086000Y-53975000D01*
X50546000Y-53975000D02*
X50546000Y-52197000D01*
X53086000Y-52197000D02*
X53086000Y-53975000D01*
X50546000Y-53467000D02*
X48006000Y-53467000D01*
X48006000Y-55245000D02*
X50546000Y-55245000D01*
X48006000Y-55245000D02*
X48006000Y-53467000D01*
X50546000Y-53467000D02*
X50546000Y-55245000D01*
X75946000Y-62738000D02*
X75946000Y-42418000D01*
X70866000Y-44958000D02*
X70866000Y-62738000D01*
X75946000Y-62738000D02*
X70866000Y-62738000D01*
X75946000Y-42418000D02*
X73406000Y-42418000D01*
X72136000Y-42138000D02*
X70586000Y-42138000D01*
X73406000Y-42418000D02*
X73406000Y-44958000D01*
X73406000Y-44958000D02*
X70866000Y-44958000D01*
X70586000Y-42138000D02*
X70586000Y-43688000D01*
D12*
X57500000Y-75200000D02*
X45000000Y-75200000D01*
X57500000Y-62600000D02*
X57500000Y-75200000D01*
X56500000Y-66100000D02*
X56500000Y-62600000D01*
X56500000Y-62600000D02*
X57500000Y-62600000D01*
X45000000Y-66100000D02*
X57500000Y-66100000D01*
X53000000Y-68400000D02*
X53000000Y-73000000D01*
X53000000Y-68400000D02*
X57500000Y-68400000D01*
X49500000Y-73000000D02*
X49500000Y-68400000D01*
X49500000Y-68400000D02*
X45000000Y-68400000D01*
X45000000Y-73000000D02*
X57500000Y-73000000D01*
X45000000Y-62600000D02*
X45000000Y-75200000D01*
X45000000Y-62600000D02*
X46000000Y-62600000D01*
X46000000Y-62600000D02*
X46000000Y-66100000D01*
X70000000Y-75200000D02*
X57500000Y-75200000D01*
X70000000Y-62600000D02*
X70000000Y-75200000D01*
X69000000Y-66100000D02*
X69000000Y-62600000D01*
X69000000Y-62600000D02*
X70000000Y-62600000D01*
X57500000Y-66100000D02*
X70000000Y-66100000D01*
X65500000Y-68400000D02*
X65500000Y-73000000D01*
X65500000Y-68400000D02*
X70000000Y-68400000D01*
X62000000Y-73000000D02*
X62000000Y-68400000D01*
X62000000Y-68400000D02*
X57500000Y-68400000D01*
X57500000Y-73000000D02*
X70000000Y-73000000D01*
X57500000Y-62600000D02*
X57500000Y-75200000D01*
X57500000Y-62600000D02*
X58500000Y-62600000D01*
X58500000Y-62600000D02*
X58500000Y-66100000D01*
D13*
X44149000Y-23825000D02*
X37851000Y-23825000D01*
X44143000Y-23965000D02*
X37857000Y-23965000D01*
X44130000Y-24105000D02*
X41446000Y-24105000D01*
X40554000Y-24105000D02*
X37870000Y-24105000D01*
X44111000Y-24245000D02*
X41656000Y-24245000D01*
X40344000Y-24245000D02*
X37889000Y-24245000D01*
X44085000Y-24385000D02*
X41789000Y-24385000D01*
X40211000Y-24385000D02*
X37915000Y-24385000D01*
X44053000Y-24525000D02*
X41880000Y-24525000D01*
X40120000Y-24525000D02*
X37947000Y-24525000D01*
X44014000Y-24665000D02*
X41942000Y-24665000D01*
X40058000Y-24665000D02*
X37986000Y-24665000D01*
X43968000Y-24805000D02*
X41981000Y-24805000D01*
X40019000Y-24805000D02*
X38032000Y-24805000D01*
X43915000Y-24945000D02*
X41998000Y-24945000D01*
X40002000Y-24945000D02*
X38085000Y-24945000D01*
X43853000Y-25085000D02*
X41996000Y-25085000D01*
X40004000Y-25085000D02*
X38147000Y-25085000D01*
X43783000Y-25225000D02*
X41974000Y-25225000D01*
X40026000Y-25225000D02*
X38217000Y-25225000D01*
X43704000Y-25365000D02*
X41931000Y-25365000D01*
X40069000Y-25365000D02*
X38296000Y-25365000D01*
X43616000Y-25505000D02*
X41863000Y-25505000D01*
X40137000Y-25505000D02*
X38384000Y-25505000D01*
X43516000Y-25645000D02*
X41764000Y-25645000D01*
X40236000Y-25645000D02*
X38484000Y-25645000D01*
X43404000Y-25785000D02*
X41619000Y-25785000D01*
X40381000Y-25785000D02*
X38596000Y-25785000D01*
X43279000Y-25925000D02*
X41380000Y-25925000D01*
X40620000Y-25925000D02*
X38721000Y-25925000D01*
X43136000Y-26065000D02*
X38864000Y-26065000D01*
X42974000Y-26205000D02*
X39026000Y-26205000D01*
X42786000Y-26345000D02*
X39214000Y-26345000D01*
X42563000Y-26485000D02*
X39437000Y-26485000D01*
X42287000Y-26625000D02*
X39713000Y-26625000D01*
X41912000Y-26765000D02*
X40088000Y-26765000D01*
X42000000Y-25000000D02*
G75*
G03X42000000Y-25000000I-1000000J0D01*
G01*
X44187500Y-23750000D02*
G75*
G03X44187500Y-23750000I-3187500J0D01*
G01*
X53149000Y-23825000D02*
X46851000Y-23825000D01*
X53143000Y-23965000D02*
X46857000Y-23965000D01*
X53130000Y-24105000D02*
X50446000Y-24105000D01*
X49554000Y-24105000D02*
X46870000Y-24105000D01*
X53111000Y-24245000D02*
X50656000Y-24245000D01*
X49344000Y-24245000D02*
X46889000Y-24245000D01*
X53085000Y-24385000D02*
X50789000Y-24385000D01*
X49211000Y-24385000D02*
X46915000Y-24385000D01*
X53053000Y-24525000D02*
X50880000Y-24525000D01*
X49120000Y-24525000D02*
X46947000Y-24525000D01*
X53014000Y-24665000D02*
X50942000Y-24665000D01*
X49058000Y-24665000D02*
X46986000Y-24665000D01*
X52968000Y-24805000D02*
X50981000Y-24805000D01*
X49019000Y-24805000D02*
X47032000Y-24805000D01*
X52915000Y-24945000D02*
X50998000Y-24945000D01*
X49002000Y-24945000D02*
X47085000Y-24945000D01*
X52853000Y-25085000D02*
X50996000Y-25085000D01*
X49004000Y-25085000D02*
X47147000Y-25085000D01*
X52783000Y-25225000D02*
X50974000Y-25225000D01*
X49026000Y-25225000D02*
X47217000Y-25225000D01*
X52704000Y-25365000D02*
X50931000Y-25365000D01*
X49069000Y-25365000D02*
X47296000Y-25365000D01*
X52616000Y-25505000D02*
X50863000Y-25505000D01*
X49137000Y-25505000D02*
X47384000Y-25505000D01*
X52516000Y-25645000D02*
X50764000Y-25645000D01*
X49236000Y-25645000D02*
X47484000Y-25645000D01*
X52404000Y-25785000D02*
X50619000Y-25785000D01*
X49381000Y-25785000D02*
X47596000Y-25785000D01*
X52279000Y-25925000D02*
X50380000Y-25925000D01*
X49620000Y-25925000D02*
X47721000Y-25925000D01*
X52136000Y-26065000D02*
X47864000Y-26065000D01*
X51974000Y-26205000D02*
X48026000Y-26205000D01*
X51786000Y-26345000D02*
X48214000Y-26345000D01*
X51563000Y-26485000D02*
X48437000Y-26485000D01*
X51287000Y-26625000D02*
X48713000Y-26625000D01*
X50912000Y-26765000D02*
X49088000Y-26765000D01*
X51000000Y-25000000D02*
G75*
G03X51000000Y-25000000I-1000000J0D01*
G01*
X53187500Y-23750000D02*
G75*
G03X53187500Y-23750000I-3187500J0D01*
G01*
D14*
X27448572Y-25165429D02*
X27956572Y-26689429D01*
X28464572Y-25165429D01*
X28972572Y-26108857D02*
X30133715Y-26108857D01*
X23465429Y-25451428D02*
X24989429Y-24943428D01*
X23465429Y-24435428D01*
X24408857Y-23927428D02*
X24408857Y-22766285D01*
X24989429Y-23346856D02*
X23828286Y-23346856D01*
D15*
X16919238Y-40942548D02*
X16229810Y-40942548D01*
X16574524Y-40942548D02*
X16574524Y-39736048D01*
X16459619Y-39908405D01*
X16344714Y-40023310D01*
X16229810Y-40080762D01*
X17666119Y-39736048D02*
X17781024Y-39736048D01*
X17895929Y-39793500D01*
X17953381Y-39850952D01*
X18010834Y-39965857D01*
X18068286Y-40195667D01*
X18068286Y-40482929D01*
X18010834Y-40712738D01*
X17953381Y-40827643D01*
X17895929Y-40885095D01*
X17781024Y-40942548D01*
X17666119Y-40942548D01*
X17551215Y-40885095D01*
X17493762Y-40827643D01*
X17436310Y-40712738D01*
X17378858Y-40482929D01*
X17378858Y-40195667D01*
X17436310Y-39965857D01*
X17493762Y-39850952D01*
X17551215Y-39793500D01*
X17666119Y-39736048D01*
X18585358Y-40482929D02*
X19504596Y-40482929D01*
X20711096Y-40942548D02*
X20021668Y-40942548D01*
X20366382Y-40942548D02*
X20366382Y-39736048D01*
X20251477Y-39908405D01*
X20136572Y-40023310D01*
X20021668Y-40080762D01*
X21457977Y-39736048D02*
X21572882Y-39736048D01*
X21687787Y-39793500D01*
X21745239Y-39850952D01*
X21802692Y-39965857D01*
X21860144Y-40195667D01*
X21860144Y-40482929D01*
X21802692Y-40712738D01*
X21745239Y-40827643D01*
X21687787Y-40885095D01*
X21572882Y-40942548D01*
X21457977Y-40942548D01*
X21343073Y-40885095D01*
X21285620Y-40827643D01*
X21228168Y-40712738D01*
X21170716Y-40482929D01*
X21170716Y-40195667D01*
X21228168Y-39965857D01*
X21285620Y-39850952D01*
X21343073Y-39793500D01*
X21457977Y-39736048D01*
X22607025Y-39736048D02*
X22721930Y-39736048D01*
X22836835Y-39793500D01*
X22894287Y-39850952D01*
X22951740Y-39965857D01*
X23009192Y-40195667D01*
X23009192Y-40482929D01*
X22951740Y-40712738D01*
X22894287Y-40827643D01*
X22836835Y-40885095D01*
X22721930Y-40942548D01*
X22607025Y-40942548D01*
X22492121Y-40885095D01*
X22434668Y-40827643D01*
X22377216Y-40712738D01*
X22319764Y-40482929D01*
X22319764Y-40195667D01*
X22377216Y-39965857D01*
X22434668Y-39850952D01*
X22492121Y-39793500D01*
X22607025Y-39736048D01*
X23526264Y-40942548D02*
X23526264Y-39736048D01*
X23641169Y-40482929D02*
X23985883Y-40942548D01*
X23985883Y-40138214D02*
X23526264Y-40597833D01*
X42138214Y-20195667D02*
X42942548Y-20195667D01*
X41678595Y-20482929D02*
X42540381Y-20770190D01*
X42540381Y-20023310D01*
X42827643Y-19563690D02*
X42885095Y-19506238D01*
X42942548Y-19563690D01*
X42885095Y-19621142D01*
X42827643Y-19563690D01*
X42942548Y-19563690D01*
X41736048Y-19104071D02*
X41736048Y-18299738D01*
X42942548Y-18816809D01*
X42138214Y-17323047D02*
X42942548Y-17323047D01*
X42138214Y-17840118D02*
X42770190Y-17840118D01*
X42885095Y-17782666D01*
X42942548Y-17667761D01*
X42942548Y-17495404D01*
X42885095Y-17380499D01*
X42827643Y-17323047D01*
X48138214Y-20195667D02*
X48942548Y-20195667D01*
X47678595Y-20482929D02*
X48540381Y-20770190D01*
X48540381Y-20023310D01*
X48827643Y-19563690D02*
X48885095Y-19506238D01*
X48942548Y-19563690D01*
X48885095Y-19621142D01*
X48827643Y-19563690D01*
X48942548Y-19563690D01*
X47736048Y-19104071D02*
X47736048Y-18299738D01*
X48942548Y-18816809D01*
X48138214Y-17323047D02*
X48942548Y-17323047D01*
X48138214Y-17840118D02*
X48770190Y-17840118D01*
X48885095Y-17782666D01*
X48942548Y-17667761D01*
X48942548Y-17495404D01*
X48885095Y-17380499D01*
X48827643Y-17323047D01*
X36736048Y-42982929D02*
X36736048Y-42868024D01*
X36793500Y-42753119D01*
X36850952Y-42695667D01*
X36965857Y-42638214D01*
X37195667Y-42580762D01*
X37482929Y-42580762D01*
X37712738Y-42638214D01*
X37827643Y-42695667D01*
X37885095Y-42753119D01*
X37942548Y-42868024D01*
X37942548Y-42982929D01*
X37885095Y-43097833D01*
X37827643Y-43155286D01*
X37712738Y-43212738D01*
X37482929Y-43270190D01*
X37195667Y-43270190D01*
X36965857Y-43212738D01*
X36850952Y-43155286D01*
X36793500Y-43097833D01*
X36736048Y-42982929D01*
X37827643Y-42063690D02*
X37885095Y-42006238D01*
X37942548Y-42063690D01*
X37885095Y-42121142D01*
X37827643Y-42063690D01*
X37942548Y-42063690D01*
X37942548Y-40857190D02*
X37942548Y-41546618D01*
X37942548Y-41201904D02*
X36736048Y-41201904D01*
X36908405Y-41316809D01*
X37023310Y-41431714D01*
X37080762Y-41546618D01*
X37138214Y-39823047D02*
X37942548Y-39823047D01*
X37138214Y-40340118D02*
X37770190Y-40340118D01*
X37885095Y-40282666D01*
X37942548Y-40167761D01*
X37942548Y-39995404D01*
X37885095Y-39880499D01*
X37827643Y-39823047D01*
X13850001Y-58025000D02*
X13850001Y-57943751D01*
X13890626Y-57821876D01*
X14093751Y-57618751D01*
X14215625Y-57578126D01*
X14296875Y-57578126D01*
X14418750Y-57618751D01*
X14500000Y-57700001D01*
X14581250Y-57862501D01*
X14581250Y-58837500D01*
X15109375Y-58309376D01*
X14662500Y-57212501D02*
X14662500Y-57131251D01*
X14703126Y-57009376D01*
X14906251Y-56806251D01*
X15028125Y-56765627D01*
X15109375Y-56765626D01*
X15231250Y-56806251D01*
X15312500Y-56887502D01*
X15393750Y-57050001D01*
X15393750Y-58025001D01*
X15921874Y-57496876D01*
X15718749Y-56562501D02*
X16571874Y-57415625D01*
X15759375Y-56603127D02*
X15800000Y-56481251D01*
X15962499Y-56318751D01*
X16084375Y-56278127D01*
X16165624Y-56278127D01*
X16287499Y-56318751D01*
X16531249Y-56562501D01*
X16571874Y-56684377D01*
X16571874Y-56765626D01*
X16531249Y-56887502D01*
X16368750Y-57050001D01*
X16246874Y-57090626D01*
X22850001Y-61525000D02*
X22850001Y-61443751D01*
X22890626Y-61321876D01*
X23093751Y-61118751D01*
X23215625Y-61078126D01*
X23296875Y-61078126D01*
X23418750Y-61118751D01*
X23500000Y-61200001D01*
X23581250Y-61362501D01*
X23581250Y-62337500D01*
X24109375Y-61809376D01*
X23662500Y-60712501D02*
X23662500Y-60631251D01*
X23703126Y-60509376D01*
X23906251Y-60306251D01*
X24028125Y-60265627D01*
X24109375Y-60265626D01*
X24231250Y-60306251D01*
X24312500Y-60387502D01*
X24393750Y-60550001D01*
X24393750Y-61525001D01*
X24921874Y-60996876D01*
X24718749Y-60062501D02*
X25571874Y-60915625D01*
X24759375Y-60103127D02*
X24800000Y-59981251D01*
X24962499Y-59818751D01*
X25084375Y-59778127D01*
X25165624Y-59778127D01*
X25287499Y-59818751D01*
X25531249Y-60062501D01*
X25571874Y-60184377D01*
X25571874Y-60265626D01*
X25531249Y-60387502D01*
X25368750Y-60550001D01*
X25246874Y-60590626D01*
X27017071Y-43536048D02*
X27131976Y-43536048D01*
X27246881Y-43593500D01*
X27304333Y-43650952D01*
X27361786Y-43765857D01*
X27419238Y-43995667D01*
X27419238Y-44282929D01*
X27361786Y-44512738D01*
X27304333Y-44627643D01*
X27246881Y-44685095D01*
X27131976Y-44742548D01*
X27017071Y-44742548D01*
X26902167Y-44685095D01*
X26844714Y-44627643D01*
X26787262Y-44512738D01*
X26729810Y-44282929D01*
X26729810Y-43995667D01*
X26787262Y-43765857D01*
X26844714Y-43650952D01*
X26902167Y-43593500D01*
X27017071Y-43536048D01*
X27936310Y-44627643D02*
X27993762Y-44685095D01*
X27936310Y-44742548D01*
X27878858Y-44685095D01*
X27936310Y-44627643D01*
X27936310Y-44742548D01*
X29142810Y-44742548D02*
X28453382Y-44742548D01*
X28798096Y-44742548D02*
X28798096Y-43536048D01*
X28683191Y-43708405D01*
X28568286Y-43823310D01*
X28453382Y-43880762D01*
X30176953Y-43938214D02*
X30176953Y-44742548D01*
X29659882Y-43938214D02*
X29659882Y-44570190D01*
X29717334Y-44685095D01*
X29832239Y-44742548D01*
X30004596Y-44742548D01*
X30119501Y-44685095D01*
X30176953Y-44627643D01*
X19236048Y-51482929D02*
X19236048Y-51368024D01*
X19293500Y-51253119D01*
X19350952Y-51195667D01*
X19465857Y-51138214D01*
X19695667Y-51080762D01*
X19982929Y-51080762D01*
X20212738Y-51138214D01*
X20327643Y-51195667D01*
X20385095Y-51253119D01*
X20442548Y-51368024D01*
X20442548Y-51482929D01*
X20385095Y-51597833D01*
X20327643Y-51655286D01*
X20212738Y-51712738D01*
X19982929Y-51770190D01*
X19695667Y-51770190D01*
X19465857Y-51712738D01*
X19350952Y-51655286D01*
X19293500Y-51597833D01*
X19236048Y-51482929D01*
X20327643Y-50563690D02*
X20385095Y-50506238D01*
X20442548Y-50563690D01*
X20385095Y-50621142D01*
X20327643Y-50563690D01*
X20442548Y-50563690D01*
X20442548Y-49357190D02*
X20442548Y-50046618D01*
X20442548Y-49701904D02*
X19236048Y-49701904D01*
X19408405Y-49816809D01*
X19523310Y-49931714D01*
X19580762Y-50046618D01*
X19638214Y-48323047D02*
X20442548Y-48323047D01*
X19638214Y-48840118D02*
X20270190Y-48840118D01*
X20385095Y-48782666D01*
X20442548Y-48667761D01*
X20442548Y-48495404D01*
X20385095Y-48380499D01*
X20327643Y-48323047D01*
X72517071Y-40736048D02*
X72631976Y-40736048D01*
X72746881Y-40793500D01*
X72804333Y-40850952D01*
X72861786Y-40965857D01*
X72919238Y-41195667D01*
X72919238Y-41482929D01*
X72861786Y-41712738D01*
X72804333Y-41827643D01*
X72746881Y-41885095D01*
X72631976Y-41942548D01*
X72517071Y-41942548D01*
X72402167Y-41885095D01*
X72344714Y-41827643D01*
X72287262Y-41712738D01*
X72229810Y-41482929D01*
X72229810Y-41195667D01*
X72287262Y-40965857D01*
X72344714Y-40850952D01*
X72402167Y-40793500D01*
X72517071Y-40736048D01*
X73436310Y-41827643D02*
X73493762Y-41885095D01*
X73436310Y-41942548D01*
X73378858Y-41885095D01*
X73436310Y-41827643D01*
X73436310Y-41942548D01*
X74642810Y-41942548D02*
X73953382Y-41942548D01*
X74298096Y-41942548D02*
X74298096Y-40736048D01*
X74183191Y-40908405D01*
X74068286Y-41023310D01*
X73953382Y-41080762D01*
X75676953Y-41138214D02*
X75676953Y-41942548D01*
X75159882Y-41138214D02*
X75159882Y-41770190D01*
X75217334Y-41885095D01*
X75332239Y-41942548D01*
X75504596Y-41942548D01*
X75619501Y-41885095D01*
X75676953Y-41827643D01*
X60736048Y-42982929D02*
X60736048Y-42868024D01*
X60793500Y-42753119D01*
X60850952Y-42695667D01*
X60965857Y-42638214D01*
X61195667Y-42580762D01*
X61482929Y-42580762D01*
X61712738Y-42638214D01*
X61827643Y-42695667D01*
X61885095Y-42753119D01*
X61942548Y-42868024D01*
X61942548Y-42982929D01*
X61885095Y-43097833D01*
X61827643Y-43155286D01*
X61712738Y-43212738D01*
X61482929Y-43270190D01*
X61195667Y-43270190D01*
X60965857Y-43212738D01*
X60850952Y-43155286D01*
X60793500Y-43097833D01*
X60736048Y-42982929D01*
X61827643Y-42063690D02*
X61885095Y-42006238D01*
X61942548Y-42063690D01*
X61885095Y-42121142D01*
X61827643Y-42063690D01*
X61942548Y-42063690D01*
X61942548Y-40857190D02*
X61942548Y-41546618D01*
X61942548Y-41201904D02*
X60736048Y-41201904D01*
X60908405Y-41316809D01*
X61023310Y-41431714D01*
X61080762Y-41546618D01*
X61138214Y-39823047D02*
X61942548Y-39823047D01*
X61138214Y-40340118D02*
X61770190Y-40340118D01*
X61885095Y-40282666D01*
X61942548Y-40167761D01*
X61942548Y-39995404D01*
X61885095Y-39880499D01*
X61827643Y-39823047D01*
X18419238Y-47442548D02*
X17729810Y-47442548D01*
X18074524Y-47442548D02*
X18074524Y-46236048D01*
X17959619Y-46408405D01*
X17844714Y-46523310D01*
X17729810Y-46580762D01*
X19166119Y-46236048D02*
X19281024Y-46236048D01*
X19395929Y-46293500D01*
X19453381Y-46350952D01*
X19510834Y-46465857D01*
X19568286Y-46695667D01*
X19568286Y-46982929D01*
X19510834Y-47212738D01*
X19453381Y-47327643D01*
X19395929Y-47385095D01*
X19281024Y-47442548D01*
X19166119Y-47442548D01*
X19051215Y-47385095D01*
X18993762Y-47327643D01*
X18936310Y-47212738D01*
X18878858Y-46982929D01*
X18878858Y-46695667D01*
X18936310Y-46465857D01*
X18993762Y-46350952D01*
X19051215Y-46293500D01*
X19166119Y-46236048D01*
X20315167Y-46236048D02*
X20430072Y-46236048D01*
X20544977Y-46293500D01*
X20602429Y-46350952D01*
X20659882Y-46465857D01*
X20717334Y-46695667D01*
X20717334Y-46982929D01*
X20659882Y-47212738D01*
X20602429Y-47327643D01*
X20544977Y-47385095D01*
X20430072Y-47442548D01*
X20315167Y-47442548D01*
X20200263Y-47385095D01*
X20142810Y-47327643D01*
X20085358Y-47212738D01*
X20027906Y-46982929D01*
X20027906Y-46695667D01*
X20085358Y-46465857D01*
X20142810Y-46350952D01*
X20200263Y-46293500D01*
X20315167Y-46236048D01*
X29419238Y-40942548D02*
X28729810Y-40942548D01*
X29074524Y-40942548D02*
X29074524Y-39736048D01*
X28959619Y-39908405D01*
X28844714Y-40023310D01*
X28729810Y-40080762D01*
X30166119Y-39736048D02*
X30281024Y-39736048D01*
X30395929Y-39793500D01*
X30453381Y-39850952D01*
X30510834Y-39965857D01*
X30568286Y-40195667D01*
X30568286Y-40482929D01*
X30510834Y-40712738D01*
X30453381Y-40827643D01*
X30395929Y-40885095D01*
X30281024Y-40942548D01*
X30166119Y-40942548D01*
X30051215Y-40885095D01*
X29993762Y-40827643D01*
X29936310Y-40712738D01*
X29878858Y-40482929D01*
X29878858Y-40195667D01*
X29936310Y-39965857D01*
X29993762Y-39850952D01*
X30051215Y-39793500D01*
X30166119Y-39736048D01*
X31085358Y-40482929D02*
X32004596Y-40482929D01*
X33211096Y-40942548D02*
X32521668Y-40942548D01*
X32866382Y-40942548D02*
X32866382Y-39736048D01*
X32751477Y-39908405D01*
X32636572Y-40023310D01*
X32521668Y-40080762D01*
X33957977Y-39736048D02*
X34072882Y-39736048D01*
X34187787Y-39793500D01*
X34245239Y-39850952D01*
X34302692Y-39965857D01*
X34360144Y-40195667D01*
X34360144Y-40482929D01*
X34302692Y-40712738D01*
X34245239Y-40827643D01*
X34187787Y-40885095D01*
X34072882Y-40942548D01*
X33957977Y-40942548D01*
X33843073Y-40885095D01*
X33785620Y-40827643D01*
X33728168Y-40712738D01*
X33670716Y-40482929D01*
X33670716Y-40195667D01*
X33728168Y-39965857D01*
X33785620Y-39850952D01*
X33843073Y-39793500D01*
X33957977Y-39736048D01*
X35107025Y-39736048D02*
X35221930Y-39736048D01*
X35336835Y-39793500D01*
X35394287Y-39850952D01*
X35451740Y-39965857D01*
X35509192Y-40195667D01*
X35509192Y-40482929D01*
X35451740Y-40712738D01*
X35394287Y-40827643D01*
X35336835Y-40885095D01*
X35221930Y-40942548D01*
X35107025Y-40942548D01*
X34992121Y-40885095D01*
X34934668Y-40827643D01*
X34877216Y-40712738D01*
X34819764Y-40482929D01*
X34819764Y-40195667D01*
X34877216Y-39965857D01*
X34934668Y-39850952D01*
X34992121Y-39793500D01*
X35107025Y-39736048D01*
X36026264Y-40942548D02*
X36026264Y-39736048D01*
X36141169Y-40482929D02*
X36485883Y-40942548D01*
X36485883Y-40138214D02*
X36026264Y-40597833D01*
X65419238Y-40942548D02*
X64729810Y-40942548D01*
X65074524Y-40942548D02*
X65074524Y-39736048D01*
X64959619Y-39908405D01*
X64844714Y-40023310D01*
X64729810Y-40080762D01*
X66166119Y-39736048D02*
X66281024Y-39736048D01*
X66395929Y-39793500D01*
X66453381Y-39850952D01*
X66510834Y-39965857D01*
X66568286Y-40195667D01*
X66568286Y-40482929D01*
X66510834Y-40712738D01*
X66453381Y-40827643D01*
X66395929Y-40885095D01*
X66281024Y-40942548D01*
X66166119Y-40942548D01*
X66051215Y-40885095D01*
X65993762Y-40827643D01*
X65936310Y-40712738D01*
X65878858Y-40482929D01*
X65878858Y-40195667D01*
X65936310Y-39965857D01*
X65993762Y-39850952D01*
X66051215Y-39793500D01*
X66166119Y-39736048D01*
X67085358Y-40482929D02*
X68004596Y-40482929D01*
X69211096Y-40942548D02*
X68521668Y-40942548D01*
X68866382Y-40942548D02*
X68866382Y-39736048D01*
X68751477Y-39908405D01*
X68636572Y-40023310D01*
X68521668Y-40080762D01*
X69957977Y-39736048D02*
X70072882Y-39736048D01*
X70187787Y-39793500D01*
X70245239Y-39850952D01*
X70302692Y-39965857D01*
X70360144Y-40195667D01*
X70360144Y-40482929D01*
X70302692Y-40712738D01*
X70245239Y-40827643D01*
X70187787Y-40885095D01*
X70072882Y-40942548D01*
X69957977Y-40942548D01*
X69843073Y-40885095D01*
X69785620Y-40827643D01*
X69728168Y-40712738D01*
X69670716Y-40482929D01*
X69670716Y-40195667D01*
X69728168Y-39965857D01*
X69785620Y-39850952D01*
X69843073Y-39793500D01*
X69957977Y-39736048D01*
X71107025Y-39736048D02*
X71221930Y-39736048D01*
X71336835Y-39793500D01*
X71394287Y-39850952D01*
X71451740Y-39965857D01*
X71509192Y-40195667D01*
X71509192Y-40482929D01*
X71451740Y-40712738D01*
X71394287Y-40827643D01*
X71336835Y-40885095D01*
X71221930Y-40942548D01*
X71107025Y-40942548D01*
X70992121Y-40885095D01*
X70934668Y-40827643D01*
X70877216Y-40712738D01*
X70819764Y-40482929D01*
X70819764Y-40195667D01*
X70877216Y-39965857D01*
X70934668Y-39850952D01*
X70992121Y-39793500D01*
X71107025Y-39736048D01*
X72026264Y-40942548D02*
X72026264Y-39736048D01*
X72141169Y-40482929D02*
X72485883Y-40942548D01*
X72485883Y-40138214D02*
X72026264Y-40597833D01*
X52919238Y-40942548D02*
X52229810Y-40942548D01*
X52574524Y-40942548D02*
X52574524Y-39736048D01*
X52459619Y-39908405D01*
X52344714Y-40023310D01*
X52229810Y-40080762D01*
X53666119Y-39736048D02*
X53781024Y-39736048D01*
X53895929Y-39793500D01*
X53953381Y-39850952D01*
X54010834Y-39965857D01*
X54068286Y-40195667D01*
X54068286Y-40482929D01*
X54010834Y-40712738D01*
X53953381Y-40827643D01*
X53895929Y-40885095D01*
X53781024Y-40942548D01*
X53666119Y-40942548D01*
X53551215Y-40885095D01*
X53493762Y-40827643D01*
X53436310Y-40712738D01*
X53378858Y-40482929D01*
X53378858Y-40195667D01*
X53436310Y-39965857D01*
X53493762Y-39850952D01*
X53551215Y-39793500D01*
X53666119Y-39736048D01*
X54585358Y-40482929D02*
X55504596Y-40482929D01*
X56711096Y-40942548D02*
X56021668Y-40942548D01*
X56366382Y-40942548D02*
X56366382Y-39736048D01*
X56251477Y-39908405D01*
X56136572Y-40023310D01*
X56021668Y-40080762D01*
X57457977Y-39736048D02*
X57572882Y-39736048D01*
X57687787Y-39793500D01*
X57745239Y-39850952D01*
X57802692Y-39965857D01*
X57860144Y-40195667D01*
X57860144Y-40482929D01*
X57802692Y-40712738D01*
X57745239Y-40827643D01*
X57687787Y-40885095D01*
X57572882Y-40942548D01*
X57457977Y-40942548D01*
X57343073Y-40885095D01*
X57285620Y-40827643D01*
X57228168Y-40712738D01*
X57170716Y-40482929D01*
X57170716Y-40195667D01*
X57228168Y-39965857D01*
X57285620Y-39850952D01*
X57343073Y-39793500D01*
X57457977Y-39736048D01*
X58607025Y-39736048D02*
X58721930Y-39736048D01*
X58836835Y-39793500D01*
X58894287Y-39850952D01*
X58951740Y-39965857D01*
X59009192Y-40195667D01*
X59009192Y-40482929D01*
X58951740Y-40712738D01*
X58894287Y-40827643D01*
X58836835Y-40885095D01*
X58721930Y-40942548D01*
X58607025Y-40942548D01*
X58492121Y-40885095D01*
X58434668Y-40827643D01*
X58377216Y-40712738D01*
X58319764Y-40482929D01*
X58319764Y-40195667D01*
X58377216Y-39965857D01*
X58434668Y-39850952D01*
X58492121Y-39793500D01*
X58607025Y-39736048D01*
X59526264Y-40942548D02*
X59526264Y-39736048D01*
X59641169Y-40482929D02*
X59985883Y-40942548D01*
X59985883Y-40138214D02*
X59526264Y-40597833D01*
X35236048Y-52982929D02*
X35236048Y-52868024D01*
X35293500Y-52753119D01*
X35350952Y-52695667D01*
X35465857Y-52638214D01*
X35695667Y-52580762D01*
X35982929Y-52580762D01*
X36212738Y-52638214D01*
X36327643Y-52695667D01*
X36385095Y-52753119D01*
X36442548Y-52868024D01*
X36442548Y-52982929D01*
X36385095Y-53097833D01*
X36327643Y-53155286D01*
X36212738Y-53212738D01*
X35982929Y-53270190D01*
X35695667Y-53270190D01*
X35465857Y-53212738D01*
X35350952Y-53155286D01*
X35293500Y-53097833D01*
X35236048Y-52982929D01*
X36327643Y-52063690D02*
X36385095Y-52006238D01*
X36442548Y-52063690D01*
X36385095Y-52121142D01*
X36327643Y-52063690D01*
X36442548Y-52063690D01*
X36442548Y-50857190D02*
X36442548Y-51546618D01*
X36442548Y-51201904D02*
X35236048Y-51201904D01*
X35408405Y-51316809D01*
X35523310Y-51431714D01*
X35580762Y-51546618D01*
X35638214Y-49823047D02*
X36442548Y-49823047D01*
X35638214Y-50340118D02*
X36270190Y-50340118D01*
X36385095Y-50282666D01*
X36442548Y-50167761D01*
X36442548Y-49995404D01*
X36385095Y-49880499D01*
X36327643Y-49823047D01*
X30189429Y-9810571D02*
X29787262Y-9810571D01*
X29787262Y-10442548D02*
X29787262Y-9236048D01*
X30361786Y-9236048D01*
X30821405Y-10442548D02*
X30821405Y-9236048D01*
X31970453Y-10442548D02*
X31395929Y-10442548D01*
X31395929Y-9236048D01*
X32200262Y-9236048D02*
X32889690Y-9236048D01*
X32544976Y-10442548D02*
X32544976Y-9236048D01*
X33291857Y-9810571D02*
X33694024Y-9810571D01*
X33866381Y-10442548D02*
X33291857Y-10442548D01*
X33291857Y-9236048D01*
X33866381Y-9236048D01*
X35072880Y-10442548D02*
X34670714Y-9868024D01*
X34383452Y-10442548D02*
X34383452Y-9236048D01*
X34843071Y-9236048D01*
X34957976Y-9293500D01*
X35015428Y-9350952D01*
X35072880Y-9465857D01*
X35072880Y-9638214D01*
X35015428Y-9753119D01*
X34957976Y-9810571D01*
X34843071Y-9868024D01*
X34383452Y-9868024D01*
X18189429Y-9810571D02*
X17787262Y-9810571D01*
X17787262Y-10442548D02*
X17787262Y-9236048D01*
X18361786Y-9236048D01*
X18821405Y-10442548D02*
X18821405Y-9236048D01*
X19970453Y-10442548D02*
X19395929Y-10442548D01*
X19395929Y-9236048D01*
X20200262Y-9236048D02*
X20889690Y-9236048D01*
X20544976Y-10442548D02*
X20544976Y-9236048D01*
X21291857Y-9810571D02*
X21694024Y-9810571D01*
X21866381Y-10442548D02*
X21291857Y-10442548D01*
X21291857Y-9236048D01*
X21866381Y-9236048D01*
X23072880Y-10442548D02*
X22670714Y-9868024D01*
X22383452Y-10442548D02*
X22383452Y-9236048D01*
X22843071Y-9236048D01*
X22957976Y-9293500D01*
X23015428Y-9350952D01*
X23072880Y-9465857D01*
X23072880Y-9638214D01*
X23015428Y-9753119D01*
X22957976Y-9810571D01*
X22843071Y-9868024D01*
X22383452Y-9868024D01*
X66189429Y-10310571D02*
X65787262Y-10310571D01*
X65787262Y-10942548D02*
X65787262Y-9736048D01*
X66361786Y-9736048D01*
X66821405Y-10942548D02*
X66821405Y-9736048D01*
X67970453Y-10942548D02*
X67395929Y-10942548D01*
X67395929Y-9736048D01*
X68200262Y-9736048D02*
X68889690Y-9736048D01*
X68544976Y-10942548D02*
X68544976Y-9736048D01*
X69291857Y-10310571D02*
X69694024Y-10310571D01*
X69866381Y-10942548D02*
X69291857Y-10942548D01*
X69291857Y-9736048D01*
X69866381Y-9736048D01*
X71072880Y-10942548D02*
X70670714Y-10368024D01*
X70383452Y-10942548D02*
X70383452Y-9736048D01*
X70843071Y-9736048D01*
X70957976Y-9793500D01*
X71015428Y-9850952D01*
X71072880Y-9965857D01*
X71072880Y-10138214D01*
X71015428Y-10253119D01*
X70957976Y-10310571D01*
X70843071Y-10368024D01*
X70383452Y-10368024D01*
X54189429Y-10310571D02*
X53787262Y-10310571D01*
X53787262Y-10942548D02*
X53787262Y-9736048D01*
X54361786Y-9736048D01*
X54821405Y-10942548D02*
X54821405Y-9736048D01*
X55970453Y-10942548D02*
X55395929Y-10942548D01*
X55395929Y-9736048D01*
X56200262Y-9736048D02*
X56889690Y-9736048D01*
X56544976Y-10942548D02*
X56544976Y-9736048D01*
X57291857Y-10310571D02*
X57694024Y-10310571D01*
X57866381Y-10942548D02*
X57291857Y-10942548D01*
X57291857Y-9736048D01*
X57866381Y-9736048D01*
X59072880Y-10942548D02*
X58670714Y-10368024D01*
X58383452Y-10942548D02*
X58383452Y-9736048D01*
X58843071Y-9736048D01*
X58957976Y-9793500D01*
X59015428Y-9850952D01*
X59072880Y-9965857D01*
X59072880Y-10138214D01*
X59015428Y-10253119D01*
X58957976Y-10310571D01*
X58843071Y-10368024D01*
X58383452Y-10368024D01*
X15419238Y-51942548D02*
X14729810Y-51942548D01*
X15074524Y-51942548D02*
X15074524Y-50736048D01*
X14959619Y-50908405D01*
X14844714Y-51023310D01*
X14729810Y-51080762D01*
X16166119Y-50736048D02*
X16281024Y-50736048D01*
X16395929Y-50793500D01*
X16453381Y-50850952D01*
X16510834Y-50965857D01*
X16568286Y-51195667D01*
X16568286Y-51482929D01*
X16510834Y-51712738D01*
X16453381Y-51827643D01*
X16395929Y-51885095D01*
X16281024Y-51942548D01*
X16166119Y-51942548D01*
X16051215Y-51885095D01*
X15993762Y-51827643D01*
X15936310Y-51712738D01*
X15878858Y-51482929D01*
X15878858Y-51195667D01*
X15936310Y-50965857D01*
X15993762Y-50850952D01*
X16051215Y-50793500D01*
X16166119Y-50736048D01*
X17315167Y-50736048D02*
X17430072Y-50736048D01*
X17544977Y-50793500D01*
X17602429Y-50850952D01*
X17659882Y-50965857D01*
X17717334Y-51195667D01*
X17717334Y-51482929D01*
X17659882Y-51712738D01*
X17602429Y-51827643D01*
X17544977Y-51885095D01*
X17430072Y-51942548D01*
X17315167Y-51942548D01*
X17200263Y-51885095D01*
X17142810Y-51827643D01*
X17085358Y-51712738D01*
X17027906Y-51482929D01*
X17027906Y-51195667D01*
X17085358Y-50965857D01*
X17142810Y-50850952D01*
X17200263Y-50793500D01*
X17315167Y-50736048D01*
X12638214Y-62195667D02*
X13442548Y-62195667D01*
X12178595Y-62482929D02*
X13040381Y-62770190D01*
X13040381Y-62023310D01*
X13327643Y-61563690D02*
X13385095Y-61506238D01*
X13442548Y-61563690D01*
X13385095Y-61621142D01*
X13327643Y-61563690D01*
X13442548Y-61563690D01*
X12236048Y-61104071D02*
X12236048Y-60299738D01*
X13442548Y-60816809D01*
X13442548Y-59840118D02*
X12236048Y-59840118D01*
X12982929Y-59725213D02*
X13442548Y-59380499D01*
X12638214Y-59380499D02*
X13097833Y-59840118D01*
X45304333Y-27638214D02*
X45304333Y-28442548D01*
X45017071Y-27178595D02*
X44729810Y-28040381D01*
X45476690Y-28040381D01*
X45936310Y-28327643D02*
X45993762Y-28385095D01*
X45936310Y-28442548D01*
X45878858Y-28385095D01*
X45936310Y-28327643D01*
X45936310Y-28442548D01*
X46395929Y-27236048D02*
X47200262Y-27236048D01*
X46683191Y-28442548D01*
X47659882Y-28442548D02*
X47659882Y-27236048D01*
X47774787Y-27982929D02*
X48119501Y-28442548D01*
X48119501Y-27638214D02*
X47659882Y-28097833D01*
X36442548Y-29080762D02*
X36442548Y-29770190D01*
X36442548Y-29425476D02*
X35236048Y-29425476D01*
X35408405Y-29540381D01*
X35523310Y-29655286D01*
X35580762Y-29770190D01*
X35236048Y-28333881D02*
X35236048Y-28218976D01*
X35293500Y-28104071D01*
X35350952Y-28046619D01*
X35465857Y-27989166D01*
X35695667Y-27931714D01*
X35982929Y-27931714D01*
X36212738Y-27989166D01*
X36327643Y-28046619D01*
X36385095Y-28104071D01*
X36442548Y-28218976D01*
X36442548Y-28333881D01*
X36385095Y-28448785D01*
X36327643Y-28506238D01*
X36212738Y-28563690D01*
X35982929Y-28621142D01*
X35695667Y-28621142D01*
X35465857Y-28563690D01*
X35350952Y-28506238D01*
X35293500Y-28448785D01*
X35236048Y-28333881D01*
X24442548Y-29080762D02*
X24442548Y-29770190D01*
X24442548Y-29425476D02*
X23236048Y-29425476D01*
X23408405Y-29540381D01*
X23523310Y-29655286D01*
X23580762Y-29770190D01*
X23236048Y-28333881D02*
X23236048Y-28218976D01*
X23293500Y-28104071D01*
X23350952Y-28046619D01*
X23465857Y-27989166D01*
X23695667Y-27931714D01*
X23982929Y-27931714D01*
X24212738Y-27989166D01*
X24327643Y-28046619D01*
X24385095Y-28104071D01*
X24442548Y-28218976D01*
X24442548Y-28333881D01*
X24385095Y-28448785D01*
X24327643Y-28506238D01*
X24212738Y-28563690D01*
X23982929Y-28621142D01*
X23695667Y-28621142D01*
X23465857Y-28563690D01*
X23350952Y-28506238D01*
X23293500Y-28448785D01*
X23236048Y-28333881D01*
X30442548Y-29080762D02*
X30442548Y-29770190D01*
X30442548Y-29425476D02*
X29236048Y-29425476D01*
X29408405Y-29540381D01*
X29523310Y-29655286D01*
X29580762Y-29770190D01*
X29236048Y-28333881D02*
X29236048Y-28218976D01*
X29293500Y-28104071D01*
X29350952Y-28046619D01*
X29465857Y-27989166D01*
X29695667Y-27931714D01*
X29982929Y-27931714D01*
X30212738Y-27989166D01*
X30327643Y-28046619D01*
X30385095Y-28104071D01*
X30442548Y-28218976D01*
X30442548Y-28333881D01*
X30385095Y-28448785D01*
X30327643Y-28506238D01*
X30212738Y-28563690D01*
X29982929Y-28621142D01*
X29695667Y-28621142D01*
X29465857Y-28563690D01*
X29350952Y-28506238D01*
X29293500Y-28448785D01*
X29236048Y-28333881D01*
X72442548Y-29080762D02*
X72442548Y-29770190D01*
X72442548Y-29425476D02*
X71236048Y-29425476D01*
X71408405Y-29540381D01*
X71523310Y-29655286D01*
X71580762Y-29770190D01*
X71236048Y-28333881D02*
X71236048Y-28218976D01*
X71293500Y-28104071D01*
X71350952Y-28046619D01*
X71465857Y-27989166D01*
X71695667Y-27931714D01*
X71982929Y-27931714D01*
X72212738Y-27989166D01*
X72327643Y-28046619D01*
X72385095Y-28104071D01*
X72442548Y-28218976D01*
X72442548Y-28333881D01*
X72385095Y-28448785D01*
X72327643Y-28506238D01*
X72212738Y-28563690D01*
X71982929Y-28621142D01*
X71695667Y-28621142D01*
X71465857Y-28563690D01*
X71350952Y-28506238D01*
X71293500Y-28448785D01*
X71236048Y-28333881D01*
X60442548Y-29080762D02*
X60442548Y-29770190D01*
X60442548Y-29425476D02*
X59236048Y-29425476D01*
X59408405Y-29540381D01*
X59523310Y-29655286D01*
X59580762Y-29770190D01*
X59236048Y-28333881D02*
X59236048Y-28218976D01*
X59293500Y-28104071D01*
X59350952Y-28046619D01*
X59465857Y-27989166D01*
X59695667Y-27931714D01*
X59982929Y-27931714D01*
X60212738Y-27989166D01*
X60327643Y-28046619D01*
X60385095Y-28104071D01*
X60442548Y-28218976D01*
X60442548Y-28333881D01*
X60385095Y-28448785D01*
X60327643Y-28506238D01*
X60212738Y-28563690D01*
X59982929Y-28621142D01*
X59695667Y-28621142D01*
X59465857Y-28563690D01*
X59350952Y-28506238D01*
X59293500Y-28448785D01*
X59236048Y-28333881D01*
X53942548Y-29080762D02*
X53942548Y-29770190D01*
X53942548Y-29425476D02*
X52736048Y-29425476D01*
X52908405Y-29540381D01*
X53023310Y-29655286D01*
X53080762Y-29770190D01*
X52736048Y-28333881D02*
X52736048Y-28218976D01*
X52793500Y-28104071D01*
X52850952Y-28046619D01*
X52965857Y-27989166D01*
X53195667Y-27931714D01*
X53482929Y-27931714D01*
X53712738Y-27989166D01*
X53827643Y-28046619D01*
X53885095Y-28104071D01*
X53942548Y-28218976D01*
X53942548Y-28333881D01*
X53885095Y-28448785D01*
X53827643Y-28506238D01*
X53712738Y-28563690D01*
X53482929Y-28621142D01*
X53195667Y-28621142D01*
X52965857Y-28563690D01*
X52850952Y-28506238D01*
X52793500Y-28448785D01*
X52736048Y-28333881D01*
X17942548Y-29080762D02*
X17942548Y-29770190D01*
X17942548Y-29425476D02*
X16736048Y-29425476D01*
X16908405Y-29540381D01*
X17023310Y-29655286D01*
X17080762Y-29770190D01*
X16736048Y-28333881D02*
X16736048Y-28218976D01*
X16793500Y-28104071D01*
X16850952Y-28046619D01*
X16965857Y-27989166D01*
X17195667Y-27931714D01*
X17482929Y-27931714D01*
X17712738Y-27989166D01*
X17827643Y-28046619D01*
X17885095Y-28104071D01*
X17942548Y-28218976D01*
X17942548Y-28333881D01*
X17885095Y-28448785D01*
X17827643Y-28506238D01*
X17712738Y-28563690D01*
X17482929Y-28621142D01*
X17195667Y-28621142D01*
X16965857Y-28563690D01*
X16850952Y-28506238D01*
X16793500Y-28448785D01*
X16736048Y-28333881D01*
X66942548Y-29080762D02*
X66942548Y-29770190D01*
X66942548Y-29425476D02*
X65736048Y-29425476D01*
X65908405Y-29540381D01*
X66023310Y-29655286D01*
X66080762Y-29770190D01*
X65736048Y-28333881D02*
X65736048Y-28218976D01*
X65793500Y-28104071D01*
X65850952Y-28046619D01*
X65965857Y-27989166D01*
X66195667Y-27931714D01*
X66482929Y-27931714D01*
X66712738Y-27989166D01*
X66827643Y-28046619D01*
X66885095Y-28104071D01*
X66942548Y-28218976D01*
X66942548Y-28333881D01*
X66885095Y-28448785D01*
X66827643Y-28506238D01*
X66712738Y-28563690D01*
X66482929Y-28621142D01*
X66195667Y-28621142D01*
X65965857Y-28563690D01*
X65850952Y-28506238D01*
X65793500Y-28448785D01*
X65736048Y-28333881D01*
X18419238Y-45442548D02*
X17729810Y-45442548D01*
X18074524Y-45442548D02*
X18074524Y-44236048D01*
X17959619Y-44408405D01*
X17844714Y-44523310D01*
X17729810Y-44580762D01*
X19166119Y-44236048D02*
X19281024Y-44236048D01*
X19395929Y-44293500D01*
X19453381Y-44350952D01*
X19510834Y-44465857D01*
X19568286Y-44695667D01*
X19568286Y-44982929D01*
X19510834Y-45212738D01*
X19453381Y-45327643D01*
X19395929Y-45385095D01*
X19281024Y-45442548D01*
X19166119Y-45442548D01*
X19051215Y-45385095D01*
X18993762Y-45327643D01*
X18936310Y-45212738D01*
X18878858Y-44982929D01*
X18878858Y-44695667D01*
X18936310Y-44465857D01*
X18993762Y-44350952D01*
X19051215Y-44293500D01*
X19166119Y-44236048D01*
X20315167Y-44236048D02*
X20430072Y-44236048D01*
X20544977Y-44293500D01*
X20602429Y-44350952D01*
X20659882Y-44465857D01*
X20717334Y-44695667D01*
X20717334Y-44982929D01*
X20659882Y-45212738D01*
X20602429Y-45327643D01*
X20544977Y-45385095D01*
X20430072Y-45442548D01*
X20315167Y-45442548D01*
X20200263Y-45385095D01*
X20142810Y-45327643D01*
X20085358Y-45212738D01*
X20027906Y-44982929D01*
X20027906Y-44695667D01*
X20085358Y-44465857D01*
X20142810Y-44350952D01*
X20200263Y-44293500D01*
X20315167Y-44236048D01*
X63419238Y-41942548D02*
X62729810Y-41942548D01*
X63074524Y-41942548D02*
X63074524Y-40736048D01*
X62959619Y-40908405D01*
X62844714Y-41023310D01*
X62729810Y-41080762D01*
X64166119Y-40736048D02*
X64281024Y-40736048D01*
X64395929Y-40793500D01*
X64453381Y-40850952D01*
X64510834Y-40965857D01*
X64568286Y-41195667D01*
X64568286Y-41482929D01*
X64510834Y-41712738D01*
X64453381Y-41827643D01*
X64395929Y-41885095D01*
X64281024Y-41942548D01*
X64166119Y-41942548D01*
X64051215Y-41885095D01*
X63993762Y-41827643D01*
X63936310Y-41712738D01*
X63878858Y-41482929D01*
X63878858Y-41195667D01*
X63936310Y-40965857D01*
X63993762Y-40850952D01*
X64051215Y-40793500D01*
X64166119Y-40736048D01*
X65085358Y-41942548D02*
X65085358Y-40736048D01*
X65200263Y-41482929D02*
X65544977Y-41942548D01*
X65544977Y-41138214D02*
X65085358Y-41597833D01*
X11361786Y-43942548D02*
X10787262Y-43942548D01*
X10787262Y-42736048D01*
X11763952Y-43310571D02*
X12166119Y-43310571D01*
X12338476Y-43942548D02*
X11763952Y-43942548D01*
X11763952Y-42736048D01*
X12338476Y-42736048D01*
X12855547Y-43942548D02*
X12855547Y-42736048D01*
X13142809Y-42736048D01*
X13315166Y-42793500D01*
X13430071Y-42908405D01*
X13487523Y-43023310D01*
X13544975Y-43253119D01*
X13544975Y-43425476D01*
X13487523Y-43655286D01*
X13430071Y-43770190D01*
X13315166Y-43885095D01*
X13142809Y-43942548D01*
X12855547Y-43942548D01*
X11361786Y-51942548D02*
X10787262Y-51942548D01*
X10787262Y-50736048D01*
X11763952Y-51310571D02*
X12166119Y-51310571D01*
X12338476Y-51942548D02*
X11763952Y-51942548D01*
X11763952Y-50736048D01*
X12338476Y-50736048D01*
X12855547Y-51942548D02*
X12855547Y-50736048D01*
X13142809Y-50736048D01*
X13315166Y-50793500D01*
X13430071Y-50908405D01*
X13487523Y-51023310D01*
X13544975Y-51253119D01*
X13544975Y-51425476D01*
X13487523Y-51655286D01*
X13430071Y-51770190D01*
X13315166Y-51885095D01*
X13142809Y-51942548D01*
X12855547Y-51942548D01*
X16442548Y-62138214D02*
X16442548Y-62712738D01*
X15236048Y-62712738D01*
X15810571Y-61736048D02*
X15810571Y-61333881D01*
X16442548Y-61161524D02*
X16442548Y-61736048D01*
X15236048Y-61736048D01*
X15236048Y-61161524D01*
X16442548Y-60644453D02*
X15236048Y-60644453D01*
X15236048Y-60357191D01*
X15293500Y-60184834D01*
X15408405Y-60069929D01*
X15523310Y-60012477D01*
X15753119Y-59955025D01*
X15925476Y-59955025D01*
X16155286Y-60012477D01*
X16270190Y-60069929D01*
X16385095Y-60184834D01*
X16442548Y-60357191D01*
X16442548Y-60644453D01*
X48861786Y-28442548D02*
X48287262Y-28442548D01*
X48287262Y-27236048D01*
X49263952Y-27810571D02*
X49666119Y-27810571D01*
X49838476Y-28442548D02*
X49263952Y-28442548D01*
X49263952Y-27236048D01*
X49838476Y-27236048D01*
X50355547Y-28442548D02*
X50355547Y-27236048D01*
X50642809Y-27236048D01*
X50815166Y-27293500D01*
X50930071Y-27408405D01*
X50987523Y-27523310D01*
X51044975Y-27753119D01*
X51044975Y-27925476D01*
X50987523Y-28155286D01*
X50930071Y-28270190D01*
X50815166Y-28385095D01*
X50642809Y-28442548D01*
X50355547Y-28442548D01*
X11361786Y-48942548D02*
X10787262Y-48942548D01*
X10787262Y-47736048D01*
X11763952Y-48310571D02*
X12166119Y-48310571D01*
X12338476Y-48942548D02*
X11763952Y-48942548D01*
X11763952Y-47736048D01*
X12338476Y-47736048D01*
X12855547Y-48942548D02*
X12855547Y-47736048D01*
X13142809Y-47736048D01*
X13315166Y-47793500D01*
X13430071Y-47908405D01*
X13487523Y-48023310D01*
X13544975Y-48253119D01*
X13544975Y-48425476D01*
X13487523Y-48655286D01*
X13430071Y-48770190D01*
X13315166Y-48885095D01*
X13142809Y-48942548D01*
X12855547Y-48942548D01*
X42804333Y-73138214D02*
X42804333Y-73942548D01*
X42517071Y-72678595D02*
X42229810Y-73540381D01*
X42976690Y-73540381D01*
X43436310Y-73827643D02*
X43493762Y-73885095D01*
X43436310Y-73942548D01*
X43378858Y-73885095D01*
X43436310Y-73827643D01*
X43436310Y-73942548D01*
X43895929Y-72736048D02*
X44700262Y-72736048D01*
X44183191Y-73942548D01*
X45676953Y-73138214D02*
X45676953Y-73942548D01*
X45159882Y-73138214D02*
X45159882Y-73770190D01*
X45217334Y-73885095D01*
X45332239Y-73942548D01*
X45504596Y-73942548D01*
X45619501Y-73885095D01*
X45676953Y-73827643D01*
X42804333Y-70638214D02*
X42804333Y-71442548D01*
X42517071Y-70178595D02*
X42229810Y-71040381D01*
X42976690Y-71040381D01*
X43436310Y-71327643D02*
X43493762Y-71385095D01*
X43436310Y-71442548D01*
X43378858Y-71385095D01*
X43436310Y-71327643D01*
X43436310Y-71442548D01*
X43895929Y-70236048D02*
X44700262Y-70236048D01*
X44183191Y-71442548D01*
X45676953Y-70638214D02*
X45676953Y-71442548D01*
X45159882Y-70638214D02*
X45159882Y-71270190D01*
X45217334Y-71385095D01*
X45332239Y-71442548D01*
X45504596Y-71442548D01*
X45619501Y-71385095D01*
X45676953Y-71327643D01*
X24736048Y-42982929D02*
X24736048Y-42868024D01*
X24793500Y-42753119D01*
X24850952Y-42695667D01*
X24965857Y-42638214D01*
X25195667Y-42580762D01*
X25482929Y-42580762D01*
X25712738Y-42638214D01*
X25827643Y-42695667D01*
X25885095Y-42753119D01*
X25942548Y-42868024D01*
X25942548Y-42982929D01*
X25885095Y-43097833D01*
X25827643Y-43155286D01*
X25712738Y-43212738D01*
X25482929Y-43270190D01*
X25195667Y-43270190D01*
X24965857Y-43212738D01*
X24850952Y-43155286D01*
X24793500Y-43097833D01*
X24736048Y-42982929D01*
X25827643Y-42063690D02*
X25885095Y-42006238D01*
X25942548Y-42063690D01*
X25885095Y-42121142D01*
X25827643Y-42063690D01*
X25942548Y-42063690D01*
X25942548Y-40857190D02*
X25942548Y-41546618D01*
X25942548Y-41201904D02*
X24736048Y-41201904D01*
X24908405Y-41316809D01*
X25023310Y-41431714D01*
X25080762Y-41546618D01*
X25138214Y-39823047D02*
X25942548Y-39823047D01*
X25138214Y-40340118D02*
X25770190Y-40340118D01*
X25885095Y-40282666D01*
X25942548Y-40167761D01*
X25942548Y-39995404D01*
X25885095Y-39880499D01*
X25827643Y-39823047D01*
X27419238Y-42442548D02*
X26729810Y-42442548D01*
X27074524Y-42442548D02*
X27074524Y-41236048D01*
X26959619Y-41408405D01*
X26844714Y-41523310D01*
X26729810Y-41580762D01*
X28166119Y-41236048D02*
X28281024Y-41236048D01*
X28395929Y-41293500D01*
X28453381Y-41350952D01*
X28510834Y-41465857D01*
X28568286Y-41695667D01*
X28568286Y-41982929D01*
X28510834Y-42212738D01*
X28453381Y-42327643D01*
X28395929Y-42385095D01*
X28281024Y-42442548D01*
X28166119Y-42442548D01*
X28051215Y-42385095D01*
X27993762Y-42327643D01*
X27936310Y-42212738D01*
X27878858Y-41982929D01*
X27878858Y-41695667D01*
X27936310Y-41465857D01*
X27993762Y-41350952D01*
X28051215Y-41293500D01*
X28166119Y-41236048D01*
X29085358Y-42442548D02*
X29085358Y-41236048D01*
X29200263Y-41982929D02*
X29544977Y-42442548D01*
X29544977Y-41638214D02*
X29085358Y-42097833D01*
D14*
X63448572Y-25165429D02*
X63956572Y-26689429D01*
X64464572Y-25165429D01*
X64972572Y-26108857D02*
X66133715Y-26108857D01*
X59465429Y-25451428D02*
X60989429Y-24943428D01*
X59465429Y-24435428D01*
X60408857Y-23927428D02*
X60408857Y-22766285D01*
X60989429Y-23346856D02*
X59828286Y-23346856D01*
X2648572Y-19665429D02*
X3156572Y-21189429D01*
X3664572Y-19665429D01*
X4172572Y-20608857D02*
X5333715Y-20608857D01*
X7865429Y-23951428D02*
X9389429Y-23443428D01*
X7865429Y-22935428D01*
X8808857Y-22427428D02*
X8808857Y-21266285D01*
X9389429Y-21846856D02*
X8228286Y-21846856D01*
X2648572Y-28165429D02*
X3156572Y-29689429D01*
X3664572Y-28165429D01*
X4172572Y-29108857D02*
X5333715Y-29108857D01*
X7865429Y-32451428D02*
X9389429Y-31943428D01*
X7865429Y-31435428D01*
X8808857Y-30927428D02*
X8808857Y-29766285D01*
X9389429Y-30346856D02*
X8228286Y-30346856D01*
D15*
X40442548Y-33712738D02*
X39236048Y-33712738D01*
X39236048Y-33425476D01*
X39293500Y-33253119D01*
X39408405Y-33138214D01*
X39523310Y-33080762D01*
X39753119Y-33023310D01*
X39925476Y-33023310D01*
X40155286Y-33080762D01*
X40270190Y-33138214D01*
X40385095Y-33253119D01*
X40442548Y-33425476D01*
X40442548Y-33712738D01*
X40442548Y-32506238D02*
X39236048Y-32506238D01*
X39236048Y-31701905D02*
X39236048Y-31472095D01*
X39293500Y-31357190D01*
X39408405Y-31242286D01*
X39638214Y-31184833D01*
X40040381Y-31184833D01*
X40270190Y-31242286D01*
X40385095Y-31357190D01*
X40442548Y-31472095D01*
X40442548Y-31701905D01*
X40385095Y-31816809D01*
X40270190Y-31931714D01*
X40040381Y-31989166D01*
X39638214Y-31989166D01*
X39408405Y-31931714D01*
X39293500Y-31816809D01*
X39236048Y-31701905D01*
X40442548Y-30667762D02*
X39236048Y-30667762D01*
X39236048Y-30380500D01*
X39293500Y-30208143D01*
X39408405Y-30093238D01*
X39523310Y-30035786D01*
X39753119Y-29978334D01*
X39925476Y-29978334D01*
X40155286Y-30035786D01*
X40270190Y-30093238D01*
X40385095Y-30208143D01*
X40442548Y-30380500D01*
X40442548Y-30667762D01*
X39810571Y-29461262D02*
X39810571Y-29059095D01*
X40442548Y-28886738D02*
X40442548Y-29461262D01*
X39236048Y-29461262D01*
X39236048Y-28886738D01*
X28442548Y-33712738D02*
X27236048Y-33712738D01*
X27236048Y-33425476D01*
X27293500Y-33253119D01*
X27408405Y-33138214D01*
X27523310Y-33080762D01*
X27753119Y-33023310D01*
X27925476Y-33023310D01*
X28155286Y-33080762D01*
X28270190Y-33138214D01*
X28385095Y-33253119D01*
X28442548Y-33425476D01*
X28442548Y-33712738D01*
X28442548Y-32506238D02*
X27236048Y-32506238D01*
X27236048Y-31701905D02*
X27236048Y-31472095D01*
X27293500Y-31357190D01*
X27408405Y-31242286D01*
X27638214Y-31184833D01*
X28040381Y-31184833D01*
X28270190Y-31242286D01*
X28385095Y-31357190D01*
X28442548Y-31472095D01*
X28442548Y-31701905D01*
X28385095Y-31816809D01*
X28270190Y-31931714D01*
X28040381Y-31989166D01*
X27638214Y-31989166D01*
X27408405Y-31931714D01*
X27293500Y-31816809D01*
X27236048Y-31701905D01*
X28442548Y-30667762D02*
X27236048Y-30667762D01*
X27236048Y-30380500D01*
X27293500Y-30208143D01*
X27408405Y-30093238D01*
X27523310Y-30035786D01*
X27753119Y-29978334D01*
X27925476Y-29978334D01*
X28155286Y-30035786D01*
X28270190Y-30093238D01*
X28385095Y-30208143D01*
X28442548Y-30380500D01*
X28442548Y-30667762D01*
X27810571Y-29461262D02*
X27810571Y-29059095D01*
X28442548Y-28886738D02*
X28442548Y-29461262D01*
X27236048Y-29461262D01*
X27236048Y-28886738D01*
X70942548Y-33712738D02*
X69736048Y-33712738D01*
X69736048Y-33425476D01*
X69793500Y-33253119D01*
X69908405Y-33138214D01*
X70023310Y-33080762D01*
X70253119Y-33023310D01*
X70425476Y-33023310D01*
X70655286Y-33080762D01*
X70770190Y-33138214D01*
X70885095Y-33253119D01*
X70942548Y-33425476D01*
X70942548Y-33712738D01*
X70942548Y-32506238D02*
X69736048Y-32506238D01*
X69736048Y-31701905D02*
X69736048Y-31472095D01*
X69793500Y-31357190D01*
X69908405Y-31242286D01*
X70138214Y-31184833D01*
X70540381Y-31184833D01*
X70770190Y-31242286D01*
X70885095Y-31357190D01*
X70942548Y-31472095D01*
X70942548Y-31701905D01*
X70885095Y-31816809D01*
X70770190Y-31931714D01*
X70540381Y-31989166D01*
X70138214Y-31989166D01*
X69908405Y-31931714D01*
X69793500Y-31816809D01*
X69736048Y-31701905D01*
X70942548Y-30667762D02*
X69736048Y-30667762D01*
X69736048Y-30380500D01*
X69793500Y-30208143D01*
X69908405Y-30093238D01*
X70023310Y-30035786D01*
X70253119Y-29978334D01*
X70425476Y-29978334D01*
X70655286Y-30035786D01*
X70770190Y-30093238D01*
X70885095Y-30208143D01*
X70942548Y-30380500D01*
X70942548Y-30667762D01*
X70310571Y-29461262D02*
X70310571Y-29059095D01*
X70942548Y-28886738D02*
X70942548Y-29461262D01*
X69736048Y-29461262D01*
X69736048Y-28886738D01*
X64442548Y-33712738D02*
X63236048Y-33712738D01*
X63236048Y-33425476D01*
X63293500Y-33253119D01*
X63408405Y-33138214D01*
X63523310Y-33080762D01*
X63753119Y-33023310D01*
X63925476Y-33023310D01*
X64155286Y-33080762D01*
X64270190Y-33138214D01*
X64385095Y-33253119D01*
X64442548Y-33425476D01*
X64442548Y-33712738D01*
X64442548Y-32506238D02*
X63236048Y-32506238D01*
X63236048Y-31701905D02*
X63236048Y-31472095D01*
X63293500Y-31357190D01*
X63408405Y-31242286D01*
X63638214Y-31184833D01*
X64040381Y-31184833D01*
X64270190Y-31242286D01*
X64385095Y-31357190D01*
X64442548Y-31472095D01*
X64442548Y-31701905D01*
X64385095Y-31816809D01*
X64270190Y-31931714D01*
X64040381Y-31989166D01*
X63638214Y-31989166D01*
X63408405Y-31931714D01*
X63293500Y-31816809D01*
X63236048Y-31701905D01*
X64442548Y-30667762D02*
X63236048Y-30667762D01*
X63236048Y-30380500D01*
X63293500Y-30208143D01*
X63408405Y-30093238D01*
X63523310Y-30035786D01*
X63753119Y-29978334D01*
X63925476Y-29978334D01*
X64155286Y-30035786D01*
X64270190Y-30093238D01*
X64385095Y-30208143D01*
X64442548Y-30380500D01*
X64442548Y-30667762D01*
X63810571Y-29461262D02*
X63810571Y-29059095D01*
X64442548Y-28886738D02*
X64442548Y-29461262D01*
X63236048Y-29461262D01*
X63236048Y-28886738D01*
X34442548Y-33712738D02*
X33236048Y-33712738D01*
X33236048Y-33425476D01*
X33293500Y-33253119D01*
X33408405Y-33138214D01*
X33523310Y-33080762D01*
X33753119Y-33023310D01*
X33925476Y-33023310D01*
X34155286Y-33080762D01*
X34270190Y-33138214D01*
X34385095Y-33253119D01*
X34442548Y-33425476D01*
X34442548Y-33712738D01*
X34442548Y-32506238D02*
X33236048Y-32506238D01*
X33236048Y-31701905D02*
X33236048Y-31472095D01*
X33293500Y-31357190D01*
X33408405Y-31242286D01*
X33638214Y-31184833D01*
X34040381Y-31184833D01*
X34270190Y-31242286D01*
X34385095Y-31357190D01*
X34442548Y-31472095D01*
X34442548Y-31701905D01*
X34385095Y-31816809D01*
X34270190Y-31931714D01*
X34040381Y-31989166D01*
X33638214Y-31989166D01*
X33408405Y-31931714D01*
X33293500Y-31816809D01*
X33236048Y-31701905D01*
X34442548Y-30667762D02*
X33236048Y-30667762D01*
X33236048Y-30380500D01*
X33293500Y-30208143D01*
X33408405Y-30093238D01*
X33523310Y-30035786D01*
X33753119Y-29978334D01*
X33925476Y-29978334D01*
X34155286Y-30035786D01*
X34270190Y-30093238D01*
X34385095Y-30208143D01*
X34442548Y-30380500D01*
X34442548Y-30667762D01*
X33810571Y-29461262D02*
X33810571Y-29059095D01*
X34442548Y-28886738D02*
X34442548Y-29461262D01*
X33236048Y-29461262D01*
X33236048Y-28886738D01*
X21942548Y-33712738D02*
X20736048Y-33712738D01*
X20736048Y-33425476D01*
X20793500Y-33253119D01*
X20908405Y-33138214D01*
X21023310Y-33080762D01*
X21253119Y-33023310D01*
X21425476Y-33023310D01*
X21655286Y-33080762D01*
X21770190Y-33138214D01*
X21885095Y-33253119D01*
X21942548Y-33425476D01*
X21942548Y-33712738D01*
X21942548Y-32506238D02*
X20736048Y-32506238D01*
X20736048Y-31701905D02*
X20736048Y-31472095D01*
X20793500Y-31357190D01*
X20908405Y-31242286D01*
X21138214Y-31184833D01*
X21540381Y-31184833D01*
X21770190Y-31242286D01*
X21885095Y-31357190D01*
X21942548Y-31472095D01*
X21942548Y-31701905D01*
X21885095Y-31816809D01*
X21770190Y-31931714D01*
X21540381Y-31989166D01*
X21138214Y-31989166D01*
X20908405Y-31931714D01*
X20793500Y-31816809D01*
X20736048Y-31701905D01*
X21942548Y-30667762D02*
X20736048Y-30667762D01*
X20736048Y-30380500D01*
X20793500Y-30208143D01*
X20908405Y-30093238D01*
X21023310Y-30035786D01*
X21253119Y-29978334D01*
X21425476Y-29978334D01*
X21655286Y-30035786D01*
X21770190Y-30093238D01*
X21885095Y-30208143D01*
X21942548Y-30380500D01*
X21942548Y-30667762D01*
X21310571Y-29461262D02*
X21310571Y-29059095D01*
X21942548Y-28886738D02*
X21942548Y-29461262D01*
X20736048Y-29461262D01*
X20736048Y-28886738D01*
X65942548Y-33712738D02*
X64736048Y-33712738D01*
X64736048Y-33425476D01*
X64793500Y-33253119D01*
X64908405Y-33138214D01*
X65023310Y-33080762D01*
X65253119Y-33023310D01*
X65425476Y-33023310D01*
X65655286Y-33080762D01*
X65770190Y-33138214D01*
X65885095Y-33253119D01*
X65942548Y-33425476D01*
X65942548Y-33712738D01*
X65942548Y-32506238D02*
X64736048Y-32506238D01*
X64736048Y-31701905D02*
X64736048Y-31472095D01*
X64793500Y-31357190D01*
X64908405Y-31242286D01*
X65138214Y-31184833D01*
X65540381Y-31184833D01*
X65770190Y-31242286D01*
X65885095Y-31357190D01*
X65942548Y-31472095D01*
X65942548Y-31701905D01*
X65885095Y-31816809D01*
X65770190Y-31931714D01*
X65540381Y-31989166D01*
X65138214Y-31989166D01*
X64908405Y-31931714D01*
X64793500Y-31816809D01*
X64736048Y-31701905D01*
X65942548Y-30667762D02*
X64736048Y-30667762D01*
X64736048Y-30380500D01*
X64793500Y-30208143D01*
X64908405Y-30093238D01*
X65023310Y-30035786D01*
X65253119Y-29978334D01*
X65425476Y-29978334D01*
X65655286Y-30035786D01*
X65770190Y-30093238D01*
X65885095Y-30208143D01*
X65942548Y-30380500D01*
X65942548Y-30667762D01*
X65310571Y-29461262D02*
X65310571Y-29059095D01*
X65942548Y-28886738D02*
X65942548Y-29461262D01*
X64736048Y-29461262D01*
X64736048Y-28886738D01*
X57942548Y-33712738D02*
X56736048Y-33712738D01*
X56736048Y-33425476D01*
X56793500Y-33253119D01*
X56908405Y-33138214D01*
X57023310Y-33080762D01*
X57253119Y-33023310D01*
X57425476Y-33023310D01*
X57655286Y-33080762D01*
X57770190Y-33138214D01*
X57885095Y-33253119D01*
X57942548Y-33425476D01*
X57942548Y-33712738D01*
X57942548Y-32506238D02*
X56736048Y-32506238D01*
X56736048Y-31701905D02*
X56736048Y-31472095D01*
X56793500Y-31357190D01*
X56908405Y-31242286D01*
X57138214Y-31184833D01*
X57540381Y-31184833D01*
X57770190Y-31242286D01*
X57885095Y-31357190D01*
X57942548Y-31472095D01*
X57942548Y-31701905D01*
X57885095Y-31816809D01*
X57770190Y-31931714D01*
X57540381Y-31989166D01*
X57138214Y-31989166D01*
X56908405Y-31931714D01*
X56793500Y-31816809D01*
X56736048Y-31701905D01*
X57942548Y-30667762D02*
X56736048Y-30667762D01*
X56736048Y-30380500D01*
X56793500Y-30208143D01*
X56908405Y-30093238D01*
X57023310Y-30035786D01*
X57253119Y-29978334D01*
X57425476Y-29978334D01*
X57655286Y-30035786D01*
X57770190Y-30093238D01*
X57885095Y-30208143D01*
X57942548Y-30380500D01*
X57942548Y-30667762D01*
X57310571Y-29461262D02*
X57310571Y-29059095D01*
X57942548Y-28886738D02*
X57942548Y-29461262D01*
X56736048Y-29461262D01*
X56736048Y-28886738D01*
X68361786Y-55442548D02*
X67787262Y-55442548D01*
X67787262Y-54236048D01*
X68763952Y-54810571D02*
X69166119Y-54810571D01*
X69338476Y-55442548D02*
X68763952Y-55442548D01*
X68763952Y-54236048D01*
X69338476Y-54236048D01*
X69855547Y-55442548D02*
X69855547Y-54236048D01*
X70142809Y-54236048D01*
X70315166Y-54293500D01*
X70430071Y-54408405D01*
X70487523Y-54523310D01*
X70544975Y-54753119D01*
X70544975Y-54925476D01*
X70487523Y-55155286D01*
X70430071Y-55270190D01*
X70315166Y-55385095D01*
X70142809Y-55442548D01*
X69855547Y-55442548D01*
X68361786Y-53942548D02*
X67787262Y-53942548D01*
X67787262Y-52736048D01*
X68763952Y-53310571D02*
X69166119Y-53310571D01*
X69338476Y-53942548D02*
X68763952Y-53942548D01*
X68763952Y-52736048D01*
X69338476Y-52736048D01*
X69855547Y-53942548D02*
X69855547Y-52736048D01*
X70142809Y-52736048D01*
X70315166Y-52793500D01*
X70430071Y-52908405D01*
X70487523Y-53023310D01*
X70544975Y-53253119D01*
X70544975Y-53425476D01*
X70487523Y-53655286D01*
X70430071Y-53770190D01*
X70315166Y-53885095D01*
X70142809Y-53942548D01*
X69855547Y-53942548D01*
X68361786Y-51942548D02*
X67787262Y-51942548D01*
X67787262Y-50736048D01*
X68763952Y-51310571D02*
X69166119Y-51310571D01*
X69338476Y-51942548D02*
X68763952Y-51942548D01*
X68763952Y-50736048D01*
X69338476Y-50736048D01*
X69855547Y-51942548D02*
X69855547Y-50736048D01*
X70142809Y-50736048D01*
X70315166Y-50793500D01*
X70430071Y-50908405D01*
X70487523Y-51023310D01*
X70544975Y-51253119D01*
X70544975Y-51425476D01*
X70487523Y-51655286D01*
X70430071Y-51770190D01*
X70315166Y-51885095D01*
X70142809Y-51942548D01*
X69855547Y-51942548D01*
X68361786Y-50442548D02*
X67787262Y-50442548D01*
X67787262Y-49236048D01*
X68763952Y-49810571D02*
X69166119Y-49810571D01*
X69338476Y-50442548D02*
X68763952Y-50442548D01*
X68763952Y-49236048D01*
X69338476Y-49236048D01*
X69855547Y-50442548D02*
X69855547Y-49236048D01*
X70142809Y-49236048D01*
X70315166Y-49293500D01*
X70430071Y-49408405D01*
X70487523Y-49523310D01*
X70544975Y-49753119D01*
X70544975Y-49925476D01*
X70487523Y-50155286D01*
X70430071Y-50270190D01*
X70315166Y-50385095D01*
X70142809Y-50442548D01*
X69855547Y-50442548D01*
X59919238Y-55442548D02*
X59229810Y-55442548D01*
X59574524Y-55442548D02*
X59574524Y-54236048D01*
X59459619Y-54408405D01*
X59344714Y-54523310D01*
X59229810Y-54580762D01*
X60666119Y-54236048D02*
X60781024Y-54236048D01*
X60895929Y-54293500D01*
X60953381Y-54350952D01*
X61010834Y-54465857D01*
X61068286Y-54695667D01*
X61068286Y-54982929D01*
X61010834Y-55212738D01*
X60953381Y-55327643D01*
X60895929Y-55385095D01*
X60781024Y-55442548D01*
X60666119Y-55442548D01*
X60551215Y-55385095D01*
X60493762Y-55327643D01*
X60436310Y-55212738D01*
X60378858Y-54982929D01*
X60378858Y-54695667D01*
X60436310Y-54465857D01*
X60493762Y-54350952D01*
X60551215Y-54293500D01*
X60666119Y-54236048D01*
X61815167Y-54236048D02*
X61930072Y-54236048D01*
X62044977Y-54293500D01*
X62102429Y-54350952D01*
X62159882Y-54465857D01*
X62217334Y-54695667D01*
X62217334Y-54982929D01*
X62159882Y-55212738D01*
X62102429Y-55327643D01*
X62044977Y-55385095D01*
X61930072Y-55442548D01*
X61815167Y-55442548D01*
X61700263Y-55385095D01*
X61642810Y-55327643D01*
X61585358Y-55212738D01*
X61527906Y-54982929D01*
X61527906Y-54695667D01*
X61585358Y-54465857D01*
X61642810Y-54350952D01*
X61700263Y-54293500D01*
X61815167Y-54236048D01*
X59919238Y-53942548D02*
X59229810Y-53942548D01*
X59574524Y-53942548D02*
X59574524Y-52736048D01*
X59459619Y-52908405D01*
X59344714Y-53023310D01*
X59229810Y-53080762D01*
X60666119Y-52736048D02*
X60781024Y-52736048D01*
X60895929Y-52793500D01*
X60953381Y-52850952D01*
X61010834Y-52965857D01*
X61068286Y-53195667D01*
X61068286Y-53482929D01*
X61010834Y-53712738D01*
X60953381Y-53827643D01*
X60895929Y-53885095D01*
X60781024Y-53942548D01*
X60666119Y-53942548D01*
X60551215Y-53885095D01*
X60493762Y-53827643D01*
X60436310Y-53712738D01*
X60378858Y-53482929D01*
X60378858Y-53195667D01*
X60436310Y-52965857D01*
X60493762Y-52850952D01*
X60551215Y-52793500D01*
X60666119Y-52736048D01*
X61815167Y-52736048D02*
X61930072Y-52736048D01*
X62044977Y-52793500D01*
X62102429Y-52850952D01*
X62159882Y-52965857D01*
X62217334Y-53195667D01*
X62217334Y-53482929D01*
X62159882Y-53712738D01*
X62102429Y-53827643D01*
X62044977Y-53885095D01*
X61930072Y-53942548D01*
X61815167Y-53942548D01*
X61700263Y-53885095D01*
X61642810Y-53827643D01*
X61585358Y-53712738D01*
X61527906Y-53482929D01*
X61527906Y-53195667D01*
X61585358Y-52965857D01*
X61642810Y-52850952D01*
X61700263Y-52793500D01*
X61815167Y-52736048D01*
X59919238Y-52442548D02*
X59229810Y-52442548D01*
X59574524Y-52442548D02*
X59574524Y-51236048D01*
X59459619Y-51408405D01*
X59344714Y-51523310D01*
X59229810Y-51580762D01*
X60666119Y-51236048D02*
X60781024Y-51236048D01*
X60895929Y-51293500D01*
X60953381Y-51350952D01*
X61010834Y-51465857D01*
X61068286Y-51695667D01*
X61068286Y-51982929D01*
X61010834Y-52212738D01*
X60953381Y-52327643D01*
X60895929Y-52385095D01*
X60781024Y-52442548D01*
X60666119Y-52442548D01*
X60551215Y-52385095D01*
X60493762Y-52327643D01*
X60436310Y-52212738D01*
X60378858Y-51982929D01*
X60378858Y-51695667D01*
X60436310Y-51465857D01*
X60493762Y-51350952D01*
X60551215Y-51293500D01*
X60666119Y-51236048D01*
X61815167Y-51236048D02*
X61930072Y-51236048D01*
X62044977Y-51293500D01*
X62102429Y-51350952D01*
X62159882Y-51465857D01*
X62217334Y-51695667D01*
X62217334Y-51982929D01*
X62159882Y-52212738D01*
X62102429Y-52327643D01*
X62044977Y-52385095D01*
X61930072Y-52442548D01*
X61815167Y-52442548D01*
X61700263Y-52385095D01*
X61642810Y-52327643D01*
X61585358Y-52212738D01*
X61527906Y-51982929D01*
X61527906Y-51695667D01*
X61585358Y-51465857D01*
X61642810Y-51350952D01*
X61700263Y-51293500D01*
X61815167Y-51236048D01*
X59919238Y-50942548D02*
X59229810Y-50942548D01*
X59574524Y-50942548D02*
X59574524Y-49736048D01*
X59459619Y-49908405D01*
X59344714Y-50023310D01*
X59229810Y-50080762D01*
X60666119Y-49736048D02*
X60781024Y-49736048D01*
X60895929Y-49793500D01*
X60953381Y-49850952D01*
X61010834Y-49965857D01*
X61068286Y-50195667D01*
X61068286Y-50482929D01*
X61010834Y-50712738D01*
X60953381Y-50827643D01*
X60895929Y-50885095D01*
X60781024Y-50942548D01*
X60666119Y-50942548D01*
X60551215Y-50885095D01*
X60493762Y-50827643D01*
X60436310Y-50712738D01*
X60378858Y-50482929D01*
X60378858Y-50195667D01*
X60436310Y-49965857D01*
X60493762Y-49850952D01*
X60551215Y-49793500D01*
X60666119Y-49736048D01*
X61815167Y-49736048D02*
X61930072Y-49736048D01*
X62044977Y-49793500D01*
X62102429Y-49850952D01*
X62159882Y-49965857D01*
X62217334Y-50195667D01*
X62217334Y-50482929D01*
X62159882Y-50712738D01*
X62102429Y-50827643D01*
X62044977Y-50885095D01*
X61930072Y-50942548D01*
X61815167Y-50942548D01*
X61700263Y-50885095D01*
X61642810Y-50827643D01*
X61585358Y-50712738D01*
X61527906Y-50482929D01*
X61527906Y-50195667D01*
X61585358Y-49965857D01*
X61642810Y-49850952D01*
X61700263Y-49793500D01*
X61815167Y-49736048D01*
X68361786Y-48942548D02*
X67787262Y-48942548D01*
X67787262Y-47736048D01*
X68763952Y-48310571D02*
X69166119Y-48310571D01*
X69338476Y-48942548D02*
X68763952Y-48942548D01*
X68763952Y-47736048D01*
X69338476Y-47736048D01*
X69855547Y-48942548D02*
X69855547Y-47736048D01*
X70142809Y-47736048D01*
X70315166Y-47793500D01*
X70430071Y-47908405D01*
X70487523Y-48023310D01*
X70544975Y-48253119D01*
X70544975Y-48425476D01*
X70487523Y-48655286D01*
X70430071Y-48770190D01*
X70315166Y-48885095D01*
X70142809Y-48942548D01*
X69855547Y-48942548D01*
X68361786Y-47442548D02*
X67787262Y-47442548D01*
X67787262Y-46236048D01*
X68763952Y-46810571D02*
X69166119Y-46810571D01*
X69338476Y-47442548D02*
X68763952Y-47442548D01*
X68763952Y-46236048D01*
X69338476Y-46236048D01*
X69855547Y-47442548D02*
X69855547Y-46236048D01*
X70142809Y-46236048D01*
X70315166Y-46293500D01*
X70430071Y-46408405D01*
X70487523Y-46523310D01*
X70544975Y-46753119D01*
X70544975Y-46925476D01*
X70487523Y-47155286D01*
X70430071Y-47270190D01*
X70315166Y-47385095D01*
X70142809Y-47442548D01*
X69855547Y-47442548D01*
X68361786Y-45942548D02*
X67787262Y-45942548D01*
X67787262Y-44736048D01*
X68763952Y-45310571D02*
X69166119Y-45310571D01*
X69338476Y-45942548D02*
X68763952Y-45942548D01*
X68763952Y-44736048D01*
X69338476Y-44736048D01*
X69855547Y-45942548D02*
X69855547Y-44736048D01*
X70142809Y-44736048D01*
X70315166Y-44793500D01*
X70430071Y-44908405D01*
X70487523Y-45023310D01*
X70544975Y-45253119D01*
X70544975Y-45425476D01*
X70487523Y-45655286D01*
X70430071Y-45770190D01*
X70315166Y-45885095D01*
X70142809Y-45942548D01*
X69855547Y-45942548D01*
X68361786Y-44442548D02*
X67787262Y-44442548D01*
X67787262Y-43236048D01*
X68763952Y-43810571D02*
X69166119Y-43810571D01*
X69338476Y-44442548D02*
X68763952Y-44442548D01*
X68763952Y-43236048D01*
X69338476Y-43236048D01*
X69855547Y-44442548D02*
X69855547Y-43236048D01*
X70142809Y-43236048D01*
X70315166Y-43293500D01*
X70430071Y-43408405D01*
X70487523Y-43523310D01*
X70544975Y-43753119D01*
X70544975Y-43925476D01*
X70487523Y-44155286D01*
X70430071Y-44270190D01*
X70315166Y-44385095D01*
X70142809Y-44442548D01*
X69855547Y-44442548D01*
X59919238Y-48942548D02*
X59229810Y-48942548D01*
X59574524Y-48942548D02*
X59574524Y-47736048D01*
X59459619Y-47908405D01*
X59344714Y-48023310D01*
X59229810Y-48080762D01*
X60666119Y-47736048D02*
X60781024Y-47736048D01*
X60895929Y-47793500D01*
X60953381Y-47850952D01*
X61010834Y-47965857D01*
X61068286Y-48195667D01*
X61068286Y-48482929D01*
X61010834Y-48712738D01*
X60953381Y-48827643D01*
X60895929Y-48885095D01*
X60781024Y-48942548D01*
X60666119Y-48942548D01*
X60551215Y-48885095D01*
X60493762Y-48827643D01*
X60436310Y-48712738D01*
X60378858Y-48482929D01*
X60378858Y-48195667D01*
X60436310Y-47965857D01*
X60493762Y-47850952D01*
X60551215Y-47793500D01*
X60666119Y-47736048D01*
X61815167Y-47736048D02*
X61930072Y-47736048D01*
X62044977Y-47793500D01*
X62102429Y-47850952D01*
X62159882Y-47965857D01*
X62217334Y-48195667D01*
X62217334Y-48482929D01*
X62159882Y-48712738D01*
X62102429Y-48827643D01*
X62044977Y-48885095D01*
X61930072Y-48942548D01*
X61815167Y-48942548D01*
X61700263Y-48885095D01*
X61642810Y-48827643D01*
X61585358Y-48712738D01*
X61527906Y-48482929D01*
X61527906Y-48195667D01*
X61585358Y-47965857D01*
X61642810Y-47850952D01*
X61700263Y-47793500D01*
X61815167Y-47736048D01*
X59919238Y-47442548D02*
X59229810Y-47442548D01*
X59574524Y-47442548D02*
X59574524Y-46236048D01*
X59459619Y-46408405D01*
X59344714Y-46523310D01*
X59229810Y-46580762D01*
X60666119Y-46236048D02*
X60781024Y-46236048D01*
X60895929Y-46293500D01*
X60953381Y-46350952D01*
X61010834Y-46465857D01*
X61068286Y-46695667D01*
X61068286Y-46982929D01*
X61010834Y-47212738D01*
X60953381Y-47327643D01*
X60895929Y-47385095D01*
X60781024Y-47442548D01*
X60666119Y-47442548D01*
X60551215Y-47385095D01*
X60493762Y-47327643D01*
X60436310Y-47212738D01*
X60378858Y-46982929D01*
X60378858Y-46695667D01*
X60436310Y-46465857D01*
X60493762Y-46350952D01*
X60551215Y-46293500D01*
X60666119Y-46236048D01*
X61815167Y-46236048D02*
X61930072Y-46236048D01*
X62044977Y-46293500D01*
X62102429Y-46350952D01*
X62159882Y-46465857D01*
X62217334Y-46695667D01*
X62217334Y-46982929D01*
X62159882Y-47212738D01*
X62102429Y-47327643D01*
X62044977Y-47385095D01*
X61930072Y-47442548D01*
X61815167Y-47442548D01*
X61700263Y-47385095D01*
X61642810Y-47327643D01*
X61585358Y-47212738D01*
X61527906Y-46982929D01*
X61527906Y-46695667D01*
X61585358Y-46465857D01*
X61642810Y-46350952D01*
X61700263Y-46293500D01*
X61815167Y-46236048D01*
X59919238Y-45942548D02*
X59229810Y-45942548D01*
X59574524Y-45942548D02*
X59574524Y-44736048D01*
X59459619Y-44908405D01*
X59344714Y-45023310D01*
X59229810Y-45080762D01*
X60666119Y-44736048D02*
X60781024Y-44736048D01*
X60895929Y-44793500D01*
X60953381Y-44850952D01*
X61010834Y-44965857D01*
X61068286Y-45195667D01*
X61068286Y-45482929D01*
X61010834Y-45712738D01*
X60953381Y-45827643D01*
X60895929Y-45885095D01*
X60781024Y-45942548D01*
X60666119Y-45942548D01*
X60551215Y-45885095D01*
X60493762Y-45827643D01*
X60436310Y-45712738D01*
X60378858Y-45482929D01*
X60378858Y-45195667D01*
X60436310Y-44965857D01*
X60493762Y-44850952D01*
X60551215Y-44793500D01*
X60666119Y-44736048D01*
X61815167Y-44736048D02*
X61930072Y-44736048D01*
X62044977Y-44793500D01*
X62102429Y-44850952D01*
X62159882Y-44965857D01*
X62217334Y-45195667D01*
X62217334Y-45482929D01*
X62159882Y-45712738D01*
X62102429Y-45827643D01*
X62044977Y-45885095D01*
X61930072Y-45942548D01*
X61815167Y-45942548D01*
X61700263Y-45885095D01*
X61642810Y-45827643D01*
X61585358Y-45712738D01*
X61527906Y-45482929D01*
X61527906Y-45195667D01*
X61585358Y-44965857D01*
X61642810Y-44850952D01*
X61700263Y-44793500D01*
X61815167Y-44736048D01*
X59919238Y-44442548D02*
X59229810Y-44442548D01*
X59574524Y-44442548D02*
X59574524Y-43236048D01*
X59459619Y-43408405D01*
X59344714Y-43523310D01*
X59229810Y-43580762D01*
X60666119Y-43236048D02*
X60781024Y-43236048D01*
X60895929Y-43293500D01*
X60953381Y-43350952D01*
X61010834Y-43465857D01*
X61068286Y-43695667D01*
X61068286Y-43982929D01*
X61010834Y-44212738D01*
X60953381Y-44327643D01*
X60895929Y-44385095D01*
X60781024Y-44442548D01*
X60666119Y-44442548D01*
X60551215Y-44385095D01*
X60493762Y-44327643D01*
X60436310Y-44212738D01*
X60378858Y-43982929D01*
X60378858Y-43695667D01*
X60436310Y-43465857D01*
X60493762Y-43350952D01*
X60551215Y-43293500D01*
X60666119Y-43236048D01*
X61815167Y-43236048D02*
X61930072Y-43236048D01*
X62044977Y-43293500D01*
X62102429Y-43350952D01*
X62159882Y-43465857D01*
X62217334Y-43695667D01*
X62217334Y-43982929D01*
X62159882Y-44212738D01*
X62102429Y-44327643D01*
X62044977Y-44385095D01*
X61930072Y-44442548D01*
X61815167Y-44442548D01*
X61700263Y-44385095D01*
X61642810Y-44327643D01*
X61585358Y-44212738D01*
X61527906Y-43982929D01*
X61527906Y-43695667D01*
X61585358Y-43465857D01*
X61642810Y-43350952D01*
X61700263Y-43293500D01*
X61815167Y-43236048D01*
X28517262Y-65982548D02*
X28517262Y-64776048D01*
X28804524Y-64776048D01*
X28976881Y-64833500D01*
X29091786Y-64948405D01*
X29149238Y-65063310D01*
X29206690Y-65293119D01*
X29206690Y-65465476D01*
X29149238Y-65695286D01*
X29091786Y-65810190D01*
X28976881Y-65925095D01*
X28804524Y-65982548D01*
X28517262Y-65982548D01*
X29723762Y-65982548D02*
X29723762Y-64776048D01*
X30528095Y-64776048D02*
X30757905Y-64776048D01*
X30872810Y-64833500D01*
X30987714Y-64948405D01*
X31045167Y-65178214D01*
X31045167Y-65580381D01*
X30987714Y-65810190D01*
X30872810Y-65925095D01*
X30757905Y-65982548D01*
X30528095Y-65982548D01*
X30413191Y-65925095D01*
X30298286Y-65810190D01*
X30240834Y-65580381D01*
X30240834Y-65178214D01*
X30298286Y-64948405D01*
X30413191Y-64833500D01*
X30528095Y-64776048D01*
X31562238Y-65982548D02*
X31562238Y-64776048D01*
X31849500Y-64776048D01*
X32021857Y-64833500D01*
X32136762Y-64948405D01*
X32194214Y-65063310D01*
X32251666Y-65293119D01*
X32251666Y-65465476D01*
X32194214Y-65695286D01*
X32136762Y-65810190D01*
X32021857Y-65925095D01*
X31849500Y-65982548D01*
X31562238Y-65982548D01*
X32768738Y-65350571D02*
X33170905Y-65350571D01*
X33343262Y-65982548D02*
X32768738Y-65982548D01*
X32768738Y-64776048D01*
X33343262Y-64776048D01*
M02*
