G04 #@! TF.FileFunction,Legend,Bot*
%FSLAX46Y46*%
G04 Gerber Fmt 4.6, Leading zero omitted, Abs format (unit mm)*
G04 Created by KiCad (PCBNEW 4.0.5) date 02/04/17 19:18:08*
%MOMM*%
%LPD*%
G01*
G04 APERTURE LIST*
%ADD10C,0.100000*%
%ADD11C,0.300000*%
%ADD12C,0.150000*%
%ADD13C,0.500000*%
%ADD14C,0.101600*%
G04 APERTURE END LIST*
D10*
D11*
X28357143Y-58750000D02*
X29071429Y-58750000D01*
X28214286Y-58321429D02*
X28714286Y-59821429D01*
X29214286Y-58321429D01*
X29714286Y-58321429D02*
X29714286Y-59821429D01*
X30571429Y-58321429D01*
X30571429Y-59821429D01*
X68107143Y-59107143D02*
X68321429Y-59035714D01*
X68392857Y-58964286D01*
X68464286Y-58821429D01*
X68464286Y-58607143D01*
X68392857Y-58464286D01*
X68321429Y-58392857D01*
X68178571Y-58321429D01*
X67607143Y-58321429D01*
X67607143Y-59821429D01*
X68107143Y-59821429D01*
X68250000Y-59750000D01*
X68321429Y-59678571D01*
X68392857Y-59535714D01*
X68392857Y-59392857D01*
X68321429Y-59250000D01*
X68250000Y-59178571D01*
X68107143Y-59107143D01*
X67607143Y-59107143D01*
X55821429Y-59107143D02*
X56035715Y-59035714D01*
X56107143Y-58964286D01*
X56178572Y-58821429D01*
X56178572Y-58607143D01*
X56107143Y-58464286D01*
X56035715Y-58392857D01*
X55892857Y-58321429D01*
X55321429Y-58321429D01*
X55321429Y-59821429D01*
X55821429Y-59821429D01*
X55964286Y-59750000D01*
X56035715Y-59678571D01*
X56107143Y-59535714D01*
X56107143Y-59392857D01*
X56035715Y-59250000D01*
X55964286Y-59178571D01*
X55821429Y-59107143D01*
X55321429Y-59107143D01*
X56821429Y-58321429D02*
X56821429Y-59821429D01*
X57678572Y-58321429D01*
X57678572Y-59821429D01*
X41642857Y-58750000D02*
X42357143Y-58750000D01*
X41500000Y-58321429D02*
X42000000Y-59821429D01*
X42500000Y-58321429D01*
D10*
X34500000Y-18500000D02*
X34500000Y-19000000D01*
X34500000Y-19000000D02*
X33500000Y-19000000D01*
X33500000Y-19000000D02*
X33500000Y-18500000D01*
X32000000Y-18500000D02*
X32000000Y-23000000D01*
X32000000Y-23000000D02*
X31000000Y-23000000D01*
X31000000Y-23000000D02*
X31000000Y-18500000D01*
X37000000Y-18500000D02*
X37000000Y-23000000D01*
X37000000Y-23000000D02*
X36000000Y-23000000D01*
X36000000Y-23000000D02*
X36000000Y-18500000D01*
X29500000Y-8000000D02*
X38500000Y-8000000D01*
X38500000Y-8000000D02*
X39000000Y-8500000D01*
X29000000Y-8500000D02*
X29500000Y-8000000D01*
X29000000Y-9500000D02*
X29000000Y-8500000D01*
X39000000Y-9500000D02*
X39000000Y-8500000D01*
X39000000Y-9500000D02*
X39000000Y-18500000D01*
X29000000Y-9500000D02*
X39000000Y-9500000D01*
X29000000Y-18500000D02*
X29000000Y-9500000D01*
X29000000Y-18500000D02*
X39000000Y-18500000D01*
D12*
X35925000Y-65425000D02*
X36070000Y-65425000D01*
X35925000Y-69575000D02*
X36070000Y-69575000D01*
X41075000Y-69575000D02*
X40930000Y-69575000D01*
X41075000Y-65425000D02*
X40930000Y-65425000D01*
X35925000Y-65425000D02*
X35925000Y-69575000D01*
X41075000Y-65425000D02*
X41075000Y-69575000D01*
X36070000Y-65425000D02*
X36070000Y-64025000D01*
X39075000Y-38075000D02*
X38970000Y-38075000D01*
X39075000Y-33925000D02*
X38970000Y-33925000D01*
X28925000Y-33925000D02*
X29030000Y-33925000D01*
X28925000Y-38075000D02*
X29030000Y-38075000D01*
X39075000Y-38075000D02*
X39075000Y-33925000D01*
X28925000Y-38075000D02*
X28925000Y-33925000D01*
X38970000Y-38075000D02*
X38970000Y-39450000D01*
X47976000Y-15397000D02*
X51151000Y-15397000D01*
X51151000Y-15397000D02*
X51151000Y-17175000D01*
X51151000Y-17175000D02*
X47976000Y-17175000D01*
X47976000Y-10825000D02*
X51151000Y-10825000D01*
X51151000Y-10825000D02*
X51151000Y-12603000D01*
X51151000Y-12603000D02*
X47976000Y-12603000D01*
X41880000Y-17429000D02*
X47976000Y-17429000D01*
X47976000Y-17429000D02*
X47976000Y-10571000D01*
X47976000Y-10571000D02*
X40102000Y-10571000D01*
X39975000Y-10571000D02*
X39975000Y-17429000D01*
X40102000Y-17429000D02*
X41880000Y-17429000D01*
X27075000Y-38075000D02*
X26970000Y-38075000D01*
X27075000Y-33925000D02*
X26970000Y-33925000D01*
X16925000Y-33925000D02*
X17030000Y-33925000D01*
X16925000Y-38075000D02*
X17030000Y-38075000D01*
X27075000Y-38075000D02*
X27075000Y-33925000D01*
X16925000Y-38075000D02*
X16925000Y-33925000D01*
X26970000Y-38075000D02*
X26970000Y-39450000D01*
X75075000Y-38075000D02*
X74970000Y-38075000D01*
X75075000Y-33925000D02*
X74970000Y-33925000D01*
X64925000Y-33925000D02*
X65030000Y-33925000D01*
X64925000Y-38075000D02*
X65030000Y-38075000D01*
X75075000Y-38075000D02*
X75075000Y-33925000D01*
X64925000Y-38075000D02*
X64925000Y-33925000D01*
X74970000Y-38075000D02*
X74970000Y-39450000D01*
X63075000Y-38075000D02*
X62970000Y-38075000D01*
X63075000Y-33925000D02*
X62970000Y-33925000D01*
X52925000Y-33925000D02*
X53030000Y-33925000D01*
X52925000Y-38075000D02*
X53030000Y-38075000D01*
X63075000Y-38075000D02*
X63075000Y-33925000D01*
X52925000Y-38075000D02*
X52925000Y-33925000D01*
X62970000Y-38075000D02*
X62970000Y-39450000D01*
X56049140Y-50750060D02*
X56049140Y-50399540D01*
X56049140Y-47249940D02*
X56049140Y-47600460D01*
X51999560Y-50750060D02*
X51999560Y-50399540D01*
X56500440Y-50750060D02*
X56500440Y-50399540D01*
X56500440Y-47249940D02*
X56500440Y-47600460D01*
X51999560Y-47249940D02*
X51999560Y-47600460D01*
X56500440Y-50750060D02*
X51999560Y-50750060D01*
X56500440Y-47249940D02*
X51999560Y-47249940D01*
X1095000Y-53611000D02*
X4905000Y-53611000D01*
X4905000Y-53611000D02*
X4905000Y-55389000D01*
X4905000Y-55389000D02*
X1095000Y-55389000D01*
X1095000Y-53611000D02*
X1095000Y-55389000D01*
X47200860Y-7249940D02*
X47200860Y-7600460D01*
X47200860Y-10750060D02*
X47200860Y-10399540D01*
X51250440Y-7249940D02*
X51250440Y-7600460D01*
X46749560Y-7249940D02*
X46749560Y-7600460D01*
X46749560Y-10750060D02*
X46749560Y-10399540D01*
X51250440Y-10750060D02*
X51250440Y-10399540D01*
X46749560Y-7249940D02*
X51250440Y-7249940D01*
X46749560Y-10750060D02*
X51250440Y-10750060D01*
D13*
X49300000Y-53500000D02*
X49300000Y-50400000D01*
X42700000Y-53500000D02*
X42700000Y-50400000D01*
X42700000Y-50400000D02*
X49300000Y-50400000D01*
X42700000Y-53500000D02*
X49300000Y-53500000D01*
D12*
X81897000Y-60024000D02*
X81897000Y-56849000D01*
X81897000Y-56849000D02*
X83675000Y-56849000D01*
X83675000Y-56849000D02*
X83675000Y-60024000D01*
X77325000Y-60024000D02*
X77325000Y-56849000D01*
X77325000Y-56849000D02*
X79103000Y-56849000D01*
X79103000Y-56849000D02*
X79103000Y-60024000D01*
X83929000Y-66120000D02*
X83929000Y-60024000D01*
X83929000Y-60024000D02*
X77071000Y-60024000D01*
X77071000Y-60024000D02*
X77071000Y-67898000D01*
X77071000Y-68025000D02*
X83929000Y-68025000D01*
X83929000Y-67898000D02*
X83929000Y-66120000D01*
D10*
X22500000Y-18500000D02*
X22500000Y-19000000D01*
X22500000Y-19000000D02*
X21500000Y-19000000D01*
X21500000Y-19000000D02*
X21500000Y-18500000D01*
X20000000Y-18500000D02*
X20000000Y-23000000D01*
X20000000Y-23000000D02*
X19000000Y-23000000D01*
X19000000Y-23000000D02*
X19000000Y-18500000D01*
X25000000Y-18500000D02*
X25000000Y-23000000D01*
X25000000Y-23000000D02*
X24000000Y-23000000D01*
X24000000Y-23000000D02*
X24000000Y-18500000D01*
X17500000Y-8000000D02*
X26500000Y-8000000D01*
X26500000Y-8000000D02*
X27000000Y-8500000D01*
X17000000Y-8500000D02*
X17500000Y-8000000D01*
X17000000Y-9500000D02*
X17000000Y-8500000D01*
X27000000Y-9500000D02*
X27000000Y-8500000D01*
X27000000Y-9500000D02*
X27000000Y-18500000D01*
X17000000Y-9500000D02*
X27000000Y-9500000D01*
X17000000Y-18500000D02*
X17000000Y-9500000D01*
X17000000Y-18500000D02*
X27000000Y-18500000D01*
X58500000Y-18500000D02*
X58500000Y-19000000D01*
X58500000Y-19000000D02*
X57500000Y-19000000D01*
X57500000Y-19000000D02*
X57500000Y-18500000D01*
X56000000Y-18500000D02*
X56000000Y-23000000D01*
X56000000Y-23000000D02*
X55000000Y-23000000D01*
X55000000Y-23000000D02*
X55000000Y-18500000D01*
X61000000Y-18500000D02*
X61000000Y-23000000D01*
X61000000Y-23000000D02*
X60000000Y-23000000D01*
X60000000Y-23000000D02*
X60000000Y-18500000D01*
X53500000Y-8000000D02*
X62500000Y-8000000D01*
X62500000Y-8000000D02*
X63000000Y-8500000D01*
X53000000Y-8500000D02*
X53500000Y-8000000D01*
X53000000Y-9500000D02*
X53000000Y-8500000D01*
X63000000Y-9500000D02*
X63000000Y-8500000D01*
X63000000Y-9500000D02*
X63000000Y-18500000D01*
X53000000Y-9500000D02*
X63000000Y-9500000D01*
X53000000Y-18500000D02*
X53000000Y-9500000D01*
X53000000Y-18500000D02*
X63000000Y-18500000D01*
X70500000Y-18500000D02*
X70500000Y-19000000D01*
X70500000Y-19000000D02*
X69500000Y-19000000D01*
X69500000Y-19000000D02*
X69500000Y-18500000D01*
X68000000Y-18500000D02*
X68000000Y-23000000D01*
X68000000Y-23000000D02*
X67000000Y-23000000D01*
X67000000Y-23000000D02*
X67000000Y-18500000D01*
X73000000Y-18500000D02*
X73000000Y-23000000D01*
X73000000Y-23000000D02*
X72000000Y-23000000D01*
X72000000Y-23000000D02*
X72000000Y-18500000D01*
X65500000Y-8000000D02*
X74500000Y-8000000D01*
X74500000Y-8000000D02*
X75000000Y-8500000D01*
X65000000Y-8500000D02*
X65500000Y-8000000D01*
X65000000Y-9500000D02*
X65000000Y-8500000D01*
X75000000Y-9500000D02*
X75000000Y-8500000D01*
X75000000Y-9500000D02*
X75000000Y-18500000D01*
X65000000Y-9500000D02*
X75000000Y-9500000D01*
X65000000Y-18500000D02*
X65000000Y-9500000D01*
X65000000Y-18500000D02*
X75000000Y-18500000D01*
D12*
X60625000Y-62950000D02*
X60625000Y-62605000D01*
X68375000Y-62950000D02*
X68375000Y-62605000D01*
X68375000Y-51050000D02*
X68375000Y-51395000D01*
X60625000Y-51050000D02*
X60625000Y-51395000D01*
X60625000Y-62950000D02*
X68375000Y-62950000D01*
X60625000Y-51050000D02*
X68375000Y-51050000D01*
X60625000Y-62605000D02*
X58800000Y-62605000D01*
D14*
X40138214Y-28804333D02*
X40942548Y-28804333D01*
X39678595Y-28517071D02*
X40540381Y-28229810D01*
X40540381Y-28976690D01*
X40827643Y-29436310D02*
X40885095Y-29493762D01*
X40942548Y-29436310D01*
X40885095Y-29378858D01*
X40827643Y-29436310D01*
X40942548Y-29436310D01*
X39736048Y-29895929D02*
X39736048Y-30700262D01*
X40942548Y-30183191D01*
X40138214Y-31676953D02*
X40942548Y-31676953D01*
X40138214Y-31159882D02*
X40770190Y-31159882D01*
X40885095Y-31217334D01*
X40942548Y-31332239D01*
X40942548Y-31504596D01*
X40885095Y-31619501D01*
X40827643Y-31676953D01*
X27138214Y-30304333D02*
X27942548Y-30304333D01*
X26678595Y-30017071D02*
X27540381Y-29729810D01*
X27540381Y-30476690D01*
X27827643Y-30936310D02*
X27885095Y-30993762D01*
X27942548Y-30936310D01*
X27885095Y-30878858D01*
X27827643Y-30936310D01*
X27942548Y-30936310D01*
X26736048Y-31395929D02*
X26736048Y-32200262D01*
X27942548Y-31683191D01*
X27138214Y-33176953D02*
X27942548Y-33176953D01*
X27138214Y-32659882D02*
X27770190Y-32659882D01*
X27885095Y-32717334D01*
X27942548Y-32832239D01*
X27942548Y-33004596D01*
X27885095Y-33119501D01*
X27827643Y-33176953D01*
X28138214Y-30304333D02*
X28942548Y-30304333D01*
X27678595Y-30017071D02*
X28540381Y-29729810D01*
X28540381Y-30476690D01*
X28827643Y-30936310D02*
X28885095Y-30993762D01*
X28942548Y-30936310D01*
X28885095Y-30878858D01*
X28827643Y-30936310D01*
X28942548Y-30936310D01*
X27736048Y-31395929D02*
X27736048Y-32200262D01*
X28942548Y-31683191D01*
X28138214Y-33176953D02*
X28942548Y-33176953D01*
X28138214Y-32659882D02*
X28770190Y-32659882D01*
X28885095Y-32717334D01*
X28942548Y-32832239D01*
X28942548Y-33004596D01*
X28885095Y-33119501D01*
X28827643Y-33176953D01*
X15638214Y-32804333D02*
X16442548Y-32804333D01*
X15178595Y-32517071D02*
X16040381Y-32229810D01*
X16040381Y-32976690D01*
X16327643Y-33436310D02*
X16385095Y-33493762D01*
X16442548Y-33436310D01*
X16385095Y-33378858D01*
X16327643Y-33436310D01*
X16442548Y-33436310D01*
X15236048Y-33895929D02*
X15236048Y-34700262D01*
X16442548Y-34183191D01*
X15638214Y-35676953D02*
X16442548Y-35676953D01*
X15638214Y-35159882D02*
X16270190Y-35159882D01*
X16385095Y-35217334D01*
X16442548Y-35332239D01*
X16442548Y-35504596D01*
X16385095Y-35619501D01*
X16327643Y-35676953D01*
X76638214Y-30304333D02*
X77442548Y-30304333D01*
X76178595Y-30017071D02*
X77040381Y-29729810D01*
X77040381Y-30476690D01*
X77327643Y-30936310D02*
X77385095Y-30993762D01*
X77442548Y-30936310D01*
X77385095Y-30878858D01*
X77327643Y-30936310D01*
X77442548Y-30936310D01*
X76236048Y-31395929D02*
X76236048Y-32200262D01*
X77442548Y-31683191D01*
X76638214Y-33176953D02*
X77442548Y-33176953D01*
X76638214Y-32659882D02*
X77270190Y-32659882D01*
X77385095Y-32717334D01*
X77442548Y-32832239D01*
X77442548Y-33004596D01*
X77385095Y-33119501D01*
X77327643Y-33176953D01*
X63138214Y-32804333D02*
X63942548Y-32804333D01*
X62678595Y-32517071D02*
X63540381Y-32229810D01*
X63540381Y-32976690D01*
X63827643Y-33436310D02*
X63885095Y-33493762D01*
X63942548Y-33436310D01*
X63885095Y-33378858D01*
X63827643Y-33436310D01*
X63942548Y-33436310D01*
X62736048Y-33895929D02*
X62736048Y-34700262D01*
X63942548Y-34183191D01*
X63138214Y-35676953D02*
X63942548Y-35676953D01*
X63138214Y-35159882D02*
X63770190Y-35159882D01*
X63885095Y-35217334D01*
X63942548Y-35332239D01*
X63942548Y-35504596D01*
X63885095Y-35619501D01*
X63827643Y-35676953D01*
X64138214Y-28804333D02*
X64942548Y-28804333D01*
X63678595Y-28517071D02*
X64540381Y-28229810D01*
X64540381Y-28976690D01*
X64827643Y-29436310D02*
X64885095Y-29493762D01*
X64942548Y-29436310D01*
X64885095Y-29378858D01*
X64827643Y-29436310D01*
X64942548Y-29436310D01*
X63736048Y-29895929D02*
X63736048Y-30700262D01*
X64942548Y-30183191D01*
X64138214Y-31676953D02*
X64942548Y-31676953D01*
X64138214Y-31159882D02*
X64770190Y-31159882D01*
X64885095Y-31217334D01*
X64942548Y-31332239D01*
X64942548Y-31504596D01*
X64885095Y-31619501D01*
X64827643Y-31676953D01*
X50638214Y-32804333D02*
X51442548Y-32804333D01*
X50178595Y-32517071D02*
X51040381Y-32229810D01*
X51040381Y-32976690D01*
X51327643Y-33436310D02*
X51385095Y-33493762D01*
X51442548Y-33436310D01*
X51385095Y-33378858D01*
X51327643Y-33436310D01*
X51442548Y-33436310D01*
X50236048Y-33895929D02*
X50236048Y-34700262D01*
X51442548Y-34183191D01*
X50638214Y-35676953D02*
X51442548Y-35676953D01*
X50638214Y-35159882D02*
X51270190Y-35159882D01*
X51385095Y-35217334D01*
X51442548Y-35332239D01*
X51442548Y-35504596D01*
X51385095Y-35619501D01*
X51327643Y-35676953D01*
X8482929Y-67736048D02*
X8368024Y-67736048D01*
X8253119Y-67793500D01*
X8195667Y-67850952D01*
X8138214Y-67965857D01*
X8080762Y-68195667D01*
X8080762Y-68482929D01*
X8138214Y-68712738D01*
X8195667Y-68827643D01*
X8253119Y-68885095D01*
X8368024Y-68942548D01*
X8482929Y-68942548D01*
X8597833Y-68885095D01*
X8655286Y-68827643D01*
X8712738Y-68712738D01*
X8770190Y-68482929D01*
X8770190Y-68195667D01*
X8712738Y-67965857D01*
X8655286Y-67850952D01*
X8597833Y-67793500D01*
X8482929Y-67736048D01*
X7563690Y-68827643D02*
X7506238Y-68885095D01*
X7563690Y-68942548D01*
X7621142Y-68885095D01*
X7563690Y-68827643D01*
X7563690Y-68942548D01*
X6357190Y-68942548D02*
X7046618Y-68942548D01*
X6701904Y-68942548D02*
X6701904Y-67736048D01*
X6816809Y-67908405D01*
X6931714Y-68023310D01*
X7046618Y-68080762D01*
X5323047Y-68138214D02*
X5323047Y-68942548D01*
X5840118Y-68138214D02*
X5840118Y-68770190D01*
X5782666Y-68885095D01*
X5667761Y-68942548D01*
X5495404Y-68942548D01*
X5380499Y-68885095D01*
X5323047Y-68827643D01*
X80762Y-64942548D02*
X770190Y-64942548D01*
X425476Y-64942548D02*
X425476Y-63736048D01*
X540381Y-63908405D01*
X655286Y-64023310D01*
X770190Y-64080762D01*
X-666119Y-63736048D02*
X-781024Y-63736048D01*
X-895929Y-63793500D01*
X-953381Y-63850952D01*
X-1010834Y-63965857D01*
X-1068286Y-64195667D01*
X-1068286Y-64482929D01*
X-1010834Y-64712738D01*
X-953381Y-64827643D01*
X-895929Y-64885095D01*
X-781024Y-64942548D01*
X-666119Y-64942548D01*
X-551215Y-64885095D01*
X-493762Y-64827643D01*
X-436310Y-64712738D01*
X-378858Y-64482929D01*
X-378858Y-64195667D01*
X-436310Y-63965857D01*
X-493762Y-63850952D01*
X-551215Y-63793500D01*
X-666119Y-63736048D01*
X-1585358Y-64942548D02*
X-1585358Y-63736048D01*
X-1700263Y-64482929D02*
X-2044977Y-64942548D01*
X-2044977Y-64138214D02*
X-1585358Y-64597833D01*
X28042548Y-53319238D02*
X28042548Y-52629810D01*
X28042548Y-52974524D02*
X26836048Y-52974524D01*
X27008405Y-52859619D01*
X27123310Y-52744714D01*
X27180762Y-52629810D01*
X28042548Y-53836310D02*
X26836048Y-53836310D01*
X27582929Y-53951215D02*
X28042548Y-54295929D01*
X27238214Y-54295929D02*
X27697833Y-53836310D01*
X34580762Y-29442548D02*
X35270190Y-29442548D01*
X34925476Y-29442548D02*
X34925476Y-28236048D01*
X35040381Y-28408405D01*
X35155286Y-28523310D01*
X35270190Y-28580762D01*
X33833881Y-28236048D02*
X33718976Y-28236048D01*
X33604071Y-28293500D01*
X33546619Y-28350952D01*
X33489166Y-28465857D01*
X33431714Y-28695667D01*
X33431714Y-28982929D01*
X33489166Y-29212738D01*
X33546619Y-29327643D01*
X33604071Y-29385095D01*
X33718976Y-29442548D01*
X33833881Y-29442548D01*
X33948785Y-29385095D01*
X34006238Y-29327643D01*
X34063690Y-29212738D01*
X34121142Y-28982929D01*
X34121142Y-28695667D01*
X34063690Y-28465857D01*
X34006238Y-28350952D01*
X33948785Y-28293500D01*
X33833881Y-28236048D01*
X35080762Y-29442548D02*
X35770190Y-29442548D01*
X35425476Y-29442548D02*
X35425476Y-28236048D01*
X35540381Y-28408405D01*
X35655286Y-28523310D01*
X35770190Y-28580762D01*
X34333881Y-28236048D02*
X34218976Y-28236048D01*
X34104071Y-28293500D01*
X34046619Y-28350952D01*
X33989166Y-28465857D01*
X33931714Y-28695667D01*
X33931714Y-28982929D01*
X33989166Y-29212738D01*
X34046619Y-29327643D01*
X34104071Y-29385095D01*
X34218976Y-29442548D01*
X34333881Y-29442548D01*
X34448785Y-29385095D01*
X34506238Y-29327643D01*
X34563690Y-29212738D01*
X34621142Y-28982929D01*
X34621142Y-28695667D01*
X34563690Y-28465857D01*
X34506238Y-28350952D01*
X34448785Y-28293500D01*
X34333881Y-28236048D01*
X26080762Y-27942548D02*
X26770190Y-27942548D01*
X26425476Y-27942548D02*
X26425476Y-26736048D01*
X26540381Y-26908405D01*
X26655286Y-27023310D01*
X26770190Y-27080762D01*
X25333881Y-26736048D02*
X25218976Y-26736048D01*
X25104071Y-26793500D01*
X25046619Y-26850952D01*
X24989166Y-26965857D01*
X24931714Y-27195667D01*
X24931714Y-27482929D01*
X24989166Y-27712738D01*
X25046619Y-27827643D01*
X25104071Y-27885095D01*
X25218976Y-27942548D01*
X25333881Y-27942548D01*
X25448785Y-27885095D01*
X25506238Y-27827643D01*
X25563690Y-27712738D01*
X25621142Y-27482929D01*
X25621142Y-27195667D01*
X25563690Y-26965857D01*
X25506238Y-26850952D01*
X25448785Y-26793500D01*
X25333881Y-26736048D01*
X21580762Y-29442548D02*
X22270190Y-29442548D01*
X21925476Y-29442548D02*
X21925476Y-28236048D01*
X22040381Y-28408405D01*
X22155286Y-28523310D01*
X22270190Y-28580762D01*
X20833881Y-28236048D02*
X20718976Y-28236048D01*
X20604071Y-28293500D01*
X20546619Y-28350952D01*
X20489166Y-28465857D01*
X20431714Y-28695667D01*
X20431714Y-28982929D01*
X20489166Y-29212738D01*
X20546619Y-29327643D01*
X20604071Y-29385095D01*
X20718976Y-29442548D01*
X20833881Y-29442548D01*
X20948785Y-29385095D01*
X21006238Y-29327643D01*
X21063690Y-29212738D01*
X21121142Y-28982929D01*
X21121142Y-28695667D01*
X21063690Y-28465857D01*
X21006238Y-28350952D01*
X20948785Y-28293500D01*
X20833881Y-28236048D01*
X70580762Y-27442548D02*
X71270190Y-27442548D01*
X70925476Y-27442548D02*
X70925476Y-26236048D01*
X71040381Y-26408405D01*
X71155286Y-26523310D01*
X71270190Y-26580762D01*
X69833881Y-26236048D02*
X69718976Y-26236048D01*
X69604071Y-26293500D01*
X69546619Y-26350952D01*
X69489166Y-26465857D01*
X69431714Y-26695667D01*
X69431714Y-26982929D01*
X69489166Y-27212738D01*
X69546619Y-27327643D01*
X69604071Y-27385095D01*
X69718976Y-27442548D01*
X69833881Y-27442548D01*
X69948785Y-27385095D01*
X70006238Y-27327643D01*
X70063690Y-27212738D01*
X70121142Y-26982929D01*
X70121142Y-26695667D01*
X70063690Y-26465857D01*
X70006238Y-26350952D01*
X69948785Y-26293500D01*
X69833881Y-26236048D01*
X70580762Y-29442548D02*
X71270190Y-29442548D01*
X70925476Y-29442548D02*
X70925476Y-28236048D01*
X71040381Y-28408405D01*
X71155286Y-28523310D01*
X71270190Y-28580762D01*
X69833881Y-28236048D02*
X69718976Y-28236048D01*
X69604071Y-28293500D01*
X69546619Y-28350952D01*
X69489166Y-28465857D01*
X69431714Y-28695667D01*
X69431714Y-28982929D01*
X69489166Y-29212738D01*
X69546619Y-29327643D01*
X69604071Y-29385095D01*
X69718976Y-29442548D01*
X69833881Y-29442548D01*
X69948785Y-29385095D01*
X70006238Y-29327643D01*
X70063690Y-29212738D01*
X70121142Y-28982929D01*
X70121142Y-28695667D01*
X70063690Y-28465857D01*
X70006238Y-28350952D01*
X69948785Y-28293500D01*
X69833881Y-28236048D01*
X59580762Y-29442548D02*
X60270190Y-29442548D01*
X59925476Y-29442548D02*
X59925476Y-28236048D01*
X60040381Y-28408405D01*
X60155286Y-28523310D01*
X60270190Y-28580762D01*
X58833881Y-28236048D02*
X58718976Y-28236048D01*
X58604071Y-28293500D01*
X58546619Y-28350952D01*
X58489166Y-28465857D01*
X58431714Y-28695667D01*
X58431714Y-28982929D01*
X58489166Y-29212738D01*
X58546619Y-29327643D01*
X58604071Y-29385095D01*
X58718976Y-29442548D01*
X58833881Y-29442548D01*
X58948785Y-29385095D01*
X59006238Y-29327643D01*
X59063690Y-29212738D01*
X59121142Y-28982929D01*
X59121142Y-28695667D01*
X59063690Y-28465857D01*
X59006238Y-28350952D01*
X58948785Y-28293500D01*
X58833881Y-28236048D01*
X57580762Y-27942548D02*
X58270190Y-27942548D01*
X57925476Y-27942548D02*
X57925476Y-26736048D01*
X58040381Y-26908405D01*
X58155286Y-27023310D01*
X58270190Y-27080762D01*
X56833881Y-26736048D02*
X56718976Y-26736048D01*
X56604071Y-26793500D01*
X56546619Y-26850952D01*
X56489166Y-26965857D01*
X56431714Y-27195667D01*
X56431714Y-27482929D01*
X56489166Y-27712738D01*
X56546619Y-27827643D01*
X56604071Y-27885095D01*
X56718976Y-27942548D01*
X56833881Y-27942548D01*
X56948785Y-27885095D01*
X57006238Y-27827643D01*
X57063690Y-27712738D01*
X57121142Y-27482929D01*
X57121142Y-27195667D01*
X57063690Y-26965857D01*
X57006238Y-26850952D01*
X56948785Y-26793500D01*
X56833881Y-26736048D01*
X15980762Y-68942548D02*
X16670190Y-68942548D01*
X16325476Y-68942548D02*
X16325476Y-67736048D01*
X16440381Y-67908405D01*
X16555286Y-68023310D01*
X16670190Y-68080762D01*
X15521142Y-67850952D02*
X15463690Y-67793500D01*
X15348785Y-67736048D01*
X15061523Y-67736048D01*
X14946619Y-67793500D01*
X14889166Y-67850952D01*
X14831714Y-67965857D01*
X14831714Y-68080762D01*
X14889166Y-68253119D01*
X15578595Y-68942548D01*
X14831714Y-68942548D01*
X14084833Y-67736048D02*
X13969928Y-67736048D01*
X13855023Y-67793500D01*
X13797571Y-67850952D01*
X13740118Y-67965857D01*
X13682666Y-68195667D01*
X13682666Y-68482929D01*
X13740118Y-68712738D01*
X13797571Y-68827643D01*
X13855023Y-68885095D01*
X13969928Y-68942548D01*
X14084833Y-68942548D01*
X14199737Y-68885095D01*
X14257190Y-68827643D01*
X14314642Y-68712738D01*
X14372094Y-68482929D01*
X14372094Y-68195667D01*
X14314642Y-67965857D01*
X14257190Y-67850952D01*
X14199737Y-67793500D01*
X14084833Y-67736048D01*
X41310571Y-20810571D02*
X41712738Y-20810571D01*
X41712738Y-21442548D02*
X41712738Y-20236048D01*
X41138214Y-20236048D01*
X40678595Y-21442548D02*
X40678595Y-20236048D01*
X39529547Y-21442548D02*
X40104071Y-21442548D01*
X40104071Y-20236048D01*
X39299738Y-20236048D02*
X38610310Y-20236048D01*
X38955024Y-21442548D02*
X38955024Y-20236048D01*
X38208143Y-20810571D02*
X37805976Y-20810571D01*
X37633619Y-21442548D02*
X38208143Y-21442548D01*
X38208143Y-20236048D01*
X37633619Y-20236048D01*
X36427120Y-21442548D02*
X36829286Y-20868024D01*
X37116548Y-21442548D02*
X37116548Y-20236048D01*
X36656929Y-20236048D01*
X36542024Y-20293500D01*
X36484572Y-20350952D01*
X36427120Y-20465857D01*
X36427120Y-20638214D01*
X36484572Y-20753119D01*
X36542024Y-20810571D01*
X36656929Y-20868024D01*
X37116548Y-20868024D01*
X22810571Y-21689429D02*
X22810571Y-21287262D01*
X23442548Y-21287262D02*
X22236048Y-21287262D01*
X22236048Y-21861786D01*
X23442548Y-22321405D02*
X22236048Y-22321405D01*
X23442548Y-23470453D02*
X23442548Y-22895929D01*
X22236048Y-22895929D01*
X22236048Y-23700262D02*
X22236048Y-24389690D01*
X23442548Y-24044976D02*
X22236048Y-24044976D01*
X22810571Y-24791857D02*
X22810571Y-25194024D01*
X23442548Y-25366381D02*
X23442548Y-24791857D01*
X22236048Y-24791857D01*
X22236048Y-25366381D01*
X23442548Y-26572880D02*
X22868024Y-26170714D01*
X23442548Y-25883452D02*
X22236048Y-25883452D01*
X22236048Y-26343071D01*
X22293500Y-26457976D01*
X22350952Y-26515428D01*
X22465857Y-26572880D01*
X22638214Y-26572880D01*
X22753119Y-26515428D01*
X22810571Y-26457976D01*
X22868024Y-26343071D01*
X22868024Y-25883452D01*
X76810571Y-21810571D02*
X77212738Y-21810571D01*
X77212738Y-22442548D02*
X77212738Y-21236048D01*
X76638214Y-21236048D01*
X76178595Y-22442548D02*
X76178595Y-21236048D01*
X75029547Y-22442548D02*
X75604071Y-22442548D01*
X75604071Y-21236048D01*
X74799738Y-21236048D02*
X74110310Y-21236048D01*
X74455024Y-22442548D02*
X74455024Y-21236048D01*
X73708143Y-21810571D02*
X73305976Y-21810571D01*
X73133619Y-22442548D02*
X73708143Y-22442548D01*
X73708143Y-21236048D01*
X73133619Y-21236048D01*
X71927120Y-22442548D02*
X72329286Y-21868024D01*
X72616548Y-22442548D02*
X72616548Y-21236048D01*
X72156929Y-21236048D01*
X72042024Y-21293500D01*
X71984572Y-21350952D01*
X71927120Y-21465857D01*
X71927120Y-21638214D01*
X71984572Y-21753119D01*
X72042024Y-21810571D01*
X72156929Y-21868024D01*
X72616548Y-21868024D01*
X62310571Y-24189429D02*
X62310571Y-23787262D01*
X62942548Y-23787262D02*
X61736048Y-23787262D01*
X61736048Y-24361786D01*
X62942548Y-24821405D02*
X61736048Y-24821405D01*
X62942548Y-25970453D02*
X62942548Y-25395929D01*
X61736048Y-25395929D01*
X61736048Y-26200262D02*
X61736048Y-26889690D01*
X62942548Y-26544976D02*
X61736048Y-26544976D01*
X62310571Y-27291857D02*
X62310571Y-27694024D01*
X62942548Y-27866381D02*
X62942548Y-27291857D01*
X61736048Y-27291857D01*
X61736048Y-27866381D01*
X62942548Y-29072880D02*
X62368024Y-28670714D01*
X62942548Y-28383452D02*
X61736048Y-28383452D01*
X61736048Y-28843071D01*
X61793500Y-28957976D01*
X61850952Y-29015428D01*
X61965857Y-29072880D01*
X62138214Y-29072880D01*
X62253119Y-29015428D01*
X62310571Y-28957976D01*
X62368024Y-28843071D01*
X62368024Y-28383452D01*
X57810571Y-15689429D02*
X57810571Y-15287262D01*
X58442548Y-15287262D02*
X57236048Y-15287262D01*
X57236048Y-15861786D01*
X58442548Y-16321405D02*
X57236048Y-16321405D01*
X58442548Y-17470453D02*
X58442548Y-16895929D01*
X57236048Y-16895929D01*
X57236048Y-17700262D02*
X57236048Y-18389690D01*
X58442548Y-18044976D02*
X57236048Y-18044976D01*
X57810571Y-18791857D02*
X57810571Y-19194024D01*
X58442548Y-19366381D02*
X58442548Y-18791857D01*
X57236048Y-18791857D01*
X57236048Y-19366381D01*
X58442548Y-20572880D02*
X57868024Y-20170714D01*
X58442548Y-19883452D02*
X57236048Y-19883452D01*
X57236048Y-20343071D01*
X57293500Y-20457976D01*
X57350952Y-20515428D01*
X57465857Y-20572880D01*
X57638214Y-20572880D01*
X57753119Y-20515428D01*
X57810571Y-20457976D01*
X57868024Y-20343071D01*
X57868024Y-19883452D01*
X40736048Y-65017071D02*
X40736048Y-65131976D01*
X40793500Y-65246881D01*
X40850952Y-65304333D01*
X40965857Y-65361786D01*
X41195667Y-65419238D01*
X41482929Y-65419238D01*
X41712738Y-65361786D01*
X41827643Y-65304333D01*
X41885095Y-65246881D01*
X41942548Y-65131976D01*
X41942548Y-65017071D01*
X41885095Y-64902167D01*
X41827643Y-64844714D01*
X41712738Y-64787262D01*
X41482929Y-64729810D01*
X41195667Y-64729810D01*
X40965857Y-64787262D01*
X40850952Y-64844714D01*
X40793500Y-64902167D01*
X40736048Y-65017071D01*
X41827643Y-65936310D02*
X41885095Y-65993762D01*
X41942548Y-65936310D01*
X41885095Y-65878858D01*
X41827643Y-65936310D01*
X41942548Y-65936310D01*
X41942548Y-67142810D02*
X41942548Y-66453382D01*
X41942548Y-66798096D02*
X40736048Y-66798096D01*
X40908405Y-66683191D01*
X41023310Y-66568286D01*
X41080762Y-66453382D01*
X41138214Y-68176953D02*
X41942548Y-68176953D01*
X41138214Y-67659882D02*
X41770190Y-67659882D01*
X41885095Y-67717334D01*
X41942548Y-67832239D01*
X41942548Y-68004596D01*
X41885095Y-68119501D01*
X41827643Y-68176953D01*
D12*
X57411905Y-52402381D02*
X57411905Y-51402381D01*
X56840476Y-52402381D02*
X57269048Y-51830952D01*
X56840476Y-51402381D02*
X57411905Y-51973810D01*
X51588095Y-52066667D02*
X51111904Y-52066667D01*
X51683333Y-52352381D02*
X51350000Y-51352381D01*
X51016666Y-52352381D01*
D14*
X50942548Y-68919238D02*
X50942548Y-68229810D01*
X50942548Y-68574524D02*
X49736048Y-68574524D01*
X49908405Y-68459619D01*
X50023310Y-68344714D01*
X50080762Y-68229810D01*
X50942548Y-69436310D02*
X49736048Y-69436310D01*
X50482929Y-69551215D02*
X50942548Y-69895929D01*
X50138214Y-69895929D02*
X50597833Y-69436310D01*
X56942548Y-68919238D02*
X56942548Y-68229810D01*
X56942548Y-68574524D02*
X55736048Y-68574524D01*
X55908405Y-68459619D01*
X56023310Y-68344714D01*
X56080762Y-68229810D01*
X56942548Y-69436310D02*
X55736048Y-69436310D01*
X56482929Y-69551215D02*
X56942548Y-69895929D01*
X56138214Y-69895929D02*
X56597833Y-69436310D01*
X63442548Y-68919238D02*
X63442548Y-68229810D01*
X63442548Y-68574524D02*
X62236048Y-68574524D01*
X62408405Y-68459619D01*
X62523310Y-68344714D01*
X62580762Y-68229810D01*
X63442548Y-69436310D02*
X62236048Y-69436310D01*
X62982929Y-69551215D02*
X63442548Y-69895929D01*
X62638214Y-69895929D02*
X63097833Y-69436310D01*
X69442548Y-68919238D02*
X69442548Y-68229810D01*
X69442548Y-68574524D02*
X68236048Y-68574524D01*
X68408405Y-68459619D01*
X68523310Y-68344714D01*
X68580762Y-68229810D01*
X69442548Y-69436310D02*
X68236048Y-69436310D01*
X68982929Y-69551215D02*
X69442548Y-69895929D01*
X68638214Y-69895929D02*
X69097833Y-69436310D01*
D12*
X46261905Y-10952381D02*
X46261905Y-9952381D01*
X45690476Y-10952381D02*
X46119048Y-10380952D01*
X45690476Y-9952381D02*
X46261905Y-10523810D01*
X52238095Y-10666667D02*
X51761904Y-10666667D01*
X52333333Y-10952381D02*
X52000000Y-9952381D01*
X51666666Y-10952381D01*
D14*
X42310571Y-54189429D02*
X42310571Y-53787262D01*
X42942548Y-53787262D02*
X41736048Y-53787262D01*
X41736048Y-54361786D01*
X42942548Y-54821405D02*
X41736048Y-54821405D01*
X42942548Y-55970453D02*
X42942548Y-55395929D01*
X41736048Y-55395929D01*
X41736048Y-56200262D02*
X41736048Y-56889690D01*
X42942548Y-56544976D02*
X41736048Y-56544976D01*
X42310571Y-57291857D02*
X42310571Y-57694024D01*
X42942548Y-57866381D02*
X42942548Y-57291857D01*
X41736048Y-57291857D01*
X41736048Y-57866381D01*
X42942548Y-59072880D02*
X42368024Y-58670714D01*
X42942548Y-58383452D02*
X41736048Y-58383452D01*
X41736048Y-58843071D01*
X41793500Y-58957976D01*
X41850952Y-59015428D01*
X41965857Y-59072880D01*
X42138214Y-59072880D01*
X42253119Y-59015428D01*
X42310571Y-58957976D01*
X42368024Y-58843071D01*
X42368024Y-58383452D01*
X15598214Y-7074333D02*
X16402548Y-7074333D01*
X15138595Y-6787071D02*
X16000381Y-6499810D01*
X16000381Y-7246690D01*
X16287643Y-7706310D02*
X16345095Y-7763762D01*
X16402548Y-7706310D01*
X16345095Y-7648858D01*
X16287643Y-7706310D01*
X16402548Y-7706310D01*
X15196048Y-8165929D02*
X15196048Y-8970262D01*
X16402548Y-8453191D01*
X15598214Y-9946953D02*
X16402548Y-9946953D01*
X15598214Y-9429882D02*
X16230190Y-9429882D01*
X16345095Y-9487334D01*
X16402548Y-9602239D01*
X16402548Y-9774596D01*
X16345095Y-9889501D01*
X16287643Y-9946953D01*
X26098214Y-7574333D02*
X26902548Y-7574333D01*
X25638595Y-7287071D02*
X26500381Y-6999810D01*
X26500381Y-7746690D01*
X26787643Y-8206310D02*
X26845095Y-8263762D01*
X26902548Y-8206310D01*
X26845095Y-8148858D01*
X26787643Y-8206310D01*
X26902548Y-8206310D01*
X25696048Y-8665929D02*
X25696048Y-9470262D01*
X26902548Y-8953191D01*
X26098214Y-10446953D02*
X26902548Y-10446953D01*
X26098214Y-9929882D02*
X26730190Y-9929882D01*
X26845095Y-9987334D01*
X26902548Y-10102239D01*
X26902548Y-10274596D01*
X26845095Y-10389501D01*
X26787643Y-10446953D01*
X62098214Y-8074333D02*
X62902548Y-8074333D01*
X61638595Y-7787071D02*
X62500381Y-7499810D01*
X62500381Y-8246690D01*
X62787643Y-8706310D02*
X62845095Y-8763762D01*
X62902548Y-8706310D01*
X62845095Y-8648858D01*
X62787643Y-8706310D01*
X62902548Y-8706310D01*
X61696048Y-9165929D02*
X61696048Y-9970262D01*
X62902548Y-9453191D01*
X62098214Y-10946953D02*
X62902548Y-10946953D01*
X62098214Y-10429882D02*
X62730190Y-10429882D01*
X62845095Y-10487334D01*
X62902548Y-10602239D01*
X62902548Y-10774596D01*
X62845095Y-10889501D01*
X62787643Y-10946953D01*
X52598214Y-7574333D02*
X53402548Y-7574333D01*
X52138595Y-7287071D02*
X53000381Y-6999810D01*
X53000381Y-7746690D01*
X53287643Y-8206310D02*
X53345095Y-8263762D01*
X53402548Y-8206310D01*
X53345095Y-8148858D01*
X53287643Y-8206310D01*
X53402548Y-8206310D01*
X52196048Y-8665929D02*
X52196048Y-9470262D01*
X53402548Y-8953191D01*
X52598214Y-10446953D02*
X53402548Y-10446953D01*
X52598214Y-9929882D02*
X53230190Y-9929882D01*
X53345095Y-9987334D01*
X53402548Y-10102239D01*
X53402548Y-10274596D01*
X53345095Y-10389501D01*
X53287643Y-10446953D01*
X32331048Y-6652071D02*
X32331048Y-6766976D01*
X32388500Y-6881881D01*
X32445952Y-6939333D01*
X32560857Y-6996786D01*
X32790667Y-7054238D01*
X33077929Y-7054238D01*
X33307738Y-6996786D01*
X33422643Y-6939333D01*
X33480095Y-6881881D01*
X33537548Y-6766976D01*
X33537548Y-6652071D01*
X33480095Y-6537167D01*
X33422643Y-6479714D01*
X33307738Y-6422262D01*
X33077929Y-6364810D01*
X32790667Y-6364810D01*
X32560857Y-6422262D01*
X32445952Y-6479714D01*
X32388500Y-6537167D01*
X32331048Y-6652071D01*
X33422643Y-7571310D02*
X33480095Y-7628762D01*
X33537548Y-7571310D01*
X33480095Y-7513858D01*
X33422643Y-7571310D01*
X33537548Y-7571310D01*
X33537548Y-8777810D02*
X33537548Y-8088382D01*
X33537548Y-8433096D02*
X32331048Y-8433096D01*
X32503405Y-8318191D01*
X32618310Y-8203286D01*
X32675762Y-8088382D01*
X32733214Y-9811953D02*
X33537548Y-9811953D01*
X32733214Y-9294882D02*
X33365190Y-9294882D01*
X33480095Y-9352334D01*
X33537548Y-9467239D01*
X33537548Y-9639596D01*
X33480095Y-9754501D01*
X33422643Y-9811953D01*
X64831048Y-6652071D02*
X64831048Y-6766976D01*
X64888500Y-6881881D01*
X64945952Y-6939333D01*
X65060857Y-6996786D01*
X65290667Y-7054238D01*
X65577929Y-7054238D01*
X65807738Y-6996786D01*
X65922643Y-6939333D01*
X65980095Y-6881881D01*
X66037548Y-6766976D01*
X66037548Y-6652071D01*
X65980095Y-6537167D01*
X65922643Y-6479714D01*
X65807738Y-6422262D01*
X65577929Y-6364810D01*
X65290667Y-6364810D01*
X65060857Y-6422262D01*
X64945952Y-6479714D01*
X64888500Y-6537167D01*
X64831048Y-6652071D01*
X65922643Y-7571310D02*
X65980095Y-7628762D01*
X66037548Y-7571310D01*
X65980095Y-7513858D01*
X65922643Y-7571310D01*
X66037548Y-7571310D01*
X66037548Y-8777810D02*
X66037548Y-8088382D01*
X66037548Y-8433096D02*
X64831048Y-8433096D01*
X65003405Y-8318191D01*
X65118310Y-8203286D01*
X65175762Y-8088382D01*
X65233214Y-9811953D02*
X66037548Y-9811953D01*
X65233214Y-9294882D02*
X65865190Y-9294882D01*
X65980095Y-9352334D01*
X66037548Y-9467239D01*
X66037548Y-9639596D01*
X65980095Y-9754501D01*
X65922643Y-9811953D01*
X21331048Y-5652071D02*
X21331048Y-5766976D01*
X21388500Y-5881881D01*
X21445952Y-5939333D01*
X21560857Y-5996786D01*
X21790667Y-6054238D01*
X22077929Y-6054238D01*
X22307738Y-5996786D01*
X22422643Y-5939333D01*
X22480095Y-5881881D01*
X22537548Y-5766976D01*
X22537548Y-5652071D01*
X22480095Y-5537167D01*
X22422643Y-5479714D01*
X22307738Y-5422262D01*
X22077929Y-5364810D01*
X21790667Y-5364810D01*
X21560857Y-5422262D01*
X21445952Y-5479714D01*
X21388500Y-5537167D01*
X21331048Y-5652071D01*
X22422643Y-6571310D02*
X22480095Y-6628762D01*
X22537548Y-6571310D01*
X22480095Y-6513858D01*
X22422643Y-6571310D01*
X22537548Y-6571310D01*
X22537548Y-7777810D02*
X22537548Y-7088382D01*
X22537548Y-7433096D02*
X21331048Y-7433096D01*
X21503405Y-7318191D01*
X21618310Y-7203286D01*
X21675762Y-7088382D01*
X21733214Y-8811953D02*
X22537548Y-8811953D01*
X21733214Y-8294882D02*
X22365190Y-8294882D01*
X22480095Y-8352334D01*
X22537548Y-8467239D01*
X22537548Y-8639596D01*
X22480095Y-8754501D01*
X22422643Y-8811953D01*
X54831048Y-7152071D02*
X54831048Y-7266976D01*
X54888500Y-7381881D01*
X54945952Y-7439333D01*
X55060857Y-7496786D01*
X55290667Y-7554238D01*
X55577929Y-7554238D01*
X55807738Y-7496786D01*
X55922643Y-7439333D01*
X55980095Y-7381881D01*
X56037548Y-7266976D01*
X56037548Y-7152071D01*
X55980095Y-7037167D01*
X55922643Y-6979714D01*
X55807738Y-6922262D01*
X55577929Y-6864810D01*
X55290667Y-6864810D01*
X55060857Y-6922262D01*
X54945952Y-6979714D01*
X54888500Y-7037167D01*
X54831048Y-7152071D01*
X55922643Y-8071310D02*
X55980095Y-8128762D01*
X56037548Y-8071310D01*
X55980095Y-8013858D01*
X55922643Y-8071310D01*
X56037548Y-8071310D01*
X56037548Y-9277810D02*
X56037548Y-8588382D01*
X56037548Y-8933096D02*
X54831048Y-8933096D01*
X55003405Y-8818191D01*
X55118310Y-8703286D01*
X55175762Y-8588382D01*
X55233214Y-10311953D02*
X56037548Y-10311953D01*
X55233214Y-9794882D02*
X55865190Y-9794882D01*
X55980095Y-9852334D01*
X56037548Y-9967239D01*
X56037548Y-10139596D01*
X55980095Y-10254501D01*
X55922643Y-10311953D01*
X73347738Y-30847548D02*
X73347738Y-29641048D01*
X73060476Y-29641048D01*
X72888119Y-29698500D01*
X72773214Y-29813405D01*
X72715762Y-29928310D01*
X72658310Y-30158119D01*
X72658310Y-30330476D01*
X72715762Y-30560286D01*
X72773214Y-30675190D01*
X72888119Y-30790095D01*
X73060476Y-30847548D01*
X73347738Y-30847548D01*
X72141238Y-30847548D02*
X72141238Y-29641048D01*
X71336905Y-29641048D02*
X71107095Y-29641048D01*
X70992190Y-29698500D01*
X70877286Y-29813405D01*
X70819833Y-30043214D01*
X70819833Y-30445381D01*
X70877286Y-30675190D01*
X70992190Y-30790095D01*
X71107095Y-30847548D01*
X71336905Y-30847548D01*
X71451809Y-30790095D01*
X71566714Y-30675190D01*
X71624166Y-30445381D01*
X71624166Y-30043214D01*
X71566714Y-29813405D01*
X71451809Y-29698500D01*
X71336905Y-29641048D01*
X70302762Y-30847548D02*
X70302762Y-29641048D01*
X70015500Y-29641048D01*
X69843143Y-29698500D01*
X69728238Y-29813405D01*
X69670786Y-29928310D01*
X69613334Y-30158119D01*
X69613334Y-30330476D01*
X69670786Y-30560286D01*
X69728238Y-30675190D01*
X69843143Y-30790095D01*
X70015500Y-30847548D01*
X70302762Y-30847548D01*
X69096262Y-30215571D02*
X68694095Y-30215571D01*
X68521738Y-30847548D02*
X69096262Y-30847548D01*
X69096262Y-29641048D01*
X68521738Y-29641048D01*
X67847738Y-28847548D02*
X67847738Y-27641048D01*
X67560476Y-27641048D01*
X67388119Y-27698500D01*
X67273214Y-27813405D01*
X67215762Y-27928310D01*
X67158310Y-28158119D01*
X67158310Y-28330476D01*
X67215762Y-28560286D01*
X67273214Y-28675190D01*
X67388119Y-28790095D01*
X67560476Y-28847548D01*
X67847738Y-28847548D01*
X66641238Y-28847548D02*
X66641238Y-27641048D01*
X65836905Y-27641048D02*
X65607095Y-27641048D01*
X65492190Y-27698500D01*
X65377286Y-27813405D01*
X65319833Y-28043214D01*
X65319833Y-28445381D01*
X65377286Y-28675190D01*
X65492190Y-28790095D01*
X65607095Y-28847548D01*
X65836905Y-28847548D01*
X65951809Y-28790095D01*
X66066714Y-28675190D01*
X66124166Y-28445381D01*
X66124166Y-28043214D01*
X66066714Y-27813405D01*
X65951809Y-27698500D01*
X65836905Y-27641048D01*
X64802762Y-28847548D02*
X64802762Y-27641048D01*
X64515500Y-27641048D01*
X64343143Y-27698500D01*
X64228238Y-27813405D01*
X64170786Y-27928310D01*
X64113334Y-28158119D01*
X64113334Y-28330476D01*
X64170786Y-28560286D01*
X64228238Y-28675190D01*
X64343143Y-28790095D01*
X64515500Y-28847548D01*
X64802762Y-28847548D01*
X63596262Y-28215571D02*
X63194095Y-28215571D01*
X63021738Y-28847548D02*
X63596262Y-28847548D01*
X63596262Y-27641048D01*
X63021738Y-27641048D01*
X62347738Y-28847548D02*
X62347738Y-27641048D01*
X62060476Y-27641048D01*
X61888119Y-27698500D01*
X61773214Y-27813405D01*
X61715762Y-27928310D01*
X61658310Y-28158119D01*
X61658310Y-28330476D01*
X61715762Y-28560286D01*
X61773214Y-28675190D01*
X61888119Y-28790095D01*
X62060476Y-28847548D01*
X62347738Y-28847548D01*
X61141238Y-28847548D02*
X61141238Y-27641048D01*
X60336905Y-27641048D02*
X60107095Y-27641048D01*
X59992190Y-27698500D01*
X59877286Y-27813405D01*
X59819833Y-28043214D01*
X59819833Y-28445381D01*
X59877286Y-28675190D01*
X59992190Y-28790095D01*
X60107095Y-28847548D01*
X60336905Y-28847548D01*
X60451809Y-28790095D01*
X60566714Y-28675190D01*
X60624166Y-28445381D01*
X60624166Y-28043214D01*
X60566714Y-27813405D01*
X60451809Y-27698500D01*
X60336905Y-27641048D01*
X59302762Y-28847548D02*
X59302762Y-27641048D01*
X59015500Y-27641048D01*
X58843143Y-27698500D01*
X58728238Y-27813405D01*
X58670786Y-27928310D01*
X58613334Y-28158119D01*
X58613334Y-28330476D01*
X58670786Y-28560286D01*
X58728238Y-28675190D01*
X58843143Y-28790095D01*
X59015500Y-28847548D01*
X59302762Y-28847548D01*
X58096262Y-28215571D02*
X57694095Y-28215571D01*
X57521738Y-28847548D02*
X58096262Y-28847548D01*
X58096262Y-27641048D01*
X57521738Y-27641048D01*
X54847738Y-28847548D02*
X54847738Y-27641048D01*
X54560476Y-27641048D01*
X54388119Y-27698500D01*
X54273214Y-27813405D01*
X54215762Y-27928310D01*
X54158310Y-28158119D01*
X54158310Y-28330476D01*
X54215762Y-28560286D01*
X54273214Y-28675190D01*
X54388119Y-28790095D01*
X54560476Y-28847548D01*
X54847738Y-28847548D01*
X53641238Y-28847548D02*
X53641238Y-27641048D01*
X52836905Y-27641048D02*
X52607095Y-27641048D01*
X52492190Y-27698500D01*
X52377286Y-27813405D01*
X52319833Y-28043214D01*
X52319833Y-28445381D01*
X52377286Y-28675190D01*
X52492190Y-28790095D01*
X52607095Y-28847548D01*
X52836905Y-28847548D01*
X52951809Y-28790095D01*
X53066714Y-28675190D01*
X53124166Y-28445381D01*
X53124166Y-28043214D01*
X53066714Y-27813405D01*
X52951809Y-27698500D01*
X52836905Y-27641048D01*
X51802762Y-28847548D02*
X51802762Y-27641048D01*
X51515500Y-27641048D01*
X51343143Y-27698500D01*
X51228238Y-27813405D01*
X51170786Y-27928310D01*
X51113334Y-28158119D01*
X51113334Y-28330476D01*
X51170786Y-28560286D01*
X51228238Y-28675190D01*
X51343143Y-28790095D01*
X51515500Y-28847548D01*
X51802762Y-28847548D01*
X50596262Y-28215571D02*
X50194095Y-28215571D01*
X50021738Y-28847548D02*
X50596262Y-28847548D01*
X50596262Y-27641048D01*
X50021738Y-27641048D01*
X37347738Y-28847548D02*
X37347738Y-27641048D01*
X37060476Y-27641048D01*
X36888119Y-27698500D01*
X36773214Y-27813405D01*
X36715762Y-27928310D01*
X36658310Y-28158119D01*
X36658310Y-28330476D01*
X36715762Y-28560286D01*
X36773214Y-28675190D01*
X36888119Y-28790095D01*
X37060476Y-28847548D01*
X37347738Y-28847548D01*
X36141238Y-28847548D02*
X36141238Y-27641048D01*
X35336905Y-27641048D02*
X35107095Y-27641048D01*
X34992190Y-27698500D01*
X34877286Y-27813405D01*
X34819833Y-28043214D01*
X34819833Y-28445381D01*
X34877286Y-28675190D01*
X34992190Y-28790095D01*
X35107095Y-28847548D01*
X35336905Y-28847548D01*
X35451809Y-28790095D01*
X35566714Y-28675190D01*
X35624166Y-28445381D01*
X35624166Y-28043214D01*
X35566714Y-27813405D01*
X35451809Y-27698500D01*
X35336905Y-27641048D01*
X34302762Y-28847548D02*
X34302762Y-27641048D01*
X34015500Y-27641048D01*
X33843143Y-27698500D01*
X33728238Y-27813405D01*
X33670786Y-27928310D01*
X33613334Y-28158119D01*
X33613334Y-28330476D01*
X33670786Y-28560286D01*
X33728238Y-28675190D01*
X33843143Y-28790095D01*
X34015500Y-28847548D01*
X34302762Y-28847548D01*
X33096262Y-28215571D02*
X32694095Y-28215571D01*
X32521738Y-28847548D02*
X33096262Y-28847548D01*
X33096262Y-27641048D01*
X32521738Y-27641048D01*
X32347738Y-28847548D02*
X32347738Y-27641048D01*
X32060476Y-27641048D01*
X31888119Y-27698500D01*
X31773214Y-27813405D01*
X31715762Y-27928310D01*
X31658310Y-28158119D01*
X31658310Y-28330476D01*
X31715762Y-28560286D01*
X31773214Y-28675190D01*
X31888119Y-28790095D01*
X32060476Y-28847548D01*
X32347738Y-28847548D01*
X31141238Y-28847548D02*
X31141238Y-27641048D01*
X30336905Y-27641048D02*
X30107095Y-27641048D01*
X29992190Y-27698500D01*
X29877286Y-27813405D01*
X29819833Y-28043214D01*
X29819833Y-28445381D01*
X29877286Y-28675190D01*
X29992190Y-28790095D01*
X30107095Y-28847548D01*
X30336905Y-28847548D01*
X30451809Y-28790095D01*
X30566714Y-28675190D01*
X30624166Y-28445381D01*
X30624166Y-28043214D01*
X30566714Y-27813405D01*
X30451809Y-27698500D01*
X30336905Y-27641048D01*
X29302762Y-28847548D02*
X29302762Y-27641048D01*
X29015500Y-27641048D01*
X28843143Y-27698500D01*
X28728238Y-27813405D01*
X28670786Y-27928310D01*
X28613334Y-28158119D01*
X28613334Y-28330476D01*
X28670786Y-28560286D01*
X28728238Y-28675190D01*
X28843143Y-28790095D01*
X29015500Y-28847548D01*
X29302762Y-28847548D01*
X28096262Y-28215571D02*
X27694095Y-28215571D01*
X27521738Y-28847548D02*
X28096262Y-28847548D01*
X28096262Y-27641048D01*
X27521738Y-27641048D01*
X26347738Y-28847548D02*
X26347738Y-27641048D01*
X26060476Y-27641048D01*
X25888119Y-27698500D01*
X25773214Y-27813405D01*
X25715762Y-27928310D01*
X25658310Y-28158119D01*
X25658310Y-28330476D01*
X25715762Y-28560286D01*
X25773214Y-28675190D01*
X25888119Y-28790095D01*
X26060476Y-28847548D01*
X26347738Y-28847548D01*
X25141238Y-28847548D02*
X25141238Y-27641048D01*
X24336905Y-27641048D02*
X24107095Y-27641048D01*
X23992190Y-27698500D01*
X23877286Y-27813405D01*
X23819833Y-28043214D01*
X23819833Y-28445381D01*
X23877286Y-28675190D01*
X23992190Y-28790095D01*
X24107095Y-28847548D01*
X24336905Y-28847548D01*
X24451809Y-28790095D01*
X24566714Y-28675190D01*
X24624166Y-28445381D01*
X24624166Y-28043214D01*
X24566714Y-27813405D01*
X24451809Y-27698500D01*
X24336905Y-27641048D01*
X23302762Y-28847548D02*
X23302762Y-27641048D01*
X23015500Y-27641048D01*
X22843143Y-27698500D01*
X22728238Y-27813405D01*
X22670786Y-27928310D01*
X22613334Y-28158119D01*
X22613334Y-28330476D01*
X22670786Y-28560286D01*
X22728238Y-28675190D01*
X22843143Y-28790095D01*
X23015500Y-28847548D01*
X23302762Y-28847548D01*
X22096262Y-28215571D02*
X21694095Y-28215571D01*
X21521738Y-28847548D02*
X22096262Y-28847548D01*
X22096262Y-27641048D01*
X21521738Y-27641048D01*
X18847738Y-28847548D02*
X18847738Y-27641048D01*
X18560476Y-27641048D01*
X18388119Y-27698500D01*
X18273214Y-27813405D01*
X18215762Y-27928310D01*
X18158310Y-28158119D01*
X18158310Y-28330476D01*
X18215762Y-28560286D01*
X18273214Y-28675190D01*
X18388119Y-28790095D01*
X18560476Y-28847548D01*
X18847738Y-28847548D01*
X17641238Y-28847548D02*
X17641238Y-27641048D01*
X16836905Y-27641048D02*
X16607095Y-27641048D01*
X16492190Y-27698500D01*
X16377286Y-27813405D01*
X16319833Y-28043214D01*
X16319833Y-28445381D01*
X16377286Y-28675190D01*
X16492190Y-28790095D01*
X16607095Y-28847548D01*
X16836905Y-28847548D01*
X16951809Y-28790095D01*
X17066714Y-28675190D01*
X17124166Y-28445381D01*
X17124166Y-28043214D01*
X17066714Y-27813405D01*
X16951809Y-27698500D01*
X16836905Y-27641048D01*
X15802762Y-28847548D02*
X15802762Y-27641048D01*
X15515500Y-27641048D01*
X15343143Y-27698500D01*
X15228238Y-27813405D01*
X15170786Y-27928310D01*
X15113334Y-28158119D01*
X15113334Y-28330476D01*
X15170786Y-28560286D01*
X15228238Y-28675190D01*
X15343143Y-28790095D01*
X15515500Y-28847548D01*
X15802762Y-28847548D01*
X14596262Y-28215571D02*
X14194095Y-28215571D01*
X14021738Y-28847548D02*
X14596262Y-28847548D01*
X14596262Y-27641048D01*
X14021738Y-27641048D01*
M02*
