G04 #@! TF.FileFunction,Soldermask,Bot*
%FSLAX46Y46*%
G04 Gerber Fmt 4.6, Leading zero omitted, Abs format (unit mm)*
G04 Created by KiCad (PCBNEW 4.0.5) date 02/04/17 17:13:21*
%MOMM*%
%LPD*%
G01*
G04 APERTURE LIST*
%ADD10C,0.100000*%
%ADD11R,2.200000X3.900000*%
%ADD12R,3.400000X3.900000*%
%ADD13R,10.400000X8.400000*%
%ADD14R,3.400000X6.900000*%
%ADD15R,6.851600X3.400000*%
%ADD16C,2.100000*%
%ADD17R,2.100000X2.100000*%
%ADD18R,1.000000X1.950000*%
%ADD19R,1.000000X1.900000*%
%ADD20R,3.448000X2.051000*%
%ADD21R,6.496000X6.496000*%
%ADD22C,1.700000*%
%ADD23R,1.700000X1.700000*%
%ADD24R,2.000000X2.200000*%
%ADD25R,2.432000X2.432000*%
%ADD26O,2.432000X2.432000*%
%ADD27R,1.200000X1.400000*%
%ADD28R,1.400000X1.200000*%
%ADD29R,2.899360X2.200860*%
%ADD30R,1.365200X1.670000*%
%ADD31C,1.600000*%
%ADD32R,2.127200X2.432000*%
%ADD33O,2.127200X2.432000*%
%ADD34R,2.127200X2.127200*%
%ADD35O,2.127200X2.127200*%
%ADD36O,1.400000X1.924000*%
%ADD37C,1.924000*%
%ADD38O,1.900000X2.900000*%
%ADD39C,3.400000*%
%ADD40C,2.400000*%
%ADD41C,4.400000*%
%ADD42R,2.200000X2.000000*%
%ADD43R,1.600000X2.100000*%
%ADD44R,3.700000X2.100000*%
%ADD45R,2.051000X3.448000*%
%ADD46C,1.400000*%
%ADD47R,2.400000X1.000000*%
%ADD48C,0.026000*%
G04 APERTURE END LIST*
D10*
D11*
X36540000Y-21500000D03*
D12*
X31460000Y-21500000D03*
D13*
X34000000Y-11500000D03*
D14*
X21700000Y-24000000D03*
D15*
X28900000Y-23100000D03*
D16*
X44000000Y-4000000D03*
D17*
X44000000Y-9000000D03*
D18*
X36595000Y-64800000D03*
X37865000Y-64800000D03*
X39135000Y-64800000D03*
X40405000Y-64800000D03*
X40405000Y-70200000D03*
X39135000Y-70200000D03*
X37865000Y-70200000D03*
X36595000Y-70200000D03*
D19*
X38445000Y-38700000D03*
X37175000Y-38700000D03*
X35905000Y-38700000D03*
X34635000Y-38700000D03*
X33365000Y-38700000D03*
X32095000Y-38700000D03*
X30825000Y-38700000D03*
X29555000Y-38700000D03*
X29555000Y-33300000D03*
X30825000Y-33300000D03*
X32095000Y-33300000D03*
X33365000Y-33300000D03*
X34635000Y-33300000D03*
X35905000Y-33300000D03*
X37175000Y-33300000D03*
X38445000Y-33300000D03*
D20*
X48500000Y-14214000D03*
D21*
X42150000Y-16500000D03*
D20*
X48500000Y-18786000D03*
D22*
X53750000Y-54500000D03*
D23*
X51250000Y-54500000D03*
D24*
X38600000Y-31000000D03*
X35400000Y-31000000D03*
X32600000Y-31000000D03*
X29400000Y-31000000D03*
X26600000Y-31000000D03*
X23400000Y-31000000D03*
X20100000Y-31000000D03*
X16900000Y-31000000D03*
X74600000Y-31000000D03*
X71400000Y-31000000D03*
X68600000Y-31000000D03*
X65400000Y-31000000D03*
X62600000Y-31000000D03*
X59400000Y-31000000D03*
X56100000Y-31000000D03*
X52900000Y-31000000D03*
D25*
X8500000Y-73000000D03*
D26*
X8500000Y-70460000D03*
D19*
X26445000Y-38700000D03*
X25175000Y-38700000D03*
X23905000Y-38700000D03*
X22635000Y-38700000D03*
X21365000Y-38700000D03*
X20095000Y-38700000D03*
X18825000Y-38700000D03*
X17555000Y-38700000D03*
X17555000Y-33300000D03*
X18825000Y-33300000D03*
X20095000Y-33300000D03*
X21365000Y-33300000D03*
X22635000Y-33300000D03*
X23905000Y-33300000D03*
X25175000Y-33300000D03*
X26445000Y-33300000D03*
X74445000Y-38700000D03*
X73175000Y-38700000D03*
X71905000Y-38700000D03*
X70635000Y-38700000D03*
X69365000Y-38700000D03*
X68095000Y-38700000D03*
X66825000Y-38700000D03*
X65555000Y-38700000D03*
X65555000Y-33300000D03*
X66825000Y-33300000D03*
X68095000Y-33300000D03*
X69365000Y-33300000D03*
X70635000Y-33300000D03*
X71905000Y-33300000D03*
X73175000Y-33300000D03*
X74445000Y-33300000D03*
X62445000Y-38700000D03*
X61175000Y-38700000D03*
X59905000Y-38700000D03*
X58635000Y-38700000D03*
X57365000Y-38700000D03*
X56095000Y-38700000D03*
X54825000Y-38700000D03*
X53555000Y-38700000D03*
X53555000Y-33300000D03*
X54825000Y-33300000D03*
X56095000Y-33300000D03*
X57365000Y-33300000D03*
X58635000Y-33300000D03*
X59905000Y-33300000D03*
X61175000Y-33300000D03*
X62445000Y-33300000D03*
D27*
X5600000Y-67000000D03*
X7400000Y-67000000D03*
X2100000Y-67000000D03*
X3900000Y-67000000D03*
D28*
X29000000Y-54400000D03*
X29000000Y-52600000D03*
D27*
X37900000Y-29000000D03*
X36100000Y-29000000D03*
X32900000Y-29000000D03*
X31100000Y-29000000D03*
X26900000Y-29000000D03*
X25100000Y-29000000D03*
X19400000Y-29000000D03*
X17600000Y-29000000D03*
X73900000Y-27000000D03*
X72100000Y-27000000D03*
X68400000Y-29000000D03*
X66600000Y-29000000D03*
X62900000Y-29000000D03*
X61100000Y-29000000D03*
X55400000Y-29000000D03*
X53600000Y-29000000D03*
X12900000Y-68500000D03*
X11100000Y-68500000D03*
D28*
X38500000Y-25400000D03*
X38500000Y-23600000D03*
X24500000Y-25900000D03*
X24500000Y-24100000D03*
X74500000Y-25400000D03*
X74500000Y-23600000D03*
X60500000Y-25900000D03*
X60500000Y-24100000D03*
X59000000Y-8900000D03*
X59000000Y-7100000D03*
X43000000Y-67400000D03*
X43000000Y-65600000D03*
D29*
X56248980Y-49000000D03*
X52251020Y-49000000D03*
D30*
X1730000Y-54500000D03*
X3000000Y-54500000D03*
X4270000Y-54500000D03*
D28*
X52000000Y-69900000D03*
X52000000Y-68100000D03*
X54500000Y-69900000D03*
X54500000Y-68100000D03*
X64500000Y-69900000D03*
X64500000Y-68100000D03*
X67000000Y-69900000D03*
X67000000Y-68100000D03*
D29*
X42001020Y-11500000D03*
X45998980Y-11500000D03*
D31*
X51000000Y-60000000D03*
X51000000Y-62000000D03*
D28*
X45000000Y-50400000D03*
X45000000Y-48600000D03*
D32*
X47500000Y-45000000D03*
D33*
X44960000Y-45000000D03*
X42420000Y-45000000D03*
X39880000Y-45000000D03*
D34*
X87500000Y-48500000D03*
D35*
X87500000Y-45960000D03*
X84960000Y-48500000D03*
X84960000Y-45960000D03*
X82420000Y-48500000D03*
X82420000Y-45960000D03*
X79880000Y-48500000D03*
X79880000Y-45960000D03*
X77340000Y-48500000D03*
X77340000Y-45960000D03*
X74800000Y-48500000D03*
X74800000Y-45960000D03*
D32*
X47500000Y-33000000D03*
D33*
X44960000Y-33000000D03*
X42420000Y-33000000D03*
D36*
X1500000Y-52500000D03*
X3000000Y-52500000D03*
X4500000Y-52500000D03*
X6000000Y-52500000D03*
X7500000Y-52500000D03*
X9000000Y-52500000D03*
D37*
X9310000Y-62540000D03*
X9310000Y-60000000D03*
X9310000Y-57460000D03*
X1690000Y-57460000D03*
X1690000Y-60000000D03*
X1690000Y-62540000D03*
D38*
X47000000Y-66000000D03*
X49500000Y-66000000D03*
X52000000Y-66000000D03*
X54500000Y-66000000D03*
D39*
X50750000Y-72500000D03*
D40*
X9040000Y-12000000D03*
X9040000Y-17080000D03*
X3960000Y-12000000D03*
X3960000Y-17080000D03*
D41*
X6500000Y-4380000D03*
D38*
X59500000Y-66000000D03*
X62000000Y-66000000D03*
X64500000Y-66000000D03*
X67000000Y-66000000D03*
D39*
X63250000Y-72500000D03*
D38*
X13000000Y-66000000D03*
X15500000Y-66000000D03*
X18000000Y-66000000D03*
X20500000Y-66000000D03*
D39*
X16750000Y-72500000D03*
D38*
X25500000Y-66000000D03*
X28000000Y-66000000D03*
X30500000Y-66000000D03*
X33000000Y-66000000D03*
D39*
X29250000Y-72500000D03*
D42*
X19000000Y-6600000D03*
X19000000Y-3400000D03*
X29500000Y-7100000D03*
X29500000Y-3900000D03*
X65500000Y-7600000D03*
X65500000Y-4400000D03*
X56000000Y-7100000D03*
X56000000Y-3900000D03*
D14*
X57700000Y-24000000D03*
D15*
X64900000Y-23100000D03*
D14*
X9800000Y-22500000D03*
D15*
X4100000Y-22900000D03*
D14*
X11300000Y-31000000D03*
D15*
X4100000Y-31900000D03*
D43*
X43700000Y-49000000D03*
X46000000Y-49000000D03*
X48300000Y-49000000D03*
D44*
X46000000Y-55300000D03*
D45*
X78214000Y-58500000D03*
D21*
X80500000Y-64850000D03*
D45*
X82786000Y-58500000D03*
D46*
X79000000Y-31000000D03*
D28*
X35500000Y-6400000D03*
X35500000Y-4600000D03*
X68000000Y-6400000D03*
X68000000Y-4600000D03*
X24500000Y-5400000D03*
X24500000Y-3600000D03*
X58000000Y-6900000D03*
X58000000Y-5100000D03*
D27*
X73900000Y-29000000D03*
X72100000Y-29000000D03*
X68400000Y-27000000D03*
X66600000Y-27000000D03*
X62900000Y-27000000D03*
X61100000Y-27000000D03*
X55400000Y-27000000D03*
X53600000Y-27000000D03*
X37900000Y-27000000D03*
X36100000Y-27000000D03*
X32900000Y-27000000D03*
X31100000Y-27000000D03*
X26900000Y-27000000D03*
X25100000Y-27000000D03*
X19400000Y-27000000D03*
X17600000Y-27000000D03*
D11*
X24540000Y-21500000D03*
D12*
X19460000Y-21500000D03*
D13*
X22000000Y-11500000D03*
D11*
X60540000Y-21500000D03*
D12*
X55460000Y-21500000D03*
D13*
X58000000Y-11500000D03*
D11*
X72540000Y-21500000D03*
D12*
X67460000Y-21500000D03*
D13*
X70000000Y-11500000D03*
D34*
X72000000Y-53000000D03*
D35*
X74540000Y-53000000D03*
X72000000Y-55540000D03*
X74540000Y-55540000D03*
X72000000Y-58080000D03*
X74540000Y-58080000D03*
X72000000Y-60620000D03*
X74540000Y-60620000D03*
D47*
X59800000Y-62080000D03*
X59800000Y-60810000D03*
X59800000Y-59540000D03*
X59800000Y-58270000D03*
X59800000Y-57000000D03*
X59800000Y-55730000D03*
X59800000Y-54460000D03*
X59800000Y-53190000D03*
X59800000Y-51920000D03*
X69200000Y-51920000D03*
X69200000Y-53190000D03*
X69200000Y-54460000D03*
X69200000Y-55730000D03*
X69200000Y-57000000D03*
X69200000Y-58270000D03*
X69200000Y-59540000D03*
X69200000Y-60810000D03*
X69200000Y-62080000D03*
D48*
G36*
X73487000Y-6987000D02*
X15000000Y-6987000D01*
X14994942Y-6988024D01*
X14991678Y-6990013D01*
X11991678Y-9490013D01*
X11988448Y-9494038D01*
X11987000Y-9500000D01*
X11987000Y-27987000D01*
X11013000Y-27987000D01*
X11013000Y-9005979D01*
X14504808Y-6013000D01*
X73487000Y-6013000D01*
X73487000Y-6987000D01*
X73487000Y-6987000D01*
G37*
X73487000Y-6987000D02*
X15000000Y-6987000D01*
X14994942Y-6988024D01*
X14991678Y-6990013D01*
X11991678Y-9490013D01*
X11988448Y-9494038D01*
X11987000Y-9500000D01*
X11987000Y-27987000D01*
X11013000Y-27987000D01*
X11013000Y-9005979D01*
X14504808Y-6013000D01*
X73487000Y-6013000D01*
X73487000Y-6987000D01*
G36*
X69487000Y-1987000D02*
X2000000Y-1987000D01*
X1994942Y-1988024D01*
X1990681Y-1990935D01*
X1987889Y-1995275D01*
X1987000Y-2000000D01*
X1987000Y-33487000D01*
X1013000Y-33487000D01*
X1013000Y-1013000D01*
X69487000Y-1013000D01*
X69487000Y-1987000D01*
X69487000Y-1987000D01*
G37*
X69487000Y-1987000D02*
X2000000Y-1987000D01*
X1994942Y-1988024D01*
X1990681Y-1990935D01*
X1987889Y-1995275D01*
X1987000Y-2000000D01*
X1987000Y-33487000D01*
X1013000Y-33487000D01*
X1013000Y-1013000D01*
X69487000Y-1013000D01*
X69487000Y-1987000D01*
M02*
