G04 #@! TF.FileFunction,Copper,L2,Bot,Signal*
%FSLAX46Y46*%
G04 Gerber Fmt 4.6, Leading zero omitted, Abs format (unit mm)*
G04 Created by KiCad (PCBNEW 4.0.7) date 01/30/18 18:32:40*
%MOMM*%
%LPD*%
G01*
G04 APERTURE LIST*
%ADD10C,0.100000*%
%ADD11R,1.000000X0.600000*%
%ADD12R,1.500000X2.400000*%
%ADD13R,7.000240X7.000240*%
%ADD14R,1.727200X2.032000*%
%ADD15O,1.727200X2.032000*%
%ADD16R,0.965200X1.270000*%
%ADD17R,1.700000X1.200000*%
%ADD18R,1.700000X3.300000*%
%ADD19R,1.300000X1.300000*%
%ADD20C,1.300000*%
%ADD21R,2.032000X1.727200*%
%ADD22O,2.032000X1.727200*%
%ADD23R,0.600000X1.000000*%
%ADD24C,3.000000*%
%ADD25C,1.200000*%
%ADD26C,0.800000*%
%ADD27C,0.600000*%
%ADD28C,0.500000*%
%ADD29C,0.250000*%
%ADD30C,0.026000*%
G04 APERTURE END LIST*
D10*
D11*
X8890000Y-25035000D03*
X8890000Y-27035000D03*
X19050000Y-25035000D03*
X19050000Y-27035000D03*
D12*
X11190000Y-14880000D03*
X6590000Y-14880000D03*
D13*
X8890000Y-8980680D03*
D12*
X11190000Y-26310000D03*
X6590000Y-26310000D03*
D13*
X8890000Y-20410680D03*
D12*
X21350000Y-14880000D03*
X16750000Y-14880000D03*
D13*
X19050000Y-8980680D03*
D12*
X21350000Y-26310000D03*
X16750000Y-26310000D03*
D13*
X19050000Y-20410680D03*
D14*
X5080000Y-39370000D03*
D15*
X7620000Y-39370000D03*
X10160000Y-39370000D03*
X12700000Y-39370000D03*
X15240000Y-39370000D03*
X17780000Y-39370000D03*
X20320000Y-39370000D03*
X22860000Y-39370000D03*
X25400000Y-39370000D03*
X27940000Y-39370000D03*
X30480000Y-39370000D03*
X33020000Y-39370000D03*
X35560000Y-39370000D03*
X38100000Y-39370000D03*
X40640000Y-39370000D03*
X43180000Y-39370000D03*
D12*
X31510000Y-14880000D03*
X26910000Y-14880000D03*
D13*
X29210000Y-8980680D03*
D12*
X31510000Y-26310000D03*
X26910000Y-26310000D03*
D13*
X29210000Y-20410680D03*
D12*
X41670000Y-14880000D03*
X37070000Y-14880000D03*
D13*
X39370000Y-8980680D03*
D12*
X41670000Y-26310000D03*
X37070000Y-26310000D03*
D13*
X39370000Y-20410680D03*
D11*
X29210000Y-25035000D03*
X29210000Y-27035000D03*
X39370000Y-25035000D03*
X39370000Y-27035000D03*
D16*
X14605000Y-36830000D03*
X15875000Y-36830000D03*
X24765000Y-36830000D03*
X26035000Y-36830000D03*
X34925000Y-36830000D03*
X36195000Y-36830000D03*
X43815000Y-36830000D03*
X42545000Y-36830000D03*
D17*
X52070000Y-31990000D03*
X52070000Y-34290000D03*
X52070000Y-36590000D03*
D18*
X45770000Y-34290000D03*
D19*
X48260000Y-25400000D03*
D20*
X48260000Y-30400000D03*
D19*
X48260000Y-15240000D03*
D20*
X48260000Y-20240000D03*
D14*
X50800000Y-39370000D03*
D15*
X48260000Y-39370000D03*
X45720000Y-39370000D03*
D21*
X45720000Y-6350000D03*
D22*
X45720000Y-8890000D03*
X45720000Y-11430000D03*
X45720000Y-13970000D03*
D21*
X50800000Y-6350000D03*
D22*
X50800000Y-8890000D03*
X50800000Y-11430000D03*
X50800000Y-13970000D03*
D23*
X47355000Y-31750000D03*
X45355000Y-31750000D03*
D24*
X34290000Y-13335000D03*
X13970000Y-13335000D03*
X24130000Y-13335000D03*
D25*
X8890000Y-15240000D03*
X7620000Y-16510000D03*
X8890000Y-16510000D03*
X10160000Y-20320000D03*
X10160000Y-21590000D03*
X11430000Y-17780000D03*
X10160000Y-17780000D03*
X8890000Y-17780000D03*
X7620000Y-17780000D03*
X7620000Y-19050000D03*
X7620000Y-20320000D03*
X7620000Y-21590000D03*
X7620000Y-22860000D03*
X8890000Y-22860000D03*
X10160000Y-22860000D03*
X11430000Y-22860000D03*
X11430000Y-21590000D03*
X11430000Y-20320000D03*
X11430000Y-19050000D03*
X10160000Y-19050000D03*
X8890000Y-19050000D03*
X8890000Y-20320000D03*
X8890000Y-21590000D03*
D26*
X5080000Y-15240000D03*
D25*
X19050000Y-15240000D03*
X17780000Y-17780000D03*
X17780000Y-16510000D03*
X19050000Y-16510000D03*
X17780000Y-19050000D03*
X17780000Y-20320000D03*
X17780000Y-21590000D03*
X17780000Y-22860000D03*
X19050000Y-22860000D03*
X19050000Y-21590000D03*
X19050000Y-20320000D03*
X19050000Y-19050000D03*
X19050000Y-17780000D03*
X20320000Y-17780000D03*
X20320000Y-19050000D03*
X20320000Y-20320000D03*
X20320000Y-21590000D03*
X20320000Y-22860000D03*
X21590000Y-22860000D03*
X21590000Y-21590000D03*
X21590000Y-20320000D03*
X21590000Y-19050000D03*
X21590000Y-17780000D03*
D26*
X15240000Y-15240000D03*
X10795000Y-13335000D03*
X11430000Y-24765000D03*
X20955000Y-13335000D03*
X21590000Y-24765000D03*
X47625000Y-34290000D03*
D25*
X29210000Y-15240000D03*
X27940000Y-17780000D03*
X27940000Y-16510000D03*
X29210000Y-16510000D03*
X27940000Y-19050000D03*
X27940000Y-20320000D03*
X27940000Y-21590000D03*
X27940000Y-22860000D03*
X29210000Y-22860000D03*
X29210000Y-21590000D03*
X29210000Y-20320000D03*
X29210000Y-19050000D03*
X29210000Y-17780000D03*
X30480000Y-17780000D03*
X30480000Y-19050000D03*
X30480000Y-20320000D03*
X30480000Y-21590000D03*
X30480000Y-22860000D03*
X31750000Y-22860000D03*
X31750000Y-21590000D03*
X31750000Y-20320000D03*
X31750000Y-19050000D03*
X31750000Y-17780000D03*
D26*
X25400000Y-15240000D03*
D25*
X39370000Y-20320000D03*
X39370000Y-21590000D03*
X39370000Y-22860000D03*
X39370000Y-19050000D03*
X39370000Y-17780000D03*
X40640000Y-17780000D03*
X40640000Y-19050000D03*
X40640000Y-20320000D03*
X40640000Y-21590000D03*
X40640000Y-22860000D03*
X41910000Y-22860000D03*
X41910000Y-21590000D03*
X41910000Y-20320000D03*
X41910000Y-19050000D03*
X41910000Y-17780000D03*
X39370000Y-15240000D03*
X38100000Y-17780000D03*
X38100000Y-16510000D03*
X39370000Y-16510000D03*
X38100000Y-19050000D03*
X38100000Y-20320000D03*
X38100000Y-21590000D03*
X38100000Y-22860000D03*
D26*
X35560000Y-15240000D03*
X12065000Y-37465000D03*
X22225000Y-37465000D03*
X32385000Y-37465000D03*
X42545000Y-37465000D03*
D25*
X33655000Y-34925000D03*
X23495000Y-34925000D03*
X13335000Y-34925000D03*
D26*
X37465000Y-24765000D03*
X27305000Y-24765000D03*
X17145000Y-24765000D03*
X6985000Y-24765000D03*
X31115000Y-13335000D03*
X31750000Y-24765000D03*
X41275000Y-13335000D03*
X41910000Y-24765000D03*
X50800000Y-34290000D03*
X50165000Y-36830000D03*
D27*
X45720000Y-31750000D03*
D28*
X8890000Y-16510000D02*
X8890000Y-15240000D01*
X8890000Y-20410680D02*
X8890000Y-16510000D01*
X8890000Y-21590000D02*
X10160000Y-20320000D01*
X10160000Y-21590000D02*
X8890000Y-20410680D01*
X8890000Y-20410680D02*
X11430000Y-17870680D01*
X11430000Y-17870680D02*
X11430000Y-17780000D01*
X10160000Y-17780000D02*
X8890000Y-17780000D01*
X7620000Y-17780000D02*
X7620000Y-19050000D01*
X7620000Y-20320000D02*
X7620000Y-21590000D01*
X7620000Y-22860000D02*
X8890000Y-22860000D01*
X10160000Y-22860000D02*
X11430000Y-22860000D01*
X11430000Y-21590000D02*
X11430000Y-20320000D01*
X11430000Y-19050000D02*
X10160000Y-19050000D01*
X8890000Y-19050000D02*
X8890000Y-20320000D01*
X8890000Y-25035000D02*
X8890000Y-20410680D01*
X5440000Y-14880000D02*
X6590000Y-14880000D01*
X5080000Y-15240000D02*
X5440000Y-14880000D01*
X17780000Y-19050000D02*
X17780000Y-17780000D01*
X19050000Y-16510000D02*
X17780000Y-16510000D01*
X17780000Y-20320000D02*
X17780000Y-21590000D01*
X17780000Y-22860000D02*
X19050000Y-22860000D01*
X19050000Y-21590000D02*
X19050000Y-20320000D01*
X19050000Y-19050000D02*
X19050000Y-17780000D01*
X20320000Y-17780000D02*
X20320000Y-19050000D01*
X20320000Y-20320000D02*
X20320000Y-21590000D01*
X20320000Y-22860000D02*
X21590000Y-22860000D01*
X21590000Y-21590000D02*
X21590000Y-20320000D01*
X21590000Y-19050000D02*
X21590000Y-17780000D01*
X19050000Y-25035000D02*
X19050000Y-20410680D01*
X15600000Y-14880000D02*
X16750000Y-14880000D01*
X15240000Y-15240000D02*
X15600000Y-14880000D01*
X10795000Y-13335000D02*
X11190000Y-13730000D01*
X11190000Y-13730000D02*
X11190000Y-14880000D01*
X11190000Y-25005000D02*
X11190000Y-26310000D01*
X11430000Y-24765000D02*
X11190000Y-25005000D01*
X11190000Y-26275000D02*
X11190000Y-26310000D01*
X20955000Y-13335000D02*
X21350000Y-13730000D01*
X21350000Y-13730000D02*
X21350000Y-14880000D01*
X21590000Y-24765000D02*
X21350000Y-25005000D01*
X21350000Y-25005000D02*
X21350000Y-26310000D01*
X45720000Y-39370000D02*
X45720000Y-38100000D01*
X47625000Y-36195000D02*
X47625000Y-34290000D01*
X45720000Y-38100000D02*
X47625000Y-36195000D01*
X27940000Y-19050000D02*
X27940000Y-17780000D01*
X29210000Y-16510000D02*
X27940000Y-16510000D01*
X27940000Y-20320000D02*
X27940000Y-21590000D01*
X27940000Y-22860000D02*
X29210000Y-22860000D01*
X29210000Y-21590000D02*
X29210000Y-20320000D01*
X29210000Y-19050000D02*
X29210000Y-17780000D01*
X30480000Y-17780000D02*
X30480000Y-19050000D01*
X30480000Y-20320000D02*
X30480000Y-21590000D01*
X30480000Y-22860000D02*
X31750000Y-22860000D01*
X31750000Y-21590000D02*
X31750000Y-20320000D01*
X31750000Y-19050000D02*
X31750000Y-17780000D01*
X29210000Y-25035000D02*
X29210000Y-20410680D01*
X26910000Y-14880000D02*
X25760000Y-14880000D01*
X25760000Y-14880000D02*
X25400000Y-15240000D01*
X39370000Y-22860000D02*
X39370000Y-21590000D01*
X39370000Y-20320000D02*
X39370000Y-19050000D01*
X39370000Y-17780000D02*
X40640000Y-17780000D01*
X40640000Y-19050000D02*
X40640000Y-20320000D01*
X40640000Y-21590000D02*
X40640000Y-22860000D01*
X41910000Y-22860000D02*
X41910000Y-21590000D01*
X41910000Y-20320000D02*
X41910000Y-19050000D01*
X41910000Y-17780000D02*
X39370000Y-20410680D01*
X38100000Y-19050000D02*
X38100000Y-17780000D01*
X39370000Y-16510000D02*
X38100000Y-16510000D01*
X38100000Y-20320000D02*
X38100000Y-21590000D01*
X38100000Y-22860000D02*
X39370000Y-20410680D01*
X39370000Y-25035000D02*
X39370000Y-20410680D01*
X37070000Y-14880000D02*
X35920000Y-14880000D01*
X35920000Y-14880000D02*
X35560000Y-15240000D01*
X14605000Y-36830000D02*
X12700000Y-36830000D01*
X12700000Y-36830000D02*
X12065000Y-37465000D01*
X7620000Y-39370000D02*
X9525000Y-37465000D01*
X9525000Y-37465000D02*
X12065000Y-37465000D01*
X15875000Y-36830000D02*
X17145000Y-36830000D01*
X17780000Y-37465000D02*
X17780000Y-39370000D01*
X17145000Y-36830000D02*
X17780000Y-37465000D01*
X22225000Y-37465000D02*
X22860000Y-36830000D01*
X22860000Y-36830000D02*
X24765000Y-36830000D01*
X19685000Y-37465000D02*
X17780000Y-39370000D01*
X22225000Y-37465000D02*
X19685000Y-37465000D01*
X26035000Y-36830000D02*
X27305000Y-36830000D01*
X27940000Y-37465000D02*
X27940000Y-39370000D01*
X27305000Y-36830000D02*
X27940000Y-37465000D01*
X32385000Y-37465000D02*
X33020000Y-36830000D01*
X33020000Y-36830000D02*
X34925000Y-36830000D01*
X27940000Y-39370000D02*
X29845000Y-37465000D01*
X29845000Y-37465000D02*
X32385000Y-37465000D01*
X36195000Y-36830000D02*
X37465000Y-36830000D01*
X38100000Y-37465000D02*
X38100000Y-39370000D01*
X37465000Y-36830000D02*
X38100000Y-37465000D01*
X40005000Y-37465000D02*
X38100000Y-39370000D01*
X42545000Y-37465000D02*
X40005000Y-37465000D01*
X47355000Y-31750000D02*
X47355000Y-31305000D01*
X47355000Y-31305000D02*
X48260000Y-30400000D01*
X48260000Y-30400000D02*
X51355000Y-30400000D01*
X52070000Y-31115000D02*
X52070000Y-31990000D01*
X51355000Y-30400000D02*
X52070000Y-31115000D01*
X5080000Y-39370000D02*
X5080000Y-30480000D01*
X6590000Y-28970000D02*
X6590000Y-26310000D01*
X5080000Y-30480000D02*
X6590000Y-28970000D01*
X37070000Y-26310000D02*
X37070000Y-25160000D01*
X37070000Y-25160000D02*
X37465000Y-24765000D01*
X27305000Y-24765000D02*
X26910000Y-25160000D01*
X26910000Y-25160000D02*
X26910000Y-26310000D01*
X16750000Y-26310000D02*
X16750000Y-25160000D01*
X16750000Y-25160000D02*
X17145000Y-24765000D01*
X6590000Y-26310000D02*
X6590000Y-25160000D01*
X6590000Y-25160000D02*
X6985000Y-24765000D01*
X39370000Y-27035000D02*
X37795000Y-27035000D01*
X37795000Y-27035000D02*
X37070000Y-26310000D01*
X29210000Y-27035000D02*
X27635000Y-27035000D01*
X27635000Y-27035000D02*
X26910000Y-26310000D01*
X8890000Y-27035000D02*
X7315000Y-27035000D01*
X7315000Y-27035000D02*
X6590000Y-26310000D01*
X19050000Y-27035000D02*
X17475000Y-27035000D01*
X17475000Y-27035000D02*
X16750000Y-26310000D01*
X31115000Y-13335000D02*
X31510000Y-13730000D01*
X31510000Y-13730000D02*
X31510000Y-14880000D01*
X31510000Y-26310000D02*
X31510000Y-25005000D01*
X31510000Y-25005000D02*
X31750000Y-24765000D01*
X31510000Y-26275000D02*
X31510000Y-26310000D01*
X41275000Y-13335000D02*
X41670000Y-13730000D01*
X41670000Y-13730000D02*
X41670000Y-14880000D01*
X41670000Y-25005000D02*
X41670000Y-26310000D01*
X41910000Y-24765000D02*
X41670000Y-25005000D01*
X41670000Y-26275000D02*
X41670000Y-26310000D01*
X45770000Y-34290000D02*
X45770000Y-32970000D01*
X45770000Y-32970000D02*
X45820000Y-33020000D01*
X45820000Y-33020000D02*
X49530000Y-33020000D01*
X52070000Y-34290000D02*
X50800000Y-34290000D01*
X50800000Y-34290000D02*
X49530000Y-33020000D01*
X43815000Y-36830000D02*
X43815000Y-34925000D01*
X43815000Y-34925000D02*
X44450000Y-34290000D01*
X44450000Y-34290000D02*
X45135000Y-34290000D01*
X50405000Y-36590000D02*
X52070000Y-36590000D01*
X50165000Y-36830000D02*
X50405000Y-36590000D01*
D29*
X45720000Y-31750000D02*
X45355000Y-31750000D01*
D30*
G36*
X10069889Y-13763273D02*
X10069889Y-16080000D01*
X10095201Y-16214520D01*
X10174702Y-16338068D01*
X10296006Y-16420951D01*
X10440000Y-16450111D01*
X10581727Y-16450111D01*
X10650808Y-16519192D01*
X10655108Y-16522045D01*
X10660000Y-16523000D01*
X12194616Y-16523000D01*
X12687000Y-17015384D01*
X12687000Y-23624616D01*
X12194616Y-24117000D01*
X11859067Y-24117000D01*
X11582436Y-24002133D01*
X11278896Y-24001868D01*
X11000255Y-24117000D01*
X7414067Y-24117000D01*
X7137436Y-24002133D01*
X6833896Y-24001868D01*
X6555255Y-24117000D01*
X5585384Y-24117000D01*
X5093000Y-23624616D01*
X5093000Y-16832884D01*
X5724192Y-16201692D01*
X5727045Y-16197392D01*
X5728000Y-16192500D01*
X5728000Y-13840384D01*
X6220384Y-13348000D01*
X9654616Y-13348000D01*
X10069889Y-13763273D01*
X10069889Y-13763273D01*
G37*
X10069889Y-13763273D02*
X10069889Y-16080000D01*
X10095201Y-16214520D01*
X10174702Y-16338068D01*
X10296006Y-16420951D01*
X10440000Y-16450111D01*
X10581727Y-16450111D01*
X10650808Y-16519192D01*
X10655108Y-16522045D01*
X10660000Y-16523000D01*
X12194616Y-16523000D01*
X12687000Y-17015384D01*
X12687000Y-23624616D01*
X12194616Y-24117000D01*
X11859067Y-24117000D01*
X11582436Y-24002133D01*
X11278896Y-24001868D01*
X11000255Y-24117000D01*
X7414067Y-24117000D01*
X7137436Y-24002133D01*
X6833896Y-24001868D01*
X6555255Y-24117000D01*
X5585384Y-24117000D01*
X5093000Y-23624616D01*
X5093000Y-16832884D01*
X5724192Y-16201692D01*
X5727045Y-16197392D01*
X5728000Y-16192500D01*
X5728000Y-13840384D01*
X6220384Y-13348000D01*
X9654616Y-13348000D01*
X10069889Y-13763273D01*
G36*
X20229889Y-13763273D02*
X20229889Y-16080000D01*
X20255201Y-16214520D01*
X20334702Y-16338068D01*
X20456006Y-16420951D01*
X20600000Y-16450111D01*
X20741727Y-16450111D01*
X20810808Y-16519192D01*
X20815108Y-16522045D01*
X20820000Y-16523000D01*
X22354616Y-16523000D01*
X22847000Y-17015384D01*
X22847000Y-23624616D01*
X22354616Y-24117000D01*
X22019067Y-24117000D01*
X21742436Y-24002133D01*
X21438896Y-24001868D01*
X21160255Y-24117000D01*
X17574067Y-24117000D01*
X17297436Y-24002133D01*
X16993896Y-24001868D01*
X16715255Y-24117000D01*
X15745384Y-24117000D01*
X15253000Y-23624616D01*
X15253000Y-16832884D01*
X15884192Y-16201692D01*
X15887045Y-16197392D01*
X15888000Y-16192500D01*
X15888000Y-13840384D01*
X16380384Y-13348000D01*
X19814616Y-13348000D01*
X20229889Y-13763273D01*
X20229889Y-13763273D01*
G37*
X20229889Y-13763273D02*
X20229889Y-16080000D01*
X20255201Y-16214520D01*
X20334702Y-16338068D01*
X20456006Y-16420951D01*
X20600000Y-16450111D01*
X20741727Y-16450111D01*
X20810808Y-16519192D01*
X20815108Y-16522045D01*
X20820000Y-16523000D01*
X22354616Y-16523000D01*
X22847000Y-17015384D01*
X22847000Y-23624616D01*
X22354616Y-24117000D01*
X22019067Y-24117000D01*
X21742436Y-24002133D01*
X21438896Y-24001868D01*
X21160255Y-24117000D01*
X17574067Y-24117000D01*
X17297436Y-24002133D01*
X16993896Y-24001868D01*
X16715255Y-24117000D01*
X15745384Y-24117000D01*
X15253000Y-23624616D01*
X15253000Y-16832884D01*
X15884192Y-16201692D01*
X15887045Y-16197392D01*
X15888000Y-16192500D01*
X15888000Y-13840384D01*
X16380384Y-13348000D01*
X19814616Y-13348000D01*
X20229889Y-13763273D01*
G36*
X30389889Y-13763273D02*
X30389889Y-16080000D01*
X30415201Y-16214520D01*
X30494702Y-16338068D01*
X30616006Y-16420951D01*
X30760000Y-16450111D01*
X30901727Y-16450111D01*
X30970808Y-16519192D01*
X30975108Y-16522045D01*
X30980000Y-16523000D01*
X32514616Y-16523000D01*
X33007000Y-17015384D01*
X33007000Y-23624616D01*
X32514616Y-24117000D01*
X32179067Y-24117000D01*
X31902436Y-24002133D01*
X31598896Y-24001868D01*
X31320255Y-24117000D01*
X27734067Y-24117000D01*
X27457436Y-24002133D01*
X27153896Y-24001868D01*
X26875255Y-24117000D01*
X25905384Y-24117000D01*
X25413000Y-23624616D01*
X25413000Y-16832884D01*
X26044192Y-16201692D01*
X26047045Y-16197392D01*
X26048000Y-16192500D01*
X26048000Y-13840384D01*
X26540384Y-13348000D01*
X29974616Y-13348000D01*
X30389889Y-13763273D01*
X30389889Y-13763273D01*
G37*
X30389889Y-13763273D02*
X30389889Y-16080000D01*
X30415201Y-16214520D01*
X30494702Y-16338068D01*
X30616006Y-16420951D01*
X30760000Y-16450111D01*
X30901727Y-16450111D01*
X30970808Y-16519192D01*
X30975108Y-16522045D01*
X30980000Y-16523000D01*
X32514616Y-16523000D01*
X33007000Y-17015384D01*
X33007000Y-23624616D01*
X32514616Y-24117000D01*
X32179067Y-24117000D01*
X31902436Y-24002133D01*
X31598896Y-24001868D01*
X31320255Y-24117000D01*
X27734067Y-24117000D01*
X27457436Y-24002133D01*
X27153896Y-24001868D01*
X26875255Y-24117000D01*
X25905384Y-24117000D01*
X25413000Y-23624616D01*
X25413000Y-16832884D01*
X26044192Y-16201692D01*
X26047045Y-16197392D01*
X26048000Y-16192500D01*
X26048000Y-13840384D01*
X26540384Y-13348000D01*
X29974616Y-13348000D01*
X30389889Y-13763273D01*
G36*
X40549889Y-13763273D02*
X40549889Y-16080000D01*
X40575201Y-16214520D01*
X40654702Y-16338068D01*
X40776006Y-16420951D01*
X40920000Y-16450111D01*
X41061727Y-16450111D01*
X41130808Y-16519192D01*
X41135108Y-16522045D01*
X41140000Y-16523000D01*
X42674616Y-16523000D01*
X43167000Y-17015384D01*
X43167000Y-23624616D01*
X42674616Y-24117000D01*
X42339067Y-24117000D01*
X42062436Y-24002133D01*
X41758896Y-24001868D01*
X41480255Y-24117000D01*
X37894067Y-24117000D01*
X37617436Y-24002133D01*
X37313896Y-24001868D01*
X37035255Y-24117000D01*
X36065384Y-24117000D01*
X35573000Y-23624616D01*
X35573000Y-16832884D01*
X36204192Y-16201692D01*
X36207045Y-16197392D01*
X36208000Y-16192500D01*
X36208000Y-13840384D01*
X36700384Y-13348000D01*
X40134616Y-13348000D01*
X40549889Y-13763273D01*
X40549889Y-13763273D01*
G37*
X40549889Y-13763273D02*
X40549889Y-16080000D01*
X40575201Y-16214520D01*
X40654702Y-16338068D01*
X40776006Y-16420951D01*
X40920000Y-16450111D01*
X41061727Y-16450111D01*
X41130808Y-16519192D01*
X41135108Y-16522045D01*
X41140000Y-16523000D01*
X42674616Y-16523000D01*
X43167000Y-17015384D01*
X43167000Y-23624616D01*
X42674616Y-24117000D01*
X42339067Y-24117000D01*
X42062436Y-24002133D01*
X41758896Y-24001868D01*
X41480255Y-24117000D01*
X37894067Y-24117000D01*
X37617436Y-24002133D01*
X37313896Y-24001868D01*
X37035255Y-24117000D01*
X36065384Y-24117000D01*
X35573000Y-23624616D01*
X35573000Y-16832884D01*
X36204192Y-16201692D01*
X36207045Y-16197392D01*
X36208000Y-16192500D01*
X36208000Y-13840384D01*
X36700384Y-13348000D01*
X40134616Y-13348000D01*
X40549889Y-13763273D01*
G36*
X52902000Y-33319889D02*
X51220000Y-33319889D01*
X51085480Y-33345201D01*
X50961932Y-33424702D01*
X50896856Y-33519944D01*
X49963456Y-32586544D01*
X49764585Y-32453662D01*
X49530000Y-32407000D01*
X46901429Y-32407000D01*
X46885298Y-32381932D01*
X46763994Y-32299049D01*
X46620000Y-32269889D01*
X46137646Y-32269889D01*
X46281736Y-32126050D01*
X46382885Y-31882457D01*
X46383115Y-31618700D01*
X46282392Y-31374931D01*
X46096050Y-31188264D01*
X46006497Y-31151078D01*
X45999799Y-31115480D01*
X45920298Y-30991932D01*
X45798994Y-30909049D01*
X45655000Y-30879889D01*
X45055000Y-30879889D01*
X44920480Y-30905201D01*
X44796932Y-30984702D01*
X44714049Y-31106006D01*
X44684889Y-31250000D01*
X44684889Y-32250000D01*
X44703340Y-32348057D01*
X44661932Y-32374702D01*
X44579049Y-32496006D01*
X44549889Y-32640000D01*
X44549889Y-33677000D01*
X44450000Y-33677000D01*
X44215415Y-33723662D01*
X44016544Y-33856543D01*
X43381544Y-34491544D01*
X43248662Y-34690415D01*
X43202000Y-34925000D01*
X43202000Y-35849426D01*
X43197880Y-35850201D01*
X43181443Y-35860778D01*
X43171594Y-35854049D01*
X43027600Y-35824889D01*
X42062400Y-35824889D01*
X41927880Y-35850201D01*
X41804332Y-35929702D01*
X41721449Y-36051006D01*
X41692289Y-36195000D01*
X41692289Y-36817000D01*
X39237585Y-36817000D01*
X38388810Y-36465426D01*
X37827745Y-35904361D01*
X37823528Y-35901543D01*
X36969975Y-35547990D01*
X36965000Y-35547000D01*
X34739013Y-35547000D01*
X34734038Y-35547990D01*
X33203402Y-36182000D01*
X32834013Y-36182000D01*
X32829038Y-36182990D01*
X31298402Y-36817000D01*
X29077585Y-36817000D01*
X28228810Y-36465426D01*
X27667745Y-35904361D01*
X27663528Y-35901543D01*
X26809975Y-35547990D01*
X26805000Y-35547000D01*
X24579013Y-35547000D01*
X24574038Y-35547990D01*
X23043402Y-36182000D01*
X22674013Y-36182000D01*
X22669038Y-36182990D01*
X21138402Y-36817000D01*
X18917585Y-36817000D01*
X18068810Y-36465426D01*
X17507745Y-35904361D01*
X17503528Y-35901543D01*
X16649975Y-35547990D01*
X16645000Y-35547000D01*
X14419013Y-35547000D01*
X14414038Y-35547990D01*
X12883402Y-36182000D01*
X12514013Y-36182000D01*
X12509038Y-36182990D01*
X10978402Y-36817000D01*
X9390000Y-36817000D01*
X9385025Y-36817990D01*
X8531472Y-37171543D01*
X8527255Y-37174361D01*
X7966190Y-37735426D01*
X7224455Y-38042663D01*
X7150601Y-38057353D01*
X7106231Y-38087000D01*
X4315384Y-38087000D01*
X4248000Y-38019616D01*
X4248000Y-24845384D01*
X4315384Y-24778000D01*
X7749616Y-24778000D01*
X8019889Y-25048273D01*
X8019889Y-25335000D01*
X8045201Y-25469520D01*
X8124702Y-25593068D01*
X8246006Y-25675951D01*
X8390000Y-25705111D01*
X8406727Y-25705111D01*
X8745808Y-26044192D01*
X8750108Y-26047045D01*
X8755000Y-26048000D01*
X10069889Y-26048000D01*
X10069889Y-27510000D01*
X10095201Y-27644520D01*
X10174702Y-27768068D01*
X10296006Y-27850951D01*
X10440000Y-27880111D01*
X11940000Y-27880111D01*
X12074520Y-27854799D01*
X12198068Y-27775298D01*
X12280951Y-27653994D01*
X12310111Y-27510000D01*
X12310111Y-25943273D01*
X12709192Y-25544192D01*
X12712045Y-25539892D01*
X12713000Y-25535000D01*
X12713000Y-25270384D01*
X13205384Y-24778000D01*
X17909616Y-24778000D01*
X18179889Y-25048273D01*
X18179889Y-25335000D01*
X18205201Y-25469520D01*
X18284702Y-25593068D01*
X18406006Y-25675951D01*
X18550000Y-25705111D01*
X18566727Y-25705111D01*
X18905808Y-26044192D01*
X18910108Y-26047045D01*
X18915000Y-26048000D01*
X20229889Y-26048000D01*
X20229889Y-27510000D01*
X20255201Y-27644520D01*
X20334702Y-27768068D01*
X20456006Y-27850951D01*
X20600000Y-27880111D01*
X22100000Y-27880111D01*
X22234520Y-27854799D01*
X22358068Y-27775298D01*
X22440951Y-27653994D01*
X22470111Y-27510000D01*
X22470111Y-25943273D01*
X22869192Y-25544192D01*
X22872045Y-25539892D01*
X22873000Y-25535000D01*
X22873000Y-25270384D01*
X23365384Y-24778000D01*
X28069616Y-24778000D01*
X28339889Y-25048273D01*
X28339889Y-25335000D01*
X28365201Y-25469520D01*
X28444702Y-25593068D01*
X28566006Y-25675951D01*
X28710000Y-25705111D01*
X28726727Y-25705111D01*
X29065808Y-26044192D01*
X29070108Y-26047045D01*
X29075000Y-26048000D01*
X30389889Y-26048000D01*
X30389889Y-27510000D01*
X30415201Y-27644520D01*
X30494702Y-27768068D01*
X30616006Y-27850951D01*
X30760000Y-27880111D01*
X32260000Y-27880111D01*
X32394520Y-27854799D01*
X32518068Y-27775298D01*
X32600951Y-27653994D01*
X32630111Y-27510000D01*
X32630111Y-25943273D01*
X33029192Y-25544192D01*
X33032045Y-25539892D01*
X33033000Y-25535000D01*
X33033000Y-25270384D01*
X33525384Y-24778000D01*
X38229616Y-24778000D01*
X38499889Y-25048273D01*
X38499889Y-25335000D01*
X38525201Y-25469520D01*
X38604702Y-25593068D01*
X38726006Y-25675951D01*
X38870000Y-25705111D01*
X38886727Y-25705111D01*
X39225808Y-26044192D01*
X39230108Y-26047045D01*
X39235000Y-26048000D01*
X40549889Y-26048000D01*
X40549889Y-27510000D01*
X40575201Y-27644520D01*
X40654702Y-27768068D01*
X40776006Y-27850951D01*
X40920000Y-27880111D01*
X42420000Y-27880111D01*
X42554520Y-27854799D01*
X42678068Y-27775298D01*
X42760951Y-27653994D01*
X42790111Y-27510000D01*
X42790111Y-26615995D01*
X42853308Y-26679192D01*
X42857608Y-26682045D01*
X42862500Y-26683000D01*
X49030000Y-26683000D01*
X49035058Y-26681976D01*
X49039192Y-26679192D01*
X49539192Y-26179192D01*
X49542045Y-26174892D01*
X49543000Y-26170000D01*
X49543000Y-23360000D01*
X49542010Y-23355025D01*
X49188457Y-22501472D01*
X49185639Y-22497255D01*
X47989574Y-21301190D01*
X47638000Y-20452415D01*
X47638000Y-20187585D01*
X47989574Y-19338810D01*
X49185639Y-18142745D01*
X49188457Y-18138528D01*
X49542010Y-17284975D01*
X49543000Y-17280000D01*
X49543000Y-15105000D01*
X49542010Y-15100025D01*
X49188457Y-14246472D01*
X49185639Y-14242255D01*
X48624574Y-13681190D01*
X48273000Y-12832415D01*
X48273000Y-5585384D01*
X48340384Y-5518000D01*
X52902000Y-5518000D01*
X52902000Y-33319889D01*
X52902000Y-33319889D01*
G37*
X52902000Y-33319889D02*
X51220000Y-33319889D01*
X51085480Y-33345201D01*
X50961932Y-33424702D01*
X50896856Y-33519944D01*
X49963456Y-32586544D01*
X49764585Y-32453662D01*
X49530000Y-32407000D01*
X46901429Y-32407000D01*
X46885298Y-32381932D01*
X46763994Y-32299049D01*
X46620000Y-32269889D01*
X46137646Y-32269889D01*
X46281736Y-32126050D01*
X46382885Y-31882457D01*
X46383115Y-31618700D01*
X46282392Y-31374931D01*
X46096050Y-31188264D01*
X46006497Y-31151078D01*
X45999799Y-31115480D01*
X45920298Y-30991932D01*
X45798994Y-30909049D01*
X45655000Y-30879889D01*
X45055000Y-30879889D01*
X44920480Y-30905201D01*
X44796932Y-30984702D01*
X44714049Y-31106006D01*
X44684889Y-31250000D01*
X44684889Y-32250000D01*
X44703340Y-32348057D01*
X44661932Y-32374702D01*
X44579049Y-32496006D01*
X44549889Y-32640000D01*
X44549889Y-33677000D01*
X44450000Y-33677000D01*
X44215415Y-33723662D01*
X44016544Y-33856543D01*
X43381544Y-34491544D01*
X43248662Y-34690415D01*
X43202000Y-34925000D01*
X43202000Y-35849426D01*
X43197880Y-35850201D01*
X43181443Y-35860778D01*
X43171594Y-35854049D01*
X43027600Y-35824889D01*
X42062400Y-35824889D01*
X41927880Y-35850201D01*
X41804332Y-35929702D01*
X41721449Y-36051006D01*
X41692289Y-36195000D01*
X41692289Y-36817000D01*
X39237585Y-36817000D01*
X38388810Y-36465426D01*
X37827745Y-35904361D01*
X37823528Y-35901543D01*
X36969975Y-35547990D01*
X36965000Y-35547000D01*
X34739013Y-35547000D01*
X34734038Y-35547990D01*
X33203402Y-36182000D01*
X32834013Y-36182000D01*
X32829038Y-36182990D01*
X31298402Y-36817000D01*
X29077585Y-36817000D01*
X28228810Y-36465426D01*
X27667745Y-35904361D01*
X27663528Y-35901543D01*
X26809975Y-35547990D01*
X26805000Y-35547000D01*
X24579013Y-35547000D01*
X24574038Y-35547990D01*
X23043402Y-36182000D01*
X22674013Y-36182000D01*
X22669038Y-36182990D01*
X21138402Y-36817000D01*
X18917585Y-36817000D01*
X18068810Y-36465426D01*
X17507745Y-35904361D01*
X17503528Y-35901543D01*
X16649975Y-35547990D01*
X16645000Y-35547000D01*
X14419013Y-35547000D01*
X14414038Y-35547990D01*
X12883402Y-36182000D01*
X12514013Y-36182000D01*
X12509038Y-36182990D01*
X10978402Y-36817000D01*
X9390000Y-36817000D01*
X9385025Y-36817990D01*
X8531472Y-37171543D01*
X8527255Y-37174361D01*
X7966190Y-37735426D01*
X7224455Y-38042663D01*
X7150601Y-38057353D01*
X7106231Y-38087000D01*
X4315384Y-38087000D01*
X4248000Y-38019616D01*
X4248000Y-24845384D01*
X4315384Y-24778000D01*
X7749616Y-24778000D01*
X8019889Y-25048273D01*
X8019889Y-25335000D01*
X8045201Y-25469520D01*
X8124702Y-25593068D01*
X8246006Y-25675951D01*
X8390000Y-25705111D01*
X8406727Y-25705111D01*
X8745808Y-26044192D01*
X8750108Y-26047045D01*
X8755000Y-26048000D01*
X10069889Y-26048000D01*
X10069889Y-27510000D01*
X10095201Y-27644520D01*
X10174702Y-27768068D01*
X10296006Y-27850951D01*
X10440000Y-27880111D01*
X11940000Y-27880111D01*
X12074520Y-27854799D01*
X12198068Y-27775298D01*
X12280951Y-27653994D01*
X12310111Y-27510000D01*
X12310111Y-25943273D01*
X12709192Y-25544192D01*
X12712045Y-25539892D01*
X12713000Y-25535000D01*
X12713000Y-25270384D01*
X13205384Y-24778000D01*
X17909616Y-24778000D01*
X18179889Y-25048273D01*
X18179889Y-25335000D01*
X18205201Y-25469520D01*
X18284702Y-25593068D01*
X18406006Y-25675951D01*
X18550000Y-25705111D01*
X18566727Y-25705111D01*
X18905808Y-26044192D01*
X18910108Y-26047045D01*
X18915000Y-26048000D01*
X20229889Y-26048000D01*
X20229889Y-27510000D01*
X20255201Y-27644520D01*
X20334702Y-27768068D01*
X20456006Y-27850951D01*
X20600000Y-27880111D01*
X22100000Y-27880111D01*
X22234520Y-27854799D01*
X22358068Y-27775298D01*
X22440951Y-27653994D01*
X22470111Y-27510000D01*
X22470111Y-25943273D01*
X22869192Y-25544192D01*
X22872045Y-25539892D01*
X22873000Y-25535000D01*
X22873000Y-25270384D01*
X23365384Y-24778000D01*
X28069616Y-24778000D01*
X28339889Y-25048273D01*
X28339889Y-25335000D01*
X28365201Y-25469520D01*
X28444702Y-25593068D01*
X28566006Y-25675951D01*
X28710000Y-25705111D01*
X28726727Y-25705111D01*
X29065808Y-26044192D01*
X29070108Y-26047045D01*
X29075000Y-26048000D01*
X30389889Y-26048000D01*
X30389889Y-27510000D01*
X30415201Y-27644520D01*
X30494702Y-27768068D01*
X30616006Y-27850951D01*
X30760000Y-27880111D01*
X32260000Y-27880111D01*
X32394520Y-27854799D01*
X32518068Y-27775298D01*
X32600951Y-27653994D01*
X32630111Y-27510000D01*
X32630111Y-25943273D01*
X33029192Y-25544192D01*
X33032045Y-25539892D01*
X33033000Y-25535000D01*
X33033000Y-25270384D01*
X33525384Y-24778000D01*
X38229616Y-24778000D01*
X38499889Y-25048273D01*
X38499889Y-25335000D01*
X38525201Y-25469520D01*
X38604702Y-25593068D01*
X38726006Y-25675951D01*
X38870000Y-25705111D01*
X38886727Y-25705111D01*
X39225808Y-26044192D01*
X39230108Y-26047045D01*
X39235000Y-26048000D01*
X40549889Y-26048000D01*
X40549889Y-27510000D01*
X40575201Y-27644520D01*
X40654702Y-27768068D01*
X40776006Y-27850951D01*
X40920000Y-27880111D01*
X42420000Y-27880111D01*
X42554520Y-27854799D01*
X42678068Y-27775298D01*
X42760951Y-27653994D01*
X42790111Y-27510000D01*
X42790111Y-26615995D01*
X42853308Y-26679192D01*
X42857608Y-26682045D01*
X42862500Y-26683000D01*
X49030000Y-26683000D01*
X49035058Y-26681976D01*
X49039192Y-26679192D01*
X49539192Y-26179192D01*
X49542045Y-26174892D01*
X49543000Y-26170000D01*
X49543000Y-23360000D01*
X49542010Y-23355025D01*
X49188457Y-22501472D01*
X49185639Y-22497255D01*
X47989574Y-21301190D01*
X47638000Y-20452415D01*
X47638000Y-20187585D01*
X47989574Y-19338810D01*
X49185639Y-18142745D01*
X49188457Y-18138528D01*
X49542010Y-17284975D01*
X49543000Y-17280000D01*
X49543000Y-15105000D01*
X49542010Y-15100025D01*
X49188457Y-14246472D01*
X49185639Y-14242255D01*
X48624574Y-13681190D01*
X48273000Y-12832415D01*
X48273000Y-5585384D01*
X48340384Y-5518000D01*
X52902000Y-5518000D01*
X52902000Y-33319889D01*
G36*
X47612000Y-5585384D02*
X47612000Y-12835000D01*
X47612990Y-12839975D01*
X47966543Y-13693528D01*
X47969361Y-13697745D01*
X48530426Y-14258810D01*
X48882000Y-15107585D01*
X48882000Y-17277415D01*
X48530426Y-18126190D01*
X47334361Y-19322255D01*
X47331543Y-19326472D01*
X46977990Y-20180025D01*
X46977000Y-20185000D01*
X46977000Y-20455000D01*
X46977990Y-20459975D01*
X47331543Y-21313528D01*
X47334361Y-21317745D01*
X48530426Y-22513810D01*
X48882000Y-23362585D01*
X48882000Y-25529616D01*
X48389616Y-26022000D01*
X44320384Y-26022000D01*
X43828000Y-25529616D01*
X43828000Y-13200000D01*
X43826976Y-13194942D01*
X43824192Y-13190808D01*
X43324192Y-12690808D01*
X43319892Y-12687955D01*
X43315000Y-12687000D01*
X41704067Y-12687000D01*
X41427436Y-12572133D01*
X41123896Y-12571868D01*
X40845255Y-12687000D01*
X36697585Y-12687000D01*
X35901827Y-12357386D01*
X35870295Y-12281074D01*
X35346682Y-11756547D01*
X34662199Y-11472324D01*
X34560936Y-11472236D01*
X34429975Y-11417990D01*
X34425000Y-11417000D01*
X34155000Y-11417000D01*
X34150025Y-11417990D01*
X34020202Y-11471764D01*
X33921052Y-11471678D01*
X33236074Y-11754705D01*
X32711547Y-12278318D01*
X32678827Y-12357115D01*
X31882415Y-12687000D01*
X31544067Y-12687000D01*
X31267436Y-12572133D01*
X30963896Y-12571868D01*
X30685255Y-12687000D01*
X26537585Y-12687000D01*
X25741827Y-12357386D01*
X25710295Y-12281074D01*
X25186682Y-11756547D01*
X24502199Y-11472324D01*
X24400936Y-11472236D01*
X24269975Y-11417990D01*
X24265000Y-11417000D01*
X23995000Y-11417000D01*
X23990025Y-11417990D01*
X23860202Y-11471764D01*
X23761052Y-11471678D01*
X23076074Y-11754705D01*
X22551547Y-12278318D01*
X22518827Y-12357115D01*
X21722415Y-12687000D01*
X21384067Y-12687000D01*
X21107436Y-12572133D01*
X20803896Y-12571868D01*
X20525255Y-12687000D01*
X16377585Y-12687000D01*
X15581827Y-12357386D01*
X15550295Y-12281074D01*
X15026682Y-11756547D01*
X14342199Y-11472324D01*
X14240936Y-11472236D01*
X14109975Y-11417990D01*
X14105000Y-11417000D01*
X13835000Y-11417000D01*
X13830025Y-11417990D01*
X13700202Y-11471764D01*
X13601052Y-11471678D01*
X12916074Y-11754705D01*
X12391547Y-12278318D01*
X12358827Y-12357115D01*
X11562415Y-12687000D01*
X11224067Y-12687000D01*
X10947436Y-12572133D01*
X10643896Y-12571868D01*
X10365255Y-12687000D01*
X4315384Y-12687000D01*
X4248000Y-12619616D01*
X4248000Y-5518000D01*
X47544616Y-5518000D01*
X47612000Y-5585384D01*
X47612000Y-5585384D01*
G37*
X47612000Y-5585384D02*
X47612000Y-12835000D01*
X47612990Y-12839975D01*
X47966543Y-13693528D01*
X47969361Y-13697745D01*
X48530426Y-14258810D01*
X48882000Y-15107585D01*
X48882000Y-17277415D01*
X48530426Y-18126190D01*
X47334361Y-19322255D01*
X47331543Y-19326472D01*
X46977990Y-20180025D01*
X46977000Y-20185000D01*
X46977000Y-20455000D01*
X46977990Y-20459975D01*
X47331543Y-21313528D01*
X47334361Y-21317745D01*
X48530426Y-22513810D01*
X48882000Y-23362585D01*
X48882000Y-25529616D01*
X48389616Y-26022000D01*
X44320384Y-26022000D01*
X43828000Y-25529616D01*
X43828000Y-13200000D01*
X43826976Y-13194942D01*
X43824192Y-13190808D01*
X43324192Y-12690808D01*
X43319892Y-12687955D01*
X43315000Y-12687000D01*
X41704067Y-12687000D01*
X41427436Y-12572133D01*
X41123896Y-12571868D01*
X40845255Y-12687000D01*
X36697585Y-12687000D01*
X35901827Y-12357386D01*
X35870295Y-12281074D01*
X35346682Y-11756547D01*
X34662199Y-11472324D01*
X34560936Y-11472236D01*
X34429975Y-11417990D01*
X34425000Y-11417000D01*
X34155000Y-11417000D01*
X34150025Y-11417990D01*
X34020202Y-11471764D01*
X33921052Y-11471678D01*
X33236074Y-11754705D01*
X32711547Y-12278318D01*
X32678827Y-12357115D01*
X31882415Y-12687000D01*
X31544067Y-12687000D01*
X31267436Y-12572133D01*
X30963896Y-12571868D01*
X30685255Y-12687000D01*
X26537585Y-12687000D01*
X25741827Y-12357386D01*
X25710295Y-12281074D01*
X25186682Y-11756547D01*
X24502199Y-11472324D01*
X24400936Y-11472236D01*
X24269975Y-11417990D01*
X24265000Y-11417000D01*
X23995000Y-11417000D01*
X23990025Y-11417990D01*
X23860202Y-11471764D01*
X23761052Y-11471678D01*
X23076074Y-11754705D01*
X22551547Y-12278318D01*
X22518827Y-12357115D01*
X21722415Y-12687000D01*
X21384067Y-12687000D01*
X21107436Y-12572133D01*
X20803896Y-12571868D01*
X20525255Y-12687000D01*
X16377585Y-12687000D01*
X15581827Y-12357386D01*
X15550295Y-12281074D01*
X15026682Y-11756547D01*
X14342199Y-11472324D01*
X14240936Y-11472236D01*
X14109975Y-11417990D01*
X14105000Y-11417000D01*
X13835000Y-11417000D01*
X13830025Y-11417990D01*
X13700202Y-11471764D01*
X13601052Y-11471678D01*
X12916074Y-11754705D01*
X12391547Y-12278318D01*
X12358827Y-12357115D01*
X11562415Y-12687000D01*
X11224067Y-12687000D01*
X10947436Y-12572133D01*
X10643896Y-12571868D01*
X10365255Y-12687000D01*
X4315384Y-12687000D01*
X4248000Y-12619616D01*
X4248000Y-5518000D01*
X47544616Y-5518000D01*
X47612000Y-5585384D01*
M02*
