M48
;DRILL file {KiCad 4.0.5} date 02/22/17 15:32:44
;FORMAT={-:-/ absolute / metric / decimal}
FMAT,2
METRIC,TZ
T1C0.762
T2C0.800
T3C1.000
T4C1.001
T5C3.000
%
G90
G05
M71
T1
X14.09Y-1.27
X14.09Y-8.89
X14.09Y-12.7
X14.09Y-20.32
X16.63Y-1.27
X16.63Y-8.89
X16.63Y-12.7
X16.63Y-20.32
X19.17Y-1.27
X19.17Y-8.89
X19.17Y-12.7
X19.17Y-20.32
T2
X12.82Y-25.4
X12.82Y-31.75
X12.82Y-38.1
X12.82Y-44.45
X15.36Y-25.4
X15.36Y-31.75
X15.36Y-38.1
X15.36Y-44.45
X17.9Y-25.4
X17.9Y-31.75
X17.9Y-38.1
X17.9Y-44.45
X26.79Y-1.27
X26.79Y-3.81
X26.79Y-6.35
X26.79Y-8.89
X26.79Y-11.43
X26.79Y-13.97
X26.79Y-16.51
X26.79Y-19.05
X26.79Y-21.59
X26.79Y-24.13
X26.79Y-26.67
X26.79Y-29.21
X26.79Y-31.75
X26.79Y-34.29
X26.79Y-36.83
X26.79Y-39.37
X26.79Y-41.91
X26.79Y-44.45
X54.73Y-1.27
X54.73Y-3.81
X54.73Y-6.35
X54.73Y-8.89
X54.73Y-11.43
X54.73Y-13.97
X54.73Y-16.51
X54.73Y-19.05
X54.73Y-21.59
X54.73Y-24.13
X54.73Y-26.67
X54.73Y-29.21
X54.73Y-31.75
X54.73Y-34.29
X54.73Y-36.83
X54.73Y-39.37
X54.73Y-41.91
X54.73Y-44.45
T3
X10.28Y-25.4
X10.28Y-31.75
X10.28Y-38.1
X10.28Y-44.45
X20.44Y-25.4
X20.44Y-31.75
X20.44Y-38.1
X20.44Y-44.45
T4
X64.89Y-6.35
X64.89Y-11.43
X64.89Y-16.51
X64.89Y-21.59
X64.89Y-26.67
X64.89Y-31.75
X64.89Y-36.83
X64.89Y-41.91
X67.43Y-6.35
X67.43Y-11.43
X67.43Y-16.51
X67.43Y-21.59
X67.43Y-26.67
X67.43Y-31.75
X67.43Y-36.83
X67.43Y-41.91
X68.7Y-3.81
X68.7Y-8.89
X68.7Y-13.97
X68.7Y-19.05
X68.7Y-24.13
X68.7Y-29.21
X68.7Y-34.29
X68.7Y-39.37
X71.24Y-3.81
X71.24Y-8.89
X71.24Y-13.97
X71.24Y-19.05
X71.24Y-24.13
X71.24Y-29.21
X71.24Y-34.29
X71.24Y-39.37
T5
X5.Y-5.
X5.Y-45.
X82.5Y-5.
X82.5Y-45.
T0
M30
