G04 #@! TF.FileFunction,Legend,Top*
%FSLAX46Y46*%
G04 Gerber Fmt 4.6, Leading zero omitted, Abs format (unit mm)*
G04 Created by KiCad (PCBNEW 4.0.6) date 08/21/17 17:29:22*
%MOMM*%
%LPD*%
G01*
G04 APERTURE LIST*
%ADD10C,0.100000*%
%ADD11C,0.200000*%
%ADD12C,0.300000*%
%ADD13C,0.150000*%
%ADD14C,0.101600*%
G04 APERTURE END LIST*
D10*
D11*
X39000000Y-10000000D02*
G75*
G03X39000000Y-10000000I-3000000J0D01*
G01*
X13000000Y-10000000D02*
G75*
G03X13000000Y-10000000I-3000000J0D01*
G01*
X41000000Y-10000000D02*
G75*
G03X41000000Y-10000000I-5000000J0D01*
G01*
X15000000Y-10000000D02*
G75*
G03X15000000Y-10000000I-5000000J0D01*
G01*
X44000000Y-10000000D02*
G75*
G03X44000000Y-10000000I-8000000J0D01*
G01*
X18000000Y-10000000D02*
G75*
G03X18000000Y-10000000I-8000000J0D01*
G01*
X10000000Y0D02*
X10000000Y-20000000D01*
X36000000Y0D02*
X36000000Y-20000000D01*
D12*
X6300000Y-5500000D02*
X6300000Y-16000000D01*
X6300000Y-16000000D02*
X2800000Y-16000000D01*
X2800000Y-16000000D02*
X2800000Y-5500000D01*
X2800000Y-5500000D02*
X6300000Y-5500000D01*
X21300000Y-5500000D02*
X21300000Y-16000000D01*
X21300000Y-16000000D02*
X17800000Y-16000000D01*
X17800000Y-16000000D02*
X17800000Y-5500000D01*
X17800000Y-5500000D02*
X21300000Y-5500000D01*
X17300000Y-5500000D02*
X17300000Y-16000000D01*
X17300000Y-16000000D02*
X13800000Y-16000000D01*
X13800000Y-16000000D02*
X13800000Y-5500000D01*
X13800000Y-5500000D02*
X17300000Y-5500000D01*
D13*
X11899920Y-10799340D02*
X11651000Y-11099060D01*
X11651000Y-11099060D02*
X11549400Y-11248920D01*
X11549400Y-11248920D02*
X11549400Y-10400560D01*
X12250440Y-12300480D02*
X12250440Y-10499620D01*
X12250440Y-12300480D02*
X11600200Y-12300480D01*
X7749560Y-12300480D02*
X7749560Y-10499620D01*
X7749560Y-12300480D02*
X8399800Y-12300480D01*
D12*
X24700000Y-14500000D02*
X24700000Y-4000000D01*
X24700000Y-4000000D02*
X28200000Y-4000000D01*
X28200000Y-4000000D02*
X28200000Y-14500000D01*
X28200000Y-14500000D02*
X24700000Y-14500000D01*
X28700000Y-14500000D02*
X28700000Y-4000000D01*
X28700000Y-4000000D02*
X32200000Y-4000000D01*
X32200000Y-4000000D02*
X32200000Y-14500000D01*
X32200000Y-14500000D02*
X28700000Y-14500000D01*
X39700000Y-14500000D02*
X39700000Y-4000000D01*
X39700000Y-4000000D02*
X43200000Y-4000000D01*
X43200000Y-4000000D02*
X43200000Y-14500000D01*
X43200000Y-14500000D02*
X39700000Y-14500000D01*
D13*
X34100080Y-9200660D02*
X34349000Y-8900940D01*
X34349000Y-8900940D02*
X34450600Y-8751080D01*
X34450600Y-8751080D02*
X34450600Y-9599440D01*
X33749560Y-7699520D02*
X33749560Y-9500380D01*
X33749560Y-7699520D02*
X34399800Y-7699520D01*
X38250440Y-7699520D02*
X38250440Y-9500380D01*
X38250440Y-7699520D02*
X37600200Y-7699520D01*
D14*
X9706690Y-5057643D02*
X9649238Y-5115095D01*
X9476881Y-5172548D01*
X9361976Y-5172548D01*
X9189619Y-5115095D01*
X9074714Y-5000190D01*
X9017262Y-4885286D01*
X8959810Y-4655476D01*
X8959810Y-4483119D01*
X9017262Y-4253310D01*
X9074714Y-4138405D01*
X9189619Y-4023500D01*
X9361976Y-3966048D01*
X9476881Y-3966048D01*
X9649238Y-4023500D01*
X9706690Y-4080952D01*
X10855738Y-5172548D02*
X10166310Y-5172548D01*
X10511024Y-5172548D02*
X10511024Y-3966048D01*
X10396119Y-4138405D01*
X10281214Y-4253310D01*
X10166310Y-4310762D01*
X8959810Y-7890952D02*
X9017262Y-7833500D01*
X9132167Y-7776048D01*
X9419429Y-7776048D01*
X9534333Y-7833500D01*
X9591786Y-7890952D01*
X9649238Y-8005857D01*
X9649238Y-8120762D01*
X9591786Y-8293119D01*
X8902357Y-8982548D01*
X9649238Y-8982548D01*
X10166310Y-8867643D02*
X10223762Y-8925095D01*
X10166310Y-8982548D01*
X10108858Y-8925095D01*
X10166310Y-8867643D01*
X10166310Y-8982548D01*
X10683382Y-7890952D02*
X10740834Y-7833500D01*
X10855739Y-7776048D01*
X11143001Y-7776048D01*
X11257905Y-7833500D01*
X11315358Y-7890952D01*
X11372810Y-8005857D01*
X11372810Y-8120762D01*
X11315358Y-8293119D01*
X10625929Y-8982548D01*
X11372810Y-8982548D01*
X12406953Y-8178214D02*
X12406953Y-8982548D01*
X11889882Y-8178214D02*
X11889882Y-8810190D01*
X11947334Y-8925095D01*
X12062239Y-8982548D01*
X12234596Y-8982548D01*
X12349501Y-8925095D01*
X12406953Y-8867643D01*
X9706690Y-13557643D02*
X9649238Y-13615095D01*
X9476881Y-13672548D01*
X9361976Y-13672548D01*
X9189619Y-13615095D01*
X9074714Y-13500190D01*
X9017262Y-13385286D01*
X8959810Y-13155476D01*
X8959810Y-12983119D01*
X9017262Y-12753310D01*
X9074714Y-12638405D01*
X9189619Y-12523500D01*
X9361976Y-12466048D01*
X9476881Y-12466048D01*
X9649238Y-12523500D01*
X9706690Y-12580952D01*
X10166310Y-12580952D02*
X10223762Y-12523500D01*
X10338667Y-12466048D01*
X10625929Y-12466048D01*
X10740833Y-12523500D01*
X10798286Y-12580952D01*
X10855738Y-12695857D01*
X10855738Y-12810762D01*
X10798286Y-12983119D01*
X10108857Y-13672548D01*
X10855738Y-13672548D01*
X8959810Y-16390952D02*
X9017262Y-16333500D01*
X9132167Y-16276048D01*
X9419429Y-16276048D01*
X9534333Y-16333500D01*
X9591786Y-16390952D01*
X9649238Y-16505857D01*
X9649238Y-16620762D01*
X9591786Y-16793119D01*
X8902357Y-17482548D01*
X9649238Y-17482548D01*
X10166310Y-17367643D02*
X10223762Y-17425095D01*
X10166310Y-17482548D01*
X10108858Y-17425095D01*
X10166310Y-17367643D01*
X10166310Y-17482548D01*
X10683382Y-16390952D02*
X10740834Y-16333500D01*
X10855739Y-16276048D01*
X11143001Y-16276048D01*
X11257905Y-16333500D01*
X11315358Y-16390952D01*
X11372810Y-16505857D01*
X11372810Y-16620762D01*
X11315358Y-16793119D01*
X10625929Y-17482548D01*
X11372810Y-17482548D01*
X12406953Y-16678214D02*
X12406953Y-17482548D01*
X11889882Y-16678214D02*
X11889882Y-17310190D01*
X11947334Y-17425095D01*
X12062239Y-17482548D01*
X12234596Y-17482548D01*
X12349501Y-17425095D01*
X12406953Y-17367643D01*
D13*
X4952381Y-7738095D02*
X3952381Y-7738095D01*
X3952381Y-7357142D01*
X4000000Y-7261904D01*
X4047619Y-7214285D01*
X4142857Y-7166666D01*
X4285714Y-7166666D01*
X4380952Y-7214285D01*
X4428571Y-7261904D01*
X4476190Y-7357142D01*
X4476190Y-7738095D01*
X4952381Y-6214285D02*
X4952381Y-6785714D01*
X4952381Y-6500000D02*
X3952381Y-6500000D01*
X4095238Y-6595238D01*
X4190476Y-6690476D01*
X4238095Y-6785714D01*
X19952381Y-7738095D02*
X18952381Y-7738095D01*
X18952381Y-7357142D01*
X19000000Y-7261904D01*
X19047619Y-7214285D01*
X19142857Y-7166666D01*
X19285714Y-7166666D01*
X19380952Y-7214285D01*
X19428571Y-7261904D01*
X19476190Y-7357142D01*
X19476190Y-7738095D01*
X19047619Y-6785714D02*
X19000000Y-6738095D01*
X18952381Y-6642857D01*
X18952381Y-6404761D01*
X19000000Y-6309523D01*
X19047619Y-6261904D01*
X19142857Y-6214285D01*
X19238095Y-6214285D01*
X19380952Y-6261904D01*
X19952381Y-6833333D01*
X19952381Y-6214285D01*
X15952381Y-7738095D02*
X14952381Y-7738095D01*
X14952381Y-7357142D01*
X15000000Y-7261904D01*
X15047619Y-7214285D01*
X15142857Y-7166666D01*
X15285714Y-7166666D01*
X15380952Y-7214285D01*
X15428571Y-7261904D01*
X15476190Y-7357142D01*
X15476190Y-7738095D01*
X14952381Y-6833333D02*
X14952381Y-6214285D01*
X15333333Y-6547619D01*
X15333333Y-6404761D01*
X15380952Y-6309523D01*
X15428571Y-6261904D01*
X15523810Y-6214285D01*
X15761905Y-6214285D01*
X15857143Y-6261904D01*
X15904762Y-6309523D01*
X15952381Y-6404761D01*
X15952381Y-6690476D01*
X15904762Y-6785714D01*
X15857143Y-6833333D01*
X9337155Y-14701801D02*
X9337155Y-15511325D01*
X9384774Y-15606563D01*
X9432393Y-15654182D01*
X9527631Y-15701801D01*
X9718108Y-15701801D01*
X9813346Y-15654182D01*
X9860965Y-15606563D01*
X9908584Y-15511325D01*
X9908584Y-14701801D01*
X10908584Y-15701801D02*
X10337155Y-15701801D01*
X10622869Y-15701801D02*
X10622869Y-14701801D01*
X10527631Y-14844658D01*
X10432393Y-14939896D01*
X10337155Y-14987515D01*
D14*
X38246690Y-14597643D02*
X38189238Y-14655095D01*
X38016881Y-14712548D01*
X37901976Y-14712548D01*
X37729619Y-14655095D01*
X37614714Y-14540190D01*
X37557262Y-14425286D01*
X37499810Y-14195476D01*
X37499810Y-14023119D01*
X37557262Y-13793310D01*
X37614714Y-13678405D01*
X37729619Y-13563500D01*
X37901976Y-13506048D01*
X38016881Y-13506048D01*
X38189238Y-13563500D01*
X38246690Y-13620952D01*
X38648857Y-13506048D02*
X39395738Y-13506048D01*
X38993571Y-13965667D01*
X39165929Y-13965667D01*
X39280833Y-14023119D01*
X39338286Y-14080571D01*
X39395738Y-14195476D01*
X39395738Y-14482738D01*
X39338286Y-14597643D01*
X39280833Y-14655095D01*
X39165929Y-14712548D01*
X38821214Y-14712548D01*
X38706310Y-14655095D01*
X38648857Y-14597643D01*
X37499810Y-9810952D02*
X37557262Y-9753500D01*
X37672167Y-9696048D01*
X37959429Y-9696048D01*
X38074333Y-9753500D01*
X38131786Y-9810952D01*
X38189238Y-9925857D01*
X38189238Y-10040762D01*
X38131786Y-10213119D01*
X37442357Y-10902548D01*
X38189238Y-10902548D01*
X38706310Y-10787643D02*
X38763762Y-10845095D01*
X38706310Y-10902548D01*
X38648858Y-10845095D01*
X38706310Y-10787643D01*
X38706310Y-10902548D01*
X39223382Y-9810952D02*
X39280834Y-9753500D01*
X39395739Y-9696048D01*
X39683001Y-9696048D01*
X39797905Y-9753500D01*
X39855358Y-9810952D01*
X39912810Y-9925857D01*
X39912810Y-10040762D01*
X39855358Y-10213119D01*
X39165929Y-10902548D01*
X39912810Y-10902548D01*
X40946953Y-10098214D02*
X40946953Y-10902548D01*
X40429882Y-10098214D02*
X40429882Y-10730190D01*
X40487334Y-10845095D01*
X40602239Y-10902548D01*
X40774596Y-10902548D01*
X40889501Y-10845095D01*
X40946953Y-10787643D01*
X38246690Y-6097643D02*
X38189238Y-6155095D01*
X38016881Y-6212548D01*
X37901976Y-6212548D01*
X37729619Y-6155095D01*
X37614714Y-6040190D01*
X37557262Y-5925286D01*
X37499810Y-5695476D01*
X37499810Y-5523119D01*
X37557262Y-5293310D01*
X37614714Y-5178405D01*
X37729619Y-5063500D01*
X37901976Y-5006048D01*
X38016881Y-5006048D01*
X38189238Y-5063500D01*
X38246690Y-5120952D01*
X39280833Y-5408214D02*
X39280833Y-6212548D01*
X38993571Y-4948595D02*
X38706310Y-5810381D01*
X39453190Y-5810381D01*
X37499810Y-1310952D02*
X37557262Y-1253500D01*
X37672167Y-1196048D01*
X37959429Y-1196048D01*
X38074333Y-1253500D01*
X38131786Y-1310952D01*
X38189238Y-1425857D01*
X38189238Y-1540762D01*
X38131786Y-1713119D01*
X37442357Y-2402548D01*
X38189238Y-2402548D01*
X38706310Y-2287643D02*
X38763762Y-2345095D01*
X38706310Y-2402548D01*
X38648858Y-2345095D01*
X38706310Y-2287643D01*
X38706310Y-2402548D01*
X39223382Y-1310952D02*
X39280834Y-1253500D01*
X39395739Y-1196048D01*
X39683001Y-1196048D01*
X39797905Y-1253500D01*
X39855358Y-1310952D01*
X39912810Y-1425857D01*
X39912810Y-1540762D01*
X39855358Y-1713119D01*
X39165929Y-2402548D01*
X39912810Y-2402548D01*
X40946953Y-1598214D02*
X40946953Y-2402548D01*
X40429882Y-1598214D02*
X40429882Y-2230190D01*
X40487334Y-2345095D01*
X40602239Y-2402548D01*
X40774596Y-2402548D01*
X40889501Y-2345095D01*
X40946953Y-2287643D01*
D13*
X26952381Y-13738095D02*
X25952381Y-13738095D01*
X25952381Y-13357142D01*
X26000000Y-13261904D01*
X26047619Y-13214285D01*
X26142857Y-13166666D01*
X26285714Y-13166666D01*
X26380952Y-13214285D01*
X26428571Y-13261904D01*
X26476190Y-13357142D01*
X26476190Y-13738095D01*
X26285714Y-12309523D02*
X26952381Y-12309523D01*
X25904762Y-12547619D02*
X26619048Y-12785714D01*
X26619048Y-12166666D01*
X30952381Y-13738095D02*
X29952381Y-13738095D01*
X29952381Y-13357142D01*
X30000000Y-13261904D01*
X30047619Y-13214285D01*
X30142857Y-13166666D01*
X30285714Y-13166666D01*
X30380952Y-13214285D01*
X30428571Y-13261904D01*
X30476190Y-13357142D01*
X30476190Y-13738095D01*
X29952381Y-12261904D02*
X29952381Y-12738095D01*
X30428571Y-12785714D01*
X30380952Y-12738095D01*
X30333333Y-12642857D01*
X30333333Y-12404761D01*
X30380952Y-12309523D01*
X30428571Y-12261904D01*
X30523810Y-12214285D01*
X30761905Y-12214285D01*
X30857143Y-12261904D01*
X30904762Y-12309523D01*
X30952381Y-12404761D01*
X30952381Y-12642857D01*
X30904762Y-12738095D01*
X30857143Y-12785714D01*
X41952381Y-13738095D02*
X40952381Y-13738095D01*
X40952381Y-13357142D01*
X41000000Y-13261904D01*
X41047619Y-13214285D01*
X41142857Y-13166666D01*
X41285714Y-13166666D01*
X41380952Y-13214285D01*
X41428571Y-13261904D01*
X41476190Y-13357142D01*
X41476190Y-13738095D01*
X40952381Y-12309523D02*
X40952381Y-12500000D01*
X41000000Y-12595238D01*
X41047619Y-12642857D01*
X41190476Y-12738095D01*
X41380952Y-12785714D01*
X41761905Y-12785714D01*
X41857143Y-12738095D01*
X41904762Y-12690476D01*
X41952381Y-12595238D01*
X41952381Y-12404761D01*
X41904762Y-12309523D01*
X41857143Y-12261904D01*
X41761905Y-12214285D01*
X41523810Y-12214285D01*
X41428571Y-12261904D01*
X41380952Y-12309523D01*
X41333333Y-12404761D01*
X41333333Y-12595238D01*
X41380952Y-12690476D01*
X41428571Y-12738095D01*
X41523810Y-12785714D01*
X35139035Y-4202961D02*
X35139035Y-5012485D01*
X35186654Y-5107723D01*
X35234273Y-5155342D01*
X35329511Y-5202961D01*
X35519988Y-5202961D01*
X35615226Y-5155342D01*
X35662845Y-5107723D01*
X35710464Y-5012485D01*
X35710464Y-4202961D01*
X36139035Y-4298199D02*
X36186654Y-4250580D01*
X36281892Y-4202961D01*
X36519988Y-4202961D01*
X36615226Y-4250580D01*
X36662845Y-4298199D01*
X36710464Y-4393437D01*
X36710464Y-4488675D01*
X36662845Y-4631532D01*
X36091416Y-5202961D01*
X36710464Y-5202961D01*
M02*
