G04 #@! TF.FileFunction,Soldermask,Bot*
%FSLAX46Y46*%
G04 Gerber Fmt 4.6, Leading zero omitted, Abs format (unit mm)*
G04 Created by KiCad (PCBNEW 4.0.7) date 10/26/17 16:00:21*
%MOMM*%
%LPD*%
G01*
G04 APERTURE LIST*
%ADD10C,0.100000*%
%ADD11C,0.010000*%
%ADD12R,1.727200X2.032000*%
%ADD13O,1.727200X2.032000*%
%ADD14R,1.300000X1.300000*%
%ADD15C,1.300000*%
%ADD16O,1.500000X2.500000*%
%ADD17O,1.000000X1.524000*%
%ADD18O,1.524000X1.000000*%
%ADD19R,1.200000X1.700000*%
%ADD20R,3.300000X1.700000*%
%ADD21R,2.499360X1.501140*%
%ADD22R,7.000240X7.000240*%
%ADD23R,2.400000X1.500000*%
%ADD24R,2.032000X1.727200*%
%ADD25O,2.032000X1.727200*%
%ADD26R,0.910000X1.220000*%
%ADD27O,2.500000X1.500000*%
%ADD28R,0.600000X1.000000*%
%ADD29R,1.000000X0.600000*%
%ADD30R,1.800000X1.400000*%
%ADD31R,1.270000X0.965200*%
%ADD32R,1.200000X0.800100*%
%ADD33R,0.800100X1.200000*%
%ADD34O,1.200000X2.000000*%
%ADD35C,1.524000*%
%ADD36R,2.000000X1.500000*%
%ADD37O,2.000000X1.500000*%
%ADD38R,1.524000X1.524000*%
%ADD39C,0.026000*%
%ADD40C,0.254000*%
G04 APERTURE END LIST*
D10*
D11*
G36*
X47811213Y-27975741D02*
X47742124Y-27630781D01*
X47675396Y-27448541D01*
X47482901Y-27112289D01*
X47248846Y-26861513D01*
X46962695Y-26684941D01*
X46960870Y-26684115D01*
X46819655Y-26627122D01*
X46681670Y-26591356D01*
X46516809Y-26572358D01*
X46294966Y-26565666D01*
X46160400Y-26565512D01*
X45902680Y-26569793D01*
X45713462Y-26583919D01*
X45559738Y-26613409D01*
X45408501Y-26663786D01*
X45296800Y-26709955D01*
X44917800Y-26901894D01*
X44499592Y-27163632D01*
X44060215Y-27481033D01*
X43617707Y-27839959D01*
X43190105Y-28226272D01*
X42795448Y-28625834D01*
X42657594Y-28778513D01*
X42478963Y-28977565D01*
X42354900Y-29098017D01*
X42275281Y-29139608D01*
X42229985Y-29102080D01*
X42208886Y-28985174D01*
X42201861Y-28788631D01*
X42201571Y-28766850D01*
X42190329Y-28522192D01*
X42166803Y-28342786D01*
X42135975Y-28234718D01*
X42102829Y-28204072D01*
X42072347Y-28256933D01*
X42049512Y-28399384D01*
X42040368Y-28570000D01*
X42030519Y-28758182D01*
X42012948Y-28927585D01*
X42001490Y-28994733D01*
X41969400Y-29140066D01*
X41599006Y-28829633D01*
X41436299Y-28695688D01*
X41303369Y-28590782D01*
X41218739Y-28529301D01*
X41199276Y-28519200D01*
X41207765Y-28554676D01*
X41269076Y-28649035D01*
X41369732Y-28784175D01*
X41496254Y-28941994D01*
X41634097Y-29103186D01*
X41813895Y-29306171D01*
X41342823Y-29364144D01*
X41135208Y-29391847D01*
X40968671Y-29418117D01*
X40866890Y-29439017D01*
X40847312Y-29446556D01*
X40873343Y-29471601D01*
X40969414Y-29500191D01*
X40983387Y-29503098D01*
X41135936Y-29523023D01*
X41324716Y-29534273D01*
X41387396Y-29535200D01*
X41593769Y-29540865D01*
X41707830Y-29564818D01*
X41738563Y-29617494D01*
X41694952Y-29709331D01*
X41621389Y-29807028D01*
X41437202Y-30041509D01*
X41301676Y-30223058D01*
X41220187Y-30344095D01*
X41198113Y-30397042D01*
X41201625Y-30398800D01*
X41251014Y-30367467D01*
X41358350Y-30283117D01*
X41505640Y-30160229D01*
X41610174Y-30070124D01*
X41987040Y-29741447D01*
X42018385Y-30082824D01*
X42039669Y-30290511D01*
X42063246Y-30484647D01*
X42080584Y-30602000D01*
X42102511Y-30714141D01*
X42119972Y-30734225D01*
X42144269Y-30670567D01*
X42149656Y-30652800D01*
X42170539Y-30535504D01*
X42186370Y-30358354D01*
X42192937Y-30191367D01*
X42200067Y-30015821D01*
X42213765Y-29883390D01*
X42230080Y-29824855D01*
X42300734Y-29810579D01*
X42379337Y-29864692D01*
X42437902Y-29960550D01*
X42452000Y-30036133D01*
X42496086Y-30189528D01*
X42581175Y-30299244D01*
X42641463Y-30349357D01*
X42710187Y-30384375D01*
X42807024Y-30407822D01*
X42951651Y-30423225D01*
X43163745Y-30434109D01*
X43373769Y-30441267D01*
X44037189Y-30461938D01*
X44017542Y-31459069D01*
X44008944Y-31820721D01*
X43998412Y-32095485D01*
X43984603Y-32298072D01*
X43966176Y-32443192D01*
X43941787Y-32545556D01*
X43911932Y-32616488D01*
X43806562Y-32787690D01*
X43698199Y-32885476D01*
X43553502Y-32929332D01*
X43360463Y-32938800D01*
X43164840Y-32925305D01*
X43011292Y-32877985D01*
X42895061Y-32786592D01*
X42811393Y-32640875D01*
X42755530Y-32430587D01*
X42722717Y-32145477D01*
X42708197Y-31775297D01*
X42706284Y-31529100D01*
X42706000Y-30754400D01*
X42452000Y-30754400D01*
X42453116Y-31630700D01*
X42457170Y-32012161D01*
X42470881Y-32308253D01*
X42498210Y-32535051D01*
X42543119Y-32708626D01*
X42609570Y-32845052D01*
X42701526Y-32960401D01*
X42804269Y-33055202D01*
X42896761Y-33124844D01*
X42989434Y-33166092D01*
X43112643Y-33186224D01*
X43296745Y-33192519D01*
X43378164Y-33192800D01*
X43582568Y-33191117D01*
X43715338Y-33179552D01*
X43806438Y-33148334D01*
X43885834Y-33087693D01*
X43973064Y-32998817D01*
X44071033Y-32885638D01*
X44146024Y-32768145D01*
X44201015Y-32631083D01*
X44238981Y-32459195D01*
X44262899Y-32237226D01*
X44275746Y-31949920D01*
X44280498Y-31582021D01*
X44280800Y-31421607D01*
X44280800Y-30449600D01*
X44476127Y-30449600D01*
X44639197Y-30472908D01*
X44762094Y-30554363D01*
X44865367Y-30711266D01*
X44913863Y-30818128D01*
X44941269Y-30904466D01*
X44961802Y-31023684D01*
X44976301Y-31189556D01*
X44985607Y-31415857D01*
X44990560Y-31716359D01*
X44992000Y-32098969D01*
X44992000Y-33192800D01*
X45296800Y-33192800D01*
X45296800Y-32135221D01*
X45293721Y-31699870D01*
X45282962Y-31352371D01*
X45262246Y-31079119D01*
X45229294Y-30866508D01*
X45181829Y-30700934D01*
X45117570Y-30568793D01*
X45034241Y-30456478D01*
X45011436Y-30431267D01*
X44904712Y-30329534D01*
X44790361Y-30254705D01*
X44651024Y-30202823D01*
X44469344Y-30169933D01*
X44227960Y-30152076D01*
X43909516Y-30145297D01*
X43754660Y-30144800D01*
X43418608Y-30142334D01*
X43169852Y-30131262D01*
X42994136Y-30106072D01*
X42877202Y-30061255D01*
X42804796Y-29991299D01*
X42762658Y-29890695D01*
X42736534Y-29753930D01*
X42736123Y-29751100D01*
X42704800Y-29535200D01*
X42946700Y-29530137D01*
X43122059Y-29519364D01*
X43274999Y-29498324D01*
X43315600Y-29488892D01*
X43442600Y-29452711D01*
X43310161Y-29418610D01*
X43199617Y-29399185D01*
X43020307Y-29377095D01*
X42804854Y-29356187D01*
X42727564Y-29349908D01*
X42277407Y-29315306D01*
X42656804Y-28964343D01*
X43082684Y-28586898D01*
X43522092Y-28227844D01*
X43961335Y-27896645D01*
X44386722Y-27602764D01*
X44784562Y-27355665D01*
X45141162Y-27164813D01*
X45439741Y-27040696D01*
X45726895Y-26970173D01*
X46038392Y-26934791D01*
X46341271Y-26935272D01*
X46602573Y-26972341D01*
X46725768Y-27012481D01*
X46997050Y-27170051D01*
X47199959Y-27380416D01*
X47339035Y-27652455D01*
X47418814Y-27995047D01*
X47443834Y-28417073D01*
X47443833Y-28417600D01*
X47436838Y-28671587D01*
X47413671Y-28909624D01*
X47369482Y-29154597D01*
X47299423Y-29429391D01*
X47198645Y-29756890D01*
X47094234Y-30067600D01*
X46983908Y-30358641D01*
X46832168Y-30716228D01*
X46649073Y-31119314D01*
X46444683Y-31546848D01*
X46229058Y-31977781D01*
X46012258Y-32391065D01*
X45807013Y-32761000D01*
X45683832Y-32975610D01*
X45579002Y-33158340D01*
X45502902Y-33291093D01*
X45465911Y-33355769D01*
X45464703Y-33357900D01*
X45464225Y-33395475D01*
X45468037Y-33396000D01*
X45506306Y-33357710D01*
X45591673Y-33253645D01*
X45711227Y-33100015D01*
X45842344Y-32926100D01*
X46333834Y-32221927D01*
X46769336Y-31509295D01*
X47141886Y-30801927D01*
X47444517Y-30113544D01*
X47670263Y-29457867D01*
X47744320Y-29179600D01*
X47813415Y-28777875D01*
X47835345Y-28367347D01*
X47811213Y-27975741D01*
X47811213Y-27975741D01*
G37*
X47811213Y-27975741D02*
X47742124Y-27630781D01*
X47675396Y-27448541D01*
X47482901Y-27112289D01*
X47248846Y-26861513D01*
X46962695Y-26684941D01*
X46960870Y-26684115D01*
X46819655Y-26627122D01*
X46681670Y-26591356D01*
X46516809Y-26572358D01*
X46294966Y-26565666D01*
X46160400Y-26565512D01*
X45902680Y-26569793D01*
X45713462Y-26583919D01*
X45559738Y-26613409D01*
X45408501Y-26663786D01*
X45296800Y-26709955D01*
X44917800Y-26901894D01*
X44499592Y-27163632D01*
X44060215Y-27481033D01*
X43617707Y-27839959D01*
X43190105Y-28226272D01*
X42795448Y-28625834D01*
X42657594Y-28778513D01*
X42478963Y-28977565D01*
X42354900Y-29098017D01*
X42275281Y-29139608D01*
X42229985Y-29102080D01*
X42208886Y-28985174D01*
X42201861Y-28788631D01*
X42201571Y-28766850D01*
X42190329Y-28522192D01*
X42166803Y-28342786D01*
X42135975Y-28234718D01*
X42102829Y-28204072D01*
X42072347Y-28256933D01*
X42049512Y-28399384D01*
X42040368Y-28570000D01*
X42030519Y-28758182D01*
X42012948Y-28927585D01*
X42001490Y-28994733D01*
X41969400Y-29140066D01*
X41599006Y-28829633D01*
X41436299Y-28695688D01*
X41303369Y-28590782D01*
X41218739Y-28529301D01*
X41199276Y-28519200D01*
X41207765Y-28554676D01*
X41269076Y-28649035D01*
X41369732Y-28784175D01*
X41496254Y-28941994D01*
X41634097Y-29103186D01*
X41813895Y-29306171D01*
X41342823Y-29364144D01*
X41135208Y-29391847D01*
X40968671Y-29418117D01*
X40866890Y-29439017D01*
X40847312Y-29446556D01*
X40873343Y-29471601D01*
X40969414Y-29500191D01*
X40983387Y-29503098D01*
X41135936Y-29523023D01*
X41324716Y-29534273D01*
X41387396Y-29535200D01*
X41593769Y-29540865D01*
X41707830Y-29564818D01*
X41738563Y-29617494D01*
X41694952Y-29709331D01*
X41621389Y-29807028D01*
X41437202Y-30041509D01*
X41301676Y-30223058D01*
X41220187Y-30344095D01*
X41198113Y-30397042D01*
X41201625Y-30398800D01*
X41251014Y-30367467D01*
X41358350Y-30283117D01*
X41505640Y-30160229D01*
X41610174Y-30070124D01*
X41987040Y-29741447D01*
X42018385Y-30082824D01*
X42039669Y-30290511D01*
X42063246Y-30484647D01*
X42080584Y-30602000D01*
X42102511Y-30714141D01*
X42119972Y-30734225D01*
X42144269Y-30670567D01*
X42149656Y-30652800D01*
X42170539Y-30535504D01*
X42186370Y-30358354D01*
X42192937Y-30191367D01*
X42200067Y-30015821D01*
X42213765Y-29883390D01*
X42230080Y-29824855D01*
X42300734Y-29810579D01*
X42379337Y-29864692D01*
X42437902Y-29960550D01*
X42452000Y-30036133D01*
X42496086Y-30189528D01*
X42581175Y-30299244D01*
X42641463Y-30349357D01*
X42710187Y-30384375D01*
X42807024Y-30407822D01*
X42951651Y-30423225D01*
X43163745Y-30434109D01*
X43373769Y-30441267D01*
X44037189Y-30461938D01*
X44017542Y-31459069D01*
X44008944Y-31820721D01*
X43998412Y-32095485D01*
X43984603Y-32298072D01*
X43966176Y-32443192D01*
X43941787Y-32545556D01*
X43911932Y-32616488D01*
X43806562Y-32787690D01*
X43698199Y-32885476D01*
X43553502Y-32929332D01*
X43360463Y-32938800D01*
X43164840Y-32925305D01*
X43011292Y-32877985D01*
X42895061Y-32786592D01*
X42811393Y-32640875D01*
X42755530Y-32430587D01*
X42722717Y-32145477D01*
X42708197Y-31775297D01*
X42706284Y-31529100D01*
X42706000Y-30754400D01*
X42452000Y-30754400D01*
X42453116Y-31630700D01*
X42457170Y-32012161D01*
X42470881Y-32308253D01*
X42498210Y-32535051D01*
X42543119Y-32708626D01*
X42609570Y-32845052D01*
X42701526Y-32960401D01*
X42804269Y-33055202D01*
X42896761Y-33124844D01*
X42989434Y-33166092D01*
X43112643Y-33186224D01*
X43296745Y-33192519D01*
X43378164Y-33192800D01*
X43582568Y-33191117D01*
X43715338Y-33179552D01*
X43806438Y-33148334D01*
X43885834Y-33087693D01*
X43973064Y-32998817D01*
X44071033Y-32885638D01*
X44146024Y-32768145D01*
X44201015Y-32631083D01*
X44238981Y-32459195D01*
X44262899Y-32237226D01*
X44275746Y-31949920D01*
X44280498Y-31582021D01*
X44280800Y-31421607D01*
X44280800Y-30449600D01*
X44476127Y-30449600D01*
X44639197Y-30472908D01*
X44762094Y-30554363D01*
X44865367Y-30711266D01*
X44913863Y-30818128D01*
X44941269Y-30904466D01*
X44961802Y-31023684D01*
X44976301Y-31189556D01*
X44985607Y-31415857D01*
X44990560Y-31716359D01*
X44992000Y-32098969D01*
X44992000Y-33192800D01*
X45296800Y-33192800D01*
X45296800Y-32135221D01*
X45293721Y-31699870D01*
X45282962Y-31352371D01*
X45262246Y-31079119D01*
X45229294Y-30866508D01*
X45181829Y-30700934D01*
X45117570Y-30568793D01*
X45034241Y-30456478D01*
X45011436Y-30431267D01*
X44904712Y-30329534D01*
X44790361Y-30254705D01*
X44651024Y-30202823D01*
X44469344Y-30169933D01*
X44227960Y-30152076D01*
X43909516Y-30145297D01*
X43754660Y-30144800D01*
X43418608Y-30142334D01*
X43169852Y-30131262D01*
X42994136Y-30106072D01*
X42877202Y-30061255D01*
X42804796Y-29991299D01*
X42762658Y-29890695D01*
X42736534Y-29753930D01*
X42736123Y-29751100D01*
X42704800Y-29535200D01*
X42946700Y-29530137D01*
X43122059Y-29519364D01*
X43274999Y-29498324D01*
X43315600Y-29488892D01*
X43442600Y-29452711D01*
X43310161Y-29418610D01*
X43199617Y-29399185D01*
X43020307Y-29377095D01*
X42804854Y-29356187D01*
X42727564Y-29349908D01*
X42277407Y-29315306D01*
X42656804Y-28964343D01*
X43082684Y-28586898D01*
X43522092Y-28227844D01*
X43961335Y-27896645D01*
X44386722Y-27602764D01*
X44784562Y-27355665D01*
X45141162Y-27164813D01*
X45439741Y-27040696D01*
X45726895Y-26970173D01*
X46038392Y-26934791D01*
X46341271Y-26935272D01*
X46602573Y-26972341D01*
X46725768Y-27012481D01*
X46997050Y-27170051D01*
X47199959Y-27380416D01*
X47339035Y-27652455D01*
X47418814Y-27995047D01*
X47443834Y-28417073D01*
X47443833Y-28417600D01*
X47436838Y-28671587D01*
X47413671Y-28909624D01*
X47369482Y-29154597D01*
X47299423Y-29429391D01*
X47198645Y-29756890D01*
X47094234Y-30067600D01*
X46983908Y-30358641D01*
X46832168Y-30716228D01*
X46649073Y-31119314D01*
X46444683Y-31546848D01*
X46229058Y-31977781D01*
X46012258Y-32391065D01*
X45807013Y-32761000D01*
X45683832Y-32975610D01*
X45579002Y-33158340D01*
X45502902Y-33291093D01*
X45465911Y-33355769D01*
X45464703Y-33357900D01*
X45464225Y-33395475D01*
X45468037Y-33396000D01*
X45506306Y-33357710D01*
X45591673Y-33253645D01*
X45711227Y-33100015D01*
X45842344Y-32926100D01*
X46333834Y-32221927D01*
X46769336Y-31509295D01*
X47141886Y-30801927D01*
X47444517Y-30113544D01*
X47670263Y-29457867D01*
X47744320Y-29179600D01*
X47813415Y-28777875D01*
X47835345Y-28367347D01*
X47811213Y-27975741D01*
G36*
X41988835Y-33003197D02*
X41956397Y-32964563D01*
X41875675Y-32943772D01*
X41724857Y-32932472D01*
X41629992Y-32928326D01*
X41439673Y-32917982D01*
X41326941Y-32900603D01*
X41267795Y-32867566D01*
X41238236Y-32810249D01*
X41231000Y-32784974D01*
X41222079Y-32620481D01*
X41274131Y-32480113D01*
X41373557Y-32398263D01*
X41385336Y-32394684D01*
X41463521Y-32337617D01*
X41490789Y-32247167D01*
X41466542Y-32163305D01*
X41390182Y-32126003D01*
X41389355Y-32126000D01*
X41212821Y-32159840D01*
X41088891Y-32272083D01*
X41053122Y-32332834D01*
X40990115Y-32534474D01*
X40982713Y-32757950D01*
X41029127Y-32961362D01*
X41084088Y-33058950D01*
X41144862Y-33126336D01*
X41213814Y-33166312D01*
X41317813Y-33185959D01*
X41483730Y-33192357D01*
X41592088Y-33192800D01*
X41792556Y-33191360D01*
X41912242Y-33182739D01*
X41971965Y-33160489D01*
X41992539Y-33118158D01*
X41994800Y-33068026D01*
X41988835Y-33003197D01*
X41988835Y-33003197D01*
G37*
X41988835Y-33003197D02*
X41956397Y-32964563D01*
X41875675Y-32943772D01*
X41724857Y-32932472D01*
X41629992Y-32928326D01*
X41439673Y-32917982D01*
X41326941Y-32900603D01*
X41267795Y-32867566D01*
X41238236Y-32810249D01*
X41231000Y-32784974D01*
X41222079Y-32620481D01*
X41274131Y-32480113D01*
X41373557Y-32398263D01*
X41385336Y-32394684D01*
X41463521Y-32337617D01*
X41490789Y-32247167D01*
X41466542Y-32163305D01*
X41390182Y-32126003D01*
X41389355Y-32126000D01*
X41212821Y-32159840D01*
X41088891Y-32272083D01*
X41053122Y-32332834D01*
X40990115Y-32534474D01*
X40982713Y-32757950D01*
X41029127Y-32961362D01*
X41084088Y-33058950D01*
X41144862Y-33126336D01*
X41213814Y-33166312D01*
X41317813Y-33185959D01*
X41483730Y-33192357D01*
X41592088Y-33192800D01*
X41792556Y-33191360D01*
X41912242Y-33182739D01*
X41971965Y-33160489D01*
X41992539Y-33118158D01*
X41994800Y-33068026D01*
X41988835Y-33003197D01*
G36*
X41971477Y-35294687D02*
X41939044Y-35275600D01*
X41906748Y-35227099D01*
X41897063Y-35086083D01*
X41900944Y-34983500D01*
X41907459Y-34818436D01*
X41896859Y-34730651D01*
X41862304Y-34696348D01*
X41817000Y-34691400D01*
X41728356Y-34730797D01*
X41708100Y-34793000D01*
X41700081Y-34910026D01*
X41689705Y-35067766D01*
X41687771Y-35097800D01*
X41674741Y-35301000D01*
X41644271Y-35074030D01*
X41607372Y-34911672D01*
X41538193Y-34812789D01*
X41474100Y-34769230D01*
X41363313Y-34720011D01*
X41272904Y-34730189D01*
X41194700Y-34769197D01*
X41089749Y-34857475D01*
X41044154Y-34991136D01*
X41039234Y-35035897D01*
X41037087Y-35161501D01*
X41067481Y-35215138D01*
X41124601Y-35224800D01*
X41215097Y-35183101D01*
X41241967Y-35110500D01*
X41283796Y-35015539D01*
X41349591Y-35001598D01*
X41408141Y-35064387D01*
X41426675Y-35135900D01*
X41425409Y-35235851D01*
X41369719Y-35271830D01*
X41297135Y-35275600D01*
X41139617Y-35306754D01*
X41053289Y-35406146D01*
X41029600Y-35562280D01*
X41066713Y-35724791D01*
X41142504Y-35806120D01*
X41256039Y-35866195D01*
X41309862Y-35879248D01*
X41309862Y-35615739D01*
X41257006Y-35575423D01*
X41260370Y-35526090D01*
X41331637Y-35482634D01*
X41362799Y-35478800D01*
X41428599Y-35509931D01*
X41420153Y-35574364D01*
X41385200Y-35605800D01*
X41309862Y-35615739D01*
X41309862Y-35879248D01*
X41334400Y-35885200D01*
X41473956Y-35840830D01*
X41593034Y-35730592D01*
X41653668Y-35592546D01*
X41667646Y-35521619D01*
X41676496Y-35542704D01*
X41682389Y-35643900D01*
X41698184Y-35772551D01*
X41741664Y-35826697D01*
X41791600Y-35834400D01*
X41861625Y-35814512D01*
X41889879Y-35736867D01*
X41893200Y-35656600D01*
X41905960Y-35539080D01*
X41937334Y-35480336D01*
X41944000Y-35478800D01*
X41985275Y-35436253D01*
X41994800Y-35377200D01*
X41971477Y-35294687D01*
X41971477Y-35294687D01*
G37*
X41971477Y-35294687D02*
X41939044Y-35275600D01*
X41906748Y-35227099D01*
X41897063Y-35086083D01*
X41900944Y-34983500D01*
X41907459Y-34818436D01*
X41896859Y-34730651D01*
X41862304Y-34696348D01*
X41817000Y-34691400D01*
X41728356Y-34730797D01*
X41708100Y-34793000D01*
X41700081Y-34910026D01*
X41689705Y-35067766D01*
X41687771Y-35097800D01*
X41674741Y-35301000D01*
X41644271Y-35074030D01*
X41607372Y-34911672D01*
X41538193Y-34812789D01*
X41474100Y-34769230D01*
X41363313Y-34720011D01*
X41272904Y-34730189D01*
X41194700Y-34769197D01*
X41089749Y-34857475D01*
X41044154Y-34991136D01*
X41039234Y-35035897D01*
X41037087Y-35161501D01*
X41067481Y-35215138D01*
X41124601Y-35224800D01*
X41215097Y-35183101D01*
X41241967Y-35110500D01*
X41283796Y-35015539D01*
X41349591Y-35001598D01*
X41408141Y-35064387D01*
X41426675Y-35135900D01*
X41425409Y-35235851D01*
X41369719Y-35271830D01*
X41297135Y-35275600D01*
X41139617Y-35306754D01*
X41053289Y-35406146D01*
X41029600Y-35562280D01*
X41066713Y-35724791D01*
X41142504Y-35806120D01*
X41256039Y-35866195D01*
X41309862Y-35879248D01*
X41309862Y-35615739D01*
X41257006Y-35575423D01*
X41260370Y-35526090D01*
X41331637Y-35482634D01*
X41362799Y-35478800D01*
X41428599Y-35509931D01*
X41420153Y-35574364D01*
X41385200Y-35605800D01*
X41309862Y-35615739D01*
X41309862Y-35879248D01*
X41334400Y-35885200D01*
X41473956Y-35840830D01*
X41593034Y-35730592D01*
X41653668Y-35592546D01*
X41667646Y-35521619D01*
X41676496Y-35542704D01*
X41682389Y-35643900D01*
X41698184Y-35772551D01*
X41741664Y-35826697D01*
X41791600Y-35834400D01*
X41861625Y-35814512D01*
X41889879Y-35736867D01*
X41893200Y-35656600D01*
X41905960Y-35539080D01*
X41937334Y-35480336D01*
X41944000Y-35478800D01*
X41985275Y-35436253D01*
X41994800Y-35377200D01*
X41971477Y-35294687D01*
G36*
X41988299Y-34322523D02*
X41953812Y-34283659D01*
X41868870Y-34263174D01*
X41710999Y-34251914D01*
X41651900Y-34249222D01*
X41468424Y-34238058D01*
X41363127Y-34219130D01*
X41312593Y-34184004D01*
X41293404Y-34124249D01*
X41292767Y-34119900D01*
X41247599Y-34028335D01*
X41153067Y-34005600D01*
X41062051Y-34024688D01*
X41031635Y-34102067D01*
X41030378Y-34145300D01*
X41043739Y-34269450D01*
X41068478Y-34340896D01*
X41191203Y-34440413D01*
X41400164Y-34497537D01*
X41661261Y-34513600D01*
X41839910Y-34511357D01*
X41939797Y-34498937D01*
X41983748Y-34467809D01*
X41994589Y-34409441D01*
X41994800Y-34388922D01*
X41988299Y-34322523D01*
X41988299Y-34322523D01*
G37*
X41988299Y-34322523D02*
X41953812Y-34283659D01*
X41868870Y-34263174D01*
X41710999Y-34251914D01*
X41651900Y-34249222D01*
X41468424Y-34238058D01*
X41363127Y-34219130D01*
X41312593Y-34184004D01*
X41293404Y-34124249D01*
X41292767Y-34119900D01*
X41247599Y-34028335D01*
X41153067Y-34005600D01*
X41062051Y-34024688D01*
X41031635Y-34102067D01*
X41030378Y-34145300D01*
X41043739Y-34269450D01*
X41068478Y-34340896D01*
X41191203Y-34440413D01*
X41400164Y-34497537D01*
X41661261Y-34513600D01*
X41839910Y-34511357D01*
X41939797Y-34498937D01*
X41983748Y-34467809D01*
X41994589Y-34409441D01*
X41994800Y-34388922D01*
X41988299Y-34322523D01*
G36*
X41988299Y-31782523D02*
X41953812Y-31743659D01*
X41868870Y-31723174D01*
X41710999Y-31711914D01*
X41651900Y-31709222D01*
X41468424Y-31698058D01*
X41363127Y-31679130D01*
X41312593Y-31644004D01*
X41293404Y-31584249D01*
X41292767Y-31579900D01*
X41247599Y-31488335D01*
X41153067Y-31465600D01*
X41062051Y-31484688D01*
X41031635Y-31562067D01*
X41030378Y-31605300D01*
X41043739Y-31729450D01*
X41068478Y-31800896D01*
X41191203Y-31900413D01*
X41400164Y-31957537D01*
X41661261Y-31973600D01*
X41839910Y-31971357D01*
X41939797Y-31958937D01*
X41983748Y-31927809D01*
X41994589Y-31869441D01*
X41994800Y-31848922D01*
X41988299Y-31782523D01*
X41988299Y-31782523D01*
G37*
X41988299Y-31782523D02*
X41953812Y-31743659D01*
X41868870Y-31723174D01*
X41710999Y-31711914D01*
X41651900Y-31709222D01*
X41468424Y-31698058D01*
X41363127Y-31679130D01*
X41312593Y-31644004D01*
X41293404Y-31584249D01*
X41292767Y-31579900D01*
X41247599Y-31488335D01*
X41153067Y-31465600D01*
X41062051Y-31484688D01*
X41031635Y-31562067D01*
X41030378Y-31605300D01*
X41043739Y-31729450D01*
X41068478Y-31800896D01*
X41191203Y-31900413D01*
X41400164Y-31957537D01*
X41661261Y-31973600D01*
X41839910Y-31971357D01*
X41939797Y-31958937D01*
X41983748Y-31927809D01*
X41994589Y-31869441D01*
X41994800Y-31848922D01*
X41988299Y-31782523D01*
G36*
X41961146Y-33595431D02*
X41859220Y-33481251D01*
X41679993Y-33416520D01*
X41415215Y-33396001D01*
X41413940Y-33396000D01*
X41252665Y-33399294D01*
X41168255Y-33416422D01*
X41136021Y-33458252D01*
X41131200Y-33520465D01*
X41139298Y-33591109D01*
X41179747Y-33630481D01*
X41276781Y-33650171D01*
X41423300Y-33660165D01*
X41590367Y-33673377D01*
X41681194Y-33697827D01*
X41721138Y-33744169D01*
X41731634Y-33789700D01*
X41776802Y-33881266D01*
X41871334Y-33904000D01*
X41962350Y-33884913D01*
X41992766Y-33807534D01*
X41994023Y-33764300D01*
X41961146Y-33595431D01*
X41961146Y-33595431D01*
G37*
X41961146Y-33595431D02*
X41859220Y-33481251D01*
X41679993Y-33416520D01*
X41415215Y-33396001D01*
X41413940Y-33396000D01*
X41252665Y-33399294D01*
X41168255Y-33416422D01*
X41136021Y-33458252D01*
X41131200Y-33520465D01*
X41139298Y-33591109D01*
X41179747Y-33630481D01*
X41276781Y-33650171D01*
X41423300Y-33660165D01*
X41590367Y-33673377D01*
X41681194Y-33697827D01*
X41721138Y-33744169D01*
X41731634Y-33789700D01*
X41776802Y-33881266D01*
X41871334Y-33904000D01*
X41962350Y-33884913D01*
X41992766Y-33807534D01*
X41994023Y-33764300D01*
X41961146Y-33595431D01*
G36*
X41961146Y-31055431D02*
X41859220Y-30941251D01*
X41679993Y-30876520D01*
X41415215Y-30856001D01*
X41413940Y-30856000D01*
X41252665Y-30859294D01*
X41168255Y-30876422D01*
X41136021Y-30918252D01*
X41131200Y-30980465D01*
X41139298Y-31051109D01*
X41179747Y-31090481D01*
X41276781Y-31110171D01*
X41423300Y-31120165D01*
X41590367Y-31133377D01*
X41681194Y-31157827D01*
X41721138Y-31204169D01*
X41731634Y-31249700D01*
X41776802Y-31341266D01*
X41871334Y-31364000D01*
X41962350Y-31344913D01*
X41992766Y-31267534D01*
X41994023Y-31224300D01*
X41961146Y-31055431D01*
X41961146Y-31055431D01*
G37*
X41961146Y-31055431D02*
X41859220Y-30941251D01*
X41679993Y-30876520D01*
X41415215Y-30856001D01*
X41413940Y-30856000D01*
X41252665Y-30859294D01*
X41168255Y-30876422D01*
X41136021Y-30918252D01*
X41131200Y-30980465D01*
X41139298Y-31051109D01*
X41179747Y-31090481D01*
X41276781Y-31110171D01*
X41423300Y-31120165D01*
X41590367Y-31133377D01*
X41681194Y-31157827D01*
X41721138Y-31204169D01*
X41731634Y-31249700D01*
X41776802Y-31341266D01*
X41871334Y-31364000D01*
X41962350Y-31344913D01*
X41992766Y-31267534D01*
X41994023Y-31224300D01*
X41961146Y-31055431D01*
G36*
X46541137Y-50780095D02*
X46539870Y-50423146D01*
X46536884Y-50144112D01*
X46531465Y-49931150D01*
X46522897Y-49772418D01*
X46510464Y-49656074D01*
X46493453Y-49570274D01*
X46471148Y-49503176D01*
X46442833Y-49442939D01*
X46432506Y-49423400D01*
X46258973Y-49177419D01*
X46039089Y-49011380D01*
X45760617Y-48918586D01*
X45461900Y-48892230D01*
X45195200Y-48890000D01*
X45195200Y-49234135D01*
X45556925Y-49254575D01*
X45754788Y-49270279D01*
X45881640Y-49296607D01*
X45968069Y-49343670D01*
X46037785Y-49413517D01*
X46102078Y-49497431D01*
X46153253Y-49591293D01*
X46192587Y-49706884D01*
X46221356Y-49855982D01*
X46240836Y-50050365D01*
X46252304Y-50301813D01*
X46257036Y-50622104D01*
X46256309Y-51023016D01*
X46252792Y-51397594D01*
X46247603Y-51819049D01*
X46242063Y-52151411D01*
X46235234Y-52407188D01*
X46226177Y-52598886D01*
X46213954Y-52739012D01*
X46197626Y-52840071D01*
X46176256Y-52914571D01*
X46148905Y-52975019D01*
X46132220Y-53004687D01*
X46076142Y-53093864D01*
X46016662Y-53163618D01*
X45941227Y-53216338D01*
X45837284Y-53254412D01*
X45692282Y-53280228D01*
X45493669Y-53296175D01*
X45228892Y-53304642D01*
X44885401Y-53308018D01*
X44534800Y-53308662D01*
X44109228Y-53307835D01*
X43772642Y-53302852D01*
X43512433Y-53290598D01*
X43315994Y-53267958D01*
X43170716Y-53231816D01*
X43063990Y-53179057D01*
X42983209Y-53106567D01*
X42915763Y-53011229D01*
X42850382Y-52892493D01*
X42817738Y-52826392D01*
X42791992Y-52759188D01*
X42772302Y-52678440D01*
X42757824Y-52571706D01*
X42747715Y-52426544D01*
X42741131Y-52230512D01*
X42737229Y-51971169D01*
X42735166Y-51636072D01*
X42734098Y-51212779D01*
X42734033Y-51176000D01*
X42733964Y-50682734D01*
X42737647Y-50281555D01*
X42748054Y-49962952D01*
X42768161Y-49717415D01*
X42800940Y-49535434D01*
X42849366Y-49407498D01*
X42916412Y-49324097D01*
X43005052Y-49275720D01*
X43118260Y-49252858D01*
X43259010Y-49246000D01*
X43337661Y-49245600D01*
X43620400Y-49245600D01*
X43620400Y-48876090D01*
X43284094Y-48903086D01*
X43014479Y-48945089D01*
X42818135Y-49030289D01*
X42670875Y-49173160D01*
X42579000Y-49325079D01*
X42550721Y-49386446D01*
X42528098Y-49455000D01*
X42510421Y-49542452D01*
X42496980Y-49660513D01*
X42487064Y-49820896D01*
X42479964Y-50035310D01*
X42474968Y-50315469D01*
X42471366Y-50673082D01*
X42468449Y-51119861D01*
X42468275Y-51150600D01*
X42467356Y-51614981D01*
X42469919Y-52026648D01*
X42475734Y-52375859D01*
X42484572Y-52652872D01*
X42496206Y-52847944D01*
X42510404Y-52951334D01*
X42510638Y-52952145D01*
X42579134Y-53122400D01*
X42667015Y-53275392D01*
X42729948Y-53355812D01*
X42799478Y-53419760D01*
X42887416Y-53469111D01*
X43005575Y-53505739D01*
X43165767Y-53531517D01*
X43379804Y-53548318D01*
X43659499Y-53558016D01*
X44016663Y-53562485D01*
X44463108Y-53563599D01*
X44484001Y-53563600D01*
X44930005Y-53562639D01*
X45286558Y-53558590D01*
X45565798Y-53549707D01*
X45779864Y-53534243D01*
X45940895Y-53510451D01*
X46061031Y-53476584D01*
X46152410Y-53430896D01*
X46227172Y-53371639D01*
X46291879Y-53303448D01*
X46358199Y-53223124D01*
X46411626Y-53141306D01*
X46453547Y-53046446D01*
X46485349Y-52926998D01*
X46508420Y-52771416D01*
X46524147Y-52568154D01*
X46533917Y-52305665D01*
X46539118Y-51972404D01*
X46541137Y-51556824D01*
X46541400Y-51226800D01*
X46541137Y-50780095D01*
X46541137Y-50780095D01*
G37*
X46541137Y-50780095D02*
X46539870Y-50423146D01*
X46536884Y-50144112D01*
X46531465Y-49931150D01*
X46522897Y-49772418D01*
X46510464Y-49656074D01*
X46493453Y-49570274D01*
X46471148Y-49503176D01*
X46442833Y-49442939D01*
X46432506Y-49423400D01*
X46258973Y-49177419D01*
X46039089Y-49011380D01*
X45760617Y-48918586D01*
X45461900Y-48892230D01*
X45195200Y-48890000D01*
X45195200Y-49234135D01*
X45556925Y-49254575D01*
X45754788Y-49270279D01*
X45881640Y-49296607D01*
X45968069Y-49343670D01*
X46037785Y-49413517D01*
X46102078Y-49497431D01*
X46153253Y-49591293D01*
X46192587Y-49706884D01*
X46221356Y-49855982D01*
X46240836Y-50050365D01*
X46252304Y-50301813D01*
X46257036Y-50622104D01*
X46256309Y-51023016D01*
X46252792Y-51397594D01*
X46247603Y-51819049D01*
X46242063Y-52151411D01*
X46235234Y-52407188D01*
X46226177Y-52598886D01*
X46213954Y-52739012D01*
X46197626Y-52840071D01*
X46176256Y-52914571D01*
X46148905Y-52975019D01*
X46132220Y-53004687D01*
X46076142Y-53093864D01*
X46016662Y-53163618D01*
X45941227Y-53216338D01*
X45837284Y-53254412D01*
X45692282Y-53280228D01*
X45493669Y-53296175D01*
X45228892Y-53304642D01*
X44885401Y-53308018D01*
X44534800Y-53308662D01*
X44109228Y-53307835D01*
X43772642Y-53302852D01*
X43512433Y-53290598D01*
X43315994Y-53267958D01*
X43170716Y-53231816D01*
X43063990Y-53179057D01*
X42983209Y-53106567D01*
X42915763Y-53011229D01*
X42850382Y-52892493D01*
X42817738Y-52826392D01*
X42791992Y-52759188D01*
X42772302Y-52678440D01*
X42757824Y-52571706D01*
X42747715Y-52426544D01*
X42741131Y-52230512D01*
X42737229Y-51971169D01*
X42735166Y-51636072D01*
X42734098Y-51212779D01*
X42734033Y-51176000D01*
X42733964Y-50682734D01*
X42737647Y-50281555D01*
X42748054Y-49962952D01*
X42768161Y-49717415D01*
X42800940Y-49535434D01*
X42849366Y-49407498D01*
X42916412Y-49324097D01*
X43005052Y-49275720D01*
X43118260Y-49252858D01*
X43259010Y-49246000D01*
X43337661Y-49245600D01*
X43620400Y-49245600D01*
X43620400Y-48876090D01*
X43284094Y-48903086D01*
X43014479Y-48945089D01*
X42818135Y-49030289D01*
X42670875Y-49173160D01*
X42579000Y-49325079D01*
X42550721Y-49386446D01*
X42528098Y-49455000D01*
X42510421Y-49542452D01*
X42496980Y-49660513D01*
X42487064Y-49820896D01*
X42479964Y-50035310D01*
X42474968Y-50315469D01*
X42471366Y-50673082D01*
X42468449Y-51119861D01*
X42468275Y-51150600D01*
X42467356Y-51614981D01*
X42469919Y-52026648D01*
X42475734Y-52375859D01*
X42484572Y-52652872D01*
X42496206Y-52847944D01*
X42510404Y-52951334D01*
X42510638Y-52952145D01*
X42579134Y-53122400D01*
X42667015Y-53275392D01*
X42729948Y-53355812D01*
X42799478Y-53419760D01*
X42887416Y-53469111D01*
X43005575Y-53505739D01*
X43165767Y-53531517D01*
X43379804Y-53548318D01*
X43659499Y-53558016D01*
X44016663Y-53562485D01*
X44463108Y-53563599D01*
X44484001Y-53563600D01*
X44930005Y-53562639D01*
X45286558Y-53558590D01*
X45565798Y-53549707D01*
X45779864Y-53534243D01*
X45940895Y-53510451D01*
X46061031Y-53476584D01*
X46152410Y-53430896D01*
X46227172Y-53371639D01*
X46291879Y-53303448D01*
X46358199Y-53223124D01*
X46411626Y-53141306D01*
X46453547Y-53046446D01*
X46485349Y-52926998D01*
X46508420Y-52771416D01*
X46524147Y-52568154D01*
X46533917Y-52305665D01*
X46539118Y-51972404D01*
X46541137Y-51556824D01*
X46541400Y-51226800D01*
X46541137Y-50780095D01*
G36*
X44819670Y-48280400D02*
X44979461Y-48115300D01*
X45115859Y-47951941D01*
X45208523Y-47777881D01*
X45264536Y-47569255D01*
X45290986Y-47302197D01*
X45295685Y-47050132D01*
X45281682Y-46702611D01*
X45237539Y-46434494D01*
X45157531Y-46226561D01*
X45035933Y-46059595D01*
X44986002Y-46010484D01*
X44900937Y-45940713D01*
X44807826Y-45887359D01*
X44692239Y-45848270D01*
X44539745Y-45821294D01*
X44335913Y-45804280D01*
X44066312Y-45795074D01*
X43716512Y-45791526D01*
X43515493Y-45791200D01*
X42452000Y-45791200D01*
X42452000Y-46096000D01*
X44646560Y-46096000D01*
X44992000Y-46441440D01*
X44992000Y-47022011D01*
X44990845Y-47274407D01*
X44984112Y-47450198D01*
X44966906Y-47574377D01*
X44934330Y-47671937D01*
X44881485Y-47767871D01*
X44830456Y-47846469D01*
X44729818Y-47985732D01*
X44626227Y-48091651D01*
X44504327Y-48168728D01*
X44348761Y-48221462D01*
X44144173Y-48254354D01*
X43875206Y-48271906D01*
X43526504Y-48278617D01*
X43353700Y-48279285D01*
X42452000Y-48280400D01*
X42452000Y-48534400D01*
X46211200Y-48534400D01*
X46211200Y-48280400D01*
X44819670Y-48280400D01*
X44819670Y-48280400D01*
G37*
X44819670Y-48280400D02*
X44979461Y-48115300D01*
X45115859Y-47951941D01*
X45208523Y-47777881D01*
X45264536Y-47569255D01*
X45290986Y-47302197D01*
X45295685Y-47050132D01*
X45281682Y-46702611D01*
X45237539Y-46434494D01*
X45157531Y-46226561D01*
X45035933Y-46059595D01*
X44986002Y-46010484D01*
X44900937Y-45940713D01*
X44807826Y-45887359D01*
X44692239Y-45848270D01*
X44539745Y-45821294D01*
X44335913Y-45804280D01*
X44066312Y-45795074D01*
X43716512Y-45791526D01*
X43515493Y-45791200D01*
X42452000Y-45791200D01*
X42452000Y-46096000D01*
X44646560Y-46096000D01*
X44992000Y-46441440D01*
X44992000Y-47022011D01*
X44990845Y-47274407D01*
X44984112Y-47450198D01*
X44966906Y-47574377D01*
X44934330Y-47671937D01*
X44881485Y-47767871D01*
X44830456Y-47846469D01*
X44729818Y-47985732D01*
X44626227Y-48091651D01*
X44504327Y-48168728D01*
X44348761Y-48221462D01*
X44144173Y-48254354D01*
X43875206Y-48271906D01*
X43526504Y-48278617D01*
X43353700Y-48279285D01*
X42452000Y-48280400D01*
X42452000Y-48534400D01*
X46211200Y-48534400D01*
X46211200Y-48280400D01*
X44819670Y-48280400D01*
G36*
X42452000Y-45130800D02*
X42452000Y-45437208D01*
X45271400Y-45410200D01*
X45287475Y-45270500D01*
X45303549Y-45130800D01*
X42452000Y-45130800D01*
X42452000Y-45130800D01*
G37*
X42452000Y-45130800D02*
X42452000Y-45437208D01*
X45271400Y-45410200D01*
X45287475Y-45270500D01*
X45303549Y-45130800D01*
X42452000Y-45130800D01*
G36*
X44940563Y-44458573D02*
X43669925Y-44445000D01*
X44486285Y-43390932D01*
X44732877Y-43071905D01*
X44923880Y-42822029D01*
X45066201Y-42630350D01*
X45166748Y-42485912D01*
X45232428Y-42377762D01*
X45270147Y-42294944D01*
X45286812Y-42226505D01*
X45289330Y-42161489D01*
X45287023Y-42120932D01*
X45271400Y-41905000D01*
X44719510Y-42616200D01*
X44539438Y-42846618D01*
X44380104Y-43047410D01*
X44252142Y-43205423D01*
X44166186Y-43307505D01*
X44133822Y-43340596D01*
X44102663Y-43325331D01*
X44027973Y-43268255D01*
X43905086Y-43165272D01*
X43729332Y-43012290D01*
X43496043Y-42805214D01*
X43200553Y-42539949D01*
X42838192Y-42212401D01*
X42566300Y-41965712D01*
X42452000Y-41861890D01*
X42452000Y-42316102D01*
X43184141Y-42973931D01*
X43416623Y-43187012D01*
X43612836Y-43375074D01*
X43762678Y-43527815D01*
X43856049Y-43634930D01*
X43882849Y-43686117D01*
X43882641Y-43686493D01*
X43838057Y-43749328D01*
X43747450Y-43870804D01*
X43627053Y-44029267D01*
X43569600Y-44104118D01*
X43290200Y-44467011D01*
X42871100Y-44468706D01*
X42665741Y-44470809D01*
X42541567Y-44479253D01*
X42478162Y-44500308D01*
X42455114Y-44540242D01*
X42452000Y-44597400D01*
X42452000Y-44724400D01*
X46211200Y-44724400D01*
X46211200Y-44472145D01*
X44940563Y-44458573D01*
X44940563Y-44458573D01*
G37*
X44940563Y-44458573D02*
X43669925Y-44445000D01*
X44486285Y-43390932D01*
X44732877Y-43071905D01*
X44923880Y-42822029D01*
X45066201Y-42630350D01*
X45166748Y-42485912D01*
X45232428Y-42377762D01*
X45270147Y-42294944D01*
X45286812Y-42226505D01*
X45289330Y-42161489D01*
X45287023Y-42120932D01*
X45271400Y-41905000D01*
X44719510Y-42616200D01*
X44539438Y-42846618D01*
X44380104Y-43047410D01*
X44252142Y-43205423D01*
X44166186Y-43307505D01*
X44133822Y-43340596D01*
X44102663Y-43325331D01*
X44027973Y-43268255D01*
X43905086Y-43165272D01*
X43729332Y-43012290D01*
X43496043Y-42805214D01*
X43200553Y-42539949D01*
X42838192Y-42212401D01*
X42566300Y-41965712D01*
X42452000Y-41861890D01*
X42452000Y-42316102D01*
X43184141Y-42973931D01*
X43416623Y-43187012D01*
X43612836Y-43375074D01*
X43762678Y-43527815D01*
X43856049Y-43634930D01*
X43882849Y-43686117D01*
X43882641Y-43686493D01*
X43838057Y-43749328D01*
X43747450Y-43870804D01*
X43627053Y-44029267D01*
X43569600Y-44104118D01*
X43290200Y-44467011D01*
X42871100Y-44468706D01*
X42665741Y-44470809D01*
X42541567Y-44479253D01*
X42478162Y-44500308D01*
X42455114Y-44540242D01*
X42452000Y-44597400D01*
X42452000Y-44724400D01*
X46211200Y-44724400D01*
X46211200Y-44472145D01*
X44940563Y-44458573D01*
G36*
X42452000Y-38577600D02*
X42452000Y-38730000D01*
X42461133Y-38830554D01*
X42508642Y-38873163D01*
X42624690Y-38882371D01*
X42639305Y-38882400D01*
X42826609Y-38882400D01*
X42696312Y-39022100D01*
X42602764Y-39130146D01*
X42536606Y-39234527D01*
X42493198Y-39355534D01*
X42467899Y-39513457D01*
X42456071Y-39728587D01*
X42453073Y-40021212D01*
X42453116Y-40085561D01*
X42456185Y-40390450D01*
X42465693Y-40614431D01*
X42483768Y-40778105D01*
X42512543Y-40902073D01*
X42546742Y-40991036D01*
X42645722Y-41154323D01*
X42781192Y-41316011D01*
X42826794Y-41359336D01*
X43014336Y-41524000D01*
X45296800Y-41524000D01*
X45296800Y-41270000D01*
X44257791Y-41270000D01*
X43825471Y-41266719D01*
X43488914Y-41256935D01*
X43249836Y-41240733D01*
X43109953Y-41218203D01*
X43088143Y-41210478D01*
X42939366Y-41109247D01*
X42832163Y-40953098D01*
X42761468Y-40729264D01*
X42722211Y-40424977D01*
X42713777Y-40267363D01*
X42708782Y-40025895D01*
X42711135Y-39803102D01*
X42720174Y-39631110D01*
X42728162Y-39567596D01*
X42795061Y-39396840D01*
X42920044Y-39211186D01*
X43074355Y-39048467D01*
X43182867Y-38969359D01*
X43280407Y-38943490D01*
X43474203Y-38920810D01*
X43758950Y-38901740D01*
X44129343Y-38886700D01*
X44280800Y-38882400D01*
X45271400Y-38857000D01*
X45287475Y-38717300D01*
X45303549Y-38577600D01*
X42452000Y-38577600D01*
X42452000Y-38577600D01*
G37*
X42452000Y-38577600D02*
X42452000Y-38730000D01*
X42461133Y-38830554D01*
X42508642Y-38873163D01*
X42624690Y-38882371D01*
X42639305Y-38882400D01*
X42826609Y-38882400D01*
X42696312Y-39022100D01*
X42602764Y-39130146D01*
X42536606Y-39234527D01*
X42493198Y-39355534D01*
X42467899Y-39513457D01*
X42456071Y-39728587D01*
X42453073Y-40021212D01*
X42453116Y-40085561D01*
X42456185Y-40390450D01*
X42465693Y-40614431D01*
X42483768Y-40778105D01*
X42512543Y-40902073D01*
X42546742Y-40991036D01*
X42645722Y-41154323D01*
X42781192Y-41316011D01*
X42826794Y-41359336D01*
X43014336Y-41524000D01*
X45296800Y-41524000D01*
X45296800Y-41270000D01*
X44257791Y-41270000D01*
X43825471Y-41266719D01*
X43488914Y-41256935D01*
X43249836Y-41240733D01*
X43109953Y-41218203D01*
X43088143Y-41210478D01*
X42939366Y-41109247D01*
X42832163Y-40953098D01*
X42761468Y-40729264D01*
X42722211Y-40424977D01*
X42713777Y-40267363D01*
X42708782Y-40025895D01*
X42711135Y-39803102D01*
X42720174Y-39631110D01*
X42728162Y-39567596D01*
X42795061Y-39396840D01*
X42920044Y-39211186D01*
X43074355Y-39048467D01*
X43182867Y-38969359D01*
X43280407Y-38943490D01*
X43474203Y-38920810D01*
X43758950Y-38901740D01*
X44129343Y-38886700D01*
X44280800Y-38882400D01*
X45271400Y-38857000D01*
X45287475Y-38717300D01*
X45303549Y-38577600D01*
X42452000Y-38577600D01*
G36*
X43849000Y-34246591D02*
X43502891Y-34420331D01*
X43188059Y-34579950D01*
X42915495Y-34719749D01*
X42696191Y-34834030D01*
X42541139Y-34917095D01*
X42461330Y-34963246D01*
X42452883Y-34970371D01*
X42494749Y-35003237D01*
X42610321Y-35078366D01*
X42785465Y-35186969D01*
X43006043Y-35320257D01*
X43216097Y-35444866D01*
X43978430Y-35893531D01*
X43215215Y-36348294D01*
X42967723Y-36497039D01*
X42753718Y-36628092D01*
X42587235Y-36732659D01*
X42482308Y-36801947D01*
X42452000Y-36826548D01*
X42495652Y-36854257D01*
X42619210Y-36921403D01*
X42811576Y-37022246D01*
X43061654Y-37151043D01*
X43358348Y-37302053D01*
X43690560Y-37469535D01*
X43823238Y-37536019D01*
X44167290Y-37707673D01*
X44481632Y-37863619D01*
X44754894Y-37998284D01*
X44975708Y-38106100D01*
X45132703Y-38181497D01*
X45214511Y-38218904D01*
X45223456Y-38222000D01*
X45238949Y-38177941D01*
X45237501Y-38070808D01*
X45236519Y-38060193D01*
X45228330Y-38007482D01*
X45207751Y-37960403D01*
X45163697Y-37912100D01*
X45085087Y-37855717D01*
X44960838Y-37784399D01*
X44779868Y-37691290D01*
X44531092Y-37569535D01*
X44203430Y-37412277D01*
X44140379Y-37382138D01*
X43834935Y-37235679D01*
X43561049Y-37103426D01*
X43331737Y-36991740D01*
X43160016Y-36906984D01*
X43058904Y-36855517D01*
X43037351Y-36843085D01*
X43071362Y-36812531D01*
X43174104Y-36741741D01*
X43326916Y-36642305D01*
X43511141Y-36525809D01*
X43708119Y-36403842D01*
X43899191Y-36287990D01*
X44065697Y-36189842D01*
X44188978Y-36120986D01*
X44239849Y-36096308D01*
X44300220Y-36113522D01*
X44427494Y-36174431D01*
X44602609Y-36268583D01*
X44806500Y-36385523D01*
X45020105Y-36514798D01*
X45131700Y-36585361D01*
X45207724Y-36627551D01*
X45239313Y-36607359D01*
X45245952Y-36506761D01*
X45246000Y-36479615D01*
X45239721Y-36384813D01*
X45208330Y-36313675D01*
X45133000Y-36245707D01*
X44994906Y-36160412D01*
X44907357Y-36110965D01*
X44743679Y-36018020D01*
X44651410Y-35950191D01*
X44633886Y-35891349D01*
X44694444Y-35825364D01*
X44836419Y-35736109D01*
X45004649Y-35640625D01*
X45147250Y-35551940D01*
X45219643Y-35476590D01*
X45244362Y-35386417D01*
X45245949Y-35339100D01*
X45239559Y-35226647D01*
X45223930Y-35174455D01*
X45222159Y-35174000D01*
X45171156Y-35198233D01*
X45052563Y-35263599D01*
X44885999Y-35359101D01*
X44753952Y-35436467D01*
X44562224Y-35546667D01*
X44400922Y-35633734D01*
X44291189Y-35686566D01*
X44257094Y-35697288D01*
X44196339Y-35672026D01*
X44066008Y-35603867D01*
X43883544Y-35502352D01*
X43666389Y-35377024D01*
X43597507Y-35336458D01*
X42990413Y-34977274D01*
X43749907Y-34612712D01*
X44039244Y-34474210D01*
X44329033Y-34336160D01*
X44592775Y-34211140D01*
X44803973Y-34111728D01*
X44877700Y-34077358D01*
X45061057Y-33989928D01*
X45170575Y-33925785D01*
X45225237Y-33866903D01*
X45244027Y-33795256D01*
X45246000Y-33727603D01*
X45246000Y-33548641D01*
X43849000Y-34246591D01*
X43849000Y-34246591D01*
G37*
X43849000Y-34246591D02*
X43502891Y-34420331D01*
X43188059Y-34579950D01*
X42915495Y-34719749D01*
X42696191Y-34834030D01*
X42541139Y-34917095D01*
X42461330Y-34963246D01*
X42452883Y-34970371D01*
X42494749Y-35003237D01*
X42610321Y-35078366D01*
X42785465Y-35186969D01*
X43006043Y-35320257D01*
X43216097Y-35444866D01*
X43978430Y-35893531D01*
X43215215Y-36348294D01*
X42967723Y-36497039D01*
X42753718Y-36628092D01*
X42587235Y-36732659D01*
X42482308Y-36801947D01*
X42452000Y-36826548D01*
X42495652Y-36854257D01*
X42619210Y-36921403D01*
X42811576Y-37022246D01*
X43061654Y-37151043D01*
X43358348Y-37302053D01*
X43690560Y-37469535D01*
X43823238Y-37536019D01*
X44167290Y-37707673D01*
X44481632Y-37863619D01*
X44754894Y-37998284D01*
X44975708Y-38106100D01*
X45132703Y-38181497D01*
X45214511Y-38218904D01*
X45223456Y-38222000D01*
X45238949Y-38177941D01*
X45237501Y-38070808D01*
X45236519Y-38060193D01*
X45228330Y-38007482D01*
X45207751Y-37960403D01*
X45163697Y-37912100D01*
X45085087Y-37855717D01*
X44960838Y-37784399D01*
X44779868Y-37691290D01*
X44531092Y-37569535D01*
X44203430Y-37412277D01*
X44140379Y-37382138D01*
X43834935Y-37235679D01*
X43561049Y-37103426D01*
X43331737Y-36991740D01*
X43160016Y-36906984D01*
X43058904Y-36855517D01*
X43037351Y-36843085D01*
X43071362Y-36812531D01*
X43174104Y-36741741D01*
X43326916Y-36642305D01*
X43511141Y-36525809D01*
X43708119Y-36403842D01*
X43899191Y-36287990D01*
X44065697Y-36189842D01*
X44188978Y-36120986D01*
X44239849Y-36096308D01*
X44300220Y-36113522D01*
X44427494Y-36174431D01*
X44602609Y-36268583D01*
X44806500Y-36385523D01*
X45020105Y-36514798D01*
X45131700Y-36585361D01*
X45207724Y-36627551D01*
X45239313Y-36607359D01*
X45245952Y-36506761D01*
X45246000Y-36479615D01*
X45239721Y-36384813D01*
X45208330Y-36313675D01*
X45133000Y-36245707D01*
X44994906Y-36160412D01*
X44907357Y-36110965D01*
X44743679Y-36018020D01*
X44651410Y-35950191D01*
X44633886Y-35891349D01*
X44694444Y-35825364D01*
X44836419Y-35736109D01*
X45004649Y-35640625D01*
X45147250Y-35551940D01*
X45219643Y-35476590D01*
X45244362Y-35386417D01*
X45245949Y-35339100D01*
X45239559Y-35226647D01*
X45223930Y-35174455D01*
X45222159Y-35174000D01*
X45171156Y-35198233D01*
X45052563Y-35263599D01*
X44885999Y-35359101D01*
X44753952Y-35436467D01*
X44562224Y-35546667D01*
X44400922Y-35633734D01*
X44291189Y-35686566D01*
X44257094Y-35697288D01*
X44196339Y-35672026D01*
X44066008Y-35603867D01*
X43883544Y-35502352D01*
X43666389Y-35377024D01*
X43597507Y-35336458D01*
X42990413Y-34977274D01*
X43749907Y-34612712D01*
X44039244Y-34474210D01*
X44329033Y-34336160D01*
X44592775Y-34211140D01*
X44803973Y-34111728D01*
X44877700Y-34077358D01*
X45061057Y-33989928D01*
X45170575Y-33925785D01*
X45225237Y-33866903D01*
X45244027Y-33795256D01*
X45246000Y-33727603D01*
X45246000Y-33548641D01*
X43849000Y-34246591D01*
G36*
X46579534Y-45149636D02*
X46519939Y-45110029D01*
X46439800Y-45105400D01*
X46328406Y-45120883D01*
X46281368Y-45186712D01*
X46271298Y-45245389D01*
X46284866Y-45369673D01*
X46331831Y-45414786D01*
X46475060Y-45434958D01*
X46565429Y-45372766D01*
X46592200Y-45257105D01*
X46579534Y-45149636D01*
X46579534Y-45149636D01*
G37*
X46579534Y-45149636D02*
X46519939Y-45110029D01*
X46439800Y-45105400D01*
X46328406Y-45120883D01*
X46281368Y-45186712D01*
X46271298Y-45245389D01*
X46284866Y-45369673D01*
X46331831Y-45414786D01*
X46475060Y-45434958D01*
X46565429Y-45372766D01*
X46592200Y-45257105D01*
X46579534Y-45149636D01*
D12*
X32500000Y-8000000D03*
D13*
X29960000Y-8000000D03*
X27420000Y-8000000D03*
X24880000Y-8000000D03*
D14*
X54000000Y-9000000D03*
D15*
X54000000Y-14000000D03*
D16*
X39500000Y-9500000D03*
X37000000Y-9500000D03*
D17*
X31500000Y-71000000D03*
X33000000Y-71000000D03*
X34500000Y-71000000D03*
X36000000Y-71000000D03*
X37500000Y-71000000D03*
X39000000Y-71000000D03*
D18*
X37000000Y-44000000D03*
X37000000Y-42500000D03*
X37000000Y-41000000D03*
X37000000Y-39500000D03*
X37000000Y-38000000D03*
X37000000Y-36500000D03*
D19*
X22700000Y-11000000D03*
X25000000Y-11000000D03*
X27300000Y-11000000D03*
D20*
X25000000Y-17300000D03*
D21*
X53050680Y-22275840D03*
X53050680Y-17724160D03*
D22*
X58949320Y-20000000D03*
D21*
X53050680Y-30275840D03*
X53050680Y-25724160D03*
D22*
X58949320Y-28000000D03*
D21*
X64050680Y-38275840D03*
X64050680Y-33724160D03*
D22*
X69949320Y-36000000D03*
D21*
X53050680Y-38275840D03*
X53050680Y-33724160D03*
D22*
X58949320Y-36000000D03*
D21*
X64050680Y-46275840D03*
X64050680Y-41724160D03*
D22*
X69949320Y-44000000D03*
D21*
X53050680Y-46275840D03*
X53050680Y-41724160D03*
D22*
X58949320Y-44000000D03*
D21*
X64050680Y-54275840D03*
X64050680Y-49724160D03*
D22*
X69949320Y-52000000D03*
D21*
X53050680Y-54275840D03*
X53050680Y-49724160D03*
D22*
X58949320Y-52000000D03*
D21*
X64050680Y-62275840D03*
X64050680Y-57724160D03*
D22*
X69949320Y-60000000D03*
D21*
X53050680Y-62275840D03*
X53050680Y-57724160D03*
D22*
X58949320Y-60000000D03*
D23*
X64050000Y-22300000D03*
X64050000Y-17700000D03*
D22*
X69949320Y-20000000D03*
D23*
X64050000Y-30300000D03*
X64050000Y-25700000D03*
D22*
X69949320Y-28000000D03*
D24*
X24500000Y-43500000D03*
D25*
X24500000Y-40960000D03*
X24500000Y-38420000D03*
X24500000Y-35880000D03*
D14*
X64500000Y-9000000D03*
D15*
X64500000Y-14000000D03*
D14*
X52500000Y-66000000D03*
D15*
X52500000Y-71000000D03*
D14*
X63000000Y-66000000D03*
D15*
X63000000Y-71000000D03*
D19*
X30700000Y-11000000D03*
X33000000Y-11000000D03*
X35300000Y-11000000D03*
D20*
X33000000Y-17300000D03*
D26*
X50365000Y-10500000D03*
X53635000Y-10500000D03*
D27*
X19000000Y-44000000D03*
X19000000Y-46500000D03*
X19000000Y-49000000D03*
X19000000Y-51500000D03*
X19000000Y-16500000D03*
X19000000Y-19000000D03*
X19000000Y-21500000D03*
X19000000Y-26500000D03*
X19000000Y-29000000D03*
X19000000Y-31500000D03*
X19000000Y-34000000D03*
X19000000Y-36500000D03*
X19000000Y-39000000D03*
D28*
X33600000Y-54000000D03*
X35500000Y-54000000D03*
X32400000Y-54000000D03*
X30500000Y-54000000D03*
D29*
X21500000Y-21400000D03*
X21500000Y-19500000D03*
X34000000Y-25100000D03*
X34000000Y-27000000D03*
X36000000Y-28600000D03*
X36000000Y-30500000D03*
X39500000Y-21100000D03*
X39500000Y-23000000D03*
D28*
X26100000Y-56000000D03*
X28000000Y-56000000D03*
X26100000Y-54000000D03*
X28000000Y-54000000D03*
D29*
X21000000Y-67400000D03*
X21000000Y-65500000D03*
D28*
X28400000Y-35000000D03*
X26500000Y-35000000D03*
D29*
X37500000Y-21100000D03*
X37500000Y-23000000D03*
X35500000Y-21100000D03*
X35500000Y-23000000D03*
X21500000Y-16100000D03*
X21500000Y-18000000D03*
D28*
X26600000Y-33000000D03*
X28500000Y-33000000D03*
D30*
X62000000Y-9900000D03*
X62000000Y-13100000D03*
X59000000Y-9900000D03*
X59000000Y-13100000D03*
X56000000Y-9900000D03*
X56000000Y-13100000D03*
D31*
X21500000Y-50770000D03*
X21500000Y-49500000D03*
X21500000Y-48230000D03*
X39000000Y-43770000D03*
X39000000Y-42500000D03*
X39000000Y-41230000D03*
X21500000Y-37770000D03*
X21500000Y-36500000D03*
X21500000Y-35230000D03*
D32*
X37998860Y-26950000D03*
X37998860Y-25050000D03*
X41001140Y-26000000D03*
D29*
X36000000Y-25100000D03*
X36000000Y-27000000D03*
D33*
X37050000Y-11998860D03*
X38950000Y-11998860D03*
X38000000Y-15001140D03*
D29*
X32000000Y-25100000D03*
X32000000Y-27000000D03*
D30*
X60500000Y-67400000D03*
X60500000Y-70600000D03*
X57500000Y-67400000D03*
X57500000Y-70600000D03*
X54500000Y-67400000D03*
X54500000Y-70600000D03*
D28*
X41900000Y-63000000D03*
X40000000Y-63000000D03*
X41900000Y-66000000D03*
X40000000Y-66000000D03*
X41900000Y-64500000D03*
X40000000Y-64500000D03*
D29*
X28500000Y-71400000D03*
X28500000Y-69500000D03*
X19000000Y-67400000D03*
X19000000Y-65500000D03*
D34*
X35440940Y-52000000D03*
X30559060Y-52000000D03*
D35*
X36400000Y-16000000D03*
X39600000Y-16000000D03*
D17*
X18000000Y-71000000D03*
X19500000Y-71000000D03*
X21000000Y-71000000D03*
X22500000Y-71000000D03*
X24000000Y-71000000D03*
X25500000Y-71000000D03*
D27*
X19000000Y-56500000D03*
X19000000Y-59000000D03*
X19000000Y-61500000D03*
X19000000Y-64000000D03*
D36*
X24500000Y-50000000D03*
D37*
X24500000Y-52540000D03*
X24500000Y-55080000D03*
X24500000Y-57620000D03*
X24500000Y-60160000D03*
X24500000Y-62700000D03*
X24500000Y-65240000D03*
X24500000Y-67780000D03*
D29*
X38000000Y-46600000D03*
X38000000Y-48500000D03*
X35500000Y-46600000D03*
X35500000Y-48500000D03*
D38*
X34250000Y-36750000D03*
X34250000Y-44250000D03*
X26750000Y-44250000D03*
X26750000Y-36750000D03*
D31*
X21500000Y-58270000D03*
X21500000Y-57000000D03*
X21500000Y-55730000D03*
D39*
G36*
X50987000Y-72000000D02*
X50988024Y-72005058D01*
X50990935Y-72009319D01*
X50995275Y-72012111D01*
X51000000Y-72013000D01*
X68487000Y-72013000D01*
X68487000Y-73500000D01*
X68488024Y-73505058D01*
X68490935Y-73509319D01*
X68495275Y-73512111D01*
X68500000Y-73513000D01*
X70987000Y-73513000D01*
X70987000Y-77487000D01*
X67013000Y-77487000D01*
X67013000Y-73513000D01*
X67500000Y-73513000D01*
X67505058Y-73511976D01*
X67509319Y-73509065D01*
X67512111Y-73504725D01*
X67513000Y-73500000D01*
X67513000Y-73000000D01*
X67511976Y-72994942D01*
X67509065Y-72990681D01*
X67504725Y-72987889D01*
X67500000Y-72987000D01*
X50013000Y-72987000D01*
X50013000Y-16513000D01*
X50987000Y-16513000D01*
X50987000Y-72000000D01*
X50987000Y-72000000D01*
G37*
X50987000Y-72000000D02*
X50988024Y-72005058D01*
X50990935Y-72009319D01*
X50995275Y-72012111D01*
X51000000Y-72013000D01*
X68487000Y-72013000D01*
X68487000Y-73500000D01*
X68488024Y-73505058D01*
X68490935Y-73509319D01*
X68495275Y-73512111D01*
X68500000Y-73513000D01*
X70987000Y-73513000D01*
X70987000Y-77487000D01*
X67013000Y-77487000D01*
X67013000Y-73513000D01*
X67500000Y-73513000D01*
X67505058Y-73511976D01*
X67509319Y-73509065D01*
X67512111Y-73504725D01*
X67513000Y-73500000D01*
X67513000Y-73000000D01*
X67511976Y-72994942D01*
X67509065Y-72990681D01*
X67504725Y-72987889D01*
X67500000Y-72987000D01*
X50013000Y-72987000D01*
X50013000Y-16513000D01*
X50987000Y-16513000D01*
X50987000Y-72000000D01*
D40*
G36*
X70873000Y-6373000D02*
X70500000Y-6373000D01*
X70450590Y-6383006D01*
X70408965Y-6411447D01*
X70381685Y-6453841D01*
X70373000Y-6500000D01*
X70373000Y-10850000D01*
X70383006Y-10899410D01*
X70410197Y-10939803D01*
X75373000Y-15902606D01*
X75373000Y-63373000D01*
X74627000Y-63373000D01*
X74627000Y-16250000D01*
X74616994Y-16200590D01*
X74589803Y-16160197D01*
X69627000Y-11197394D01*
X69627000Y-6500000D01*
X69616994Y-6450590D01*
X69588553Y-6408965D01*
X69546159Y-6381685D01*
X69500000Y-6373000D01*
X67127000Y-6373000D01*
X67127000Y-2627000D01*
X70873000Y-2627000D01*
X70873000Y-6373000D01*
X70873000Y-6373000D01*
G37*
X70873000Y-6373000D02*
X70500000Y-6373000D01*
X70450590Y-6383006D01*
X70408965Y-6411447D01*
X70381685Y-6453841D01*
X70373000Y-6500000D01*
X70373000Y-10850000D01*
X70383006Y-10899410D01*
X70410197Y-10939803D01*
X75373000Y-15902606D01*
X75373000Y-63373000D01*
X74627000Y-63373000D01*
X74627000Y-16250000D01*
X74616994Y-16200590D01*
X74589803Y-16160197D01*
X69627000Y-11197394D01*
X69627000Y-6500000D01*
X69616994Y-6450590D01*
X69588553Y-6408965D01*
X69546159Y-6381685D01*
X69500000Y-6373000D01*
X67127000Y-6373000D01*
X67127000Y-2627000D01*
X70873000Y-2627000D01*
X70873000Y-6373000D01*
D39*
G36*
X81487000Y-7005384D02*
X81487000Y-9994616D01*
X80994616Y-10487000D01*
X79000000Y-10487000D01*
X78994942Y-10488024D01*
X78990808Y-10490808D01*
X78490808Y-10990808D01*
X78487955Y-10995108D01*
X78487000Y-11000000D01*
X78487000Y-69000000D01*
X78488024Y-69005058D01*
X78490808Y-69009192D01*
X78990808Y-69509192D01*
X78995108Y-69512045D01*
X79000000Y-69513000D01*
X80994616Y-69513000D01*
X81487000Y-70005384D01*
X81487000Y-72994616D01*
X80994616Y-73487000D01*
X78005384Y-73487000D01*
X77513000Y-72994616D01*
X77513000Y-7005384D01*
X78005384Y-6513000D01*
X80994616Y-6513000D01*
X81487000Y-7005384D01*
X81487000Y-7005384D01*
G37*
X81487000Y-7005384D02*
X81487000Y-9994616D01*
X80994616Y-10487000D01*
X79000000Y-10487000D01*
X78994942Y-10488024D01*
X78990808Y-10490808D01*
X78490808Y-10990808D01*
X78487955Y-10995108D01*
X78487000Y-11000000D01*
X78487000Y-69000000D01*
X78488024Y-69005058D01*
X78490808Y-69009192D01*
X78990808Y-69509192D01*
X78995108Y-69512045D01*
X79000000Y-69513000D01*
X80994616Y-69513000D01*
X81487000Y-70005384D01*
X81487000Y-72994616D01*
X80994616Y-73487000D01*
X78005384Y-73487000D01*
X77513000Y-72994616D01*
X77513000Y-7005384D01*
X78005384Y-6513000D01*
X80994616Y-6513000D01*
X81487000Y-7005384D01*
M02*
