G04 #@! TF.FileFunction,Legend,Bot*
%FSLAX46Y46*%
G04 Gerber Fmt 4.6, Leading zero omitted, Abs format (unit mm)*
G04 Created by KiCad (PCBNEW 4.0.6) date 04/10/17 19:15:21*
%MOMM*%
%LPD*%
G01*
G04 APERTURE LIST*
%ADD10C,0.100000*%
%ADD11C,0.150000*%
%ADD12C,0.500000*%
%ADD13C,0.101600*%
G04 APERTURE END LIST*
D10*
D11*
X5397000Y-63524000D02*
X5397000Y-60349000D01*
X5397000Y-60349000D02*
X7175000Y-60349000D01*
X7175000Y-60349000D02*
X7175000Y-63524000D01*
X825000Y-63524000D02*
X825000Y-60349000D01*
X825000Y-60349000D02*
X2603000Y-60349000D01*
X2603000Y-60349000D02*
X2603000Y-63524000D01*
X7429000Y-69620000D02*
X7429000Y-63524000D01*
X7429000Y-63524000D02*
X571000Y-63524000D01*
X571000Y-63524000D02*
X571000Y-71398000D01*
X571000Y-71525000D02*
X7429000Y-71525000D01*
X7429000Y-71398000D02*
X7429000Y-69620000D01*
X64575000Y-16075000D02*
X64430000Y-16075000D01*
X64575000Y-11925000D02*
X64430000Y-11925000D01*
X59425000Y-11925000D02*
X59570000Y-11925000D01*
X59425000Y-16075000D02*
X59570000Y-16075000D01*
X64575000Y-16075000D02*
X64575000Y-11925000D01*
X59425000Y-16075000D02*
X59425000Y-11925000D01*
X64430000Y-16075000D02*
X64430000Y-17475000D01*
X80976000Y-32897000D02*
X84151000Y-32897000D01*
X84151000Y-32897000D02*
X84151000Y-34675000D01*
X84151000Y-34675000D02*
X80976000Y-34675000D01*
X80976000Y-28325000D02*
X84151000Y-28325000D01*
X84151000Y-28325000D02*
X84151000Y-30103000D01*
X84151000Y-30103000D02*
X80976000Y-30103000D01*
X74880000Y-34929000D02*
X80976000Y-34929000D01*
X80976000Y-34929000D02*
X80976000Y-28071000D01*
X80976000Y-28071000D02*
X73102000Y-28071000D01*
X72975000Y-28071000D02*
X72975000Y-34929000D01*
X73102000Y-34929000D02*
X74880000Y-34929000D01*
X3299340Y-58899920D02*
X3599060Y-58651000D01*
X3599060Y-58651000D02*
X3748920Y-58549400D01*
X3748920Y-58549400D02*
X2900560Y-58549400D01*
X4800480Y-59250440D02*
X2999620Y-59250440D01*
X4800480Y-59250440D02*
X4800480Y-58600200D01*
X4800480Y-54749560D02*
X2999620Y-54749560D01*
X4800480Y-54749560D02*
X4800480Y-55399800D01*
D10*
X34000000Y-77500000D02*
X35000000Y-77500000D01*
X29400000Y-77500000D02*
X30600000Y-77500000D01*
X26000000Y-77500000D02*
X25000000Y-77500000D01*
X29400000Y-77500000D02*
X29400000Y-77300000D01*
X29400000Y-77300000D02*
X26000000Y-77300000D01*
X26000000Y-77300000D02*
X26000000Y-77500000D01*
X34000000Y-77300000D02*
X30600000Y-77300000D01*
X34000000Y-77500000D02*
X34000000Y-77300000D01*
X30600000Y-77500000D02*
X30600000Y-77300000D01*
X35000000Y-77500000D02*
X35000000Y-76800000D01*
X25000000Y-77500000D02*
X25000000Y-76800000D01*
X27400000Y-66100000D02*
X27400000Y-65500000D01*
X27400000Y-65500000D02*
X26600000Y-65500000D01*
X26600000Y-65500000D02*
X26600000Y-66100000D01*
X28600000Y-66100000D02*
X28600000Y-65500000D01*
X28600000Y-65500000D02*
X27800000Y-65500000D01*
X27800000Y-65500000D02*
X27800000Y-66100000D01*
X33800000Y-66100000D02*
X33800000Y-65500000D01*
X33800000Y-65500000D02*
X34600000Y-65500000D01*
X34600000Y-65500000D02*
X34600000Y-66100000D01*
X32600000Y-66100000D02*
X32600000Y-65500000D01*
X32600000Y-65500000D02*
X33400000Y-65500000D01*
X33400000Y-65500000D02*
X33400000Y-66100000D01*
X31400000Y-66100000D02*
X31400000Y-65500000D01*
X31400000Y-65500000D02*
X32200000Y-65500000D01*
X32200000Y-65500000D02*
X32200000Y-66100000D01*
X29800000Y-66100000D02*
X29800000Y-65500000D01*
X29800000Y-65500000D02*
X29000000Y-65500000D01*
X29000000Y-65500000D02*
X29000000Y-66100000D01*
X30200000Y-66100000D02*
X30200000Y-65500000D01*
X30200000Y-65500000D02*
X31000000Y-65500000D01*
X31000000Y-65500000D02*
X31000000Y-66100000D01*
X26200000Y-66100000D02*
X26200000Y-65500000D01*
X26200000Y-65500000D02*
X25400000Y-65500000D01*
X25400000Y-66100000D02*
X25400000Y-65500000D01*
X34700000Y-70400000D02*
X35000000Y-70400000D01*
X34700000Y-73800000D02*
X34700000Y-70400000D01*
X34700000Y-70400000D02*
X34400000Y-70100000D01*
X34400000Y-74100000D02*
X34700000Y-73800000D01*
X34700000Y-73800000D02*
X35000000Y-73800000D01*
X34700000Y-70100000D02*
X34400000Y-70100000D01*
X34400000Y-70100000D02*
X34400000Y-74100000D01*
X34400000Y-74100000D02*
X34700000Y-74100000D01*
X34700000Y-66400000D02*
X34700000Y-70100000D01*
X34700000Y-70100000D02*
X35000000Y-70400000D01*
X34700000Y-74100000D02*
X34700000Y-76500000D01*
X34700000Y-74100000D02*
X35000000Y-73800000D01*
X25300000Y-70400000D02*
X25000000Y-70400000D01*
X25300000Y-73800000D02*
X25300000Y-70400000D01*
X25300000Y-70400000D02*
X25600000Y-70100000D01*
X25600000Y-74100000D02*
X25300000Y-73800000D01*
X25300000Y-73800000D02*
X25000000Y-73800000D01*
X25300000Y-70100000D02*
X25600000Y-70100000D01*
X25600000Y-70100000D02*
X25600000Y-74100000D01*
X25600000Y-74100000D02*
X25300000Y-74100000D01*
X25300000Y-74100000D02*
X25300000Y-76500000D01*
X25300000Y-74100000D02*
X25000000Y-73800000D01*
X25300000Y-70100000D02*
X25300000Y-66400000D01*
X25300000Y-70100000D02*
X25000000Y-70400000D01*
X25000000Y-76800000D02*
X25000000Y-66100000D01*
X35000000Y-66100000D02*
X35000000Y-76800000D01*
X25300000Y-66400000D02*
X34700000Y-66400000D01*
X25300000Y-66400000D02*
X25000000Y-66100000D01*
X35000000Y-66100000D02*
X34700000Y-66400000D01*
X25000000Y-66100000D02*
X35000000Y-66100000D01*
X25000000Y-76800000D02*
X25300000Y-76500000D01*
X25300000Y-76500000D02*
X34700000Y-76500000D01*
X34700000Y-76500000D02*
X35000000Y-76800000D01*
X25000000Y-76800000D02*
X35000000Y-76800000D01*
X31200000Y-71500000D02*
G75*
G03X31200000Y-71500000I-1200000J0D01*
G01*
X35000000Y-61000000D02*
X36000000Y-61000000D01*
X30400000Y-61000000D02*
X31600000Y-61000000D01*
X27000000Y-61000000D02*
X26000000Y-61000000D01*
X30400000Y-61000000D02*
X30400000Y-60800000D01*
X30400000Y-60800000D02*
X27000000Y-60800000D01*
X27000000Y-60800000D02*
X27000000Y-61000000D01*
X35000000Y-60800000D02*
X31600000Y-60800000D01*
X35000000Y-61000000D02*
X35000000Y-60800000D01*
X31600000Y-61000000D02*
X31600000Y-60800000D01*
X36000000Y-61000000D02*
X36000000Y-60300000D01*
X26000000Y-61000000D02*
X26000000Y-60300000D01*
X28400000Y-49600000D02*
X28400000Y-49000000D01*
X28400000Y-49000000D02*
X27600000Y-49000000D01*
X27600000Y-49000000D02*
X27600000Y-49600000D01*
X29600000Y-49600000D02*
X29600000Y-49000000D01*
X29600000Y-49000000D02*
X28800000Y-49000000D01*
X28800000Y-49000000D02*
X28800000Y-49600000D01*
X34800000Y-49600000D02*
X34800000Y-49000000D01*
X34800000Y-49000000D02*
X35600000Y-49000000D01*
X35600000Y-49000000D02*
X35600000Y-49600000D01*
X33600000Y-49600000D02*
X33600000Y-49000000D01*
X33600000Y-49000000D02*
X34400000Y-49000000D01*
X34400000Y-49000000D02*
X34400000Y-49600000D01*
X32400000Y-49600000D02*
X32400000Y-49000000D01*
X32400000Y-49000000D02*
X33200000Y-49000000D01*
X33200000Y-49000000D02*
X33200000Y-49600000D01*
X30800000Y-49600000D02*
X30800000Y-49000000D01*
X30800000Y-49000000D02*
X30000000Y-49000000D01*
X30000000Y-49000000D02*
X30000000Y-49600000D01*
X31200000Y-49600000D02*
X31200000Y-49000000D01*
X31200000Y-49000000D02*
X32000000Y-49000000D01*
X32000000Y-49000000D02*
X32000000Y-49600000D01*
X27200000Y-49600000D02*
X27200000Y-49000000D01*
X27200000Y-49000000D02*
X26400000Y-49000000D01*
X26400000Y-49600000D02*
X26400000Y-49000000D01*
X35700000Y-53900000D02*
X36000000Y-53900000D01*
X35700000Y-57300000D02*
X35700000Y-53900000D01*
X35700000Y-53900000D02*
X35400000Y-53600000D01*
X35400000Y-57600000D02*
X35700000Y-57300000D01*
X35700000Y-57300000D02*
X36000000Y-57300000D01*
X35700000Y-53600000D02*
X35400000Y-53600000D01*
X35400000Y-53600000D02*
X35400000Y-57600000D01*
X35400000Y-57600000D02*
X35700000Y-57600000D01*
X35700000Y-49900000D02*
X35700000Y-53600000D01*
X35700000Y-53600000D02*
X36000000Y-53900000D01*
X35700000Y-57600000D02*
X35700000Y-60000000D01*
X35700000Y-57600000D02*
X36000000Y-57300000D01*
X26300000Y-53900000D02*
X26000000Y-53900000D01*
X26300000Y-57300000D02*
X26300000Y-53900000D01*
X26300000Y-53900000D02*
X26600000Y-53600000D01*
X26600000Y-57600000D02*
X26300000Y-57300000D01*
X26300000Y-57300000D02*
X26000000Y-57300000D01*
X26300000Y-53600000D02*
X26600000Y-53600000D01*
X26600000Y-53600000D02*
X26600000Y-57600000D01*
X26600000Y-57600000D02*
X26300000Y-57600000D01*
X26300000Y-57600000D02*
X26300000Y-60000000D01*
X26300000Y-57600000D02*
X26000000Y-57300000D01*
X26300000Y-53600000D02*
X26300000Y-49900000D01*
X26300000Y-53600000D02*
X26000000Y-53900000D01*
X26000000Y-60300000D02*
X26000000Y-49600000D01*
X36000000Y-49600000D02*
X36000000Y-60300000D01*
X26300000Y-49900000D02*
X35700000Y-49900000D01*
X26300000Y-49900000D02*
X26000000Y-49600000D01*
X36000000Y-49600000D02*
X35700000Y-49900000D01*
X26000000Y-49600000D02*
X36000000Y-49600000D01*
X26000000Y-60300000D02*
X26300000Y-60000000D01*
X26300000Y-60000000D02*
X35700000Y-60000000D01*
X35700000Y-60000000D02*
X36000000Y-60300000D01*
X26000000Y-60300000D02*
X36000000Y-60300000D01*
X32200000Y-55000000D02*
G75*
G03X32200000Y-55000000I-1200000J0D01*
G01*
X22000000Y-77500000D02*
X23000000Y-77500000D01*
X17400000Y-77500000D02*
X18600000Y-77500000D01*
X14000000Y-77500000D02*
X13000000Y-77500000D01*
X17400000Y-77500000D02*
X17400000Y-77300000D01*
X17400000Y-77300000D02*
X14000000Y-77300000D01*
X14000000Y-77300000D02*
X14000000Y-77500000D01*
X22000000Y-77300000D02*
X18600000Y-77300000D01*
X22000000Y-77500000D02*
X22000000Y-77300000D01*
X18600000Y-77500000D02*
X18600000Y-77300000D01*
X23000000Y-77500000D02*
X23000000Y-76800000D01*
X13000000Y-77500000D02*
X13000000Y-76800000D01*
X15400000Y-66100000D02*
X15400000Y-65500000D01*
X15400000Y-65500000D02*
X14600000Y-65500000D01*
X14600000Y-65500000D02*
X14600000Y-66100000D01*
X16600000Y-66100000D02*
X16600000Y-65500000D01*
X16600000Y-65500000D02*
X15800000Y-65500000D01*
X15800000Y-65500000D02*
X15800000Y-66100000D01*
X21800000Y-66100000D02*
X21800000Y-65500000D01*
X21800000Y-65500000D02*
X22600000Y-65500000D01*
X22600000Y-65500000D02*
X22600000Y-66100000D01*
X20600000Y-66100000D02*
X20600000Y-65500000D01*
X20600000Y-65500000D02*
X21400000Y-65500000D01*
X21400000Y-65500000D02*
X21400000Y-66100000D01*
X19400000Y-66100000D02*
X19400000Y-65500000D01*
X19400000Y-65500000D02*
X20200000Y-65500000D01*
X20200000Y-65500000D02*
X20200000Y-66100000D01*
X17800000Y-66100000D02*
X17800000Y-65500000D01*
X17800000Y-65500000D02*
X17000000Y-65500000D01*
X17000000Y-65500000D02*
X17000000Y-66100000D01*
X18200000Y-66100000D02*
X18200000Y-65500000D01*
X18200000Y-65500000D02*
X19000000Y-65500000D01*
X19000000Y-65500000D02*
X19000000Y-66100000D01*
X14200000Y-66100000D02*
X14200000Y-65500000D01*
X14200000Y-65500000D02*
X13400000Y-65500000D01*
X13400000Y-66100000D02*
X13400000Y-65500000D01*
X22700000Y-70400000D02*
X23000000Y-70400000D01*
X22700000Y-73800000D02*
X22700000Y-70400000D01*
X22700000Y-70400000D02*
X22400000Y-70100000D01*
X22400000Y-74100000D02*
X22700000Y-73800000D01*
X22700000Y-73800000D02*
X23000000Y-73800000D01*
X22700000Y-70100000D02*
X22400000Y-70100000D01*
X22400000Y-70100000D02*
X22400000Y-74100000D01*
X22400000Y-74100000D02*
X22700000Y-74100000D01*
X22700000Y-66400000D02*
X22700000Y-70100000D01*
X22700000Y-70100000D02*
X23000000Y-70400000D01*
X22700000Y-74100000D02*
X22700000Y-76500000D01*
X22700000Y-74100000D02*
X23000000Y-73800000D01*
X13300000Y-70400000D02*
X13000000Y-70400000D01*
X13300000Y-73800000D02*
X13300000Y-70400000D01*
X13300000Y-70400000D02*
X13600000Y-70100000D01*
X13600000Y-74100000D02*
X13300000Y-73800000D01*
X13300000Y-73800000D02*
X13000000Y-73800000D01*
X13300000Y-70100000D02*
X13600000Y-70100000D01*
X13600000Y-70100000D02*
X13600000Y-74100000D01*
X13600000Y-74100000D02*
X13300000Y-74100000D01*
X13300000Y-74100000D02*
X13300000Y-76500000D01*
X13300000Y-74100000D02*
X13000000Y-73800000D01*
X13300000Y-70100000D02*
X13300000Y-66400000D01*
X13300000Y-70100000D02*
X13000000Y-70400000D01*
X13000000Y-76800000D02*
X13000000Y-66100000D01*
X23000000Y-66100000D02*
X23000000Y-76800000D01*
X13300000Y-66400000D02*
X22700000Y-66400000D01*
X13300000Y-66400000D02*
X13000000Y-66100000D01*
X23000000Y-66100000D02*
X22700000Y-66400000D01*
X13000000Y-66100000D02*
X23000000Y-66100000D01*
X13000000Y-76800000D02*
X13300000Y-76500000D01*
X13300000Y-76500000D02*
X22700000Y-76500000D01*
X22700000Y-76500000D02*
X23000000Y-76800000D01*
X13000000Y-76800000D02*
X23000000Y-76800000D01*
X19200000Y-71500000D02*
G75*
G03X19200000Y-71500000I-1200000J0D01*
G01*
X23000000Y-61000000D02*
X24000000Y-61000000D01*
X18400000Y-61000000D02*
X19600000Y-61000000D01*
X15000000Y-61000000D02*
X14000000Y-61000000D01*
X18400000Y-61000000D02*
X18400000Y-60800000D01*
X18400000Y-60800000D02*
X15000000Y-60800000D01*
X15000000Y-60800000D02*
X15000000Y-61000000D01*
X23000000Y-60800000D02*
X19600000Y-60800000D01*
X23000000Y-61000000D02*
X23000000Y-60800000D01*
X19600000Y-61000000D02*
X19600000Y-60800000D01*
X24000000Y-61000000D02*
X24000000Y-60300000D01*
X14000000Y-61000000D02*
X14000000Y-60300000D01*
X16400000Y-49600000D02*
X16400000Y-49000000D01*
X16400000Y-49000000D02*
X15600000Y-49000000D01*
X15600000Y-49000000D02*
X15600000Y-49600000D01*
X17600000Y-49600000D02*
X17600000Y-49000000D01*
X17600000Y-49000000D02*
X16800000Y-49000000D01*
X16800000Y-49000000D02*
X16800000Y-49600000D01*
X22800000Y-49600000D02*
X22800000Y-49000000D01*
X22800000Y-49000000D02*
X23600000Y-49000000D01*
X23600000Y-49000000D02*
X23600000Y-49600000D01*
X21600000Y-49600000D02*
X21600000Y-49000000D01*
X21600000Y-49000000D02*
X22400000Y-49000000D01*
X22400000Y-49000000D02*
X22400000Y-49600000D01*
X20400000Y-49600000D02*
X20400000Y-49000000D01*
X20400000Y-49000000D02*
X21200000Y-49000000D01*
X21200000Y-49000000D02*
X21200000Y-49600000D01*
X18800000Y-49600000D02*
X18800000Y-49000000D01*
X18800000Y-49000000D02*
X18000000Y-49000000D01*
X18000000Y-49000000D02*
X18000000Y-49600000D01*
X19200000Y-49600000D02*
X19200000Y-49000000D01*
X19200000Y-49000000D02*
X20000000Y-49000000D01*
X20000000Y-49000000D02*
X20000000Y-49600000D01*
X15200000Y-49600000D02*
X15200000Y-49000000D01*
X15200000Y-49000000D02*
X14400000Y-49000000D01*
X14400000Y-49600000D02*
X14400000Y-49000000D01*
X23700000Y-53900000D02*
X24000000Y-53900000D01*
X23700000Y-57300000D02*
X23700000Y-53900000D01*
X23700000Y-53900000D02*
X23400000Y-53600000D01*
X23400000Y-57600000D02*
X23700000Y-57300000D01*
X23700000Y-57300000D02*
X24000000Y-57300000D01*
X23700000Y-53600000D02*
X23400000Y-53600000D01*
X23400000Y-53600000D02*
X23400000Y-57600000D01*
X23400000Y-57600000D02*
X23700000Y-57600000D01*
X23700000Y-49900000D02*
X23700000Y-53600000D01*
X23700000Y-53600000D02*
X24000000Y-53900000D01*
X23700000Y-57600000D02*
X23700000Y-60000000D01*
X23700000Y-57600000D02*
X24000000Y-57300000D01*
X14300000Y-53900000D02*
X14000000Y-53900000D01*
X14300000Y-57300000D02*
X14300000Y-53900000D01*
X14300000Y-53900000D02*
X14600000Y-53600000D01*
X14600000Y-57600000D02*
X14300000Y-57300000D01*
X14300000Y-57300000D02*
X14000000Y-57300000D01*
X14300000Y-53600000D02*
X14600000Y-53600000D01*
X14600000Y-53600000D02*
X14600000Y-57600000D01*
X14600000Y-57600000D02*
X14300000Y-57600000D01*
X14300000Y-57600000D02*
X14300000Y-60000000D01*
X14300000Y-57600000D02*
X14000000Y-57300000D01*
X14300000Y-53600000D02*
X14300000Y-49900000D01*
X14300000Y-53600000D02*
X14000000Y-53900000D01*
X14000000Y-60300000D02*
X14000000Y-49600000D01*
X24000000Y-49600000D02*
X24000000Y-60300000D01*
X14300000Y-49900000D02*
X23700000Y-49900000D01*
X14300000Y-49900000D02*
X14000000Y-49600000D01*
X24000000Y-49600000D02*
X23700000Y-49900000D01*
X14000000Y-49600000D02*
X24000000Y-49600000D01*
X14000000Y-60300000D02*
X14300000Y-60000000D01*
X14300000Y-60000000D02*
X23700000Y-60000000D01*
X23700000Y-60000000D02*
X24000000Y-60300000D01*
X14000000Y-60300000D02*
X24000000Y-60300000D01*
X20200000Y-55000000D02*
G75*
G03X20200000Y-55000000I-1200000J0D01*
G01*
X46000000Y-77500000D02*
X47000000Y-77500000D01*
X41400000Y-77500000D02*
X42600000Y-77500000D01*
X38000000Y-77500000D02*
X37000000Y-77500000D01*
X41400000Y-77500000D02*
X41400000Y-77300000D01*
X41400000Y-77300000D02*
X38000000Y-77300000D01*
X38000000Y-77300000D02*
X38000000Y-77500000D01*
X46000000Y-77300000D02*
X42600000Y-77300000D01*
X46000000Y-77500000D02*
X46000000Y-77300000D01*
X42600000Y-77500000D02*
X42600000Y-77300000D01*
X47000000Y-77500000D02*
X47000000Y-76800000D01*
X37000000Y-77500000D02*
X37000000Y-76800000D01*
X39400000Y-66100000D02*
X39400000Y-65500000D01*
X39400000Y-65500000D02*
X38600000Y-65500000D01*
X38600000Y-65500000D02*
X38600000Y-66100000D01*
X40600000Y-66100000D02*
X40600000Y-65500000D01*
X40600000Y-65500000D02*
X39800000Y-65500000D01*
X39800000Y-65500000D02*
X39800000Y-66100000D01*
X45800000Y-66100000D02*
X45800000Y-65500000D01*
X45800000Y-65500000D02*
X46600000Y-65500000D01*
X46600000Y-65500000D02*
X46600000Y-66100000D01*
X44600000Y-66100000D02*
X44600000Y-65500000D01*
X44600000Y-65500000D02*
X45400000Y-65500000D01*
X45400000Y-65500000D02*
X45400000Y-66100000D01*
X43400000Y-66100000D02*
X43400000Y-65500000D01*
X43400000Y-65500000D02*
X44200000Y-65500000D01*
X44200000Y-65500000D02*
X44200000Y-66100000D01*
X41800000Y-66100000D02*
X41800000Y-65500000D01*
X41800000Y-65500000D02*
X41000000Y-65500000D01*
X41000000Y-65500000D02*
X41000000Y-66100000D01*
X42200000Y-66100000D02*
X42200000Y-65500000D01*
X42200000Y-65500000D02*
X43000000Y-65500000D01*
X43000000Y-65500000D02*
X43000000Y-66100000D01*
X38200000Y-66100000D02*
X38200000Y-65500000D01*
X38200000Y-65500000D02*
X37400000Y-65500000D01*
X37400000Y-66100000D02*
X37400000Y-65500000D01*
X46700000Y-70400000D02*
X47000000Y-70400000D01*
X46700000Y-73800000D02*
X46700000Y-70400000D01*
X46700000Y-70400000D02*
X46400000Y-70100000D01*
X46400000Y-74100000D02*
X46700000Y-73800000D01*
X46700000Y-73800000D02*
X47000000Y-73800000D01*
X46700000Y-70100000D02*
X46400000Y-70100000D01*
X46400000Y-70100000D02*
X46400000Y-74100000D01*
X46400000Y-74100000D02*
X46700000Y-74100000D01*
X46700000Y-66400000D02*
X46700000Y-70100000D01*
X46700000Y-70100000D02*
X47000000Y-70400000D01*
X46700000Y-74100000D02*
X46700000Y-76500000D01*
X46700000Y-74100000D02*
X47000000Y-73800000D01*
X37300000Y-70400000D02*
X37000000Y-70400000D01*
X37300000Y-73800000D02*
X37300000Y-70400000D01*
X37300000Y-70400000D02*
X37600000Y-70100000D01*
X37600000Y-74100000D02*
X37300000Y-73800000D01*
X37300000Y-73800000D02*
X37000000Y-73800000D01*
X37300000Y-70100000D02*
X37600000Y-70100000D01*
X37600000Y-70100000D02*
X37600000Y-74100000D01*
X37600000Y-74100000D02*
X37300000Y-74100000D01*
X37300000Y-74100000D02*
X37300000Y-76500000D01*
X37300000Y-74100000D02*
X37000000Y-73800000D01*
X37300000Y-70100000D02*
X37300000Y-66400000D01*
X37300000Y-70100000D02*
X37000000Y-70400000D01*
X37000000Y-76800000D02*
X37000000Y-66100000D01*
X47000000Y-66100000D02*
X47000000Y-76800000D01*
X37300000Y-66400000D02*
X46700000Y-66400000D01*
X37300000Y-66400000D02*
X37000000Y-66100000D01*
X47000000Y-66100000D02*
X46700000Y-66400000D01*
X37000000Y-66100000D02*
X47000000Y-66100000D01*
X37000000Y-76800000D02*
X37300000Y-76500000D01*
X37300000Y-76500000D02*
X46700000Y-76500000D01*
X46700000Y-76500000D02*
X47000000Y-76800000D01*
X37000000Y-76800000D02*
X47000000Y-76800000D01*
X43200000Y-71500000D02*
G75*
G03X43200000Y-71500000I-1200000J0D01*
G01*
X47000000Y-61000000D02*
X48000000Y-61000000D01*
X42400000Y-61000000D02*
X43600000Y-61000000D01*
X39000000Y-61000000D02*
X38000000Y-61000000D01*
X42400000Y-61000000D02*
X42400000Y-60800000D01*
X42400000Y-60800000D02*
X39000000Y-60800000D01*
X39000000Y-60800000D02*
X39000000Y-61000000D01*
X47000000Y-60800000D02*
X43600000Y-60800000D01*
X47000000Y-61000000D02*
X47000000Y-60800000D01*
X43600000Y-61000000D02*
X43600000Y-60800000D01*
X48000000Y-61000000D02*
X48000000Y-60300000D01*
X38000000Y-61000000D02*
X38000000Y-60300000D01*
X40400000Y-49600000D02*
X40400000Y-49000000D01*
X40400000Y-49000000D02*
X39600000Y-49000000D01*
X39600000Y-49000000D02*
X39600000Y-49600000D01*
X41600000Y-49600000D02*
X41600000Y-49000000D01*
X41600000Y-49000000D02*
X40800000Y-49000000D01*
X40800000Y-49000000D02*
X40800000Y-49600000D01*
X46800000Y-49600000D02*
X46800000Y-49000000D01*
X46800000Y-49000000D02*
X47600000Y-49000000D01*
X47600000Y-49000000D02*
X47600000Y-49600000D01*
X45600000Y-49600000D02*
X45600000Y-49000000D01*
X45600000Y-49000000D02*
X46400000Y-49000000D01*
X46400000Y-49000000D02*
X46400000Y-49600000D01*
X44400000Y-49600000D02*
X44400000Y-49000000D01*
X44400000Y-49000000D02*
X45200000Y-49000000D01*
X45200000Y-49000000D02*
X45200000Y-49600000D01*
X42800000Y-49600000D02*
X42800000Y-49000000D01*
X42800000Y-49000000D02*
X42000000Y-49000000D01*
X42000000Y-49000000D02*
X42000000Y-49600000D01*
X43200000Y-49600000D02*
X43200000Y-49000000D01*
X43200000Y-49000000D02*
X44000000Y-49000000D01*
X44000000Y-49000000D02*
X44000000Y-49600000D01*
X39200000Y-49600000D02*
X39200000Y-49000000D01*
X39200000Y-49000000D02*
X38400000Y-49000000D01*
X38400000Y-49600000D02*
X38400000Y-49000000D01*
X47700000Y-53900000D02*
X48000000Y-53900000D01*
X47700000Y-57300000D02*
X47700000Y-53900000D01*
X47700000Y-53900000D02*
X47400000Y-53600000D01*
X47400000Y-57600000D02*
X47700000Y-57300000D01*
X47700000Y-57300000D02*
X48000000Y-57300000D01*
X47700000Y-53600000D02*
X47400000Y-53600000D01*
X47400000Y-53600000D02*
X47400000Y-57600000D01*
X47400000Y-57600000D02*
X47700000Y-57600000D01*
X47700000Y-49900000D02*
X47700000Y-53600000D01*
X47700000Y-53600000D02*
X48000000Y-53900000D01*
X47700000Y-57600000D02*
X47700000Y-60000000D01*
X47700000Y-57600000D02*
X48000000Y-57300000D01*
X38300000Y-53900000D02*
X38000000Y-53900000D01*
X38300000Y-57300000D02*
X38300000Y-53900000D01*
X38300000Y-53900000D02*
X38600000Y-53600000D01*
X38600000Y-57600000D02*
X38300000Y-57300000D01*
X38300000Y-57300000D02*
X38000000Y-57300000D01*
X38300000Y-53600000D02*
X38600000Y-53600000D01*
X38600000Y-53600000D02*
X38600000Y-57600000D01*
X38600000Y-57600000D02*
X38300000Y-57600000D01*
X38300000Y-57600000D02*
X38300000Y-60000000D01*
X38300000Y-57600000D02*
X38000000Y-57300000D01*
X38300000Y-53600000D02*
X38300000Y-49900000D01*
X38300000Y-53600000D02*
X38000000Y-53900000D01*
X38000000Y-60300000D02*
X38000000Y-49600000D01*
X48000000Y-49600000D02*
X48000000Y-60300000D01*
X38300000Y-49900000D02*
X47700000Y-49900000D01*
X38300000Y-49900000D02*
X38000000Y-49600000D01*
X48000000Y-49600000D02*
X47700000Y-49900000D01*
X38000000Y-49600000D02*
X48000000Y-49600000D01*
X38000000Y-60300000D02*
X38300000Y-60000000D01*
X38300000Y-60000000D02*
X47700000Y-60000000D01*
X47700000Y-60000000D02*
X48000000Y-60300000D01*
X38000000Y-60300000D02*
X48000000Y-60300000D01*
X44200000Y-55000000D02*
G75*
G03X44200000Y-55000000I-1200000J0D01*
G01*
D11*
X13449200Y-13999820D02*
X14150240Y-13999820D01*
X14150240Y-13999820D02*
X14150240Y-13750900D01*
X14150240Y-11200840D02*
X14150240Y-11000180D01*
X14150240Y-11000180D02*
X13449200Y-11000180D01*
X20949200Y-13999820D02*
X21650240Y-13999820D01*
X21650240Y-13999820D02*
X21650240Y-13750900D01*
X21650240Y-11200840D02*
X21650240Y-11000180D01*
X21650240Y-11000180D02*
X20949200Y-11000180D01*
X93249820Y-34300800D02*
X93249820Y-33599760D01*
X93249820Y-33599760D02*
X93000900Y-33599760D01*
X90450840Y-33599760D02*
X90250180Y-33599760D01*
X90250180Y-33599760D02*
X90250180Y-34300800D01*
X86000180Y-35449200D02*
X86000180Y-36150240D01*
X86000180Y-36150240D02*
X86249100Y-36150240D01*
X88799160Y-36150240D02*
X88999820Y-36150240D01*
X88999820Y-36150240D02*
X88999820Y-35449200D01*
D12*
X60300000Y-35000000D02*
X60300000Y-31900000D01*
X53700000Y-35000000D02*
X53700000Y-31900000D01*
X53700000Y-31900000D02*
X60300000Y-31900000D01*
X53700000Y-35000000D02*
X60300000Y-35000000D01*
D13*
X35236048Y-74517071D02*
X35236048Y-74631976D01*
X35293500Y-74746881D01*
X35350952Y-74804333D01*
X35465857Y-74861786D01*
X35695667Y-74919238D01*
X35982929Y-74919238D01*
X36212738Y-74861786D01*
X36327643Y-74804333D01*
X36385095Y-74746881D01*
X36442548Y-74631976D01*
X36442548Y-74517071D01*
X36385095Y-74402167D01*
X36327643Y-74344714D01*
X36212738Y-74287262D01*
X35982929Y-74229810D01*
X35695667Y-74229810D01*
X35465857Y-74287262D01*
X35350952Y-74344714D01*
X35293500Y-74402167D01*
X35236048Y-74517071D01*
X36327643Y-75436310D02*
X36385095Y-75493762D01*
X36442548Y-75436310D01*
X36385095Y-75378858D01*
X36327643Y-75436310D01*
X36442548Y-75436310D01*
X36442548Y-76642810D02*
X36442548Y-75953382D01*
X36442548Y-76298096D02*
X35236048Y-76298096D01*
X35408405Y-76183191D01*
X35523310Y-76068286D01*
X35580762Y-75953382D01*
X35638214Y-77676953D02*
X36442548Y-77676953D01*
X35638214Y-77159882D02*
X36270190Y-77159882D01*
X36385095Y-77217334D01*
X36442548Y-77332239D01*
X36442548Y-77504596D01*
X36385095Y-77619501D01*
X36327643Y-77676953D01*
X26310571Y-63810571D02*
X26712738Y-63810571D01*
X26712738Y-64442548D02*
X26712738Y-63236048D01*
X26138214Y-63236048D01*
X25678595Y-64442548D02*
X25678595Y-63236048D01*
X24529547Y-64442548D02*
X25104071Y-64442548D01*
X25104071Y-63236048D01*
X24299738Y-63236048D02*
X23610310Y-63236048D01*
X23955024Y-64442548D02*
X23955024Y-63236048D01*
X23208143Y-63810571D02*
X22805976Y-63810571D01*
X22633619Y-64442548D02*
X23208143Y-64442548D01*
X23208143Y-63236048D01*
X22633619Y-63236048D01*
X21427120Y-64442548D02*
X21829286Y-63868024D01*
X22116548Y-64442548D02*
X22116548Y-63236048D01*
X21656929Y-63236048D01*
X21542024Y-63293500D01*
X21484572Y-63350952D01*
X21427120Y-63465857D01*
X21427120Y-63638214D01*
X21484572Y-63753119D01*
X21542024Y-63810571D01*
X21656929Y-63868024D01*
X22116548Y-63868024D01*
X14310571Y-63810571D02*
X14712738Y-63810571D01*
X14712738Y-64442548D02*
X14712738Y-63236048D01*
X14138214Y-63236048D01*
X13678595Y-64442548D02*
X13678595Y-63236048D01*
X12529547Y-64442548D02*
X13104071Y-64442548D01*
X13104071Y-63236048D01*
X12299738Y-63236048D02*
X11610310Y-63236048D01*
X11955024Y-64442548D02*
X11955024Y-63236048D01*
X11208143Y-63810571D02*
X10805976Y-63810571D01*
X10633619Y-64442548D02*
X11208143Y-64442548D01*
X11208143Y-63236048D01*
X10633619Y-63236048D01*
X9427120Y-64442548D02*
X9829286Y-63868024D01*
X10116548Y-64442548D02*
X10116548Y-63236048D01*
X9656929Y-63236048D01*
X9542024Y-63293500D01*
X9484572Y-63350952D01*
X9427120Y-63465857D01*
X9427120Y-63638214D01*
X9484572Y-63753119D01*
X9542024Y-63810571D01*
X9656929Y-63868024D01*
X10116548Y-63868024D01*
X38310571Y-63810571D02*
X38712738Y-63810571D01*
X38712738Y-64442548D02*
X38712738Y-63236048D01*
X38138214Y-63236048D01*
X37678595Y-64442548D02*
X37678595Y-63236048D01*
X36529547Y-64442548D02*
X37104071Y-64442548D01*
X37104071Y-63236048D01*
X36299738Y-63236048D02*
X35610310Y-63236048D01*
X35955024Y-64442548D02*
X35955024Y-63236048D01*
X35208143Y-63810571D02*
X34805976Y-63810571D01*
X34633619Y-64442548D02*
X35208143Y-64442548D01*
X35208143Y-63236048D01*
X34633619Y-63236048D01*
X33427120Y-64442548D02*
X33829286Y-63868024D01*
X34116548Y-64442548D02*
X34116548Y-63236048D01*
X33656929Y-63236048D01*
X33542024Y-63293500D01*
X33484572Y-63350952D01*
X33427120Y-63465857D01*
X33427120Y-63638214D01*
X33484572Y-63753119D01*
X33542024Y-63810571D01*
X33656929Y-63868024D01*
X34116548Y-63868024D01*
X8580762Y-13442548D02*
X9270190Y-13442548D01*
X8925476Y-13442548D02*
X8925476Y-12236048D01*
X9040381Y-12408405D01*
X9155286Y-12523310D01*
X9270190Y-12580762D01*
X8063690Y-13442548D02*
X8063690Y-12236048D01*
X7948785Y-12982929D02*
X7604071Y-13442548D01*
X7604071Y-12638214D02*
X8063690Y-13097833D01*
X8580762Y-16442548D02*
X9270190Y-16442548D01*
X8925476Y-16442548D02*
X8925476Y-15236048D01*
X9040381Y-15408405D01*
X9155286Y-15523310D01*
X9270190Y-15580762D01*
X8063690Y-16442548D02*
X8063690Y-15236048D01*
X7948785Y-15982929D02*
X7604071Y-16442548D01*
X7604071Y-15638214D02*
X8063690Y-16097833D01*
X7580762Y-25942548D02*
X8270190Y-25942548D01*
X7925476Y-25942548D02*
X7925476Y-24736048D01*
X8040381Y-24908405D01*
X8155286Y-25023310D01*
X8270190Y-25080762D01*
X6833881Y-24736048D02*
X6718976Y-24736048D01*
X6604071Y-24793500D01*
X6546619Y-24850952D01*
X6489166Y-24965857D01*
X6431714Y-25195667D01*
X6431714Y-25482929D01*
X6489166Y-25712738D01*
X6546619Y-25827643D01*
X6604071Y-25885095D01*
X6718976Y-25942548D01*
X6833881Y-25942548D01*
X6948785Y-25885095D01*
X7006238Y-25827643D01*
X7063690Y-25712738D01*
X7121142Y-25482929D01*
X7121142Y-25195667D01*
X7063690Y-24965857D01*
X7006238Y-24850952D01*
X6948785Y-24793500D01*
X6833881Y-24736048D01*
X5914642Y-25942548D02*
X5914642Y-24736048D01*
X5799737Y-25482929D02*
X5455023Y-25942548D01*
X5455023Y-25138214D02*
X5914642Y-25597833D01*
X7580762Y-27442548D02*
X8270190Y-27442548D01*
X7925476Y-27442548D02*
X7925476Y-26236048D01*
X8040381Y-26408405D01*
X8155286Y-26523310D01*
X8270190Y-26580762D01*
X6833881Y-26236048D02*
X6718976Y-26236048D01*
X6604071Y-26293500D01*
X6546619Y-26350952D01*
X6489166Y-26465857D01*
X6431714Y-26695667D01*
X6431714Y-26982929D01*
X6489166Y-27212738D01*
X6546619Y-27327643D01*
X6604071Y-27385095D01*
X6718976Y-27442548D01*
X6833881Y-27442548D01*
X6948785Y-27385095D01*
X7006238Y-27327643D01*
X7063690Y-27212738D01*
X7121142Y-26982929D01*
X7121142Y-26695667D01*
X7063690Y-26465857D01*
X7006238Y-26350952D01*
X6948785Y-26293500D01*
X6833881Y-26236048D01*
X5914642Y-27442548D02*
X5914642Y-26236048D01*
X5799737Y-26982929D02*
X5455023Y-27442548D01*
X5455023Y-26638214D02*
X5914642Y-27097833D01*
X7580762Y-28942548D02*
X8270190Y-28942548D01*
X7925476Y-28942548D02*
X7925476Y-27736048D01*
X8040381Y-27908405D01*
X8155286Y-28023310D01*
X8270190Y-28080762D01*
X6833881Y-27736048D02*
X6718976Y-27736048D01*
X6604071Y-27793500D01*
X6546619Y-27850952D01*
X6489166Y-27965857D01*
X6431714Y-28195667D01*
X6431714Y-28482929D01*
X6489166Y-28712738D01*
X6546619Y-28827643D01*
X6604071Y-28885095D01*
X6718976Y-28942548D01*
X6833881Y-28942548D01*
X6948785Y-28885095D01*
X7006238Y-28827643D01*
X7063690Y-28712738D01*
X7121142Y-28482929D01*
X7121142Y-28195667D01*
X7063690Y-27965857D01*
X7006238Y-27850952D01*
X6948785Y-27793500D01*
X6833881Y-27736048D01*
X5914642Y-28942548D02*
X5914642Y-27736048D01*
X5799737Y-28482929D02*
X5455023Y-28942548D01*
X5455023Y-28138214D02*
X5914642Y-28597833D01*
X38080762Y-26442548D02*
X38770190Y-26442548D01*
X38425476Y-26442548D02*
X38425476Y-25236048D01*
X38540381Y-25408405D01*
X38655286Y-25523310D01*
X38770190Y-25580762D01*
X37333881Y-25236048D02*
X37218976Y-25236048D01*
X37104071Y-25293500D01*
X37046619Y-25350952D01*
X36989166Y-25465857D01*
X36931714Y-25695667D01*
X36931714Y-25982929D01*
X36989166Y-26212738D01*
X37046619Y-26327643D01*
X37104071Y-26385095D01*
X37218976Y-26442548D01*
X37333881Y-26442548D01*
X37448785Y-26385095D01*
X37506238Y-26327643D01*
X37563690Y-26212738D01*
X37621142Y-25982929D01*
X37621142Y-25695667D01*
X37563690Y-25465857D01*
X37506238Y-25350952D01*
X37448785Y-25293500D01*
X37333881Y-25236048D01*
X36414642Y-26442548D02*
X36414642Y-25236048D01*
X36299737Y-25982929D02*
X35955023Y-26442548D01*
X35955023Y-25638214D02*
X36414642Y-26097833D01*
X26942548Y-21919238D02*
X26942548Y-21229810D01*
X26942548Y-21574524D02*
X25736048Y-21574524D01*
X25908405Y-21459619D01*
X26023310Y-21344714D01*
X26080762Y-21229810D01*
X25736048Y-22666119D02*
X25736048Y-22781024D01*
X25793500Y-22895929D01*
X25850952Y-22953381D01*
X25965857Y-23010834D01*
X26195667Y-23068286D01*
X26482929Y-23068286D01*
X26712738Y-23010834D01*
X26827643Y-22953381D01*
X26885095Y-22895929D01*
X26942548Y-22781024D01*
X26942548Y-22666119D01*
X26885095Y-22551215D01*
X26827643Y-22493762D01*
X26712738Y-22436310D01*
X26482929Y-22378858D01*
X26195667Y-22378858D01*
X25965857Y-22436310D01*
X25850952Y-22493762D01*
X25793500Y-22551215D01*
X25736048Y-22666119D01*
X26942548Y-23585358D02*
X25736048Y-23585358D01*
X26482929Y-23700263D02*
X26942548Y-24044977D01*
X26138214Y-24044977D02*
X26597833Y-23585358D01*
X23236048Y-74517071D02*
X23236048Y-74631976D01*
X23293500Y-74746881D01*
X23350952Y-74804333D01*
X23465857Y-74861786D01*
X23695667Y-74919238D01*
X23982929Y-74919238D01*
X24212738Y-74861786D01*
X24327643Y-74804333D01*
X24385095Y-74746881D01*
X24442548Y-74631976D01*
X24442548Y-74517071D01*
X24385095Y-74402167D01*
X24327643Y-74344714D01*
X24212738Y-74287262D01*
X23982929Y-74229810D01*
X23695667Y-74229810D01*
X23465857Y-74287262D01*
X23350952Y-74344714D01*
X23293500Y-74402167D01*
X23236048Y-74517071D01*
X24327643Y-75436310D02*
X24385095Y-75493762D01*
X24442548Y-75436310D01*
X24385095Y-75378858D01*
X24327643Y-75436310D01*
X24442548Y-75436310D01*
X24442548Y-76642810D02*
X24442548Y-75953382D01*
X24442548Y-76298096D02*
X23236048Y-76298096D01*
X23408405Y-76183191D01*
X23523310Y-76068286D01*
X23580762Y-75953382D01*
X23638214Y-77676953D02*
X24442548Y-77676953D01*
X23638214Y-77159882D02*
X24270190Y-77159882D01*
X24385095Y-77217334D01*
X24442548Y-77332239D01*
X24442548Y-77504596D01*
X24385095Y-77619501D01*
X24327643Y-77676953D01*
X11236048Y-74517071D02*
X11236048Y-74631976D01*
X11293500Y-74746881D01*
X11350952Y-74804333D01*
X11465857Y-74861786D01*
X11695667Y-74919238D01*
X11982929Y-74919238D01*
X12212738Y-74861786D01*
X12327643Y-74804333D01*
X12385095Y-74746881D01*
X12442548Y-74631976D01*
X12442548Y-74517071D01*
X12385095Y-74402167D01*
X12327643Y-74344714D01*
X12212738Y-74287262D01*
X11982929Y-74229810D01*
X11695667Y-74229810D01*
X11465857Y-74287262D01*
X11350952Y-74344714D01*
X11293500Y-74402167D01*
X11236048Y-74517071D01*
X12327643Y-75436310D02*
X12385095Y-75493762D01*
X12442548Y-75436310D01*
X12385095Y-75378858D01*
X12327643Y-75436310D01*
X12442548Y-75436310D01*
X12442548Y-76642810D02*
X12442548Y-75953382D01*
X12442548Y-76298096D02*
X11236048Y-76298096D01*
X11408405Y-76183191D01*
X11523310Y-76068286D01*
X11580762Y-75953382D01*
X11638214Y-77676953D02*
X12442548Y-77676953D01*
X11638214Y-77159882D02*
X12270190Y-77159882D01*
X12385095Y-77217334D01*
X12442548Y-77332239D01*
X12442548Y-77504596D01*
X12385095Y-77619501D01*
X12327643Y-77676953D01*
X22080762Y-69442548D02*
X22770190Y-69442548D01*
X22425476Y-69442548D02*
X22425476Y-68236048D01*
X22540381Y-68408405D01*
X22655286Y-68523310D01*
X22770190Y-68580762D01*
X21333881Y-68236048D02*
X21218976Y-68236048D01*
X21104071Y-68293500D01*
X21046619Y-68350952D01*
X20989166Y-68465857D01*
X20931714Y-68695667D01*
X20931714Y-68982929D01*
X20989166Y-69212738D01*
X21046619Y-69327643D01*
X21104071Y-69385095D01*
X21218976Y-69442548D01*
X21333881Y-69442548D01*
X21448785Y-69385095D01*
X21506238Y-69327643D01*
X21563690Y-69212738D01*
X21621142Y-68982929D01*
X21621142Y-68695667D01*
X21563690Y-68465857D01*
X21506238Y-68350952D01*
X21448785Y-68293500D01*
X21333881Y-68236048D01*
X20184833Y-68236048D02*
X20069928Y-68236048D01*
X19955023Y-68293500D01*
X19897571Y-68350952D01*
X19840118Y-68465857D01*
X19782666Y-68695667D01*
X19782666Y-68982929D01*
X19840118Y-69212738D01*
X19897571Y-69327643D01*
X19955023Y-69385095D01*
X20069928Y-69442548D01*
X20184833Y-69442548D01*
X20299737Y-69385095D01*
X20357190Y-69327643D01*
X20414642Y-69212738D01*
X20472094Y-68982929D01*
X20472094Y-68695667D01*
X20414642Y-68465857D01*
X20357190Y-68350952D01*
X20299737Y-68293500D01*
X20184833Y-68236048D01*
X11442548Y-70419238D02*
X11442548Y-69729810D01*
X11442548Y-70074524D02*
X10236048Y-70074524D01*
X10408405Y-69959619D01*
X10523310Y-69844714D01*
X10580762Y-69729810D01*
X10236048Y-71166119D02*
X10236048Y-71281024D01*
X10293500Y-71395929D01*
X10350952Y-71453381D01*
X10465857Y-71510834D01*
X10695667Y-71568286D01*
X10982929Y-71568286D01*
X11212738Y-71510834D01*
X11327643Y-71453381D01*
X11385095Y-71395929D01*
X11442548Y-71281024D01*
X11442548Y-71166119D01*
X11385095Y-71051215D01*
X11327643Y-70993762D01*
X11212738Y-70936310D01*
X10982929Y-70878858D01*
X10695667Y-70878858D01*
X10465857Y-70936310D01*
X10350952Y-70993762D01*
X10293500Y-71051215D01*
X10236048Y-71166119D01*
X10236048Y-72315167D02*
X10236048Y-72430072D01*
X10293500Y-72544977D01*
X10350952Y-72602429D01*
X10465857Y-72659882D01*
X10695667Y-72717334D01*
X10982929Y-72717334D01*
X11212738Y-72659882D01*
X11327643Y-72602429D01*
X11385095Y-72544977D01*
X11442548Y-72430072D01*
X11442548Y-72315167D01*
X11385095Y-72200263D01*
X11327643Y-72142810D01*
X11212738Y-72085358D01*
X10982929Y-72027906D01*
X10695667Y-72027906D01*
X10465857Y-72085358D01*
X10350952Y-72142810D01*
X10293500Y-72200263D01*
X10236048Y-72315167D01*
X34580762Y-69442548D02*
X35270190Y-69442548D01*
X34925476Y-69442548D02*
X34925476Y-68236048D01*
X35040381Y-68408405D01*
X35155286Y-68523310D01*
X35270190Y-68580762D01*
X33833881Y-68236048D02*
X33718976Y-68236048D01*
X33604071Y-68293500D01*
X33546619Y-68350952D01*
X33489166Y-68465857D01*
X33431714Y-68695667D01*
X33431714Y-68982929D01*
X33489166Y-69212738D01*
X33546619Y-69327643D01*
X33604071Y-69385095D01*
X33718976Y-69442548D01*
X33833881Y-69442548D01*
X33948785Y-69385095D01*
X34006238Y-69327643D01*
X34063690Y-69212738D01*
X34121142Y-68982929D01*
X34121142Y-68695667D01*
X34063690Y-68465857D01*
X34006238Y-68350952D01*
X33948785Y-68293500D01*
X33833881Y-68236048D01*
X32684833Y-68236048D02*
X32569928Y-68236048D01*
X32455023Y-68293500D01*
X32397571Y-68350952D01*
X32340118Y-68465857D01*
X32282666Y-68695667D01*
X32282666Y-68982929D01*
X32340118Y-69212738D01*
X32397571Y-69327643D01*
X32455023Y-69385095D01*
X32569928Y-69442548D01*
X32684833Y-69442548D01*
X32799737Y-69385095D01*
X32857190Y-69327643D01*
X32914642Y-69212738D01*
X32972094Y-68982929D01*
X32972094Y-68695667D01*
X32914642Y-68465857D01*
X32857190Y-68350952D01*
X32799737Y-68293500D01*
X32684833Y-68236048D01*
X9942548Y-60919238D02*
X9942548Y-60229810D01*
X9942548Y-60574524D02*
X8736048Y-60574524D01*
X8908405Y-60459619D01*
X9023310Y-60344714D01*
X9080762Y-60229810D01*
X8736048Y-61666119D02*
X8736048Y-61781024D01*
X8793500Y-61895929D01*
X8850952Y-61953381D01*
X8965857Y-62010834D01*
X9195667Y-62068286D01*
X9482929Y-62068286D01*
X9712738Y-62010834D01*
X9827643Y-61953381D01*
X9885095Y-61895929D01*
X9942548Y-61781024D01*
X9942548Y-61666119D01*
X9885095Y-61551215D01*
X9827643Y-61493762D01*
X9712738Y-61436310D01*
X9482929Y-61378858D01*
X9195667Y-61378858D01*
X8965857Y-61436310D01*
X8850952Y-61493762D01*
X8793500Y-61551215D01*
X8736048Y-61666119D01*
X9942548Y-62585358D02*
X8736048Y-62585358D01*
X9482929Y-62700263D02*
X9942548Y-63044977D01*
X9138214Y-63044977D02*
X9597833Y-62585358D01*
X11942548Y-60919238D02*
X11942548Y-60229810D01*
X11942548Y-60574524D02*
X10736048Y-60574524D01*
X10908405Y-60459619D01*
X11023310Y-60344714D01*
X11080762Y-60229810D01*
X10736048Y-61666119D02*
X10736048Y-61781024D01*
X10793500Y-61895929D01*
X10850952Y-61953381D01*
X10965857Y-62010834D01*
X11195667Y-62068286D01*
X11482929Y-62068286D01*
X11712738Y-62010834D01*
X11827643Y-61953381D01*
X11885095Y-61895929D01*
X11942548Y-61781024D01*
X11942548Y-61666119D01*
X11885095Y-61551215D01*
X11827643Y-61493762D01*
X11712738Y-61436310D01*
X11482929Y-61378858D01*
X11195667Y-61378858D01*
X10965857Y-61436310D01*
X10850952Y-61493762D01*
X10793500Y-61551215D01*
X10736048Y-61666119D01*
X11942548Y-62585358D02*
X10736048Y-62585358D01*
X11482929Y-62700263D02*
X11942548Y-63044977D01*
X11138214Y-63044977D02*
X11597833Y-62585358D01*
X5580762Y-59442548D02*
X6270190Y-59442548D01*
X5925476Y-59442548D02*
X5925476Y-58236048D01*
X6040381Y-58408405D01*
X6155286Y-58523310D01*
X6270190Y-58580762D01*
X4833881Y-58236048D02*
X4718976Y-58236048D01*
X4604071Y-58293500D01*
X4546619Y-58350952D01*
X4489166Y-58465857D01*
X4431714Y-58695667D01*
X4431714Y-58982929D01*
X4489166Y-59212738D01*
X4546619Y-59327643D01*
X4604071Y-59385095D01*
X4718976Y-59442548D01*
X4833881Y-59442548D01*
X4948785Y-59385095D01*
X5006238Y-59327643D01*
X5063690Y-59212738D01*
X5121142Y-58982929D01*
X5121142Y-58695667D01*
X5063690Y-58465857D01*
X5006238Y-58350952D01*
X4948785Y-58293500D01*
X4833881Y-58236048D01*
X3914642Y-59442548D02*
X3914642Y-58236048D01*
X3799737Y-58982929D02*
X3455023Y-59442548D01*
X3455023Y-58638214D02*
X3914642Y-59097833D01*
X82695667Y-38138214D02*
X82695667Y-38942548D01*
X82982929Y-37678595D02*
X83270190Y-38540381D01*
X82523310Y-38540381D01*
X82063690Y-38827643D02*
X82006238Y-38885095D01*
X82063690Y-38942548D01*
X82121142Y-38885095D01*
X82063690Y-38827643D01*
X82063690Y-38942548D01*
X81604071Y-37736048D02*
X80799738Y-37736048D01*
X81316809Y-38942548D01*
X79823047Y-38138214D02*
X79823047Y-38942548D01*
X80340118Y-38138214D02*
X80340118Y-38770190D01*
X80282666Y-38885095D01*
X80167761Y-38942548D01*
X79995404Y-38942548D01*
X79880499Y-38885095D01*
X79823047Y-38827643D01*
X82695667Y-24638214D02*
X82695667Y-25442548D01*
X82982929Y-24178595D02*
X83270190Y-25040381D01*
X82523310Y-25040381D01*
X82063690Y-25327643D02*
X82006238Y-25385095D01*
X82063690Y-25442548D01*
X82121142Y-25385095D01*
X82063690Y-25327643D01*
X82063690Y-25442548D01*
X81604071Y-24236048D02*
X80799738Y-24236048D01*
X81316809Y-25442548D01*
X79823047Y-24638214D02*
X79823047Y-25442548D01*
X80340118Y-24638214D02*
X80340118Y-25270190D01*
X80282666Y-25385095D01*
X80167761Y-25442548D01*
X79995404Y-25442548D01*
X79880499Y-25385095D01*
X79823047Y-25327643D01*
X50138214Y-31804333D02*
X50942548Y-31804333D01*
X49678595Y-31517071D02*
X50540381Y-31229810D01*
X50540381Y-31976690D01*
X50827643Y-32436310D02*
X50885095Y-32493762D01*
X50942548Y-32436310D01*
X50885095Y-32378858D01*
X50827643Y-32436310D01*
X50942548Y-32436310D01*
X49736048Y-32895929D02*
X49736048Y-33700262D01*
X50942548Y-33183191D01*
X50138214Y-34676953D02*
X50942548Y-34676953D01*
X50138214Y-34159882D02*
X50770190Y-34159882D01*
X50885095Y-34217334D01*
X50942548Y-34332239D01*
X50942548Y-34504596D01*
X50885095Y-34619501D01*
X50827643Y-34676953D01*
X63638214Y-31804333D02*
X64442548Y-31804333D01*
X63178595Y-31517071D02*
X64040381Y-31229810D01*
X64040381Y-31976690D01*
X64327643Y-32436310D02*
X64385095Y-32493762D01*
X64442548Y-32436310D01*
X64385095Y-32378858D01*
X64327643Y-32436310D01*
X64442548Y-32436310D01*
X63236048Y-32895929D02*
X63236048Y-33700262D01*
X64442548Y-33183191D01*
X63638214Y-34676953D02*
X64442548Y-34676953D01*
X63638214Y-34159882D02*
X64270190Y-34159882D01*
X64385095Y-34217334D01*
X64442548Y-34332239D01*
X64442548Y-34504596D01*
X64385095Y-34619501D01*
X64327643Y-34676953D01*
X9580762Y-20942548D02*
X10270190Y-20942548D01*
X9925476Y-20942548D02*
X9925476Y-19736048D01*
X10040381Y-19908405D01*
X10155286Y-20023310D01*
X10270190Y-20080762D01*
X8833881Y-19736048D02*
X8718976Y-19736048D01*
X8604071Y-19793500D01*
X8546619Y-19850952D01*
X8489166Y-19965857D01*
X8431714Y-20195667D01*
X8431714Y-20482929D01*
X8489166Y-20712738D01*
X8546619Y-20827643D01*
X8604071Y-20885095D01*
X8718976Y-20942548D01*
X8833881Y-20942548D01*
X8948785Y-20885095D01*
X9006238Y-20827643D01*
X9063690Y-20712738D01*
X9121142Y-20482929D01*
X9121142Y-20195667D01*
X9063690Y-19965857D01*
X9006238Y-19850952D01*
X8948785Y-19793500D01*
X8833881Y-19736048D01*
X7914642Y-20942548D02*
X7914642Y-19736048D01*
X7799737Y-20482929D02*
X7455023Y-20942548D01*
X7455023Y-20138214D02*
X7914642Y-20597833D01*
X7195667Y-10138214D02*
X7195667Y-10942548D01*
X7482929Y-9678595D02*
X7770190Y-10540381D01*
X7023310Y-10540381D01*
X6563690Y-10827643D02*
X6506238Y-10885095D01*
X6563690Y-10942548D01*
X6621142Y-10885095D01*
X6563690Y-10827643D01*
X6563690Y-10942548D01*
X6104071Y-9736048D02*
X5299738Y-9736048D01*
X5816809Y-10942548D01*
X4840118Y-10942548D02*
X4840118Y-9736048D01*
X4725213Y-10482929D02*
X4380499Y-10942548D01*
X4380499Y-10138214D02*
X4840118Y-10597833D01*
X9580762Y-18942548D02*
X10270190Y-18942548D01*
X9925476Y-18942548D02*
X9925476Y-17736048D01*
X10040381Y-17908405D01*
X10155286Y-18023310D01*
X10270190Y-18080762D01*
X8833881Y-17736048D02*
X8718976Y-17736048D01*
X8604071Y-17793500D01*
X8546619Y-17850952D01*
X8489166Y-17965857D01*
X8431714Y-18195667D01*
X8431714Y-18482929D01*
X8489166Y-18712738D01*
X8546619Y-18827643D01*
X8604071Y-18885095D01*
X8718976Y-18942548D01*
X8833881Y-18942548D01*
X8948785Y-18885095D01*
X9006238Y-18827643D01*
X9063690Y-18712738D01*
X9121142Y-18482929D01*
X9121142Y-18195667D01*
X9063690Y-17965857D01*
X9006238Y-17850952D01*
X8948785Y-17793500D01*
X8833881Y-17736048D01*
X7914642Y-18942548D02*
X7914642Y-17736048D01*
X7799737Y-18482929D02*
X7455023Y-18942548D01*
X7455023Y-18138214D02*
X7914642Y-18597833D01*
X10195667Y-14138214D02*
X10195667Y-14942548D01*
X10482929Y-13678595D02*
X10770190Y-14540381D01*
X10023310Y-14540381D01*
X9563690Y-14827643D02*
X9506238Y-14885095D01*
X9563690Y-14942548D01*
X9621142Y-14885095D01*
X9563690Y-14827643D01*
X9563690Y-14942548D01*
X9104071Y-13736048D02*
X8299738Y-13736048D01*
X8816809Y-14942548D01*
X7840118Y-14942548D02*
X7840118Y-13736048D01*
X7725213Y-14482929D02*
X7380499Y-14942548D01*
X7380499Y-14138214D02*
X7840118Y-14597833D01*
X36442548Y-6919238D02*
X36442548Y-6229810D01*
X36442548Y-6574524D02*
X35236048Y-6574524D01*
X35408405Y-6459619D01*
X35523310Y-6344714D01*
X35580762Y-6229810D01*
X35350952Y-7378858D02*
X35293500Y-7436310D01*
X35236048Y-7551215D01*
X35236048Y-7838477D01*
X35293500Y-7953381D01*
X35350952Y-8010834D01*
X35465857Y-8068286D01*
X35580762Y-8068286D01*
X35753119Y-8010834D01*
X36442548Y-7321405D01*
X36442548Y-8068286D01*
X35236048Y-8815167D02*
X35236048Y-8930072D01*
X35293500Y-9044977D01*
X35350952Y-9102429D01*
X35465857Y-9159882D01*
X35695667Y-9217334D01*
X35982929Y-9217334D01*
X36212738Y-9159882D01*
X36327643Y-9102429D01*
X36385095Y-9044977D01*
X36442548Y-8930072D01*
X36442548Y-8815167D01*
X36385095Y-8700263D01*
X36327643Y-8642810D01*
X36212738Y-8585358D01*
X35982929Y-8527906D01*
X35695667Y-8527906D01*
X35465857Y-8585358D01*
X35350952Y-8642810D01*
X35293500Y-8700263D01*
X35236048Y-8815167D01*
X63482929Y-19236048D02*
X63368024Y-19236048D01*
X63253119Y-19293500D01*
X63195667Y-19350952D01*
X63138214Y-19465857D01*
X63080762Y-19695667D01*
X63080762Y-19982929D01*
X63138214Y-20212738D01*
X63195667Y-20327643D01*
X63253119Y-20385095D01*
X63368024Y-20442548D01*
X63482929Y-20442548D01*
X63597833Y-20385095D01*
X63655286Y-20327643D01*
X63712738Y-20212738D01*
X63770190Y-19982929D01*
X63770190Y-19695667D01*
X63712738Y-19465857D01*
X63655286Y-19350952D01*
X63597833Y-19293500D01*
X63482929Y-19236048D01*
X62563690Y-20327643D02*
X62506238Y-20385095D01*
X62563690Y-20442548D01*
X62621142Y-20385095D01*
X62563690Y-20327643D01*
X62563690Y-20442548D01*
X61357190Y-20442548D02*
X62046618Y-20442548D01*
X61701904Y-20442548D02*
X61701904Y-19236048D01*
X61816809Y-19408405D01*
X61931714Y-19523310D01*
X62046618Y-19580762D01*
X60323047Y-19638214D02*
X60323047Y-20442548D01*
X60840118Y-19638214D02*
X60840118Y-20270190D01*
X60782666Y-20385095D01*
X60667761Y-20442548D01*
X60495404Y-20442548D01*
X60380499Y-20385095D01*
X60323047Y-20327643D01*
X14712738Y-6942548D02*
X14712738Y-5736048D01*
X14425476Y-5736048D01*
X14253119Y-5793500D01*
X14138214Y-5908405D01*
X14080762Y-6023310D01*
X14023310Y-6253119D01*
X14023310Y-6425476D01*
X14080762Y-6655286D01*
X14138214Y-6770190D01*
X14253119Y-6885095D01*
X14425476Y-6942548D01*
X14712738Y-6942548D01*
X13506238Y-6942548D02*
X13506238Y-5736048D01*
X12701905Y-5736048D02*
X12472095Y-5736048D01*
X12357190Y-5793500D01*
X12242286Y-5908405D01*
X12184833Y-6138214D01*
X12184833Y-6540381D01*
X12242286Y-6770190D01*
X12357190Y-6885095D01*
X12472095Y-6942548D01*
X12701905Y-6942548D01*
X12816809Y-6885095D01*
X12931714Y-6770190D01*
X12989166Y-6540381D01*
X12989166Y-6138214D01*
X12931714Y-5908405D01*
X12816809Y-5793500D01*
X12701905Y-5736048D01*
X11667762Y-6942548D02*
X11667762Y-5736048D01*
X11380500Y-5736048D01*
X11208143Y-5793500D01*
X11093238Y-5908405D01*
X11035786Y-6023310D01*
X10978334Y-6253119D01*
X10978334Y-6425476D01*
X11035786Y-6655286D01*
X11093238Y-6770190D01*
X11208143Y-6885095D01*
X11380500Y-6942548D01*
X11667762Y-6942548D01*
X10461262Y-6310571D02*
X10059095Y-6310571D01*
X9886738Y-6942548D02*
X10461262Y-6942548D01*
X10461262Y-5736048D01*
X9886738Y-5736048D01*
X22212738Y-6942548D02*
X22212738Y-5736048D01*
X21925476Y-5736048D01*
X21753119Y-5793500D01*
X21638214Y-5908405D01*
X21580762Y-6023310D01*
X21523310Y-6253119D01*
X21523310Y-6425476D01*
X21580762Y-6655286D01*
X21638214Y-6770190D01*
X21753119Y-6885095D01*
X21925476Y-6942548D01*
X22212738Y-6942548D01*
X21006238Y-6942548D02*
X21006238Y-5736048D01*
X20201905Y-5736048D02*
X19972095Y-5736048D01*
X19857190Y-5793500D01*
X19742286Y-5908405D01*
X19684833Y-6138214D01*
X19684833Y-6540381D01*
X19742286Y-6770190D01*
X19857190Y-6885095D01*
X19972095Y-6942548D01*
X20201905Y-6942548D01*
X20316809Y-6885095D01*
X20431714Y-6770190D01*
X20489166Y-6540381D01*
X20489166Y-6138214D01*
X20431714Y-5908405D01*
X20316809Y-5793500D01*
X20201905Y-5736048D01*
X19167762Y-6942548D02*
X19167762Y-5736048D01*
X18880500Y-5736048D01*
X18708143Y-5793500D01*
X18593238Y-5908405D01*
X18535786Y-6023310D01*
X18478334Y-6253119D01*
X18478334Y-6425476D01*
X18535786Y-6655286D01*
X18593238Y-6770190D01*
X18708143Y-6885095D01*
X18880500Y-6942548D01*
X19167762Y-6942548D01*
X17961262Y-6310571D02*
X17559095Y-6310571D01*
X17386738Y-6942548D02*
X17961262Y-6942548D01*
X17961262Y-5736048D01*
X17386738Y-5736048D01*
X75942548Y-66287262D02*
X74736048Y-66287262D01*
X74736048Y-66574524D01*
X74793500Y-66746881D01*
X74908405Y-66861786D01*
X75023310Y-66919238D01*
X75253119Y-66976690D01*
X75425476Y-66976690D01*
X75655286Y-66919238D01*
X75770190Y-66861786D01*
X75885095Y-66746881D01*
X75942548Y-66574524D01*
X75942548Y-66287262D01*
X75942548Y-67493762D02*
X74736048Y-67493762D01*
X74736048Y-68298095D02*
X74736048Y-68527905D01*
X74793500Y-68642810D01*
X74908405Y-68757714D01*
X75138214Y-68815167D01*
X75540381Y-68815167D01*
X75770190Y-68757714D01*
X75885095Y-68642810D01*
X75942548Y-68527905D01*
X75942548Y-68298095D01*
X75885095Y-68183191D01*
X75770190Y-68068286D01*
X75540381Y-68010834D01*
X75138214Y-68010834D01*
X74908405Y-68068286D01*
X74793500Y-68183191D01*
X74736048Y-68298095D01*
X75942548Y-69332238D02*
X74736048Y-69332238D01*
X74736048Y-69619500D01*
X74793500Y-69791857D01*
X74908405Y-69906762D01*
X75023310Y-69964214D01*
X75253119Y-70021666D01*
X75425476Y-70021666D01*
X75655286Y-69964214D01*
X75770190Y-69906762D01*
X75885095Y-69791857D01*
X75942548Y-69619500D01*
X75942548Y-69332238D01*
X75310571Y-70538738D02*
X75310571Y-70940905D01*
X75942548Y-71113262D02*
X75942548Y-70538738D01*
X74736048Y-70538738D01*
X74736048Y-71113262D01*
X12442548Y-14919238D02*
X12442548Y-14229810D01*
X12442548Y-14574524D02*
X11236048Y-14574524D01*
X11408405Y-14459619D01*
X11523310Y-14344714D01*
X11580762Y-14229810D01*
X11236048Y-15666119D02*
X11236048Y-15781024D01*
X11293500Y-15895929D01*
X11350952Y-15953381D01*
X11465857Y-16010834D01*
X11695667Y-16068286D01*
X11982929Y-16068286D01*
X12212738Y-16010834D01*
X12327643Y-15953381D01*
X12385095Y-15895929D01*
X12442548Y-15781024D01*
X12442548Y-15666119D01*
X12385095Y-15551215D01*
X12327643Y-15493762D01*
X12212738Y-15436310D01*
X11982929Y-15378858D01*
X11695667Y-15378858D01*
X11465857Y-15436310D01*
X11350952Y-15493762D01*
X11293500Y-15551215D01*
X11236048Y-15666119D01*
X12442548Y-16585358D02*
X11236048Y-16585358D01*
X11982929Y-16700263D02*
X12442548Y-17044977D01*
X11638214Y-17044977D02*
X12097833Y-16585358D01*
X19080762Y-14942548D02*
X19770190Y-14942548D01*
X19425476Y-14942548D02*
X19425476Y-13736048D01*
X19540381Y-13908405D01*
X19655286Y-14023310D01*
X19770190Y-14080762D01*
X18333881Y-13736048D02*
X18218976Y-13736048D01*
X18104071Y-13793500D01*
X18046619Y-13850952D01*
X17989166Y-13965857D01*
X17931714Y-14195667D01*
X17931714Y-14482929D01*
X17989166Y-14712738D01*
X18046619Y-14827643D01*
X18104071Y-14885095D01*
X18218976Y-14942548D01*
X18333881Y-14942548D01*
X18448785Y-14885095D01*
X18506238Y-14827643D01*
X18563690Y-14712738D01*
X18621142Y-14482929D01*
X18621142Y-14195667D01*
X18563690Y-13965857D01*
X18506238Y-13850952D01*
X18448785Y-13793500D01*
X18333881Y-13736048D01*
X17414642Y-14942548D02*
X17414642Y-13736048D01*
X17299737Y-14482929D02*
X16955023Y-14942548D01*
X16955023Y-14138214D02*
X17414642Y-14597833D01*
X96195667Y-29138214D02*
X96195667Y-29942548D01*
X96482929Y-28678595D02*
X96770190Y-29540381D01*
X96023310Y-29540381D01*
X95563690Y-29827643D02*
X95506238Y-29885095D01*
X95563690Y-29942548D01*
X95621142Y-29885095D01*
X95563690Y-29827643D01*
X95563690Y-29942548D01*
X95104071Y-28736048D02*
X94299738Y-28736048D01*
X94816809Y-29942548D01*
X93840118Y-29942548D02*
X93840118Y-28736048D01*
X93725213Y-29482929D02*
X93380499Y-29942548D01*
X93380499Y-29138214D02*
X93840118Y-29597833D01*
X92080762Y-39942548D02*
X92770190Y-39942548D01*
X92425476Y-39942548D02*
X92425476Y-38736048D01*
X92540381Y-38908405D01*
X92655286Y-39023310D01*
X92770190Y-39080762D01*
X91333881Y-38736048D02*
X91218976Y-38736048D01*
X91104071Y-38793500D01*
X91046619Y-38850952D01*
X90989166Y-38965857D01*
X90931714Y-39195667D01*
X90931714Y-39482929D01*
X90989166Y-39712738D01*
X91046619Y-39827643D01*
X91104071Y-39885095D01*
X91218976Y-39942548D01*
X91333881Y-39942548D01*
X91448785Y-39885095D01*
X91506238Y-39827643D01*
X91563690Y-39712738D01*
X91621142Y-39482929D01*
X91621142Y-39195667D01*
X91563690Y-38965857D01*
X91506238Y-38850952D01*
X91448785Y-38793500D01*
X91333881Y-38736048D01*
X90414642Y-39942548D02*
X90414642Y-38736048D01*
X90299737Y-39482929D02*
X89955023Y-39942548D01*
X89955023Y-39138214D02*
X90414642Y-39597833D01*
X88080762Y-31442548D02*
X88770190Y-31442548D01*
X88425476Y-31442548D02*
X88425476Y-30236048D01*
X88540381Y-30408405D01*
X88655286Y-30523310D01*
X88770190Y-30580762D01*
X87333881Y-30236048D02*
X87218976Y-30236048D01*
X87104071Y-30293500D01*
X87046619Y-30350952D01*
X86989166Y-30465857D01*
X86931714Y-30695667D01*
X86931714Y-30982929D01*
X86989166Y-31212738D01*
X87046619Y-31327643D01*
X87104071Y-31385095D01*
X87218976Y-31442548D01*
X87333881Y-31442548D01*
X87448785Y-31385095D01*
X87506238Y-31327643D01*
X87563690Y-31212738D01*
X87621142Y-30982929D01*
X87621142Y-30695667D01*
X87563690Y-30465857D01*
X87506238Y-30350952D01*
X87448785Y-30293500D01*
X87333881Y-30236048D01*
X86414642Y-31442548D02*
X86414642Y-30236048D01*
X86299737Y-30982929D02*
X85955023Y-31442548D01*
X85955023Y-30638214D02*
X86414642Y-31097833D01*
X93442548Y-57787262D02*
X92236048Y-57787262D01*
X92236048Y-58074524D01*
X92293500Y-58246881D01*
X92408405Y-58361786D01*
X92523310Y-58419238D01*
X92753119Y-58476690D01*
X92925476Y-58476690D01*
X93155286Y-58419238D01*
X93270190Y-58361786D01*
X93385095Y-58246881D01*
X93442548Y-58074524D01*
X93442548Y-57787262D01*
X93442548Y-58993762D02*
X92236048Y-58993762D01*
X92236048Y-59798095D02*
X92236048Y-60027905D01*
X92293500Y-60142810D01*
X92408405Y-60257714D01*
X92638214Y-60315167D01*
X93040381Y-60315167D01*
X93270190Y-60257714D01*
X93385095Y-60142810D01*
X93442548Y-60027905D01*
X93442548Y-59798095D01*
X93385095Y-59683191D01*
X93270190Y-59568286D01*
X93040381Y-59510834D01*
X92638214Y-59510834D01*
X92408405Y-59568286D01*
X92293500Y-59683191D01*
X92236048Y-59798095D01*
X93442548Y-60832238D02*
X92236048Y-60832238D01*
X92236048Y-61119500D01*
X92293500Y-61291857D01*
X92408405Y-61406762D01*
X92523310Y-61464214D01*
X92753119Y-61521666D01*
X92925476Y-61521666D01*
X93155286Y-61464214D01*
X93270190Y-61406762D01*
X93385095Y-61291857D01*
X93442548Y-61119500D01*
X93442548Y-60832238D01*
X92810571Y-62038738D02*
X92810571Y-62440905D01*
X93442548Y-62613262D02*
X93442548Y-62038738D01*
X92236048Y-62038738D01*
X92236048Y-62613262D01*
X70402548Y-44246690D02*
X69828024Y-43844524D01*
X70402548Y-43557262D02*
X69196048Y-43557262D01*
X69196048Y-44016881D01*
X69253500Y-44131786D01*
X69310952Y-44189238D01*
X69425857Y-44246690D01*
X69598214Y-44246690D01*
X69713119Y-44189238D01*
X69770571Y-44131786D01*
X69828024Y-44016881D01*
X69828024Y-43557262D01*
X16442548Y-22419238D02*
X16442548Y-21729810D01*
X16442548Y-22074524D02*
X15236048Y-22074524D01*
X15408405Y-21959619D01*
X15523310Y-21844714D01*
X15580762Y-21729810D01*
X15236048Y-23166119D02*
X15236048Y-23281024D01*
X15293500Y-23395929D01*
X15350952Y-23453381D01*
X15465857Y-23510834D01*
X15695667Y-23568286D01*
X15982929Y-23568286D01*
X16212738Y-23510834D01*
X16327643Y-23453381D01*
X16385095Y-23395929D01*
X16442548Y-23281024D01*
X16442548Y-23166119D01*
X16385095Y-23051215D01*
X16327643Y-22993762D01*
X16212738Y-22936310D01*
X15982929Y-22878858D01*
X15695667Y-22878858D01*
X15465857Y-22936310D01*
X15350952Y-22993762D01*
X15293500Y-23051215D01*
X15236048Y-23166119D01*
X16442548Y-24085358D02*
X15236048Y-24085358D01*
X15982929Y-24200263D02*
X16442548Y-24544977D01*
X15638214Y-24544977D02*
X16097833Y-24085358D01*
X17942548Y-22419238D02*
X17942548Y-21729810D01*
X17942548Y-22074524D02*
X16736048Y-22074524D01*
X16908405Y-21959619D01*
X17023310Y-21844714D01*
X17080762Y-21729810D01*
X16736048Y-23166119D02*
X16736048Y-23281024D01*
X16793500Y-23395929D01*
X16850952Y-23453381D01*
X16965857Y-23510834D01*
X17195667Y-23568286D01*
X17482929Y-23568286D01*
X17712738Y-23510834D01*
X17827643Y-23453381D01*
X17885095Y-23395929D01*
X17942548Y-23281024D01*
X17942548Y-23166119D01*
X17885095Y-23051215D01*
X17827643Y-22993762D01*
X17712738Y-22936310D01*
X17482929Y-22878858D01*
X17195667Y-22878858D01*
X16965857Y-22936310D01*
X16850952Y-22993762D01*
X16793500Y-23051215D01*
X16736048Y-23166119D01*
X17942548Y-24085358D02*
X16736048Y-24085358D01*
X17482929Y-24200263D02*
X17942548Y-24544977D01*
X17138214Y-24544977D02*
X17597833Y-24085358D01*
X19442548Y-22419238D02*
X19442548Y-21729810D01*
X19442548Y-22074524D02*
X18236048Y-22074524D01*
X18408405Y-21959619D01*
X18523310Y-21844714D01*
X18580762Y-21729810D01*
X18236048Y-23166119D02*
X18236048Y-23281024D01*
X18293500Y-23395929D01*
X18350952Y-23453381D01*
X18465857Y-23510834D01*
X18695667Y-23568286D01*
X18982929Y-23568286D01*
X19212738Y-23510834D01*
X19327643Y-23453381D01*
X19385095Y-23395929D01*
X19442548Y-23281024D01*
X19442548Y-23166119D01*
X19385095Y-23051215D01*
X19327643Y-22993762D01*
X19212738Y-22936310D01*
X18982929Y-22878858D01*
X18695667Y-22878858D01*
X18465857Y-22936310D01*
X18350952Y-22993762D01*
X18293500Y-23051215D01*
X18236048Y-23166119D01*
X19442548Y-24085358D02*
X18236048Y-24085358D01*
X18982929Y-24200263D02*
X19442548Y-24544977D01*
X18638214Y-24544977D02*
X19097833Y-24085358D01*
X10080762Y-52942548D02*
X10770190Y-52942548D01*
X10425476Y-52942548D02*
X10425476Y-51736048D01*
X10540381Y-51908405D01*
X10655286Y-52023310D01*
X10770190Y-52080762D01*
X9563690Y-52138214D02*
X9563690Y-52942548D01*
X9563690Y-52253119D02*
X9506238Y-52195667D01*
X9391333Y-52138214D01*
X9218976Y-52138214D01*
X9104071Y-52195667D01*
X9046619Y-52310571D01*
X9046619Y-52942548D01*
X10080762Y-51442548D02*
X10770190Y-51442548D01*
X10425476Y-51442548D02*
X10425476Y-50236048D01*
X10540381Y-50408405D01*
X10655286Y-50523310D01*
X10770190Y-50580762D01*
X9563690Y-50638214D02*
X9563690Y-51442548D01*
X9563690Y-50753119D02*
X9506238Y-50695667D01*
X9391333Y-50638214D01*
X9218976Y-50638214D01*
X9104071Y-50695667D01*
X9046619Y-50810571D01*
X9046619Y-51442548D01*
X4080762Y-53942548D02*
X4770190Y-53942548D01*
X4425476Y-53942548D02*
X4425476Y-52736048D01*
X4540381Y-52908405D01*
X4655286Y-53023310D01*
X4770190Y-53080762D01*
X3563690Y-53138214D02*
X3563690Y-53942548D01*
X3563690Y-53253119D02*
X3506238Y-53195667D01*
X3391333Y-53138214D01*
X3218976Y-53138214D01*
X3104071Y-53195667D01*
X3046619Y-53310571D01*
X3046619Y-53942548D01*
X2942548Y-40287262D02*
X1736048Y-40287262D01*
X1736048Y-40574524D01*
X1793500Y-40746881D01*
X1908405Y-40861786D01*
X2023310Y-40919238D01*
X2253119Y-40976690D01*
X2425476Y-40976690D01*
X2655286Y-40919238D01*
X2770190Y-40861786D01*
X2885095Y-40746881D01*
X2942548Y-40574524D01*
X2942548Y-40287262D01*
X2942548Y-41493762D02*
X1736048Y-41493762D01*
X1736048Y-42298095D02*
X1736048Y-42527905D01*
X1793500Y-42642810D01*
X1908405Y-42757714D01*
X2138214Y-42815167D01*
X2540381Y-42815167D01*
X2770190Y-42757714D01*
X2885095Y-42642810D01*
X2942548Y-42527905D01*
X2942548Y-42298095D01*
X2885095Y-42183191D01*
X2770190Y-42068286D01*
X2540381Y-42010834D01*
X2138214Y-42010834D01*
X1908405Y-42068286D01*
X1793500Y-42183191D01*
X1736048Y-42298095D01*
X2942548Y-43332238D02*
X1736048Y-43332238D01*
X1736048Y-43619500D01*
X1793500Y-43791857D01*
X1908405Y-43906762D01*
X2023310Y-43964214D01*
X2253119Y-44021666D01*
X2425476Y-44021666D01*
X2655286Y-43964214D01*
X2770190Y-43906762D01*
X2885095Y-43791857D01*
X2942548Y-43619500D01*
X2942548Y-43332238D01*
X2310571Y-44538738D02*
X2310571Y-44940905D01*
X2942548Y-45113262D02*
X2942548Y-44538738D01*
X1736048Y-44538738D01*
X1736048Y-45113262D01*
X6942548Y-40287262D02*
X5736048Y-40287262D01*
X5736048Y-40574524D01*
X5793500Y-40746881D01*
X5908405Y-40861786D01*
X6023310Y-40919238D01*
X6253119Y-40976690D01*
X6425476Y-40976690D01*
X6655286Y-40919238D01*
X6770190Y-40861786D01*
X6885095Y-40746881D01*
X6942548Y-40574524D01*
X6942548Y-40287262D01*
X6942548Y-41493762D02*
X5736048Y-41493762D01*
X5736048Y-42298095D02*
X5736048Y-42527905D01*
X5793500Y-42642810D01*
X5908405Y-42757714D01*
X6138214Y-42815167D01*
X6540381Y-42815167D01*
X6770190Y-42757714D01*
X6885095Y-42642810D01*
X6942548Y-42527905D01*
X6942548Y-42298095D01*
X6885095Y-42183191D01*
X6770190Y-42068286D01*
X6540381Y-42010834D01*
X6138214Y-42010834D01*
X5908405Y-42068286D01*
X5793500Y-42183191D01*
X5736048Y-42298095D01*
X6942548Y-43332238D02*
X5736048Y-43332238D01*
X5736048Y-43619500D01*
X5793500Y-43791857D01*
X5908405Y-43906762D01*
X6023310Y-43964214D01*
X6253119Y-44021666D01*
X6425476Y-44021666D01*
X6655286Y-43964214D01*
X6770190Y-43906762D01*
X6885095Y-43791857D01*
X6942548Y-43619500D01*
X6942548Y-43332238D01*
X6310571Y-44538738D02*
X6310571Y-44940905D01*
X6942548Y-45113262D02*
X6942548Y-44538738D01*
X5736048Y-44538738D01*
X5736048Y-45113262D01*
X4942548Y-40287262D02*
X3736048Y-40287262D01*
X3736048Y-40574524D01*
X3793500Y-40746881D01*
X3908405Y-40861786D01*
X4023310Y-40919238D01*
X4253119Y-40976690D01*
X4425476Y-40976690D01*
X4655286Y-40919238D01*
X4770190Y-40861786D01*
X4885095Y-40746881D01*
X4942548Y-40574524D01*
X4942548Y-40287262D01*
X4942548Y-41493762D02*
X3736048Y-41493762D01*
X3736048Y-42298095D02*
X3736048Y-42527905D01*
X3793500Y-42642810D01*
X3908405Y-42757714D01*
X4138214Y-42815167D01*
X4540381Y-42815167D01*
X4770190Y-42757714D01*
X4885095Y-42642810D01*
X4942548Y-42527905D01*
X4942548Y-42298095D01*
X4885095Y-42183191D01*
X4770190Y-42068286D01*
X4540381Y-42010834D01*
X4138214Y-42010834D01*
X3908405Y-42068286D01*
X3793500Y-42183191D01*
X3736048Y-42298095D01*
X4942548Y-43332238D02*
X3736048Y-43332238D01*
X3736048Y-43619500D01*
X3793500Y-43791857D01*
X3908405Y-43906762D01*
X4023310Y-43964214D01*
X4253119Y-44021666D01*
X4425476Y-44021666D01*
X4655286Y-43964214D01*
X4770190Y-43906762D01*
X4885095Y-43791857D01*
X4942548Y-43619500D01*
X4942548Y-43332238D01*
X4310571Y-44538738D02*
X4310571Y-44940905D01*
X4942548Y-45113262D02*
X4942548Y-44538738D01*
X3736048Y-44538738D01*
X3736048Y-45113262D01*
X1638214Y-49804333D02*
X2442548Y-49804333D01*
X1178595Y-49517071D02*
X2040381Y-49229810D01*
X2040381Y-49976690D01*
X2327643Y-50436310D02*
X2385095Y-50493762D01*
X2442548Y-50436310D01*
X2385095Y-50378858D01*
X2327643Y-50436310D01*
X2442548Y-50436310D01*
X1236048Y-50895929D02*
X1236048Y-51700262D01*
X2442548Y-51183191D01*
X2442548Y-52159882D02*
X1236048Y-52159882D01*
X1982929Y-52274787D02*
X2442548Y-52619501D01*
X1638214Y-52619501D02*
X2097833Y-52159882D01*
X11695667Y-49138214D02*
X11695667Y-49942548D01*
X11982929Y-48678595D02*
X12270190Y-49540381D01*
X11523310Y-49540381D01*
X11063690Y-49827643D02*
X11006238Y-49885095D01*
X11063690Y-49942548D01*
X11121142Y-49885095D01*
X11063690Y-49827643D01*
X11063690Y-49942548D01*
X10604071Y-48736048D02*
X9799738Y-48736048D01*
X10316809Y-49942548D01*
X9340118Y-49942548D02*
X9340118Y-48736048D01*
X9225213Y-49482929D02*
X8880499Y-49942548D01*
X8880499Y-49138214D02*
X9340118Y-49597833D01*
X5195667Y-48138214D02*
X5195667Y-48942548D01*
X5482929Y-47678595D02*
X5770190Y-48540381D01*
X5023310Y-48540381D01*
X4563690Y-48827643D02*
X4506238Y-48885095D01*
X4563690Y-48942548D01*
X4621142Y-48885095D01*
X4563690Y-48827643D01*
X4563690Y-48942548D01*
X4104071Y-47736048D02*
X3299738Y-47736048D01*
X3816809Y-48942548D01*
X2840118Y-48942548D02*
X2840118Y-47736048D01*
X2725213Y-48482929D02*
X2380499Y-48942548D01*
X2380499Y-48138214D02*
X2840118Y-48597833D01*
X96770190Y-30350952D02*
X96712738Y-30293500D01*
X96597833Y-30236048D01*
X96310571Y-30236048D01*
X96195667Y-30293500D01*
X96138214Y-30350952D01*
X96080762Y-30465857D01*
X96080762Y-30580762D01*
X96138214Y-30753119D01*
X96827643Y-31442548D01*
X96080762Y-31442548D01*
X95563690Y-31327643D02*
X95506238Y-31385095D01*
X95563690Y-31442548D01*
X95621142Y-31385095D01*
X95563690Y-31327643D01*
X95563690Y-31442548D01*
X95046618Y-30350952D02*
X94989166Y-30293500D01*
X94874261Y-30236048D01*
X94586999Y-30236048D01*
X94472095Y-30293500D01*
X94414642Y-30350952D01*
X94357190Y-30465857D01*
X94357190Y-30580762D01*
X94414642Y-30753119D01*
X95104071Y-31442548D01*
X94357190Y-31442548D01*
X93840118Y-31442548D02*
X93840118Y-30236048D01*
X93725213Y-30982929D02*
X93380499Y-31442548D01*
X93380499Y-30638214D02*
X93840118Y-31097833D01*
X13442548Y-55419238D02*
X13442548Y-54729810D01*
X13442548Y-55074524D02*
X12236048Y-55074524D01*
X12408405Y-54959619D01*
X12523310Y-54844714D01*
X12580762Y-54729810D01*
X13442548Y-55936310D02*
X12236048Y-55936310D01*
X12982929Y-56051215D02*
X13442548Y-56395929D01*
X12638214Y-56395929D02*
X13097833Y-55936310D01*
X8942548Y-55419238D02*
X8942548Y-54729810D01*
X8942548Y-55074524D02*
X7736048Y-55074524D01*
X7908405Y-54959619D01*
X8023310Y-54844714D01*
X8080762Y-54729810D01*
X8942548Y-55936310D02*
X7736048Y-55936310D01*
X8482929Y-56051215D02*
X8942548Y-56395929D01*
X8138214Y-56395929D02*
X8597833Y-55936310D01*
X5537548Y-57054238D02*
X5537548Y-56364810D01*
X5537548Y-56709524D02*
X4331048Y-56709524D01*
X4503405Y-56594619D01*
X4618310Y-56479714D01*
X4675762Y-56364810D01*
X5537548Y-57571310D02*
X4331048Y-57571310D01*
X5077929Y-57686215D02*
X5537548Y-58030929D01*
X4733214Y-58030929D02*
X5192833Y-57571310D01*
M02*
