G04 #@! TF.FileFunction,Soldermask,Top*
%FSLAX46Y46*%
G04 Gerber Fmt 4.6, Leading zero omitted, Abs format (unit mm)*
G04 Created by KiCad (PCBNEW 4.0.6) date 03/21/17 17:18:28*
%MOMM*%
%LPD*%
G01*
G04 APERTURE LIST*
%ADD10C,0.100000*%
%ADD11R,2.000000X2.200000*%
%ADD12R,1.400000X1.200000*%
%ADD13R,2.800300X4.400500*%
%ADD14R,1.200000X1.400000*%
%ADD15R,1.000000X1.900000*%
%ADD16O,1.400000X1.924000*%
%ADD17O,1.900000X2.900000*%
%ADD18C,3.400000*%
%ADD19R,3.400000X6.900000*%
%ADD20R,6.851600X3.400000*%
%ADD21C,4.464000*%
%ADD22R,3.000000X1.900000*%
%ADD23C,1.924000*%
%ADD24O,8.400000X3.900000*%
%ADD25R,1.600000X0.800000*%
%ADD26C,1.700000*%
%ADD27R,1.700000X1.700000*%
%ADD28R,2.432000X2.432000*%
%ADD29O,2.432000X2.432000*%
%ADD30C,1.900000*%
%ADD31R,1.598880X1.598880*%
%ADD32C,1.400000*%
G04 APERTURE END LIST*
D10*
D11*
X71400000Y-12500000D03*
X74600000Y-12500000D03*
D10*
G36*
X18555635Y-62065685D02*
X17565685Y-63055635D01*
X16717157Y-62207107D01*
X17707107Y-61217157D01*
X18555635Y-62065685D01*
X18555635Y-62065685D01*
G37*
G36*
X17282843Y-60792893D02*
X16292893Y-61782843D01*
X15444365Y-60934315D01*
X16434315Y-59944365D01*
X17282843Y-60792893D01*
X17282843Y-60792893D01*
G37*
G36*
X18444365Y-63934315D02*
X19434315Y-62944365D01*
X20282843Y-63792893D01*
X19292893Y-64782843D01*
X18444365Y-63934315D01*
X18444365Y-63934315D01*
G37*
G36*
X19717157Y-65207107D02*
X20707107Y-64217157D01*
X21555635Y-65065685D01*
X20565685Y-66055635D01*
X19717157Y-65207107D01*
X19717157Y-65207107D01*
G37*
D12*
X54000000Y-43600000D03*
X54000000Y-45400000D03*
X30000000Y-43600000D03*
X30000000Y-45400000D03*
D11*
X39400000Y-33500000D03*
X42600000Y-33500000D03*
X45400000Y-33500000D03*
X48600000Y-33500000D03*
X71400000Y-8500000D03*
X74600000Y-8500000D03*
X71400000Y-19500000D03*
X74600000Y-19500000D03*
D12*
X46000000Y-43600000D03*
X46000000Y-45400000D03*
X58000000Y-43600000D03*
X58000000Y-45400000D03*
X34000000Y-43600000D03*
X34000000Y-45400000D03*
D10*
G36*
X17105887Y-59727208D02*
X19227208Y-57605887D01*
X20782843Y-59161522D01*
X18661522Y-61282843D01*
X17105887Y-59727208D01*
X17105887Y-59727208D01*
G37*
G36*
X20217157Y-62838478D02*
X22338478Y-60717157D01*
X23894113Y-62272792D01*
X21772792Y-64394113D01*
X20217157Y-62838478D01*
X20217157Y-62838478D01*
G37*
D12*
X42000000Y-43600000D03*
X42000000Y-45400000D03*
D11*
X51400000Y-33500000D03*
X54600000Y-33500000D03*
X57400000Y-33500000D03*
X60600000Y-33500000D03*
X27400000Y-33500000D03*
X30600000Y-33500000D03*
X33400000Y-33500000D03*
X36600000Y-33500000D03*
X71400000Y-23500000D03*
X74600000Y-23500000D03*
D13*
X21500000Y-8999500D03*
X21500000Y-17000500D03*
X21500000Y-23999500D03*
X21500000Y-32000500D03*
D14*
X39900000Y-31000000D03*
X38100000Y-31000000D03*
X46400000Y-31000000D03*
X44600000Y-31000000D03*
X51900000Y-31000000D03*
X50100000Y-31000000D03*
X58400000Y-31000000D03*
X56600000Y-31000000D03*
X27900000Y-31000000D03*
X26100000Y-31000000D03*
X34400000Y-31000000D03*
X32600000Y-31000000D03*
D11*
X66600000Y-10500000D03*
X63400000Y-10500000D03*
D15*
X72445000Y-36300000D03*
X71175000Y-36300000D03*
X69905000Y-36300000D03*
X68635000Y-36300000D03*
X67365000Y-36300000D03*
X66095000Y-36300000D03*
X64825000Y-36300000D03*
X63555000Y-36300000D03*
X63555000Y-41700000D03*
X64825000Y-41700000D03*
X66095000Y-41700000D03*
X67365000Y-41700000D03*
X68635000Y-41700000D03*
X69905000Y-41700000D03*
X71175000Y-41700000D03*
X72445000Y-41700000D03*
D16*
X1500000Y-55000000D03*
X3000000Y-55000000D03*
X4500000Y-55000000D03*
X6000000Y-55000000D03*
X7500000Y-55000000D03*
X9000000Y-55000000D03*
X24000000Y-43000000D03*
X22500000Y-43000000D03*
X21000000Y-43000000D03*
X19500000Y-43000000D03*
X18000000Y-43000000D03*
X16500000Y-43000000D03*
D17*
X13000000Y-69000000D03*
X15500000Y-69000000D03*
X18000000Y-69000000D03*
X20500000Y-69000000D03*
D18*
X16750000Y-75500000D03*
D17*
X25500000Y-69000000D03*
X28000000Y-69000000D03*
X30500000Y-69000000D03*
X33000000Y-69000000D03*
D18*
X29250000Y-75500000D03*
D17*
X55000000Y-69000000D03*
X57500000Y-69000000D03*
X60000000Y-69000000D03*
X62500000Y-69000000D03*
D18*
X58750000Y-75500000D03*
D19*
X2200000Y-4500000D03*
D20*
X9400000Y-3600000D03*
D19*
X3700000Y-13000000D03*
D20*
X9400000Y-12600000D03*
D21*
X43000000Y-18000000D03*
X55000000Y-18000000D03*
X31000000Y-18000000D03*
D14*
X39900000Y-29000000D03*
X38100000Y-29000000D03*
X46400000Y-29000000D03*
X44600000Y-29000000D03*
X51900000Y-29000000D03*
X50100000Y-29000000D03*
X58400000Y-29000000D03*
X56600000Y-29000000D03*
X27900000Y-29000000D03*
X26100000Y-29000000D03*
X34400000Y-29000000D03*
X32600000Y-29000000D03*
D12*
X65000000Y-23600000D03*
X65000000Y-25400000D03*
X63500000Y-23600000D03*
X63500000Y-25400000D03*
X66500000Y-23600000D03*
X66500000Y-25400000D03*
D22*
X1700000Y-69500000D03*
X7300000Y-69500000D03*
D10*
G36*
X22608311Y-56462221D02*
X22148692Y-56002602D01*
X23350773Y-54800521D01*
X23810392Y-55260140D01*
X22608311Y-56462221D01*
X22608311Y-56462221D01*
G37*
G36*
X22961864Y-56815774D02*
X22502245Y-56356155D01*
X23704326Y-55154074D01*
X24163945Y-55613693D01*
X22961864Y-56815774D01*
X22961864Y-56815774D01*
G37*
G36*
X23315418Y-57169328D02*
X22855799Y-56709709D01*
X24057880Y-55507628D01*
X24517499Y-55967247D01*
X23315418Y-57169328D01*
X23315418Y-57169328D01*
G37*
G36*
X23668971Y-57522881D02*
X23209352Y-57063262D01*
X24411433Y-55861181D01*
X24871052Y-56320800D01*
X23668971Y-57522881D01*
X23668971Y-57522881D01*
G37*
G36*
X24022524Y-57876434D02*
X23562905Y-57416815D01*
X24764986Y-56214734D01*
X25224605Y-56674353D01*
X24022524Y-57876434D01*
X24022524Y-57876434D01*
G37*
G36*
X24376078Y-58229988D02*
X23916459Y-57770369D01*
X25118540Y-56568288D01*
X25578159Y-57027907D01*
X24376078Y-58229988D01*
X24376078Y-58229988D01*
G37*
G36*
X24729631Y-58583541D02*
X24270012Y-58123922D01*
X25472093Y-56921841D01*
X25931712Y-57381460D01*
X24729631Y-58583541D01*
X24729631Y-58583541D01*
G37*
G36*
X25083185Y-58937095D02*
X24623566Y-58477476D01*
X25825647Y-57275395D01*
X26285266Y-57735014D01*
X25083185Y-58937095D01*
X25083185Y-58937095D01*
G37*
G36*
X25436738Y-59290648D02*
X24977119Y-58831029D01*
X26179200Y-57628948D01*
X26638819Y-58088567D01*
X25436738Y-59290648D01*
X25436738Y-59290648D01*
G37*
G36*
X25790291Y-59644201D02*
X25330672Y-59184582D01*
X26532753Y-57982501D01*
X26992372Y-58442120D01*
X25790291Y-59644201D01*
X25790291Y-59644201D01*
G37*
G36*
X26143845Y-59997755D02*
X25684226Y-59538136D01*
X26886307Y-58336055D01*
X27345926Y-58795674D01*
X26143845Y-59997755D01*
X26143845Y-59997755D01*
G37*
G36*
X26497398Y-60351308D02*
X26037779Y-59891689D01*
X27239860Y-58689608D01*
X27699479Y-59149227D01*
X26497398Y-60351308D01*
X26497398Y-60351308D01*
G37*
G36*
X29962221Y-59891689D02*
X29502602Y-60351308D01*
X28300521Y-59149227D01*
X28760140Y-58689608D01*
X29962221Y-59891689D01*
X29962221Y-59891689D01*
G37*
G36*
X30315774Y-59538136D02*
X29856155Y-59997755D01*
X28654074Y-58795674D01*
X29113693Y-58336055D01*
X30315774Y-59538136D01*
X30315774Y-59538136D01*
G37*
G36*
X30669328Y-59184582D02*
X30209709Y-59644201D01*
X29007628Y-58442120D01*
X29467247Y-57982501D01*
X30669328Y-59184582D01*
X30669328Y-59184582D01*
G37*
G36*
X31022881Y-58831029D02*
X30563262Y-59290648D01*
X29361181Y-58088567D01*
X29820800Y-57628948D01*
X31022881Y-58831029D01*
X31022881Y-58831029D01*
G37*
G36*
X31376434Y-58477476D02*
X30916815Y-58937095D01*
X29714734Y-57735014D01*
X30174353Y-57275395D01*
X31376434Y-58477476D01*
X31376434Y-58477476D01*
G37*
G36*
X31729988Y-58123922D02*
X31270369Y-58583541D01*
X30068288Y-57381460D01*
X30527907Y-56921841D01*
X31729988Y-58123922D01*
X31729988Y-58123922D01*
G37*
G36*
X32083541Y-57770369D02*
X31623922Y-58229988D01*
X30421841Y-57027907D01*
X30881460Y-56568288D01*
X32083541Y-57770369D01*
X32083541Y-57770369D01*
G37*
G36*
X32437095Y-57416815D02*
X31977476Y-57876434D01*
X30775395Y-56674353D01*
X31235014Y-56214734D01*
X32437095Y-57416815D01*
X32437095Y-57416815D01*
G37*
G36*
X32790648Y-57063262D02*
X32331029Y-57522881D01*
X31128948Y-56320800D01*
X31588567Y-55861181D01*
X32790648Y-57063262D01*
X32790648Y-57063262D01*
G37*
G36*
X33144201Y-56709709D02*
X32684582Y-57169328D01*
X31482501Y-55967247D01*
X31942120Y-55507628D01*
X33144201Y-56709709D01*
X33144201Y-56709709D01*
G37*
G36*
X33497755Y-56356155D02*
X33038136Y-56815774D01*
X31836055Y-55613693D01*
X32295674Y-55154074D01*
X33497755Y-56356155D01*
X33497755Y-56356155D01*
G37*
G36*
X33851308Y-56002602D02*
X33391689Y-56462221D01*
X32189608Y-55260140D01*
X32649227Y-54800521D01*
X33851308Y-56002602D01*
X33851308Y-56002602D01*
G37*
G36*
X32649227Y-54199479D02*
X32189608Y-53739860D01*
X33391689Y-52537779D01*
X33851308Y-52997398D01*
X32649227Y-54199479D01*
X32649227Y-54199479D01*
G37*
G36*
X32295674Y-53845926D02*
X31836055Y-53386307D01*
X33038136Y-52184226D01*
X33497755Y-52643845D01*
X32295674Y-53845926D01*
X32295674Y-53845926D01*
G37*
G36*
X31942120Y-53492372D02*
X31482501Y-53032753D01*
X32684582Y-51830672D01*
X33144201Y-52290291D01*
X31942120Y-53492372D01*
X31942120Y-53492372D01*
G37*
G36*
X31588567Y-53138819D02*
X31128948Y-52679200D01*
X32331029Y-51477119D01*
X32790648Y-51936738D01*
X31588567Y-53138819D01*
X31588567Y-53138819D01*
G37*
G36*
X31235014Y-52785266D02*
X30775395Y-52325647D01*
X31977476Y-51123566D01*
X32437095Y-51583185D01*
X31235014Y-52785266D01*
X31235014Y-52785266D01*
G37*
G36*
X30881460Y-52431712D02*
X30421841Y-51972093D01*
X31623922Y-50770012D01*
X32083541Y-51229631D01*
X30881460Y-52431712D01*
X30881460Y-52431712D01*
G37*
G36*
X30527907Y-52078159D02*
X30068288Y-51618540D01*
X31270369Y-50416459D01*
X31729988Y-50876078D01*
X30527907Y-52078159D01*
X30527907Y-52078159D01*
G37*
G36*
X30174353Y-51724605D02*
X29714734Y-51264986D01*
X30916815Y-50062905D01*
X31376434Y-50522524D01*
X30174353Y-51724605D01*
X30174353Y-51724605D01*
G37*
G36*
X29820800Y-51371052D02*
X29361181Y-50911433D01*
X30563262Y-49709352D01*
X31022881Y-50168971D01*
X29820800Y-51371052D01*
X29820800Y-51371052D01*
G37*
G36*
X29467247Y-51017499D02*
X29007628Y-50557880D01*
X30209709Y-49355799D01*
X30669328Y-49815418D01*
X29467247Y-51017499D01*
X29467247Y-51017499D01*
G37*
G36*
X29113693Y-50663945D02*
X28654074Y-50204326D01*
X29856155Y-49002245D01*
X30315774Y-49461864D01*
X29113693Y-50663945D01*
X29113693Y-50663945D01*
G37*
G36*
X28760140Y-50310392D02*
X28300521Y-49850773D01*
X29502602Y-48648692D01*
X29962221Y-49108311D01*
X28760140Y-50310392D01*
X28760140Y-50310392D01*
G37*
G36*
X27699479Y-49850773D02*
X27239860Y-50310392D01*
X26037779Y-49108311D01*
X26497398Y-48648692D01*
X27699479Y-49850773D01*
X27699479Y-49850773D01*
G37*
G36*
X27345926Y-50204326D02*
X26886307Y-50663945D01*
X25684226Y-49461864D01*
X26143845Y-49002245D01*
X27345926Y-50204326D01*
X27345926Y-50204326D01*
G37*
G36*
X26992372Y-50557880D02*
X26532753Y-51017499D01*
X25330672Y-49815418D01*
X25790291Y-49355799D01*
X26992372Y-50557880D01*
X26992372Y-50557880D01*
G37*
G36*
X26638819Y-50911433D02*
X26179200Y-51371052D01*
X24977119Y-50168971D01*
X25436738Y-49709352D01*
X26638819Y-50911433D01*
X26638819Y-50911433D01*
G37*
G36*
X26285266Y-51264986D02*
X25825647Y-51724605D01*
X24623566Y-50522524D01*
X25083185Y-50062905D01*
X26285266Y-51264986D01*
X26285266Y-51264986D01*
G37*
G36*
X25931712Y-51618540D02*
X25472093Y-52078159D01*
X24270012Y-50876078D01*
X24729631Y-50416459D01*
X25931712Y-51618540D01*
X25931712Y-51618540D01*
G37*
G36*
X25578159Y-51972093D02*
X25118540Y-52431712D01*
X23916459Y-51229631D01*
X24376078Y-50770012D01*
X25578159Y-51972093D01*
X25578159Y-51972093D01*
G37*
G36*
X25224605Y-52325647D02*
X24764986Y-52785266D01*
X23562905Y-51583185D01*
X24022524Y-51123566D01*
X25224605Y-52325647D01*
X25224605Y-52325647D01*
G37*
G36*
X24871052Y-52679200D02*
X24411433Y-53138819D01*
X23209352Y-51936738D01*
X23668971Y-51477119D01*
X24871052Y-52679200D01*
X24871052Y-52679200D01*
G37*
G36*
X24517499Y-53032753D02*
X24057880Y-53492372D01*
X22855799Y-52290291D01*
X23315418Y-51830672D01*
X24517499Y-53032753D01*
X24517499Y-53032753D01*
G37*
G36*
X24163945Y-53386307D02*
X23704326Y-53845926D01*
X22502245Y-52643845D01*
X22961864Y-52184226D01*
X24163945Y-53386307D01*
X24163945Y-53386307D01*
G37*
G36*
X23810392Y-53739860D02*
X23350773Y-54199479D01*
X22148692Y-52997398D01*
X22608311Y-52537779D01*
X23810392Y-53739860D01*
X23810392Y-53739860D01*
G37*
D23*
X7090000Y-42000000D03*
X9000000Y-42000000D03*
X10910000Y-42000000D03*
D24*
X14000000Y-20600000D03*
X4000000Y-20600000D03*
D15*
X39555000Y-41700000D03*
X40825000Y-41700000D03*
X42095000Y-41700000D03*
X43365000Y-41700000D03*
X44635000Y-41700000D03*
X45905000Y-41700000D03*
X47175000Y-41700000D03*
X48445000Y-41700000D03*
X48445000Y-36300000D03*
X47175000Y-36300000D03*
X45905000Y-36300000D03*
X44635000Y-36300000D03*
X43365000Y-36300000D03*
X42095000Y-36300000D03*
X40825000Y-36300000D03*
X39555000Y-36300000D03*
X51555000Y-41700000D03*
X52825000Y-41700000D03*
X54095000Y-41700000D03*
X55365000Y-41700000D03*
X56635000Y-41700000D03*
X57905000Y-41700000D03*
X59175000Y-41700000D03*
X60445000Y-41700000D03*
X60445000Y-36300000D03*
X59175000Y-36300000D03*
X57905000Y-36300000D03*
X56635000Y-36300000D03*
X55365000Y-36300000D03*
X54095000Y-36300000D03*
X52825000Y-36300000D03*
X51555000Y-36300000D03*
X27555000Y-41700000D03*
X28825000Y-41700000D03*
X30095000Y-41700000D03*
X31365000Y-41700000D03*
X32635000Y-41700000D03*
X33905000Y-41700000D03*
X35175000Y-41700000D03*
X36445000Y-41700000D03*
X36445000Y-36300000D03*
X35175000Y-36300000D03*
X33905000Y-36300000D03*
X32635000Y-36300000D03*
X31365000Y-36300000D03*
X30095000Y-36300000D03*
X28825000Y-36300000D03*
X27555000Y-36300000D03*
D25*
X71450000Y-31950000D03*
X71450000Y-31300000D03*
X71450000Y-30650000D03*
X71450000Y-30000000D03*
X71450000Y-29350000D03*
X71450000Y-28700000D03*
X71450000Y-28050000D03*
X64550000Y-28050000D03*
X64550000Y-28700000D03*
X64550000Y-29350000D03*
X64550000Y-30000000D03*
X64550000Y-30650000D03*
X64550000Y-31300000D03*
X64550000Y-31950000D03*
D26*
X69000000Y-15000000D03*
D27*
X66500000Y-15000000D03*
D26*
X40000000Y-75000000D03*
D27*
X37500000Y-75000000D03*
D11*
X43400000Y-72500000D03*
X46600000Y-72500000D03*
X43400000Y-76500000D03*
X46600000Y-76500000D03*
X40100000Y-70000000D03*
X36900000Y-70000000D03*
D28*
X8500000Y-75500000D03*
D29*
X8500000Y-72960000D03*
D22*
X1700000Y-45000000D03*
X7300000Y-45000000D03*
X1700000Y-50000000D03*
X7300000Y-50000000D03*
D30*
X8810000Y-65040000D03*
X8810000Y-62500000D03*
X8810000Y-59960000D03*
X1190000Y-59960000D03*
X1190000Y-62500000D03*
X1190000Y-65040000D03*
D31*
X11450980Y-51000000D03*
X13549020Y-51000000D03*
X11450980Y-45000000D03*
X13549020Y-45000000D03*
X11450980Y-48000000D03*
X13549020Y-48000000D03*
D14*
X15600000Y-50500000D03*
X17400000Y-50500000D03*
X15600000Y-45500000D03*
X17400000Y-45500000D03*
X15600000Y-48000000D03*
X17400000Y-48000000D03*
D12*
X72500000Y-43600000D03*
X72500000Y-45400000D03*
D14*
X27100000Y-48000000D03*
X28900000Y-48000000D03*
D12*
X34500000Y-53600000D03*
X34500000Y-55400000D03*
X21500000Y-55400000D03*
X21500000Y-53600000D03*
D31*
X17549020Y-66500000D03*
X15450980Y-66500000D03*
X65000000Y-6049020D03*
X65000000Y-3950980D03*
D14*
X13900000Y-66500000D03*
X12100000Y-66500000D03*
D12*
X67500000Y-4100000D03*
X67500000Y-5900000D03*
D32*
X25500000Y-47500000D03*
X21000000Y-48000000D03*
X19000000Y-48000000D03*
X67000000Y-52000000D03*
X67500000Y-50000000D03*
X68000000Y-48000000D03*
X50500000Y-44500000D03*
X26500000Y-44500000D03*
X38500000Y-44500000D03*
M02*
