G04 #@! TF.FileFunction,Legend,Top*
%FSLAX46Y46*%
G04 Gerber Fmt 4.6, Leading zero omitted, Abs format (unit mm)*
G04 Created by KiCad (PCBNEW 4.0.4-stable) date 11/06/16 21:55:52*
%MOMM*%
%LPD*%
G01*
G04 APERTURE LIST*
%ADD10C,0.100000*%
%ADD11C,0.300000*%
%ADD12C,0.200000*%
%ADD13C,0.500000*%
%ADD14C,0.150000*%
%ADD15C,0.101600*%
G04 APERTURE END LIST*
D10*
D11*
X65035714Y-77964285D02*
X65107143Y-78035714D01*
X65178571Y-78250000D01*
X65178571Y-78392857D01*
X65107143Y-78607142D01*
X64964286Y-78750000D01*
X64821429Y-78821428D01*
X64535714Y-78892857D01*
X64321429Y-78892857D01*
X64035714Y-78821428D01*
X63892857Y-78750000D01*
X63750000Y-78607142D01*
X63678571Y-78392857D01*
X63678571Y-78250000D01*
X63750000Y-78035714D01*
X63821429Y-77964285D01*
X64750000Y-77392857D02*
X64750000Y-76678571D01*
X65178571Y-77535714D02*
X63678571Y-77035714D01*
X65178571Y-76535714D01*
X65178571Y-76035714D02*
X63678571Y-76035714D01*
X65178571Y-75178571D01*
X63678571Y-75178571D01*
X71475000Y-25642857D02*
X71403571Y-25785714D01*
X71403571Y-26000000D01*
X71475000Y-26214285D01*
X71617857Y-26357143D01*
X71760714Y-26428571D01*
X72046429Y-26500000D01*
X72260714Y-26500000D01*
X72546429Y-26428571D01*
X72689286Y-26357143D01*
X72832143Y-26214285D01*
X72903571Y-26000000D01*
X72903571Y-25857143D01*
X72832143Y-25642857D01*
X72760714Y-25571428D01*
X72260714Y-25571428D01*
X72260714Y-25857143D01*
X72903571Y-24928571D02*
X71403571Y-24928571D01*
X72903571Y-24071428D01*
X71403571Y-24071428D01*
X72903571Y-23357142D02*
X71403571Y-23357142D01*
X71403571Y-22999999D01*
X71475000Y-22785714D01*
X71617857Y-22642856D01*
X71760714Y-22571428D01*
X72046429Y-22499999D01*
X72260714Y-22499999D01*
X72546429Y-22571428D01*
X72689286Y-22642856D01*
X72832143Y-22785714D01*
X72903571Y-22999999D01*
X72903571Y-23357142D01*
X74667857Y-26178571D02*
X74739286Y-25964285D01*
X74810714Y-25892857D01*
X74953571Y-25821428D01*
X75167857Y-25821428D01*
X75310714Y-25892857D01*
X75382143Y-25964285D01*
X75453571Y-26107143D01*
X75453571Y-26678571D01*
X73953571Y-26678571D01*
X73953571Y-26178571D01*
X74025000Y-26035714D01*
X74096429Y-25964285D01*
X74239286Y-25892857D01*
X74382143Y-25892857D01*
X74525000Y-25964285D01*
X74596429Y-26035714D01*
X74667857Y-26178571D01*
X74667857Y-26678571D01*
X75025000Y-25250000D02*
X75025000Y-24535714D01*
X75453571Y-25392857D02*
X73953571Y-24892857D01*
X75453571Y-24392857D01*
X73953571Y-24107143D02*
X73953571Y-23250000D01*
X75453571Y-23678571D02*
X73953571Y-23678571D01*
X73953571Y-22964286D02*
X73953571Y-22107143D01*
X75453571Y-22535714D02*
X73953571Y-22535714D01*
X71892857Y-57678570D02*
X71892857Y-57178570D01*
X72678571Y-56964284D02*
X72678571Y-57678570D01*
X71178571Y-57678570D01*
X71178571Y-56964284D01*
X71178571Y-56464284D02*
X72678571Y-55464284D01*
X71178571Y-55464284D02*
X72678571Y-56464284D01*
X71178571Y-53464285D02*
X71178571Y-53321428D01*
X71250000Y-53178571D01*
X71321429Y-53107142D01*
X71464286Y-53035713D01*
X71750000Y-52964285D01*
X72107143Y-52964285D01*
X72392857Y-53035713D01*
X72535714Y-53107142D01*
X72607143Y-53178571D01*
X72678571Y-53321428D01*
X72678571Y-53464285D01*
X72607143Y-53607142D01*
X72535714Y-53678571D01*
X72392857Y-53749999D01*
X72107143Y-53821428D01*
X71750000Y-53821428D01*
X71464286Y-53749999D01*
X71321429Y-53678571D01*
X71250000Y-53607142D01*
X71178571Y-53464285D01*
X72678571Y-50392857D02*
X72678571Y-51250000D01*
X72678571Y-50821428D02*
X71178571Y-50821428D01*
X71392857Y-50964285D01*
X71535714Y-51107143D01*
X71607143Y-51250000D01*
X71321429Y-48678572D02*
X71250000Y-48607143D01*
X71178571Y-48464286D01*
X71178571Y-48107143D01*
X71250000Y-47964286D01*
X71321429Y-47892857D01*
X71464286Y-47821429D01*
X71607143Y-47821429D01*
X71821429Y-47892857D01*
X72678571Y-48750000D01*
X72678571Y-47821429D01*
X71178571Y-46178572D02*
X71178571Y-45250001D01*
X71750000Y-45750001D01*
X71750000Y-45535715D01*
X71821429Y-45392858D01*
X71892857Y-45321429D01*
X72035714Y-45250001D01*
X72392857Y-45250001D01*
X72535714Y-45321429D01*
X72607143Y-45392858D01*
X72678571Y-45535715D01*
X72678571Y-45964287D01*
X72607143Y-46107144D01*
X72535714Y-46178572D01*
X18785715Y-63178571D02*
X19714286Y-63178571D01*
X19214286Y-63750000D01*
X19428572Y-63750000D01*
X19571429Y-63821429D01*
X19642858Y-63892857D01*
X19714286Y-64035714D01*
X19714286Y-64392857D01*
X19642858Y-64535714D01*
X19571429Y-64607143D01*
X19428572Y-64678571D01*
X19000000Y-64678571D01*
X18857143Y-64607143D01*
X18785715Y-64535714D01*
X20357143Y-64535714D02*
X20428571Y-64607143D01*
X20357143Y-64678571D01*
X20285714Y-64607143D01*
X20357143Y-64535714D01*
X20357143Y-64678571D01*
X20928572Y-63178571D02*
X21857143Y-63178571D01*
X21357143Y-63750000D01*
X21571429Y-63750000D01*
X21714286Y-63821429D01*
X21785715Y-63892857D01*
X21857143Y-64035714D01*
X21857143Y-64392857D01*
X21785715Y-64535714D01*
X21714286Y-64607143D01*
X21571429Y-64678571D01*
X21142857Y-64678571D01*
X21000000Y-64607143D01*
X20928572Y-64535714D01*
X22285714Y-63178571D02*
X22785714Y-64678571D01*
X23285714Y-63178571D01*
X19107143Y-61892857D02*
X19321429Y-61964286D01*
X19392857Y-62035714D01*
X19464286Y-62178571D01*
X19464286Y-62392857D01*
X19392857Y-62535714D01*
X19321429Y-62607143D01*
X19178571Y-62678571D01*
X18607143Y-62678571D01*
X18607143Y-61178571D01*
X19107143Y-61178571D01*
X19250000Y-61250000D01*
X19321429Y-61321429D01*
X19392857Y-61464286D01*
X19392857Y-61607143D01*
X19321429Y-61750000D01*
X19250000Y-61821429D01*
X19107143Y-61892857D01*
X18607143Y-61892857D01*
X18642857Y-60250000D02*
X19357143Y-60250000D01*
X18500000Y-60678571D02*
X19000000Y-59178571D01*
X19500000Y-60678571D01*
X10678572Y-74178571D02*
X10178572Y-73464286D01*
X9821429Y-74178571D02*
X9821429Y-72678571D01*
X10392857Y-72678571D01*
X10535715Y-72750000D01*
X10607143Y-72821429D01*
X10678572Y-72964286D01*
X10678572Y-73178571D01*
X10607143Y-73321429D01*
X10535715Y-73392857D01*
X10392857Y-73464286D01*
X9821429Y-73464286D01*
X11250000Y-74107143D02*
X11464286Y-74178571D01*
X11821429Y-74178571D01*
X11964286Y-74107143D01*
X12035715Y-74035714D01*
X12107143Y-73892857D01*
X12107143Y-73750000D01*
X12035715Y-73607143D01*
X11964286Y-73535714D01*
X11821429Y-73464286D01*
X11535715Y-73392857D01*
X11392857Y-73321429D01*
X11321429Y-73250000D01*
X11250000Y-73107143D01*
X11250000Y-72964286D01*
X11321429Y-72821429D01*
X11392857Y-72750000D01*
X11535715Y-72678571D01*
X11892857Y-72678571D01*
X12107143Y-72750000D01*
X12535714Y-72678571D02*
X13392857Y-72678571D01*
X12964286Y-74178571D02*
X12964286Y-72678571D01*
X10071429Y-67821429D02*
X10142858Y-67750000D01*
X10285715Y-67678571D01*
X10642858Y-67678571D01*
X10785715Y-67750000D01*
X10857144Y-67821429D01*
X10928572Y-67964286D01*
X10928572Y-68107143D01*
X10857144Y-68321429D01*
X10000001Y-69178571D01*
X10928572Y-69178571D01*
X10928572Y-64178571D02*
X10071429Y-64178571D01*
X10500001Y-64178571D02*
X10500001Y-62678571D01*
X10357144Y-62892857D01*
X10214286Y-63035714D01*
X10071429Y-63107143D01*
X37607143Y-74428572D02*
X37678571Y-74214286D01*
X37678571Y-73857143D01*
X37607143Y-73714286D01*
X37535714Y-73642857D01*
X37392857Y-73571429D01*
X37250000Y-73571429D01*
X37107143Y-73642857D01*
X37035714Y-73714286D01*
X36964286Y-73857143D01*
X36892857Y-74142857D01*
X36821429Y-74285715D01*
X36750000Y-74357143D01*
X36607143Y-74428572D01*
X36464286Y-74428572D01*
X36321429Y-74357143D01*
X36250000Y-74285715D01*
X36178571Y-74142857D01*
X36178571Y-73785715D01*
X36250000Y-73571429D01*
X36178571Y-73142858D02*
X36178571Y-72285715D01*
X37678571Y-72714286D02*
X36178571Y-72714286D01*
X37107143Y-71785715D02*
X37107143Y-70642858D01*
X37678571Y-69214286D02*
X37678571Y-69928572D01*
X36178571Y-69928572D01*
X37678571Y-68714286D02*
X36178571Y-68714286D01*
X37678571Y-68000000D02*
X36178571Y-68000000D01*
X37678571Y-67142857D01*
X36178571Y-67142857D01*
X37678571Y-66428571D02*
X36178571Y-66428571D01*
X37678571Y-65571428D02*
X36821429Y-66214285D01*
X36178571Y-65571428D02*
X37035714Y-66428571D01*
X40571429Y-74250000D02*
X41285715Y-74250000D01*
X40428572Y-74678571D02*
X40928572Y-73178571D01*
X41428572Y-74678571D01*
X41928572Y-74678571D02*
X41928572Y-73178571D01*
X42285715Y-73178571D01*
X42500000Y-73250000D01*
X42642858Y-73392857D01*
X42714286Y-73535714D01*
X42785715Y-73821429D01*
X42785715Y-74035714D01*
X42714286Y-74321429D01*
X42642858Y-74464286D01*
X42500000Y-74607143D01*
X42285715Y-74678571D01*
X41928572Y-74678571D01*
X43428572Y-74678571D02*
X43428572Y-73178571D01*
X43785715Y-73178571D01*
X44000000Y-73250000D01*
X44142858Y-73392857D01*
X44214286Y-73535714D01*
X44285715Y-73821429D01*
X44285715Y-74035714D01*
X44214286Y-74321429D01*
X44142858Y-74464286D01*
X44000000Y-74607143D01*
X43785715Y-74678571D01*
X43428572Y-74678571D01*
X44571429Y-74821429D02*
X45714286Y-74821429D01*
X46000000Y-74607143D02*
X46214286Y-74678571D01*
X46571429Y-74678571D01*
X46714286Y-74607143D01*
X46785715Y-74535714D01*
X46857143Y-74392857D01*
X46857143Y-74250000D01*
X46785715Y-74107143D01*
X46714286Y-74035714D01*
X46571429Y-73964286D01*
X46285715Y-73892857D01*
X46142857Y-73821429D01*
X46071429Y-73750000D01*
X46000000Y-73607143D01*
X46000000Y-73464286D01*
X46071429Y-73321429D01*
X46142857Y-73250000D01*
X46285715Y-73178571D01*
X46642857Y-73178571D01*
X46857143Y-73250000D01*
X47500000Y-73892857D02*
X48000000Y-73892857D01*
X48214286Y-74678571D02*
X47500000Y-74678571D01*
X47500000Y-73178571D01*
X48214286Y-73178571D01*
X49571429Y-74678571D02*
X48857143Y-74678571D01*
X48857143Y-73178571D01*
D12*
X18100000Y-81000000D02*
X7600000Y-81000000D01*
X30600000Y-81000000D02*
X20100000Y-81000000D01*
X43100000Y-81000000D02*
X32600000Y-81000000D01*
X55600000Y-81000000D02*
X45100000Y-81000000D01*
X64000000Y-74500000D02*
X64000000Y-85000000D01*
X64000000Y-62000000D02*
X64000000Y-72500000D01*
D11*
X892858Y-20292857D02*
X1107144Y-20364286D01*
X1178572Y-20435714D01*
X1250001Y-20578571D01*
X1250001Y-20792857D01*
X1178572Y-20935714D01*
X1107144Y-21007143D01*
X964286Y-21078571D01*
X392858Y-21078571D01*
X392858Y-19578571D01*
X892858Y-19578571D01*
X1035715Y-19650000D01*
X1107144Y-19721429D01*
X1178572Y-19864286D01*
X1178572Y-20007143D01*
X1107144Y-20150000D01*
X1035715Y-20221429D01*
X892858Y-20292857D01*
X392858Y-20292857D01*
X1821429Y-20650000D02*
X2535715Y-20650000D01*
X1678572Y-21078571D02*
X2178572Y-19578571D01*
X2678572Y-21078571D01*
X2964286Y-19578571D02*
X3821429Y-19578571D01*
X3392858Y-21078571D02*
X3392858Y-19578571D01*
X4107143Y-19578571D02*
X4964286Y-19578571D01*
X4535715Y-21078571D02*
X4535715Y-19578571D01*
X5464286Y-20507143D02*
X6607143Y-20507143D01*
X6035714Y-21078571D02*
X6035714Y-19935714D01*
X1357143Y-8250000D02*
X1214286Y-8178571D01*
X1000000Y-8178571D01*
X785715Y-8250000D01*
X642857Y-8392857D01*
X571429Y-8535714D01*
X500000Y-8821429D01*
X500000Y-9035714D01*
X571429Y-9321429D01*
X642857Y-9464286D01*
X785715Y-9607143D01*
X1000000Y-9678571D01*
X1142857Y-9678571D01*
X1357143Y-9607143D01*
X1428572Y-9535714D01*
X1428572Y-9035714D01*
X1142857Y-9035714D01*
X2071429Y-9678571D02*
X2071429Y-8178571D01*
X2928572Y-9678571D01*
X2928572Y-8178571D01*
X3642858Y-9678571D02*
X3642858Y-8178571D01*
X4000001Y-8178571D01*
X4214286Y-8250000D01*
X4357144Y-8392857D01*
X4428572Y-8535714D01*
X4500001Y-8821429D01*
X4500001Y-9035714D01*
X4428572Y-9321429D01*
X4357144Y-9464286D01*
X4214286Y-9607143D01*
X4000001Y-9678571D01*
X3642858Y-9678571D01*
X7750000Y-52357143D02*
X7678571Y-52500000D01*
X7678571Y-52714286D01*
X7750000Y-52928571D01*
X7892857Y-53071429D01*
X8035714Y-53142857D01*
X8321429Y-53214286D01*
X8535714Y-53214286D01*
X8821429Y-53142857D01*
X8964286Y-53071429D01*
X9107143Y-52928571D01*
X9178571Y-52714286D01*
X9178571Y-52571429D01*
X9107143Y-52357143D01*
X9035714Y-52285714D01*
X8535714Y-52285714D01*
X8535714Y-52571429D01*
X9178571Y-51642857D02*
X7678571Y-51642857D01*
X7678571Y-51285714D01*
X7750000Y-51071429D01*
X7892857Y-50928571D01*
X8035714Y-50857143D01*
X8321429Y-50785714D01*
X8535714Y-50785714D01*
X8821429Y-50857143D01*
X8964286Y-50928571D01*
X9107143Y-51071429D01*
X9178571Y-51285714D01*
X9178571Y-51642857D01*
X48571429Y-9178571D02*
X48571429Y-7678571D01*
X49428572Y-9178571D01*
X49428572Y-7678571D01*
X22571429Y-7678571D02*
X22571429Y-6178571D01*
X23428572Y-7678571D01*
X23428572Y-6178571D01*
D12*
X10100000Y-79000000D02*
X8100000Y-79000000D01*
X9100000Y-80000000D02*
X10100000Y-79000000D01*
X8100000Y-79000000D02*
X9100000Y-80000000D01*
D11*
X10928572Y-79892857D02*
X11428572Y-79892857D01*
X11642858Y-80678571D02*
X10928572Y-80678571D01*
X10928572Y-79178571D01*
X11642858Y-79178571D01*
X12285715Y-80678571D02*
X12285715Y-79178571D01*
X13142858Y-80678571D01*
X13142858Y-79178571D01*
X14714287Y-80535714D02*
X14642858Y-80607143D01*
X14428572Y-80678571D01*
X14285715Y-80678571D01*
X14071430Y-80607143D01*
X13928572Y-80464286D01*
X13857144Y-80321429D01*
X13785715Y-80035714D01*
X13785715Y-79821429D01*
X13857144Y-79535714D01*
X13928572Y-79392857D01*
X14071430Y-79250000D01*
X14285715Y-79178571D01*
X14428572Y-79178571D01*
X14642858Y-79250000D01*
X14714287Y-79321429D01*
X15000001Y-80821429D02*
X16142858Y-80821429D01*
X16428572Y-80250000D02*
X17142858Y-80250000D01*
X16285715Y-80678571D02*
X16785715Y-79178571D01*
X17285715Y-80678571D01*
X47321429Y-79892857D02*
X47821429Y-79892857D01*
X48035715Y-80678571D02*
X47321429Y-80678571D01*
X47321429Y-79178571D01*
X48035715Y-79178571D01*
X48678572Y-80678571D02*
X48678572Y-79178571D01*
X49535715Y-80678571D01*
X49535715Y-79178571D01*
X51107144Y-80535714D02*
X51035715Y-80607143D01*
X50821429Y-80678571D01*
X50678572Y-80678571D01*
X50464287Y-80607143D01*
X50321429Y-80464286D01*
X50250001Y-80321429D01*
X50178572Y-80035714D01*
X50178572Y-79821429D01*
X50250001Y-79535714D01*
X50321429Y-79392857D01*
X50464287Y-79250000D01*
X50678572Y-79178571D01*
X50821429Y-79178571D01*
X51035715Y-79250000D01*
X51107144Y-79321429D01*
X51392858Y-80821429D02*
X52535715Y-80821429D01*
X53392858Y-79892857D02*
X53607144Y-79964286D01*
X53678572Y-80035714D01*
X53750001Y-80178571D01*
X53750001Y-80392857D01*
X53678572Y-80535714D01*
X53607144Y-80607143D01*
X53464286Y-80678571D01*
X52892858Y-80678571D01*
X52892858Y-79178571D01*
X53392858Y-79178571D01*
X53535715Y-79250000D01*
X53607144Y-79321429D01*
X53678572Y-79464286D01*
X53678572Y-79607143D01*
X53607144Y-79750000D01*
X53535715Y-79821429D01*
X53392858Y-79892857D01*
X52892858Y-79892857D01*
X35000000Y-80678571D02*
X34285714Y-80678571D01*
X34285714Y-79178571D01*
X35500000Y-80678571D02*
X35500000Y-79178571D01*
X36214286Y-80678571D02*
X36214286Y-79178571D01*
X36714286Y-80250000D01*
X37214286Y-79178571D01*
X37214286Y-80678571D01*
X37928572Y-80678571D02*
X37928572Y-79178571D01*
X38428572Y-79178571D02*
X39285715Y-79178571D01*
X38857144Y-80678571D02*
X38857144Y-79178571D01*
X39428572Y-80821429D02*
X40571429Y-80821429D01*
X41428572Y-79892857D02*
X41642858Y-79964286D01*
X41714286Y-80035714D01*
X41785715Y-80178571D01*
X41785715Y-80392857D01*
X41714286Y-80535714D01*
X41642858Y-80607143D01*
X41500000Y-80678571D01*
X40928572Y-80678571D01*
X40928572Y-79178571D01*
X41428572Y-79178571D01*
X41571429Y-79250000D01*
X41642858Y-79321429D01*
X41714286Y-79464286D01*
X41714286Y-79607143D01*
X41642858Y-79750000D01*
X41571429Y-79821429D01*
X41428572Y-79892857D01*
X40928572Y-79892857D01*
X22607143Y-80678571D02*
X21892857Y-80678571D01*
X21892857Y-79178571D01*
X23107143Y-80678571D02*
X23107143Y-79178571D01*
X23821429Y-80678571D02*
X23821429Y-79178571D01*
X24321429Y-80250000D01*
X24821429Y-79178571D01*
X24821429Y-80678571D01*
X25535715Y-80678571D02*
X25535715Y-79178571D01*
X26035715Y-79178571D02*
X26892858Y-79178571D01*
X26464287Y-80678571D02*
X26464287Y-79178571D01*
X27035715Y-80821429D02*
X28178572Y-80821429D01*
X28464286Y-80250000D02*
X29178572Y-80250000D01*
X28321429Y-80678571D02*
X28821429Y-79178571D01*
X29321429Y-80678571D01*
D12*
X6000000Y-90000000D02*
G75*
G03X6000000Y-90000000I-3000000J0D01*
G01*
X76000000Y-90000000D02*
G75*
G03X76000000Y-90000000I-3000000J0D01*
G01*
X76000000Y-5000000D02*
G75*
G03X76000000Y-5000000I-3000000J0D01*
G01*
X6000000Y-5000000D02*
G75*
G03X6000000Y-5000000I-3000000J0D01*
G01*
D11*
X19821429Y-535714D02*
X21321429Y-535714D01*
X21321429Y-1107142D01*
X21250000Y-1250000D01*
X21178571Y-1321428D01*
X21035714Y-1392857D01*
X20821429Y-1392857D01*
X20678571Y-1321428D01*
X20607143Y-1250000D01*
X20535714Y-1107142D01*
X20535714Y-535714D01*
X21321429Y-2321428D02*
X21321429Y-2607142D01*
X21250000Y-2750000D01*
X21107143Y-2892857D01*
X20821429Y-2964285D01*
X20321429Y-2964285D01*
X20035714Y-2892857D01*
X19892857Y-2750000D01*
X19821429Y-2607142D01*
X19821429Y-2321428D01*
X19892857Y-2178571D01*
X20035714Y-2035714D01*
X20321429Y-1964285D01*
X20821429Y-1964285D01*
X21107143Y-2035714D01*
X21250000Y-2178571D01*
X21321429Y-2321428D01*
X21321429Y-3464286D02*
X19821429Y-3821429D01*
X20892857Y-4107143D01*
X19821429Y-4392857D01*
X21321429Y-4750000D01*
X20607143Y-5321429D02*
X20607143Y-5821429D01*
X19821429Y-6035715D02*
X19821429Y-5321429D01*
X21321429Y-5321429D01*
X21321429Y-6035715D01*
X19821429Y-7535715D02*
X20535714Y-7035715D01*
X19821429Y-6678572D02*
X21321429Y-6678572D01*
X21321429Y-7250000D01*
X21250000Y-7392858D01*
X21178571Y-7464286D01*
X21035714Y-7535715D01*
X20821429Y-7535715D01*
X20678571Y-7464286D01*
X20607143Y-7392858D01*
X20535714Y-7250000D01*
X20535714Y-6678572D01*
X49321429Y-1178571D02*
X49321429Y-1464285D01*
X49250000Y-1607143D01*
X49107143Y-1750000D01*
X48821429Y-1821428D01*
X48321429Y-1821428D01*
X48035714Y-1750000D01*
X47892857Y-1607143D01*
X47821429Y-1464285D01*
X47821429Y-1178571D01*
X47892857Y-1035714D01*
X48035714Y-892857D01*
X48321429Y-821428D01*
X48821429Y-821428D01*
X49107143Y-892857D01*
X49250000Y-1035714D01*
X49321429Y-1178571D01*
X49321429Y-2464286D02*
X48107143Y-2464286D01*
X47964286Y-2535714D01*
X47892857Y-2607143D01*
X47821429Y-2750000D01*
X47821429Y-3035714D01*
X47892857Y-3178572D01*
X47964286Y-3250000D01*
X48107143Y-3321429D01*
X49321429Y-3321429D01*
X49321429Y-3821429D02*
X49321429Y-4678572D01*
X47821429Y-4250001D02*
X49321429Y-4250001D01*
X48607143Y-6821429D02*
X48535714Y-7035715D01*
X48464286Y-7107143D01*
X48321429Y-7178572D01*
X48107143Y-7178572D01*
X47964286Y-7107143D01*
X47892857Y-7035715D01*
X47821429Y-6892857D01*
X47821429Y-6321429D01*
X49321429Y-6321429D01*
X49321429Y-6821429D01*
X49250000Y-6964286D01*
X49178571Y-7035715D01*
X49035714Y-7107143D01*
X48892857Y-7107143D01*
X48750000Y-7035715D01*
X48678571Y-6964286D01*
X48607143Y-6821429D01*
X48607143Y-6321429D01*
X45321429Y-1285714D02*
X45321429Y-1571428D01*
X45250000Y-1714286D01*
X45107143Y-1857143D01*
X44821429Y-1928571D01*
X44321429Y-1928571D01*
X44035714Y-1857143D01*
X43892857Y-1714286D01*
X43821429Y-1571428D01*
X43821429Y-1285714D01*
X43892857Y-1142857D01*
X44035714Y-1000000D01*
X44321429Y-928571D01*
X44821429Y-928571D01*
X45107143Y-1000000D01*
X45250000Y-1142857D01*
X45321429Y-1285714D01*
X45321429Y-2571429D02*
X44107143Y-2571429D01*
X43964286Y-2642857D01*
X43892857Y-2714286D01*
X43821429Y-2857143D01*
X43821429Y-3142857D01*
X43892857Y-3285715D01*
X43964286Y-3357143D01*
X44107143Y-3428572D01*
X45321429Y-3428572D01*
X45321429Y-3928572D02*
X45321429Y-4785715D01*
X43821429Y-4357144D02*
X45321429Y-4357144D01*
X44250000Y-6357143D02*
X44250000Y-7071429D01*
X43821429Y-6214286D02*
X45321429Y-6714286D01*
X43821429Y-7214286D01*
D13*
X13900862Y-75863604D02*
X17436396Y-79399138D01*
X19699138Y-77136396D02*
X16163604Y-73600862D01*
X63600000Y-61000000D02*
X63600000Y-62000000D01*
X63600000Y-62000000D02*
X67100000Y-62000000D01*
X63600000Y-73500000D02*
X63600000Y-72500000D01*
X63600000Y-72500000D02*
X67100000Y-72500000D01*
X67100000Y-61000000D02*
X67100000Y-73500000D01*
X69400000Y-65500000D02*
X69400000Y-61000000D01*
X69400000Y-69000000D02*
X69400000Y-73500000D01*
X69400000Y-65500000D02*
X74000000Y-65500000D01*
X69400000Y-69000000D02*
X74000000Y-69000000D01*
X74000000Y-73500000D02*
X74000000Y-61000000D01*
X63600000Y-61000000D02*
X76200000Y-61000000D01*
X76200000Y-61000000D02*
X76200000Y-73500000D01*
X63600000Y-73500000D02*
X76200000Y-73500000D01*
D14*
X12075000Y-18750000D02*
X12075000Y-31250000D01*
X12215000Y-18754000D02*
X12215000Y-31246000D01*
X12355000Y-18760000D02*
X12355000Y-31240000D01*
X12495000Y-18770000D02*
X12495000Y-31230000D01*
X12635000Y-18782000D02*
X12635000Y-31218000D01*
X12775000Y-18798000D02*
X12775000Y-31202000D01*
X12915000Y-18817000D02*
X12915000Y-31183000D01*
X13055000Y-18840000D02*
X13055000Y-31160000D01*
X13195000Y-18865000D02*
X13195000Y-31135000D01*
X13335000Y-18894000D02*
X13335000Y-31106000D01*
X13475000Y-18927000D02*
X13475000Y-24479000D01*
X13475000Y-25521000D02*
X13475000Y-31073000D01*
X13615000Y-18962000D02*
X13615000Y-24266000D01*
X13615000Y-25734000D02*
X13615000Y-31038000D01*
X13755000Y-19001000D02*
X13755000Y-24124000D01*
X13755000Y-25876000D02*
X13755000Y-30999000D01*
X13895000Y-19044000D02*
X13895000Y-24022000D01*
X13895000Y-25978000D02*
X13895000Y-30956000D01*
X14035000Y-19091000D02*
X14035000Y-23948000D01*
X14035000Y-26052000D02*
X14035000Y-30909000D01*
X14175000Y-19141000D02*
X14175000Y-23897000D01*
X14175000Y-26103000D02*
X14175000Y-30859000D01*
X14315000Y-19195000D02*
X14315000Y-23865000D01*
X14315000Y-26135000D02*
X14315000Y-30805000D01*
X14455000Y-19252000D02*
X14455000Y-23851000D01*
X14455000Y-26149000D02*
X14455000Y-30748000D01*
X14595000Y-19314000D02*
X14595000Y-23854000D01*
X14595000Y-26146000D02*
X14595000Y-30686000D01*
X14735000Y-19380000D02*
X14735000Y-23874000D01*
X14735000Y-26126000D02*
X14735000Y-30620000D01*
X14875000Y-19451000D02*
X14875000Y-23913000D01*
X14875000Y-26087000D02*
X14875000Y-30549000D01*
X15015000Y-19525000D02*
X15015000Y-23972000D01*
X15015000Y-26028000D02*
X15015000Y-30475000D01*
X15155000Y-19605000D02*
X15155000Y-24055000D01*
X15155000Y-25945000D02*
X15155000Y-30395000D01*
X15295000Y-19689000D02*
X15295000Y-24169000D01*
X15295000Y-25831000D02*
X15295000Y-30311000D01*
X15435000Y-19779000D02*
X15435000Y-24330000D01*
X15435000Y-25670000D02*
X15435000Y-30221000D01*
X15575000Y-19873000D02*
X15575000Y-24591000D01*
X15575000Y-25409000D02*
X15575000Y-30127000D01*
X15715000Y-19974000D02*
X15715000Y-30026000D01*
X15855000Y-20081000D02*
X15855000Y-29919000D01*
X15995000Y-20193000D02*
X15995000Y-29807000D01*
X16135000Y-20313000D02*
X16135000Y-29687000D01*
X16275000Y-20441000D02*
X16275000Y-29559000D01*
X16415000Y-20576000D02*
X16415000Y-29424000D01*
X16555000Y-20720000D02*
X16555000Y-29280000D01*
X16695000Y-20875000D02*
X16695000Y-29125000D01*
X16835000Y-21040000D02*
X16835000Y-28960000D01*
X16975000Y-21217000D02*
X16975000Y-28783000D01*
X17115000Y-21408000D02*
X17115000Y-28592000D01*
X17255000Y-21617000D02*
X17255000Y-28383000D01*
X17395000Y-21845000D02*
X17395000Y-28155000D01*
X17535000Y-22097000D02*
X17535000Y-27903000D01*
X17675000Y-22381000D02*
X17675000Y-27619000D01*
X17815000Y-22709000D02*
X17815000Y-27291000D01*
X17955000Y-23103000D02*
X17955000Y-26897000D01*
X18095000Y-23617000D02*
X18095000Y-26383000D01*
X18235000Y-24567000D02*
X18235000Y-25433000D01*
X15650000Y-25000000D02*
G75*
G03X15650000Y-25000000I-1150000J0D01*
G01*
X18287500Y-25000000D02*
G75*
G03X18287500Y-25000000I-6287500J0D01*
G01*
D13*
X31600000Y-80600000D02*
X30600000Y-80600000D01*
X30600000Y-80600000D02*
X30600000Y-84100000D01*
X19100000Y-80600000D02*
X20100000Y-80600000D01*
X20100000Y-80600000D02*
X20100000Y-84100000D01*
X31600000Y-84100000D02*
X19100000Y-84100000D01*
X27100000Y-86400000D02*
X31600000Y-86400000D01*
X23600000Y-86400000D02*
X19100000Y-86400000D01*
X27100000Y-86400000D02*
X27100000Y-91000000D01*
X23600000Y-86400000D02*
X23600000Y-91000000D01*
X19100000Y-91000000D02*
X31600000Y-91000000D01*
X31600000Y-80600000D02*
X31600000Y-93200000D01*
X31600000Y-93200000D02*
X19100000Y-93200000D01*
X19100000Y-80600000D02*
X19100000Y-93200000D01*
X44100000Y-80600000D02*
X43100000Y-80600000D01*
X43100000Y-80600000D02*
X43100000Y-84100000D01*
X31600000Y-80600000D02*
X32600000Y-80600000D01*
X32600000Y-80600000D02*
X32600000Y-84100000D01*
X44100000Y-84100000D02*
X31600000Y-84100000D01*
X39600000Y-86400000D02*
X44100000Y-86400000D01*
X36100000Y-86400000D02*
X31600000Y-86400000D01*
X39600000Y-86400000D02*
X39600000Y-91000000D01*
X36100000Y-86400000D02*
X36100000Y-91000000D01*
X31600000Y-91000000D02*
X44100000Y-91000000D01*
X44100000Y-80600000D02*
X44100000Y-93200000D01*
X44100000Y-93200000D02*
X31600000Y-93200000D01*
X31600000Y-80600000D02*
X31600000Y-93200000D01*
D14*
X29503800Y-51972300D02*
X29503800Y-54334500D01*
X29503800Y-54334500D02*
X19496200Y-54334500D01*
X19496200Y-54334500D02*
X19496200Y-51972300D01*
X21502800Y-37989600D02*
X21502800Y-42320300D01*
X22506100Y-37989600D02*
X21502800Y-37989600D01*
X22506100Y-42320300D02*
X22506100Y-37989600D01*
X27497200Y-42320300D02*
X27497200Y-37989600D01*
X27497200Y-37989600D02*
X26493900Y-37989600D01*
X26493900Y-37989600D02*
X26493900Y-42320300D01*
X29846700Y-51972300D02*
X19153300Y-51972300D01*
X19153300Y-51972300D02*
X19153300Y-42320300D01*
X19153300Y-42320300D02*
X29846700Y-42320300D01*
X29846700Y-42320300D02*
X29846700Y-51972300D01*
X18873476Y-71500000D02*
X19244707Y-71871231D01*
X24000000Y-66373476D02*
X24371231Y-66744707D01*
X29126524Y-71500000D02*
X28755293Y-71128769D01*
X24000000Y-76626524D02*
X23628769Y-76255293D01*
X18873476Y-71500000D02*
X19244707Y-71128769D01*
X24000000Y-76626524D02*
X24371231Y-76255293D01*
X29126524Y-71500000D02*
X28755293Y-71871231D01*
X24000000Y-66373476D02*
X23628769Y-66744707D01*
X19244707Y-71871231D02*
X18272435Y-72843503D01*
X60325000Y-80351000D02*
X60325000Y-86649000D01*
X60465000Y-80357000D02*
X60465000Y-86643000D01*
X60605000Y-80370000D02*
X60605000Y-83054000D01*
X60605000Y-83946000D02*
X60605000Y-86630000D01*
X60745000Y-80389000D02*
X60745000Y-82844000D01*
X60745000Y-84156000D02*
X60745000Y-86611000D01*
X60885000Y-80415000D02*
X60885000Y-82711000D01*
X60885000Y-84289000D02*
X60885000Y-86585000D01*
X61025000Y-80447000D02*
X61025000Y-82620000D01*
X61025000Y-84380000D02*
X61025000Y-86553000D01*
X61165000Y-80486000D02*
X61165000Y-82558000D01*
X61165000Y-84442000D02*
X61165000Y-86514000D01*
X61305000Y-80532000D02*
X61305000Y-82519000D01*
X61305000Y-84481000D02*
X61305000Y-86468000D01*
X61445000Y-80585000D02*
X61445000Y-82502000D01*
X61445000Y-84498000D02*
X61445000Y-86415000D01*
X61585000Y-80647000D02*
X61585000Y-82504000D01*
X61585000Y-84496000D02*
X61585000Y-86353000D01*
X61725000Y-80717000D02*
X61725000Y-82526000D01*
X61725000Y-84474000D02*
X61725000Y-86283000D01*
X61865000Y-80796000D02*
X61865000Y-82569000D01*
X61865000Y-84431000D02*
X61865000Y-86204000D01*
X62005000Y-80884000D02*
X62005000Y-82637000D01*
X62005000Y-84363000D02*
X62005000Y-86116000D01*
X62145000Y-80984000D02*
X62145000Y-82736000D01*
X62145000Y-84264000D02*
X62145000Y-86016000D01*
X62285000Y-81096000D02*
X62285000Y-82881000D01*
X62285000Y-84119000D02*
X62285000Y-85904000D01*
X62425000Y-81221000D02*
X62425000Y-83120000D01*
X62425000Y-83880000D02*
X62425000Y-85779000D01*
X62565000Y-81364000D02*
X62565000Y-85636000D01*
X62705000Y-81526000D02*
X62705000Y-85474000D01*
X62845000Y-81714000D02*
X62845000Y-85286000D01*
X62985000Y-81937000D02*
X62985000Y-85063000D01*
X63125000Y-82213000D02*
X63125000Y-84787000D01*
X63265000Y-82588000D02*
X63265000Y-84412000D01*
X62500000Y-83500000D02*
G75*
G03X62500000Y-83500000I-1000000J0D01*
G01*
X63437500Y-83500000D02*
G75*
G03X63437500Y-83500000I-3187500J0D01*
G01*
D13*
X63600000Y-73500000D02*
X63600000Y-74500000D01*
X63600000Y-74500000D02*
X67100000Y-74500000D01*
X63600000Y-86000000D02*
X63600000Y-85000000D01*
X63600000Y-85000000D02*
X67100000Y-85000000D01*
X67100000Y-73500000D02*
X67100000Y-86000000D01*
X69400000Y-78000000D02*
X69400000Y-73500000D01*
X69400000Y-81500000D02*
X69400000Y-86000000D01*
X69400000Y-78000000D02*
X74000000Y-78000000D01*
X69400000Y-81500000D02*
X74000000Y-81500000D01*
X74000000Y-86000000D02*
X74000000Y-73500000D01*
X63600000Y-73500000D02*
X76200000Y-73500000D01*
X76200000Y-73500000D02*
X76200000Y-86000000D01*
X63600000Y-86000000D02*
X76200000Y-86000000D01*
D14*
X55503800Y-51972300D02*
X55503800Y-54334500D01*
X55503800Y-54334500D02*
X45496200Y-54334500D01*
X45496200Y-54334500D02*
X45496200Y-51972300D01*
X47502800Y-37989600D02*
X47502800Y-42320300D01*
X48506100Y-37989600D02*
X47502800Y-37989600D01*
X48506100Y-42320300D02*
X48506100Y-37989600D01*
X53497200Y-42320300D02*
X53497200Y-37989600D01*
X53497200Y-37989600D02*
X52493900Y-37989600D01*
X52493900Y-37989600D02*
X52493900Y-42320300D01*
X55846700Y-51972300D02*
X45153300Y-51972300D01*
X45153300Y-51972300D02*
X45153300Y-42320300D01*
X45153300Y-42320300D02*
X55846700Y-42320300D01*
X55846700Y-42320300D02*
X55846700Y-51972300D01*
X66530000Y-89070000D02*
X63990000Y-89070000D01*
X69350000Y-89350000D02*
X67800000Y-89350000D01*
X66530000Y-89070000D02*
X66530000Y-86530000D01*
X67800000Y-86250000D02*
X69350000Y-86250000D01*
X69350000Y-86250000D02*
X69350000Y-89350000D01*
X66530000Y-86530000D02*
X63990000Y-86530000D01*
X63990000Y-86530000D02*
X63990000Y-89070000D01*
X42503800Y-51972300D02*
X42503800Y-54334500D01*
X42503800Y-54334500D02*
X32496200Y-54334500D01*
X32496200Y-54334500D02*
X32496200Y-51972300D01*
X34502800Y-37989600D02*
X34502800Y-42320300D01*
X35506100Y-37989600D02*
X34502800Y-37989600D01*
X35506100Y-42320300D02*
X35506100Y-37989600D01*
X40497200Y-42320300D02*
X40497200Y-37989600D01*
X40497200Y-37989600D02*
X39493900Y-37989600D01*
X39493900Y-37989600D02*
X39493900Y-42320300D01*
X42846700Y-51972300D02*
X32153300Y-51972300D01*
X32153300Y-51972300D02*
X32153300Y-42320300D01*
X32153300Y-42320300D02*
X42846700Y-42320300D01*
X42846700Y-42320300D02*
X42846700Y-51972300D01*
X42503800Y-32972300D02*
X42503800Y-35334500D01*
X42503800Y-35334500D02*
X32496200Y-35334500D01*
X32496200Y-35334500D02*
X32496200Y-32972300D01*
X34502800Y-18989600D02*
X34502800Y-23320300D01*
X35506100Y-18989600D02*
X34502800Y-18989600D01*
X35506100Y-23320300D02*
X35506100Y-18989600D01*
X40497200Y-23320300D02*
X40497200Y-18989600D01*
X40497200Y-18989600D02*
X39493900Y-18989600D01*
X39493900Y-18989600D02*
X39493900Y-23320300D01*
X42846700Y-32972300D02*
X32153300Y-32972300D01*
X32153300Y-32972300D02*
X32153300Y-23320300D01*
X32153300Y-23320300D02*
X42846700Y-23320300D01*
X42846700Y-23320300D02*
X42846700Y-32972300D01*
X29503800Y-32972300D02*
X29503800Y-35334500D01*
X29503800Y-35334500D02*
X19496200Y-35334500D01*
X19496200Y-35334500D02*
X19496200Y-32972300D01*
X21502800Y-18989600D02*
X21502800Y-23320300D01*
X22506100Y-18989600D02*
X21502800Y-18989600D01*
X22506100Y-23320300D02*
X22506100Y-18989600D01*
X27497200Y-23320300D02*
X27497200Y-18989600D01*
X27497200Y-18989600D02*
X26493900Y-18989600D01*
X26493900Y-18989600D02*
X26493900Y-23320300D01*
X29846700Y-32972300D02*
X19153300Y-32972300D01*
X19153300Y-32972300D02*
X19153300Y-23320300D01*
X19153300Y-23320300D02*
X29846700Y-23320300D01*
X29846700Y-23320300D02*
X29846700Y-32972300D01*
X68503800Y-51972300D02*
X68503800Y-54334500D01*
X68503800Y-54334500D02*
X58496200Y-54334500D01*
X58496200Y-54334500D02*
X58496200Y-51972300D01*
X60502800Y-37989600D02*
X60502800Y-42320300D01*
X61506100Y-37989600D02*
X60502800Y-37989600D01*
X61506100Y-42320300D02*
X61506100Y-37989600D01*
X66497200Y-42320300D02*
X66497200Y-37989600D01*
X66497200Y-37989600D02*
X65493900Y-37989600D01*
X65493900Y-37989600D02*
X65493900Y-42320300D01*
X68846700Y-51972300D02*
X58153300Y-51972300D01*
X58153300Y-51972300D02*
X58153300Y-42320300D01*
X58153300Y-42320300D02*
X68846700Y-42320300D01*
X68846700Y-42320300D02*
X68846700Y-51972300D01*
X68503800Y-32972300D02*
X68503800Y-35334500D01*
X68503800Y-35334500D02*
X58496200Y-35334500D01*
X58496200Y-35334500D02*
X58496200Y-32972300D01*
X60502800Y-18989600D02*
X60502800Y-23320300D01*
X61506100Y-18989600D02*
X60502800Y-18989600D01*
X61506100Y-23320300D02*
X61506100Y-18989600D01*
X66497200Y-23320300D02*
X66497200Y-18989600D01*
X66497200Y-18989600D02*
X65493900Y-18989600D01*
X65493900Y-18989600D02*
X65493900Y-23320300D01*
X68846700Y-32972300D02*
X58153300Y-32972300D01*
X58153300Y-32972300D02*
X58153300Y-23320300D01*
X58153300Y-23320300D02*
X68846700Y-23320300D01*
X68846700Y-23320300D02*
X68846700Y-32972300D01*
X55503800Y-32972300D02*
X55503800Y-35334500D01*
X55503800Y-35334500D02*
X45496200Y-35334500D01*
X45496200Y-35334500D02*
X45496200Y-32972300D01*
X47502800Y-18989600D02*
X47502800Y-23320300D01*
X48506100Y-18989600D02*
X47502800Y-18989600D01*
X48506100Y-23320300D02*
X48506100Y-18989600D01*
X53497200Y-23320300D02*
X53497200Y-18989600D01*
X53497200Y-18989600D02*
X52493900Y-18989600D01*
X52493900Y-18989600D02*
X52493900Y-23320300D01*
X55846700Y-32972300D02*
X45153300Y-32972300D01*
X45153300Y-32972300D02*
X45153300Y-23320300D01*
X45153300Y-23320300D02*
X55846700Y-23320300D01*
X55846700Y-23320300D02*
X55846700Y-32972300D01*
D13*
X18600000Y-600000D02*
X6400000Y-600000D01*
X18600000Y-17900000D02*
X18600000Y9000000D01*
X18600000Y9000000D02*
X6400000Y9000000D01*
X6400000Y9000000D02*
X6400000Y-17900000D01*
X6400000Y-17900000D02*
X18600000Y-17900000D01*
X32000000Y-75200000D02*
X35500000Y-75200000D01*
X32000000Y-64700000D02*
X32000000Y-75200000D01*
X35500000Y-64700000D02*
X35500000Y-75200000D01*
X35500000Y-64700000D02*
X32000000Y-64700000D01*
X43000000Y-68300000D02*
X46600000Y-68300000D01*
X46600000Y-67100000D02*
X43000000Y-67100000D01*
X46700000Y-67700000D02*
G75*
G03X46700000Y-67700000I-1900000J0D01*
G01*
X39800000Y-62700000D02*
X39800000Y-72700000D01*
X39800000Y-72700000D02*
X49800000Y-72700000D01*
X49800000Y-72700000D02*
X49800000Y-62700000D01*
X49800000Y-62700000D02*
X39800000Y-62700000D01*
D14*
X12075000Y-31750000D02*
X12075000Y-44250000D01*
X12215000Y-31754000D02*
X12215000Y-44246000D01*
X12355000Y-31760000D02*
X12355000Y-44240000D01*
X12495000Y-31770000D02*
X12495000Y-44230000D01*
X12635000Y-31782000D02*
X12635000Y-44218000D01*
X12775000Y-31798000D02*
X12775000Y-44202000D01*
X12915000Y-31817000D02*
X12915000Y-44183000D01*
X13055000Y-31840000D02*
X13055000Y-44160000D01*
X13195000Y-31865000D02*
X13195000Y-44135000D01*
X13335000Y-31894000D02*
X13335000Y-44106000D01*
X13475000Y-31927000D02*
X13475000Y-37479000D01*
X13475000Y-38521000D02*
X13475000Y-44073000D01*
X13615000Y-31962000D02*
X13615000Y-37266000D01*
X13615000Y-38734000D02*
X13615000Y-44038000D01*
X13755000Y-32001000D02*
X13755000Y-37124000D01*
X13755000Y-38876000D02*
X13755000Y-43999000D01*
X13895000Y-32044000D02*
X13895000Y-37022000D01*
X13895000Y-38978000D02*
X13895000Y-43956000D01*
X14035000Y-32091000D02*
X14035000Y-36948000D01*
X14035000Y-39052000D02*
X14035000Y-43909000D01*
X14175000Y-32141000D02*
X14175000Y-36897000D01*
X14175000Y-39103000D02*
X14175000Y-43859000D01*
X14315000Y-32195000D02*
X14315000Y-36865000D01*
X14315000Y-39135000D02*
X14315000Y-43805000D01*
X14455000Y-32252000D02*
X14455000Y-36851000D01*
X14455000Y-39149000D02*
X14455000Y-43748000D01*
X14595000Y-32314000D02*
X14595000Y-36854000D01*
X14595000Y-39146000D02*
X14595000Y-43686000D01*
X14735000Y-32380000D02*
X14735000Y-36874000D01*
X14735000Y-39126000D02*
X14735000Y-43620000D01*
X14875000Y-32451000D02*
X14875000Y-36913000D01*
X14875000Y-39087000D02*
X14875000Y-43549000D01*
X15015000Y-32525000D02*
X15015000Y-36972000D01*
X15015000Y-39028000D02*
X15015000Y-43475000D01*
X15155000Y-32605000D02*
X15155000Y-37055000D01*
X15155000Y-38945000D02*
X15155000Y-43395000D01*
X15295000Y-32689000D02*
X15295000Y-37169000D01*
X15295000Y-38831000D02*
X15295000Y-43311000D01*
X15435000Y-32779000D02*
X15435000Y-37330000D01*
X15435000Y-38670000D02*
X15435000Y-43221000D01*
X15575000Y-32873000D02*
X15575000Y-37591000D01*
X15575000Y-38409000D02*
X15575000Y-43127000D01*
X15715000Y-32974000D02*
X15715000Y-43026000D01*
X15855000Y-33081000D02*
X15855000Y-42919000D01*
X15995000Y-33193000D02*
X15995000Y-42807000D01*
X16135000Y-33313000D02*
X16135000Y-42687000D01*
X16275000Y-33441000D02*
X16275000Y-42559000D01*
X16415000Y-33576000D02*
X16415000Y-42424000D01*
X16555000Y-33720000D02*
X16555000Y-42280000D01*
X16695000Y-33875000D02*
X16695000Y-42125000D01*
X16835000Y-34040000D02*
X16835000Y-41960000D01*
X16975000Y-34217000D02*
X16975000Y-41783000D01*
X17115000Y-34408000D02*
X17115000Y-41592000D01*
X17255000Y-34617000D02*
X17255000Y-41383000D01*
X17395000Y-34845000D02*
X17395000Y-41155000D01*
X17535000Y-35097000D02*
X17535000Y-40903000D01*
X17675000Y-35381000D02*
X17675000Y-40619000D01*
X17815000Y-35709000D02*
X17815000Y-40291000D01*
X17955000Y-36103000D02*
X17955000Y-39897000D01*
X18095000Y-36617000D02*
X18095000Y-39383000D01*
X18235000Y-37567000D02*
X18235000Y-38433000D01*
X15650000Y-38000000D02*
G75*
G03X15650000Y-38000000I-1150000J0D01*
G01*
X18287500Y-38000000D02*
G75*
G03X18287500Y-38000000I-6287500J0D01*
G01*
X57500760Y-67800000D02*
G75*
G03X57500760Y-67800000I-1000760J0D01*
G01*
X62700140Y-67800000D02*
G75*
G03X62700140Y-67800000I-6200140J0D01*
G01*
D13*
X19100000Y-80600000D02*
X18100000Y-80600000D01*
X18100000Y-80600000D02*
X18100000Y-84100000D01*
X6600000Y-80600000D02*
X7600000Y-80600000D01*
X7600000Y-80600000D02*
X7600000Y-84100000D01*
X19100000Y-84100000D02*
X6600000Y-84100000D01*
X14600000Y-86400000D02*
X19100000Y-86400000D01*
X11100000Y-86400000D02*
X6600000Y-86400000D01*
X14600000Y-86400000D02*
X14600000Y-91000000D01*
X11100000Y-86400000D02*
X11100000Y-91000000D01*
X6600000Y-91000000D02*
X19100000Y-91000000D01*
X19100000Y-80600000D02*
X19100000Y-93200000D01*
X19100000Y-93200000D02*
X6600000Y-93200000D01*
X6600000Y-80600000D02*
X6600000Y-93200000D01*
X56600000Y-80600000D02*
X55600000Y-80600000D01*
X55600000Y-80600000D02*
X55600000Y-84100000D01*
X44100000Y-80600000D02*
X45100000Y-80600000D01*
X45100000Y-80600000D02*
X45100000Y-84100000D01*
X56600000Y-84100000D02*
X44100000Y-84100000D01*
X52100000Y-86400000D02*
X56600000Y-86400000D01*
X48600000Y-86400000D02*
X44100000Y-86400000D01*
X52100000Y-86400000D02*
X52100000Y-91000000D01*
X48600000Y-86400000D02*
X48600000Y-91000000D01*
X44100000Y-91000000D02*
X56600000Y-91000000D01*
X56600000Y-80600000D02*
X56600000Y-93200000D01*
X56600000Y-93200000D02*
X44100000Y-93200000D01*
X44100000Y-80600000D02*
X44100000Y-93200000D01*
D14*
X11250060Y-49299140D02*
X10899540Y-49299140D01*
X7749940Y-49299140D02*
X8100460Y-49299140D01*
X11250060Y-45249560D02*
X10899540Y-45249560D01*
X11250060Y-49750440D02*
X10899540Y-49750440D01*
X7749940Y-49750440D02*
X8100460Y-49750440D01*
X7749940Y-45249560D02*
X8100460Y-45249560D01*
X11250060Y-49750440D02*
X11250060Y-45249560D01*
X7749940Y-49750440D02*
X7749940Y-45249560D01*
D13*
X44900000Y12950000D02*
X44900000Y15350000D01*
X45800000Y15350000D02*
X45800000Y12950000D01*
X42900000Y15350000D02*
X45800000Y15350000D01*
X21100000Y15350000D02*
X21100000Y12950000D01*
X22100000Y12950000D02*
X22100000Y15350000D01*
X24100000Y15350000D02*
X21100000Y15350000D01*
X42900000Y15550000D02*
X24100000Y15550000D01*
X21100000Y12950000D02*
X24900000Y9050000D01*
X45800000Y12950000D02*
X42000000Y9050000D01*
X40800000Y12950000D02*
X40800000Y9050000D01*
X26100000Y12950000D02*
X26100000Y9050000D01*
X24100000Y12950000D02*
X26100000Y12950000D01*
X24100000Y12950000D02*
X24100000Y15550000D01*
X42900000Y12950000D02*
X40800000Y12950000D01*
X42900000Y12950000D02*
X42900000Y15550000D01*
X43000000Y-13050000D02*
X23900000Y-13050000D01*
X23900000Y-13050000D02*
X23900000Y9050000D01*
X23900000Y9050000D02*
X43000000Y9050000D01*
X43000000Y-13050000D02*
X43000000Y9050000D01*
X70900000Y12950000D02*
X70900000Y15350000D01*
X71800000Y15350000D02*
X71800000Y12950000D01*
X68900000Y15350000D02*
X71800000Y15350000D01*
X47100000Y15350000D02*
X47100000Y12950000D01*
X48100000Y12950000D02*
X48100000Y15350000D01*
X50100000Y15350000D02*
X47100000Y15350000D01*
X68900000Y15550000D02*
X50100000Y15550000D01*
X47100000Y12950000D02*
X50900000Y9050000D01*
X71800000Y12950000D02*
X68000000Y9050000D01*
X66800000Y12950000D02*
X66800000Y9050000D01*
X52100000Y12950000D02*
X52100000Y9050000D01*
X50100000Y12950000D02*
X52100000Y12950000D01*
X50100000Y12950000D02*
X50100000Y15550000D01*
X68900000Y12950000D02*
X66800000Y12950000D01*
X68900000Y12950000D02*
X68900000Y15550000D01*
X69000000Y-13050000D02*
X49900000Y-13050000D01*
X49900000Y-13050000D02*
X49900000Y9050000D01*
X49900000Y9050000D02*
X69000000Y9050000D01*
X69000000Y-13050000D02*
X69000000Y9050000D01*
D14*
X15175000Y-54649000D02*
X15175000Y-48351000D01*
X15035000Y-54643000D02*
X15035000Y-48357000D01*
X14895000Y-54630000D02*
X14895000Y-51946000D01*
X14895000Y-51054000D02*
X14895000Y-48370000D01*
X14755000Y-54611000D02*
X14755000Y-52156000D01*
X14755000Y-50844000D02*
X14755000Y-48389000D01*
X14615000Y-54585000D02*
X14615000Y-52289000D01*
X14615000Y-50711000D02*
X14615000Y-48415000D01*
X14475000Y-54553000D02*
X14475000Y-52380000D01*
X14475000Y-50620000D02*
X14475000Y-48447000D01*
X14335000Y-54514000D02*
X14335000Y-52442000D01*
X14335000Y-50558000D02*
X14335000Y-48486000D01*
X14195000Y-54468000D02*
X14195000Y-52481000D01*
X14195000Y-50519000D02*
X14195000Y-48532000D01*
X14055000Y-54415000D02*
X14055000Y-52498000D01*
X14055000Y-50502000D02*
X14055000Y-48585000D01*
X13915000Y-54353000D02*
X13915000Y-52496000D01*
X13915000Y-50504000D02*
X13915000Y-48647000D01*
X13775000Y-54283000D02*
X13775000Y-52474000D01*
X13775000Y-50526000D02*
X13775000Y-48717000D01*
X13635000Y-54204000D02*
X13635000Y-52431000D01*
X13635000Y-50569000D02*
X13635000Y-48796000D01*
X13495000Y-54116000D02*
X13495000Y-52363000D01*
X13495000Y-50637000D02*
X13495000Y-48884000D01*
X13355000Y-54016000D02*
X13355000Y-52264000D01*
X13355000Y-50736000D02*
X13355000Y-48984000D01*
X13215000Y-53904000D02*
X13215000Y-52119000D01*
X13215000Y-50881000D02*
X13215000Y-49096000D01*
X13075000Y-53779000D02*
X13075000Y-51880000D01*
X13075000Y-51120000D02*
X13075000Y-49221000D01*
X12935000Y-53636000D02*
X12935000Y-49364000D01*
X12795000Y-53474000D02*
X12795000Y-49526000D01*
X12655000Y-53286000D02*
X12655000Y-49714000D01*
X12515000Y-53063000D02*
X12515000Y-49937000D01*
X12375000Y-52787000D02*
X12375000Y-50213000D01*
X12235000Y-52412000D02*
X12235000Y-50588000D01*
X15000000Y-51500000D02*
G75*
G03X15000000Y-51500000I-1000000J0D01*
G01*
X18437500Y-51500000D02*
G75*
G03X18437500Y-51500000I-3187500J0D01*
G01*
D13*
X6500000Y-74300000D02*
X6500000Y-72700000D01*
X6500000Y-72700000D02*
X3500000Y-72700000D01*
X3500000Y-72700000D02*
X3500000Y-74300000D01*
X3500000Y-74300000D02*
X6500000Y-74300000D01*
X8000000Y-75300000D02*
X8000000Y-71700000D01*
X8000000Y-71700000D02*
X2000000Y-71700000D01*
X2000000Y-71700000D02*
X2000000Y-75300000D01*
X2000000Y-75300000D02*
X8000000Y-75300000D01*
X6500000Y-64300000D02*
X6500000Y-62700000D01*
X6500000Y-62700000D02*
X3500000Y-62700000D01*
X3500000Y-62700000D02*
X3500000Y-64300000D01*
X3500000Y-64300000D02*
X6500000Y-64300000D01*
X8000000Y-65300000D02*
X8000000Y-61700000D01*
X8000000Y-61700000D02*
X2000000Y-61700000D01*
X2000000Y-61700000D02*
X2000000Y-65300000D01*
X2000000Y-65300000D02*
X8000000Y-65300000D01*
X6500000Y-69300000D02*
X6500000Y-67700000D01*
X6500000Y-67700000D02*
X3500000Y-67700000D01*
X3500000Y-67700000D02*
X3500000Y-69300000D01*
X3500000Y-69300000D02*
X6500000Y-69300000D01*
X8000000Y-70300000D02*
X8000000Y-66700000D01*
X8000000Y-66700000D02*
X2000000Y-66700000D01*
X2000000Y-66700000D02*
X2000000Y-70300000D01*
X2000000Y-70300000D02*
X8000000Y-70300000D01*
D14*
X5786000Y-12000000D02*
G75*
G03X5786000Y-12000000I-2286000J0D01*
G01*
X5786000Y-17000000D02*
G75*
G03X5786000Y-17000000I-2286000J0D01*
G01*
X70450000Y-21850000D02*
X72000000Y-21850000D01*
X70450000Y-20300000D02*
X70450000Y-21850000D01*
X70450000Y-20300000D02*
X70450000Y-21850000D01*
X70730000Y-19030000D02*
X73270000Y-19030000D01*
X73270000Y-19030000D02*
X73270000Y-21570000D01*
X73270000Y-21570000D02*
X75810000Y-21570000D01*
X75810000Y-21570000D02*
X75810000Y-16490000D01*
X75810000Y-16490000D02*
X70730000Y-16490000D01*
X70730000Y-16490000D02*
X70730000Y-19030000D01*
X73230000Y-57230000D02*
X73230000Y-44530000D01*
X73230000Y-44530000D02*
X75770000Y-44530000D01*
X75770000Y-44530000D02*
X75770000Y-57230000D01*
X72950000Y-60050000D02*
X72950000Y-58500000D01*
X73230000Y-57230000D02*
X75770000Y-57230000D01*
X76050000Y-58500000D02*
X76050000Y-60050000D01*
X76050000Y-60050000D02*
X72950000Y-60050000D01*
D15*
X13304333Y-43638214D02*
X13304333Y-44442548D01*
X13017071Y-43178595D02*
X12729810Y-44040381D01*
X13476690Y-44040381D01*
X13936310Y-44327643D02*
X13993762Y-44385095D01*
X13936310Y-44442548D01*
X13878858Y-44385095D01*
X13936310Y-44327643D01*
X13936310Y-44442548D01*
X14395929Y-43236048D02*
X15200262Y-43236048D01*
X14683191Y-44442548D01*
X16176953Y-43638214D02*
X16176953Y-44442548D01*
X15659882Y-43638214D02*
X15659882Y-44270190D01*
X15717334Y-44385095D01*
X15832239Y-44442548D01*
X16004596Y-44442548D01*
X16119501Y-44385095D01*
X16176953Y-44327643D01*
X2736048Y-79382929D02*
X2736048Y-79268024D01*
X2793500Y-79153119D01*
X2850952Y-79095667D01*
X2965857Y-79038214D01*
X3195667Y-78980762D01*
X3482929Y-78980762D01*
X3712738Y-79038214D01*
X3827643Y-79095667D01*
X3885095Y-79153119D01*
X3942548Y-79268024D01*
X3942548Y-79382929D01*
X3885095Y-79497833D01*
X3827643Y-79555286D01*
X3712738Y-79612738D01*
X3482929Y-79670190D01*
X3195667Y-79670190D01*
X2965857Y-79612738D01*
X2850952Y-79555286D01*
X2793500Y-79497833D01*
X2736048Y-79382929D01*
X3827643Y-78463690D02*
X3885095Y-78406238D01*
X3942548Y-78463690D01*
X3885095Y-78521142D01*
X3827643Y-78463690D01*
X3942548Y-78463690D01*
X3942548Y-77257190D02*
X3942548Y-77946618D01*
X3942548Y-77601904D02*
X2736048Y-77601904D01*
X2908405Y-77716809D01*
X3023310Y-77831714D01*
X3080762Y-77946618D01*
X3138214Y-76223047D02*
X3942548Y-76223047D01*
X3138214Y-76740118D02*
X3770190Y-76740118D01*
X3885095Y-76682666D01*
X3942548Y-76567761D01*
X3942548Y-76395404D01*
X3885095Y-76280499D01*
X3827643Y-76223047D01*
X11375000Y-76050001D02*
X11456249Y-76050001D01*
X11578124Y-76090626D01*
X11781249Y-76293751D01*
X11821874Y-76415625D01*
X11821874Y-76496875D01*
X11781249Y-76618750D01*
X11699999Y-76700000D01*
X11537499Y-76781250D01*
X10562500Y-76781250D01*
X11090624Y-77309375D01*
X12187499Y-76862500D02*
X12268749Y-76862500D01*
X12390624Y-76903126D01*
X12593749Y-77106251D01*
X12634373Y-77228125D01*
X12634374Y-77309375D01*
X12593749Y-77431250D01*
X12512498Y-77512500D01*
X12349999Y-77593750D01*
X11374999Y-77593750D01*
X11903124Y-78121874D01*
X12837499Y-77918749D02*
X11984375Y-78771874D01*
X12796873Y-77959375D02*
X12918749Y-78000000D01*
X13081249Y-78162499D01*
X13121873Y-78284375D01*
X13121873Y-78365624D01*
X13081249Y-78487499D01*
X12837499Y-78731249D01*
X12715623Y-78771874D01*
X12634374Y-78771874D01*
X12512498Y-78731249D01*
X12349999Y-78568750D01*
X12309374Y-78446874D01*
X18950001Y-79625000D02*
X18950001Y-79543751D01*
X18990626Y-79421876D01*
X19193751Y-79218751D01*
X19315625Y-79178126D01*
X19396875Y-79178126D01*
X19518750Y-79218751D01*
X19600000Y-79300001D01*
X19681250Y-79462501D01*
X19681250Y-80437500D01*
X20209375Y-79909376D01*
X19762500Y-78812501D02*
X19762500Y-78731251D01*
X19803126Y-78609376D01*
X20006251Y-78406251D01*
X20128125Y-78365627D01*
X20209375Y-78365626D01*
X20331250Y-78406251D01*
X20412500Y-78487502D01*
X20493750Y-78650001D01*
X20493750Y-79625001D01*
X21021874Y-79096876D01*
X20818749Y-78162501D02*
X21671874Y-79015625D01*
X20859375Y-78203127D02*
X20900000Y-78081251D01*
X21062499Y-77918751D01*
X21184375Y-77878127D01*
X21265624Y-77878127D01*
X21387499Y-77918751D01*
X21631249Y-78162501D01*
X21671874Y-78284377D01*
X21671874Y-78365626D01*
X21631249Y-78487502D01*
X21468750Y-78650001D01*
X21346874Y-78690626D01*
X24117071Y-63136048D02*
X24231976Y-63136048D01*
X24346881Y-63193500D01*
X24404333Y-63250952D01*
X24461786Y-63365857D01*
X24519238Y-63595667D01*
X24519238Y-63882929D01*
X24461786Y-64112738D01*
X24404333Y-64227643D01*
X24346881Y-64285095D01*
X24231976Y-64342548D01*
X24117071Y-64342548D01*
X24002167Y-64285095D01*
X23944714Y-64227643D01*
X23887262Y-64112738D01*
X23829810Y-63882929D01*
X23829810Y-63595667D01*
X23887262Y-63365857D01*
X23944714Y-63250952D01*
X24002167Y-63193500D01*
X24117071Y-63136048D01*
X25036310Y-64227643D02*
X25093762Y-64285095D01*
X25036310Y-64342548D01*
X24978858Y-64285095D01*
X25036310Y-64227643D01*
X25036310Y-64342548D01*
X26242810Y-64342548D02*
X25553382Y-64342548D01*
X25898096Y-64342548D02*
X25898096Y-63136048D01*
X25783191Y-63308405D01*
X25668286Y-63423310D01*
X25553382Y-63480762D01*
X27276953Y-63538214D02*
X27276953Y-64342548D01*
X26759882Y-63538214D02*
X26759882Y-64170190D01*
X26817334Y-64285095D01*
X26932239Y-64342548D01*
X27104596Y-64342548D01*
X27219501Y-64285095D01*
X27276953Y-64227643D01*
X15636048Y-72782929D02*
X15636048Y-72668024D01*
X15693500Y-72553119D01*
X15750952Y-72495667D01*
X15865857Y-72438214D01*
X16095667Y-72380762D01*
X16382929Y-72380762D01*
X16612738Y-72438214D01*
X16727643Y-72495667D01*
X16785095Y-72553119D01*
X16842548Y-72668024D01*
X16842548Y-72782929D01*
X16785095Y-72897833D01*
X16727643Y-72955286D01*
X16612738Y-73012738D01*
X16382929Y-73070190D01*
X16095667Y-73070190D01*
X15865857Y-73012738D01*
X15750952Y-72955286D01*
X15693500Y-72897833D01*
X15636048Y-72782929D01*
X16727643Y-71863690D02*
X16785095Y-71806238D01*
X16842548Y-71863690D01*
X16785095Y-71921142D01*
X16727643Y-71863690D01*
X16842548Y-71863690D01*
X16842548Y-70657190D02*
X16842548Y-71346618D01*
X16842548Y-71001904D02*
X15636048Y-71001904D01*
X15808405Y-71116809D01*
X15923310Y-71231714D01*
X15980762Y-71346618D01*
X16038214Y-69623047D02*
X16842548Y-69623047D01*
X16038214Y-70140118D02*
X16670190Y-70140118D01*
X16785095Y-70082666D01*
X16842548Y-69967761D01*
X16842548Y-69795404D01*
X16785095Y-69680499D01*
X16727643Y-69623047D01*
X8542548Y-77780762D02*
X8542548Y-78470190D01*
X8542548Y-78125476D02*
X7336048Y-78125476D01*
X7508405Y-78240381D01*
X7623310Y-78355286D01*
X7680762Y-78470190D01*
X7336048Y-77033881D02*
X7336048Y-76918976D01*
X7393500Y-76804071D01*
X7450952Y-76746619D01*
X7565857Y-76689166D01*
X7795667Y-76631714D01*
X8082929Y-76631714D01*
X8312738Y-76689166D01*
X8427643Y-76746619D01*
X8485095Y-76804071D01*
X8542548Y-76918976D01*
X8542548Y-77033881D01*
X8485095Y-77148785D01*
X8427643Y-77206238D01*
X8312738Y-77263690D01*
X8082929Y-77321142D01*
X7795667Y-77321142D01*
X7565857Y-77263690D01*
X7450952Y-77206238D01*
X7393500Y-77148785D01*
X7336048Y-77033881D01*
X8542548Y-76114642D02*
X7336048Y-76114642D01*
X8082929Y-75999737D02*
X8542548Y-75655023D01*
X7738214Y-75655023D02*
X8197833Y-76114642D01*
X12719238Y-65842548D02*
X12029810Y-65842548D01*
X12374524Y-65842548D02*
X12374524Y-64636048D01*
X12259619Y-64808405D01*
X12144714Y-64923310D01*
X12029810Y-64980762D01*
X13466119Y-64636048D02*
X13581024Y-64636048D01*
X13695929Y-64693500D01*
X13753381Y-64750952D01*
X13810834Y-64865857D01*
X13868286Y-65095667D01*
X13868286Y-65382929D01*
X13810834Y-65612738D01*
X13753381Y-65727643D01*
X13695929Y-65785095D01*
X13581024Y-65842548D01*
X13466119Y-65842548D01*
X13351215Y-65785095D01*
X13293762Y-65727643D01*
X13236310Y-65612738D01*
X13178858Y-65382929D01*
X13178858Y-65095667D01*
X13236310Y-64865857D01*
X13293762Y-64750952D01*
X13351215Y-64693500D01*
X13466119Y-64636048D01*
X14615167Y-64636048D02*
X14730072Y-64636048D01*
X14844977Y-64693500D01*
X14902429Y-64750952D01*
X14959882Y-64865857D01*
X15017334Y-65095667D01*
X15017334Y-65382929D01*
X14959882Y-65612738D01*
X14902429Y-65727643D01*
X14844977Y-65785095D01*
X14730072Y-65842548D01*
X14615167Y-65842548D01*
X14500263Y-65785095D01*
X14442810Y-65727643D01*
X14385358Y-65612738D01*
X14327906Y-65382929D01*
X14327906Y-65095667D01*
X14385358Y-64865857D01*
X14442810Y-64750952D01*
X14500263Y-64693500D01*
X14615167Y-64636048D01*
X46542548Y-24680762D02*
X46542548Y-25370190D01*
X46542548Y-25025476D02*
X45336048Y-25025476D01*
X45508405Y-25140381D01*
X45623310Y-25255286D01*
X45680762Y-25370190D01*
X45336048Y-23933881D02*
X45336048Y-23818976D01*
X45393500Y-23704071D01*
X45450952Y-23646619D01*
X45565857Y-23589166D01*
X45795667Y-23531714D01*
X46082929Y-23531714D01*
X46312738Y-23589166D01*
X46427643Y-23646619D01*
X46485095Y-23704071D01*
X46542548Y-23818976D01*
X46542548Y-23933881D01*
X46485095Y-24048785D01*
X46427643Y-24106238D01*
X46312738Y-24163690D01*
X46082929Y-24221142D01*
X45795667Y-24221142D01*
X45565857Y-24163690D01*
X45450952Y-24106238D01*
X45393500Y-24048785D01*
X45336048Y-23933881D01*
X33542548Y-24680762D02*
X33542548Y-25370190D01*
X33542548Y-25025476D02*
X32336048Y-25025476D01*
X32508405Y-25140381D01*
X32623310Y-25255286D01*
X32680762Y-25370190D01*
X32336048Y-23933881D02*
X32336048Y-23818976D01*
X32393500Y-23704071D01*
X32450952Y-23646619D01*
X32565857Y-23589166D01*
X32795667Y-23531714D01*
X33082929Y-23531714D01*
X33312738Y-23589166D01*
X33427643Y-23646619D01*
X33485095Y-23704071D01*
X33542548Y-23818976D01*
X33542548Y-23933881D01*
X33485095Y-24048785D01*
X33427643Y-24106238D01*
X33312738Y-24163690D01*
X33082929Y-24221142D01*
X32795667Y-24221142D01*
X32565857Y-24163690D01*
X32450952Y-24106238D01*
X32393500Y-24048785D01*
X32336048Y-23933881D01*
X68542548Y-24580762D02*
X68542548Y-25270190D01*
X68542548Y-24925476D02*
X67336048Y-24925476D01*
X67508405Y-25040381D01*
X67623310Y-25155286D01*
X67680762Y-25270190D01*
X67336048Y-23833881D02*
X67336048Y-23718976D01*
X67393500Y-23604071D01*
X67450952Y-23546619D01*
X67565857Y-23489166D01*
X67795667Y-23431714D01*
X68082929Y-23431714D01*
X68312738Y-23489166D01*
X68427643Y-23546619D01*
X68485095Y-23604071D01*
X68542548Y-23718976D01*
X68542548Y-23833881D01*
X68485095Y-23948785D01*
X68427643Y-24006238D01*
X68312738Y-24063690D01*
X68082929Y-24121142D01*
X67795667Y-24121142D01*
X67565857Y-24063690D01*
X67450952Y-24006238D01*
X67393500Y-23948785D01*
X67336048Y-23833881D01*
X59542548Y-24580762D02*
X59542548Y-25270190D01*
X59542548Y-24925476D02*
X58336048Y-24925476D01*
X58508405Y-25040381D01*
X58623310Y-25155286D01*
X58680762Y-25270190D01*
X58336048Y-23833881D02*
X58336048Y-23718976D01*
X58393500Y-23604071D01*
X58450952Y-23546619D01*
X58565857Y-23489166D01*
X58795667Y-23431714D01*
X59082929Y-23431714D01*
X59312738Y-23489166D01*
X59427643Y-23546619D01*
X59485095Y-23604071D01*
X59542548Y-23718976D01*
X59542548Y-23833881D01*
X59485095Y-23948785D01*
X59427643Y-24006238D01*
X59312738Y-24063690D01*
X59082929Y-24121142D01*
X58795667Y-24121142D01*
X58565857Y-24063690D01*
X58450952Y-24006238D01*
X58393500Y-23948785D01*
X58336048Y-23833881D01*
X30536048Y-74882929D02*
X30536048Y-74768024D01*
X30593500Y-74653119D01*
X30650952Y-74595667D01*
X30765857Y-74538214D01*
X30995667Y-74480762D01*
X31282929Y-74480762D01*
X31512738Y-74538214D01*
X31627643Y-74595667D01*
X31685095Y-74653119D01*
X31742548Y-74768024D01*
X31742548Y-74882929D01*
X31685095Y-74997833D01*
X31627643Y-75055286D01*
X31512738Y-75112738D01*
X31282929Y-75170190D01*
X30995667Y-75170190D01*
X30765857Y-75112738D01*
X30650952Y-75055286D01*
X30593500Y-74997833D01*
X30536048Y-74882929D01*
X31627643Y-73963690D02*
X31685095Y-73906238D01*
X31742548Y-73963690D01*
X31685095Y-74021142D01*
X31627643Y-73963690D01*
X31742548Y-73963690D01*
X31742548Y-72757190D02*
X31742548Y-73446618D01*
X31742548Y-73101904D02*
X30536048Y-73101904D01*
X30708405Y-73216809D01*
X30823310Y-73331714D01*
X30880762Y-73446618D01*
X30938214Y-71723047D02*
X31742548Y-71723047D01*
X30938214Y-72240118D02*
X31570190Y-72240118D01*
X31685095Y-72182666D01*
X31742548Y-72067761D01*
X31742548Y-71895404D01*
X31685095Y-71780499D01*
X31627643Y-71723047D01*
X41975000Y-17500000D02*
X41690625Y-17215625D01*
X41243750Y-17662500D02*
X42096874Y-16809376D01*
X42503124Y-17215626D01*
X41974999Y-18393750D02*
X42828123Y-17540625D01*
X42787499Y-19206249D02*
X42381249Y-18800000D01*
X43234373Y-17946875D01*
X43803123Y-18515625D02*
X44290622Y-19003124D01*
X43193748Y-19612498D02*
X44046872Y-18759374D01*
X44168748Y-19693748D02*
X44453123Y-19978123D01*
X44128122Y-20546873D02*
X43721872Y-20140623D01*
X44574997Y-19287499D01*
X44981247Y-19693749D01*
X44981246Y-21399997D02*
X45103121Y-20709372D01*
X44493747Y-20912497D02*
X45346871Y-20059373D01*
X45671871Y-20384373D01*
X45712496Y-20506248D01*
X45712496Y-20587497D01*
X45671871Y-20709372D01*
X45549996Y-20831247D01*
X45428121Y-20871872D01*
X45346872Y-20871872D01*
X45224996Y-20831247D01*
X44899997Y-20506248D01*
X28975000Y-17500000D02*
X28690625Y-17215625D01*
X28243750Y-17662500D02*
X29096874Y-16809376D01*
X29503124Y-17215626D01*
X28974999Y-18393750D02*
X29828123Y-17540625D01*
X29787499Y-19206249D02*
X29381249Y-18800000D01*
X30234373Y-17946875D01*
X30803123Y-18515625D02*
X31290622Y-19003124D01*
X30193748Y-19612498D02*
X31046872Y-18759374D01*
X31168748Y-19693748D02*
X31453123Y-19978123D01*
X31128122Y-20546873D02*
X30721872Y-20140623D01*
X31574997Y-19287499D01*
X31981247Y-19693749D01*
X31981246Y-21399997D02*
X32103121Y-20709372D01*
X31493747Y-20912497D02*
X32346871Y-20059373D01*
X32671871Y-20384373D01*
X32712496Y-20506248D01*
X32712496Y-20587497D01*
X32671871Y-20709372D01*
X32549996Y-20831247D01*
X32428121Y-20871872D01*
X32346872Y-20871872D01*
X32224996Y-20831247D01*
X31899997Y-20506248D01*
X67975000Y-17500000D02*
X67690625Y-17215625D01*
X67243750Y-17662500D02*
X68096874Y-16809376D01*
X68503124Y-17215626D01*
X67974999Y-18393750D02*
X68828123Y-17540625D01*
X68787499Y-19206249D02*
X68381249Y-18800000D01*
X69234373Y-17946875D01*
X69803123Y-18515625D02*
X70290622Y-19003124D01*
X69193748Y-19612498D02*
X70046872Y-18759374D01*
X70168748Y-19693748D02*
X70453123Y-19978123D01*
X70128122Y-20546873D02*
X69721872Y-20140623D01*
X70574997Y-19287499D01*
X70981247Y-19693749D01*
X70981246Y-21399997D02*
X71103121Y-20709372D01*
X70493747Y-20912497D02*
X71346871Y-20059373D01*
X71671871Y-20384373D01*
X71712496Y-20506248D01*
X71712496Y-20587497D01*
X71671871Y-20709372D01*
X71549996Y-20831247D01*
X71428121Y-20871872D01*
X71346872Y-20871872D01*
X71224996Y-20831247D01*
X70899997Y-20506248D01*
X54975000Y-17500000D02*
X54690625Y-17215625D01*
X54243750Y-17662500D02*
X55096874Y-16809376D01*
X55503124Y-17215626D01*
X54974999Y-18393750D02*
X55828123Y-17540625D01*
X55787499Y-19206249D02*
X55381249Y-18800000D01*
X56234373Y-17946875D01*
X56803123Y-18515625D02*
X57290622Y-19003124D01*
X56193748Y-19612498D02*
X57046872Y-18759374D01*
X57168748Y-19693748D02*
X57453123Y-19978123D01*
X57128122Y-20546873D02*
X56721872Y-20140623D01*
X57574997Y-19287499D01*
X57981247Y-19693749D01*
X57981246Y-21399997D02*
X58103121Y-20709372D01*
X57493747Y-20912497D02*
X58346871Y-20059373D01*
X58671871Y-20384373D01*
X58712496Y-20506248D01*
X58712496Y-20587497D01*
X58671871Y-20709372D01*
X58549996Y-20831247D01*
X58428121Y-20871872D01*
X58346872Y-20871872D01*
X58224996Y-20831247D01*
X57899997Y-20506248D01*
X12719238Y-67342548D02*
X12029810Y-67342548D01*
X12374524Y-67342548D02*
X12374524Y-66136048D01*
X12259619Y-66308405D01*
X12144714Y-66423310D01*
X12029810Y-66480762D01*
X13466119Y-66136048D02*
X13581024Y-66136048D01*
X13695929Y-66193500D01*
X13753381Y-66250952D01*
X13810834Y-66365857D01*
X13868286Y-66595667D01*
X13868286Y-66882929D01*
X13810834Y-67112738D01*
X13753381Y-67227643D01*
X13695929Y-67285095D01*
X13581024Y-67342548D01*
X13466119Y-67342548D01*
X13351215Y-67285095D01*
X13293762Y-67227643D01*
X13236310Y-67112738D01*
X13178858Y-66882929D01*
X13178858Y-66595667D01*
X13236310Y-66365857D01*
X13293762Y-66250952D01*
X13351215Y-66193500D01*
X13466119Y-66136048D01*
X14615167Y-66136048D02*
X14730072Y-66136048D01*
X14844977Y-66193500D01*
X14902429Y-66250952D01*
X14959882Y-66365857D01*
X15017334Y-66595667D01*
X15017334Y-66882929D01*
X14959882Y-67112738D01*
X14902429Y-67227643D01*
X14844977Y-67285095D01*
X14730072Y-67342548D01*
X14615167Y-67342548D01*
X14500263Y-67285095D01*
X14442810Y-67227643D01*
X14385358Y-67112738D01*
X14327906Y-66882929D01*
X14327906Y-66595667D01*
X14385358Y-66365857D01*
X14442810Y-66250952D01*
X14500263Y-66193500D01*
X14615167Y-66136048D01*
X59638214Y-89595667D02*
X60442548Y-89595667D01*
X59178595Y-89882929D02*
X60040381Y-90170190D01*
X60040381Y-89423310D01*
X60327643Y-88963690D02*
X60385095Y-88906238D01*
X60442548Y-88963690D01*
X60385095Y-89021142D01*
X60327643Y-88963690D01*
X60442548Y-88963690D01*
X59236048Y-88504071D02*
X59236048Y-87699738D01*
X60442548Y-88216809D01*
X60442548Y-87240118D02*
X59236048Y-87240118D01*
X59982929Y-87125213D02*
X60442548Y-86780499D01*
X59638214Y-86780499D02*
X60097833Y-87240118D01*
X13638214Y-48695667D02*
X14442548Y-48695667D01*
X13178595Y-48982929D02*
X14040381Y-49270190D01*
X14040381Y-48523310D01*
X14327643Y-48063690D02*
X14385095Y-48006238D01*
X14442548Y-48063690D01*
X14385095Y-48121142D01*
X14327643Y-48063690D01*
X14442548Y-48063690D01*
X13236048Y-47604071D02*
X13236048Y-46799738D01*
X14442548Y-47316809D01*
X14442548Y-46340118D02*
X13236048Y-46340118D01*
X13982929Y-46225213D02*
X14442548Y-45880499D01*
X13638214Y-45880499D02*
X14097833Y-46340118D01*
X55638214Y-76795667D02*
X56442548Y-76795667D01*
X55178595Y-77082929D02*
X56040381Y-77370190D01*
X56040381Y-76623310D01*
X56327643Y-76163690D02*
X56385095Y-76106238D01*
X56442548Y-76163690D01*
X56385095Y-76221142D01*
X56327643Y-76163690D01*
X56442548Y-76163690D01*
X55236048Y-75704071D02*
X55236048Y-74899738D01*
X56442548Y-75416809D01*
X55638214Y-73923047D02*
X56442548Y-73923047D01*
X55638214Y-74440118D02*
X56270190Y-74440118D01*
X56385095Y-74382666D01*
X56442548Y-74267761D01*
X56442548Y-74095404D01*
X56385095Y-73980499D01*
X56327643Y-73923047D01*
X64136048Y-66282929D02*
X64136048Y-66168024D01*
X64193500Y-66053119D01*
X64250952Y-65995667D01*
X64365857Y-65938214D01*
X64595667Y-65880762D01*
X64882929Y-65880762D01*
X65112738Y-65938214D01*
X65227643Y-65995667D01*
X65285095Y-66053119D01*
X65342548Y-66168024D01*
X65342548Y-66282929D01*
X65285095Y-66397833D01*
X65227643Y-66455286D01*
X65112738Y-66512738D01*
X64882929Y-66570190D01*
X64595667Y-66570190D01*
X64365857Y-66512738D01*
X64250952Y-66455286D01*
X64193500Y-66397833D01*
X64136048Y-66282929D01*
X65227643Y-65363690D02*
X65285095Y-65306238D01*
X65342548Y-65363690D01*
X65285095Y-65421142D01*
X65227643Y-65363690D01*
X65342548Y-65363690D01*
X65342548Y-64157190D02*
X65342548Y-64846618D01*
X65342548Y-64501904D02*
X64136048Y-64501904D01*
X64308405Y-64616809D01*
X64423310Y-64731714D01*
X64480762Y-64846618D01*
X64538214Y-63123047D02*
X65342548Y-63123047D01*
X64538214Y-63640118D02*
X65170190Y-63640118D01*
X65285095Y-63582666D01*
X65342548Y-63467761D01*
X65342548Y-63295404D01*
X65285095Y-63180499D01*
X65227643Y-63123047D01*
D14*
X54031429Y-71990952D02*
X54031429Y-71229047D01*
X54412381Y-71609999D02*
X53650476Y-71609999D01*
D15*
X12519238Y-59142548D02*
X11829810Y-59142548D01*
X12174524Y-59142548D02*
X12174524Y-57936048D01*
X12059619Y-58108405D01*
X11944714Y-58223310D01*
X11829810Y-58280762D01*
X13266119Y-57936048D02*
X13381024Y-57936048D01*
X13495929Y-57993500D01*
X13553381Y-58050952D01*
X13610834Y-58165857D01*
X13668286Y-58395667D01*
X13668286Y-58682929D01*
X13610834Y-58912738D01*
X13553381Y-59027643D01*
X13495929Y-59085095D01*
X13381024Y-59142548D01*
X13266119Y-59142548D01*
X13151215Y-59085095D01*
X13093762Y-59027643D01*
X13036310Y-58912738D01*
X12978858Y-58682929D01*
X12978858Y-58395667D01*
X13036310Y-58165857D01*
X13093762Y-58050952D01*
X13151215Y-57993500D01*
X13266119Y-57936048D01*
X14415167Y-57936048D02*
X14530072Y-57936048D01*
X14644977Y-57993500D01*
X14702429Y-58050952D01*
X14759882Y-58165857D01*
X14817334Y-58395667D01*
X14817334Y-58682929D01*
X14759882Y-58912738D01*
X14702429Y-59027643D01*
X14644977Y-59085095D01*
X14530072Y-59142548D01*
X14415167Y-59142548D01*
X14300263Y-59085095D01*
X14242810Y-59027643D01*
X14185358Y-58912738D01*
X14127906Y-58682929D01*
X14127906Y-58395667D01*
X14185358Y-58165857D01*
X14242810Y-58050952D01*
X14300263Y-57993500D01*
X14415167Y-57936048D01*
X16161786Y-65842548D02*
X15587262Y-65842548D01*
X15587262Y-64636048D01*
X16563952Y-65210571D02*
X16966119Y-65210571D01*
X17138476Y-65842548D02*
X16563952Y-65842548D01*
X16563952Y-64636048D01*
X17138476Y-64636048D01*
X17655547Y-65842548D02*
X17655547Y-64636048D01*
X17942809Y-64636048D01*
X18115166Y-64693500D01*
X18230071Y-64808405D01*
X18287523Y-64923310D01*
X18344975Y-65153119D01*
X18344975Y-65325476D01*
X18287523Y-65555286D01*
X18230071Y-65670190D01*
X18115166Y-65785095D01*
X17942809Y-65842548D01*
X17655547Y-65842548D01*
X16161786Y-67342548D02*
X15587262Y-67342548D01*
X15587262Y-66136048D01*
X16563952Y-66710571D02*
X16966119Y-66710571D01*
X17138476Y-67342548D02*
X16563952Y-67342548D01*
X16563952Y-66136048D01*
X17138476Y-66136048D01*
X17655547Y-67342548D02*
X17655547Y-66136048D01*
X17942809Y-66136048D01*
X18115166Y-66193500D01*
X18230071Y-66308405D01*
X18287523Y-66423310D01*
X18344975Y-66653119D01*
X18344975Y-66825476D01*
X18287523Y-67055286D01*
X18230071Y-67170190D01*
X18115166Y-67285095D01*
X17942809Y-67342548D01*
X17655547Y-67342548D01*
X61861786Y-91442548D02*
X61287262Y-91442548D01*
X61287262Y-90236048D01*
X62263952Y-90810571D02*
X62666119Y-90810571D01*
X62838476Y-91442548D02*
X62263952Y-91442548D01*
X62263952Y-90236048D01*
X62838476Y-90236048D01*
X63355547Y-91442548D02*
X63355547Y-90236048D01*
X63642809Y-90236048D01*
X63815166Y-90293500D01*
X63930071Y-90408405D01*
X63987523Y-90523310D01*
X64044975Y-90753119D01*
X64044975Y-90925476D01*
X63987523Y-91155286D01*
X63930071Y-91270190D01*
X63815166Y-91385095D01*
X63642809Y-91442548D01*
X63355547Y-91442548D01*
X12861786Y-49942548D02*
X12287262Y-49942548D01*
X12287262Y-48736048D01*
X13263952Y-49310571D02*
X13666119Y-49310571D01*
X13838476Y-49942548D02*
X13263952Y-49942548D01*
X13263952Y-48736048D01*
X13838476Y-48736048D01*
X14355547Y-49942548D02*
X14355547Y-48736048D01*
X14642809Y-48736048D01*
X14815166Y-48793500D01*
X14930071Y-48908405D01*
X14987523Y-49023310D01*
X15044975Y-49253119D01*
X15044975Y-49425476D01*
X14987523Y-49655286D01*
X14930071Y-49770190D01*
X14815166Y-49885095D01*
X14642809Y-49942548D01*
X14355547Y-49942548D01*
X16061786Y-59142548D02*
X15487262Y-59142548D01*
X15487262Y-57936048D01*
X16463952Y-58510571D02*
X16866119Y-58510571D01*
X17038476Y-59142548D02*
X16463952Y-59142548D01*
X16463952Y-57936048D01*
X17038476Y-57936048D01*
X17555547Y-59142548D02*
X17555547Y-57936048D01*
X17842809Y-57936048D01*
X18015166Y-57993500D01*
X18130071Y-58108405D01*
X18187523Y-58223310D01*
X18244975Y-58453119D01*
X18244975Y-58625476D01*
X18187523Y-58855286D01*
X18130071Y-58970190D01*
X18015166Y-59085095D01*
X17842809Y-59142548D01*
X17555547Y-59142548D01*
D14*
X8452381Y-50761905D02*
X7452381Y-50761905D01*
X8452381Y-50190476D02*
X7880952Y-50619048D01*
X7452381Y-50190476D02*
X8023810Y-50761905D01*
X8166667Y-44738095D02*
X8166667Y-44261904D01*
X8452381Y-44833333D02*
X7452381Y-44500000D01*
X8452381Y-44166666D01*
D15*
X59804333Y-79138214D02*
X59804333Y-79942548D01*
X59517071Y-78678595D02*
X59229810Y-79540381D01*
X59976690Y-79540381D01*
X60436310Y-79827643D02*
X60493762Y-79885095D01*
X60436310Y-79942548D01*
X60378858Y-79885095D01*
X60436310Y-79827643D01*
X60436310Y-79942548D01*
X60895929Y-78736048D02*
X61700262Y-78736048D01*
X61183191Y-79942548D01*
X62676953Y-79138214D02*
X62676953Y-79942548D01*
X62159882Y-79138214D02*
X62159882Y-79770190D01*
X62217334Y-79885095D01*
X62332239Y-79942548D01*
X62504596Y-79942548D01*
X62619501Y-79885095D01*
X62676953Y-79827643D01*
X57638214Y-76795667D02*
X58442548Y-76795667D01*
X57178595Y-77082929D02*
X58040381Y-77370190D01*
X58040381Y-76623310D01*
X58327643Y-76163690D02*
X58385095Y-76106238D01*
X58442548Y-76163690D01*
X58385095Y-76221142D01*
X58327643Y-76163690D01*
X58442548Y-76163690D01*
X57236048Y-75704071D02*
X57236048Y-74899738D01*
X58442548Y-75416809D01*
X57638214Y-73923047D02*
X58442548Y-73923047D01*
X57638214Y-74440118D02*
X58270190Y-74440118D01*
X58385095Y-74382666D01*
X58442548Y-74267761D01*
X58442548Y-74095404D01*
X58385095Y-73980499D01*
X58327643Y-73923047D01*
M02*
