G04 #@! TF.FileFunction,Soldermask,Top*
%FSLAX46Y46*%
G04 Gerber Fmt 4.6, Leading zero omitted, Abs format (unit mm)*
G04 Created by KiCad (PCBNEW 4.0.4-stable) date 11/07/16 11:26:06*
%MOMM*%
%LPD*%
G01*
G04 APERTURE LIST*
%ADD10C,0.100000*%
%ADD11O,2.900000X1.900000*%
%ADD12C,3.400000*%
%ADD13C,2.100000*%
%ADD14R,2.100000X2.100000*%
%ADD15O,1.900000X2.900000*%
%ADD16R,2.398980X4.199840*%
%ADD17R,11.901120X9.399220*%
%ADD18C,1.700000*%
%ADD19R,1.700000X1.700000*%
%ADD20R,2.432000X2.432000*%
%ADD21O,2.432000X2.432000*%
%ADD22C,2.400000*%
%ADD23C,4.400000*%
%ADD24R,2.000000X2.200000*%
%ADD25R,1.400000X1.200000*%
%ADD26R,1.200000X1.400000*%
%ADD27R,2.200000X2.000000*%
%ADD28O,1.924000X1.400000*%
%ADD29C,1.924000*%
%ADD30R,2.200860X2.899360*%
%ADD31C,2.900000*%
%ADD32C,5.400000*%
%ADD33R,3.000000X1.900000*%
%ADD34C,4.464000*%
%ADD35C,1.600000*%
%ADD36R,2.127200X2.127200*%
%ADD37O,2.127200X2.127200*%
%ADD38R,2.432000X2.127200*%
%ADD39O,2.432000X2.127200*%
%ADD40C,0.026000*%
G04 APERTURE END LIST*
D10*
G36*
X13193755Y-75015075D02*
X15315075Y-72893755D01*
X17153553Y-74732233D01*
X15032233Y-76853553D01*
X13193755Y-75015075D01*
X13193755Y-75015075D01*
G37*
G36*
X16517158Y-78338478D02*
X18638478Y-76217158D01*
X20335534Y-77914214D01*
X18214214Y-80035534D01*
X16517158Y-78338478D01*
X16517158Y-78338478D01*
G37*
D11*
X67000000Y-71000000D03*
X67000000Y-68500000D03*
X67000000Y-66000000D03*
X67000000Y-63500000D03*
D12*
X73500000Y-67250000D03*
D13*
X14500000Y-25000000D03*
D14*
X9500000Y-25000000D03*
D15*
X21600000Y-84000000D03*
X24100000Y-84000000D03*
X26600000Y-84000000D03*
X29100000Y-84000000D03*
D12*
X25350000Y-90500000D03*
D15*
X34100000Y-84000000D03*
X36600000Y-84000000D03*
X39100000Y-84000000D03*
X41600000Y-84000000D03*
D12*
X37850000Y-90500000D03*
D16*
X26999360Y-39450100D03*
X22000640Y-39450100D03*
D17*
X24500000Y-50549900D03*
D10*
G36*
X18608311Y-73462221D02*
X18148692Y-73002602D01*
X19350773Y-71800521D01*
X19810392Y-72260140D01*
X18608311Y-73462221D01*
X18608311Y-73462221D01*
G37*
G36*
X18961864Y-73815774D02*
X18502245Y-73356155D01*
X19704326Y-72154074D01*
X20163945Y-72613693D01*
X18961864Y-73815774D01*
X18961864Y-73815774D01*
G37*
G36*
X19315418Y-74169328D02*
X18855799Y-73709709D01*
X20057880Y-72507628D01*
X20517499Y-72967247D01*
X19315418Y-74169328D01*
X19315418Y-74169328D01*
G37*
G36*
X19668971Y-74522881D02*
X19209352Y-74063262D01*
X20411433Y-72861181D01*
X20871052Y-73320800D01*
X19668971Y-74522881D01*
X19668971Y-74522881D01*
G37*
G36*
X20022524Y-74876434D02*
X19562905Y-74416815D01*
X20764986Y-73214734D01*
X21224605Y-73674353D01*
X20022524Y-74876434D01*
X20022524Y-74876434D01*
G37*
G36*
X20376078Y-75229988D02*
X19916459Y-74770369D01*
X21118540Y-73568288D01*
X21578159Y-74027907D01*
X20376078Y-75229988D01*
X20376078Y-75229988D01*
G37*
G36*
X20729631Y-75583541D02*
X20270012Y-75123922D01*
X21472093Y-73921841D01*
X21931712Y-74381460D01*
X20729631Y-75583541D01*
X20729631Y-75583541D01*
G37*
G36*
X21083185Y-75937095D02*
X20623566Y-75477476D01*
X21825647Y-74275395D01*
X22285266Y-74735014D01*
X21083185Y-75937095D01*
X21083185Y-75937095D01*
G37*
G36*
X21436738Y-76290648D02*
X20977119Y-75831029D01*
X22179200Y-74628948D01*
X22638819Y-75088567D01*
X21436738Y-76290648D01*
X21436738Y-76290648D01*
G37*
G36*
X21790291Y-76644201D02*
X21330672Y-76184582D01*
X22532753Y-74982501D01*
X22992372Y-75442120D01*
X21790291Y-76644201D01*
X21790291Y-76644201D01*
G37*
G36*
X22143845Y-76997755D02*
X21684226Y-76538136D01*
X22886307Y-75336055D01*
X23345926Y-75795674D01*
X22143845Y-76997755D01*
X22143845Y-76997755D01*
G37*
G36*
X22497398Y-77351308D02*
X22037779Y-76891689D01*
X23239860Y-75689608D01*
X23699479Y-76149227D01*
X22497398Y-77351308D01*
X22497398Y-77351308D01*
G37*
G36*
X25962221Y-76891689D02*
X25502602Y-77351308D01*
X24300521Y-76149227D01*
X24760140Y-75689608D01*
X25962221Y-76891689D01*
X25962221Y-76891689D01*
G37*
G36*
X26315774Y-76538136D02*
X25856155Y-76997755D01*
X24654074Y-75795674D01*
X25113693Y-75336055D01*
X26315774Y-76538136D01*
X26315774Y-76538136D01*
G37*
G36*
X26669328Y-76184582D02*
X26209709Y-76644201D01*
X25007628Y-75442120D01*
X25467247Y-74982501D01*
X26669328Y-76184582D01*
X26669328Y-76184582D01*
G37*
G36*
X27022881Y-75831029D02*
X26563262Y-76290648D01*
X25361181Y-75088567D01*
X25820800Y-74628948D01*
X27022881Y-75831029D01*
X27022881Y-75831029D01*
G37*
G36*
X27376434Y-75477476D02*
X26916815Y-75937095D01*
X25714734Y-74735014D01*
X26174353Y-74275395D01*
X27376434Y-75477476D01*
X27376434Y-75477476D01*
G37*
G36*
X27729988Y-75123922D02*
X27270369Y-75583541D01*
X26068288Y-74381460D01*
X26527907Y-73921841D01*
X27729988Y-75123922D01*
X27729988Y-75123922D01*
G37*
G36*
X28083541Y-74770369D02*
X27623922Y-75229988D01*
X26421841Y-74027907D01*
X26881460Y-73568288D01*
X28083541Y-74770369D01*
X28083541Y-74770369D01*
G37*
G36*
X28437095Y-74416815D02*
X27977476Y-74876434D01*
X26775395Y-73674353D01*
X27235014Y-73214734D01*
X28437095Y-74416815D01*
X28437095Y-74416815D01*
G37*
G36*
X28790648Y-74063262D02*
X28331029Y-74522881D01*
X27128948Y-73320800D01*
X27588567Y-72861181D01*
X28790648Y-74063262D01*
X28790648Y-74063262D01*
G37*
G36*
X29144201Y-73709709D02*
X28684582Y-74169328D01*
X27482501Y-72967247D01*
X27942120Y-72507628D01*
X29144201Y-73709709D01*
X29144201Y-73709709D01*
G37*
G36*
X29497755Y-73356155D02*
X29038136Y-73815774D01*
X27836055Y-72613693D01*
X28295674Y-72154074D01*
X29497755Y-73356155D01*
X29497755Y-73356155D01*
G37*
G36*
X29851308Y-73002602D02*
X29391689Y-73462221D01*
X28189608Y-72260140D01*
X28649227Y-71800521D01*
X29851308Y-73002602D01*
X29851308Y-73002602D01*
G37*
G36*
X28649227Y-71199479D02*
X28189608Y-70739860D01*
X29391689Y-69537779D01*
X29851308Y-69997398D01*
X28649227Y-71199479D01*
X28649227Y-71199479D01*
G37*
G36*
X28295674Y-70845926D02*
X27836055Y-70386307D01*
X29038136Y-69184226D01*
X29497755Y-69643845D01*
X28295674Y-70845926D01*
X28295674Y-70845926D01*
G37*
G36*
X27942120Y-70492372D02*
X27482501Y-70032753D01*
X28684582Y-68830672D01*
X29144201Y-69290291D01*
X27942120Y-70492372D01*
X27942120Y-70492372D01*
G37*
G36*
X27588567Y-70138819D02*
X27128948Y-69679200D01*
X28331029Y-68477119D01*
X28790648Y-68936738D01*
X27588567Y-70138819D01*
X27588567Y-70138819D01*
G37*
G36*
X27235014Y-69785266D02*
X26775395Y-69325647D01*
X27977476Y-68123566D01*
X28437095Y-68583185D01*
X27235014Y-69785266D01*
X27235014Y-69785266D01*
G37*
G36*
X26881460Y-69431712D02*
X26421841Y-68972093D01*
X27623922Y-67770012D01*
X28083541Y-68229631D01*
X26881460Y-69431712D01*
X26881460Y-69431712D01*
G37*
G36*
X26527907Y-69078159D02*
X26068288Y-68618540D01*
X27270369Y-67416459D01*
X27729988Y-67876078D01*
X26527907Y-69078159D01*
X26527907Y-69078159D01*
G37*
G36*
X26174353Y-68724605D02*
X25714734Y-68264986D01*
X26916815Y-67062905D01*
X27376434Y-67522524D01*
X26174353Y-68724605D01*
X26174353Y-68724605D01*
G37*
G36*
X25820800Y-68371052D02*
X25361181Y-67911433D01*
X26563262Y-66709352D01*
X27022881Y-67168971D01*
X25820800Y-68371052D01*
X25820800Y-68371052D01*
G37*
G36*
X25467247Y-68017499D02*
X25007628Y-67557880D01*
X26209709Y-66355799D01*
X26669328Y-66815418D01*
X25467247Y-68017499D01*
X25467247Y-68017499D01*
G37*
G36*
X25113693Y-67663945D02*
X24654074Y-67204326D01*
X25856155Y-66002245D01*
X26315774Y-66461864D01*
X25113693Y-67663945D01*
X25113693Y-67663945D01*
G37*
G36*
X24760140Y-67310392D02*
X24300521Y-66850773D01*
X25502602Y-65648692D01*
X25962221Y-66108311D01*
X24760140Y-67310392D01*
X24760140Y-67310392D01*
G37*
G36*
X23699479Y-66850773D02*
X23239860Y-67310392D01*
X22037779Y-66108311D01*
X22497398Y-65648692D01*
X23699479Y-66850773D01*
X23699479Y-66850773D01*
G37*
G36*
X23345926Y-67204326D02*
X22886307Y-67663945D01*
X21684226Y-66461864D01*
X22143845Y-66002245D01*
X23345926Y-67204326D01*
X23345926Y-67204326D01*
G37*
G36*
X22992372Y-67557880D02*
X22532753Y-68017499D01*
X21330672Y-66815418D01*
X21790291Y-66355799D01*
X22992372Y-67557880D01*
X22992372Y-67557880D01*
G37*
G36*
X22638819Y-67911433D02*
X22179200Y-68371052D01*
X20977119Y-67168971D01*
X21436738Y-66709352D01*
X22638819Y-67911433D01*
X22638819Y-67911433D01*
G37*
G36*
X22285266Y-68264986D02*
X21825647Y-68724605D01*
X20623566Y-67522524D01*
X21083185Y-67062905D01*
X22285266Y-68264986D01*
X22285266Y-68264986D01*
G37*
G36*
X21931712Y-68618540D02*
X21472093Y-69078159D01*
X20270012Y-67876078D01*
X20729631Y-67416459D01*
X21931712Y-68618540D01*
X21931712Y-68618540D01*
G37*
G36*
X21578159Y-68972093D02*
X21118540Y-69431712D01*
X19916459Y-68229631D01*
X20376078Y-67770012D01*
X21578159Y-68972093D01*
X21578159Y-68972093D01*
G37*
G36*
X21224605Y-69325647D02*
X20764986Y-69785266D01*
X19562905Y-68583185D01*
X20022524Y-68123566D01*
X21224605Y-69325647D01*
X21224605Y-69325647D01*
G37*
G36*
X20871052Y-69679200D02*
X20411433Y-70138819D01*
X19209352Y-68936738D01*
X19668971Y-68477119D01*
X20871052Y-69679200D01*
X20871052Y-69679200D01*
G37*
G36*
X20517499Y-70032753D02*
X20057880Y-70492372D01*
X18855799Y-69290291D01*
X19315418Y-68830672D01*
X20517499Y-70032753D01*
X20517499Y-70032753D01*
G37*
G36*
X20163945Y-70386307D02*
X19704326Y-70845926D01*
X18502245Y-69643845D01*
X18961864Y-69184226D01*
X20163945Y-70386307D01*
X20163945Y-70386307D01*
G37*
G36*
X19810392Y-70739860D02*
X19350773Y-71199479D01*
X18148692Y-69997398D01*
X18608311Y-69537779D01*
X19810392Y-70739860D01*
X19810392Y-70739860D01*
G37*
D18*
X61500000Y-83500000D03*
D19*
X59000000Y-83500000D03*
D11*
X67000000Y-83500000D03*
X67000000Y-81000000D03*
X67000000Y-78500000D03*
X67000000Y-76000000D03*
D12*
X73500000Y-79750000D03*
D16*
X52999360Y-39450100D03*
X48000640Y-39450100D03*
D17*
X50500000Y-50549900D03*
D20*
X67800000Y-87800000D03*
D21*
X65260000Y-87800000D03*
D16*
X39999360Y-39450100D03*
X35000640Y-39450100D03*
D17*
X37500000Y-50549900D03*
D16*
X39999360Y-20450100D03*
X35000640Y-20450100D03*
D17*
X37500000Y-31549900D03*
D16*
X26999360Y-20450100D03*
X22000640Y-20450100D03*
D17*
X24500000Y-31549900D03*
D16*
X65999360Y-39450100D03*
X61000640Y-39450100D03*
D17*
X63500000Y-50549900D03*
D16*
X65999360Y-20450100D03*
X61000640Y-20450100D03*
D17*
X63500000Y-31549900D03*
D16*
X52999360Y-20450100D03*
X48000640Y-20450100D03*
D17*
X50500000Y-31549900D03*
D22*
X15040000Y-12000000D03*
X15040000Y-17080000D03*
X9960000Y-12000000D03*
X9960000Y-17080000D03*
D23*
X12500000Y-4380000D03*
D24*
X12900000Y-45500000D03*
X16100000Y-45500000D03*
D25*
X4800000Y-78800000D03*
X4800000Y-77000000D03*
D10*
G36*
X12144365Y-76634315D02*
X13134315Y-75644365D01*
X13982843Y-76492893D01*
X12992893Y-77482843D01*
X12144365Y-76634315D01*
X12144365Y-76634315D01*
G37*
G36*
X13417157Y-77907107D02*
X14407107Y-76917157D01*
X15255635Y-77765685D01*
X14265685Y-78755635D01*
X13417157Y-77907107D01*
X13417157Y-77907107D01*
G37*
G36*
X17655635Y-80165685D02*
X16665685Y-81155635D01*
X15817157Y-80307107D01*
X16807107Y-79317157D01*
X17655635Y-80165685D01*
X17655635Y-80165685D01*
G37*
G36*
X16382843Y-78892893D02*
X15392893Y-79882843D01*
X14544365Y-79034315D01*
X15534315Y-78044365D01*
X16382843Y-78892893D01*
X16382843Y-78892893D01*
G37*
D26*
X24900000Y-65200000D03*
X23100000Y-65200000D03*
D25*
X17700000Y-70600000D03*
X17700000Y-72400000D03*
X6500000Y-78800000D03*
X6500000Y-77000000D03*
D26*
X14200000Y-61900000D03*
X12400000Y-61900000D03*
D25*
X44500000Y-23600000D03*
X44500000Y-25400000D03*
X31500000Y-23600000D03*
X31500000Y-25400000D03*
X70500000Y-23600000D03*
X70500000Y-25400000D03*
X57500000Y-23600000D03*
X57500000Y-25400000D03*
X30300000Y-72400000D03*
X30300000Y-70600000D03*
D10*
G36*
X44555635Y-21565685D02*
X43565685Y-22555635D01*
X42717157Y-21707107D01*
X43707107Y-20717157D01*
X44555635Y-21565685D01*
X44555635Y-21565685D01*
G37*
G36*
X43282843Y-20292893D02*
X42292893Y-21282843D01*
X41444365Y-20434315D01*
X42434315Y-19444365D01*
X43282843Y-20292893D01*
X43282843Y-20292893D01*
G37*
G36*
X31555635Y-21565685D02*
X30565685Y-22555635D01*
X29717157Y-21707107D01*
X30707107Y-20717157D01*
X31555635Y-21565685D01*
X31555635Y-21565685D01*
G37*
G36*
X30282843Y-20292893D02*
X29292893Y-21282843D01*
X28444365Y-20434315D01*
X29434315Y-19444365D01*
X30282843Y-20292893D01*
X30282843Y-20292893D01*
G37*
G36*
X70555635Y-21565685D02*
X69565685Y-22555635D01*
X68717157Y-21707107D01*
X69707107Y-20717157D01*
X70555635Y-21565685D01*
X70555635Y-21565685D01*
G37*
G36*
X69282843Y-20292893D02*
X68292893Y-21282843D01*
X67444365Y-20434315D01*
X68434315Y-19444365D01*
X69282843Y-20292893D01*
X69282843Y-20292893D01*
G37*
G36*
X57555635Y-21565685D02*
X56565685Y-22555635D01*
X55717157Y-21707107D01*
X56707107Y-20717157D01*
X57555635Y-21565685D01*
X57555635Y-21565685D01*
G37*
G36*
X56282843Y-20292893D02*
X55292893Y-21282843D01*
X54444365Y-20434315D01*
X55434315Y-19444365D01*
X56282843Y-20292893D01*
X56282843Y-20292893D01*
G37*
D26*
X14200000Y-63900000D03*
X12400000Y-63900000D03*
D25*
X61100000Y-89400000D03*
X61100000Y-87600000D03*
X12500000Y-48900000D03*
X12500000Y-47100000D03*
D27*
X53800000Y-77400000D03*
X53800000Y-74200000D03*
D28*
X34200000Y-66200000D03*
X34200000Y-67700000D03*
X34200000Y-69200000D03*
X34200000Y-70700000D03*
X34200000Y-72200000D03*
X34200000Y-73700000D03*
D29*
X42260000Y-71510000D03*
X44800000Y-71510000D03*
X47340000Y-71510000D03*
X47340000Y-63890000D03*
X44800000Y-63890000D03*
X42260000Y-63890000D03*
D13*
X14500000Y-38000000D03*
D14*
X9500000Y-38000000D03*
D25*
X63100000Y-65900000D03*
X63100000Y-64100000D03*
D22*
X56500000Y-71599840D03*
X56500000Y-64000160D03*
D26*
X14200000Y-59900000D03*
X12400000Y-59900000D03*
D15*
X9100000Y-84000000D03*
X11600000Y-84000000D03*
X14100000Y-84000000D03*
X16600000Y-84000000D03*
D12*
X12850000Y-90500000D03*
D15*
X46600000Y-84000000D03*
X49100000Y-84000000D03*
X51600000Y-84000000D03*
X54100000Y-84000000D03*
D12*
X50350000Y-90500000D03*
D26*
X17700000Y-61900000D03*
X15900000Y-61900000D03*
X17700000Y-63900000D03*
X15900000Y-63900000D03*
D25*
X62700000Y-87600000D03*
X62700000Y-89400000D03*
D26*
X11400000Y-52000000D03*
X9600000Y-52000000D03*
X17700000Y-59900000D03*
X15900000Y-59900000D03*
D30*
X9500000Y-49498980D03*
X9500000Y-45501020D03*
D27*
X62200000Y-76900000D03*
X62200000Y-73700000D03*
X59700000Y-76900000D03*
X59700000Y-73700000D03*
D31*
X36000000Y-12250000D03*
X30920000Y-12250000D03*
D32*
X39810000Y-4630000D03*
X27110000Y-4630000D03*
D31*
X62000000Y-12250000D03*
X56920000Y-12250000D03*
D32*
X65810000Y-4630000D03*
X53110000Y-4630000D03*
D18*
X14000000Y-51500000D03*
D19*
X16500000Y-51500000D03*
D33*
X2200000Y-73500000D03*
X7800000Y-73500000D03*
X2200000Y-63500000D03*
X7800000Y-63500000D03*
X2200000Y-68500000D03*
X7800000Y-68500000D03*
D34*
X3500000Y-12000000D03*
X3500000Y-17000000D03*
D35*
X58500000Y-88000000D03*
X58500000Y-90500000D03*
X72000000Y-14900000D03*
X70500000Y-41500000D03*
D36*
X72000000Y-20300000D03*
D37*
X74540000Y-20300000D03*
X72000000Y-17760000D03*
X74540000Y-17760000D03*
D38*
X74500000Y-58500000D03*
D39*
X74500000Y-55960000D03*
X74500000Y-53420000D03*
X74500000Y-50880000D03*
X74500000Y-48340000D03*
X74500000Y-45800000D03*
D40*
G36*
X70487000Y-57487000D02*
X5513000Y-57487000D01*
X5513000Y-55513000D01*
X70487000Y-55513000D01*
X70487000Y-57487000D01*
X70487000Y-57487000D01*
G37*
X70487000Y-57487000D02*
X5513000Y-57487000D01*
X5513000Y-55513000D01*
X70487000Y-55513000D01*
X70487000Y-57487000D01*
G36*
X22487000Y-16000000D02*
X22488024Y-16005058D01*
X22490935Y-16009319D01*
X22495275Y-16012111D01*
X22500000Y-16013000D01*
X63987000Y-16013000D01*
X63987000Y-17987000D01*
X19513000Y-17987000D01*
X19513000Y-8513000D01*
X22487000Y-8513000D01*
X22487000Y-16000000D01*
X22487000Y-16000000D01*
G37*
X22487000Y-16000000D02*
X22488024Y-16005058D01*
X22490935Y-16009319D01*
X22495275Y-16012111D01*
X22500000Y-16013000D01*
X63987000Y-16013000D01*
X63987000Y-17987000D01*
X19513000Y-17987000D01*
X19513000Y-8513000D01*
X22487000Y-8513000D01*
X22487000Y-16000000D01*
M02*
