G04 #@! TF.FileFunction,Legend,Bot*
%FSLAX46Y46*%
G04 Gerber Fmt 4.6, Leading zero omitted, Abs format (unit mm)*
G04 Created by KiCad (PCBNEW 4.0.4-stable) date 11/06/16 21:55:52*
%MOMM*%
%LPD*%
G01*
G04 APERTURE LIST*
%ADD10C,0.100000*%
%ADD11C,0.300000*%
%ADD12C,0.150000*%
%ADD13C,0.500000*%
%ADD14C,0.010000*%
%ADD15C,0.101600*%
G04 APERTURE END LIST*
D10*
D11*
X55528572Y-67521429D02*
X55528572Y-69021429D01*
X55528572Y-68307143D02*
X56385715Y-68307143D01*
X56385715Y-67521429D02*
X56385715Y-69021429D01*
X56885715Y-69021429D02*
X57385715Y-67521429D01*
X57885715Y-69021429D01*
X64828571Y-69378571D02*
X65685714Y-69378571D01*
X65257142Y-69378571D02*
X65257142Y-67878571D01*
X65399999Y-68092857D01*
X65542857Y-68235714D01*
X65685714Y-68307143D01*
X64257143Y-68021429D02*
X64185714Y-67950000D01*
X64042857Y-67878571D01*
X63685714Y-67878571D01*
X63542857Y-67950000D01*
X63471428Y-68021429D01*
X63400000Y-68164286D01*
X63400000Y-68307143D01*
X63471428Y-68521429D01*
X64328571Y-69378571D01*
X63400000Y-69378571D01*
X62971429Y-67878571D02*
X62471429Y-69378571D01*
X61971429Y-67878571D01*
X63885713Y-69978571D02*
X64599999Y-69978571D01*
X64671428Y-70692857D01*
X64599999Y-70621429D01*
X64457142Y-70550000D01*
X64099999Y-70550000D01*
X63957142Y-70621429D01*
X63885713Y-70692857D01*
X63814285Y-70835714D01*
X63814285Y-71192857D01*
X63885713Y-71335714D01*
X63957142Y-71407143D01*
X64099999Y-71478571D01*
X64457142Y-71478571D01*
X64599999Y-71407143D01*
X64671428Y-71335714D01*
X63385714Y-69978571D02*
X62885714Y-71478571D01*
X62385714Y-69978571D01*
X33114285Y-69878571D02*
X32185714Y-69878571D01*
X32685714Y-70450000D01*
X32471428Y-70450000D01*
X32328571Y-70521429D01*
X32257142Y-70592857D01*
X32185714Y-70735714D01*
X32185714Y-71092857D01*
X32257142Y-71235714D01*
X32328571Y-71307143D01*
X32471428Y-71378571D01*
X32900000Y-71378571D01*
X33042857Y-71307143D01*
X33114285Y-71235714D01*
X31542857Y-71235714D02*
X31471429Y-71307143D01*
X31542857Y-71378571D01*
X31614286Y-71307143D01*
X31542857Y-71235714D01*
X31542857Y-71378571D01*
X30971428Y-69878571D02*
X30042857Y-69878571D01*
X30542857Y-70450000D01*
X30328571Y-70450000D01*
X30185714Y-70521429D01*
X30114285Y-70592857D01*
X30042857Y-70735714D01*
X30042857Y-71092857D01*
X30114285Y-71235714D01*
X30185714Y-71307143D01*
X30328571Y-71378571D01*
X30757143Y-71378571D01*
X30900000Y-71307143D01*
X30971428Y-71235714D01*
X29614286Y-69878571D02*
X29114286Y-71378571D01*
X28614286Y-69878571D01*
X34964285Y-65578571D02*
X34964285Y-64078571D01*
X34107142Y-65578571D01*
X34107142Y-64078571D01*
X32535713Y-65578571D02*
X33035713Y-64864286D01*
X33392856Y-65578571D02*
X33392856Y-64078571D01*
X32821428Y-64078571D01*
X32678570Y-64150000D01*
X32607142Y-64221429D01*
X32535713Y-64364286D01*
X32535713Y-64578571D01*
X32607142Y-64721429D01*
X32678570Y-64792857D01*
X32821428Y-64864286D01*
X33392856Y-64864286D01*
X31964285Y-65507143D02*
X31749999Y-65578571D01*
X31392856Y-65578571D01*
X31249999Y-65507143D01*
X31178570Y-65435714D01*
X31107142Y-65292857D01*
X31107142Y-65150000D01*
X31178570Y-65007143D01*
X31249999Y-64935714D01*
X31392856Y-64864286D01*
X31678570Y-64792857D01*
X31821428Y-64721429D01*
X31892856Y-64650000D01*
X31964285Y-64507143D01*
X31964285Y-64364286D01*
X31892856Y-64221429D01*
X31821428Y-64150000D01*
X31678570Y-64078571D01*
X31321428Y-64078571D01*
X31107142Y-64150000D01*
X30678571Y-64078571D02*
X29821428Y-64078571D01*
X30249999Y-65578571D02*
X30249999Y-64078571D01*
X45285715Y-89596429D02*
X46214286Y-89596429D01*
X45714286Y-89025000D01*
X45928572Y-89025000D01*
X46071429Y-88953571D01*
X46142858Y-88882143D01*
X46214286Y-88739286D01*
X46214286Y-88382143D01*
X46142858Y-88239286D01*
X46071429Y-88167857D01*
X45928572Y-88096429D01*
X45500000Y-88096429D01*
X45357143Y-88167857D01*
X45285715Y-88239286D01*
X46857143Y-88239286D02*
X46928571Y-88167857D01*
X46857143Y-88096429D01*
X46785714Y-88167857D01*
X46857143Y-88239286D01*
X46857143Y-88096429D01*
X47428572Y-89596429D02*
X48357143Y-89596429D01*
X47857143Y-89025000D01*
X48071429Y-89025000D01*
X48214286Y-88953571D01*
X48285715Y-88882143D01*
X48357143Y-88739286D01*
X48357143Y-88382143D01*
X48285715Y-88239286D01*
X48214286Y-88167857D01*
X48071429Y-88096429D01*
X47642857Y-88096429D01*
X47500000Y-88167857D01*
X47428572Y-88239286D01*
X48785714Y-89596429D02*
X49285714Y-88096429D01*
X49785714Y-89596429D01*
X46357143Y-86975000D02*
X46214286Y-87046429D01*
X46000000Y-87046429D01*
X45785715Y-86975000D01*
X45642857Y-86832143D01*
X45571429Y-86689286D01*
X45500000Y-86403571D01*
X45500000Y-86189286D01*
X45571429Y-85903571D01*
X45642857Y-85760714D01*
X45785715Y-85617857D01*
X46000000Y-85546429D01*
X46142857Y-85546429D01*
X46357143Y-85617857D01*
X46428572Y-85689286D01*
X46428572Y-86189286D01*
X46142857Y-86189286D01*
X47071429Y-85546429D02*
X47071429Y-87046429D01*
X47928572Y-85546429D01*
X47928572Y-87046429D01*
X48642858Y-85546429D02*
X48642858Y-87046429D01*
X49000001Y-87046429D01*
X49214286Y-86975000D01*
X49357144Y-86832143D01*
X49428572Y-86689286D01*
X49500001Y-86403571D01*
X49500001Y-86189286D01*
X49428572Y-85903571D01*
X49357144Y-85760714D01*
X49214286Y-85617857D01*
X49000001Y-85546429D01*
X48642858Y-85546429D01*
X32785715Y-89596429D02*
X33714286Y-89596429D01*
X33214286Y-89025000D01*
X33428572Y-89025000D01*
X33571429Y-88953571D01*
X33642858Y-88882143D01*
X33714286Y-88739286D01*
X33714286Y-88382143D01*
X33642858Y-88239286D01*
X33571429Y-88167857D01*
X33428572Y-88096429D01*
X33000000Y-88096429D01*
X32857143Y-88167857D01*
X32785715Y-88239286D01*
X34357143Y-88239286D02*
X34428571Y-88167857D01*
X34357143Y-88096429D01*
X34285714Y-88167857D01*
X34357143Y-88239286D01*
X34357143Y-88096429D01*
X34928572Y-89596429D02*
X35857143Y-89596429D01*
X35357143Y-89025000D01*
X35571429Y-89025000D01*
X35714286Y-88953571D01*
X35785715Y-88882143D01*
X35857143Y-88739286D01*
X35857143Y-88382143D01*
X35785715Y-88239286D01*
X35714286Y-88167857D01*
X35571429Y-88096429D01*
X35142857Y-88096429D01*
X35000000Y-88167857D01*
X34928572Y-88239286D01*
X36285714Y-89596429D02*
X36785714Y-88096429D01*
X37285714Y-89596429D01*
X33857143Y-86975000D02*
X33714286Y-87046429D01*
X33500000Y-87046429D01*
X33285715Y-86975000D01*
X33142857Y-86832143D01*
X33071429Y-86689286D01*
X33000000Y-86403571D01*
X33000000Y-86189286D01*
X33071429Y-85903571D01*
X33142857Y-85760714D01*
X33285715Y-85617857D01*
X33500000Y-85546429D01*
X33642857Y-85546429D01*
X33857143Y-85617857D01*
X33928572Y-85689286D01*
X33928572Y-86189286D01*
X33642857Y-86189286D01*
X34571429Y-85546429D02*
X34571429Y-87046429D01*
X35428572Y-85546429D01*
X35428572Y-87046429D01*
X36142858Y-85546429D02*
X36142858Y-87046429D01*
X36500001Y-87046429D01*
X36714286Y-86975000D01*
X36857144Y-86832143D01*
X36928572Y-86689286D01*
X37000001Y-86403571D01*
X37000001Y-86189286D01*
X36928572Y-85903571D01*
X36857144Y-85760714D01*
X36714286Y-85617857D01*
X36500001Y-85546429D01*
X36142858Y-85546429D01*
X13750000Y-27357143D02*
X13678571Y-27214286D01*
X13678571Y-27000000D01*
X13750000Y-26785715D01*
X13892857Y-26642857D01*
X14035714Y-26571429D01*
X14321429Y-26500000D01*
X14535714Y-26500000D01*
X14821429Y-26571429D01*
X14964286Y-26642857D01*
X15107143Y-26785715D01*
X15178571Y-27000000D01*
X15178571Y-27142857D01*
X15107143Y-27357143D01*
X15035714Y-27428572D01*
X14535714Y-27428572D01*
X14535714Y-27142857D01*
X15178571Y-28071429D02*
X13678571Y-28071429D01*
X15178571Y-28928572D01*
X13678571Y-28928572D01*
X15178571Y-29642858D02*
X13678571Y-29642858D01*
X13678571Y-30000001D01*
X13750000Y-30214286D01*
X13892857Y-30357144D01*
X14035714Y-30428572D01*
X14321429Y-30500001D01*
X14535714Y-30500001D01*
X14821429Y-30428572D01*
X14964286Y-30357144D01*
X15107143Y-30214286D01*
X15178571Y-30000001D01*
X15178571Y-29642858D01*
X9392857Y-26892858D02*
X9464286Y-27107144D01*
X9535714Y-27178572D01*
X9678571Y-27250001D01*
X9892857Y-27250001D01*
X10035714Y-27178572D01*
X10107143Y-27107144D01*
X10178571Y-26964286D01*
X10178571Y-26392858D01*
X8678571Y-26392858D01*
X8678571Y-26892858D01*
X8750000Y-27035715D01*
X8821429Y-27107144D01*
X8964286Y-27178572D01*
X9107143Y-27178572D01*
X9250000Y-27107144D01*
X9321429Y-27035715D01*
X9392857Y-26892858D01*
X9392857Y-26392858D01*
X9750000Y-27821429D02*
X9750000Y-28535715D01*
X10178571Y-27678572D02*
X8678571Y-28178572D01*
X10178571Y-28678572D01*
X8678571Y-28964286D02*
X8678571Y-29821429D01*
X10178571Y-29392858D02*
X8678571Y-29392858D01*
X8678571Y-30107143D02*
X8678571Y-30964286D01*
X10178571Y-30535715D02*
X8678571Y-30535715D01*
X9607143Y-31464286D02*
X9607143Y-32607143D01*
X10178571Y-32035714D02*
X9035714Y-32035714D01*
X73607143Y-59107143D02*
X73821429Y-59035714D01*
X73892857Y-58964286D01*
X73964286Y-58821429D01*
X73964286Y-58607143D01*
X73892857Y-58464286D01*
X73821429Y-58392857D01*
X73678571Y-58321429D01*
X73107143Y-58321429D01*
X73107143Y-59821429D01*
X73607143Y-59821429D01*
X73750000Y-59750000D01*
X73821429Y-59678571D01*
X73892857Y-59535714D01*
X73892857Y-59392857D01*
X73821429Y-59250000D01*
X73750000Y-59178571D01*
X73607143Y-59107143D01*
X73107143Y-59107143D01*
X58821429Y-59107143D02*
X59035715Y-59035714D01*
X59107143Y-58964286D01*
X59178572Y-58821429D01*
X59178572Y-58607143D01*
X59107143Y-58464286D01*
X59035715Y-58392857D01*
X58892857Y-58321429D01*
X58321429Y-58321429D01*
X58321429Y-59821429D01*
X58821429Y-59821429D01*
X58964286Y-59750000D01*
X59035715Y-59678571D01*
X59107143Y-59535714D01*
X59107143Y-59392857D01*
X59035715Y-59250000D01*
X58964286Y-59178571D01*
X58821429Y-59107143D01*
X58321429Y-59107143D01*
X59821429Y-58321429D02*
X59821429Y-59821429D01*
X60678572Y-58321429D01*
X60678572Y-59821429D01*
X42142857Y-58750000D02*
X42857143Y-58750000D01*
X42000000Y-58321429D02*
X42500000Y-59821429D01*
X43000000Y-58321429D01*
X27357143Y-58750000D02*
X28071429Y-58750000D01*
X27214286Y-58321429D02*
X27714286Y-59821429D01*
X28214286Y-58321429D01*
X28714286Y-58321429D02*
X28714286Y-59821429D01*
X29571429Y-58321429D01*
X29571429Y-59821429D01*
D12*
X13397000Y-42524000D02*
X13397000Y-39349000D01*
X13397000Y-39349000D02*
X15175000Y-39349000D01*
X15175000Y-39349000D02*
X15175000Y-42524000D01*
X8825000Y-42524000D02*
X8825000Y-39349000D01*
X8825000Y-39349000D02*
X10603000Y-39349000D01*
X10603000Y-39349000D02*
X10603000Y-42524000D01*
X15429000Y-48620000D02*
X15429000Y-42524000D01*
X15429000Y-42524000D02*
X8571000Y-42524000D01*
X8571000Y-42524000D02*
X8571000Y-50398000D01*
X8571000Y-50525000D02*
X15429000Y-50525000D01*
X15429000Y-50398000D02*
X15429000Y-48620000D01*
X42575000Y-56075000D02*
X42470000Y-56075000D01*
X42575000Y-51925000D02*
X42470000Y-51925000D01*
X32425000Y-51925000D02*
X32530000Y-51925000D01*
X32425000Y-56075000D02*
X32530000Y-56075000D01*
X42575000Y-56075000D02*
X42575000Y-51925000D01*
X32425000Y-56075000D02*
X32425000Y-51925000D01*
X42470000Y-56075000D02*
X42470000Y-57450000D01*
X29575000Y-56075000D02*
X29470000Y-56075000D01*
X29575000Y-51925000D02*
X29470000Y-51925000D01*
X19425000Y-51925000D02*
X19530000Y-51925000D01*
X19425000Y-56075000D02*
X19530000Y-56075000D01*
X29575000Y-56075000D02*
X29575000Y-51925000D01*
X19425000Y-56075000D02*
X19425000Y-51925000D01*
X29470000Y-56075000D02*
X29470000Y-57450000D01*
X68575000Y-56075000D02*
X68470000Y-56075000D01*
X68575000Y-51925000D02*
X68470000Y-51925000D01*
X58425000Y-51925000D02*
X58530000Y-51925000D01*
X58425000Y-56075000D02*
X58530000Y-56075000D01*
X68575000Y-56075000D02*
X68575000Y-51925000D01*
X58425000Y-56075000D02*
X58425000Y-51925000D01*
X68470000Y-56075000D02*
X68470000Y-57450000D01*
X55575000Y-56075000D02*
X55470000Y-56075000D01*
X55575000Y-51925000D02*
X55470000Y-51925000D01*
X45425000Y-51925000D02*
X45530000Y-51925000D01*
X45425000Y-56075000D02*
X45530000Y-56075000D01*
X55575000Y-56075000D02*
X55575000Y-51925000D01*
X45425000Y-56075000D02*
X45425000Y-51925000D01*
X55470000Y-56075000D02*
X55470000Y-57450000D01*
X59525000Y-67575000D02*
X59525000Y-67430000D01*
X63675000Y-67575000D02*
X63675000Y-67430000D01*
X63675000Y-62425000D02*
X63675000Y-62570000D01*
X59525000Y-62425000D02*
X59525000Y-62570000D01*
X59525000Y-67575000D02*
X63675000Y-67575000D01*
X59525000Y-62425000D02*
X63675000Y-62425000D01*
X59525000Y-67430000D02*
X58125000Y-67430000D01*
X63999140Y-82750060D02*
X63999140Y-82399540D01*
X63999140Y-79249940D02*
X63999140Y-79600460D01*
X59949560Y-82750060D02*
X59949560Y-82399540D01*
X64450440Y-82750060D02*
X64450440Y-82399540D01*
X64450440Y-79249940D02*
X64450440Y-79600460D01*
X59949560Y-79249940D02*
X59949560Y-79600460D01*
X64450440Y-82750060D02*
X59949560Y-82750060D01*
X64450440Y-79249940D02*
X59949560Y-79249940D01*
X50450800Y-65400180D02*
X49749760Y-65400180D01*
X49749760Y-65400180D02*
X49749760Y-65649100D01*
X49749760Y-68199160D02*
X49749760Y-68399820D01*
X49749760Y-68399820D02*
X50450800Y-68399820D01*
X33289000Y-65795000D02*
X33289000Y-69605000D01*
X33289000Y-69605000D02*
X31511000Y-69605000D01*
X31511000Y-69605000D02*
X31511000Y-65795000D01*
X33289000Y-65795000D02*
X31511000Y-65795000D01*
D13*
X58100000Y-78600000D02*
X61200000Y-78600000D01*
X58100000Y-72000000D02*
X61200000Y-72000000D01*
X61200000Y-72000000D02*
X61200000Y-78600000D01*
X58100000Y-72000000D02*
X58100000Y-78600000D01*
X55100000Y-77900000D02*
X55100000Y-74800000D01*
X48500000Y-77900000D02*
X48500000Y-74800000D01*
X48500000Y-74800000D02*
X55100000Y-74800000D01*
X48500000Y-77900000D02*
X55100000Y-77900000D01*
D12*
X58111000Y-71605000D02*
X58111000Y-67795000D01*
X58111000Y-67795000D02*
X59889000Y-67795000D01*
X59889000Y-67795000D02*
X59889000Y-71605000D01*
X58111000Y-71605000D02*
X59889000Y-71605000D01*
X60311000Y-71605000D02*
X60311000Y-67795000D01*
X60311000Y-67795000D02*
X62089000Y-67795000D01*
X62089000Y-67795000D02*
X62089000Y-71605000D01*
X60311000Y-71605000D02*
X62089000Y-71605000D01*
X32489000Y-85095000D02*
X32489000Y-88905000D01*
X32489000Y-88905000D02*
X30711000Y-88905000D01*
X30711000Y-88905000D02*
X30711000Y-85095000D01*
X32489000Y-85095000D02*
X30711000Y-85095000D01*
X44989000Y-85095000D02*
X44989000Y-88905000D01*
X44989000Y-88905000D02*
X43211000Y-88905000D01*
X43211000Y-88905000D02*
X43211000Y-85095000D01*
X44989000Y-85095000D02*
X43211000Y-85095000D01*
D14*
G36*
X10915076Y-80389365D02*
X10981045Y-80508753D01*
X11069976Y-80613932D01*
X11164784Y-80686013D01*
X11248380Y-80706111D01*
X11271680Y-80697461D01*
X11326486Y-80633078D01*
X11395874Y-80508818D01*
X11470145Y-80345913D01*
X11539596Y-80165595D01*
X11593403Y-79993311D01*
X11642127Y-79822218D01*
X11682144Y-79722228D01*
X11723382Y-79681855D01*
X11775765Y-79689610D01*
X11829069Y-79720581D01*
X11880970Y-79758176D01*
X11907730Y-79799682D01*
X11912127Y-79866734D01*
X11896939Y-79980966D01*
X11877142Y-80094939D01*
X11851743Y-80269080D01*
X11826518Y-80494271D01*
X11804946Y-80736959D01*
X11794027Y-80896751D01*
X11782561Y-81110061D01*
X11779181Y-81260448D01*
X11786499Y-81369480D01*
X11807128Y-81458723D01*
X11843680Y-81549746D01*
X11883099Y-81632122D01*
X11983112Y-81803618D01*
X12109962Y-81978682D01*
X12184510Y-82064529D01*
X12290586Y-82168976D01*
X12359758Y-82217139D01*
X12408561Y-82218403D01*
X12430663Y-82204240D01*
X12509736Y-82096456D01*
X12573718Y-81930268D01*
X12620140Y-81727812D01*
X12646536Y-81511222D01*
X12650437Y-81302634D01*
X12629376Y-81124182D01*
X12580885Y-80998000D01*
X12567105Y-80980346D01*
X12520498Y-80933853D01*
X12483294Y-80927846D01*
X12436996Y-80971756D01*
X12363110Y-81075013D01*
X12353174Y-81089427D01*
X12271047Y-81200066D01*
X12202267Y-81277881D01*
X12172130Y-81300900D01*
X12117064Y-81288147D01*
X12084772Y-81203902D01*
X12075127Y-81045682D01*
X12088000Y-80811004D01*
X12123263Y-80497387D01*
X12128439Y-80458437D01*
X12212039Y-79837375D01*
X12577103Y-79811055D01*
X12779257Y-79794258D01*
X12980684Y-79773856D01*
X13142868Y-79753814D01*
X13164417Y-79750628D01*
X13386667Y-79716520D01*
X13386667Y-79999698D01*
X13408944Y-80279335D01*
X13471346Y-80535982D01*
X13567226Y-80754504D01*
X13689938Y-80919766D01*
X13832834Y-81016633D01*
X13833346Y-81016828D01*
X13962379Y-81031090D01*
X14136078Y-81004779D01*
X14330415Y-80946814D01*
X14521362Y-80866115D01*
X14684892Y-80771604D01*
X14796977Y-80672199D01*
X14809970Y-80654268D01*
X14849610Y-80565565D01*
X14896143Y-80419157D01*
X14941804Y-80240728D01*
X14959265Y-80160414D01*
X14996036Y-79989469D01*
X15028780Y-79852166D01*
X15052666Y-79768089D01*
X15060036Y-79751852D01*
X15104483Y-79759719D01*
X15185095Y-79807122D01*
X15197109Y-79815779D01*
X15317396Y-79955845D01*
X15401240Y-80171258D01*
X15448279Y-80460773D01*
X15459147Y-80713268D01*
X15447613Y-80996332D01*
X15406603Y-81206329D01*
X15331033Y-81351271D01*
X15215816Y-81439169D01*
X15055869Y-81478034D01*
X14971413Y-81481666D01*
X14824477Y-81481666D01*
X15042486Y-81711675D01*
X15214951Y-81877059D01*
X15363226Y-81977751D01*
X15504544Y-82022899D01*
X15631711Y-82024473D01*
X15756861Y-81993045D01*
X15846792Y-81920285D01*
X15906418Y-81795789D01*
X15940655Y-81609155D01*
X15954418Y-81349980D01*
X15954564Y-81341118D01*
X15953622Y-81110026D01*
X15945305Y-80865132D01*
X15931237Y-80647788D01*
X15924730Y-80581106D01*
X15860883Y-80181474D01*
X15765595Y-79857162D01*
X15637031Y-79604167D01*
X15473356Y-79418488D01*
X15353341Y-79335363D01*
X15251905Y-79270612D01*
X15197101Y-79201977D01*
X15168562Y-79096939D01*
X15158178Y-79023780D01*
X15100722Y-78822337D01*
X14978903Y-78649242D01*
X14785373Y-78496275D01*
X14593167Y-78391916D01*
X14466218Y-78339079D01*
X14308561Y-78282823D01*
X14308561Y-78771296D01*
X14507290Y-78856481D01*
X14638058Y-78906228D01*
X14747058Y-78936915D01*
X14783648Y-78941666D01*
X14858117Y-78968624D01*
X14881114Y-79034068D01*
X14859222Y-79114853D01*
X14799021Y-79187834D01*
X14707092Y-79229867D01*
X14701435Y-79230792D01*
X14637537Y-79233117D01*
X14634723Y-79197013D01*
X14659115Y-79146126D01*
X14710491Y-79047500D01*
X14606767Y-79142750D01*
X14504993Y-79220237D01*
X14439150Y-79225573D01*
X14398853Y-79157479D01*
X14388838Y-79115938D01*
X14359812Y-78981171D01*
X14336493Y-78882586D01*
X14308561Y-78771296D01*
X14308561Y-78282823D01*
X14296191Y-78278408D01*
X14132160Y-78225349D01*
X14132160Y-78666097D01*
X14211543Y-78687149D01*
X14240333Y-78762225D01*
X14226338Y-78890314D01*
X14172939Y-79053457D01*
X14121742Y-79163916D01*
X14050559Y-79253043D01*
X13943783Y-79280165D01*
X13930621Y-79280333D01*
X13855335Y-79274495D01*
X13855335Y-79703666D01*
X13923591Y-79734728D01*
X13937000Y-79791116D01*
X13959538Y-79911219D01*
X14015566Y-80004598D01*
X14087709Y-80042332D01*
X14087949Y-80042333D01*
X14152595Y-80012545D01*
X14240896Y-79937545D01*
X14277315Y-79898756D01*
X14417254Y-79780748D01*
X14552515Y-79737769D01*
X14650245Y-79732679D01*
X14682704Y-79753649D01*
X14676293Y-79786095D01*
X14649994Y-79866351D01*
X14614434Y-79988833D01*
X14601530Y-80036071D01*
X14561439Y-80151237D01*
X14501130Y-80229478D01*
X14395547Y-80298807D01*
X14341034Y-80327279D01*
X14095279Y-80416043D01*
X13917053Y-80439374D01*
X13791057Y-80439759D01*
X13726520Y-80423877D01*
X13700276Y-80378048D01*
X13690817Y-80305785D01*
X13691963Y-80183361D01*
X13709676Y-80024656D01*
X13725568Y-79935368D01*
X13760461Y-79797323D01*
X13798107Y-79726027D01*
X13848373Y-79703862D01*
X13855335Y-79703666D01*
X13855335Y-79274495D01*
X13841222Y-79273400D01*
X13814004Y-79235035D01*
X13825492Y-79149953D01*
X13878869Y-78968810D01*
X13954839Y-78819315D01*
X14042803Y-78714174D01*
X14132160Y-78666097D01*
X14132160Y-78225349D01*
X14105962Y-78216874D01*
X13918407Y-78161445D01*
X13756400Y-78119092D01*
X13642820Y-78096782D01*
X13618587Y-78095000D01*
X13622241Y-78121661D01*
X13670990Y-78186229D01*
X13674557Y-78190250D01*
X13753416Y-78279026D01*
X13856763Y-78396010D01*
X13907849Y-78454034D01*
X14056029Y-78622568D01*
X13902516Y-78708678D01*
X13716240Y-78860394D01*
X13581437Y-79078207D01*
X13509378Y-79304128D01*
X13477175Y-79429738D01*
X13447925Y-79513239D01*
X13432847Y-79534065D01*
X13397080Y-79501010D01*
X13343692Y-79420926D01*
X13338740Y-79412330D01*
X13255950Y-79318529D01*
X13133950Y-79233137D01*
X13094563Y-79213615D01*
X12919479Y-79136368D01*
X13131906Y-78921269D01*
X13271547Y-78760119D01*
X13337849Y-78628481D01*
X13332552Y-78516734D01*
X13257398Y-78415254D01*
X13227917Y-78390375D01*
X13114960Y-78330932D01*
X12974811Y-78318932D01*
X12859240Y-78340420D01*
X12859240Y-79173032D01*
X12878156Y-79215531D01*
X12878667Y-79236510D01*
X12855239Y-79303293D01*
X12772535Y-79322661D01*
X12770335Y-79322666D01*
X12697254Y-79306855D01*
X12699825Y-79265016D01*
X12776343Y-79205544D01*
X12796358Y-79194404D01*
X12859240Y-79173032D01*
X12859240Y-78340420D01*
X12788127Y-78353643D01*
X12725755Y-78371371D01*
X12642458Y-78372057D01*
X12610919Y-78321115D01*
X12634259Y-78236219D01*
X12688762Y-78161857D01*
X12784914Y-78086719D01*
X12881307Y-78052201D01*
X12887228Y-78051970D01*
X12983529Y-78031045D01*
X13108789Y-77979393D01*
X13153833Y-77955657D01*
X13288080Y-77848182D01*
X13341882Y-77726730D01*
X13313655Y-77598110D01*
X13255464Y-77519026D01*
X13146789Y-77430595D01*
X13013272Y-77379904D01*
X12838852Y-77364383D01*
X12607467Y-77381462D01*
X12542293Y-77390419D01*
X12542293Y-78395760D01*
X12572621Y-78428779D01*
X12582333Y-78517665D01*
X12621038Y-78659239D01*
X12708092Y-78782248D01*
X12784488Y-78869389D01*
X12829825Y-78927187D01*
X12835092Y-78937227D01*
X12815138Y-78979431D01*
X12762760Y-79068990D01*
X12721508Y-79135454D01*
X12647367Y-79243059D01*
X12588220Y-79292190D01*
X12519056Y-79298992D01*
X12478092Y-79292562D01*
X12384032Y-79272356D01*
X12336452Y-79257631D01*
X12336257Y-79257481D01*
X12336018Y-79212976D01*
X12349637Y-79108003D01*
X12373224Y-78964879D01*
X12402894Y-78805922D01*
X12434756Y-78653451D01*
X12459489Y-78550083D01*
X12501193Y-78437089D01*
X12542293Y-78395760D01*
X12542293Y-77390419D01*
X12493544Y-77397119D01*
X12243377Y-77443141D01*
X12061993Y-77502402D01*
X11933512Y-77587357D01*
X11842054Y-77710456D01*
X11771738Y-77884153D01*
X11741463Y-77986862D01*
X11695586Y-78153890D01*
X11824542Y-77997445D01*
X11953444Y-77878859D01*
X12075107Y-77843645D01*
X12188071Y-77892075D01*
X12220604Y-77923571D01*
X12250577Y-77961922D01*
X12266137Y-78006303D01*
X12265795Y-78072313D01*
X12248062Y-78175548D01*
X12211450Y-78331607D01*
X12163665Y-78520210D01*
X12112857Y-78726623D01*
X12071155Y-78911343D01*
X12042793Y-79054521D01*
X12032008Y-79136304D01*
X12032000Y-79137467D01*
X12007540Y-79233218D01*
X11945670Y-79271148D01*
X11863655Y-79258080D01*
X11778758Y-79200840D01*
X11708245Y-79106253D01*
X11671360Y-78994903D01*
X11644241Y-78865436D01*
X11612339Y-78759902D01*
X11608747Y-78751166D01*
X11583102Y-78703571D01*
X11571344Y-78727635D01*
X11567327Y-78793500D01*
X11562591Y-78920500D01*
X11483429Y-78772333D01*
X11399757Y-78645843D01*
X11290838Y-78516743D01*
X11263050Y-78488840D01*
X11121833Y-78353513D01*
X11116810Y-78933340D01*
X11112603Y-79184775D01*
X11103011Y-79375148D01*
X11085044Y-79528028D01*
X11055714Y-79666984D01*
X11012031Y-79815586D01*
X11000394Y-79851320D01*
X10948638Y-80018310D01*
X10909719Y-80162704D01*
X10890233Y-80259392D01*
X10889158Y-80274653D01*
X10915076Y-80389365D01*
X10915076Y-80389365D01*
G37*
X10915076Y-80389365D02*
X10981045Y-80508753D01*
X11069976Y-80613932D01*
X11164784Y-80686013D01*
X11248380Y-80706111D01*
X11271680Y-80697461D01*
X11326486Y-80633078D01*
X11395874Y-80508818D01*
X11470145Y-80345913D01*
X11539596Y-80165595D01*
X11593403Y-79993311D01*
X11642127Y-79822218D01*
X11682144Y-79722228D01*
X11723382Y-79681855D01*
X11775765Y-79689610D01*
X11829069Y-79720581D01*
X11880970Y-79758176D01*
X11907730Y-79799682D01*
X11912127Y-79866734D01*
X11896939Y-79980966D01*
X11877142Y-80094939D01*
X11851743Y-80269080D01*
X11826518Y-80494271D01*
X11804946Y-80736959D01*
X11794027Y-80896751D01*
X11782561Y-81110061D01*
X11779181Y-81260448D01*
X11786499Y-81369480D01*
X11807128Y-81458723D01*
X11843680Y-81549746D01*
X11883099Y-81632122D01*
X11983112Y-81803618D01*
X12109962Y-81978682D01*
X12184510Y-82064529D01*
X12290586Y-82168976D01*
X12359758Y-82217139D01*
X12408561Y-82218403D01*
X12430663Y-82204240D01*
X12509736Y-82096456D01*
X12573718Y-81930268D01*
X12620140Y-81727812D01*
X12646536Y-81511222D01*
X12650437Y-81302634D01*
X12629376Y-81124182D01*
X12580885Y-80998000D01*
X12567105Y-80980346D01*
X12520498Y-80933853D01*
X12483294Y-80927846D01*
X12436996Y-80971756D01*
X12363110Y-81075013D01*
X12353174Y-81089427D01*
X12271047Y-81200066D01*
X12202267Y-81277881D01*
X12172130Y-81300900D01*
X12117064Y-81288147D01*
X12084772Y-81203902D01*
X12075127Y-81045682D01*
X12088000Y-80811004D01*
X12123263Y-80497387D01*
X12128439Y-80458437D01*
X12212039Y-79837375D01*
X12577103Y-79811055D01*
X12779257Y-79794258D01*
X12980684Y-79773856D01*
X13142868Y-79753814D01*
X13164417Y-79750628D01*
X13386667Y-79716520D01*
X13386667Y-79999698D01*
X13408944Y-80279335D01*
X13471346Y-80535982D01*
X13567226Y-80754504D01*
X13689938Y-80919766D01*
X13832834Y-81016633D01*
X13833346Y-81016828D01*
X13962379Y-81031090D01*
X14136078Y-81004779D01*
X14330415Y-80946814D01*
X14521362Y-80866115D01*
X14684892Y-80771604D01*
X14796977Y-80672199D01*
X14809970Y-80654268D01*
X14849610Y-80565565D01*
X14896143Y-80419157D01*
X14941804Y-80240728D01*
X14959265Y-80160414D01*
X14996036Y-79989469D01*
X15028780Y-79852166D01*
X15052666Y-79768089D01*
X15060036Y-79751852D01*
X15104483Y-79759719D01*
X15185095Y-79807122D01*
X15197109Y-79815779D01*
X15317396Y-79955845D01*
X15401240Y-80171258D01*
X15448279Y-80460773D01*
X15459147Y-80713268D01*
X15447613Y-80996332D01*
X15406603Y-81206329D01*
X15331033Y-81351271D01*
X15215816Y-81439169D01*
X15055869Y-81478034D01*
X14971413Y-81481666D01*
X14824477Y-81481666D01*
X15042486Y-81711675D01*
X15214951Y-81877059D01*
X15363226Y-81977751D01*
X15504544Y-82022899D01*
X15631711Y-82024473D01*
X15756861Y-81993045D01*
X15846792Y-81920285D01*
X15906418Y-81795789D01*
X15940655Y-81609155D01*
X15954418Y-81349980D01*
X15954564Y-81341118D01*
X15953622Y-81110026D01*
X15945305Y-80865132D01*
X15931237Y-80647788D01*
X15924730Y-80581106D01*
X15860883Y-80181474D01*
X15765595Y-79857162D01*
X15637031Y-79604167D01*
X15473356Y-79418488D01*
X15353341Y-79335363D01*
X15251905Y-79270612D01*
X15197101Y-79201977D01*
X15168562Y-79096939D01*
X15158178Y-79023780D01*
X15100722Y-78822337D01*
X14978903Y-78649242D01*
X14785373Y-78496275D01*
X14593167Y-78391916D01*
X14466218Y-78339079D01*
X14308561Y-78282823D01*
X14308561Y-78771296D01*
X14507290Y-78856481D01*
X14638058Y-78906228D01*
X14747058Y-78936915D01*
X14783648Y-78941666D01*
X14858117Y-78968624D01*
X14881114Y-79034068D01*
X14859222Y-79114853D01*
X14799021Y-79187834D01*
X14707092Y-79229867D01*
X14701435Y-79230792D01*
X14637537Y-79233117D01*
X14634723Y-79197013D01*
X14659115Y-79146126D01*
X14710491Y-79047500D01*
X14606767Y-79142750D01*
X14504993Y-79220237D01*
X14439150Y-79225573D01*
X14398853Y-79157479D01*
X14388838Y-79115938D01*
X14359812Y-78981171D01*
X14336493Y-78882586D01*
X14308561Y-78771296D01*
X14308561Y-78282823D01*
X14296191Y-78278408D01*
X14132160Y-78225349D01*
X14132160Y-78666097D01*
X14211543Y-78687149D01*
X14240333Y-78762225D01*
X14226338Y-78890314D01*
X14172939Y-79053457D01*
X14121742Y-79163916D01*
X14050559Y-79253043D01*
X13943783Y-79280165D01*
X13930621Y-79280333D01*
X13855335Y-79274495D01*
X13855335Y-79703666D01*
X13923591Y-79734728D01*
X13937000Y-79791116D01*
X13959538Y-79911219D01*
X14015566Y-80004598D01*
X14087709Y-80042332D01*
X14087949Y-80042333D01*
X14152595Y-80012545D01*
X14240896Y-79937545D01*
X14277315Y-79898756D01*
X14417254Y-79780748D01*
X14552515Y-79737769D01*
X14650245Y-79732679D01*
X14682704Y-79753649D01*
X14676293Y-79786095D01*
X14649994Y-79866351D01*
X14614434Y-79988833D01*
X14601530Y-80036071D01*
X14561439Y-80151237D01*
X14501130Y-80229478D01*
X14395547Y-80298807D01*
X14341034Y-80327279D01*
X14095279Y-80416043D01*
X13917053Y-80439374D01*
X13791057Y-80439759D01*
X13726520Y-80423877D01*
X13700276Y-80378048D01*
X13690817Y-80305785D01*
X13691963Y-80183361D01*
X13709676Y-80024656D01*
X13725568Y-79935368D01*
X13760461Y-79797323D01*
X13798107Y-79726027D01*
X13848373Y-79703862D01*
X13855335Y-79703666D01*
X13855335Y-79274495D01*
X13841222Y-79273400D01*
X13814004Y-79235035D01*
X13825492Y-79149953D01*
X13878869Y-78968810D01*
X13954839Y-78819315D01*
X14042803Y-78714174D01*
X14132160Y-78666097D01*
X14132160Y-78225349D01*
X14105962Y-78216874D01*
X13918407Y-78161445D01*
X13756400Y-78119092D01*
X13642820Y-78096782D01*
X13618587Y-78095000D01*
X13622241Y-78121661D01*
X13670990Y-78186229D01*
X13674557Y-78190250D01*
X13753416Y-78279026D01*
X13856763Y-78396010D01*
X13907849Y-78454034D01*
X14056029Y-78622568D01*
X13902516Y-78708678D01*
X13716240Y-78860394D01*
X13581437Y-79078207D01*
X13509378Y-79304128D01*
X13477175Y-79429738D01*
X13447925Y-79513239D01*
X13432847Y-79534065D01*
X13397080Y-79501010D01*
X13343692Y-79420926D01*
X13338740Y-79412330D01*
X13255950Y-79318529D01*
X13133950Y-79233137D01*
X13094563Y-79213615D01*
X12919479Y-79136368D01*
X13131906Y-78921269D01*
X13271547Y-78760119D01*
X13337849Y-78628481D01*
X13332552Y-78516734D01*
X13257398Y-78415254D01*
X13227917Y-78390375D01*
X13114960Y-78330932D01*
X12974811Y-78318932D01*
X12859240Y-78340420D01*
X12859240Y-79173032D01*
X12878156Y-79215531D01*
X12878667Y-79236510D01*
X12855239Y-79303293D01*
X12772535Y-79322661D01*
X12770335Y-79322666D01*
X12697254Y-79306855D01*
X12699825Y-79265016D01*
X12776343Y-79205544D01*
X12796358Y-79194404D01*
X12859240Y-79173032D01*
X12859240Y-78340420D01*
X12788127Y-78353643D01*
X12725755Y-78371371D01*
X12642458Y-78372057D01*
X12610919Y-78321115D01*
X12634259Y-78236219D01*
X12688762Y-78161857D01*
X12784914Y-78086719D01*
X12881307Y-78052201D01*
X12887228Y-78051970D01*
X12983529Y-78031045D01*
X13108789Y-77979393D01*
X13153833Y-77955657D01*
X13288080Y-77848182D01*
X13341882Y-77726730D01*
X13313655Y-77598110D01*
X13255464Y-77519026D01*
X13146789Y-77430595D01*
X13013272Y-77379904D01*
X12838852Y-77364383D01*
X12607467Y-77381462D01*
X12542293Y-77390419D01*
X12542293Y-78395760D01*
X12572621Y-78428779D01*
X12582333Y-78517665D01*
X12621038Y-78659239D01*
X12708092Y-78782248D01*
X12784488Y-78869389D01*
X12829825Y-78927187D01*
X12835092Y-78937227D01*
X12815138Y-78979431D01*
X12762760Y-79068990D01*
X12721508Y-79135454D01*
X12647367Y-79243059D01*
X12588220Y-79292190D01*
X12519056Y-79298992D01*
X12478092Y-79292562D01*
X12384032Y-79272356D01*
X12336452Y-79257631D01*
X12336257Y-79257481D01*
X12336018Y-79212976D01*
X12349637Y-79108003D01*
X12373224Y-78964879D01*
X12402894Y-78805922D01*
X12434756Y-78653451D01*
X12459489Y-78550083D01*
X12501193Y-78437089D01*
X12542293Y-78395760D01*
X12542293Y-77390419D01*
X12493544Y-77397119D01*
X12243377Y-77443141D01*
X12061993Y-77502402D01*
X11933512Y-77587357D01*
X11842054Y-77710456D01*
X11771738Y-77884153D01*
X11741463Y-77986862D01*
X11695586Y-78153890D01*
X11824542Y-77997445D01*
X11953444Y-77878859D01*
X12075107Y-77843645D01*
X12188071Y-77892075D01*
X12220604Y-77923571D01*
X12250577Y-77961922D01*
X12266137Y-78006303D01*
X12265795Y-78072313D01*
X12248062Y-78175548D01*
X12211450Y-78331607D01*
X12163665Y-78520210D01*
X12112857Y-78726623D01*
X12071155Y-78911343D01*
X12042793Y-79054521D01*
X12032008Y-79136304D01*
X12032000Y-79137467D01*
X12007540Y-79233218D01*
X11945670Y-79271148D01*
X11863655Y-79258080D01*
X11778758Y-79200840D01*
X11708245Y-79106253D01*
X11671360Y-78994903D01*
X11644241Y-78865436D01*
X11612339Y-78759902D01*
X11608747Y-78751166D01*
X11583102Y-78703571D01*
X11571344Y-78727635D01*
X11567327Y-78793500D01*
X11562591Y-78920500D01*
X11483429Y-78772333D01*
X11399757Y-78645843D01*
X11290838Y-78516743D01*
X11263050Y-78488840D01*
X11121833Y-78353513D01*
X11116810Y-78933340D01*
X11112603Y-79184775D01*
X11103011Y-79375148D01*
X11085044Y-79528028D01*
X11055714Y-79666984D01*
X11012031Y-79815586D01*
X11000394Y-79851320D01*
X10948638Y-80018310D01*
X10909719Y-80162704D01*
X10890233Y-80259392D01*
X10889158Y-80274653D01*
X10915076Y-80389365D01*
G36*
X12311347Y-80292875D02*
X12329283Y-80437087D01*
X12383010Y-80531401D01*
X12412297Y-80558276D01*
X12479032Y-80606026D01*
X12534167Y-80611921D01*
X12613236Y-80574912D01*
X12653953Y-80551151D01*
X12761614Y-80489964D01*
X12815542Y-80471471D01*
X12834260Y-80494233D01*
X12836333Y-80536967D01*
X12861369Y-80647611D01*
X12923825Y-80785225D01*
X13004722Y-80915130D01*
X13085082Y-81002649D01*
X13094841Y-81009318D01*
X13168941Y-81044438D01*
X13211616Y-81024609D01*
X13222358Y-81009318D01*
X13238724Y-80941207D01*
X13249180Y-80815398D01*
X13253441Y-80658671D01*
X13251225Y-80497808D01*
X13242246Y-80359591D01*
X13230052Y-80283501D01*
X13204227Y-80232268D01*
X13154930Y-80253075D01*
X13143412Y-80262335D01*
X13082631Y-80291169D01*
X13062114Y-80275166D01*
X13031959Y-80213486D01*
X12976163Y-80115747D01*
X12963787Y-80095250D01*
X12871423Y-79990678D01*
X12760327Y-79960665D01*
X12619177Y-80003763D01*
X12549922Y-80042271D01*
X12447012Y-80094730D01*
X12369188Y-80116784D01*
X12359422Y-80116196D01*
X12324118Y-80144069D01*
X12311126Y-80248901D01*
X12311347Y-80292875D01*
X12311347Y-80292875D01*
G37*
X12311347Y-80292875D02*
X12329283Y-80437087D01*
X12383010Y-80531401D01*
X12412297Y-80558276D01*
X12479032Y-80606026D01*
X12534167Y-80611921D01*
X12613236Y-80574912D01*
X12653953Y-80551151D01*
X12761614Y-80489964D01*
X12815542Y-80471471D01*
X12834260Y-80494233D01*
X12836333Y-80536967D01*
X12861369Y-80647611D01*
X12923825Y-80785225D01*
X13004722Y-80915130D01*
X13085082Y-81002649D01*
X13094841Y-81009318D01*
X13168941Y-81044438D01*
X13211616Y-81024609D01*
X13222358Y-81009318D01*
X13238724Y-80941207D01*
X13249180Y-80815398D01*
X13253441Y-80658671D01*
X13251225Y-80497808D01*
X13242246Y-80359591D01*
X13230052Y-80283501D01*
X13204227Y-80232268D01*
X13154930Y-80253075D01*
X13143412Y-80262335D01*
X13082631Y-80291169D01*
X13062114Y-80275166D01*
X13031959Y-80213486D01*
X12976163Y-80115747D01*
X12963787Y-80095250D01*
X12871423Y-79990678D01*
X12760327Y-79960665D01*
X12619177Y-80003763D01*
X12549922Y-80042271D01*
X12447012Y-80094730D01*
X12369188Y-80116784D01*
X12359422Y-80116196D01*
X12324118Y-80144069D01*
X12311126Y-80248901D01*
X12311347Y-80292875D01*
G36*
X7345540Y-80578218D02*
X7408425Y-80956474D01*
X7523903Y-81270371D01*
X7692107Y-81520679D01*
X7708074Y-81538226D01*
X7802684Y-81632836D01*
X7885584Y-81687246D01*
X7978714Y-81704672D01*
X8104011Y-81688331D01*
X8283414Y-81641440D01*
X8326797Y-81628946D01*
X8742645Y-81485233D01*
X9081687Y-81317745D01*
X9342332Y-81127505D01*
X9522989Y-80915537D01*
X9571251Y-80827565D01*
X9623344Y-80710653D01*
X9655874Y-80625931D01*
X9661333Y-80603088D01*
X9633634Y-80557578D01*
X9562040Y-80474060D01*
X9489296Y-80398217D01*
X9317259Y-80226180D01*
X9326875Y-79806173D01*
X9333923Y-79479702D01*
X9337377Y-79226014D01*
X9335904Y-79033254D01*
X9328168Y-78889569D01*
X9312835Y-78783104D01*
X9288571Y-78702005D01*
X9254041Y-78634419D01*
X9207909Y-78568491D01*
X9184040Y-78537529D01*
X8929992Y-78267727D01*
X8643534Y-78063796D01*
X8518333Y-78001291D01*
X8418298Y-77968851D01*
X8418298Y-78639675D01*
X8475403Y-78661517D01*
X8583606Y-78722029D01*
X8682250Y-78780866D01*
X8830451Y-78872259D01*
X8920000Y-78938011D01*
X8965615Y-78994732D01*
X8982016Y-79059030D01*
X8984000Y-79121363D01*
X8977465Y-79223547D01*
X8961259Y-79277716D01*
X8956246Y-79280333D01*
X8907507Y-79257166D01*
X8821476Y-79199730D01*
X8797496Y-79182083D01*
X8674389Y-79091779D01*
X8607161Y-79051761D01*
X8584881Y-79060309D01*
X8596617Y-79115702D01*
X8609023Y-79152413D01*
X8635615Y-79291572D01*
X8603315Y-79378720D01*
X8519662Y-79407333D01*
X8475108Y-79399873D01*
X8459362Y-79379026D01*
X8459362Y-79873000D01*
X8512929Y-79895716D01*
X8499818Y-79952328D01*
X8453810Y-80000849D01*
X8392019Y-80035634D01*
X8368147Y-80033258D01*
X8360702Y-79977152D01*
X8396786Y-79910194D01*
X8453033Y-79873437D01*
X8459362Y-79873000D01*
X8459362Y-79379026D01*
X8449213Y-79365589D01*
X8436941Y-79286623D01*
X8433254Y-79145117D01*
X8433088Y-79100416D01*
X8429273Y-78933418D01*
X8419814Y-78788753D01*
X8406744Y-78697322D01*
X8406506Y-78696419D01*
X8399572Y-78652607D01*
X8418298Y-78639675D01*
X8418298Y-77968851D01*
X8366798Y-77952149D01*
X8178644Y-77915519D01*
X7979540Y-77893616D01*
X7795156Y-77888653D01*
X7651163Y-77902844D01*
X7594552Y-77921624D01*
X7516071Y-77980680D01*
X7513413Y-78022614D01*
X7583336Y-78033181D01*
X7618750Y-78027957D01*
X7680862Y-78024965D01*
X7745231Y-78048431D01*
X7827110Y-78108556D01*
X7941751Y-78215541D01*
X8027562Y-78301359D01*
X8319958Y-78597352D01*
X8108858Y-79386166D01*
X7734216Y-79386166D01*
X7734216Y-79876691D01*
X7811507Y-79881259D01*
X7989167Y-79894166D01*
X8015369Y-80108834D01*
X8047525Y-80282429D01*
X8093547Y-80417345D01*
X8146224Y-80495611D01*
X8175539Y-80508000D01*
X8217393Y-80479133D01*
X8303590Y-80400945D01*
X8420750Y-80286051D01*
X8530341Y-80173504D01*
X8670311Y-80028236D01*
X8763276Y-79937510D01*
X8820199Y-79894157D01*
X8852043Y-79891005D01*
X8869768Y-79920887D01*
X8876968Y-79946794D01*
X8882264Y-80043390D01*
X8860350Y-80098249D01*
X8841619Y-80163910D01*
X8854261Y-80187376D01*
X8882669Y-80243802D01*
X8907576Y-80348472D01*
X8933022Y-80518789D01*
X8935324Y-80536726D01*
X8913415Y-80604652D01*
X8878195Y-80650090D01*
X8775997Y-80718259D01*
X8615429Y-80788128D01*
X8422158Y-80851111D01*
X8221854Y-80898623D01*
X8071572Y-80919912D01*
X7921280Y-80928271D01*
X7823656Y-80917176D01*
X7747651Y-80879813D01*
X7693735Y-80837014D01*
X7621076Y-80761204D01*
X7580144Y-80672477D01*
X7558812Y-80540023D01*
X7554057Y-80482170D01*
X7552535Y-80306705D01*
X7568492Y-80132487D01*
X7584901Y-80050127D01*
X7618993Y-79938211D01*
X7659449Y-79887340D01*
X7734216Y-79876691D01*
X7734216Y-79386166D01*
X7692833Y-79386166D01*
X7667463Y-79120907D01*
X7650775Y-78979130D01*
X7632589Y-78874157D01*
X7618681Y-78832236D01*
X7589093Y-78848505D01*
X7548716Y-78930860D01*
X7502745Y-79062246D01*
X7456376Y-79225604D01*
X7414805Y-79403877D01*
X7383228Y-79580010D01*
X7377019Y-79625556D01*
X7335116Y-80134835D01*
X7345540Y-80578218D01*
X7345540Y-80578218D01*
G37*
X7345540Y-80578218D02*
X7408425Y-80956474D01*
X7523903Y-81270371D01*
X7692107Y-81520679D01*
X7708074Y-81538226D01*
X7802684Y-81632836D01*
X7885584Y-81687246D01*
X7978714Y-81704672D01*
X8104011Y-81688331D01*
X8283414Y-81641440D01*
X8326797Y-81628946D01*
X8742645Y-81485233D01*
X9081687Y-81317745D01*
X9342332Y-81127505D01*
X9522989Y-80915537D01*
X9571251Y-80827565D01*
X9623344Y-80710653D01*
X9655874Y-80625931D01*
X9661333Y-80603088D01*
X9633634Y-80557578D01*
X9562040Y-80474060D01*
X9489296Y-80398217D01*
X9317259Y-80226180D01*
X9326875Y-79806173D01*
X9333923Y-79479702D01*
X9337377Y-79226014D01*
X9335904Y-79033254D01*
X9328168Y-78889569D01*
X9312835Y-78783104D01*
X9288571Y-78702005D01*
X9254041Y-78634419D01*
X9207909Y-78568491D01*
X9184040Y-78537529D01*
X8929992Y-78267727D01*
X8643534Y-78063796D01*
X8518333Y-78001291D01*
X8418298Y-77968851D01*
X8418298Y-78639675D01*
X8475403Y-78661517D01*
X8583606Y-78722029D01*
X8682250Y-78780866D01*
X8830451Y-78872259D01*
X8920000Y-78938011D01*
X8965615Y-78994732D01*
X8982016Y-79059030D01*
X8984000Y-79121363D01*
X8977465Y-79223547D01*
X8961259Y-79277716D01*
X8956246Y-79280333D01*
X8907507Y-79257166D01*
X8821476Y-79199730D01*
X8797496Y-79182083D01*
X8674389Y-79091779D01*
X8607161Y-79051761D01*
X8584881Y-79060309D01*
X8596617Y-79115702D01*
X8609023Y-79152413D01*
X8635615Y-79291572D01*
X8603315Y-79378720D01*
X8519662Y-79407333D01*
X8475108Y-79399873D01*
X8459362Y-79379026D01*
X8459362Y-79873000D01*
X8512929Y-79895716D01*
X8499818Y-79952328D01*
X8453810Y-80000849D01*
X8392019Y-80035634D01*
X8368147Y-80033258D01*
X8360702Y-79977152D01*
X8396786Y-79910194D01*
X8453033Y-79873437D01*
X8459362Y-79873000D01*
X8459362Y-79379026D01*
X8449213Y-79365589D01*
X8436941Y-79286623D01*
X8433254Y-79145117D01*
X8433088Y-79100416D01*
X8429273Y-78933418D01*
X8419814Y-78788753D01*
X8406744Y-78697322D01*
X8406506Y-78696419D01*
X8399572Y-78652607D01*
X8418298Y-78639675D01*
X8418298Y-77968851D01*
X8366798Y-77952149D01*
X8178644Y-77915519D01*
X7979540Y-77893616D01*
X7795156Y-77888653D01*
X7651163Y-77902844D01*
X7594552Y-77921624D01*
X7516071Y-77980680D01*
X7513413Y-78022614D01*
X7583336Y-78033181D01*
X7618750Y-78027957D01*
X7680862Y-78024965D01*
X7745231Y-78048431D01*
X7827110Y-78108556D01*
X7941751Y-78215541D01*
X8027562Y-78301359D01*
X8319958Y-78597352D01*
X8108858Y-79386166D01*
X7734216Y-79386166D01*
X7734216Y-79876691D01*
X7811507Y-79881259D01*
X7989167Y-79894166D01*
X8015369Y-80108834D01*
X8047525Y-80282429D01*
X8093547Y-80417345D01*
X8146224Y-80495611D01*
X8175539Y-80508000D01*
X8217393Y-80479133D01*
X8303590Y-80400945D01*
X8420750Y-80286051D01*
X8530341Y-80173504D01*
X8670311Y-80028236D01*
X8763276Y-79937510D01*
X8820199Y-79894157D01*
X8852043Y-79891005D01*
X8869768Y-79920887D01*
X8876968Y-79946794D01*
X8882264Y-80043390D01*
X8860350Y-80098249D01*
X8841619Y-80163910D01*
X8854261Y-80187376D01*
X8882669Y-80243802D01*
X8907576Y-80348472D01*
X8933022Y-80518789D01*
X8935324Y-80536726D01*
X8913415Y-80604652D01*
X8878195Y-80650090D01*
X8775997Y-80718259D01*
X8615429Y-80788128D01*
X8422158Y-80851111D01*
X8221854Y-80898623D01*
X8071572Y-80919912D01*
X7921280Y-80928271D01*
X7823656Y-80917176D01*
X7747651Y-80879813D01*
X7693735Y-80837014D01*
X7621076Y-80761204D01*
X7580144Y-80672477D01*
X7558812Y-80540023D01*
X7554057Y-80482170D01*
X7552535Y-80306705D01*
X7568492Y-80132487D01*
X7584901Y-80050127D01*
X7618993Y-79938211D01*
X7659449Y-79887340D01*
X7734216Y-79876691D01*
X7734216Y-79386166D01*
X7692833Y-79386166D01*
X7667463Y-79120907D01*
X7650775Y-78979130D01*
X7632589Y-78874157D01*
X7618681Y-78832236D01*
X7589093Y-78848505D01*
X7548716Y-78930860D01*
X7502745Y-79062246D01*
X7456376Y-79225604D01*
X7414805Y-79403877D01*
X7383228Y-79580010D01*
X7377019Y-79625556D01*
X7335116Y-80134835D01*
X7345540Y-80578218D01*
G36*
X4310300Y-80375889D02*
X4373441Y-80548484D01*
X4492350Y-80717716D01*
X4614411Y-80863932D01*
X4701169Y-80721269D01*
X4774603Y-80568037D01*
X4830425Y-80372713D01*
X4871820Y-80120911D01*
X4900204Y-79822896D01*
X4927132Y-79455293D01*
X5174700Y-79647547D01*
X5422269Y-79839801D01*
X5435718Y-80777150D01*
X5441290Y-81108609D01*
X5449414Y-81368585D01*
X5463196Y-81570259D01*
X5485742Y-81726813D01*
X5520158Y-81851428D01*
X5569548Y-81957287D01*
X5637020Y-82057570D01*
X5725679Y-82165460D01*
X5776545Y-82223675D01*
X5906677Y-82352528D01*
X6008823Y-82404268D01*
X6091891Y-82377990D01*
X6164787Y-82272786D01*
X6204069Y-82180166D01*
X6241512Y-82045673D01*
X6273904Y-81866128D01*
X6298938Y-81665775D01*
X6314305Y-81468859D01*
X6317699Y-81299625D01*
X6306811Y-81182317D01*
X6300952Y-81162240D01*
X6275207Y-81120537D01*
X6238199Y-81140269D01*
X6196551Y-81190944D01*
X6128188Y-81290621D01*
X6048003Y-81421788D01*
X6020001Y-81471083D01*
X5952593Y-81576125D01*
X5893156Y-81640941D01*
X5871500Y-81651000D01*
X5814535Y-81610612D01*
X5755429Y-81496623D01*
X5699214Y-81319795D01*
X5680644Y-81242784D01*
X5665407Y-81101317D01*
X5667244Y-80911328D01*
X5683389Y-80693826D01*
X5711075Y-80469822D01*
X5747535Y-80260326D01*
X5790002Y-80086350D01*
X5835711Y-79968902D01*
X5851459Y-79945627D01*
X5901899Y-79926918D01*
X6019209Y-79899857D01*
X6186424Y-79867931D01*
X6386578Y-79834626D01*
X6407211Y-79831436D01*
X6678581Y-79787637D01*
X6878237Y-79749229D01*
X7018623Y-79712307D01*
X7112180Y-79672965D01*
X7171349Y-79627296D01*
X7203426Y-79581476D01*
X7240241Y-79504333D01*
X7235841Y-79451925D01*
X7184381Y-79381807D01*
X7174250Y-79369565D01*
X7064723Y-79292681D01*
X6905714Y-79245036D01*
X6729094Y-79232408D01*
X6568900Y-79259824D01*
X6437605Y-79295450D01*
X6273620Y-79327944D01*
X6200583Y-79338899D01*
X6071749Y-79353359D01*
X6005721Y-79348607D01*
X5981570Y-79317935D01*
X5978333Y-79267685D01*
X5986972Y-79157386D01*
X6009161Y-79012417D01*
X6039307Y-78860013D01*
X6071820Y-78727408D01*
X6101106Y-78641838D01*
X6109700Y-78627883D01*
X6163045Y-78626669D01*
X6260104Y-78672159D01*
X6315087Y-78707507D01*
X6438985Y-78781846D01*
X6548018Y-78809602D01*
X6681262Y-78803706D01*
X6854137Y-78761066D01*
X6967325Y-78689947D01*
X7057833Y-78598229D01*
X6915071Y-78469584D01*
X6816907Y-78390545D01*
X6732092Y-78359323D01*
X6618574Y-78363452D01*
X6576405Y-78369174D01*
X6435294Y-78391435D01*
X6315220Y-78413565D01*
X6285250Y-78420127D01*
X6215965Y-78416677D01*
X6198816Y-78369580D01*
X6225061Y-78294026D01*
X6285955Y-78205207D01*
X6372754Y-78118315D01*
X6476716Y-78048540D01*
X6507317Y-78034304D01*
X6682599Y-77935544D01*
X6788293Y-77820362D01*
X6821012Y-77698491D01*
X6777366Y-77579666D01*
X6693591Y-77499194D01*
X6630987Y-77460099D01*
X6561165Y-77433369D01*
X6466828Y-77416498D01*
X6330683Y-77406981D01*
X6135435Y-77402311D01*
X6016265Y-77401061D01*
X5812442Y-77401895D01*
X5643204Y-77407420D01*
X5524329Y-77416759D01*
X5471594Y-77429035D01*
X5470341Y-77431392D01*
X5497678Y-77476412D01*
X5570227Y-77564722D01*
X5673779Y-77679298D01*
X5703167Y-77710386D01*
X5812313Y-77828947D01*
X5894042Y-77925597D01*
X5934144Y-77983289D01*
X5936000Y-77989672D01*
X5921319Y-78044558D01*
X5882971Y-78153404D01*
X5833370Y-78282178D01*
X5775258Y-78443641D01*
X5709279Y-78651080D01*
X5646827Y-78868025D01*
X5627341Y-78941666D01*
X5523941Y-79343833D01*
X5380720Y-79356151D01*
X5239452Y-79355253D01*
X5085865Y-79336633D01*
X5071272Y-79333734D01*
X4995886Y-79314313D01*
X4937363Y-79283073D01*
X4883536Y-79225463D01*
X4822240Y-79126932D01*
X4741310Y-78972931D01*
X4698182Y-78887500D01*
X4611497Y-78720754D01*
X4536235Y-78586455D01*
X4481446Y-78500120D01*
X4458161Y-78476000D01*
X4446423Y-78515778D01*
X4437113Y-78624927D01*
X4430996Y-78788166D01*
X4428833Y-78990215D01*
X4429084Y-79058083D01*
X4427542Y-79339618D01*
X4417097Y-79559601D01*
X4395755Y-79740866D01*
X4361518Y-79906245D01*
X4351600Y-79944472D01*
X4304501Y-80182689D01*
X4310300Y-80375889D01*
X4310300Y-80375889D01*
G37*
X4310300Y-80375889D02*
X4373441Y-80548484D01*
X4492350Y-80717716D01*
X4614411Y-80863932D01*
X4701169Y-80721269D01*
X4774603Y-80568037D01*
X4830425Y-80372713D01*
X4871820Y-80120911D01*
X4900204Y-79822896D01*
X4927132Y-79455293D01*
X5174700Y-79647547D01*
X5422269Y-79839801D01*
X5435718Y-80777150D01*
X5441290Y-81108609D01*
X5449414Y-81368585D01*
X5463196Y-81570259D01*
X5485742Y-81726813D01*
X5520158Y-81851428D01*
X5569548Y-81957287D01*
X5637020Y-82057570D01*
X5725679Y-82165460D01*
X5776545Y-82223675D01*
X5906677Y-82352528D01*
X6008823Y-82404268D01*
X6091891Y-82377990D01*
X6164787Y-82272786D01*
X6204069Y-82180166D01*
X6241512Y-82045673D01*
X6273904Y-81866128D01*
X6298938Y-81665775D01*
X6314305Y-81468859D01*
X6317699Y-81299625D01*
X6306811Y-81182317D01*
X6300952Y-81162240D01*
X6275207Y-81120537D01*
X6238199Y-81140269D01*
X6196551Y-81190944D01*
X6128188Y-81290621D01*
X6048003Y-81421788D01*
X6020001Y-81471083D01*
X5952593Y-81576125D01*
X5893156Y-81640941D01*
X5871500Y-81651000D01*
X5814535Y-81610612D01*
X5755429Y-81496623D01*
X5699214Y-81319795D01*
X5680644Y-81242784D01*
X5665407Y-81101317D01*
X5667244Y-80911328D01*
X5683389Y-80693826D01*
X5711075Y-80469822D01*
X5747535Y-80260326D01*
X5790002Y-80086350D01*
X5835711Y-79968902D01*
X5851459Y-79945627D01*
X5901899Y-79926918D01*
X6019209Y-79899857D01*
X6186424Y-79867931D01*
X6386578Y-79834626D01*
X6407211Y-79831436D01*
X6678581Y-79787637D01*
X6878237Y-79749229D01*
X7018623Y-79712307D01*
X7112180Y-79672965D01*
X7171349Y-79627296D01*
X7203426Y-79581476D01*
X7240241Y-79504333D01*
X7235841Y-79451925D01*
X7184381Y-79381807D01*
X7174250Y-79369565D01*
X7064723Y-79292681D01*
X6905714Y-79245036D01*
X6729094Y-79232408D01*
X6568900Y-79259824D01*
X6437605Y-79295450D01*
X6273620Y-79327944D01*
X6200583Y-79338899D01*
X6071749Y-79353359D01*
X6005721Y-79348607D01*
X5981570Y-79317935D01*
X5978333Y-79267685D01*
X5986972Y-79157386D01*
X6009161Y-79012417D01*
X6039307Y-78860013D01*
X6071820Y-78727408D01*
X6101106Y-78641838D01*
X6109700Y-78627883D01*
X6163045Y-78626669D01*
X6260104Y-78672159D01*
X6315087Y-78707507D01*
X6438985Y-78781846D01*
X6548018Y-78809602D01*
X6681262Y-78803706D01*
X6854137Y-78761066D01*
X6967325Y-78689947D01*
X7057833Y-78598229D01*
X6915071Y-78469584D01*
X6816907Y-78390545D01*
X6732092Y-78359323D01*
X6618574Y-78363452D01*
X6576405Y-78369174D01*
X6435294Y-78391435D01*
X6315220Y-78413565D01*
X6285250Y-78420127D01*
X6215965Y-78416677D01*
X6198816Y-78369580D01*
X6225061Y-78294026D01*
X6285955Y-78205207D01*
X6372754Y-78118315D01*
X6476716Y-78048540D01*
X6507317Y-78034304D01*
X6682599Y-77935544D01*
X6788293Y-77820362D01*
X6821012Y-77698491D01*
X6777366Y-77579666D01*
X6693591Y-77499194D01*
X6630987Y-77460099D01*
X6561165Y-77433369D01*
X6466828Y-77416498D01*
X6330683Y-77406981D01*
X6135435Y-77402311D01*
X6016265Y-77401061D01*
X5812442Y-77401895D01*
X5643204Y-77407420D01*
X5524329Y-77416759D01*
X5471594Y-77429035D01*
X5470341Y-77431392D01*
X5497678Y-77476412D01*
X5570227Y-77564722D01*
X5673779Y-77679298D01*
X5703167Y-77710386D01*
X5812313Y-77828947D01*
X5894042Y-77925597D01*
X5934144Y-77983289D01*
X5936000Y-77989672D01*
X5921319Y-78044558D01*
X5882971Y-78153404D01*
X5833370Y-78282178D01*
X5775258Y-78443641D01*
X5709279Y-78651080D01*
X5646827Y-78868025D01*
X5627341Y-78941666D01*
X5523941Y-79343833D01*
X5380720Y-79356151D01*
X5239452Y-79355253D01*
X5085865Y-79336633D01*
X5071272Y-79333734D01*
X4995886Y-79314313D01*
X4937363Y-79283073D01*
X4883536Y-79225463D01*
X4822240Y-79126932D01*
X4741310Y-78972931D01*
X4698182Y-78887500D01*
X4611497Y-78720754D01*
X4536235Y-78586455D01*
X4481446Y-78500120D01*
X4458161Y-78476000D01*
X4446423Y-78515778D01*
X4437113Y-78624927D01*
X4430996Y-78788166D01*
X4428833Y-78990215D01*
X4429084Y-79058083D01*
X4427542Y-79339618D01*
X4417097Y-79559601D01*
X4395755Y-79740866D01*
X4361518Y-79906245D01*
X4351600Y-79944472D01*
X4304501Y-80182689D01*
X4310300Y-80375889D01*
G36*
X5849190Y-80500737D02*
X5889666Y-80576268D01*
X5944690Y-80655056D01*
X6003164Y-80690481D01*
X6096478Y-80694833D01*
X6175741Y-80688269D01*
X6381465Y-80668502D01*
X6438478Y-80831667D01*
X6524008Y-81034708D01*
X6609450Y-81153219D01*
X6695276Y-81187336D01*
X6781954Y-81137196D01*
X6869957Y-81002932D01*
X6889701Y-80961769D01*
X6942871Y-80820561D01*
X6990697Y-80648813D01*
X7030413Y-80464474D01*
X7059253Y-80285490D01*
X7074450Y-80129806D01*
X7073236Y-80015369D01*
X7052845Y-79960125D01*
X7044507Y-79957666D01*
X7006737Y-79992356D01*
X6953850Y-80079171D01*
X6935373Y-80116416D01*
X6870359Y-80245652D01*
X6806646Y-80358917D01*
X6797262Y-80373918D01*
X6733793Y-80472669D01*
X6569037Y-80294207D01*
X6472857Y-80194101D01*
X6401102Y-80143883D01*
X6321021Y-80130992D01*
X6199866Y-80142869D01*
X6180924Y-80145374D01*
X5981128Y-80190128D01*
X5860437Y-80262501D01*
X5817057Y-80365151D01*
X5849190Y-80500737D01*
X5849190Y-80500737D01*
G37*
X5849190Y-80500737D02*
X5889666Y-80576268D01*
X5944690Y-80655056D01*
X6003164Y-80690481D01*
X6096478Y-80694833D01*
X6175741Y-80688269D01*
X6381465Y-80668502D01*
X6438478Y-80831667D01*
X6524008Y-81034708D01*
X6609450Y-81153219D01*
X6695276Y-81187336D01*
X6781954Y-81137196D01*
X6869957Y-81002932D01*
X6889701Y-80961769D01*
X6942871Y-80820561D01*
X6990697Y-80648813D01*
X7030413Y-80464474D01*
X7059253Y-80285490D01*
X7074450Y-80129806D01*
X7073236Y-80015369D01*
X7052845Y-79960125D01*
X7044507Y-79957666D01*
X7006737Y-79992356D01*
X6953850Y-80079171D01*
X6935373Y-80116416D01*
X6870359Y-80245652D01*
X6806646Y-80358917D01*
X6797262Y-80373918D01*
X6733793Y-80472669D01*
X6569037Y-80294207D01*
X6472857Y-80194101D01*
X6401102Y-80143883D01*
X6321021Y-80130992D01*
X6199866Y-80142869D01*
X6180924Y-80145374D01*
X5981128Y-80190128D01*
X5860437Y-80262501D01*
X5817057Y-80365151D01*
X5849190Y-80500737D01*
D15*
X44138214Y-47804333D02*
X44942548Y-47804333D01*
X43678595Y-47517071D02*
X44540381Y-47229810D01*
X44540381Y-47976690D01*
X44827643Y-48436310D02*
X44885095Y-48493762D01*
X44942548Y-48436310D01*
X44885095Y-48378858D01*
X44827643Y-48436310D01*
X44942548Y-48436310D01*
X43736048Y-48895929D02*
X43736048Y-49700262D01*
X44942548Y-49183191D01*
X44138214Y-50676953D02*
X44942548Y-50676953D01*
X44138214Y-50159882D02*
X44770190Y-50159882D01*
X44885095Y-50217334D01*
X44942548Y-50332239D01*
X44942548Y-50504596D01*
X44885095Y-50619501D01*
X44827643Y-50676953D01*
X30638214Y-48304333D02*
X31442548Y-48304333D01*
X30178595Y-48017071D02*
X31040381Y-47729810D01*
X31040381Y-48476690D01*
X31327643Y-48936310D02*
X31385095Y-48993762D01*
X31442548Y-48936310D01*
X31385095Y-48878858D01*
X31327643Y-48936310D01*
X31442548Y-48936310D01*
X30236048Y-49395929D02*
X30236048Y-50200262D01*
X31442548Y-49683191D01*
X30638214Y-51176953D02*
X31442548Y-51176953D01*
X30638214Y-50659882D02*
X31270190Y-50659882D01*
X31385095Y-50717334D01*
X31442548Y-50832239D01*
X31442548Y-51004596D01*
X31385095Y-51119501D01*
X31327643Y-51176953D01*
X30638214Y-48304333D02*
X31442548Y-48304333D01*
X30178595Y-48017071D02*
X31040381Y-47729810D01*
X31040381Y-48476690D01*
X31327643Y-48936310D02*
X31385095Y-48993762D01*
X31442548Y-48936310D01*
X31385095Y-48878858D01*
X31327643Y-48936310D01*
X31442548Y-48936310D01*
X30236048Y-49395929D02*
X30236048Y-50200262D01*
X31442548Y-49683191D01*
X30638214Y-51176953D02*
X31442548Y-51176953D01*
X30638214Y-50659882D02*
X31270190Y-50659882D01*
X31385095Y-50717334D01*
X31442548Y-50832239D01*
X31442548Y-51004596D01*
X31385095Y-51119501D01*
X31327643Y-51176953D01*
X17638214Y-49804333D02*
X18442548Y-49804333D01*
X17178595Y-49517071D02*
X18040381Y-49229810D01*
X18040381Y-49976690D01*
X18327643Y-50436310D02*
X18385095Y-50493762D01*
X18442548Y-50436310D01*
X18385095Y-50378858D01*
X18327643Y-50436310D01*
X18442548Y-50436310D01*
X17236048Y-50895929D02*
X17236048Y-51700262D01*
X18442548Y-51183191D01*
X17638214Y-52676953D02*
X18442548Y-52676953D01*
X17638214Y-52159882D02*
X18270190Y-52159882D01*
X18385095Y-52217334D01*
X18442548Y-52332239D01*
X18442548Y-52504596D01*
X18385095Y-52619501D01*
X18327643Y-52676953D01*
X70138214Y-48304333D02*
X70942548Y-48304333D01*
X69678595Y-48017071D02*
X70540381Y-47729810D01*
X70540381Y-48476690D01*
X70827643Y-48936310D02*
X70885095Y-48993762D01*
X70942548Y-48936310D01*
X70885095Y-48878858D01*
X70827643Y-48936310D01*
X70942548Y-48936310D01*
X69736048Y-49395929D02*
X69736048Y-50200262D01*
X70942548Y-49683191D01*
X70138214Y-51176953D02*
X70942548Y-51176953D01*
X70138214Y-50659882D02*
X70770190Y-50659882D01*
X70885095Y-50717334D01*
X70942548Y-50832239D01*
X70942548Y-51004596D01*
X70885095Y-51119501D01*
X70827643Y-51176953D01*
X56638214Y-48304333D02*
X57442548Y-48304333D01*
X56178595Y-48017071D02*
X57040381Y-47729810D01*
X57040381Y-48476690D01*
X57327643Y-48936310D02*
X57385095Y-48993762D01*
X57442548Y-48936310D01*
X57385095Y-48878858D01*
X57327643Y-48936310D01*
X57442548Y-48936310D01*
X56236048Y-49395929D02*
X56236048Y-50200262D01*
X57442548Y-49683191D01*
X56638214Y-51176953D02*
X57442548Y-51176953D01*
X56638214Y-50659882D02*
X57270190Y-50659882D01*
X57385095Y-50717334D01*
X57442548Y-50832239D01*
X57442548Y-51004596D01*
X57385095Y-51119501D01*
X57327643Y-51176953D01*
X57138214Y-48304333D02*
X57942548Y-48304333D01*
X56678595Y-48017071D02*
X57540381Y-47729810D01*
X57540381Y-48476690D01*
X57827643Y-48936310D02*
X57885095Y-48993762D01*
X57942548Y-48936310D01*
X57885095Y-48878858D01*
X57827643Y-48936310D01*
X57942548Y-48936310D01*
X56736048Y-49395929D02*
X56736048Y-50200262D01*
X57942548Y-49683191D01*
X57138214Y-51176953D02*
X57942548Y-51176953D01*
X57138214Y-50659882D02*
X57770190Y-50659882D01*
X57885095Y-50717334D01*
X57942548Y-50832239D01*
X57942548Y-51004596D01*
X57885095Y-51119501D01*
X57827643Y-51176953D01*
X43638214Y-47804333D02*
X44442548Y-47804333D01*
X43178595Y-47517071D02*
X44040381Y-47229810D01*
X44040381Y-47976690D01*
X44327643Y-48436310D02*
X44385095Y-48493762D01*
X44442548Y-48436310D01*
X44385095Y-48378858D01*
X44327643Y-48436310D01*
X44442548Y-48436310D01*
X43236048Y-48895929D02*
X43236048Y-49700262D01*
X44442548Y-49183191D01*
X43638214Y-50676953D02*
X44442548Y-50676953D01*
X43638214Y-50159882D02*
X44270190Y-50159882D01*
X44385095Y-50217334D01*
X44442548Y-50332239D01*
X44442548Y-50504596D01*
X44385095Y-50619501D01*
X44327643Y-50676953D01*
X46212738Y-42442548D02*
X46212738Y-41236048D01*
X45925476Y-41236048D01*
X45753119Y-41293500D01*
X45638214Y-41408405D01*
X45580762Y-41523310D01*
X45523310Y-41753119D01*
X45523310Y-41925476D01*
X45580762Y-42155286D01*
X45638214Y-42270190D01*
X45753119Y-42385095D01*
X45925476Y-42442548D01*
X46212738Y-42442548D01*
X45006238Y-42442548D02*
X45006238Y-41236048D01*
X44201905Y-41236048D02*
X43972095Y-41236048D01*
X43857190Y-41293500D01*
X43742286Y-41408405D01*
X43684833Y-41638214D01*
X43684833Y-42040381D01*
X43742286Y-42270190D01*
X43857190Y-42385095D01*
X43972095Y-42442548D01*
X44201905Y-42442548D01*
X44316809Y-42385095D01*
X44431714Y-42270190D01*
X44489166Y-42040381D01*
X44489166Y-41638214D01*
X44431714Y-41408405D01*
X44316809Y-41293500D01*
X44201905Y-41236048D01*
X43167762Y-42442548D02*
X43167762Y-41236048D01*
X42880500Y-41236048D01*
X42708143Y-41293500D01*
X42593238Y-41408405D01*
X42535786Y-41523310D01*
X42478334Y-41753119D01*
X42478334Y-41925476D01*
X42535786Y-42155286D01*
X42593238Y-42270190D01*
X42708143Y-42385095D01*
X42880500Y-42442548D01*
X43167762Y-42442548D01*
X41961262Y-41810571D02*
X41559095Y-41810571D01*
X41386738Y-42442548D02*
X41961262Y-42442548D01*
X41961262Y-41236048D01*
X41386738Y-41236048D01*
X33212738Y-42442548D02*
X33212738Y-41236048D01*
X32925476Y-41236048D01*
X32753119Y-41293500D01*
X32638214Y-41408405D01*
X32580762Y-41523310D01*
X32523310Y-41753119D01*
X32523310Y-41925476D01*
X32580762Y-42155286D01*
X32638214Y-42270190D01*
X32753119Y-42385095D01*
X32925476Y-42442548D01*
X33212738Y-42442548D01*
X32006238Y-42442548D02*
X32006238Y-41236048D01*
X31201905Y-41236048D02*
X30972095Y-41236048D01*
X30857190Y-41293500D01*
X30742286Y-41408405D01*
X30684833Y-41638214D01*
X30684833Y-42040381D01*
X30742286Y-42270190D01*
X30857190Y-42385095D01*
X30972095Y-42442548D01*
X31201905Y-42442548D01*
X31316809Y-42385095D01*
X31431714Y-42270190D01*
X31489166Y-42040381D01*
X31489166Y-41638214D01*
X31431714Y-41408405D01*
X31316809Y-41293500D01*
X31201905Y-41236048D01*
X30167762Y-42442548D02*
X30167762Y-41236048D01*
X29880500Y-41236048D01*
X29708143Y-41293500D01*
X29593238Y-41408405D01*
X29535786Y-41523310D01*
X29478334Y-41753119D01*
X29478334Y-41925476D01*
X29535786Y-42155286D01*
X29593238Y-42270190D01*
X29708143Y-42385095D01*
X29880500Y-42442548D01*
X30167762Y-42442548D01*
X28961262Y-41810571D02*
X28559095Y-41810571D01*
X28386738Y-42442548D02*
X28961262Y-42442548D01*
X28961262Y-41236048D01*
X28386738Y-41236048D01*
X72212738Y-42442548D02*
X72212738Y-41236048D01*
X71925476Y-41236048D01*
X71753119Y-41293500D01*
X71638214Y-41408405D01*
X71580762Y-41523310D01*
X71523310Y-41753119D01*
X71523310Y-41925476D01*
X71580762Y-42155286D01*
X71638214Y-42270190D01*
X71753119Y-42385095D01*
X71925476Y-42442548D01*
X72212738Y-42442548D01*
X71006238Y-42442548D02*
X71006238Y-41236048D01*
X70201905Y-41236048D02*
X69972095Y-41236048D01*
X69857190Y-41293500D01*
X69742286Y-41408405D01*
X69684833Y-41638214D01*
X69684833Y-42040381D01*
X69742286Y-42270190D01*
X69857190Y-42385095D01*
X69972095Y-42442548D01*
X70201905Y-42442548D01*
X70316809Y-42385095D01*
X70431714Y-42270190D01*
X70489166Y-42040381D01*
X70489166Y-41638214D01*
X70431714Y-41408405D01*
X70316809Y-41293500D01*
X70201905Y-41236048D01*
X69167762Y-42442548D02*
X69167762Y-41236048D01*
X68880500Y-41236048D01*
X68708143Y-41293500D01*
X68593238Y-41408405D01*
X68535786Y-41523310D01*
X68478334Y-41753119D01*
X68478334Y-41925476D01*
X68535786Y-42155286D01*
X68593238Y-42270190D01*
X68708143Y-42385095D01*
X68880500Y-42442548D01*
X69167762Y-42442548D01*
X67961262Y-41810571D02*
X67559095Y-41810571D01*
X67386738Y-42442548D02*
X67961262Y-42442548D01*
X67961262Y-41236048D01*
X67386738Y-41236048D01*
X59212738Y-42442548D02*
X59212738Y-41236048D01*
X58925476Y-41236048D01*
X58753119Y-41293500D01*
X58638214Y-41408405D01*
X58580762Y-41523310D01*
X58523310Y-41753119D01*
X58523310Y-41925476D01*
X58580762Y-42155286D01*
X58638214Y-42270190D01*
X58753119Y-42385095D01*
X58925476Y-42442548D01*
X59212738Y-42442548D01*
X58006238Y-42442548D02*
X58006238Y-41236048D01*
X57201905Y-41236048D02*
X56972095Y-41236048D01*
X56857190Y-41293500D01*
X56742286Y-41408405D01*
X56684833Y-41638214D01*
X56684833Y-42040381D01*
X56742286Y-42270190D01*
X56857190Y-42385095D01*
X56972095Y-42442548D01*
X57201905Y-42442548D01*
X57316809Y-42385095D01*
X57431714Y-42270190D01*
X57489166Y-42040381D01*
X57489166Y-41638214D01*
X57431714Y-41408405D01*
X57316809Y-41293500D01*
X57201905Y-41236048D01*
X56167762Y-42442548D02*
X56167762Y-41236048D01*
X55880500Y-41236048D01*
X55708143Y-41293500D01*
X55593238Y-41408405D01*
X55535786Y-41523310D01*
X55478334Y-41753119D01*
X55478334Y-41925476D01*
X55535786Y-42155286D01*
X55593238Y-42270190D01*
X55708143Y-42385095D01*
X55880500Y-42442548D01*
X56167762Y-42442548D01*
X54961262Y-41810571D02*
X54559095Y-41810571D01*
X54386738Y-42442548D02*
X54961262Y-42442548D01*
X54961262Y-41236048D01*
X54386738Y-41236048D01*
X18638214Y-42704333D02*
X19442548Y-42704333D01*
X18178595Y-42417071D02*
X19040381Y-42129810D01*
X19040381Y-42876690D01*
X19327643Y-43336310D02*
X19385095Y-43393762D01*
X19442548Y-43336310D01*
X19385095Y-43278858D01*
X19327643Y-43336310D01*
X19442548Y-43336310D01*
X18236048Y-43795929D02*
X18236048Y-44600262D01*
X19442548Y-44083191D01*
X18638214Y-45576953D02*
X19442548Y-45576953D01*
X18638214Y-45059882D02*
X19270190Y-45059882D01*
X19385095Y-45117334D01*
X19442548Y-45232239D01*
X19442548Y-45404596D01*
X19385095Y-45519501D01*
X19327643Y-45576953D01*
X41382929Y-59736048D02*
X41268024Y-59736048D01*
X41153119Y-59793500D01*
X41095667Y-59850952D01*
X41038214Y-59965857D01*
X40980762Y-60195667D01*
X40980762Y-60482929D01*
X41038214Y-60712738D01*
X41095667Y-60827643D01*
X41153119Y-60885095D01*
X41268024Y-60942548D01*
X41382929Y-60942548D01*
X41497833Y-60885095D01*
X41555286Y-60827643D01*
X41612738Y-60712738D01*
X41670190Y-60482929D01*
X41670190Y-60195667D01*
X41612738Y-59965857D01*
X41555286Y-59850952D01*
X41497833Y-59793500D01*
X41382929Y-59736048D01*
X40463690Y-60827643D02*
X40406238Y-60885095D01*
X40463690Y-60942548D01*
X40521142Y-60885095D01*
X40463690Y-60827643D01*
X40463690Y-60942548D01*
X39257190Y-60942548D02*
X39946618Y-60942548D01*
X39601904Y-60942548D02*
X39601904Y-59736048D01*
X39716809Y-59908405D01*
X39831714Y-60023310D01*
X39946618Y-60080762D01*
X38223047Y-60138214D02*
X38223047Y-60942548D01*
X38740118Y-60138214D02*
X38740118Y-60770190D01*
X38682666Y-60885095D01*
X38567761Y-60942548D01*
X38395404Y-60942548D01*
X38280499Y-60885095D01*
X38223047Y-60827643D01*
X28482929Y-59736048D02*
X28368024Y-59736048D01*
X28253119Y-59793500D01*
X28195667Y-59850952D01*
X28138214Y-59965857D01*
X28080762Y-60195667D01*
X28080762Y-60482929D01*
X28138214Y-60712738D01*
X28195667Y-60827643D01*
X28253119Y-60885095D01*
X28368024Y-60942548D01*
X28482929Y-60942548D01*
X28597833Y-60885095D01*
X28655286Y-60827643D01*
X28712738Y-60712738D01*
X28770190Y-60482929D01*
X28770190Y-60195667D01*
X28712738Y-59965857D01*
X28655286Y-59850952D01*
X28597833Y-59793500D01*
X28482929Y-59736048D01*
X27563690Y-60827643D02*
X27506238Y-60885095D01*
X27563690Y-60942548D01*
X27621142Y-60885095D01*
X27563690Y-60827643D01*
X27563690Y-60942548D01*
X26357190Y-60942548D02*
X27046618Y-60942548D01*
X26701904Y-60942548D02*
X26701904Y-59736048D01*
X26816809Y-59908405D01*
X26931714Y-60023310D01*
X27046618Y-60080762D01*
X25323047Y-60138214D02*
X25323047Y-60942548D01*
X25840118Y-60138214D02*
X25840118Y-60770190D01*
X25782666Y-60885095D01*
X25667761Y-60942548D01*
X25495404Y-60942548D01*
X25380499Y-60885095D01*
X25323047Y-60827643D01*
X67482929Y-59736048D02*
X67368024Y-59736048D01*
X67253119Y-59793500D01*
X67195667Y-59850952D01*
X67138214Y-59965857D01*
X67080762Y-60195667D01*
X67080762Y-60482929D01*
X67138214Y-60712738D01*
X67195667Y-60827643D01*
X67253119Y-60885095D01*
X67368024Y-60942548D01*
X67482929Y-60942548D01*
X67597833Y-60885095D01*
X67655286Y-60827643D01*
X67712738Y-60712738D01*
X67770190Y-60482929D01*
X67770190Y-60195667D01*
X67712738Y-59965857D01*
X67655286Y-59850952D01*
X67597833Y-59793500D01*
X67482929Y-59736048D01*
X66563690Y-60827643D02*
X66506238Y-60885095D01*
X66563690Y-60942548D01*
X66621142Y-60885095D01*
X66563690Y-60827643D01*
X66563690Y-60942548D01*
X65357190Y-60942548D02*
X66046618Y-60942548D01*
X65701904Y-60942548D02*
X65701904Y-59736048D01*
X65816809Y-59908405D01*
X65931714Y-60023310D01*
X66046618Y-60080762D01*
X64323047Y-60138214D02*
X64323047Y-60942548D01*
X64840118Y-60138214D02*
X64840118Y-60770190D01*
X64782666Y-60885095D01*
X64667761Y-60942548D01*
X64495404Y-60942548D01*
X64380499Y-60885095D01*
X64323047Y-60827643D01*
X54682929Y-59736048D02*
X54568024Y-59736048D01*
X54453119Y-59793500D01*
X54395667Y-59850952D01*
X54338214Y-59965857D01*
X54280762Y-60195667D01*
X54280762Y-60482929D01*
X54338214Y-60712738D01*
X54395667Y-60827643D01*
X54453119Y-60885095D01*
X54568024Y-60942548D01*
X54682929Y-60942548D01*
X54797833Y-60885095D01*
X54855286Y-60827643D01*
X54912738Y-60712738D01*
X54970190Y-60482929D01*
X54970190Y-60195667D01*
X54912738Y-59965857D01*
X54855286Y-59850952D01*
X54797833Y-59793500D01*
X54682929Y-59736048D01*
X53763690Y-60827643D02*
X53706238Y-60885095D01*
X53763690Y-60942548D01*
X53821142Y-60885095D01*
X53763690Y-60827643D01*
X53763690Y-60942548D01*
X52557190Y-60942548D02*
X53246618Y-60942548D01*
X52901904Y-60942548D02*
X52901904Y-59736048D01*
X53016809Y-59908405D01*
X53131714Y-60023310D01*
X53246618Y-60080762D01*
X51523047Y-60138214D02*
X51523047Y-60942548D01*
X52040118Y-60138214D02*
X52040118Y-60770190D01*
X51982666Y-60885095D01*
X51867761Y-60942548D01*
X51695404Y-60942548D01*
X51580499Y-60885095D01*
X51523047Y-60827643D01*
X21942548Y-68919238D02*
X21942548Y-68229810D01*
X21942548Y-68574524D02*
X20736048Y-68574524D01*
X20908405Y-68459619D01*
X21023310Y-68344714D01*
X21080762Y-68229810D01*
X21942548Y-69436310D02*
X20736048Y-69436310D01*
X21482929Y-69551215D02*
X21942548Y-69895929D01*
X21138214Y-69895929D02*
X21597833Y-69436310D01*
X36980762Y-60942548D02*
X37670190Y-60942548D01*
X37325476Y-60942548D02*
X37325476Y-59736048D01*
X37440381Y-59908405D01*
X37555286Y-60023310D01*
X37670190Y-60080762D01*
X36233881Y-59736048D02*
X36118976Y-59736048D01*
X36004071Y-59793500D01*
X35946619Y-59850952D01*
X35889166Y-59965857D01*
X35831714Y-60195667D01*
X35831714Y-60482929D01*
X35889166Y-60712738D01*
X35946619Y-60827643D01*
X36004071Y-60885095D01*
X36118976Y-60942548D01*
X36233881Y-60942548D01*
X36348785Y-60885095D01*
X36406238Y-60827643D01*
X36463690Y-60712738D01*
X36521142Y-60482929D01*
X36521142Y-60195667D01*
X36463690Y-59965857D01*
X36406238Y-59850952D01*
X36348785Y-59793500D01*
X36233881Y-59736048D01*
X35314642Y-60942548D02*
X35314642Y-59736048D01*
X35199737Y-60482929D02*
X34855023Y-60942548D01*
X34855023Y-60138214D02*
X35314642Y-60597833D01*
X24180762Y-60942548D02*
X24870190Y-60942548D01*
X24525476Y-60942548D02*
X24525476Y-59736048D01*
X24640381Y-59908405D01*
X24755286Y-60023310D01*
X24870190Y-60080762D01*
X23433881Y-59736048D02*
X23318976Y-59736048D01*
X23204071Y-59793500D01*
X23146619Y-59850952D01*
X23089166Y-59965857D01*
X23031714Y-60195667D01*
X23031714Y-60482929D01*
X23089166Y-60712738D01*
X23146619Y-60827643D01*
X23204071Y-60885095D01*
X23318976Y-60942548D01*
X23433881Y-60942548D01*
X23548785Y-60885095D01*
X23606238Y-60827643D01*
X23663690Y-60712738D01*
X23721142Y-60482929D01*
X23721142Y-60195667D01*
X23663690Y-59965857D01*
X23606238Y-59850952D01*
X23548785Y-59793500D01*
X23433881Y-59736048D01*
X22514642Y-60942548D02*
X22514642Y-59736048D01*
X22399737Y-60482929D02*
X22055023Y-60942548D01*
X22055023Y-60138214D02*
X22514642Y-60597833D01*
X39442548Y-45919238D02*
X39442548Y-45229810D01*
X39442548Y-45574524D02*
X38236048Y-45574524D01*
X38408405Y-45459619D01*
X38523310Y-45344714D01*
X38580762Y-45229810D01*
X38236048Y-46666119D02*
X38236048Y-46781024D01*
X38293500Y-46895929D01*
X38350952Y-46953381D01*
X38465857Y-47010834D01*
X38695667Y-47068286D01*
X38982929Y-47068286D01*
X39212738Y-47010834D01*
X39327643Y-46953381D01*
X39385095Y-46895929D01*
X39442548Y-46781024D01*
X39442548Y-46666119D01*
X39385095Y-46551215D01*
X39327643Y-46493762D01*
X39212738Y-46436310D01*
X38982929Y-46378858D01*
X38695667Y-46378858D01*
X38465857Y-46436310D01*
X38350952Y-46493762D01*
X38293500Y-46551215D01*
X38236048Y-46666119D01*
X26442548Y-45919238D02*
X26442548Y-45229810D01*
X26442548Y-45574524D02*
X25236048Y-45574524D01*
X25408405Y-45459619D01*
X25523310Y-45344714D01*
X25580762Y-45229810D01*
X25236048Y-46666119D02*
X25236048Y-46781024D01*
X25293500Y-46895929D01*
X25350952Y-46953381D01*
X25465857Y-47010834D01*
X25695667Y-47068286D01*
X25982929Y-47068286D01*
X26212738Y-47010834D01*
X26327643Y-46953381D01*
X26385095Y-46895929D01*
X26442548Y-46781024D01*
X26442548Y-46666119D01*
X26385095Y-46551215D01*
X26327643Y-46493762D01*
X26212738Y-46436310D01*
X25982929Y-46378858D01*
X25695667Y-46378858D01*
X25465857Y-46436310D01*
X25350952Y-46493762D01*
X25293500Y-46551215D01*
X25236048Y-46666119D01*
X63080762Y-60942548D02*
X63770190Y-60942548D01*
X63425476Y-60942548D02*
X63425476Y-59736048D01*
X63540381Y-59908405D01*
X63655286Y-60023310D01*
X63770190Y-60080762D01*
X62333881Y-59736048D02*
X62218976Y-59736048D01*
X62104071Y-59793500D01*
X62046619Y-59850952D01*
X61989166Y-59965857D01*
X61931714Y-60195667D01*
X61931714Y-60482929D01*
X61989166Y-60712738D01*
X62046619Y-60827643D01*
X62104071Y-60885095D01*
X62218976Y-60942548D01*
X62333881Y-60942548D01*
X62448785Y-60885095D01*
X62506238Y-60827643D01*
X62563690Y-60712738D01*
X62621142Y-60482929D01*
X62621142Y-60195667D01*
X62563690Y-59965857D01*
X62506238Y-59850952D01*
X62448785Y-59793500D01*
X62333881Y-59736048D01*
X61414642Y-60942548D02*
X61414642Y-59736048D01*
X61299737Y-60482929D02*
X60955023Y-60942548D01*
X60955023Y-60138214D02*
X61414642Y-60597833D01*
X50180762Y-60942548D02*
X50870190Y-60942548D01*
X50525476Y-60942548D02*
X50525476Y-59736048D01*
X50640381Y-59908405D01*
X50755286Y-60023310D01*
X50870190Y-60080762D01*
X49433881Y-59736048D02*
X49318976Y-59736048D01*
X49204071Y-59793500D01*
X49146619Y-59850952D01*
X49089166Y-59965857D01*
X49031714Y-60195667D01*
X49031714Y-60482929D01*
X49089166Y-60712738D01*
X49146619Y-60827643D01*
X49204071Y-60885095D01*
X49318976Y-60942548D01*
X49433881Y-60942548D01*
X49548785Y-60885095D01*
X49606238Y-60827643D01*
X49663690Y-60712738D01*
X49721142Y-60482929D01*
X49721142Y-60195667D01*
X49663690Y-59965857D01*
X49606238Y-59850952D01*
X49548785Y-59793500D01*
X49433881Y-59736048D01*
X48514642Y-60942548D02*
X48514642Y-59736048D01*
X48399737Y-60482929D02*
X48055023Y-60942548D01*
X48055023Y-60138214D02*
X48514642Y-60597833D01*
X65442548Y-45919238D02*
X65442548Y-45229810D01*
X65442548Y-45574524D02*
X64236048Y-45574524D01*
X64408405Y-45459619D01*
X64523310Y-45344714D01*
X64580762Y-45229810D01*
X64236048Y-46666119D02*
X64236048Y-46781024D01*
X64293500Y-46895929D01*
X64350952Y-46953381D01*
X64465857Y-47010834D01*
X64695667Y-47068286D01*
X64982929Y-47068286D01*
X65212738Y-47010834D01*
X65327643Y-46953381D01*
X65385095Y-46895929D01*
X65442548Y-46781024D01*
X65442548Y-46666119D01*
X65385095Y-46551215D01*
X65327643Y-46493762D01*
X65212738Y-46436310D01*
X64982929Y-46378858D01*
X64695667Y-46378858D01*
X64465857Y-46436310D01*
X64350952Y-46493762D01*
X64293500Y-46551215D01*
X64236048Y-46666119D01*
X52942548Y-45919238D02*
X52942548Y-45229810D01*
X52942548Y-45574524D02*
X51736048Y-45574524D01*
X51908405Y-45459619D01*
X52023310Y-45344714D01*
X52080762Y-45229810D01*
X51736048Y-46666119D02*
X51736048Y-46781024D01*
X51793500Y-46895929D01*
X51850952Y-46953381D01*
X51965857Y-47010834D01*
X52195667Y-47068286D01*
X52482929Y-47068286D01*
X52712738Y-47010834D01*
X52827643Y-46953381D01*
X52885095Y-46895929D01*
X52942548Y-46781024D01*
X52942548Y-46666119D01*
X52885095Y-46551215D01*
X52827643Y-46493762D01*
X52712738Y-46436310D01*
X52482929Y-46378858D01*
X52195667Y-46378858D01*
X51965857Y-46436310D01*
X51850952Y-46493762D01*
X51793500Y-46551215D01*
X51736048Y-46666119D01*
X70480762Y-85942548D02*
X71170190Y-85942548D01*
X70825476Y-85942548D02*
X70825476Y-84736048D01*
X70940381Y-84908405D01*
X71055286Y-85023310D01*
X71170190Y-85080762D01*
X70021142Y-84850952D02*
X69963690Y-84793500D01*
X69848785Y-84736048D01*
X69561523Y-84736048D01*
X69446619Y-84793500D01*
X69389166Y-84850952D01*
X69331714Y-84965857D01*
X69331714Y-85080762D01*
X69389166Y-85253119D01*
X70078595Y-85942548D01*
X69331714Y-85942548D01*
X68584833Y-84736048D02*
X68469928Y-84736048D01*
X68355023Y-84793500D01*
X68297571Y-84850952D01*
X68240118Y-84965857D01*
X68182666Y-85195667D01*
X68182666Y-85482929D01*
X68240118Y-85712738D01*
X68297571Y-85827643D01*
X68355023Y-85885095D01*
X68469928Y-85942548D01*
X68584833Y-85942548D01*
X68699737Y-85885095D01*
X68757190Y-85827643D01*
X68814642Y-85712738D01*
X68872094Y-85482929D01*
X68872094Y-85195667D01*
X68814642Y-84965857D01*
X68757190Y-84850952D01*
X68699737Y-84793500D01*
X68584833Y-84736048D01*
X42810571Y-39310571D02*
X43212738Y-39310571D01*
X43212738Y-39942548D02*
X43212738Y-38736048D01*
X42638214Y-38736048D01*
X42178595Y-39942548D02*
X42178595Y-38736048D01*
X41029547Y-39942548D02*
X41604071Y-39942548D01*
X41604071Y-38736048D01*
X40799738Y-38736048D02*
X40110310Y-38736048D01*
X40455024Y-39942548D02*
X40455024Y-38736048D01*
X39708143Y-39310571D02*
X39305976Y-39310571D01*
X39133619Y-39942548D02*
X39708143Y-39942548D01*
X39708143Y-38736048D01*
X39133619Y-38736048D01*
X37927120Y-39942548D02*
X38329286Y-39368024D01*
X38616548Y-39942548D02*
X38616548Y-38736048D01*
X38156929Y-38736048D01*
X38042024Y-38793500D01*
X37984572Y-38850952D01*
X37927120Y-38965857D01*
X37927120Y-39138214D01*
X37984572Y-39253119D01*
X38042024Y-39310571D01*
X38156929Y-39368024D01*
X38616548Y-39368024D01*
X29810571Y-39310571D02*
X30212738Y-39310571D01*
X30212738Y-39942548D02*
X30212738Y-38736048D01*
X29638214Y-38736048D01*
X29178595Y-39942548D02*
X29178595Y-38736048D01*
X28029547Y-39942548D02*
X28604071Y-39942548D01*
X28604071Y-38736048D01*
X27799738Y-38736048D02*
X27110310Y-38736048D01*
X27455024Y-39942548D02*
X27455024Y-38736048D01*
X26708143Y-39310571D02*
X26305976Y-39310571D01*
X26133619Y-39942548D02*
X26708143Y-39942548D01*
X26708143Y-38736048D01*
X26133619Y-38736048D01*
X24927120Y-39942548D02*
X25329286Y-39368024D01*
X25616548Y-39942548D02*
X25616548Y-38736048D01*
X25156929Y-38736048D01*
X25042024Y-38793500D01*
X24984572Y-38850952D01*
X24927120Y-38965857D01*
X24927120Y-39138214D01*
X24984572Y-39253119D01*
X25042024Y-39310571D01*
X25156929Y-39368024D01*
X25616548Y-39368024D01*
X68810571Y-39310571D02*
X69212738Y-39310571D01*
X69212738Y-39942548D02*
X69212738Y-38736048D01*
X68638214Y-38736048D01*
X68178595Y-39942548D02*
X68178595Y-38736048D01*
X67029547Y-39942548D02*
X67604071Y-39942548D01*
X67604071Y-38736048D01*
X66799738Y-38736048D02*
X66110310Y-38736048D01*
X66455024Y-39942548D02*
X66455024Y-38736048D01*
X65708143Y-39310571D02*
X65305976Y-39310571D01*
X65133619Y-39942548D02*
X65708143Y-39942548D01*
X65708143Y-38736048D01*
X65133619Y-38736048D01*
X63927120Y-39942548D02*
X64329286Y-39368024D01*
X64616548Y-39942548D02*
X64616548Y-38736048D01*
X64156929Y-38736048D01*
X64042024Y-38793500D01*
X63984572Y-38850952D01*
X63927120Y-38965857D01*
X63927120Y-39138214D01*
X63984572Y-39253119D01*
X64042024Y-39310571D01*
X64156929Y-39368024D01*
X64616548Y-39368024D01*
X55810571Y-39310571D02*
X56212738Y-39310571D01*
X56212738Y-39942548D02*
X56212738Y-38736048D01*
X55638214Y-38736048D01*
X55178595Y-39942548D02*
X55178595Y-38736048D01*
X54029547Y-39942548D02*
X54604071Y-39942548D01*
X54604071Y-38736048D01*
X53799738Y-38736048D02*
X53110310Y-38736048D01*
X53455024Y-39942548D02*
X53455024Y-38736048D01*
X52708143Y-39310571D02*
X52305976Y-39310571D01*
X52133619Y-39942548D02*
X52708143Y-39942548D01*
X52708143Y-38736048D01*
X52133619Y-38736048D01*
X50927120Y-39942548D02*
X51329286Y-39368024D01*
X51616548Y-39942548D02*
X51616548Y-38736048D01*
X51156929Y-38736048D01*
X51042024Y-38793500D01*
X50984572Y-38850952D01*
X50927120Y-38965857D01*
X50927120Y-39138214D01*
X50984572Y-39253119D01*
X51042024Y-39310571D01*
X51156929Y-39368024D01*
X51616548Y-39368024D01*
X34942548Y-42287262D02*
X33736048Y-42287262D01*
X33736048Y-42574524D01*
X33793500Y-42746881D01*
X33908405Y-42861786D01*
X34023310Y-42919238D01*
X34253119Y-42976690D01*
X34425476Y-42976690D01*
X34655286Y-42919238D01*
X34770190Y-42861786D01*
X34885095Y-42746881D01*
X34942548Y-42574524D01*
X34942548Y-42287262D01*
X34942548Y-43493762D02*
X33736048Y-43493762D01*
X33736048Y-44298095D02*
X33736048Y-44527905D01*
X33793500Y-44642810D01*
X33908405Y-44757714D01*
X34138214Y-44815167D01*
X34540381Y-44815167D01*
X34770190Y-44757714D01*
X34885095Y-44642810D01*
X34942548Y-44527905D01*
X34942548Y-44298095D01*
X34885095Y-44183191D01*
X34770190Y-44068286D01*
X34540381Y-44010834D01*
X34138214Y-44010834D01*
X33908405Y-44068286D01*
X33793500Y-44183191D01*
X33736048Y-44298095D01*
X34942548Y-45332238D02*
X33736048Y-45332238D01*
X33736048Y-45619500D01*
X33793500Y-45791857D01*
X33908405Y-45906762D01*
X34023310Y-45964214D01*
X34253119Y-46021666D01*
X34425476Y-46021666D01*
X34655286Y-45964214D01*
X34770190Y-45906762D01*
X34885095Y-45791857D01*
X34942548Y-45619500D01*
X34942548Y-45332238D01*
X34310571Y-46538738D02*
X34310571Y-46940905D01*
X34942548Y-47113262D02*
X34942548Y-46538738D01*
X33736048Y-46538738D01*
X33736048Y-47113262D01*
X21942548Y-42287262D02*
X20736048Y-42287262D01*
X20736048Y-42574524D01*
X20793500Y-42746881D01*
X20908405Y-42861786D01*
X21023310Y-42919238D01*
X21253119Y-42976690D01*
X21425476Y-42976690D01*
X21655286Y-42919238D01*
X21770190Y-42861786D01*
X21885095Y-42746881D01*
X21942548Y-42574524D01*
X21942548Y-42287262D01*
X21942548Y-43493762D02*
X20736048Y-43493762D01*
X20736048Y-44298095D02*
X20736048Y-44527905D01*
X20793500Y-44642810D01*
X20908405Y-44757714D01*
X21138214Y-44815167D01*
X21540381Y-44815167D01*
X21770190Y-44757714D01*
X21885095Y-44642810D01*
X21942548Y-44527905D01*
X21942548Y-44298095D01*
X21885095Y-44183191D01*
X21770190Y-44068286D01*
X21540381Y-44010834D01*
X21138214Y-44010834D01*
X20908405Y-44068286D01*
X20793500Y-44183191D01*
X20736048Y-44298095D01*
X21942548Y-45332238D02*
X20736048Y-45332238D01*
X20736048Y-45619500D01*
X20793500Y-45791857D01*
X20908405Y-45906762D01*
X21023310Y-45964214D01*
X21253119Y-46021666D01*
X21425476Y-46021666D01*
X21655286Y-45964214D01*
X21770190Y-45906762D01*
X21885095Y-45791857D01*
X21942548Y-45619500D01*
X21942548Y-45332238D01*
X21310571Y-46538738D02*
X21310571Y-46940905D01*
X21942548Y-47113262D02*
X21942548Y-46538738D01*
X20736048Y-46538738D01*
X20736048Y-47113262D01*
X60942548Y-42787262D02*
X59736048Y-42787262D01*
X59736048Y-43074524D01*
X59793500Y-43246881D01*
X59908405Y-43361786D01*
X60023310Y-43419238D01*
X60253119Y-43476690D01*
X60425476Y-43476690D01*
X60655286Y-43419238D01*
X60770190Y-43361786D01*
X60885095Y-43246881D01*
X60942548Y-43074524D01*
X60942548Y-42787262D01*
X60942548Y-43993762D02*
X59736048Y-43993762D01*
X59736048Y-44798095D02*
X59736048Y-45027905D01*
X59793500Y-45142810D01*
X59908405Y-45257714D01*
X60138214Y-45315167D01*
X60540381Y-45315167D01*
X60770190Y-45257714D01*
X60885095Y-45142810D01*
X60942548Y-45027905D01*
X60942548Y-44798095D01*
X60885095Y-44683191D01*
X60770190Y-44568286D01*
X60540381Y-44510834D01*
X60138214Y-44510834D01*
X59908405Y-44568286D01*
X59793500Y-44683191D01*
X59736048Y-44798095D01*
X60942548Y-45832238D02*
X59736048Y-45832238D01*
X59736048Y-46119500D01*
X59793500Y-46291857D01*
X59908405Y-46406762D01*
X60023310Y-46464214D01*
X60253119Y-46521666D01*
X60425476Y-46521666D01*
X60655286Y-46464214D01*
X60770190Y-46406762D01*
X60885095Y-46291857D01*
X60942548Y-46119500D01*
X60942548Y-45832238D01*
X60310571Y-47038738D02*
X60310571Y-47440905D01*
X60942548Y-47613262D02*
X60942548Y-47038738D01*
X59736048Y-47038738D01*
X59736048Y-47613262D01*
X47942548Y-42787262D02*
X46736048Y-42787262D01*
X46736048Y-43074524D01*
X46793500Y-43246881D01*
X46908405Y-43361786D01*
X47023310Y-43419238D01*
X47253119Y-43476690D01*
X47425476Y-43476690D01*
X47655286Y-43419238D01*
X47770190Y-43361786D01*
X47885095Y-43246881D01*
X47942548Y-43074524D01*
X47942548Y-42787262D01*
X47942548Y-43993762D02*
X46736048Y-43993762D01*
X46736048Y-44798095D02*
X46736048Y-45027905D01*
X46793500Y-45142810D01*
X46908405Y-45257714D01*
X47138214Y-45315167D01*
X47540381Y-45315167D01*
X47770190Y-45257714D01*
X47885095Y-45142810D01*
X47942548Y-45027905D01*
X47942548Y-44798095D01*
X47885095Y-44683191D01*
X47770190Y-44568286D01*
X47540381Y-44510834D01*
X47138214Y-44510834D01*
X46908405Y-44568286D01*
X46793500Y-44683191D01*
X46736048Y-44798095D01*
X47942548Y-45832238D02*
X46736048Y-45832238D01*
X46736048Y-46119500D01*
X46793500Y-46291857D01*
X46908405Y-46406762D01*
X47023310Y-46464214D01*
X47253119Y-46521666D01*
X47425476Y-46521666D01*
X47655286Y-46464214D01*
X47770190Y-46406762D01*
X47885095Y-46291857D01*
X47942548Y-46119500D01*
X47942548Y-45832238D01*
X47310571Y-47038738D02*
X47310571Y-47440905D01*
X47942548Y-47613262D02*
X47942548Y-47038738D01*
X46736048Y-47038738D01*
X46736048Y-47613262D01*
X44942548Y-46419238D02*
X44942548Y-45729810D01*
X44942548Y-46074524D02*
X43736048Y-46074524D01*
X43908405Y-45959619D01*
X44023310Y-45844714D01*
X44080762Y-45729810D01*
X43736048Y-47166119D02*
X43736048Y-47281024D01*
X43793500Y-47395929D01*
X43850952Y-47453381D01*
X43965857Y-47510834D01*
X44195667Y-47568286D01*
X44482929Y-47568286D01*
X44712738Y-47510834D01*
X44827643Y-47453381D01*
X44885095Y-47395929D01*
X44942548Y-47281024D01*
X44942548Y-47166119D01*
X44885095Y-47051215D01*
X44827643Y-46993762D01*
X44712738Y-46936310D01*
X44482929Y-46878858D01*
X44195667Y-46878858D01*
X43965857Y-46936310D01*
X43850952Y-46993762D01*
X43793500Y-47051215D01*
X43736048Y-47166119D01*
X31942548Y-46419238D02*
X31942548Y-45729810D01*
X31942548Y-46074524D02*
X30736048Y-46074524D01*
X30908405Y-45959619D01*
X31023310Y-45844714D01*
X31080762Y-45729810D01*
X30736048Y-47166119D02*
X30736048Y-47281024D01*
X30793500Y-47395929D01*
X30850952Y-47453381D01*
X30965857Y-47510834D01*
X31195667Y-47568286D01*
X31482929Y-47568286D01*
X31712738Y-47510834D01*
X31827643Y-47453381D01*
X31885095Y-47395929D01*
X31942548Y-47281024D01*
X31942548Y-47166119D01*
X31885095Y-47051215D01*
X31827643Y-46993762D01*
X31712738Y-46936310D01*
X31482929Y-46878858D01*
X31195667Y-46878858D01*
X30965857Y-46936310D01*
X30850952Y-46993762D01*
X30793500Y-47051215D01*
X30736048Y-47166119D01*
X38942548Y-41419238D02*
X38942548Y-40729810D01*
X38942548Y-41074524D02*
X37736048Y-41074524D01*
X37908405Y-40959619D01*
X38023310Y-40844714D01*
X38080762Y-40729810D01*
X37736048Y-42166119D02*
X37736048Y-42281024D01*
X37793500Y-42395929D01*
X37850952Y-42453381D01*
X37965857Y-42510834D01*
X38195667Y-42568286D01*
X38482929Y-42568286D01*
X38712738Y-42510834D01*
X38827643Y-42453381D01*
X38885095Y-42395929D01*
X38942548Y-42281024D01*
X38942548Y-42166119D01*
X38885095Y-42051215D01*
X38827643Y-41993762D01*
X38712738Y-41936310D01*
X38482929Y-41878858D01*
X38195667Y-41878858D01*
X37965857Y-41936310D01*
X37850952Y-41993762D01*
X37793500Y-42051215D01*
X37736048Y-42166119D01*
X70942548Y-46419238D02*
X70942548Y-45729810D01*
X70942548Y-46074524D02*
X69736048Y-46074524D01*
X69908405Y-45959619D01*
X70023310Y-45844714D01*
X70080762Y-45729810D01*
X69736048Y-47166119D02*
X69736048Y-47281024D01*
X69793500Y-47395929D01*
X69850952Y-47453381D01*
X69965857Y-47510834D01*
X70195667Y-47568286D01*
X70482929Y-47568286D01*
X70712738Y-47510834D01*
X70827643Y-47453381D01*
X70885095Y-47395929D01*
X70942548Y-47281024D01*
X70942548Y-47166119D01*
X70885095Y-47051215D01*
X70827643Y-46993762D01*
X70712738Y-46936310D01*
X70482929Y-46878858D01*
X70195667Y-46878858D01*
X69965857Y-46936310D01*
X69850952Y-46993762D01*
X69793500Y-47051215D01*
X69736048Y-47166119D01*
X57942548Y-46419238D02*
X57942548Y-45729810D01*
X57942548Y-46074524D02*
X56736048Y-46074524D01*
X56908405Y-45959619D01*
X57023310Y-45844714D01*
X57080762Y-45729810D01*
X56736048Y-47166119D02*
X56736048Y-47281024D01*
X56793500Y-47395929D01*
X56850952Y-47453381D01*
X56965857Y-47510834D01*
X57195667Y-47568286D01*
X57482929Y-47568286D01*
X57712738Y-47510834D01*
X57827643Y-47453381D01*
X57885095Y-47395929D01*
X57942548Y-47281024D01*
X57942548Y-47166119D01*
X57885095Y-47051215D01*
X57827643Y-46993762D01*
X57712738Y-46936310D01*
X57482929Y-46878858D01*
X57195667Y-46878858D01*
X56965857Y-46936310D01*
X56850952Y-46993762D01*
X56793500Y-47051215D01*
X56736048Y-47166119D01*
X51942548Y-41419238D02*
X51942548Y-40729810D01*
X51942548Y-41074524D02*
X50736048Y-41074524D01*
X50908405Y-40959619D01*
X51023310Y-40844714D01*
X51080762Y-40729810D01*
X50736048Y-42166119D02*
X50736048Y-42281024D01*
X50793500Y-42395929D01*
X50850952Y-42453381D01*
X50965857Y-42510834D01*
X51195667Y-42568286D01*
X51482929Y-42568286D01*
X51712738Y-42510834D01*
X51827643Y-42453381D01*
X51885095Y-42395929D01*
X51942548Y-42281024D01*
X51942548Y-42166119D01*
X51885095Y-42051215D01*
X51827643Y-41993762D01*
X51712738Y-41936310D01*
X51482929Y-41878858D01*
X51195667Y-41878858D01*
X50965857Y-41936310D01*
X50850952Y-41993762D01*
X50793500Y-42051215D01*
X50736048Y-42166119D01*
X25942548Y-41419238D02*
X25942548Y-40729810D01*
X25942548Y-41074524D02*
X24736048Y-41074524D01*
X24908405Y-40959619D01*
X25023310Y-40844714D01*
X25080762Y-40729810D01*
X24736048Y-42166119D02*
X24736048Y-42281024D01*
X24793500Y-42395929D01*
X24850952Y-42453381D01*
X24965857Y-42510834D01*
X25195667Y-42568286D01*
X25482929Y-42568286D01*
X25712738Y-42510834D01*
X25827643Y-42453381D01*
X25885095Y-42395929D01*
X25942548Y-42281024D01*
X25942548Y-42166119D01*
X25885095Y-42051215D01*
X25827643Y-41993762D01*
X25712738Y-41936310D01*
X25482929Y-41878858D01*
X25195667Y-41878858D01*
X24965857Y-41936310D01*
X24850952Y-41993762D01*
X24793500Y-42051215D01*
X24736048Y-42166119D01*
X64942548Y-41419238D02*
X64942548Y-40729810D01*
X64942548Y-41074524D02*
X63736048Y-41074524D01*
X63908405Y-40959619D01*
X64023310Y-40844714D01*
X64080762Y-40729810D01*
X63736048Y-42166119D02*
X63736048Y-42281024D01*
X63793500Y-42395929D01*
X63850952Y-42453381D01*
X63965857Y-42510834D01*
X64195667Y-42568286D01*
X64482929Y-42568286D01*
X64712738Y-42510834D01*
X64827643Y-42453381D01*
X64885095Y-42395929D01*
X64942548Y-42281024D01*
X64942548Y-42166119D01*
X64885095Y-42051215D01*
X64827643Y-41993762D01*
X64712738Y-41936310D01*
X64482929Y-41878858D01*
X64195667Y-41878858D01*
X63965857Y-41936310D01*
X63850952Y-41993762D01*
X63793500Y-42051215D01*
X63736048Y-42166119D01*
D12*
X65361905Y-84402381D02*
X65361905Y-83402381D01*
X64790476Y-84402381D02*
X65219048Y-83830952D01*
X64790476Y-83402381D02*
X65361905Y-83973810D01*
X59538095Y-84066667D02*
X59061904Y-84066667D01*
X59633333Y-84352381D02*
X59300000Y-83352381D01*
X58966666Y-84352381D01*
D15*
X55742548Y-69319238D02*
X55742548Y-68629810D01*
X55742548Y-68974524D02*
X54536048Y-68974524D01*
X54708405Y-68859619D01*
X54823310Y-68744714D01*
X54880762Y-68629810D01*
X54536048Y-70066119D02*
X54536048Y-70181024D01*
X54593500Y-70295929D01*
X54650952Y-70353381D01*
X54765857Y-70410834D01*
X54995667Y-70468286D01*
X55282929Y-70468286D01*
X55512738Y-70410834D01*
X55627643Y-70353381D01*
X55685095Y-70295929D01*
X55742548Y-70181024D01*
X55742548Y-70066119D01*
X55685095Y-69951215D01*
X55627643Y-69893762D01*
X55512738Y-69836310D01*
X55282929Y-69778858D01*
X54995667Y-69778858D01*
X54765857Y-69836310D01*
X54650952Y-69893762D01*
X54593500Y-69951215D01*
X54536048Y-70066119D01*
X54536048Y-71215167D02*
X54536048Y-71330072D01*
X54593500Y-71444977D01*
X54650952Y-71502429D01*
X54765857Y-71559882D01*
X54995667Y-71617334D01*
X55282929Y-71617334D01*
X55512738Y-71559882D01*
X55627643Y-71502429D01*
X55685095Y-71444977D01*
X55742548Y-71330072D01*
X55742548Y-71215167D01*
X55685095Y-71100263D01*
X55627643Y-71042810D01*
X55512738Y-70985358D01*
X55282929Y-70927906D01*
X54995667Y-70927906D01*
X54765857Y-70985358D01*
X54650952Y-71042810D01*
X54593500Y-71100263D01*
X54536048Y-71215167D01*
X54242548Y-69319238D02*
X54242548Y-68629810D01*
X54242548Y-68974524D02*
X53036048Y-68974524D01*
X53208405Y-68859619D01*
X53323310Y-68744714D01*
X53380762Y-68629810D01*
X53036048Y-70066119D02*
X53036048Y-70181024D01*
X53093500Y-70295929D01*
X53150952Y-70353381D01*
X53265857Y-70410834D01*
X53495667Y-70468286D01*
X53782929Y-70468286D01*
X54012738Y-70410834D01*
X54127643Y-70353381D01*
X54185095Y-70295929D01*
X54242548Y-70181024D01*
X54242548Y-70066119D01*
X54185095Y-69951215D01*
X54127643Y-69893762D01*
X54012738Y-69836310D01*
X53782929Y-69778858D01*
X53495667Y-69778858D01*
X53265857Y-69836310D01*
X53150952Y-69893762D01*
X53093500Y-69951215D01*
X53036048Y-70066119D01*
X54242548Y-70985358D02*
X53036048Y-70985358D01*
X53782929Y-71100263D02*
X54242548Y-71444977D01*
X53438214Y-71444977D02*
X53897833Y-70985358D01*
X32880762Y-60942548D02*
X33570190Y-60942548D01*
X33225476Y-60942548D02*
X33225476Y-59736048D01*
X33340381Y-59908405D01*
X33455286Y-60023310D01*
X33570190Y-60080762D01*
X32133881Y-59736048D02*
X32018976Y-59736048D01*
X31904071Y-59793500D01*
X31846619Y-59850952D01*
X31789166Y-59965857D01*
X31731714Y-60195667D01*
X31731714Y-60482929D01*
X31789166Y-60712738D01*
X31846619Y-60827643D01*
X31904071Y-60885095D01*
X32018976Y-60942548D01*
X32133881Y-60942548D01*
X32248785Y-60885095D01*
X32306238Y-60827643D01*
X32363690Y-60712738D01*
X32421142Y-60482929D01*
X32421142Y-60195667D01*
X32363690Y-59965857D01*
X32306238Y-59850952D01*
X32248785Y-59793500D01*
X32133881Y-59736048D01*
X31214642Y-60942548D02*
X31214642Y-59736048D01*
X31099737Y-60482929D02*
X30755023Y-60942548D01*
X30755023Y-60138214D02*
X31214642Y-60597833D01*
X13042548Y-86919238D02*
X13042548Y-86229810D01*
X13042548Y-86574524D02*
X11836048Y-86574524D01*
X12008405Y-86459619D01*
X12123310Y-86344714D01*
X12180762Y-86229810D01*
X11836048Y-87666119D02*
X11836048Y-87781024D01*
X11893500Y-87895929D01*
X11950952Y-87953381D01*
X12065857Y-88010834D01*
X12295667Y-88068286D01*
X12582929Y-88068286D01*
X12812738Y-88010834D01*
X12927643Y-87953381D01*
X12985095Y-87895929D01*
X13042548Y-87781024D01*
X13042548Y-87666119D01*
X12985095Y-87551215D01*
X12927643Y-87493762D01*
X12812738Y-87436310D01*
X12582929Y-87378858D01*
X12295667Y-87378858D01*
X12065857Y-87436310D01*
X11950952Y-87493762D01*
X11893500Y-87551215D01*
X11836048Y-87666119D01*
X13042548Y-88585358D02*
X11836048Y-88585358D01*
X12582929Y-88700263D02*
X13042548Y-89044977D01*
X12238214Y-89044977D02*
X12697833Y-88585358D01*
X19042548Y-86919238D02*
X19042548Y-86229810D01*
X19042548Y-86574524D02*
X17836048Y-86574524D01*
X18008405Y-86459619D01*
X18123310Y-86344714D01*
X18180762Y-86229810D01*
X17836048Y-87666119D02*
X17836048Y-87781024D01*
X17893500Y-87895929D01*
X17950952Y-87953381D01*
X18065857Y-88010834D01*
X18295667Y-88068286D01*
X18582929Y-88068286D01*
X18812738Y-88010834D01*
X18927643Y-87953381D01*
X18985095Y-87895929D01*
X19042548Y-87781024D01*
X19042548Y-87666119D01*
X18985095Y-87551215D01*
X18927643Y-87493762D01*
X18812738Y-87436310D01*
X18582929Y-87378858D01*
X18295667Y-87378858D01*
X18065857Y-87436310D01*
X17950952Y-87493762D01*
X17893500Y-87551215D01*
X17836048Y-87666119D01*
X19042548Y-88585358D02*
X17836048Y-88585358D01*
X18582929Y-88700263D02*
X19042548Y-89044977D01*
X18238214Y-89044977D02*
X18697833Y-88585358D01*
X50542548Y-86919238D02*
X50542548Y-86229810D01*
X50542548Y-86574524D02*
X49336048Y-86574524D01*
X49508405Y-86459619D01*
X49623310Y-86344714D01*
X49680762Y-86229810D01*
X49336048Y-87666119D02*
X49336048Y-87781024D01*
X49393500Y-87895929D01*
X49450952Y-87953381D01*
X49565857Y-88010834D01*
X49795667Y-88068286D01*
X50082929Y-88068286D01*
X50312738Y-88010834D01*
X50427643Y-87953381D01*
X50485095Y-87895929D01*
X50542548Y-87781024D01*
X50542548Y-87666119D01*
X50485095Y-87551215D01*
X50427643Y-87493762D01*
X50312738Y-87436310D01*
X50082929Y-87378858D01*
X49795667Y-87378858D01*
X49565857Y-87436310D01*
X49450952Y-87493762D01*
X49393500Y-87551215D01*
X49336048Y-87666119D01*
X50542548Y-88585358D02*
X49336048Y-88585358D01*
X50082929Y-88700263D02*
X50542548Y-89044977D01*
X49738214Y-89044977D02*
X50197833Y-88585358D01*
X56542548Y-86919238D02*
X56542548Y-86229810D01*
X56542548Y-86574524D02*
X55336048Y-86574524D01*
X55508405Y-86459619D01*
X55623310Y-86344714D01*
X55680762Y-86229810D01*
X55336048Y-87666119D02*
X55336048Y-87781024D01*
X55393500Y-87895929D01*
X55450952Y-87953381D01*
X55565857Y-88010834D01*
X55795667Y-88068286D01*
X56082929Y-88068286D01*
X56312738Y-88010834D01*
X56427643Y-87953381D01*
X56485095Y-87895929D01*
X56542548Y-87781024D01*
X56542548Y-87666119D01*
X56485095Y-87551215D01*
X56427643Y-87493762D01*
X56312738Y-87436310D01*
X56082929Y-87378858D01*
X55795667Y-87378858D01*
X55565857Y-87436310D01*
X55450952Y-87493762D01*
X55393500Y-87551215D01*
X55336048Y-87666119D01*
X56542548Y-88585358D02*
X55336048Y-88585358D01*
X56082929Y-88700263D02*
X56542548Y-89044977D01*
X55738214Y-89044977D02*
X56197833Y-88585358D01*
X25023310Y-87442548D02*
X25425476Y-86868024D01*
X25712738Y-87442548D02*
X25712738Y-86236048D01*
X25253119Y-86236048D01*
X25138214Y-86293500D01*
X25080762Y-86350952D01*
X25023310Y-86465857D01*
X25023310Y-86638214D01*
X25080762Y-86753119D01*
X25138214Y-86810571D01*
X25253119Y-86868024D01*
X25712738Y-86868024D01*
X27523310Y-87442548D02*
X27925476Y-86868024D01*
X28212738Y-87442548D02*
X28212738Y-86236048D01*
X27753119Y-86236048D01*
X27638214Y-86293500D01*
X27580762Y-86350952D01*
X27523310Y-86465857D01*
X27523310Y-86638214D01*
X27580762Y-86753119D01*
X27638214Y-86810571D01*
X27753119Y-86868024D01*
X28212738Y-86868024D01*
X37523310Y-87442548D02*
X37925476Y-86868024D01*
X38212738Y-87442548D02*
X38212738Y-86236048D01*
X37753119Y-86236048D01*
X37638214Y-86293500D01*
X37580762Y-86350952D01*
X37523310Y-86465857D01*
X37523310Y-86638214D01*
X37580762Y-86753119D01*
X37638214Y-86810571D01*
X37753119Y-86868024D01*
X38212738Y-86868024D01*
X40023310Y-87442548D02*
X40425476Y-86868024D01*
X40712738Y-87442548D02*
X40712738Y-86236048D01*
X40253119Y-86236048D01*
X40138214Y-86293500D01*
X40080762Y-86350952D01*
X40023310Y-86465857D01*
X40023310Y-86638214D01*
X40080762Y-86753119D01*
X40138214Y-86810571D01*
X40253119Y-86868024D01*
X40712738Y-86868024D01*
M02*
