M48
;DRILL file {KiCad 4.0.3-stable} date 09/13/16 09:56:42
;FORMAT={-:-/ absolute / metric / decimal}
FMAT,2
METRIC,TZ
T1C0.762
T2C0.800
T3C1.000
T4C3.000
%
G90
G05
M71
T1
X16.34Y-3.
X20.3Y-3.
X24.26Y-3.
X28.22Y-3.
X32.18Y-3.
X36.14Y-3.
X40.1Y-3.
X44.06Y-3.
X48.02Y-3.
X51.98Y-3.
X55.94Y-3.
X59.9Y-3.
X63.86Y-3.
X67.82Y-3.
X71.78Y-3.
X75.74Y-3.
X79.7Y-3.
X83.66Y-3.
T2
X7.5Y-15.5
X13.5Y-14.
X15.Y-10.
X17.5Y-10.
X17.5Y-15.5
X20.Y-14.
X22.5Y-15.5
X26.5Y-15.5
X29.Y-15.5
X31.Y-14.
X37.5Y-14.
X37.5Y-15.5
X42.5Y-15.5
X43.5Y-14.
X46.5Y-14.
X52.5Y-14.
X52.5Y-15.5
X56.5Y-14.
X58.Y-12.5
X62.Y-8.5
X75.Y-12.5
X75.Y-15.
X77.5Y-15.5
X79.Y-14.
X88.Y-14.
X90.Y-15.5
T3
X5.Y-20.
X7.5Y-20.
X10.Y-20.
X15.Y-20.
X17.5Y-20.
X20.Y-20.
X25.Y-20.
X27.5Y-20.
X30.Y-20.
X32.5Y-20.
X40.Y-20.
X42.5Y-20.
X45.Y-20.
X50.Y-20.
X52.5Y-20.
X55.Y-20.
X60.Y-20.
X62.5Y-20.
X65.Y-20.
X67.5Y-20.
X75.Y-20.
X77.5Y-20.
X80.Y-20.
X82.5Y-20.
X87.5Y-20.
X90.Y-20.
X92.5Y-20.
X95.Y-20.
T4
X7.5Y-26.5
X17.5Y-26.5
X28.75Y-26.5
X42.5Y-26.5
X52.5Y-26.5
X63.75Y-26.5
X78.75Y-26.5
X91.25Y-26.5
T0
M30
