  0
SECTION
  2
HEADER
  9
$ANGBASE
  50
0.0
  9
$ANGDIR
  70
  1
  9
$MEASUREMENT
  70
0
  0
ENDSEC
  0
SECTION
  2
TABLES
  0
TABLE
  2
LTYPE
  70
1
  0
LTYPE
  2
CONTINUOUS
  70
0
  3
Solid line
  72
65
  73
0
  40
0.0
  0
ENDTAB
  0
TABLE
  2
STYLE
  70
4
  0
STYLE
  2
KICAD
  70
0
  40
0
  41
1
  42
1
  50
0
  71
0
  3
isocp.shx
  0
STYLE
  2
KICADB
  70
0
  40
0
  41
1
  42
1
  50
0
  71
0
  3
isocp.shx
  0
STYLE
  2
KICADI
  70
0
  40
0
  41
1
  42
1
  50
15
  71
0
  3
isocp.shx
  0
STYLE
  2
KICADBI
  70
0
  40
0
  41
1
  42
1
  50
15
  71
0
  3
isocp.shx
  0
ENDTAB
  0
TABLE
  2
LAYER
  70
30
  0
LAYER
  2
BLACK
  70
0
  62
7
  6
CONTINUOUS
  0
LAYER
  2
GRAY1
  70
0
  62
251
  6
CONTINUOUS
  0
LAYER
  2
GRAY2
  70
0
  62
8
  6
CONTINUOUS
  0
LAYER
  2
GRAY3
  70
0
  62
9
  6
CONTINUOUS
  0
LAYER
  2
WHITE
  70
0
  62
7
  6
CONTINUOUS
  0
LAYER
  2
LYELLOW
  70
0
  62
51
  6
CONTINUOUS
  0
LAYER
  2
BLUE1
  70
0
  62
178
  6
CONTINUOUS
  0
LAYER
  2
GREEN1
  70
0
  62
98
  6
CONTINUOUS
  0
LAYER
  2
CYAN1
  70
0
  62
138
  6
CONTINUOUS
  0
LAYER
  2
RED1
  70
0
  62
18
  6
CONTINUOUS
  0
LAYER
  2
MAGENTA1
  70
0
  62
228
  6
CONTINUOUS
  0
LAYER
  2
BROWN1
  70
0
  62
58
  6
CONTINUOUS
  0
LAYER
  2
BLUE2
  70
0
  62
5
  6
CONTINUOUS
  0
LAYER
  2
GREEN2
  70
0
  62
3
  6
CONTINUOUS
  0
LAYER
  2
CYAN2
  70
0
  62
4
  6
CONTINUOUS
  0
LAYER
  2
RED2
  70
0
  62
1
  6
CONTINUOUS
  0
LAYER
  2
MAGENTA2
  70
0
  62
6
  6
CONTINUOUS
  0
LAYER
  2
BROWN2
  70
0
  62
54
  6
CONTINUOUS
  0
LAYER
  2
BLUE3
  70
0
  62
171
  6
CONTINUOUS
  0
LAYER
  2
GREEN3
  70
0
  62
91
  6
CONTINUOUS
  0
LAYER
  2
CYAN3
  70
0
  62
131
  6
CONTINUOUS
  0
LAYER
  2
RED3
  70
0
  62
11
  6
CONTINUOUS
  0
LAYER
  2
MAGENTA3
  70
0
  62
221
  6
CONTINUOUS
  0
LAYER
  2
YELLOW3
  70
0
  62
2
  6
CONTINUOUS
  0
LAYER
  2
BLUE4
  70
0
  62
5
  6
CONTINUOUS
  0
LAYER
  2
GREEN4
  70
0
  62
3
  6
CONTINUOUS
  0
LAYER
  2
CYAN4
  70
0
  62
4
  6
CONTINUOUS
  0
LAYER
  2
RED4
  70
0
  62
1
  6
CONTINUOUS
  0
LAYER
  2
MAGENTA4
  70
0
  62
6
  6
CONTINUOUS
  0
LAYER
  2
YELLOW4
  70
0
  62
2
  6
CONTINUOUS
  0
ENDTAB
  0
ENDSEC
  0
SECTION
  2
ENTITIES
0
LINE
8
Black
10
50.9337
20
-88.8964
11
51.4469
21
-89.1927
0
LINE
8
Black
10
51.4469
20
-89.1927
11
51.8279
21
-89.6468
0
LINE
8
Black
10
51.8279
20
-89.6468
11
52.0306
21
-90.2037
0
LINE
8
Black
10
52.0306
20
-90.2037
11
52.0306
21
-90.7963
0
LINE
8
Black
10
52.0306
20
-90.7963
11
51.8279
21
-91.3532
0
LINE
8
Black
10
51.8279
20
-91.3532
11
51.4469
21
-91.8072
0
LINE
8
Black
10
51.4469
20
-91.8072
11
50.9337
21
-92.1036
0
LINE
8
Black
10
50.9337
20
-92.1036
11
50.35
21
-92.2065
0
LINE
8
Black
10
50.35
20
-92.2065
11
49.7663
21
-92.1036
0
LINE
8
Black
10
49.7663
20
-92.1036
11
49.2531
21
-91.8072
0
LINE
8
Black
10
49.2531
20
-91.8072
11
48.8721
21
-91.3532
0
LINE
8
Black
10
48.8721
20
-91.3532
11
48.6694
21
-90.7963
0
LINE
8
Black
10
48.6694
20
-90.7963
11
48.6694
21
-90.2037
0
LINE
8
Black
10
48.6694
20
-90.2037
11
48.8721
21
-89.6468
0
LINE
8
Black
10
48.8721
20
-89.6468
11
49.2531
21
-89.1927
0
LINE
8
Black
10
49.2531
20
-89.1927
11
49.7663
21
-88.8964
0
LINE
8
Black
10
49.7663
20
-88.8964
11
50.35
21
-88.7935
0
LINE
8
Black
10
50.35
20
-88.7935
11
50.9337
21
-88.8964
0
LINE
8
Black
10
38.4337
20
-88.8964
11
38.9469
21
-89.1927
0
LINE
8
Black
10
38.9469
20
-89.1927
11
39.3279
21
-89.6468
0
LINE
8
Black
10
39.3279
20
-89.6468
11
39.5306
21
-90.2037
0
LINE
8
Black
10
39.5306
20
-90.2037
11
39.5306
21
-90.7963
0
LINE
8
Black
10
39.5306
20
-90.7963
11
39.3279
21
-91.3532
0
LINE
8
Black
10
39.3279
20
-91.3532
11
38.9469
21
-91.8072
0
LINE
8
Black
10
38.9469
20
-91.8072
11
38.4337
21
-92.1036
0
LINE
8
Black
10
38.4337
20
-92.1036
11
37.85
21
-92.2065
0
LINE
8
Black
10
37.85
20
-92.2065
11
37.2663
21
-92.1036
0
LINE
8
Black
10
37.2663
20
-92.1036
11
36.7531
21
-91.8072
0
LINE
8
Black
10
36.7531
20
-91.8072
11
36.3721
21
-91.3532
0
LINE
8
Black
10
36.3721
20
-91.3532
11
36.1694
21
-90.7963
0
LINE
8
Black
10
36.1694
20
-90.7963
11
36.1694
21
-90.2037
0
LINE
8
Black
10
36.1694
20
-90.2037
11
36.3721
21
-89.6468
0
LINE
8
Black
10
36.3721
20
-89.6468
11
36.7531
21
-89.1927
0
LINE
8
Black
10
36.7531
20
-89.1927
11
37.2663
21
-88.8964
0
LINE
8
Black
10
37.2663
20
-88.8964
11
37.85
21
-88.7935
0
LINE
8
Black
10
37.85
20
-88.7935
11
38.4337
21
-88.8964
0
LINE
8
Black
10
25.9337
20
-88.8964
11
26.4469
21
-89.1927
0
LINE
8
Black
10
26.4469
20
-89.1927
11
26.8279
21
-89.6468
0
LINE
8
Black
10
26.8279
20
-89.6468
11
27.0306
21
-90.2037
0
LINE
8
Black
10
27.0306
20
-90.2037
11
27.0306
21
-90.7963
0
LINE
8
Black
10
27.0306
20
-90.7963
11
26.8279
21
-91.3532
0
LINE
8
Black
10
26.8279
20
-91.3532
11
26.4469
21
-91.8072
0
LINE
8
Black
10
26.4469
20
-91.8072
11
25.9337
21
-92.1036
0
LINE
8
Black
10
25.9337
20
-92.1036
11
25.35
21
-92.2065
0
LINE
8
Black
10
25.35
20
-92.2065
11
24.7663
21
-92.1036
0
LINE
8
Black
10
24.7663
20
-92.1036
11
24.2531
21
-91.8072
0
LINE
8
Black
10
24.2531
20
-91.8072
11
23.8721
21
-91.3532
0
LINE
8
Black
10
23.8721
20
-91.3532
11
23.6694
21
-90.7963
0
LINE
8
Black
10
23.6694
20
-90.7963
11
23.6694
21
-90.2037
0
LINE
8
Black
10
23.6694
20
-90.2037
11
23.8721
21
-89.6468
0
LINE
8
Black
10
23.8721
20
-89.6468
11
24.2531
21
-89.1927
0
LINE
8
Black
10
24.2531
20
-89.1927
11
24.7663
21
-88.8964
0
LINE
8
Black
10
24.7663
20
-88.8964
11
25.35
21
-88.7935
0
LINE
8
Black
10
25.35
20
-88.7935
11
25.9337
21
-88.8964
0
LINE
8
Black
10
13.4337
20
-88.8964
11
13.9469
21
-89.1927
0
LINE
8
Black
10
13.9469
20
-89.1927
11
14.3279
21
-89.6468
0
LINE
8
Black
10
14.3279
20
-89.6468
11
14.5306
21
-90.2037
0
LINE
8
Black
10
14.5306
20
-90.2037
11
14.5306
21
-90.7963
0
LINE
8
Black
10
14.5306
20
-90.7963
11
14.3279
21
-91.3532
0
LINE
8
Black
10
14.3279
20
-91.3532
11
13.9469
21
-91.8072
0
LINE
8
Black
10
13.9469
20
-91.8072
11
13.4337
21
-92.1036
0
LINE
8
Black
10
13.4337
20
-92.1036
11
12.85
21
-92.2065
0
LINE
8
Black
10
12.85
20
-92.2065
11
12.2663
21
-92.1036
0
LINE
8
Black
10
12.2663
20
-92.1036
11
11.7531
21
-91.8072
0
LINE
8
Black
10
11.7531
20
-91.8072
11
11.3721
21
-91.3532
0
LINE
8
Black
10
11.3721
20
-91.3532
11
11.1694
21
-90.7963
0
LINE
8
Black
10
11.1694
20
-90.7963
11
11.1694
21
-90.2037
0
LINE
8
Black
10
11.1694
20
-90.2037
11
11.3721
21
-89.6468
0
LINE
8
Black
10
11.3721
20
-89.6468
11
11.7531
21
-89.1927
0
LINE
8
Black
10
11.7531
20
-89.1927
11
12.2663
21
-88.8964
0
LINE
8
Black
10
12.2663
20
-88.8964
11
12.85
21
-88.7935
0
LINE
8
Black
10
12.85
20
-88.7935
11
13.4337
21
-88.8964
0
LINE
8
Black
10
58.7747
20
-89.7454
11
59.0162
21
-89.8848
0
LINE
8
Black
10
59.0162
20
-89.8848
11
59.1955
21
-90.0985
0
LINE
8
Black
10
59.1955
20
-90.0985
11
59.2909
21
-90.3606
0
LINE
8
Black
10
59.2909
20
-90.3606
11
59.2909
21
-90.6394
0
LINE
8
Black
10
59.2909
20
-90.6394
11
59.1955
21
-90.9015
0
LINE
8
Black
10
59.1955
20
-90.9015
11
59.0162
21
-91.1152
0
LINE
8
Black
10
59.0162
20
-91.1152
11
58.7747
21
-91.2546
0
LINE
8
Black
10
58.7747
20
-91.2546
11
58.5
21
-91.3031
0
LINE
8
Black
10
58.5
20
-91.3031
11
58.2253
21
-91.2546
0
LINE
8
Black
10
58.2253
20
-91.2546
11
57.9838
21
-91.1152
0
LINE
8
Black
10
57.9838
20
-91.1152
11
57.8045
21
-90.9015
0
LINE
8
Black
10
57.8045
20
-90.9015
11
57.7091
21
-90.6394
0
LINE
8
Black
10
57.7091
20
-90.6394
11
57.7091
21
-90.3606
0
LINE
8
Black
10
57.7091
20
-90.3606
11
57.8045
21
-90.0985
0
LINE
8
Black
10
57.8045
20
-90.0985
11
57.9838
21
-89.8848
0
LINE
8
Black
10
57.9838
20
-89.8848
11
58.2253
21
-89.7454
0
LINE
8
Black
10
58.2253
20
-89.7454
11
58.5
21
-89.6969
0
LINE
8
Black
10
58.5
20
-89.6969
11
58.7747
21
-89.7454
0
LINE
8
Black
10
61.8
20
-90
11
60.4
21
-90
0
LINE
8
Black
10
60.4
20
-90
11
60.4
21
-88.8
0
LINE
8
Black
10
60.4
20
-88.8
11
61.8
21
-88.8
0
LINE
8
Black
10
61.8
20
-88.8
11
61.8
21
-90
0
LINE
8
Black
10
63.4
20
-90
11
62
21
-90
0
LINE
8
Black
10
62
20
-90
11
62
21
-88.8
0
LINE
8
Black
10
62
20
-88.8
11
63.4
21
-88.8
0
LINE
8
Black
10
63.4
20
-88.8
11
63.4
21
-90
0
LINE
8
Black
10
69.016
20
-89.016
11
66.584
21
-89.016
0
LINE
8
Black
10
66.584
20
-89.016
11
66.584
21
-86.584
0
LINE
8
Black
10
66.584
20
-86.584
11
69.016
21
-86.584
0
LINE
8
Black
10
69.016
20
-86.584
11
69.016
21
-89.016
0
LINE
8
Black
10
65.868
20
-86.7423
11
66.1915
21
-87.0137
0
LINE
8
Black
10
66.1915
20
-87.0137
11
66.4027
21
-87.3795
0
LINE
8
Black
10
66.4027
20
-87.3795
11
66.476
21
-87.7954
0
LINE
8
Black
10
66.476
20
-87.7954
11
66.476
21
-87.8046
0
LINE
8
Black
10
66.476
20
-87.8046
11
66.4027
21
-88.2205
0
LINE
8
Black
10
66.4027
20
-88.2205
11
66.1915
21
-88.5863
0
LINE
8
Black
10
66.1915
20
-88.5863
11
65.868
21
-88.8577
0
LINE
8
Black
10
65.868
20
-88.8577
11
65.4712
21
-89.0022
0
LINE
8
Black
10
65.4712
20
-89.0022
11
65.0488
21
-89.0022
0
LINE
8
Black
10
65.0488
20
-89.0022
11
64.652
21
-88.8577
0
LINE
8
Black
10
64.652
20
-88.8577
11
64.3285
21
-88.5863
0
LINE
8
Black
10
64.3285
20
-88.5863
11
64.1173
21
-88.2205
0
LINE
8
Black
10
64.1173
20
-88.2205
11
64.044
21
-87.8046
0
LINE
8
Black
10
64.044
20
-87.8046
11
64.044
21
-87.7954
0
LINE
8
Black
10
64.044
20
-87.7954
11
64.1173
21
-87.3795
0
LINE
8
Black
10
64.1173
20
-87.3795
11
64.3285
21
-87.0137
0
LINE
8
Black
10
64.3285
20
-87.0137
11
64.652
21
-86.7423
0
LINE
8
Black
10
64.652
20
-86.7423
11
65.0488
21
-86.5978
0
LINE
8
Black
10
65.0488
20
-86.5978
11
65.4712
21
-86.5978
0
LINE
8
Black
10
65.4712
20
-86.5978
11
65.868
21
-86.7423
0
LINE
8
Black
10
58.7747
20
-87.2454
11
59.0162
21
-87.3848
0
LINE
8
Black
10
59.0162
20
-87.3848
11
59.1955
21
-87.5985
0
LINE
8
Black
10
59.1955
20
-87.5985
11
59.2909
21
-87.8606
0
LINE
8
Black
10
59.2909
20
-87.8606
11
59.2909
21
-88.1394
0
LINE
8
Black
10
59.2909
20
-88.1394
11
59.1955
21
-88.4015
0
LINE
8
Black
10
59.1955
20
-88.4015
11
59.0162
21
-88.6152
0
LINE
8
Black
10
59.0162
20
-88.6152
11
58.7747
21
-88.7546
0
LINE
8
Black
10
58.7747
20
-88.7546
11
58.5
21
-88.8031
0
LINE
8
Black
10
58.5
20
-88.8031
11
58.2253
21
-88.7546
0
LINE
8
Black
10
58.2253
20
-88.7546
11
57.9838
21
-88.6152
0
LINE
8
Black
10
57.9838
20
-88.6152
11
57.8045
21
-88.4015
0
LINE
8
Black
10
57.8045
20
-88.4015
11
57.7091
21
-88.1394
0
LINE
8
Black
10
57.7091
20
-88.1394
11
57.7091
21
-87.8606
0
LINE
8
Black
10
57.7091
20
-87.8606
11
57.8045
21
-87.5985
0
LINE
8
Black
10
57.8045
20
-87.5985
11
57.9838
21
-87.3848
0
LINE
8
Black
10
57.9838
20
-87.3848
11
58.2253
21
-87.2454
0
LINE
8
Black
10
58.2253
20
-87.2454
11
58.5
21
-87.1969
0
LINE
8
Black
10
58.5
20
-87.1969
11
58.7747
21
-87.2454
0
LINE
8
Black
10
63.4
20
-88.2
11
62
21
-88.2
0
LINE
8
Black
10
62
20
-88.2
11
62
21
-87
0
LINE
8
Black
10
62
20
-87
11
63.4
21
-87
0
LINE
8
Black
10
63.4
20
-87
11
63.4
21
-88.2
0
LINE
8
Black
10
61.8
20
-88.2
11
60.4
21
-88.2
0
LINE
8
Black
10
60.4
20
-88.2
11
60.4
21
-87
0
LINE
8
Black
10
60.4
20
-87
11
61.8
21
-87
0
LINE
8
Black
10
61.8
20
-87
11
61.8
21
-88.2
0
LINE
8
Black
10
12.075
20
-82.6717
11
12.3277
21
-82.8838
0
LINE
8
Black
10
12.3277
20
-82.8838
11
12.4927
21
-83.1695
0
LINE
8
Black
10
12.4927
20
-83.1695
11
12.55
21
-83.4945
0
LINE
8
Black
10
12.55
20
-83.4945
11
12.55
21
-84.5055
0
LINE
8
Black
10
12.55
20
-84.5055
11
12.4927
21
-84.8305
0
LINE
8
Black
10
12.4927
20
-84.8305
11
12.3277
21
-85.1162
0
LINE
8
Black
10
12.3277
20
-85.1162
11
12.075
21
-85.3283
0
LINE
8
Black
10
12.075
20
-85.3283
11
11.765
21
-85.4411
0
LINE
8
Black
10
11.765
20
-85.4411
11
11.435
21
-85.4411
0
LINE
8
Black
10
11.435
20
-85.4411
11
11.125
21
-85.3283
0
LINE
8
Black
10
11.125
20
-85.3283
11
10.8723
21
-85.1162
0
LINE
8
Black
10
10.8723
20
-85.1162
11
10.7073
21
-84.8305
0
LINE
8
Black
10
10.7073
20
-84.8305
11
10.65
21
-84.5055
0
LINE
8
Black
10
10.65
20
-84.5055
11
10.65
21
-83.4945
0
LINE
8
Black
10
10.65
20
-83.4945
11
10.7073
21
-83.1695
0
LINE
8
Black
10
10.7073
20
-83.1695
11
10.8723
21
-82.8838
0
LINE
8
Black
10
10.8723
20
-82.8838
11
11.125
21
-82.6717
0
LINE
8
Black
10
11.125
20
-82.6717
11
11.435
21
-82.5589
0
LINE
8
Black
10
11.435
20
-82.5589
11
11.765
21
-82.5589
0
LINE
8
Black
10
11.765
20
-82.5589
11
12.075
21
-82.6717
0
LINE
8
Black
10
14.575
20
-82.6717
11
14.8277
21
-82.8838
0
LINE
8
Black
10
14.8277
20
-82.8838
11
14.9927
21
-83.1695
0
LINE
8
Black
10
14.9927
20
-83.1695
11
15.05
21
-83.4945
0
LINE
8
Black
10
15.05
20
-83.4945
11
15.05
21
-84.5055
0
LINE
8
Black
10
15.05
20
-84.5055
11
14.9927
21
-84.8305
0
LINE
8
Black
10
14.9927
20
-84.8305
11
14.8277
21
-85.1162
0
LINE
8
Black
10
14.8277
20
-85.1162
11
14.575
21
-85.3283
0
LINE
8
Black
10
14.575
20
-85.3283
11
14.265
21
-85.4411
0
LINE
8
Black
10
14.265
20
-85.4411
11
13.935
21
-85.4411
0
LINE
8
Black
10
13.935
20
-85.4411
11
13.625
21
-85.3283
0
LINE
8
Black
10
13.625
20
-85.3283
11
13.3723
21
-85.1162
0
LINE
8
Black
10
13.3723
20
-85.1162
11
13.2073
21
-84.8305
0
LINE
8
Black
10
13.2073
20
-84.8305
11
13.15
21
-84.5055
0
LINE
8
Black
10
13.15
20
-84.5055
11
13.15
21
-83.4945
0
LINE
8
Black
10
13.15
20
-83.4945
11
13.2073
21
-83.1695
0
LINE
8
Black
10
13.2073
20
-83.1695
11
13.3723
21
-82.8838
0
LINE
8
Black
10
13.3723
20
-82.8838
11
13.625
21
-82.6717
0
LINE
8
Black
10
13.625
20
-82.6717
11
13.935
21
-82.5589
0
LINE
8
Black
10
13.935
20
-82.5589
11
14.265
21
-82.5589
0
LINE
8
Black
10
14.265
20
-82.5589
11
14.575
21
-82.6717
0
LINE
8
Black
10
17.075
20
-82.6717
11
17.3277
21
-82.8838
0
LINE
8
Black
10
17.3277
20
-82.8838
11
17.4927
21
-83.1695
0
LINE
8
Black
10
17.4927
20
-83.1695
11
17.55
21
-83.4945
0
LINE
8
Black
10
17.55
20
-83.4945
11
17.55
21
-84.5055
0
LINE
8
Black
10
17.55
20
-84.5055
11
17.4927
21
-84.8305
0
LINE
8
Black
10
17.4927
20
-84.8305
11
17.3277
21
-85.1162
0
LINE
8
Black
10
17.3277
20
-85.1162
11
17.075
21
-85.3283
0
LINE
8
Black
10
17.075
20
-85.3283
11
16.765
21
-85.4411
0
LINE
8
Black
10
16.765
20
-85.4411
11
16.435
21
-85.4411
0
LINE
8
Black
10
16.435
20
-85.4411
11
16.125
21
-85.3283
0
LINE
8
Black
10
16.125
20
-85.3283
11
15.8723
21
-85.1162
0
LINE
8
Black
10
15.8723
20
-85.1162
11
15.7073
21
-84.8305
0
LINE
8
Black
10
15.7073
20
-84.8305
11
15.65
21
-84.5055
0
LINE
8
Black
10
15.65
20
-84.5055
11
15.65
21
-83.4945
0
LINE
8
Black
10
15.65
20
-83.4945
11
15.7073
21
-83.1695
0
LINE
8
Black
10
15.7073
20
-83.1695
11
15.8723
21
-82.8838
0
LINE
8
Black
10
15.8723
20
-82.8838
11
16.125
21
-82.6717
0
LINE
8
Black
10
16.125
20
-82.6717
11
16.435
21
-82.5589
0
LINE
8
Black
10
16.435
20
-82.5589
11
16.765
21
-82.5589
0
LINE
8
Black
10
16.765
20
-82.5589
11
17.075
21
-82.6717
0
LINE
8
Black
10
47.075
20
-82.6717
11
47.3277
21
-82.8838
0
LINE
8
Black
10
47.3277
20
-82.8838
11
47.4927
21
-83.1695
0
LINE
8
Black
10
47.4927
20
-83.1695
11
47.55
21
-83.4945
0
LINE
8
Black
10
47.55
20
-83.4945
11
47.55
21
-84.5055
0
LINE
8
Black
10
47.55
20
-84.5055
11
47.4927
21
-84.8305
0
LINE
8
Black
10
47.4927
20
-84.8305
11
47.3277
21
-85.1162
0
LINE
8
Black
10
47.3277
20
-85.1162
11
47.075
21
-85.3283
0
LINE
8
Black
10
47.075
20
-85.3283
11
46.765
21
-85.4411
0
LINE
8
Black
10
46.765
20
-85.4411
11
46.435
21
-85.4411
0
LINE
8
Black
10
46.435
20
-85.4411
11
46.125
21
-85.3283
0
LINE
8
Black
10
46.125
20
-85.3283
11
45.8723
21
-85.1162
0
LINE
8
Black
10
45.8723
20
-85.1162
11
45.7073
21
-84.8305
0
LINE
8
Black
10
45.7073
20
-84.8305
11
45.65
21
-84.5055
0
LINE
8
Black
10
45.65
20
-84.5055
11
45.65
21
-83.4945
0
LINE
8
Black
10
45.65
20
-83.4945
11
45.7073
21
-83.1695
0
LINE
8
Black
10
45.7073
20
-83.1695
11
45.8723
21
-82.8838
0
LINE
8
Black
10
45.8723
20
-82.8838
11
46.125
21
-82.6717
0
LINE
8
Black
10
46.125
20
-82.6717
11
46.435
21
-82.5589
0
LINE
8
Black
10
46.435
20
-82.5589
11
46.765
21
-82.5589
0
LINE
8
Black
10
46.765
20
-82.5589
11
47.075
21
-82.6717
0
LINE
8
Black
10
49.575
20
-82.6717
11
49.8277
21
-82.8838
0
LINE
8
Black
10
49.8277
20
-82.8838
11
49.9927
21
-83.1695
0
LINE
8
Black
10
49.9927
20
-83.1695
11
50.05
21
-83.4945
0
LINE
8
Black
10
50.05
20
-83.4945
11
50.05
21
-84.5055
0
LINE
8
Black
10
50.05
20
-84.5055
11
49.9927
21
-84.8305
0
LINE
8
Black
10
49.9927
20
-84.8305
11
49.8277
21
-85.1162
0
LINE
8
Black
10
49.8277
20
-85.1162
11
49.575
21
-85.3283
0
LINE
8
Black
10
49.575
20
-85.3283
11
49.265
21
-85.4411
0
LINE
8
Black
10
49.265
20
-85.4411
11
48.935
21
-85.4411
0
LINE
8
Black
10
48.935
20
-85.4411
11
48.625
21
-85.3283
0
LINE
8
Black
10
48.625
20
-85.3283
11
48.3723
21
-85.1162
0
LINE
8
Black
10
48.3723
20
-85.1162
11
48.2073
21
-84.8305
0
LINE
8
Black
10
48.2073
20
-84.8305
11
48.15
21
-84.5055
0
LINE
8
Black
10
48.15
20
-84.5055
11
48.15
21
-83.4945
0
LINE
8
Black
10
48.15
20
-83.4945
11
48.2073
21
-83.1695
0
LINE
8
Black
10
48.2073
20
-83.1695
11
48.3723
21
-82.8838
0
LINE
8
Black
10
48.3723
20
-82.8838
11
48.625
21
-82.6717
0
LINE
8
Black
10
48.625
20
-82.6717
11
48.935
21
-82.5589
0
LINE
8
Black
10
48.935
20
-82.5589
11
49.265
21
-82.5589
0
LINE
8
Black
10
49.265
20
-82.5589
11
49.575
21
-82.6717
0
LINE
8
Black
10
52.075
20
-82.6717
11
52.3277
21
-82.8838
0
LINE
8
Black
10
52.3277
20
-82.8838
11
52.4927
21
-83.1695
0
LINE
8
Black
10
52.4927
20
-83.1695
11
52.55
21
-83.4945
0
LINE
8
Black
10
52.55
20
-83.4945
11
52.55
21
-84.5055
0
LINE
8
Black
10
52.55
20
-84.5055
11
52.4927
21
-84.8305
0
LINE
8
Black
10
52.4927
20
-84.8305
11
52.3277
21
-85.1162
0
LINE
8
Black
10
52.3277
20
-85.1162
11
52.075
21
-85.3283
0
LINE
8
Black
10
52.075
20
-85.3283
11
51.765
21
-85.4411
0
LINE
8
Black
10
51.765
20
-85.4411
11
51.435
21
-85.4411
0
LINE
8
Black
10
51.435
20
-85.4411
11
51.125
21
-85.3283
0
LINE
8
Black
10
51.125
20
-85.3283
11
50.8723
21
-85.1162
0
LINE
8
Black
10
50.8723
20
-85.1162
11
50.7073
21
-84.8305
0
LINE
8
Black
10
50.7073
20
-84.8305
11
50.65
21
-84.5055
0
LINE
8
Black
10
50.65
20
-84.5055
11
50.65
21
-83.4945
0
LINE
8
Black
10
50.65
20
-83.4945
11
50.7073
21
-83.1695
0
LINE
8
Black
10
50.7073
20
-83.1695
11
50.8723
21
-82.8838
0
LINE
8
Black
10
50.8723
20
-82.8838
11
51.125
21
-82.6717
0
LINE
8
Black
10
51.125
20
-82.6717
11
51.435
21
-82.5589
0
LINE
8
Black
10
51.435
20
-82.5589
11
51.765
21
-82.5589
0
LINE
8
Black
10
51.765
20
-82.5589
11
52.075
21
-82.6717
0
LINE
8
Black
10
9.575
20
-82.6717
11
9.82774
21
-82.8838
0
LINE
8
Black
10
9.82774
20
-82.8838
11
9.99271
21
-83.1695
0
LINE
8
Black
10
9.99271
20
-83.1695
11
10.05
21
-83.4945
0
LINE
8
Black
10
10.05
20
-83.4945
11
10.05
21
-84.5055
0
LINE
8
Black
10
10.05
20
-84.5055
11
9.99271
21
-84.8305
0
LINE
8
Black
10
9.99271
20
-84.8305
11
9.82774
21
-85.1162
0
LINE
8
Black
10
9.82774
20
-85.1162
11
9.575
21
-85.3283
0
LINE
8
Black
10
9.575
20
-85.3283
11
9.26497
21
-85.4411
0
LINE
8
Black
10
9.26497
20
-85.4411
11
8.93503
21
-85.4411
0
LINE
8
Black
10
8.93503
20
-85.4411
11
8.625
21
-85.3283
0
LINE
8
Black
10
8.625
20
-85.3283
11
8.37226
21
-85.1162
0
LINE
8
Black
10
8.37226
20
-85.1162
11
8.20729
21
-84.8305
0
LINE
8
Black
10
8.20729
20
-84.8305
11
8.15
21
-84.5055
0
LINE
8
Black
10
8.15
20
-84.5055
11
8.15
21
-83.4945
0
LINE
8
Black
10
8.15
20
-83.4945
11
8.20729
21
-83.1695
0
LINE
8
Black
10
8.20729
20
-83.1695
11
8.37226
21
-82.8838
0
LINE
8
Black
10
8.37226
20
-82.8838
11
8.625
21
-82.6717
0
LINE
8
Black
10
8.625
20
-82.6717
11
8.93503
21
-82.5589
0
LINE
8
Black
10
8.93503
20
-82.5589
11
9.26497
21
-82.5589
0
LINE
8
Black
10
9.26497
20
-82.5589
11
9.575
21
-82.6717
0
LINE
8
Black
10
42.075
20
-82.6717
11
42.3277
21
-82.8838
0
LINE
8
Black
10
42.3277
20
-82.8838
11
42.4927
21
-83.1695
0
LINE
8
Black
10
42.4927
20
-83.1695
11
42.55
21
-83.4945
0
LINE
8
Black
10
42.55
20
-83.4945
11
42.55
21
-84.5055
0
LINE
8
Black
10
42.55
20
-84.5055
11
42.4927
21
-84.8305
0
LINE
8
Black
10
42.4927
20
-84.8305
11
42.3277
21
-85.1162
0
LINE
8
Black
10
42.3277
20
-85.1162
11
42.075
21
-85.3283
0
LINE
8
Black
10
42.075
20
-85.3283
11
41.765
21
-85.4411
0
LINE
8
Black
10
41.765
20
-85.4411
11
41.435
21
-85.4411
0
LINE
8
Black
10
41.435
20
-85.4411
11
41.125
21
-85.3283
0
LINE
8
Black
10
41.125
20
-85.3283
11
40.8723
21
-85.1162
0
LINE
8
Black
10
40.8723
20
-85.1162
11
40.7073
21
-84.8305
0
LINE
8
Black
10
40.7073
20
-84.8305
11
40.65
21
-84.5055
0
LINE
8
Black
10
40.65
20
-84.5055
11
40.65
21
-83.4945
0
LINE
8
Black
10
40.65
20
-83.4945
11
40.7073
21
-83.1695
0
LINE
8
Black
10
40.7073
20
-83.1695
11
40.8723
21
-82.8838
0
LINE
8
Black
10
40.8723
20
-82.8838
11
41.125
21
-82.6717
0
LINE
8
Black
10
41.125
20
-82.6717
11
41.435
21
-82.5589
0
LINE
8
Black
10
41.435
20
-82.5589
11
41.765
21
-82.5589
0
LINE
8
Black
10
41.765
20
-82.5589
11
42.075
21
-82.6717
0
LINE
8
Black
10
39.575
20
-82.6717
11
39.8277
21
-82.8838
0
LINE
8
Black
10
39.8277
20
-82.8838
11
39.9927
21
-83.1695
0
LINE
8
Black
10
39.9927
20
-83.1695
11
40.05
21
-83.4945
0
LINE
8
Black
10
40.05
20
-83.4945
11
40.05
21
-84.5055
0
LINE
8
Black
10
40.05
20
-84.5055
11
39.9927
21
-84.8305
0
LINE
8
Black
10
39.9927
20
-84.8305
11
39.8277
21
-85.1162
0
LINE
8
Black
10
39.8277
20
-85.1162
11
39.575
21
-85.3283
0
LINE
8
Black
10
39.575
20
-85.3283
11
39.265
21
-85.4411
0
LINE
8
Black
10
39.265
20
-85.4411
11
38.935
21
-85.4411
0
LINE
8
Black
10
38.935
20
-85.4411
11
38.625
21
-85.3283
0
LINE
8
Black
10
38.625
20
-85.3283
11
38.3723
21
-85.1162
0
LINE
8
Black
10
38.3723
20
-85.1162
11
38.2073
21
-84.8305
0
LINE
8
Black
10
38.2073
20
-84.8305
11
38.15
21
-84.5055
0
LINE
8
Black
10
38.15
20
-84.5055
11
38.15
21
-83.4945
0
LINE
8
Black
10
38.15
20
-83.4945
11
38.2073
21
-83.1695
0
LINE
8
Black
10
38.2073
20
-83.1695
11
38.3723
21
-82.8838
0
LINE
8
Black
10
38.3723
20
-82.8838
11
38.625
21
-82.6717
0
LINE
8
Black
10
38.625
20
-82.6717
11
38.935
21
-82.5589
0
LINE
8
Black
10
38.935
20
-82.5589
11
39.265
21
-82.5589
0
LINE
8
Black
10
39.265
20
-82.5589
11
39.575
21
-82.6717
0
LINE
8
Black
10
37.075
20
-82.6717
11
37.3277
21
-82.8838
0
LINE
8
Black
10
37.3277
20
-82.8838
11
37.4927
21
-83.1695
0
LINE
8
Black
10
37.4927
20
-83.1695
11
37.55
21
-83.4945
0
LINE
8
Black
10
37.55
20
-83.4945
11
37.55
21
-84.5055
0
LINE
8
Black
10
37.55
20
-84.5055
11
37.4927
21
-84.8305
0
LINE
8
Black
10
37.4927
20
-84.8305
11
37.3277
21
-85.1162
0
LINE
8
Black
10
37.3277
20
-85.1162
11
37.075
21
-85.3283
0
LINE
8
Black
10
37.075
20
-85.3283
11
36.765
21
-85.4411
0
LINE
8
Black
10
36.765
20
-85.4411
11
36.435
21
-85.4411
0
LINE
8
Black
10
36.435
20
-85.4411
11
36.125
21
-85.3283
0
LINE
8
Black
10
36.125
20
-85.3283
11
35.8723
21
-85.1162
0
LINE
8
Black
10
35.8723
20
-85.1162
11
35.7073
21
-84.8305
0
LINE
8
Black
10
35.7073
20
-84.8305
11
35.65
21
-84.5055
0
LINE
8
Black
10
35.65
20
-84.5055
11
35.65
21
-83.4945
0
LINE
8
Black
10
35.65
20
-83.4945
11
35.7073
21
-83.1695
0
LINE
8
Black
10
35.7073
20
-83.1695
11
35.8723
21
-82.8838
0
LINE
8
Black
10
35.8723
20
-82.8838
11
36.125
21
-82.6717
0
LINE
8
Black
10
36.125
20
-82.6717
11
36.435
21
-82.5589
0
LINE
8
Black
10
36.435
20
-82.5589
11
36.765
21
-82.5589
0
LINE
8
Black
10
36.765
20
-82.5589
11
37.075
21
-82.6717
0
LINE
8
Black
10
34.575
20
-82.6717
11
34.8277
21
-82.8838
0
LINE
8
Black
10
34.8277
20
-82.8838
11
34.9927
21
-83.1695
0
LINE
8
Black
10
34.9927
20
-83.1695
11
35.05
21
-83.4945
0
LINE
8
Black
10
35.05
20
-83.4945
11
35.05
21
-84.5055
0
LINE
8
Black
10
35.05
20
-84.5055
11
34.9927
21
-84.8305
0
LINE
8
Black
10
34.9927
20
-84.8305
11
34.8277
21
-85.1162
0
LINE
8
Black
10
34.8277
20
-85.1162
11
34.575
21
-85.3283
0
LINE
8
Black
10
34.575
20
-85.3283
11
34.265
21
-85.4411
0
LINE
8
Black
10
34.265
20
-85.4411
11
33.935
21
-85.4411
0
LINE
8
Black
10
33.935
20
-85.4411
11
33.625
21
-85.3283
0
LINE
8
Black
10
33.625
20
-85.3283
11
33.3723
21
-85.1162
0
LINE
8
Black
10
33.3723
20
-85.1162
11
33.2073
21
-84.8305
0
LINE
8
Black
10
33.2073
20
-84.8305
11
33.15
21
-84.5055
0
LINE
8
Black
10
33.15
20
-84.5055
11
33.15
21
-83.4945
0
LINE
8
Black
10
33.15
20
-83.4945
11
33.2073
21
-83.1695
0
LINE
8
Black
10
33.2073
20
-83.1695
11
33.3723
21
-82.8838
0
LINE
8
Black
10
33.3723
20
-82.8838
11
33.625
21
-82.6717
0
LINE
8
Black
10
33.625
20
-82.6717
11
33.935
21
-82.5589
0
LINE
8
Black
10
33.935
20
-82.5589
11
34.265
21
-82.5589
0
LINE
8
Black
10
34.265
20
-82.5589
11
34.575
21
-82.6717
0
LINE
8
Black
10
29.575
20
-82.6717
11
29.8277
21
-82.8838
0
LINE
8
Black
10
29.8277
20
-82.8838
11
29.9927
21
-83.1695
0
LINE
8
Black
10
29.9927
20
-83.1695
11
30.05
21
-83.4945
0
LINE
8
Black
10
30.05
20
-83.4945
11
30.05
21
-84.5055
0
LINE
8
Black
10
30.05
20
-84.5055
11
29.9927
21
-84.8305
0
LINE
8
Black
10
29.9927
20
-84.8305
11
29.8277
21
-85.1162
0
LINE
8
Black
10
29.8277
20
-85.1162
11
29.575
21
-85.3283
0
LINE
8
Black
10
29.575
20
-85.3283
11
29.265
21
-85.4411
0
LINE
8
Black
10
29.265
20
-85.4411
11
28.935
21
-85.4411
0
LINE
8
Black
10
28.935
20
-85.4411
11
28.625
21
-85.3283
0
LINE
8
Black
10
28.625
20
-85.3283
11
28.3723
21
-85.1162
0
LINE
8
Black
10
28.3723
20
-85.1162
11
28.2073
21
-84.8305
0
LINE
8
Black
10
28.2073
20
-84.8305
11
28.15
21
-84.5055
0
LINE
8
Black
10
28.15
20
-84.5055
11
28.15
21
-83.4945
0
LINE
8
Black
10
28.15
20
-83.4945
11
28.2073
21
-83.1695
0
LINE
8
Black
10
28.2073
20
-83.1695
11
28.3723
21
-82.8838
0
LINE
8
Black
10
28.3723
20
-82.8838
11
28.625
21
-82.6717
0
LINE
8
Black
10
28.625
20
-82.6717
11
28.935
21
-82.5589
0
LINE
8
Black
10
28.935
20
-82.5589
11
29.265
21
-82.5589
0
LINE
8
Black
10
29.265
20
-82.5589
11
29.575
21
-82.6717
0
LINE
8
Black
10
27.075
20
-82.6717
11
27.3277
21
-82.8838
0
LINE
8
Black
10
27.3277
20
-82.8838
11
27.4927
21
-83.1695
0
LINE
8
Black
10
27.4927
20
-83.1695
11
27.55
21
-83.4945
0
LINE
8
Black
10
27.55
20
-83.4945
11
27.55
21
-84.5055
0
LINE
8
Black
10
27.55
20
-84.5055
11
27.4927
21
-84.8305
0
LINE
8
Black
10
27.4927
20
-84.8305
11
27.3277
21
-85.1162
0
LINE
8
Black
10
27.3277
20
-85.1162
11
27.075
21
-85.3283
0
LINE
8
Black
10
27.075
20
-85.3283
11
26.765
21
-85.4411
0
LINE
8
Black
10
26.765
20
-85.4411
11
26.435
21
-85.4411
0
LINE
8
Black
10
26.435
20
-85.4411
11
26.125
21
-85.3283
0
LINE
8
Black
10
26.125
20
-85.3283
11
25.8723
21
-85.1162
0
LINE
8
Black
10
25.8723
20
-85.1162
11
25.7073
21
-84.8305
0
LINE
8
Black
10
25.7073
20
-84.8305
11
25.65
21
-84.5055
0
LINE
8
Black
10
25.65
20
-84.5055
11
25.65
21
-83.4945
0
LINE
8
Black
10
25.65
20
-83.4945
11
25.7073
21
-83.1695
0
LINE
8
Black
10
25.7073
20
-83.1695
11
25.8723
21
-82.8838
0
LINE
8
Black
10
25.8723
20
-82.8838
11
26.125
21
-82.6717
0
LINE
8
Black
10
26.125
20
-82.6717
11
26.435
21
-82.5589
0
LINE
8
Black
10
26.435
20
-82.5589
11
26.765
21
-82.5589
0
LINE
8
Black
10
26.765
20
-82.5589
11
27.075
21
-82.6717
0
LINE
8
Black
10
24.575
20
-82.6717
11
24.8277
21
-82.8838
0
LINE
8
Black
10
24.8277
20
-82.8838
11
24.9927
21
-83.1695
0
LINE
8
Black
10
24.9927
20
-83.1695
11
25.05
21
-83.4945
0
LINE
8
Black
10
25.05
20
-83.4945
11
25.05
21
-84.5055
0
LINE
8
Black
10
25.05
20
-84.5055
11
24.9927
21
-84.8305
0
LINE
8
Black
10
24.9927
20
-84.8305
11
24.8277
21
-85.1162
0
LINE
8
Black
10
24.8277
20
-85.1162
11
24.575
21
-85.3283
0
LINE
8
Black
10
24.575
20
-85.3283
11
24.265
21
-85.4411
0
LINE
8
Black
10
24.265
20
-85.4411
11
23.935
21
-85.4411
0
LINE
8
Black
10
23.935
20
-85.4411
11
23.625
21
-85.3283
0
LINE
8
Black
10
23.625
20
-85.3283
11
23.3723
21
-85.1162
0
LINE
8
Black
10
23.3723
20
-85.1162
11
23.2073
21
-84.8305
0
LINE
8
Black
10
23.2073
20
-84.8305
11
23.15
21
-84.5055
0
LINE
8
Black
10
23.15
20
-84.5055
11
23.15
21
-83.4945
0
LINE
8
Black
10
23.15
20
-83.4945
11
23.2073
21
-83.1695
0
LINE
8
Black
10
23.2073
20
-83.1695
11
23.3723
21
-82.8838
0
LINE
8
Black
10
23.3723
20
-82.8838
11
23.625
21
-82.6717
0
LINE
8
Black
10
23.625
20
-82.6717
11
23.935
21
-82.5589
0
LINE
8
Black
10
23.935
20
-82.5589
11
24.265
21
-82.5589
0
LINE
8
Black
10
24.265
20
-82.5589
11
24.575
21
-82.6717
0
LINE
8
Black
10
22.075
20
-82.6717
11
22.3277
21
-82.8838
0
LINE
8
Black
10
22.3277
20
-82.8838
11
22.4927
21
-83.1695
0
LINE
8
Black
10
22.4927
20
-83.1695
11
22.55
21
-83.4945
0
LINE
8
Black
10
22.55
20
-83.4945
11
22.55
21
-84.5055
0
LINE
8
Black
10
22.55
20
-84.5055
11
22.4927
21
-84.8305
0
LINE
8
Black
10
22.4927
20
-84.8305
11
22.3277
21
-85.1162
0
LINE
8
Black
10
22.3277
20
-85.1162
11
22.075
21
-85.3283
0
LINE
8
Black
10
22.075
20
-85.3283
11
21.765
21
-85.4411
0
LINE
8
Black
10
21.765
20
-85.4411
11
21.435
21
-85.4411
0
LINE
8
Black
10
21.435
20
-85.4411
11
21.125
21
-85.3283
0
LINE
8
Black
10
21.125
20
-85.3283
11
20.8723
21
-85.1162
0
LINE
8
Black
10
20.8723
20
-85.1162
11
20.7073
21
-84.8305
0
LINE
8
Black
10
20.7073
20
-84.8305
11
20.65
21
-84.5055
0
LINE
8
Black
10
20.65
20
-84.5055
11
20.65
21
-83.4945
0
LINE
8
Black
10
20.65
20
-83.4945
11
20.7073
21
-83.1695
0
LINE
8
Black
10
20.7073
20
-83.1695
11
20.8723
21
-82.8838
0
LINE
8
Black
10
20.8723
20
-82.8838
11
21.125
21
-82.6717
0
LINE
8
Black
10
21.125
20
-82.6717
11
21.435
21
-82.5589
0
LINE
8
Black
10
21.435
20
-82.5589
11
21.765
21
-82.5589
0
LINE
8
Black
10
21.765
20
-82.5589
11
22.075
21
-82.6717
0
LINE
8
Black
10
54.575
20
-82.6717
11
54.8277
21
-82.8838
0
LINE
8
Black
10
54.8277
20
-82.8838
11
54.9927
21
-83.1695
0
LINE
8
Black
10
54.9927
20
-83.1695
11
55.05
21
-83.4945
0
LINE
8
Black
10
55.05
20
-83.4945
11
55.05
21
-84.5055
0
LINE
8
Black
10
55.05
20
-84.5055
11
54.9927
21
-84.8305
0
LINE
8
Black
10
54.9927
20
-84.8305
11
54.8277
21
-85.1162
0
LINE
8
Black
10
54.8277
20
-85.1162
11
54.575
21
-85.3283
0
LINE
8
Black
10
54.575
20
-85.3283
11
54.265
21
-85.4411
0
LINE
8
Black
10
54.265
20
-85.4411
11
53.935
21
-85.4411
0
LINE
8
Black
10
53.935
20
-85.4411
11
53.625
21
-85.3283
0
LINE
8
Black
10
53.625
20
-85.3283
11
53.3723
21
-85.1162
0
LINE
8
Black
10
53.3723
20
-85.1162
11
53.2073
21
-84.8305
0
LINE
8
Black
10
53.2073
20
-84.8305
11
53.15
21
-84.5055
0
LINE
8
Black
10
53.15
20
-84.5055
11
53.15
21
-83.4945
0
LINE
8
Black
10
53.15
20
-83.4945
11
53.2073
21
-83.1695
0
LINE
8
Black
10
53.2073
20
-83.1695
11
53.3723
21
-82.8838
0
LINE
8
Black
10
53.3723
20
-82.8838
11
53.625
21
-82.6717
0
LINE
8
Black
10
53.625
20
-82.6717
11
53.935
21
-82.5589
0
LINE
8
Black
10
53.935
20
-82.5589
11
54.265
21
-82.5589
0
LINE
8
Black
10
54.265
20
-82.5589
11
54.575
21
-82.6717
0
LINE
8
Black
10
67.8305
20
-82.6073
11
68.1162
21
-82.7723
0
LINE
8
Black
10
68.1162
20
-82.7723
11
68.3283
21
-83.025
0
LINE
8
Black
10
68.3283
20
-83.025
11
68.4411
21
-83.335
0
LINE
8
Black
10
68.4411
20
-83.335
11
68.4411
21
-83.665
0
LINE
8
Black
10
68.4411
20
-83.665
11
68.3283
21
-83.975
0
LINE
8
Black
10
68.3283
20
-83.975
11
68.1162
21
-84.2277
0
LINE
8
Black
10
68.1162
20
-84.2277
11
67.8305
21
-84.3927
0
LINE
8
Black
10
67.8305
20
-84.3927
11
67.5055
21
-84.45
0
LINE
8
Black
10
67.5055
20
-84.45
11
66.4945
21
-84.45
0
LINE
8
Black
10
66.4945
20
-84.45
11
66.1695
21
-84.3927
0
LINE
8
Black
10
66.1695
20
-84.3927
11
65.8838
21
-84.2277
0
LINE
8
Black
10
65.8838
20
-84.2277
11
65.6717
21
-83.975
0
LINE
8
Black
10
65.6717
20
-83.975
11
65.5589
21
-83.665
0
LINE
8
Black
10
65.5589
20
-83.665
11
65.5589
21
-83.335
0
LINE
8
Black
10
65.5589
20
-83.335
11
65.6717
21
-83.025
0
LINE
8
Black
10
65.6717
20
-83.025
11
65.8838
21
-82.7723
0
LINE
8
Black
10
65.8838
20
-82.7723
11
66.1695
21
-82.6073
0
LINE
8
Black
10
66.1695
20
-82.6073
11
66.4945
21
-82.55
0
LINE
8
Black
10
66.4945
20
-82.55
11
67.5055
21
-82.55
0
LINE
8
Black
10
67.5055
20
-82.55
11
67.8305
21
-82.6073
0
LINE
8
Black
10
61.7918
20
-82.6982
11
62.0485
21
-82.8464
0
LINE
8
Black
10
62.0485
20
-82.8464
11
62.2389
21
-83.0734
0
LINE
8
Black
10
62.2389
20
-83.0734
11
62.3403
21
-83.3518
0
LINE
8
Black
10
62.3403
20
-83.3518
11
62.3403
21
-83.6482
0
LINE
8
Black
10
62.3403
20
-83.6482
11
62.2389
21
-83.9266
0
LINE
8
Black
10
62.2389
20
-83.9266
11
62.0485
21
-84.1536
0
LINE
8
Black
10
62.0485
20
-84.1536
11
61.7918
21
-84.3018
0
LINE
8
Black
10
61.7918
20
-84.3018
11
61.5
21
-84.3532
0
LINE
8
Black
10
61.5
20
-84.3532
11
61.2082
21
-84.3018
0
LINE
8
Black
10
61.2082
20
-84.3018
11
60.9515
21
-84.1536
0
LINE
8
Black
10
60.9515
20
-84.1536
11
60.7611
21
-83.9266
0
LINE
8
Black
10
60.7611
20
-83.9266
11
60.6597
21
-83.6482
0
LINE
8
Black
10
60.6597
20
-83.6482
11
60.6597
21
-83.3518
0
LINE
8
Black
10
60.6597
20
-83.3518
11
60.7611
21
-83.0734
0
LINE
8
Black
10
60.7611
20
-83.0734
11
60.9515
21
-82.8464
0
LINE
8
Black
10
60.9515
20
-82.8464
11
61.2082
21
-82.6982
0
LINE
8
Black
10
61.2082
20
-82.6982
11
61.5
21
-82.6468
0
LINE
8
Black
10
61.5
20
-82.6468
11
61.7918
21
-82.6982
0
LINE
8
Black
10
59.85
20
-84.35
11
58.15
21
-84.35
0
LINE
8
Black
10
58.15
20
-84.35
11
58.15
21
-82.65
0
LINE
8
Black
10
58.15
20
-82.65
11
59.85
21
-82.65
0
LINE
8
Black
10
59.85
20
-82.65
11
59.85
21
-84.35
0
LINE
8
Black
10
67.8305
20
-80.1073
11
68.1162
21
-80.2723
0
LINE
8
Black
10
68.1162
20
-80.2723
11
68.3283
21
-80.525
0
LINE
8
Black
10
68.3283
20
-80.525
11
68.4411
21
-80.835
0
LINE
8
Black
10
68.4411
20
-80.835
11
68.4411
21
-81.165
0
LINE
8
Black
10
68.4411
20
-81.165
11
68.3283
21
-81.475
0
LINE
8
Black
10
68.3283
20
-81.475
11
68.1162
21
-81.7277
0
LINE
8
Black
10
68.1162
20
-81.7277
11
67.8305
21
-81.8927
0
LINE
8
Black
10
67.8305
20
-81.8927
11
67.5055
21
-81.95
0
LINE
8
Black
10
67.5055
20
-81.95
11
66.4945
21
-81.95
0
LINE
8
Black
10
66.4945
20
-81.95
11
66.1695
21
-81.8927
0
LINE
8
Black
10
66.1695
20
-81.8927
11
65.8838
21
-81.7277
0
LINE
8
Black
10
65.8838
20
-81.7277
11
65.6717
21
-81.475
0
LINE
8
Black
10
65.6717
20
-81.475
11
65.5589
21
-81.165
0
LINE
8
Black
10
65.5589
20
-81.165
11
65.5589
21
-80.835
0
LINE
8
Black
10
65.5589
20
-80.835
11
65.6717
21
-80.525
0
LINE
8
Black
10
65.6717
20
-80.525
11
65.8838
21
-80.2723
0
LINE
8
Black
10
65.8838
20
-80.2723
11
66.1695
21
-80.1073
0
LINE
8
Black
10
66.1695
20
-80.1073
11
66.4945
21
-80.05
0
LINE
8
Black
10
66.4945
20
-80.05
11
67.5055
21
-80.05
0
LINE
8
Black
10
67.5055
20
-80.05
11
67.8305
21
-80.1073
0
LINE
8
Black
10
74.0837
20
-78.1464
11
74.5969
21
-78.4427
0
LINE
8
Black
10
74.5969
20
-78.4427
11
74.9779
21
-78.8968
0
LINE
8
Black
10
74.9779
20
-78.8968
11
75.1806
21
-79.4537
0
LINE
8
Black
10
75.1806
20
-79.4537
11
75.1806
21
-80.0463
0
LINE
8
Black
10
75.1806
20
-80.0463
11
74.9779
21
-80.6032
0
LINE
8
Black
10
74.9779
20
-80.6032
11
74.5969
21
-81.0572
0
LINE
8
Black
10
74.5969
20
-81.0572
11
74.0837
21
-81.3536
0
LINE
8
Black
10
74.0837
20
-81.3536
11
73.5
21
-81.4565
0
LINE
8
Black
10
73.5
20
-81.4565
11
72.9163
21
-81.3536
0
LINE
8
Black
10
72.9163
20
-81.3536
11
72.4031
21
-81.0572
0
LINE
8
Black
10
72.4031
20
-81.0572
11
72.0221
21
-80.6032
0
LINE
8
Black
10
72.0221
20
-80.6032
11
71.8194
21
-80.0463
0
LINE
8
Black
10
71.8194
20
-80.0463
11
71.8194
21
-79.4537
0
LINE
8
Black
10
71.8194
20
-79.4537
11
72.0221
21
-78.8968
0
LINE
8
Black
10
72.0221
20
-78.8968
11
72.4031
21
-78.4427
0
LINE
8
Black
10
72.4031
20
-78.4427
11
72.9163
21
-78.1464
0
LINE
8
Black
10
72.9163
20
-78.1464
11
73.5
21
-78.0435
0
LINE
8
Black
10
73.5
20
-78.0435
11
74.0837
21
-78.1464
0
LINE
8
Black
10
17.6556
20
-80.1657
11
16.6657
21
-81.1556
0
LINE
8
Black
10
16.6657
20
-81.1556
11
15.8172
21
-80.3071
0
LINE
8
Black
10
15.8172
20
-80.3071
11
16.8071
21
-79.3172
0
LINE
8
Black
10
16.8071
20
-79.3172
11
17.6556
21
-80.1657
0
LINE
8
Black
10
20.3355
20
-77.9142
11
18.2142
21
-80.0355
0
LINE
8
Black
10
18.2142
20
-80.0355
11
16.5172
21
-78.3385
0
LINE
8
Black
10
16.5172
20
-78.3385
11
18.6385
21
-76.2172
0
LINE
8
Black
10
18.6385
20
-76.2172
11
20.3355
21
-77.9142
0
LINE
8
Black
10
16.3828
20
-78.8929
11
15.3929
21
-79.8828
0
LINE
8
Black
10
15.3929
20
-79.8828
11
14.5444
21
-79.0343
0
LINE
8
Black
10
14.5444
20
-79.0343
11
15.5343
21
-78.0444
0
LINE
8
Black
10
15.5343
20
-78.0444
11
16.3828
21
-78.8929
0
LINE
8
Black
10
67.8305
20
-77.6073
11
68.1162
21
-77.7723
0
LINE
8
Black
10
68.1162
20
-77.7723
11
68.3283
21
-78.025
0
LINE
8
Black
10
68.3283
20
-78.025
11
68.4411
21
-78.335
0
LINE
8
Black
10
68.4411
20
-78.335
11
68.4411
21
-78.665
0
LINE
8
Black
10
68.4411
20
-78.665
11
68.3283
21
-78.975
0
LINE
8
Black
10
68.3283
20
-78.975
11
68.1162
21
-79.2277
0
LINE
8
Black
10
68.1162
20
-79.2277
11
67.8305
21
-79.3927
0
LINE
8
Black
10
67.8305
20
-79.3927
11
67.5055
21
-79.45
0
LINE
8
Black
10
67.5055
20
-79.45
11
66.4945
21
-79.45
0
LINE
8
Black
10
66.4945
20
-79.45
11
66.1695
21
-79.3927
0
LINE
8
Black
10
66.1695
20
-79.3927
11
65.8838
21
-79.2277
0
LINE
8
Black
10
65.8838
20
-79.2277
11
65.6717
21
-78.975
0
LINE
8
Black
10
65.6717
20
-78.975
11
65.5589
21
-78.665
0
LINE
8
Black
10
65.5589
20
-78.665
11
65.5589
21
-78.335
0
LINE
8
Black
10
65.5589
20
-78.335
11
65.6717
21
-78.025
0
LINE
8
Black
10
65.6717
20
-78.025
11
65.8838
21
-77.7723
0
LINE
8
Black
10
65.8838
20
-77.7723
11
66.1695
21
-77.6073
0
LINE
8
Black
10
66.1695
20
-77.6073
11
66.4945
21
-77.55
0
LINE
8
Black
10
66.4945
20
-77.55
11
67.5055
21
-77.55
0
LINE
8
Black
10
67.5055
20
-77.55
11
67.8305
21
-77.6073
0
LINE
8
Black
10
7.2
20
-79.4
11
5.8
21
-79.4
0
LINE
8
Black
10
5.8
20
-79.4
11
5.8
21
-78.2
0
LINE
8
Black
10
5.8
20
-78.2
11
7.2
21
-78.2
0
LINE
8
Black
10
7.2
20
-78.2
11
7.2
21
-79.4
0
LINE
8
Black
10
5.5
20
-79.4
11
4.1
21
-79.4
0
LINE
8
Black
10
4.1
20
-79.4
11
4.1
21
-78.2
0
LINE
8
Black
10
4.1
20
-78.2
11
5.5
21
-78.2
0
LINE
8
Black
10
5.5
20
-78.2
11
5.5
21
-79.4
0
LINE
8
Black
10
15.2556
20
-77.7657
11
14.2657
21
-78.7556
0
LINE
8
Black
10
14.2657
20
-78.7556
11
13.4172
21
-77.9071
0
LINE
8
Black
10
13.4172
20
-77.9071
11
14.4071
21
-76.9172
0
LINE
8
Black
10
14.4071
20
-76.9172
11
15.2556
21
-77.7657
0
LINE
8
Black
10
54.9
20
-78.4
11
52.7
21
-78.4
0
LINE
8
Black
10
52.7
20
-78.4
11
52.7
21
-76.4
0
LINE
8
Black
10
52.7
20
-76.4
11
54.9
21
-76.4
0
LINE
8
Black
10
54.9
20
-76.4
11
54.9
21
-78.4
0
LINE
8
Black
10
60.8
20
-77.9
11
58.6
21
-77.9
0
LINE
8
Black
10
58.6
20
-77.9
11
58.6
21
-75.9
0
LINE
8
Black
10
58.6
20
-75.9
11
60.8
21
-75.9
0
LINE
8
Black
10
60.8
20
-75.9
11
60.8
21
-77.9
0
LINE
8
Black
10
63.3
20
-77.9
11
61.1
21
-77.9
0
LINE
8
Black
10
61.1
20
-77.9
11
61.1
21
-75.9
0
LINE
8
Black
10
61.1
20
-75.9
11
63.3
21
-75.9
0
LINE
8
Black
10
63.3
20
-75.9
11
63.3
21
-77.9
0
LINE
8
Black
10
5.5
20
-77.6
11
4.1
21
-77.6
0
LINE
8
Black
10
4.1
20
-77.6
11
4.1
21
-76.4
0
LINE
8
Black
10
4.1
20
-76.4
11
5.5
21
-76.4
0
LINE
8
Black
10
5.5
20
-76.4
11
5.5
21
-77.6
0
LINE
8
Black
10
7.2
20
-77.6
11
5.8
21
-77.6
0
LINE
8
Black
10
5.8
20
-77.6
11
5.8
21
-76.4
0
LINE
8
Black
10
5.8
20
-76.4
11
7.2
21
-76.4
0
LINE
8
Black
10
7.2
20
-76.4
11
7.2
21
-77.6
0
LINE
8
Black
10
13.9828
20
-76.4929
11
12.9929
21
-77.4828
0
LINE
8
Black
10
12.9929
20
-77.4828
11
12.1444
21
-76.6343
0
LINE
8
Black
10
12.1444
20
-76.6343
11
13.1343
21
-75.6444
0
LINE
8
Black
10
13.1343
20
-75.6444
11
13.9828
21
-76.4929
0
LINE
8
Black
10
18.4
20
-72.7513
11
19.3508
21
-71.8005
0
LINE
8
Black
10
19.3508
20
-71.8005
11
19.7043
21
-72.1541
0
LINE
8
Black
10
19.7043
20
-72.1541
11
20.0579
21
-72.5076
0
LINE
8
Black
10
20.0579
20
-72.5076
11
20.4114
21
-72.8612
0
LINE
8
Black
10
20.4114
20
-72.8612
11
20.765
21
-73.2147
0
LINE
8
Black
10
20.765
20
-73.2147
11
21.1185
21
-73.5683
0
LINE
8
Black
10
21.1185
20
-73.5683
11
21.4721
21
-73.9218
0
LINE
8
Black
10
21.4721
20
-73.9218
11
21.8256
21
-74.2754
0
LINE
8
Black
10
21.8256
20
-74.2754
11
22.1792
21
-74.6289
0
LINE
8
Black
10
22.1792
20
-74.6289
11
22.5328
21
-74.9825
0
LINE
8
Black
10
22.5328
20
-74.9825
11
22.8863
21
-75.3361
0
LINE
8
Black
10
22.8863
20
-75.3361
11
23.2399
21
-75.6896
0
LINE
8
Black
10
23.2399
20
-75.6896
11
23.6995
21
-76.1492
0
LINE
8
Black
10
23.6995
20
-76.1492
11
22.4974
21
-77.3513
0
LINE
8
Black
10
22.4974
20
-77.3513
11
22.0378
21
-76.8917
0
LINE
8
Black
10
22.0378
20
-76.8917
11
21.6842
21
-76.5381
0
LINE
8
Black
10
21.6842
20
-76.5381
11
21.3307
21
-76.1846
0
LINE
8
Black
10
21.3307
20
-76.1846
11
20.9771
21
-75.831
0
LINE
8
Black
10
20.9771
20
-75.831
11
20.6236
21
-75.4775
0
LINE
8
Black
10
20.6236
20
-75.4775
11
20.27
21
-75.1239
0
LINE
8
Black
10
20.27
20
-75.1239
11
19.9165
21
-74.7704
0
LINE
8
Black
10
19.9165
20
-74.7704
11
19.5629
21
-74.4168
0
LINE
8
Black
10
19.5629
20
-74.4168
11
19.2094
21
-74.0633
0
LINE
8
Black
10
19.2094
20
-74.0633
11
18.8558
21
-73.7097
0
LINE
8
Black
10
18.8558
20
-73.7097
11
18.5022
21
-73.3562
0
LINE
8
Black
10
18.5022
20
-73.3562
11
18.1487
21
-73.0026
0
LINE
8
Black
10
18.1487
20
-73.0026
11
18.1513
21
-73
0
LINE
8
Black
10
18.1513
20
-73
11
17
21
-73
0
LINE
8
Black
10
17
20
-73
11
17
21
-71.8
0
LINE
8
Black
10
17
20
-71.8
11
18.4
21
-71.8
0
LINE
8
Black
10
18.4
20
-71.8
11
18.4
21
-72.7513
0
LINE
8
Black
10
31
20
-73
11
29.8487
21
-73
0
LINE
8
Black
10
29.8487
20
-73
11
29.8513
21
-73.0026
0
LINE
8
Black
10
29.8513
20
-73.0026
11
29.3917
21
-73.4622
0
LINE
8
Black
10
29.3917
20
-73.4622
11
29.0381
21
-73.8158
0
LINE
8
Black
10
29.0381
20
-73.8158
11
28.6846
21
-74.1693
0
LINE
8
Black
10
28.6846
20
-74.1693
11
28.331
21
-74.5229
0
LINE
8
Black
10
28.331
20
-74.5229
11
27.9775
21
-74.8764
0
LINE
8
Black
10
27.9775
20
-74.8764
11
27.6239
21
-75.23
0
LINE
8
Black
10
27.6239
20
-75.23
11
27.2704
21
-75.5835
0
LINE
8
Black
10
27.2704
20
-75.5835
11
26.9168
21
-75.9371
0
LINE
8
Black
10
26.9168
20
-75.9371
11
26.5633
21
-76.2906
0
LINE
8
Black
10
26.5633
20
-76.2906
11
26.2097
21
-76.6442
0
LINE
8
Black
10
26.2097
20
-76.6442
11
25.8562
21
-76.9978
0
LINE
8
Black
10
25.8562
20
-76.9978
11
25.5026
21
-77.3513
0
LINE
8
Black
10
25.5026
20
-77.3513
11
24.3005
21
-76.1492
0
LINE
8
Black
10
24.3005
20
-76.1492
11
24.7601
21
-75.6896
0
LINE
8
Black
10
24.7601
20
-75.6896
11
25.1137
21
-75.3361
0
LINE
8
Black
10
25.1137
20
-75.3361
11
25.4672
21
-74.9825
0
LINE
8
Black
10
25.4672
20
-74.9825
11
25.8208
21
-74.6289
0
LINE
8
Black
10
25.8208
20
-74.6289
11
26.1744
21
-74.2754
0
LINE
8
Black
10
26.1744
20
-74.2754
11
26.5279
21
-73.9218
0
LINE
8
Black
10
26.5279
20
-73.9218
11
26.8815
21
-73.5683
0
LINE
8
Black
10
26.8815
20
-73.5683
11
27.235
21
-73.2147
0
LINE
8
Black
10
27.235
20
-73.2147
11
27.5886
21
-72.8612
0
LINE
8
Black
10
27.5886
20
-72.8612
11
27.9421
21
-72.5076
0
LINE
8
Black
10
27.9421
20
-72.5076
11
28.2957
21
-72.1541
0
LINE
8
Black
10
28.2957
20
-72.1541
11
28.6492
21
-71.8005
0
LINE
8
Black
10
28.6492
20
-71.8005
11
29.6
21
-72.7513
0
LINE
8
Black
10
29.6
20
-72.7513
11
29.6
21
-71.8
0
LINE
8
Black
10
29.6
20
-71.8
11
31
21
-71.8
0
LINE
8
Black
10
31
20
-71.8
11
31
21
-73
0
LINE
8
Black
10
67.8305
20
-75.1073
11
68.1162
21
-75.2723
0
LINE
8
Black
10
68.1162
20
-75.2723
11
68.3283
21
-75.525
0
LINE
8
Black
10
68.3283
20
-75.525
11
68.4411
21
-75.835
0
LINE
8
Black
10
68.4411
20
-75.835
11
68.4411
21
-76.165
0
LINE
8
Black
10
68.4411
20
-76.165
11
68.3283
21
-76.475
0
LINE
8
Black
10
68.3283
20
-76.475
11
68.1162
21
-76.7277
0
LINE
8
Black
10
68.1162
20
-76.7277
11
67.8305
21
-76.8927
0
LINE
8
Black
10
67.8305
20
-76.8927
11
67.5055
21
-76.95
0
LINE
8
Black
10
67.5055
20
-76.95
11
66.4945
21
-76.95
0
LINE
8
Black
10
66.4945
20
-76.95
11
66.1695
21
-76.8927
0
LINE
8
Black
10
66.1695
20
-76.8927
11
65.8838
21
-76.7277
0
LINE
8
Black
10
65.8838
20
-76.7277
11
65.6717
21
-76.475
0
LINE
8
Black
10
65.6717
20
-76.475
11
65.5589
21
-76.165
0
LINE
8
Black
10
65.5589
20
-76.165
11
65.5589
21
-75.835
0
LINE
8
Black
10
65.5589
20
-75.835
11
65.6717
21
-75.525
0
LINE
8
Black
10
65.6717
20
-75.525
11
65.8838
21
-75.2723
0
LINE
8
Black
10
65.8838
20
-75.2723
11
66.1695
21
-75.1073
0
LINE
8
Black
10
66.1695
20
-75.1073
11
66.4945
21
-75.05
0
LINE
8
Black
10
66.4945
20
-75.05
11
67.5055
21
-75.05
0
LINE
8
Black
10
67.5055
20
-75.05
11
67.8305
21
-75.1073
0
LINE
8
Black
10
17.1536
20
-74.7322
11
15.0322
21
-76.8536
0
LINE
8
Black
10
15.0322
20
-76.8536
11
13.1938
21
-75.0151
0
LINE
8
Black
10
13.1938
20
-75.0151
11
15.3151
21
-72.8938
0
LINE
8
Black
10
15.3151
20
-72.8938
11
17.1536
21
-74.7322
0
LINE
8
Black
10
54.9
20
-75.2
11
52.7
21
-75.2
0
LINE
8
Black
10
52.7
20
-75.2
11
52.7
21
-73.2
0
LINE
8
Black
10
52.7
20
-73.2
11
54.9
21
-73.2
0
LINE
8
Black
10
54.9
20
-73.2
11
54.9
21
-75.2
0
LINE
8
Black
10
60.8
20
-74.7
11
58.6
21
-74.7
0
LINE
8
Black
10
58.6
20
-74.7
11
58.6
21
-72.7
0
LINE
8
Black
10
58.6
20
-72.7
11
60.8
21
-72.7
0
LINE
8
Black
10
60.8
20
-72.7
11
60.8
21
-74.7
0
LINE
8
Black
10
63.3
20
-74.7
11
61.1
21
-74.7
0
LINE
8
Black
10
61.1
20
-74.7
11
61.1
21
-72.7
0
LINE
8
Black
10
61.1
20
-72.7
11
63.3
21
-72.7
0
LINE
8
Black
10
63.3
20
-72.7
11
63.3
21
-74.7
0
LINE
8
Black
10
9.3
20
-74.45
11
6.3
21
-74.45
0
LINE
8
Black
10
6.3
20
-74.45
11
6.3
21
-72.55
0
LINE
8
Black
10
6.3
20
-72.55
11
9.3
21
-72.55
0
LINE
8
Black
10
9.3
20
-72.55
11
9.3
21
-74.45
0
LINE
8
Black
10
3.7
20
-74.45
11
0.7
21
-74.45
0
LINE
8
Black
10
0.7
20
-74.45
11
0.7
21
-72.55
0
LINE
8
Black
10
0.7
20
-72.55
11
3.7
21
-72.55
0
LINE
8
Black
10
3.7
20
-72.55
11
3.7
21
-74.45
0
LINE
8
Black
10
34.7051
20
-73.0422
11
34.9156
21
-73.1638
0
LINE
8
Black
10
34.9156
20
-73.1638
11
35.0719
21
-73.35
0
LINE
8
Black
10
35.0719
20
-73.35
11
35.155
21
-73.5784
0
LINE
8
Black
10
35.155
20
-73.5784
11
35.155
21
-73.8216
0
LINE
8
Black
10
35.155
20
-73.8216
11
35.0719
21
-74.05
0
LINE
8
Black
10
35.0719
20
-74.05
11
34.9156
21
-74.2362
0
LINE
8
Black
10
34.9156
20
-74.2362
11
34.7051
21
-74.3578
0
LINE
8
Black
10
34.7051
20
-74.3578
11
34.4657
21
-74.4
0
LINE
8
Black
10
34.4657
20
-74.4
11
33.9343
21
-74.4
0
LINE
8
Black
10
33.9343
20
-74.4
11
33.6949
21
-74.3578
0
LINE
8
Black
10
33.6949
20
-74.3578
11
33.4844
21
-74.2362
0
LINE
8
Black
10
33.4844
20
-74.2362
11
33.3281
21
-74.05
0
LINE
8
Black
10
33.3281
20
-74.05
11
33.245
21
-73.8216
0
LINE
8
Black
10
33.245
20
-73.8216
11
33.245
21
-73.5784
0
LINE
8
Black
10
33.245
20
-73.5784
11
33.3281
21
-73.35
0
LINE
8
Black
10
33.3281
20
-73.35
11
33.4844
21
-73.1638
0
LINE
8
Black
10
33.4844
20
-73.1638
11
33.6949
21
-73.0422
0
LINE
8
Black
10
33.6949
20
-73.0422
11
33.9343
21
-73
0
LINE
8
Black
10
33.9343
20
-73
11
34.4657
21
-73
0
LINE
8
Black
10
34.4657
20
-73
11
34.7051
21
-73.0422
0
LINE
8
Black
10
34.7051
20
-71.5422
11
34.9156
21
-71.6638
0
LINE
8
Black
10
34.9156
20
-71.6638
11
35.0719
21
-71.85
0
LINE
8
Black
10
35.0719
20
-71.85
11
35.155
21
-72.0784
0
LINE
8
Black
10
35.155
20
-72.0784
11
35.155
21
-72.3216
0
LINE
8
Black
10
35.155
20
-72.3216
11
35.0719
21
-72.55
0
LINE
8
Black
10
35.0719
20
-72.55
11
34.9156
21
-72.7362
0
LINE
8
Black
10
34.9156
20
-72.7362
11
34.7051
21
-72.8578
0
LINE
8
Black
10
34.7051
20
-72.8578
11
34.4657
21
-72.9
0
LINE
8
Black
10
34.4657
20
-72.9
11
33.9343
21
-72.9
0
LINE
8
Black
10
33.9343
20
-72.9
11
33.6949
21
-72.8578
0
LINE
8
Black
10
33.6949
20
-72.8578
11
33.4844
21
-72.7362
0
LINE
8
Black
10
33.4844
20
-72.7362
11
33.3281
21
-72.55
0
LINE
8
Black
10
33.3281
20
-72.55
11
33.245
21
-72.3216
0
LINE
8
Black
10
33.245
20
-72.3216
11
33.245
21
-72.0784
0
LINE
8
Black
10
33.245
20
-72.0784
11
33.3281
21
-71.85
0
LINE
8
Black
10
33.3281
20
-71.85
11
33.4844
21
-71.6638
0
LINE
8
Black
10
33.4844
20
-71.6638
11
33.6949
21
-71.5422
0
LINE
8
Black
10
33.6949
20
-71.5422
11
33.9343
21
-71.5
0
LINE
8
Black
10
33.9343
20
-71.5
11
34.4657
21
-71.5
0
LINE
8
Black
10
34.4657
20
-71.5
11
34.7051
21
-71.5422
0
LINE
8
Black
10
56.912
20
-70.4679
11
57.2743
21
-70.6771
0
LINE
8
Black
10
57.2743
20
-70.6771
11
57.5432
21
-70.9975
0
LINE
8
Black
10
57.5432
20
-70.9975
11
57.6863
21
-71.3907
0
LINE
8
Black
10
57.6863
20
-71.3907
11
57.6863
21
-71.809
0
LINE
8
Black
10
57.6863
20
-71.809
11
57.5432
21
-72.2021
0
LINE
8
Black
10
57.5432
20
-72.2021
11
57.2743
21
-72.5226
0
LINE
8
Black
10
57.2743
20
-72.5226
11
56.912
21
-72.7318
0
LINE
8
Black
10
56.912
20
-72.7318
11
56.5
21
-72.8044
0
LINE
8
Black
10
56.5
20
-72.8044
11
56.088
21
-72.7318
0
LINE
8
Black
10
56.088
20
-72.7318
11
55.7257
21
-72.5226
0
LINE
8
Black
10
55.7257
20
-72.5226
11
55.4568
21
-72.2021
0
LINE
8
Black
10
55.4568
20
-72.2021
11
55.3137
21
-71.809
0
LINE
8
Black
10
55.3137
20
-71.809
11
55.3137
21
-71.3907
0
LINE
8
Black
10
55.3137
20
-71.3907
11
55.4568
21
-70.9975
0
LINE
8
Black
10
55.4568
20
-70.9975
11
55.7257
21
-70.6771
0
LINE
8
Black
10
55.7257
20
-70.6771
11
56.088
21
-70.4679
0
LINE
8
Black
10
56.088
20
-70.4679
11
56.5
21
-70.3953
0
LINE
8
Black
10
56.5
20
-70.3953
11
56.912
21
-70.4679
0
LINE
8
Black
10
47.6703
20
-70.6026
11
47.9607
21
-70.7702
0
LINE
8
Black
10
47.9607
20
-70.7702
11
48.1763
21
-71.0272
0
LINE
8
Black
10
48.1763
20
-71.0272
11
48.291
21
-71.3423
0
LINE
8
Black
10
48.291
20
-71.3423
11
48.291
21
-71.6777
0
LINE
8
Black
10
48.291
20
-71.6777
11
48.1763
21
-71.9928
0
LINE
8
Black
10
48.1763
20
-71.9928
11
47.9607
21
-72.2497
0
LINE
8
Black
10
47.9607
20
-72.2497
11
47.6703
21
-72.4174
0
LINE
8
Black
10
47.6703
20
-72.4174
11
47.34
21
-72.4757
0
LINE
8
Black
10
47.34
20
-72.4757
11
47.0097
21
-72.4174
0
LINE
8
Black
10
47.0097
20
-72.4174
11
46.7193
21
-72.2497
0
LINE
8
Black
10
46.7193
20
-72.2497
11
46.5037
21
-71.9928
0
LINE
8
Black
10
46.5037
20
-71.9928
11
46.389
21
-71.6777
0
LINE
8
Black
10
46.389
20
-71.6777
11
46.389
21
-71.3423
0
LINE
8
Black
10
46.389
20
-71.3423
11
46.5037
21
-71.0272
0
LINE
8
Black
10
46.5037
20
-71.0272
11
46.7193
21
-70.7702
0
LINE
8
Black
10
46.7193
20
-70.7702
11
47.0097
21
-70.6026
0
LINE
8
Black
10
47.0097
20
-70.6026
11
47.34
21
-70.5443
0
LINE
8
Black
10
47.34
20
-70.5443
11
47.6703
21
-70.6026
0
LINE
8
Black
10
45.1303
20
-70.6026
11
45.4207
21
-70.7702
0
LINE
8
Black
10
45.4207
20
-70.7702
11
45.6363
21
-71.0272
0
LINE
8
Black
10
45.6363
20
-71.0272
11
45.751
21
-71.3423
0
LINE
8
Black
10
45.751
20
-71.3423
11
45.751
21
-71.6777
0
LINE
8
Black
10
45.751
20
-71.6777
11
45.6363
21
-71.9928
0
LINE
8
Black
10
45.6363
20
-71.9928
11
45.4207
21
-72.2497
0
LINE
8
Black
10
45.4207
20
-72.2497
11
45.1303
21
-72.4174
0
LINE
8
Black
10
45.1303
20
-72.4174
11
44.8
21
-72.4757
0
LINE
8
Black
10
44.8
20
-72.4757
11
44.4697
21
-72.4174
0
LINE
8
Black
10
44.4697
20
-72.4174
11
44.1793
21
-72.2497
0
LINE
8
Black
10
44.1793
20
-72.2497
11
43.9637
21
-71.9928
0
LINE
8
Black
10
43.9637
20
-71.9928
11
43.849
21
-71.6777
0
LINE
8
Black
10
43.849
20
-71.6777
11
43.849
21
-71.3423
0
LINE
8
Black
10
43.849
20
-71.3423
11
43.9637
21
-71.0272
0
LINE
8
Black
10
43.9637
20
-71.0272
11
44.1793
21
-70.7702
0
LINE
8
Black
10
44.1793
20
-70.7702
11
44.4697
21
-70.6026
0
LINE
8
Black
10
44.4697
20
-70.6026
11
44.8
21
-70.5443
0
LINE
8
Black
10
44.8
20
-70.5443
11
45.1303
21
-70.6026
0
LINE
8
Black
10
42.5903
20
-70.6026
11
42.8807
21
-70.7702
0
LINE
8
Black
10
42.8807
20
-70.7702
11
43.0963
21
-71.0272
0
LINE
8
Black
10
43.0963
20
-71.0272
11
43.211
21
-71.3423
0
LINE
8
Black
10
43.211
20
-71.3423
11
43.211
21
-71.6777
0
LINE
8
Black
10
43.211
20
-71.6777
11
43.0963
21
-71.9928
0
LINE
8
Black
10
43.0963
20
-71.9928
11
42.8807
21
-72.2497
0
LINE
8
Black
10
42.8807
20
-72.2497
11
42.5903
21
-72.4174
0
LINE
8
Black
10
42.5903
20
-72.4174
11
42.26
21
-72.4757
0
LINE
8
Black
10
42.26
20
-72.4757
11
41.9297
21
-72.4174
0
LINE
8
Black
10
41.9297
20
-72.4174
11
41.6393
21
-72.2497
0
LINE
8
Black
10
41.6393
20
-72.2497
11
41.4237
21
-71.9928
0
LINE
8
Black
10
41.4237
20
-71.9928
11
41.309
21
-71.6777
0
LINE
8
Black
10
41.309
20
-71.6777
11
41.309
21
-71.3423
0
LINE
8
Black
10
41.309
20
-71.3423
11
41.4237
21
-71.0272
0
LINE
8
Black
10
41.4237
20
-71.0272
11
41.6393
21
-70.7702
0
LINE
8
Black
10
41.6393
20
-70.7702
11
41.9297
21
-70.6026
0
LINE
8
Black
10
41.9297
20
-70.6026
11
42.26
21
-70.5443
0
LINE
8
Black
10
42.26
20
-70.5443
11
42.5903
21
-70.6026
0
LINE
8
Black
10
67.8305
20
-70.1073
11
68.1162
21
-70.2723
0
LINE
8
Black
10
68.1162
20
-70.2723
11
68.3283
21
-70.525
0
LINE
8
Black
10
68.3283
20
-70.525
11
68.4411
21
-70.835
0
LINE
8
Black
10
68.4411
20
-70.835
11
68.4411
21
-71.165
0
LINE
8
Black
10
68.4411
20
-71.165
11
68.3283
21
-71.475
0
LINE
8
Black
10
68.3283
20
-71.475
11
68.1162
21
-71.7277
0
LINE
8
Black
10
68.1162
20
-71.7277
11
67.8305
21
-71.8927
0
LINE
8
Black
10
67.8305
20
-71.8927
11
67.5055
21
-71.95
0
LINE
8
Black
10
67.5055
20
-71.95
11
66.4945
21
-71.95
0
LINE
8
Black
10
66.4945
20
-71.95
11
66.1695
21
-71.8927
0
LINE
8
Black
10
66.1695
20
-71.8927
11
65.8838
21
-71.7277
0
LINE
8
Black
10
65.8838
20
-71.7277
11
65.6717
21
-71.475
0
LINE
8
Black
10
65.6717
20
-71.475
11
65.5589
21
-71.165
0
LINE
8
Black
10
65.5589
20
-71.165
11
65.5589
21
-70.835
0
LINE
8
Black
10
65.5589
20
-70.835
11
65.6717
21
-70.525
0
LINE
8
Black
10
65.6717
20
-70.525
11
65.8838
21
-70.2723
0
LINE
8
Black
10
65.8838
20
-70.2723
11
66.1695
21
-70.1073
0
LINE
8
Black
10
66.1695
20
-70.1073
11
66.4945
21
-70.05
0
LINE
8
Black
10
66.4945
20
-70.05
11
67.5055
21
-70.05
0
LINE
8
Black
10
67.5055
20
-70.05
11
67.8305
21
-70.1073
0
LINE
8
Black
10
34.7051
20
-70.0422
11
34.9156
21
-70.1638
0
LINE
8
Black
10
34.9156
20
-70.1638
11
35.0719
21
-70.35
0
LINE
8
Black
10
35.0719
20
-70.35
11
35.155
21
-70.5784
0
LINE
8
Black
10
35.155
20
-70.5784
11
35.155
21
-70.8216
0
LINE
8
Black
10
35.155
20
-70.8216
11
35.0719
21
-71.05
0
LINE
8
Black
10
35.0719
20
-71.05
11
34.9156
21
-71.2362
0
LINE
8
Black
10
34.9156
20
-71.2362
11
34.7051
21
-71.3578
0
LINE
8
Black
10
34.7051
20
-71.3578
11
34.4657
21
-71.4
0
LINE
8
Black
10
34.4657
20
-71.4
11
33.9343
21
-71.4
0
LINE
8
Black
10
33.9343
20
-71.4
11
33.6949
21
-71.3578
0
LINE
8
Black
10
33.6949
20
-71.3578
11
33.4844
21
-71.2362
0
LINE
8
Black
10
33.4844
20
-71.2362
11
33.3281
21
-71.05
0
LINE
8
Black
10
33.3281
20
-71.05
11
33.245
21
-70.8216
0
LINE
8
Black
10
33.245
20
-70.8216
11
33.245
21
-70.5784
0
LINE
8
Black
10
33.245
20
-70.5784
11
33.3281
21
-70.35
0
LINE
8
Black
10
33.3281
20
-70.35
11
33.4844
21
-70.1638
0
LINE
8
Black
10
33.4844
20
-70.1638
11
33.6949
21
-70.0422
0
LINE
8
Black
10
33.6949
20
-70.0422
11
33.9343
21
-70
0
LINE
8
Black
10
33.9343
20
-70
11
34.4657
21
-70
0
LINE
8
Black
10
34.4657
20
-70
11
34.7051
21
-70.0422
0
LINE
8
Black
10
25.5
20
-65.6513
11
25.5026
21
-65.6487
0
LINE
8
Black
10
25.5026
20
-65.6487
11
25.8562
21
-66.0022
0
LINE
8
Black
10
25.8562
20
-66.0022
11
26.2097
21
-66.3558
0
LINE
8
Black
10
26.2097
20
-66.3558
11
26.5633
21
-66.7094
0
LINE
8
Black
10
26.5633
20
-66.7094
11
26.9168
21
-67.0629
0
LINE
8
Black
10
26.9168
20
-67.0629
11
27.2704
21
-67.4165
0
LINE
8
Black
10
27.2704
20
-67.4165
11
27.6239
21
-67.77
0
LINE
8
Black
10
27.6239
20
-67.77
11
27.9775
21
-68.1236
0
LINE
8
Black
10
27.9775
20
-68.1236
11
28.331
21
-68.4771
0
LINE
8
Black
10
28.331
20
-68.4771
11
28.6846
21
-68.8307
0
LINE
8
Black
10
28.6846
20
-68.8307
11
29.0381
21
-69.1842
0
LINE
8
Black
10
29.0381
20
-69.1842
11
29.3917
21
-69.5378
0
LINE
8
Black
10
29.3917
20
-69.5378
11
29.8513
21
-69.9974
0
LINE
8
Black
10
29.8513
20
-69.9974
11
29.8487
21
-70
0
LINE
8
Black
10
29.8487
20
-70
11
31
21
-70
0
LINE
8
Black
10
31
20
-70
11
31
21
-71.2
0
LINE
8
Black
10
31
20
-71.2
11
29.6
21
-71.2
0
LINE
8
Black
10
29.6
20
-71.2
11
29.6
21
-70.2487
0
LINE
8
Black
10
29.6
20
-70.2487
11
28.6492
21
-71.1995
0
LINE
8
Black
10
28.6492
20
-71.1995
11
28.1896
21
-70.7399
0
LINE
8
Black
10
28.1896
20
-70.7399
11
27.8361
21
-70.3863
0
LINE
8
Black
10
27.8361
20
-70.3863
11
27.4825
21
-70.0328
0
LINE
8
Black
10
27.4825
20
-70.0328
11
27.1289
21
-69.6792
0
LINE
8
Black
10
27.1289
20
-69.6792
11
26.7754
21
-69.3256
0
LINE
8
Black
10
26.7754
20
-69.3256
11
26.4218
21
-68.9721
0
LINE
8
Black
10
26.4218
20
-68.9721
11
26.0683
21
-68.6185
0
LINE
8
Black
10
26.0683
20
-68.6185
11
25.7147
21
-68.265
0
LINE
8
Black
10
25.7147
20
-68.265
11
25.3612
21
-67.9114
0
LINE
8
Black
10
25.3612
20
-67.9114
11
25.0076
21
-67.5579
0
LINE
8
Black
10
25.0076
20
-67.5579
11
24.6541
21
-67.2043
0
LINE
8
Black
10
24.6541
20
-67.2043
11
24.3005
21
-66.8508
0
LINE
8
Black
10
24.3005
20
-66.8508
11
25.2513
21
-65.9
0
LINE
8
Black
10
25.2513
20
-65.9
11
24.3
21
-65.9
0
LINE
8
Black
10
24.3
20
-65.9
11
24.3
21
-64.5
0
LINE
8
Black
10
24.3
20
-64.5
11
25.5
21
-64.5
0
LINE
8
Black
10
25.5
20
-64.5
11
25.5
21
-65.6513
0
LINE
8
Black
10
23.7
20
-65.9
11
22.7487
21
-65.9
0
LINE
8
Black
10
22.7487
20
-65.9
11
23.6995
21
-66.8508
0
LINE
8
Black
10
23.6995
20
-66.8508
11
23.2399
21
-67.3104
0
LINE
8
Black
10
23.2399
20
-67.3104
11
22.8863
21
-67.6639
0
LINE
8
Black
10
22.8863
20
-67.6639
11
22.5328
21
-68.0175
0
LINE
8
Black
10
22.5328
20
-68.0175
11
22.1792
21
-68.3711
0
LINE
8
Black
10
22.1792
20
-68.3711
11
21.8256
21
-68.7246
0
LINE
8
Black
10
21.8256
20
-68.7246
11
21.4721
21
-69.0782
0
LINE
8
Black
10
21.4721
20
-69.0782
11
21.1185
21
-69.4317
0
LINE
8
Black
10
21.1185
20
-69.4317
11
20.765
21
-69.7853
0
LINE
8
Black
10
20.765
20
-69.7853
11
20.4114
21
-70.1388
0
LINE
8
Black
10
20.4114
20
-70.1388
11
20.0579
21
-70.4924
0
LINE
8
Black
10
20.0579
20
-70.4924
11
19.7043
21
-70.8459
0
LINE
8
Black
10
19.7043
20
-70.8459
11
19.3508
21
-71.1995
0
LINE
8
Black
10
19.3508
20
-71.1995
11
18.4
21
-70.2487
0
LINE
8
Black
10
18.4
20
-70.2487
11
18.4
21
-71.2
0
LINE
8
Black
10
18.4
20
-71.2
11
17
21
-71.2
0
LINE
8
Black
10
17
20
-71.2
11
17
21
-70
0
LINE
8
Black
10
17
20
-70
11
18.1513
21
-70
0
LINE
8
Black
10
18.1513
20
-70
11
18.1487
21
-69.9974
0
LINE
8
Black
10
18.1487
20
-69.9974
11
18.6083
21
-69.5378
0
LINE
8
Black
10
18.6083
20
-69.5378
11
18.9619
21
-69.1842
0
LINE
8
Black
10
18.9619
20
-69.1842
11
19.3154
21
-68.8307
0
LINE
8
Black
10
19.3154
20
-68.8307
11
19.669
21
-68.4771
0
LINE
8
Black
10
19.669
20
-68.4771
11
20.0225
21
-68.1236
0
LINE
8
Black
10
20.0225
20
-68.1236
11
20.3761
21
-67.77
0
LINE
8
Black
10
20.3761
20
-67.77
11
20.7296
21
-67.4165
0
LINE
8
Black
10
20.7296
20
-67.4165
11
21.0832
21
-67.0629
0
LINE
8
Black
10
21.0832
20
-67.0629
11
21.4367
21
-66.7094
0
LINE
8
Black
10
21.4367
20
-66.7094
11
21.7903
21
-66.3558
0
LINE
8
Black
10
21.7903
20
-66.3558
11
22.1438
21
-66.0022
0
LINE
8
Black
10
22.1438
20
-66.0022
11
22.4974
21
-65.6487
0
LINE
8
Black
10
22.4974
20
-65.6487
11
22.5
21
-65.6513
0
LINE
8
Black
10
22.5
20
-65.6513
11
22.5
21
-64.5
0
LINE
8
Black
10
22.5
20
-64.5
11
23.7
21
-64.5
0
LINE
8
Black
10
23.7
20
-64.5
11
23.7
21
-65.9
0
LINE
8
Black
10
34.7051
20
-68.5422
11
34.9156
21
-68.6638
0
LINE
8
Black
10
34.9156
20
-68.6638
11
35.0719
21
-68.85
0
LINE
8
Black
10
35.0719
20
-68.85
11
35.155
21
-69.0784
0
LINE
8
Black
10
35.155
20
-69.0784
11
35.155
21
-69.3216
0
LINE
8
Black
10
35.155
20
-69.3216
11
35.0719
21
-69.55
0
LINE
8
Black
10
35.0719
20
-69.55
11
34.9156
21
-69.7362
0
LINE
8
Black
10
34.9156
20
-69.7362
11
34.7051
21
-69.8578
0
LINE
8
Black
10
34.7051
20
-69.8578
11
34.4657
21
-69.9
0
LINE
8
Black
10
34.4657
20
-69.9
11
33.9343
21
-69.9
0
LINE
8
Black
10
33.9343
20
-69.9
11
33.6949
21
-69.8578
0
LINE
8
Black
10
33.6949
20
-69.8578
11
33.4844
21
-69.7362
0
LINE
8
Black
10
33.4844
20
-69.7362
11
33.3281
21
-69.55
0
LINE
8
Black
10
33.3281
20
-69.55
11
33.245
21
-69.3216
0
LINE
8
Black
10
33.245
20
-69.3216
11
33.245
21
-69.0784
0
LINE
8
Black
10
33.245
20
-69.0784
11
33.3281
21
-68.85
0
LINE
8
Black
10
33.3281
20
-68.85
11
33.4844
21
-68.6638
0
LINE
8
Black
10
33.4844
20
-68.6638
11
33.6949
21
-68.5422
0
LINE
8
Black
10
33.6949
20
-68.5422
11
33.9343
21
-68.5
0
LINE
8
Black
10
33.9343
20
-68.5
11
34.4657
21
-68.5
0
LINE
8
Black
10
34.4657
20
-68.5
11
34.7051
21
-68.5422
0
LINE
8
Black
10
9.3
20
-69.45
11
6.3
21
-69.45
0
LINE
8
Black
10
6.3
20
-69.45
11
6.3
21
-67.55
0
LINE
8
Black
10
6.3
20
-67.55
11
9.3
21
-67.55
0
LINE
8
Black
10
9.3
20
-67.55
11
9.3
21
-69.45
0
LINE
8
Black
10
3.7
20
-69.45
11
0.7
21
-69.45
0
LINE
8
Black
10
0.7
20
-69.45
11
0.7
21
-67.55
0
LINE
8
Black
10
0.7
20
-67.55
11
3.7
21
-67.55
0
LINE
8
Black
10
3.7
20
-67.55
11
3.7
21
-69.45
0
LINE
8
Black
10
67.8305
20
-67.6073
11
68.1162
21
-67.7723
0
LINE
8
Black
10
68.1162
20
-67.7723
11
68.3283
21
-68.025
0
LINE
8
Black
10
68.3283
20
-68.025
11
68.4411
21
-68.335
0
LINE
8
Black
10
68.4411
20
-68.335
11
68.4411
21
-68.665
0
LINE
8
Black
10
68.4411
20
-68.665
11
68.3283
21
-68.975
0
LINE
8
Black
10
68.3283
20
-68.975
11
68.1162
21
-69.2277
0
LINE
8
Black
10
68.1162
20
-69.2277
11
67.8305
21
-69.3927
0
LINE
8
Black
10
67.8305
20
-69.3927
11
67.5055
21
-69.45
0
LINE
8
Black
10
67.5055
20
-69.45
11
66.4945
21
-69.45
0
LINE
8
Black
10
66.4945
20
-69.45
11
66.1695
21
-69.3927
0
LINE
8
Black
10
66.1695
20
-69.3927
11
65.8838
21
-69.2277
0
LINE
8
Black
10
65.8838
20
-69.2277
11
65.6717
21
-68.975
0
LINE
8
Black
10
65.6717
20
-68.975
11
65.5589
21
-68.665
0
LINE
8
Black
10
65.5589
20
-68.665
11
65.5589
21
-68.335
0
LINE
8
Black
10
65.5589
20
-68.335
11
65.6717
21
-68.025
0
LINE
8
Black
10
65.6717
20
-68.025
11
65.8838
21
-67.7723
0
LINE
8
Black
10
65.8838
20
-67.7723
11
66.1695
21
-67.6073
0
LINE
8
Black
10
66.1695
20
-67.6073
11
66.4945
21
-67.55
0
LINE
8
Black
10
66.4945
20
-67.55
11
67.5055
21
-67.55
0
LINE
8
Black
10
67.5055
20
-67.55
11
67.8305
21
-67.6073
0
LINE
8
Black
10
74.0837
20
-65.6464
11
74.5969
21
-65.9428
0
LINE
8
Black
10
74.5969
20
-65.9428
11
74.9779
21
-66.3968
0
LINE
8
Black
10
74.9779
20
-66.3968
11
75.1806
21
-66.9537
0
LINE
8
Black
10
75.1806
20
-66.9537
11
75.1806
21
-67.5463
0
LINE
8
Black
10
75.1806
20
-67.5463
11
74.9779
21
-68.1032
0
LINE
8
Black
10
74.9779
20
-68.1032
11
74.5969
21
-68.5572
0
LINE
8
Black
10
74.5969
20
-68.5572
11
74.0837
21
-68.8536
0
LINE
8
Black
10
74.0837
20
-68.8536
11
73.5
21
-68.9565
0
LINE
8
Black
10
73.5
20
-68.9565
11
72.9163
21
-68.8536
0
LINE
8
Black
10
72.9163
20
-68.8536
11
72.4031
21
-68.5572
0
LINE
8
Black
10
72.4031
20
-68.5572
11
72.0221
21
-68.1032
0
LINE
8
Black
10
72.0221
20
-68.1032
11
71.8194
21
-67.5463
0
LINE
8
Black
10
71.8194
20
-67.5463
11
71.8194
21
-66.9537
0
LINE
8
Black
10
71.8194
20
-66.9537
11
72.0221
21
-66.3968
0
LINE
8
Black
10
72.0221
20
-66.3968
11
72.4031
21
-65.9428
0
LINE
8
Black
10
72.4031
20
-65.9428
11
72.9163
21
-65.6464
0
LINE
8
Black
10
72.9163
20
-65.6464
11
73.5
21
-65.5435
0
LINE
8
Black
10
73.5
20
-65.5435
11
74.0837
21
-65.6464
0
LINE
8
Black
10
34.7051
20
-67.0422
11
34.9156
21
-67.1638
0
LINE
8
Black
10
34.9156
20
-67.1638
11
35.0719
21
-67.35
0
LINE
8
Black
10
35.0719
20
-67.35
11
35.155
21
-67.5784
0
LINE
8
Black
10
35.155
20
-67.5784
11
35.155
21
-67.8216
0
LINE
8
Black
10
35.155
20
-67.8216
11
35.0719
21
-68.05
0
LINE
8
Black
10
35.0719
20
-68.05
11
34.9156
21
-68.2362
0
LINE
8
Black
10
34.9156
20
-68.2362
11
34.7051
21
-68.3578
0
LINE
8
Black
10
34.7051
20
-68.3578
11
34.4657
21
-68.4
0
LINE
8
Black
10
34.4657
20
-68.4
11
33.9343
21
-68.4
0
LINE
8
Black
10
33.9343
20
-68.4
11
33.6949
21
-68.3578
0
LINE
8
Black
10
33.6949
20
-68.3578
11
33.4844
21
-68.2362
0
LINE
8
Black
10
33.4844
20
-68.2362
11
33.3281
21
-68.05
0
LINE
8
Black
10
33.3281
20
-68.05
11
33.245
21
-67.8216
0
LINE
8
Black
10
33.245
20
-67.8216
11
33.245
21
-67.5784
0
LINE
8
Black
10
33.245
20
-67.5784
11
33.3281
21
-67.35
0
LINE
8
Black
10
33.3281
20
-67.35
11
33.4844
21
-67.1638
0
LINE
8
Black
10
33.4844
20
-67.1638
11
33.6949
21
-67.0422
0
LINE
8
Black
10
33.6949
20
-67.0422
11
33.9343
21
-67
0
LINE
8
Black
10
33.9343
20
-67
11
34.4657
21
-67
0
LINE
8
Black
10
34.4657
20
-67
11
34.7051
21
-67.0422
0
LINE
8
Black
10
67.8305
20
-65.1073
11
68.1162
21
-65.2723
0
LINE
8
Black
10
68.1162
20
-65.2723
11
68.3283
21
-65.525
0
LINE
8
Black
10
68.3283
20
-65.525
11
68.4411
21
-65.835
0
LINE
8
Black
10
68.4411
20
-65.835
11
68.4411
21
-66.165
0
LINE
8
Black
10
68.4411
20
-66.165
11
68.3283
21
-66.475
0
LINE
8
Black
10
68.3283
20
-66.475
11
68.1162
21
-66.7277
0
LINE
8
Black
10
68.1162
20
-66.7277
11
67.8305
21
-66.8927
0
LINE
8
Black
10
67.8305
20
-66.8927
11
67.5055
21
-66.95
0
LINE
8
Black
10
67.5055
20
-66.95
11
66.4945
21
-66.95
0
LINE
8
Black
10
66.4945
20
-66.95
11
66.1695
21
-66.8927
0
LINE
8
Black
10
66.1695
20
-66.8927
11
65.8838
21
-66.7277
0
LINE
8
Black
10
65.8838
20
-66.7277
11
65.6717
21
-66.475
0
LINE
8
Black
10
65.6717
20
-66.475
11
65.5589
21
-66.165
0
LINE
8
Black
10
65.5589
20
-66.165
11
65.5589
21
-65.835
0
LINE
8
Black
10
65.5589
20
-65.835
11
65.6717
21
-65.525
0
LINE
8
Black
10
65.6717
20
-65.525
11
65.8838
21
-65.2723
0
LINE
8
Black
10
65.8838
20
-65.2723
11
66.1695
21
-65.1073
0
LINE
8
Black
10
66.1695
20
-65.1073
11
66.4945
21
-65.05
0
LINE
8
Black
10
66.4945
20
-65.05
11
67.5055
21
-65.05
0
LINE
8
Black
10
67.5055
20
-65.05
11
67.8305
21
-65.1073
0
LINE
8
Black
10
34.7051
20
-65.5422
11
34.9156
21
-65.6638
0
LINE
8
Black
10
34.9156
20
-65.6638
11
35.0719
21
-65.85
0
LINE
8
Black
10
35.0719
20
-65.85
11
35.155
21
-66.0784
0
LINE
8
Black
10
35.155
20
-66.0784
11
35.155
21
-66.3216
0
LINE
8
Black
10
35.155
20
-66.3216
11
35.0719
21
-66.55
0
LINE
8
Black
10
35.0719
20
-66.55
11
34.9156
21
-66.7362
0
LINE
8
Black
10
34.9156
20
-66.7362
11
34.7051
21
-66.8578
0
LINE
8
Black
10
34.7051
20
-66.8578
11
34.4657
21
-66.9
0
LINE
8
Black
10
34.4657
20
-66.9
11
33.9343
21
-66.9
0
LINE
8
Black
10
33.9343
20
-66.9
11
33.6949
21
-66.8578
0
LINE
8
Black
10
33.6949
20
-66.8578
11
33.4844
21
-66.7362
0
LINE
8
Black
10
33.4844
20
-66.7362
11
33.3281
21
-66.55
0
LINE
8
Black
10
33.3281
20
-66.55
11
33.245
21
-66.3216
0
LINE
8
Black
10
33.245
20
-66.3216
11
33.245
21
-66.0784
0
LINE
8
Black
10
33.245
20
-66.0784
11
33.3281
21
-65.85
0
LINE
8
Black
10
33.3281
20
-65.85
11
33.4844
21
-65.6638
0
LINE
8
Black
10
33.4844
20
-65.6638
11
33.6949
21
-65.5422
0
LINE
8
Black
10
33.6949
20
-65.5422
11
33.9343
21
-65.5
0
LINE
8
Black
10
33.9343
20
-65.5
11
34.4657
21
-65.5
0
LINE
8
Black
10
34.4657
20
-65.5
11
34.7051
21
-65.5422
0
LINE
8
Black
10
63.8
20
-66.5
11
62.4
21
-66.5
0
LINE
8
Black
10
62.4
20
-66.5
11
62.4
21
-65.3
0
LINE
8
Black
10
62.4
20
-65.3
11
63.8
21
-65.3
0
LINE
8
Black
10
63.8
20
-65.3
11
63.8
21
-66.5
0
LINE
8
Black
10
56.912
20
-62.8682
11
57.2743
21
-63.0774
0
LINE
8
Black
10
57.2743
20
-63.0774
11
57.5432
21
-63.3979
0
LINE
8
Black
10
57.5432
20
-63.3979
11
57.6863
21
-63.791
0
LINE
8
Black
10
57.6863
20
-63.791
11
57.6863
21
-64.2093
0
LINE
8
Black
10
57.6863
20
-64.2093
11
57.5432
21
-64.6025
0
LINE
8
Black
10
57.5432
20
-64.6025
11
57.2743
21
-64.9229
0
LINE
8
Black
10
57.2743
20
-64.9229
11
56.912
21
-65.1321
0
LINE
8
Black
10
56.912
20
-65.1321
11
56.5
21
-65.2047
0
LINE
8
Black
10
56.5
20
-65.2047
11
56.088
21
-65.1321
0
LINE
8
Black
10
56.088
20
-65.1321
11
55.7257
21
-64.9229
0
LINE
8
Black
10
55.7257
20
-64.9229
11
55.4568
21
-64.6025
0
LINE
8
Black
10
55.4568
20
-64.6025
11
55.3137
21
-64.2093
0
LINE
8
Black
10
55.3137
20
-64.2093
11
55.3137
21
-63.791
0
LINE
8
Black
10
55.3137
20
-63.791
11
55.4568
21
-63.3979
0
LINE
8
Black
10
55.4568
20
-63.3979
11
55.7257
21
-63.0774
0
LINE
8
Black
10
55.7257
20
-63.0774
11
56.088
21
-62.8682
0
LINE
8
Black
10
56.088
20
-62.8682
11
56.5
21
-62.7956
0
LINE
8
Black
10
56.5
20
-62.7956
11
56.912
21
-62.8682
0
LINE
8
Black
10
45.1303
20
-62.9826
11
45.4207
21
-63.1502
0
LINE
8
Black
10
45.4207
20
-63.1502
11
45.6363
21
-63.4072
0
LINE
8
Black
10
45.6363
20
-63.4072
11
45.751
21
-63.7223
0
LINE
8
Black
10
45.751
20
-63.7223
11
45.751
21
-64.0577
0
LINE
8
Black
10
45.751
20
-64.0577
11
45.6363
21
-64.3728
0
LINE
8
Black
10
45.6363
20
-64.3728
11
45.4207
21
-64.6298
0
LINE
8
Black
10
45.4207
20
-64.6298
11
45.1303
21
-64.7974
0
LINE
8
Black
10
45.1303
20
-64.7974
11
44.8
21
-64.8557
0
LINE
8
Black
10
44.8
20
-64.8557
11
44.4697
21
-64.7974
0
LINE
8
Black
10
44.4697
20
-64.7974
11
44.1793
21
-64.6298
0
LINE
8
Black
10
44.1793
20
-64.6298
11
43.9637
21
-64.3728
0
LINE
8
Black
10
43.9637
20
-64.3728
11
43.849
21
-64.0577
0
LINE
8
Black
10
43.849
20
-64.0577
11
43.849
21
-63.7223
0
LINE
8
Black
10
43.849
20
-63.7223
11
43.9637
21
-63.4072
0
LINE
8
Black
10
43.9637
20
-63.4072
11
44.1793
21
-63.1502
0
LINE
8
Black
10
44.1793
20
-63.1502
11
44.4697
21
-62.9826
0
LINE
8
Black
10
44.4697
20
-62.9826
11
44.8
21
-62.9243
0
LINE
8
Black
10
44.8
20
-62.9243
11
45.1303
21
-62.9826
0
LINE
8
Black
10
47.6703
20
-62.9826
11
47.9607
21
-63.1502
0
LINE
8
Black
10
47.9607
20
-63.1502
11
48.1763
21
-63.4072
0
LINE
8
Black
10
48.1763
20
-63.4072
11
48.291
21
-63.7223
0
LINE
8
Black
10
48.291
20
-63.7223
11
48.291
21
-64.0577
0
LINE
8
Black
10
48.291
20
-64.0577
11
48.1763
21
-64.3728
0
LINE
8
Black
10
48.1763
20
-64.3728
11
47.9607
21
-64.6298
0
LINE
8
Black
10
47.9607
20
-64.6298
11
47.6703
21
-64.7974
0
LINE
8
Black
10
47.6703
20
-64.7974
11
47.34
21
-64.8557
0
LINE
8
Black
10
47.34
20
-64.8557
11
47.0097
21
-64.7974
0
LINE
8
Black
10
47.0097
20
-64.7974
11
46.7193
21
-64.6298
0
LINE
8
Black
10
46.7193
20
-64.6298
11
46.5037
21
-64.3728
0
LINE
8
Black
10
46.5037
20
-64.3728
11
46.389
21
-64.0577
0
LINE
8
Black
10
46.389
20
-64.0577
11
46.389
21
-63.7223
0
LINE
8
Black
10
46.389
20
-63.7223
11
46.5037
21
-63.4072
0
LINE
8
Black
10
46.5037
20
-63.4072
11
46.7193
21
-63.1502
0
LINE
8
Black
10
46.7193
20
-63.1502
11
47.0097
21
-62.9826
0
LINE
8
Black
10
47.0097
20
-62.9826
11
47.34
21
-62.9243
0
LINE
8
Black
10
47.34
20
-62.9243
11
47.6703
21
-62.9826
0
LINE
8
Black
10
42.5903
20
-62.9826
11
42.8807
21
-63.1502
0
LINE
8
Black
10
42.8807
20
-63.1502
11
43.0963
21
-63.4072
0
LINE
8
Black
10
43.0963
20
-63.4072
11
43.211
21
-63.7223
0
LINE
8
Black
10
43.211
20
-63.7223
11
43.211
21
-64.0577
0
LINE
8
Black
10
43.211
20
-64.0577
11
43.0963
21
-64.3728
0
LINE
8
Black
10
43.0963
20
-64.3728
11
42.8807
21
-64.6298
0
LINE
8
Black
10
42.8807
20
-64.6298
11
42.5903
21
-64.7974
0
LINE
8
Black
10
42.5903
20
-64.7974
11
42.26
21
-64.8557
0
LINE
8
Black
10
42.26
20
-64.8557
11
41.9297
21
-64.7974
0
LINE
8
Black
10
41.9297
20
-64.7974
11
41.6393
21
-64.6298
0
LINE
8
Black
10
41.6393
20
-64.6298
11
41.4237
21
-64.3728
0
LINE
8
Black
10
41.4237
20
-64.3728
11
41.309
21
-64.0577
0
LINE
8
Black
10
41.309
20
-64.0577
11
41.309
21
-63.7223
0
LINE
8
Black
10
41.309
20
-63.7223
11
41.4237
21
-63.4072
0
LINE
8
Black
10
41.4237
20
-63.4072
11
41.6393
21
-63.1502
0
LINE
8
Black
10
41.6393
20
-63.1502
11
41.9297
21
-62.9826
0
LINE
8
Black
10
41.9297
20
-62.9826
11
42.26
21
-62.9243
0
LINE
8
Black
10
42.26
20
-62.9243
11
42.5903
21
-62.9826
0
LINE
8
Black
10
63.8
20
-64.7
11
62.4
21
-64.7
0
LINE
8
Black
10
62.4
20
-64.7
11
62.4
21
-63.5
0
LINE
8
Black
10
62.4
20
-63.5
11
63.8
21
-63.5
0
LINE
8
Black
10
63.8
20
-63.5
11
63.8
21
-64.7
0
LINE
8
Black
10
14.8
20
-64.6
11
13.6
21
-64.6
0
LINE
8
Black
10
13.6
20
-64.6
11
13.6
21
-63.2
0
LINE
8
Black
10
13.6
20
-63.2
11
14.8
21
-63.2
0
LINE
8
Black
10
14.8
20
-63.2
11
14.8
21
-64.6
0
LINE
8
Black
10
13
20
-64.6
11
11.8
21
-64.6
0
LINE
8
Black
10
11.8
20
-64.6
11
11.8
21
-63.2
0
LINE
8
Black
10
11.8
20
-63.2
11
13
21
-63.2
0
LINE
8
Black
10
13
20
-63.2
11
13
21
-64.6
0
LINE
8
Black
10
16.5
20
-64.6
11
15.3
21
-64.6
0
LINE
8
Black
10
15.3
20
-64.6
11
15.3
21
-63.2
0
LINE
8
Black
10
15.3
20
-63.2
11
16.5
21
-63.2
0
LINE
8
Black
10
16.5
20
-63.2
11
16.5
21
-64.6
0
LINE
8
Black
10
18.3
20
-64.6
11
17.1
21
-64.6
0
LINE
8
Black
10
17.1
20
-64.6
11
17.1
21
-63.2
0
LINE
8
Black
10
17.1
20
-63.2
11
18.3
21
-63.2
0
LINE
8
Black
10
18.3
20
-63.2
11
18.3
21
-64.6
0
LINE
8
Black
10
9.3
20
-64.45
11
6.3
21
-64.45
0
LINE
8
Black
10
6.3
20
-64.45
11
6.3
21
-62.55
0
LINE
8
Black
10
6.3
20
-62.55
11
9.3
21
-62.55
0
LINE
8
Black
10
9.3
20
-62.55
11
9.3
21
-64.45
0
LINE
8
Black
10
3.7
20
-64.45
11
0.7
21
-64.45
0
LINE
8
Black
10
0.7
20
-64.45
11
0.7
21
-62.55
0
LINE
8
Black
10
0.7
20
-62.55
11
3.7
21
-62.55
0
LINE
8
Black
10
3.7
20
-62.55
11
3.7
21
-64.45
0
LINE
8
Black
10
67.8305
20
-62.6073
11
68.1162
21
-62.7723
0
LINE
8
Black
10
68.1162
20
-62.7723
11
68.3283
21
-63.025
0
LINE
8
Black
10
68.3283
20
-63.025
11
68.4411
21
-63.335
0
LINE
8
Black
10
68.4411
20
-63.335
11
68.4411
21
-63.665
0
LINE
8
Black
10
68.4411
20
-63.665
11
68.3283
21
-63.975
0
LINE
8
Black
10
68.3283
20
-63.975
11
68.1162
21
-64.2277
0
LINE
8
Black
10
68.1162
20
-64.2277
11
67.8305
21
-64.3927
0
LINE
8
Black
10
67.8305
20
-64.3927
11
67.5055
21
-64.45
0
LINE
8
Black
10
67.5055
20
-64.45
11
66.4945
21
-64.45
0
LINE
8
Black
10
66.4945
20
-64.45
11
66.1695
21
-64.3927
0
LINE
8
Black
10
66.1695
20
-64.3927
11
65.8838
21
-64.2277
0
LINE
8
Black
10
65.8838
20
-64.2277
11
65.6717
21
-63.975
0
LINE
8
Black
10
65.6717
20
-63.975
11
65.5589
21
-63.665
0
LINE
8
Black
10
65.5589
20
-63.665
11
65.5589
21
-63.335
0
LINE
8
Black
10
65.5589
20
-63.335
11
65.6717
21
-63.025
0
LINE
8
Black
10
65.6717
20
-63.025
11
65.8838
21
-62.7723
0
LINE
8
Black
10
65.8838
20
-62.7723
11
66.1695
21
-62.6073
0
LINE
8
Black
10
66.1695
20
-62.6073
11
66.4945
21
-62.55
0
LINE
8
Black
10
66.4945
20
-62.55
11
67.5055
21
-62.55
0
LINE
8
Black
10
67.5055
20
-62.55
11
67.8305
21
-62.6073
0
LINE
8
Black
10
13
20
-62.6
11
11.8
21
-62.6
0
LINE
8
Black
10
11.8
20
-62.6
11
11.8
21
-61.2
0
LINE
8
Black
10
11.8
20
-61.2
11
13
21
-61.2
0
LINE
8
Black
10
13
20
-61.2
11
13
21
-62.6
0
LINE
8
Black
10
18.3
20
-62.6
11
17.1
21
-62.6
0
LINE
8
Black
10
17.1
20
-62.6
11
17.1
21
-61.2
0
LINE
8
Black
10
17.1
20
-61.2
11
18.3
21
-61.2
0
LINE
8
Black
10
18.3
20
-61.2
11
18.3
21
-62.6
0
LINE
8
Black
10
16.5
20
-62.6
11
15.3
21
-62.6
0
LINE
8
Black
10
15.3
20
-62.6
11
15.3
21
-61.2
0
LINE
8
Black
10
15.3
20
-61.2
11
16.5
21
-61.2
0
LINE
8
Black
10
16.5
20
-61.2
11
16.5
21
-62.6
0
LINE
8
Black
10
14.8
20
-62.6
11
13.6
21
-62.6
0
LINE
8
Black
10
13.6
20
-62.6
11
13.6
21
-61.2
0
LINE
8
Black
10
13.6
20
-61.2
11
14.8
21
-61.2
0
LINE
8
Black
10
14.8
20
-61.2
11
14.8
21
-62.6
0
LINE
8
Black
10
16.5
20
-60.6
11
15.3
21
-60.6
0
LINE
8
Black
10
15.3
20
-60.6
11
15.3
21
-59.2
0
LINE
8
Black
10
15.3
20
-59.2
11
16.5
21
-59.2
0
LINE
8
Black
10
16.5
20
-59.2
11
16.5
21
-60.6
0
LINE
8
Black
10
18.3
20
-60.6
11
17.1
21
-60.6
0
LINE
8
Black
10
17.1
20
-60.6
11
17.1
21
-59.2
0
LINE
8
Black
10
17.1
20
-59.2
11
18.3
21
-59.2
0
LINE
8
Black
10
18.3
20
-59.2
11
18.3
21
-60.6
0
LINE
8
Black
10
13
20
-60.6
11
11.8
21
-60.6
0
LINE
8
Black
10
11.8
20
-60.6
11
11.8
21
-59.2
0
LINE
8
Black
10
11.8
20
-59.2
11
13
21
-59.2
0
LINE
8
Black
10
13
20
-59.2
11
13
21
-60.6
0
LINE
8
Black
10
14.8
20
-60.6
11
13.6
21
-60.6
0
LINE
8
Black
10
13.6
20
-60.6
11
13.6
21
-59.2
0
LINE
8
Black
10
13.6
20
-59.2
11
14.8
21
-59.2
0
LINE
8
Black
10
14.8
20
-59.2
11
14.8
21
-60.6
0
LINE
8
Black
10
75.716
20
-59.5636
11
73.284
21
-59.5636
0
LINE
8
Black
10
73.284
20
-59.5636
11
73.284
21
-57.4364
0
LINE
8
Black
10
73.284
20
-57.4364
11
75.716
21
-57.4364
0
LINE
8
Black
10
75.716
20
-57.4364
11
75.716
21
-59.5636
0
LINE
8
Black
10
70.4881
20
-55.5002
11
70.4893
21
-55.5002
0
LINE
8
Black
10
70.4893
20
-55.5002
11
70.4903
21
-55.5006
0
LINE
8
Black
10
70.4903
20
-55.5006
11
70.4914
21
-55.5008
0
LINE
8
Black
10
70.4914
20
-55.5008
11
70.4924
21
-55.5014
0
LINE
8
Black
10
70.4924
20
-55.5014
11
70.4935
21
-55.5017
0
LINE
8
Black
10
70.4935
20
-55.5017
11
70.4944
21
-55.5025
0
LINE
8
Black
10
70.4944
20
-55.5025
11
70.4954
21
-55.503
0
LINE
8
Black
10
70.4954
20
-55.503
11
70.4961
21
-55.5039
0
LINE
8
Black
10
70.4961
20
-55.5039
11
70.497
21
-55.5046
0
LINE
8
Black
10
70.497
20
-55.5046
11
70.4975
21
-55.5056
0
LINE
8
Black
10
70.4975
20
-55.5056
11
70.4983
21
-55.5065
0
LINE
8
Black
10
70.4983
20
-55.5065
11
70.4986
21
-55.5076
0
LINE
8
Black
10
70.4986
20
-55.5076
11
70.4992
21
-55.5086
0
LINE
8
Black
10
70.4992
20
-55.5086
11
70.4994
21
-55.5097
0
LINE
8
Black
10
70.4994
20
-55.5097
11
70.4998
21
-55.5107
0
LINE
8
Black
10
70.4998
20
-55.5107
11
70.4998
21
-55.5119
0
LINE
8
Black
10
70.4998
20
-55.5119
11
70.5
21
-55.513
0
LINE
8
Black
10
70.5
20
-55.513
11
70.5
21
-57.487
0
LINE
8
Black
10
70.5
20
-57.487
11
70.4998
21
-57.4881
0
LINE
8
Black
10
70.4998
20
-57.4881
11
70.4998
21
-57.4893
0
LINE
8
Black
10
70.4998
20
-57.4893
11
70.4994
21
-57.4903
0
LINE
8
Black
10
70.4994
20
-57.4903
11
70.4992
21
-57.4914
0
LINE
8
Black
10
70.4992
20
-57.4914
11
70.4986
21
-57.4924
0
LINE
8
Black
10
70.4986
20
-57.4924
11
70.4983
21
-57.4935
0
LINE
8
Black
10
70.4983
20
-57.4935
11
70.4975
21
-57.4944
0
LINE
8
Black
10
70.4975
20
-57.4944
11
70.497
21
-57.4954
0
LINE
8
Black
10
70.497
20
-57.4954
11
70.4961
21
-57.4961
0
LINE
8
Black
10
70.4961
20
-57.4961
11
70.4954
21
-57.497
0
LINE
8
Black
10
70.4954
20
-57.497
11
70.4944
21
-57.4975
0
LINE
8
Black
10
70.4944
20
-57.4975
11
70.4935
21
-57.4983
0
LINE
8
Black
10
70.4935
20
-57.4983
11
70.4924
21
-57.4986
0
LINE
8
Black
10
70.4924
20
-57.4986
11
70.4914
21
-57.4992
0
LINE
8
Black
10
70.4914
20
-57.4992
11
70.4903
21
-57.4994
0
LINE
8
Black
10
70.4903
20
-57.4994
11
70.4893
21
-57.4998
0
LINE
8
Black
10
70.4893
20
-57.4998
11
70.4881
21
-57.4998
0
LINE
8
Black
10
70.4881
20
-57.4998
11
70.487
21
-57.5
0
LINE
8
Black
10
70.487
20
-57.5
11
5.513
21
-57.5
0
LINE
8
Black
10
5.513
20
-57.5
11
5.51188
21
-57.4998
0
LINE
8
Black
10
5.51188
20
-57.4998
11
5.51074
21
-57.4998
0
LINE
8
Black
10
5.51074
20
-57.4998
11
5.50967
21
-57.4994
0
LINE
8
Black
10
5.50967
20
-57.4994
11
5.50855
21
-57.4992
0
LINE
8
Black
10
5.50855
20
-57.4992
11
5.50757
21
-57.4986
0
LINE
8
Black
10
5.50757
20
-57.4986
11
5.5065
21
-57.4983
0
LINE
8
Black
10
5.5065
20
-57.4983
11
5.50563
21
-57.4975
0
LINE
8
Black
10
5.50563
20
-57.4975
11
5.50464
21
-57.497
0
LINE
8
Black
10
5.50464
20
-57.497
11
5.50391
21
-57.4961
0
LINE
8
Black
10
5.50391
20
-57.4961
11
5.50304
21
-57.4954
0
LINE
8
Black
10
5.50304
20
-57.4954
11
5.50247
21
-57.4944
0
LINE
8
Black
10
5.50247
20
-57.4944
11
5.50174
21
-57.4935
0
LINE
8
Black
10
5.50174
20
-57.4935
11
5.50135
21
-57.4924
0
LINE
8
Black
10
5.50135
20
-57.4924
11
5.50078
21
-57.4914
0
LINE
8
Black
10
5.50078
20
-57.4914
11
5.50059
21
-57.4903
0
LINE
8
Black
10
5.50059
20
-57.4903
11
5.5002
21
-57.4893
0
LINE
8
Black
10
5.5002
20
-57.4893
11
5.5002
21
-57.4881
0
LINE
8
Black
10
5.5002
20
-57.4881
11
5.5
21
-57.487
0
LINE
8
Black
10
5.5
20
-57.487
11
5.5
21
-55.513
0
LINE
8
Black
10
5.5
20
-55.513
11
5.5002
21
-55.5119
0
LINE
8
Black
10
5.5002
20
-55.5119
11
5.5002
21
-55.5107
0
LINE
8
Black
10
5.5002
20
-55.5107
11
5.50059
21
-55.5097
0
LINE
8
Black
10
5.50059
20
-55.5097
11
5.50078
21
-55.5086
0
LINE
8
Black
10
5.50078
20
-55.5086
11
5.50135
21
-55.5076
0
LINE
8
Black
10
5.50135
20
-55.5076
11
5.50174
21
-55.5065
0
LINE
8
Black
10
5.50174
20
-55.5065
11
5.50247
21
-55.5056
0
LINE
8
Black
10
5.50247
20
-55.5056
11
5.50304
21
-55.5046
0
LINE
8
Black
10
5.50304
20
-55.5046
11
5.50391
21
-55.5039
0
LINE
8
Black
10
5.50391
20
-55.5039
11
5.50464
21
-55.503
0
LINE
8
Black
10
5.50464
20
-55.503
11
5.50563
21
-55.5025
0
LINE
8
Black
10
5.50563
20
-55.5025
11
5.5065
21
-55.5017
0
LINE
8
Black
10
5.5065
20
-55.5017
11
5.50757
21
-55.5014
0
LINE
8
Black
10
5.50757
20
-55.5014
11
5.50855
21
-55.5008
0
LINE
8
Black
10
5.50855
20
-55.5008
11
5.50967
21
-55.5006
0
LINE
8
Black
10
5.50967
20
-55.5006
11
5.51074
21
-55.5002
0
LINE
8
Black
10
5.51074
20
-55.5002
11
5.51188
21
-55.5002
0
LINE
8
Black
10
5.51188
20
-55.5002
11
5.513
21
-55.5
0
LINE
8
Black
10
5.513
20
-55.5
11
70.487
21
-55.5
0
LINE
8
Black
10
70.487
20
-55.5
11
70.4881
21
-55.5002
0
LINE
8
Black
10
75.0208
20
-54.9605
11
75.3407
21
-55.1452
0
LINE
8
Black
10
75.3407
20
-55.1452
11
75.5781
21
-55.4282
0
LINE
8
Black
10
75.5781
20
-55.4282
11
75.7045
21
-55.7753
0
LINE
8
Black
10
75.7045
20
-55.7753
11
75.7045
21
-56.1447
0
LINE
8
Black
10
75.7045
20
-56.1447
11
75.5781
21
-56.4918
0
LINE
8
Black
10
75.5781
20
-56.4918
11
75.3407
21
-56.7748
0
LINE
8
Black
10
75.3407
20
-56.7748
11
75.0208
21
-56.9595
0
LINE
8
Black
10
75.0208
20
-56.9595
11
74.657
21
-57.0236
0
LINE
8
Black
10
74.657
20
-57.0236
11
74.343
21
-57.0236
0
LINE
8
Black
10
74.343
20
-57.0236
11
73.9792
21
-56.9595
0
LINE
8
Black
10
73.9792
20
-56.9595
11
73.6593
21
-56.7748
0
LINE
8
Black
10
73.6593
20
-56.7748
11
73.4218
21
-56.4918
0
LINE
8
Black
10
73.4218
20
-56.4918
11
73.2955
21
-56.1447
0
LINE
8
Black
10
73.2955
20
-56.1447
11
73.2955
21
-55.7753
0
LINE
8
Black
10
73.2955
20
-55.7753
11
73.4218
21
-55.4282
0
LINE
8
Black
10
73.4218
20
-55.4282
11
73.6593
21
-55.1452
0
LINE
8
Black
10
73.6593
20
-55.1452
11
73.9792
21
-54.9605
0
LINE
8
Black
10
73.9792
20
-54.9605
11
74.343
21
-54.8964
0
LINE
8
Black
10
74.343
20
-54.8964
11
74.657
21
-54.8964
0
LINE
8
Black
10
74.657
20
-54.8964
11
75.0208
21
-54.9605
0
LINE
8
Black
10
43.4506
20
-55.2495
11
31.5494
21
-55.2495
0
LINE
8
Black
10
31.5494
20
-55.2495
11
31.5494
21
-45.8503
0
LINE
8
Black
10
31.5494
20
-45.8503
11
43.4506
21
-45.8503
0
LINE
8
Black
10
43.4506
20
-45.8503
11
43.4506
21
-55.2495
0
LINE
8
Black
10
56.4506
20
-55.2495
11
44.5494
21
-55.2495
0
LINE
8
Black
10
44.5494
20
-55.2495
11
44.5494
21
-45.8503
0
LINE
8
Black
10
44.5494
20
-45.8503
11
56.4506
21
-45.8503
0
LINE
8
Black
10
56.4506
20
-45.8503
11
56.4506
21
-55.2495
0
LINE
8
Black
10
69.4506
20
-55.2495
11
57.5494
21
-55.2495
0
LINE
8
Black
10
57.5494
20
-55.2495
11
57.5494
21
-45.8503
0
LINE
8
Black
10
57.5494
20
-45.8503
11
69.4506
21
-45.8503
0
LINE
8
Black
10
69.4506
20
-45.8503
11
69.4506
21
-55.2495
0
LINE
8
Black
10
30.4506
20
-55.2495
11
18.5494
21
-55.2495
0
LINE
8
Black
10
18.5494
20
-55.2495
11
18.5494
21
-45.8503
0
LINE
8
Black
10
18.5494
20
-45.8503
11
30.4506
21
-45.8503
0
LINE
8
Black
10
30.4506
20
-45.8503
11
30.4506
21
-55.2495
0
LINE
8
Black
10
75.0208
20
-52.4205
11
75.3407
21
-52.6052
0
LINE
8
Black
10
75.3407
20
-52.6052
11
75.5781
21
-52.8882
0
LINE
8
Black
10
75.5781
20
-52.8882
11
75.7045
21
-53.2353
0
LINE
8
Black
10
75.7045
20
-53.2353
11
75.7045
21
-53.6047
0
LINE
8
Black
10
75.7045
20
-53.6047
11
75.5781
21
-53.9518
0
LINE
8
Black
10
75.5781
20
-53.9518
11
75.3407
21
-54.2348
0
LINE
8
Black
10
75.3407
20
-54.2348
11
75.0208
21
-54.4195
0
LINE
8
Black
10
75.0208
20
-54.4195
11
74.657
21
-54.4836
0
LINE
8
Black
10
74.657
20
-54.4836
11
74.343
21
-54.4836
0
LINE
8
Black
10
74.343
20
-54.4836
11
73.9792
21
-54.4195
0
LINE
8
Black
10
73.9792
20
-54.4195
11
73.6593
21
-54.2348
0
LINE
8
Black
10
73.6593
20
-54.2348
11
73.4218
21
-53.9518
0
LINE
8
Black
10
73.4218
20
-53.9518
11
73.2955
21
-53.6047
0
LINE
8
Black
10
73.2955
20
-53.6047
11
73.2955
21
-53.2353
0
LINE
8
Black
10
73.2955
20
-53.2353
11
73.4218
21
-52.8882
0
LINE
8
Black
10
73.4218
20
-52.8882
11
73.6593
21
-52.6052
0
LINE
8
Black
10
73.6593
20
-52.6052
11
73.9792
21
-52.4205
0
LINE
8
Black
10
73.9792
20
-52.4205
11
74.343
21
-52.3564
0
LINE
8
Black
10
74.343
20
-52.3564
11
74.657
21
-52.3564
0
LINE
8
Black
10
74.657
20
-52.3564
11
75.0208
21
-52.4205
0
LINE
8
Black
10
12
20
-52.7
11
10.8
21
-52.7
0
LINE
8
Black
10
10.8
20
-52.7
11
10.8
21
-51.3
0
LINE
8
Black
10
10.8
20
-51.3
11
12
21
-51.3
0
LINE
8
Black
10
12
20
-51.3
11
12
21
-52.7
0
LINE
8
Black
10
10.2
20
-52.7
11
9
21
-52.7
0
LINE
8
Black
10
9
20
-52.7
11
9
21
-51.3
0
LINE
8
Black
10
9
20
-51.3
11
10.2
21
-51.3
0
LINE
8
Black
10
10.2
20
-51.3
11
10.2
21
-52.7
0
LINE
8
Black
10
14.2918
20
-50.6982
11
14.5485
21
-50.8464
0
LINE
8
Black
10
14.5485
20
-50.8464
11
14.7389
21
-51.0734
0
LINE
8
Black
10
14.7389
20
-51.0734
11
14.8403
21
-51.3518
0
LINE
8
Black
10
14.8403
20
-51.3518
11
14.8403
21
-51.6482
0
LINE
8
Black
10
14.8403
20
-51.6482
11
14.7389
21
-51.9266
0
LINE
8
Black
10
14.7389
20
-51.9266
11
14.5485
21
-52.1536
0
LINE
8
Black
10
14.5485
20
-52.1536
11
14.2918
21
-52.3018
0
LINE
8
Black
10
14.2918
20
-52.3018
11
14
21
-52.3532
0
LINE
8
Black
10
14
20
-52.3532
11
13.7082
21
-52.3018
0
LINE
8
Black
10
13.7082
20
-52.3018
11
13.4515
21
-52.1536
0
LINE
8
Black
10
13.4515
20
-52.1536
11
13.2611
21
-51.9266
0
LINE
8
Black
10
13.2611
20
-51.9266
11
13.1597
21
-51.6482
0
LINE
8
Black
10
13.1597
20
-51.6482
11
13.1597
21
-51.3518
0
LINE
8
Black
10
13.1597
20
-51.3518
11
13.2611
21
-51.0734
0
LINE
8
Black
10
13.2611
20
-51.0734
11
13.4515
21
-50.8464
0
LINE
8
Black
10
13.4515
20
-50.8464
11
13.7082
21
-50.6982
0
LINE
8
Black
10
13.7082
20
-50.6982
11
14
21
-50.6468
0
LINE
8
Black
10
14
20
-50.6468
11
14.2918
21
-50.6982
0
LINE
8
Black
10
17.35
20
-52.35
11
15.65
21
-52.35
0
LINE
8
Black
10
15.65
20
-52.35
11
15.65
21
-50.65
0
LINE
8
Black
10
15.65
20
-50.65
11
17.35
21
-50.65
0
LINE
8
Black
10
17.35
20
-50.65
11
17.35
21
-52.35
0
LINE
8
Black
10
75.0208
20
-49.8805
11
75.3407
21
-50.0652
0
LINE
8
Black
10
75.3407
20
-50.0652
11
75.5781
21
-50.3482
0
LINE
8
Black
10
75.5781
20
-50.3482
11
75.7045
21
-50.6953
0
LINE
8
Black
10
75.7045
20
-50.6953
11
75.7045
21
-51.0647
0
LINE
8
Black
10
75.7045
20
-51.0647
11
75.5781
21
-51.4118
0
LINE
8
Black
10
75.5781
20
-51.4118
11
75.3407
21
-51.6948
0
LINE
8
Black
10
75.3407
20
-51.6948
11
75.0208
21
-51.8795
0
LINE
8
Black
10
75.0208
20
-51.8795
11
74.657
21
-51.9436
0
LINE
8
Black
10
74.657
20
-51.9436
11
74.343
21
-51.9436
0
LINE
8
Black
10
74.343
20
-51.9436
11
73.9792
21
-51.8795
0
LINE
8
Black
10
73.9792
20
-51.8795
11
73.6593
21
-51.6948
0
LINE
8
Black
10
73.6593
20
-51.6948
11
73.4218
21
-51.4118
0
LINE
8
Black
10
73.4218
20
-51.4118
11
73.2955
21
-51.0647
0
LINE
8
Black
10
73.2955
20
-51.0647
11
73.2955
21
-50.6953
0
LINE
8
Black
10
73.2955
20
-50.6953
11
73.4218
21
-50.3482
0
LINE
8
Black
10
73.4218
20
-50.3482
11
73.6593
21
-50.0652
0
LINE
8
Black
10
73.6593
20
-50.0652
11
73.9792
21
-49.8805
0
LINE
8
Black
10
73.9792
20
-49.8805
11
74.343
21
-49.8164
0
LINE
8
Black
10
74.343
20
-49.8164
11
74.657
21
-49.8164
0
LINE
8
Black
10
74.657
20
-49.8164
11
75.0208
21
-49.8805
0
LINE
8
Black
10
10.6004
20
-50.9487
11
8.39957
21
-50.9487
0
LINE
8
Black
10
8.39957
20
-50.9487
11
8.39957
21
-48.0493
0
LINE
8
Black
10
8.39957
20
-48.0493
11
10.6004
21
-48.0493
0
LINE
8
Black
10
10.6004
20
-48.0493
11
10.6004
21
-50.9487
0
LINE
8
Black
10
13.2
20
-49.5
11
11.8
21
-49.5
0
LINE
8
Black
10
11.8
20
-49.5
11
11.8
21
-48.3
0
LINE
8
Black
10
11.8
20
-48.3
11
13.2
21
-48.3
0
LINE
8
Black
10
13.2
20
-48.3
11
13.2
21
-49.5
0
LINE
8
Black
10
75.0208
20
-47.3405
11
75.3407
21
-47.5252
0
LINE
8
Black
10
75.3407
20
-47.5252
11
75.5781
21
-47.8082
0
LINE
8
Black
10
75.5781
20
-47.8082
11
75.7045
21
-48.1553
0
LINE
8
Black
10
75.7045
20
-48.1553
11
75.7045
21
-48.5247
0
LINE
8
Black
10
75.7045
20
-48.5247
11
75.5781
21
-48.8718
0
LINE
8
Black
10
75.5781
20
-48.8718
11
75.3407
21
-49.1548
0
LINE
8
Black
10
75.3407
20
-49.1548
11
75.0208
21
-49.3395
0
LINE
8
Black
10
75.0208
20
-49.3395
11
74.657
21
-49.4036
0
LINE
8
Black
10
74.657
20
-49.4036
11
74.343
21
-49.4036
0
LINE
8
Black
10
74.343
20
-49.4036
11
73.9792
21
-49.3395
0
LINE
8
Black
10
73.9792
20
-49.3395
11
73.6593
21
-49.1548
0
LINE
8
Black
10
73.6593
20
-49.1548
11
73.4218
21
-48.8718
0
LINE
8
Black
10
73.4218
20
-48.8718
11
73.2955
21
-48.5247
0
LINE
8
Black
10
73.2955
20
-48.5247
11
73.2955
21
-48.1553
0
LINE
8
Black
10
73.2955
20
-48.1553
11
73.4218
21
-47.8082
0
LINE
8
Black
10
73.4218
20
-47.8082
11
73.6593
21
-47.5252
0
LINE
8
Black
10
73.6593
20
-47.5252
11
73.9792
21
-47.3405
0
LINE
8
Black
10
73.9792
20
-47.3405
11
74.343
21
-47.2764
0
LINE
8
Black
10
74.343
20
-47.2764
11
74.657
21
-47.2764
0
LINE
8
Black
10
74.657
20
-47.2764
11
75.0208
21
-47.3405
0
LINE
8
Black
10
13.9
20
-46.6
11
13.2
21
-46.6
0
LINE
8
Black
10
13.2
20
-46.6
11
13.2
21
-47.7
0
LINE
8
Black
10
13.2
20
-47.7
11
11.8
21
-47.7
0
LINE
8
Black
10
11.8
20
-47.7
11
11.8
21
-46.5
0
LINE
8
Black
10
11.8
20
-46.5
11
11.9
21
-46.5
0
LINE
8
Black
10
11.9
20
-46.5
11
11.9
21
-44.4
0
LINE
8
Black
10
11.9
20
-44.4
11
13.9
21
-44.4
0
LINE
8
Black
10
13.9
20
-44.4
11
13.9
21
-46.6
0
LINE
8
Black
10
10.6004
20
-46.9507
11
8.39957
21
-46.9507
0
LINE
8
Black
10
8.39957
20
-46.9507
11
8.39957
21
-44.0513
0
LINE
8
Black
10
8.39957
20
-44.0513
11
10.6004
21
-44.0513
0
LINE
8
Black
10
10.6004
20
-44.0513
11
10.6004
21
-46.9507
0
LINE
8
Black
10
75.0208
20
-44.8005
11
75.3407
21
-44.9852
0
LINE
8
Black
10
75.3407
20
-44.9852
11
75.5781
21
-45.2682
0
LINE
8
Black
10
75.5781
20
-45.2682
11
75.7045
21
-45.6153
0
LINE
8
Black
10
75.7045
20
-45.6153
11
75.7045
21
-45.9847
0
LINE
8
Black
10
75.7045
20
-45.9847
11
75.5781
21
-46.3318
0
LINE
8
Black
10
75.5781
20
-46.3318
11
75.3407
21
-46.6148
0
LINE
8
Black
10
75.3407
20
-46.6148
11
75.0208
21
-46.7995
0
LINE
8
Black
10
75.0208
20
-46.7995
11
74.657
21
-46.8636
0
LINE
8
Black
10
74.657
20
-46.8636
11
74.343
21
-46.8636
0
LINE
8
Black
10
74.343
20
-46.8636
11
73.9792
21
-46.7995
0
LINE
8
Black
10
73.9792
20
-46.7995
11
73.6593
21
-46.6148
0
LINE
8
Black
10
73.6593
20
-46.6148
11
73.4218
21
-46.3318
0
LINE
8
Black
10
73.4218
20
-46.3318
11
73.2955
21
-45.9847
0
LINE
8
Black
10
73.2955
20
-45.9847
11
73.2955
21
-45.6153
0
LINE
8
Black
10
73.2955
20
-45.6153
11
73.4218
21
-45.2682
0
LINE
8
Black
10
73.4218
20
-45.2682
11
73.6593
21
-44.9852
0
LINE
8
Black
10
73.6593
20
-44.9852
11
73.9792
21
-44.8005
0
LINE
8
Black
10
73.9792
20
-44.8005
11
74.343
21
-44.7364
0
LINE
8
Black
10
74.343
20
-44.7364
11
74.657
21
-44.7364
0
LINE
8
Black
10
74.657
20
-44.7364
11
75.0208
21
-44.8005
0
LINE
8
Black
10
17.1
20
-46.6
11
15.1
21
-46.6
0
LINE
8
Black
10
15.1
20
-46.6
11
15.1
21
-44.4
0
LINE
8
Black
10
15.1
20
-44.4
11
17.1
21
-44.4
0
LINE
8
Black
10
17.1
20
-44.4
11
17.1
21
-46.6
0
LINE
8
Black
10
70.7747
20
-40.7454
11
71.0162
21
-40.8848
0
LINE
8
Black
10
71.0162
20
-40.8848
11
71.1955
21
-41.0985
0
LINE
8
Black
10
71.1955
20
-41.0985
11
71.2909
21
-41.3606
0
LINE
8
Black
10
71.2909
20
-41.3606
11
71.2909
21
-41.6394
0
LINE
8
Black
10
71.2909
20
-41.6394
11
71.1955
21
-41.9015
0
LINE
8
Black
10
71.1955
20
-41.9015
11
71.0162
21
-42.1152
0
LINE
8
Black
10
71.0162
20
-42.1152
11
70.7747
21
-42.2546
0
LINE
8
Black
10
70.7747
20
-42.2546
11
70.5
21
-42.3031
0
LINE
8
Black
10
70.5
20
-42.3031
11
70.2253
21
-42.2546
0
LINE
8
Black
10
70.2253
20
-42.2546
11
69.9838
21
-42.1152
0
LINE
8
Black
10
69.9838
20
-42.1152
11
69.8045
21
-41.9015
0
LINE
8
Black
10
69.8045
20
-41.9015
11
69.7091
21
-41.6394
0
LINE
8
Black
10
69.7091
20
-41.6394
11
69.7091
21
-41.3606
0
LINE
8
Black
10
69.7091
20
-41.3606
11
69.8045
21
-41.0985
0
LINE
8
Black
10
69.8045
20
-41.0985
11
69.9838
21
-40.8848
0
LINE
8
Black
10
69.9838
20
-40.8848
11
70.2253
21
-40.7454
0
LINE
8
Black
10
70.2253
20
-40.7454
11
70.5
21
-40.6969
0
LINE
8
Black
10
70.5
20
-40.6969
11
70.7747
21
-40.7454
0
LINE
8
Black
10
41.1989
20
-41.55
11
38.7999
21
-41.55
0
LINE
8
Black
10
38.7999
20
-41.55
11
38.7999
21
-37.3502
0
LINE
8
Black
10
38.7999
20
-37.3502
11
41.1989
21
-37.3502
0
LINE
8
Black
10
41.1989
20
-37.3502
11
41.1989
21
-41.55
0
LINE
8
Black
10
36.2001
20
-41.55
11
33.8011
21
-41.55
0
LINE
8
Black
10
33.8011
20
-41.55
11
33.8011
21
-37.3502
0
LINE
8
Black
10
33.8011
20
-37.3502
11
36.2001
21
-37.3502
0
LINE
8
Black
10
36.2001
20
-37.3502
11
36.2001
21
-41.55
0
LINE
8
Black
10
28.1989
20
-41.55
11
25.7999
21
-41.55
0
LINE
8
Black
10
25.7999
20
-41.55
11
25.7999
21
-37.3502
0
LINE
8
Black
10
25.7999
20
-37.3502
11
28.1989
21
-37.3502
0
LINE
8
Black
10
28.1989
20
-37.3502
11
28.1989
21
-41.55
0
LINE
8
Black
10
23.2001
20
-41.55
11
20.8011
21
-41.55
0
LINE
8
Black
10
20.8011
20
-41.55
11
20.8011
21
-37.3502
0
LINE
8
Black
10
20.8011
20
-37.3502
11
23.2001
21
-37.3502
0
LINE
8
Black
10
23.2001
20
-37.3502
11
23.2001
21
-41.55
0
LINE
8
Black
10
49.2001
20
-41.55
11
46.8011
21
-41.55
0
LINE
8
Black
10
46.8011
20
-41.55
11
46.8011
21
-37.3502
0
LINE
8
Black
10
46.8011
20
-37.3502
11
49.2001
21
-37.3502
0
LINE
8
Black
10
49.2001
20
-37.3502
11
49.2001
21
-41.55
0
LINE
8
Black
10
62.2001
20
-41.55
11
59.8011
21
-41.55
0
LINE
8
Black
10
59.8011
20
-41.55
11
59.8011
21
-37.3502
0
LINE
8
Black
10
59.8011
20
-37.3502
11
62.2001
21
-37.3502
0
LINE
8
Black
10
62.2001
20
-37.3502
11
62.2001
21
-41.55
0
LINE
8
Black
10
67.1988
20
-41.55
11
64.7999
21
-41.55
0
LINE
8
Black
10
64.7999
20
-41.55
11
64.7999
21
-37.3502
0
LINE
8
Black
10
64.7999
20
-37.3502
11
67.1988
21
-37.3502
0
LINE
8
Black
10
67.1988
20
-37.3502
11
67.1988
21
-41.55
0
LINE
8
Black
10
54.1989
20
-41.55
11
51.7999
21
-41.55
0
LINE
8
Black
10
51.7999
20
-41.55
11
51.7999
21
-37.3502
0
LINE
8
Black
10
51.7999
20
-37.3502
11
54.1989
21
-37.3502
0
LINE
8
Black
10
54.1989
20
-37.3502
11
54.1989
21
-41.55
0
LINE
8
Black
10
14.8605
20
-37.0096
11
15.1775
21
-37.1926
0
LINE
8
Black
10
15.1775
20
-37.1926
11
15.4128
21
-37.473
0
LINE
8
Black
10
15.4128
20
-37.473
11
15.538
21
-37.817
0
LINE
8
Black
10
15.538
20
-37.817
11
15.538
21
-38.183
0
LINE
8
Black
10
15.538
20
-38.183
11
15.4128
21
-38.527
0
LINE
8
Black
10
15.4128
20
-38.527
11
15.1775
21
-38.8074
0
LINE
8
Black
10
15.1775
20
-38.8074
11
14.8605
21
-38.9904
0
LINE
8
Black
10
14.8605
20
-38.9904
11
14.5
21
-39.054
0
LINE
8
Black
10
14.5
20
-39.054
11
14.1395
21
-38.9904
0
LINE
8
Black
10
14.1395
20
-38.9904
11
13.8225
21
-38.8074
0
LINE
8
Black
10
13.8225
20
-38.8074
11
13.5872
21
-38.527
0
LINE
8
Black
10
13.5872
20
-38.527
11
13.462
21
-38.183
0
LINE
8
Black
10
13.462
20
-38.183
11
13.462
21
-37.817
0
LINE
8
Black
10
13.462
20
-37.817
11
13.5872
21
-37.473
0
LINE
8
Black
10
13.5872
20
-37.473
11
13.8225
21
-37.1926
0
LINE
8
Black
10
13.8225
20
-37.1926
11
14.1395
21
-37.0096
0
LINE
8
Black
10
14.1395
20
-37.0096
11
14.5
21
-36.946
0
LINE
8
Black
10
14.5
20
-36.946
11
14.8605
21
-37.0096
0
LINE
8
Black
10
10.55
20
-39.05
11
8.45
21
-39.05
0
LINE
8
Black
10
8.45
20
-39.05
11
8.45
21
-36.95
0
LINE
8
Black
10
8.45
20
-36.95
11
10.55
21
-36.95
0
LINE
8
Black
10
10.55
20
-36.95
11
10.55
21
-39.05
0
LINE
8
Black
10
30.4506
20
-36.2495
11
18.5494
21
-36.2495
0
LINE
8
Black
10
18.5494
20
-36.2495
11
18.5494
21
-26.8503
0
LINE
8
Black
10
18.5494
20
-26.8503
11
30.4506
21
-26.8503
0
LINE
8
Black
10
30.4506
20
-26.8503
11
30.4506
21
-36.2495
0
LINE
8
Black
10
43.4506
20
-36.2495
11
31.5494
21
-36.2495
0
LINE
8
Black
10
31.5494
20
-36.2495
11
31.5494
21
-26.8503
0
LINE
8
Black
10
31.5494
20
-26.8503
11
43.4506
21
-26.8503
0
LINE
8
Black
10
43.4506
20
-26.8503
11
43.4506
21
-36.2495
0
LINE
8
Black
10
56.4506
20
-36.2495
11
44.5494
21
-36.2495
0
LINE
8
Black
10
44.5494
20
-36.2495
11
44.5494
21
-26.8503
0
LINE
8
Black
10
44.5494
20
-26.8503
11
56.4506
21
-26.8503
0
LINE
8
Black
10
56.4506
20
-26.8503
11
56.4506
21
-36.2495
0
LINE
8
Black
10
69.4506
20
-36.2495
11
57.5494
21
-36.2495
0
LINE
8
Black
10
57.5494
20
-36.2495
11
57.5494
21
-26.8503
0
LINE
8
Black
10
57.5494
20
-26.8503
11
69.4506
21
-26.8503
0
LINE
8
Black
10
69.4506
20
-26.8503
11
69.4506
21
-36.2495
0
LINE
8
Black
10
14.8605
20
-24.0096
11
15.1775
21
-24.1926
0
LINE
8
Black
10
15.1775
20
-24.1926
11
15.4128
21
-24.473
0
LINE
8
Black
10
15.4128
20
-24.473
11
15.538
21
-24.817
0
LINE
8
Black
10
15.538
20
-24.817
11
15.538
21
-25.183
0
LINE
8
Black
10
15.538
20
-25.183
11
15.4128
21
-25.527
0
LINE
8
Black
10
15.4128
20
-25.527
11
15.1775
21
-25.8074
0
LINE
8
Black
10
15.1775
20
-25.8074
11
14.8605
21
-25.9904
0
LINE
8
Black
10
14.8605
20
-25.9904
11
14.5
21
-26.054
0
LINE
8
Black
10
14.5
20
-26.054
11
14.1395
21
-25.9904
0
LINE
8
Black
10
14.1395
20
-25.9904
11
13.8225
21
-25.8074
0
LINE
8
Black
10
13.8225
20
-25.8074
11
13.5872
21
-25.527
0
LINE
8
Black
10
13.5872
20
-25.527
11
13.462
21
-25.183
0
LINE
8
Black
10
13.462
20
-25.183
11
13.462
21
-24.817
0
LINE
8
Black
10
13.462
20
-24.817
11
13.5872
21
-24.473
0
LINE
8
Black
10
13.5872
20
-24.473
11
13.8225
21
-24.1926
0
LINE
8
Black
10
13.8225
20
-24.1926
11
14.1395
21
-24.0096
0
LINE
8
Black
10
14.1395
20
-24.0096
11
14.5
21
-23.946
0
LINE
8
Black
10
14.5
20
-23.946
11
14.8605
21
-24.0096
0
LINE
8
Black
10
10.55
20
-26.05
11
8.45
21
-26.05
0
LINE
8
Black
10
8.45
20
-26.05
11
8.45
21
-23.95
0
LINE
8
Black
10
8.45
20
-23.95
11
10.55
21
-23.95
0
LINE
8
Black
10
10.55
20
-23.95
11
10.55
21
-26.05
0
LINE
8
Black
10
45.2
20
-26
11
43.8
21
-26
0
LINE
8
Black
10
43.8
20
-26
11
43.8
21
-24.8
0
LINE
8
Black
10
43.8
20
-24.8
11
45.2
21
-24.8
0
LINE
8
Black
10
45.2
20
-24.8
11
45.2
21
-26
0
LINE
8
Black
10
32.2
20
-26
11
30.8
21
-26
0
LINE
8
Black
10
30.8
20
-26
11
30.8
21
-24.8
0
LINE
8
Black
10
30.8
20
-24.8
11
32.2
21
-24.8
0
LINE
8
Black
10
32.2
20
-24.8
11
32.2
21
-26
0
LINE
8
Black
10
71.2
20
-26
11
69.8
21
-26
0
LINE
8
Black
10
69.8
20
-26
11
69.8
21
-24.8
0
LINE
8
Black
10
69.8
20
-24.8
11
71.2
21
-24.8
0
LINE
8
Black
10
71.2
20
-24.8
11
71.2
21
-26
0
LINE
8
Black
10
58.2
20
-26
11
56.8
21
-26
0
LINE
8
Black
10
56.8
20
-26
11
56.8
21
-24.8
0
LINE
8
Black
10
56.8
20
-24.8
11
58.2
21
-24.8
0
LINE
8
Black
10
58.2
20
-24.8
11
58.2
21
-26
0
LINE
8
Black
10
45.2
20
-24.2
11
43.8
21
-24.2
0
LINE
8
Black
10
43.8
20
-24.2
11
43.8
21
-23
0
LINE
8
Black
10
43.8
20
-23
11
45.2
21
-23
0
LINE
8
Black
10
45.2
20
-23
11
45.2
21
-24.2
0
LINE
8
Black
10
32.2
20
-24.2
11
30.8
21
-24.2
0
LINE
8
Black
10
30.8
20
-24.2
11
30.8
21
-23
0
LINE
8
Black
10
30.8
20
-23
11
32.2
21
-23
0
LINE
8
Black
10
32.2
20
-23
11
32.2
21
-24.2
0
LINE
8
Black
10
71.2
20
-24.2
11
69.8
21
-24.2
0
LINE
8
Black
10
69.8
20
-24.2
11
69.8
21
-23
0
LINE
8
Black
10
69.8
20
-23
11
71.2
21
-23
0
LINE
8
Black
10
71.2
20
-23
11
71.2
21
-24.2
0
LINE
8
Black
10
58.2
20
-24.2
11
56.8
21
-24.2
0
LINE
8
Black
10
56.8
20
-24.2
11
56.8
21
-23
0
LINE
8
Black
10
56.8
20
-23
11
58.2
21
-23
0
LINE
8
Black
10
58.2
20
-23
11
58.2
21
-24.2
0
LINE
8
Black
10
57.5556
20
-21.5657
11
56.5657
21
-22.5556
0
LINE
8
Black
10
56.5657
20
-22.5556
11
55.7172
21
-21.7071
0
LINE
8
Black
10
55.7172
20
-21.7071
11
56.7071
21
-20.7172
0
LINE
8
Black
10
56.7071
20
-20.7172
11
57.5556
21
-21.5657
0
LINE
8
Black
10
31.5556
20
-21.5657
11
30.5657
21
-22.5556
0
LINE
8
Black
10
30.5657
20
-22.5556
11
29.7172
21
-21.7071
0
LINE
8
Black
10
29.7172
20
-21.7071
11
30.7071
21
-20.7172
0
LINE
8
Black
10
30.7071
20
-20.7172
11
31.5556
21
-21.5657
0
LINE
8
Black
10
44.5556
20
-21.5657
11
43.5657
21
-22.5556
0
LINE
8
Black
10
43.5657
20
-22.5556
11
42.7172
21
-21.7071
0
LINE
8
Black
10
42.7172
20
-21.7071
11
43.7071
21
-20.7172
0
LINE
8
Black
10
43.7071
20
-20.7172
11
44.5556
21
-21.5657
0
LINE
8
Black
10
70.5556
20
-21.5657
11
69.5657
21
-22.5556
0
LINE
8
Black
10
69.5657
20
-22.5556
11
68.7172
21
-21.7071
0
LINE
8
Black
10
68.7172
20
-21.7071
11
69.7071
21
-20.7172
0
LINE
8
Black
10
69.7071
20
-20.7172
11
70.5556
21
-21.5657
0
LINE
8
Black
10
54.1989
20
-22.55
11
51.7999
21
-22.55
0
LINE
8
Black
10
51.7999
20
-22.55
11
51.7999
21
-18.3502
0
LINE
8
Black
10
51.7999
20
-18.3502
11
54.1989
21
-18.3502
0
LINE
8
Black
10
54.1989
20
-18.3502
11
54.1989
21
-22.55
0
LINE
8
Black
10
49.2001
20
-22.55
11
46.8011
21
-22.55
0
LINE
8
Black
10
46.8011
20
-22.55
11
46.8011
21
-18.3502
0
LINE
8
Black
10
46.8011
20
-18.3502
11
49.2001
21
-18.3502
0
LINE
8
Black
10
49.2001
20
-18.3502
11
49.2001
21
-22.55
0
LINE
8
Black
10
62.2001
20
-22.55
11
59.8011
21
-22.55
0
LINE
8
Black
10
59.8011
20
-22.55
11
59.8011
21
-18.3502
0
LINE
8
Black
10
59.8011
20
-18.3502
11
62.2001
21
-18.3502
0
LINE
8
Black
10
62.2001
20
-18.3502
11
62.2001
21
-22.55
0
LINE
8
Black
10
67.1988
20
-22.55
11
64.7999
21
-22.55
0
LINE
8
Black
10
64.7999
20
-22.55
11
64.7999
21
-18.3502
0
LINE
8
Black
10
64.7999
20
-18.3502
11
67.1988
21
-18.3502
0
LINE
8
Black
10
67.1988
20
-18.3502
11
67.1988
21
-22.55
0
LINE
8
Black
10
23.2001
20
-22.55
11
20.8011
21
-22.55
0
LINE
8
Black
10
20.8011
20
-22.55
11
20.8011
21
-18.3502
0
LINE
8
Black
10
20.8011
20
-18.3502
11
23.2001
21
-18.3502
0
LINE
8
Black
10
23.2001
20
-18.3502
11
23.2001
21
-22.55
0
LINE
8
Black
10
28.1989
20
-22.55
11
25.7999
21
-22.55
0
LINE
8
Black
10
25.7999
20
-22.55
11
25.7999
21
-18.3502
0
LINE
8
Black
10
25.7999
20
-18.3502
11
28.1989
21
-18.3502
0
LINE
8
Black
10
28.1989
20
-18.3502
11
28.1989
21
-22.55
0
LINE
8
Black
10
36.2001
20
-22.55
11
33.8011
21
-22.55
0
LINE
8
Black
10
33.8011
20
-22.55
11
33.8011
21
-18.3502
0
LINE
8
Black
10
33.8011
20
-18.3502
11
36.2001
21
-18.3502
0
LINE
8
Black
10
36.2001
20
-18.3502
11
36.2001
21
-22.55
0
LINE
8
Black
10
41.1989
20
-22.55
11
38.7999
21
-22.55
0
LINE
8
Black
10
38.7999
20
-22.55
11
38.7999
21
-18.3502
0
LINE
8
Black
10
38.7999
20
-18.3502
11
41.1989
21
-18.3502
0
LINE
8
Black
10
41.1989
20
-18.3502
11
41.1989
21
-22.55
0
LINE
8
Black
10
73.0636
20
-21.3636
11
70.9364
21
-21.3636
0
LINE
8
Black
10
70.9364
20
-21.3636
11
70.9364
21
-19.2364
0
LINE
8
Black
10
70.9364
20
-19.2364
11
73.0636
21
-19.2364
0
LINE
8
Black
10
73.0636
20
-19.2364
11
73.0636
21
-21.3636
0
LINE
8
Black
10
75.0718
20
-19.3748
11
75.3548
21
-19.6123
0
LINE
8
Black
10
75.3548
20
-19.6123
11
75.5395
21
-19.9322
0
LINE
8
Black
10
75.5395
20
-19.9322
11
75.6036
21
-20.2959
0
LINE
8
Black
10
75.6036
20
-20.2959
11
75.6036
21
-20.3041
0
LINE
8
Black
10
75.6036
20
-20.3041
11
75.5395
21
-20.6678
0
LINE
8
Black
10
75.5395
20
-20.6678
11
75.3548
21
-20.9877
0
LINE
8
Black
10
75.3548
20
-20.9877
11
75.0718
21
-21.2252
0
LINE
8
Black
10
75.0718
20
-21.2252
11
74.7247
21
-21.3515
0
LINE
8
Black
10
74.7247
20
-21.3515
11
74.3553
21
-21.3515
0
LINE
8
Black
10
74.3553
20
-21.3515
11
74.0082
21
-21.2252
0
LINE
8
Black
10
74.0082
20
-21.2252
11
73.7252
21
-20.9877
0
LINE
8
Black
10
73.7252
20
-20.9877
11
73.5405
21
-20.6678
0
LINE
8
Black
10
73.5405
20
-20.6678
11
73.4764
21
-20.3041
0
LINE
8
Black
10
73.4764
20
-20.3041
11
73.4764
21
-20.2959
0
LINE
8
Black
10
73.4764
20
-20.2959
11
73.5405
21
-19.9322
0
LINE
8
Black
10
73.5405
20
-19.9322
11
73.7252
21
-19.6123
0
LINE
8
Black
10
73.7252
20
-19.6123
11
74.0082
21
-19.3748
0
LINE
8
Black
10
74.0082
20
-19.3748
11
74.3553
21
-19.2485
0
LINE
8
Black
10
74.3553
20
-19.2485
11
74.7247
21
-19.2485
0
LINE
8
Black
10
74.7247
20
-19.2485
11
75.0718
21
-19.3748
0
LINE
8
Black
10
69.2828
20
-20.2929
11
68.2929
21
-21.2828
0
LINE
8
Black
10
68.2929
20
-21.2828
11
67.4444
21
-20.4343
0
LINE
8
Black
10
67.4444
20
-20.4343
11
68.4343
21
-19.4444
0
LINE
8
Black
10
68.4343
20
-19.4444
11
69.2828
21
-20.2929
0
LINE
8
Black
10
56.2828
20
-20.2929
11
55.2929
21
-21.2828
0
LINE
8
Black
10
55.2929
20
-21.2828
11
54.4444
21
-20.4343
0
LINE
8
Black
10
54.4444
20
-20.4343
11
55.4343
21
-19.4444
0
LINE
8
Black
10
55.4343
20
-19.4444
11
56.2828
21
-20.2929
0
LINE
8
Black
10
43.2828
20
-20.2929
11
42.2929
21
-21.2828
0
LINE
8
Black
10
42.2929
20
-21.2828
11
41.4444
21
-20.4343
0
LINE
8
Black
10
41.4444
20
-20.4343
11
42.4343
21
-19.4444
0
LINE
8
Black
10
42.4343
20
-19.4444
11
43.2828
21
-20.2929
0
LINE
8
Black
10
30.2828
20
-20.2929
11
29.2929
21
-21.2828
0
LINE
8
Black
10
29.2929
20
-21.2828
11
28.4444
21
-20.4343
0
LINE
8
Black
10
28.4444
20
-20.4343
11
29.4343
21
-19.4444
0
LINE
8
Black
10
29.4343
20
-19.4444
11
30.2828
21
-20.2929
0
LINE
8
Black
10
4.26631
20
-14.8946
11
4.94018
21
-15.2837
0
LINE
8
Black
10
4.94018
20
-15.2837
11
5.44035
21
-15.8797
0
LINE
8
Black
10
5.44035
20
-15.8797
11
5.70649
21
-16.6109
0
LINE
8
Black
10
5.70649
20
-16.6109
11
5.70649
21
-17.3891
0
LINE
8
Black
10
5.70649
20
-17.3891
11
5.44035
21
-18.1203
0
LINE
8
Black
10
5.44035
20
-18.1203
11
4.94018
21
-18.7163
0
LINE
8
Black
10
4.94018
20
-18.7163
11
4.26631
21
-19.1054
0
LINE
8
Black
10
4.26631
20
-19.1054
11
3.5
21
-19.2405
0
LINE
8
Black
10
3.5
20
-19.2405
11
2.73369
21
-19.1054
0
LINE
8
Black
10
2.73369
20
-19.1054
11
2.05982
21
-18.7163
0
LINE
8
Black
10
2.05982
20
-18.7163
11
1.55965
21
-18.1203
0
LINE
8
Black
10
1.55965
20
-18.1203
11
1.29351
21
-17.3891
0
LINE
8
Black
10
1.29351
20
-17.3891
11
1.29351
21
-16.6109
0
LINE
8
Black
10
1.29351
20
-16.6109
11
1.55965
21
-15.8797
0
LINE
8
Black
10
1.55965
20
-15.8797
11
2.05982
21
-15.2837
0
LINE
8
Black
10
2.05982
20
-15.2837
11
2.73369
21
-14.8946
0
LINE
8
Black
10
2.73369
20
-14.8946
11
3.5
21
-14.7595
0
LINE
8
Black
10
3.5
20
-14.7595
11
4.26631
21
-14.8946
0
LINE
8
Black
10
72.5318
20
-16.8348
11
72.8148
21
-17.0723
0
LINE
8
Black
10
72.8148
20
-17.0723
11
72.9995
21
-17.3922
0
LINE
8
Black
10
72.9995
20
-17.3922
11
73.0636
21
-17.7559
0
LINE
8
Black
10
73.0636
20
-17.7559
11
73.0636
21
-17.7641
0
LINE
8
Black
10
73.0636
20
-17.7641
11
72.9995
21
-18.1278
0
LINE
8
Black
10
72.9995
20
-18.1278
11
72.8148
21
-18.4477
0
LINE
8
Black
10
72.8148
20
-18.4477
11
72.5318
21
-18.6852
0
LINE
8
Black
10
72.5318
20
-18.6852
11
72.1847
21
-18.8115
0
LINE
8
Black
10
72.1847
20
-18.8115
11
71.8153
21
-18.8115
0
LINE
8
Black
10
71.8153
20
-18.8115
11
71.4682
21
-18.6852
0
LINE
8
Black
10
71.4682
20
-18.6852
11
71.1852
21
-18.4477
0
LINE
8
Black
10
71.1852
20
-18.4477
11
71.0005
21
-18.1278
0
LINE
8
Black
10
71.0005
20
-18.1278
11
70.9364
21
-17.7641
0
LINE
8
Black
10
70.9364
20
-17.7641
11
70.9364
21
-17.7559
0
LINE
8
Black
10
70.9364
20
-17.7559
11
71.0005
21
-17.3922
0
LINE
8
Black
10
71.0005
20
-17.3922
11
71.1852
21
-17.0723
0
LINE
8
Black
10
71.1852
20
-17.0723
11
71.4682
21
-16.8348
0
LINE
8
Black
10
71.4682
20
-16.8348
11
71.8153
21
-16.7085
0
LINE
8
Black
10
71.8153
20
-16.7085
11
72.1847
21
-16.7085
0
LINE
8
Black
10
72.1847
20
-16.7085
11
72.5318
21
-16.8348
0
LINE
8
Black
10
75.0718
20
-16.8348
11
75.3548
21
-17.0723
0
LINE
8
Black
10
75.3548
20
-17.0723
11
75.5395
21
-17.3922
0
LINE
8
Black
10
75.5395
20
-17.3922
11
75.6036
21
-17.7559
0
LINE
8
Black
10
75.6036
20
-17.7559
11
75.6036
21
-17.7641
0
LINE
8
Black
10
75.6036
20
-17.7641
11
75.5395
21
-18.1278
0
LINE
8
Black
10
75.5395
20
-18.1278
11
75.3548
21
-18.4477
0
LINE
8
Black
10
75.3548
20
-18.4477
11
75.0718
21
-18.6852
0
LINE
8
Black
10
75.0718
20
-18.6852
11
74.7247
21
-18.8115
0
LINE
8
Black
10
74.7247
20
-18.8115
11
74.3553
21
-18.8115
0
LINE
8
Black
10
74.3553
20
-18.8115
11
74.0082
21
-18.6852
0
LINE
8
Black
10
74.0082
20
-18.6852
11
73.7252
21
-18.4477
0
LINE
8
Black
10
73.7252
20
-18.4477
11
73.5405
21
-18.1278
0
LINE
8
Black
10
73.5405
20
-18.1278
11
73.4764
21
-17.7641
0
LINE
8
Black
10
73.4764
20
-17.7641
11
73.4764
21
-17.7559
0
LINE
8
Black
10
73.4764
20
-17.7559
11
73.5405
21
-17.3922
0
LINE
8
Black
10
73.5405
20
-17.3922
11
73.7252
21
-17.0723
0
LINE
8
Black
10
73.7252
20
-17.0723
11
74.0082
21
-16.8348
0
LINE
8
Black
10
74.0082
20
-16.8348
11
74.3553
21
-16.7085
0
LINE
8
Black
10
74.3553
20
-16.7085
11
74.7247
21
-16.7085
0
LINE
8
Black
10
74.7247
20
-16.7085
11
75.0718
21
-16.8348
0
LINE
8
Black
10
15.452
20
-15.9481
11
15.8143
21
-16.1572
0
LINE
8
Black
10
15.8143
20
-16.1572
11
16.0832
21
-16.4777
0
LINE
8
Black
10
16.0832
20
-16.4777
11
16.2263
21
-16.8708
0
LINE
8
Black
10
16.2263
20
-16.8708
11
16.2263
21
-17.2892
0
LINE
8
Black
10
16.2263
20
-17.2892
11
16.0832
21
-17.6823
0
LINE
8
Black
10
16.0832
20
-17.6823
11
15.8143
21
-18.0028
0
LINE
8
Black
10
15.8143
20
-18.0028
11
15.452
21
-18.2119
0
LINE
8
Black
10
15.452
20
-18.2119
11
15.04
21
-18.2846
0
LINE
8
Black
10
15.04
20
-18.2846
11
14.628
21
-18.2119
0
LINE
8
Black
10
14.628
20
-18.2119
11
14.2657
21
-18.0028
0
LINE
8
Black
10
14.2657
20
-18.0028
11
13.9968
21
-17.6823
0
LINE
8
Black
10
13.9968
20
-17.6823
11
13.8537
21
-17.2892
0
LINE
8
Black
10
13.8537
20
-17.2892
11
13.8537
21
-16.8708
0
LINE
8
Black
10
13.8537
20
-16.8708
11
13.9968
21
-16.4777
0
LINE
8
Black
10
13.9968
20
-16.4777
11
14.2657
21
-16.1572
0
LINE
8
Black
10
14.2657
20
-16.1572
11
14.628
21
-15.9481
0
LINE
8
Black
10
14.628
20
-15.9481
11
15.04
21
-15.8754
0
LINE
8
Black
10
15.04
20
-15.8754
11
15.452
21
-15.9481
0
LINE
8
Black
10
10.372
20
-15.9481
11
10.7343
21
-16.1572
0
LINE
8
Black
10
10.7343
20
-16.1572
11
11.0032
21
-16.4777
0
LINE
8
Black
10
11.0032
20
-16.4777
11
11.1463
21
-16.8708
0
LINE
8
Black
10
11.1463
20
-16.8708
11
11.1463
21
-17.2892
0
LINE
8
Black
10
11.1463
20
-17.2892
11
11.0032
21
-17.6823
0
LINE
8
Black
10
11.0032
20
-17.6823
11
10.7343
21
-18.0028
0
LINE
8
Black
10
10.7343
20
-18.0028
11
10.372
21
-18.2119
0
LINE
8
Black
10
10.372
20
-18.2119
11
9.96
21
-18.2846
0
LINE
8
Black
10
9.96
20
-18.2846
11
9.54801
21
-18.2119
0
LINE
8
Black
10
9.54801
20
-18.2119
11
9.18571
21
-18.0028
0
LINE
8
Black
10
9.18571
20
-18.0028
11
8.9168
21
-17.6823
0
LINE
8
Black
10
8.9168
20
-17.6823
11
8.77372
21
-17.2892
0
LINE
8
Black
10
8.77372
20
-17.2892
11
8.77372
21
-16.8708
0
LINE
8
Black
10
8.77372
20
-16.8708
11
8.9168
21
-16.4777
0
LINE
8
Black
10
8.9168
20
-16.4777
11
9.18571
21
-16.1572
0
LINE
8
Black
10
9.18571
20
-16.1572
11
9.54801
21
-15.9481
0
LINE
8
Black
10
9.54801
20
-15.9481
11
9.96
21
-15.8754
0
LINE
8
Black
10
9.96
20
-15.8754
11
10.372
21
-15.9481
0
LINE
8
Black
10
22.4881
20
-8.5002
11
22.4893
21
-8.5002
0
LINE
8
Black
10
22.4893
20
-8.5002
11
22.4903
21
-8.50059
0
LINE
8
Black
10
22.4903
20
-8.50059
11
22.4914
21
-8.50078
0
LINE
8
Black
10
22.4914
20
-8.50078
11
22.4924
21
-8.50135
0
LINE
8
Black
10
22.4924
20
-8.50135
11
22.4935
21
-8.50174
0
LINE
8
Black
10
22.4935
20
-8.50174
11
22.4944
21
-8.50247
0
LINE
8
Black
10
22.4944
20
-8.50247
11
22.4954
21
-8.50304
0
LINE
8
Black
10
22.4954
20
-8.50304
11
22.4961
21
-8.50391
0
LINE
8
Black
10
22.4961
20
-8.50391
11
22.497
21
-8.50464
0
LINE
8
Black
10
22.497
20
-8.50464
11
22.4975
21
-8.50563
0
LINE
8
Black
10
22.4975
20
-8.50563
11
22.4983
21
-8.5065
0
LINE
8
Black
10
22.4983
20
-8.5065
11
22.4986
21
-8.50757
0
LINE
8
Black
10
22.4986
20
-8.50757
11
22.4992
21
-8.50855
0
LINE
8
Black
10
22.4992
20
-8.50855
11
22.4994
21
-8.50967
0
LINE
8
Black
10
22.4994
20
-8.50967
11
22.4998
21
-8.51074
0
LINE
8
Black
10
22.4998
20
-8.51074
11
22.4998
21
-8.51188
0
LINE
8
Black
10
22.4998
20
-8.51188
11
22.5
21
-8.513
0
LINE
8
Black
10
22.5
20
-8.513
11
22.5
21
-15.9987
0
LINE
8
Black
10
22.5
20
-15.9987
11
22.5002
21
-15.9998
0
LINE
8
Black
10
22.5002
20
-15.9998
11
22.5012
21
-16
0
LINE
8
Black
10
22.5012
20
-16
11
63.987
21
-16
0
LINE
8
Black
10
63.987
20
-16
11
63.9881
21
-16.0002
0
LINE
8
Black
10
63.9881
20
-16.0002
11
63.9893
21
-16.0002
0
LINE
8
Black
10
63.9893
20
-16.0002
11
63.9903
21
-16.0006
0
LINE
8
Black
10
63.9903
20
-16.0006
11
63.9914
21
-16.0008
0
LINE
8
Black
10
63.9914
20
-16.0008
11
63.9924
21
-16.0014
0
LINE
8
Black
10
63.9924
20
-16.0014
11
63.9935
21
-16.0017
0
LINE
8
Black
10
63.9935
20
-16.0017
11
63.9944
21
-16.0025
0
LINE
8
Black
10
63.9944
20
-16.0025
11
63.9954
21
-16.003
0
LINE
8
Black
10
63.9954
20
-16.003
11
63.9961
21
-16.0039
0
LINE
8
Black
10
63.9961
20
-16.0039
11
63.997
21
-16.0046
0
LINE
8
Black
10
63.997
20
-16.0046
11
63.9975
21
-16.0056
0
LINE
8
Black
10
63.9975
20
-16.0056
11
63.9983
21
-16.0065
0
LINE
8
Black
10
63.9983
20
-16.0065
11
63.9986
21
-16.0076
0
LINE
8
Black
10
63.9986
20
-16.0076
11
63.9992
21
-16.0086
0
LINE
8
Black
10
63.9992
20
-16.0086
11
63.9994
21
-16.0097
0
LINE
8
Black
10
63.9994
20
-16.0097
11
63.9998
21
-16.0107
0
LINE
8
Black
10
63.9998
20
-16.0107
11
63.9998
21
-16.0119
0
LINE
8
Black
10
63.9998
20
-16.0119
11
64
21
-16.013
0
LINE
8
Black
10
64
20
-16.013
11
64
21
-17.987
0
LINE
8
Black
10
64
20
-17.987
11
63.9998
21
-17.9881
0
LINE
8
Black
10
63.9998
20
-17.9881
11
63.9998
21
-17.9893
0
LINE
8
Black
10
63.9998
20
-17.9893
11
63.9994
21
-17.9903
0
LINE
8
Black
10
63.9994
20
-17.9903
11
63.9992
21
-17.9914
0
LINE
8
Black
10
63.9992
20
-17.9914
11
63.9986
21
-17.9924
0
LINE
8
Black
10
63.9986
20
-17.9924
11
63.9983
21
-17.9935
0
LINE
8
Black
10
63.9983
20
-17.9935
11
63.9975
21
-17.9944
0
LINE
8
Black
10
63.9975
20
-17.9944
11
63.997
21
-17.9954
0
LINE
8
Black
10
63.997
20
-17.9954
11
63.9961
21
-17.9961
0
LINE
8
Black
10
63.9961
20
-17.9961
11
63.9954
21
-17.997
0
LINE
8
Black
10
63.9954
20
-17.997
11
63.9944
21
-17.9975
0
LINE
8
Black
10
63.9944
20
-17.9975
11
63.9935
21
-17.9983
0
LINE
8
Black
10
63.9935
20
-17.9983
11
63.9924
21
-17.9986
0
LINE
8
Black
10
63.9924
20
-17.9986
11
63.9914
21
-17.9992
0
LINE
8
Black
10
63.9914
20
-17.9992
11
63.9903
21
-17.9994
0
LINE
8
Black
10
63.9903
20
-17.9994
11
63.9893
21
-17.9998
0
LINE
8
Black
10
63.9893
20
-17.9998
11
63.9881
21
-17.9998
0
LINE
8
Black
10
63.9881
20
-17.9998
11
63.987
21
-18
0
LINE
8
Black
10
63.987
20
-18
11
19.513
21
-18
0
LINE
8
Black
10
19.513
20
-18
11
19.5119
21
-17.9998
0
LINE
8
Black
10
19.5119
20
-17.9998
11
19.5107
21
-17.9998
0
LINE
8
Black
10
19.5107
20
-17.9998
11
19.5097
21
-17.9994
0
LINE
8
Black
10
19.5097
20
-17.9994
11
19.5086
21
-17.9992
0
LINE
8
Black
10
19.5086
20
-17.9992
11
19.5076
21
-17.9986
0
LINE
8
Black
10
19.5076
20
-17.9986
11
19.5065
21
-17.9983
0
LINE
8
Black
10
19.5065
20
-17.9983
11
19.5056
21
-17.9975
0
LINE
8
Black
10
19.5056
20
-17.9975
11
19.5046
21
-17.997
0
LINE
8
Black
10
19.5046
20
-17.997
11
19.5039
21
-17.9961
0
LINE
8
Black
10
19.5039
20
-17.9961
11
19.503
21
-17.9954
0
LINE
8
Black
10
19.503
20
-17.9954
11
19.5025
21
-17.9944
0
LINE
8
Black
10
19.5025
20
-17.9944
11
19.5017
21
-17.9935
0
LINE
8
Black
10
19.5017
20
-17.9935
11
19.5014
21
-17.9924
0
LINE
8
Black
10
19.5014
20
-17.9924
11
19.5008
21
-17.9914
0
LINE
8
Black
10
19.5008
20
-17.9914
11
19.5006
21
-17.9903
0
LINE
8
Black
10
19.5006
20
-17.9903
11
19.5002
21
-17.9893
0
LINE
8
Black
10
19.5002
20
-17.9893
11
19.5002
21
-17.9881
0
LINE
8
Black
10
19.5002
20
-17.9881
11
19.5
21
-17.987
0
LINE
8
Black
10
19.5
20
-17.987
11
19.5
21
-8.513
0
LINE
8
Black
10
19.5
20
-8.513
11
19.5002
21
-8.51188
0
LINE
8
Black
10
19.5002
20
-8.51188
11
19.5002
21
-8.51074
0
LINE
8
Black
10
19.5002
20
-8.51074
11
19.5006
21
-8.50967
0
LINE
8
Black
10
19.5006
20
-8.50967
11
19.5008
21
-8.50855
0
LINE
8
Black
10
19.5008
20
-8.50855
11
19.5014
21
-8.50757
0
LINE
8
Black
10
19.5014
20
-8.50757
11
19.5017
21
-8.5065
0
LINE
8
Black
10
19.5017
20
-8.5065
11
19.5025
21
-8.50563
0
LINE
8
Black
10
19.5025
20
-8.50563
11
19.503
21
-8.50464
0
LINE
8
Black
10
19.503
20
-8.50464
11
19.5039
21
-8.50391
0
LINE
8
Black
10
19.5039
20
-8.50391
11
19.5046
21
-8.50304
0
LINE
8
Black
10
19.5046
20
-8.50304
11
19.5056
21
-8.50247
0
LINE
8
Black
10
19.5056
20
-8.50247
11
19.5065
21
-8.50174
0
LINE
8
Black
10
19.5065
20
-8.50174
11
19.5076
21
-8.50135
0
LINE
8
Black
10
19.5076
20
-8.50135
11
19.5086
21
-8.50078
0
LINE
8
Black
10
19.5086
20
-8.50078
11
19.5097
21
-8.50059
0
LINE
8
Black
10
19.5097
20
-8.50059
11
19.5107
21
-8.5002
0
LINE
8
Black
10
19.5107
20
-8.5002
11
19.5119
21
-8.5002
0
LINE
8
Black
10
19.5119
20
-8.5002
11
19.513
21
-8.5
0
LINE
8
Black
10
19.513
20
-8.5
11
22.487
21
-8.5
0
LINE
8
Black
10
22.487
20
-8.5
11
22.4881
21
-8.5002
0
LINE
8
Black
10
72.2747
20
-14.1454
11
72.5162
21
-14.2848
0
LINE
8
Black
10
72.5162
20
-14.2848
11
72.6955
21
-14.4985
0
LINE
8
Black
10
72.6955
20
-14.4985
11
72.7909
21
-14.7606
0
LINE
8
Black
10
72.7909
20
-14.7606
11
72.7909
21
-15.0394
0
LINE
8
Black
10
72.7909
20
-15.0394
11
72.6955
21
-15.3015
0
LINE
8
Black
10
72.6955
20
-15.3015
11
72.5162
21
-15.5152
0
LINE
8
Black
10
72.5162
20
-15.5152
11
72.2747
21
-15.6546
0
LINE
8
Black
10
72.2747
20
-15.6546
11
72
21
-15.7031
0
LINE
8
Black
10
72
20
-15.7031
11
71.7253
21
-15.6546
0
LINE
8
Black
10
71.7253
20
-15.6546
11
71.4838
21
-15.5152
0
LINE
8
Black
10
71.4838
20
-15.5152
11
71.3045
21
-15.3015
0
LINE
8
Black
10
71.3045
20
-15.3015
11
71.2091
21
-15.0394
0
LINE
8
Black
10
71.2091
20
-15.0394
11
71.2091
21
-14.7606
0
LINE
8
Black
10
71.2091
20
-14.7606
11
71.3045
21
-14.4985
0
LINE
8
Black
10
71.3045
20
-14.4985
11
71.4838
21
-14.2848
0
LINE
8
Black
10
71.4838
20
-14.2848
11
71.7253
21
-14.1454
0
LINE
8
Black
10
71.7253
20
-14.1454
11
72
21
-14.0969
0
LINE
8
Black
10
72
20
-14.0969
11
72.2747
21
-14.1454
0
LINE
8
Black
10
4.26631
20
-9.89459
11
4.94018
21
-10.2837
0
LINE
8
Black
10
4.94018
20
-10.2837
11
5.44035
21
-10.8797
0
LINE
8
Black
10
5.44035
20
-10.8797
11
5.70649
21
-11.6109
0
LINE
8
Black
10
5.70649
20
-11.6109
11
5.70649
21
-12.3891
0
LINE
8
Black
10
5.70649
20
-12.3891
11
5.44035
21
-13.1203
0
LINE
8
Black
10
5.44035
20
-13.1203
11
4.94018
21
-13.7163
0
LINE
8
Black
10
4.94018
20
-13.7163
11
4.26631
21
-14.1054
0
LINE
8
Black
10
4.26631
20
-14.1054
11
3.5
21
-14.2405
0
LINE
8
Black
10
3.5
20
-14.2405
11
2.73369
21
-14.1054
0
LINE
8
Black
10
2.73369
20
-14.1054
11
2.05982
21
-13.7163
0
LINE
8
Black
10
2.05982
20
-13.7163
11
1.55965
21
-13.1203
0
LINE
8
Black
10
1.55965
20
-13.1203
11
1.29351
21
-12.3891
0
LINE
8
Black
10
1.29351
20
-12.3891
11
1.29351
21
-11.6109
0
LINE
8
Black
10
1.29351
20
-11.6109
11
1.55965
21
-10.8797
0
LINE
8
Black
10
1.55965
20
-10.8797
11
2.05982
21
-10.2837
0
LINE
8
Black
10
2.05982
20
-10.2837
11
2.73369
21
-9.89459
0
LINE
8
Black
10
2.73369
20
-9.89459
11
3.5
21
-9.75947
0
LINE
8
Black
10
3.5
20
-9.75947
11
4.26631
21
-9.89459
0
LINE
8
Black
10
36.4978
20
-10.8822
11
36.9356
21
-11.135
0
LINE
8
Black
10
36.9356
20
-11.135
11
37.2605
21
-11.5222
0
LINE
8
Black
10
37.2605
20
-11.5222
11
37.4334
21
-11.9972
0
LINE
8
Black
10
37.4334
20
-11.9972
11
37.4334
21
-12.5028
0
LINE
8
Black
10
37.4334
20
-12.5028
11
37.2605
21
-12.9778
0
LINE
8
Black
10
37.2605
20
-12.9778
11
36.9356
21
-13.365
0
LINE
8
Black
10
36.9356
20
-13.365
11
36.4978
21
-13.6178
0
LINE
8
Black
10
36.4978
20
-13.6178
11
36
21
-13.7055
0
LINE
8
Black
10
36
20
-13.7055
11
35.5022
21
-13.6178
0
LINE
8
Black
10
35.5022
20
-13.6178
11
35.0644
21
-13.365
0
LINE
8
Black
10
35.0644
20
-13.365
11
34.7395
21
-12.9778
0
LINE
8
Black
10
34.7395
20
-12.9778
11
34.5666
21
-12.5028
0
LINE
8
Black
10
34.5666
20
-12.5028
11
34.5666
21
-11.9972
0
LINE
8
Black
10
34.5666
20
-11.9972
11
34.7395
21
-11.5222
0
LINE
8
Black
10
34.7395
20
-11.5222
11
35.0644
21
-11.135
0
LINE
8
Black
10
35.0644
20
-11.135
11
35.5022
21
-10.8822
0
LINE
8
Black
10
35.5022
20
-10.8822
11
36
21
-10.7945
0
LINE
8
Black
10
36
20
-10.7945
11
36.4978
21
-10.8822
0
LINE
8
Black
10
31.4178
20
-10.8822
11
31.8556
21
-11.135
0
LINE
8
Black
10
31.8556
20
-11.135
11
32.1805
21
-11.5222
0
LINE
8
Black
10
32.1805
20
-11.5222
11
32.3534
21
-11.9972
0
LINE
8
Black
10
32.3534
20
-11.9972
11
32.3534
21
-12.5028
0
LINE
8
Black
10
32.3534
20
-12.5028
11
32.1805
21
-12.9778
0
LINE
8
Black
10
32.1805
20
-12.9778
11
31.8556
21
-13.365
0
LINE
8
Black
10
31.8556
20
-13.365
11
31.4178
21
-13.6178
0
LINE
8
Black
10
31.4178
20
-13.6178
11
30.92
21
-13.7055
0
LINE
8
Black
10
30.92
20
-13.7055
11
30.4222
21
-13.6178
0
LINE
8
Black
10
30.4222
20
-13.6178
11
29.9844
21
-13.365
0
LINE
8
Black
10
29.9844
20
-13.365
11
29.6595
21
-12.9778
0
LINE
8
Black
10
29.6595
20
-12.9778
11
29.4866
21
-12.5028
0
LINE
8
Black
10
29.4866
20
-12.5028
11
29.4866
21
-11.9972
0
LINE
8
Black
10
29.4866
20
-11.9972
11
29.6595
21
-11.5222
0
LINE
8
Black
10
29.6595
20
-11.5222
11
29.9844
21
-11.135
0
LINE
8
Black
10
29.9844
20
-11.135
11
30.4222
21
-10.8822
0
LINE
8
Black
10
30.4222
20
-10.8822
11
30.92
21
-10.7945
0
LINE
8
Black
10
30.92
20
-10.7945
11
31.4178
21
-10.8822
0
LINE
8
Black
10
57.4178
20
-10.8822
11
57.8556
21
-11.135
0
LINE
8
Black
10
57.8556
20
-11.135
11
58.1805
21
-11.5222
0
LINE
8
Black
10
58.1805
20
-11.5222
11
58.3534
21
-11.9972
0
LINE
8
Black
10
58.3534
20
-11.9972
11
58.3534
21
-12.5028
0
LINE
8
Black
10
58.3534
20
-12.5028
11
58.1805
21
-12.9778
0
LINE
8
Black
10
58.1805
20
-12.9778
11
57.8556
21
-13.365
0
LINE
8
Black
10
57.8556
20
-13.365
11
57.4178
21
-13.6178
0
LINE
8
Black
10
57.4178
20
-13.6178
11
56.92
21
-13.7055
0
LINE
8
Black
10
56.92
20
-13.7055
11
56.4222
21
-13.6178
0
LINE
8
Black
10
56.4222
20
-13.6178
11
55.9844
21
-13.365
0
LINE
8
Black
10
55.9844
20
-13.365
11
55.6595
21
-12.9778
0
LINE
8
Black
10
55.6595
20
-12.9778
11
55.4866
21
-12.5028
0
LINE
8
Black
10
55.4866
20
-12.5028
11
55.4866
21
-11.9972
0
LINE
8
Black
10
55.4866
20
-11.9972
11
55.6595
21
-11.5222
0
LINE
8
Black
10
55.6595
20
-11.5222
11
55.9844
21
-11.135
0
LINE
8
Black
10
55.9844
20
-11.135
11
56.4222
21
-10.8822
0
LINE
8
Black
10
56.4222
20
-10.8822
11
56.92
21
-10.7945
0
LINE
8
Black
10
56.92
20
-10.7945
11
57.4178
21
-10.8822
0
LINE
8
Black
10
62.4978
20
-10.8822
11
62.9356
21
-11.135
0
LINE
8
Black
10
62.9356
20
-11.135
11
63.2605
21
-11.5222
0
LINE
8
Black
10
63.2605
20
-11.5222
11
63.4334
21
-11.9972
0
LINE
8
Black
10
63.4334
20
-11.9972
11
63.4334
21
-12.5028
0
LINE
8
Black
10
63.4334
20
-12.5028
11
63.2605
21
-12.9778
0
LINE
8
Black
10
63.2605
20
-12.9778
11
62.9356
21
-13.365
0
LINE
8
Black
10
62.9356
20
-13.365
11
62.4978
21
-13.6178
0
LINE
8
Black
10
62.4978
20
-13.6178
11
62
21
-13.7055
0
LINE
8
Black
10
62
20
-13.7055
11
61.5022
21
-13.6178
0
LINE
8
Black
10
61.5022
20
-13.6178
11
61.0644
21
-13.365
0
LINE
8
Black
10
61.0644
20
-13.365
11
60.7395
21
-12.9778
0
LINE
8
Black
10
60.7395
20
-12.9778
11
60.5666
21
-12.5028
0
LINE
8
Black
10
60.5666
20
-12.5028
11
60.5666
21
-11.9972
0
LINE
8
Black
10
60.5666
20
-11.9972
11
60.7395
21
-11.5222
0
LINE
8
Black
10
60.7395
20
-11.5222
11
61.0644
21
-11.135
0
LINE
8
Black
10
61.0644
20
-11.135
11
61.5022
21
-10.8822
0
LINE
8
Black
10
61.5022
20
-10.8822
11
62
21
-10.7945
0
LINE
8
Black
10
62
20
-10.7945
11
62.4978
21
-10.8822
0
LINE
8
Black
10
10.372
20
-10.8681
11
10.7343
21
-11.0772
0
LINE
8
Black
10
10.7343
20
-11.0772
11
11.0032
21
-11.3977
0
LINE
8
Black
10
11.0032
20
-11.3977
11
11.1463
21
-11.7908
0
LINE
8
Black
10
11.1463
20
-11.7908
11
11.1463
21
-12.2092
0
LINE
8
Black
10
11.1463
20
-12.2092
11
11.0032
21
-12.6023
0
LINE
8
Black
10
11.0032
20
-12.6023
11
10.7343
21
-12.9228
0
LINE
8
Black
10
10.7343
20
-12.9228
11
10.372
21
-13.1319
0
LINE
8
Black
10
10.372
20
-13.1319
11
9.96
21
-13.2046
0
LINE
8
Black
10
9.96
20
-13.2046
11
9.54801
21
-13.1319
0
LINE
8
Black
10
9.54801
20
-13.1319
11
9.18571
21
-12.9228
0
LINE
8
Black
10
9.18571
20
-12.9228
11
8.9168
21
-12.6023
0
LINE
8
Black
10
8.9168
20
-12.6023
11
8.77372
21
-12.2092
0
LINE
8
Black
10
8.77372
20
-12.2092
11
8.77372
21
-11.7908
0
LINE
8
Black
10
8.77372
20
-11.7908
11
8.9168
21
-11.3977
0
LINE
8
Black
10
8.9168
20
-11.3977
11
9.18571
21
-11.0772
0
LINE
8
Black
10
9.18571
20
-11.0772
11
9.54801
21
-10.8681
0
LINE
8
Black
10
9.54801
20
-10.8681
11
9.96
21
-10.7954
0
LINE
8
Black
10
9.96
20
-10.7954
11
10.372
21
-10.8681
0
LINE
8
Black
10
15.452
20
-10.8681
11
15.8143
21
-11.0772
0
LINE
8
Black
10
15.8143
20
-11.0772
11
16.0832
21
-11.3977
0
LINE
8
Black
10
16.0832
20
-11.3977
11
16.2263
21
-11.7908
0
LINE
8
Black
10
16.2263
20
-11.7908
11
16.2263
21
-12.2092
0
LINE
8
Black
10
16.2263
20
-12.2092
11
16.0832
21
-12.6023
0
LINE
8
Black
10
16.0832
20
-12.6023
11
15.8143
21
-12.9228
0
LINE
8
Black
10
15.8143
20
-12.9228
11
15.452
21
-13.1319
0
LINE
8
Black
10
15.452
20
-13.1319
11
15.04
21
-13.2046
0
LINE
8
Black
10
15.04
20
-13.2046
11
14.628
21
-13.1319
0
LINE
8
Black
10
14.628
20
-13.1319
11
14.2657
21
-12.9228
0
LINE
8
Black
10
14.2657
20
-12.9228
11
13.9968
21
-12.6023
0
LINE
8
Black
10
13.9968
20
-12.6023
11
13.8537
21
-12.2092
0
LINE
8
Black
10
13.8537
20
-12.2092
11
13.8537
21
-11.7908
0
LINE
8
Black
10
13.8537
20
-11.7908
11
13.9968
21
-11.3977
0
LINE
8
Black
10
13.9968
20
-11.3977
11
14.2657
21
-11.0772
0
LINE
8
Black
10
14.2657
20
-11.0772
11
14.628
21
-10.8681
0
LINE
8
Black
10
14.628
20
-10.8681
11
15.04
21
-10.7954
0
LINE
8
Black
10
15.04
20
-10.7954
11
15.452
21
-10.8681
0
LINE
8
Black
10
54.037
20
-2.08314
11
54.8522
21
-2.55378
0
LINE
8
Black
10
54.8522
20
-2.55378
11
55.4572
21
-3.27484
0
LINE
8
Black
10
55.4572
20
-3.27484
11
55.7791
21
-4.15936
0
LINE
8
Black
10
55.7791
20
-4.15936
11
55.7791
21
-5.10064
0
LINE
8
Black
10
55.7791
20
-5.10064
11
55.4572
21
-5.98516
0
LINE
8
Black
10
55.4572
20
-5.98516
11
54.8522
21
-6.70622
0
LINE
8
Black
10
54.8522
20
-6.70622
11
54.037
21
-7.17686
0
LINE
8
Black
10
54.037
20
-7.17686
11
53.11
21
-7.34031
0
LINE
8
Black
10
53.11
20
-7.34031
11
52.183
21
-7.17686
0
LINE
8
Black
10
52.183
20
-7.17686
11
51.3678
21
-6.70622
0
LINE
8
Black
10
51.3678
20
-6.70622
11
50.7628
21
-5.98516
0
LINE
8
Black
10
50.7628
20
-5.98516
11
50.4409
21
-5.10064
0
LINE
8
Black
10
50.4409
20
-5.10064
11
50.4409
21
-4.15936
0
LINE
8
Black
10
50.4409
20
-4.15936
11
50.7628
21
-3.27484
0
LINE
8
Black
10
50.7628
20
-3.27484
11
51.3678
21
-2.55378
0
LINE
8
Black
10
51.3678
20
-2.55378
11
52.183
21
-2.08314
0
LINE
8
Black
10
52.183
20
-2.08314
11
53.11
21
-1.91969
0
LINE
8
Black
10
53.11
20
-1.91969
11
54.037
21
-2.08314
0
LINE
8
Black
10
66.737
20
-2.08314
11
67.5522
21
-2.55378
0
LINE
8
Black
10
67.5522
20
-2.55378
11
68.1572
21
-3.27484
0
LINE
8
Black
10
68.1572
20
-3.27484
11
68.4791
21
-4.15936
0
LINE
8
Black
10
68.4791
20
-4.15936
11
68.4791
21
-5.10064
0
LINE
8
Black
10
68.4791
20
-5.10064
11
68.1572
21
-5.98516
0
LINE
8
Black
10
68.1572
20
-5.98516
11
67.5522
21
-6.70622
0
LINE
8
Black
10
67.5522
20
-6.70622
11
66.737
21
-7.17686
0
LINE
8
Black
10
66.737
20
-7.17686
11
65.81
21
-7.34031
0
LINE
8
Black
10
65.81
20
-7.34031
11
64.883
21
-7.17686
0
LINE
8
Black
10
64.883
20
-7.17686
11
64.0678
21
-6.70622
0
LINE
8
Black
10
64.0678
20
-6.70622
11
63.4628
21
-5.98516
0
LINE
8
Black
10
63.4628
20
-5.98516
11
63.1409
21
-5.10064
0
LINE
8
Black
10
63.1409
20
-5.10064
11
63.1409
21
-4.15936
0
LINE
8
Black
10
63.1409
20
-4.15936
11
63.4628
21
-3.27484
0
LINE
8
Black
10
63.4628
20
-3.27484
11
64.0678
21
-2.55378
0
LINE
8
Black
10
64.0678
20
-2.55378
11
64.883
21
-2.08314
0
LINE
8
Black
10
64.883
20
-2.08314
11
65.81
21
-1.91969
0
LINE
8
Black
10
65.81
20
-1.91969
11
66.737
21
-2.08314
0
LINE
8
Black
10
28.037
20
-2.08314
11
28.8522
21
-2.55378
0
LINE
8
Black
10
28.8522
20
-2.55378
11
29.4572
21
-3.27484
0
LINE
8
Black
10
29.4572
20
-3.27484
11
29.7791
21
-4.15936
0
LINE
8
Black
10
29.7791
20
-4.15936
11
29.7791
21
-5.10064
0
LINE
8
Black
10
29.7791
20
-5.10064
11
29.4572
21
-5.98516
0
LINE
8
Black
10
29.4572
20
-5.98516
11
28.8522
21
-6.70622
0
LINE
8
Black
10
28.8522
20
-6.70622
11
28.037
21
-7.17686
0
LINE
8
Black
10
28.037
20
-7.17686
11
27.11
21
-7.34031
0
LINE
8
Black
10
27.11
20
-7.34031
11
26.183
21
-7.17686
0
LINE
8
Black
10
26.183
20
-7.17686
11
25.3678
21
-6.70622
0
LINE
8
Black
10
25.3678
20
-6.70622
11
24.7628
21
-5.98516
0
LINE
8
Black
10
24.7628
20
-5.98516
11
24.4409
21
-5.10064
0
LINE
8
Black
10
24.4409
20
-5.10064
11
24.4409
21
-4.15936
0
LINE
8
Black
10
24.4409
20
-4.15936
11
24.7628
21
-3.27484
0
LINE
8
Black
10
24.7628
20
-3.27484
11
25.3678
21
-2.55378
0
LINE
8
Black
10
25.3678
20
-2.55378
11
26.183
21
-2.08314
0
LINE
8
Black
10
26.183
20
-2.08314
11
27.11
21
-1.91969
0
LINE
8
Black
10
27.11
20
-1.91969
11
28.037
21
-2.08314
0
LINE
8
Black
10
40.737
20
-2.08314
11
41.5522
21
-2.55378
0
LINE
8
Black
10
41.5522
20
-2.55378
11
42.1572
21
-3.27484
0
LINE
8
Black
10
42.1572
20
-3.27484
11
42.4791
21
-4.15936
0
LINE
8
Black
10
42.4791
20
-4.15936
11
42.4791
21
-5.10064
0
LINE
8
Black
10
42.4791
20
-5.10064
11
42.1572
21
-5.98516
0
LINE
8
Black
10
42.1572
20
-5.98516
11
41.5522
21
-6.70622
0
LINE
8
Black
10
41.5522
20
-6.70622
11
40.737
21
-7.17686
0
LINE
8
Black
10
40.737
20
-7.17686
11
39.81
21
-7.34031
0
LINE
8
Black
10
39.81
20
-7.34031
11
38.883
21
-7.17686
0
LINE
8
Black
10
38.883
20
-7.17686
11
38.0678
21
-6.70622
0
LINE
8
Black
10
38.0678
20
-6.70622
11
37.4628
21
-5.98516
0
LINE
8
Black
10
37.4628
20
-5.98516
11
37.1409
21
-5.10064
0
LINE
8
Black
10
37.1409
20
-5.10064
11
37.1409
21
-4.15936
0
LINE
8
Black
10
37.1409
20
-4.15936
11
37.4628
21
-3.27484
0
LINE
8
Black
10
37.4628
20
-3.27484
11
38.0678
21
-2.55378
0
LINE
8
Black
10
38.0678
20
-2.55378
11
38.883
21
-2.08314
0
LINE
8
Black
10
38.883
20
-2.08314
11
39.81
21
-1.91969
0
LINE
8
Black
10
39.81
20
-1.91969
11
40.737
21
-2.08314
0
LINE
8
Black
10
13.2553
20
-2.30478
11
13.9195
21
-2.68826
0
LINE
8
Black
10
13.9195
20
-2.68826
11
14.4125
21
-3.2758
0
LINE
8
Black
10
14.4125
20
-3.2758
11
14.6749
21
-3.99652
0
LINE
8
Black
10
14.6749
20
-3.99652
11
14.6749
21
-4.76349
0
LINE
8
Black
10
14.6749
20
-4.76349
11
14.4125
21
-5.4842
0
LINE
8
Black
10
14.4125
20
-5.4842
11
13.9195
21
-6.07174
0
LINE
8
Black
10
13.9195
20
-6.07174
11
13.2553
21
-6.45522
0
LINE
8
Black
10
13.2553
20
-6.45522
11
12.5
21
-6.5884
0
LINE
8
Black
10
12.5
20
-6.5884
11
11.7447
21
-6.45522
0
LINE
8
Black
10
11.7447
20
-6.45522
11
11.0805
21
-6.07174
0
LINE
8
Black
10
11.0805
20
-6.07174
11
10.5875
21
-5.4842
0
LINE
8
Black
10
10.5875
20
-5.4842
11
10.3251
21
-4.76349
0
LINE
8
Black
10
10.3251
20
-4.76349
11
10.3251
21
-3.99652
0
LINE
8
Black
10
10.3251
20
-3.99652
11
10.5875
21
-3.2758
0
LINE
8
Black
10
10.5875
20
-3.2758
11
11.0805
21
-2.68826
0
LINE
8
Black
10
11.0805
20
-2.68826
11
11.7447
21
-2.30478
0
LINE
8
Black
10
11.7447
20
-2.30478
11
12.5
21
-2.1716
0
LINE
8
Black
10
12.5
20
-2.1716
11
13.2553
21
-2.30478
  0
ENDSEC
  0
EOF
