M48
;DRILL file {Pcbnew (2013-07-07 BZR 4022)-stable} date 2015/05/03 21:08:00
;FORMAT={-:-/ absolute / metric / decimal}
FMAT,2
METRIC,TZ
T1C0.500
T2C0.600
T3C0.635
T4C0.813
T5C1.000
T6C1.016
T7C2.000
T8C3.500
%
G90
G05
M71
T1
X223.012Y-137.16
X223.52Y-135.89
X223.52Y-138.43
X224.79Y-135.382
X224.79Y-138.938
X226.06Y-135.89
X226.06Y-138.43
X226.568Y-137.16
X231.902Y-137.16
X232.41Y-135.89
X232.41Y-138.43
X233.68Y-135.382
X233.68Y-138.938
X234.95Y-135.89
X234.95Y-138.43
X235.458Y-137.16
X240.792Y-137.16
X241.3Y-135.89
X241.3Y-138.43
X242.57Y-135.382
X242.57Y-138.938
X243.84Y-135.89
X243.84Y-138.43
X244.348Y-137.16
X249.682Y-137.16
X250.19Y-135.89
X250.19Y-138.43
X251.46Y-135.382
X251.46Y-138.938
X252.73Y-135.89
X252.73Y-138.43
X253.238Y-137.16
X253.492Y-116.84
X253.492Y-157.226
X254.Y-115.57
X254.Y-118.11
X254.Y-155.956
X254.Y-158.496
X255.27Y-115.062
X255.27Y-118.618
X255.27Y-155.448
X255.27Y-159.004
X256.54Y-115.57
X256.54Y-118.11
X256.54Y-155.956
X256.54Y-158.496
X257.048Y-116.84
X257.048Y-157.226
X258.572Y-137.16
X259.08Y-135.89
X259.08Y-138.43
X260.35Y-135.382
X260.35Y-138.938
X261.62Y-135.89
X261.62Y-138.43
X262.128Y-137.16
X267.462Y-137.16
X267.97Y-135.89
X267.97Y-138.43
X269.24Y-135.382
X269.24Y-138.938
X270.51Y-135.89
X270.51Y-138.43
X271.018Y-137.16
X276.352Y-137.16
X276.86Y-135.89
X276.86Y-138.43
X278.13Y-135.382
X278.13Y-138.938
X279.4Y-135.89
X279.4Y-138.43
X279.908Y-137.16
X285.242Y-137.16
X285.75Y-135.89
X285.75Y-138.43
X287.02Y-135.382
X287.02Y-138.938
X288.29Y-135.89
X288.29Y-138.43
X288.798Y-137.16
T2
X298.069Y-165.1
X298.069Y-167.64
X298.069Y-170.18
X298.069Y-175.26
X298.069Y-177.8
T3
X218.757Y-177.8
X220.662Y-177.8
X221.615Y-132.08
X221.615Y-147.32
X226.06Y-176.911
X226.06Y-181.292
X226.187Y-183.769
X226.949Y-184.531
X227.076Y-162.814
X227.711Y-185.293
X228.473Y-186.055
X229.235Y-186.817
X230.505Y-132.08
X230.505Y-147.32
X231.775Y-177.927
X232.537Y-184.531
X233.68Y-176.911
X233.68Y-181.292
X235.966Y-184.531
X236.855Y-181.61
X236.855Y-188.341
X239.395Y-132.08
X239.395Y-147.32
X239.395Y-177.927
X239.649Y-161.036
X240.919Y-164.338
X241.3Y-176.911
X241.3Y-181.292
X241.935Y-161.036
X244.221Y-161.036
X244.475Y-180.975
X245.364Y-161.036
X245.999Y-188.341
X246.507Y-163.322
X247.015Y-177.927
X247.65Y-162.433
X248.285Y-132.08
X248.285Y-147.32
X248.793Y-161.036
X248.92Y-176.911
X248.92Y-181.292
X249.936Y-184.531
X250.698Y-185.801
X251.079Y-161.036
X251.079Y-162.433
X252.095Y-181.61
X252.222Y-161.036
X254.635Y-177.927
X255.27Y-192.532
X255.905Y-182.88
X256.54Y-176.911
X256.54Y-181.292
X257.175Y-132.08
X257.175Y-147.32
X257.556Y-163.195
X257.873Y-184.658
X258.318Y-161.036
X260.35Y-185.166
X260.604Y-161.036
X260.921Y-183.706
X261.493Y-185.166
X261.747Y-161.036
X262.255Y-177.927
X262.255Y-185.928
X262.89Y-163.703
X263.017Y-186.69
X264.033Y-161.036
X264.16Y-176.911
X264.16Y-181.292
X265.176Y-161.036
X266.065Y-132.08
X266.065Y-147.32
X266.319Y-161.925
X266.446Y-184.531
X267.335Y-181.483
X267.335Y-188.341
X268.605Y-161.036
X269.875Y-177.927
X271.78Y-176.911
X271.78Y-181.292
X274.447Y-183.261
X274.955Y-132.08
X274.955Y-147.32
X274.955Y-180.848
X275.844Y-161.925
X275.844Y-163.703
X276.987Y-188.341
X277.495Y-177.927
X279.019Y-194.754
X279.4Y-176.911
X279.4Y-181.292
X280.416Y-187.579
X282.575Y-181.483
X282.575Y-184.531
X283.591Y-161.036
X283.845Y-132.08
X283.845Y-147.32
X285.115Y-177.927
X288.671Y-172.593
T4
X218.059Y-168.656
X221.869Y-168.656
X251.587Y-196.342
X254.127Y-196.342
X290.195Y-181.356
X290.195Y-183.896
X291.465Y-163.83
X291.465Y-167.64
X297.815Y-181.356
X297.815Y-183.896
T5
X222.25Y-149.86
X222.25Y-152.4
X222.25Y-154.94
X222.25Y-157.48
X223.52Y-115.57
X223.52Y-118.11
X223.52Y-151.13
X223.52Y-153.67
X223.52Y-156.21
X223.52Y-158.75
X224.79Y-116.84
X224.79Y-119.38
X224.79Y-149.86
X224.79Y-152.4
X224.79Y-154.94
X224.79Y-157.48
X226.06Y-115.57
X226.06Y-118.11
X226.06Y-151.13
X226.06Y-153.67
X226.06Y-156.21
X226.06Y-158.75
X227.33Y-116.84
X227.33Y-119.38
X227.33Y-152.4
X227.33Y-154.94
X227.33Y-157.48
X228.6Y-115.57
X228.6Y-118.11
X228.6Y-151.13
X228.6Y-153.67
X228.6Y-156.21
X228.6Y-158.75
X229.87Y-116.84
X229.87Y-119.38
X229.87Y-152.4
X229.87Y-154.94
X229.87Y-157.48
X231.14Y-115.57
X231.14Y-118.11
X231.14Y-151.13
X231.14Y-153.67
X231.14Y-156.21
X231.14Y-158.75
X232.41Y-116.84
X232.41Y-119.38
X232.41Y-152.4
X232.41Y-154.94
X232.41Y-157.48
X233.68Y-115.57
X233.68Y-118.11
X233.68Y-151.13
X233.68Y-153.67
X233.68Y-156.21
X233.68Y-158.75
X234.95Y-116.84
X234.95Y-119.38
X234.95Y-152.4
X234.95Y-154.94
X234.95Y-157.48
X236.22Y-115.57
X236.22Y-118.11
X236.22Y-153.67
X236.22Y-156.21
X236.22Y-158.75
X237.49Y-116.84
X237.49Y-119.38
X237.49Y-154.94
X237.49Y-157.48
X238.76Y-115.57
X238.76Y-118.11
X240.03Y-116.84
X240.03Y-119.38
X241.3Y-115.57
X241.3Y-118.11
X242.57Y-116.84
X242.57Y-119.38
X243.84Y-115.57
X243.84Y-118.11
X245.11Y-116.84
X245.11Y-119.38
X246.38Y-115.57
X246.38Y-118.11
X247.65Y-116.84
X247.65Y-119.38
X248.92Y-115.57
X248.92Y-118.11
X250.19Y-116.84
X250.19Y-119.38
X251.46Y-115.57
X251.46Y-118.11
X252.73Y-119.38
X257.81Y-119.38
X259.08Y-115.57
X259.08Y-118.11
X260.35Y-116.84
X260.35Y-119.38
X261.62Y-115.57
X261.62Y-118.11
X262.89Y-116.84
X262.89Y-119.38
X264.16Y-115.57
X264.16Y-118.11
X265.43Y-116.84
X265.43Y-119.38
X266.7Y-115.57
X266.7Y-118.11
X267.97Y-116.84
X267.97Y-119.38
X269.24Y-115.57
X269.24Y-118.11
X270.51Y-116.84
X270.51Y-119.38
X271.78Y-115.57
X271.78Y-118.11
X273.05Y-116.84
X273.05Y-119.38
X273.05Y-153.67
X273.05Y-156.21
X273.05Y-158.75
X274.32Y-115.57
X274.32Y-118.11
X274.32Y-152.4
X274.32Y-154.94
X274.32Y-157.48
X275.59Y-116.84
X275.59Y-119.38
X275.59Y-153.67
X275.59Y-156.21
X275.59Y-158.75
X276.86Y-115.57
X276.86Y-118.11
X276.86Y-152.4
X276.86Y-154.94
X276.86Y-157.48
X278.13Y-116.84
X278.13Y-119.38
X278.13Y-153.67
X278.13Y-156.21
X278.13Y-158.75
X279.4Y-115.57
X279.4Y-118.11
X279.4Y-152.4
X279.4Y-154.94
X279.4Y-157.48
X280.67Y-116.84
X280.67Y-119.38
X280.67Y-151.13
X280.67Y-153.67
X280.67Y-156.21
X280.67Y-158.75
X281.94Y-115.57
X281.94Y-118.11
X281.94Y-152.4
X281.94Y-154.94
X281.94Y-157.48
X283.21Y-116.84
X283.21Y-119.38
X283.21Y-151.13
X283.21Y-153.67
X283.21Y-156.21
X283.21Y-158.75
X284.48Y-115.57
X284.48Y-118.11
X284.48Y-152.4
X284.48Y-154.94
X284.48Y-157.48
X285.75Y-116.84
X285.75Y-119.38
X285.75Y-151.13
X285.75Y-153.67
X285.75Y-156.21
X285.75Y-158.75
X287.02Y-115.57
X287.02Y-118.11
X287.02Y-149.86
X287.02Y-152.4
X287.02Y-154.94
X287.02Y-157.48
X288.29Y-116.84
X288.29Y-119.38
X288.29Y-151.13
X288.29Y-153.67
X288.29Y-156.21
X288.29Y-158.75
X289.56Y-115.57
X289.56Y-118.11
X289.56Y-149.86
X289.56Y-152.4
X289.56Y-154.94
X289.56Y-157.48
T6
X212.09Y-130.81
X212.09Y-142.24
X212.09Y-153.67
X217.17Y-130.81
X217.17Y-142.24
X217.17Y-153.67
X230.124Y-197.612
X230.124Y-200.152
X232.664Y-197.612
X232.664Y-200.152
X235.204Y-197.612
X235.204Y-200.152
X237.744Y-197.612
X237.744Y-200.152
X240.284Y-197.612
X240.284Y-200.152
X271.78Y-197.612
X271.78Y-200.152
X274.32Y-197.612
X274.32Y-200.152
X276.86Y-197.612
X276.86Y-200.152
X279.4Y-197.612
X279.4Y-200.152
X281.94Y-197.612
X281.94Y-200.152
X290.83Y-191.389
X293.37Y-191.389
X295.275Y-130.81
X295.275Y-142.24
X295.275Y-153.67
X300.355Y-130.81
X300.355Y-142.24
X300.355Y-153.67
T7
X224.79Y-137.16
X233.68Y-137.16
X242.57Y-137.16
X251.46Y-137.16
X255.27Y-116.84
X255.27Y-157.226
X260.35Y-137.16
X269.24Y-137.16
X278.13Y-137.16
X287.02Y-137.16
T8
X213.741Y-118.491
X213.741Y-198.628
X298.704Y-118.491
X298.704Y-198.628
T0
M30
