G04 #@! TF.FileFunction,Legend,Top*
%FSLAX46Y46*%
G04 Gerber Fmt 4.6, Leading zero omitted, Abs format (unit mm)*
G04 Created by KiCad (PCBNEW 4.0.5) date 03/15/17 13:23:36*
%MOMM*%
%LPD*%
G01*
G04 APERTURE LIST*
%ADD10C,0.100000*%
%ADD11C,0.300000*%
%ADD12C,0.200000*%
%ADD13C,0.500000*%
%ADD14C,0.150000*%
%ADD15C,0.101600*%
G04 APERTURE END LIST*
D10*
D11*
X8678571Y-48621428D02*
X7964286Y-49121428D01*
X8678571Y-49478571D02*
X7178571Y-49478571D01*
X7178571Y-48907143D01*
X7250000Y-48764285D01*
X7321429Y-48692857D01*
X7464286Y-48621428D01*
X7678571Y-48621428D01*
X7821429Y-48692857D01*
X7892857Y-48764285D01*
X7964286Y-48907143D01*
X7964286Y-49478571D01*
X8607143Y-48050000D02*
X8678571Y-47835714D01*
X8678571Y-47478571D01*
X8607143Y-47335714D01*
X8535714Y-47264285D01*
X8392857Y-47192857D01*
X8250000Y-47192857D01*
X8107143Y-47264285D01*
X8035714Y-47335714D01*
X7964286Y-47478571D01*
X7892857Y-47764285D01*
X7821429Y-47907143D01*
X7750000Y-47978571D01*
X7607143Y-48050000D01*
X7464286Y-48050000D01*
X7321429Y-47978571D01*
X7250000Y-47907143D01*
X7178571Y-47764285D01*
X7178571Y-47407143D01*
X7250000Y-47192857D01*
X7178571Y-46764286D02*
X7178571Y-45907143D01*
X8678571Y-46335714D02*
X7178571Y-46335714D01*
X20628572Y-45578571D02*
X20628572Y-46792857D01*
X20700000Y-46935714D01*
X20771429Y-47007143D01*
X20914286Y-47078571D01*
X21200000Y-47078571D01*
X21342858Y-47007143D01*
X21414286Y-46935714D01*
X21485715Y-46792857D01*
X21485715Y-45578571D01*
X22128572Y-47007143D02*
X22342858Y-47078571D01*
X22700001Y-47078571D01*
X22842858Y-47007143D01*
X22914287Y-46935714D01*
X22985715Y-46792857D01*
X22985715Y-46650000D01*
X22914287Y-46507143D01*
X22842858Y-46435714D01*
X22700001Y-46364286D01*
X22414287Y-46292857D01*
X22271429Y-46221429D01*
X22200001Y-46150000D01*
X22128572Y-46007143D01*
X22128572Y-45864286D01*
X22200001Y-45721429D01*
X22271429Y-45650000D01*
X22414287Y-45578571D01*
X22771429Y-45578571D01*
X22985715Y-45650000D01*
X23628572Y-46292857D02*
X24128572Y-46292857D01*
X24342858Y-47078571D02*
X23628572Y-47078571D01*
X23628572Y-45578571D01*
X24342858Y-45578571D01*
X25842858Y-47078571D02*
X25342858Y-46364286D01*
X24985715Y-47078571D02*
X24985715Y-45578571D01*
X25557143Y-45578571D01*
X25700001Y-45650000D01*
X25771429Y-45721429D01*
X25842858Y-45864286D01*
X25842858Y-46078571D01*
X25771429Y-46221429D01*
X25700001Y-46292857D01*
X25557143Y-46364286D01*
X24985715Y-46364286D01*
D12*
X18161000Y-3175000D02*
X18161000Y-12700000D01*
X17780000Y-3175000D02*
X17780000Y-17780000D01*
X22500000Y-49500000D02*
X22500000Y-50000000D01*
X17500000Y-49500000D02*
X17500000Y-50000000D01*
X17500000Y0D02*
X17500000Y-500000D01*
X22500000Y-500000D02*
X22500000Y0D01*
D11*
X9914001Y-21022571D02*
X10914001Y-21022571D01*
X10271144Y-22522571D01*
X10699715Y-18482571D02*
X10414001Y-18482571D01*
X10271144Y-18554000D01*
X10199715Y-18625429D01*
X10056858Y-18839714D01*
X9985429Y-19125429D01*
X9985429Y-19696857D01*
X10056858Y-19839714D01*
X10128286Y-19911143D01*
X10271144Y-19982571D01*
X10556858Y-19982571D01*
X10699715Y-19911143D01*
X10771144Y-19839714D01*
X10842572Y-19696857D01*
X10842572Y-19339714D01*
X10771144Y-19196857D01*
X10699715Y-19125429D01*
X10556858Y-19054000D01*
X10271144Y-19054000D01*
X10128286Y-19125429D01*
X10056858Y-19196857D01*
X9985429Y-19339714D01*
X10771144Y-15942571D02*
X10056858Y-15942571D01*
X9985429Y-16656857D01*
X10056858Y-16585429D01*
X10199715Y-16514000D01*
X10556858Y-16514000D01*
X10699715Y-16585429D01*
X10771144Y-16656857D01*
X10842572Y-16799714D01*
X10842572Y-17156857D01*
X10771144Y-17299714D01*
X10699715Y-17371143D01*
X10556858Y-17442571D01*
X10199715Y-17442571D01*
X10056858Y-17371143D01*
X9985429Y-17299714D01*
X10699715Y-13902571D02*
X10699715Y-14902571D01*
X10342572Y-13331143D02*
X9985429Y-14402571D01*
X10914001Y-14402571D01*
X9914001Y-10862571D02*
X10842572Y-10862571D01*
X10342572Y-11434000D01*
X10556858Y-11434000D01*
X10699715Y-11505429D01*
X10771144Y-11576857D01*
X10842572Y-11719714D01*
X10842572Y-12076857D01*
X10771144Y-12219714D01*
X10699715Y-12291143D01*
X10556858Y-12362571D01*
X10128286Y-12362571D01*
X9985429Y-12291143D01*
X9914001Y-12219714D01*
X9985429Y-8465429D02*
X10056858Y-8394000D01*
X10199715Y-8322571D01*
X10556858Y-8322571D01*
X10699715Y-8394000D01*
X10771144Y-8465429D01*
X10842572Y-8608286D01*
X10842572Y-8751143D01*
X10771144Y-8965429D01*
X9914001Y-9822571D01*
X10842572Y-9822571D01*
X10842572Y-7282571D02*
X9985429Y-7282571D01*
X10414001Y-7282571D02*
X10414001Y-5782571D01*
X10271144Y-5996857D01*
X10128286Y-6139714D01*
X9985429Y-6211143D01*
X10342572Y-3242571D02*
X10485429Y-3242571D01*
X10628286Y-3314000D01*
X10699715Y-3385429D01*
X10771144Y-3528286D01*
X10842572Y-3814000D01*
X10842572Y-4171143D01*
X10771144Y-4456857D01*
X10699715Y-4599714D01*
X10628286Y-4671143D01*
X10485429Y-4742571D01*
X10342572Y-4742571D01*
X10199715Y-4671143D01*
X10128286Y-4599714D01*
X10056858Y-4456857D01*
X9985429Y-4171143D01*
X9985429Y-3814000D01*
X10056858Y-3528286D01*
X10128286Y-3385429D01*
X10199715Y-3314000D01*
X10342572Y-3242571D01*
X1546571Y-1812857D02*
X1546571Y-612857D01*
X2346572Y-612857D02*
X2575143Y-612857D01*
X2689429Y-670000D01*
X2803715Y-784286D01*
X2860857Y-1012857D01*
X2860857Y-1412857D01*
X2803715Y-1641429D01*
X2689429Y-1755714D01*
X2575143Y-1812857D01*
X2346572Y-1812857D01*
X2232286Y-1755714D01*
X2118000Y-1641429D01*
X2060857Y-1412857D01*
X2060857Y-1012857D01*
X2118000Y-784286D01*
X2232286Y-670000D01*
X2346572Y-612857D01*
X4232286Y-555714D02*
X3203715Y-2098571D01*
X4460858Y-612857D02*
X4860858Y-1812857D01*
X5260858Y-612857D01*
X6232286Y-1812857D02*
X5660857Y-1812857D01*
X5660857Y-612857D01*
X6460858Y-612857D02*
X6860858Y-1812857D01*
X7260858Y-612857D01*
D12*
X8128000Y-2032000D02*
X7620000Y-2032000D01*
X8128000Y-508000D02*
X7620000Y-508000D01*
X8128000Y-508000D02*
X8128000Y-2032000D01*
X9144000Y-1270000D02*
X8128000Y-1270000D01*
X10668000Y-2794000D02*
X9144000Y-1270000D01*
X15240000Y-23114000D02*
X15240000Y-2794000D01*
X10668000Y-23114000D02*
X15240000Y-23114000D01*
X15240000Y-2794000D02*
X10668000Y-2794000D01*
D11*
X26892857Y-49771428D02*
X26892857Y-49271428D01*
X27678571Y-49057142D02*
X27678571Y-49771428D01*
X26178571Y-49771428D01*
X26178571Y-49057142D01*
X27678571Y-48414285D02*
X26178571Y-48414285D01*
X27678571Y-47557142D01*
X26178571Y-47557142D01*
X27535714Y-45985713D02*
X27607143Y-46057142D01*
X27678571Y-46271428D01*
X27678571Y-46414285D01*
X27607143Y-46628570D01*
X27464286Y-46771428D01*
X27321429Y-46842856D01*
X27035714Y-46914285D01*
X26821429Y-46914285D01*
X26535714Y-46842856D01*
X26392857Y-46771428D01*
X26250000Y-46628570D01*
X26178571Y-46414285D01*
X26178571Y-46271428D01*
X26250000Y-46057142D01*
X26321429Y-45985713D01*
X26178571Y-45057142D02*
X26178571Y-44914285D01*
X26250000Y-44771428D01*
X26321429Y-44699999D01*
X26464286Y-44628570D01*
X26750000Y-44557142D01*
X27107143Y-44557142D01*
X27392857Y-44628570D01*
X27535714Y-44699999D01*
X27607143Y-44771428D01*
X27678571Y-44914285D01*
X27678571Y-45057142D01*
X27607143Y-45199999D01*
X27535714Y-45271428D01*
X27392857Y-45342856D01*
X27107143Y-45414285D01*
X26750000Y-45414285D01*
X26464286Y-45342856D01*
X26321429Y-45271428D01*
X26250000Y-45199999D01*
X26178571Y-45057142D01*
X26892857Y-37371428D02*
X26892857Y-36871428D01*
X27678571Y-36657142D02*
X27678571Y-37371428D01*
X26178571Y-37371428D01*
X26178571Y-36657142D01*
X27678571Y-36014285D02*
X26178571Y-36014285D01*
X27678571Y-35157142D01*
X26178571Y-35157142D01*
X27535714Y-33585713D02*
X27607143Y-33657142D01*
X27678571Y-33871428D01*
X27678571Y-34014285D01*
X27607143Y-34228570D01*
X27464286Y-34371428D01*
X27321429Y-34442856D01*
X27035714Y-34514285D01*
X26821429Y-34514285D01*
X26535714Y-34442856D01*
X26392857Y-34371428D01*
X26250000Y-34228570D01*
X26178571Y-34014285D01*
X26178571Y-33871428D01*
X26250000Y-33657142D01*
X26321429Y-33585713D01*
X27678571Y-32157142D02*
X27678571Y-33014285D01*
X27678571Y-32585713D02*
X26178571Y-32585713D01*
X26392857Y-32728570D01*
X26535714Y-32871428D01*
X26607143Y-33014285D01*
X26892857Y-25071428D02*
X26892857Y-24571428D01*
X27678571Y-24357142D02*
X27678571Y-25071428D01*
X26178571Y-25071428D01*
X26178571Y-24357142D01*
X27678571Y-23714285D02*
X26178571Y-23714285D01*
X27678571Y-22857142D01*
X26178571Y-22857142D01*
X27535714Y-21285713D02*
X27607143Y-21357142D01*
X27678571Y-21571428D01*
X27678571Y-21714285D01*
X27607143Y-21928570D01*
X27464286Y-22071428D01*
X27321429Y-22142856D01*
X27035714Y-22214285D01*
X26821429Y-22214285D01*
X26535714Y-22142856D01*
X26392857Y-22071428D01*
X26250000Y-21928570D01*
X26178571Y-21714285D01*
X26178571Y-21571428D01*
X26250000Y-21357142D01*
X26321429Y-21285713D01*
X26321429Y-20714285D02*
X26250000Y-20642856D01*
X26178571Y-20499999D01*
X26178571Y-20142856D01*
X26250000Y-19999999D01*
X26321429Y-19928570D01*
X26464286Y-19857142D01*
X26607143Y-19857142D01*
X26821429Y-19928570D01*
X27678571Y-20785713D01*
X27678571Y-19857142D01*
X26892857Y-12371428D02*
X26892857Y-11871428D01*
X27678571Y-11657142D02*
X27678571Y-12371428D01*
X26178571Y-12371428D01*
X26178571Y-11657142D01*
X27678571Y-11014285D02*
X26178571Y-11014285D01*
X27678571Y-10157142D01*
X26178571Y-10157142D01*
X27535714Y-8585713D02*
X27607143Y-8657142D01*
X27678571Y-8871428D01*
X27678571Y-9014285D01*
X27607143Y-9228570D01*
X27464286Y-9371428D01*
X27321429Y-9442856D01*
X27035714Y-9514285D01*
X26821429Y-9514285D01*
X26535714Y-9442856D01*
X26392857Y-9371428D01*
X26250000Y-9228570D01*
X26178571Y-9014285D01*
X26178571Y-8871428D01*
X26250000Y-8657142D01*
X26321429Y-8585713D01*
X26178571Y-8085713D02*
X26178571Y-7157142D01*
X26750000Y-7657142D01*
X26750000Y-7442856D01*
X26821429Y-7299999D01*
X26892857Y-7228570D01*
X27035714Y-7157142D01*
X27392857Y-7157142D01*
X27535714Y-7228570D01*
X27607143Y-7299999D01*
X27678571Y-7442856D01*
X27678571Y-7871428D01*
X27607143Y-8014285D01*
X27535714Y-8085713D01*
X1535714Y-23250000D02*
X1392857Y-23178571D01*
X1178571Y-23178571D01*
X964286Y-23250000D01*
X821428Y-23392857D01*
X750000Y-23535714D01*
X678571Y-23821429D01*
X678571Y-24035714D01*
X750000Y-24321429D01*
X821428Y-24464286D01*
X964286Y-24607143D01*
X1178571Y-24678571D01*
X1321428Y-24678571D01*
X1535714Y-24607143D01*
X1607143Y-24535714D01*
X1607143Y-24035714D01*
X1321428Y-24035714D01*
X3392857Y-24107143D02*
X4535714Y-24107143D01*
X3964285Y-24678571D02*
X3964285Y-23535714D01*
X6678571Y-23178571D02*
X6964285Y-23178571D01*
X7107143Y-23250000D01*
X7250000Y-23392857D01*
X7321428Y-23678571D01*
X7321428Y-24178571D01*
X7250000Y-24464286D01*
X7107143Y-24607143D01*
X6964285Y-24678571D01*
X6678571Y-24678571D01*
X6535714Y-24607143D01*
X6392857Y-24464286D01*
X6321428Y-24178571D01*
X6321428Y-23678571D01*
X6392857Y-23392857D01*
X6535714Y-23250000D01*
X6678571Y-23178571D01*
X7464286Y-30035715D02*
X7392857Y-29964286D01*
X7321429Y-29750000D01*
X7321429Y-29607143D01*
X7392857Y-29392858D01*
X7535714Y-29250000D01*
X7678571Y-29178572D01*
X7964286Y-29107143D01*
X8178571Y-29107143D01*
X8464286Y-29178572D01*
X8607143Y-29250000D01*
X8750000Y-29392858D01*
X8821429Y-29607143D01*
X8821429Y-29750000D01*
X8750000Y-29964286D01*
X8678571Y-30035715D01*
X7750000Y-30607143D02*
X7750000Y-31321429D01*
X7321429Y-30464286D02*
X8821429Y-30964286D01*
X7321429Y-31464286D01*
X7321429Y-31964286D02*
X8821429Y-31964286D01*
X7321429Y-32821429D01*
X8821429Y-32821429D01*
D12*
X18573905Y-28900381D02*
X18573905Y-27900381D01*
X18954858Y-27900381D01*
X19050096Y-27948000D01*
X19097715Y-27995619D01*
X19145334Y-28090857D01*
X19145334Y-28233714D01*
X19097715Y-28328952D01*
X19050096Y-28376571D01*
X18954858Y-28424190D01*
X18573905Y-28424190D01*
X19907239Y-28376571D02*
X20050096Y-28424190D01*
X20097715Y-28471810D01*
X20145334Y-28567048D01*
X20145334Y-28709905D01*
X20097715Y-28805143D01*
X20050096Y-28852762D01*
X19954858Y-28900381D01*
X19573905Y-28900381D01*
X19573905Y-27900381D01*
X19907239Y-27900381D01*
X20002477Y-27948000D01*
X20050096Y-27995619D01*
X20097715Y-28090857D01*
X20097715Y-28186095D01*
X20050096Y-28281333D01*
X20002477Y-28328952D01*
X19907239Y-28376571D01*
X19573905Y-28376571D01*
X20764381Y-27900381D02*
X20859620Y-27900381D01*
X20954858Y-27948000D01*
X21002477Y-27995619D01*
X21050096Y-28090857D01*
X21097715Y-28281333D01*
X21097715Y-28519429D01*
X21050096Y-28709905D01*
X21002477Y-28805143D01*
X20954858Y-28852762D01*
X20859620Y-28900381D01*
X20764381Y-28900381D01*
X20669143Y-28852762D01*
X20621524Y-28805143D01*
X20573905Y-28709905D01*
X20526286Y-28519429D01*
X20526286Y-28281333D01*
X20573905Y-28090857D01*
X20621524Y-27995619D01*
X20669143Y-27948000D01*
X20764381Y-27900381D01*
X18589810Y-25106381D02*
X19208858Y-25106381D01*
X18875524Y-25487333D01*
X19018382Y-25487333D01*
X19113620Y-25534952D01*
X19161239Y-25582571D01*
X19208858Y-25677810D01*
X19208858Y-25915905D01*
X19161239Y-26011143D01*
X19113620Y-26058762D01*
X19018382Y-26106381D01*
X18732667Y-26106381D01*
X18637429Y-26058762D01*
X18589810Y-26011143D01*
X19637429Y-26011143D02*
X19685048Y-26058762D01*
X19637429Y-26106381D01*
X19589810Y-26058762D01*
X19637429Y-26011143D01*
X19637429Y-26106381D01*
X20018381Y-25106381D02*
X20637429Y-25106381D01*
X20304095Y-25487333D01*
X20446953Y-25487333D01*
X20542191Y-25534952D01*
X20589810Y-25582571D01*
X20637429Y-25677810D01*
X20637429Y-25915905D01*
X20589810Y-26011143D01*
X20542191Y-26058762D01*
X20446953Y-26106381D01*
X20161238Y-26106381D01*
X20066000Y-26058762D01*
X20018381Y-26011143D01*
X20923143Y-25106381D02*
X21256476Y-26106381D01*
X21589810Y-25106381D01*
D11*
X9096857Y-25758857D02*
X9496857Y-26958857D01*
X9896857Y-25758857D01*
X10868285Y-26958857D02*
X10296856Y-26958857D01*
X10296856Y-25758857D01*
X11096857Y-25758857D02*
X11496857Y-26958857D01*
X11896857Y-25758857D01*
X14068285Y-25701714D02*
X13039714Y-27244571D01*
X15382571Y-26958857D02*
X15382571Y-25758857D01*
X16182572Y-25758857D02*
X16411143Y-25758857D01*
X16525429Y-25816000D01*
X16639715Y-25930286D01*
X16696857Y-26158857D01*
X16696857Y-26558857D01*
X16639715Y-26787429D01*
X16525429Y-26901714D01*
X16411143Y-26958857D01*
X16182572Y-26958857D01*
X16068286Y-26901714D01*
X15954000Y-26787429D01*
X15896857Y-26558857D01*
X15896857Y-26158857D01*
X15954000Y-25930286D01*
X16068286Y-25816000D01*
X16182572Y-25758857D01*
D12*
X17500000Y-500000D02*
G75*
G03X22500000Y-500000I2500000J0D01*
G01*
X22500000Y-49500000D02*
G75*
G03X17500000Y-49500000I-2500000J0D01*
G01*
D13*
X28300000Y-25000000D02*
X28300000Y-29500000D01*
X28300000Y-29500000D02*
X29300000Y-29500000D01*
X29300000Y-29500000D02*
X29300000Y-33000000D01*
X29300000Y-33000000D02*
X28300000Y-33000000D01*
X28300000Y-33000000D02*
X28300000Y-37500000D01*
X34700000Y-37500000D02*
X34700000Y-25000000D01*
X28300000Y-37500000D02*
X34700000Y-37500000D01*
X34700000Y-25000000D02*
X28300000Y-25000000D01*
X6700000Y-50000000D02*
X6700000Y-45500000D01*
X6700000Y-45500000D02*
X5700000Y-45500000D01*
X5700000Y-45500000D02*
X5700000Y-42000000D01*
X5700000Y-42000000D02*
X6700000Y-42000000D01*
X6700000Y-42000000D02*
X6700000Y-37500000D01*
X300000Y-37500000D02*
X300000Y-50000000D01*
X6700000Y-37500000D02*
X300000Y-37500000D01*
X300000Y-50000000D02*
X6700000Y-50000000D01*
D14*
X18466000Y-25134000D02*
X21166000Y-25134000D01*
X18466000Y-23634000D02*
X21166000Y-23634000D01*
X19966000Y-24534000D02*
X19966000Y-24284000D01*
X19966000Y-24284000D02*
X19816000Y-24434000D01*
X19716000Y-24034000D02*
X19716000Y-24734000D01*
X20066000Y-24384000D02*
X20416000Y-24384000D01*
X19716000Y-24384000D02*
X20066000Y-24034000D01*
X20066000Y-24034000D02*
X20066000Y-24734000D01*
X20066000Y-24734000D02*
X19716000Y-24384000D01*
X18466000Y-27674000D02*
X21166000Y-27674000D01*
X18466000Y-26174000D02*
X21166000Y-26174000D01*
X19966000Y-27074000D02*
X19966000Y-26824000D01*
X19966000Y-26824000D02*
X19816000Y-26974000D01*
X19716000Y-26574000D02*
X19716000Y-27274000D01*
X20066000Y-26924000D02*
X20416000Y-26924000D01*
X19716000Y-26924000D02*
X20066000Y-26574000D01*
X20066000Y-26574000D02*
X20066000Y-27274000D01*
X20066000Y-27274000D02*
X19716000Y-26924000D01*
X13900000Y-48700000D02*
X11100000Y-48700000D01*
X11100000Y-48700000D02*
X11100000Y-47300000D01*
X11100000Y-47300000D02*
X13900000Y-47300000D01*
X13900000Y-47300000D02*
X13900000Y-48700000D01*
X9500000Y-49750000D02*
X9500000Y-49100000D01*
X9500000Y-46250000D02*
X9500000Y-46900000D01*
X15500000Y-46900000D02*
X15500000Y-46250000D01*
X15500000Y-49750000D02*
X15500000Y-49100000D01*
X9500000Y-49750000D02*
X15500000Y-49750000D01*
X15500000Y-46250000D02*
X9500000Y-46250000D01*
X17500000Y-39876524D02*
X17871231Y-39505293D01*
X12373476Y-34750000D02*
X12744707Y-34378769D01*
X17500000Y-29623476D02*
X17128769Y-29994707D01*
X22626524Y-34750000D02*
X22255293Y-35121231D01*
X17500000Y-39876524D02*
X17128769Y-39505293D01*
X22626524Y-34750000D02*
X22255293Y-34378769D01*
X17500000Y-29623476D02*
X17871231Y-29994707D01*
X12373476Y-34750000D02*
X12744707Y-35121231D01*
X17871231Y-39505293D02*
X18843503Y-40477565D01*
D13*
X7500000Y-42050000D02*
X7500000Y-45550000D01*
X18000000Y-42050000D02*
X7500000Y-42050000D01*
X18000000Y-45550000D02*
X7500000Y-45550000D01*
X18000000Y-45550000D02*
X18000000Y-42050000D01*
D14*
X9770000Y-37770000D02*
X9770000Y-40310000D01*
X10050000Y-34950000D02*
X10050000Y-36500000D01*
X9770000Y-37770000D02*
X7230000Y-37770000D01*
X6950000Y-36500000D02*
X6950000Y-34950000D01*
X6950000Y-34950000D02*
X10050000Y-34950000D01*
X7230000Y-37770000D02*
X7230000Y-40310000D01*
X7230000Y-40310000D02*
X9770000Y-40310000D01*
X11049000Y-4953000D02*
X14859000Y-4953000D01*
X14859000Y-4953000D02*
X14859000Y-3175000D01*
X14859000Y-3175000D02*
X11049000Y-3175000D01*
X11049000Y-4953000D02*
X11049000Y-3175000D01*
X11049000Y-15113000D02*
X14859000Y-15113000D01*
X14859000Y-15113000D02*
X14859000Y-13335000D01*
X14859000Y-13335000D02*
X11049000Y-13335000D01*
X11049000Y-15113000D02*
X11049000Y-13335000D01*
X11049000Y-7493000D02*
X14859000Y-7493000D01*
X14859000Y-7493000D02*
X14859000Y-5715000D01*
X14859000Y-5715000D02*
X11049000Y-5715000D01*
X11049000Y-7493000D02*
X11049000Y-5715000D01*
X11049000Y-17653000D02*
X14859000Y-17653000D01*
X14859000Y-17653000D02*
X14859000Y-15875000D01*
X14859000Y-15875000D02*
X11049000Y-15875000D01*
X11049000Y-17653000D02*
X11049000Y-15875000D01*
X11049000Y-20193000D02*
X14859000Y-20193000D01*
X14859000Y-20193000D02*
X14859000Y-18415000D01*
X14859000Y-18415000D02*
X11049000Y-18415000D01*
X11049000Y-20193000D02*
X11049000Y-18415000D01*
X11049000Y-10033000D02*
X14859000Y-10033000D01*
X14859000Y-10033000D02*
X14859000Y-8255000D01*
X14859000Y-8255000D02*
X11049000Y-8255000D01*
X11049000Y-10033000D02*
X11049000Y-8255000D01*
X11049000Y-22733000D02*
X14859000Y-22733000D01*
X14859000Y-22733000D02*
X14859000Y-20955000D01*
X14859000Y-20955000D02*
X11049000Y-20955000D01*
X11049000Y-22733000D02*
X11049000Y-20955000D01*
X11049000Y-12573000D02*
X14859000Y-12573000D01*
X14859000Y-12573000D02*
X14859000Y-10795000D01*
X14859000Y-10795000D02*
X11049000Y-10795000D01*
X11049000Y-12573000D02*
X11049000Y-10795000D01*
X11049000Y-2413000D02*
X14859000Y-2413000D01*
X14859000Y-2413000D02*
X14859000Y-635000D01*
X14859000Y-635000D02*
X11049000Y-635000D01*
X11049000Y-2413000D02*
X11049000Y-635000D01*
D13*
X6700000Y-37500000D02*
X6700000Y-33000000D01*
X6700000Y-33000000D02*
X5700000Y-33000000D01*
X5700000Y-33000000D02*
X5700000Y-29500000D01*
X5700000Y-29500000D02*
X6700000Y-29500000D01*
X6700000Y-29500000D02*
X6700000Y-25000000D01*
X300000Y-25000000D02*
X300000Y-37500000D01*
X6700000Y-25000000D02*
X300000Y-25000000D01*
X300000Y-37500000D02*
X6700000Y-37500000D01*
D14*
X5334000Y-5334000D02*
X5334000Y-23114000D01*
X5334000Y-23114000D02*
X2794000Y-23114000D01*
X2794000Y-23114000D02*
X2794000Y-5334000D01*
X5614000Y-2514000D02*
X5614000Y-4064000D01*
X5334000Y-5334000D02*
X2794000Y-5334000D01*
X2514000Y-4064000D02*
X2514000Y-2514000D01*
X2514000Y-2514000D02*
X5614000Y-2514000D01*
D13*
X28300000Y-12500000D02*
X28300000Y-17000000D01*
X28300000Y-17000000D02*
X29300000Y-17000000D01*
X29300000Y-17000000D02*
X29300000Y-20500000D01*
X29300000Y-20500000D02*
X28300000Y-20500000D01*
X28300000Y-20500000D02*
X28300000Y-25000000D01*
X34700000Y-25000000D02*
X34700000Y-12500000D01*
X28300000Y-25000000D02*
X34700000Y-25000000D01*
X34700000Y-12500000D02*
X28300000Y-12500000D01*
X28300000Y0D02*
X28300000Y-4500000D01*
X28300000Y-4500000D02*
X29300000Y-4500000D01*
X29300000Y-4500000D02*
X29300000Y-8000000D01*
X29300000Y-8000000D02*
X28300000Y-8000000D01*
X28300000Y-8000000D02*
X28300000Y-12500000D01*
X34700000Y-12500000D02*
X34700000Y0D01*
X28300000Y-12500000D02*
X34700000Y-12500000D01*
X34700000Y0D02*
X28300000Y0D01*
X28300000Y-37500000D02*
X28300000Y-42000000D01*
X28300000Y-42000000D02*
X29300000Y-42000000D01*
X29300000Y-42000000D02*
X29300000Y-45500000D01*
X29300000Y-45500000D02*
X28300000Y-45500000D01*
X28300000Y-45500000D02*
X28300000Y-50000000D01*
X34700000Y-50000000D02*
X34700000Y-37500000D01*
X28300000Y-50000000D02*
X34700000Y-50000000D01*
X34700000Y-37500000D02*
X28300000Y-37500000D01*
D14*
X7874000Y-5334000D02*
X7874000Y-23114000D01*
X7874000Y-23114000D02*
X5334000Y-23114000D01*
X5334000Y-23114000D02*
X5334000Y-5334000D01*
X8154000Y-2514000D02*
X8154000Y-4064000D01*
X7874000Y-5334000D02*
X5334000Y-5334000D01*
X5054000Y-4064000D02*
X5054000Y-2514000D01*
X5054000Y-2514000D02*
X8154000Y-2514000D01*
X2794000Y-5334000D02*
X2794000Y-23114000D01*
X2794000Y-23114000D02*
X254000Y-23114000D01*
X254000Y-23114000D02*
X254000Y-5334000D01*
X3074000Y-2514000D02*
X3074000Y-4064000D01*
X2794000Y-5334000D02*
X254000Y-5334000D01*
X-26000Y-4064000D02*
X-26000Y-2514000D01*
X-26000Y-2514000D02*
X3074000Y-2514000D01*
D11*
X19766000Y-4064000D02*
X20366000Y-4564000D01*
X19766000Y-4064000D02*
X20366000Y-3564000D01*
D14*
X18466000Y-4814000D02*
X21166000Y-4814000D01*
X18466000Y-3314000D02*
X21166000Y-3314000D01*
D11*
X19766000Y-6604000D02*
X20366000Y-7104000D01*
X19766000Y-6604000D02*
X20366000Y-6104000D01*
D14*
X18466000Y-7354000D02*
X21166000Y-7354000D01*
X18466000Y-5854000D02*
X21166000Y-5854000D01*
D11*
X19766000Y-9144000D02*
X20366000Y-9644000D01*
X19766000Y-9144000D02*
X20366000Y-8644000D01*
D14*
X18466000Y-9894000D02*
X21166000Y-9894000D01*
X18466000Y-8394000D02*
X21166000Y-8394000D01*
D11*
X19766000Y-11684000D02*
X20366000Y-12184000D01*
X19766000Y-11684000D02*
X20366000Y-11184000D01*
D14*
X18466000Y-12434000D02*
X21166000Y-12434000D01*
X18466000Y-10934000D02*
X21166000Y-10934000D01*
D11*
X19766000Y-14224000D02*
X20366000Y-14724000D01*
X19766000Y-14224000D02*
X20366000Y-13724000D01*
D14*
X18466000Y-14974000D02*
X21166000Y-14974000D01*
X18466000Y-13474000D02*
X21166000Y-13474000D01*
D11*
X19766000Y-16764000D02*
X20366000Y-17264000D01*
X19766000Y-16764000D02*
X20366000Y-16264000D01*
D14*
X18466000Y-17514000D02*
X21166000Y-17514000D01*
X18466000Y-16014000D02*
X21166000Y-16014000D01*
D11*
X19766000Y-19304000D02*
X20366000Y-19804000D01*
X19766000Y-19304000D02*
X20366000Y-18804000D01*
D14*
X18466000Y-20054000D02*
X21166000Y-20054000D01*
X18466000Y-18554000D02*
X21166000Y-18554000D01*
D11*
X19766000Y-21844000D02*
X20366000Y-22344000D01*
X19766000Y-21844000D02*
X20366000Y-21344000D01*
D14*
X18466000Y-22594000D02*
X21166000Y-22594000D01*
X18466000Y-21094000D02*
X21166000Y-21094000D01*
X11049000Y-25273000D02*
X14859000Y-25273000D01*
X14859000Y-25273000D02*
X14859000Y-23495000D01*
X14859000Y-23495000D02*
X11049000Y-23495000D01*
X11049000Y-25273000D02*
X11049000Y-23495000D01*
X21600000Y-42800000D02*
X24400000Y-42800000D01*
X24400000Y-42800000D02*
X24400000Y-44200000D01*
X24400000Y-44200000D02*
X21600000Y-44200000D01*
X21600000Y-44200000D02*
X21600000Y-42800000D01*
X26000000Y-41750000D02*
X26000000Y-42400000D01*
X26000000Y-45250000D02*
X26000000Y-44600000D01*
X20000000Y-44600000D02*
X20000000Y-45250000D01*
X20000000Y-41750000D02*
X20000000Y-42400000D01*
X26000000Y-41750000D02*
X20000000Y-41750000D01*
X20000000Y-45250000D02*
X26000000Y-45250000D01*
D15*
X23017238Y-23564548D02*
X22327810Y-23564548D01*
X22672524Y-23564548D02*
X22672524Y-22358048D01*
X22557619Y-22530405D01*
X22442714Y-22645310D01*
X22327810Y-22702762D01*
X23764119Y-22358048D02*
X23879024Y-22358048D01*
X23993929Y-22415500D01*
X24051381Y-22472952D01*
X24108834Y-22587857D01*
X24166286Y-22817667D01*
X24166286Y-23104929D01*
X24108834Y-23334738D01*
X24051381Y-23449643D01*
X23993929Y-23507095D01*
X23879024Y-23564548D01*
X23764119Y-23564548D01*
X23649215Y-23507095D01*
X23591762Y-23449643D01*
X23534310Y-23334738D01*
X23476858Y-23104929D01*
X23476858Y-22817667D01*
X23534310Y-22587857D01*
X23591762Y-22472952D01*
X23649215Y-22415500D01*
X23764119Y-22358048D01*
X24913167Y-22358048D02*
X25028072Y-22358048D01*
X25142977Y-22415500D01*
X25200429Y-22472952D01*
X25257882Y-22587857D01*
X25315334Y-22817667D01*
X25315334Y-23104929D01*
X25257882Y-23334738D01*
X25200429Y-23449643D01*
X25142977Y-23507095D01*
X25028072Y-23564548D01*
X24913167Y-23564548D01*
X24798263Y-23507095D01*
X24740810Y-23449643D01*
X24683358Y-23334738D01*
X24625906Y-23104929D01*
X24625906Y-22817667D01*
X24683358Y-22587857D01*
X24740810Y-22472952D01*
X24798263Y-22415500D01*
X24913167Y-22358048D01*
X23017238Y-26358548D02*
X22327810Y-26358548D01*
X22672524Y-26358548D02*
X22672524Y-25152048D01*
X22557619Y-25324405D01*
X22442714Y-25439310D01*
X22327810Y-25496762D01*
X23764119Y-25152048D02*
X23879024Y-25152048D01*
X23993929Y-25209500D01*
X24051381Y-25266952D01*
X24108834Y-25381857D01*
X24166286Y-25611667D01*
X24166286Y-25898929D01*
X24108834Y-26128738D01*
X24051381Y-26243643D01*
X23993929Y-26301095D01*
X23879024Y-26358548D01*
X23764119Y-26358548D01*
X23649215Y-26301095D01*
X23591762Y-26243643D01*
X23534310Y-26128738D01*
X23476858Y-25898929D01*
X23476858Y-25611667D01*
X23534310Y-25381857D01*
X23591762Y-25266952D01*
X23649215Y-25209500D01*
X23764119Y-25152048D01*
X24913167Y-25152048D02*
X25028072Y-25152048D01*
X25142977Y-25209500D01*
X25200429Y-25266952D01*
X25257882Y-25381857D01*
X25315334Y-25611667D01*
X25315334Y-25898929D01*
X25257882Y-26128738D01*
X25200429Y-26243643D01*
X25142977Y-26301095D01*
X25028072Y-26358548D01*
X24913167Y-26358548D01*
X24798263Y-26301095D01*
X24740810Y-26243643D01*
X24683358Y-26128738D01*
X24625906Y-25898929D01*
X24625906Y-25611667D01*
X24683358Y-25381857D01*
X24740810Y-25266952D01*
X24798263Y-25209500D01*
X24913167Y-25152048D01*
X22763238Y-3498548D02*
X22073810Y-3498548D01*
X22418524Y-3498548D02*
X22418524Y-2292048D01*
X22303619Y-2464405D01*
X22188714Y-2579310D01*
X22073810Y-2636762D01*
X23510119Y-2292048D02*
X23625024Y-2292048D01*
X23739929Y-2349500D01*
X23797381Y-2406952D01*
X23854834Y-2521857D01*
X23912286Y-2751667D01*
X23912286Y-3038929D01*
X23854834Y-3268738D01*
X23797381Y-3383643D01*
X23739929Y-3441095D01*
X23625024Y-3498548D01*
X23510119Y-3498548D01*
X23395215Y-3441095D01*
X23337762Y-3383643D01*
X23280310Y-3268738D01*
X23222858Y-3038929D01*
X23222858Y-2751667D01*
X23280310Y-2521857D01*
X23337762Y-2406952D01*
X23395215Y-2349500D01*
X23510119Y-2292048D01*
X24659167Y-2292048D02*
X24774072Y-2292048D01*
X24888977Y-2349500D01*
X24946429Y-2406952D01*
X25003882Y-2521857D01*
X25061334Y-2751667D01*
X25061334Y-3038929D01*
X25003882Y-3268738D01*
X24946429Y-3383643D01*
X24888977Y-3441095D01*
X24774072Y-3498548D01*
X24659167Y-3498548D01*
X24544263Y-3441095D01*
X24486810Y-3383643D01*
X24429358Y-3268738D01*
X24371906Y-3038929D01*
X24371906Y-2751667D01*
X24429358Y-2521857D01*
X24486810Y-2406952D01*
X24544263Y-2349500D01*
X24659167Y-2292048D01*
X22763238Y-6038548D02*
X22073810Y-6038548D01*
X22418524Y-6038548D02*
X22418524Y-4832048D01*
X22303619Y-5004405D01*
X22188714Y-5119310D01*
X22073810Y-5176762D01*
X23510119Y-4832048D02*
X23625024Y-4832048D01*
X23739929Y-4889500D01*
X23797381Y-4946952D01*
X23854834Y-5061857D01*
X23912286Y-5291667D01*
X23912286Y-5578929D01*
X23854834Y-5808738D01*
X23797381Y-5923643D01*
X23739929Y-5981095D01*
X23625024Y-6038548D01*
X23510119Y-6038548D01*
X23395215Y-5981095D01*
X23337762Y-5923643D01*
X23280310Y-5808738D01*
X23222858Y-5578929D01*
X23222858Y-5291667D01*
X23280310Y-5061857D01*
X23337762Y-4946952D01*
X23395215Y-4889500D01*
X23510119Y-4832048D01*
X24659167Y-4832048D02*
X24774072Y-4832048D01*
X24888977Y-4889500D01*
X24946429Y-4946952D01*
X25003882Y-5061857D01*
X25061334Y-5291667D01*
X25061334Y-5578929D01*
X25003882Y-5808738D01*
X24946429Y-5923643D01*
X24888977Y-5981095D01*
X24774072Y-6038548D01*
X24659167Y-6038548D01*
X24544263Y-5981095D01*
X24486810Y-5923643D01*
X24429358Y-5808738D01*
X24371906Y-5578929D01*
X24371906Y-5291667D01*
X24429358Y-5061857D01*
X24486810Y-4946952D01*
X24544263Y-4889500D01*
X24659167Y-4832048D01*
X22763238Y-8578548D02*
X22073810Y-8578548D01*
X22418524Y-8578548D02*
X22418524Y-7372048D01*
X22303619Y-7544405D01*
X22188714Y-7659310D01*
X22073810Y-7716762D01*
X23510119Y-7372048D02*
X23625024Y-7372048D01*
X23739929Y-7429500D01*
X23797381Y-7486952D01*
X23854834Y-7601857D01*
X23912286Y-7831667D01*
X23912286Y-8118929D01*
X23854834Y-8348738D01*
X23797381Y-8463643D01*
X23739929Y-8521095D01*
X23625024Y-8578548D01*
X23510119Y-8578548D01*
X23395215Y-8521095D01*
X23337762Y-8463643D01*
X23280310Y-8348738D01*
X23222858Y-8118929D01*
X23222858Y-7831667D01*
X23280310Y-7601857D01*
X23337762Y-7486952D01*
X23395215Y-7429500D01*
X23510119Y-7372048D01*
X24659167Y-7372048D02*
X24774072Y-7372048D01*
X24888977Y-7429500D01*
X24946429Y-7486952D01*
X25003882Y-7601857D01*
X25061334Y-7831667D01*
X25061334Y-8118929D01*
X25003882Y-8348738D01*
X24946429Y-8463643D01*
X24888977Y-8521095D01*
X24774072Y-8578548D01*
X24659167Y-8578548D01*
X24544263Y-8521095D01*
X24486810Y-8463643D01*
X24429358Y-8348738D01*
X24371906Y-8118929D01*
X24371906Y-7831667D01*
X24429358Y-7601857D01*
X24486810Y-7486952D01*
X24544263Y-7429500D01*
X24659167Y-7372048D01*
X22763238Y-11118548D02*
X22073810Y-11118548D01*
X22418524Y-11118548D02*
X22418524Y-9912048D01*
X22303619Y-10084405D01*
X22188714Y-10199310D01*
X22073810Y-10256762D01*
X23510119Y-9912048D02*
X23625024Y-9912048D01*
X23739929Y-9969500D01*
X23797381Y-10026952D01*
X23854834Y-10141857D01*
X23912286Y-10371667D01*
X23912286Y-10658929D01*
X23854834Y-10888738D01*
X23797381Y-11003643D01*
X23739929Y-11061095D01*
X23625024Y-11118548D01*
X23510119Y-11118548D01*
X23395215Y-11061095D01*
X23337762Y-11003643D01*
X23280310Y-10888738D01*
X23222858Y-10658929D01*
X23222858Y-10371667D01*
X23280310Y-10141857D01*
X23337762Y-10026952D01*
X23395215Y-9969500D01*
X23510119Y-9912048D01*
X24659167Y-9912048D02*
X24774072Y-9912048D01*
X24888977Y-9969500D01*
X24946429Y-10026952D01*
X25003882Y-10141857D01*
X25061334Y-10371667D01*
X25061334Y-10658929D01*
X25003882Y-10888738D01*
X24946429Y-11003643D01*
X24888977Y-11061095D01*
X24774072Y-11118548D01*
X24659167Y-11118548D01*
X24544263Y-11061095D01*
X24486810Y-11003643D01*
X24429358Y-10888738D01*
X24371906Y-10658929D01*
X24371906Y-10371667D01*
X24429358Y-10141857D01*
X24486810Y-10026952D01*
X24544263Y-9969500D01*
X24659167Y-9912048D01*
X22763238Y-13658548D02*
X22073810Y-13658548D01*
X22418524Y-13658548D02*
X22418524Y-12452048D01*
X22303619Y-12624405D01*
X22188714Y-12739310D01*
X22073810Y-12796762D01*
X23510119Y-12452048D02*
X23625024Y-12452048D01*
X23739929Y-12509500D01*
X23797381Y-12566952D01*
X23854834Y-12681857D01*
X23912286Y-12911667D01*
X23912286Y-13198929D01*
X23854834Y-13428738D01*
X23797381Y-13543643D01*
X23739929Y-13601095D01*
X23625024Y-13658548D01*
X23510119Y-13658548D01*
X23395215Y-13601095D01*
X23337762Y-13543643D01*
X23280310Y-13428738D01*
X23222858Y-13198929D01*
X23222858Y-12911667D01*
X23280310Y-12681857D01*
X23337762Y-12566952D01*
X23395215Y-12509500D01*
X23510119Y-12452048D01*
X24659167Y-12452048D02*
X24774072Y-12452048D01*
X24888977Y-12509500D01*
X24946429Y-12566952D01*
X25003882Y-12681857D01*
X25061334Y-12911667D01*
X25061334Y-13198929D01*
X25003882Y-13428738D01*
X24946429Y-13543643D01*
X24888977Y-13601095D01*
X24774072Y-13658548D01*
X24659167Y-13658548D01*
X24544263Y-13601095D01*
X24486810Y-13543643D01*
X24429358Y-13428738D01*
X24371906Y-13198929D01*
X24371906Y-12911667D01*
X24429358Y-12681857D01*
X24486810Y-12566952D01*
X24544263Y-12509500D01*
X24659167Y-12452048D01*
X22763238Y-16198548D02*
X22073810Y-16198548D01*
X22418524Y-16198548D02*
X22418524Y-14992048D01*
X22303619Y-15164405D01*
X22188714Y-15279310D01*
X22073810Y-15336762D01*
X23510119Y-14992048D02*
X23625024Y-14992048D01*
X23739929Y-15049500D01*
X23797381Y-15106952D01*
X23854834Y-15221857D01*
X23912286Y-15451667D01*
X23912286Y-15738929D01*
X23854834Y-15968738D01*
X23797381Y-16083643D01*
X23739929Y-16141095D01*
X23625024Y-16198548D01*
X23510119Y-16198548D01*
X23395215Y-16141095D01*
X23337762Y-16083643D01*
X23280310Y-15968738D01*
X23222858Y-15738929D01*
X23222858Y-15451667D01*
X23280310Y-15221857D01*
X23337762Y-15106952D01*
X23395215Y-15049500D01*
X23510119Y-14992048D01*
X24659167Y-14992048D02*
X24774072Y-14992048D01*
X24888977Y-15049500D01*
X24946429Y-15106952D01*
X25003882Y-15221857D01*
X25061334Y-15451667D01*
X25061334Y-15738929D01*
X25003882Y-15968738D01*
X24946429Y-16083643D01*
X24888977Y-16141095D01*
X24774072Y-16198548D01*
X24659167Y-16198548D01*
X24544263Y-16141095D01*
X24486810Y-16083643D01*
X24429358Y-15968738D01*
X24371906Y-15738929D01*
X24371906Y-15451667D01*
X24429358Y-15221857D01*
X24486810Y-15106952D01*
X24544263Y-15049500D01*
X24659167Y-14992048D01*
X22763238Y-18738548D02*
X22073810Y-18738548D01*
X22418524Y-18738548D02*
X22418524Y-17532048D01*
X22303619Y-17704405D01*
X22188714Y-17819310D01*
X22073810Y-17876762D01*
X23510119Y-17532048D02*
X23625024Y-17532048D01*
X23739929Y-17589500D01*
X23797381Y-17646952D01*
X23854834Y-17761857D01*
X23912286Y-17991667D01*
X23912286Y-18278929D01*
X23854834Y-18508738D01*
X23797381Y-18623643D01*
X23739929Y-18681095D01*
X23625024Y-18738548D01*
X23510119Y-18738548D01*
X23395215Y-18681095D01*
X23337762Y-18623643D01*
X23280310Y-18508738D01*
X23222858Y-18278929D01*
X23222858Y-17991667D01*
X23280310Y-17761857D01*
X23337762Y-17646952D01*
X23395215Y-17589500D01*
X23510119Y-17532048D01*
X24659167Y-17532048D02*
X24774072Y-17532048D01*
X24888977Y-17589500D01*
X24946429Y-17646952D01*
X25003882Y-17761857D01*
X25061334Y-17991667D01*
X25061334Y-18278929D01*
X25003882Y-18508738D01*
X24946429Y-18623643D01*
X24888977Y-18681095D01*
X24774072Y-18738548D01*
X24659167Y-18738548D01*
X24544263Y-18681095D01*
X24486810Y-18623643D01*
X24429358Y-18508738D01*
X24371906Y-18278929D01*
X24371906Y-17991667D01*
X24429358Y-17761857D01*
X24486810Y-17646952D01*
X24544263Y-17589500D01*
X24659167Y-17532048D01*
X22763238Y-21278548D02*
X22073810Y-21278548D01*
X22418524Y-21278548D02*
X22418524Y-20072048D01*
X22303619Y-20244405D01*
X22188714Y-20359310D01*
X22073810Y-20416762D01*
X23510119Y-20072048D02*
X23625024Y-20072048D01*
X23739929Y-20129500D01*
X23797381Y-20186952D01*
X23854834Y-20301857D01*
X23912286Y-20531667D01*
X23912286Y-20818929D01*
X23854834Y-21048738D01*
X23797381Y-21163643D01*
X23739929Y-21221095D01*
X23625024Y-21278548D01*
X23510119Y-21278548D01*
X23395215Y-21221095D01*
X23337762Y-21163643D01*
X23280310Y-21048738D01*
X23222858Y-20818929D01*
X23222858Y-20531667D01*
X23280310Y-20301857D01*
X23337762Y-20186952D01*
X23395215Y-20129500D01*
X23510119Y-20072048D01*
X24659167Y-20072048D02*
X24774072Y-20072048D01*
X24888977Y-20129500D01*
X24946429Y-20186952D01*
X25003882Y-20301857D01*
X25061334Y-20531667D01*
X25061334Y-20818929D01*
X25003882Y-21048738D01*
X24946429Y-21163643D01*
X24888977Y-21221095D01*
X24774072Y-21278548D01*
X24659167Y-21278548D01*
X24544263Y-21221095D01*
X24486810Y-21163643D01*
X24429358Y-21048738D01*
X24371906Y-20818929D01*
X24371906Y-20531667D01*
X24429358Y-20301857D01*
X24486810Y-20186952D01*
X24544263Y-20129500D01*
X24659167Y-20072048D01*
X23304333Y-638214D02*
X23304333Y-1442548D01*
X23017071Y-178595D02*
X22729810Y-1040381D01*
X23476690Y-1040381D01*
X23821405Y-236048D02*
X24625738Y-236048D01*
X24108667Y-1442548D01*
X25315167Y-236048D02*
X25430072Y-236048D01*
X25544977Y-293500D01*
X25602429Y-350952D01*
X25659882Y-465857D01*
X25717334Y-695667D01*
X25717334Y-982929D01*
X25659882Y-1212738D01*
X25602429Y-1327643D01*
X25544977Y-1385095D01*
X25430072Y-1442548D01*
X25315167Y-1442548D01*
X25200263Y-1385095D01*
X25142810Y-1327643D01*
X25085358Y-1212738D01*
X25027906Y-982929D01*
X25027906Y-695667D01*
X25085358Y-465857D01*
X25142810Y-350952D01*
X25200263Y-293500D01*
X25315167Y-236048D01*
X26234406Y-638214D02*
X26234406Y-1442548D01*
X26234406Y-753119D02*
X26291858Y-695667D01*
X26406763Y-638214D01*
X26579120Y-638214D01*
X26694025Y-695667D01*
X26751477Y-810571D01*
X26751477Y-1442548D01*
M02*
