G04 #@! TF.FileFunction,Soldermask,Bot*
%FSLAX46Y46*%
G04 Gerber Fmt 4.6, Leading zero omitted, Abs format (unit mm)*
G04 Created by KiCad (PCBNEW 4.0.6) date 03/21/17 17:19:53*
%MOMM*%
%LPD*%
G01*
G04 APERTURE LIST*
%ADD10C,0.100000*%
%ADD11O,2.000000X2.000000*%
%ADD12O,2.900000X1.900000*%
%ADD13R,1.200000X1.400000*%
%ADD14R,1.000000X1.950000*%
%ADD15R,3.000000X2.600000*%
%ADD16R,3.000000X2.400000*%
%ADD17O,1.400000X1.924000*%
%ADD18R,2.432000X2.432000*%
%ADD19O,2.432000X2.432000*%
%ADD20R,1.400000X1.200000*%
%ADD21R,2.432000X2.127200*%
%ADD22O,2.432000X2.127200*%
%ADD23R,2.100000X1.600000*%
%ADD24R,2.100000X3.700000*%
%ADD25R,1.700000X1.900000*%
%ADD26R,2.899360X2.200860*%
%ADD27R,1.670000X1.365200*%
%ADD28R,2.200000X2.000000*%
%ADD29R,3.900120X2.749500*%
%ADD30R,1.400760X1.090880*%
G04 APERTURE END LIST*
D10*
D11*
X16764000Y-4064000D03*
X16764000Y-6604000D03*
X16764000Y-9144000D03*
X16764000Y-11684000D03*
X16764000Y-14224000D03*
X16764000Y-16764000D03*
X16764000Y-19304000D03*
X16764000Y-21844000D03*
X16764000Y-24384000D03*
X9144000Y-24384000D03*
X9144000Y-21844000D03*
X9144000Y-19304000D03*
X9144000Y-16764000D03*
X9144000Y-14224000D03*
X9144000Y-11684000D03*
X9144000Y-9144000D03*
X9144000Y-6604000D03*
X9144000Y-4064000D03*
D12*
X31500000Y-27500000D03*
X31500000Y-30000000D03*
X31500000Y-32500000D03*
X31500000Y-35000000D03*
X3500000Y-47500000D03*
X3500000Y-45000000D03*
X3500000Y-42500000D03*
X3500000Y-40000000D03*
D13*
X15400000Y-48000000D03*
X13600000Y-48000000D03*
X19900000Y-44500000D03*
X18100000Y-44500000D03*
X19900000Y-42000000D03*
X18100000Y-42000000D03*
X10100000Y-48000000D03*
X11900000Y-48000000D03*
X17600000Y-39100000D03*
X15800000Y-39100000D03*
D14*
X6345000Y-28550000D03*
X7615000Y-28550000D03*
X8885000Y-28550000D03*
X10155000Y-28550000D03*
X10155000Y-33950000D03*
X8885000Y-33950000D03*
X7615000Y-33950000D03*
X6345000Y-33950000D03*
D15*
X22500000Y-44300000D03*
D16*
X22500000Y-39700000D03*
D17*
X16500000Y-44250000D03*
X15000000Y-44250000D03*
X13500000Y-44250000D03*
X12000000Y-44250000D03*
X10500000Y-44250000D03*
X9000000Y-44250000D03*
D18*
X8500000Y-36500000D03*
D19*
X8500000Y-39040000D03*
D20*
X6096000Y-36946000D03*
X6096000Y-38746000D03*
D12*
X3500000Y-35000000D03*
X3500000Y-32500000D03*
X3500000Y-30000000D03*
X3500000Y-27500000D03*
D21*
X4064000Y-4064000D03*
D22*
X4064000Y-6604000D03*
X4064000Y-9144000D03*
X4064000Y-11684000D03*
X4064000Y-14224000D03*
X4064000Y-16764000D03*
X4064000Y-19304000D03*
X4064000Y-21844000D03*
D12*
X31500000Y-15000000D03*
X31500000Y-17500000D03*
X31500000Y-20000000D03*
X31500000Y-22500000D03*
X31500000Y-2500000D03*
X31500000Y-5000000D03*
X31500000Y-7500000D03*
X31500000Y-10000000D03*
X31500000Y-40000000D03*
X31500000Y-42500000D03*
X31500000Y-45000000D03*
X31500000Y-47500000D03*
D23*
X26500000Y-18700000D03*
X26500000Y-21000000D03*
X26500000Y-23300000D03*
D24*
X20200000Y-21000000D03*
D21*
X6604000Y-4064000D03*
D22*
X6604000Y-6604000D03*
X6604000Y-9144000D03*
X6604000Y-11684000D03*
X6604000Y-14224000D03*
X6604000Y-16764000D03*
X6604000Y-19304000D03*
X6604000Y-21844000D03*
D21*
X1524000Y-4064000D03*
D22*
X1524000Y-6604000D03*
X1524000Y-9144000D03*
X1524000Y-11684000D03*
X1524000Y-14224000D03*
X1524000Y-16764000D03*
X1524000Y-19304000D03*
X1524000Y-21844000D03*
D25*
X23750000Y-16500000D03*
X26250000Y-16500000D03*
X23750000Y-25500000D03*
X26250000Y-25500000D03*
X24250000Y-1500000D03*
X26750000Y-1500000D03*
D13*
X17500000Y-35300000D03*
X19300000Y-35300000D03*
X6720000Y-26670000D03*
X8520000Y-26670000D03*
D20*
X33500000Y-18900000D03*
X33500000Y-17100000D03*
X33500000Y-13600000D03*
X33500000Y-15400000D03*
X33500000Y-6400000D03*
X33500000Y-4600000D03*
X33500000Y-1100000D03*
X33500000Y-2900000D03*
X33500000Y-26100000D03*
X33500000Y-27900000D03*
X33500000Y-31400000D03*
X33500000Y-29600000D03*
X33500000Y-43900000D03*
X33500000Y-42100000D03*
X33500000Y-38600000D03*
X33500000Y-40400000D03*
D26*
X5498980Y-24500000D03*
X1501020Y-24500000D03*
D27*
X20000000Y-23730000D03*
X20000000Y-25000000D03*
X20000000Y-26270000D03*
X19558000Y-12954000D03*
X19558000Y-14224000D03*
X19558000Y-15494000D03*
D28*
X19500000Y-7900000D03*
X19500000Y-11100000D03*
D29*
X24500000Y-14025140D03*
X24500000Y-7974860D03*
D20*
X29000000Y-7900000D03*
X29000000Y-6100000D03*
X29000000Y-4400000D03*
X29000000Y-2600000D03*
D30*
X24800480Y-3550040D03*
X24800480Y-4500000D03*
X24800480Y-5449960D03*
X22199520Y-5449960D03*
X22199520Y-4500000D03*
X22199520Y-3550040D03*
D18*
X25500000Y-40000000D03*
D19*
X28040000Y-40000000D03*
M02*
