G04 #@! TF.FileFunction,Legend,Top*
%FSLAX46Y46*%
G04 Gerber Fmt 4.6, Leading zero omitted, Abs format (unit mm)*
G04 Created by KiCad (PCBNEW 4.0.4-stable) date 12/09/16 20:23:21*
%MOMM*%
%LPD*%
G01*
G04 APERTURE LIST*
%ADD10C,0.100000*%
%ADD11C,0.200000*%
%ADD12C,0.300000*%
%ADD13C,0.500000*%
%ADD14C,0.150000*%
%ADD15C,0.101600*%
G04 APERTURE END LIST*
D10*
D11*
X18161000Y-3175000D02*
X18161000Y-12700000D01*
X17780000Y-3175000D02*
X17780000Y-17780000D01*
X22500000Y-49500000D02*
X22500000Y-50000000D01*
X17500000Y-49500000D02*
X17500000Y-50000000D01*
X17500000Y0D02*
X17500000Y-500000D01*
X22500000Y-500000D02*
X22500000Y0D01*
D12*
X9914001Y-21022571D02*
X10914001Y-21022571D01*
X10271144Y-22522571D01*
X10699715Y-18482571D02*
X10414001Y-18482571D01*
X10271144Y-18554000D01*
X10199715Y-18625429D01*
X10056858Y-18839714D01*
X9985429Y-19125429D01*
X9985429Y-19696857D01*
X10056858Y-19839714D01*
X10128286Y-19911143D01*
X10271144Y-19982571D01*
X10556858Y-19982571D01*
X10699715Y-19911143D01*
X10771144Y-19839714D01*
X10842572Y-19696857D01*
X10842572Y-19339714D01*
X10771144Y-19196857D01*
X10699715Y-19125429D01*
X10556858Y-19054000D01*
X10271144Y-19054000D01*
X10128286Y-19125429D01*
X10056858Y-19196857D01*
X9985429Y-19339714D01*
X10771144Y-15942571D02*
X10056858Y-15942571D01*
X9985429Y-16656857D01*
X10056858Y-16585429D01*
X10199715Y-16514000D01*
X10556858Y-16514000D01*
X10699715Y-16585429D01*
X10771144Y-16656857D01*
X10842572Y-16799714D01*
X10842572Y-17156857D01*
X10771144Y-17299714D01*
X10699715Y-17371143D01*
X10556858Y-17442571D01*
X10199715Y-17442571D01*
X10056858Y-17371143D01*
X9985429Y-17299714D01*
X10699715Y-13902571D02*
X10699715Y-14902571D01*
X10342572Y-13331143D02*
X9985429Y-14402571D01*
X10914001Y-14402571D01*
X9914001Y-10862571D02*
X10842572Y-10862571D01*
X10342572Y-11434000D01*
X10556858Y-11434000D01*
X10699715Y-11505429D01*
X10771144Y-11576857D01*
X10842572Y-11719714D01*
X10842572Y-12076857D01*
X10771144Y-12219714D01*
X10699715Y-12291143D01*
X10556858Y-12362571D01*
X10128286Y-12362571D01*
X9985429Y-12291143D01*
X9914001Y-12219714D01*
X9985429Y-8465429D02*
X10056858Y-8394000D01*
X10199715Y-8322571D01*
X10556858Y-8322571D01*
X10699715Y-8394000D01*
X10771144Y-8465429D01*
X10842572Y-8608286D01*
X10842572Y-8751143D01*
X10771144Y-8965429D01*
X9914001Y-9822571D01*
X10842572Y-9822571D01*
X10842572Y-7282571D02*
X9985429Y-7282571D01*
X10414001Y-7282571D02*
X10414001Y-5782571D01*
X10271144Y-5996857D01*
X10128286Y-6139714D01*
X9985429Y-6211143D01*
X10342572Y-3242571D02*
X10485429Y-3242571D01*
X10628286Y-3314000D01*
X10699715Y-3385429D01*
X10771144Y-3528286D01*
X10842572Y-3814000D01*
X10842572Y-4171143D01*
X10771144Y-4456857D01*
X10699715Y-4599714D01*
X10628286Y-4671143D01*
X10485429Y-4742571D01*
X10342572Y-4742571D01*
X10199715Y-4671143D01*
X10128286Y-4599714D01*
X10056858Y-4456857D01*
X9985429Y-4171143D01*
X9985429Y-3814000D01*
X10056858Y-3528286D01*
X10128286Y-3385429D01*
X10199715Y-3314000D01*
X10342572Y-3242571D01*
X1546571Y-1812857D02*
X1546571Y-612857D01*
X2346572Y-612857D02*
X2575143Y-612857D01*
X2689429Y-670000D01*
X2803715Y-784286D01*
X2860857Y-1012857D01*
X2860857Y-1412857D01*
X2803715Y-1641429D01*
X2689429Y-1755714D01*
X2575143Y-1812857D01*
X2346572Y-1812857D01*
X2232286Y-1755714D01*
X2118000Y-1641429D01*
X2060857Y-1412857D01*
X2060857Y-1012857D01*
X2118000Y-784286D01*
X2232286Y-670000D01*
X2346572Y-612857D01*
X4232286Y-555714D02*
X3203715Y-2098571D01*
X4460858Y-612857D02*
X4860858Y-1812857D01*
X5260858Y-612857D01*
X6232286Y-1812857D02*
X5660857Y-1812857D01*
X5660857Y-612857D01*
X6460858Y-612857D02*
X6860858Y-1812857D01*
X7260858Y-612857D01*
D11*
X8128000Y-2032000D02*
X7620000Y-2032000D01*
X8128000Y-508000D02*
X7620000Y-508000D01*
X8128000Y-508000D02*
X8128000Y-2032000D01*
X9144000Y-1270000D02*
X8128000Y-1270000D01*
X10668000Y-2794000D02*
X9144000Y-1270000D01*
X15240000Y-23114000D02*
X15240000Y-2794000D01*
X10668000Y-23114000D02*
X15240000Y-23114000D01*
X15240000Y-2794000D02*
X10668000Y-2794000D01*
D12*
X26178571Y-49857143D02*
X26178571Y-49000000D01*
X27678571Y-49428571D02*
X26178571Y-49428571D01*
X27678571Y-48500000D02*
X26178571Y-48500000D01*
X27678571Y-47785714D02*
X26178571Y-47785714D01*
X27250000Y-47285714D01*
X26178571Y-46785714D01*
X27678571Y-46785714D01*
X26678571Y-45428571D02*
X27678571Y-45428571D01*
X26107143Y-45785714D02*
X27178571Y-46142857D01*
X27178571Y-45214285D01*
X26178571Y-37357143D02*
X26178571Y-36500000D01*
X27678571Y-36928571D02*
X26178571Y-36928571D01*
X27678571Y-36000000D02*
X26178571Y-36000000D01*
X27678571Y-35285714D02*
X26178571Y-35285714D01*
X27250000Y-34785714D01*
X26178571Y-34285714D01*
X27678571Y-34285714D01*
X27678571Y-32785714D02*
X27678571Y-33642857D01*
X27678571Y-33214285D02*
X26178571Y-33214285D01*
X26392857Y-33357142D01*
X26535714Y-33500000D01*
X26607143Y-33642857D01*
X26178571Y-24857143D02*
X26178571Y-24000000D01*
X27678571Y-24428571D02*
X26178571Y-24428571D01*
X27678571Y-23500000D02*
X26178571Y-23500000D01*
X27678571Y-22785714D02*
X26178571Y-22785714D01*
X27250000Y-22285714D01*
X26178571Y-21785714D01*
X27678571Y-21785714D01*
X26321429Y-21142857D02*
X26250000Y-21071428D01*
X26178571Y-20928571D01*
X26178571Y-20571428D01*
X26250000Y-20428571D01*
X26321429Y-20357142D01*
X26464286Y-20285714D01*
X26607143Y-20285714D01*
X26821429Y-20357142D01*
X27678571Y-21214285D01*
X27678571Y-20285714D01*
X26178571Y-12357143D02*
X26178571Y-11500000D01*
X27678571Y-11928571D02*
X26178571Y-11928571D01*
X27678571Y-11000000D02*
X26178571Y-11000000D01*
X27678571Y-10285714D02*
X26178571Y-10285714D01*
X27250000Y-9785714D01*
X26178571Y-9285714D01*
X27678571Y-9285714D01*
X26178571Y-8714285D02*
X26178571Y-7785714D01*
X26750000Y-8285714D01*
X26750000Y-8071428D01*
X26821429Y-7928571D01*
X26892857Y-7857142D01*
X27035714Y-7785714D01*
X27392857Y-7785714D01*
X27535714Y-7857142D01*
X27607143Y-7928571D01*
X27678571Y-8071428D01*
X27678571Y-8500000D01*
X27607143Y-8642857D01*
X27535714Y-8714285D01*
X1535714Y-23250000D02*
X1392857Y-23178571D01*
X1178571Y-23178571D01*
X964286Y-23250000D01*
X821428Y-23392857D01*
X750000Y-23535714D01*
X678571Y-23821429D01*
X678571Y-24035714D01*
X750000Y-24321429D01*
X821428Y-24464286D01*
X964286Y-24607143D01*
X1178571Y-24678571D01*
X1321428Y-24678571D01*
X1535714Y-24607143D01*
X1607143Y-24535714D01*
X1607143Y-24035714D01*
X1321428Y-24035714D01*
X3392857Y-24107143D02*
X4535714Y-24107143D01*
X3964285Y-24678571D02*
X3964285Y-23535714D01*
X6678571Y-23178571D02*
X6964285Y-23178571D01*
X7107143Y-23250000D01*
X7250000Y-23392857D01*
X7321428Y-23678571D01*
X7321428Y-24178571D01*
X7250000Y-24464286D01*
X7107143Y-24607143D01*
X6964285Y-24678571D01*
X6678571Y-24678571D01*
X6535714Y-24607143D01*
X6392857Y-24464286D01*
X6321428Y-24178571D01*
X6321428Y-23678571D01*
X6392857Y-23392857D01*
X6535714Y-23250000D01*
X6678571Y-23178571D01*
X7464286Y-30035715D02*
X7392857Y-29964286D01*
X7321429Y-29750000D01*
X7321429Y-29607143D01*
X7392857Y-29392858D01*
X7535714Y-29250000D01*
X7678571Y-29178572D01*
X7964286Y-29107143D01*
X8178571Y-29107143D01*
X8464286Y-29178572D01*
X8607143Y-29250000D01*
X8750000Y-29392858D01*
X8821429Y-29607143D01*
X8821429Y-29750000D01*
X8750000Y-29964286D01*
X8678571Y-30035715D01*
X7750000Y-30607143D02*
X7750000Y-31321429D01*
X7321429Y-30464286D02*
X8821429Y-30964286D01*
X7321429Y-31464286D01*
X7321429Y-31964286D02*
X8821429Y-31964286D01*
X7321429Y-32821429D01*
X8821429Y-32821429D01*
D11*
X18573905Y-28900381D02*
X18573905Y-27900381D01*
X18954858Y-27900381D01*
X19050096Y-27948000D01*
X19097715Y-27995619D01*
X19145334Y-28090857D01*
X19145334Y-28233714D01*
X19097715Y-28328952D01*
X19050096Y-28376571D01*
X18954858Y-28424190D01*
X18573905Y-28424190D01*
X19907239Y-28376571D02*
X20050096Y-28424190D01*
X20097715Y-28471810D01*
X20145334Y-28567048D01*
X20145334Y-28709905D01*
X20097715Y-28805143D01*
X20050096Y-28852762D01*
X19954858Y-28900381D01*
X19573905Y-28900381D01*
X19573905Y-27900381D01*
X19907239Y-27900381D01*
X20002477Y-27948000D01*
X20050096Y-27995619D01*
X20097715Y-28090857D01*
X20097715Y-28186095D01*
X20050096Y-28281333D01*
X20002477Y-28328952D01*
X19907239Y-28376571D01*
X19573905Y-28376571D01*
X20764381Y-27900381D02*
X20859620Y-27900381D01*
X20954858Y-27948000D01*
X21002477Y-27995619D01*
X21050096Y-28090857D01*
X21097715Y-28281333D01*
X21097715Y-28519429D01*
X21050096Y-28709905D01*
X21002477Y-28805143D01*
X20954858Y-28852762D01*
X20859620Y-28900381D01*
X20764381Y-28900381D01*
X20669143Y-28852762D01*
X20621524Y-28805143D01*
X20573905Y-28709905D01*
X20526286Y-28519429D01*
X20526286Y-28281333D01*
X20573905Y-28090857D01*
X20621524Y-27995619D01*
X20669143Y-27948000D01*
X20764381Y-27900381D01*
X18589810Y-25106381D02*
X19208858Y-25106381D01*
X18875524Y-25487333D01*
X19018382Y-25487333D01*
X19113620Y-25534952D01*
X19161239Y-25582571D01*
X19208858Y-25677810D01*
X19208858Y-25915905D01*
X19161239Y-26011143D01*
X19113620Y-26058762D01*
X19018382Y-26106381D01*
X18732667Y-26106381D01*
X18637429Y-26058762D01*
X18589810Y-26011143D01*
X19637429Y-26011143D02*
X19685048Y-26058762D01*
X19637429Y-26106381D01*
X19589810Y-26058762D01*
X19637429Y-26011143D01*
X19637429Y-26106381D01*
X20018381Y-25106381D02*
X20637429Y-25106381D01*
X20304095Y-25487333D01*
X20446953Y-25487333D01*
X20542191Y-25534952D01*
X20589810Y-25582571D01*
X20637429Y-25677810D01*
X20637429Y-25915905D01*
X20589810Y-26011143D01*
X20542191Y-26058762D01*
X20446953Y-26106381D01*
X20161238Y-26106381D01*
X20066000Y-26058762D01*
X20018381Y-26011143D01*
X20923143Y-25106381D02*
X21256476Y-26106381D01*
X21589810Y-25106381D01*
D12*
X9096857Y-25758857D02*
X9496857Y-26958857D01*
X9896857Y-25758857D01*
X10868285Y-26958857D02*
X10296856Y-26958857D01*
X10296856Y-25758857D01*
X11096857Y-25758857D02*
X11496857Y-26958857D01*
X11896857Y-25758857D01*
X14068285Y-25701714D02*
X13039714Y-27244571D01*
X15382571Y-26958857D02*
X15382571Y-25758857D01*
X16182572Y-25758857D02*
X16411143Y-25758857D01*
X16525429Y-25816000D01*
X16639715Y-25930286D01*
X16696857Y-26158857D01*
X16696857Y-26558857D01*
X16639715Y-26787429D01*
X16525429Y-26901714D01*
X16411143Y-26958857D01*
X16182572Y-26958857D01*
X16068286Y-26901714D01*
X15954000Y-26787429D01*
X15896857Y-26558857D01*
X15896857Y-26158857D01*
X15954000Y-25930286D01*
X16068286Y-25816000D01*
X16182572Y-25758857D01*
D11*
X17500000Y-500000D02*
G75*
G03X22500000Y-500000I2500000J0D01*
G01*
X22500000Y-49500000D02*
G75*
G03X17500000Y-49500000I-2500000J0D01*
G01*
D13*
X28300000Y-25000000D02*
X28300000Y-29500000D01*
X28300000Y-29500000D02*
X29300000Y-29500000D01*
X29300000Y-29500000D02*
X29300000Y-33000000D01*
X29300000Y-33000000D02*
X28300000Y-33000000D01*
X28300000Y-33000000D02*
X28300000Y-37500000D01*
X34700000Y-37500000D02*
X34700000Y-25000000D01*
X28300000Y-37500000D02*
X34700000Y-37500000D01*
X34700000Y-25000000D02*
X28300000Y-25000000D01*
X6700000Y-50000000D02*
X6700000Y-45500000D01*
X6700000Y-45500000D02*
X5700000Y-45500000D01*
X5700000Y-45500000D02*
X5700000Y-42000000D01*
X5700000Y-42000000D02*
X6700000Y-42000000D01*
X6700000Y-42000000D02*
X6700000Y-37500000D01*
X300000Y-37500000D02*
X300000Y-50000000D01*
X6700000Y-37500000D02*
X300000Y-37500000D01*
X300000Y-50000000D02*
X6700000Y-50000000D01*
D14*
X18466000Y-25134000D02*
X21166000Y-25134000D01*
X18466000Y-23634000D02*
X21166000Y-23634000D01*
X19966000Y-24534000D02*
X19966000Y-24284000D01*
X19966000Y-24284000D02*
X19816000Y-24434000D01*
X19716000Y-24034000D02*
X19716000Y-24734000D01*
X20066000Y-24384000D02*
X20416000Y-24384000D01*
X19716000Y-24384000D02*
X20066000Y-24034000D01*
X20066000Y-24034000D02*
X20066000Y-24734000D01*
X20066000Y-24734000D02*
X19716000Y-24384000D01*
X18466000Y-27674000D02*
X21166000Y-27674000D01*
X18466000Y-26174000D02*
X21166000Y-26174000D01*
X19966000Y-27074000D02*
X19966000Y-26824000D01*
X19966000Y-26824000D02*
X19816000Y-26974000D01*
X19716000Y-26574000D02*
X19716000Y-27274000D01*
X20066000Y-26924000D02*
X20416000Y-26924000D01*
X19716000Y-26924000D02*
X20066000Y-26574000D01*
X20066000Y-26574000D02*
X20066000Y-27274000D01*
X20066000Y-27274000D02*
X19716000Y-26924000D01*
X13900000Y-48450000D02*
X11100000Y-48450000D01*
X11100000Y-48450000D02*
X11100000Y-47050000D01*
X11100000Y-47050000D02*
X13900000Y-47050000D01*
X13900000Y-47050000D02*
X13900000Y-48450000D01*
X9500000Y-49500000D02*
X9500000Y-48850000D01*
X9500000Y-46000000D02*
X9500000Y-46650000D01*
X15500000Y-46650000D02*
X15500000Y-46000000D01*
X15500000Y-49500000D02*
X15500000Y-48850000D01*
X9500000Y-49500000D02*
X15500000Y-49500000D01*
X15500000Y-46000000D02*
X9500000Y-46000000D01*
X17500000Y-39876524D02*
X17871231Y-39505293D01*
X12373476Y-34750000D02*
X12744707Y-34378769D01*
X17500000Y-29623476D02*
X17128769Y-29994707D01*
X22626524Y-34750000D02*
X22255293Y-35121231D01*
X17500000Y-39876524D02*
X17128769Y-39505293D01*
X22626524Y-34750000D02*
X22255293Y-34378769D01*
X17500000Y-29623476D02*
X17871231Y-29994707D01*
X12373476Y-34750000D02*
X12744707Y-35121231D01*
X17871231Y-39505293D02*
X18843503Y-40477565D01*
D13*
X20750000Y-45100000D02*
X25750000Y-45100000D01*
X25750000Y-41900000D02*
X20750000Y-41900000D01*
X7500000Y-42050000D02*
X7500000Y-45550000D01*
X18000000Y-42050000D02*
X7500000Y-42050000D01*
X18000000Y-45550000D02*
X7500000Y-45550000D01*
X18000000Y-45550000D02*
X18000000Y-42050000D01*
D14*
X9770000Y-37770000D02*
X9770000Y-40310000D01*
X10050000Y-34950000D02*
X10050000Y-36500000D01*
X9770000Y-37770000D02*
X7230000Y-37770000D01*
X6950000Y-36500000D02*
X6950000Y-34950000D01*
X6950000Y-34950000D02*
X10050000Y-34950000D01*
X7230000Y-37770000D02*
X7230000Y-40310000D01*
X7230000Y-40310000D02*
X9770000Y-40310000D01*
X11049000Y-4953000D02*
X14859000Y-4953000D01*
X14859000Y-4953000D02*
X14859000Y-3175000D01*
X14859000Y-3175000D02*
X11049000Y-3175000D01*
X11049000Y-4953000D02*
X11049000Y-3175000D01*
X11049000Y-15113000D02*
X14859000Y-15113000D01*
X14859000Y-15113000D02*
X14859000Y-13335000D01*
X14859000Y-13335000D02*
X11049000Y-13335000D01*
X11049000Y-15113000D02*
X11049000Y-13335000D01*
X11049000Y-7493000D02*
X14859000Y-7493000D01*
X14859000Y-7493000D02*
X14859000Y-5715000D01*
X14859000Y-5715000D02*
X11049000Y-5715000D01*
X11049000Y-7493000D02*
X11049000Y-5715000D01*
X11049000Y-17653000D02*
X14859000Y-17653000D01*
X14859000Y-17653000D02*
X14859000Y-15875000D01*
X14859000Y-15875000D02*
X11049000Y-15875000D01*
X11049000Y-17653000D02*
X11049000Y-15875000D01*
X11049000Y-20193000D02*
X14859000Y-20193000D01*
X14859000Y-20193000D02*
X14859000Y-18415000D01*
X14859000Y-18415000D02*
X11049000Y-18415000D01*
X11049000Y-20193000D02*
X11049000Y-18415000D01*
X11049000Y-10033000D02*
X14859000Y-10033000D01*
X14859000Y-10033000D02*
X14859000Y-8255000D01*
X14859000Y-8255000D02*
X11049000Y-8255000D01*
X11049000Y-10033000D02*
X11049000Y-8255000D01*
X11049000Y-22733000D02*
X14859000Y-22733000D01*
X14859000Y-22733000D02*
X14859000Y-20955000D01*
X14859000Y-20955000D02*
X11049000Y-20955000D01*
X11049000Y-22733000D02*
X11049000Y-20955000D01*
X11049000Y-12573000D02*
X14859000Y-12573000D01*
X14859000Y-12573000D02*
X14859000Y-10795000D01*
X14859000Y-10795000D02*
X11049000Y-10795000D01*
X11049000Y-12573000D02*
X11049000Y-10795000D01*
X11049000Y-2413000D02*
X14859000Y-2413000D01*
X14859000Y-2413000D02*
X14859000Y-635000D01*
X14859000Y-635000D02*
X11049000Y-635000D01*
X11049000Y-2413000D02*
X11049000Y-635000D01*
D13*
X6700000Y-37500000D02*
X6700000Y-33000000D01*
X6700000Y-33000000D02*
X5700000Y-33000000D01*
X5700000Y-33000000D02*
X5700000Y-29500000D01*
X5700000Y-29500000D02*
X6700000Y-29500000D01*
X6700000Y-29500000D02*
X6700000Y-25000000D01*
X300000Y-25000000D02*
X300000Y-37500000D01*
X6700000Y-25000000D02*
X300000Y-25000000D01*
X300000Y-37500000D02*
X6700000Y-37500000D01*
D14*
X5334000Y-5334000D02*
X5334000Y-23114000D01*
X5334000Y-23114000D02*
X2794000Y-23114000D01*
X2794000Y-23114000D02*
X2794000Y-5334000D01*
X5614000Y-2514000D02*
X5614000Y-4064000D01*
X5334000Y-5334000D02*
X2794000Y-5334000D01*
X2514000Y-4064000D02*
X2514000Y-2514000D01*
X2514000Y-2514000D02*
X5614000Y-2514000D01*
D13*
X28300000Y-12500000D02*
X28300000Y-17000000D01*
X28300000Y-17000000D02*
X29300000Y-17000000D01*
X29300000Y-17000000D02*
X29300000Y-20500000D01*
X29300000Y-20500000D02*
X28300000Y-20500000D01*
X28300000Y-20500000D02*
X28300000Y-25000000D01*
X34700000Y-25000000D02*
X34700000Y-12500000D01*
X28300000Y-25000000D02*
X34700000Y-25000000D01*
X34700000Y-12500000D02*
X28300000Y-12500000D01*
X28300000Y0D02*
X28300000Y-4500000D01*
X28300000Y-4500000D02*
X29300000Y-4500000D01*
X29300000Y-4500000D02*
X29300000Y-8000000D01*
X29300000Y-8000000D02*
X28300000Y-8000000D01*
X28300000Y-8000000D02*
X28300000Y-12500000D01*
X34700000Y-12500000D02*
X34700000Y0D01*
X28300000Y-12500000D02*
X34700000Y-12500000D01*
X34700000Y0D02*
X28300000Y0D01*
X28300000Y-37500000D02*
X28300000Y-42000000D01*
X28300000Y-42000000D02*
X29300000Y-42000000D01*
X29300000Y-42000000D02*
X29300000Y-45500000D01*
X29300000Y-45500000D02*
X28300000Y-45500000D01*
X28300000Y-45500000D02*
X28300000Y-50000000D01*
X34700000Y-50000000D02*
X34700000Y-37500000D01*
X28300000Y-50000000D02*
X34700000Y-50000000D01*
X34700000Y-37500000D02*
X28300000Y-37500000D01*
D14*
X7874000Y-5334000D02*
X7874000Y-23114000D01*
X7874000Y-23114000D02*
X5334000Y-23114000D01*
X5334000Y-23114000D02*
X5334000Y-5334000D01*
X8154000Y-2514000D02*
X8154000Y-4064000D01*
X7874000Y-5334000D02*
X5334000Y-5334000D01*
X5054000Y-4064000D02*
X5054000Y-2514000D01*
X5054000Y-2514000D02*
X8154000Y-2514000D01*
X2794000Y-5334000D02*
X2794000Y-23114000D01*
X2794000Y-23114000D02*
X254000Y-23114000D01*
X254000Y-23114000D02*
X254000Y-5334000D01*
X3074000Y-2514000D02*
X3074000Y-4064000D01*
X2794000Y-5334000D02*
X254000Y-5334000D01*
X-26000Y-4064000D02*
X-26000Y-2514000D01*
X-26000Y-2514000D02*
X3074000Y-2514000D01*
D12*
X19766000Y-4064000D02*
X20366000Y-4564000D01*
X19766000Y-4064000D02*
X20366000Y-3564000D01*
D14*
X18466000Y-4814000D02*
X21166000Y-4814000D01*
X18466000Y-3314000D02*
X21166000Y-3314000D01*
D12*
X19766000Y-6604000D02*
X20366000Y-7104000D01*
X19766000Y-6604000D02*
X20366000Y-6104000D01*
D14*
X18466000Y-7354000D02*
X21166000Y-7354000D01*
X18466000Y-5854000D02*
X21166000Y-5854000D01*
D12*
X19766000Y-9144000D02*
X20366000Y-9644000D01*
X19766000Y-9144000D02*
X20366000Y-8644000D01*
D14*
X18466000Y-9894000D02*
X21166000Y-9894000D01*
X18466000Y-8394000D02*
X21166000Y-8394000D01*
D12*
X19766000Y-11684000D02*
X20366000Y-12184000D01*
X19766000Y-11684000D02*
X20366000Y-11184000D01*
D14*
X18466000Y-12434000D02*
X21166000Y-12434000D01*
X18466000Y-10934000D02*
X21166000Y-10934000D01*
D12*
X19766000Y-14224000D02*
X20366000Y-14724000D01*
X19766000Y-14224000D02*
X20366000Y-13724000D01*
D14*
X18466000Y-14974000D02*
X21166000Y-14974000D01*
X18466000Y-13474000D02*
X21166000Y-13474000D01*
D12*
X19766000Y-16764000D02*
X20366000Y-17264000D01*
X19766000Y-16764000D02*
X20366000Y-16264000D01*
D14*
X18466000Y-17514000D02*
X21166000Y-17514000D01*
X18466000Y-16014000D02*
X21166000Y-16014000D01*
D12*
X19766000Y-19304000D02*
X20366000Y-19804000D01*
X19766000Y-19304000D02*
X20366000Y-18804000D01*
D14*
X18466000Y-20054000D02*
X21166000Y-20054000D01*
X18466000Y-18554000D02*
X21166000Y-18554000D01*
D12*
X19766000Y-21844000D02*
X20366000Y-22344000D01*
X19766000Y-21844000D02*
X20366000Y-21344000D01*
D14*
X18466000Y-22594000D02*
X21166000Y-22594000D01*
X18466000Y-21094000D02*
X21166000Y-21094000D01*
X11049000Y-25273000D02*
X14859000Y-25273000D01*
X14859000Y-25273000D02*
X14859000Y-23495000D01*
X14859000Y-23495000D02*
X11049000Y-23495000D01*
X11049000Y-25273000D02*
X11049000Y-23495000D01*
D15*
X18850952Y-47270190D02*
X18793500Y-47212738D01*
X18736048Y-47097833D01*
X18736048Y-46810571D01*
X18793500Y-46695667D01*
X18850952Y-46638214D01*
X18965857Y-46580762D01*
X19080762Y-46580762D01*
X19253119Y-46638214D01*
X19942548Y-47327643D01*
X19942548Y-46580762D01*
X18850952Y-46121142D02*
X18793500Y-46063690D01*
X18736048Y-45948785D01*
X18736048Y-45661523D01*
X18793500Y-45546619D01*
X18850952Y-45489166D01*
X18965857Y-45431714D01*
X19080762Y-45431714D01*
X19253119Y-45489166D01*
X19942548Y-46178595D01*
X19942548Y-45431714D01*
X19138214Y-44914642D02*
X20344714Y-44914642D01*
X19195667Y-44914642D02*
X19138214Y-44799737D01*
X19138214Y-44569928D01*
X19195667Y-44455023D01*
X19253119Y-44397571D01*
X19368024Y-44340118D01*
X19712738Y-44340118D01*
X19827643Y-44397571D01*
X19885095Y-44455023D01*
X19942548Y-44569928D01*
X19942548Y-44799737D01*
X19885095Y-44914642D01*
X22729810Y-46850952D02*
X22787262Y-46793500D01*
X22902167Y-46736048D01*
X23189429Y-46736048D01*
X23304333Y-46793500D01*
X23361786Y-46850952D01*
X23419238Y-46965857D01*
X23419238Y-47080762D01*
X23361786Y-47253119D01*
X22672357Y-47942548D01*
X23419238Y-47942548D01*
X23878858Y-46850952D02*
X23936310Y-46793500D01*
X24051215Y-46736048D01*
X24338477Y-46736048D01*
X24453381Y-46793500D01*
X24510834Y-46850952D01*
X24568286Y-46965857D01*
X24568286Y-47080762D01*
X24510834Y-47253119D01*
X23821405Y-47942548D01*
X24568286Y-47942548D01*
X25085358Y-47138214D02*
X25085358Y-48344714D01*
X25085358Y-47195667D02*
X25200263Y-47138214D01*
X25430072Y-47138214D01*
X25544977Y-47195667D01*
X25602429Y-47253119D01*
X25659882Y-47368024D01*
X25659882Y-47712738D01*
X25602429Y-47827643D01*
X25544977Y-47885095D01*
X25430072Y-47942548D01*
X25200263Y-47942548D01*
X25085358Y-47885095D01*
X23017238Y-23564548D02*
X22327810Y-23564548D01*
X22672524Y-23564548D02*
X22672524Y-22358048D01*
X22557619Y-22530405D01*
X22442714Y-22645310D01*
X22327810Y-22702762D01*
X23764119Y-22358048D02*
X23879024Y-22358048D01*
X23993929Y-22415500D01*
X24051381Y-22472952D01*
X24108834Y-22587857D01*
X24166286Y-22817667D01*
X24166286Y-23104929D01*
X24108834Y-23334738D01*
X24051381Y-23449643D01*
X23993929Y-23507095D01*
X23879024Y-23564548D01*
X23764119Y-23564548D01*
X23649215Y-23507095D01*
X23591762Y-23449643D01*
X23534310Y-23334738D01*
X23476858Y-23104929D01*
X23476858Y-22817667D01*
X23534310Y-22587857D01*
X23591762Y-22472952D01*
X23649215Y-22415500D01*
X23764119Y-22358048D01*
X24913167Y-22358048D02*
X25028072Y-22358048D01*
X25142977Y-22415500D01*
X25200429Y-22472952D01*
X25257882Y-22587857D01*
X25315334Y-22817667D01*
X25315334Y-23104929D01*
X25257882Y-23334738D01*
X25200429Y-23449643D01*
X25142977Y-23507095D01*
X25028072Y-23564548D01*
X24913167Y-23564548D01*
X24798263Y-23507095D01*
X24740810Y-23449643D01*
X24683358Y-23334738D01*
X24625906Y-23104929D01*
X24625906Y-22817667D01*
X24683358Y-22587857D01*
X24740810Y-22472952D01*
X24798263Y-22415500D01*
X24913167Y-22358048D01*
X23017238Y-26358548D02*
X22327810Y-26358548D01*
X22672524Y-26358548D02*
X22672524Y-25152048D01*
X22557619Y-25324405D01*
X22442714Y-25439310D01*
X22327810Y-25496762D01*
X23764119Y-25152048D02*
X23879024Y-25152048D01*
X23993929Y-25209500D01*
X24051381Y-25266952D01*
X24108834Y-25381857D01*
X24166286Y-25611667D01*
X24166286Y-25898929D01*
X24108834Y-26128738D01*
X24051381Y-26243643D01*
X23993929Y-26301095D01*
X23879024Y-26358548D01*
X23764119Y-26358548D01*
X23649215Y-26301095D01*
X23591762Y-26243643D01*
X23534310Y-26128738D01*
X23476858Y-25898929D01*
X23476858Y-25611667D01*
X23534310Y-25381857D01*
X23591762Y-25266952D01*
X23649215Y-25209500D01*
X23764119Y-25152048D01*
X24913167Y-25152048D02*
X25028072Y-25152048D01*
X25142977Y-25209500D01*
X25200429Y-25266952D01*
X25257882Y-25381857D01*
X25315334Y-25611667D01*
X25315334Y-25898929D01*
X25257882Y-26128738D01*
X25200429Y-26243643D01*
X25142977Y-26301095D01*
X25028072Y-26358548D01*
X24913167Y-26358548D01*
X24798263Y-26301095D01*
X24740810Y-26243643D01*
X24683358Y-26128738D01*
X24625906Y-25898929D01*
X24625906Y-25611667D01*
X24683358Y-25381857D01*
X24740810Y-25266952D01*
X24798263Y-25209500D01*
X24913167Y-25152048D01*
X22648333Y-2694214D02*
X22648333Y-3498548D01*
X22361071Y-2234595D02*
X22073810Y-3096381D01*
X22820690Y-3096381D01*
X23280310Y-3383643D02*
X23337762Y-3441095D01*
X23280310Y-3498548D01*
X23222858Y-3441095D01*
X23280310Y-3383643D01*
X23280310Y-3498548D01*
X23739929Y-2292048D02*
X24544262Y-2292048D01*
X24027191Y-3498548D01*
X25003882Y-3498548D02*
X25003882Y-2292048D01*
X25118787Y-3038929D02*
X25463501Y-3498548D01*
X25463501Y-2694214D02*
X25003882Y-3153833D01*
X22648333Y-5234214D02*
X22648333Y-6038548D01*
X22361071Y-4774595D02*
X22073810Y-5636381D01*
X22820690Y-5636381D01*
X23280310Y-5923643D02*
X23337762Y-5981095D01*
X23280310Y-6038548D01*
X23222858Y-5981095D01*
X23280310Y-5923643D01*
X23280310Y-6038548D01*
X23739929Y-4832048D02*
X24544262Y-4832048D01*
X24027191Y-6038548D01*
X25003882Y-6038548D02*
X25003882Y-4832048D01*
X25118787Y-5578929D02*
X25463501Y-6038548D01*
X25463501Y-5234214D02*
X25003882Y-5693833D01*
X22648333Y-7774214D02*
X22648333Y-8578548D01*
X22361071Y-7314595D02*
X22073810Y-8176381D01*
X22820690Y-8176381D01*
X23280310Y-8463643D02*
X23337762Y-8521095D01*
X23280310Y-8578548D01*
X23222858Y-8521095D01*
X23280310Y-8463643D01*
X23280310Y-8578548D01*
X23739929Y-7372048D02*
X24544262Y-7372048D01*
X24027191Y-8578548D01*
X25003882Y-8578548D02*
X25003882Y-7372048D01*
X25118787Y-8118929D02*
X25463501Y-8578548D01*
X25463501Y-7774214D02*
X25003882Y-8233833D01*
X22648333Y-10314214D02*
X22648333Y-11118548D01*
X22361071Y-9854595D02*
X22073810Y-10716381D01*
X22820690Y-10716381D01*
X23280310Y-11003643D02*
X23337762Y-11061095D01*
X23280310Y-11118548D01*
X23222858Y-11061095D01*
X23280310Y-11003643D01*
X23280310Y-11118548D01*
X23739929Y-9912048D02*
X24544262Y-9912048D01*
X24027191Y-11118548D01*
X25003882Y-11118548D02*
X25003882Y-9912048D01*
X25118787Y-10658929D02*
X25463501Y-11118548D01*
X25463501Y-10314214D02*
X25003882Y-10773833D01*
X22648333Y-12854214D02*
X22648333Y-13658548D01*
X22361071Y-12394595D02*
X22073810Y-13256381D01*
X22820690Y-13256381D01*
X23280310Y-13543643D02*
X23337762Y-13601095D01*
X23280310Y-13658548D01*
X23222858Y-13601095D01*
X23280310Y-13543643D01*
X23280310Y-13658548D01*
X23739929Y-12452048D02*
X24544262Y-12452048D01*
X24027191Y-13658548D01*
X25003882Y-13658548D02*
X25003882Y-12452048D01*
X25118787Y-13198929D02*
X25463501Y-13658548D01*
X25463501Y-12854214D02*
X25003882Y-13313833D01*
X22648333Y-15394214D02*
X22648333Y-16198548D01*
X22361071Y-14934595D02*
X22073810Y-15796381D01*
X22820690Y-15796381D01*
X23280310Y-16083643D02*
X23337762Y-16141095D01*
X23280310Y-16198548D01*
X23222858Y-16141095D01*
X23280310Y-16083643D01*
X23280310Y-16198548D01*
X23739929Y-14992048D02*
X24544262Y-14992048D01*
X24027191Y-16198548D01*
X25003882Y-16198548D02*
X25003882Y-14992048D01*
X25118787Y-15738929D02*
X25463501Y-16198548D01*
X25463501Y-15394214D02*
X25003882Y-15853833D01*
X22648333Y-17934214D02*
X22648333Y-18738548D01*
X22361071Y-17474595D02*
X22073810Y-18336381D01*
X22820690Y-18336381D01*
X23280310Y-18623643D02*
X23337762Y-18681095D01*
X23280310Y-18738548D01*
X23222858Y-18681095D01*
X23280310Y-18623643D01*
X23280310Y-18738548D01*
X23739929Y-17532048D02*
X24544262Y-17532048D01*
X24027191Y-18738548D01*
X25003882Y-18738548D02*
X25003882Y-17532048D01*
X25118787Y-18278929D02*
X25463501Y-18738548D01*
X25463501Y-17934214D02*
X25003882Y-18393833D01*
X22648333Y-20474214D02*
X22648333Y-21278548D01*
X22361071Y-20014595D02*
X22073810Y-20876381D01*
X22820690Y-20876381D01*
X23280310Y-21163643D02*
X23337762Y-21221095D01*
X23280310Y-21278548D01*
X23222858Y-21221095D01*
X23280310Y-21163643D01*
X23280310Y-21278548D01*
X23739929Y-20072048D02*
X24544262Y-20072048D01*
X24027191Y-21278548D01*
X25003882Y-21278548D02*
X25003882Y-20072048D01*
X25118787Y-20818929D02*
X25463501Y-21278548D01*
X25463501Y-20474214D02*
X25003882Y-20933833D01*
M02*
