G04 #@! TF.FileFunction,Copper,L2,Bot,Signal*
%FSLAX46Y46*%
G04 Gerber Fmt 4.6, Leading zero omitted, Abs format (unit mm)*
G04 Created by KiCad (PCBNEW 4.0.6) date 04/01/17 10:49:54*
%MOMM*%
%LPD*%
G01*
G04 APERTURE LIST*
%ADD10C,0.100000*%
%ADD11O,2.000000X1.200000*%
%ADD12R,2.000000X2.000000*%
%ADD13C,2.000000*%
%ADD14R,0.800000X1.000000*%
%ADD15C,1.500000*%
%ADD16C,1.770000*%
%ADD17R,1.770000X1.770000*%
%ADD18C,4.000000*%
%ADD19C,0.500000*%
%ADD20C,0.026000*%
G04 APERTURE END LIST*
D10*
D11*
X26670000Y1270000D03*
X26670000Y-1270000D03*
X26670000Y-3810000D03*
X26670000Y-6350000D03*
X26670000Y-8890000D03*
X26670000Y-11430000D03*
X26670000Y-13970000D03*
X26670000Y-16510000D03*
X26670000Y-19050000D03*
X26670000Y-21590000D03*
X26670000Y-24130000D03*
X26670000Y-26670000D03*
X26670000Y-29210000D03*
X26670000Y-31750000D03*
X26670000Y-34290000D03*
X26670000Y-36830000D03*
X26670000Y-39370000D03*
X26670000Y-41910000D03*
X54610000Y-41910000D03*
X54610000Y-39370000D03*
X54610000Y-36830000D03*
X54610000Y-34290000D03*
X54610000Y-31750000D03*
X54610000Y-29210000D03*
X54610000Y-26670000D03*
X54610000Y-24130000D03*
X54610000Y-21590000D03*
X54610000Y-19050000D03*
X54610000Y-16510000D03*
X54610000Y-13970000D03*
X54610000Y-11430000D03*
X54610000Y-8890000D03*
X54610000Y-6350000D03*
X54610000Y-3810000D03*
X54610000Y-1270000D03*
X54610000Y1270000D03*
D12*
X62230000Y-34290000D03*
D13*
X64770000Y-34290000D03*
D12*
X66040000Y-1270000D03*
D13*
X68580000Y-1270000D03*
D12*
X62230000Y-3810000D03*
D13*
X64770000Y-3810000D03*
D12*
X66040000Y-6350000D03*
D13*
X68580000Y-6350000D03*
D12*
X62230000Y-8890000D03*
D13*
X64770000Y-8890000D03*
D12*
X66040000Y-11430000D03*
D13*
X68580000Y-11430000D03*
D12*
X62230000Y-13970000D03*
D13*
X64770000Y-13970000D03*
D12*
X66040000Y-16510000D03*
D13*
X68580000Y-16510000D03*
D14*
X71505000Y-34290000D03*
X69705000Y-34290000D03*
X71505000Y-1270000D03*
X69705000Y-1270000D03*
X71505000Y-3810000D03*
X69705000Y-3810000D03*
X71505000Y-6350000D03*
X69705000Y-6350000D03*
X71505000Y-8890000D03*
X69705000Y-8890000D03*
X71505000Y-11430000D03*
X69705000Y-11430000D03*
X71505000Y-13970000D03*
X69705000Y-13970000D03*
X71505000Y-16510000D03*
X69705000Y-16510000D03*
D15*
X20320000Y2540000D03*
X17780000Y2540000D03*
X15240000Y2540000D03*
X15240000Y-5080000D03*
X17780000Y-5080000D03*
X20320000Y-5080000D03*
D16*
X20320000Y-12700000D03*
X17780000Y-12700000D03*
X15240000Y-12700000D03*
D17*
X12700000Y-12700000D03*
X22860000Y-12700000D03*
D16*
X20320000Y-22860000D03*
X17780000Y-22860000D03*
X15240000Y-22860000D03*
D17*
X12700000Y-22860000D03*
X22860000Y-22860000D03*
D16*
X20320000Y-33020000D03*
X17780000Y-33020000D03*
X15240000Y-33020000D03*
D17*
X12700000Y-33020000D03*
X22860000Y-33020000D03*
D16*
X20320000Y-43180000D03*
X17780000Y-43180000D03*
X15240000Y-43180000D03*
D17*
X12700000Y-43180000D03*
X22860000Y-43180000D03*
D12*
X62230000Y-19050000D03*
D13*
X64770000Y-19050000D03*
D12*
X66040000Y-21590000D03*
D13*
X68580000Y-21590000D03*
D12*
X62230000Y-24130000D03*
D13*
X64770000Y-24130000D03*
D12*
X66040000Y-26670000D03*
D13*
X68580000Y-26670000D03*
D12*
X62230000Y-29210000D03*
D13*
X64770000Y-29210000D03*
D12*
X66040000Y-31750000D03*
D13*
X68580000Y-31750000D03*
D14*
X71505000Y-19050000D03*
X69705000Y-19050000D03*
X71505000Y-21590000D03*
X69705000Y-21590000D03*
X71505000Y-24130000D03*
X69705000Y-24130000D03*
X71505000Y-26670000D03*
X69705000Y-26670000D03*
X71505000Y-29210000D03*
X69705000Y-29210000D03*
X71505000Y-31750000D03*
X69705000Y-31750000D03*
D12*
X66040000Y-36830000D03*
D13*
X68580000Y-36830000D03*
D12*
X62230000Y-39370000D03*
D13*
X64770000Y-39370000D03*
D14*
X71505000Y-36830000D03*
X69705000Y-36830000D03*
X71505000Y-39370000D03*
X69705000Y-39370000D03*
D18*
X9000000Y-46000000D03*
X73000000Y-46000000D03*
X73000000Y2000000D03*
X9000000Y2000000D03*
D19*
X54730000Y-31750000D02*
X54730000Y-31750000D01*
X57404000Y-46228000D02*
X34544000Y-46228000D01*
X29718000Y-41402000D02*
X29718000Y-34678000D01*
X34544000Y-46228000D02*
X29718000Y-41402000D01*
X59690000Y-35052000D02*
X60452000Y-34290000D01*
X59690000Y-35052000D02*
X59690000Y-43942000D01*
X59690000Y-43942000D02*
X57404000Y-46228000D01*
X26790000Y-31750000D02*
X29718000Y-34678000D01*
X60452000Y-34290000D02*
X62230000Y-34290000D01*
X69705000Y-34290000D02*
X64770000Y-34290000D01*
X54610000Y-1270000D02*
X66040000Y-1270000D01*
X69705000Y-1270000D02*
X68580000Y-1270000D01*
X62230000Y-3810000D02*
X54610000Y-3810000D01*
X69705000Y-3810000D02*
X64770000Y-3810000D01*
X54610000Y-6350000D02*
X66040000Y-6350000D01*
X69705000Y-6350000D02*
X68580000Y-6350000D01*
X54610000Y-8890000D02*
X62230000Y-8890000D01*
X69705000Y-8890000D02*
X64770000Y-8890000D01*
X66040000Y-11430000D02*
X54610000Y-11430000D01*
X69705000Y-11430000D02*
X68580000Y-11430000D01*
X62230000Y-13970000D02*
X57150000Y-13970000D01*
X57150000Y-13970000D02*
X55880000Y-15240000D01*
X55880000Y-15240000D02*
X53340000Y-15240000D01*
X53340000Y-15240000D02*
X50546000Y-18034000D01*
X50546000Y-18034000D02*
X50546000Y-37726000D01*
X50546000Y-37726000D02*
X54730000Y-41910000D01*
X69705000Y-13970000D02*
X64770000Y-13970000D01*
X66040000Y-16510000D02*
X57150000Y-16510000D01*
X51308000Y-19812000D02*
X53340000Y-17780000D01*
X53340000Y-17780000D02*
X55880000Y-17780000D01*
X55880000Y-17780000D02*
X57150000Y-16510000D01*
X51308000Y-35948000D02*
X51308000Y-19812000D01*
X51308000Y-35948000D02*
X54730000Y-39370000D01*
X69705000Y-16510000D02*
X68580000Y-16510000D01*
X15240000Y-12700000D02*
X16510000Y-11430000D01*
X16510000Y-6350000D02*
X17780000Y-5080000D01*
X16510000Y-11430000D02*
X16510000Y-6350000D01*
X17780000Y2540000D02*
X12700000Y-2540000D01*
X12700000Y-10160000D02*
X15240000Y-12700000D01*
X12700000Y-2540000D02*
X12700000Y-10160000D01*
X15240000Y-43180000D02*
X17780000Y-45720000D01*
X26670000Y-44450000D02*
X26670000Y-41910000D01*
X25400000Y-45720000D02*
X26670000Y-44450000D01*
X17780000Y-45720000D02*
X25400000Y-45720000D01*
X15240000Y-33020000D02*
X13970000Y-34290000D01*
X13970000Y-41910000D02*
X15240000Y-43180000D01*
X13970000Y-34290000D02*
X13970000Y-41910000D01*
X15240000Y-22860000D02*
X13970000Y-24130000D01*
X13970000Y-31750000D02*
X15240000Y-33020000D01*
X13970000Y-24130000D02*
X13970000Y-31750000D01*
X15240000Y-12700000D02*
X13970000Y-13970000D01*
X13970000Y-21590000D02*
X15240000Y-22860000D01*
X13970000Y-13970000D02*
X13970000Y-21590000D01*
X71505000Y-31750000D02*
X71505000Y-39370000D01*
X71505000Y-29210000D02*
X71505000Y-31750000D01*
X71505000Y-26670000D02*
X71505000Y-29210000D01*
X71505000Y-24130000D02*
X71505000Y-26670000D01*
X71505000Y-21590000D02*
X71505000Y-24130000D01*
X71505000Y-19050000D02*
X71505000Y-21590000D01*
X71505000Y-16510000D02*
X71505000Y-19050000D01*
X71505000Y-13970000D02*
X71505000Y-16510000D01*
X71505000Y-11430000D02*
X71505000Y-13970000D01*
X71505000Y-8890000D02*
X71505000Y-11430000D01*
X71505000Y-6350000D02*
X71505000Y-8890000D01*
X71505000Y-3810000D02*
X71505000Y-6350000D01*
X71505000Y-1270000D02*
X71505000Y-3810000D01*
X15360000Y-22860000D02*
X15240000Y-22860000D01*
X20320000Y-5080000D02*
X25400000Y-5080000D01*
X25400000Y-5080000D02*
X26670000Y-6350000D01*
X15240000Y-5080000D02*
X16510000Y-3810000D01*
X16510000Y-3810000D02*
X26670000Y-3810000D01*
X26670000Y-1270000D02*
X24130000Y-1270000D01*
X24130000Y-1270000D02*
X20320000Y2540000D01*
X15240000Y2540000D02*
X16510000Y3810000D01*
X24130000Y3810000D02*
X26670000Y1270000D01*
X16510000Y3810000D02*
X24130000Y3810000D01*
X17780000Y-43180000D02*
X25146000Y-35814000D01*
X25146000Y-18034000D02*
X26670000Y-16510000D01*
X25146000Y-35814000D02*
X25146000Y-18034000D01*
X26670000Y-13970000D02*
X24384000Y-16256000D01*
X24384000Y-26416000D02*
X17780000Y-33020000D01*
X24384000Y-16256000D02*
X24384000Y-26416000D01*
X26670000Y-11430000D02*
X17780000Y-20320000D01*
X17780000Y-20320000D02*
X17780000Y-22860000D01*
X17780000Y-12700000D02*
X21590000Y-8890000D01*
X21590000Y-8890000D02*
X26670000Y-8890000D01*
X62230000Y-19050000D02*
X57150000Y-19050000D01*
X57150000Y-19050000D02*
X55880000Y-20320000D01*
X55880000Y-20320000D02*
X53340000Y-20320000D01*
X53340000Y-20320000D02*
X52070000Y-21590000D01*
X52070000Y-21590000D02*
X52070000Y-34170000D01*
X52070000Y-34170000D02*
X54730000Y-36830000D01*
X69705000Y-19050000D02*
X64770000Y-19050000D01*
X66040000Y-21590000D02*
X57150000Y-21590000D01*
X52832000Y-23876000D02*
X53848000Y-22860000D01*
X53848000Y-22860000D02*
X55880000Y-22860000D01*
X55880000Y-22860000D02*
X57150000Y-21590000D01*
X52832000Y-32392000D02*
X52832000Y-23876000D01*
X52832000Y-32392000D02*
X54730000Y-34290000D01*
X69705000Y-21590000D02*
X68580000Y-21590000D01*
X29718000Y-21978000D02*
X29718000Y-28956000D01*
X29718000Y-28956000D02*
X32766000Y-32004000D01*
X55372000Y-43180000D02*
X36576000Y-43180000D01*
X32766000Y-39370000D02*
X32766000Y-32004000D01*
X36576000Y-43180000D02*
X32766000Y-39370000D01*
X56388000Y-27178000D02*
X59436000Y-24130000D01*
X56388000Y-27178000D02*
X56388000Y-42164000D01*
X56388000Y-42164000D02*
X55372000Y-43180000D01*
X59436000Y-24130000D02*
X62230000Y-24130000D01*
X26790000Y-19050000D02*
X29718000Y-21978000D01*
X69705000Y-24130000D02*
X64770000Y-24130000D01*
X28956000Y-23756000D02*
X28956000Y-29210000D01*
X28956000Y-29210000D02*
X32004000Y-32258000D01*
X55880000Y-43942000D02*
X36068000Y-43942000D01*
X32004000Y-39878000D02*
X32004000Y-32258000D01*
X36068000Y-43942000D02*
X32004000Y-39878000D01*
X66040000Y-26670000D02*
X60198000Y-26670000D01*
X55880000Y-43942000D02*
X57150000Y-42672000D01*
X57150000Y-42672000D02*
X57150000Y-29718000D01*
X60198000Y-26670000D02*
X57150000Y-29718000D01*
X28956000Y-23756000D02*
X26790000Y-21590000D01*
X69705000Y-26670000D02*
X68580000Y-26670000D01*
X28254000Y-25594000D02*
X28254000Y-29524000D01*
X28254000Y-29524000D02*
X31242000Y-32512000D01*
X56388000Y-44704000D02*
X35560000Y-44704000D01*
X31242000Y-40386000D02*
X31242000Y-32512000D01*
X35560000Y-44704000D02*
X31242000Y-40386000D01*
X58166000Y-30988000D02*
X59944000Y-29210000D01*
X58166000Y-30988000D02*
X58166000Y-42926000D01*
X58166000Y-42926000D02*
X56388000Y-44704000D01*
X59944000Y-29210000D02*
X62230000Y-29210000D01*
X26790000Y-24130000D02*
X28254000Y-25594000D01*
X69705000Y-29210000D02*
X64770000Y-29210000D01*
X56896000Y-45466000D02*
X35052000Y-45466000D01*
X30480000Y-40894000D02*
X30480000Y-32900000D01*
X35052000Y-45466000D02*
X30480000Y-40894000D01*
X58928000Y-33528000D02*
X60706000Y-31750000D01*
X56896000Y-45466000D02*
X58928000Y-43434000D01*
X58928000Y-43434000D02*
X58928000Y-33528000D01*
X26790000Y-29210000D02*
X30480000Y-32900000D01*
X60706000Y-31750000D02*
X66040000Y-31750000D01*
X69705000Y-31750000D02*
X68580000Y-31750000D01*
X57912000Y-46990000D02*
X34036000Y-46990000D01*
X28956000Y-41910000D02*
X28956000Y-36456000D01*
X34036000Y-46990000D02*
X28956000Y-41910000D01*
X60452000Y-38354000D02*
X61976000Y-36830000D01*
X57912000Y-46990000D02*
X60452000Y-44450000D01*
X60452000Y-44450000D02*
X60452000Y-38354000D01*
X26790000Y-34290000D02*
X28956000Y-36456000D01*
X61976000Y-36830000D02*
X66040000Y-36830000D01*
X68580000Y-36830000D02*
X69705000Y-36830000D01*
X26670000Y-36830000D02*
X28194000Y-38354000D01*
X33528000Y-47752000D02*
X58420000Y-47752000D01*
X28194000Y-42418000D02*
X33528000Y-47752000D01*
X28194000Y-38354000D02*
X28194000Y-42418000D01*
X62230000Y-43942000D02*
X62230000Y-39370000D01*
X58420000Y-47752000D02*
X62230000Y-43942000D01*
X64770000Y-39370000D02*
X69705000Y-39370000D01*
D20*
G36*
X8952859Y5478623D02*
X8904796Y5478623D01*
X7756746Y5250262D01*
X7580831Y5177396D01*
X6607562Y4527077D01*
X6472922Y4392438D01*
X6472922Y4392437D01*
X5822606Y3419171D01*
X5822604Y3419169D01*
X5749738Y3243254D01*
X5521377Y2095204D01*
X5521377Y2047141D01*
X5512000Y2000000D01*
X5512000Y0D01*
X5549147Y-186750D01*
X5596087Y-257000D01*
X5654932Y-345068D01*
X8512000Y-3202136D01*
X8512000Y-40797864D01*
X5654932Y-43654932D01*
X5549147Y-43813250D01*
X5512000Y-44000000D01*
X5512000Y-46000000D01*
X5521377Y-46047141D01*
X5521377Y-46095204D01*
X5749738Y-47243254D01*
X5822604Y-47419169D01*
X5822606Y-47419171D01*
X6472920Y-48392434D01*
X6472922Y-48392438D01*
X6607562Y-48527077D01*
X7580831Y-49177396D01*
X7756746Y-49250262D01*
X8904796Y-49478623D01*
X8952859Y-49478623D01*
X9000000Y-49488000D01*
X73000000Y-49488000D01*
X73047141Y-49478623D01*
X73095204Y-49478623D01*
X74243254Y-49250262D01*
X74419169Y-49177396D01*
X74419171Y-49177394D01*
X75392434Y-48527080D01*
X75392438Y-48527078D01*
X75527077Y-48392438D01*
X76177396Y-47419169D01*
X76247000Y-47251129D01*
X76247000Y-49987000D01*
X5093000Y-49987000D01*
X5093000Y5487000D01*
X8994973Y5487000D01*
X8952859Y5478623D01*
X8952859Y5478623D01*
G37*
X8952859Y5478623D02*
X8904796Y5478623D01*
X7756746Y5250262D01*
X7580831Y5177396D01*
X6607562Y4527077D01*
X6472922Y4392438D01*
X6472922Y4392437D01*
X5822606Y3419171D01*
X5822604Y3419169D01*
X5749738Y3243254D01*
X5521377Y2095204D01*
X5521377Y2047141D01*
X5512000Y2000000D01*
X5512000Y0D01*
X5549147Y-186750D01*
X5596087Y-257000D01*
X5654932Y-345068D01*
X8512000Y-3202136D01*
X8512000Y-40797864D01*
X5654932Y-43654932D01*
X5549147Y-43813250D01*
X5512000Y-44000000D01*
X5512000Y-46000000D01*
X5521377Y-46047141D01*
X5521377Y-46095204D01*
X5749738Y-47243254D01*
X5822604Y-47419169D01*
X5822606Y-47419171D01*
X6472920Y-48392434D01*
X6472922Y-48392438D01*
X6607562Y-48527077D01*
X7580831Y-49177396D01*
X7756746Y-49250262D01*
X8904796Y-49478623D01*
X8952859Y-49478623D01*
X9000000Y-49488000D01*
X73000000Y-49488000D01*
X73047141Y-49478623D01*
X73095204Y-49478623D01*
X74243254Y-49250262D01*
X74419169Y-49177396D01*
X74419171Y-49177394D01*
X75392434Y-48527080D01*
X75392438Y-48527078D01*
X75527077Y-48392438D01*
X76177396Y-47419169D01*
X76247000Y-47251129D01*
X76247000Y-49987000D01*
X5093000Y-49987000D01*
X5093000Y5487000D01*
X8994973Y5487000D01*
X8952859Y5478623D01*
G36*
X73451623Y4412607D02*
X72522130Y4413417D01*
X71634931Y4046834D01*
X70955551Y3368639D01*
X70587420Y2482081D01*
X70586583Y1522130D01*
X70953166Y634931D01*
X71631361Y-44449D01*
X72517919Y-412580D01*
X73477870Y-413417D01*
X74365069Y-46834D01*
X75044449Y631361D01*
X75412580Y1517919D01*
X75413391Y2447681D01*
X75512000Y1951937D01*
X75512000Y202136D01*
X72654932Y-2654932D01*
X72549147Y-2813250D01*
X72512000Y-3000000D01*
X72512000Y-41000000D01*
X72549147Y-41186750D01*
X72553792Y-41193701D01*
X72654932Y-41345068D01*
X75512000Y-44202136D01*
X75512000Y-45951937D01*
X75412607Y-46451623D01*
X75413417Y-45522130D01*
X75046834Y-44634931D01*
X74368639Y-43955551D01*
X73482081Y-43587420D01*
X72522130Y-43586583D01*
X71634931Y-43953166D01*
X70955551Y-44631361D01*
X70587420Y-45517919D01*
X70586583Y-46477870D01*
X70953166Y-47365069D01*
X71631361Y-48044449D01*
X72517919Y-48412580D01*
X73447681Y-48413391D01*
X72951937Y-48512000D01*
X9048063Y-48512000D01*
X8548377Y-48412607D01*
X9477870Y-48413417D01*
X10365069Y-48046834D01*
X11044449Y-47368639D01*
X11412580Y-46482081D01*
X11413417Y-45522130D01*
X11046834Y-44634931D01*
X10368639Y-43955551D01*
X9482081Y-43587420D01*
X8522130Y-43586583D01*
X7634931Y-43953166D01*
X6955551Y-44631361D01*
X6587420Y-45517919D01*
X6586609Y-46447681D01*
X6488000Y-45951937D01*
X6488000Y-44202136D01*
X9345068Y-41345068D01*
X9450854Y-41186749D01*
X9488000Y-41000000D01*
X9488000Y-11711366D01*
X11294000Y-11711366D01*
X11294000Y-12328750D01*
X11393909Y-12428659D01*
X11393909Y-12971341D01*
X11294000Y-13071250D01*
X11294000Y-13688634D01*
X11373318Y-13880123D01*
X11519878Y-14026683D01*
X11711367Y-14106000D01*
X12328750Y-14106000D01*
X12428659Y-14006091D01*
X12971341Y-14006091D01*
X13071250Y-14106000D01*
X13307000Y-14106000D01*
X13307000Y-21454000D01*
X13071250Y-21454000D01*
X12971341Y-21553909D01*
X12428659Y-21553909D01*
X12328750Y-21454000D01*
X11711367Y-21454000D01*
X11519878Y-21533317D01*
X11373318Y-21679877D01*
X11294000Y-21871366D01*
X11294000Y-22488750D01*
X11393909Y-22588659D01*
X11393909Y-23131341D01*
X11294000Y-23231250D01*
X11294000Y-23848634D01*
X11373318Y-24040123D01*
X11519878Y-24186683D01*
X11711367Y-24266000D01*
X12328750Y-24266000D01*
X12428659Y-24166091D01*
X12971341Y-24166091D01*
X13071250Y-24266000D01*
X13307000Y-24266000D01*
X13307000Y-31614000D01*
X13071250Y-31614000D01*
X12971341Y-31713909D01*
X12428659Y-31713909D01*
X12328750Y-31614000D01*
X11711367Y-31614000D01*
X11519878Y-31693317D01*
X11373318Y-31839877D01*
X11294000Y-32031366D01*
X11294000Y-32648750D01*
X11393909Y-32748659D01*
X11393909Y-33291341D01*
X11294000Y-33391250D01*
X11294000Y-34008634D01*
X11373318Y-34200123D01*
X11519878Y-34346683D01*
X11711367Y-34426000D01*
X12328750Y-34426000D01*
X12428659Y-34326091D01*
X12971341Y-34326091D01*
X13071250Y-34426000D01*
X13307000Y-34426000D01*
X13307000Y-41774000D01*
X13071250Y-41774000D01*
X12971341Y-41873909D01*
X12428659Y-41873909D01*
X12328750Y-41774000D01*
X11711367Y-41774000D01*
X11519878Y-41853317D01*
X11373318Y-41999877D01*
X11294000Y-42191366D01*
X11294000Y-42808750D01*
X11393909Y-42908659D01*
X11393909Y-43451341D01*
X11294000Y-43551250D01*
X11294000Y-44168634D01*
X11373318Y-44360123D01*
X11519878Y-44506683D01*
X11711367Y-44586000D01*
X12328750Y-44586000D01*
X12428659Y-44486091D01*
X12971341Y-44486091D01*
X13071250Y-44586000D01*
X13688633Y-44586000D01*
X13880122Y-44506683D01*
X14026682Y-44360123D01*
X14106000Y-44168634D01*
X14106000Y-43834509D01*
X14138968Y-43914297D01*
X14503782Y-44279749D01*
X14980679Y-44477774D01*
X15497055Y-44478225D01*
X15570326Y-44447950D01*
X17311186Y-46188809D01*
X17311188Y-46188812D01*
X17526281Y-46332532D01*
X17780000Y-46383000D01*
X25400000Y-46383000D01*
X25653719Y-46332532D01*
X25868812Y-46188812D01*
X27138812Y-44918812D01*
X27282532Y-44703719D01*
X27333000Y-44450000D01*
X27333000Y-42876192D01*
X27485340Y-42845890D01*
X27632254Y-42747725D01*
X27725188Y-42886812D01*
X33059188Y-48220812D01*
X33274281Y-48364532D01*
X33528000Y-48415000D01*
X58420000Y-48415000D01*
X58673719Y-48364532D01*
X58888812Y-48220812D01*
X62698812Y-44410812D01*
X62842532Y-44195719D01*
X62893001Y-43942000D01*
X62893000Y-43941995D01*
X62893000Y-40791091D01*
X63230000Y-40791091D01*
X63383049Y-40762293D01*
X63523614Y-40671841D01*
X63617915Y-40533828D01*
X63651091Y-40370000D01*
X63651091Y-40249165D01*
X63968555Y-40567184D01*
X64487704Y-40782754D01*
X65049830Y-40783244D01*
X65569354Y-40568581D01*
X65967184Y-40171445D01*
X66024672Y-40033000D01*
X68919110Y-40033000D01*
X69003159Y-40163614D01*
X69141172Y-40257915D01*
X69305000Y-40291091D01*
X70105000Y-40291091D01*
X70258049Y-40262293D01*
X70398614Y-40171841D01*
X70492915Y-40033828D01*
X70526091Y-39870000D01*
X70526091Y-38870000D01*
X70497293Y-38716951D01*
X70406841Y-38576386D01*
X70268828Y-38482085D01*
X70105000Y-38448909D01*
X69305000Y-38448909D01*
X69151951Y-38477707D01*
X69011386Y-38568159D01*
X68917085Y-38706172D01*
X68916917Y-38707000D01*
X66024921Y-38707000D01*
X65968581Y-38570646D01*
X65649583Y-38251091D01*
X67040000Y-38251091D01*
X67193049Y-38222293D01*
X67333614Y-38131841D01*
X67427915Y-37993828D01*
X67461091Y-37830000D01*
X67461091Y-37709165D01*
X67778555Y-38027184D01*
X68297704Y-38242754D01*
X68859830Y-38243244D01*
X69379354Y-38028581D01*
X69657329Y-37751091D01*
X70105000Y-37751091D01*
X70258049Y-37722293D01*
X70398614Y-37631841D01*
X70492915Y-37493828D01*
X70526091Y-37330000D01*
X70526091Y-36330000D01*
X70497293Y-36176951D01*
X70406841Y-36036386D01*
X70268828Y-35942085D01*
X70105000Y-35908909D01*
X69657056Y-35908909D01*
X69381445Y-35632816D01*
X68862296Y-35417246D01*
X68300170Y-35416756D01*
X67780646Y-35631419D01*
X67461091Y-35950417D01*
X67461091Y-35830000D01*
X67432293Y-35676951D01*
X67341841Y-35536386D01*
X67203828Y-35442085D01*
X67040000Y-35408909D01*
X65649165Y-35408909D01*
X65967184Y-35091445D01*
X66024672Y-34953000D01*
X68919110Y-34953000D01*
X69003159Y-35083614D01*
X69141172Y-35177915D01*
X69305000Y-35211091D01*
X70105000Y-35211091D01*
X70258049Y-35182293D01*
X70398614Y-35091841D01*
X70492915Y-34953828D01*
X70526091Y-34790000D01*
X70526091Y-33790000D01*
X70497293Y-33636951D01*
X70406841Y-33496386D01*
X70268828Y-33402085D01*
X70105000Y-33368909D01*
X69305000Y-33368909D01*
X69151951Y-33397707D01*
X69011386Y-33488159D01*
X68917085Y-33626172D01*
X68916917Y-33627000D01*
X66024921Y-33627000D01*
X65968581Y-33490646D01*
X65649583Y-33171091D01*
X67040000Y-33171091D01*
X67193049Y-33142293D01*
X67333614Y-33051841D01*
X67427915Y-32913828D01*
X67461091Y-32750000D01*
X67461091Y-32629165D01*
X67778555Y-32947184D01*
X68297704Y-33162754D01*
X68859830Y-33163244D01*
X69379354Y-32948581D01*
X69657329Y-32671091D01*
X70105000Y-32671091D01*
X70258049Y-32642293D01*
X70398614Y-32551841D01*
X70492915Y-32413828D01*
X70526091Y-32250000D01*
X70526091Y-31250000D01*
X70497293Y-31096951D01*
X70406841Y-30956386D01*
X70268828Y-30862085D01*
X70105000Y-30828909D01*
X69657056Y-30828909D01*
X69381445Y-30552816D01*
X68862296Y-30337246D01*
X68300170Y-30336756D01*
X67780646Y-30551419D01*
X67461091Y-30870417D01*
X67461091Y-30750000D01*
X67432293Y-30596951D01*
X67341841Y-30456386D01*
X67203828Y-30362085D01*
X67040000Y-30328909D01*
X65649165Y-30328909D01*
X65967184Y-30011445D01*
X66024672Y-29873000D01*
X68919110Y-29873000D01*
X69003159Y-30003614D01*
X69141172Y-30097915D01*
X69305000Y-30131091D01*
X70105000Y-30131091D01*
X70258049Y-30102293D01*
X70398614Y-30011841D01*
X70492915Y-29873828D01*
X70526091Y-29710000D01*
X70526091Y-28710000D01*
X70497293Y-28556951D01*
X70406841Y-28416386D01*
X70268828Y-28322085D01*
X70105000Y-28288909D01*
X69305000Y-28288909D01*
X69151951Y-28317707D01*
X69011386Y-28408159D01*
X68917085Y-28546172D01*
X68916917Y-28547000D01*
X66024921Y-28547000D01*
X65968581Y-28410646D01*
X65649583Y-28091091D01*
X67040000Y-28091091D01*
X67193049Y-28062293D01*
X67333614Y-27971841D01*
X67427915Y-27833828D01*
X67461091Y-27670000D01*
X67461091Y-27549165D01*
X67778555Y-27867184D01*
X68297704Y-28082754D01*
X68859830Y-28083244D01*
X69379354Y-27868581D01*
X69657329Y-27591091D01*
X70105000Y-27591091D01*
X70258049Y-27562293D01*
X70398614Y-27471841D01*
X70492915Y-27333828D01*
X70526091Y-27170000D01*
X70526091Y-26170000D01*
X70497293Y-26016951D01*
X70406841Y-25876386D01*
X70268828Y-25782085D01*
X70105000Y-25748909D01*
X69657056Y-25748909D01*
X69381445Y-25472816D01*
X68862296Y-25257246D01*
X68300170Y-25256756D01*
X67780646Y-25471419D01*
X67461091Y-25790417D01*
X67461091Y-25670000D01*
X67432293Y-25516951D01*
X67341841Y-25376386D01*
X67203828Y-25282085D01*
X67040000Y-25248909D01*
X65649165Y-25248909D01*
X65967184Y-24931445D01*
X66024672Y-24793000D01*
X68919110Y-24793000D01*
X69003159Y-24923614D01*
X69141172Y-25017915D01*
X69305000Y-25051091D01*
X70105000Y-25051091D01*
X70258049Y-25022293D01*
X70398614Y-24931841D01*
X70492915Y-24793828D01*
X70526091Y-24630000D01*
X70526091Y-23630000D01*
X70497293Y-23476951D01*
X70406841Y-23336386D01*
X70268828Y-23242085D01*
X70105000Y-23208909D01*
X69305000Y-23208909D01*
X69151951Y-23237707D01*
X69011386Y-23328159D01*
X68917085Y-23466172D01*
X68916917Y-23467000D01*
X66024921Y-23467000D01*
X65968581Y-23330646D01*
X65649583Y-23011091D01*
X67040000Y-23011091D01*
X67193049Y-22982293D01*
X67333614Y-22891841D01*
X67427915Y-22753828D01*
X67461091Y-22590000D01*
X67461091Y-22469165D01*
X67778555Y-22787184D01*
X68297704Y-23002754D01*
X68859830Y-23003244D01*
X69379354Y-22788581D01*
X69657329Y-22511091D01*
X70105000Y-22511091D01*
X70258049Y-22482293D01*
X70398614Y-22391841D01*
X70492915Y-22253828D01*
X70526091Y-22090000D01*
X70526091Y-21090000D01*
X70497293Y-20936951D01*
X70406841Y-20796386D01*
X70268828Y-20702085D01*
X70105000Y-20668909D01*
X69657056Y-20668909D01*
X69381445Y-20392816D01*
X68862296Y-20177246D01*
X68300170Y-20176756D01*
X67780646Y-20391419D01*
X67461091Y-20710417D01*
X67461091Y-20590000D01*
X67432293Y-20436951D01*
X67341841Y-20296386D01*
X67203828Y-20202085D01*
X67040000Y-20168909D01*
X65649165Y-20168909D01*
X65967184Y-19851445D01*
X66024672Y-19713000D01*
X68919110Y-19713000D01*
X69003159Y-19843614D01*
X69141172Y-19937915D01*
X69305000Y-19971091D01*
X70105000Y-19971091D01*
X70258049Y-19942293D01*
X70398614Y-19851841D01*
X70492915Y-19713828D01*
X70526091Y-19550000D01*
X70526091Y-18550000D01*
X70497293Y-18396951D01*
X70406841Y-18256386D01*
X70268828Y-18162085D01*
X70105000Y-18128909D01*
X69305000Y-18128909D01*
X69151951Y-18157707D01*
X69011386Y-18248159D01*
X68917085Y-18386172D01*
X68916917Y-18387000D01*
X66024921Y-18387000D01*
X65968581Y-18250646D01*
X65649583Y-17931091D01*
X67040000Y-17931091D01*
X67193049Y-17902293D01*
X67333614Y-17811841D01*
X67427915Y-17673828D01*
X67461091Y-17510000D01*
X67461091Y-17389165D01*
X67778555Y-17707184D01*
X68297704Y-17922754D01*
X68859830Y-17923244D01*
X69379354Y-17708581D01*
X69657329Y-17431091D01*
X70105000Y-17431091D01*
X70258049Y-17402293D01*
X70398614Y-17311841D01*
X70492915Y-17173828D01*
X70526091Y-17010000D01*
X70526091Y-16010000D01*
X70497293Y-15856951D01*
X70406841Y-15716386D01*
X70268828Y-15622085D01*
X70105000Y-15588909D01*
X69657056Y-15588909D01*
X69381445Y-15312816D01*
X68862296Y-15097246D01*
X68300170Y-15096756D01*
X67780646Y-15311419D01*
X67461091Y-15630417D01*
X67461091Y-15510000D01*
X67432293Y-15356951D01*
X67341841Y-15216386D01*
X67203828Y-15122085D01*
X67040000Y-15088909D01*
X65649165Y-15088909D01*
X65967184Y-14771445D01*
X66024672Y-14633000D01*
X68919110Y-14633000D01*
X69003159Y-14763614D01*
X69141172Y-14857915D01*
X69305000Y-14891091D01*
X70105000Y-14891091D01*
X70258049Y-14862293D01*
X70398614Y-14771841D01*
X70492915Y-14633828D01*
X70526091Y-14470000D01*
X70526091Y-13470000D01*
X70497293Y-13316951D01*
X70406841Y-13176386D01*
X70268828Y-13082085D01*
X70105000Y-13048909D01*
X69305000Y-13048909D01*
X69151951Y-13077707D01*
X69011386Y-13168159D01*
X68917085Y-13306172D01*
X68916917Y-13307000D01*
X66024921Y-13307000D01*
X65968581Y-13170646D01*
X65649583Y-12851091D01*
X67040000Y-12851091D01*
X67193049Y-12822293D01*
X67333614Y-12731841D01*
X67427915Y-12593828D01*
X67461091Y-12430000D01*
X67461091Y-12309165D01*
X67778555Y-12627184D01*
X68297704Y-12842754D01*
X68859830Y-12843244D01*
X69379354Y-12628581D01*
X69657329Y-12351091D01*
X70105000Y-12351091D01*
X70258049Y-12322293D01*
X70398614Y-12231841D01*
X70492915Y-12093828D01*
X70526091Y-11930000D01*
X70526091Y-10930000D01*
X70497293Y-10776951D01*
X70406841Y-10636386D01*
X70268828Y-10542085D01*
X70105000Y-10508909D01*
X69657056Y-10508909D01*
X69381445Y-10232816D01*
X68862296Y-10017246D01*
X68300170Y-10016756D01*
X67780646Y-10231419D01*
X67461091Y-10550417D01*
X67461091Y-10430000D01*
X67432293Y-10276951D01*
X67341841Y-10136386D01*
X67203828Y-10042085D01*
X67040000Y-10008909D01*
X65649165Y-10008909D01*
X65967184Y-9691445D01*
X66024672Y-9553000D01*
X68919110Y-9553000D01*
X69003159Y-9683614D01*
X69141172Y-9777915D01*
X69305000Y-9811091D01*
X70105000Y-9811091D01*
X70258049Y-9782293D01*
X70398614Y-9691841D01*
X70492915Y-9553828D01*
X70526091Y-9390000D01*
X70526091Y-8390000D01*
X70497293Y-8236951D01*
X70406841Y-8096386D01*
X70268828Y-8002085D01*
X70105000Y-7968909D01*
X69305000Y-7968909D01*
X69151951Y-7997707D01*
X69011386Y-8088159D01*
X68917085Y-8226172D01*
X68916917Y-8227000D01*
X66024921Y-8227000D01*
X65968581Y-8090646D01*
X65649583Y-7771091D01*
X67040000Y-7771091D01*
X67193049Y-7742293D01*
X67333614Y-7651841D01*
X67427915Y-7513828D01*
X67461091Y-7350000D01*
X67461091Y-7229165D01*
X67778555Y-7547184D01*
X68297704Y-7762754D01*
X68859830Y-7763244D01*
X69379354Y-7548581D01*
X69657329Y-7271091D01*
X70105000Y-7271091D01*
X70258049Y-7242293D01*
X70398614Y-7151841D01*
X70492915Y-7013828D01*
X70526091Y-6850000D01*
X70526091Y-5850000D01*
X70497293Y-5696951D01*
X70406841Y-5556386D01*
X70268828Y-5462085D01*
X70105000Y-5428909D01*
X69657056Y-5428909D01*
X69381445Y-5152816D01*
X68862296Y-4937246D01*
X68300170Y-4936756D01*
X67780646Y-5151419D01*
X67461091Y-5470417D01*
X67461091Y-5350000D01*
X67432293Y-5196951D01*
X67341841Y-5056386D01*
X67203828Y-4962085D01*
X67040000Y-4928909D01*
X65649165Y-4928909D01*
X65967184Y-4611445D01*
X66024672Y-4473000D01*
X68919110Y-4473000D01*
X69003159Y-4603614D01*
X69141172Y-4697915D01*
X69305000Y-4731091D01*
X70105000Y-4731091D01*
X70258049Y-4702293D01*
X70398614Y-4611841D01*
X70492915Y-4473828D01*
X70526091Y-4310000D01*
X70526091Y-3310000D01*
X70497293Y-3156951D01*
X70406841Y-3016386D01*
X70268828Y-2922085D01*
X70105000Y-2888909D01*
X69305000Y-2888909D01*
X69151951Y-2917707D01*
X69011386Y-3008159D01*
X68917085Y-3146172D01*
X68916917Y-3147000D01*
X66024921Y-3147000D01*
X65968581Y-3010646D01*
X65649583Y-2691091D01*
X67040000Y-2691091D01*
X67193049Y-2662293D01*
X67333614Y-2571841D01*
X67427915Y-2433828D01*
X67461091Y-2270000D01*
X67461091Y-2149165D01*
X67778555Y-2467184D01*
X68297704Y-2682754D01*
X68859830Y-2683244D01*
X69379354Y-2468581D01*
X69657329Y-2191091D01*
X70105000Y-2191091D01*
X70258049Y-2162293D01*
X70398614Y-2071841D01*
X70492915Y-1933828D01*
X70526091Y-1770000D01*
X70526091Y-770000D01*
X70683909Y-770000D01*
X70683909Y-1770000D01*
X70712707Y-1923049D01*
X70803159Y-2063614D01*
X70842000Y-2090153D01*
X70842000Y-2988459D01*
X70811386Y-3008159D01*
X70717085Y-3146172D01*
X70683909Y-3310000D01*
X70683909Y-4310000D01*
X70712707Y-4463049D01*
X70803159Y-4603614D01*
X70842000Y-4630153D01*
X70842000Y-5528459D01*
X70811386Y-5548159D01*
X70717085Y-5686172D01*
X70683909Y-5850000D01*
X70683909Y-6850000D01*
X70712707Y-7003049D01*
X70803159Y-7143614D01*
X70842000Y-7170153D01*
X70842000Y-8068459D01*
X70811386Y-8088159D01*
X70717085Y-8226172D01*
X70683909Y-8390000D01*
X70683909Y-9390000D01*
X70712707Y-9543049D01*
X70803159Y-9683614D01*
X70842000Y-9710153D01*
X70842000Y-10608459D01*
X70811386Y-10628159D01*
X70717085Y-10766172D01*
X70683909Y-10930000D01*
X70683909Y-11930000D01*
X70712707Y-12083049D01*
X70803159Y-12223614D01*
X70842000Y-12250153D01*
X70842000Y-13148459D01*
X70811386Y-13168159D01*
X70717085Y-13306172D01*
X70683909Y-13470000D01*
X70683909Y-14470000D01*
X70712707Y-14623049D01*
X70803159Y-14763614D01*
X70842000Y-14790153D01*
X70842000Y-15688459D01*
X70811386Y-15708159D01*
X70717085Y-15846172D01*
X70683909Y-16010000D01*
X70683909Y-17010000D01*
X70712707Y-17163049D01*
X70803159Y-17303614D01*
X70842000Y-17330153D01*
X70842000Y-18228459D01*
X70811386Y-18248159D01*
X70717085Y-18386172D01*
X70683909Y-18550000D01*
X70683909Y-19550000D01*
X70712707Y-19703049D01*
X70803159Y-19843614D01*
X70842000Y-19870153D01*
X70842000Y-20768459D01*
X70811386Y-20788159D01*
X70717085Y-20926172D01*
X70683909Y-21090000D01*
X70683909Y-22090000D01*
X70712707Y-22243049D01*
X70803159Y-22383614D01*
X70842000Y-22410153D01*
X70842000Y-23308459D01*
X70811386Y-23328159D01*
X70717085Y-23466172D01*
X70683909Y-23630000D01*
X70683909Y-24630000D01*
X70712707Y-24783049D01*
X70803159Y-24923614D01*
X70842000Y-24950153D01*
X70842000Y-25848459D01*
X70811386Y-25868159D01*
X70717085Y-26006172D01*
X70683909Y-26170000D01*
X70683909Y-27170000D01*
X70712707Y-27323049D01*
X70803159Y-27463614D01*
X70842000Y-27490153D01*
X70842000Y-28388459D01*
X70811386Y-28408159D01*
X70717085Y-28546172D01*
X70683909Y-28710000D01*
X70683909Y-29710000D01*
X70712707Y-29863049D01*
X70803159Y-30003614D01*
X70842000Y-30030153D01*
X70842000Y-30928459D01*
X70811386Y-30948159D01*
X70717085Y-31086172D01*
X70683909Y-31250000D01*
X70683909Y-32250000D01*
X70712707Y-32403049D01*
X70803159Y-32543614D01*
X70842000Y-32570153D01*
X70842000Y-33468459D01*
X70811386Y-33488159D01*
X70717085Y-33626172D01*
X70683909Y-33790000D01*
X70683909Y-34790000D01*
X70712707Y-34943049D01*
X70803159Y-35083614D01*
X70842000Y-35110153D01*
X70842000Y-36008459D01*
X70811386Y-36028159D01*
X70717085Y-36166172D01*
X70683909Y-36330000D01*
X70683909Y-37330000D01*
X70712707Y-37483049D01*
X70803159Y-37623614D01*
X70842000Y-37650153D01*
X70842000Y-38548459D01*
X70811386Y-38568159D01*
X70717085Y-38706172D01*
X70683909Y-38870000D01*
X70683909Y-39870000D01*
X70712707Y-40023049D01*
X70803159Y-40163614D01*
X70941172Y-40257915D01*
X71105000Y-40291091D01*
X71905000Y-40291091D01*
X72058049Y-40262293D01*
X72198614Y-40171841D01*
X72292915Y-40033828D01*
X72326091Y-39870000D01*
X72326091Y-38870000D01*
X72297293Y-38716951D01*
X72206841Y-38576386D01*
X72168000Y-38549847D01*
X72168000Y-37651541D01*
X72198614Y-37631841D01*
X72292915Y-37493828D01*
X72326091Y-37330000D01*
X72326091Y-36330000D01*
X72297293Y-36176951D01*
X72206841Y-36036386D01*
X72168000Y-36009847D01*
X72168000Y-35111541D01*
X72198614Y-35091841D01*
X72292915Y-34953828D01*
X72326091Y-34790000D01*
X72326091Y-33790000D01*
X72297293Y-33636951D01*
X72206841Y-33496386D01*
X72168000Y-33469847D01*
X72168000Y-32571541D01*
X72198614Y-32551841D01*
X72292915Y-32413828D01*
X72326091Y-32250000D01*
X72326091Y-31250000D01*
X72297293Y-31096951D01*
X72206841Y-30956386D01*
X72168000Y-30929847D01*
X72168000Y-30031541D01*
X72198614Y-30011841D01*
X72292915Y-29873828D01*
X72326091Y-29710000D01*
X72326091Y-28710000D01*
X72297293Y-28556951D01*
X72206841Y-28416386D01*
X72168000Y-28389847D01*
X72168000Y-27491541D01*
X72198614Y-27471841D01*
X72292915Y-27333828D01*
X72326091Y-27170000D01*
X72326091Y-26170000D01*
X72297293Y-26016951D01*
X72206841Y-25876386D01*
X72168000Y-25849847D01*
X72168000Y-24951541D01*
X72198614Y-24931841D01*
X72292915Y-24793828D01*
X72326091Y-24630000D01*
X72326091Y-23630000D01*
X72297293Y-23476951D01*
X72206841Y-23336386D01*
X72168000Y-23309847D01*
X72168000Y-22411541D01*
X72198614Y-22391841D01*
X72292915Y-22253828D01*
X72326091Y-22090000D01*
X72326091Y-21090000D01*
X72297293Y-20936951D01*
X72206841Y-20796386D01*
X72168000Y-20769847D01*
X72168000Y-19871541D01*
X72198614Y-19851841D01*
X72292915Y-19713828D01*
X72326091Y-19550000D01*
X72326091Y-18550000D01*
X72297293Y-18396951D01*
X72206841Y-18256386D01*
X72168000Y-18229847D01*
X72168000Y-17331541D01*
X72198614Y-17311841D01*
X72292915Y-17173828D01*
X72326091Y-17010000D01*
X72326091Y-16010000D01*
X72297293Y-15856951D01*
X72206841Y-15716386D01*
X72168000Y-15689847D01*
X72168000Y-14791541D01*
X72198614Y-14771841D01*
X72292915Y-14633828D01*
X72326091Y-14470000D01*
X72326091Y-13470000D01*
X72297293Y-13316951D01*
X72206841Y-13176386D01*
X72168000Y-13149847D01*
X72168000Y-12251541D01*
X72198614Y-12231841D01*
X72292915Y-12093828D01*
X72326091Y-11930000D01*
X72326091Y-10930000D01*
X72297293Y-10776951D01*
X72206841Y-10636386D01*
X72168000Y-10609847D01*
X72168000Y-9711541D01*
X72198614Y-9691841D01*
X72292915Y-9553828D01*
X72326091Y-9390000D01*
X72326091Y-8390000D01*
X72297293Y-8236951D01*
X72206841Y-8096386D01*
X72168000Y-8069847D01*
X72168000Y-7171541D01*
X72198614Y-7151841D01*
X72292915Y-7013828D01*
X72326091Y-6850000D01*
X72326091Y-5850000D01*
X72297293Y-5696951D01*
X72206841Y-5556386D01*
X72168000Y-5529847D01*
X72168000Y-4631541D01*
X72198614Y-4611841D01*
X72292915Y-4473828D01*
X72326091Y-4310000D01*
X72326091Y-3310000D01*
X72297293Y-3156951D01*
X72206841Y-3016386D01*
X72168000Y-2989847D01*
X72168000Y-2091541D01*
X72198614Y-2071841D01*
X72292915Y-1933828D01*
X72326091Y-1770000D01*
X72326091Y-770000D01*
X72297293Y-616951D01*
X72206841Y-476386D01*
X72068828Y-382085D01*
X71905000Y-348909D01*
X71105000Y-348909D01*
X70951951Y-377707D01*
X70811386Y-468159D01*
X70717085Y-606172D01*
X70683909Y-770000D01*
X70526091Y-770000D01*
X70497293Y-616951D01*
X70406841Y-476386D01*
X70268828Y-382085D01*
X70105000Y-348909D01*
X69657056Y-348909D01*
X69381445Y-72816D01*
X68862296Y142754D01*
X68300170Y143244D01*
X67780646Y-71419D01*
X67461091Y-390417D01*
X67461091Y-270000D01*
X67432293Y-116951D01*
X67341841Y23614D01*
X67203828Y117915D01*
X67040000Y151091D01*
X65040000Y151091D01*
X64886951Y122293D01*
X64746386Y31841D01*
X64652085Y-106172D01*
X64618909Y-270000D01*
X64618909Y-607000D01*
X55789594Y-607000D01*
X55753981Y-553701D01*
X55425340Y-334110D01*
X55037682Y-257000D01*
X54182318Y-257000D01*
X53794660Y-334110D01*
X53466019Y-553701D01*
X53246428Y-882342D01*
X53169318Y-1270000D01*
X53246428Y-1657658D01*
X53466019Y-1986299D01*
X53794660Y-2205890D01*
X54182318Y-2283000D01*
X55037682Y-2283000D01*
X55425340Y-2205890D01*
X55753981Y-1986299D01*
X55789594Y-1933000D01*
X64618909Y-1933000D01*
X64618909Y-2270000D01*
X64642785Y-2396889D01*
X64490170Y-2396756D01*
X63970646Y-2611419D01*
X63651091Y-2930417D01*
X63651091Y-2810000D01*
X63622293Y-2656951D01*
X63531841Y-2516386D01*
X63393828Y-2422085D01*
X63230000Y-2388909D01*
X61230000Y-2388909D01*
X61076951Y-2417707D01*
X60936386Y-2508159D01*
X60842085Y-2646172D01*
X60808909Y-2810000D01*
X60808909Y-3147000D01*
X55789594Y-3147000D01*
X55753981Y-3093701D01*
X55425340Y-2874110D01*
X55037682Y-2797000D01*
X54182318Y-2797000D01*
X53794660Y-2874110D01*
X53466019Y-3093701D01*
X53246428Y-3422342D01*
X53169318Y-3810000D01*
X53246428Y-4197658D01*
X53466019Y-4526299D01*
X53794660Y-4745890D01*
X54182318Y-4823000D01*
X55037682Y-4823000D01*
X55425340Y-4745890D01*
X55753981Y-4526299D01*
X55789594Y-4473000D01*
X60808909Y-4473000D01*
X60808909Y-4810000D01*
X60837707Y-4963049D01*
X60928159Y-5103614D01*
X61066172Y-5197915D01*
X61230000Y-5231091D01*
X63230000Y-5231091D01*
X63383049Y-5202293D01*
X63523614Y-5111841D01*
X63617915Y-4973828D01*
X63651091Y-4810000D01*
X63651091Y-4689165D01*
X63968555Y-5007184D01*
X64487704Y-5222754D01*
X64644649Y-5222891D01*
X64618909Y-5350000D01*
X64618909Y-5687000D01*
X55789594Y-5687000D01*
X55753981Y-5633701D01*
X55425340Y-5414110D01*
X55037682Y-5337000D01*
X54182318Y-5337000D01*
X53794660Y-5414110D01*
X53466019Y-5633701D01*
X53246428Y-5962342D01*
X53169318Y-6350000D01*
X53246428Y-6737658D01*
X53466019Y-7066299D01*
X53794660Y-7285890D01*
X54182318Y-7363000D01*
X55037682Y-7363000D01*
X55425340Y-7285890D01*
X55753981Y-7066299D01*
X55789594Y-7013000D01*
X64618909Y-7013000D01*
X64618909Y-7350000D01*
X64642785Y-7476889D01*
X64490170Y-7476756D01*
X63970646Y-7691419D01*
X63651091Y-8010417D01*
X63651091Y-7890000D01*
X63622293Y-7736951D01*
X63531841Y-7596386D01*
X63393828Y-7502085D01*
X63230000Y-7468909D01*
X61230000Y-7468909D01*
X61076951Y-7497707D01*
X60936386Y-7588159D01*
X60842085Y-7726172D01*
X60808909Y-7890000D01*
X60808909Y-8227000D01*
X55789594Y-8227000D01*
X55753981Y-8173701D01*
X55425340Y-7954110D01*
X55037682Y-7877000D01*
X54182318Y-7877000D01*
X53794660Y-7954110D01*
X53466019Y-8173701D01*
X53246428Y-8502342D01*
X53169318Y-8890000D01*
X53246428Y-9277658D01*
X53466019Y-9606299D01*
X53794660Y-9825890D01*
X54182318Y-9903000D01*
X55037682Y-9903000D01*
X55425340Y-9825890D01*
X55753981Y-9606299D01*
X55789594Y-9553000D01*
X60808909Y-9553000D01*
X60808909Y-9890000D01*
X60837707Y-10043049D01*
X60928159Y-10183614D01*
X61066172Y-10277915D01*
X61230000Y-10311091D01*
X63230000Y-10311091D01*
X63383049Y-10282293D01*
X63523614Y-10191841D01*
X63617915Y-10053828D01*
X63651091Y-9890000D01*
X63651091Y-9769165D01*
X63968555Y-10087184D01*
X64487704Y-10302754D01*
X64644649Y-10302891D01*
X64618909Y-10430000D01*
X64618909Y-10767000D01*
X55789594Y-10767000D01*
X55753981Y-10713701D01*
X55425340Y-10494110D01*
X55037682Y-10417000D01*
X54182318Y-10417000D01*
X53794660Y-10494110D01*
X53466019Y-10713701D01*
X53246428Y-11042342D01*
X53169318Y-11430000D01*
X53246428Y-11817658D01*
X53466019Y-12146299D01*
X53794660Y-12365890D01*
X54182318Y-12443000D01*
X55037682Y-12443000D01*
X55425340Y-12365890D01*
X55753981Y-12146299D01*
X55789594Y-12093000D01*
X64618909Y-12093000D01*
X64618909Y-12430000D01*
X64642785Y-12556889D01*
X64490170Y-12556756D01*
X63970646Y-12771419D01*
X63651091Y-13090417D01*
X63651091Y-12970000D01*
X63622293Y-12816951D01*
X63531841Y-12676386D01*
X63393828Y-12582085D01*
X63230000Y-12548909D01*
X61230000Y-12548909D01*
X61076951Y-12577707D01*
X60936386Y-12668159D01*
X60842085Y-12806172D01*
X60808909Y-12970000D01*
X60808909Y-13307000D01*
X57150000Y-13307000D01*
X56896281Y-13357468D01*
X56681188Y-13501188D01*
X56010533Y-14171843D01*
X56050682Y-13970000D01*
X55993588Y-13682969D01*
X56053609Y-13560705D01*
X55837160Y-13172498D01*
X55469006Y-12916664D01*
X55030972Y-12821190D01*
X54857763Y-12957000D01*
X54362237Y-12957000D01*
X54189028Y-12821190D01*
X53750994Y-12916664D01*
X53382840Y-13172498D01*
X53166391Y-13560705D01*
X53226412Y-13682969D01*
X53169318Y-13970000D01*
X53226412Y-14257031D01*
X53166391Y-14379295D01*
X53282950Y-14588347D01*
X53086281Y-14627468D01*
X52871188Y-14771188D01*
X50077188Y-17565188D01*
X50018000Y-17653769D01*
X50018000Y-16712136D01*
X52415068Y-14315068D01*
X52457011Y-14252296D01*
X52520853Y-14156750D01*
X52558000Y-13970000D01*
X52558000Y1270000D01*
X53169318Y1270000D01*
X53246428Y882342D01*
X53466019Y553701D01*
X53794660Y334110D01*
X54182318Y257000D01*
X55037682Y257000D01*
X55425340Y334110D01*
X55753981Y553701D01*
X55973572Y882342D01*
X56050682Y1270000D01*
X55973572Y1657658D01*
X55753981Y1986299D01*
X55425340Y2205890D01*
X55037682Y2283000D01*
X54182318Y2283000D01*
X53794660Y2205890D01*
X53466019Y1986299D01*
X53246428Y1657658D01*
X53169318Y1270000D01*
X52558000Y1270000D01*
X52558000Y2540000D01*
X52520853Y2726750D01*
X52415068Y2885068D01*
X52256750Y2990853D01*
X52070000Y3028000D01*
X29210000Y3028000D01*
X29023250Y2990853D01*
X28864932Y2885068D01*
X28759147Y2726750D01*
X28722000Y2540000D01*
X28722000Y-17780000D01*
X28759147Y-17966750D01*
X28806087Y-18037000D01*
X28864932Y-18125068D01*
X31262000Y-20522136D01*
X31262000Y-27940000D01*
X31299147Y-28126750D01*
X31319135Y-28156664D01*
X31404932Y-28285068D01*
X33802000Y-30682136D01*
X33802000Y-38100000D01*
X33839147Y-38286750D01*
X33937610Y-38434110D01*
X33944932Y-38445068D01*
X37754932Y-42255068D01*
X37913251Y-42360854D01*
X38100000Y-42398000D01*
X45720000Y-42398000D01*
X45906750Y-42360853D01*
X46065068Y-42255068D01*
X49875068Y-38445068D01*
X49980854Y-38286749D01*
X50017045Y-38104801D01*
X50077188Y-38194812D01*
X53309830Y-41427454D01*
X53246428Y-41522342D01*
X53169318Y-41910000D01*
X53246428Y-42297658D01*
X53392988Y-42517000D01*
X36850624Y-42517000D01*
X33429000Y-39095376D01*
X33429000Y-32004000D01*
X33378532Y-31750281D01*
X33234812Y-31535188D01*
X30381000Y-28681376D01*
X30381000Y-21978000D01*
X30330532Y-21724281D01*
X30186812Y-21509188D01*
X28047129Y-19369505D01*
X28110682Y-19050000D01*
X28033572Y-18662342D01*
X27813981Y-18333701D01*
X27485340Y-18114110D01*
X27097682Y-18037000D01*
X26242318Y-18037000D01*
X26040475Y-18077149D01*
X26594623Y-17523000D01*
X27097682Y-17523000D01*
X27485340Y-17445890D01*
X27813981Y-17226299D01*
X28033572Y-16897658D01*
X28110682Y-16510000D01*
X28033572Y-16122342D01*
X27813981Y-15793701D01*
X27485340Y-15574110D01*
X27097682Y-15497000D01*
X26242318Y-15497000D01*
X26040475Y-15537149D01*
X26594624Y-14983000D01*
X27097682Y-14983000D01*
X27485340Y-14905890D01*
X27813981Y-14686299D01*
X28033572Y-14357658D01*
X28110682Y-13970000D01*
X28033572Y-13582342D01*
X27813981Y-13253701D01*
X27485340Y-13034110D01*
X27097682Y-12957000D01*
X26242318Y-12957000D01*
X26040474Y-12997149D01*
X26594623Y-12443000D01*
X27097682Y-12443000D01*
X27485340Y-12365890D01*
X27813981Y-12146299D01*
X28033572Y-11817658D01*
X28110682Y-11430000D01*
X28033572Y-11042342D01*
X27813981Y-10713701D01*
X27485340Y-10494110D01*
X27097682Y-10417000D01*
X26242318Y-10417000D01*
X25854660Y-10494110D01*
X25526019Y-10713701D01*
X25306428Y-11042342D01*
X25229318Y-11430000D01*
X25306428Y-11817658D01*
X25321765Y-11840612D01*
X24178563Y-12983813D01*
X24166091Y-12971341D01*
X24166091Y-12428659D01*
X24266000Y-12328750D01*
X24266000Y-11711366D01*
X24186682Y-11519877D01*
X24040122Y-11373317D01*
X23848633Y-11294000D01*
X23231250Y-11294000D01*
X23131341Y-11393909D01*
X22588659Y-11393909D01*
X22488750Y-11294000D01*
X21871367Y-11294000D01*
X21679878Y-11373317D01*
X21533318Y-11519877D01*
X21454000Y-11711366D01*
X21454000Y-11992361D01*
X21426658Y-11979319D01*
X21421032Y-11965703D01*
X21056218Y-11600251D01*
X21040953Y-11593913D01*
X20955651Y-11415088D01*
X20415550Y-11269643D01*
X20107865Y-11309759D01*
X21864624Y-9553000D01*
X25490406Y-9553000D01*
X25526019Y-9606299D01*
X25854660Y-9825890D01*
X26242318Y-9903000D01*
X27097682Y-9903000D01*
X27485340Y-9825890D01*
X27813981Y-9606299D01*
X28033572Y-9277658D01*
X28110682Y-8890000D01*
X28033572Y-8502342D01*
X27813981Y-8173701D01*
X27485340Y-7954110D01*
X27097682Y-7877000D01*
X26242318Y-7877000D01*
X25854660Y-7954110D01*
X25526019Y-8173701D01*
X25490406Y-8227000D01*
X21590005Y-8227000D01*
X21590000Y-8226999D01*
X21336281Y-8277468D01*
X21121188Y-8421188D01*
X18110566Y-11431810D01*
X18039321Y-11402226D01*
X17522945Y-11401775D01*
X17147780Y-11556791D01*
X17173000Y-11430000D01*
X17173000Y-6624624D01*
X17554820Y-6242804D01*
X18010320Y-6243202D01*
X18437926Y-6066519D01*
X18765369Y-5739647D01*
X18942798Y-5312350D01*
X18943202Y-4849680D01*
X18787561Y-4473000D01*
X19312770Y-4473000D01*
X19157202Y-4847650D01*
X19156798Y-5310320D01*
X19333481Y-5737926D01*
X19660353Y-6065369D01*
X20087650Y-6242798D01*
X20550320Y-6243202D01*
X20977926Y-6066519D01*
X21302010Y-5743000D01*
X25125376Y-5743000D01*
X25321765Y-5939389D01*
X25306428Y-5962342D01*
X25229318Y-6350000D01*
X25306428Y-6737658D01*
X25526019Y-7066299D01*
X25854660Y-7285890D01*
X26242318Y-7363000D01*
X27097682Y-7363000D01*
X27485340Y-7285890D01*
X27813981Y-7066299D01*
X28033572Y-6737658D01*
X28110682Y-6350000D01*
X28033572Y-5962342D01*
X27813981Y-5633701D01*
X27485340Y-5414110D01*
X27097682Y-5337000D01*
X26594624Y-5337000D01*
X26040475Y-4782851D01*
X26242318Y-4823000D01*
X27097682Y-4823000D01*
X27485340Y-4745890D01*
X27813981Y-4526299D01*
X28033572Y-4197658D01*
X28110682Y-3810000D01*
X28033572Y-3422342D01*
X27813981Y-3093701D01*
X27485340Y-2874110D01*
X27097682Y-2797000D01*
X26242318Y-2797000D01*
X25854660Y-2874110D01*
X25526019Y-3093701D01*
X25490406Y-3147000D01*
X16510000Y-3147000D01*
X16256281Y-3197468D01*
X16041188Y-3341188D01*
X15465180Y-3917196D01*
X15009680Y-3916798D01*
X14582074Y-4093481D01*
X14254631Y-4420353D01*
X14077202Y-4847650D01*
X14076798Y-5310320D01*
X14253481Y-5737926D01*
X14580353Y-6065369D01*
X15007650Y-6242798D01*
X15470320Y-6243202D01*
X15897926Y-6066519D01*
X15956271Y-6008276D01*
X15897468Y-6096281D01*
X15847000Y-6350000D01*
X15847000Y-11155376D01*
X15570566Y-11431810D01*
X15499321Y-11402226D01*
X14982945Y-11401775D01*
X14909674Y-11432050D01*
X13363000Y-9885376D01*
X13363000Y-2814624D01*
X17554820Y1377196D01*
X18010320Y1376798D01*
X18437926Y1553481D01*
X18765369Y1880353D01*
X18942798Y2307650D01*
X18943202Y2770320D01*
X18787561Y3147000D01*
X19312770Y3147000D01*
X19157202Y2772350D01*
X19156798Y2309680D01*
X19333481Y1882074D01*
X19660353Y1554631D01*
X20087650Y1377202D01*
X20545574Y1376802D01*
X23661188Y-1738812D01*
X23876281Y-1882532D01*
X24130000Y-1933001D01*
X24130005Y-1933000D01*
X25490406Y-1933000D01*
X25526019Y-1986299D01*
X25854660Y-2205890D01*
X26242318Y-2283000D01*
X27097682Y-2283000D01*
X27485340Y-2205890D01*
X27813981Y-1986299D01*
X28033572Y-1657658D01*
X28110682Y-1270000D01*
X28033572Y-882342D01*
X27813981Y-553701D01*
X27485340Y-334110D01*
X27097682Y-257000D01*
X26242318Y-257000D01*
X25854660Y-334110D01*
X25526019Y-553701D01*
X25490406Y-607000D01*
X24404624Y-607000D01*
X21482804Y2314820D01*
X21483202Y2770320D01*
X21327561Y3147000D01*
X23855376Y3147000D01*
X25321765Y1680612D01*
X25306428Y1657658D01*
X25229318Y1270000D01*
X25306428Y882342D01*
X25526019Y553701D01*
X25854660Y334110D01*
X26242318Y257000D01*
X27097682Y257000D01*
X27485340Y334110D01*
X27813981Y553701D01*
X28033572Y882342D01*
X28110682Y1270000D01*
X28033572Y1657658D01*
X27813981Y1986299D01*
X27485340Y2205890D01*
X27097682Y2283000D01*
X26594623Y2283000D01*
X24598812Y4278812D01*
X24383719Y4422532D01*
X24130000Y4473000D01*
X16510000Y4473000D01*
X16256281Y4422532D01*
X16041188Y4278812D01*
X15465180Y3702804D01*
X15009680Y3703202D01*
X14582074Y3526519D01*
X14254631Y3199647D01*
X14077202Y2772350D01*
X14076798Y2309680D01*
X14253481Y1882074D01*
X14580353Y1554631D01*
X15007650Y1377202D01*
X15470320Y1376798D01*
X15826235Y1523859D01*
X12231188Y-2071188D01*
X12087468Y-2286281D01*
X12037000Y-2540000D01*
X12037000Y-10160000D01*
X12087468Y-10413719D01*
X12231188Y-10628812D01*
X12983813Y-11381437D01*
X12971341Y-11393909D01*
X12428659Y-11393909D01*
X12328750Y-11294000D01*
X11711367Y-11294000D01*
X11519878Y-11373317D01*
X11373318Y-11519877D01*
X11294000Y-11711366D01*
X9488000Y-11711366D01*
X9488000Y-3000000D01*
X9462959Y-2874110D01*
X9450854Y-2813251D01*
X9345068Y-2654932D01*
X6488000Y202136D01*
X6488000Y1951937D01*
X6587393Y2451623D01*
X6586583Y1522130D01*
X6953166Y634931D01*
X7631361Y-44449D01*
X8517919Y-412580D01*
X9477870Y-413417D01*
X10365069Y-46834D01*
X11044449Y631361D01*
X11412580Y1517919D01*
X11413417Y2477870D01*
X11046834Y3365069D01*
X10368639Y4044449D01*
X9482081Y4412580D01*
X8552319Y4413391D01*
X9048063Y4512000D01*
X72951937Y4512000D01*
X73451623Y4412607D01*
X73451623Y4412607D01*
G37*
X73451623Y4412607D02*
X72522130Y4413417D01*
X71634931Y4046834D01*
X70955551Y3368639D01*
X70587420Y2482081D01*
X70586583Y1522130D01*
X70953166Y634931D01*
X71631361Y-44449D01*
X72517919Y-412580D01*
X73477870Y-413417D01*
X74365069Y-46834D01*
X75044449Y631361D01*
X75412580Y1517919D01*
X75413391Y2447681D01*
X75512000Y1951937D01*
X75512000Y202136D01*
X72654932Y-2654932D01*
X72549147Y-2813250D01*
X72512000Y-3000000D01*
X72512000Y-41000000D01*
X72549147Y-41186750D01*
X72553792Y-41193701D01*
X72654932Y-41345068D01*
X75512000Y-44202136D01*
X75512000Y-45951937D01*
X75412607Y-46451623D01*
X75413417Y-45522130D01*
X75046834Y-44634931D01*
X74368639Y-43955551D01*
X73482081Y-43587420D01*
X72522130Y-43586583D01*
X71634931Y-43953166D01*
X70955551Y-44631361D01*
X70587420Y-45517919D01*
X70586583Y-46477870D01*
X70953166Y-47365069D01*
X71631361Y-48044449D01*
X72517919Y-48412580D01*
X73447681Y-48413391D01*
X72951937Y-48512000D01*
X9048063Y-48512000D01*
X8548377Y-48412607D01*
X9477870Y-48413417D01*
X10365069Y-48046834D01*
X11044449Y-47368639D01*
X11412580Y-46482081D01*
X11413417Y-45522130D01*
X11046834Y-44634931D01*
X10368639Y-43955551D01*
X9482081Y-43587420D01*
X8522130Y-43586583D01*
X7634931Y-43953166D01*
X6955551Y-44631361D01*
X6587420Y-45517919D01*
X6586609Y-46447681D01*
X6488000Y-45951937D01*
X6488000Y-44202136D01*
X9345068Y-41345068D01*
X9450854Y-41186749D01*
X9488000Y-41000000D01*
X9488000Y-11711366D01*
X11294000Y-11711366D01*
X11294000Y-12328750D01*
X11393909Y-12428659D01*
X11393909Y-12971341D01*
X11294000Y-13071250D01*
X11294000Y-13688634D01*
X11373318Y-13880123D01*
X11519878Y-14026683D01*
X11711367Y-14106000D01*
X12328750Y-14106000D01*
X12428659Y-14006091D01*
X12971341Y-14006091D01*
X13071250Y-14106000D01*
X13307000Y-14106000D01*
X13307000Y-21454000D01*
X13071250Y-21454000D01*
X12971341Y-21553909D01*
X12428659Y-21553909D01*
X12328750Y-21454000D01*
X11711367Y-21454000D01*
X11519878Y-21533317D01*
X11373318Y-21679877D01*
X11294000Y-21871366D01*
X11294000Y-22488750D01*
X11393909Y-22588659D01*
X11393909Y-23131341D01*
X11294000Y-23231250D01*
X11294000Y-23848634D01*
X11373318Y-24040123D01*
X11519878Y-24186683D01*
X11711367Y-24266000D01*
X12328750Y-24266000D01*
X12428659Y-24166091D01*
X12971341Y-24166091D01*
X13071250Y-24266000D01*
X13307000Y-24266000D01*
X13307000Y-31614000D01*
X13071250Y-31614000D01*
X12971341Y-31713909D01*
X12428659Y-31713909D01*
X12328750Y-31614000D01*
X11711367Y-31614000D01*
X11519878Y-31693317D01*
X11373318Y-31839877D01*
X11294000Y-32031366D01*
X11294000Y-32648750D01*
X11393909Y-32748659D01*
X11393909Y-33291341D01*
X11294000Y-33391250D01*
X11294000Y-34008634D01*
X11373318Y-34200123D01*
X11519878Y-34346683D01*
X11711367Y-34426000D01*
X12328750Y-34426000D01*
X12428659Y-34326091D01*
X12971341Y-34326091D01*
X13071250Y-34426000D01*
X13307000Y-34426000D01*
X13307000Y-41774000D01*
X13071250Y-41774000D01*
X12971341Y-41873909D01*
X12428659Y-41873909D01*
X12328750Y-41774000D01*
X11711367Y-41774000D01*
X11519878Y-41853317D01*
X11373318Y-41999877D01*
X11294000Y-42191366D01*
X11294000Y-42808750D01*
X11393909Y-42908659D01*
X11393909Y-43451341D01*
X11294000Y-43551250D01*
X11294000Y-44168634D01*
X11373318Y-44360123D01*
X11519878Y-44506683D01*
X11711367Y-44586000D01*
X12328750Y-44586000D01*
X12428659Y-44486091D01*
X12971341Y-44486091D01*
X13071250Y-44586000D01*
X13688633Y-44586000D01*
X13880122Y-44506683D01*
X14026682Y-44360123D01*
X14106000Y-44168634D01*
X14106000Y-43834509D01*
X14138968Y-43914297D01*
X14503782Y-44279749D01*
X14980679Y-44477774D01*
X15497055Y-44478225D01*
X15570326Y-44447950D01*
X17311186Y-46188809D01*
X17311188Y-46188812D01*
X17526281Y-46332532D01*
X17780000Y-46383000D01*
X25400000Y-46383000D01*
X25653719Y-46332532D01*
X25868812Y-46188812D01*
X27138812Y-44918812D01*
X27282532Y-44703719D01*
X27333000Y-44450000D01*
X27333000Y-42876192D01*
X27485340Y-42845890D01*
X27632254Y-42747725D01*
X27725188Y-42886812D01*
X33059188Y-48220812D01*
X33274281Y-48364532D01*
X33528000Y-48415000D01*
X58420000Y-48415000D01*
X58673719Y-48364532D01*
X58888812Y-48220812D01*
X62698812Y-44410812D01*
X62842532Y-44195719D01*
X62893001Y-43942000D01*
X62893000Y-43941995D01*
X62893000Y-40791091D01*
X63230000Y-40791091D01*
X63383049Y-40762293D01*
X63523614Y-40671841D01*
X63617915Y-40533828D01*
X63651091Y-40370000D01*
X63651091Y-40249165D01*
X63968555Y-40567184D01*
X64487704Y-40782754D01*
X65049830Y-40783244D01*
X65569354Y-40568581D01*
X65967184Y-40171445D01*
X66024672Y-40033000D01*
X68919110Y-40033000D01*
X69003159Y-40163614D01*
X69141172Y-40257915D01*
X69305000Y-40291091D01*
X70105000Y-40291091D01*
X70258049Y-40262293D01*
X70398614Y-40171841D01*
X70492915Y-40033828D01*
X70526091Y-39870000D01*
X70526091Y-38870000D01*
X70497293Y-38716951D01*
X70406841Y-38576386D01*
X70268828Y-38482085D01*
X70105000Y-38448909D01*
X69305000Y-38448909D01*
X69151951Y-38477707D01*
X69011386Y-38568159D01*
X68917085Y-38706172D01*
X68916917Y-38707000D01*
X66024921Y-38707000D01*
X65968581Y-38570646D01*
X65649583Y-38251091D01*
X67040000Y-38251091D01*
X67193049Y-38222293D01*
X67333614Y-38131841D01*
X67427915Y-37993828D01*
X67461091Y-37830000D01*
X67461091Y-37709165D01*
X67778555Y-38027184D01*
X68297704Y-38242754D01*
X68859830Y-38243244D01*
X69379354Y-38028581D01*
X69657329Y-37751091D01*
X70105000Y-37751091D01*
X70258049Y-37722293D01*
X70398614Y-37631841D01*
X70492915Y-37493828D01*
X70526091Y-37330000D01*
X70526091Y-36330000D01*
X70497293Y-36176951D01*
X70406841Y-36036386D01*
X70268828Y-35942085D01*
X70105000Y-35908909D01*
X69657056Y-35908909D01*
X69381445Y-35632816D01*
X68862296Y-35417246D01*
X68300170Y-35416756D01*
X67780646Y-35631419D01*
X67461091Y-35950417D01*
X67461091Y-35830000D01*
X67432293Y-35676951D01*
X67341841Y-35536386D01*
X67203828Y-35442085D01*
X67040000Y-35408909D01*
X65649165Y-35408909D01*
X65967184Y-35091445D01*
X66024672Y-34953000D01*
X68919110Y-34953000D01*
X69003159Y-35083614D01*
X69141172Y-35177915D01*
X69305000Y-35211091D01*
X70105000Y-35211091D01*
X70258049Y-35182293D01*
X70398614Y-35091841D01*
X70492915Y-34953828D01*
X70526091Y-34790000D01*
X70526091Y-33790000D01*
X70497293Y-33636951D01*
X70406841Y-33496386D01*
X70268828Y-33402085D01*
X70105000Y-33368909D01*
X69305000Y-33368909D01*
X69151951Y-33397707D01*
X69011386Y-33488159D01*
X68917085Y-33626172D01*
X68916917Y-33627000D01*
X66024921Y-33627000D01*
X65968581Y-33490646D01*
X65649583Y-33171091D01*
X67040000Y-33171091D01*
X67193049Y-33142293D01*
X67333614Y-33051841D01*
X67427915Y-32913828D01*
X67461091Y-32750000D01*
X67461091Y-32629165D01*
X67778555Y-32947184D01*
X68297704Y-33162754D01*
X68859830Y-33163244D01*
X69379354Y-32948581D01*
X69657329Y-32671091D01*
X70105000Y-32671091D01*
X70258049Y-32642293D01*
X70398614Y-32551841D01*
X70492915Y-32413828D01*
X70526091Y-32250000D01*
X70526091Y-31250000D01*
X70497293Y-31096951D01*
X70406841Y-30956386D01*
X70268828Y-30862085D01*
X70105000Y-30828909D01*
X69657056Y-30828909D01*
X69381445Y-30552816D01*
X68862296Y-30337246D01*
X68300170Y-30336756D01*
X67780646Y-30551419D01*
X67461091Y-30870417D01*
X67461091Y-30750000D01*
X67432293Y-30596951D01*
X67341841Y-30456386D01*
X67203828Y-30362085D01*
X67040000Y-30328909D01*
X65649165Y-30328909D01*
X65967184Y-30011445D01*
X66024672Y-29873000D01*
X68919110Y-29873000D01*
X69003159Y-30003614D01*
X69141172Y-30097915D01*
X69305000Y-30131091D01*
X70105000Y-30131091D01*
X70258049Y-30102293D01*
X70398614Y-30011841D01*
X70492915Y-29873828D01*
X70526091Y-29710000D01*
X70526091Y-28710000D01*
X70497293Y-28556951D01*
X70406841Y-28416386D01*
X70268828Y-28322085D01*
X70105000Y-28288909D01*
X69305000Y-28288909D01*
X69151951Y-28317707D01*
X69011386Y-28408159D01*
X68917085Y-28546172D01*
X68916917Y-28547000D01*
X66024921Y-28547000D01*
X65968581Y-28410646D01*
X65649583Y-28091091D01*
X67040000Y-28091091D01*
X67193049Y-28062293D01*
X67333614Y-27971841D01*
X67427915Y-27833828D01*
X67461091Y-27670000D01*
X67461091Y-27549165D01*
X67778555Y-27867184D01*
X68297704Y-28082754D01*
X68859830Y-28083244D01*
X69379354Y-27868581D01*
X69657329Y-27591091D01*
X70105000Y-27591091D01*
X70258049Y-27562293D01*
X70398614Y-27471841D01*
X70492915Y-27333828D01*
X70526091Y-27170000D01*
X70526091Y-26170000D01*
X70497293Y-26016951D01*
X70406841Y-25876386D01*
X70268828Y-25782085D01*
X70105000Y-25748909D01*
X69657056Y-25748909D01*
X69381445Y-25472816D01*
X68862296Y-25257246D01*
X68300170Y-25256756D01*
X67780646Y-25471419D01*
X67461091Y-25790417D01*
X67461091Y-25670000D01*
X67432293Y-25516951D01*
X67341841Y-25376386D01*
X67203828Y-25282085D01*
X67040000Y-25248909D01*
X65649165Y-25248909D01*
X65967184Y-24931445D01*
X66024672Y-24793000D01*
X68919110Y-24793000D01*
X69003159Y-24923614D01*
X69141172Y-25017915D01*
X69305000Y-25051091D01*
X70105000Y-25051091D01*
X70258049Y-25022293D01*
X70398614Y-24931841D01*
X70492915Y-24793828D01*
X70526091Y-24630000D01*
X70526091Y-23630000D01*
X70497293Y-23476951D01*
X70406841Y-23336386D01*
X70268828Y-23242085D01*
X70105000Y-23208909D01*
X69305000Y-23208909D01*
X69151951Y-23237707D01*
X69011386Y-23328159D01*
X68917085Y-23466172D01*
X68916917Y-23467000D01*
X66024921Y-23467000D01*
X65968581Y-23330646D01*
X65649583Y-23011091D01*
X67040000Y-23011091D01*
X67193049Y-22982293D01*
X67333614Y-22891841D01*
X67427915Y-22753828D01*
X67461091Y-22590000D01*
X67461091Y-22469165D01*
X67778555Y-22787184D01*
X68297704Y-23002754D01*
X68859830Y-23003244D01*
X69379354Y-22788581D01*
X69657329Y-22511091D01*
X70105000Y-22511091D01*
X70258049Y-22482293D01*
X70398614Y-22391841D01*
X70492915Y-22253828D01*
X70526091Y-22090000D01*
X70526091Y-21090000D01*
X70497293Y-20936951D01*
X70406841Y-20796386D01*
X70268828Y-20702085D01*
X70105000Y-20668909D01*
X69657056Y-20668909D01*
X69381445Y-20392816D01*
X68862296Y-20177246D01*
X68300170Y-20176756D01*
X67780646Y-20391419D01*
X67461091Y-20710417D01*
X67461091Y-20590000D01*
X67432293Y-20436951D01*
X67341841Y-20296386D01*
X67203828Y-20202085D01*
X67040000Y-20168909D01*
X65649165Y-20168909D01*
X65967184Y-19851445D01*
X66024672Y-19713000D01*
X68919110Y-19713000D01*
X69003159Y-19843614D01*
X69141172Y-19937915D01*
X69305000Y-19971091D01*
X70105000Y-19971091D01*
X70258049Y-19942293D01*
X70398614Y-19851841D01*
X70492915Y-19713828D01*
X70526091Y-19550000D01*
X70526091Y-18550000D01*
X70497293Y-18396951D01*
X70406841Y-18256386D01*
X70268828Y-18162085D01*
X70105000Y-18128909D01*
X69305000Y-18128909D01*
X69151951Y-18157707D01*
X69011386Y-18248159D01*
X68917085Y-18386172D01*
X68916917Y-18387000D01*
X66024921Y-18387000D01*
X65968581Y-18250646D01*
X65649583Y-17931091D01*
X67040000Y-17931091D01*
X67193049Y-17902293D01*
X67333614Y-17811841D01*
X67427915Y-17673828D01*
X67461091Y-17510000D01*
X67461091Y-17389165D01*
X67778555Y-17707184D01*
X68297704Y-17922754D01*
X68859830Y-17923244D01*
X69379354Y-17708581D01*
X69657329Y-17431091D01*
X70105000Y-17431091D01*
X70258049Y-17402293D01*
X70398614Y-17311841D01*
X70492915Y-17173828D01*
X70526091Y-17010000D01*
X70526091Y-16010000D01*
X70497293Y-15856951D01*
X70406841Y-15716386D01*
X70268828Y-15622085D01*
X70105000Y-15588909D01*
X69657056Y-15588909D01*
X69381445Y-15312816D01*
X68862296Y-15097246D01*
X68300170Y-15096756D01*
X67780646Y-15311419D01*
X67461091Y-15630417D01*
X67461091Y-15510000D01*
X67432293Y-15356951D01*
X67341841Y-15216386D01*
X67203828Y-15122085D01*
X67040000Y-15088909D01*
X65649165Y-15088909D01*
X65967184Y-14771445D01*
X66024672Y-14633000D01*
X68919110Y-14633000D01*
X69003159Y-14763614D01*
X69141172Y-14857915D01*
X69305000Y-14891091D01*
X70105000Y-14891091D01*
X70258049Y-14862293D01*
X70398614Y-14771841D01*
X70492915Y-14633828D01*
X70526091Y-14470000D01*
X70526091Y-13470000D01*
X70497293Y-13316951D01*
X70406841Y-13176386D01*
X70268828Y-13082085D01*
X70105000Y-13048909D01*
X69305000Y-13048909D01*
X69151951Y-13077707D01*
X69011386Y-13168159D01*
X68917085Y-13306172D01*
X68916917Y-13307000D01*
X66024921Y-13307000D01*
X65968581Y-13170646D01*
X65649583Y-12851091D01*
X67040000Y-12851091D01*
X67193049Y-12822293D01*
X67333614Y-12731841D01*
X67427915Y-12593828D01*
X67461091Y-12430000D01*
X67461091Y-12309165D01*
X67778555Y-12627184D01*
X68297704Y-12842754D01*
X68859830Y-12843244D01*
X69379354Y-12628581D01*
X69657329Y-12351091D01*
X70105000Y-12351091D01*
X70258049Y-12322293D01*
X70398614Y-12231841D01*
X70492915Y-12093828D01*
X70526091Y-11930000D01*
X70526091Y-10930000D01*
X70497293Y-10776951D01*
X70406841Y-10636386D01*
X70268828Y-10542085D01*
X70105000Y-10508909D01*
X69657056Y-10508909D01*
X69381445Y-10232816D01*
X68862296Y-10017246D01*
X68300170Y-10016756D01*
X67780646Y-10231419D01*
X67461091Y-10550417D01*
X67461091Y-10430000D01*
X67432293Y-10276951D01*
X67341841Y-10136386D01*
X67203828Y-10042085D01*
X67040000Y-10008909D01*
X65649165Y-10008909D01*
X65967184Y-9691445D01*
X66024672Y-9553000D01*
X68919110Y-9553000D01*
X69003159Y-9683614D01*
X69141172Y-9777915D01*
X69305000Y-9811091D01*
X70105000Y-9811091D01*
X70258049Y-9782293D01*
X70398614Y-9691841D01*
X70492915Y-9553828D01*
X70526091Y-9390000D01*
X70526091Y-8390000D01*
X70497293Y-8236951D01*
X70406841Y-8096386D01*
X70268828Y-8002085D01*
X70105000Y-7968909D01*
X69305000Y-7968909D01*
X69151951Y-7997707D01*
X69011386Y-8088159D01*
X68917085Y-8226172D01*
X68916917Y-8227000D01*
X66024921Y-8227000D01*
X65968581Y-8090646D01*
X65649583Y-7771091D01*
X67040000Y-7771091D01*
X67193049Y-7742293D01*
X67333614Y-7651841D01*
X67427915Y-7513828D01*
X67461091Y-7350000D01*
X67461091Y-7229165D01*
X67778555Y-7547184D01*
X68297704Y-7762754D01*
X68859830Y-7763244D01*
X69379354Y-7548581D01*
X69657329Y-7271091D01*
X70105000Y-7271091D01*
X70258049Y-7242293D01*
X70398614Y-7151841D01*
X70492915Y-7013828D01*
X70526091Y-6850000D01*
X70526091Y-5850000D01*
X70497293Y-5696951D01*
X70406841Y-5556386D01*
X70268828Y-5462085D01*
X70105000Y-5428909D01*
X69657056Y-5428909D01*
X69381445Y-5152816D01*
X68862296Y-4937246D01*
X68300170Y-4936756D01*
X67780646Y-5151419D01*
X67461091Y-5470417D01*
X67461091Y-5350000D01*
X67432293Y-5196951D01*
X67341841Y-5056386D01*
X67203828Y-4962085D01*
X67040000Y-4928909D01*
X65649165Y-4928909D01*
X65967184Y-4611445D01*
X66024672Y-4473000D01*
X68919110Y-4473000D01*
X69003159Y-4603614D01*
X69141172Y-4697915D01*
X69305000Y-4731091D01*
X70105000Y-4731091D01*
X70258049Y-4702293D01*
X70398614Y-4611841D01*
X70492915Y-4473828D01*
X70526091Y-4310000D01*
X70526091Y-3310000D01*
X70497293Y-3156951D01*
X70406841Y-3016386D01*
X70268828Y-2922085D01*
X70105000Y-2888909D01*
X69305000Y-2888909D01*
X69151951Y-2917707D01*
X69011386Y-3008159D01*
X68917085Y-3146172D01*
X68916917Y-3147000D01*
X66024921Y-3147000D01*
X65968581Y-3010646D01*
X65649583Y-2691091D01*
X67040000Y-2691091D01*
X67193049Y-2662293D01*
X67333614Y-2571841D01*
X67427915Y-2433828D01*
X67461091Y-2270000D01*
X67461091Y-2149165D01*
X67778555Y-2467184D01*
X68297704Y-2682754D01*
X68859830Y-2683244D01*
X69379354Y-2468581D01*
X69657329Y-2191091D01*
X70105000Y-2191091D01*
X70258049Y-2162293D01*
X70398614Y-2071841D01*
X70492915Y-1933828D01*
X70526091Y-1770000D01*
X70526091Y-770000D01*
X70683909Y-770000D01*
X70683909Y-1770000D01*
X70712707Y-1923049D01*
X70803159Y-2063614D01*
X70842000Y-2090153D01*
X70842000Y-2988459D01*
X70811386Y-3008159D01*
X70717085Y-3146172D01*
X70683909Y-3310000D01*
X70683909Y-4310000D01*
X70712707Y-4463049D01*
X70803159Y-4603614D01*
X70842000Y-4630153D01*
X70842000Y-5528459D01*
X70811386Y-5548159D01*
X70717085Y-5686172D01*
X70683909Y-5850000D01*
X70683909Y-6850000D01*
X70712707Y-7003049D01*
X70803159Y-7143614D01*
X70842000Y-7170153D01*
X70842000Y-8068459D01*
X70811386Y-8088159D01*
X70717085Y-8226172D01*
X70683909Y-8390000D01*
X70683909Y-9390000D01*
X70712707Y-9543049D01*
X70803159Y-9683614D01*
X70842000Y-9710153D01*
X70842000Y-10608459D01*
X70811386Y-10628159D01*
X70717085Y-10766172D01*
X70683909Y-10930000D01*
X70683909Y-11930000D01*
X70712707Y-12083049D01*
X70803159Y-12223614D01*
X70842000Y-12250153D01*
X70842000Y-13148459D01*
X70811386Y-13168159D01*
X70717085Y-13306172D01*
X70683909Y-13470000D01*
X70683909Y-14470000D01*
X70712707Y-14623049D01*
X70803159Y-14763614D01*
X70842000Y-14790153D01*
X70842000Y-15688459D01*
X70811386Y-15708159D01*
X70717085Y-15846172D01*
X70683909Y-16010000D01*
X70683909Y-17010000D01*
X70712707Y-17163049D01*
X70803159Y-17303614D01*
X70842000Y-17330153D01*
X70842000Y-18228459D01*
X70811386Y-18248159D01*
X70717085Y-18386172D01*
X70683909Y-18550000D01*
X70683909Y-19550000D01*
X70712707Y-19703049D01*
X70803159Y-19843614D01*
X70842000Y-19870153D01*
X70842000Y-20768459D01*
X70811386Y-20788159D01*
X70717085Y-20926172D01*
X70683909Y-21090000D01*
X70683909Y-22090000D01*
X70712707Y-22243049D01*
X70803159Y-22383614D01*
X70842000Y-22410153D01*
X70842000Y-23308459D01*
X70811386Y-23328159D01*
X70717085Y-23466172D01*
X70683909Y-23630000D01*
X70683909Y-24630000D01*
X70712707Y-24783049D01*
X70803159Y-24923614D01*
X70842000Y-24950153D01*
X70842000Y-25848459D01*
X70811386Y-25868159D01*
X70717085Y-26006172D01*
X70683909Y-26170000D01*
X70683909Y-27170000D01*
X70712707Y-27323049D01*
X70803159Y-27463614D01*
X70842000Y-27490153D01*
X70842000Y-28388459D01*
X70811386Y-28408159D01*
X70717085Y-28546172D01*
X70683909Y-28710000D01*
X70683909Y-29710000D01*
X70712707Y-29863049D01*
X70803159Y-30003614D01*
X70842000Y-30030153D01*
X70842000Y-30928459D01*
X70811386Y-30948159D01*
X70717085Y-31086172D01*
X70683909Y-31250000D01*
X70683909Y-32250000D01*
X70712707Y-32403049D01*
X70803159Y-32543614D01*
X70842000Y-32570153D01*
X70842000Y-33468459D01*
X70811386Y-33488159D01*
X70717085Y-33626172D01*
X70683909Y-33790000D01*
X70683909Y-34790000D01*
X70712707Y-34943049D01*
X70803159Y-35083614D01*
X70842000Y-35110153D01*
X70842000Y-36008459D01*
X70811386Y-36028159D01*
X70717085Y-36166172D01*
X70683909Y-36330000D01*
X70683909Y-37330000D01*
X70712707Y-37483049D01*
X70803159Y-37623614D01*
X70842000Y-37650153D01*
X70842000Y-38548459D01*
X70811386Y-38568159D01*
X70717085Y-38706172D01*
X70683909Y-38870000D01*
X70683909Y-39870000D01*
X70712707Y-40023049D01*
X70803159Y-40163614D01*
X70941172Y-40257915D01*
X71105000Y-40291091D01*
X71905000Y-40291091D01*
X72058049Y-40262293D01*
X72198614Y-40171841D01*
X72292915Y-40033828D01*
X72326091Y-39870000D01*
X72326091Y-38870000D01*
X72297293Y-38716951D01*
X72206841Y-38576386D01*
X72168000Y-38549847D01*
X72168000Y-37651541D01*
X72198614Y-37631841D01*
X72292915Y-37493828D01*
X72326091Y-37330000D01*
X72326091Y-36330000D01*
X72297293Y-36176951D01*
X72206841Y-36036386D01*
X72168000Y-36009847D01*
X72168000Y-35111541D01*
X72198614Y-35091841D01*
X72292915Y-34953828D01*
X72326091Y-34790000D01*
X72326091Y-33790000D01*
X72297293Y-33636951D01*
X72206841Y-33496386D01*
X72168000Y-33469847D01*
X72168000Y-32571541D01*
X72198614Y-32551841D01*
X72292915Y-32413828D01*
X72326091Y-32250000D01*
X72326091Y-31250000D01*
X72297293Y-31096951D01*
X72206841Y-30956386D01*
X72168000Y-30929847D01*
X72168000Y-30031541D01*
X72198614Y-30011841D01*
X72292915Y-29873828D01*
X72326091Y-29710000D01*
X72326091Y-28710000D01*
X72297293Y-28556951D01*
X72206841Y-28416386D01*
X72168000Y-28389847D01*
X72168000Y-27491541D01*
X72198614Y-27471841D01*
X72292915Y-27333828D01*
X72326091Y-27170000D01*
X72326091Y-26170000D01*
X72297293Y-26016951D01*
X72206841Y-25876386D01*
X72168000Y-25849847D01*
X72168000Y-24951541D01*
X72198614Y-24931841D01*
X72292915Y-24793828D01*
X72326091Y-24630000D01*
X72326091Y-23630000D01*
X72297293Y-23476951D01*
X72206841Y-23336386D01*
X72168000Y-23309847D01*
X72168000Y-22411541D01*
X72198614Y-22391841D01*
X72292915Y-22253828D01*
X72326091Y-22090000D01*
X72326091Y-21090000D01*
X72297293Y-20936951D01*
X72206841Y-20796386D01*
X72168000Y-20769847D01*
X72168000Y-19871541D01*
X72198614Y-19851841D01*
X72292915Y-19713828D01*
X72326091Y-19550000D01*
X72326091Y-18550000D01*
X72297293Y-18396951D01*
X72206841Y-18256386D01*
X72168000Y-18229847D01*
X72168000Y-17331541D01*
X72198614Y-17311841D01*
X72292915Y-17173828D01*
X72326091Y-17010000D01*
X72326091Y-16010000D01*
X72297293Y-15856951D01*
X72206841Y-15716386D01*
X72168000Y-15689847D01*
X72168000Y-14791541D01*
X72198614Y-14771841D01*
X72292915Y-14633828D01*
X72326091Y-14470000D01*
X72326091Y-13470000D01*
X72297293Y-13316951D01*
X72206841Y-13176386D01*
X72168000Y-13149847D01*
X72168000Y-12251541D01*
X72198614Y-12231841D01*
X72292915Y-12093828D01*
X72326091Y-11930000D01*
X72326091Y-10930000D01*
X72297293Y-10776951D01*
X72206841Y-10636386D01*
X72168000Y-10609847D01*
X72168000Y-9711541D01*
X72198614Y-9691841D01*
X72292915Y-9553828D01*
X72326091Y-9390000D01*
X72326091Y-8390000D01*
X72297293Y-8236951D01*
X72206841Y-8096386D01*
X72168000Y-8069847D01*
X72168000Y-7171541D01*
X72198614Y-7151841D01*
X72292915Y-7013828D01*
X72326091Y-6850000D01*
X72326091Y-5850000D01*
X72297293Y-5696951D01*
X72206841Y-5556386D01*
X72168000Y-5529847D01*
X72168000Y-4631541D01*
X72198614Y-4611841D01*
X72292915Y-4473828D01*
X72326091Y-4310000D01*
X72326091Y-3310000D01*
X72297293Y-3156951D01*
X72206841Y-3016386D01*
X72168000Y-2989847D01*
X72168000Y-2091541D01*
X72198614Y-2071841D01*
X72292915Y-1933828D01*
X72326091Y-1770000D01*
X72326091Y-770000D01*
X72297293Y-616951D01*
X72206841Y-476386D01*
X72068828Y-382085D01*
X71905000Y-348909D01*
X71105000Y-348909D01*
X70951951Y-377707D01*
X70811386Y-468159D01*
X70717085Y-606172D01*
X70683909Y-770000D01*
X70526091Y-770000D01*
X70497293Y-616951D01*
X70406841Y-476386D01*
X70268828Y-382085D01*
X70105000Y-348909D01*
X69657056Y-348909D01*
X69381445Y-72816D01*
X68862296Y142754D01*
X68300170Y143244D01*
X67780646Y-71419D01*
X67461091Y-390417D01*
X67461091Y-270000D01*
X67432293Y-116951D01*
X67341841Y23614D01*
X67203828Y117915D01*
X67040000Y151091D01*
X65040000Y151091D01*
X64886951Y122293D01*
X64746386Y31841D01*
X64652085Y-106172D01*
X64618909Y-270000D01*
X64618909Y-607000D01*
X55789594Y-607000D01*
X55753981Y-553701D01*
X55425340Y-334110D01*
X55037682Y-257000D01*
X54182318Y-257000D01*
X53794660Y-334110D01*
X53466019Y-553701D01*
X53246428Y-882342D01*
X53169318Y-1270000D01*
X53246428Y-1657658D01*
X53466019Y-1986299D01*
X53794660Y-2205890D01*
X54182318Y-2283000D01*
X55037682Y-2283000D01*
X55425340Y-2205890D01*
X55753981Y-1986299D01*
X55789594Y-1933000D01*
X64618909Y-1933000D01*
X64618909Y-2270000D01*
X64642785Y-2396889D01*
X64490170Y-2396756D01*
X63970646Y-2611419D01*
X63651091Y-2930417D01*
X63651091Y-2810000D01*
X63622293Y-2656951D01*
X63531841Y-2516386D01*
X63393828Y-2422085D01*
X63230000Y-2388909D01*
X61230000Y-2388909D01*
X61076951Y-2417707D01*
X60936386Y-2508159D01*
X60842085Y-2646172D01*
X60808909Y-2810000D01*
X60808909Y-3147000D01*
X55789594Y-3147000D01*
X55753981Y-3093701D01*
X55425340Y-2874110D01*
X55037682Y-2797000D01*
X54182318Y-2797000D01*
X53794660Y-2874110D01*
X53466019Y-3093701D01*
X53246428Y-3422342D01*
X53169318Y-3810000D01*
X53246428Y-4197658D01*
X53466019Y-4526299D01*
X53794660Y-4745890D01*
X54182318Y-4823000D01*
X55037682Y-4823000D01*
X55425340Y-4745890D01*
X55753981Y-4526299D01*
X55789594Y-4473000D01*
X60808909Y-4473000D01*
X60808909Y-4810000D01*
X60837707Y-4963049D01*
X60928159Y-5103614D01*
X61066172Y-5197915D01*
X61230000Y-5231091D01*
X63230000Y-5231091D01*
X63383049Y-5202293D01*
X63523614Y-5111841D01*
X63617915Y-4973828D01*
X63651091Y-4810000D01*
X63651091Y-4689165D01*
X63968555Y-5007184D01*
X64487704Y-5222754D01*
X64644649Y-5222891D01*
X64618909Y-5350000D01*
X64618909Y-5687000D01*
X55789594Y-5687000D01*
X55753981Y-5633701D01*
X55425340Y-5414110D01*
X55037682Y-5337000D01*
X54182318Y-5337000D01*
X53794660Y-5414110D01*
X53466019Y-5633701D01*
X53246428Y-5962342D01*
X53169318Y-6350000D01*
X53246428Y-6737658D01*
X53466019Y-7066299D01*
X53794660Y-7285890D01*
X54182318Y-7363000D01*
X55037682Y-7363000D01*
X55425340Y-7285890D01*
X55753981Y-7066299D01*
X55789594Y-7013000D01*
X64618909Y-7013000D01*
X64618909Y-7350000D01*
X64642785Y-7476889D01*
X64490170Y-7476756D01*
X63970646Y-7691419D01*
X63651091Y-8010417D01*
X63651091Y-7890000D01*
X63622293Y-7736951D01*
X63531841Y-7596386D01*
X63393828Y-7502085D01*
X63230000Y-7468909D01*
X61230000Y-7468909D01*
X61076951Y-7497707D01*
X60936386Y-7588159D01*
X60842085Y-7726172D01*
X60808909Y-7890000D01*
X60808909Y-8227000D01*
X55789594Y-8227000D01*
X55753981Y-8173701D01*
X55425340Y-7954110D01*
X55037682Y-7877000D01*
X54182318Y-7877000D01*
X53794660Y-7954110D01*
X53466019Y-8173701D01*
X53246428Y-8502342D01*
X53169318Y-8890000D01*
X53246428Y-9277658D01*
X53466019Y-9606299D01*
X53794660Y-9825890D01*
X54182318Y-9903000D01*
X55037682Y-9903000D01*
X55425340Y-9825890D01*
X55753981Y-9606299D01*
X55789594Y-9553000D01*
X60808909Y-9553000D01*
X60808909Y-9890000D01*
X60837707Y-10043049D01*
X60928159Y-10183614D01*
X61066172Y-10277915D01*
X61230000Y-10311091D01*
X63230000Y-10311091D01*
X63383049Y-10282293D01*
X63523614Y-10191841D01*
X63617915Y-10053828D01*
X63651091Y-9890000D01*
X63651091Y-9769165D01*
X63968555Y-10087184D01*
X64487704Y-10302754D01*
X64644649Y-10302891D01*
X64618909Y-10430000D01*
X64618909Y-10767000D01*
X55789594Y-10767000D01*
X55753981Y-10713701D01*
X55425340Y-10494110D01*
X55037682Y-10417000D01*
X54182318Y-10417000D01*
X53794660Y-10494110D01*
X53466019Y-10713701D01*
X53246428Y-11042342D01*
X53169318Y-11430000D01*
X53246428Y-11817658D01*
X53466019Y-12146299D01*
X53794660Y-12365890D01*
X54182318Y-12443000D01*
X55037682Y-12443000D01*
X55425340Y-12365890D01*
X55753981Y-12146299D01*
X55789594Y-12093000D01*
X64618909Y-12093000D01*
X64618909Y-12430000D01*
X64642785Y-12556889D01*
X64490170Y-12556756D01*
X63970646Y-12771419D01*
X63651091Y-13090417D01*
X63651091Y-12970000D01*
X63622293Y-12816951D01*
X63531841Y-12676386D01*
X63393828Y-12582085D01*
X63230000Y-12548909D01*
X61230000Y-12548909D01*
X61076951Y-12577707D01*
X60936386Y-12668159D01*
X60842085Y-12806172D01*
X60808909Y-12970000D01*
X60808909Y-13307000D01*
X57150000Y-13307000D01*
X56896281Y-13357468D01*
X56681188Y-13501188D01*
X56010533Y-14171843D01*
X56050682Y-13970000D01*
X55993588Y-13682969D01*
X56053609Y-13560705D01*
X55837160Y-13172498D01*
X55469006Y-12916664D01*
X55030972Y-12821190D01*
X54857763Y-12957000D01*
X54362237Y-12957000D01*
X54189028Y-12821190D01*
X53750994Y-12916664D01*
X53382840Y-13172498D01*
X53166391Y-13560705D01*
X53226412Y-13682969D01*
X53169318Y-13970000D01*
X53226412Y-14257031D01*
X53166391Y-14379295D01*
X53282950Y-14588347D01*
X53086281Y-14627468D01*
X52871188Y-14771188D01*
X50077188Y-17565188D01*
X50018000Y-17653769D01*
X50018000Y-16712136D01*
X52415068Y-14315068D01*
X52457011Y-14252296D01*
X52520853Y-14156750D01*
X52558000Y-13970000D01*
X52558000Y1270000D01*
X53169318Y1270000D01*
X53246428Y882342D01*
X53466019Y553701D01*
X53794660Y334110D01*
X54182318Y257000D01*
X55037682Y257000D01*
X55425340Y334110D01*
X55753981Y553701D01*
X55973572Y882342D01*
X56050682Y1270000D01*
X55973572Y1657658D01*
X55753981Y1986299D01*
X55425340Y2205890D01*
X55037682Y2283000D01*
X54182318Y2283000D01*
X53794660Y2205890D01*
X53466019Y1986299D01*
X53246428Y1657658D01*
X53169318Y1270000D01*
X52558000Y1270000D01*
X52558000Y2540000D01*
X52520853Y2726750D01*
X52415068Y2885068D01*
X52256750Y2990853D01*
X52070000Y3028000D01*
X29210000Y3028000D01*
X29023250Y2990853D01*
X28864932Y2885068D01*
X28759147Y2726750D01*
X28722000Y2540000D01*
X28722000Y-17780000D01*
X28759147Y-17966750D01*
X28806087Y-18037000D01*
X28864932Y-18125068D01*
X31262000Y-20522136D01*
X31262000Y-27940000D01*
X31299147Y-28126750D01*
X31319135Y-28156664D01*
X31404932Y-28285068D01*
X33802000Y-30682136D01*
X33802000Y-38100000D01*
X33839147Y-38286750D01*
X33937610Y-38434110D01*
X33944932Y-38445068D01*
X37754932Y-42255068D01*
X37913251Y-42360854D01*
X38100000Y-42398000D01*
X45720000Y-42398000D01*
X45906750Y-42360853D01*
X46065068Y-42255068D01*
X49875068Y-38445068D01*
X49980854Y-38286749D01*
X50017045Y-38104801D01*
X50077188Y-38194812D01*
X53309830Y-41427454D01*
X53246428Y-41522342D01*
X53169318Y-41910000D01*
X53246428Y-42297658D01*
X53392988Y-42517000D01*
X36850624Y-42517000D01*
X33429000Y-39095376D01*
X33429000Y-32004000D01*
X33378532Y-31750281D01*
X33234812Y-31535188D01*
X30381000Y-28681376D01*
X30381000Y-21978000D01*
X30330532Y-21724281D01*
X30186812Y-21509188D01*
X28047129Y-19369505D01*
X28110682Y-19050000D01*
X28033572Y-18662342D01*
X27813981Y-18333701D01*
X27485340Y-18114110D01*
X27097682Y-18037000D01*
X26242318Y-18037000D01*
X26040475Y-18077149D01*
X26594623Y-17523000D01*
X27097682Y-17523000D01*
X27485340Y-17445890D01*
X27813981Y-17226299D01*
X28033572Y-16897658D01*
X28110682Y-16510000D01*
X28033572Y-16122342D01*
X27813981Y-15793701D01*
X27485340Y-15574110D01*
X27097682Y-15497000D01*
X26242318Y-15497000D01*
X26040475Y-15537149D01*
X26594624Y-14983000D01*
X27097682Y-14983000D01*
X27485340Y-14905890D01*
X27813981Y-14686299D01*
X28033572Y-14357658D01*
X28110682Y-13970000D01*
X28033572Y-13582342D01*
X27813981Y-13253701D01*
X27485340Y-13034110D01*
X27097682Y-12957000D01*
X26242318Y-12957000D01*
X26040474Y-12997149D01*
X26594623Y-12443000D01*
X27097682Y-12443000D01*
X27485340Y-12365890D01*
X27813981Y-12146299D01*
X28033572Y-11817658D01*
X28110682Y-11430000D01*
X28033572Y-11042342D01*
X27813981Y-10713701D01*
X27485340Y-10494110D01*
X27097682Y-10417000D01*
X26242318Y-10417000D01*
X25854660Y-10494110D01*
X25526019Y-10713701D01*
X25306428Y-11042342D01*
X25229318Y-11430000D01*
X25306428Y-11817658D01*
X25321765Y-11840612D01*
X24178563Y-12983813D01*
X24166091Y-12971341D01*
X24166091Y-12428659D01*
X24266000Y-12328750D01*
X24266000Y-11711366D01*
X24186682Y-11519877D01*
X24040122Y-11373317D01*
X23848633Y-11294000D01*
X23231250Y-11294000D01*
X23131341Y-11393909D01*
X22588659Y-11393909D01*
X22488750Y-11294000D01*
X21871367Y-11294000D01*
X21679878Y-11373317D01*
X21533318Y-11519877D01*
X21454000Y-11711366D01*
X21454000Y-11992361D01*
X21426658Y-11979319D01*
X21421032Y-11965703D01*
X21056218Y-11600251D01*
X21040953Y-11593913D01*
X20955651Y-11415088D01*
X20415550Y-11269643D01*
X20107865Y-11309759D01*
X21864624Y-9553000D01*
X25490406Y-9553000D01*
X25526019Y-9606299D01*
X25854660Y-9825890D01*
X26242318Y-9903000D01*
X27097682Y-9903000D01*
X27485340Y-9825890D01*
X27813981Y-9606299D01*
X28033572Y-9277658D01*
X28110682Y-8890000D01*
X28033572Y-8502342D01*
X27813981Y-8173701D01*
X27485340Y-7954110D01*
X27097682Y-7877000D01*
X26242318Y-7877000D01*
X25854660Y-7954110D01*
X25526019Y-8173701D01*
X25490406Y-8227000D01*
X21590005Y-8227000D01*
X21590000Y-8226999D01*
X21336281Y-8277468D01*
X21121188Y-8421188D01*
X18110566Y-11431810D01*
X18039321Y-11402226D01*
X17522945Y-11401775D01*
X17147780Y-11556791D01*
X17173000Y-11430000D01*
X17173000Y-6624624D01*
X17554820Y-6242804D01*
X18010320Y-6243202D01*
X18437926Y-6066519D01*
X18765369Y-5739647D01*
X18942798Y-5312350D01*
X18943202Y-4849680D01*
X18787561Y-4473000D01*
X19312770Y-4473000D01*
X19157202Y-4847650D01*
X19156798Y-5310320D01*
X19333481Y-5737926D01*
X19660353Y-6065369D01*
X20087650Y-6242798D01*
X20550320Y-6243202D01*
X20977926Y-6066519D01*
X21302010Y-5743000D01*
X25125376Y-5743000D01*
X25321765Y-5939389D01*
X25306428Y-5962342D01*
X25229318Y-6350000D01*
X25306428Y-6737658D01*
X25526019Y-7066299D01*
X25854660Y-7285890D01*
X26242318Y-7363000D01*
X27097682Y-7363000D01*
X27485340Y-7285890D01*
X27813981Y-7066299D01*
X28033572Y-6737658D01*
X28110682Y-6350000D01*
X28033572Y-5962342D01*
X27813981Y-5633701D01*
X27485340Y-5414110D01*
X27097682Y-5337000D01*
X26594624Y-5337000D01*
X26040475Y-4782851D01*
X26242318Y-4823000D01*
X27097682Y-4823000D01*
X27485340Y-4745890D01*
X27813981Y-4526299D01*
X28033572Y-4197658D01*
X28110682Y-3810000D01*
X28033572Y-3422342D01*
X27813981Y-3093701D01*
X27485340Y-2874110D01*
X27097682Y-2797000D01*
X26242318Y-2797000D01*
X25854660Y-2874110D01*
X25526019Y-3093701D01*
X25490406Y-3147000D01*
X16510000Y-3147000D01*
X16256281Y-3197468D01*
X16041188Y-3341188D01*
X15465180Y-3917196D01*
X15009680Y-3916798D01*
X14582074Y-4093481D01*
X14254631Y-4420353D01*
X14077202Y-4847650D01*
X14076798Y-5310320D01*
X14253481Y-5737926D01*
X14580353Y-6065369D01*
X15007650Y-6242798D01*
X15470320Y-6243202D01*
X15897926Y-6066519D01*
X15956271Y-6008276D01*
X15897468Y-6096281D01*
X15847000Y-6350000D01*
X15847000Y-11155376D01*
X15570566Y-11431810D01*
X15499321Y-11402226D01*
X14982945Y-11401775D01*
X14909674Y-11432050D01*
X13363000Y-9885376D01*
X13363000Y-2814624D01*
X17554820Y1377196D01*
X18010320Y1376798D01*
X18437926Y1553481D01*
X18765369Y1880353D01*
X18942798Y2307650D01*
X18943202Y2770320D01*
X18787561Y3147000D01*
X19312770Y3147000D01*
X19157202Y2772350D01*
X19156798Y2309680D01*
X19333481Y1882074D01*
X19660353Y1554631D01*
X20087650Y1377202D01*
X20545574Y1376802D01*
X23661188Y-1738812D01*
X23876281Y-1882532D01*
X24130000Y-1933001D01*
X24130005Y-1933000D01*
X25490406Y-1933000D01*
X25526019Y-1986299D01*
X25854660Y-2205890D01*
X26242318Y-2283000D01*
X27097682Y-2283000D01*
X27485340Y-2205890D01*
X27813981Y-1986299D01*
X28033572Y-1657658D01*
X28110682Y-1270000D01*
X28033572Y-882342D01*
X27813981Y-553701D01*
X27485340Y-334110D01*
X27097682Y-257000D01*
X26242318Y-257000D01*
X25854660Y-334110D01*
X25526019Y-553701D01*
X25490406Y-607000D01*
X24404624Y-607000D01*
X21482804Y2314820D01*
X21483202Y2770320D01*
X21327561Y3147000D01*
X23855376Y3147000D01*
X25321765Y1680612D01*
X25306428Y1657658D01*
X25229318Y1270000D01*
X25306428Y882342D01*
X25526019Y553701D01*
X25854660Y334110D01*
X26242318Y257000D01*
X27097682Y257000D01*
X27485340Y334110D01*
X27813981Y553701D01*
X28033572Y882342D01*
X28110682Y1270000D01*
X28033572Y1657658D01*
X27813981Y1986299D01*
X27485340Y2205890D01*
X27097682Y2283000D01*
X26594623Y2283000D01*
X24598812Y4278812D01*
X24383719Y4422532D01*
X24130000Y4473000D01*
X16510000Y4473000D01*
X16256281Y4422532D01*
X16041188Y4278812D01*
X15465180Y3702804D01*
X15009680Y3703202D01*
X14582074Y3526519D01*
X14254631Y3199647D01*
X14077202Y2772350D01*
X14076798Y2309680D01*
X14253481Y1882074D01*
X14580353Y1554631D01*
X15007650Y1377202D01*
X15470320Y1376798D01*
X15826235Y1523859D01*
X12231188Y-2071188D01*
X12087468Y-2286281D01*
X12037000Y-2540000D01*
X12037000Y-10160000D01*
X12087468Y-10413719D01*
X12231188Y-10628812D01*
X12983813Y-11381437D01*
X12971341Y-11393909D01*
X12428659Y-11393909D01*
X12328750Y-11294000D01*
X11711367Y-11294000D01*
X11519878Y-11373317D01*
X11373318Y-11519877D01*
X11294000Y-11711366D01*
X9488000Y-11711366D01*
X9488000Y-3000000D01*
X9462959Y-2874110D01*
X9450854Y-2813251D01*
X9345068Y-2654932D01*
X6488000Y202136D01*
X6488000Y1951937D01*
X6587393Y2451623D01*
X6586583Y1522130D01*
X6953166Y634931D01*
X7631361Y-44449D01*
X8517919Y-412580D01*
X9477870Y-413417D01*
X10365069Y-46834D01*
X11044449Y631361D01*
X11412580Y1517919D01*
X11413417Y2477870D01*
X11046834Y3365069D01*
X10368639Y4044449D01*
X9482081Y4412580D01*
X8552319Y4413391D01*
X9048063Y4512000D01*
X72951937Y4512000D01*
X73451623Y4412607D01*
G36*
X25229318Y-36830000D02*
X25306428Y-37217658D01*
X25526019Y-37546299D01*
X25854660Y-37765890D01*
X26242318Y-37843000D01*
X26745376Y-37843000D01*
X27132651Y-38230274D01*
X27090972Y-38221190D01*
X26917763Y-38357000D01*
X26422237Y-38357000D01*
X26249028Y-38221190D01*
X25810994Y-38316664D01*
X25442840Y-38572498D01*
X25226391Y-38960705D01*
X25286412Y-39082969D01*
X25229318Y-39370000D01*
X25286412Y-39657031D01*
X25226391Y-39779295D01*
X25442840Y-40167502D01*
X25810994Y-40423336D01*
X26249028Y-40518810D01*
X26422237Y-40383000D01*
X26917763Y-40383000D01*
X27090972Y-40518810D01*
X27529006Y-40423336D01*
X27531000Y-40421950D01*
X27531000Y-41004619D01*
X27485340Y-40974110D01*
X27097682Y-40897000D01*
X26242318Y-40897000D01*
X25854660Y-40974110D01*
X25526019Y-41193701D01*
X25306428Y-41522342D01*
X25229318Y-41910000D01*
X25306428Y-42297658D01*
X25526019Y-42626299D01*
X25854660Y-42845890D01*
X26007000Y-42876192D01*
X26007000Y-44175376D01*
X25125376Y-45057000D01*
X18054623Y-45057000D01*
X17443243Y-44445620D01*
X17520679Y-44477774D01*
X18037055Y-44478225D01*
X18514297Y-44281032D01*
X18879749Y-43916218D01*
X18978368Y-43678716D01*
X19035088Y-43815651D01*
X19213342Y-43900681D01*
X19218968Y-43914297D01*
X19583782Y-44279749D01*
X19599047Y-44286087D01*
X19684349Y-44464912D01*
X20224450Y-44610357D01*
X20779098Y-44538042D01*
X20955651Y-44464912D01*
X21040681Y-44286658D01*
X21054297Y-44281032D01*
X21419749Y-43916218D01*
X21426087Y-43900953D01*
X21454000Y-43887639D01*
X21454000Y-44168634D01*
X21533318Y-44360123D01*
X21679878Y-44506683D01*
X21871367Y-44586000D01*
X22488750Y-44586000D01*
X22588659Y-44486091D01*
X23131341Y-44486091D01*
X23231250Y-44586000D01*
X23848633Y-44586000D01*
X24040122Y-44506683D01*
X24186682Y-44360123D01*
X24266000Y-44168634D01*
X24266000Y-43551250D01*
X24166091Y-43451341D01*
X24166091Y-42908659D01*
X24266000Y-42808750D01*
X24266000Y-42191366D01*
X24186682Y-41999877D01*
X24040122Y-41853317D01*
X23848633Y-41774000D01*
X23231250Y-41774000D01*
X23131341Y-41873909D01*
X22588659Y-41873909D01*
X22488750Y-41774000D01*
X21871367Y-41774000D01*
X21679878Y-41853317D01*
X21533318Y-41999877D01*
X21454000Y-42191366D01*
X21454000Y-42472361D01*
X21426658Y-42459319D01*
X21421032Y-42445703D01*
X21056218Y-42080251D01*
X21040953Y-42073913D01*
X20955651Y-41895088D01*
X20415550Y-41749643D01*
X20107865Y-41789759D01*
X25269467Y-36628157D01*
X25229318Y-36830000D01*
X25229318Y-36830000D01*
G37*
X25229318Y-36830000D02*
X25306428Y-37217658D01*
X25526019Y-37546299D01*
X25854660Y-37765890D01*
X26242318Y-37843000D01*
X26745376Y-37843000D01*
X27132651Y-38230274D01*
X27090972Y-38221190D01*
X26917763Y-38357000D01*
X26422237Y-38357000D01*
X26249028Y-38221190D01*
X25810994Y-38316664D01*
X25442840Y-38572498D01*
X25226391Y-38960705D01*
X25286412Y-39082969D01*
X25229318Y-39370000D01*
X25286412Y-39657031D01*
X25226391Y-39779295D01*
X25442840Y-40167502D01*
X25810994Y-40423336D01*
X26249028Y-40518810D01*
X26422237Y-40383000D01*
X26917763Y-40383000D01*
X27090972Y-40518810D01*
X27529006Y-40423336D01*
X27531000Y-40421950D01*
X27531000Y-41004619D01*
X27485340Y-40974110D01*
X27097682Y-40897000D01*
X26242318Y-40897000D01*
X25854660Y-40974110D01*
X25526019Y-41193701D01*
X25306428Y-41522342D01*
X25229318Y-41910000D01*
X25306428Y-42297658D01*
X25526019Y-42626299D01*
X25854660Y-42845890D01*
X26007000Y-42876192D01*
X26007000Y-44175376D01*
X25125376Y-45057000D01*
X18054623Y-45057000D01*
X17443243Y-44445620D01*
X17520679Y-44477774D01*
X18037055Y-44478225D01*
X18514297Y-44281032D01*
X18879749Y-43916218D01*
X18978368Y-43678716D01*
X19035088Y-43815651D01*
X19213342Y-43900681D01*
X19218968Y-43914297D01*
X19583782Y-44279749D01*
X19599047Y-44286087D01*
X19684349Y-44464912D01*
X20224450Y-44610357D01*
X20779098Y-44538042D01*
X20955651Y-44464912D01*
X21040681Y-44286658D01*
X21054297Y-44281032D01*
X21419749Y-43916218D01*
X21426087Y-43900953D01*
X21454000Y-43887639D01*
X21454000Y-44168634D01*
X21533318Y-44360123D01*
X21679878Y-44506683D01*
X21871367Y-44586000D01*
X22488750Y-44586000D01*
X22588659Y-44486091D01*
X23131341Y-44486091D01*
X23231250Y-44586000D01*
X23848633Y-44586000D01*
X24040122Y-44506683D01*
X24186682Y-44360123D01*
X24266000Y-44168634D01*
X24266000Y-43551250D01*
X24166091Y-43451341D01*
X24166091Y-42908659D01*
X24266000Y-42808750D01*
X24266000Y-42191366D01*
X24186682Y-41999877D01*
X24040122Y-41853317D01*
X23848633Y-41774000D01*
X23231250Y-41774000D01*
X23131341Y-41873909D01*
X22588659Y-41873909D01*
X22488750Y-41774000D01*
X21871367Y-41774000D01*
X21679878Y-41853317D01*
X21533318Y-41999877D01*
X21454000Y-42191366D01*
X21454000Y-42472361D01*
X21426658Y-42459319D01*
X21421032Y-42445703D01*
X21056218Y-42080251D01*
X21040953Y-42073913D01*
X20955651Y-41895088D01*
X20415550Y-41749643D01*
X20107865Y-41789759D01*
X25269467Y-36628157D01*
X25229318Y-36830000D01*
G36*
X61230000Y-40791091D02*
X61567000Y-40791091D01*
X61567000Y-43667376D01*
X61115000Y-44119376D01*
X61115000Y-40767803D01*
X61230000Y-40791091D01*
X61230000Y-40791091D01*
G37*
X61230000Y-40791091D02*
X61567000Y-40791091D01*
X61567000Y-43667376D01*
X61115000Y-44119376D01*
X61115000Y-40767803D01*
X61230000Y-40791091D01*
G36*
X16514937Y-43517314D02*
X16508190Y-43510567D01*
X16510175Y-43505787D01*
X16514937Y-43517314D01*
X16514937Y-43517314D01*
G37*
X16514937Y-43517314D02*
X16508190Y-43510567D01*
X16510175Y-43505787D01*
X16514937Y-43517314D01*
G36*
X24483000Y-35539376D02*
X18110566Y-41911810D01*
X18039321Y-41882226D01*
X17522945Y-41881775D01*
X17045703Y-42078968D01*
X16680251Y-42443782D01*
X16509825Y-42854213D01*
X16341032Y-42445703D01*
X15976218Y-42080251D01*
X15499321Y-41882226D01*
X14982945Y-41881775D01*
X14909674Y-41912050D01*
X14633000Y-41635376D01*
X14633000Y-34564624D01*
X14909434Y-34288190D01*
X14980679Y-34317774D01*
X15497055Y-34318225D01*
X15974297Y-34121032D01*
X16339749Y-33756218D01*
X16510175Y-33345787D01*
X16678968Y-33754297D01*
X17043782Y-34119749D01*
X17520679Y-34317774D01*
X18037055Y-34318225D01*
X18514297Y-34121032D01*
X18879749Y-33756218D01*
X18978368Y-33518716D01*
X19035088Y-33655651D01*
X19213342Y-33740681D01*
X19218968Y-33754297D01*
X19583782Y-34119749D01*
X19599047Y-34126087D01*
X19684349Y-34304912D01*
X20224450Y-34450357D01*
X20779098Y-34378042D01*
X20955651Y-34304912D01*
X21040681Y-34126658D01*
X21054297Y-34121032D01*
X21419749Y-33756218D01*
X21426087Y-33740953D01*
X21454000Y-33727639D01*
X21454000Y-34008634D01*
X21533318Y-34200123D01*
X21679878Y-34346683D01*
X21871367Y-34426000D01*
X22488750Y-34426000D01*
X22588659Y-34326091D01*
X23131341Y-34326091D01*
X23231250Y-34426000D01*
X23848633Y-34426000D01*
X24040122Y-34346683D01*
X24186682Y-34200123D01*
X24266000Y-34008634D01*
X24266000Y-33391250D01*
X24166091Y-33291341D01*
X24166091Y-32748659D01*
X24266000Y-32648750D01*
X24266000Y-32031366D01*
X24186682Y-31839877D01*
X24040122Y-31693317D01*
X23848633Y-31614000D01*
X23231250Y-31614000D01*
X23131341Y-31713909D01*
X22588659Y-31713909D01*
X22488750Y-31614000D01*
X21871367Y-31614000D01*
X21679878Y-31693317D01*
X21533318Y-31839877D01*
X21454000Y-32031366D01*
X21454000Y-32312361D01*
X21426658Y-32299319D01*
X21421032Y-32285703D01*
X21056218Y-31920251D01*
X21040953Y-31913913D01*
X20955651Y-31735088D01*
X20415550Y-31589643D01*
X20107865Y-31629759D01*
X24483000Y-27254624D01*
X24483000Y-35539376D01*
X24483000Y-35539376D01*
G37*
X24483000Y-35539376D02*
X18110566Y-41911810D01*
X18039321Y-41882226D01*
X17522945Y-41881775D01*
X17045703Y-42078968D01*
X16680251Y-42443782D01*
X16509825Y-42854213D01*
X16341032Y-42445703D01*
X15976218Y-42080251D01*
X15499321Y-41882226D01*
X14982945Y-41881775D01*
X14909674Y-41912050D01*
X14633000Y-41635376D01*
X14633000Y-34564624D01*
X14909434Y-34288190D01*
X14980679Y-34317774D01*
X15497055Y-34318225D01*
X15974297Y-34121032D01*
X16339749Y-33756218D01*
X16510175Y-33345787D01*
X16678968Y-33754297D01*
X17043782Y-34119749D01*
X17520679Y-34317774D01*
X18037055Y-34318225D01*
X18514297Y-34121032D01*
X18879749Y-33756218D01*
X18978368Y-33518716D01*
X19035088Y-33655651D01*
X19213342Y-33740681D01*
X19218968Y-33754297D01*
X19583782Y-34119749D01*
X19599047Y-34126087D01*
X19684349Y-34304912D01*
X20224450Y-34450357D01*
X20779098Y-34378042D01*
X20955651Y-34304912D01*
X21040681Y-34126658D01*
X21054297Y-34121032D01*
X21419749Y-33756218D01*
X21426087Y-33740953D01*
X21454000Y-33727639D01*
X21454000Y-34008634D01*
X21533318Y-34200123D01*
X21679878Y-34346683D01*
X21871367Y-34426000D01*
X22488750Y-34426000D01*
X22588659Y-34326091D01*
X23131341Y-34326091D01*
X23231250Y-34426000D01*
X23848633Y-34426000D01*
X24040122Y-34346683D01*
X24186682Y-34200123D01*
X24266000Y-34008634D01*
X24266000Y-33391250D01*
X24166091Y-33291341D01*
X24166091Y-32748659D01*
X24266000Y-32648750D01*
X24266000Y-32031366D01*
X24186682Y-31839877D01*
X24040122Y-31693317D01*
X23848633Y-31614000D01*
X23231250Y-31614000D01*
X23131341Y-31713909D01*
X22588659Y-31713909D01*
X22488750Y-31614000D01*
X21871367Y-31614000D01*
X21679878Y-31693317D01*
X21533318Y-31839877D01*
X21454000Y-32031366D01*
X21454000Y-32312361D01*
X21426658Y-32299319D01*
X21421032Y-32285703D01*
X21056218Y-31920251D01*
X21040953Y-31913913D01*
X20955651Y-31735088D01*
X20415550Y-31589643D01*
X20107865Y-31629759D01*
X24483000Y-27254624D01*
X24483000Y-35539376D01*
G36*
X51582000Y-13767864D02*
X49184932Y-16164932D01*
X49079147Y-16323250D01*
X49042000Y-16510000D01*
X49042000Y-37897864D01*
X45517864Y-41422000D01*
X38302136Y-41422000D01*
X34778000Y-37897864D01*
X34778000Y-30480000D01*
X34740853Y-30293250D01*
X34635068Y-30134932D01*
X32238000Y-27737864D01*
X32238000Y-20320000D01*
X32200853Y-20133250D01*
X32095068Y-19974932D01*
X29698000Y-17577864D01*
X29698000Y2052000D01*
X51582000Y2052000D01*
X51582000Y-13767864D01*
X51582000Y-13767864D01*
G37*
X51582000Y-13767864D02*
X49184932Y-16164932D01*
X49079147Y-16323250D01*
X49042000Y-16510000D01*
X49042000Y-37897864D01*
X45517864Y-41422000D01*
X38302136Y-41422000D01*
X34778000Y-37897864D01*
X34778000Y-30480000D01*
X34740853Y-30293250D01*
X34635068Y-30134932D01*
X32238000Y-27737864D01*
X32238000Y-20320000D01*
X32200853Y-20133250D01*
X32095068Y-19974932D01*
X29698000Y-17577864D01*
X29698000Y2052000D01*
X51582000Y2052000D01*
X51582000Y-13767864D01*
G36*
X55725000Y-41174337D02*
X55425340Y-40974110D01*
X55037682Y-40897000D01*
X54654623Y-40897000D01*
X54130270Y-40372647D01*
X54182318Y-40383000D01*
X55037682Y-40383000D01*
X55425340Y-40305890D01*
X55725000Y-40105663D01*
X55725000Y-41174337D01*
X55725000Y-41174337D01*
G37*
X55725000Y-41174337D02*
X55425340Y-40974110D01*
X55037682Y-40897000D01*
X54654623Y-40897000D01*
X54130270Y-40372647D01*
X54182318Y-40383000D01*
X55037682Y-40383000D01*
X55425340Y-40305890D01*
X55725000Y-40105663D01*
X55725000Y-41174337D01*
G36*
X53309830Y-38887454D02*
X53246428Y-38982342D01*
X53169318Y-39370000D01*
X53179671Y-39422047D01*
X51209000Y-37451376D01*
X51209000Y-36786624D01*
X53309830Y-38887454D01*
X53309830Y-38887454D01*
G37*
X53309830Y-38887454D02*
X53246428Y-38982342D01*
X53169318Y-39370000D01*
X53179671Y-39422047D01*
X51209000Y-37451376D01*
X51209000Y-36786624D01*
X53309830Y-38887454D01*
G36*
X55725000Y-38634337D02*
X55425340Y-38434110D01*
X55037682Y-38357000D01*
X54654624Y-38357000D01*
X54130271Y-37832647D01*
X54182318Y-37843000D01*
X55037682Y-37843000D01*
X55425340Y-37765890D01*
X55725000Y-37565663D01*
X55725000Y-38634337D01*
X55725000Y-38634337D01*
G37*
X55725000Y-38634337D02*
X55425340Y-38434110D01*
X55037682Y-38357000D01*
X54654624Y-38357000D01*
X54130271Y-37832647D01*
X54182318Y-37843000D01*
X55037682Y-37843000D01*
X55425340Y-37765890D01*
X55725000Y-37565663D01*
X55725000Y-38634337D01*
G36*
X64618909Y-37830000D02*
X64642785Y-37956889D01*
X64490170Y-37956756D01*
X63970646Y-38171419D01*
X63651091Y-38490417D01*
X63651091Y-38370000D01*
X63622293Y-38216951D01*
X63531841Y-38076386D01*
X63393828Y-37982085D01*
X63230000Y-37948909D01*
X61794714Y-37948909D01*
X62250623Y-37493000D01*
X64618909Y-37493000D01*
X64618909Y-37830000D01*
X64618909Y-37830000D01*
G37*
X64618909Y-37830000D02*
X64642785Y-37956889D01*
X64490170Y-37956756D01*
X63970646Y-38171419D01*
X63651091Y-38490417D01*
X63651091Y-38370000D01*
X63622293Y-38216951D01*
X63531841Y-38076386D01*
X63393828Y-37982085D01*
X63230000Y-37948909D01*
X61794714Y-37948909D01*
X62250623Y-37493000D01*
X64618909Y-37493000D01*
X64618909Y-37830000D01*
G36*
X28293000Y-36730623D02*
X28293000Y-37515377D01*
X28018235Y-37240612D01*
X28033572Y-37217658D01*
X28110682Y-36830000D01*
X28040736Y-36478360D01*
X28293000Y-36730623D01*
X28293000Y-36730623D01*
G37*
X28293000Y-36730623D02*
X28293000Y-37515377D01*
X28018235Y-37240612D01*
X28033572Y-37217658D01*
X28110682Y-36830000D01*
X28040736Y-36478360D01*
X28293000Y-36730623D01*
G36*
X60808909Y-35290000D02*
X60837707Y-35443049D01*
X60928159Y-35583614D01*
X61066172Y-35677915D01*
X61230000Y-35711091D01*
X63230000Y-35711091D01*
X63383049Y-35682293D01*
X63523614Y-35591841D01*
X63617915Y-35453828D01*
X63651091Y-35290000D01*
X63651091Y-35169165D01*
X63968555Y-35487184D01*
X64487704Y-35702754D01*
X64644649Y-35702891D01*
X64618909Y-35830000D01*
X64618909Y-36167000D01*
X61976000Y-36167000D01*
X61722281Y-36217468D01*
X61507188Y-36361188D01*
X61507186Y-36361191D01*
X60353000Y-37515376D01*
X60353000Y-35326624D01*
X60726624Y-34953000D01*
X60808909Y-34953000D01*
X60808909Y-35290000D01*
X60808909Y-35290000D01*
G37*
X60808909Y-35290000D02*
X60837707Y-35443049D01*
X60928159Y-35583614D01*
X61066172Y-35677915D01*
X61230000Y-35711091D01*
X63230000Y-35711091D01*
X63383049Y-35682293D01*
X63523614Y-35591841D01*
X63617915Y-35453828D01*
X63651091Y-35290000D01*
X63651091Y-35169165D01*
X63968555Y-35487184D01*
X64487704Y-35702754D01*
X64644649Y-35702891D01*
X64618909Y-35830000D01*
X64618909Y-36167000D01*
X61976000Y-36167000D01*
X61722281Y-36217468D01*
X61507188Y-36361188D01*
X61507186Y-36361191D01*
X60353000Y-37515376D01*
X60353000Y-35326624D01*
X60726624Y-34953000D01*
X60808909Y-34953000D01*
X60808909Y-35290000D01*
G36*
X53309830Y-36347454D02*
X53246428Y-36442342D01*
X53169318Y-36830000D01*
X53179671Y-36882047D01*
X51971000Y-35673376D01*
X51971000Y-35008624D01*
X53309830Y-36347454D01*
X53309830Y-36347454D01*
G37*
X53309830Y-36347454D02*
X53246428Y-36442342D01*
X53169318Y-36830000D01*
X53179671Y-36882047D01*
X51971000Y-35673376D01*
X51971000Y-35008624D01*
X53309830Y-36347454D01*
G36*
X55725000Y-36094337D02*
X55425340Y-35894110D01*
X55037682Y-35817000D01*
X54654624Y-35817000D01*
X54130271Y-35292647D01*
X54182318Y-35303000D01*
X55037682Y-35303000D01*
X55425340Y-35225890D01*
X55725000Y-35025663D01*
X55725000Y-36094337D01*
X55725000Y-36094337D01*
G37*
X55725000Y-36094337D02*
X55425340Y-35894110D01*
X55037682Y-35817000D01*
X54654624Y-35817000D01*
X54130271Y-35292647D01*
X54182318Y-35303000D01*
X55037682Y-35303000D01*
X55425340Y-35225890D01*
X55725000Y-35025663D01*
X55725000Y-36094337D01*
G36*
X25854660Y-35225890D02*
X26242318Y-35303000D01*
X26865376Y-35303000D01*
X27449322Y-35886946D01*
X27097682Y-35817000D01*
X26242318Y-35817000D01*
X25854660Y-35894110D01*
X25783624Y-35941575D01*
X25809000Y-35814000D01*
X25809000Y-35195381D01*
X25854660Y-35225890D01*
X25854660Y-35225890D01*
G37*
X25854660Y-35225890D02*
X26242318Y-35303000D01*
X26865376Y-35303000D01*
X27449322Y-35886946D01*
X27097682Y-35817000D01*
X26242318Y-35817000D01*
X25854660Y-35894110D01*
X25783624Y-35941575D01*
X25809000Y-35814000D01*
X25809000Y-35195381D01*
X25854660Y-35225890D01*
G36*
X29055000Y-34952624D02*
X29055000Y-35617377D01*
X28047129Y-34609505D01*
X28110682Y-34290000D01*
X28040737Y-33938361D01*
X29055000Y-34952624D01*
X29055000Y-34952624D01*
G37*
X29055000Y-34952624D02*
X29055000Y-35617377D01*
X28047129Y-34609505D01*
X28110682Y-34290000D01*
X28040737Y-33938361D01*
X29055000Y-34952624D01*
G36*
X53309830Y-33807454D02*
X53246428Y-33902342D01*
X53169318Y-34290000D01*
X53179671Y-34342047D01*
X52733000Y-33895376D01*
X52733000Y-33230624D01*
X53309830Y-33807454D01*
X53309830Y-33807454D01*
G37*
X53309830Y-33807454D02*
X53246428Y-33902342D01*
X53169318Y-34290000D01*
X53179671Y-34342047D01*
X52733000Y-33895376D01*
X52733000Y-33230624D01*
X53309830Y-33807454D01*
G36*
X64618909Y-32750000D02*
X64642785Y-32876889D01*
X64490170Y-32876756D01*
X63970646Y-33091419D01*
X63651091Y-33410417D01*
X63651091Y-33290000D01*
X63622293Y-33136951D01*
X63531841Y-32996386D01*
X63393828Y-32902085D01*
X63230000Y-32868909D01*
X61230000Y-32868909D01*
X61076951Y-32897707D01*
X60936386Y-32988159D01*
X60842085Y-33126172D01*
X60808909Y-33290000D01*
X60808909Y-33627000D01*
X60452000Y-33627000D01*
X60198281Y-33677468D01*
X59983188Y-33821188D01*
X59591000Y-34213376D01*
X59591000Y-33802624D01*
X60980624Y-32413000D01*
X64618909Y-32413000D01*
X64618909Y-32750000D01*
X64618909Y-32750000D01*
G37*
X64618909Y-32750000D02*
X64642785Y-32876889D01*
X64490170Y-32876756D01*
X63970646Y-33091419D01*
X63651091Y-33410417D01*
X63651091Y-33290000D01*
X63622293Y-33136951D01*
X63531841Y-32996386D01*
X63393828Y-32902085D01*
X63230000Y-32868909D01*
X61230000Y-32868909D01*
X61076951Y-32897707D01*
X60936386Y-32988159D01*
X60842085Y-33126172D01*
X60808909Y-33290000D01*
X60808909Y-33627000D01*
X60452000Y-33627000D01*
X60198281Y-33677468D01*
X59983188Y-33821188D01*
X59591000Y-34213376D01*
X59591000Y-33802624D01*
X60980624Y-32413000D01*
X64618909Y-32413000D01*
X64618909Y-32750000D01*
G36*
X29817000Y-33174624D02*
X29817000Y-33839376D01*
X28047129Y-32069505D01*
X28110682Y-31750000D01*
X28040737Y-31398361D01*
X29817000Y-33174624D01*
X29817000Y-33174624D01*
G37*
X29817000Y-33174624D02*
X29817000Y-33839376D01*
X28047129Y-32069505D01*
X28110682Y-31750000D01*
X28040737Y-31398361D01*
X29817000Y-33174624D01*
G36*
X55725000Y-33554337D02*
X55425340Y-33354110D01*
X55037682Y-33277000D01*
X54654624Y-33277000D01*
X54238020Y-32860396D01*
X54362237Y-32763000D01*
X54857763Y-32763000D01*
X55030972Y-32898810D01*
X55469006Y-32803336D01*
X55725000Y-32625443D01*
X55725000Y-33554337D01*
X55725000Y-33554337D01*
G37*
X55725000Y-33554337D02*
X55425340Y-33354110D01*
X55037682Y-33277000D01*
X54654624Y-33277000D01*
X54238020Y-32860396D01*
X54362237Y-32763000D01*
X54857763Y-32763000D01*
X55030972Y-32898810D01*
X55469006Y-32803336D01*
X55725000Y-32625443D01*
X55725000Y-33554337D01*
G36*
X25854660Y-32685890D02*
X26242318Y-32763000D01*
X26865376Y-32763000D01*
X27449321Y-33346945D01*
X27097682Y-33277000D01*
X26242318Y-33277000D01*
X25854660Y-33354110D01*
X25809000Y-33384619D01*
X25809000Y-32655381D01*
X25854660Y-32685890D01*
X25854660Y-32685890D01*
G37*
X25854660Y-32685890D02*
X26242318Y-32763000D01*
X26865376Y-32763000D01*
X27449321Y-33346945D01*
X27097682Y-33277000D01*
X26242318Y-33277000D01*
X25854660Y-33354110D01*
X25809000Y-33384619D01*
X25809000Y-32655381D01*
X25854660Y-32685890D01*
G36*
X16678968Y-23594297D02*
X17043782Y-23959749D01*
X17520679Y-24157774D01*
X18037055Y-24158225D01*
X18514297Y-23961032D01*
X18879749Y-23596218D01*
X18978368Y-23358716D01*
X19035088Y-23495651D01*
X19213342Y-23580681D01*
X19218968Y-23594297D01*
X19583782Y-23959749D01*
X19599047Y-23966087D01*
X19684349Y-24144912D01*
X20224450Y-24290357D01*
X20779098Y-24218042D01*
X20955651Y-24144912D01*
X21040681Y-23966658D01*
X21054297Y-23961032D01*
X21419749Y-23596218D01*
X21426087Y-23580953D01*
X21454000Y-23567639D01*
X21454000Y-23848634D01*
X21533318Y-24040123D01*
X21679878Y-24186683D01*
X21871367Y-24266000D01*
X22488750Y-24266000D01*
X22588659Y-24166091D01*
X23131341Y-24166091D01*
X23231250Y-24266000D01*
X23721000Y-24266000D01*
X23721000Y-26141376D01*
X18110566Y-31751810D01*
X18039321Y-31722226D01*
X17522945Y-31721775D01*
X17045703Y-31918968D01*
X16680251Y-32283782D01*
X16509825Y-32694213D01*
X16341032Y-32285703D01*
X15976218Y-31920251D01*
X15499321Y-31722226D01*
X14982945Y-31721775D01*
X14909674Y-31752050D01*
X14633000Y-31475376D01*
X14633000Y-24404624D01*
X14909434Y-24128190D01*
X14980679Y-24157774D01*
X15497055Y-24158225D01*
X15974297Y-23961032D01*
X16339749Y-23596218D01*
X16510175Y-23185787D01*
X16678968Y-23594297D01*
X16678968Y-23594297D01*
G37*
X16678968Y-23594297D02*
X17043782Y-23959749D01*
X17520679Y-24157774D01*
X18037055Y-24158225D01*
X18514297Y-23961032D01*
X18879749Y-23596218D01*
X18978368Y-23358716D01*
X19035088Y-23495651D01*
X19213342Y-23580681D01*
X19218968Y-23594297D01*
X19583782Y-23959749D01*
X19599047Y-23966087D01*
X19684349Y-24144912D01*
X20224450Y-24290357D01*
X20779098Y-24218042D01*
X20955651Y-24144912D01*
X21040681Y-23966658D01*
X21054297Y-23961032D01*
X21419749Y-23596218D01*
X21426087Y-23580953D01*
X21454000Y-23567639D01*
X21454000Y-23848634D01*
X21533318Y-24040123D01*
X21679878Y-24186683D01*
X21871367Y-24266000D01*
X22488750Y-24266000D01*
X22588659Y-24166091D01*
X23131341Y-24166091D01*
X23231250Y-24266000D01*
X23721000Y-24266000D01*
X23721000Y-26141376D01*
X18110566Y-31751810D01*
X18039321Y-31722226D01*
X17522945Y-31721775D01*
X17045703Y-31918968D01*
X16680251Y-32283782D01*
X16509825Y-32694213D01*
X16341032Y-32285703D01*
X15976218Y-31920251D01*
X15499321Y-31722226D01*
X14982945Y-31721775D01*
X14909674Y-31752050D01*
X14633000Y-31475376D01*
X14633000Y-24404624D01*
X14909434Y-24128190D01*
X14980679Y-24157774D01*
X15497055Y-24158225D01*
X15974297Y-23961032D01*
X16339749Y-23596218D01*
X16510175Y-23185787D01*
X16678968Y-23594297D01*
G36*
X60808909Y-30210000D02*
X60837707Y-30363049D01*
X60928159Y-30503614D01*
X61066172Y-30597915D01*
X61230000Y-30631091D01*
X63230000Y-30631091D01*
X63383049Y-30602293D01*
X63523614Y-30511841D01*
X63617915Y-30373828D01*
X63651091Y-30210000D01*
X63651091Y-30089165D01*
X63968555Y-30407184D01*
X64487704Y-30622754D01*
X64644649Y-30622891D01*
X64618909Y-30750000D01*
X64618909Y-31087000D01*
X60706000Y-31087000D01*
X60452281Y-31137468D01*
X60237188Y-31281188D01*
X58829000Y-32689376D01*
X58829000Y-31262624D01*
X60218624Y-29873000D01*
X60808909Y-29873000D01*
X60808909Y-30210000D01*
X60808909Y-30210000D01*
G37*
X60808909Y-30210000D02*
X60837707Y-30363049D01*
X60928159Y-30503614D01*
X61066172Y-30597915D01*
X61230000Y-30631091D01*
X63230000Y-30631091D01*
X63383049Y-30602293D01*
X63523614Y-30511841D01*
X63617915Y-30373828D01*
X63651091Y-30210000D01*
X63651091Y-30089165D01*
X63968555Y-30407184D01*
X64487704Y-30622754D01*
X64644649Y-30622891D01*
X64618909Y-30750000D01*
X64618909Y-31087000D01*
X60706000Y-31087000D01*
X60452281Y-31137468D01*
X60237188Y-31281188D01*
X58829000Y-32689376D01*
X58829000Y-31262624D01*
X60218624Y-29873000D01*
X60808909Y-29873000D01*
X60808909Y-30210000D01*
G36*
X55725000Y-30874557D02*
X55469006Y-30696664D01*
X55030972Y-30601190D01*
X54857763Y-30737000D01*
X54362237Y-30737000D01*
X54189028Y-30601190D01*
X53750994Y-30696664D01*
X53495000Y-30874557D01*
X53495000Y-30085443D01*
X53750994Y-30263336D01*
X54189028Y-30358810D01*
X54362237Y-30223000D01*
X54857763Y-30223000D01*
X55030972Y-30358810D01*
X55469006Y-30263336D01*
X55725000Y-30085443D01*
X55725000Y-30874557D01*
X55725000Y-30874557D01*
G37*
X55725000Y-30874557D02*
X55469006Y-30696664D01*
X55030972Y-30601190D01*
X54857763Y-30737000D01*
X54362237Y-30737000D01*
X54189028Y-30601190D01*
X53750994Y-30696664D01*
X53495000Y-30874557D01*
X53495000Y-30085443D01*
X53750994Y-30263336D01*
X54189028Y-30358810D01*
X54362237Y-30223000D01*
X54857763Y-30223000D01*
X55030972Y-30358810D01*
X55469006Y-30263336D01*
X55725000Y-30085443D01*
X55725000Y-30874557D01*
G36*
X25854660Y-30145890D02*
X26242318Y-30223000D01*
X26865376Y-30223000D01*
X27449321Y-30806945D01*
X27097682Y-30737000D01*
X26242318Y-30737000D01*
X25854660Y-30814110D01*
X25809000Y-30844619D01*
X25809000Y-30115381D01*
X25854660Y-30145890D01*
X25854660Y-30145890D01*
G37*
X25854660Y-30145890D02*
X26242318Y-30223000D01*
X26865376Y-30223000D01*
X27449321Y-30806945D01*
X27097682Y-30737000D01*
X26242318Y-30737000D01*
X25854660Y-30814110D01*
X25809000Y-30844619D01*
X25809000Y-30115381D01*
X25854660Y-30145890D01*
G36*
X64618909Y-27670000D02*
X64642785Y-27796889D01*
X64490170Y-27796756D01*
X63970646Y-28011419D01*
X63651091Y-28330417D01*
X63651091Y-28210000D01*
X63622293Y-28056951D01*
X63531841Y-27916386D01*
X63393828Y-27822085D01*
X63230000Y-27788909D01*
X61230000Y-27788909D01*
X61076951Y-27817707D01*
X60936386Y-27908159D01*
X60842085Y-28046172D01*
X60808909Y-28210000D01*
X60808909Y-28547000D01*
X59944000Y-28547000D01*
X59690281Y-28597468D01*
X59475188Y-28741188D01*
X57813000Y-30403376D01*
X57813000Y-29992624D01*
X60472624Y-27333000D01*
X64618909Y-27333000D01*
X64618909Y-27670000D01*
X64618909Y-27670000D01*
G37*
X64618909Y-27670000D02*
X64642785Y-27796889D01*
X64490170Y-27796756D01*
X63970646Y-28011419D01*
X63651091Y-28330417D01*
X63651091Y-28210000D01*
X63622293Y-28056951D01*
X63531841Y-27916386D01*
X63393828Y-27822085D01*
X63230000Y-27788909D01*
X61230000Y-27788909D01*
X61076951Y-27817707D01*
X60936386Y-27908159D01*
X60842085Y-28046172D01*
X60808909Y-28210000D01*
X60808909Y-28547000D01*
X59944000Y-28547000D01*
X59690281Y-28597468D01*
X59475188Y-28741188D01*
X57813000Y-30403376D01*
X57813000Y-29992624D01*
X60472624Y-27333000D01*
X64618909Y-27333000D01*
X64618909Y-27670000D01*
G36*
X60808909Y-25130000D02*
X60837707Y-25283049D01*
X60928159Y-25423614D01*
X61066172Y-25517915D01*
X61230000Y-25551091D01*
X63230000Y-25551091D01*
X63383049Y-25522293D01*
X63523614Y-25431841D01*
X63617915Y-25293828D01*
X63651091Y-25130000D01*
X63651091Y-25009165D01*
X63968555Y-25327184D01*
X64487704Y-25542754D01*
X64644649Y-25542891D01*
X64618909Y-25670000D01*
X64618909Y-26007000D01*
X60198000Y-26007000D01*
X59944281Y-26057468D01*
X59729188Y-26201188D01*
X57051000Y-28879376D01*
X57051000Y-27452624D01*
X59710624Y-24793000D01*
X60808909Y-24793000D01*
X60808909Y-25130000D01*
X60808909Y-25130000D01*
G37*
X60808909Y-25130000D02*
X60837707Y-25283049D01*
X60928159Y-25423614D01*
X61066172Y-25517915D01*
X61230000Y-25551091D01*
X63230000Y-25551091D01*
X63383049Y-25522293D01*
X63523614Y-25431841D01*
X63617915Y-25293828D01*
X63651091Y-25130000D01*
X63651091Y-25009165D01*
X63968555Y-25327184D01*
X64487704Y-25542754D01*
X64644649Y-25542891D01*
X64618909Y-25670000D01*
X64618909Y-26007000D01*
X60198000Y-26007000D01*
X59944281Y-26057468D01*
X59729188Y-26201188D01*
X57051000Y-28879376D01*
X57051000Y-27452624D01*
X59710624Y-24793000D01*
X60808909Y-24793000D01*
X60808909Y-25130000D01*
G36*
X27591000Y-28344710D02*
X27485340Y-28274110D01*
X27097682Y-28197000D01*
X26242318Y-28197000D01*
X25854660Y-28274110D01*
X25809000Y-28304619D01*
X25809000Y-27721950D01*
X25810994Y-27723336D01*
X26249028Y-27818810D01*
X26422237Y-27683000D01*
X26917763Y-27683000D01*
X27090972Y-27818810D01*
X27529006Y-27723336D01*
X27591000Y-27680256D01*
X27591000Y-28344710D01*
X27591000Y-28344710D01*
G37*
X27591000Y-28344710D02*
X27485340Y-28274110D01*
X27097682Y-28197000D01*
X26242318Y-28197000D01*
X25854660Y-28274110D01*
X25809000Y-28304619D01*
X25809000Y-27721950D01*
X25810994Y-27723336D01*
X26249028Y-27818810D01*
X26422237Y-27683000D01*
X26917763Y-27683000D01*
X27090972Y-27818810D01*
X27529006Y-27723336D01*
X27591000Y-27680256D01*
X27591000Y-28344710D01*
G36*
X55725000Y-28334557D02*
X55469006Y-28156664D01*
X55030972Y-28061190D01*
X54857763Y-28197000D01*
X54362237Y-28197000D01*
X54189028Y-28061190D01*
X53750994Y-28156664D01*
X53495000Y-28334557D01*
X53495000Y-27545443D01*
X53750994Y-27723336D01*
X54189028Y-27818810D01*
X54362237Y-27683000D01*
X54857763Y-27683000D01*
X55030972Y-27818810D01*
X55469006Y-27723336D01*
X55725000Y-27545443D01*
X55725000Y-28334557D01*
X55725000Y-28334557D01*
G37*
X55725000Y-28334557D02*
X55469006Y-28156664D01*
X55030972Y-28061190D01*
X54857763Y-28197000D01*
X54362237Y-28197000D01*
X54189028Y-28061190D01*
X53750994Y-28156664D01*
X53495000Y-28334557D01*
X53495000Y-27545443D01*
X53750994Y-27723336D01*
X54189028Y-27818810D01*
X54362237Y-27683000D01*
X54857763Y-27683000D01*
X55030972Y-27818810D01*
X55469006Y-27723336D01*
X55725000Y-27545443D01*
X55725000Y-28334557D01*
G36*
X64618909Y-22590000D02*
X64642785Y-22716889D01*
X64490170Y-22716756D01*
X63970646Y-22931419D01*
X63651091Y-23250417D01*
X63651091Y-23130000D01*
X63622293Y-22976951D01*
X63531841Y-22836386D01*
X63393828Y-22742085D01*
X63230000Y-22708909D01*
X61230000Y-22708909D01*
X61076951Y-22737707D01*
X60936386Y-22828159D01*
X60842085Y-22966172D01*
X60808909Y-23130000D01*
X60808909Y-23467000D01*
X59436000Y-23467000D01*
X59182281Y-23517468D01*
X58967188Y-23661188D01*
X56035367Y-26593009D01*
X55993588Y-26382969D01*
X56053609Y-26260705D01*
X55837160Y-25872498D01*
X55469006Y-25616664D01*
X55030972Y-25521190D01*
X54857763Y-25657000D01*
X54362237Y-25657000D01*
X54189028Y-25521190D01*
X53750994Y-25616664D01*
X53495000Y-25794557D01*
X53495000Y-25005443D01*
X53750994Y-25183336D01*
X54189028Y-25278810D01*
X54362237Y-25143000D01*
X54857763Y-25143000D01*
X55030972Y-25278810D01*
X55469006Y-25183336D01*
X55837160Y-24927502D01*
X56053609Y-24539295D01*
X55993588Y-24417031D01*
X56050682Y-24130000D01*
X55993588Y-23842969D01*
X56053609Y-23720705D01*
X55937049Y-23511652D01*
X56133719Y-23472532D01*
X56348812Y-23328812D01*
X57424624Y-22253000D01*
X64618909Y-22253000D01*
X64618909Y-22590000D01*
X64618909Y-22590000D01*
G37*
X64618909Y-22590000D02*
X64642785Y-22716889D01*
X64490170Y-22716756D01*
X63970646Y-22931419D01*
X63651091Y-23250417D01*
X63651091Y-23130000D01*
X63622293Y-22976951D01*
X63531841Y-22836386D01*
X63393828Y-22742085D01*
X63230000Y-22708909D01*
X61230000Y-22708909D01*
X61076951Y-22737707D01*
X60936386Y-22828159D01*
X60842085Y-22966172D01*
X60808909Y-23130000D01*
X60808909Y-23467000D01*
X59436000Y-23467000D01*
X59182281Y-23517468D01*
X58967188Y-23661188D01*
X56035367Y-26593009D01*
X55993588Y-26382969D01*
X56053609Y-26260705D01*
X55837160Y-25872498D01*
X55469006Y-25616664D01*
X55030972Y-25521190D01*
X54857763Y-25657000D01*
X54362237Y-25657000D01*
X54189028Y-25521190D01*
X53750994Y-25616664D01*
X53495000Y-25794557D01*
X53495000Y-25005443D01*
X53750994Y-25183336D01*
X54189028Y-25278810D01*
X54362237Y-25143000D01*
X54857763Y-25143000D01*
X55030972Y-25278810D01*
X55469006Y-25183336D01*
X55837160Y-24927502D01*
X56053609Y-24539295D01*
X55993588Y-24417031D01*
X56050682Y-24130000D01*
X55993588Y-23842969D01*
X56053609Y-23720705D01*
X55937049Y-23511652D01*
X56133719Y-23472532D01*
X56348812Y-23328812D01*
X57424624Y-22253000D01*
X64618909Y-22253000D01*
X64618909Y-22590000D01*
G36*
X25854660Y-25065890D02*
X26242318Y-25143000D01*
X26865376Y-25143000D01*
X27286095Y-25563719D01*
X27090972Y-25521190D01*
X26917763Y-25657000D01*
X26422237Y-25657000D01*
X26249028Y-25521190D01*
X25810994Y-25616664D01*
X25809000Y-25618050D01*
X25809000Y-25035381D01*
X25854660Y-25065890D01*
X25854660Y-25065890D01*
G37*
X25854660Y-25065890D02*
X26242318Y-25143000D01*
X26865376Y-25143000D01*
X27286095Y-25563719D01*
X27090972Y-25521190D01*
X26917763Y-25657000D01*
X26422237Y-25657000D01*
X26249028Y-25521190D01*
X25810994Y-25616664D01*
X25809000Y-25618050D01*
X25809000Y-25035381D01*
X25854660Y-25065890D01*
G36*
X28293000Y-24030623D02*
X28293000Y-24695376D01*
X28047129Y-24449505D01*
X28110682Y-24130000D01*
X28040736Y-23778360D01*
X28293000Y-24030623D01*
X28293000Y-24030623D01*
G37*
X28293000Y-24030623D02*
X28293000Y-24695376D01*
X28047129Y-24449505D01*
X28110682Y-24130000D01*
X28040736Y-23778360D01*
X28293000Y-24030623D01*
G36*
X25854660Y-22525890D02*
X26242318Y-22603000D01*
X26865376Y-22603000D01*
X27449322Y-23186946D01*
X27097682Y-23117000D01*
X26242318Y-23117000D01*
X25854660Y-23194110D01*
X25809000Y-23224619D01*
X25809000Y-22495381D01*
X25854660Y-22525890D01*
X25854660Y-22525890D01*
G37*
X25854660Y-22525890D02*
X26242318Y-22603000D01*
X26865376Y-22603000D01*
X27449322Y-23186946D01*
X27097682Y-23117000D01*
X26242318Y-23117000D01*
X25854660Y-23194110D01*
X25809000Y-23224619D01*
X25809000Y-22495381D01*
X25854660Y-22525890D01*
G36*
X53169318Y-21590000D02*
X53226412Y-21877031D01*
X53166391Y-21999295D01*
X53382840Y-22387502D01*
X53383754Y-22388137D01*
X53379188Y-22391188D01*
X52733000Y-23037376D01*
X52733000Y-21864624D01*
X53209467Y-21388157D01*
X53169318Y-21590000D01*
X53169318Y-21590000D01*
G37*
X53169318Y-21590000D02*
X53226412Y-21877031D01*
X53166391Y-21999295D01*
X53382840Y-22387502D01*
X53383754Y-22388137D01*
X53379188Y-22391188D01*
X52733000Y-23037376D01*
X52733000Y-21864624D01*
X53209467Y-21388157D01*
X53169318Y-21590000D01*
G36*
X29055000Y-22252624D02*
X29055000Y-22917377D01*
X28047129Y-21909505D01*
X28110682Y-21590000D01*
X28040737Y-21238361D01*
X29055000Y-22252624D01*
X29055000Y-22252624D01*
G37*
X29055000Y-22252624D02*
X29055000Y-22917377D01*
X28047129Y-21909505D01*
X28110682Y-21590000D01*
X28040737Y-21238361D01*
X29055000Y-22252624D01*
G36*
X16678968Y-13434297D02*
X17043782Y-13799749D01*
X17520679Y-13997774D01*
X18037055Y-13998225D01*
X18514297Y-13801032D01*
X18879749Y-13436218D01*
X18978368Y-13198716D01*
X19035088Y-13335651D01*
X19213342Y-13420681D01*
X19218968Y-13434297D01*
X19583782Y-13799749D01*
X19599047Y-13806087D01*
X19684349Y-13984912D01*
X20224450Y-14130357D01*
X20779098Y-14058042D01*
X20955651Y-13984912D01*
X21040681Y-13806658D01*
X21054297Y-13801032D01*
X21419749Y-13436218D01*
X21426087Y-13420953D01*
X21454000Y-13407639D01*
X21454000Y-13688634D01*
X21533318Y-13880123D01*
X21679878Y-14026683D01*
X21871367Y-14106000D01*
X22488750Y-14106000D01*
X22588659Y-14006091D01*
X23131341Y-14006091D01*
X23143813Y-14018563D01*
X17311188Y-19851188D01*
X17167468Y-20066281D01*
X17117000Y-20320000D01*
X17117000Y-21729509D01*
X17045703Y-21758968D01*
X16680251Y-22123782D01*
X16509825Y-22534213D01*
X16341032Y-22125703D01*
X15976218Y-21760251D01*
X15499321Y-21562226D01*
X14982945Y-21561775D01*
X14909674Y-21592050D01*
X14633000Y-21315376D01*
X14633000Y-14244624D01*
X14909434Y-13968190D01*
X14980679Y-13997774D01*
X15497055Y-13998225D01*
X15974297Y-13801032D01*
X16339749Y-13436218D01*
X16510175Y-13025787D01*
X16678968Y-13434297D01*
X16678968Y-13434297D01*
G37*
X16678968Y-13434297D02*
X17043782Y-13799749D01*
X17520679Y-13997774D01*
X18037055Y-13998225D01*
X18514297Y-13801032D01*
X18879749Y-13436218D01*
X18978368Y-13198716D01*
X19035088Y-13335651D01*
X19213342Y-13420681D01*
X19218968Y-13434297D01*
X19583782Y-13799749D01*
X19599047Y-13806087D01*
X19684349Y-13984912D01*
X20224450Y-14130357D01*
X20779098Y-14058042D01*
X20955651Y-13984912D01*
X21040681Y-13806658D01*
X21054297Y-13801032D01*
X21419749Y-13436218D01*
X21426087Y-13420953D01*
X21454000Y-13407639D01*
X21454000Y-13688634D01*
X21533318Y-13880123D01*
X21679878Y-14026683D01*
X21871367Y-14106000D01*
X22488750Y-14106000D01*
X22588659Y-14006091D01*
X23131341Y-14006091D01*
X23143813Y-14018563D01*
X17311188Y-19851188D01*
X17167468Y-20066281D01*
X17117000Y-20320000D01*
X17117000Y-21729509D01*
X17045703Y-21758968D01*
X16680251Y-22123782D01*
X16509825Y-22534213D01*
X16341032Y-22125703D01*
X15976218Y-21760251D01*
X15499321Y-21562226D01*
X14982945Y-21561775D01*
X14909674Y-21592050D01*
X14633000Y-21315376D01*
X14633000Y-14244624D01*
X14909434Y-13968190D01*
X14980679Y-13997774D01*
X15497055Y-13998225D01*
X15974297Y-13801032D01*
X16339749Y-13436218D01*
X16510175Y-13025787D01*
X16678968Y-13434297D01*
G36*
X25229318Y-13970000D02*
X25306428Y-14357658D01*
X25321765Y-14380611D01*
X23915188Y-15787188D01*
X23771468Y-16002281D01*
X23721000Y-16256000D01*
X23721000Y-21454000D01*
X23231250Y-21454000D01*
X23131341Y-21553909D01*
X22588659Y-21553909D01*
X22488750Y-21454000D01*
X21871367Y-21454000D01*
X21679878Y-21533317D01*
X21533318Y-21679877D01*
X21454000Y-21871366D01*
X21454000Y-22152361D01*
X21426658Y-22139319D01*
X21421032Y-22125703D01*
X21056218Y-21760251D01*
X21040953Y-21753913D01*
X20955651Y-21575088D01*
X20415550Y-21429643D01*
X19860902Y-21501958D01*
X19684349Y-21575088D01*
X19599319Y-21753342D01*
X19585703Y-21758968D01*
X19220251Y-22123782D01*
X19213913Y-22139047D01*
X19035088Y-22224349D01*
X18990384Y-22390354D01*
X18881032Y-22125703D01*
X18516218Y-21760251D01*
X18443000Y-21729848D01*
X18443000Y-20594624D01*
X25269467Y-13768156D01*
X25229318Y-13970000D01*
X25229318Y-13970000D01*
G37*
X25229318Y-13970000D02*
X25306428Y-14357658D01*
X25321765Y-14380611D01*
X23915188Y-15787188D01*
X23771468Y-16002281D01*
X23721000Y-16256000D01*
X23721000Y-21454000D01*
X23231250Y-21454000D01*
X23131341Y-21553909D01*
X22588659Y-21553909D01*
X22488750Y-21454000D01*
X21871367Y-21454000D01*
X21679878Y-21533317D01*
X21533318Y-21679877D01*
X21454000Y-21871366D01*
X21454000Y-22152361D01*
X21426658Y-22139319D01*
X21421032Y-22125703D01*
X21056218Y-21760251D01*
X21040953Y-21753913D01*
X20955651Y-21575088D01*
X20415550Y-21429643D01*
X19860902Y-21501958D01*
X19684349Y-21575088D01*
X19599319Y-21753342D01*
X19585703Y-21758968D01*
X19220251Y-22123782D01*
X19213913Y-22139047D01*
X19035088Y-22224349D01*
X18990384Y-22390354D01*
X18881032Y-22125703D01*
X18516218Y-21760251D01*
X18443000Y-21729848D01*
X18443000Y-20594624D01*
X25269467Y-13768156D01*
X25229318Y-13970000D01*
G36*
X60808909Y-20050000D02*
X60837707Y-20203049D01*
X60928159Y-20343614D01*
X61066172Y-20437915D01*
X61230000Y-20471091D01*
X63230000Y-20471091D01*
X63383049Y-20442293D01*
X63523614Y-20351841D01*
X63617915Y-20213828D01*
X63651091Y-20050000D01*
X63651091Y-19929165D01*
X63968555Y-20247184D01*
X64487704Y-20462754D01*
X64644649Y-20462891D01*
X64618909Y-20590000D01*
X64618909Y-20927000D01*
X57150000Y-20927000D01*
X56896281Y-20977468D01*
X56681188Y-21121188D01*
X56010533Y-21791843D01*
X56050682Y-21590000D01*
X55993588Y-21302969D01*
X56053609Y-21180705D01*
X55937049Y-20971652D01*
X56133719Y-20932532D01*
X56348812Y-20788812D01*
X57424624Y-19713000D01*
X60808909Y-19713000D01*
X60808909Y-20050000D01*
X60808909Y-20050000D01*
G37*
X60808909Y-20050000D02*
X60837707Y-20203049D01*
X60928159Y-20343614D01*
X61066172Y-20437915D01*
X61230000Y-20471091D01*
X63230000Y-20471091D01*
X63383049Y-20442293D01*
X63523614Y-20351841D01*
X63617915Y-20213828D01*
X63651091Y-20050000D01*
X63651091Y-19929165D01*
X63968555Y-20247184D01*
X64487704Y-20462754D01*
X64644649Y-20462891D01*
X64618909Y-20590000D01*
X64618909Y-20927000D01*
X57150000Y-20927000D01*
X56896281Y-20977468D01*
X56681188Y-21121188D01*
X56010533Y-21791843D01*
X56050682Y-21590000D01*
X55993588Y-21302969D01*
X56053609Y-21180705D01*
X55937049Y-20971652D01*
X56133719Y-20932532D01*
X56348812Y-20788812D01*
X57424624Y-19713000D01*
X60808909Y-19713000D01*
X60808909Y-20050000D01*
G36*
X53169318Y-19050000D02*
X53226412Y-19337031D01*
X53166391Y-19459295D01*
X53282951Y-19668348D01*
X53086281Y-19707468D01*
X52871188Y-19851188D01*
X51971000Y-20751376D01*
X51971000Y-20086624D01*
X53209467Y-18848157D01*
X53169318Y-19050000D01*
X53169318Y-19050000D01*
G37*
X53169318Y-19050000D02*
X53226412Y-19337031D01*
X53166391Y-19459295D01*
X53282951Y-19668348D01*
X53086281Y-19707468D01*
X52871188Y-19851188D01*
X51971000Y-20751376D01*
X51971000Y-20086624D01*
X53209467Y-18848157D01*
X53169318Y-19050000D01*
G36*
X25854660Y-19985890D02*
X26242318Y-20063000D01*
X26865376Y-20063000D01*
X27449321Y-20646945D01*
X27097682Y-20577000D01*
X26242318Y-20577000D01*
X25854660Y-20654110D01*
X25809000Y-20684619D01*
X25809000Y-19955381D01*
X25854660Y-19985890D01*
X25854660Y-19985890D01*
G37*
X25854660Y-19985890D02*
X26242318Y-20063000D01*
X26865376Y-20063000D01*
X27449321Y-20646945D01*
X27097682Y-20577000D01*
X26242318Y-20577000D01*
X25854660Y-20654110D01*
X25809000Y-20684619D01*
X25809000Y-19955381D01*
X25854660Y-19985890D01*
G36*
X64618909Y-17510000D02*
X64642785Y-17636889D01*
X64490170Y-17636756D01*
X63970646Y-17851419D01*
X63651091Y-18170417D01*
X63651091Y-18050000D01*
X63622293Y-17896951D01*
X63531841Y-17756386D01*
X63393828Y-17662085D01*
X63230000Y-17628909D01*
X61230000Y-17628909D01*
X61076951Y-17657707D01*
X60936386Y-17748159D01*
X60842085Y-17886172D01*
X60808909Y-18050000D01*
X60808909Y-18387000D01*
X57150000Y-18387000D01*
X56896281Y-18437468D01*
X56681188Y-18581188D01*
X56010533Y-19251843D01*
X56050682Y-19050000D01*
X55993588Y-18762969D01*
X56053609Y-18640705D01*
X55937049Y-18431652D01*
X56133719Y-18392532D01*
X56348812Y-18248812D01*
X57424624Y-17173000D01*
X64618909Y-17173000D01*
X64618909Y-17510000D01*
X64618909Y-17510000D01*
G37*
X64618909Y-17510000D02*
X64642785Y-17636889D01*
X64490170Y-17636756D01*
X63970646Y-17851419D01*
X63651091Y-18170417D01*
X63651091Y-18050000D01*
X63622293Y-17896951D01*
X63531841Y-17756386D01*
X63393828Y-17662085D01*
X63230000Y-17628909D01*
X61230000Y-17628909D01*
X61076951Y-17657707D01*
X60936386Y-17748159D01*
X60842085Y-17886172D01*
X60808909Y-18050000D01*
X60808909Y-18387000D01*
X57150000Y-18387000D01*
X56896281Y-18437468D01*
X56681188Y-18581188D01*
X56010533Y-19251843D01*
X56050682Y-19050000D01*
X55993588Y-18762969D01*
X56053609Y-18640705D01*
X55937049Y-18431652D01*
X56133719Y-18392532D01*
X56348812Y-18248812D01*
X57424624Y-17173000D01*
X64618909Y-17173000D01*
X64618909Y-17510000D01*
G36*
X53169318Y-16510000D02*
X53226412Y-16797031D01*
X53166391Y-16919295D01*
X53282951Y-17128348D01*
X53086281Y-17167468D01*
X52871188Y-17311188D01*
X51209000Y-18973376D01*
X51209000Y-18308624D01*
X53209467Y-16308157D01*
X53169318Y-16510000D01*
X53169318Y-16510000D01*
G37*
X53169318Y-16510000D02*
X53226412Y-16797031D01*
X53166391Y-16919295D01*
X53282951Y-17128348D01*
X53086281Y-17167468D01*
X52871188Y-17311188D01*
X51209000Y-18973376D01*
X51209000Y-18308624D01*
X53209467Y-16308157D01*
X53169318Y-16510000D01*
G36*
X25229318Y-16510000D02*
X25306428Y-16897658D01*
X25321765Y-16920611D01*
X25047000Y-17195376D01*
X25047000Y-16530624D01*
X25269467Y-16308157D01*
X25229318Y-16510000D01*
X25229318Y-16510000D01*
G37*
X25229318Y-16510000D02*
X25306428Y-16897658D01*
X25321765Y-16920611D01*
X25047000Y-17195376D01*
X25047000Y-16530624D01*
X25269467Y-16308157D01*
X25229318Y-16510000D01*
G36*
X60808909Y-14970000D02*
X60837707Y-15123049D01*
X60928159Y-15263614D01*
X61066172Y-15357915D01*
X61230000Y-15391091D01*
X63230000Y-15391091D01*
X63383049Y-15362293D01*
X63523614Y-15271841D01*
X63617915Y-15133828D01*
X63651091Y-14970000D01*
X63651091Y-14849165D01*
X63968555Y-15167184D01*
X64487704Y-15382754D01*
X64644649Y-15382891D01*
X64618909Y-15510000D01*
X64618909Y-15847000D01*
X57150000Y-15847000D01*
X56896281Y-15897468D01*
X56681188Y-16041188D01*
X56010533Y-16711843D01*
X56050682Y-16510000D01*
X55993588Y-16222969D01*
X56053609Y-16100705D01*
X55937049Y-15891652D01*
X56133719Y-15852532D01*
X56348812Y-15708812D01*
X57424624Y-14633000D01*
X60808909Y-14633000D01*
X60808909Y-14970000D01*
X60808909Y-14970000D01*
G37*
X60808909Y-14970000D02*
X60837707Y-15123049D01*
X60928159Y-15263614D01*
X61066172Y-15357915D01*
X61230000Y-15391091D01*
X63230000Y-15391091D01*
X63383049Y-15362293D01*
X63523614Y-15271841D01*
X63617915Y-15133828D01*
X63651091Y-14970000D01*
X63651091Y-14849165D01*
X63968555Y-15167184D01*
X64487704Y-15382754D01*
X64644649Y-15382891D01*
X64618909Y-15510000D01*
X64618909Y-15847000D01*
X57150000Y-15847000D01*
X56896281Y-15897468D01*
X56681188Y-16041188D01*
X56010533Y-16711843D01*
X56050682Y-16510000D01*
X55993588Y-16222969D01*
X56053609Y-16100705D01*
X55937049Y-15891652D01*
X56133719Y-15852532D01*
X56348812Y-15708812D01*
X57424624Y-14633000D01*
X60808909Y-14633000D01*
X60808909Y-14970000D01*
G36*
X16509825Y-12374213D02*
X16507950Y-12369674D01*
X16514380Y-12363244D01*
X16509825Y-12374213D01*
X16509825Y-12374213D01*
G37*
X16509825Y-12374213D02*
X16507950Y-12369674D01*
X16514380Y-12363244D01*
X16509825Y-12374213D01*
G36*
X16617202Y-4847650D02*
X16616802Y-5305574D01*
X16255647Y-5666729D01*
X16402798Y-5312350D01*
X16403198Y-4854426D01*
X16764353Y-4493271D01*
X16617202Y-4847650D01*
X16617202Y-4847650D01*
G37*
X16617202Y-4847650D02*
X16616802Y-5305574D01*
X16255647Y-5666729D01*
X16402798Y-5312350D01*
X16403198Y-4854426D01*
X16764353Y-4493271D01*
X16617202Y-4847650D01*
G36*
X16617202Y2772350D02*
X16616802Y2314426D01*
X16255647Y1953271D01*
X16402798Y2307650D01*
X16403198Y2765574D01*
X16764353Y3126729D01*
X16617202Y2772350D01*
X16617202Y2772350D01*
G37*
X16617202Y2772350D02*
X16616802Y2314426D01*
X16255647Y1953271D01*
X16402798Y2307650D01*
X16403198Y2765574D01*
X16764353Y3126729D01*
X16617202Y2772350D01*
G36*
X73957642Y-48311953D02*
X73506017Y-48401787D01*
X74337164Y-48058364D01*
X73957642Y-48311953D01*
X73957642Y-48311953D01*
G37*
X73957642Y-48311953D02*
X73506017Y-48401787D01*
X74337164Y-48058364D01*
X73957642Y-48311953D01*
G36*
X8490035Y-48401002D02*
X8042358Y-48311953D01*
X7659492Y-48056130D01*
X8490035Y-48401002D01*
X8490035Y-48401002D01*
G37*
X8490035Y-48401002D02*
X8042358Y-48311953D01*
X7659492Y-48056130D01*
X8490035Y-48401002D01*
G36*
X74769493Y-47769491D02*
X74386626Y-48025315D01*
X75023080Y-47389971D01*
X74769493Y-47769491D01*
X74769493Y-47769491D01*
G37*
X74769493Y-47769491D02*
X74386626Y-48025315D01*
X75023080Y-47389971D01*
X74769493Y-47769491D01*
G36*
X7610029Y-48023080D02*
X7230509Y-47769493D01*
X6974685Y-47386626D01*
X7610029Y-48023080D01*
X7610029Y-48023080D01*
G37*
X7610029Y-48023080D02*
X7230509Y-47769493D01*
X6974685Y-47386626D01*
X7610029Y-48023080D01*
G36*
X75311953Y-46957642D02*
X75056130Y-47340508D01*
X75401002Y-46509965D01*
X75311953Y-46957642D01*
X75311953Y-46957642D01*
G37*
X75311953Y-46957642D02*
X75056130Y-47340508D01*
X75401002Y-46509965D01*
X75311953Y-46957642D01*
G36*
X6941636Y-47337164D02*
X6688047Y-46957642D01*
X6598213Y-46506017D01*
X6941636Y-47337164D01*
X6941636Y-47337164D01*
G37*
X6941636Y-47337164D02*
X6688047Y-46957642D01*
X6598213Y-46506017D01*
X6941636Y-47337164D01*
G36*
X76247000Y-43556864D02*
X73488000Y-40797864D01*
X73488000Y-3202136D01*
X76247000Y-443136D01*
X76247000Y-43556864D01*
X76247000Y-43556864D01*
G37*
X76247000Y-43556864D02*
X73488000Y-40797864D01*
X73488000Y-3202136D01*
X76247000Y-443136D01*
X76247000Y-43556864D01*
G36*
X75311953Y2957642D02*
X75401787Y2506017D01*
X75058364Y3337165D01*
X75311953Y2957642D01*
X75311953Y2957642D01*
G37*
X75311953Y2957642D02*
X75401787Y2506017D01*
X75058364Y3337165D01*
X75311953Y2957642D01*
G36*
X6598998Y2509965D02*
X6688047Y2957642D01*
X6943870Y3340507D01*
X6598998Y2509965D01*
X6598998Y2509965D01*
G37*
X6598998Y2509965D02*
X6688047Y2957642D01*
X6943870Y3340507D01*
X6598998Y2509965D01*
G36*
X76247000Y3251129D02*
X76177396Y3419169D01*
X75527077Y4392438D01*
X75392438Y4527078D01*
X75392434Y4527080D01*
X74419171Y5177394D01*
X74419169Y5177396D01*
X74243254Y5250262D01*
X73095204Y5478623D01*
X73047141Y5478623D01*
X73005027Y5487000D01*
X76247000Y5487000D01*
X76247000Y3251129D01*
X76247000Y3251129D01*
G37*
X76247000Y3251129D02*
X76177396Y3419169D01*
X75527077Y4392438D01*
X75392438Y4527078D01*
X75392434Y4527080D01*
X74419171Y5177394D01*
X74419169Y5177396D01*
X74243254Y5250262D01*
X73095204Y5478623D01*
X73047141Y5478623D01*
X73005027Y5487000D01*
X76247000Y5487000D01*
X76247000Y3251129D01*
G36*
X74769493Y3769491D02*
X75025316Y3386625D01*
X74389972Y4023079D01*
X74769493Y3769491D01*
X74769493Y3769491D01*
G37*
X74769493Y3769491D02*
X75025316Y3386625D01*
X74389972Y4023079D01*
X74769493Y3769491D01*
G36*
X6976921Y3389972D02*
X7230509Y3769493D01*
X7613375Y4025316D01*
X6976921Y3389972D01*
X6976921Y3389972D01*
G37*
X6976921Y3389972D02*
X7230509Y3769493D01*
X7613375Y4025316D01*
X6976921Y3389972D01*
G36*
X73957642Y4311953D02*
X74340507Y4056130D01*
X73509965Y4401002D01*
X73957642Y4311953D01*
X73957642Y4311953D01*
G37*
X73957642Y4311953D02*
X74340507Y4056130D01*
X73509965Y4401002D01*
X73957642Y4311953D01*
G36*
X7662835Y4058364D02*
X8042358Y4311953D01*
X8493983Y4401787D01*
X7662835Y4058364D01*
X7662835Y4058364D01*
G37*
X7662835Y4058364D02*
X8042358Y4311953D01*
X8493983Y4401787D01*
X7662835Y4058364D01*
M02*
