G04 #@! TF.FileFunction,Soldermask,Bot*
%FSLAX46Y46*%
G04 Gerber Fmt 4.6, Leading zero omitted, Abs format (unit mm)*
G04 Created by KiCad (PCBNEW 4.0.7) date 03/03/18 19:12:10*
%MOMM*%
%LPD*%
G01*
G04 APERTURE LIST*
%ADD10C,0.100000*%
%ADD11R,2.432000X2.127200*%
%ADD12O,2.432000X2.127200*%
%ADD13R,1.000000X1.900000*%
%ADD14R,1.670000X1.365200*%
%ADD15O,1.900000X2.900000*%
%ADD16C,3.400000*%
%ADD17R,1.000000X1.950000*%
%ADD18O,1.400000X1.924000*%
%ADD19R,2.432000X2.432000*%
%ADD20O,2.432000X2.432000*%
%ADD21R,1.400000X1.200000*%
%ADD22R,1.365200X1.670000*%
%ADD23R,2.600000X1.000000*%
%ADD24R,1.000000X1.700000*%
%ADD25R,1.000000X1.400000*%
%ADD26R,1.400000X1.000000*%
%ADD27R,1.200000X1.400000*%
%ADD28R,1.900000X2.200000*%
%ADD29O,1.900000X2.200000*%
%ADD30R,1.197560X1.197560*%
G04 APERTURE END LIST*
D10*
D11*
X22860000Y-71120000D03*
D12*
X22860000Y-68580000D03*
X22860000Y-66040000D03*
X22860000Y-63500000D03*
X22860000Y-60960000D03*
X22860000Y-58420000D03*
X22860000Y-55880000D03*
X22860000Y-53340000D03*
X22860000Y-50800000D03*
X22860000Y-48260000D03*
X22860000Y-45720000D03*
X22860000Y-43180000D03*
X22860000Y-40640000D03*
X22860000Y-38100000D03*
X22860000Y-35560000D03*
X22860000Y-33020000D03*
X22860000Y-30480000D03*
X22860000Y-27940000D03*
X22860000Y-25400000D03*
X22860000Y-22860000D03*
X22860000Y-20320000D03*
D13*
X26035000Y-66134000D03*
X27305000Y-66134000D03*
X28575000Y-66134000D03*
X29845000Y-66134000D03*
X31115000Y-66134000D03*
X32385000Y-66134000D03*
X33655000Y-66134000D03*
X34925000Y-66134000D03*
X34925000Y-71534000D03*
X33655000Y-71534000D03*
X32385000Y-71534000D03*
X31115000Y-71534000D03*
X29845000Y-71534000D03*
X28575000Y-71534000D03*
X27305000Y-71534000D03*
X26035000Y-71534000D03*
D14*
X29972000Y-29972000D03*
X29972000Y-31242000D03*
X29972000Y-32512000D03*
D15*
X36830000Y-27940000D03*
X34330000Y-27940000D03*
X31830000Y-27940000D03*
X29330000Y-27940000D03*
D16*
X33080000Y-21440000D03*
D10*
G36*
X30247398Y-55381308D02*
X29787779Y-54921689D01*
X30989860Y-53719608D01*
X31449479Y-54179227D01*
X30247398Y-55381308D01*
X30247398Y-55381308D01*
G37*
G36*
X29893845Y-55027755D02*
X29434226Y-54568136D01*
X30636307Y-53366055D01*
X31095926Y-53825674D01*
X29893845Y-55027755D01*
X29893845Y-55027755D01*
G37*
G36*
X29540291Y-54674201D02*
X29080672Y-54214582D01*
X30282753Y-53012501D01*
X30742372Y-53472120D01*
X29540291Y-54674201D01*
X29540291Y-54674201D01*
G37*
G36*
X29186738Y-54320648D02*
X28727119Y-53861029D01*
X29929200Y-52658948D01*
X30388819Y-53118567D01*
X29186738Y-54320648D01*
X29186738Y-54320648D01*
G37*
G36*
X28833185Y-53967095D02*
X28373566Y-53507476D01*
X29575647Y-52305395D01*
X30035266Y-52765014D01*
X28833185Y-53967095D01*
X28833185Y-53967095D01*
G37*
G36*
X28479631Y-53613541D02*
X28020012Y-53153922D01*
X29222093Y-51951841D01*
X29681712Y-52411460D01*
X28479631Y-53613541D01*
X28479631Y-53613541D01*
G37*
G36*
X28126078Y-53259988D02*
X27666459Y-52800369D01*
X28868540Y-51598288D01*
X29328159Y-52057907D01*
X28126078Y-53259988D01*
X28126078Y-53259988D01*
G37*
G36*
X27772524Y-52906434D02*
X27312905Y-52446815D01*
X28514986Y-51244734D01*
X28974605Y-51704353D01*
X27772524Y-52906434D01*
X27772524Y-52906434D01*
G37*
G36*
X27418971Y-52552881D02*
X26959352Y-52093262D01*
X28161433Y-50891181D01*
X28621052Y-51350800D01*
X27418971Y-52552881D01*
X27418971Y-52552881D01*
G37*
G36*
X27065418Y-52199328D02*
X26605799Y-51739709D01*
X27807880Y-50537628D01*
X28267499Y-50997247D01*
X27065418Y-52199328D01*
X27065418Y-52199328D01*
G37*
G36*
X26711864Y-51845774D02*
X26252245Y-51386155D01*
X27454326Y-50184074D01*
X27913945Y-50643693D01*
X26711864Y-51845774D01*
X26711864Y-51845774D01*
G37*
G36*
X26358311Y-51492221D02*
X25898692Y-51032602D01*
X27100773Y-49830521D01*
X27560392Y-50290140D01*
X26358311Y-51492221D01*
X26358311Y-51492221D01*
G37*
G36*
X25898692Y-48027398D02*
X26358311Y-47567779D01*
X27560392Y-48769860D01*
X27100773Y-49229479D01*
X25898692Y-48027398D01*
X25898692Y-48027398D01*
G37*
G36*
X26252245Y-47673845D02*
X26711864Y-47214226D01*
X27913945Y-48416307D01*
X27454326Y-48875926D01*
X26252245Y-47673845D01*
X26252245Y-47673845D01*
G37*
G36*
X26605799Y-47320291D02*
X27065418Y-46860672D01*
X28267499Y-48062753D01*
X27807880Y-48522372D01*
X26605799Y-47320291D01*
X26605799Y-47320291D01*
G37*
G36*
X26959352Y-46966738D02*
X27418971Y-46507119D01*
X28621052Y-47709200D01*
X28161433Y-48168819D01*
X26959352Y-46966738D01*
X26959352Y-46966738D01*
G37*
G36*
X27312905Y-46613185D02*
X27772524Y-46153566D01*
X28974605Y-47355647D01*
X28514986Y-47815266D01*
X27312905Y-46613185D01*
X27312905Y-46613185D01*
G37*
G36*
X27666459Y-46259631D02*
X28126078Y-45800012D01*
X29328159Y-47002093D01*
X28868540Y-47461712D01*
X27666459Y-46259631D01*
X27666459Y-46259631D01*
G37*
G36*
X28020012Y-45906078D02*
X28479631Y-45446459D01*
X29681712Y-46648540D01*
X29222093Y-47108159D01*
X28020012Y-45906078D01*
X28020012Y-45906078D01*
G37*
G36*
X28373566Y-45552524D02*
X28833185Y-45092905D01*
X30035266Y-46294986D01*
X29575647Y-46754605D01*
X28373566Y-45552524D01*
X28373566Y-45552524D01*
G37*
G36*
X28727119Y-45198971D02*
X29186738Y-44739352D01*
X30388819Y-45941433D01*
X29929200Y-46401052D01*
X28727119Y-45198971D01*
X28727119Y-45198971D01*
G37*
G36*
X29080672Y-44845418D02*
X29540291Y-44385799D01*
X30742372Y-45587880D01*
X30282753Y-46047499D01*
X29080672Y-44845418D01*
X29080672Y-44845418D01*
G37*
G36*
X29434226Y-44491864D02*
X29893845Y-44032245D01*
X31095926Y-45234326D01*
X30636307Y-45693945D01*
X29434226Y-44491864D01*
X29434226Y-44491864D01*
G37*
G36*
X29787779Y-44138311D02*
X30247398Y-43678692D01*
X31449479Y-44880773D01*
X30989860Y-45340392D01*
X29787779Y-44138311D01*
X29787779Y-44138311D01*
G37*
G36*
X32510140Y-45340392D02*
X32050521Y-44880773D01*
X33252602Y-43678692D01*
X33712221Y-44138311D01*
X32510140Y-45340392D01*
X32510140Y-45340392D01*
G37*
G36*
X32863693Y-45693945D02*
X32404074Y-45234326D01*
X33606155Y-44032245D01*
X34065774Y-44491864D01*
X32863693Y-45693945D01*
X32863693Y-45693945D01*
G37*
G36*
X33217247Y-46047499D02*
X32757628Y-45587880D01*
X33959709Y-44385799D01*
X34419328Y-44845418D01*
X33217247Y-46047499D01*
X33217247Y-46047499D01*
G37*
G36*
X33570800Y-46401052D02*
X33111181Y-45941433D01*
X34313262Y-44739352D01*
X34772881Y-45198971D01*
X33570800Y-46401052D01*
X33570800Y-46401052D01*
G37*
G36*
X33924353Y-46754605D02*
X33464734Y-46294986D01*
X34666815Y-45092905D01*
X35126434Y-45552524D01*
X33924353Y-46754605D01*
X33924353Y-46754605D01*
G37*
G36*
X34277907Y-47108159D02*
X33818288Y-46648540D01*
X35020369Y-45446459D01*
X35479988Y-45906078D01*
X34277907Y-47108159D01*
X34277907Y-47108159D01*
G37*
G36*
X34631460Y-47461712D02*
X34171841Y-47002093D01*
X35373922Y-45800012D01*
X35833541Y-46259631D01*
X34631460Y-47461712D01*
X34631460Y-47461712D01*
G37*
G36*
X34985014Y-47815266D02*
X34525395Y-47355647D01*
X35727476Y-46153566D01*
X36187095Y-46613185D01*
X34985014Y-47815266D01*
X34985014Y-47815266D01*
G37*
G36*
X35338567Y-48168819D02*
X34878948Y-47709200D01*
X36081029Y-46507119D01*
X36540648Y-46966738D01*
X35338567Y-48168819D01*
X35338567Y-48168819D01*
G37*
G36*
X35692120Y-48522372D02*
X35232501Y-48062753D01*
X36434582Y-46860672D01*
X36894201Y-47320291D01*
X35692120Y-48522372D01*
X35692120Y-48522372D01*
G37*
G36*
X36045674Y-48875926D02*
X35586055Y-48416307D01*
X36788136Y-47214226D01*
X37247755Y-47673845D01*
X36045674Y-48875926D01*
X36045674Y-48875926D01*
G37*
G36*
X36399227Y-49229479D02*
X35939608Y-48769860D01*
X37141689Y-47567779D01*
X37601308Y-48027398D01*
X36399227Y-49229479D01*
X36399227Y-49229479D01*
G37*
G36*
X35939608Y-50290140D02*
X36399227Y-49830521D01*
X37601308Y-51032602D01*
X37141689Y-51492221D01*
X35939608Y-50290140D01*
X35939608Y-50290140D01*
G37*
G36*
X35586055Y-50643693D02*
X36045674Y-50184074D01*
X37247755Y-51386155D01*
X36788136Y-51845774D01*
X35586055Y-50643693D01*
X35586055Y-50643693D01*
G37*
G36*
X35232501Y-50997247D02*
X35692120Y-50537628D01*
X36894201Y-51739709D01*
X36434582Y-52199328D01*
X35232501Y-50997247D01*
X35232501Y-50997247D01*
G37*
G36*
X34878948Y-51350800D02*
X35338567Y-50891181D01*
X36540648Y-52093262D01*
X36081029Y-52552881D01*
X34878948Y-51350800D01*
X34878948Y-51350800D01*
G37*
G36*
X34525395Y-51704353D02*
X34985014Y-51244734D01*
X36187095Y-52446815D01*
X35727476Y-52906434D01*
X34525395Y-51704353D01*
X34525395Y-51704353D01*
G37*
G36*
X34171841Y-52057907D02*
X34631460Y-51598288D01*
X35833541Y-52800369D01*
X35373922Y-53259988D01*
X34171841Y-52057907D01*
X34171841Y-52057907D01*
G37*
G36*
X33818288Y-52411460D02*
X34277907Y-51951841D01*
X35479988Y-53153922D01*
X35020369Y-53613541D01*
X33818288Y-52411460D01*
X33818288Y-52411460D01*
G37*
G36*
X33464734Y-52765014D02*
X33924353Y-52305395D01*
X35126434Y-53507476D01*
X34666815Y-53967095D01*
X33464734Y-52765014D01*
X33464734Y-52765014D01*
G37*
G36*
X33111181Y-53118567D02*
X33570800Y-52658948D01*
X34772881Y-53861029D01*
X34313262Y-54320648D01*
X33111181Y-53118567D01*
X33111181Y-53118567D01*
G37*
G36*
X32757628Y-53472120D02*
X33217247Y-53012501D01*
X34419328Y-54214582D01*
X33959709Y-54674201D01*
X32757628Y-53472120D01*
X32757628Y-53472120D01*
G37*
G36*
X32404074Y-53825674D02*
X32863693Y-53366055D01*
X34065774Y-54568136D01*
X33606155Y-55027755D01*
X32404074Y-53825674D01*
X32404074Y-53825674D01*
G37*
G36*
X32050521Y-54179227D02*
X32510140Y-53719608D01*
X33712221Y-54921689D01*
X33252602Y-55381308D01*
X32050521Y-54179227D01*
X32050521Y-54179227D01*
G37*
D17*
X35433000Y-39530000D03*
X34163000Y-39530000D03*
X32893000Y-39530000D03*
X31623000Y-39530000D03*
X31623000Y-34130000D03*
X32893000Y-34130000D03*
X34163000Y-34130000D03*
X35433000Y-34130000D03*
D18*
X37084000Y-60452000D03*
X35584000Y-60452000D03*
X34084000Y-60452000D03*
X32584000Y-60452000D03*
X31084000Y-60452000D03*
X29584000Y-60452000D03*
D19*
X25400000Y-25400000D03*
D20*
X25400000Y-27940000D03*
D21*
X27432000Y-28078000D03*
X27432000Y-26278000D03*
D22*
X34290000Y-58674000D03*
X35560000Y-58674000D03*
X36830000Y-58674000D03*
D23*
X26416000Y-55950000D03*
X26416000Y-57150000D03*
X26416000Y-58350000D03*
D24*
X30353000Y-39530000D03*
X29083000Y-39530000D03*
X27813000Y-39530000D03*
X26543000Y-39530000D03*
X26543000Y-34130000D03*
X27813000Y-34130000D03*
X29083000Y-34130000D03*
X30353000Y-34130000D03*
D14*
X32258000Y-32512000D03*
X32258000Y-31242000D03*
X32258000Y-29972000D03*
X35306000Y-32512000D03*
X35306000Y-31242000D03*
X35306000Y-29972000D03*
X26924000Y-29972000D03*
X26924000Y-31242000D03*
X26924000Y-32512000D03*
X29210000Y-37465000D03*
X29210000Y-36195000D03*
X27178000Y-36195000D03*
X27178000Y-37465000D03*
D25*
X31258000Y-42672000D03*
X33258000Y-42672000D03*
D26*
X38354000Y-48752000D03*
X38354000Y-46752000D03*
D25*
X30750000Y-56134000D03*
X32750000Y-56134000D03*
D23*
X37338000Y-70542000D03*
X37338000Y-69342000D03*
X37338000Y-68142000D03*
D27*
X31380000Y-62230000D03*
X29580000Y-62230000D03*
D21*
X27432000Y-63638000D03*
X27432000Y-61838000D03*
D28*
X28956000Y-64262000D03*
D29*
X31496000Y-64262000D03*
X34036000Y-64262000D03*
X36576000Y-64262000D03*
D11*
X40640000Y-20320000D03*
D12*
X40640000Y-22860000D03*
X40640000Y-25400000D03*
X40640000Y-27940000D03*
X40640000Y-30480000D03*
X40640000Y-33020000D03*
X40640000Y-35560000D03*
X40640000Y-38100000D03*
X40640000Y-40640000D03*
X40640000Y-43180000D03*
X40640000Y-45720000D03*
X40640000Y-48260000D03*
X40640000Y-50800000D03*
X40640000Y-53340000D03*
X40640000Y-55880000D03*
X40640000Y-58420000D03*
X40640000Y-60960000D03*
X40640000Y-63500000D03*
X40640000Y-66040000D03*
X40640000Y-68580000D03*
X40640000Y-71120000D03*
D30*
X29718000Y-20078700D03*
X29718000Y-21577300D03*
D27*
X28818000Y-23876000D03*
X30618000Y-23876000D03*
D21*
X24892000Y-69988000D03*
X24892000Y-68188000D03*
D30*
X27940000Y-20078700D03*
X27940000Y-21577300D03*
D21*
X26162000Y-21728000D03*
X26162000Y-19928000D03*
D11*
X22860000Y-71120000D03*
D12*
X22860000Y-68580000D03*
X22860000Y-66040000D03*
X22860000Y-63500000D03*
X22860000Y-60960000D03*
X22860000Y-58420000D03*
X22860000Y-55880000D03*
X22860000Y-53340000D03*
X22860000Y-50800000D03*
X22860000Y-48260000D03*
X22860000Y-45720000D03*
X22860000Y-43180000D03*
X22860000Y-40640000D03*
X22860000Y-38100000D03*
X22860000Y-35560000D03*
X22860000Y-33020000D03*
X22860000Y-30480000D03*
X22860000Y-27940000D03*
X22860000Y-25400000D03*
X22860000Y-22860000D03*
X22860000Y-20320000D03*
D13*
X26035000Y-66134000D03*
X27305000Y-66134000D03*
X28575000Y-66134000D03*
X29845000Y-66134000D03*
X31115000Y-66134000D03*
X32385000Y-66134000D03*
X33655000Y-66134000D03*
X34925000Y-66134000D03*
X34925000Y-71534000D03*
X33655000Y-71534000D03*
X32385000Y-71534000D03*
X31115000Y-71534000D03*
X29845000Y-71534000D03*
X28575000Y-71534000D03*
X27305000Y-71534000D03*
X26035000Y-71534000D03*
D14*
X29972000Y-29972000D03*
X29972000Y-31242000D03*
X29972000Y-32512000D03*
D15*
X36830000Y-27940000D03*
X34330000Y-27940000D03*
X31830000Y-27940000D03*
X29330000Y-27940000D03*
D16*
X33080000Y-21440000D03*
D10*
G36*
X30247398Y-55381308D02*
X29787779Y-54921689D01*
X30989860Y-53719608D01*
X31449479Y-54179227D01*
X30247398Y-55381308D01*
X30247398Y-55381308D01*
G37*
G36*
X29893845Y-55027755D02*
X29434226Y-54568136D01*
X30636307Y-53366055D01*
X31095926Y-53825674D01*
X29893845Y-55027755D01*
X29893845Y-55027755D01*
G37*
G36*
X29540291Y-54674201D02*
X29080672Y-54214582D01*
X30282753Y-53012501D01*
X30742372Y-53472120D01*
X29540291Y-54674201D01*
X29540291Y-54674201D01*
G37*
G36*
X29186738Y-54320648D02*
X28727119Y-53861029D01*
X29929200Y-52658948D01*
X30388819Y-53118567D01*
X29186738Y-54320648D01*
X29186738Y-54320648D01*
G37*
G36*
X28833185Y-53967095D02*
X28373566Y-53507476D01*
X29575647Y-52305395D01*
X30035266Y-52765014D01*
X28833185Y-53967095D01*
X28833185Y-53967095D01*
G37*
G36*
X28479631Y-53613541D02*
X28020012Y-53153922D01*
X29222093Y-51951841D01*
X29681712Y-52411460D01*
X28479631Y-53613541D01*
X28479631Y-53613541D01*
G37*
G36*
X28126078Y-53259988D02*
X27666459Y-52800369D01*
X28868540Y-51598288D01*
X29328159Y-52057907D01*
X28126078Y-53259988D01*
X28126078Y-53259988D01*
G37*
G36*
X27772524Y-52906434D02*
X27312905Y-52446815D01*
X28514986Y-51244734D01*
X28974605Y-51704353D01*
X27772524Y-52906434D01*
X27772524Y-52906434D01*
G37*
G36*
X27418971Y-52552881D02*
X26959352Y-52093262D01*
X28161433Y-50891181D01*
X28621052Y-51350800D01*
X27418971Y-52552881D01*
X27418971Y-52552881D01*
G37*
G36*
X27065418Y-52199328D02*
X26605799Y-51739709D01*
X27807880Y-50537628D01*
X28267499Y-50997247D01*
X27065418Y-52199328D01*
X27065418Y-52199328D01*
G37*
G36*
X26711864Y-51845774D02*
X26252245Y-51386155D01*
X27454326Y-50184074D01*
X27913945Y-50643693D01*
X26711864Y-51845774D01*
X26711864Y-51845774D01*
G37*
G36*
X26358311Y-51492221D02*
X25898692Y-51032602D01*
X27100773Y-49830521D01*
X27560392Y-50290140D01*
X26358311Y-51492221D01*
X26358311Y-51492221D01*
G37*
G36*
X25898692Y-48027398D02*
X26358311Y-47567779D01*
X27560392Y-48769860D01*
X27100773Y-49229479D01*
X25898692Y-48027398D01*
X25898692Y-48027398D01*
G37*
G36*
X26252245Y-47673845D02*
X26711864Y-47214226D01*
X27913945Y-48416307D01*
X27454326Y-48875926D01*
X26252245Y-47673845D01*
X26252245Y-47673845D01*
G37*
G36*
X26605799Y-47320291D02*
X27065418Y-46860672D01*
X28267499Y-48062753D01*
X27807880Y-48522372D01*
X26605799Y-47320291D01*
X26605799Y-47320291D01*
G37*
G36*
X26959352Y-46966738D02*
X27418971Y-46507119D01*
X28621052Y-47709200D01*
X28161433Y-48168819D01*
X26959352Y-46966738D01*
X26959352Y-46966738D01*
G37*
G36*
X27312905Y-46613185D02*
X27772524Y-46153566D01*
X28974605Y-47355647D01*
X28514986Y-47815266D01*
X27312905Y-46613185D01*
X27312905Y-46613185D01*
G37*
G36*
X27666459Y-46259631D02*
X28126078Y-45800012D01*
X29328159Y-47002093D01*
X28868540Y-47461712D01*
X27666459Y-46259631D01*
X27666459Y-46259631D01*
G37*
G36*
X28020012Y-45906078D02*
X28479631Y-45446459D01*
X29681712Y-46648540D01*
X29222093Y-47108159D01*
X28020012Y-45906078D01*
X28020012Y-45906078D01*
G37*
G36*
X28373566Y-45552524D02*
X28833185Y-45092905D01*
X30035266Y-46294986D01*
X29575647Y-46754605D01*
X28373566Y-45552524D01*
X28373566Y-45552524D01*
G37*
G36*
X28727119Y-45198971D02*
X29186738Y-44739352D01*
X30388819Y-45941433D01*
X29929200Y-46401052D01*
X28727119Y-45198971D01*
X28727119Y-45198971D01*
G37*
G36*
X29080672Y-44845418D02*
X29540291Y-44385799D01*
X30742372Y-45587880D01*
X30282753Y-46047499D01*
X29080672Y-44845418D01*
X29080672Y-44845418D01*
G37*
G36*
X29434226Y-44491864D02*
X29893845Y-44032245D01*
X31095926Y-45234326D01*
X30636307Y-45693945D01*
X29434226Y-44491864D01*
X29434226Y-44491864D01*
G37*
G36*
X29787779Y-44138311D02*
X30247398Y-43678692D01*
X31449479Y-44880773D01*
X30989860Y-45340392D01*
X29787779Y-44138311D01*
X29787779Y-44138311D01*
G37*
G36*
X32510140Y-45340392D02*
X32050521Y-44880773D01*
X33252602Y-43678692D01*
X33712221Y-44138311D01*
X32510140Y-45340392D01*
X32510140Y-45340392D01*
G37*
G36*
X32863693Y-45693945D02*
X32404074Y-45234326D01*
X33606155Y-44032245D01*
X34065774Y-44491864D01*
X32863693Y-45693945D01*
X32863693Y-45693945D01*
G37*
G36*
X33217247Y-46047499D02*
X32757628Y-45587880D01*
X33959709Y-44385799D01*
X34419328Y-44845418D01*
X33217247Y-46047499D01*
X33217247Y-46047499D01*
G37*
G36*
X33570800Y-46401052D02*
X33111181Y-45941433D01*
X34313262Y-44739352D01*
X34772881Y-45198971D01*
X33570800Y-46401052D01*
X33570800Y-46401052D01*
G37*
G36*
X33924353Y-46754605D02*
X33464734Y-46294986D01*
X34666815Y-45092905D01*
X35126434Y-45552524D01*
X33924353Y-46754605D01*
X33924353Y-46754605D01*
G37*
G36*
X34277907Y-47108159D02*
X33818288Y-46648540D01*
X35020369Y-45446459D01*
X35479988Y-45906078D01*
X34277907Y-47108159D01*
X34277907Y-47108159D01*
G37*
G36*
X34631460Y-47461712D02*
X34171841Y-47002093D01*
X35373922Y-45800012D01*
X35833541Y-46259631D01*
X34631460Y-47461712D01*
X34631460Y-47461712D01*
G37*
G36*
X34985014Y-47815266D02*
X34525395Y-47355647D01*
X35727476Y-46153566D01*
X36187095Y-46613185D01*
X34985014Y-47815266D01*
X34985014Y-47815266D01*
G37*
G36*
X35338567Y-48168819D02*
X34878948Y-47709200D01*
X36081029Y-46507119D01*
X36540648Y-46966738D01*
X35338567Y-48168819D01*
X35338567Y-48168819D01*
G37*
G36*
X35692120Y-48522372D02*
X35232501Y-48062753D01*
X36434582Y-46860672D01*
X36894201Y-47320291D01*
X35692120Y-48522372D01*
X35692120Y-48522372D01*
G37*
G36*
X36045674Y-48875926D02*
X35586055Y-48416307D01*
X36788136Y-47214226D01*
X37247755Y-47673845D01*
X36045674Y-48875926D01*
X36045674Y-48875926D01*
G37*
G36*
X36399227Y-49229479D02*
X35939608Y-48769860D01*
X37141689Y-47567779D01*
X37601308Y-48027398D01*
X36399227Y-49229479D01*
X36399227Y-49229479D01*
G37*
G36*
X35939608Y-50290140D02*
X36399227Y-49830521D01*
X37601308Y-51032602D01*
X37141689Y-51492221D01*
X35939608Y-50290140D01*
X35939608Y-50290140D01*
G37*
G36*
X35586055Y-50643693D02*
X36045674Y-50184074D01*
X37247755Y-51386155D01*
X36788136Y-51845774D01*
X35586055Y-50643693D01*
X35586055Y-50643693D01*
G37*
G36*
X35232501Y-50997247D02*
X35692120Y-50537628D01*
X36894201Y-51739709D01*
X36434582Y-52199328D01*
X35232501Y-50997247D01*
X35232501Y-50997247D01*
G37*
G36*
X34878948Y-51350800D02*
X35338567Y-50891181D01*
X36540648Y-52093262D01*
X36081029Y-52552881D01*
X34878948Y-51350800D01*
X34878948Y-51350800D01*
G37*
G36*
X34525395Y-51704353D02*
X34985014Y-51244734D01*
X36187095Y-52446815D01*
X35727476Y-52906434D01*
X34525395Y-51704353D01*
X34525395Y-51704353D01*
G37*
G36*
X34171841Y-52057907D02*
X34631460Y-51598288D01*
X35833541Y-52800369D01*
X35373922Y-53259988D01*
X34171841Y-52057907D01*
X34171841Y-52057907D01*
G37*
G36*
X33818288Y-52411460D02*
X34277907Y-51951841D01*
X35479988Y-53153922D01*
X35020369Y-53613541D01*
X33818288Y-52411460D01*
X33818288Y-52411460D01*
G37*
G36*
X33464734Y-52765014D02*
X33924353Y-52305395D01*
X35126434Y-53507476D01*
X34666815Y-53967095D01*
X33464734Y-52765014D01*
X33464734Y-52765014D01*
G37*
G36*
X33111181Y-53118567D02*
X33570800Y-52658948D01*
X34772881Y-53861029D01*
X34313262Y-54320648D01*
X33111181Y-53118567D01*
X33111181Y-53118567D01*
G37*
G36*
X32757628Y-53472120D02*
X33217247Y-53012501D01*
X34419328Y-54214582D01*
X33959709Y-54674201D01*
X32757628Y-53472120D01*
X32757628Y-53472120D01*
G37*
G36*
X32404074Y-53825674D02*
X32863693Y-53366055D01*
X34065774Y-54568136D01*
X33606155Y-55027755D01*
X32404074Y-53825674D01*
X32404074Y-53825674D01*
G37*
G36*
X32050521Y-54179227D02*
X32510140Y-53719608D01*
X33712221Y-54921689D01*
X33252602Y-55381308D01*
X32050521Y-54179227D01*
X32050521Y-54179227D01*
G37*
D17*
X35433000Y-39530000D03*
X34163000Y-39530000D03*
X32893000Y-39530000D03*
X31623000Y-39530000D03*
X31623000Y-34130000D03*
X32893000Y-34130000D03*
X34163000Y-34130000D03*
X35433000Y-34130000D03*
D18*
X37084000Y-60452000D03*
X35584000Y-60452000D03*
X34084000Y-60452000D03*
X32584000Y-60452000D03*
X31084000Y-60452000D03*
X29584000Y-60452000D03*
D19*
X25400000Y-25400000D03*
D20*
X25400000Y-27940000D03*
D21*
X27432000Y-28078000D03*
X27432000Y-26278000D03*
D22*
X34290000Y-58674000D03*
X35560000Y-58674000D03*
X36830000Y-58674000D03*
D23*
X26416000Y-55950000D03*
X26416000Y-57150000D03*
X26416000Y-58350000D03*
D24*
X30353000Y-39530000D03*
X29083000Y-39530000D03*
X27813000Y-39530000D03*
X26543000Y-39530000D03*
X26543000Y-34130000D03*
X27813000Y-34130000D03*
X29083000Y-34130000D03*
X30353000Y-34130000D03*
D14*
X32258000Y-32512000D03*
X32258000Y-31242000D03*
X32258000Y-29972000D03*
X35306000Y-32512000D03*
X35306000Y-31242000D03*
X35306000Y-29972000D03*
X26924000Y-29972000D03*
X26924000Y-31242000D03*
X26924000Y-32512000D03*
X29210000Y-37465000D03*
X29210000Y-36195000D03*
X27178000Y-36195000D03*
X27178000Y-37465000D03*
D25*
X31258000Y-42672000D03*
X33258000Y-42672000D03*
D26*
X38354000Y-48752000D03*
X38354000Y-46752000D03*
D25*
X30750000Y-56134000D03*
X32750000Y-56134000D03*
D23*
X37338000Y-70542000D03*
X37338000Y-69342000D03*
X37338000Y-68142000D03*
D27*
X31380000Y-62230000D03*
X29580000Y-62230000D03*
D21*
X27432000Y-63638000D03*
X27432000Y-61838000D03*
D28*
X28956000Y-64262000D03*
D29*
X31496000Y-64262000D03*
X34036000Y-64262000D03*
X36576000Y-64262000D03*
D11*
X40640000Y-20320000D03*
D12*
X40640000Y-22860000D03*
X40640000Y-25400000D03*
X40640000Y-27940000D03*
X40640000Y-30480000D03*
X40640000Y-33020000D03*
X40640000Y-35560000D03*
X40640000Y-38100000D03*
X40640000Y-40640000D03*
X40640000Y-43180000D03*
X40640000Y-45720000D03*
X40640000Y-48260000D03*
X40640000Y-50800000D03*
X40640000Y-53340000D03*
X40640000Y-55880000D03*
X40640000Y-58420000D03*
X40640000Y-60960000D03*
X40640000Y-63500000D03*
X40640000Y-66040000D03*
X40640000Y-68580000D03*
X40640000Y-71120000D03*
D30*
X29718000Y-20078700D03*
X29718000Y-21577300D03*
D27*
X28818000Y-23876000D03*
X30618000Y-23876000D03*
D21*
X24892000Y-69988000D03*
X24892000Y-68188000D03*
D30*
X27940000Y-20078700D03*
X27940000Y-21577300D03*
D21*
X26162000Y-21728000D03*
X26162000Y-19928000D03*
D11*
X45720000Y-71120000D03*
D12*
X45720000Y-68580000D03*
X45720000Y-66040000D03*
X45720000Y-63500000D03*
X45720000Y-60960000D03*
X45720000Y-58420000D03*
X45720000Y-55880000D03*
X45720000Y-53340000D03*
X45720000Y-50800000D03*
X45720000Y-48260000D03*
X45720000Y-45720000D03*
X45720000Y-43180000D03*
X45720000Y-40640000D03*
X45720000Y-38100000D03*
X45720000Y-35560000D03*
X45720000Y-33020000D03*
X45720000Y-30480000D03*
X45720000Y-27940000D03*
X45720000Y-25400000D03*
X45720000Y-22860000D03*
X45720000Y-20320000D03*
D13*
X48895000Y-66134000D03*
X50165000Y-66134000D03*
X51435000Y-66134000D03*
X52705000Y-66134000D03*
X53975000Y-66134000D03*
X55245000Y-66134000D03*
X56515000Y-66134000D03*
X57785000Y-66134000D03*
X57785000Y-71534000D03*
X56515000Y-71534000D03*
X55245000Y-71534000D03*
X53975000Y-71534000D03*
X52705000Y-71534000D03*
X51435000Y-71534000D03*
X50165000Y-71534000D03*
X48895000Y-71534000D03*
D14*
X52832000Y-29972000D03*
X52832000Y-31242000D03*
X52832000Y-32512000D03*
D15*
X59690000Y-27940000D03*
X57190000Y-27940000D03*
X54690000Y-27940000D03*
X52190000Y-27940000D03*
D16*
X55940000Y-21440000D03*
D10*
G36*
X53107398Y-55381308D02*
X52647779Y-54921689D01*
X53849860Y-53719608D01*
X54309479Y-54179227D01*
X53107398Y-55381308D01*
X53107398Y-55381308D01*
G37*
G36*
X52753845Y-55027755D02*
X52294226Y-54568136D01*
X53496307Y-53366055D01*
X53955926Y-53825674D01*
X52753845Y-55027755D01*
X52753845Y-55027755D01*
G37*
G36*
X52400291Y-54674201D02*
X51940672Y-54214582D01*
X53142753Y-53012501D01*
X53602372Y-53472120D01*
X52400291Y-54674201D01*
X52400291Y-54674201D01*
G37*
G36*
X52046738Y-54320648D02*
X51587119Y-53861029D01*
X52789200Y-52658948D01*
X53248819Y-53118567D01*
X52046738Y-54320648D01*
X52046738Y-54320648D01*
G37*
G36*
X51693185Y-53967095D02*
X51233566Y-53507476D01*
X52435647Y-52305395D01*
X52895266Y-52765014D01*
X51693185Y-53967095D01*
X51693185Y-53967095D01*
G37*
G36*
X51339631Y-53613541D02*
X50880012Y-53153922D01*
X52082093Y-51951841D01*
X52541712Y-52411460D01*
X51339631Y-53613541D01*
X51339631Y-53613541D01*
G37*
G36*
X50986078Y-53259988D02*
X50526459Y-52800369D01*
X51728540Y-51598288D01*
X52188159Y-52057907D01*
X50986078Y-53259988D01*
X50986078Y-53259988D01*
G37*
G36*
X50632524Y-52906434D02*
X50172905Y-52446815D01*
X51374986Y-51244734D01*
X51834605Y-51704353D01*
X50632524Y-52906434D01*
X50632524Y-52906434D01*
G37*
G36*
X50278971Y-52552881D02*
X49819352Y-52093262D01*
X51021433Y-50891181D01*
X51481052Y-51350800D01*
X50278971Y-52552881D01*
X50278971Y-52552881D01*
G37*
G36*
X49925418Y-52199328D02*
X49465799Y-51739709D01*
X50667880Y-50537628D01*
X51127499Y-50997247D01*
X49925418Y-52199328D01*
X49925418Y-52199328D01*
G37*
G36*
X49571864Y-51845774D02*
X49112245Y-51386155D01*
X50314326Y-50184074D01*
X50773945Y-50643693D01*
X49571864Y-51845774D01*
X49571864Y-51845774D01*
G37*
G36*
X49218311Y-51492221D02*
X48758692Y-51032602D01*
X49960773Y-49830521D01*
X50420392Y-50290140D01*
X49218311Y-51492221D01*
X49218311Y-51492221D01*
G37*
G36*
X48758692Y-48027398D02*
X49218311Y-47567779D01*
X50420392Y-48769860D01*
X49960773Y-49229479D01*
X48758692Y-48027398D01*
X48758692Y-48027398D01*
G37*
G36*
X49112245Y-47673845D02*
X49571864Y-47214226D01*
X50773945Y-48416307D01*
X50314326Y-48875926D01*
X49112245Y-47673845D01*
X49112245Y-47673845D01*
G37*
G36*
X49465799Y-47320291D02*
X49925418Y-46860672D01*
X51127499Y-48062753D01*
X50667880Y-48522372D01*
X49465799Y-47320291D01*
X49465799Y-47320291D01*
G37*
G36*
X49819352Y-46966738D02*
X50278971Y-46507119D01*
X51481052Y-47709200D01*
X51021433Y-48168819D01*
X49819352Y-46966738D01*
X49819352Y-46966738D01*
G37*
G36*
X50172905Y-46613185D02*
X50632524Y-46153566D01*
X51834605Y-47355647D01*
X51374986Y-47815266D01*
X50172905Y-46613185D01*
X50172905Y-46613185D01*
G37*
G36*
X50526459Y-46259631D02*
X50986078Y-45800012D01*
X52188159Y-47002093D01*
X51728540Y-47461712D01*
X50526459Y-46259631D01*
X50526459Y-46259631D01*
G37*
G36*
X50880012Y-45906078D02*
X51339631Y-45446459D01*
X52541712Y-46648540D01*
X52082093Y-47108159D01*
X50880012Y-45906078D01*
X50880012Y-45906078D01*
G37*
G36*
X51233566Y-45552524D02*
X51693185Y-45092905D01*
X52895266Y-46294986D01*
X52435647Y-46754605D01*
X51233566Y-45552524D01*
X51233566Y-45552524D01*
G37*
G36*
X51587119Y-45198971D02*
X52046738Y-44739352D01*
X53248819Y-45941433D01*
X52789200Y-46401052D01*
X51587119Y-45198971D01*
X51587119Y-45198971D01*
G37*
G36*
X51940672Y-44845418D02*
X52400291Y-44385799D01*
X53602372Y-45587880D01*
X53142753Y-46047499D01*
X51940672Y-44845418D01*
X51940672Y-44845418D01*
G37*
G36*
X52294226Y-44491864D02*
X52753845Y-44032245D01*
X53955926Y-45234326D01*
X53496307Y-45693945D01*
X52294226Y-44491864D01*
X52294226Y-44491864D01*
G37*
G36*
X52647779Y-44138311D02*
X53107398Y-43678692D01*
X54309479Y-44880773D01*
X53849860Y-45340392D01*
X52647779Y-44138311D01*
X52647779Y-44138311D01*
G37*
G36*
X55370140Y-45340392D02*
X54910521Y-44880773D01*
X56112602Y-43678692D01*
X56572221Y-44138311D01*
X55370140Y-45340392D01*
X55370140Y-45340392D01*
G37*
G36*
X55723693Y-45693945D02*
X55264074Y-45234326D01*
X56466155Y-44032245D01*
X56925774Y-44491864D01*
X55723693Y-45693945D01*
X55723693Y-45693945D01*
G37*
G36*
X56077247Y-46047499D02*
X55617628Y-45587880D01*
X56819709Y-44385799D01*
X57279328Y-44845418D01*
X56077247Y-46047499D01*
X56077247Y-46047499D01*
G37*
G36*
X56430800Y-46401052D02*
X55971181Y-45941433D01*
X57173262Y-44739352D01*
X57632881Y-45198971D01*
X56430800Y-46401052D01*
X56430800Y-46401052D01*
G37*
G36*
X56784353Y-46754605D02*
X56324734Y-46294986D01*
X57526815Y-45092905D01*
X57986434Y-45552524D01*
X56784353Y-46754605D01*
X56784353Y-46754605D01*
G37*
G36*
X57137907Y-47108159D02*
X56678288Y-46648540D01*
X57880369Y-45446459D01*
X58339988Y-45906078D01*
X57137907Y-47108159D01*
X57137907Y-47108159D01*
G37*
G36*
X57491460Y-47461712D02*
X57031841Y-47002093D01*
X58233922Y-45800012D01*
X58693541Y-46259631D01*
X57491460Y-47461712D01*
X57491460Y-47461712D01*
G37*
G36*
X57845014Y-47815266D02*
X57385395Y-47355647D01*
X58587476Y-46153566D01*
X59047095Y-46613185D01*
X57845014Y-47815266D01*
X57845014Y-47815266D01*
G37*
G36*
X58198567Y-48168819D02*
X57738948Y-47709200D01*
X58941029Y-46507119D01*
X59400648Y-46966738D01*
X58198567Y-48168819D01*
X58198567Y-48168819D01*
G37*
G36*
X58552120Y-48522372D02*
X58092501Y-48062753D01*
X59294582Y-46860672D01*
X59754201Y-47320291D01*
X58552120Y-48522372D01*
X58552120Y-48522372D01*
G37*
G36*
X58905674Y-48875926D02*
X58446055Y-48416307D01*
X59648136Y-47214226D01*
X60107755Y-47673845D01*
X58905674Y-48875926D01*
X58905674Y-48875926D01*
G37*
G36*
X59259227Y-49229479D02*
X58799608Y-48769860D01*
X60001689Y-47567779D01*
X60461308Y-48027398D01*
X59259227Y-49229479D01*
X59259227Y-49229479D01*
G37*
G36*
X58799608Y-50290140D02*
X59259227Y-49830521D01*
X60461308Y-51032602D01*
X60001689Y-51492221D01*
X58799608Y-50290140D01*
X58799608Y-50290140D01*
G37*
G36*
X58446055Y-50643693D02*
X58905674Y-50184074D01*
X60107755Y-51386155D01*
X59648136Y-51845774D01*
X58446055Y-50643693D01*
X58446055Y-50643693D01*
G37*
G36*
X58092501Y-50997247D02*
X58552120Y-50537628D01*
X59754201Y-51739709D01*
X59294582Y-52199328D01*
X58092501Y-50997247D01*
X58092501Y-50997247D01*
G37*
G36*
X57738948Y-51350800D02*
X58198567Y-50891181D01*
X59400648Y-52093262D01*
X58941029Y-52552881D01*
X57738948Y-51350800D01*
X57738948Y-51350800D01*
G37*
G36*
X57385395Y-51704353D02*
X57845014Y-51244734D01*
X59047095Y-52446815D01*
X58587476Y-52906434D01*
X57385395Y-51704353D01*
X57385395Y-51704353D01*
G37*
G36*
X57031841Y-52057907D02*
X57491460Y-51598288D01*
X58693541Y-52800369D01*
X58233922Y-53259988D01*
X57031841Y-52057907D01*
X57031841Y-52057907D01*
G37*
G36*
X56678288Y-52411460D02*
X57137907Y-51951841D01*
X58339988Y-53153922D01*
X57880369Y-53613541D01*
X56678288Y-52411460D01*
X56678288Y-52411460D01*
G37*
G36*
X56324734Y-52765014D02*
X56784353Y-52305395D01*
X57986434Y-53507476D01*
X57526815Y-53967095D01*
X56324734Y-52765014D01*
X56324734Y-52765014D01*
G37*
G36*
X55971181Y-53118567D02*
X56430800Y-52658948D01*
X57632881Y-53861029D01*
X57173262Y-54320648D01*
X55971181Y-53118567D01*
X55971181Y-53118567D01*
G37*
G36*
X55617628Y-53472120D02*
X56077247Y-53012501D01*
X57279328Y-54214582D01*
X56819709Y-54674201D01*
X55617628Y-53472120D01*
X55617628Y-53472120D01*
G37*
G36*
X55264074Y-53825674D02*
X55723693Y-53366055D01*
X56925774Y-54568136D01*
X56466155Y-55027755D01*
X55264074Y-53825674D01*
X55264074Y-53825674D01*
G37*
G36*
X54910521Y-54179227D02*
X55370140Y-53719608D01*
X56572221Y-54921689D01*
X56112602Y-55381308D01*
X54910521Y-54179227D01*
X54910521Y-54179227D01*
G37*
D17*
X58293000Y-39530000D03*
X57023000Y-39530000D03*
X55753000Y-39530000D03*
X54483000Y-39530000D03*
X54483000Y-34130000D03*
X55753000Y-34130000D03*
X57023000Y-34130000D03*
X58293000Y-34130000D03*
D18*
X59944000Y-60452000D03*
X58444000Y-60452000D03*
X56944000Y-60452000D03*
X55444000Y-60452000D03*
X53944000Y-60452000D03*
X52444000Y-60452000D03*
D19*
X48260000Y-25400000D03*
D20*
X48260000Y-27940000D03*
D21*
X50292000Y-28078000D03*
X50292000Y-26278000D03*
D22*
X57150000Y-58674000D03*
X58420000Y-58674000D03*
X59690000Y-58674000D03*
D23*
X49276000Y-55950000D03*
X49276000Y-57150000D03*
X49276000Y-58350000D03*
D24*
X53213000Y-39530000D03*
X51943000Y-39530000D03*
X50673000Y-39530000D03*
X49403000Y-39530000D03*
X49403000Y-34130000D03*
X50673000Y-34130000D03*
X51943000Y-34130000D03*
X53213000Y-34130000D03*
D14*
X55118000Y-32512000D03*
X55118000Y-31242000D03*
X55118000Y-29972000D03*
X58166000Y-32512000D03*
X58166000Y-31242000D03*
X58166000Y-29972000D03*
X49784000Y-29972000D03*
X49784000Y-31242000D03*
X49784000Y-32512000D03*
X52070000Y-37465000D03*
X52070000Y-36195000D03*
X50038000Y-36195000D03*
X50038000Y-37465000D03*
D25*
X54118000Y-42672000D03*
X56118000Y-42672000D03*
D26*
X61214000Y-48752000D03*
X61214000Y-46752000D03*
D25*
X53610000Y-56134000D03*
X55610000Y-56134000D03*
D23*
X60198000Y-70542000D03*
X60198000Y-69342000D03*
X60198000Y-68142000D03*
D27*
X54240000Y-62230000D03*
X52440000Y-62230000D03*
D21*
X50292000Y-63638000D03*
X50292000Y-61838000D03*
D28*
X51816000Y-64262000D03*
D29*
X54356000Y-64262000D03*
X56896000Y-64262000D03*
X59436000Y-64262000D03*
D11*
X63500000Y-20320000D03*
D12*
X63500000Y-22860000D03*
X63500000Y-25400000D03*
X63500000Y-27940000D03*
X63500000Y-30480000D03*
X63500000Y-33020000D03*
X63500000Y-35560000D03*
X63500000Y-38100000D03*
X63500000Y-40640000D03*
X63500000Y-43180000D03*
X63500000Y-45720000D03*
X63500000Y-48260000D03*
X63500000Y-50800000D03*
X63500000Y-53340000D03*
X63500000Y-55880000D03*
X63500000Y-58420000D03*
X63500000Y-60960000D03*
X63500000Y-63500000D03*
X63500000Y-66040000D03*
X63500000Y-68580000D03*
X63500000Y-71120000D03*
D30*
X52578000Y-20078700D03*
X52578000Y-21577300D03*
D27*
X51678000Y-23876000D03*
X53478000Y-23876000D03*
D21*
X47752000Y-69988000D03*
X47752000Y-68188000D03*
D30*
X50800000Y-20078700D03*
X50800000Y-21577300D03*
D21*
X49022000Y-21728000D03*
X49022000Y-19928000D03*
D11*
X68580000Y-71120000D03*
D12*
X68580000Y-68580000D03*
X68580000Y-66040000D03*
X68580000Y-63500000D03*
X68580000Y-60960000D03*
X68580000Y-58420000D03*
X68580000Y-55880000D03*
X68580000Y-53340000D03*
X68580000Y-50800000D03*
X68580000Y-48260000D03*
X68580000Y-45720000D03*
X68580000Y-43180000D03*
X68580000Y-40640000D03*
X68580000Y-38100000D03*
X68580000Y-35560000D03*
X68580000Y-33020000D03*
X68580000Y-30480000D03*
X68580000Y-27940000D03*
X68580000Y-25400000D03*
X68580000Y-22860000D03*
X68580000Y-20320000D03*
D13*
X71755000Y-66134000D03*
X73025000Y-66134000D03*
X74295000Y-66134000D03*
X75565000Y-66134000D03*
X76835000Y-66134000D03*
X78105000Y-66134000D03*
X79375000Y-66134000D03*
X80645000Y-66134000D03*
X80645000Y-71534000D03*
X79375000Y-71534000D03*
X78105000Y-71534000D03*
X76835000Y-71534000D03*
X75565000Y-71534000D03*
X74295000Y-71534000D03*
X73025000Y-71534000D03*
X71755000Y-71534000D03*
D14*
X75692000Y-29972000D03*
X75692000Y-31242000D03*
X75692000Y-32512000D03*
D15*
X82550000Y-27940000D03*
X80050000Y-27940000D03*
X77550000Y-27940000D03*
X75050000Y-27940000D03*
D16*
X78800000Y-21440000D03*
D10*
G36*
X75967398Y-55381308D02*
X75507779Y-54921689D01*
X76709860Y-53719608D01*
X77169479Y-54179227D01*
X75967398Y-55381308D01*
X75967398Y-55381308D01*
G37*
G36*
X75613845Y-55027755D02*
X75154226Y-54568136D01*
X76356307Y-53366055D01*
X76815926Y-53825674D01*
X75613845Y-55027755D01*
X75613845Y-55027755D01*
G37*
G36*
X75260291Y-54674201D02*
X74800672Y-54214582D01*
X76002753Y-53012501D01*
X76462372Y-53472120D01*
X75260291Y-54674201D01*
X75260291Y-54674201D01*
G37*
G36*
X74906738Y-54320648D02*
X74447119Y-53861029D01*
X75649200Y-52658948D01*
X76108819Y-53118567D01*
X74906738Y-54320648D01*
X74906738Y-54320648D01*
G37*
G36*
X74553185Y-53967095D02*
X74093566Y-53507476D01*
X75295647Y-52305395D01*
X75755266Y-52765014D01*
X74553185Y-53967095D01*
X74553185Y-53967095D01*
G37*
G36*
X74199631Y-53613541D02*
X73740012Y-53153922D01*
X74942093Y-51951841D01*
X75401712Y-52411460D01*
X74199631Y-53613541D01*
X74199631Y-53613541D01*
G37*
G36*
X73846078Y-53259988D02*
X73386459Y-52800369D01*
X74588540Y-51598288D01*
X75048159Y-52057907D01*
X73846078Y-53259988D01*
X73846078Y-53259988D01*
G37*
G36*
X73492524Y-52906434D02*
X73032905Y-52446815D01*
X74234986Y-51244734D01*
X74694605Y-51704353D01*
X73492524Y-52906434D01*
X73492524Y-52906434D01*
G37*
G36*
X73138971Y-52552881D02*
X72679352Y-52093262D01*
X73881433Y-50891181D01*
X74341052Y-51350800D01*
X73138971Y-52552881D01*
X73138971Y-52552881D01*
G37*
G36*
X72785418Y-52199328D02*
X72325799Y-51739709D01*
X73527880Y-50537628D01*
X73987499Y-50997247D01*
X72785418Y-52199328D01*
X72785418Y-52199328D01*
G37*
G36*
X72431864Y-51845774D02*
X71972245Y-51386155D01*
X73174326Y-50184074D01*
X73633945Y-50643693D01*
X72431864Y-51845774D01*
X72431864Y-51845774D01*
G37*
G36*
X72078311Y-51492221D02*
X71618692Y-51032602D01*
X72820773Y-49830521D01*
X73280392Y-50290140D01*
X72078311Y-51492221D01*
X72078311Y-51492221D01*
G37*
G36*
X71618692Y-48027398D02*
X72078311Y-47567779D01*
X73280392Y-48769860D01*
X72820773Y-49229479D01*
X71618692Y-48027398D01*
X71618692Y-48027398D01*
G37*
G36*
X71972245Y-47673845D02*
X72431864Y-47214226D01*
X73633945Y-48416307D01*
X73174326Y-48875926D01*
X71972245Y-47673845D01*
X71972245Y-47673845D01*
G37*
G36*
X72325799Y-47320291D02*
X72785418Y-46860672D01*
X73987499Y-48062753D01*
X73527880Y-48522372D01*
X72325799Y-47320291D01*
X72325799Y-47320291D01*
G37*
G36*
X72679352Y-46966738D02*
X73138971Y-46507119D01*
X74341052Y-47709200D01*
X73881433Y-48168819D01*
X72679352Y-46966738D01*
X72679352Y-46966738D01*
G37*
G36*
X73032905Y-46613185D02*
X73492524Y-46153566D01*
X74694605Y-47355647D01*
X74234986Y-47815266D01*
X73032905Y-46613185D01*
X73032905Y-46613185D01*
G37*
G36*
X73386459Y-46259631D02*
X73846078Y-45800012D01*
X75048159Y-47002093D01*
X74588540Y-47461712D01*
X73386459Y-46259631D01*
X73386459Y-46259631D01*
G37*
G36*
X73740012Y-45906078D02*
X74199631Y-45446459D01*
X75401712Y-46648540D01*
X74942093Y-47108159D01*
X73740012Y-45906078D01*
X73740012Y-45906078D01*
G37*
G36*
X74093566Y-45552524D02*
X74553185Y-45092905D01*
X75755266Y-46294986D01*
X75295647Y-46754605D01*
X74093566Y-45552524D01*
X74093566Y-45552524D01*
G37*
G36*
X74447119Y-45198971D02*
X74906738Y-44739352D01*
X76108819Y-45941433D01*
X75649200Y-46401052D01*
X74447119Y-45198971D01*
X74447119Y-45198971D01*
G37*
G36*
X74800672Y-44845418D02*
X75260291Y-44385799D01*
X76462372Y-45587880D01*
X76002753Y-46047499D01*
X74800672Y-44845418D01*
X74800672Y-44845418D01*
G37*
G36*
X75154226Y-44491864D02*
X75613845Y-44032245D01*
X76815926Y-45234326D01*
X76356307Y-45693945D01*
X75154226Y-44491864D01*
X75154226Y-44491864D01*
G37*
G36*
X75507779Y-44138311D02*
X75967398Y-43678692D01*
X77169479Y-44880773D01*
X76709860Y-45340392D01*
X75507779Y-44138311D01*
X75507779Y-44138311D01*
G37*
G36*
X78230140Y-45340392D02*
X77770521Y-44880773D01*
X78972602Y-43678692D01*
X79432221Y-44138311D01*
X78230140Y-45340392D01*
X78230140Y-45340392D01*
G37*
G36*
X78583693Y-45693945D02*
X78124074Y-45234326D01*
X79326155Y-44032245D01*
X79785774Y-44491864D01*
X78583693Y-45693945D01*
X78583693Y-45693945D01*
G37*
G36*
X78937247Y-46047499D02*
X78477628Y-45587880D01*
X79679709Y-44385799D01*
X80139328Y-44845418D01*
X78937247Y-46047499D01*
X78937247Y-46047499D01*
G37*
G36*
X79290800Y-46401052D02*
X78831181Y-45941433D01*
X80033262Y-44739352D01*
X80492881Y-45198971D01*
X79290800Y-46401052D01*
X79290800Y-46401052D01*
G37*
G36*
X79644353Y-46754605D02*
X79184734Y-46294986D01*
X80386815Y-45092905D01*
X80846434Y-45552524D01*
X79644353Y-46754605D01*
X79644353Y-46754605D01*
G37*
G36*
X79997907Y-47108159D02*
X79538288Y-46648540D01*
X80740369Y-45446459D01*
X81199988Y-45906078D01*
X79997907Y-47108159D01*
X79997907Y-47108159D01*
G37*
G36*
X80351460Y-47461712D02*
X79891841Y-47002093D01*
X81093922Y-45800012D01*
X81553541Y-46259631D01*
X80351460Y-47461712D01*
X80351460Y-47461712D01*
G37*
G36*
X80705014Y-47815266D02*
X80245395Y-47355647D01*
X81447476Y-46153566D01*
X81907095Y-46613185D01*
X80705014Y-47815266D01*
X80705014Y-47815266D01*
G37*
G36*
X81058567Y-48168819D02*
X80598948Y-47709200D01*
X81801029Y-46507119D01*
X82260648Y-46966738D01*
X81058567Y-48168819D01*
X81058567Y-48168819D01*
G37*
G36*
X81412120Y-48522372D02*
X80952501Y-48062753D01*
X82154582Y-46860672D01*
X82614201Y-47320291D01*
X81412120Y-48522372D01*
X81412120Y-48522372D01*
G37*
G36*
X81765674Y-48875926D02*
X81306055Y-48416307D01*
X82508136Y-47214226D01*
X82967755Y-47673845D01*
X81765674Y-48875926D01*
X81765674Y-48875926D01*
G37*
G36*
X82119227Y-49229479D02*
X81659608Y-48769860D01*
X82861689Y-47567779D01*
X83321308Y-48027398D01*
X82119227Y-49229479D01*
X82119227Y-49229479D01*
G37*
G36*
X81659608Y-50290140D02*
X82119227Y-49830521D01*
X83321308Y-51032602D01*
X82861689Y-51492221D01*
X81659608Y-50290140D01*
X81659608Y-50290140D01*
G37*
G36*
X81306055Y-50643693D02*
X81765674Y-50184074D01*
X82967755Y-51386155D01*
X82508136Y-51845774D01*
X81306055Y-50643693D01*
X81306055Y-50643693D01*
G37*
G36*
X80952501Y-50997247D02*
X81412120Y-50537628D01*
X82614201Y-51739709D01*
X82154582Y-52199328D01*
X80952501Y-50997247D01*
X80952501Y-50997247D01*
G37*
G36*
X80598948Y-51350800D02*
X81058567Y-50891181D01*
X82260648Y-52093262D01*
X81801029Y-52552881D01*
X80598948Y-51350800D01*
X80598948Y-51350800D01*
G37*
G36*
X80245395Y-51704353D02*
X80705014Y-51244734D01*
X81907095Y-52446815D01*
X81447476Y-52906434D01*
X80245395Y-51704353D01*
X80245395Y-51704353D01*
G37*
G36*
X79891841Y-52057907D02*
X80351460Y-51598288D01*
X81553541Y-52800369D01*
X81093922Y-53259988D01*
X79891841Y-52057907D01*
X79891841Y-52057907D01*
G37*
G36*
X79538288Y-52411460D02*
X79997907Y-51951841D01*
X81199988Y-53153922D01*
X80740369Y-53613541D01*
X79538288Y-52411460D01*
X79538288Y-52411460D01*
G37*
G36*
X79184734Y-52765014D02*
X79644353Y-52305395D01*
X80846434Y-53507476D01*
X80386815Y-53967095D01*
X79184734Y-52765014D01*
X79184734Y-52765014D01*
G37*
G36*
X78831181Y-53118567D02*
X79290800Y-52658948D01*
X80492881Y-53861029D01*
X80033262Y-54320648D01*
X78831181Y-53118567D01*
X78831181Y-53118567D01*
G37*
G36*
X78477628Y-53472120D02*
X78937247Y-53012501D01*
X80139328Y-54214582D01*
X79679709Y-54674201D01*
X78477628Y-53472120D01*
X78477628Y-53472120D01*
G37*
G36*
X78124074Y-53825674D02*
X78583693Y-53366055D01*
X79785774Y-54568136D01*
X79326155Y-55027755D01*
X78124074Y-53825674D01*
X78124074Y-53825674D01*
G37*
G36*
X77770521Y-54179227D02*
X78230140Y-53719608D01*
X79432221Y-54921689D01*
X78972602Y-55381308D01*
X77770521Y-54179227D01*
X77770521Y-54179227D01*
G37*
D17*
X81153000Y-39530000D03*
X79883000Y-39530000D03*
X78613000Y-39530000D03*
X77343000Y-39530000D03*
X77343000Y-34130000D03*
X78613000Y-34130000D03*
X79883000Y-34130000D03*
X81153000Y-34130000D03*
D18*
X82804000Y-60452000D03*
X81304000Y-60452000D03*
X79804000Y-60452000D03*
X78304000Y-60452000D03*
X76804000Y-60452000D03*
X75304000Y-60452000D03*
D19*
X71120000Y-25400000D03*
D20*
X71120000Y-27940000D03*
D21*
X73152000Y-28078000D03*
X73152000Y-26278000D03*
D22*
X80010000Y-58674000D03*
X81280000Y-58674000D03*
X82550000Y-58674000D03*
D23*
X72136000Y-55950000D03*
X72136000Y-57150000D03*
X72136000Y-58350000D03*
D24*
X76073000Y-39530000D03*
X74803000Y-39530000D03*
X73533000Y-39530000D03*
X72263000Y-39530000D03*
X72263000Y-34130000D03*
X73533000Y-34130000D03*
X74803000Y-34130000D03*
X76073000Y-34130000D03*
D14*
X77978000Y-32512000D03*
X77978000Y-31242000D03*
X77978000Y-29972000D03*
X81026000Y-32512000D03*
X81026000Y-31242000D03*
X81026000Y-29972000D03*
X72644000Y-29972000D03*
X72644000Y-31242000D03*
X72644000Y-32512000D03*
X74930000Y-37465000D03*
X74930000Y-36195000D03*
X72898000Y-36195000D03*
X72898000Y-37465000D03*
D25*
X76978000Y-42672000D03*
X78978000Y-42672000D03*
D26*
X84074000Y-48752000D03*
X84074000Y-46752000D03*
D25*
X76470000Y-56134000D03*
X78470000Y-56134000D03*
D23*
X83058000Y-70542000D03*
X83058000Y-69342000D03*
X83058000Y-68142000D03*
D27*
X77100000Y-62230000D03*
X75300000Y-62230000D03*
D21*
X73152000Y-63638000D03*
X73152000Y-61838000D03*
D28*
X74676000Y-64262000D03*
D29*
X77216000Y-64262000D03*
X79756000Y-64262000D03*
X82296000Y-64262000D03*
D11*
X86360000Y-20320000D03*
D12*
X86360000Y-22860000D03*
X86360000Y-25400000D03*
X86360000Y-27940000D03*
X86360000Y-30480000D03*
X86360000Y-33020000D03*
X86360000Y-35560000D03*
X86360000Y-38100000D03*
X86360000Y-40640000D03*
X86360000Y-43180000D03*
X86360000Y-45720000D03*
X86360000Y-48260000D03*
X86360000Y-50800000D03*
X86360000Y-53340000D03*
X86360000Y-55880000D03*
X86360000Y-58420000D03*
X86360000Y-60960000D03*
X86360000Y-63500000D03*
X86360000Y-66040000D03*
X86360000Y-68580000D03*
X86360000Y-71120000D03*
D30*
X75438000Y-20078700D03*
X75438000Y-21577300D03*
D27*
X74538000Y-23876000D03*
X76338000Y-23876000D03*
D21*
X70612000Y-69988000D03*
X70612000Y-68188000D03*
D30*
X73660000Y-20078700D03*
X73660000Y-21577300D03*
D21*
X71882000Y-21728000D03*
X71882000Y-19928000D03*
D11*
X91440000Y-71120000D03*
D12*
X91440000Y-68580000D03*
X91440000Y-66040000D03*
X91440000Y-63500000D03*
X91440000Y-60960000D03*
X91440000Y-58420000D03*
X91440000Y-55880000D03*
X91440000Y-53340000D03*
X91440000Y-50800000D03*
X91440000Y-48260000D03*
X91440000Y-45720000D03*
X91440000Y-43180000D03*
X91440000Y-40640000D03*
X91440000Y-38100000D03*
X91440000Y-35560000D03*
X91440000Y-33020000D03*
X91440000Y-30480000D03*
X91440000Y-27940000D03*
X91440000Y-25400000D03*
X91440000Y-22860000D03*
X91440000Y-20320000D03*
D13*
X94615000Y-66134000D03*
X95885000Y-66134000D03*
X97155000Y-66134000D03*
X98425000Y-66134000D03*
X99695000Y-66134000D03*
X100965000Y-66134000D03*
X102235000Y-66134000D03*
X103505000Y-66134000D03*
X103505000Y-71534000D03*
X102235000Y-71534000D03*
X100965000Y-71534000D03*
X99695000Y-71534000D03*
X98425000Y-71534000D03*
X97155000Y-71534000D03*
X95885000Y-71534000D03*
X94615000Y-71534000D03*
D14*
X98552000Y-29972000D03*
X98552000Y-31242000D03*
X98552000Y-32512000D03*
D15*
X105410000Y-27940000D03*
X102910000Y-27940000D03*
X100410000Y-27940000D03*
X97910000Y-27940000D03*
D16*
X101660000Y-21440000D03*
D10*
G36*
X98827398Y-55381308D02*
X98367779Y-54921689D01*
X99569860Y-53719608D01*
X100029479Y-54179227D01*
X98827398Y-55381308D01*
X98827398Y-55381308D01*
G37*
G36*
X98473845Y-55027755D02*
X98014226Y-54568136D01*
X99216307Y-53366055D01*
X99675926Y-53825674D01*
X98473845Y-55027755D01*
X98473845Y-55027755D01*
G37*
G36*
X98120291Y-54674201D02*
X97660672Y-54214582D01*
X98862753Y-53012501D01*
X99322372Y-53472120D01*
X98120291Y-54674201D01*
X98120291Y-54674201D01*
G37*
G36*
X97766738Y-54320648D02*
X97307119Y-53861029D01*
X98509200Y-52658948D01*
X98968819Y-53118567D01*
X97766738Y-54320648D01*
X97766738Y-54320648D01*
G37*
G36*
X97413185Y-53967095D02*
X96953566Y-53507476D01*
X98155647Y-52305395D01*
X98615266Y-52765014D01*
X97413185Y-53967095D01*
X97413185Y-53967095D01*
G37*
G36*
X97059631Y-53613541D02*
X96600012Y-53153922D01*
X97802093Y-51951841D01*
X98261712Y-52411460D01*
X97059631Y-53613541D01*
X97059631Y-53613541D01*
G37*
G36*
X96706078Y-53259988D02*
X96246459Y-52800369D01*
X97448540Y-51598288D01*
X97908159Y-52057907D01*
X96706078Y-53259988D01*
X96706078Y-53259988D01*
G37*
G36*
X96352524Y-52906434D02*
X95892905Y-52446815D01*
X97094986Y-51244734D01*
X97554605Y-51704353D01*
X96352524Y-52906434D01*
X96352524Y-52906434D01*
G37*
G36*
X95998971Y-52552881D02*
X95539352Y-52093262D01*
X96741433Y-50891181D01*
X97201052Y-51350800D01*
X95998971Y-52552881D01*
X95998971Y-52552881D01*
G37*
G36*
X95645418Y-52199328D02*
X95185799Y-51739709D01*
X96387880Y-50537628D01*
X96847499Y-50997247D01*
X95645418Y-52199328D01*
X95645418Y-52199328D01*
G37*
G36*
X95291864Y-51845774D02*
X94832245Y-51386155D01*
X96034326Y-50184074D01*
X96493945Y-50643693D01*
X95291864Y-51845774D01*
X95291864Y-51845774D01*
G37*
G36*
X94938311Y-51492221D02*
X94478692Y-51032602D01*
X95680773Y-49830521D01*
X96140392Y-50290140D01*
X94938311Y-51492221D01*
X94938311Y-51492221D01*
G37*
G36*
X94478692Y-48027398D02*
X94938311Y-47567779D01*
X96140392Y-48769860D01*
X95680773Y-49229479D01*
X94478692Y-48027398D01*
X94478692Y-48027398D01*
G37*
G36*
X94832245Y-47673845D02*
X95291864Y-47214226D01*
X96493945Y-48416307D01*
X96034326Y-48875926D01*
X94832245Y-47673845D01*
X94832245Y-47673845D01*
G37*
G36*
X95185799Y-47320291D02*
X95645418Y-46860672D01*
X96847499Y-48062753D01*
X96387880Y-48522372D01*
X95185799Y-47320291D01*
X95185799Y-47320291D01*
G37*
G36*
X95539352Y-46966738D02*
X95998971Y-46507119D01*
X97201052Y-47709200D01*
X96741433Y-48168819D01*
X95539352Y-46966738D01*
X95539352Y-46966738D01*
G37*
G36*
X95892905Y-46613185D02*
X96352524Y-46153566D01*
X97554605Y-47355647D01*
X97094986Y-47815266D01*
X95892905Y-46613185D01*
X95892905Y-46613185D01*
G37*
G36*
X96246459Y-46259631D02*
X96706078Y-45800012D01*
X97908159Y-47002093D01*
X97448540Y-47461712D01*
X96246459Y-46259631D01*
X96246459Y-46259631D01*
G37*
G36*
X96600012Y-45906078D02*
X97059631Y-45446459D01*
X98261712Y-46648540D01*
X97802093Y-47108159D01*
X96600012Y-45906078D01*
X96600012Y-45906078D01*
G37*
G36*
X96953566Y-45552524D02*
X97413185Y-45092905D01*
X98615266Y-46294986D01*
X98155647Y-46754605D01*
X96953566Y-45552524D01*
X96953566Y-45552524D01*
G37*
G36*
X97307119Y-45198971D02*
X97766738Y-44739352D01*
X98968819Y-45941433D01*
X98509200Y-46401052D01*
X97307119Y-45198971D01*
X97307119Y-45198971D01*
G37*
G36*
X97660672Y-44845418D02*
X98120291Y-44385799D01*
X99322372Y-45587880D01*
X98862753Y-46047499D01*
X97660672Y-44845418D01*
X97660672Y-44845418D01*
G37*
G36*
X98014226Y-44491864D02*
X98473845Y-44032245D01*
X99675926Y-45234326D01*
X99216307Y-45693945D01*
X98014226Y-44491864D01*
X98014226Y-44491864D01*
G37*
G36*
X98367779Y-44138311D02*
X98827398Y-43678692D01*
X100029479Y-44880773D01*
X99569860Y-45340392D01*
X98367779Y-44138311D01*
X98367779Y-44138311D01*
G37*
G36*
X101090140Y-45340392D02*
X100630521Y-44880773D01*
X101832602Y-43678692D01*
X102292221Y-44138311D01*
X101090140Y-45340392D01*
X101090140Y-45340392D01*
G37*
G36*
X101443693Y-45693945D02*
X100984074Y-45234326D01*
X102186155Y-44032245D01*
X102645774Y-44491864D01*
X101443693Y-45693945D01*
X101443693Y-45693945D01*
G37*
G36*
X101797247Y-46047499D02*
X101337628Y-45587880D01*
X102539709Y-44385799D01*
X102999328Y-44845418D01*
X101797247Y-46047499D01*
X101797247Y-46047499D01*
G37*
G36*
X102150800Y-46401052D02*
X101691181Y-45941433D01*
X102893262Y-44739352D01*
X103352881Y-45198971D01*
X102150800Y-46401052D01*
X102150800Y-46401052D01*
G37*
G36*
X102504353Y-46754605D02*
X102044734Y-46294986D01*
X103246815Y-45092905D01*
X103706434Y-45552524D01*
X102504353Y-46754605D01*
X102504353Y-46754605D01*
G37*
G36*
X102857907Y-47108159D02*
X102398288Y-46648540D01*
X103600369Y-45446459D01*
X104059988Y-45906078D01*
X102857907Y-47108159D01*
X102857907Y-47108159D01*
G37*
G36*
X103211460Y-47461712D02*
X102751841Y-47002093D01*
X103953922Y-45800012D01*
X104413541Y-46259631D01*
X103211460Y-47461712D01*
X103211460Y-47461712D01*
G37*
G36*
X103565014Y-47815266D02*
X103105395Y-47355647D01*
X104307476Y-46153566D01*
X104767095Y-46613185D01*
X103565014Y-47815266D01*
X103565014Y-47815266D01*
G37*
G36*
X103918567Y-48168819D02*
X103458948Y-47709200D01*
X104661029Y-46507119D01*
X105120648Y-46966738D01*
X103918567Y-48168819D01*
X103918567Y-48168819D01*
G37*
G36*
X104272120Y-48522372D02*
X103812501Y-48062753D01*
X105014582Y-46860672D01*
X105474201Y-47320291D01*
X104272120Y-48522372D01*
X104272120Y-48522372D01*
G37*
G36*
X104625674Y-48875926D02*
X104166055Y-48416307D01*
X105368136Y-47214226D01*
X105827755Y-47673845D01*
X104625674Y-48875926D01*
X104625674Y-48875926D01*
G37*
G36*
X104979227Y-49229479D02*
X104519608Y-48769860D01*
X105721689Y-47567779D01*
X106181308Y-48027398D01*
X104979227Y-49229479D01*
X104979227Y-49229479D01*
G37*
G36*
X104519608Y-50290140D02*
X104979227Y-49830521D01*
X106181308Y-51032602D01*
X105721689Y-51492221D01*
X104519608Y-50290140D01*
X104519608Y-50290140D01*
G37*
G36*
X104166055Y-50643693D02*
X104625674Y-50184074D01*
X105827755Y-51386155D01*
X105368136Y-51845774D01*
X104166055Y-50643693D01*
X104166055Y-50643693D01*
G37*
G36*
X103812501Y-50997247D02*
X104272120Y-50537628D01*
X105474201Y-51739709D01*
X105014582Y-52199328D01*
X103812501Y-50997247D01*
X103812501Y-50997247D01*
G37*
G36*
X103458948Y-51350800D02*
X103918567Y-50891181D01*
X105120648Y-52093262D01*
X104661029Y-52552881D01*
X103458948Y-51350800D01*
X103458948Y-51350800D01*
G37*
G36*
X103105395Y-51704353D02*
X103565014Y-51244734D01*
X104767095Y-52446815D01*
X104307476Y-52906434D01*
X103105395Y-51704353D01*
X103105395Y-51704353D01*
G37*
G36*
X102751841Y-52057907D02*
X103211460Y-51598288D01*
X104413541Y-52800369D01*
X103953922Y-53259988D01*
X102751841Y-52057907D01*
X102751841Y-52057907D01*
G37*
G36*
X102398288Y-52411460D02*
X102857907Y-51951841D01*
X104059988Y-53153922D01*
X103600369Y-53613541D01*
X102398288Y-52411460D01*
X102398288Y-52411460D01*
G37*
G36*
X102044734Y-52765014D02*
X102504353Y-52305395D01*
X103706434Y-53507476D01*
X103246815Y-53967095D01*
X102044734Y-52765014D01*
X102044734Y-52765014D01*
G37*
G36*
X101691181Y-53118567D02*
X102150800Y-52658948D01*
X103352881Y-53861029D01*
X102893262Y-54320648D01*
X101691181Y-53118567D01*
X101691181Y-53118567D01*
G37*
G36*
X101337628Y-53472120D02*
X101797247Y-53012501D01*
X102999328Y-54214582D01*
X102539709Y-54674201D01*
X101337628Y-53472120D01*
X101337628Y-53472120D01*
G37*
G36*
X100984074Y-53825674D02*
X101443693Y-53366055D01*
X102645774Y-54568136D01*
X102186155Y-55027755D01*
X100984074Y-53825674D01*
X100984074Y-53825674D01*
G37*
G36*
X100630521Y-54179227D02*
X101090140Y-53719608D01*
X102292221Y-54921689D01*
X101832602Y-55381308D01*
X100630521Y-54179227D01*
X100630521Y-54179227D01*
G37*
D17*
X104013000Y-39530000D03*
X102743000Y-39530000D03*
X101473000Y-39530000D03*
X100203000Y-39530000D03*
X100203000Y-34130000D03*
X101473000Y-34130000D03*
X102743000Y-34130000D03*
X104013000Y-34130000D03*
D18*
X105664000Y-60452000D03*
X104164000Y-60452000D03*
X102664000Y-60452000D03*
X101164000Y-60452000D03*
X99664000Y-60452000D03*
X98164000Y-60452000D03*
D19*
X93980000Y-25400000D03*
D20*
X93980000Y-27940000D03*
D21*
X96012000Y-28078000D03*
X96012000Y-26278000D03*
D22*
X102870000Y-58674000D03*
X104140000Y-58674000D03*
X105410000Y-58674000D03*
D23*
X94996000Y-55950000D03*
X94996000Y-57150000D03*
X94996000Y-58350000D03*
D24*
X98933000Y-39530000D03*
X97663000Y-39530000D03*
X96393000Y-39530000D03*
X95123000Y-39530000D03*
X95123000Y-34130000D03*
X96393000Y-34130000D03*
X97663000Y-34130000D03*
X98933000Y-34130000D03*
D14*
X100838000Y-32512000D03*
X100838000Y-31242000D03*
X100838000Y-29972000D03*
X103886000Y-32512000D03*
X103886000Y-31242000D03*
X103886000Y-29972000D03*
X95504000Y-29972000D03*
X95504000Y-31242000D03*
X95504000Y-32512000D03*
X97790000Y-37465000D03*
X97790000Y-36195000D03*
X95758000Y-36195000D03*
X95758000Y-37465000D03*
D25*
X99838000Y-42672000D03*
X101838000Y-42672000D03*
D26*
X106934000Y-48752000D03*
X106934000Y-46752000D03*
D25*
X99330000Y-56134000D03*
X101330000Y-56134000D03*
D23*
X105918000Y-70542000D03*
X105918000Y-69342000D03*
X105918000Y-68142000D03*
D27*
X99960000Y-62230000D03*
X98160000Y-62230000D03*
D21*
X96012000Y-63638000D03*
X96012000Y-61838000D03*
D28*
X97536000Y-64262000D03*
D29*
X100076000Y-64262000D03*
X102616000Y-64262000D03*
X105156000Y-64262000D03*
D11*
X109220000Y-20320000D03*
D12*
X109220000Y-22860000D03*
X109220000Y-25400000D03*
X109220000Y-27940000D03*
X109220000Y-30480000D03*
X109220000Y-33020000D03*
X109220000Y-35560000D03*
X109220000Y-38100000D03*
X109220000Y-40640000D03*
X109220000Y-43180000D03*
X109220000Y-45720000D03*
X109220000Y-48260000D03*
X109220000Y-50800000D03*
X109220000Y-53340000D03*
X109220000Y-55880000D03*
X109220000Y-58420000D03*
X109220000Y-60960000D03*
X109220000Y-63500000D03*
X109220000Y-66040000D03*
X109220000Y-68580000D03*
X109220000Y-71120000D03*
D30*
X98298000Y-20078700D03*
X98298000Y-21577300D03*
D27*
X97398000Y-23876000D03*
X99198000Y-23876000D03*
D21*
X93472000Y-69988000D03*
X93472000Y-68188000D03*
D30*
X96520000Y-20078700D03*
X96520000Y-21577300D03*
D21*
X94742000Y-21728000D03*
X94742000Y-19928000D03*
M02*
