G04 #@! TF.FileFunction,Soldermask,Top*
%FSLAX46Y46*%
G04 Gerber Fmt 4.6, Leading zero omitted, Abs format (unit mm)*
G04 Created by KiCad (PCBNEW 4.0.7) date 10/26/17 16:00:21*
%MOMM*%
%LPD*%
G01*
G04 APERTURE LIST*
%ADD10C,0.100000*%
%ADD11C,0.010000*%
%ADD12R,1.727200X2.032000*%
%ADD13O,1.727200X2.032000*%
%ADD14R,1.300000X1.300000*%
%ADD15C,1.300000*%
%ADD16O,1.500000X2.500000*%
%ADD17O,1.000000X1.524000*%
%ADD18R,1.800000X2.600000*%
%ADD19R,1.198880X1.198880*%
%ADD20R,1.500000X1.300000*%
%ADD21O,1.524000X1.000000*%
%ADD22R,0.250000X1.300000*%
%ADD23R,1.300000X0.250000*%
%ADD24R,2.032000X1.727200*%
%ADD25O,2.032000X1.727200*%
%ADD26R,0.800100X1.200000*%
%ADD27O,2.500000X1.500000*%
%ADD28R,1.500000X2.600000*%
%ADD29R,2.600000X1.500000*%
%ADD30R,0.600000X1.000000*%
%ADD31R,1.000000X0.600000*%
%ADD32R,1.800000X1.400000*%
%ADD33R,1.400000X1.800000*%
%ADD34R,1.300000X0.600000*%
%ADD35C,1.524000*%
%ADD36O,1.200000X2.000000*%
%ADD37R,2.000000X1.500000*%
%ADD38O,2.000000X1.500000*%
%ADD39R,1.200000X0.800100*%
%ADD40C,0.026000*%
G04 APERTURE END LIST*
D10*
D11*
G36*
X74903549Y-51177021D02*
X74923742Y-51176000D01*
X75032030Y-51220175D01*
X75195484Y-51331504D01*
X75268456Y-51390765D01*
X75431508Y-51520557D01*
X75551125Y-51598619D01*
X75578497Y-51608480D01*
X75663895Y-51569212D01*
X75823586Y-51464650D01*
X75969933Y-51357429D01*
X76225512Y-51181334D01*
X76393441Y-51113075D01*
X76481366Y-51151014D01*
X76499429Y-51244063D01*
X76439445Y-51373020D01*
X76277539Y-51537584D01*
X76168156Y-51622598D01*
X75984359Y-51760701D01*
X75904703Y-51846513D01*
X75912174Y-51907668D01*
X75964312Y-51953679D01*
X76132892Y-52024496D01*
X76295585Y-52046858D01*
X76448636Y-52073251D01*
X76498643Y-52169103D01*
X76499429Y-52192000D01*
X76490578Y-52254362D01*
X76447654Y-52295754D01*
X76346103Y-52320447D01*
X76161368Y-52332710D01*
X75868895Y-52336815D01*
X75664857Y-52337143D01*
X75306275Y-52335604D01*
X75068271Y-52328139D01*
X74926290Y-52310478D01*
X74855775Y-52278350D01*
X74832172Y-52227485D01*
X74830286Y-52192000D01*
X74850824Y-52102940D01*
X74936589Y-52059033D01*
X75123813Y-52044732D01*
X75175000Y-52044069D01*
X75519715Y-52041281D01*
X75174410Y-51735641D01*
X74973959Y-51532121D01*
X74855899Y-51357560D01*
X74829379Y-51232384D01*
X74903549Y-51177021D01*
X74903549Y-51177021D01*
G37*
X74903549Y-51177021D02*
X74923742Y-51176000D01*
X75032030Y-51220175D01*
X75195484Y-51331504D01*
X75268456Y-51390765D01*
X75431508Y-51520557D01*
X75551125Y-51598619D01*
X75578497Y-51608480D01*
X75663895Y-51569212D01*
X75823586Y-51464650D01*
X75969933Y-51357429D01*
X76225512Y-51181334D01*
X76393441Y-51113075D01*
X76481366Y-51151014D01*
X76499429Y-51244063D01*
X76439445Y-51373020D01*
X76277539Y-51537584D01*
X76168156Y-51622598D01*
X75984359Y-51760701D01*
X75904703Y-51846513D01*
X75912174Y-51907668D01*
X75964312Y-51953679D01*
X76132892Y-52024496D01*
X76295585Y-52046858D01*
X76448636Y-52073251D01*
X76498643Y-52169103D01*
X76499429Y-52192000D01*
X76490578Y-52254362D01*
X76447654Y-52295754D01*
X76346103Y-52320447D01*
X76161368Y-52332710D01*
X75868895Y-52336815D01*
X75664857Y-52337143D01*
X75306275Y-52335604D01*
X75068271Y-52328139D01*
X74926290Y-52310478D01*
X74855775Y-52278350D01*
X74832172Y-52227485D01*
X74830286Y-52192000D01*
X74850824Y-52102940D01*
X74936589Y-52059033D01*
X75123813Y-52044732D01*
X75175000Y-52044069D01*
X75519715Y-52041281D01*
X75174410Y-51735641D01*
X74973959Y-51532121D01*
X74855899Y-51357560D01*
X74829379Y-51232384D01*
X74903549Y-51177021D01*
G36*
X75286667Y-50007139D02*
X75329065Y-49854374D01*
X75356429Y-49821228D01*
X75475914Y-49781705D01*
X75685371Y-49741453D01*
X75846286Y-49719983D01*
X76089336Y-49689948D01*
X76282669Y-49660525D01*
X76354286Y-49645752D01*
X76417531Y-49691619D01*
X76463134Y-49842840D01*
X76489798Y-50060551D01*
X76496224Y-50305886D01*
X76481116Y-50539981D01*
X76443174Y-50723970D01*
X76393198Y-50810963D01*
X76223481Y-50885869D01*
X76148717Y-50890350D01*
X76148717Y-50595429D01*
X76192287Y-50535485D01*
X76199302Y-50393020D01*
X76176390Y-50224080D01*
X76130182Y-50084713D01*
X76082143Y-50032562D01*
X76010931Y-50068071D01*
X75991429Y-50184303D01*
X76016637Y-50411509D01*
X76082719Y-50559251D01*
X76148717Y-50595429D01*
X76148717Y-50890350D01*
X76018376Y-50898163D01*
X75852856Y-50845496D01*
X75832640Y-50828526D01*
X75779441Y-50714897D01*
X75733285Y-50516351D01*
X75719788Y-50420312D01*
X75679042Y-50202444D01*
X75628436Y-50100680D01*
X75582933Y-50122224D01*
X75557491Y-50274283D01*
X75556000Y-50341429D01*
X75574228Y-50509315D01*
X75619048Y-50593235D01*
X75628572Y-50595429D01*
X75687535Y-50656211D01*
X75701143Y-50740572D01*
X75648030Y-50855242D01*
X75522968Y-50884874D01*
X75377372Y-50820899D01*
X75352800Y-50798629D01*
X75300530Y-50675482D01*
X75272210Y-50468588D01*
X75267652Y-50228842D01*
X75286667Y-50007139D01*
X75286667Y-50007139D01*
G37*
X75286667Y-50007139D02*
X75329065Y-49854374D01*
X75356429Y-49821228D01*
X75475914Y-49781705D01*
X75685371Y-49741453D01*
X75846286Y-49719983D01*
X76089336Y-49689948D01*
X76282669Y-49660525D01*
X76354286Y-49645752D01*
X76417531Y-49691619D01*
X76463134Y-49842840D01*
X76489798Y-50060551D01*
X76496224Y-50305886D01*
X76481116Y-50539981D01*
X76443174Y-50723970D01*
X76393198Y-50810963D01*
X76223481Y-50885869D01*
X76148717Y-50890350D01*
X76148717Y-50595429D01*
X76192287Y-50535485D01*
X76199302Y-50393020D01*
X76176390Y-50224080D01*
X76130182Y-50084713D01*
X76082143Y-50032562D01*
X76010931Y-50068071D01*
X75991429Y-50184303D01*
X76016637Y-50411509D01*
X76082719Y-50559251D01*
X76148717Y-50595429D01*
X76148717Y-50890350D01*
X76018376Y-50898163D01*
X75852856Y-50845496D01*
X75832640Y-50828526D01*
X75779441Y-50714897D01*
X75733285Y-50516351D01*
X75719788Y-50420312D01*
X75679042Y-50202444D01*
X75628436Y-50100680D01*
X75582933Y-50122224D01*
X75557491Y-50274283D01*
X75556000Y-50341429D01*
X75574228Y-50509315D01*
X75619048Y-50593235D01*
X75628572Y-50595429D01*
X75687535Y-50656211D01*
X75701143Y-50740572D01*
X75648030Y-50855242D01*
X75522968Y-50884874D01*
X75377372Y-50820899D01*
X75352800Y-50798629D01*
X75300530Y-50675482D01*
X75272210Y-50468588D01*
X75267652Y-50228842D01*
X75286667Y-50007139D01*
G36*
X75280417Y-49210594D02*
X75345903Y-49166801D01*
X75494246Y-49147896D01*
X75737429Y-49144000D01*
X75999137Y-49131135D01*
X76158187Y-49099094D01*
X76204491Y-49057708D01*
X76127958Y-49016811D01*
X75918497Y-48986235D01*
X75900715Y-48984887D01*
X75701640Y-48957964D01*
X75611086Y-48902447D01*
X75592286Y-48817429D01*
X75618891Y-48721822D01*
X75722942Y-48671680D01*
X75900715Y-48649971D01*
X76118895Y-48620479D01*
X76203610Y-48580169D01*
X76165082Y-48538704D01*
X76013537Y-48505748D01*
X75759198Y-48490966D01*
X75732382Y-48490858D01*
X75477562Y-48487463D01*
X75337109Y-48470131D01*
X75280280Y-48428137D01*
X75276334Y-48350759D01*
X75278810Y-48332640D01*
X75301976Y-48250067D01*
X75362936Y-48204599D01*
X75494620Y-48187578D01*
X75729958Y-48190346D01*
X75809355Y-48193133D01*
X76076599Y-48212854D01*
X76291367Y-48246652D01*
X76407559Y-48287247D01*
X76408069Y-48287665D01*
X76460614Y-48403760D01*
X76490809Y-48612581D01*
X76498450Y-48863411D01*
X76483332Y-49105533D01*
X76445251Y-49288231D01*
X76412343Y-49347200D01*
X76291390Y-49394614D01*
X76059563Y-49425153D01*
X75795486Y-49434286D01*
X75521684Y-49430675D01*
X75362506Y-49414280D01*
X75287499Y-49376759D01*
X75266213Y-49309768D01*
X75265715Y-49289143D01*
X75280417Y-49210594D01*
X75280417Y-49210594D01*
G37*
X75280417Y-49210594D02*
X75345903Y-49166801D01*
X75494246Y-49147896D01*
X75737429Y-49144000D01*
X75999137Y-49131135D01*
X76158187Y-49099094D01*
X76204491Y-49057708D01*
X76127958Y-49016811D01*
X75918497Y-48986235D01*
X75900715Y-48984887D01*
X75701640Y-48957964D01*
X75611086Y-48902447D01*
X75592286Y-48817429D01*
X75618891Y-48721822D01*
X75722942Y-48671680D01*
X75900715Y-48649971D01*
X76118895Y-48620479D01*
X76203610Y-48580169D01*
X76165082Y-48538704D01*
X76013537Y-48505748D01*
X75759198Y-48490966D01*
X75732382Y-48490858D01*
X75477562Y-48487463D01*
X75337109Y-48470131D01*
X75280280Y-48428137D01*
X75276334Y-48350759D01*
X75278810Y-48332640D01*
X75301976Y-48250067D01*
X75362936Y-48204599D01*
X75494620Y-48187578D01*
X75729958Y-48190346D01*
X75809355Y-48193133D01*
X76076599Y-48212854D01*
X76291367Y-48246652D01*
X76407559Y-48287247D01*
X76408069Y-48287665D01*
X76460614Y-48403760D01*
X76490809Y-48612581D01*
X76498450Y-48863411D01*
X76483332Y-49105533D01*
X76445251Y-49288231D01*
X76412343Y-49347200D01*
X76291390Y-49394614D01*
X76059563Y-49425153D01*
X75795486Y-49434286D01*
X75521684Y-49430675D01*
X75362506Y-49414280D01*
X75287499Y-49376759D01*
X75266213Y-49309768D01*
X75265715Y-49289143D01*
X75280417Y-49210594D01*
G36*
X75286667Y-47104282D02*
X75329065Y-46951517D01*
X75356429Y-46918371D01*
X75475914Y-46878848D01*
X75685371Y-46838596D01*
X75846286Y-46817126D01*
X76089336Y-46787091D01*
X76282669Y-46757668D01*
X76354286Y-46742895D01*
X76417531Y-46788761D01*
X76463134Y-46939983D01*
X76489798Y-47157693D01*
X76496224Y-47403029D01*
X76481116Y-47637124D01*
X76443174Y-47821113D01*
X76393198Y-47908106D01*
X76223481Y-47983012D01*
X76148717Y-47987493D01*
X76148717Y-47692572D01*
X76192287Y-47632628D01*
X76199302Y-47490163D01*
X76176390Y-47321223D01*
X76130182Y-47181856D01*
X76082143Y-47129705D01*
X76010931Y-47165214D01*
X75991429Y-47281446D01*
X76016637Y-47508652D01*
X76082719Y-47656394D01*
X76148717Y-47692572D01*
X76148717Y-47987493D01*
X76018376Y-47995306D01*
X75852856Y-47942639D01*
X75832640Y-47925669D01*
X75779441Y-47812039D01*
X75733285Y-47613494D01*
X75719788Y-47517454D01*
X75679042Y-47299587D01*
X75628436Y-47197823D01*
X75582933Y-47219367D01*
X75557491Y-47371426D01*
X75556000Y-47438572D01*
X75574228Y-47606458D01*
X75619048Y-47690378D01*
X75628572Y-47692572D01*
X75687535Y-47753354D01*
X75701143Y-47837715D01*
X75648030Y-47952385D01*
X75522968Y-47982017D01*
X75377372Y-47918042D01*
X75352800Y-47895772D01*
X75300530Y-47772625D01*
X75272210Y-47565731D01*
X75267652Y-47325985D01*
X75286667Y-47104282D01*
X75286667Y-47104282D01*
G37*
X75286667Y-47104282D02*
X75329065Y-46951517D01*
X75356429Y-46918371D01*
X75475914Y-46878848D01*
X75685371Y-46838596D01*
X75846286Y-46817126D01*
X76089336Y-46787091D01*
X76282669Y-46757668D01*
X76354286Y-46742895D01*
X76417531Y-46788761D01*
X76463134Y-46939983D01*
X76489798Y-47157693D01*
X76496224Y-47403029D01*
X76481116Y-47637124D01*
X76443174Y-47821113D01*
X76393198Y-47908106D01*
X76223481Y-47983012D01*
X76148717Y-47987493D01*
X76148717Y-47692572D01*
X76192287Y-47632628D01*
X76199302Y-47490163D01*
X76176390Y-47321223D01*
X76130182Y-47181856D01*
X76082143Y-47129705D01*
X76010931Y-47165214D01*
X75991429Y-47281446D01*
X76016637Y-47508652D01*
X76082719Y-47656394D01*
X76148717Y-47692572D01*
X76148717Y-47987493D01*
X76018376Y-47995306D01*
X75852856Y-47942639D01*
X75832640Y-47925669D01*
X75779441Y-47812039D01*
X75733285Y-47613494D01*
X75719788Y-47517454D01*
X75679042Y-47299587D01*
X75628436Y-47197823D01*
X75582933Y-47219367D01*
X75557491Y-47371426D01*
X75556000Y-47438572D01*
X75574228Y-47606458D01*
X75619048Y-47690378D01*
X75628572Y-47692572D01*
X75687535Y-47753354D01*
X75701143Y-47837715D01*
X75648030Y-47952385D01*
X75522968Y-47982017D01*
X75377372Y-47918042D01*
X75352800Y-47895772D01*
X75300530Y-47772625D01*
X75272210Y-47565731D01*
X75267652Y-47325985D01*
X75286667Y-47104282D01*
G36*
X75290257Y-45645283D02*
X75366827Y-45450169D01*
X75499839Y-45372569D01*
X75534863Y-45370286D01*
X75587031Y-45406218D01*
X75602894Y-45531200D01*
X75585466Y-45771009D01*
X75583654Y-45787572D01*
X75564984Y-46027781D01*
X75578078Y-46136179D01*
X75614724Y-46132286D01*
X75666647Y-46019889D01*
X75705954Y-45822946D01*
X75714705Y-45734490D01*
X75742422Y-45523073D01*
X75804700Y-45408483D01*
X75928050Y-45342628D01*
X75931376Y-45341459D01*
X76127896Y-45315550D01*
X76312376Y-45396213D01*
X76418818Y-45482637D01*
X76475146Y-45593217D01*
X76496738Y-45773473D01*
X76499429Y-45949977D01*
X76490461Y-46206120D01*
X76456412Y-46356484D01*
X76386567Y-46439721D01*
X76359057Y-46456304D01*
X76211801Y-46517589D01*
X76141343Y-46531429D01*
X76079730Y-46474834D01*
X76067423Y-46352434D01*
X76105461Y-46235304D01*
X76136572Y-46204857D01*
X76195540Y-46104547D01*
X76212394Y-45943401D01*
X76191059Y-45780293D01*
X76135462Y-45674102D01*
X76100286Y-45660572D01*
X76022869Y-45710964D01*
X75992588Y-45875917D01*
X75991429Y-45936987D01*
X75945465Y-46225483D01*
X75817585Y-46412891D01*
X75622804Y-46485470D01*
X75429000Y-46451660D01*
X75335914Y-46399622D01*
X75286660Y-46305945D01*
X75267893Y-46131076D01*
X75265715Y-45967710D01*
X75290257Y-45645283D01*
X75290257Y-45645283D01*
G37*
X75290257Y-45645283D02*
X75366827Y-45450169D01*
X75499839Y-45372569D01*
X75534863Y-45370286D01*
X75587031Y-45406218D01*
X75602894Y-45531200D01*
X75585466Y-45771009D01*
X75583654Y-45787572D01*
X75564984Y-46027781D01*
X75578078Y-46136179D01*
X75614724Y-46132286D01*
X75666647Y-46019889D01*
X75705954Y-45822946D01*
X75714705Y-45734490D01*
X75742422Y-45523073D01*
X75804700Y-45408483D01*
X75928050Y-45342628D01*
X75931376Y-45341459D01*
X76127896Y-45315550D01*
X76312376Y-45396213D01*
X76418818Y-45482637D01*
X76475146Y-45593217D01*
X76496738Y-45773473D01*
X76499429Y-45949977D01*
X76490461Y-46206120D01*
X76456412Y-46356484D01*
X76386567Y-46439721D01*
X76359057Y-46456304D01*
X76211801Y-46517589D01*
X76141343Y-46531429D01*
X76079730Y-46474834D01*
X76067423Y-46352434D01*
X76105461Y-46235304D01*
X76136572Y-46204857D01*
X76195540Y-46104547D01*
X76212394Y-45943401D01*
X76191059Y-45780293D01*
X76135462Y-45674102D01*
X76100286Y-45660572D01*
X76022869Y-45710964D01*
X75992588Y-45875917D01*
X75991429Y-45936987D01*
X75945465Y-46225483D01*
X75817585Y-46412891D01*
X75622804Y-46485470D01*
X75429000Y-46451660D01*
X75335914Y-46399622D01*
X75286660Y-46305945D01*
X75267893Y-46131076D01*
X75265715Y-45967710D01*
X75290257Y-45645283D01*
G36*
X75286667Y-44201425D02*
X75329065Y-44048660D01*
X75356429Y-44015514D01*
X75475914Y-43975991D01*
X75685371Y-43935739D01*
X75846286Y-43914268D01*
X76089336Y-43884233D01*
X76282669Y-43854811D01*
X76354286Y-43840038D01*
X76417531Y-43885904D01*
X76463134Y-44037125D01*
X76489798Y-44254836D01*
X76496224Y-44500172D01*
X76481116Y-44734266D01*
X76443174Y-44918256D01*
X76393198Y-45005249D01*
X76223481Y-45080155D01*
X76148717Y-45084636D01*
X76148717Y-44789715D01*
X76192287Y-44729771D01*
X76199302Y-44587305D01*
X76176390Y-44418365D01*
X76130182Y-44278998D01*
X76082143Y-44226848D01*
X76010931Y-44262356D01*
X75991429Y-44378589D01*
X76016637Y-44605795D01*
X76082719Y-44753537D01*
X76148717Y-44789715D01*
X76148717Y-45084636D01*
X76018376Y-45092449D01*
X75852856Y-45039782D01*
X75832640Y-45022812D01*
X75779441Y-44909182D01*
X75733285Y-44710636D01*
X75719788Y-44614597D01*
X75679042Y-44396730D01*
X75628436Y-44294966D01*
X75582933Y-44316510D01*
X75557491Y-44468568D01*
X75556000Y-44535715D01*
X75574228Y-44703601D01*
X75619048Y-44787521D01*
X75628572Y-44789715D01*
X75687535Y-44850497D01*
X75701143Y-44934857D01*
X75648030Y-45049528D01*
X75522968Y-45079160D01*
X75377372Y-45015184D01*
X75352800Y-44992915D01*
X75300530Y-44869767D01*
X75272210Y-44662873D01*
X75267652Y-44423128D01*
X75286667Y-44201425D01*
X75286667Y-44201425D01*
G37*
X75286667Y-44201425D02*
X75329065Y-44048660D01*
X75356429Y-44015514D01*
X75475914Y-43975991D01*
X75685371Y-43935739D01*
X75846286Y-43914268D01*
X76089336Y-43884233D01*
X76282669Y-43854811D01*
X76354286Y-43840038D01*
X76417531Y-43885904D01*
X76463134Y-44037125D01*
X76489798Y-44254836D01*
X76496224Y-44500172D01*
X76481116Y-44734266D01*
X76443174Y-44918256D01*
X76393198Y-45005249D01*
X76223481Y-45080155D01*
X76148717Y-45084636D01*
X76148717Y-44789715D01*
X76192287Y-44729771D01*
X76199302Y-44587305D01*
X76176390Y-44418365D01*
X76130182Y-44278998D01*
X76082143Y-44226848D01*
X76010931Y-44262356D01*
X75991429Y-44378589D01*
X76016637Y-44605795D01*
X76082719Y-44753537D01*
X76148717Y-44789715D01*
X76148717Y-45084636D01*
X76018376Y-45092449D01*
X75852856Y-45039782D01*
X75832640Y-45022812D01*
X75779441Y-44909182D01*
X75733285Y-44710636D01*
X75719788Y-44614597D01*
X75679042Y-44396730D01*
X75628436Y-44294966D01*
X75582933Y-44316510D01*
X75557491Y-44468568D01*
X75556000Y-44535715D01*
X75574228Y-44703601D01*
X75619048Y-44787521D01*
X75628572Y-44789715D01*
X75687535Y-44850497D01*
X75701143Y-44934857D01*
X75648030Y-45049528D01*
X75522968Y-45079160D01*
X75377372Y-45015184D01*
X75352800Y-44992915D01*
X75300530Y-44869767D01*
X75272210Y-44662873D01*
X75267652Y-44423128D01*
X75286667Y-44201425D01*
G36*
X74697877Y-43409525D02*
X74756036Y-43366012D01*
X74889556Y-43344989D01*
X75128373Y-43338554D01*
X75235084Y-43338286D01*
X75785025Y-43338286D01*
X75525370Y-43034938D01*
X75356417Y-42803085D01*
X75274670Y-42620183D01*
X75274584Y-42503764D01*
X75350613Y-42471361D01*
X75497212Y-42540507D01*
X75643085Y-42662762D01*
X75846970Y-42858096D01*
X76085940Y-42626477D01*
X76247636Y-42486939D01*
X76377509Y-42404431D01*
X76412170Y-42394857D01*
X76492866Y-42442632D01*
X76482021Y-42566691D01*
X76388110Y-42738140D01*
X76270361Y-42878286D01*
X76133136Y-43034526D01*
X76091917Y-43136519D01*
X76131456Y-43223232D01*
X76134104Y-43226455D01*
X76277003Y-43321263D01*
X76363172Y-43338286D01*
X76477921Y-43393735D01*
X76499429Y-43483429D01*
X76491167Y-43543663D01*
X76450662Y-43584449D01*
X76354336Y-43609557D01*
X76178610Y-43622761D01*
X75899907Y-43627834D01*
X75592286Y-43628572D01*
X75215820Y-43627250D01*
X74960913Y-43620769D01*
X74803985Y-43605357D01*
X74721459Y-43577241D01*
X74689757Y-43532648D01*
X74685143Y-43483429D01*
X74697877Y-43409525D01*
X74697877Y-43409525D01*
G37*
X74697877Y-43409525D02*
X74756036Y-43366012D01*
X74889556Y-43344989D01*
X75128373Y-43338554D01*
X75235084Y-43338286D01*
X75785025Y-43338286D01*
X75525370Y-43034938D01*
X75356417Y-42803085D01*
X75274670Y-42620183D01*
X75274584Y-42503764D01*
X75350613Y-42471361D01*
X75497212Y-42540507D01*
X75643085Y-42662762D01*
X75846970Y-42858096D01*
X76085940Y-42626477D01*
X76247636Y-42486939D01*
X76377509Y-42404431D01*
X76412170Y-42394857D01*
X76492866Y-42442632D01*
X76482021Y-42566691D01*
X76388110Y-42738140D01*
X76270361Y-42878286D01*
X76133136Y-43034526D01*
X76091917Y-43136519D01*
X76131456Y-43223232D01*
X76134104Y-43226455D01*
X76277003Y-43321263D01*
X76363172Y-43338286D01*
X76477921Y-43393735D01*
X76499429Y-43483429D01*
X76491167Y-43543663D01*
X76450662Y-43584449D01*
X76354336Y-43609557D01*
X76178610Y-43622761D01*
X75899907Y-43627834D01*
X75592286Y-43628572D01*
X75215820Y-43627250D01*
X74960913Y-43620769D01*
X74803985Y-43605357D01*
X74721459Y-43577241D01*
X74689757Y-43532648D01*
X74685143Y-43483429D01*
X74697877Y-43409525D01*
G36*
X75277537Y-41756313D02*
X75279383Y-41729755D01*
X75302000Y-41415143D01*
X75755572Y-41393537D01*
X76006227Y-41375900D01*
X76143832Y-41345570D01*
X76200476Y-41290996D01*
X76209143Y-41230252D01*
X76262146Y-41111416D01*
X76354286Y-41088572D01*
X76432835Y-41103274D01*
X76476628Y-41168760D01*
X76495533Y-41317104D01*
X76499429Y-41560286D01*
X76494905Y-41815570D01*
X76474755Y-41957897D01*
X76429111Y-42019339D01*
X76354286Y-42032000D01*
X76240470Y-41989479D01*
X76209143Y-41850572D01*
X76195324Y-41737973D01*
X76127766Y-41685052D01*
X75967322Y-41669719D01*
X75887619Y-41669143D01*
X75683847Y-41679317D01*
X75583329Y-41722796D01*
X75544843Y-41819020D01*
X75542905Y-41831688D01*
X75473000Y-41970327D01*
X75388240Y-42019299D01*
X75307263Y-42015257D01*
X75274601Y-41938871D01*
X75277537Y-41756313D01*
X75277537Y-41756313D01*
G37*
X75277537Y-41756313D02*
X75279383Y-41729755D01*
X75302000Y-41415143D01*
X75755572Y-41393537D01*
X76006227Y-41375900D01*
X76143832Y-41345570D01*
X76200476Y-41290996D01*
X76209143Y-41230252D01*
X76262146Y-41111416D01*
X76354286Y-41088572D01*
X76432835Y-41103274D01*
X76476628Y-41168760D01*
X76495533Y-41317104D01*
X76499429Y-41560286D01*
X76494905Y-41815570D01*
X76474755Y-41957897D01*
X76429111Y-42019339D01*
X76354286Y-42032000D01*
X76240470Y-41989479D01*
X76209143Y-41850572D01*
X76195324Y-41737973D01*
X76127766Y-41685052D01*
X75967322Y-41669719D01*
X75887619Y-41669143D01*
X75683847Y-41679317D01*
X75583329Y-41722796D01*
X75544843Y-41819020D01*
X75542905Y-41831688D01*
X75473000Y-41970327D01*
X75388240Y-42019299D01*
X75307263Y-42015257D01*
X75274601Y-41938871D01*
X75277537Y-41756313D01*
G36*
X74836245Y-39147937D02*
X74861010Y-38977701D01*
X74914917Y-38873313D01*
X74991577Y-38806687D01*
X75246716Y-38702400D01*
X75501512Y-38742316D01*
X75604848Y-38801381D01*
X75721001Y-38862627D01*
X75852123Y-38868462D01*
X76054575Y-38819847D01*
X76088872Y-38809638D01*
X76318171Y-38750766D01*
X76442945Y-38754741D01*
X76492939Y-38829292D01*
X76499429Y-38916286D01*
X76450889Y-39009475D01*
X76291073Y-39086436D01*
X76136572Y-39129143D01*
X75918303Y-39191606D01*
X75809228Y-39258898D01*
X75774739Y-39355554D01*
X75773715Y-39386405D01*
X75790123Y-39491008D01*
X75864286Y-39546120D01*
X76033610Y-39572611D01*
X76118429Y-39578738D01*
X76332445Y-39602527D01*
X76440879Y-39651228D01*
X76483205Y-39744733D01*
X76486333Y-39764143D01*
X76491225Y-39833972D01*
X76466327Y-39880372D01*
X76387702Y-39908130D01*
X76231411Y-39922034D01*
X75973518Y-39926870D01*
X75669905Y-39927429D01*
X75302000Y-39927429D01*
X75302000Y-39564572D01*
X75424693Y-39545595D01*
X75474921Y-39460196D01*
X75483429Y-39310572D01*
X75469874Y-39138802D01*
X75408875Y-39068483D01*
X75302000Y-39056572D01*
X75179308Y-39075549D01*
X75129080Y-39160947D01*
X75120572Y-39310572D01*
X75134127Y-39482342D01*
X75195126Y-39552661D01*
X75302000Y-39564572D01*
X75302000Y-39927429D01*
X74830286Y-39927429D01*
X74830286Y-39423544D01*
X74836245Y-39147937D01*
X74836245Y-39147937D01*
G37*
X74836245Y-39147937D02*
X74861010Y-38977701D01*
X74914917Y-38873313D01*
X74991577Y-38806687D01*
X75246716Y-38702400D01*
X75501512Y-38742316D01*
X75604848Y-38801381D01*
X75721001Y-38862627D01*
X75852123Y-38868462D01*
X76054575Y-38819847D01*
X76088872Y-38809638D01*
X76318171Y-38750766D01*
X76442945Y-38754741D01*
X76492939Y-38829292D01*
X76499429Y-38916286D01*
X76450889Y-39009475D01*
X76291073Y-39086436D01*
X76136572Y-39129143D01*
X75918303Y-39191606D01*
X75809228Y-39258898D01*
X75774739Y-39355554D01*
X75773715Y-39386405D01*
X75790123Y-39491008D01*
X75864286Y-39546120D01*
X76033610Y-39572611D01*
X76118429Y-39578738D01*
X76332445Y-39602527D01*
X76440879Y-39651228D01*
X76483205Y-39744733D01*
X76486333Y-39764143D01*
X76491225Y-39833972D01*
X76466327Y-39880372D01*
X76387702Y-39908130D01*
X76231411Y-39922034D01*
X75973518Y-39926870D01*
X75669905Y-39927429D01*
X75302000Y-39927429D01*
X75302000Y-39564572D01*
X75424693Y-39545595D01*
X75474921Y-39460196D01*
X75483429Y-39310572D01*
X75469874Y-39138802D01*
X75408875Y-39068483D01*
X75302000Y-39056572D01*
X75179308Y-39075549D01*
X75129080Y-39160947D01*
X75120572Y-39310572D01*
X75134127Y-39482342D01*
X75195126Y-39552661D01*
X75302000Y-39564572D01*
X75302000Y-39927429D01*
X74830286Y-39927429D01*
X74830286Y-39423544D01*
X74836245Y-39147937D01*
G36*
X75300099Y-37553745D02*
X75415196Y-37361286D01*
X75628920Y-37263853D01*
X75882572Y-37242286D01*
X76187970Y-37276671D01*
X76380429Y-37391768D01*
X76477862Y-37605492D01*
X76499429Y-37859143D01*
X76488069Y-38105108D01*
X76443952Y-38254057D01*
X76352018Y-38353031D01*
X76338138Y-38363028D01*
X76159836Y-38437102D01*
X75927194Y-38474794D01*
X75882572Y-38476000D01*
X75882572Y-38113143D01*
X76083232Y-38107721D01*
X76178250Y-38070972D01*
X76207129Y-37972174D01*
X76209143Y-37859143D01*
X76202172Y-37703075D01*
X76154923Y-37629171D01*
X76027897Y-37606710D01*
X75882572Y-37605143D01*
X75681912Y-37610566D01*
X75586893Y-37647314D01*
X75558015Y-37746112D01*
X75556000Y-37859143D01*
X75562972Y-38015212D01*
X75610220Y-38089115D01*
X75737246Y-38111576D01*
X75882572Y-38113143D01*
X75882572Y-38476000D01*
X75577173Y-38441616D01*
X75384714Y-38326519D01*
X75287281Y-38112795D01*
X75265715Y-37859143D01*
X75300099Y-37553745D01*
X75300099Y-37553745D01*
G37*
X75300099Y-37553745D02*
X75415196Y-37361286D01*
X75628920Y-37263853D01*
X75882572Y-37242286D01*
X76187970Y-37276671D01*
X76380429Y-37391768D01*
X76477862Y-37605492D01*
X76499429Y-37859143D01*
X76488069Y-38105108D01*
X76443952Y-38254057D01*
X76352018Y-38353031D01*
X76338138Y-38363028D01*
X76159836Y-38437102D01*
X75927194Y-38474794D01*
X75882572Y-38476000D01*
X75882572Y-38113143D01*
X76083232Y-38107721D01*
X76178250Y-38070972D01*
X76207129Y-37972174D01*
X76209143Y-37859143D01*
X76202172Y-37703075D01*
X76154923Y-37629171D01*
X76027897Y-37606710D01*
X75882572Y-37605143D01*
X75681912Y-37610566D01*
X75586893Y-37647314D01*
X75558015Y-37746112D01*
X75556000Y-37859143D01*
X75562972Y-38015212D01*
X75610220Y-38089115D01*
X75737246Y-38111576D01*
X75882572Y-38113143D01*
X75882572Y-38476000D01*
X75577173Y-38441616D01*
X75384714Y-38326519D01*
X75287281Y-38112795D01*
X75265715Y-37859143D01*
X75300099Y-37553745D01*
G36*
X74697251Y-36868297D02*
X74698239Y-36861286D01*
X74744608Y-36747111D01*
X74868516Y-36691459D01*
X74993572Y-36675477D01*
X75162386Y-36654152D01*
X75241213Y-36598864D01*
X75264329Y-36466716D01*
X75265715Y-36334878D01*
X75286139Y-36103359D01*
X75360473Y-35960505D01*
X75427005Y-35903830D01*
X75650251Y-35817207D01*
X75932219Y-35795820D01*
X76201976Y-35839668D01*
X76338138Y-35903830D01*
X76425023Y-35983301D01*
X76473962Y-36094949D01*
X76495290Y-36278297D01*
X76499429Y-36520687D01*
X76499429Y-37024572D01*
X75882572Y-37024572D01*
X75882572Y-36661715D01*
X76083232Y-36656292D01*
X76178250Y-36619544D01*
X76207129Y-36520746D01*
X76209143Y-36407715D01*
X76202172Y-36251646D01*
X76154923Y-36177742D01*
X76027897Y-36155281D01*
X75882572Y-36153715D01*
X75681912Y-36159137D01*
X75586893Y-36195886D01*
X75558015Y-36294684D01*
X75556000Y-36407715D01*
X75562972Y-36563783D01*
X75610220Y-36637687D01*
X75737246Y-36660148D01*
X75882572Y-36661715D01*
X75882572Y-37024572D01*
X75587239Y-37024572D01*
X75210363Y-37023755D01*
X74955605Y-37018485D01*
X74799940Y-37004534D01*
X74720343Y-36977671D01*
X74693788Y-36933669D01*
X74697251Y-36868297D01*
X74697251Y-36868297D01*
G37*
X74697251Y-36868297D02*
X74698239Y-36861286D01*
X74744608Y-36747111D01*
X74868516Y-36691459D01*
X74993572Y-36675477D01*
X75162386Y-36654152D01*
X75241213Y-36598864D01*
X75264329Y-36466716D01*
X75265715Y-36334878D01*
X75286139Y-36103359D01*
X75360473Y-35960505D01*
X75427005Y-35903830D01*
X75650251Y-35817207D01*
X75932219Y-35795820D01*
X76201976Y-35839668D01*
X76338138Y-35903830D01*
X76425023Y-35983301D01*
X76473962Y-36094949D01*
X76495290Y-36278297D01*
X76499429Y-36520687D01*
X76499429Y-37024572D01*
X75882572Y-37024572D01*
X75882572Y-36661715D01*
X76083232Y-36656292D01*
X76178250Y-36619544D01*
X76207129Y-36520746D01*
X76209143Y-36407715D01*
X76202172Y-36251646D01*
X76154923Y-36177742D01*
X76027897Y-36155281D01*
X75882572Y-36153715D01*
X75681912Y-36159137D01*
X75586893Y-36195886D01*
X75558015Y-36294684D01*
X75556000Y-36407715D01*
X75562972Y-36563783D01*
X75610220Y-36637687D01*
X75737246Y-36660148D01*
X75882572Y-36661715D01*
X75882572Y-37024572D01*
X75587239Y-37024572D01*
X75210363Y-37023755D01*
X74955605Y-37018485D01*
X74799940Y-37004534D01*
X74720343Y-36977671D01*
X74693788Y-36933669D01*
X74697251Y-36868297D01*
G36*
X75300099Y-34650887D02*
X75415196Y-34458429D01*
X75628920Y-34360996D01*
X75882572Y-34339429D01*
X76187970Y-34373814D01*
X76380429Y-34488911D01*
X76477862Y-34702635D01*
X76499429Y-34956286D01*
X76488069Y-35202251D01*
X76443952Y-35351200D01*
X76352018Y-35450174D01*
X76338138Y-35460171D01*
X76159836Y-35534245D01*
X75927194Y-35571937D01*
X75882572Y-35573143D01*
X75882572Y-35210286D01*
X76083232Y-35204864D01*
X76178250Y-35168115D01*
X76207129Y-35069317D01*
X76209143Y-34956286D01*
X76202172Y-34800217D01*
X76154923Y-34726314D01*
X76027897Y-34703853D01*
X75882572Y-34702286D01*
X75681912Y-34707708D01*
X75586893Y-34744457D01*
X75558015Y-34843255D01*
X75556000Y-34956286D01*
X75562972Y-35112355D01*
X75610220Y-35186258D01*
X75737246Y-35208719D01*
X75882572Y-35210286D01*
X75882572Y-35573143D01*
X75577173Y-35538759D01*
X75384714Y-35423661D01*
X75287281Y-35209938D01*
X75265715Y-34956286D01*
X75300099Y-34650887D01*
X75300099Y-34650887D01*
G37*
X75300099Y-34650887D02*
X75415196Y-34458429D01*
X75628920Y-34360996D01*
X75882572Y-34339429D01*
X76187970Y-34373814D01*
X76380429Y-34488911D01*
X76477862Y-34702635D01*
X76499429Y-34956286D01*
X76488069Y-35202251D01*
X76443952Y-35351200D01*
X76352018Y-35450174D01*
X76338138Y-35460171D01*
X76159836Y-35534245D01*
X75927194Y-35571937D01*
X75882572Y-35573143D01*
X75882572Y-35210286D01*
X76083232Y-35204864D01*
X76178250Y-35168115D01*
X76207129Y-35069317D01*
X76209143Y-34956286D01*
X76202172Y-34800217D01*
X76154923Y-34726314D01*
X76027897Y-34703853D01*
X75882572Y-34702286D01*
X75681912Y-34707708D01*
X75586893Y-34744457D01*
X75558015Y-34843255D01*
X75556000Y-34956286D01*
X75562972Y-35112355D01*
X75610220Y-35186258D01*
X75737246Y-35208719D01*
X75882572Y-35210286D01*
X75882572Y-35573143D01*
X75577173Y-35538759D01*
X75384714Y-35423661D01*
X75287281Y-35209938D01*
X75265715Y-34956286D01*
X75300099Y-34650887D01*
G36*
X74773848Y-33595209D02*
X74850676Y-33549538D01*
X75006667Y-33541143D01*
X75179043Y-33530633D01*
X75250664Y-33469674D01*
X75265630Y-33314119D01*
X75265715Y-33281822D01*
X75279893Y-33107939D01*
X75334151Y-33044868D01*
X75392715Y-33046559D01*
X75500772Y-33137951D01*
X75542456Y-33305880D01*
X75566077Y-33451411D01*
X75627901Y-33519739D01*
X75770573Y-33539969D01*
X75887170Y-33541143D01*
X76086892Y-33533370D01*
X76180828Y-33495355D01*
X76208103Y-33405049D01*
X76209143Y-33359715D01*
X76184301Y-33223330D01*
X76136572Y-33178286D01*
X76077609Y-33117504D01*
X76064000Y-33033143D01*
X76117114Y-32918473D01*
X76242176Y-32888841D01*
X76387771Y-32952816D01*
X76412343Y-32975086D01*
X76477471Y-33119905D01*
X76498534Y-33336269D01*
X76477490Y-33560481D01*
X76416302Y-33728846D01*
X76388164Y-33760856D01*
X76252791Y-33822002D01*
X76035789Y-33872183D01*
X75916450Y-33887832D01*
X75667025Y-33931518D01*
X75560368Y-34000939D01*
X75556000Y-34022091D01*
X75495513Y-34102888D01*
X75410858Y-34121715D01*
X75293187Y-34078308D01*
X75265715Y-34017456D01*
X75198869Y-33933070D01*
X75029858Y-33890456D01*
X74853577Y-33847074D01*
X74778604Y-33743881D01*
X74770810Y-33704429D01*
X74773848Y-33595209D01*
X74773848Y-33595209D01*
G37*
X74773848Y-33595209D02*
X74850676Y-33549538D01*
X75006667Y-33541143D01*
X75179043Y-33530633D01*
X75250664Y-33469674D01*
X75265630Y-33314119D01*
X75265715Y-33281822D01*
X75279893Y-33107939D01*
X75334151Y-33044868D01*
X75392715Y-33046559D01*
X75500772Y-33137951D01*
X75542456Y-33305880D01*
X75566077Y-33451411D01*
X75627901Y-33519739D01*
X75770573Y-33539969D01*
X75887170Y-33541143D01*
X76086892Y-33533370D01*
X76180828Y-33495355D01*
X76208103Y-33405049D01*
X76209143Y-33359715D01*
X76184301Y-33223330D01*
X76136572Y-33178286D01*
X76077609Y-33117504D01*
X76064000Y-33033143D01*
X76117114Y-32918473D01*
X76242176Y-32888841D01*
X76387771Y-32952816D01*
X76412343Y-32975086D01*
X76477471Y-33119905D01*
X76498534Y-33336269D01*
X76477490Y-33560481D01*
X76416302Y-33728846D01*
X76388164Y-33760856D01*
X76252791Y-33822002D01*
X76035789Y-33872183D01*
X75916450Y-33887832D01*
X75667025Y-33931518D01*
X75560368Y-34000939D01*
X75556000Y-34022091D01*
X75495513Y-34102888D01*
X75410858Y-34121715D01*
X75293187Y-34078308D01*
X75265715Y-34017456D01*
X75198869Y-33933070D01*
X75029858Y-33890456D01*
X74853577Y-33847074D01*
X74778604Y-33743881D01*
X74770810Y-33704429D01*
X74773848Y-33595209D01*
G36*
X74864227Y-30971543D02*
X74956265Y-30762257D01*
X75091724Y-30656586D01*
X75226726Y-30663493D01*
X75325321Y-30758536D01*
X75316670Y-30881404D01*
X75229429Y-30954816D01*
X75147095Y-31059810D01*
X75120572Y-31252866D01*
X75120572Y-31509143D01*
X76209143Y-31509143D01*
X76209143Y-31252866D01*
X76177965Y-31047067D01*
X76100286Y-30954816D01*
X76003453Y-30860039D01*
X76014383Y-30737145D01*
X76102989Y-30663493D01*
X76263356Y-30666243D01*
X76392494Y-30791021D01*
X76475725Y-31015660D01*
X76499429Y-31262276D01*
X76487491Y-31506543D01*
X76441373Y-31654486D01*
X76345618Y-31753712D01*
X76338138Y-31759028D01*
X76137342Y-31835325D01*
X75808440Y-31869642D01*
X75664857Y-31872000D01*
X75301227Y-31856489D01*
X75058228Y-31799126D01*
X74913626Y-31683667D01*
X74845185Y-31493867D01*
X74830286Y-31262276D01*
X74864227Y-30971543D01*
X74864227Y-30971543D01*
G37*
X74864227Y-30971543D02*
X74956265Y-30762257D01*
X75091724Y-30656586D01*
X75226726Y-30663493D01*
X75325321Y-30758536D01*
X75316670Y-30881404D01*
X75229429Y-30954816D01*
X75147095Y-31059810D01*
X75120572Y-31252866D01*
X75120572Y-31509143D01*
X76209143Y-31509143D01*
X76209143Y-31252866D01*
X76177965Y-31047067D01*
X76100286Y-30954816D01*
X76003453Y-30860039D01*
X76014383Y-30737145D01*
X76102989Y-30663493D01*
X76263356Y-30666243D01*
X76392494Y-30791021D01*
X76475725Y-31015660D01*
X76499429Y-31262276D01*
X76487491Y-31506543D01*
X76441373Y-31654486D01*
X76345618Y-31753712D01*
X76338138Y-31759028D01*
X76137342Y-31835325D01*
X75808440Y-31869642D01*
X75664857Y-31872000D01*
X75301227Y-31856489D01*
X75058228Y-31799126D01*
X74913626Y-31683667D01*
X74845185Y-31493867D01*
X74830286Y-31262276D01*
X74864227Y-30971543D01*
G36*
X75300099Y-29498316D02*
X75415196Y-29305857D01*
X75628920Y-29208424D01*
X75882572Y-29186857D01*
X76187970Y-29221242D01*
X76380429Y-29336339D01*
X76477862Y-29550063D01*
X76499429Y-29803715D01*
X76488069Y-30049680D01*
X76443952Y-30198628D01*
X76352018Y-30297602D01*
X76338138Y-30307600D01*
X76159836Y-30381674D01*
X75927194Y-30419366D01*
X75882572Y-30420572D01*
X75882572Y-30057715D01*
X76083232Y-30052292D01*
X76178250Y-30015544D01*
X76207129Y-29916746D01*
X76209143Y-29803715D01*
X76202172Y-29647646D01*
X76154923Y-29573742D01*
X76027897Y-29551281D01*
X75882572Y-29549715D01*
X75681912Y-29555137D01*
X75586893Y-29591886D01*
X75558015Y-29690684D01*
X75556000Y-29803715D01*
X75562972Y-29959783D01*
X75610220Y-30033687D01*
X75737246Y-30056148D01*
X75882572Y-30057715D01*
X75882572Y-30420572D01*
X75577173Y-30386187D01*
X75384714Y-30271090D01*
X75287281Y-30057366D01*
X75265715Y-29803715D01*
X75300099Y-29498316D01*
X75300099Y-29498316D01*
G37*
X75300099Y-29498316D02*
X75415196Y-29305857D01*
X75628920Y-29208424D01*
X75882572Y-29186857D01*
X76187970Y-29221242D01*
X76380429Y-29336339D01*
X76477862Y-29550063D01*
X76499429Y-29803715D01*
X76488069Y-30049680D01*
X76443952Y-30198628D01*
X76352018Y-30297602D01*
X76338138Y-30307600D01*
X76159836Y-30381674D01*
X75927194Y-30419366D01*
X75882572Y-30420572D01*
X75882572Y-30057715D01*
X76083232Y-30052292D01*
X76178250Y-30015544D01*
X76207129Y-29916746D01*
X76209143Y-29803715D01*
X76202172Y-29647646D01*
X76154923Y-29573742D01*
X76027897Y-29551281D01*
X75882572Y-29549715D01*
X75681912Y-29555137D01*
X75586893Y-29591886D01*
X75558015Y-29690684D01*
X75556000Y-29803715D01*
X75562972Y-29959783D01*
X75610220Y-30033687D01*
X75737246Y-30056148D01*
X75882572Y-30057715D01*
X75882572Y-30420572D01*
X75577173Y-30386187D01*
X75384714Y-30271090D01*
X75287281Y-30057366D01*
X75265715Y-29803715D01*
X75300099Y-29498316D01*
G36*
X75282657Y-28141557D02*
X75349397Y-27928978D01*
X75489805Y-27805276D01*
X75727754Y-27748206D01*
X76048910Y-27735429D01*
X76298231Y-27738898D01*
X76433718Y-27757087D01*
X76486645Y-27801672D01*
X76488289Y-27884328D01*
X76486333Y-27898715D01*
X76458707Y-27989346D01*
X76385093Y-28041757D01*
X76230717Y-28069434D01*
X76009572Y-28083606D01*
X75556000Y-28105212D01*
X75556000Y-28599360D01*
X76009572Y-28620966D01*
X76260118Y-28638213D01*
X76400296Y-28668711D01*
X76464878Y-28725948D01*
X76486333Y-28805857D01*
X76490482Y-28884673D01*
X76457179Y-28932918D01*
X76358955Y-28958084D01*
X76168342Y-28967660D01*
X75887619Y-28969143D01*
X75265715Y-28969143D01*
X75265715Y-28465258D01*
X75282657Y-28141557D01*
X75282657Y-28141557D01*
G37*
X75282657Y-28141557D02*
X75349397Y-27928978D01*
X75489805Y-27805276D01*
X75727754Y-27748206D01*
X76048910Y-27735429D01*
X76298231Y-27738898D01*
X76433718Y-27757087D01*
X76486645Y-27801672D01*
X76488289Y-27884328D01*
X76486333Y-27898715D01*
X76458707Y-27989346D01*
X76385093Y-28041757D01*
X76230717Y-28069434D01*
X76009572Y-28083606D01*
X75556000Y-28105212D01*
X75556000Y-28599360D01*
X76009572Y-28620966D01*
X76260118Y-28638213D01*
X76400296Y-28668711D01*
X76464878Y-28725948D01*
X76486333Y-28805857D01*
X76490482Y-28884673D01*
X76457179Y-28932918D01*
X76358955Y-28958084D01*
X76168342Y-28967660D01*
X75887619Y-28969143D01*
X75265715Y-28969143D01*
X75265715Y-28465258D01*
X75282657Y-28141557D01*
G36*
X74773848Y-26991209D02*
X74850676Y-26945538D01*
X75006667Y-26937143D01*
X75179043Y-26926633D01*
X75250664Y-26865674D01*
X75265630Y-26710119D01*
X75265715Y-26677822D01*
X75279893Y-26503939D01*
X75334151Y-26440868D01*
X75392715Y-26442559D01*
X75500772Y-26533951D01*
X75542456Y-26701880D01*
X75566077Y-26847411D01*
X75627901Y-26915739D01*
X75770573Y-26935969D01*
X75887170Y-26937143D01*
X76086892Y-26929370D01*
X76180828Y-26891355D01*
X76208103Y-26801049D01*
X76209143Y-26755715D01*
X76184301Y-26619330D01*
X76136572Y-26574286D01*
X76077609Y-26513504D01*
X76064000Y-26429143D01*
X76117114Y-26314473D01*
X76242176Y-26284841D01*
X76387771Y-26348816D01*
X76412343Y-26371086D01*
X76477471Y-26515905D01*
X76498534Y-26732269D01*
X76477490Y-26956481D01*
X76416302Y-27124846D01*
X76388164Y-27156856D01*
X76252791Y-27218002D01*
X76035789Y-27268183D01*
X75916450Y-27283832D01*
X75667025Y-27327518D01*
X75560368Y-27396939D01*
X75556000Y-27418091D01*
X75495513Y-27498888D01*
X75410858Y-27517715D01*
X75293187Y-27474308D01*
X75265715Y-27413456D01*
X75198869Y-27329070D01*
X75029858Y-27286456D01*
X74853577Y-27243074D01*
X74778604Y-27139881D01*
X74770810Y-27100429D01*
X74773848Y-26991209D01*
X74773848Y-26991209D01*
G37*
X74773848Y-26991209D02*
X74850676Y-26945538D01*
X75006667Y-26937143D01*
X75179043Y-26926633D01*
X75250664Y-26865674D01*
X75265630Y-26710119D01*
X75265715Y-26677822D01*
X75279893Y-26503939D01*
X75334151Y-26440868D01*
X75392715Y-26442559D01*
X75500772Y-26533951D01*
X75542456Y-26701880D01*
X75566077Y-26847411D01*
X75627901Y-26915739D01*
X75770573Y-26935969D01*
X75887170Y-26937143D01*
X76086892Y-26929370D01*
X76180828Y-26891355D01*
X76208103Y-26801049D01*
X76209143Y-26755715D01*
X76184301Y-26619330D01*
X76136572Y-26574286D01*
X76077609Y-26513504D01*
X76064000Y-26429143D01*
X76117114Y-26314473D01*
X76242176Y-26284841D01*
X76387771Y-26348816D01*
X76412343Y-26371086D01*
X76477471Y-26515905D01*
X76498534Y-26732269D01*
X76477490Y-26956481D01*
X76416302Y-27124846D01*
X76388164Y-27156856D01*
X76252791Y-27218002D01*
X76035789Y-27268183D01*
X75916450Y-27283832D01*
X75667025Y-27327518D01*
X75560368Y-27396939D01*
X75556000Y-27418091D01*
X75495513Y-27498888D01*
X75410858Y-27517715D01*
X75293187Y-27474308D01*
X75265715Y-27413456D01*
X75198869Y-27329070D01*
X75029858Y-27286456D01*
X74853577Y-27243074D01*
X74778604Y-27139881D01*
X74770810Y-27100429D01*
X74773848Y-26991209D01*
G36*
X75277074Y-25203464D02*
X75321192Y-25054515D01*
X75413125Y-24955541D01*
X75427005Y-24945544D01*
X75645284Y-24848554D01*
X75853149Y-24848020D01*
X75968724Y-24911467D01*
X76058896Y-24949347D01*
X76094419Y-24914636D01*
X76190324Y-24874780D01*
X76329232Y-24912548D01*
X76443889Y-25008707D01*
X76474630Y-25121717D01*
X76494436Y-25324641D01*
X76498318Y-25463457D01*
X76486643Y-25705665D01*
X76439302Y-25852317D01*
X76340530Y-25951631D01*
X76338138Y-25953314D01*
X76159836Y-26027388D01*
X76100286Y-26037036D01*
X76100286Y-25703429D01*
X76182142Y-25646210D01*
X76209121Y-25465820D01*
X76209143Y-25458315D01*
X76178650Y-25263300D01*
X76104809Y-25126821D01*
X76100286Y-25122857D01*
X76034232Y-25086620D01*
X76001777Y-25138398D01*
X75991744Y-25303358D01*
X75991429Y-25367972D01*
X76004956Y-25586428D01*
X76051179Y-25687865D01*
X76100286Y-25703429D01*
X76100286Y-26037036D01*
X75927194Y-26065080D01*
X75882572Y-26066286D01*
X75628572Y-26037689D01*
X75628572Y-25703429D01*
X75676539Y-25639633D01*
X75700516Y-25482763D01*
X75701143Y-25449429D01*
X75682916Y-25281543D01*
X75638096Y-25197623D01*
X75628572Y-25195429D01*
X75580604Y-25259225D01*
X75556627Y-25416095D01*
X75556000Y-25449429D01*
X75574228Y-25617315D01*
X75619048Y-25701235D01*
X75628572Y-25703429D01*
X75628572Y-26037689D01*
X75577173Y-26031901D01*
X75384714Y-25916804D01*
X75287281Y-25703080D01*
X75265715Y-25449429D01*
X75277074Y-25203464D01*
X75277074Y-25203464D01*
G37*
X75277074Y-25203464D02*
X75321192Y-25054515D01*
X75413125Y-24955541D01*
X75427005Y-24945544D01*
X75645284Y-24848554D01*
X75853149Y-24848020D01*
X75968724Y-24911467D01*
X76058896Y-24949347D01*
X76094419Y-24914636D01*
X76190324Y-24874780D01*
X76329232Y-24912548D01*
X76443889Y-25008707D01*
X76474630Y-25121717D01*
X76494436Y-25324641D01*
X76498318Y-25463457D01*
X76486643Y-25705665D01*
X76439302Y-25852317D01*
X76340530Y-25951631D01*
X76338138Y-25953314D01*
X76159836Y-26027388D01*
X76100286Y-26037036D01*
X76100286Y-25703429D01*
X76182142Y-25646210D01*
X76209121Y-25465820D01*
X76209143Y-25458315D01*
X76178650Y-25263300D01*
X76104809Y-25126821D01*
X76100286Y-25122857D01*
X76034232Y-25086620D01*
X76001777Y-25138398D01*
X75991744Y-25303358D01*
X75991429Y-25367972D01*
X76004956Y-25586428D01*
X76051179Y-25687865D01*
X76100286Y-25703429D01*
X76100286Y-26037036D01*
X75927194Y-26065080D01*
X75882572Y-26066286D01*
X75628572Y-26037689D01*
X75628572Y-25703429D01*
X75676539Y-25639633D01*
X75700516Y-25482763D01*
X75701143Y-25449429D01*
X75682916Y-25281543D01*
X75638096Y-25197623D01*
X75628572Y-25195429D01*
X75580604Y-25259225D01*
X75556627Y-25416095D01*
X75556000Y-25449429D01*
X75574228Y-25617315D01*
X75619048Y-25701235D01*
X75628572Y-25703429D01*
X75628572Y-26037689D01*
X75577173Y-26031901D01*
X75384714Y-25916804D01*
X75287281Y-25703080D01*
X75265715Y-25449429D01*
X75277074Y-25203464D01*
G36*
X75290257Y-23728712D02*
X75366827Y-23533597D01*
X75499839Y-23455998D01*
X75534863Y-23453715D01*
X75587031Y-23489647D01*
X75602894Y-23614629D01*
X75585466Y-23854438D01*
X75583654Y-23871000D01*
X75564984Y-24111209D01*
X75578078Y-24219608D01*
X75614724Y-24215715D01*
X75666647Y-24103318D01*
X75705954Y-23906375D01*
X75714705Y-23817919D01*
X75742422Y-23606502D01*
X75804700Y-23491912D01*
X75928050Y-23426057D01*
X75931376Y-23424888D01*
X76127896Y-23398979D01*
X76312376Y-23479642D01*
X76418818Y-23566066D01*
X76475146Y-23676646D01*
X76496738Y-23856902D01*
X76499429Y-24033406D01*
X76490461Y-24289549D01*
X76456412Y-24439913D01*
X76386567Y-24523149D01*
X76359057Y-24539733D01*
X76211801Y-24601017D01*
X76141343Y-24614857D01*
X76079730Y-24558263D01*
X76067423Y-24435862D01*
X76105461Y-24318733D01*
X76136572Y-24288286D01*
X76195540Y-24187976D01*
X76212394Y-24026829D01*
X76191059Y-23863722D01*
X76135462Y-23757531D01*
X76100286Y-23744000D01*
X76022869Y-23794392D01*
X75992588Y-23959345D01*
X75991429Y-24020416D01*
X75945465Y-24308911D01*
X75817585Y-24496319D01*
X75622804Y-24568899D01*
X75429000Y-24535089D01*
X75335914Y-24483051D01*
X75286660Y-24389374D01*
X75267893Y-24214505D01*
X75265715Y-24051139D01*
X75290257Y-23728712D01*
X75290257Y-23728712D01*
G37*
X75290257Y-23728712D02*
X75366827Y-23533597D01*
X75499839Y-23455998D01*
X75534863Y-23453715D01*
X75587031Y-23489647D01*
X75602894Y-23614629D01*
X75585466Y-23854438D01*
X75583654Y-23871000D01*
X75564984Y-24111209D01*
X75578078Y-24219608D01*
X75614724Y-24215715D01*
X75666647Y-24103318D01*
X75705954Y-23906375D01*
X75714705Y-23817919D01*
X75742422Y-23606502D01*
X75804700Y-23491912D01*
X75928050Y-23426057D01*
X75931376Y-23424888D01*
X76127896Y-23398979D01*
X76312376Y-23479642D01*
X76418818Y-23566066D01*
X76475146Y-23676646D01*
X76496738Y-23856902D01*
X76499429Y-24033406D01*
X76490461Y-24289549D01*
X76456412Y-24439913D01*
X76386567Y-24523149D01*
X76359057Y-24539733D01*
X76211801Y-24601017D01*
X76141343Y-24614857D01*
X76079730Y-24558263D01*
X76067423Y-24435862D01*
X76105461Y-24318733D01*
X76136572Y-24288286D01*
X76195540Y-24187976D01*
X76212394Y-24026829D01*
X76191059Y-23863722D01*
X76135462Y-23757531D01*
X76100286Y-23744000D01*
X76022869Y-23794392D01*
X75992588Y-23959345D01*
X75991429Y-24020416D01*
X75945465Y-24308911D01*
X75817585Y-24496319D01*
X75622804Y-24568899D01*
X75429000Y-24535089D01*
X75335914Y-24483051D01*
X75286660Y-24389374D01*
X75267893Y-24214505D01*
X75265715Y-24051139D01*
X75290257Y-23728712D01*
G36*
X74773848Y-22636923D02*
X74850676Y-22591252D01*
X75006667Y-22582857D01*
X75179043Y-22572348D01*
X75250664Y-22511388D01*
X75265630Y-22355833D01*
X75265715Y-22323536D01*
X75279893Y-22149654D01*
X75334151Y-22086583D01*
X75392715Y-22088273D01*
X75500772Y-22179666D01*
X75542456Y-22347595D01*
X75566077Y-22493125D01*
X75627901Y-22561453D01*
X75770573Y-22581683D01*
X75887170Y-22582857D01*
X76086892Y-22575085D01*
X76180828Y-22537069D01*
X76208103Y-22446763D01*
X76209143Y-22401429D01*
X76184301Y-22265045D01*
X76136572Y-22220000D01*
X76077609Y-22159218D01*
X76064000Y-22074857D01*
X76117114Y-21960187D01*
X76242176Y-21930555D01*
X76387771Y-21994531D01*
X76412343Y-22016800D01*
X76477471Y-22161619D01*
X76498534Y-22377983D01*
X76477490Y-22602196D01*
X76416302Y-22770560D01*
X76388164Y-22802570D01*
X76252791Y-22863716D01*
X76035789Y-22913897D01*
X75916450Y-22929546D01*
X75667025Y-22973232D01*
X75560368Y-23042653D01*
X75556000Y-23063805D01*
X75495513Y-23144602D01*
X75410858Y-23163429D01*
X75293187Y-23120022D01*
X75265715Y-23059170D01*
X75198869Y-22974784D01*
X75029858Y-22932170D01*
X74853577Y-22888788D01*
X74778604Y-22785595D01*
X74770810Y-22746143D01*
X74773848Y-22636923D01*
X74773848Y-22636923D01*
G37*
X74773848Y-22636923D02*
X74850676Y-22591252D01*
X75006667Y-22582857D01*
X75179043Y-22572348D01*
X75250664Y-22511388D01*
X75265630Y-22355833D01*
X75265715Y-22323536D01*
X75279893Y-22149654D01*
X75334151Y-22086583D01*
X75392715Y-22088273D01*
X75500772Y-22179666D01*
X75542456Y-22347595D01*
X75566077Y-22493125D01*
X75627901Y-22561453D01*
X75770573Y-22581683D01*
X75887170Y-22582857D01*
X76086892Y-22575085D01*
X76180828Y-22537069D01*
X76208103Y-22446763D01*
X76209143Y-22401429D01*
X76184301Y-22265045D01*
X76136572Y-22220000D01*
X76077609Y-22159218D01*
X76064000Y-22074857D01*
X76117114Y-21960187D01*
X76242176Y-21930555D01*
X76387771Y-21994531D01*
X76412343Y-22016800D01*
X76477471Y-22161619D01*
X76498534Y-22377983D01*
X76477490Y-22602196D01*
X76416302Y-22770560D01*
X76388164Y-22802570D01*
X76252791Y-22863716D01*
X76035789Y-22913897D01*
X75916450Y-22929546D01*
X75667025Y-22973232D01*
X75560368Y-23042653D01*
X75556000Y-23063805D01*
X75495513Y-23144602D01*
X75410858Y-23163429D01*
X75293187Y-23120022D01*
X75265715Y-23059170D01*
X75198869Y-22974784D01*
X75029858Y-22932170D01*
X74853577Y-22888788D01*
X74778604Y-22785595D01*
X74770810Y-22746143D01*
X74773848Y-22636923D01*
G36*
X74710031Y-41417398D02*
X74809609Y-41387713D01*
X74848429Y-41391953D01*
X74976319Y-41462507D01*
X75038917Y-41591544D01*
X75021664Y-41721456D01*
X74947708Y-41784756D01*
X74790251Y-41791308D01*
X74700768Y-41675143D01*
X74685143Y-41550956D01*
X74710031Y-41417398D01*
X74710031Y-41417398D01*
G37*
X74710031Y-41417398D02*
X74809609Y-41387713D01*
X74848429Y-41391953D01*
X74976319Y-41462507D01*
X75038917Y-41591544D01*
X75021664Y-41721456D01*
X74947708Y-41784756D01*
X74790251Y-41791308D01*
X74700768Y-41675143D01*
X74685143Y-41550956D01*
X74710031Y-41417398D01*
G36*
X68831364Y-52819674D02*
X68907676Y-52677504D01*
X69050106Y-52641252D01*
X69143853Y-52656062D01*
X69279985Y-52689914D01*
X69383646Y-52708514D01*
X69459465Y-52695477D01*
X69512072Y-52634413D01*
X69546095Y-52508937D01*
X69566163Y-52302661D01*
X69576907Y-51999197D01*
X69582955Y-51582158D01*
X69588370Y-51082483D01*
X69596626Y-50527471D01*
X69607347Y-50102378D01*
X69621590Y-49791985D01*
X69640410Y-49581075D01*
X69664863Y-49454430D01*
X69696003Y-49396833D01*
X69705682Y-49391151D01*
X69815022Y-49401260D01*
X70015391Y-49462136D01*
X70267168Y-49561329D01*
X70317014Y-49583241D01*
X70468035Y-49652821D01*
X70600020Y-49722842D01*
X70726978Y-49806839D01*
X70862921Y-49918348D01*
X71021860Y-50070904D01*
X71217808Y-50278044D01*
X71464774Y-50553302D01*
X71776770Y-50910214D01*
X72167807Y-51362316D01*
X72213977Y-51415808D01*
X72575916Y-51839639D01*
X72912648Y-52242401D01*
X73210508Y-52607086D01*
X73455831Y-52916688D01*
X73634951Y-53154198D01*
X73734202Y-53302609D01*
X73742132Y-53317719D01*
X73819249Y-53517584D01*
X73864530Y-53752574D01*
X73884414Y-54065644D01*
X73886858Y-54283199D01*
X73884600Y-54597101D01*
X73873784Y-54793290D01*
X73848342Y-54899172D01*
X73802205Y-54942155D01*
X73739302Y-54949715D01*
X73571044Y-54914076D01*
X73350027Y-54823887D01*
X73123629Y-54704235D01*
X72939230Y-54580208D01*
X72844208Y-54476896D01*
X72843628Y-54475432D01*
X72825121Y-54357654D01*
X72809952Y-54129739D01*
X72799891Y-53826679D01*
X72796692Y-53546779D01*
X72784615Y-53081361D01*
X72741275Y-52723633D01*
X72652870Y-52437196D01*
X72505603Y-52185651D01*
X72285671Y-51932599D01*
X72125562Y-51776604D01*
X71894484Y-51586089D01*
X71615516Y-51394959D01*
X71326231Y-51224836D01*
X71064197Y-51097345D01*
X70866986Y-51034110D01*
X70829827Y-51030858D01*
X70808274Y-51099355D01*
X70789851Y-51288578D01*
X70775909Y-51574116D01*
X70767797Y-51931563D01*
X70766286Y-52180546D01*
X70766286Y-53330235D01*
X72113486Y-54883832D01*
X72475505Y-55305482D01*
X72816273Y-55710217D01*
X73120968Y-56079822D01*
X73374764Y-56396078D01*
X73562838Y-56640772D01*
X73670364Y-56795685D01*
X73673091Y-56800286D01*
X73770471Y-56977525D01*
X73832572Y-57134605D01*
X73867289Y-57312542D01*
X73882521Y-57552353D01*
X73886164Y-57895055D01*
X73886176Y-57907000D01*
X73885071Y-58241343D01*
X73877206Y-58456626D01*
X73856870Y-58578929D01*
X73818348Y-58634331D01*
X73755926Y-58648912D01*
X73723572Y-58649162D01*
X73570098Y-58614244D01*
X73350839Y-58526362D01*
X73197429Y-58449548D01*
X72834572Y-58251629D01*
X72798286Y-57199386D01*
X72777914Y-56732469D01*
X72746504Y-56379904D01*
X72693337Y-56110902D01*
X72607691Y-55894672D01*
X72478846Y-55700424D01*
X72296081Y-55497368D01*
X72157960Y-55360325D01*
X71986091Y-55219825D01*
X71752350Y-55063041D01*
X71489771Y-54907870D01*
X71231386Y-54772210D01*
X71010227Y-54673959D01*
X70859328Y-54631014D01*
X70820715Y-54635775D01*
X70802207Y-54715649D01*
X70786399Y-54915343D01*
X70774454Y-55209543D01*
X70767538Y-55572935D01*
X70766286Y-55818919D01*
X70763607Y-56220238D01*
X70756212Y-56575629D01*
X70745068Y-56857348D01*
X70731140Y-57037647D01*
X70722236Y-57084636D01*
X70648536Y-57176939D01*
X70514742Y-57185822D01*
X70298142Y-57109705D01*
X70164681Y-57045831D01*
X69968610Y-56946558D01*
X69824637Y-56859235D01*
X69724731Y-56760578D01*
X69660859Y-56627301D01*
X69624988Y-56436121D01*
X69609085Y-56163753D01*
X69605118Y-55786911D01*
X69605143Y-55423865D01*
X69603877Y-54966281D01*
X69598525Y-54631021D01*
X69586761Y-54395279D01*
X69566258Y-54236247D01*
X69534687Y-54131119D01*
X69489721Y-54057086D01*
X69462455Y-54025640D01*
X69303372Y-53893707D01*
X69171374Y-53825384D01*
X69007557Y-53704627D01*
X68881446Y-53482264D01*
X68813919Y-53200854D01*
X68807969Y-53084604D01*
X68831364Y-52819674D01*
X68831364Y-52819674D01*
G37*
X68831364Y-52819674D02*
X68907676Y-52677504D01*
X69050106Y-52641252D01*
X69143853Y-52656062D01*
X69279985Y-52689914D01*
X69383646Y-52708514D01*
X69459465Y-52695477D01*
X69512072Y-52634413D01*
X69546095Y-52508937D01*
X69566163Y-52302661D01*
X69576907Y-51999197D01*
X69582955Y-51582158D01*
X69588370Y-51082483D01*
X69596626Y-50527471D01*
X69607347Y-50102378D01*
X69621590Y-49791985D01*
X69640410Y-49581075D01*
X69664863Y-49454430D01*
X69696003Y-49396833D01*
X69705682Y-49391151D01*
X69815022Y-49401260D01*
X70015391Y-49462136D01*
X70267168Y-49561329D01*
X70317014Y-49583241D01*
X70468035Y-49652821D01*
X70600020Y-49722842D01*
X70726978Y-49806839D01*
X70862921Y-49918348D01*
X71021860Y-50070904D01*
X71217808Y-50278044D01*
X71464774Y-50553302D01*
X71776770Y-50910214D01*
X72167807Y-51362316D01*
X72213977Y-51415808D01*
X72575916Y-51839639D01*
X72912648Y-52242401D01*
X73210508Y-52607086D01*
X73455831Y-52916688D01*
X73634951Y-53154198D01*
X73734202Y-53302609D01*
X73742132Y-53317719D01*
X73819249Y-53517584D01*
X73864530Y-53752574D01*
X73884414Y-54065644D01*
X73886858Y-54283199D01*
X73884600Y-54597101D01*
X73873784Y-54793290D01*
X73848342Y-54899172D01*
X73802205Y-54942155D01*
X73739302Y-54949715D01*
X73571044Y-54914076D01*
X73350027Y-54823887D01*
X73123629Y-54704235D01*
X72939230Y-54580208D01*
X72844208Y-54476896D01*
X72843628Y-54475432D01*
X72825121Y-54357654D01*
X72809952Y-54129739D01*
X72799891Y-53826679D01*
X72796692Y-53546779D01*
X72784615Y-53081361D01*
X72741275Y-52723633D01*
X72652870Y-52437196D01*
X72505603Y-52185651D01*
X72285671Y-51932599D01*
X72125562Y-51776604D01*
X71894484Y-51586089D01*
X71615516Y-51394959D01*
X71326231Y-51224836D01*
X71064197Y-51097345D01*
X70866986Y-51034110D01*
X70829827Y-51030858D01*
X70808274Y-51099355D01*
X70789851Y-51288578D01*
X70775909Y-51574116D01*
X70767797Y-51931563D01*
X70766286Y-52180546D01*
X70766286Y-53330235D01*
X72113486Y-54883832D01*
X72475505Y-55305482D01*
X72816273Y-55710217D01*
X73120968Y-56079822D01*
X73374764Y-56396078D01*
X73562838Y-56640772D01*
X73670364Y-56795685D01*
X73673091Y-56800286D01*
X73770471Y-56977525D01*
X73832572Y-57134605D01*
X73867289Y-57312542D01*
X73882521Y-57552353D01*
X73886164Y-57895055D01*
X73886176Y-57907000D01*
X73885071Y-58241343D01*
X73877206Y-58456626D01*
X73856870Y-58578929D01*
X73818348Y-58634331D01*
X73755926Y-58648912D01*
X73723572Y-58649162D01*
X73570098Y-58614244D01*
X73350839Y-58526362D01*
X73197429Y-58449548D01*
X72834572Y-58251629D01*
X72798286Y-57199386D01*
X72777914Y-56732469D01*
X72746504Y-56379904D01*
X72693337Y-56110902D01*
X72607691Y-55894672D01*
X72478846Y-55700424D01*
X72296081Y-55497368D01*
X72157960Y-55360325D01*
X71986091Y-55219825D01*
X71752350Y-55063041D01*
X71489771Y-54907870D01*
X71231386Y-54772210D01*
X71010227Y-54673959D01*
X70859328Y-54631014D01*
X70820715Y-54635775D01*
X70802207Y-54715649D01*
X70786399Y-54915343D01*
X70774454Y-55209543D01*
X70767538Y-55572935D01*
X70766286Y-55818919D01*
X70763607Y-56220238D01*
X70756212Y-56575629D01*
X70745068Y-56857348D01*
X70731140Y-57037647D01*
X70722236Y-57084636D01*
X70648536Y-57176939D01*
X70514742Y-57185822D01*
X70298142Y-57109705D01*
X70164681Y-57045831D01*
X69968610Y-56946558D01*
X69824637Y-56859235D01*
X69724731Y-56760578D01*
X69660859Y-56627301D01*
X69624988Y-56436121D01*
X69609085Y-56163753D01*
X69605118Y-55786911D01*
X69605143Y-55423865D01*
X69603877Y-54966281D01*
X69598525Y-54631021D01*
X69586761Y-54395279D01*
X69566258Y-54236247D01*
X69534687Y-54131119D01*
X69489721Y-54057086D01*
X69462455Y-54025640D01*
X69303372Y-53893707D01*
X69171374Y-53825384D01*
X69007557Y-53704627D01*
X68881446Y-53482264D01*
X68813919Y-53200854D01*
X68807969Y-53084604D01*
X68831364Y-52819674D01*
G36*
X69605614Y-43669792D02*
X69607244Y-42971406D01*
X69610364Y-42395368D01*
X69615303Y-41930279D01*
X69622389Y-41564745D01*
X69631953Y-41287367D01*
X69644324Y-41086750D01*
X69659830Y-40951496D01*
X69678802Y-40870210D01*
X69701568Y-40831494D01*
X69711366Y-40825541D01*
X69820993Y-40835266D01*
X70033172Y-40894005D01*
X70318561Y-40990190D01*
X70647817Y-41112251D01*
X70991599Y-41248619D01*
X71320565Y-41387726D01*
X71605371Y-41518002D01*
X71816676Y-41627880D01*
X71913652Y-41693842D01*
X72036617Y-41832608D01*
X72218902Y-42071651D01*
X72444338Y-42387280D01*
X72696759Y-42755802D01*
X72959998Y-43153525D01*
X73217888Y-43556759D01*
X73454261Y-43941810D01*
X73499108Y-44017223D01*
X73886858Y-44673404D01*
X73886858Y-45711274D01*
X73885871Y-46118171D01*
X73880818Y-46402022D01*
X73868557Y-46584919D01*
X73845948Y-46688956D01*
X73809849Y-46736226D01*
X73757119Y-46748821D01*
X73739302Y-46749143D01*
X73545521Y-46710318D01*
X73313629Y-46611337D01*
X73088484Y-46478448D01*
X72914946Y-46337894D01*
X72838994Y-46222402D01*
X72825131Y-46095148D01*
X72809711Y-45852439D01*
X72794226Y-45523933D01*
X72780170Y-45139285D01*
X72774136Y-44934857D01*
X72751790Y-44381109D01*
X72714243Y-43947893D01*
X72655076Y-43610864D01*
X72567871Y-43345678D01*
X72446210Y-43127990D01*
X72283675Y-42933456D01*
X72233155Y-42882914D01*
X72057142Y-42748169D01*
X71812610Y-42606380D01*
X71535549Y-42472928D01*
X71261951Y-42363197D01*
X71027807Y-42292570D01*
X70869107Y-42276431D01*
X70837932Y-42286572D01*
X70816210Y-42370391D01*
X70798205Y-42579405D01*
X70783845Y-42893719D01*
X70773059Y-43293435D01*
X70765778Y-43758656D01*
X70761929Y-44269484D01*
X70761442Y-44806024D01*
X70764247Y-45348376D01*
X70770272Y-45876645D01*
X70779446Y-46370933D01*
X70791699Y-46811343D01*
X70806959Y-47177978D01*
X70825157Y-47450940D01*
X70846220Y-47610333D01*
X70857000Y-47640238D01*
X70962707Y-47725234D01*
X71164056Y-47845253D01*
X71423202Y-47978328D01*
X71508314Y-48018318D01*
X71775367Y-48152896D01*
X71993331Y-48284678D01*
X72125474Y-48390723D01*
X72143314Y-48414867D01*
X72194280Y-48582723D01*
X72217716Y-48811256D01*
X72214985Y-49053317D01*
X72187449Y-49261755D01*
X72136471Y-49389419D01*
X72114678Y-49405809D01*
X72011712Y-49390690D01*
X71806714Y-49320482D01*
X71526167Y-49207547D01*
X71196556Y-49064249D01*
X70844366Y-48902952D01*
X70496080Y-48736020D01*
X70178183Y-48575815D01*
X69917159Y-48434702D01*
X69739492Y-48325044D01*
X69674166Y-48266512D01*
X69658961Y-48166020D01*
X69645252Y-47930959D01*
X69633231Y-47571897D01*
X69623093Y-47099402D01*
X69615030Y-46524042D01*
X69609237Y-45856384D01*
X69605907Y-45106998D01*
X69605143Y-44501922D01*
X69605614Y-43669792D01*
X69605614Y-43669792D01*
G37*
X69605614Y-43669792D02*
X69607244Y-42971406D01*
X69610364Y-42395368D01*
X69615303Y-41930279D01*
X69622389Y-41564745D01*
X69631953Y-41287367D01*
X69644324Y-41086750D01*
X69659830Y-40951496D01*
X69678802Y-40870210D01*
X69701568Y-40831494D01*
X69711366Y-40825541D01*
X69820993Y-40835266D01*
X70033172Y-40894005D01*
X70318561Y-40990190D01*
X70647817Y-41112251D01*
X70991599Y-41248619D01*
X71320565Y-41387726D01*
X71605371Y-41518002D01*
X71816676Y-41627880D01*
X71913652Y-41693842D01*
X72036617Y-41832608D01*
X72218902Y-42071651D01*
X72444338Y-42387280D01*
X72696759Y-42755802D01*
X72959998Y-43153525D01*
X73217888Y-43556759D01*
X73454261Y-43941810D01*
X73499108Y-44017223D01*
X73886858Y-44673404D01*
X73886858Y-45711274D01*
X73885871Y-46118171D01*
X73880818Y-46402022D01*
X73868557Y-46584919D01*
X73845948Y-46688956D01*
X73809849Y-46736226D01*
X73757119Y-46748821D01*
X73739302Y-46749143D01*
X73545521Y-46710318D01*
X73313629Y-46611337D01*
X73088484Y-46478448D01*
X72914946Y-46337894D01*
X72838994Y-46222402D01*
X72825131Y-46095148D01*
X72809711Y-45852439D01*
X72794226Y-45523933D01*
X72780170Y-45139285D01*
X72774136Y-44934857D01*
X72751790Y-44381109D01*
X72714243Y-43947893D01*
X72655076Y-43610864D01*
X72567871Y-43345678D01*
X72446210Y-43127990D01*
X72283675Y-42933456D01*
X72233155Y-42882914D01*
X72057142Y-42748169D01*
X71812610Y-42606380D01*
X71535549Y-42472928D01*
X71261951Y-42363197D01*
X71027807Y-42292570D01*
X70869107Y-42276431D01*
X70837932Y-42286572D01*
X70816210Y-42370391D01*
X70798205Y-42579405D01*
X70783845Y-42893719D01*
X70773059Y-43293435D01*
X70765778Y-43758656D01*
X70761929Y-44269484D01*
X70761442Y-44806024D01*
X70764247Y-45348376D01*
X70770272Y-45876645D01*
X70779446Y-46370933D01*
X70791699Y-46811343D01*
X70806959Y-47177978D01*
X70825157Y-47450940D01*
X70846220Y-47610333D01*
X70857000Y-47640238D01*
X70962707Y-47725234D01*
X71164056Y-47845253D01*
X71423202Y-47978328D01*
X71508314Y-48018318D01*
X71775367Y-48152896D01*
X71993331Y-48284678D01*
X72125474Y-48390723D01*
X72143314Y-48414867D01*
X72194280Y-48582723D01*
X72217716Y-48811256D01*
X72214985Y-49053317D01*
X72187449Y-49261755D01*
X72136471Y-49389419D01*
X72114678Y-49405809D01*
X72011712Y-49390690D01*
X71806714Y-49320482D01*
X71526167Y-49207547D01*
X71196556Y-49064249D01*
X70844366Y-48902952D01*
X70496080Y-48736020D01*
X70178183Y-48575815D01*
X69917159Y-48434702D01*
X69739492Y-48325044D01*
X69674166Y-48266512D01*
X69658961Y-48166020D01*
X69645252Y-47930959D01*
X69633231Y-47571897D01*
X69623093Y-47099402D01*
X69615030Y-46524042D01*
X69609237Y-45856384D01*
X69605907Y-45106998D01*
X69605143Y-44501922D01*
X69605614Y-43669792D01*
G36*
X69622409Y-35353878D02*
X69627723Y-34640322D01*
X69633423Y-34058510D01*
X69640171Y-33595043D01*
X69648633Y-33236520D01*
X69659471Y-32969543D01*
X69673350Y-32780712D01*
X69690934Y-32656629D01*
X69712886Y-32583893D01*
X69739870Y-32549107D01*
X69761816Y-32540216D01*
X69869743Y-32561589D01*
X70078365Y-32635616D01*
X70358844Y-32749462D01*
X70682347Y-32890295D01*
X71020038Y-33045281D01*
X71343081Y-33201586D01*
X71622640Y-33346377D01*
X71796037Y-33445563D01*
X71928305Y-33556088D01*
X72128689Y-33759785D01*
X72377919Y-34033937D01*
X72656726Y-34355827D01*
X72945840Y-34702738D01*
X73225991Y-35051954D01*
X73477911Y-35380757D01*
X73682330Y-35666431D01*
X73691990Y-35680704D01*
X73886858Y-35969693D01*
X73886858Y-38857981D01*
X73886106Y-39600656D01*
X73883574Y-40210434D01*
X73878844Y-40699555D01*
X73871502Y-41080260D01*
X73861131Y-41364787D01*
X73847315Y-41565378D01*
X73829638Y-41694271D01*
X73807684Y-41763707D01*
X73787373Y-41784446D01*
X73681329Y-41770521D01*
X73475089Y-41701410D01*
X73196796Y-41589717D01*
X72874595Y-41448043D01*
X72700016Y-41365884D01*
X72700016Y-40114621D01*
X72702692Y-40113810D01*
X72728061Y-40034280D01*
X72749945Y-39830140D01*
X72768277Y-39521885D01*
X72782989Y-39130009D01*
X72794012Y-38675004D01*
X72801279Y-38177365D01*
X72804721Y-37657586D01*
X72804271Y-37136158D01*
X72799860Y-36633578D01*
X72791421Y-36170337D01*
X72778885Y-35766930D01*
X72762184Y-35443851D01*
X72741250Y-35221592D01*
X72719256Y-35125647D01*
X72629527Y-35046553D01*
X72437699Y-34925503D01*
X72174890Y-34778164D01*
X71872218Y-34620201D01*
X71560798Y-34467281D01*
X71271748Y-34335069D01*
X71036185Y-34239231D01*
X70885226Y-34195434D01*
X70869315Y-34194286D01*
X70841243Y-34212911D01*
X70818618Y-34277677D01*
X70800891Y-34401917D01*
X70787509Y-34598968D01*
X70777922Y-34882164D01*
X70771578Y-35264840D01*
X70767926Y-35760331D01*
X70766415Y-36381972D01*
X70766286Y-36686753D01*
X70766779Y-37358055D01*
X70768741Y-37899071D01*
X70772900Y-38324652D01*
X70779980Y-38649654D01*
X70790709Y-38888929D01*
X70805812Y-39057331D01*
X70826015Y-39169714D01*
X70852046Y-39240932D01*
X70884630Y-39285838D01*
X70893784Y-39294603D01*
X71022676Y-39382199D01*
X71241138Y-39502082D01*
X71518225Y-39640236D01*
X71822994Y-39782650D01*
X72124501Y-39915308D01*
X72391803Y-40024199D01*
X72593956Y-40095308D01*
X72700016Y-40114621D01*
X72700016Y-41365884D01*
X72536630Y-41288992D01*
X72211044Y-41125167D01*
X71925981Y-40969169D01*
X71806315Y-40897340D01*
X71605221Y-40739289D01*
X71344483Y-40487883D01*
X71046454Y-40169526D01*
X70733486Y-39810625D01*
X70427934Y-39437587D01*
X70152148Y-39076816D01*
X69928484Y-38754720D01*
X69785213Y-38509757D01*
X69603389Y-38144371D01*
X69622409Y-35353878D01*
X69622409Y-35353878D01*
G37*
X69622409Y-35353878D02*
X69627723Y-34640322D01*
X69633423Y-34058510D01*
X69640171Y-33595043D01*
X69648633Y-33236520D01*
X69659471Y-32969543D01*
X69673350Y-32780712D01*
X69690934Y-32656629D01*
X69712886Y-32583893D01*
X69739870Y-32549107D01*
X69761816Y-32540216D01*
X69869743Y-32561589D01*
X70078365Y-32635616D01*
X70358844Y-32749462D01*
X70682347Y-32890295D01*
X71020038Y-33045281D01*
X71343081Y-33201586D01*
X71622640Y-33346377D01*
X71796037Y-33445563D01*
X71928305Y-33556088D01*
X72128689Y-33759785D01*
X72377919Y-34033937D01*
X72656726Y-34355827D01*
X72945840Y-34702738D01*
X73225991Y-35051954D01*
X73477911Y-35380757D01*
X73682330Y-35666431D01*
X73691990Y-35680704D01*
X73886858Y-35969693D01*
X73886858Y-38857981D01*
X73886106Y-39600656D01*
X73883574Y-40210434D01*
X73878844Y-40699555D01*
X73871502Y-41080260D01*
X73861131Y-41364787D01*
X73847315Y-41565378D01*
X73829638Y-41694271D01*
X73807684Y-41763707D01*
X73787373Y-41784446D01*
X73681329Y-41770521D01*
X73475089Y-41701410D01*
X73196796Y-41589717D01*
X72874595Y-41448043D01*
X72700016Y-41365884D01*
X72700016Y-40114621D01*
X72702692Y-40113810D01*
X72728061Y-40034280D01*
X72749945Y-39830140D01*
X72768277Y-39521885D01*
X72782989Y-39130009D01*
X72794012Y-38675004D01*
X72801279Y-38177365D01*
X72804721Y-37657586D01*
X72804271Y-37136158D01*
X72799860Y-36633578D01*
X72791421Y-36170337D01*
X72778885Y-35766930D01*
X72762184Y-35443851D01*
X72741250Y-35221592D01*
X72719256Y-35125647D01*
X72629527Y-35046553D01*
X72437699Y-34925503D01*
X72174890Y-34778164D01*
X71872218Y-34620201D01*
X71560798Y-34467281D01*
X71271748Y-34335069D01*
X71036185Y-34239231D01*
X70885226Y-34195434D01*
X70869315Y-34194286D01*
X70841243Y-34212911D01*
X70818618Y-34277677D01*
X70800891Y-34401917D01*
X70787509Y-34598968D01*
X70777922Y-34882164D01*
X70771578Y-35264840D01*
X70767926Y-35760331D01*
X70766415Y-36381972D01*
X70766286Y-36686753D01*
X70766779Y-37358055D01*
X70768741Y-37899071D01*
X70772900Y-38324652D01*
X70779980Y-38649654D01*
X70790709Y-38888929D01*
X70805812Y-39057331D01*
X70826015Y-39169714D01*
X70852046Y-39240932D01*
X70884630Y-39285838D01*
X70893784Y-39294603D01*
X71022676Y-39382199D01*
X71241138Y-39502082D01*
X71518225Y-39640236D01*
X71822994Y-39782650D01*
X72124501Y-39915308D01*
X72391803Y-40024199D01*
X72593956Y-40095308D01*
X72700016Y-40114621D01*
X72700016Y-41365884D01*
X72536630Y-41288992D01*
X72211044Y-41125167D01*
X71925981Y-40969169D01*
X71806315Y-40897340D01*
X71605221Y-40739289D01*
X71344483Y-40487883D01*
X71046454Y-40169526D01*
X70733486Y-39810625D01*
X70427934Y-39437587D01*
X70152148Y-39076816D01*
X69928484Y-38754720D01*
X69785213Y-38509757D01*
X69603389Y-38144371D01*
X69622409Y-35353878D01*
G36*
X68952000Y-27214948D02*
X69260429Y-27239331D01*
X69568858Y-27263715D01*
X69588612Y-25900104D01*
X69598223Y-25397033D01*
X69611342Y-25023074D01*
X69629301Y-24762213D01*
X69653432Y-24598435D01*
X69685067Y-24515727D01*
X69705104Y-24499372D01*
X69837162Y-24506100D01*
X70043315Y-24573019D01*
X70277845Y-24678404D01*
X70495031Y-24800529D01*
X70649154Y-24917669D01*
X70687570Y-24966233D01*
X70717238Y-25096962D01*
X70740630Y-25357256D01*
X70756927Y-25731640D01*
X70765312Y-26204637D01*
X70766286Y-26454207D01*
X70766286Y-27795098D01*
X70989568Y-27982978D01*
X71197915Y-28122107D01*
X71366491Y-28167677D01*
X71470599Y-28117314D01*
X71492000Y-28031283D01*
X71559447Y-27821262D01*
X71743874Y-27616121D01*
X72018417Y-27440084D01*
X72251246Y-27346699D01*
X72491515Y-27256251D01*
X72649691Y-27145518D01*
X72742431Y-26984140D01*
X72786391Y-26741756D01*
X72798227Y-26388002D01*
X72798286Y-26349570D01*
X72809757Y-26041784D01*
X72856122Y-25863465D01*
X72955312Y-25799932D01*
X73125258Y-25836503D01*
X73317393Y-25924534D01*
X73596507Y-26076173D01*
X73766598Y-26209942D01*
X73853873Y-26360688D01*
X73884542Y-26563258D01*
X73886858Y-26681741D01*
X73850913Y-26985692D01*
X73728642Y-27202517D01*
X73498385Y-27358989D01*
X73270000Y-27444293D01*
X72972030Y-27547620D01*
X72788817Y-27654848D01*
X72692994Y-27799333D01*
X72657196Y-28014430D01*
X72653143Y-28196166D01*
X72671776Y-28495476D01*
X72744096Y-28711707D01*
X72894738Y-28877606D01*
X73148336Y-29025922D01*
X73342572Y-29112690D01*
X73620353Y-29248688D01*
X73784855Y-29394203D01*
X73864237Y-29591335D01*
X73886657Y-29882185D01*
X73886858Y-29926442D01*
X73877579Y-30162620D01*
X73834672Y-30300223D01*
X73735526Y-30346981D01*
X73557533Y-30310626D01*
X73278082Y-30198889D01*
X73195761Y-30162756D01*
X72920267Y-30057599D01*
X72749699Y-30030833D01*
X72706199Y-30048201D01*
X72674121Y-30152682D01*
X72659918Y-30355924D01*
X72665643Y-30592138D01*
X72684875Y-30817494D01*
X72720961Y-30991012D01*
X72792048Y-31152844D01*
X72916279Y-31343144D01*
X73111799Y-31602061D01*
X73136362Y-31633778D01*
X73347656Y-31917176D01*
X73541690Y-32196429D01*
X73688363Y-32427456D01*
X73731902Y-32505909D01*
X73821985Y-32745187D01*
X73875189Y-33013050D01*
X73889507Y-33268776D01*
X73862933Y-33471640D01*
X73793461Y-33580918D01*
X73785061Y-33584761D01*
X73650450Y-33579753D01*
X73443929Y-33516125D01*
X73214327Y-33415808D01*
X73010474Y-33300732D01*
X72881201Y-33192826D01*
X72867961Y-33172874D01*
X72834047Y-33039313D01*
X72809258Y-32807881D01*
X72798420Y-32525787D01*
X72798286Y-32491298D01*
X72788736Y-32172856D01*
X72750605Y-31909528D01*
X72669669Y-31666514D01*
X72531707Y-31409016D01*
X72322496Y-31102236D01*
X72119905Y-30831488D01*
X71880578Y-30495961D01*
X71693998Y-30190753D01*
X71580091Y-29949345D01*
X71563725Y-29896938D01*
X71505975Y-29676576D01*
X71458865Y-29502002D01*
X71448727Y-29466003D01*
X71366755Y-29360113D01*
X71211486Y-29254554D01*
X71034351Y-29174580D01*
X70886782Y-29145448D01*
X70833023Y-29163663D01*
X70811908Y-29253263D01*
X70791586Y-29463954D01*
X70773483Y-29771684D01*
X70759024Y-30152404D01*
X70749843Y-30567643D01*
X70730000Y-31908286D01*
X70548572Y-31926448D01*
X70384925Y-31902297D01*
X70159025Y-31820792D01*
X70004286Y-31744876D01*
X69641429Y-31545142D01*
X69605143Y-30069641D01*
X69568858Y-28594140D01*
X69259305Y-28328070D01*
X69084602Y-28169197D01*
X68992357Y-28039840D01*
X68956480Y-27881668D01*
X68950877Y-27638474D01*
X68952000Y-27214948D01*
X68952000Y-27214948D01*
G37*
X68952000Y-27214948D02*
X69260429Y-27239331D01*
X69568858Y-27263715D01*
X69588612Y-25900104D01*
X69598223Y-25397033D01*
X69611342Y-25023074D01*
X69629301Y-24762213D01*
X69653432Y-24598435D01*
X69685067Y-24515727D01*
X69705104Y-24499372D01*
X69837162Y-24506100D01*
X70043315Y-24573019D01*
X70277845Y-24678404D01*
X70495031Y-24800529D01*
X70649154Y-24917669D01*
X70687570Y-24966233D01*
X70717238Y-25096962D01*
X70740630Y-25357256D01*
X70756927Y-25731640D01*
X70765312Y-26204637D01*
X70766286Y-26454207D01*
X70766286Y-27795098D01*
X70989568Y-27982978D01*
X71197915Y-28122107D01*
X71366491Y-28167677D01*
X71470599Y-28117314D01*
X71492000Y-28031283D01*
X71559447Y-27821262D01*
X71743874Y-27616121D01*
X72018417Y-27440084D01*
X72251246Y-27346699D01*
X72491515Y-27256251D01*
X72649691Y-27145518D01*
X72742431Y-26984140D01*
X72786391Y-26741756D01*
X72798227Y-26388002D01*
X72798286Y-26349570D01*
X72809757Y-26041784D01*
X72856122Y-25863465D01*
X72955312Y-25799932D01*
X73125258Y-25836503D01*
X73317393Y-25924534D01*
X73596507Y-26076173D01*
X73766598Y-26209942D01*
X73853873Y-26360688D01*
X73884542Y-26563258D01*
X73886858Y-26681741D01*
X73850913Y-26985692D01*
X73728642Y-27202517D01*
X73498385Y-27358989D01*
X73270000Y-27444293D01*
X72972030Y-27547620D01*
X72788817Y-27654848D01*
X72692994Y-27799333D01*
X72657196Y-28014430D01*
X72653143Y-28196166D01*
X72671776Y-28495476D01*
X72744096Y-28711707D01*
X72894738Y-28877606D01*
X73148336Y-29025922D01*
X73342572Y-29112690D01*
X73620353Y-29248688D01*
X73784855Y-29394203D01*
X73864237Y-29591335D01*
X73886657Y-29882185D01*
X73886858Y-29926442D01*
X73877579Y-30162620D01*
X73834672Y-30300223D01*
X73735526Y-30346981D01*
X73557533Y-30310626D01*
X73278082Y-30198889D01*
X73195761Y-30162756D01*
X72920267Y-30057599D01*
X72749699Y-30030833D01*
X72706199Y-30048201D01*
X72674121Y-30152682D01*
X72659918Y-30355924D01*
X72665643Y-30592138D01*
X72684875Y-30817494D01*
X72720961Y-30991012D01*
X72792048Y-31152844D01*
X72916279Y-31343144D01*
X73111799Y-31602061D01*
X73136362Y-31633778D01*
X73347656Y-31917176D01*
X73541690Y-32196429D01*
X73688363Y-32427456D01*
X73731902Y-32505909D01*
X73821985Y-32745187D01*
X73875189Y-33013050D01*
X73889507Y-33268776D01*
X73862933Y-33471640D01*
X73793461Y-33580918D01*
X73785061Y-33584761D01*
X73650450Y-33579753D01*
X73443929Y-33516125D01*
X73214327Y-33415808D01*
X73010474Y-33300732D01*
X72881201Y-33192826D01*
X72867961Y-33172874D01*
X72834047Y-33039313D01*
X72809258Y-32807881D01*
X72798420Y-32525787D01*
X72798286Y-32491298D01*
X72788736Y-32172856D01*
X72750605Y-31909528D01*
X72669669Y-31666514D01*
X72531707Y-31409016D01*
X72322496Y-31102236D01*
X72119905Y-30831488D01*
X71880578Y-30495961D01*
X71693998Y-30190753D01*
X71580091Y-29949345D01*
X71563725Y-29896938D01*
X71505975Y-29676576D01*
X71458865Y-29502002D01*
X71448727Y-29466003D01*
X71366755Y-29360113D01*
X71211486Y-29254554D01*
X71034351Y-29174580D01*
X70886782Y-29145448D01*
X70833023Y-29163663D01*
X70811908Y-29253263D01*
X70791586Y-29463954D01*
X70773483Y-29771684D01*
X70759024Y-30152404D01*
X70749843Y-30567643D01*
X70730000Y-31908286D01*
X70548572Y-31926448D01*
X70384925Y-31902297D01*
X70159025Y-31820792D01*
X70004286Y-31744876D01*
X69641429Y-31545142D01*
X69605143Y-30069641D01*
X69568858Y-28594140D01*
X69259305Y-28328070D01*
X69084602Y-28169197D01*
X68992357Y-28039840D01*
X68956480Y-27881668D01*
X68950877Y-27638474D01*
X68952000Y-27214948D01*
G36*
X72657838Y-23135654D02*
X72680386Y-23006536D01*
X72733482Y-22954575D01*
X72814003Y-22945715D01*
X73016673Y-22978327D01*
X73280754Y-23060379D01*
X73542273Y-23168191D01*
X73737262Y-23278083D01*
X73759858Y-23295832D01*
X73840626Y-23414174D01*
X73879736Y-23615367D01*
X73886858Y-23823537D01*
X73874958Y-24058260D01*
X73844189Y-24229758D01*
X73812655Y-24289294D01*
X73694851Y-24295789D01*
X73493919Y-24250083D01*
X73255038Y-24167823D01*
X73023389Y-24064657D01*
X72844152Y-23956230D01*
X72838678Y-23951979D01*
X72731911Y-23848725D01*
X72675913Y-23722868D01*
X72655160Y-23526207D01*
X72653143Y-23375876D01*
X72657838Y-23135654D01*
X72657838Y-23135654D01*
G37*
X72657838Y-23135654D02*
X72680386Y-23006536D01*
X72733482Y-22954575D01*
X72814003Y-22945715D01*
X73016673Y-22978327D01*
X73280754Y-23060379D01*
X73542273Y-23168191D01*
X73737262Y-23278083D01*
X73759858Y-23295832D01*
X73840626Y-23414174D01*
X73879736Y-23615367D01*
X73886858Y-23823537D01*
X73874958Y-24058260D01*
X73844189Y-24229758D01*
X73812655Y-24289294D01*
X73694851Y-24295789D01*
X73493919Y-24250083D01*
X73255038Y-24167823D01*
X73023389Y-24064657D01*
X72844152Y-23956230D01*
X72838678Y-23951979D01*
X72731911Y-23848725D01*
X72675913Y-23722868D01*
X72655160Y-23526207D01*
X72653143Y-23375876D01*
X72657838Y-23135654D01*
G36*
X69296715Y-21567114D02*
X69414975Y-21595633D01*
X69636203Y-21672985D01*
X69933429Y-21787675D01*
X70279681Y-21928210D01*
X70647990Y-22083098D01*
X71011383Y-22240845D01*
X71342891Y-22389959D01*
X71615542Y-22518944D01*
X71802367Y-22616310D01*
X71873000Y-22664962D01*
X71957057Y-22834111D01*
X71999665Y-23058901D01*
X72000541Y-23290461D01*
X71959403Y-23479917D01*
X71878286Y-23577547D01*
X71761754Y-23573221D01*
X71544654Y-23525443D01*
X71260948Y-23445247D01*
X70944595Y-23343667D01*
X70629556Y-23231737D01*
X70349791Y-23120492D01*
X70139261Y-23020964D01*
X70105077Y-23001417D01*
X69952577Y-22874521D01*
X69785296Y-22680038D01*
X69618064Y-22444281D01*
X69465710Y-22193561D01*
X69343064Y-21954191D01*
X69264954Y-21752481D01*
X69246210Y-21614745D01*
X69296715Y-21567114D01*
X69296715Y-21567114D01*
G37*
X69296715Y-21567114D02*
X69414975Y-21595633D01*
X69636203Y-21672985D01*
X69933429Y-21787675D01*
X70279681Y-21928210D01*
X70647990Y-22083098D01*
X71011383Y-22240845D01*
X71342891Y-22389959D01*
X71615542Y-22518944D01*
X71802367Y-22616310D01*
X71873000Y-22664962D01*
X71957057Y-22834111D01*
X71999665Y-23058901D01*
X72000541Y-23290461D01*
X71959403Y-23479917D01*
X71878286Y-23577547D01*
X71761754Y-23573221D01*
X71544654Y-23525443D01*
X71260948Y-23445247D01*
X70944595Y-23343667D01*
X70629556Y-23231737D01*
X70349791Y-23120492D01*
X70139261Y-23020964D01*
X70105077Y-23001417D01*
X69952577Y-22874521D01*
X69785296Y-22680038D01*
X69618064Y-22444281D01*
X69465710Y-22193561D01*
X69343064Y-21954191D01*
X69264954Y-21752481D01*
X69246210Y-21614745D01*
X69296715Y-21567114D01*
G36*
X67667459Y-24582517D02*
X67746256Y-24432528D01*
X67815254Y-24351674D01*
X67890765Y-24332426D01*
X68020640Y-24374597D01*
X68148254Y-24430967D01*
X68422139Y-24615771D01*
X68701290Y-24914037D01*
X68960782Y-25297259D01*
X69051467Y-25463968D01*
X69147594Y-25683176D01*
X69157048Y-25804896D01*
X69080207Y-25847779D01*
X69059247Y-25848572D01*
X68947330Y-25817402D01*
X68743718Y-25734224D01*
X68485201Y-25614537D01*
X68378084Y-25561632D01*
X68084299Y-25405556D01*
X67896356Y-25280307D01*
X67785320Y-25162845D01*
X67726552Y-25042803D01*
X67656030Y-24776737D01*
X67667459Y-24582517D01*
X67667459Y-24582517D01*
G37*
X67667459Y-24582517D02*
X67746256Y-24432528D01*
X67815254Y-24351674D01*
X67890765Y-24332426D01*
X68020640Y-24374597D01*
X68148254Y-24430967D01*
X68422139Y-24615771D01*
X68701290Y-24914037D01*
X68960782Y-25297259D01*
X69051467Y-25463968D01*
X69147594Y-25683176D01*
X69157048Y-25804896D01*
X69080207Y-25847779D01*
X69059247Y-25848572D01*
X68947330Y-25817402D01*
X68743718Y-25734224D01*
X68485201Y-25614537D01*
X68378084Y-25561632D01*
X68084299Y-25405556D01*
X67896356Y-25280307D01*
X67785320Y-25162845D01*
X67726552Y-25042803D01*
X67656030Y-24776737D01*
X67667459Y-24582517D01*
G36*
X67696158Y-23140607D02*
X67772707Y-22990573D01*
X67869048Y-22945715D01*
X68105315Y-23010317D01*
X68369589Y-23190003D01*
X68639893Y-23463595D01*
X68894248Y-23809913D01*
X69051467Y-24085111D01*
X69147594Y-24304319D01*
X69157048Y-24426039D01*
X69080207Y-24468922D01*
X69059247Y-24469715D01*
X68947534Y-24438542D01*
X68743880Y-24355307D01*
X68484843Y-24235431D01*
X68372962Y-24180200D01*
X68091786Y-24033834D01*
X67912712Y-23921359D01*
X67805753Y-23816508D01*
X67740922Y-23693017D01*
X67709879Y-23599414D01*
X67671910Y-23357128D01*
X67696158Y-23140607D01*
X67696158Y-23140607D01*
G37*
X67696158Y-23140607D02*
X67772707Y-22990573D01*
X67869048Y-22945715D01*
X68105315Y-23010317D01*
X68369589Y-23190003D01*
X68639893Y-23463595D01*
X68894248Y-23809913D01*
X69051467Y-24085111D01*
X69147594Y-24304319D01*
X69157048Y-24426039D01*
X69080207Y-24468922D01*
X69059247Y-24469715D01*
X68947534Y-24438542D01*
X68743880Y-24355307D01*
X68484843Y-24235431D01*
X68372962Y-24180200D01*
X68091786Y-24033834D01*
X67912712Y-23921359D01*
X67805753Y-23816508D01*
X67740922Y-23693017D01*
X67709879Y-23599414D01*
X67671910Y-23357128D01*
X67696158Y-23140607D01*
D12*
X32500000Y-8000000D03*
D13*
X29960000Y-8000000D03*
X27420000Y-8000000D03*
X24880000Y-8000000D03*
D10*
G36*
X38356334Y-58714555D02*
X38745243Y-59103464D01*
X37613872Y-60234835D01*
X37224963Y-59845926D01*
X38356334Y-58714555D01*
X38356334Y-58714555D01*
G37*
G36*
X37790648Y-58148870D02*
X38179557Y-58537779D01*
X37048186Y-59669150D01*
X36659277Y-59280241D01*
X37790648Y-58148870D01*
X37790648Y-58148870D01*
G37*
G36*
X37224963Y-57583184D02*
X37613872Y-57972093D01*
X36482501Y-59103464D01*
X36093592Y-58714555D01*
X37224963Y-57583184D01*
X37224963Y-57583184D01*
G37*
G36*
X36659278Y-57017499D02*
X37048187Y-57406408D01*
X35916816Y-58537779D01*
X35527907Y-58148870D01*
X36659278Y-57017499D01*
X36659278Y-57017499D01*
G37*
G36*
X36093592Y-56451813D02*
X36482501Y-56840722D01*
X35351130Y-57972093D01*
X34962221Y-57583184D01*
X36093592Y-56451813D01*
X36093592Y-56451813D01*
G37*
G36*
X35527907Y-55886128D02*
X35916816Y-56275037D01*
X34785445Y-57406408D01*
X34396536Y-57017499D01*
X35527907Y-55886128D01*
X35527907Y-55886128D01*
G37*
G36*
X34962221Y-55320443D02*
X35351130Y-55709352D01*
X34219759Y-56840723D01*
X33830850Y-56451814D01*
X34962221Y-55320443D01*
X34962221Y-55320443D01*
G37*
G36*
X34396536Y-54754757D02*
X34785445Y-55143666D01*
X33654074Y-56275037D01*
X33265165Y-55886128D01*
X34396536Y-54754757D01*
X34396536Y-54754757D01*
G37*
G36*
X31214555Y-55143666D02*
X31603464Y-54754757D01*
X32734835Y-55886128D01*
X32345926Y-56275037D01*
X31214555Y-55143666D01*
X31214555Y-55143666D01*
G37*
G36*
X30648870Y-55709352D02*
X31037779Y-55320443D01*
X32169150Y-56451814D01*
X31780241Y-56840723D01*
X30648870Y-55709352D01*
X30648870Y-55709352D01*
G37*
G36*
X30083184Y-56275037D02*
X30472093Y-55886128D01*
X31603464Y-57017499D01*
X31214555Y-57406408D01*
X30083184Y-56275037D01*
X30083184Y-56275037D01*
G37*
G36*
X29517499Y-56840722D02*
X29906408Y-56451813D01*
X31037779Y-57583184D01*
X30648870Y-57972093D01*
X29517499Y-56840722D01*
X29517499Y-56840722D01*
G37*
G36*
X28951813Y-57406408D02*
X29340722Y-57017499D01*
X30472093Y-58148870D01*
X30083184Y-58537779D01*
X28951813Y-57406408D01*
X28951813Y-57406408D01*
G37*
G36*
X28386128Y-57972093D02*
X28775037Y-57583184D01*
X29906408Y-58714555D01*
X29517499Y-59103464D01*
X28386128Y-57972093D01*
X28386128Y-57972093D01*
G37*
G36*
X27820443Y-58537779D02*
X28209352Y-58148870D01*
X29340723Y-59280241D01*
X28951814Y-59669150D01*
X27820443Y-58537779D01*
X27820443Y-58537779D01*
G37*
G36*
X27254757Y-59103464D02*
X27643666Y-58714555D01*
X28775037Y-59845926D01*
X28386128Y-60234835D01*
X27254757Y-59103464D01*
X27254757Y-59103464D01*
G37*
G36*
X28386128Y-60765165D02*
X28775037Y-61154074D01*
X27643666Y-62285445D01*
X27254757Y-61896536D01*
X28386128Y-60765165D01*
X28386128Y-60765165D01*
G37*
G36*
X28951814Y-61330850D02*
X29340723Y-61719759D01*
X28209352Y-62851130D01*
X27820443Y-62462221D01*
X28951814Y-61330850D01*
X28951814Y-61330850D01*
G37*
G36*
X29517499Y-61896536D02*
X29906408Y-62285445D01*
X28775037Y-63416816D01*
X28386128Y-63027907D01*
X29517499Y-61896536D01*
X29517499Y-61896536D01*
G37*
G36*
X30083184Y-62462221D02*
X30472093Y-62851130D01*
X29340722Y-63982501D01*
X28951813Y-63593592D01*
X30083184Y-62462221D01*
X30083184Y-62462221D01*
G37*
G36*
X30648870Y-63027907D02*
X31037779Y-63416816D01*
X29906408Y-64548187D01*
X29517499Y-64159278D01*
X30648870Y-63027907D01*
X30648870Y-63027907D01*
G37*
G36*
X31214555Y-63593592D02*
X31603464Y-63982501D01*
X30472093Y-65113872D01*
X30083184Y-64724963D01*
X31214555Y-63593592D01*
X31214555Y-63593592D01*
G37*
G36*
X31780241Y-64159277D02*
X32169150Y-64548186D01*
X31037779Y-65679557D01*
X30648870Y-65290648D01*
X31780241Y-64159277D01*
X31780241Y-64159277D01*
G37*
G36*
X32345926Y-64724963D02*
X32734835Y-65113872D01*
X31603464Y-66245243D01*
X31214555Y-65856334D01*
X32345926Y-64724963D01*
X32345926Y-64724963D01*
G37*
G36*
X33265165Y-65113872D02*
X33654074Y-64724963D01*
X34785445Y-65856334D01*
X34396536Y-66245243D01*
X33265165Y-65113872D01*
X33265165Y-65113872D01*
G37*
G36*
X33830850Y-64548186D02*
X34219759Y-64159277D01*
X35351130Y-65290648D01*
X34962221Y-65679557D01*
X33830850Y-64548186D01*
X33830850Y-64548186D01*
G37*
G36*
X34396536Y-63982501D02*
X34785445Y-63593592D01*
X35916816Y-64724963D01*
X35527907Y-65113872D01*
X34396536Y-63982501D01*
X34396536Y-63982501D01*
G37*
G36*
X34962221Y-63416816D02*
X35351130Y-63027907D01*
X36482501Y-64159278D01*
X36093592Y-64548187D01*
X34962221Y-63416816D01*
X34962221Y-63416816D01*
G37*
G36*
X35527907Y-62851130D02*
X35916816Y-62462221D01*
X37048187Y-63593592D01*
X36659278Y-63982501D01*
X35527907Y-62851130D01*
X35527907Y-62851130D01*
G37*
G36*
X36093592Y-62285445D02*
X36482501Y-61896536D01*
X37613872Y-63027907D01*
X37224963Y-63416816D01*
X36093592Y-62285445D01*
X36093592Y-62285445D01*
G37*
G36*
X36659277Y-61719759D02*
X37048186Y-61330850D01*
X38179557Y-62462221D01*
X37790648Y-62851130D01*
X36659277Y-61719759D01*
X36659277Y-61719759D01*
G37*
G36*
X37224963Y-61154074D02*
X37613872Y-60765165D01*
X38745243Y-61896536D01*
X38356334Y-62285445D01*
X37224963Y-61154074D01*
X37224963Y-61154074D01*
G37*
D14*
X54000000Y-9000000D03*
D15*
X54000000Y-14000000D03*
D16*
X39500000Y-9500000D03*
X37000000Y-9500000D03*
D17*
X31500000Y-71000000D03*
X33000000Y-71000000D03*
X34500000Y-71000000D03*
X36000000Y-71000000D03*
X37500000Y-71000000D03*
X39000000Y-71000000D03*
D18*
X33700000Y-18500000D03*
X29300000Y-18500000D03*
D19*
X22549020Y-8000000D03*
X20450980Y-8000000D03*
X39500000Y-22049020D03*
X39500000Y-19950980D03*
D20*
X43000000Y-17250000D03*
X43000000Y-14750000D03*
X43000000Y-25250000D03*
X43000000Y-22750000D03*
D21*
X37000000Y-44000000D03*
X37000000Y-42500000D03*
X37000000Y-41000000D03*
X37000000Y-39500000D03*
X37000000Y-38000000D03*
X37000000Y-36500000D03*
D22*
X36250000Y-25150000D03*
X35750000Y-25150000D03*
X35250000Y-25150000D03*
X34750000Y-25150000D03*
X34250000Y-25150000D03*
X33750000Y-25150000D03*
X33250000Y-25150000D03*
X32750000Y-25150000D03*
X32250000Y-25150000D03*
X31750000Y-25150000D03*
X31250000Y-25150000D03*
X30750000Y-25150000D03*
D23*
X29150000Y-26750000D03*
X29150000Y-27250000D03*
X29150000Y-27750000D03*
X29150000Y-28250000D03*
X29150000Y-28750000D03*
X29150000Y-29250000D03*
X29150000Y-29750000D03*
X29150000Y-30250000D03*
X29150000Y-30750000D03*
X29150000Y-31250000D03*
X29150000Y-31750000D03*
X29150000Y-32250000D03*
D22*
X30750000Y-33850000D03*
X31250000Y-33850000D03*
X31750000Y-33850000D03*
X32250000Y-33850000D03*
X32750000Y-33850000D03*
X33250000Y-33850000D03*
X33750000Y-33850000D03*
X34250000Y-33850000D03*
X34750000Y-33850000D03*
X35250000Y-33850000D03*
X35750000Y-33850000D03*
X36250000Y-33850000D03*
D23*
X37850000Y-32250000D03*
X37850000Y-31750000D03*
X37850000Y-31250000D03*
X37850000Y-30750000D03*
X37850000Y-30250000D03*
X37850000Y-29750000D03*
X37850000Y-29250000D03*
X37850000Y-28750000D03*
X37850000Y-28250000D03*
X37850000Y-27750000D03*
X37850000Y-27250000D03*
X37850000Y-26750000D03*
D20*
X43000000Y-33250000D03*
X43000000Y-30750000D03*
X43000000Y-41250000D03*
X43000000Y-38750000D03*
X43000000Y-49250000D03*
X43000000Y-46750000D03*
X43000000Y-57250000D03*
X43000000Y-54750000D03*
D24*
X24500000Y-43500000D03*
D25*
X24500000Y-40960000D03*
X24500000Y-38420000D03*
X24500000Y-35880000D03*
D14*
X64500000Y-9000000D03*
D15*
X64500000Y-14000000D03*
D14*
X52500000Y-66000000D03*
D15*
X52500000Y-71000000D03*
D14*
X63000000Y-66000000D03*
D15*
X63000000Y-71000000D03*
D19*
X37500000Y-22049020D03*
X37500000Y-19950980D03*
X35500000Y-22049020D03*
X35500000Y-19950980D03*
D26*
X23050000Y-19501140D03*
X24950000Y-19501140D03*
X24000000Y-16498860D03*
D27*
X19000000Y-44000000D03*
X19000000Y-46500000D03*
X19000000Y-49000000D03*
X19000000Y-51500000D03*
X19000000Y-16500000D03*
X19000000Y-19000000D03*
X19000000Y-21500000D03*
X19000000Y-26500000D03*
X19000000Y-29000000D03*
X19000000Y-31500000D03*
X19000000Y-34000000D03*
X19000000Y-36500000D03*
X19000000Y-39000000D03*
D28*
X33000000Y-43300000D03*
X33000000Y-37700000D03*
X29000000Y-43300000D03*
X29000000Y-37700000D03*
D29*
X17200000Y-11000000D03*
X22800000Y-11000000D03*
X31800000Y-47000000D03*
X26200000Y-47000000D03*
D19*
X26049020Y-30500000D03*
X23950980Y-30500000D03*
D30*
X34400000Y-16000000D03*
X32500000Y-16000000D03*
X29600000Y-16000000D03*
X31500000Y-16000000D03*
D10*
G36*
X32952081Y-22744975D02*
X32244975Y-23452081D01*
X31820711Y-23027817D01*
X32527817Y-22320711D01*
X32952081Y-22744975D01*
X32952081Y-22744975D01*
G37*
G36*
X31608578Y-21401472D02*
X30901472Y-22108578D01*
X30477208Y-21684314D01*
X31184314Y-20977208D01*
X31608578Y-21401472D01*
X31608578Y-21401472D01*
G37*
G36*
X39202081Y-25494975D02*
X38494975Y-26202081D01*
X38070711Y-25777817D01*
X38777817Y-25070711D01*
X39202081Y-25494975D01*
X39202081Y-25494975D01*
G37*
G36*
X37858578Y-24151472D02*
X37151472Y-24858578D01*
X36727208Y-24434314D01*
X37434314Y-23727208D01*
X37858578Y-24151472D01*
X37858578Y-24151472D01*
G37*
G36*
X27797919Y-33505025D02*
X28505025Y-32797919D01*
X28929289Y-33222183D01*
X28222183Y-33929289D01*
X27797919Y-33505025D01*
X27797919Y-33505025D01*
G37*
G36*
X29141422Y-34848528D02*
X29848528Y-34141422D01*
X30272792Y-34565686D01*
X29565686Y-35272792D01*
X29141422Y-34848528D01*
X29141422Y-34848528D01*
G37*
D30*
X41900000Y-64500000D03*
X40000000Y-64500000D03*
X28900000Y-65500000D03*
X27000000Y-65500000D03*
X18900000Y-8000000D03*
X17000000Y-8000000D03*
D31*
X54500000Y-53400000D03*
X54500000Y-51500000D03*
X54500000Y-61400000D03*
X54500000Y-59500000D03*
X54500000Y-21400000D03*
X54500000Y-19500000D03*
X54500000Y-29400000D03*
X54500000Y-27500000D03*
X54500000Y-37400000D03*
X54500000Y-35500000D03*
X54500000Y-45400000D03*
X54500000Y-43500000D03*
D30*
X41900000Y-66000000D03*
X40000000Y-66000000D03*
X41900000Y-63000000D03*
X40000000Y-63000000D03*
D31*
X27000000Y-50900000D03*
X27000000Y-49000000D03*
D30*
X25400000Y-33500000D03*
X23500000Y-33500000D03*
X24900000Y-21000000D03*
X23000000Y-21000000D03*
X25100000Y-16500000D03*
X27000000Y-16500000D03*
D32*
X28000000Y-14100000D03*
X28000000Y-10900000D03*
X25500000Y-14100000D03*
X25500000Y-10900000D03*
D33*
X48100000Y-16000000D03*
X44900000Y-16000000D03*
X48100000Y-64000000D03*
X44900000Y-64000000D03*
X53600000Y-24000000D03*
X50400000Y-24000000D03*
X48100000Y-24000000D03*
X44900000Y-24000000D03*
X53600000Y-32000000D03*
X50400000Y-32000000D03*
X53600000Y-40000000D03*
X50400000Y-40000000D03*
X53600000Y-48000000D03*
X50400000Y-48000000D03*
X53600000Y-56000000D03*
X50400000Y-56000000D03*
X48100000Y-32000000D03*
X44900000Y-32000000D03*
X48100000Y-40000000D03*
X44900000Y-40000000D03*
X48100000Y-48000000D03*
X44900000Y-48000000D03*
X48100000Y-56000000D03*
X44900000Y-56000000D03*
D32*
X33000000Y-14100000D03*
X33000000Y-10900000D03*
X30500000Y-14100000D03*
X30500000Y-10900000D03*
X39500000Y-53400000D03*
X39500000Y-56600000D03*
D34*
X45800000Y-50095000D03*
X45800000Y-51365000D03*
X45800000Y-52635000D03*
X45800000Y-53905000D03*
X51200000Y-53905000D03*
X51200000Y-52635000D03*
X51200000Y-51365000D03*
X51200000Y-50095000D03*
X45800000Y-58095000D03*
X45800000Y-59365000D03*
X45800000Y-60635000D03*
X45800000Y-61905000D03*
X51200000Y-61905000D03*
X51200000Y-60635000D03*
X51200000Y-59365000D03*
X51200000Y-58095000D03*
X45800000Y-18095000D03*
X45800000Y-19365000D03*
X45800000Y-20635000D03*
X45800000Y-21905000D03*
X51200000Y-21905000D03*
X51200000Y-20635000D03*
X51200000Y-19365000D03*
X51200000Y-18095000D03*
X45800000Y-26095000D03*
X45800000Y-27365000D03*
X45800000Y-28635000D03*
X45800000Y-29905000D03*
X51200000Y-29905000D03*
X51200000Y-28635000D03*
X51200000Y-27365000D03*
X51200000Y-26095000D03*
X45800000Y-34095000D03*
X45800000Y-35365000D03*
X45800000Y-36635000D03*
X45800000Y-37905000D03*
X51200000Y-37905000D03*
X51200000Y-36635000D03*
X51200000Y-35365000D03*
X51200000Y-34095000D03*
X45800000Y-42095000D03*
X45800000Y-43365000D03*
X45800000Y-44635000D03*
X45800000Y-45905000D03*
X51200000Y-45905000D03*
X51200000Y-44635000D03*
X51200000Y-43365000D03*
X51200000Y-42095000D03*
D30*
X41900000Y-61500000D03*
X40000000Y-61500000D03*
D35*
X79000000Y-71500000D03*
D19*
X28500000Y-69950980D03*
X28500000Y-72049020D03*
X20049020Y-68000000D03*
X17950980Y-68000000D03*
D36*
X35440940Y-52000000D03*
X30559060Y-52000000D03*
D35*
X36400000Y-16000000D03*
X39600000Y-16000000D03*
D30*
X36600000Y-69000000D03*
X38500000Y-69000000D03*
D17*
X18000000Y-71000000D03*
X19500000Y-71000000D03*
X21000000Y-71000000D03*
X22500000Y-71000000D03*
X24000000Y-71000000D03*
X25500000Y-71000000D03*
D27*
X19000000Y-56500000D03*
X19000000Y-59000000D03*
X19000000Y-61500000D03*
X19000000Y-64000000D03*
D37*
X24500000Y-50000000D03*
D38*
X24500000Y-52540000D03*
X24500000Y-55080000D03*
X24500000Y-57620000D03*
X24500000Y-60160000D03*
X24500000Y-62700000D03*
X24500000Y-65240000D03*
X24500000Y-67780000D03*
D19*
X38000000Y-48549020D03*
X38000000Y-46450980D03*
X35500000Y-48549020D03*
X35500000Y-46450980D03*
D39*
X26501140Y-24950000D03*
X26501140Y-23050000D03*
X23498860Y-24000000D03*
D31*
X28500000Y-24900000D03*
X28500000Y-23000000D03*
D40*
G36*
X65487000Y-19005384D02*
X65487000Y-20994616D01*
X64490808Y-21990808D01*
X64487955Y-21995108D01*
X64487000Y-22000000D01*
X64487000Y-23487000D01*
X55513000Y-23487000D01*
X55513000Y-18505384D01*
X56505384Y-17513000D01*
X63994616Y-17513000D01*
X65487000Y-19005384D01*
X65487000Y-19005384D01*
G37*
X65487000Y-19005384D02*
X65487000Y-20994616D01*
X64490808Y-21990808D01*
X64487955Y-21995108D01*
X64487000Y-22000000D01*
X64487000Y-23487000D01*
X55513000Y-23487000D01*
X55513000Y-18505384D01*
X56505384Y-17513000D01*
X63994616Y-17513000D01*
X65487000Y-19005384D01*
G36*
X65487000Y-27005384D02*
X65487000Y-28994616D01*
X64490808Y-29990808D01*
X64487955Y-29995108D01*
X64487000Y-30000000D01*
X64487000Y-31487000D01*
X55513000Y-31487000D01*
X55513000Y-26505384D01*
X56505384Y-25513000D01*
X63994616Y-25513000D01*
X65487000Y-27005384D01*
X65487000Y-27005384D01*
G37*
X65487000Y-27005384D02*
X65487000Y-28994616D01*
X64490808Y-29990808D01*
X64487955Y-29995108D01*
X64487000Y-30000000D01*
X64487000Y-31487000D01*
X55513000Y-31487000D01*
X55513000Y-26505384D01*
X56505384Y-25513000D01*
X63994616Y-25513000D01*
X65487000Y-27005384D01*
G36*
X65487000Y-35005384D02*
X65487000Y-36994616D01*
X64490808Y-37990808D01*
X64487955Y-37995108D01*
X64487000Y-38000000D01*
X64487000Y-39487000D01*
X55513000Y-39487000D01*
X55513000Y-34505384D01*
X56505384Y-33513000D01*
X63994616Y-33513000D01*
X65487000Y-35005384D01*
X65487000Y-35005384D01*
G37*
X65487000Y-35005384D02*
X65487000Y-36994616D01*
X64490808Y-37990808D01*
X64487955Y-37995108D01*
X64487000Y-38000000D01*
X64487000Y-39487000D01*
X55513000Y-39487000D01*
X55513000Y-34505384D01*
X56505384Y-33513000D01*
X63994616Y-33513000D01*
X65487000Y-35005384D01*
G36*
X65487000Y-43005384D02*
X65487000Y-44994616D01*
X64490808Y-45990808D01*
X64487955Y-45995108D01*
X64487000Y-46000000D01*
X64487000Y-47487000D01*
X55513000Y-47487000D01*
X55513000Y-42505384D01*
X56505384Y-41513000D01*
X63994616Y-41513000D01*
X65487000Y-43005384D01*
X65487000Y-43005384D01*
G37*
X65487000Y-43005384D02*
X65487000Y-44994616D01*
X64490808Y-45990808D01*
X64487955Y-45995108D01*
X64487000Y-46000000D01*
X64487000Y-47487000D01*
X55513000Y-47487000D01*
X55513000Y-42505384D01*
X56505384Y-41513000D01*
X63994616Y-41513000D01*
X65487000Y-43005384D01*
G36*
X65487000Y-51005384D02*
X65487000Y-52994616D01*
X64490808Y-53990808D01*
X64487955Y-53995108D01*
X64487000Y-54000000D01*
X64487000Y-55487000D01*
X55513000Y-55487000D01*
X55513000Y-50505384D01*
X56505384Y-49513000D01*
X63994616Y-49513000D01*
X65487000Y-51005384D01*
X65487000Y-51005384D01*
G37*
X65487000Y-51005384D02*
X65487000Y-52994616D01*
X64490808Y-53990808D01*
X64487955Y-53995108D01*
X64487000Y-54000000D01*
X64487000Y-55487000D01*
X55513000Y-55487000D01*
X55513000Y-50505384D01*
X56505384Y-49513000D01*
X63994616Y-49513000D01*
X65487000Y-51005384D01*
G36*
X65487000Y-59005384D02*
X65487000Y-60994616D01*
X64490808Y-61990808D01*
X64487955Y-61995108D01*
X64487000Y-62000000D01*
X64487000Y-63487000D01*
X55513000Y-63487000D01*
X55513000Y-58505384D01*
X56505384Y-57513000D01*
X63994616Y-57513000D01*
X65487000Y-59005384D01*
X65487000Y-59005384D01*
G37*
X65487000Y-59005384D02*
X65487000Y-60994616D01*
X64490808Y-61990808D01*
X64487955Y-61995108D01*
X64487000Y-62000000D01*
X64487000Y-63487000D01*
X55513000Y-63487000D01*
X55513000Y-58505384D01*
X56505384Y-57513000D01*
X63994616Y-57513000D01*
X65487000Y-59005384D01*
G36*
X70686270Y-73550306D02*
X70844181Y-73655819D01*
X70949694Y-73813730D01*
X70987000Y-74001279D01*
X70987000Y-76998721D01*
X70949694Y-77186270D01*
X70844181Y-77344181D01*
X70686270Y-77449694D01*
X70498721Y-77487000D01*
X67501279Y-77487000D01*
X67313730Y-77449694D01*
X67155819Y-77344181D01*
X67050306Y-77186270D01*
X67013000Y-76998721D01*
X67013000Y-74001279D01*
X67050306Y-73813730D01*
X67155819Y-73655819D01*
X67313730Y-73550306D01*
X67501279Y-73513000D01*
X70498721Y-73513000D01*
X70686270Y-73550306D01*
X70686270Y-73550306D01*
G37*
X70686270Y-73550306D02*
X70844181Y-73655819D01*
X70949694Y-73813730D01*
X70987000Y-74001279D01*
X70987000Y-76998721D01*
X70949694Y-77186270D01*
X70844181Y-77344181D01*
X70686270Y-77449694D01*
X70498721Y-77487000D01*
X67501279Y-77487000D01*
X67313730Y-77449694D01*
X67155819Y-77344181D01*
X67050306Y-77186270D01*
X67013000Y-76998721D01*
X67013000Y-74001279D01*
X67050306Y-73813730D01*
X67155819Y-73655819D01*
X67313730Y-73550306D01*
X67501279Y-73513000D01*
X70498721Y-73513000D01*
X70686270Y-73550306D01*
G36*
X70686270Y-2550306D02*
X70844181Y-2655819D01*
X70949694Y-2813730D01*
X70987000Y-3001279D01*
X70987000Y-5998721D01*
X70949694Y-6186270D01*
X70844181Y-6344181D01*
X70686270Y-6449694D01*
X70498721Y-6487000D01*
X67501279Y-6487000D01*
X67313730Y-6449694D01*
X67155819Y-6344181D01*
X67050306Y-6186270D01*
X67013000Y-5998721D01*
X67013000Y-3001279D01*
X67050306Y-2813730D01*
X67155819Y-2655819D01*
X67313730Y-2550306D01*
X67501279Y-2513000D01*
X70498721Y-2513000D01*
X70686270Y-2550306D01*
X70686270Y-2550306D01*
G37*
X70686270Y-2550306D02*
X70844181Y-2655819D01*
X70949694Y-2813730D01*
X70987000Y-3001279D01*
X70987000Y-5998721D01*
X70949694Y-6186270D01*
X70844181Y-6344181D01*
X70686270Y-6449694D01*
X70498721Y-6487000D01*
X67501279Y-6487000D01*
X67313730Y-6449694D01*
X67155819Y-6344181D01*
X67050306Y-6186270D01*
X67013000Y-5998721D01*
X67013000Y-3001279D01*
X67050306Y-2813730D01*
X67155819Y-2655819D01*
X67313730Y-2550306D01*
X67501279Y-2513000D01*
X70498721Y-2513000D01*
X70686270Y-2550306D01*
G36*
X81487000Y-7005384D02*
X81487000Y-9994616D01*
X80994616Y-10487000D01*
X78005384Y-10487000D01*
X77513000Y-9994616D01*
X77513000Y-7005384D01*
X78005384Y-6513000D01*
X80994616Y-6513000D01*
X81487000Y-7005384D01*
X81487000Y-7005384D01*
G37*
X81487000Y-7005384D02*
X81487000Y-9994616D01*
X80994616Y-10487000D01*
X78005384Y-10487000D01*
X77513000Y-9994616D01*
X77513000Y-7005384D01*
X78005384Y-6513000D01*
X80994616Y-6513000D01*
X81487000Y-7005384D01*
G36*
X81487000Y-70005384D02*
X81487000Y-72994616D01*
X80994616Y-73487000D01*
X78005384Y-73487000D01*
X77513000Y-72994616D01*
X77513000Y-70005384D01*
X78005384Y-69513000D01*
X80994616Y-69513000D01*
X81487000Y-70005384D01*
X81487000Y-70005384D01*
G37*
X81487000Y-70005384D02*
X81487000Y-72994616D01*
X80994616Y-73487000D01*
X78005384Y-73487000D01*
X77513000Y-72994616D01*
X77513000Y-70005384D01*
X78005384Y-69513000D01*
X80994616Y-69513000D01*
X81487000Y-70005384D01*
M02*
