G04 #@! TF.FileFunction,Legend,Top*
%FSLAX46Y46*%
G04 Gerber Fmt 4.6, Leading zero omitted, Abs format (unit mm)*
G04 Created by KiCad (PCBNEW 4.0.7) date 10/26/17 16:00:21*
%MOMM*%
%LPD*%
G01*
G04 APERTURE LIST*
%ADD10C,0.100000*%
%ADD11C,0.200000*%
%ADD12C,0.150000*%
%ADD13C,0.300000*%
%ADD14C,0.101600*%
G04 APERTURE END LIST*
D10*
D11*
X21047619Y-67333334D02*
X21047619Y-66857143D01*
X22047619Y-66857143D01*
X21047619Y-67666667D02*
X22047619Y-67666667D01*
X22047619Y-67904762D01*
X22000000Y-68047620D01*
X21904762Y-68142858D01*
X21809524Y-68190477D01*
X21619048Y-68238096D01*
X21476190Y-68238096D01*
X21285714Y-68190477D01*
X21190476Y-68142858D01*
X21095238Y-68047620D01*
X21047619Y-67904762D01*
X21047619Y-67666667D01*
X21714286Y-69095239D02*
X21047619Y-69095239D01*
X22095238Y-68857143D02*
X21380952Y-68619048D01*
X21380952Y-69238096D01*
X32952381Y-45952381D02*
X32619047Y-45476190D01*
X32380952Y-45952381D02*
X32380952Y-44952381D01*
X32761905Y-44952381D01*
X32857143Y-45000000D01*
X32904762Y-45047619D01*
X32952381Y-45142857D01*
X32952381Y-45285714D01*
X32904762Y-45380952D01*
X32857143Y-45428571D01*
X32761905Y-45476190D01*
X32380952Y-45476190D01*
X33333333Y-45904762D02*
X33476190Y-45952381D01*
X33714286Y-45952381D01*
X33809524Y-45904762D01*
X33857143Y-45857143D01*
X33904762Y-45761905D01*
X33904762Y-45666667D01*
X33857143Y-45571429D01*
X33809524Y-45523810D01*
X33714286Y-45476190D01*
X33523809Y-45428571D01*
X33428571Y-45380952D01*
X33380952Y-45333333D01*
X33333333Y-45238095D01*
X33333333Y-45142857D01*
X33380952Y-45047619D01*
X33428571Y-45000000D01*
X33523809Y-44952381D01*
X33761905Y-44952381D01*
X33904762Y-45000000D01*
X34190476Y-44952381D02*
X34761905Y-44952381D01*
X34476190Y-45952381D02*
X34476190Y-44952381D01*
X31666667Y-35904762D02*
X31809524Y-35952381D01*
X32047620Y-35952381D01*
X32142858Y-35904762D01*
X32190477Y-35857143D01*
X32238096Y-35761905D01*
X32238096Y-35666667D01*
X32190477Y-35571429D01*
X32142858Y-35523810D01*
X32047620Y-35476190D01*
X31857143Y-35428571D01*
X31761905Y-35380952D01*
X31714286Y-35333333D01*
X31666667Y-35238095D01*
X31666667Y-35142857D01*
X31714286Y-35047619D01*
X31761905Y-35000000D01*
X31857143Y-34952381D01*
X32095239Y-34952381D01*
X32238096Y-35000000D01*
X32571429Y-34952381D02*
X32809524Y-35952381D01*
X33000001Y-35238095D01*
X33190477Y-35952381D01*
X33428572Y-34952381D01*
X33761905Y-35047619D02*
X33809524Y-35000000D01*
X33904762Y-34952381D01*
X34142858Y-34952381D01*
X34238096Y-35000000D01*
X34285715Y-35047619D01*
X34333334Y-35142857D01*
X34333334Y-35238095D01*
X34285715Y-35380952D01*
X33714286Y-35952381D01*
X34333334Y-35952381D01*
X27666667Y-35904762D02*
X27809524Y-35952381D01*
X28047620Y-35952381D01*
X28142858Y-35904762D01*
X28190477Y-35857143D01*
X28238096Y-35761905D01*
X28238096Y-35666667D01*
X28190477Y-35571429D01*
X28142858Y-35523810D01*
X28047620Y-35476190D01*
X27857143Y-35428571D01*
X27761905Y-35380952D01*
X27714286Y-35333333D01*
X27666667Y-35238095D01*
X27666667Y-35142857D01*
X27714286Y-35047619D01*
X27761905Y-35000000D01*
X27857143Y-34952381D01*
X28095239Y-34952381D01*
X28238096Y-35000000D01*
X28571429Y-34952381D02*
X28809524Y-35952381D01*
X29000001Y-35238095D01*
X29190477Y-35952381D01*
X29428572Y-34952381D01*
X30333334Y-35952381D02*
X29761905Y-35952381D01*
X30047619Y-35952381D02*
X30047619Y-34952381D01*
X29952381Y-35095238D01*
X29857143Y-35190476D01*
X29761905Y-35238095D01*
X39595238Y-35214286D02*
X39547619Y-35357143D01*
X39547619Y-35595239D01*
X39595238Y-35690477D01*
X39642857Y-35738096D01*
X39738095Y-35785715D01*
X39833333Y-35785715D01*
X39928571Y-35738096D01*
X39976190Y-35690477D01*
X40023810Y-35595239D01*
X40071429Y-35404762D01*
X40119048Y-35309524D01*
X40166667Y-35261905D01*
X40261905Y-35214286D01*
X40357143Y-35214286D01*
X40452381Y-35261905D01*
X40500000Y-35309524D01*
X40547619Y-35404762D01*
X40547619Y-35642858D01*
X40500000Y-35785715D01*
X40547619Y-36071429D02*
X40547619Y-36642858D01*
X39547619Y-36357143D02*
X40547619Y-36357143D01*
X39928571Y-36976191D02*
X39928571Y-37738096D01*
X39547619Y-38690477D02*
X39547619Y-38214286D01*
X40547619Y-38214286D01*
X39547619Y-39023810D02*
X40214286Y-39023810D01*
X40547619Y-39023810D02*
X40500000Y-38976191D01*
X40452381Y-39023810D01*
X40500000Y-39071429D01*
X40547619Y-39023810D01*
X40452381Y-39023810D01*
X40214286Y-39500000D02*
X39547619Y-39500000D01*
X40119048Y-39500000D02*
X40166667Y-39547619D01*
X40214286Y-39642857D01*
X40214286Y-39785715D01*
X40166667Y-39880953D01*
X40071429Y-39928572D01*
X39547619Y-39928572D01*
X39547619Y-40404762D02*
X40547619Y-40404762D01*
X39928571Y-40500000D02*
X39547619Y-40785715D01*
X40214286Y-40785715D02*
X39833333Y-40404762D01*
X26095238Y-34523809D02*
X26047619Y-34666666D01*
X26047619Y-34904762D01*
X26095238Y-35000000D01*
X26142857Y-35047619D01*
X26238095Y-35095238D01*
X26333333Y-35095238D01*
X26428571Y-35047619D01*
X26476190Y-35000000D01*
X26523810Y-34904762D01*
X26571429Y-34714285D01*
X26619048Y-34619047D01*
X26666667Y-34571428D01*
X26761905Y-34523809D01*
X26857143Y-34523809D01*
X26952381Y-34571428D01*
X27000000Y-34619047D01*
X27047619Y-34714285D01*
X27047619Y-34952381D01*
X27000000Y-35095238D01*
X26095238Y-35904762D02*
X26047619Y-35809524D01*
X26047619Y-35619047D01*
X26095238Y-35523809D01*
X26190476Y-35476190D01*
X26571429Y-35476190D01*
X26666667Y-35523809D01*
X26714286Y-35619047D01*
X26714286Y-35809524D01*
X26666667Y-35904762D01*
X26571429Y-35952381D01*
X26476190Y-35952381D01*
X26380952Y-35476190D01*
X26047619Y-36380952D02*
X26714286Y-36380952D01*
X26523810Y-36380952D02*
X26619048Y-36428571D01*
X26666667Y-36476190D01*
X26714286Y-36571428D01*
X26714286Y-36666667D01*
X26047619Y-37000000D02*
X26714286Y-37000000D01*
X27047619Y-37000000D02*
X27000000Y-36952381D01*
X26952381Y-37000000D01*
X27000000Y-37047619D01*
X27047619Y-37000000D01*
X26952381Y-37000000D01*
X26047619Y-37904762D02*
X26571429Y-37904762D01*
X26666667Y-37857143D01*
X26714286Y-37761905D01*
X26714286Y-37571428D01*
X26666667Y-37476190D01*
X26095238Y-37904762D02*
X26047619Y-37809524D01*
X26047619Y-37571428D01*
X26095238Y-37476190D01*
X26190476Y-37428571D01*
X26285714Y-37428571D01*
X26380952Y-37476190D01*
X26428571Y-37571428D01*
X26428571Y-37809524D01*
X26476190Y-37904762D01*
X26047619Y-38523809D02*
X26095238Y-38428571D01*
X26190476Y-38380952D01*
X27047619Y-38380952D01*
X23047619Y-45523810D02*
X24047619Y-45523810D01*
X23952381Y-45952381D02*
X24000000Y-46000000D01*
X24047619Y-46095238D01*
X24047619Y-46333334D01*
X24000000Y-46428572D01*
X23952381Y-46476191D01*
X23857143Y-46523810D01*
X23761905Y-46523810D01*
X23619048Y-46476191D01*
X23047619Y-45904762D01*
X23047619Y-46523810D01*
X23142857Y-47523810D02*
X23095238Y-47476191D01*
X23047619Y-47333334D01*
X23047619Y-47238096D01*
X23095238Y-47095238D01*
X23190476Y-47000000D01*
X23285714Y-46952381D01*
X23476190Y-46904762D01*
X23619048Y-46904762D01*
X23809524Y-46952381D01*
X23904762Y-47000000D01*
X24000000Y-47095238D01*
X24047619Y-47238096D01*
X24047619Y-47333334D01*
X24000000Y-47476191D01*
X23952381Y-47523810D01*
X22595238Y-26976191D02*
X22547619Y-27119048D01*
X22547619Y-27357144D01*
X22595238Y-27452382D01*
X22642857Y-27500001D01*
X22738095Y-27547620D01*
X22833333Y-27547620D01*
X22928571Y-27500001D01*
X22976190Y-27452382D01*
X23023810Y-27357144D01*
X23071429Y-27166667D01*
X23119048Y-27071429D01*
X23166667Y-27023810D01*
X23261905Y-26976191D01*
X23357143Y-26976191D01*
X23452381Y-27023810D01*
X23500000Y-27071429D01*
X23547619Y-27166667D01*
X23547619Y-27404763D01*
X23500000Y-27547620D01*
X22547619Y-27976191D02*
X23547619Y-27976191D01*
X23547619Y-28357144D01*
X23500000Y-28452382D01*
X23452381Y-28500001D01*
X23357143Y-28547620D01*
X23214286Y-28547620D01*
X23119048Y-28500001D01*
X23071429Y-28452382D01*
X23023810Y-28357144D01*
X23023810Y-27976191D01*
X22547619Y-28976191D02*
X23547619Y-28976191D01*
X19452381Y-11452381D02*
X19119047Y-10976190D01*
X18880952Y-11452381D02*
X18880952Y-10452381D01*
X19261905Y-10452381D01*
X19357143Y-10500000D01*
X19404762Y-10547619D01*
X19452381Y-10642857D01*
X19452381Y-10785714D01*
X19404762Y-10880952D01*
X19357143Y-10928571D01*
X19261905Y-10976190D01*
X18880952Y-10976190D01*
X19833333Y-11404762D02*
X19976190Y-11452381D01*
X20214286Y-11452381D01*
X20309524Y-11404762D01*
X20357143Y-11357143D01*
X20404762Y-11261905D01*
X20404762Y-11166667D01*
X20357143Y-11071429D01*
X20309524Y-11023810D01*
X20214286Y-10976190D01*
X20023809Y-10928571D01*
X19928571Y-10880952D01*
X19880952Y-10833333D01*
X19833333Y-10738095D01*
X19833333Y-10642857D01*
X19880952Y-10547619D01*
X19928571Y-10500000D01*
X20023809Y-10452381D01*
X20261905Y-10452381D01*
X20404762Y-10500000D01*
X20690476Y-10452381D02*
X21261905Y-10452381D01*
X20976190Y-11452381D02*
X20976190Y-10452381D01*
X39500000Y-17000000D02*
X39500000Y-18000000D01*
X39000000Y-17500000D02*
X40000000Y-17500000D01*
X36666667Y-11952381D02*
X36666667Y-10952381D01*
X37047620Y-10952381D01*
X37142858Y-11000000D01*
X37190477Y-11047619D01*
X37238096Y-11142857D01*
X37238096Y-11285714D01*
X37190477Y-11380952D01*
X37142858Y-11428571D01*
X37047620Y-11476190D01*
X36666667Y-11476190D01*
X37571429Y-10952381D02*
X37809524Y-11952381D01*
X38000001Y-11238095D01*
X38190477Y-11952381D01*
X38428572Y-10952381D01*
X39380953Y-11952381D02*
X39047619Y-11476190D01*
X38809524Y-11952381D02*
X38809524Y-10952381D01*
X39190477Y-10952381D01*
X39285715Y-11000000D01*
X39333334Y-11047619D01*
X39380953Y-11142857D01*
X39380953Y-11285714D01*
X39333334Y-11380952D01*
X39285715Y-11428571D01*
X39190477Y-11476190D01*
X38809524Y-11476190D01*
X32238096Y-52452381D02*
X31666667Y-52452381D01*
X31952381Y-52452381D02*
X31952381Y-51452381D01*
X31857143Y-51595238D01*
X31761905Y-51690476D01*
X31666667Y-51738095D01*
X33095239Y-51452381D02*
X32904762Y-51452381D01*
X32809524Y-51500000D01*
X32761905Y-51547619D01*
X32666667Y-51690476D01*
X32619048Y-51880952D01*
X32619048Y-52261905D01*
X32666667Y-52357143D01*
X32714286Y-52404762D01*
X32809524Y-52452381D01*
X33000001Y-52452381D01*
X33095239Y-52404762D01*
X33142858Y-52357143D01*
X33190477Y-52261905D01*
X33190477Y-52023810D01*
X33142858Y-51928571D01*
X33095239Y-51880952D01*
X33000001Y-51833333D01*
X32809524Y-51833333D01*
X32714286Y-51880952D01*
X32666667Y-51928571D01*
X32619048Y-52023810D01*
X33619048Y-52452381D02*
X33619048Y-51452381D01*
X33952382Y-52166667D01*
X34285715Y-51452381D01*
X34285715Y-52452381D01*
X31833333Y-20880952D02*
X31738095Y-20833333D01*
X31690476Y-20785714D01*
X31642857Y-20690476D01*
X31642857Y-20642857D01*
X31690476Y-20547619D01*
X31738095Y-20500000D01*
X31833333Y-20452381D01*
X32023810Y-20452381D01*
X32119048Y-20500000D01*
X32166667Y-20547619D01*
X32214286Y-20642857D01*
X32214286Y-20690476D01*
X32166667Y-20785714D01*
X32119048Y-20833333D01*
X32023810Y-20880952D01*
X31833333Y-20880952D01*
X31738095Y-20928571D01*
X31690476Y-20976190D01*
X31642857Y-21071429D01*
X31642857Y-21261905D01*
X31690476Y-21357143D01*
X31738095Y-21404762D01*
X31833333Y-21452381D01*
X32023810Y-21452381D01*
X32119048Y-21404762D01*
X32166667Y-21357143D01*
X32214286Y-21261905D01*
X32214286Y-21071429D01*
X32166667Y-20976190D01*
X32119048Y-20928571D01*
X32023810Y-20880952D01*
X32642857Y-21452381D02*
X32642857Y-20452381D01*
X32976191Y-21166667D01*
X33309524Y-20452381D01*
X33309524Y-21452381D01*
X27690477Y-30285714D02*
X27690477Y-30952381D01*
X27452381Y-29904762D02*
X27214286Y-30619048D01*
X27833334Y-30619048D01*
X39785715Y-23952381D02*
X39214286Y-23952381D01*
X39500000Y-23952381D02*
X39500000Y-22952381D01*
X39404762Y-23095238D01*
X39309524Y-23190476D01*
X39214286Y-23238095D01*
X37714286Y-23047619D02*
X37761905Y-23000000D01*
X37857143Y-22952381D01*
X38095239Y-22952381D01*
X38190477Y-23000000D01*
X38238096Y-23047619D01*
X38285715Y-23142857D01*
X38285715Y-23238095D01*
X38238096Y-23380952D01*
X37666667Y-23952381D01*
X38285715Y-23952381D01*
X35166667Y-22952381D02*
X35785715Y-22952381D01*
X35452381Y-23333333D01*
X35595239Y-23333333D01*
X35690477Y-23380952D01*
X35738096Y-23428571D01*
X35785715Y-23523810D01*
X35785715Y-23761905D01*
X35738096Y-23857143D01*
X35690477Y-23904762D01*
X35595239Y-23952381D01*
X35309524Y-23952381D01*
X35214286Y-23904762D01*
X35166667Y-23857143D01*
X27833334Y-68952381D02*
X27357143Y-68952381D01*
X27357143Y-67952381D01*
X28166667Y-68952381D02*
X28166667Y-67952381D01*
X28404762Y-67952381D01*
X28547620Y-68000000D01*
X28642858Y-68095238D01*
X28690477Y-68190476D01*
X28738096Y-68380952D01*
X28738096Y-68523810D01*
X28690477Y-68714286D01*
X28642858Y-68809524D01*
X28547620Y-68904762D01*
X28404762Y-68952381D01*
X28166667Y-68952381D01*
X29071429Y-67952381D02*
X29690477Y-67952381D01*
X29357143Y-68333333D01*
X29500001Y-68333333D01*
X29595239Y-68380952D01*
X29642858Y-68428571D01*
X29690477Y-68523810D01*
X29690477Y-68761905D01*
X29642858Y-68857143D01*
X29595239Y-68904762D01*
X29500001Y-68952381D01*
X29214286Y-68952381D01*
X29119048Y-68904762D01*
X29071429Y-68857143D01*
X25952381Y-72047619D02*
X25476190Y-72380953D01*
X25952381Y-72619048D02*
X24952381Y-72619048D01*
X24952381Y-72238095D01*
X25000000Y-72142857D01*
X25047619Y-72095238D01*
X25142857Y-72047619D01*
X25285714Y-72047619D01*
X25380952Y-72095238D01*
X25428571Y-72142857D01*
X25476190Y-72238095D01*
X25476190Y-72619048D01*
X25904762Y-71666667D02*
X25952381Y-71523810D01*
X25952381Y-71285714D01*
X25904762Y-71190476D01*
X25857143Y-71142857D01*
X25761905Y-71095238D01*
X25666667Y-71095238D01*
X25571429Y-71142857D01*
X25523810Y-71190476D01*
X25476190Y-71285714D01*
X25428571Y-71476191D01*
X25380952Y-71571429D01*
X25333333Y-71619048D01*
X25238095Y-71666667D01*
X25142857Y-71666667D01*
X25047619Y-71619048D01*
X25000000Y-71571429D01*
X24952381Y-71476191D01*
X24952381Y-71238095D01*
X25000000Y-71095238D01*
X24952381Y-70809524D02*
X24952381Y-70238095D01*
X25952381Y-70523810D02*
X24952381Y-70523810D01*
X26952381Y-69476190D02*
X25952381Y-69476190D01*
X26904762Y-69047619D02*
X26952381Y-68904762D01*
X26952381Y-68666666D01*
X26904762Y-68571428D01*
X26857143Y-68523809D01*
X26761905Y-68476190D01*
X26666667Y-68476190D01*
X26571429Y-68523809D01*
X26523810Y-68571428D01*
X26476190Y-68666666D01*
X26428571Y-68857143D01*
X26380952Y-68952381D01*
X26333333Y-69000000D01*
X26238095Y-69047619D01*
X26142857Y-69047619D01*
X26047619Y-69000000D01*
X26000000Y-68952381D01*
X25952381Y-68857143D01*
X25952381Y-68619047D01*
X26000000Y-68476190D01*
X26952381Y-68047619D02*
X25952381Y-68047619D01*
X25952381Y-67666666D01*
X26000000Y-67571428D01*
X26047619Y-67523809D01*
X26142857Y-67476190D01*
X26285714Y-67476190D01*
X26380952Y-67523809D01*
X26428571Y-67571428D01*
X26476190Y-67666666D01*
X26476190Y-68047619D01*
X62738095Y-70452381D02*
X63357143Y-70452381D01*
X63023809Y-70833333D01*
X63166667Y-70833333D01*
X63261905Y-70880952D01*
X63309524Y-70928571D01*
X63357143Y-71023810D01*
X63357143Y-71261905D01*
X63309524Y-71357143D01*
X63261905Y-71404762D01*
X63166667Y-71452381D01*
X62880952Y-71452381D01*
X62785714Y-71404762D01*
X62738095Y-71357143D01*
X63738095Y-71166667D02*
X64214286Y-71166667D01*
X63642857Y-71452381D02*
X63976190Y-70452381D01*
X64309524Y-71452381D01*
X65047619Y-63285714D02*
X65000000Y-63238095D01*
X64952381Y-63142857D01*
X64952381Y-62904761D01*
X65000000Y-62809523D01*
X65047619Y-62761904D01*
X65142857Y-62714285D01*
X65238095Y-62714285D01*
X65380952Y-62761904D01*
X65952381Y-63333333D01*
X65952381Y-62714285D01*
X65428571Y-61952380D02*
X65476190Y-61809523D01*
X65523810Y-61761904D01*
X65619048Y-61714285D01*
X65761905Y-61714285D01*
X65857143Y-61761904D01*
X65904762Y-61809523D01*
X65952381Y-61904761D01*
X65952381Y-62285714D01*
X64952381Y-62285714D01*
X64952381Y-61952380D01*
X65000000Y-61857142D01*
X65047619Y-61809523D01*
X65142857Y-61761904D01*
X65238095Y-61761904D01*
X65333333Y-61809523D01*
X65380952Y-61857142D01*
X65428571Y-61952380D01*
X65428571Y-62285714D01*
X65047619Y-55214286D02*
X65000000Y-55166667D01*
X64952381Y-55071429D01*
X64952381Y-54833333D01*
X65000000Y-54738095D01*
X65047619Y-54690476D01*
X65142857Y-54642857D01*
X65238095Y-54642857D01*
X65380952Y-54690476D01*
X65952381Y-55261905D01*
X65952381Y-54642857D01*
X65666667Y-54261905D02*
X65666667Y-53785714D01*
X65952381Y-54357143D02*
X64952381Y-54023810D01*
X65952381Y-53690476D01*
X65952381Y-46714285D02*
X65952381Y-47285714D01*
X65952381Y-47000000D02*
X64952381Y-47000000D01*
X65095238Y-47095238D01*
X65190476Y-47190476D01*
X65238095Y-47285714D01*
X65428571Y-45952380D02*
X65476190Y-45809523D01*
X65523810Y-45761904D01*
X65619048Y-45714285D01*
X65761905Y-45714285D01*
X65857143Y-45761904D01*
X65904762Y-45809523D01*
X65952381Y-45904761D01*
X65952381Y-46285714D01*
X64952381Y-46285714D01*
X64952381Y-45952380D01*
X65000000Y-45857142D01*
X65047619Y-45809523D01*
X65142857Y-45761904D01*
X65238095Y-45761904D01*
X65333333Y-45809523D01*
X65380952Y-45857142D01*
X65428571Y-45952380D01*
X65428571Y-46285714D01*
X65952381Y-38642857D02*
X65952381Y-39214286D01*
X65952381Y-38928572D02*
X64952381Y-38928572D01*
X65095238Y-39023810D01*
X65190476Y-39119048D01*
X65238095Y-39214286D01*
X65666667Y-38261905D02*
X65666667Y-37785714D01*
X65952381Y-38357143D02*
X64952381Y-38023810D01*
X65952381Y-37690476D01*
X64952381Y-31047619D02*
X64952381Y-30952380D01*
X65000000Y-30857142D01*
X65047619Y-30809523D01*
X65142857Y-30761904D01*
X65333333Y-30714285D01*
X65571429Y-30714285D01*
X65761905Y-30761904D01*
X65857143Y-30809523D01*
X65904762Y-30857142D01*
X65952381Y-30952380D01*
X65952381Y-31047619D01*
X65904762Y-31142857D01*
X65857143Y-31190476D01*
X65761905Y-31238095D01*
X65571429Y-31285714D01*
X65333333Y-31285714D01*
X65142857Y-31238095D01*
X65047619Y-31190476D01*
X65000000Y-31142857D01*
X64952381Y-31047619D01*
X65428571Y-29952380D02*
X65476190Y-29809523D01*
X65523810Y-29761904D01*
X65619048Y-29714285D01*
X65761905Y-29714285D01*
X65857143Y-29761904D01*
X65904762Y-29809523D01*
X65952381Y-29904761D01*
X65952381Y-30285714D01*
X64952381Y-30285714D01*
X64952381Y-29952380D01*
X65000000Y-29857142D01*
X65047619Y-29809523D01*
X65142857Y-29761904D01*
X65238095Y-29761904D01*
X65333333Y-29809523D01*
X65380952Y-29857142D01*
X65428571Y-29952380D01*
X65428571Y-30285714D01*
X64952381Y-22976191D02*
X64952381Y-22880952D01*
X65000000Y-22785714D01*
X65047619Y-22738095D01*
X65142857Y-22690476D01*
X65333333Y-22642857D01*
X65571429Y-22642857D01*
X65761905Y-22690476D01*
X65857143Y-22738095D01*
X65904762Y-22785714D01*
X65952381Y-22880952D01*
X65952381Y-22976191D01*
X65904762Y-23071429D01*
X65857143Y-23119048D01*
X65761905Y-23166667D01*
X65571429Y-23214286D01*
X65333333Y-23214286D01*
X65142857Y-23166667D01*
X65047619Y-23119048D01*
X65000000Y-23071429D01*
X64952381Y-22976191D01*
X65666667Y-22261905D02*
X65666667Y-21785714D01*
X65952381Y-22357143D02*
X64952381Y-22023810D01*
X65952381Y-21690476D01*
D12*
X23500000Y-9500000D02*
X23500000Y-26500000D01*
X23500000Y-26500000D02*
X34000000Y-26500000D01*
X34000000Y-9500000D02*
X34000000Y-26500000D01*
X31230000Y-9270000D02*
X23610000Y-9270000D01*
X31230000Y-6730000D02*
X23610000Y-6730000D01*
X34050000Y-6450000D02*
X32500000Y-6450000D01*
X23610000Y-9270000D02*
X23610000Y-6730000D01*
X31230000Y-6730000D02*
X31230000Y-9270000D01*
X32500000Y-9550000D02*
X34050000Y-9550000D01*
X34050000Y-9550000D02*
X34050000Y-6450000D01*
X38126524Y-60500000D02*
X37896714Y-60270190D01*
X33000000Y-65626524D02*
X32770190Y-65396714D01*
X27873476Y-60500000D02*
X28103286Y-60729810D01*
X33000000Y-55373476D02*
X33229810Y-55603286D01*
X38126524Y-60500000D02*
X37896714Y-60729810D01*
X33000000Y-55373476D02*
X32770190Y-55603286D01*
X27873476Y-60500000D02*
X28103286Y-60270190D01*
X33000000Y-65626524D02*
X33229810Y-65396714D01*
X37896714Y-60270190D02*
X38904342Y-59262563D01*
X58999000Y-11575000D02*
X49001000Y-11575000D01*
X58995000Y-11715000D02*
X49005000Y-11715000D01*
X58987000Y-11855000D02*
X49013000Y-11855000D01*
X58975000Y-11995000D02*
X49025000Y-11995000D01*
X58960000Y-12135000D02*
X49040000Y-12135000D01*
X58940000Y-12275000D02*
X49060000Y-12275000D01*
X58916000Y-12415000D02*
X49084000Y-12415000D01*
X58887000Y-12555000D02*
X49113000Y-12555000D01*
X58855000Y-12695000D02*
X49145000Y-12695000D01*
X58818000Y-12835000D02*
X49182000Y-12835000D01*
X58777000Y-12975000D02*
X49223000Y-12975000D01*
X58732000Y-13115000D02*
X54466000Y-13115000D01*
X53534000Y-13115000D02*
X49268000Y-13115000D01*
X58682000Y-13255000D02*
X54667000Y-13255000D01*
X53333000Y-13255000D02*
X49318000Y-13255000D01*
X58627000Y-13395000D02*
X54796000Y-13395000D01*
X53204000Y-13395000D02*
X49373000Y-13395000D01*
X58567000Y-13535000D02*
X54885000Y-13535000D01*
X53115000Y-13535000D02*
X49433000Y-13535000D01*
X58502000Y-13675000D02*
X54946000Y-13675000D01*
X53054000Y-13675000D02*
X49498000Y-13675000D01*
X58432000Y-13815000D02*
X54983000Y-13815000D01*
X53017000Y-13815000D02*
X49568000Y-13815000D01*
X58356000Y-13955000D02*
X54999000Y-13955000D01*
X53001000Y-13955000D02*
X49644000Y-13955000D01*
X58274000Y-14095000D02*
X54995000Y-14095000D01*
X53005000Y-14095000D02*
X49726000Y-14095000D01*
X58186000Y-14235000D02*
X54972000Y-14235000D01*
X53028000Y-14235000D02*
X49814000Y-14235000D01*
X58091000Y-14375000D02*
X54927000Y-14375000D01*
X53073000Y-14375000D02*
X49909000Y-14375000D01*
X57989000Y-14515000D02*
X54857000Y-14515000D01*
X53143000Y-14515000D02*
X50011000Y-14515000D01*
X57879000Y-14655000D02*
X54756000Y-14655000D01*
X53244000Y-14655000D02*
X50121000Y-14655000D01*
X57761000Y-14795000D02*
X54607000Y-14795000D01*
X53393000Y-14795000D02*
X50239000Y-14795000D01*
X57633000Y-14935000D02*
X54355000Y-14935000D01*
X53645000Y-14935000D02*
X50367000Y-14935000D01*
X57496000Y-15075000D02*
X50504000Y-15075000D01*
X57346000Y-15215000D02*
X50654000Y-15215000D01*
X57184000Y-15355000D02*
X50816000Y-15355000D01*
X57007000Y-15495000D02*
X50993000Y-15495000D01*
X56811000Y-15635000D02*
X51189000Y-15635000D01*
X56593000Y-15775000D02*
X51407000Y-15775000D01*
X56347000Y-15915000D02*
X51653000Y-15915000D01*
X56062000Y-16055000D02*
X51938000Y-16055000D01*
X55720000Y-16195000D02*
X52280000Y-16195000D01*
X55274000Y-16335000D02*
X52726000Y-16335000D01*
X54499000Y-16475000D02*
X53501000Y-16475000D01*
X55000000Y-14000000D02*
G75*
G03X55000000Y-14000000I-1000000J0D01*
G01*
X59037500Y-11500000D02*
G75*
G03X59037500Y-11500000I-5037500J0D01*
G01*
D13*
X42000000Y-6300000D02*
X40000000Y-6300000D01*
X40000000Y-6300000D02*
X40000000Y-7300000D01*
X40000000Y-7300000D02*
X36500000Y-7300000D01*
X36500000Y-7300000D02*
X36500000Y-6300000D01*
X36500000Y-6300000D02*
X34500000Y-6300000D01*
X42000000Y-12700000D02*
X42000000Y-6300000D01*
X34500000Y-6300000D02*
X34500000Y-12700000D01*
X34500000Y-12700000D02*
X42000000Y-12700000D01*
X30000000Y-69700000D02*
X40500000Y-69700000D01*
X40500000Y-69700000D02*
X40500000Y-73200000D01*
X40500000Y-73200000D02*
X30000000Y-73200000D01*
X30000000Y-73200000D02*
X30000000Y-69700000D01*
X34000000Y-16900000D02*
X29000000Y-16900000D01*
X34000000Y-20100000D02*
X29000000Y-20100000D01*
X21200000Y-8000000D02*
X21800000Y-8500000D01*
X21200000Y-8000000D02*
X21800000Y-7500000D01*
D12*
X19900000Y-8750000D02*
X22600000Y-8750000D01*
X19900000Y-7250000D02*
X22600000Y-7250000D01*
D13*
X39500000Y-20700000D02*
X39000000Y-21300000D01*
X39500000Y-20700000D02*
X40000000Y-21300000D01*
D12*
X38750000Y-19400000D02*
X38750000Y-22100000D01*
X40250000Y-19400000D02*
X40250000Y-22100000D01*
D13*
X35700000Y-45500000D02*
X35700000Y-35000000D01*
X35700000Y-35000000D02*
X39200000Y-35000000D01*
X39200000Y-35000000D02*
X39200000Y-45500000D01*
X39200000Y-45500000D02*
X35700000Y-45500000D01*
D12*
X37125000Y-25875000D02*
X36600000Y-25875000D01*
X37125000Y-33125000D02*
X36600000Y-33125000D01*
X29875000Y-33125000D02*
X30400000Y-33125000D01*
X29875000Y-25875000D02*
X30400000Y-25875000D01*
X37125000Y-25875000D02*
X37125000Y-26400000D01*
X29875000Y-25875000D02*
X29875000Y-26400000D01*
X29875000Y-33125000D02*
X29875000Y-32600000D01*
X37125000Y-33125000D02*
X37125000Y-32600000D01*
X36600000Y-25875000D02*
X36600000Y-24500000D01*
X23230000Y-42230000D02*
X23230000Y-34610000D01*
X25770000Y-42230000D02*
X25770000Y-34610000D01*
X26050000Y-45050000D02*
X26050000Y-43500000D01*
X23230000Y-34610000D02*
X25770000Y-34610000D01*
X25770000Y-42230000D02*
X23230000Y-42230000D01*
X22950000Y-43500000D02*
X22950000Y-45050000D01*
X22950000Y-45050000D02*
X26050000Y-45050000D01*
X69499000Y-11575000D02*
X59501000Y-11575000D01*
X69495000Y-11715000D02*
X59505000Y-11715000D01*
X69487000Y-11855000D02*
X59513000Y-11855000D01*
X69475000Y-11995000D02*
X59525000Y-11995000D01*
X69460000Y-12135000D02*
X59540000Y-12135000D01*
X69440000Y-12275000D02*
X59560000Y-12275000D01*
X69416000Y-12415000D02*
X59584000Y-12415000D01*
X69387000Y-12555000D02*
X59613000Y-12555000D01*
X69355000Y-12695000D02*
X59645000Y-12695000D01*
X69318000Y-12835000D02*
X59682000Y-12835000D01*
X69277000Y-12975000D02*
X59723000Y-12975000D01*
X69232000Y-13115000D02*
X64966000Y-13115000D01*
X64034000Y-13115000D02*
X59768000Y-13115000D01*
X69182000Y-13255000D02*
X65167000Y-13255000D01*
X63833000Y-13255000D02*
X59818000Y-13255000D01*
X69127000Y-13395000D02*
X65296000Y-13395000D01*
X63704000Y-13395000D02*
X59873000Y-13395000D01*
X69067000Y-13535000D02*
X65385000Y-13535000D01*
X63615000Y-13535000D02*
X59933000Y-13535000D01*
X69002000Y-13675000D02*
X65446000Y-13675000D01*
X63554000Y-13675000D02*
X59998000Y-13675000D01*
X68932000Y-13815000D02*
X65483000Y-13815000D01*
X63517000Y-13815000D02*
X60068000Y-13815000D01*
X68856000Y-13955000D02*
X65499000Y-13955000D01*
X63501000Y-13955000D02*
X60144000Y-13955000D01*
X68774000Y-14095000D02*
X65495000Y-14095000D01*
X63505000Y-14095000D02*
X60226000Y-14095000D01*
X68686000Y-14235000D02*
X65472000Y-14235000D01*
X63528000Y-14235000D02*
X60314000Y-14235000D01*
X68591000Y-14375000D02*
X65427000Y-14375000D01*
X63573000Y-14375000D02*
X60409000Y-14375000D01*
X68489000Y-14515000D02*
X65357000Y-14515000D01*
X63643000Y-14515000D02*
X60511000Y-14515000D01*
X68379000Y-14655000D02*
X65256000Y-14655000D01*
X63744000Y-14655000D02*
X60621000Y-14655000D01*
X68261000Y-14795000D02*
X65107000Y-14795000D01*
X63893000Y-14795000D02*
X60739000Y-14795000D01*
X68133000Y-14935000D02*
X64855000Y-14935000D01*
X64145000Y-14935000D02*
X60867000Y-14935000D01*
X67996000Y-15075000D02*
X61004000Y-15075000D01*
X67846000Y-15215000D02*
X61154000Y-15215000D01*
X67684000Y-15355000D02*
X61316000Y-15355000D01*
X67507000Y-15495000D02*
X61493000Y-15495000D01*
X67311000Y-15635000D02*
X61689000Y-15635000D01*
X67093000Y-15775000D02*
X61907000Y-15775000D01*
X66847000Y-15915000D02*
X62153000Y-15915000D01*
X66562000Y-16055000D02*
X62438000Y-16055000D01*
X66220000Y-16195000D02*
X62780000Y-16195000D01*
X65774000Y-16335000D02*
X63226000Y-16335000D01*
X64999000Y-16475000D02*
X64001000Y-16475000D01*
X65500000Y-14000000D02*
G75*
G03X65500000Y-14000000I-1000000J0D01*
G01*
X69537500Y-11500000D02*
G75*
G03X69537500Y-11500000I-5037500J0D01*
G01*
X57499000Y-68575000D02*
X47501000Y-68575000D01*
X57495000Y-68715000D02*
X47505000Y-68715000D01*
X57487000Y-68855000D02*
X47513000Y-68855000D01*
X57475000Y-68995000D02*
X47525000Y-68995000D01*
X57460000Y-69135000D02*
X47540000Y-69135000D01*
X57440000Y-69275000D02*
X47560000Y-69275000D01*
X57416000Y-69415000D02*
X47584000Y-69415000D01*
X57387000Y-69555000D02*
X47613000Y-69555000D01*
X57355000Y-69695000D02*
X47645000Y-69695000D01*
X57318000Y-69835000D02*
X47682000Y-69835000D01*
X57277000Y-69975000D02*
X47723000Y-69975000D01*
X57232000Y-70115000D02*
X52966000Y-70115000D01*
X52034000Y-70115000D02*
X47768000Y-70115000D01*
X57182000Y-70255000D02*
X53167000Y-70255000D01*
X51833000Y-70255000D02*
X47818000Y-70255000D01*
X57127000Y-70395000D02*
X53296000Y-70395000D01*
X51704000Y-70395000D02*
X47873000Y-70395000D01*
X57067000Y-70535000D02*
X53385000Y-70535000D01*
X51615000Y-70535000D02*
X47933000Y-70535000D01*
X57002000Y-70675000D02*
X53446000Y-70675000D01*
X51554000Y-70675000D02*
X47998000Y-70675000D01*
X56932000Y-70815000D02*
X53483000Y-70815000D01*
X51517000Y-70815000D02*
X48068000Y-70815000D01*
X56856000Y-70955000D02*
X53499000Y-70955000D01*
X51501000Y-70955000D02*
X48144000Y-70955000D01*
X56774000Y-71095000D02*
X53495000Y-71095000D01*
X51505000Y-71095000D02*
X48226000Y-71095000D01*
X56686000Y-71235000D02*
X53472000Y-71235000D01*
X51528000Y-71235000D02*
X48314000Y-71235000D01*
X56591000Y-71375000D02*
X53427000Y-71375000D01*
X51573000Y-71375000D02*
X48409000Y-71375000D01*
X56489000Y-71515000D02*
X53357000Y-71515000D01*
X51643000Y-71515000D02*
X48511000Y-71515000D01*
X56379000Y-71655000D02*
X53256000Y-71655000D01*
X51744000Y-71655000D02*
X48621000Y-71655000D01*
X56261000Y-71795000D02*
X53107000Y-71795000D01*
X51893000Y-71795000D02*
X48739000Y-71795000D01*
X56133000Y-71935000D02*
X52855000Y-71935000D01*
X52145000Y-71935000D02*
X48867000Y-71935000D01*
X55996000Y-72075000D02*
X49004000Y-72075000D01*
X55846000Y-72215000D02*
X49154000Y-72215000D01*
X55684000Y-72355000D02*
X49316000Y-72355000D01*
X55507000Y-72495000D02*
X49493000Y-72495000D01*
X55311000Y-72635000D02*
X49689000Y-72635000D01*
X55093000Y-72775000D02*
X49907000Y-72775000D01*
X54847000Y-72915000D02*
X50153000Y-72915000D01*
X54562000Y-73055000D02*
X50438000Y-73055000D01*
X54220000Y-73195000D02*
X50780000Y-73195000D01*
X53774000Y-73335000D02*
X51226000Y-73335000D01*
X52999000Y-73475000D02*
X52001000Y-73475000D01*
X53500000Y-71000000D02*
G75*
G03X53500000Y-71000000I-1000000J0D01*
G01*
X57537500Y-68500000D02*
G75*
G03X57537500Y-68500000I-5037500J0D01*
G01*
X67999000Y-68575000D02*
X58001000Y-68575000D01*
X67995000Y-68715000D02*
X58005000Y-68715000D01*
X67987000Y-68855000D02*
X58013000Y-68855000D01*
X67975000Y-68995000D02*
X58025000Y-68995000D01*
X67960000Y-69135000D02*
X58040000Y-69135000D01*
X67940000Y-69275000D02*
X58060000Y-69275000D01*
X67916000Y-69415000D02*
X58084000Y-69415000D01*
X67887000Y-69555000D02*
X58113000Y-69555000D01*
X67855000Y-69695000D02*
X58145000Y-69695000D01*
X67818000Y-69835000D02*
X58182000Y-69835000D01*
X67777000Y-69975000D02*
X58223000Y-69975000D01*
X67732000Y-70115000D02*
X63466000Y-70115000D01*
X62534000Y-70115000D02*
X58268000Y-70115000D01*
X67682000Y-70255000D02*
X63667000Y-70255000D01*
X62333000Y-70255000D02*
X58318000Y-70255000D01*
X67627000Y-70395000D02*
X63796000Y-70395000D01*
X62204000Y-70395000D02*
X58373000Y-70395000D01*
X67567000Y-70535000D02*
X63885000Y-70535000D01*
X62115000Y-70535000D02*
X58433000Y-70535000D01*
X67502000Y-70675000D02*
X63946000Y-70675000D01*
X62054000Y-70675000D02*
X58498000Y-70675000D01*
X67432000Y-70815000D02*
X63983000Y-70815000D01*
X62017000Y-70815000D02*
X58568000Y-70815000D01*
X67356000Y-70955000D02*
X63999000Y-70955000D01*
X62001000Y-70955000D02*
X58644000Y-70955000D01*
X67274000Y-71095000D02*
X63995000Y-71095000D01*
X62005000Y-71095000D02*
X58726000Y-71095000D01*
X67186000Y-71235000D02*
X63972000Y-71235000D01*
X62028000Y-71235000D02*
X58814000Y-71235000D01*
X67091000Y-71375000D02*
X63927000Y-71375000D01*
X62073000Y-71375000D02*
X58909000Y-71375000D01*
X66989000Y-71515000D02*
X63857000Y-71515000D01*
X62143000Y-71515000D02*
X59011000Y-71515000D01*
X66879000Y-71655000D02*
X63756000Y-71655000D01*
X62244000Y-71655000D02*
X59121000Y-71655000D01*
X66761000Y-71795000D02*
X63607000Y-71795000D01*
X62393000Y-71795000D02*
X59239000Y-71795000D01*
X66633000Y-71935000D02*
X63355000Y-71935000D01*
X62645000Y-71935000D02*
X59367000Y-71935000D01*
X66496000Y-72075000D02*
X59504000Y-72075000D01*
X66346000Y-72215000D02*
X59654000Y-72215000D01*
X66184000Y-72355000D02*
X59816000Y-72355000D01*
X66007000Y-72495000D02*
X59993000Y-72495000D01*
X65811000Y-72635000D02*
X60189000Y-72635000D01*
X65593000Y-72775000D02*
X60407000Y-72775000D01*
X65347000Y-72915000D02*
X60653000Y-72915000D01*
X65062000Y-73055000D02*
X60938000Y-73055000D01*
X64720000Y-73195000D02*
X61280000Y-73195000D01*
X64274000Y-73335000D02*
X61726000Y-73335000D01*
X63499000Y-73475000D02*
X62501000Y-73475000D01*
X64000000Y-71000000D02*
G75*
G03X64000000Y-71000000I-1000000J0D01*
G01*
X68037500Y-68500000D02*
G75*
G03X68037500Y-68500000I-5037500J0D01*
G01*
D13*
X37500000Y-20700000D02*
X37000000Y-21300000D01*
X37500000Y-20700000D02*
X38000000Y-21300000D01*
D12*
X36750000Y-19400000D02*
X36750000Y-22100000D01*
X38250000Y-19400000D02*
X38250000Y-22100000D01*
D13*
X35500000Y-20700000D02*
X35000000Y-21300000D01*
X35500000Y-20700000D02*
X36000000Y-21300000D01*
D12*
X34750000Y-19400000D02*
X34750000Y-22100000D01*
X36250000Y-19400000D02*
X36250000Y-22100000D01*
X22500180Y-18050800D02*
X22500180Y-17349760D01*
X22500180Y-17349760D02*
X22749100Y-17349760D01*
X25299160Y-17349760D02*
X25499820Y-17349760D01*
X25499820Y-17349760D02*
X25499820Y-18050800D01*
D13*
X15800000Y-41500000D02*
X15800000Y-46000000D01*
X15800000Y-46000000D02*
X16800000Y-46000000D01*
X16800000Y-46000000D02*
X16800000Y-49500000D01*
X16800000Y-49500000D02*
X15800000Y-49500000D01*
X15800000Y-49500000D02*
X15800000Y-54000000D01*
X22200000Y-54000000D02*
X22200000Y-41500000D01*
X15800000Y-54000000D02*
X22200000Y-54000000D01*
X22200000Y-41500000D02*
X15800000Y-41500000D01*
X16800000Y-17250000D02*
X16800000Y-20750000D01*
X16800000Y-20750000D02*
X15800000Y-20750000D01*
X15800000Y-20750000D02*
X15800000Y-24000000D01*
X15800000Y-14000000D02*
X15800000Y-17250000D01*
X15800000Y-17250000D02*
X16800000Y-17250000D01*
X22200000Y-14000000D02*
X22200000Y-24000000D01*
X22200000Y-24000000D02*
X15800000Y-24000000D01*
X22200000Y-14000000D02*
X15800000Y-14000000D01*
X15800000Y-24000000D02*
X15800000Y-31000000D01*
X15800000Y-31000000D02*
X16800000Y-31000000D01*
X16800000Y-31000000D02*
X16800000Y-34500000D01*
X16800000Y-34500000D02*
X15800000Y-34500000D01*
X15800000Y-34500000D02*
X15800000Y-41500000D01*
X22200000Y-24000000D02*
X22200000Y-41500000D01*
X22200000Y-41500000D02*
X15800000Y-41500000D01*
X22200000Y-24000000D02*
X15800000Y-24000000D01*
X33800000Y-42000000D02*
X33800000Y-39000000D01*
X33800000Y-39000000D02*
X32200000Y-39000000D01*
X32200000Y-39000000D02*
X32200000Y-42000000D01*
X32200000Y-42000000D02*
X33800000Y-42000000D01*
X34800000Y-43500000D02*
X34800000Y-37500000D01*
X34800000Y-37500000D02*
X31200000Y-37500000D01*
X31200000Y-37500000D02*
X31200000Y-43500000D01*
X31200000Y-43500000D02*
X34800000Y-43500000D01*
X29800000Y-42000000D02*
X29800000Y-39000000D01*
X29800000Y-39000000D02*
X28200000Y-39000000D01*
X28200000Y-39000000D02*
X28200000Y-42000000D01*
X28200000Y-42000000D02*
X29800000Y-42000000D01*
X30800000Y-43500000D02*
X30800000Y-37500000D01*
X30800000Y-37500000D02*
X27200000Y-37500000D01*
X27200000Y-37500000D02*
X27200000Y-43500000D01*
X27200000Y-43500000D02*
X30800000Y-43500000D01*
X18500000Y-11800000D02*
X21500000Y-11800000D01*
X21500000Y-11800000D02*
X21500000Y-10200000D01*
X21500000Y-10200000D02*
X18500000Y-10200000D01*
X18500000Y-10200000D02*
X18500000Y-11800000D01*
X17000000Y-12800000D02*
X23000000Y-12800000D01*
X23000000Y-12800000D02*
X23000000Y-9200000D01*
X23000000Y-9200000D02*
X17000000Y-9200000D01*
X17000000Y-9200000D02*
X17000000Y-12800000D01*
X30500000Y-46200000D02*
X27500000Y-46200000D01*
X27500000Y-46200000D02*
X27500000Y-47800000D01*
X27500000Y-47800000D02*
X30500000Y-47800000D01*
X30500000Y-47800000D02*
X30500000Y-46200000D01*
X32000000Y-45200000D02*
X26000000Y-45200000D01*
X26000000Y-45200000D02*
X26000000Y-48800000D01*
X26000000Y-48800000D02*
X32000000Y-48800000D01*
X32000000Y-48800000D02*
X32000000Y-45200000D01*
X24700000Y-30500000D02*
X25300000Y-31000000D01*
X24700000Y-30500000D02*
X25300000Y-30000000D01*
D12*
X23400000Y-31250000D02*
X26100000Y-31250000D01*
X23400000Y-29750000D02*
X26100000Y-29750000D01*
X46425000Y-49425000D02*
X46425000Y-49570000D01*
X50575000Y-49425000D02*
X50575000Y-49570000D01*
X50575000Y-54575000D02*
X50575000Y-54430000D01*
X46425000Y-54575000D02*
X46425000Y-54430000D01*
X46425000Y-49425000D02*
X50575000Y-49425000D01*
X46425000Y-54575000D02*
X50575000Y-54575000D01*
X46425000Y-49570000D02*
X45025000Y-49570000D01*
X46425000Y-57425000D02*
X46425000Y-57570000D01*
X50575000Y-57425000D02*
X50575000Y-57570000D01*
X50575000Y-62575000D02*
X50575000Y-62430000D01*
X46425000Y-62575000D02*
X46425000Y-62430000D01*
X46425000Y-57425000D02*
X50575000Y-57425000D01*
X46425000Y-62575000D02*
X50575000Y-62575000D01*
X46425000Y-57570000D02*
X45025000Y-57570000D01*
X46425000Y-17425000D02*
X46425000Y-17570000D01*
X50575000Y-17425000D02*
X50575000Y-17570000D01*
X50575000Y-22575000D02*
X50575000Y-22430000D01*
X46425000Y-22575000D02*
X46425000Y-22430000D01*
X46425000Y-17425000D02*
X50575000Y-17425000D01*
X46425000Y-22575000D02*
X50575000Y-22575000D01*
X46425000Y-17570000D02*
X45025000Y-17570000D01*
X46425000Y-25425000D02*
X46425000Y-25570000D01*
X50575000Y-25425000D02*
X50575000Y-25570000D01*
X50575000Y-30575000D02*
X50575000Y-30430000D01*
X46425000Y-30575000D02*
X46425000Y-30430000D01*
X46425000Y-25425000D02*
X50575000Y-25425000D01*
X46425000Y-30575000D02*
X50575000Y-30575000D01*
X46425000Y-25570000D02*
X45025000Y-25570000D01*
X46425000Y-33425000D02*
X46425000Y-33570000D01*
X50575000Y-33425000D02*
X50575000Y-33570000D01*
X50575000Y-38575000D02*
X50575000Y-38430000D01*
X46425000Y-38575000D02*
X46425000Y-38430000D01*
X46425000Y-33425000D02*
X50575000Y-33425000D01*
X46425000Y-38575000D02*
X50575000Y-38575000D01*
X46425000Y-33570000D02*
X45025000Y-33570000D01*
X46425000Y-41425000D02*
X46425000Y-41570000D01*
X50575000Y-41425000D02*
X50575000Y-41570000D01*
X50575000Y-46575000D02*
X50575000Y-46430000D01*
X46425000Y-46575000D02*
X46425000Y-46430000D01*
X46425000Y-41425000D02*
X50575000Y-41425000D01*
X46425000Y-46575000D02*
X50575000Y-46575000D01*
X46425000Y-41570000D02*
X45025000Y-41570000D01*
D13*
X135500000Y-96250000D02*
G75*
G03X135500000Y-96250000I-1500000J0D01*
G01*
X100500000Y-96250000D02*
G75*
G03X100500000Y-96250000I-1500000J0D01*
G01*
X100500000Y-6250000D02*
G75*
G03X100500000Y-6250000I-1500000J0D01*
G01*
X135500000Y-6250000D02*
G75*
G03X135500000Y-6250000I-1500000J0D01*
G01*
X28500000Y-71300000D02*
X29000000Y-70700000D01*
X28500000Y-71300000D02*
X28000000Y-70700000D01*
D12*
X29250000Y-72600000D02*
X29250000Y-69900000D01*
X27750000Y-72600000D02*
X27750000Y-69900000D01*
D13*
X18700000Y-68000000D02*
X19300000Y-68500000D01*
X18700000Y-68000000D02*
X19300000Y-67500000D01*
D12*
X17400000Y-68750000D02*
X20100000Y-68750000D01*
X17400000Y-67250000D02*
X20100000Y-67250000D01*
X28301000Y-53000760D02*
X28100340Y-52599440D01*
X28100340Y-52599440D02*
X27998740Y-52000000D01*
X27998740Y-52000000D02*
X28100340Y-51499620D01*
X28100340Y-51499620D02*
X28499120Y-50801120D01*
X28499120Y-50801120D02*
X29101100Y-50399800D01*
X29101100Y-50399800D02*
X29700540Y-50199140D01*
X29700540Y-50199140D02*
X36299460Y-50199140D01*
X36299460Y-50199140D02*
X37000500Y-50399800D01*
X37000500Y-50399800D02*
X37399280Y-50699520D01*
X37399280Y-50699520D02*
X37800600Y-51199900D01*
X37800600Y-51199900D02*
X38001260Y-51799340D01*
X38001260Y-51799340D02*
X38001260Y-52299720D01*
X38001260Y-52299720D02*
X37800600Y-52800100D01*
X37800600Y-52800100D02*
X37300220Y-53399540D01*
X37300220Y-53399540D02*
X36799840Y-53699260D01*
X36799840Y-53699260D02*
X36299460Y-53800860D01*
X36200400Y-53800860D02*
X29598940Y-53800860D01*
X29598940Y-53800860D02*
X29200160Y-53699260D01*
X29200160Y-53699260D02*
X28699780Y-53399540D01*
X28699780Y-53399540D02*
X28199400Y-52899160D01*
X36190240Y-54329180D02*
X36649980Y-54280920D01*
X36649980Y-54280920D02*
X37048760Y-54169160D01*
X37048760Y-54169160D02*
X37480560Y-53950720D01*
X37480560Y-53950720D02*
X37770120Y-53719580D01*
X37770120Y-53719580D02*
X38100320Y-53369060D01*
X38100320Y-53369060D02*
X38389880Y-52830580D01*
X38389880Y-52830580D02*
X38519420Y-52231140D01*
X38519420Y-52231140D02*
X38519420Y-51720600D01*
X38519420Y-51720600D02*
X38349240Y-51019560D01*
X38349240Y-51019560D02*
X37950460Y-50430280D01*
X37950460Y-50430280D02*
X37490720Y-50059440D01*
X37490720Y-50059440D02*
X37069080Y-49851160D01*
X37069080Y-49851160D02*
X36619500Y-49691140D01*
X36619500Y-49691140D02*
X36180080Y-49660660D01*
X28839480Y-49879100D02*
X28461020Y-50100080D01*
X28461020Y-50100080D02*
X28140980Y-50379480D01*
X28140980Y-50379480D02*
X27889520Y-50709680D01*
X27889520Y-50709680D02*
X27589800Y-51260860D01*
X27589800Y-51260860D02*
X27480580Y-51730760D01*
X27480580Y-51730760D02*
X27460260Y-52190500D01*
X27460260Y-52190500D02*
X27549160Y-52650240D01*
X27549160Y-52650240D02*
X27739660Y-53099820D01*
X27739660Y-53099820D02*
X28100340Y-53569720D01*
X28100340Y-53569720D02*
X28450860Y-53889760D01*
X28450860Y-53889760D02*
X28839480Y-54120900D01*
X28839480Y-54120900D02*
X29268740Y-54260600D01*
X29268740Y-54260600D02*
X29710700Y-54329180D01*
X36200400Y-49670820D02*
X29748800Y-49670820D01*
X29748800Y-49670820D02*
X29329700Y-49708920D01*
X29329700Y-49708920D02*
X28839480Y-49879100D01*
X36200400Y-54329180D02*
X29748800Y-54329180D01*
D13*
X41250000Y-16000000D02*
G75*
G03X41250000Y-16000000I-3250000J0D01*
G01*
X16500000Y-69700000D02*
X27000000Y-69700000D01*
X27000000Y-69700000D02*
X27000000Y-73200000D01*
X27000000Y-73200000D02*
X16500000Y-73200000D01*
X16500000Y-73200000D02*
X16500000Y-69700000D01*
X15800000Y-54000000D02*
X15800000Y-58500000D01*
X15800000Y-58500000D02*
X16800000Y-58500000D01*
X16800000Y-58500000D02*
X16800000Y-62000000D01*
X16800000Y-62000000D02*
X15800000Y-62000000D01*
X15800000Y-62000000D02*
X15800000Y-66500000D01*
X22200000Y-66500000D02*
X22200000Y-54000000D01*
X15800000Y-66500000D02*
X22200000Y-66500000D01*
X22200000Y-54000000D02*
X15800000Y-54000000D01*
D12*
X25770000Y-69050000D02*
X39740000Y-69050000D01*
X39740000Y-69050000D02*
X39740000Y-48730000D01*
X25770000Y-48730000D02*
X39740000Y-48730000D01*
X25770000Y-51270000D02*
X25770000Y-69050000D01*
X25770000Y-69050000D02*
X23230000Y-69050000D01*
X23230000Y-69050000D02*
X23230000Y-51270000D01*
X26050000Y-48450000D02*
X26050000Y-50000000D01*
X25770000Y-51270000D02*
X23230000Y-51270000D01*
X22950000Y-50000000D02*
X22950000Y-48450000D01*
X22950000Y-48450000D02*
X26050000Y-48450000D01*
D13*
X38000000Y-47200000D02*
X37500000Y-47800000D01*
X38000000Y-47200000D02*
X38500000Y-47800000D01*
D12*
X37250000Y-45900000D02*
X37250000Y-48600000D01*
X38750000Y-45900000D02*
X38750000Y-48600000D01*
D13*
X35500000Y-47200000D02*
X35000000Y-47800000D01*
X35500000Y-47200000D02*
X36000000Y-47800000D01*
D12*
X34750000Y-45900000D02*
X34750000Y-48600000D01*
X36250000Y-45900000D02*
X36250000Y-48600000D01*
X25050800Y-25499820D02*
X24349760Y-25499820D01*
X24349760Y-25499820D02*
X24349760Y-25250900D01*
X24349760Y-22700840D02*
X24349760Y-22500180D01*
X24349760Y-22500180D02*
X25050800Y-22500180D01*
D14*
X44287262Y-14942548D02*
X44287262Y-13736048D01*
X44574524Y-13736048D01*
X44746881Y-13793500D01*
X44861786Y-13908405D01*
X44919238Y-14023310D01*
X44976690Y-14253119D01*
X44976690Y-14425476D01*
X44919238Y-14655286D01*
X44861786Y-14770190D01*
X44746881Y-14885095D01*
X44574524Y-14942548D01*
X44287262Y-14942548D01*
X45493762Y-14942548D02*
X45493762Y-13736048D01*
X46298095Y-13736048D02*
X46527905Y-13736048D01*
X46642810Y-13793500D01*
X46757714Y-13908405D01*
X46815167Y-14138214D01*
X46815167Y-14540381D01*
X46757714Y-14770190D01*
X46642810Y-14885095D01*
X46527905Y-14942548D01*
X46298095Y-14942548D01*
X46183191Y-14885095D01*
X46068286Y-14770190D01*
X46010834Y-14540381D01*
X46010834Y-14138214D01*
X46068286Y-13908405D01*
X46183191Y-13793500D01*
X46298095Y-13736048D01*
X47332238Y-14942548D02*
X47332238Y-13736048D01*
X47619500Y-13736048D01*
X47791857Y-13793500D01*
X47906762Y-13908405D01*
X47964214Y-14023310D01*
X48021666Y-14253119D01*
X48021666Y-14425476D01*
X47964214Y-14655286D01*
X47906762Y-14770190D01*
X47791857Y-14885095D01*
X47619500Y-14942548D01*
X47332238Y-14942548D01*
X48538738Y-14310571D02*
X48940905Y-14310571D01*
X49113262Y-14942548D02*
X48538738Y-14942548D01*
X48538738Y-13736048D01*
X49113262Y-13736048D01*
X41942548Y-26212738D02*
X40736048Y-26212738D01*
X40736048Y-25925476D01*
X40793500Y-25753119D01*
X40908405Y-25638214D01*
X41023310Y-25580762D01*
X41253119Y-25523310D01*
X41425476Y-25523310D01*
X41655286Y-25580762D01*
X41770190Y-25638214D01*
X41885095Y-25753119D01*
X41942548Y-25925476D01*
X41942548Y-26212738D01*
X41942548Y-25006238D02*
X40736048Y-25006238D01*
X40736048Y-24201905D02*
X40736048Y-23972095D01*
X40793500Y-23857190D01*
X40908405Y-23742286D01*
X41138214Y-23684833D01*
X41540381Y-23684833D01*
X41770190Y-23742286D01*
X41885095Y-23857190D01*
X41942548Y-23972095D01*
X41942548Y-24201905D01*
X41885095Y-24316809D01*
X41770190Y-24431714D01*
X41540381Y-24489166D01*
X41138214Y-24489166D01*
X40908405Y-24431714D01*
X40793500Y-24316809D01*
X40736048Y-24201905D01*
X41942548Y-23167762D02*
X40736048Y-23167762D01*
X40736048Y-22880500D01*
X40793500Y-22708143D01*
X40908405Y-22593238D01*
X41023310Y-22535786D01*
X41253119Y-22478334D01*
X41425476Y-22478334D01*
X41655286Y-22535786D01*
X41770190Y-22593238D01*
X41885095Y-22708143D01*
X41942548Y-22880500D01*
X41942548Y-23167762D01*
X41310571Y-21961262D02*
X41310571Y-21559095D01*
X41942548Y-21386738D02*
X41942548Y-21961262D01*
X40736048Y-21961262D01*
X40736048Y-21386738D01*
X41942548Y-34212738D02*
X40736048Y-34212738D01*
X40736048Y-33925476D01*
X40793500Y-33753119D01*
X40908405Y-33638214D01*
X41023310Y-33580762D01*
X41253119Y-33523310D01*
X41425476Y-33523310D01*
X41655286Y-33580762D01*
X41770190Y-33638214D01*
X41885095Y-33753119D01*
X41942548Y-33925476D01*
X41942548Y-34212738D01*
X41942548Y-33006238D02*
X40736048Y-33006238D01*
X40736048Y-32201905D02*
X40736048Y-31972095D01*
X40793500Y-31857190D01*
X40908405Y-31742286D01*
X41138214Y-31684833D01*
X41540381Y-31684833D01*
X41770190Y-31742286D01*
X41885095Y-31857190D01*
X41942548Y-31972095D01*
X41942548Y-32201905D01*
X41885095Y-32316809D01*
X41770190Y-32431714D01*
X41540381Y-32489166D01*
X41138214Y-32489166D01*
X40908405Y-32431714D01*
X40793500Y-32316809D01*
X40736048Y-32201905D01*
X41942548Y-31167762D02*
X40736048Y-31167762D01*
X40736048Y-30880500D01*
X40793500Y-30708143D01*
X40908405Y-30593238D01*
X41023310Y-30535786D01*
X41253119Y-30478334D01*
X41425476Y-30478334D01*
X41655286Y-30535786D01*
X41770190Y-30593238D01*
X41885095Y-30708143D01*
X41942548Y-30880500D01*
X41942548Y-31167762D01*
X41310571Y-29961262D02*
X41310571Y-29559095D01*
X41942548Y-29386738D02*
X41942548Y-29961262D01*
X40736048Y-29961262D01*
X40736048Y-29386738D01*
X41942548Y-42212738D02*
X40736048Y-42212738D01*
X40736048Y-41925476D01*
X40793500Y-41753119D01*
X40908405Y-41638214D01*
X41023310Y-41580762D01*
X41253119Y-41523310D01*
X41425476Y-41523310D01*
X41655286Y-41580762D01*
X41770190Y-41638214D01*
X41885095Y-41753119D01*
X41942548Y-41925476D01*
X41942548Y-42212738D01*
X41942548Y-41006238D02*
X40736048Y-41006238D01*
X40736048Y-40201905D02*
X40736048Y-39972095D01*
X40793500Y-39857190D01*
X40908405Y-39742286D01*
X41138214Y-39684833D01*
X41540381Y-39684833D01*
X41770190Y-39742286D01*
X41885095Y-39857190D01*
X41942548Y-39972095D01*
X41942548Y-40201905D01*
X41885095Y-40316809D01*
X41770190Y-40431714D01*
X41540381Y-40489166D01*
X41138214Y-40489166D01*
X40908405Y-40431714D01*
X40793500Y-40316809D01*
X40736048Y-40201905D01*
X41942548Y-39167762D02*
X40736048Y-39167762D01*
X40736048Y-38880500D01*
X40793500Y-38708143D01*
X40908405Y-38593238D01*
X41023310Y-38535786D01*
X41253119Y-38478334D01*
X41425476Y-38478334D01*
X41655286Y-38535786D01*
X41770190Y-38593238D01*
X41885095Y-38708143D01*
X41942548Y-38880500D01*
X41942548Y-39167762D01*
X41310571Y-37961262D02*
X41310571Y-37559095D01*
X41942548Y-37386738D02*
X41942548Y-37961262D01*
X40736048Y-37961262D01*
X40736048Y-37386738D01*
X41942548Y-50212738D02*
X40736048Y-50212738D01*
X40736048Y-49925476D01*
X40793500Y-49753119D01*
X40908405Y-49638214D01*
X41023310Y-49580762D01*
X41253119Y-49523310D01*
X41425476Y-49523310D01*
X41655286Y-49580762D01*
X41770190Y-49638214D01*
X41885095Y-49753119D01*
X41942548Y-49925476D01*
X41942548Y-50212738D01*
X41942548Y-49006238D02*
X40736048Y-49006238D01*
X40736048Y-48201905D02*
X40736048Y-47972095D01*
X40793500Y-47857190D01*
X40908405Y-47742286D01*
X41138214Y-47684833D01*
X41540381Y-47684833D01*
X41770190Y-47742286D01*
X41885095Y-47857190D01*
X41942548Y-47972095D01*
X41942548Y-48201905D01*
X41885095Y-48316809D01*
X41770190Y-48431714D01*
X41540381Y-48489166D01*
X41138214Y-48489166D01*
X40908405Y-48431714D01*
X40793500Y-48316809D01*
X40736048Y-48201905D01*
X41942548Y-47167762D02*
X40736048Y-47167762D01*
X40736048Y-46880500D01*
X40793500Y-46708143D01*
X40908405Y-46593238D01*
X41023310Y-46535786D01*
X41253119Y-46478334D01*
X41425476Y-46478334D01*
X41655286Y-46535786D01*
X41770190Y-46593238D01*
X41885095Y-46708143D01*
X41942548Y-46880500D01*
X41942548Y-47167762D01*
X41310571Y-45961262D02*
X41310571Y-45559095D01*
X41942548Y-45386738D02*
X41942548Y-45961262D01*
X40736048Y-45961262D01*
X40736048Y-45386738D01*
X41942548Y-58212738D02*
X40736048Y-58212738D01*
X40736048Y-57925476D01*
X40793500Y-57753119D01*
X40908405Y-57638214D01*
X41023310Y-57580762D01*
X41253119Y-57523310D01*
X41425476Y-57523310D01*
X41655286Y-57580762D01*
X41770190Y-57638214D01*
X41885095Y-57753119D01*
X41942548Y-57925476D01*
X41942548Y-58212738D01*
X41942548Y-57006238D02*
X40736048Y-57006238D01*
X40736048Y-56201905D02*
X40736048Y-55972095D01*
X40793500Y-55857190D01*
X40908405Y-55742286D01*
X41138214Y-55684833D01*
X41540381Y-55684833D01*
X41770190Y-55742286D01*
X41885095Y-55857190D01*
X41942548Y-55972095D01*
X41942548Y-56201905D01*
X41885095Y-56316809D01*
X41770190Y-56431714D01*
X41540381Y-56489166D01*
X41138214Y-56489166D01*
X40908405Y-56431714D01*
X40793500Y-56316809D01*
X40736048Y-56201905D01*
X41942548Y-55167762D02*
X40736048Y-55167762D01*
X40736048Y-54880500D01*
X40793500Y-54708143D01*
X40908405Y-54593238D01*
X41023310Y-54535786D01*
X41253119Y-54478334D01*
X41425476Y-54478334D01*
X41655286Y-54535786D01*
X41770190Y-54593238D01*
X41885095Y-54708143D01*
X41942548Y-54880500D01*
X41942548Y-55167762D01*
X41310571Y-53961262D02*
X41310571Y-53559095D01*
X41942548Y-53386738D02*
X41942548Y-53961262D01*
X40736048Y-53961262D01*
X40736048Y-53386738D01*
D10*
X31547619Y-19309524D02*
X31500000Y-19261905D01*
X31452381Y-19166667D01*
X31452381Y-18928571D01*
X31500000Y-18833333D01*
X31547619Y-18785714D01*
X31642857Y-18738095D01*
X31738095Y-18738095D01*
X31880952Y-18785714D01*
X32452381Y-19357143D01*
X32452381Y-18738095D01*
X31547619Y-18357143D02*
X31500000Y-18309524D01*
X31452381Y-18214286D01*
X31452381Y-17976190D01*
X31500000Y-17880952D01*
X31547619Y-17833333D01*
X31642857Y-17785714D01*
X31738095Y-17785714D01*
X31880952Y-17833333D01*
X32452381Y-18404762D01*
X32452381Y-17785714D01*
X31785714Y-17357143D02*
X32785714Y-17357143D01*
X31833333Y-17357143D02*
X31785714Y-17261905D01*
X31785714Y-17071428D01*
X31833333Y-16976190D01*
X31880952Y-16928571D01*
X31976190Y-16880952D01*
X32261905Y-16880952D01*
X32357143Y-16928571D01*
X32404762Y-16976190D01*
X32452381Y-17071428D01*
X32452381Y-17261905D01*
X32404762Y-17357143D01*
X30547619Y-19309524D02*
X30500000Y-19261905D01*
X30452381Y-19166667D01*
X30452381Y-18928571D01*
X30500000Y-18833333D01*
X30547619Y-18785714D01*
X30642857Y-18738095D01*
X30738095Y-18738095D01*
X30880952Y-18785714D01*
X31452381Y-19357143D01*
X31452381Y-18738095D01*
X30547619Y-18357143D02*
X30500000Y-18309524D01*
X30452381Y-18214286D01*
X30452381Y-17976190D01*
X30500000Y-17880952D01*
X30547619Y-17833333D01*
X30642857Y-17785714D01*
X30738095Y-17785714D01*
X30880952Y-17833333D01*
X31452381Y-18404762D01*
X31452381Y-17785714D01*
X30785714Y-17357143D02*
X31785714Y-17357143D01*
X30833333Y-17357143D02*
X30785714Y-17261905D01*
X30785714Y-17071428D01*
X30833333Y-16976190D01*
X30880952Y-16928571D01*
X30976190Y-16880952D01*
X31261905Y-16880952D01*
X31357143Y-16928571D01*
X31404762Y-16976190D01*
X31452381Y-17071428D01*
X31452381Y-17261905D01*
X31404762Y-17357143D01*
X32086717Y-20398053D02*
X32154061Y-20465397D01*
X32187733Y-20566412D01*
X32187733Y-20633756D01*
X32154061Y-20734771D01*
X32053046Y-20903129D01*
X31884687Y-21071489D01*
X31716328Y-21172504D01*
X31615313Y-21206176D01*
X31547969Y-21206176D01*
X31446954Y-21172504D01*
X31379610Y-21105160D01*
X31345938Y-21004145D01*
X31345938Y-20936801D01*
X31379610Y-20835786D01*
X31480625Y-20667427D01*
X31648985Y-20499068D01*
X31817343Y-20398053D01*
X31918358Y-20364381D01*
X31985702Y-20364381D01*
X32086717Y-20398053D01*
X31985702Y-21576564D02*
X31985702Y-21643908D01*
X31918358Y-21643908D01*
X31918358Y-21576564D01*
X31985702Y-21576564D01*
X31918358Y-21643908D01*
X32625465Y-22351015D02*
X32221404Y-21946953D01*
X32423434Y-22148984D02*
X33130541Y-21441877D01*
X32962182Y-21475549D01*
X32827495Y-21475549D01*
X32726480Y-21441877D01*
X33702962Y-22485702D02*
X33231557Y-22957106D01*
X33399915Y-22182655D02*
X33029526Y-22553045D01*
X32995854Y-22654060D01*
X33029526Y-22755075D01*
X33130542Y-22856091D01*
X33231557Y-22889763D01*
X33298900Y-22889763D01*
X39543824Y-26062267D02*
X39611168Y-26129611D01*
X39644840Y-26230626D01*
X39644840Y-26297970D01*
X39611168Y-26398985D01*
X39510153Y-26567343D01*
X39341794Y-26735703D01*
X39173435Y-26836718D01*
X39072420Y-26870390D01*
X39005076Y-26870390D01*
X38904061Y-26836718D01*
X38836717Y-26769374D01*
X38803045Y-26668359D01*
X38803045Y-26601015D01*
X38836717Y-26500000D01*
X38937732Y-26331641D01*
X39106092Y-26163282D01*
X39274450Y-26062267D01*
X39375465Y-26028595D01*
X39442809Y-26028595D01*
X39543824Y-26062267D01*
X39442809Y-27240778D02*
X39442809Y-27308122D01*
X39375465Y-27308122D01*
X39375465Y-27240778D01*
X39442809Y-27240778D01*
X39375465Y-27308122D01*
X40082572Y-28015229D02*
X39678511Y-27611167D01*
X39880541Y-27813198D02*
X40587648Y-27106091D01*
X40419289Y-27139763D01*
X40284602Y-27139763D01*
X40183587Y-27106091D01*
X41160069Y-28149916D02*
X40688664Y-28621320D01*
X40857022Y-27846869D02*
X40486633Y-28217259D01*
X40452961Y-28318274D01*
X40486633Y-28419289D01*
X40587649Y-28520305D01*
X40688664Y-28553977D01*
X40756007Y-28553977D01*
X30750931Y-34976481D02*
X30818275Y-35043825D01*
X30851947Y-35144840D01*
X30851947Y-35212184D01*
X30818275Y-35313199D01*
X30717260Y-35481557D01*
X30548901Y-35649917D01*
X30380542Y-35750932D01*
X30279527Y-35784604D01*
X30212183Y-35784604D01*
X30111168Y-35750932D01*
X30043824Y-35683588D01*
X30010152Y-35582573D01*
X30010152Y-35515229D01*
X30043824Y-35414214D01*
X30144839Y-35245855D01*
X30313199Y-35077496D01*
X30481557Y-34976481D01*
X30582572Y-34942809D01*
X30649916Y-34942809D01*
X30750931Y-34976481D01*
X30649916Y-36154992D02*
X30649916Y-36222336D01*
X30582572Y-36222336D01*
X30582572Y-36154992D01*
X30649916Y-36154992D01*
X30582572Y-36222336D01*
X31289679Y-36929443D02*
X30885618Y-36525381D01*
X31087648Y-36727412D02*
X31794755Y-36020305D01*
X31626396Y-36053977D01*
X31491709Y-36053977D01*
X31390694Y-36020305D01*
X32367176Y-37064130D02*
X31895771Y-37535534D01*
X32064129Y-36761083D02*
X31693740Y-37131473D01*
X31660068Y-37232488D01*
X31693740Y-37333503D01*
X31794756Y-37434519D01*
X31895771Y-37468191D01*
X31963114Y-37468191D01*
X42452381Y-66571429D02*
X42452381Y-66476190D01*
X42500000Y-66380952D01*
X42547619Y-66333333D01*
X42642857Y-66285714D01*
X42833333Y-66238095D01*
X43071429Y-66238095D01*
X43261905Y-66285714D01*
X43357143Y-66333333D01*
X43404762Y-66380952D01*
X43452381Y-66476190D01*
X43452381Y-66571429D01*
X43404762Y-66666667D01*
X43357143Y-66714286D01*
X43261905Y-66761905D01*
X43071429Y-66809524D01*
X42833333Y-66809524D01*
X42642857Y-66761905D01*
X42547619Y-66714286D01*
X42500000Y-66666667D01*
X42452381Y-66571429D01*
X43357143Y-65809524D02*
X43404762Y-65761905D01*
X43452381Y-65809524D01*
X43404762Y-65857143D01*
X43357143Y-65809524D01*
X43452381Y-65809524D01*
X43452381Y-64809524D02*
X43452381Y-65380953D01*
X43452381Y-65095239D02*
X42452381Y-65095239D01*
X42595238Y-65190477D01*
X42690476Y-65285715D01*
X42738095Y-65380953D01*
X42785714Y-63952381D02*
X43452381Y-63952381D01*
X42785714Y-64380953D02*
X43309524Y-64380953D01*
X43404762Y-64333334D01*
X43452381Y-64238096D01*
X43452381Y-64095238D01*
X43404762Y-64000000D01*
X43357143Y-63952381D01*
X26428571Y-65952381D02*
X26523810Y-65952381D01*
X26619048Y-66000000D01*
X26666667Y-66047619D01*
X26714286Y-66142857D01*
X26761905Y-66333333D01*
X26761905Y-66571429D01*
X26714286Y-66761905D01*
X26666667Y-66857143D01*
X26619048Y-66904762D01*
X26523810Y-66952381D01*
X26428571Y-66952381D01*
X26333333Y-66904762D01*
X26285714Y-66857143D01*
X26238095Y-66761905D01*
X26190476Y-66571429D01*
X26190476Y-66333333D01*
X26238095Y-66142857D01*
X26285714Y-66047619D01*
X26333333Y-66000000D01*
X26428571Y-65952381D01*
X27190476Y-66857143D02*
X27238095Y-66904762D01*
X27190476Y-66952381D01*
X27142857Y-66904762D01*
X27190476Y-66857143D01*
X27190476Y-66952381D01*
X28190476Y-66952381D02*
X27619047Y-66952381D01*
X27904761Y-66952381D02*
X27904761Y-65952381D01*
X27809523Y-66095238D01*
X27714285Y-66190476D01*
X27619047Y-66238095D01*
X29047619Y-66285714D02*
X29047619Y-66952381D01*
X28619047Y-66285714D02*
X28619047Y-66809524D01*
X28666666Y-66904762D01*
X28761904Y-66952381D01*
X28904762Y-66952381D01*
X29000000Y-66904762D01*
X29047619Y-66857143D01*
X16642857Y-6452381D02*
X17261905Y-6452381D01*
X16928571Y-6833333D01*
X17071429Y-6833333D01*
X17166667Y-6880952D01*
X17214286Y-6928571D01*
X17261905Y-7023810D01*
X17261905Y-7261905D01*
X17214286Y-7357143D01*
X17166667Y-7404762D01*
X17071429Y-7452381D01*
X16785714Y-7452381D01*
X16690476Y-7404762D01*
X16642857Y-7357143D01*
X17595238Y-6452381D02*
X18214286Y-6452381D01*
X17880952Y-6833333D01*
X18023810Y-6833333D01*
X18119048Y-6880952D01*
X18166667Y-6928571D01*
X18214286Y-7023810D01*
X18214286Y-7261905D01*
X18166667Y-7357143D01*
X18119048Y-7404762D01*
X18023810Y-7452381D01*
X17738095Y-7452381D01*
X17642857Y-7404762D01*
X17595238Y-7357143D01*
X18833333Y-6452381D02*
X18928572Y-6452381D01*
X19023810Y-6500000D01*
X19071429Y-6547619D01*
X19119048Y-6642857D01*
X19166667Y-6833333D01*
X19166667Y-7071429D01*
X19119048Y-7261905D01*
X19071429Y-7357143D01*
X19023810Y-7404762D01*
X18928572Y-7452381D01*
X18833333Y-7452381D01*
X18738095Y-7404762D01*
X18690476Y-7357143D01*
X18642857Y-7261905D01*
X18595238Y-7071429D01*
X18595238Y-6833333D01*
X18642857Y-6642857D01*
X18690476Y-6547619D01*
X18738095Y-6500000D01*
X18833333Y-6452381D01*
X53452381Y-52738095D02*
X53452381Y-53309524D01*
X53452381Y-53023810D02*
X52452381Y-53023810D01*
X52595238Y-53119048D01*
X52690476Y-53214286D01*
X52738095Y-53309524D01*
X53452381Y-52309524D02*
X52452381Y-52309524D01*
X53071429Y-52214286D02*
X53452381Y-51928571D01*
X52785714Y-51928571D02*
X53166667Y-52309524D01*
X53452381Y-60238095D02*
X53452381Y-60809524D01*
X53452381Y-60523810D02*
X52452381Y-60523810D01*
X52595238Y-60619048D01*
X52690476Y-60714286D01*
X52738095Y-60809524D01*
X53452381Y-59809524D02*
X52452381Y-59809524D01*
X53071429Y-59714286D02*
X53452381Y-59428571D01*
X52785714Y-59428571D02*
X53166667Y-59809524D01*
X53452381Y-20738095D02*
X53452381Y-21309524D01*
X53452381Y-21023810D02*
X52452381Y-21023810D01*
X52595238Y-21119048D01*
X52690476Y-21214286D01*
X52738095Y-21309524D01*
X53452381Y-20309524D02*
X52452381Y-20309524D01*
X53071429Y-20214286D02*
X53452381Y-19928571D01*
X52785714Y-19928571D02*
X53166667Y-20309524D01*
X53452381Y-28738095D02*
X53452381Y-29309524D01*
X53452381Y-29023810D02*
X52452381Y-29023810D01*
X52595238Y-29119048D01*
X52690476Y-29214286D01*
X52738095Y-29309524D01*
X53452381Y-28309524D02*
X52452381Y-28309524D01*
X53071429Y-28214286D02*
X53452381Y-27928571D01*
X52785714Y-27928571D02*
X53166667Y-28309524D01*
X53452381Y-36738095D02*
X53452381Y-37309524D01*
X53452381Y-37023810D02*
X52452381Y-37023810D01*
X52595238Y-37119048D01*
X52690476Y-37214286D01*
X52738095Y-37309524D01*
X53452381Y-36309524D02*
X52452381Y-36309524D01*
X53071429Y-36214286D02*
X53452381Y-35928571D01*
X52785714Y-35928571D02*
X53166667Y-36309524D01*
X53452381Y-44738095D02*
X53452381Y-45309524D01*
X53452381Y-45023810D02*
X52452381Y-45023810D01*
X52595238Y-45119048D01*
X52690476Y-45214286D01*
X52738095Y-45309524D01*
X53452381Y-44309524D02*
X52452381Y-44309524D01*
X53071429Y-44214286D02*
X53452381Y-43928571D01*
X52785714Y-43928571D02*
X53166667Y-44309524D01*
X40261905Y-67952381D02*
X39690476Y-67952381D01*
X39976190Y-67952381D02*
X39976190Y-66952381D01*
X39880952Y-67095238D01*
X39785714Y-67190476D01*
X39690476Y-67238095D01*
X40880952Y-66952381D02*
X40976191Y-66952381D01*
X41071429Y-67000000D01*
X41119048Y-67047619D01*
X41166667Y-67142857D01*
X41214286Y-67333333D01*
X41214286Y-67571429D01*
X41166667Y-67761905D01*
X41119048Y-67857143D01*
X41071429Y-67904762D01*
X40976191Y-67952381D01*
X40880952Y-67952381D01*
X40785714Y-67904762D01*
X40738095Y-67857143D01*
X40690476Y-67761905D01*
X40642857Y-67571429D01*
X40642857Y-67333333D01*
X40690476Y-67142857D01*
X40738095Y-67047619D01*
X40785714Y-67000000D01*
X40880952Y-66952381D01*
X41642857Y-67952381D02*
X41642857Y-66952381D01*
X41738095Y-67571429D02*
X42023810Y-67952381D01*
X42023810Y-67285714D02*
X41642857Y-67666667D01*
X42785714Y-62833333D02*
X43452381Y-62833333D01*
X42404762Y-63071429D02*
X43119048Y-63309524D01*
X43119048Y-62690476D01*
X43357143Y-62309524D02*
X43404762Y-62261905D01*
X43452381Y-62309524D01*
X43404762Y-62357143D01*
X43357143Y-62309524D01*
X43452381Y-62309524D01*
X42452381Y-61928572D02*
X42452381Y-61261905D01*
X43452381Y-61690477D01*
X43452381Y-60880953D02*
X42452381Y-60880953D01*
X43071429Y-60785715D02*
X43452381Y-60500000D01*
X42785714Y-60500000D02*
X43166667Y-60880953D01*
X28452381Y-50738095D02*
X28452381Y-51309524D01*
X28452381Y-51023810D02*
X27452381Y-51023810D01*
X27595238Y-51119048D01*
X27690476Y-51214286D01*
X27738095Y-51309524D01*
X27452381Y-50119048D02*
X27452381Y-50023809D01*
X27500000Y-49928571D01*
X27547619Y-49880952D01*
X27642857Y-49833333D01*
X27833333Y-49785714D01*
X28071429Y-49785714D01*
X28261905Y-49833333D01*
X28357143Y-49880952D01*
X28404762Y-49928571D01*
X28452381Y-50023809D01*
X28452381Y-50119048D01*
X28404762Y-50214286D01*
X28357143Y-50261905D01*
X28261905Y-50309524D01*
X28071429Y-50357143D01*
X27833333Y-50357143D01*
X27642857Y-50309524D01*
X27547619Y-50261905D01*
X27500000Y-50214286D01*
X27452381Y-50119048D01*
X28452381Y-49357143D02*
X27452381Y-49357143D01*
X28071429Y-49261905D02*
X28452381Y-48976190D01*
X27785714Y-48976190D02*
X28166667Y-49357143D01*
X23761905Y-32452381D02*
X23190476Y-32452381D01*
X23476190Y-32452381D02*
X23476190Y-31452381D01*
X23380952Y-31595238D01*
X23285714Y-31690476D01*
X23190476Y-31738095D01*
X24380952Y-31452381D02*
X24476191Y-31452381D01*
X24571429Y-31500000D01*
X24619048Y-31547619D01*
X24666667Y-31642857D01*
X24714286Y-31833333D01*
X24714286Y-32071429D01*
X24666667Y-32261905D01*
X24619048Y-32357143D01*
X24571429Y-32404762D01*
X24476191Y-32452381D01*
X24380952Y-32452381D01*
X24285714Y-32404762D01*
X24238095Y-32357143D01*
X24190476Y-32261905D01*
X24142857Y-32071429D01*
X24142857Y-31833333D01*
X24190476Y-31642857D01*
X24238095Y-31547619D01*
X24285714Y-31500000D01*
X24380952Y-31452381D01*
X25142857Y-32452381D02*
X25142857Y-31452381D01*
X25238095Y-32071429D02*
X25523810Y-32452381D01*
X25523810Y-31785714D02*
X25142857Y-32166667D01*
X23261905Y-22952381D02*
X22690476Y-22952381D01*
X22976190Y-22952381D02*
X22976190Y-21952381D01*
X22880952Y-22095238D01*
X22785714Y-22190476D01*
X22690476Y-22238095D01*
X23880952Y-21952381D02*
X23976191Y-21952381D01*
X24071429Y-22000000D01*
X24119048Y-22047619D01*
X24166667Y-22142857D01*
X24214286Y-22333333D01*
X24214286Y-22571429D01*
X24166667Y-22761905D01*
X24119048Y-22857143D01*
X24071429Y-22904762D01*
X23976191Y-22952381D01*
X23880952Y-22952381D01*
X23785714Y-22904762D01*
X23738095Y-22857143D01*
X23690476Y-22761905D01*
X23642857Y-22571429D01*
X23642857Y-22333333D01*
X23690476Y-22142857D01*
X23738095Y-22047619D01*
X23785714Y-22000000D01*
X23880952Y-21952381D01*
X24642857Y-22952381D02*
X24642857Y-21952381D01*
X24738095Y-22571429D02*
X25023810Y-22952381D01*
X25023810Y-22285714D02*
X24642857Y-22666667D01*
X25761905Y-18452381D02*
X25190476Y-18452381D01*
X25476190Y-18452381D02*
X25476190Y-17452381D01*
X25380952Y-17595238D01*
X25285714Y-17690476D01*
X25190476Y-17738095D01*
X26190476Y-18452381D02*
X26190476Y-17452381D01*
X26285714Y-18071429D02*
X26571429Y-18452381D01*
X26571429Y-17785714D02*
X26190476Y-18166667D01*
D14*
X26304333Y-12638214D02*
X26304333Y-13442548D01*
X26017071Y-12178595D02*
X25729810Y-13040381D01*
X26476690Y-13040381D01*
X26936310Y-13327643D02*
X26993762Y-13385095D01*
X26936310Y-13442548D01*
X26878858Y-13385095D01*
X26936310Y-13327643D01*
X26936310Y-13442548D01*
X27395929Y-12236048D02*
X28200262Y-12236048D01*
X27683191Y-13442548D01*
X29176953Y-12638214D02*
X29176953Y-13442548D01*
X28659882Y-12638214D02*
X28659882Y-13270190D01*
X28717334Y-13385095D01*
X28832239Y-13442548D01*
X29004596Y-13442548D01*
X29119501Y-13385095D01*
X29176953Y-13327643D01*
X23638214Y-15195667D02*
X24442548Y-15195667D01*
X23178595Y-15482929D02*
X24040381Y-15770190D01*
X24040381Y-15023310D01*
X24327643Y-14563690D02*
X24385095Y-14506238D01*
X24442548Y-14563690D01*
X24385095Y-14621142D01*
X24327643Y-14563690D01*
X24442548Y-14563690D01*
X23236048Y-14104071D02*
X23236048Y-13299738D01*
X24442548Y-13816809D01*
X23638214Y-12323047D02*
X24442548Y-12323047D01*
X23638214Y-12840118D02*
X24270190Y-12840118D01*
X24385095Y-12782666D01*
X24442548Y-12667761D01*
X24442548Y-12495404D01*
X24385095Y-12380499D01*
X24327643Y-12323047D01*
X47304333Y-18138214D02*
X47304333Y-18942548D01*
X47017071Y-17678595D02*
X46729810Y-18540381D01*
X47476690Y-18540381D01*
X47936310Y-18827643D02*
X47993762Y-18885095D01*
X47936310Y-18942548D01*
X47878858Y-18885095D01*
X47936310Y-18827643D01*
X47936310Y-18942548D01*
X48395929Y-17736048D02*
X49200262Y-17736048D01*
X48683191Y-18942548D01*
X50176953Y-18138214D02*
X50176953Y-18942548D01*
X49659882Y-18138214D02*
X49659882Y-18770190D01*
X49717334Y-18885095D01*
X49832239Y-18942548D01*
X50004596Y-18942548D01*
X50119501Y-18885095D01*
X50176953Y-18827643D01*
X47304333Y-61638214D02*
X47304333Y-62442548D01*
X47017071Y-61178595D02*
X46729810Y-62040381D01*
X47476690Y-62040381D01*
X47936310Y-62327643D02*
X47993762Y-62385095D01*
X47936310Y-62442548D01*
X47878858Y-62385095D01*
X47936310Y-62327643D01*
X47936310Y-62442548D01*
X48395929Y-61236048D02*
X49200262Y-61236048D01*
X48683191Y-62442548D01*
X50176953Y-61638214D02*
X50176953Y-62442548D01*
X49659882Y-61638214D02*
X49659882Y-62270190D01*
X49717334Y-62385095D01*
X49832239Y-62442548D01*
X50004596Y-62442548D01*
X50119501Y-62385095D01*
X50176953Y-62327643D01*
X47304333Y-26138214D02*
X47304333Y-26942548D01*
X47017071Y-25678595D02*
X46729810Y-26540381D01*
X47476690Y-26540381D01*
X47936310Y-26827643D02*
X47993762Y-26885095D01*
X47936310Y-26942548D01*
X47878858Y-26885095D01*
X47936310Y-26827643D01*
X47936310Y-26942548D01*
X48395929Y-25736048D02*
X49200262Y-25736048D01*
X48683191Y-26942548D01*
X50176953Y-26138214D02*
X50176953Y-26942548D01*
X49659882Y-26138214D02*
X49659882Y-26770190D01*
X49717334Y-26885095D01*
X49832239Y-26942548D01*
X50004596Y-26942548D01*
X50119501Y-26885095D01*
X50176953Y-26827643D01*
X47304333Y-21638214D02*
X47304333Y-22442548D01*
X47017071Y-21178595D02*
X46729810Y-22040381D01*
X47476690Y-22040381D01*
X47936310Y-22327643D02*
X47993762Y-22385095D01*
X47936310Y-22442548D01*
X47878858Y-22385095D01*
X47936310Y-22327643D01*
X47936310Y-22442548D01*
X48395929Y-21236048D02*
X49200262Y-21236048D01*
X48683191Y-22442548D01*
X50176953Y-21638214D02*
X50176953Y-22442548D01*
X49659882Y-21638214D02*
X49659882Y-22270190D01*
X49717334Y-22385095D01*
X49832239Y-22442548D01*
X50004596Y-22442548D01*
X50119501Y-22385095D01*
X50176953Y-22327643D01*
X47304333Y-34138214D02*
X47304333Y-34942548D01*
X47017071Y-33678595D02*
X46729810Y-34540381D01*
X47476690Y-34540381D01*
X47936310Y-34827643D02*
X47993762Y-34885095D01*
X47936310Y-34942548D01*
X47878858Y-34885095D01*
X47936310Y-34827643D01*
X47936310Y-34942548D01*
X48395929Y-33736048D02*
X49200262Y-33736048D01*
X48683191Y-34942548D01*
X50176953Y-34138214D02*
X50176953Y-34942548D01*
X49659882Y-34138214D02*
X49659882Y-34770190D01*
X49717334Y-34885095D01*
X49832239Y-34942548D01*
X50004596Y-34942548D01*
X50119501Y-34885095D01*
X50176953Y-34827643D01*
X47304333Y-42138214D02*
X47304333Y-42942548D01*
X47017071Y-41678595D02*
X46729810Y-42540381D01*
X47476690Y-42540381D01*
X47936310Y-42827643D02*
X47993762Y-42885095D01*
X47936310Y-42942548D01*
X47878858Y-42885095D01*
X47936310Y-42827643D01*
X47936310Y-42942548D01*
X48395929Y-41736048D02*
X49200262Y-41736048D01*
X48683191Y-42942548D01*
X50176953Y-42138214D02*
X50176953Y-42942548D01*
X49659882Y-42138214D02*
X49659882Y-42770190D01*
X49717334Y-42885095D01*
X49832239Y-42942548D01*
X50004596Y-42942548D01*
X50119501Y-42885095D01*
X50176953Y-42827643D01*
X47304333Y-50138214D02*
X47304333Y-50942548D01*
X47017071Y-49678595D02*
X46729810Y-50540381D01*
X47476690Y-50540381D01*
X47936310Y-50827643D02*
X47993762Y-50885095D01*
X47936310Y-50942548D01*
X47878858Y-50885095D01*
X47936310Y-50827643D01*
X47936310Y-50942548D01*
X48395929Y-49736048D02*
X49200262Y-49736048D01*
X48683191Y-50942548D01*
X50176953Y-50138214D02*
X50176953Y-50942548D01*
X49659882Y-50138214D02*
X49659882Y-50770190D01*
X49717334Y-50885095D01*
X49832239Y-50942548D01*
X50004596Y-50942548D01*
X50119501Y-50885095D01*
X50176953Y-50827643D01*
X47304333Y-58138214D02*
X47304333Y-58942548D01*
X47017071Y-57678595D02*
X46729810Y-58540381D01*
X47476690Y-58540381D01*
X47936310Y-58827643D02*
X47993762Y-58885095D01*
X47936310Y-58942548D01*
X47878858Y-58885095D01*
X47936310Y-58827643D01*
X47936310Y-58942548D01*
X48395929Y-57736048D02*
X49200262Y-57736048D01*
X48683191Y-58942548D01*
X50176953Y-58138214D02*
X50176953Y-58942548D01*
X49659882Y-58138214D02*
X49659882Y-58770190D01*
X49717334Y-58885095D01*
X49832239Y-58942548D01*
X50004596Y-58942548D01*
X50119501Y-58885095D01*
X50176953Y-58827643D01*
X47304333Y-29638214D02*
X47304333Y-30442548D01*
X47017071Y-29178595D02*
X46729810Y-30040381D01*
X47476690Y-30040381D01*
X47936310Y-30327643D02*
X47993762Y-30385095D01*
X47936310Y-30442548D01*
X47878858Y-30385095D01*
X47936310Y-30327643D01*
X47936310Y-30442548D01*
X48395929Y-29236048D02*
X49200262Y-29236048D01*
X48683191Y-30442548D01*
X50176953Y-29638214D02*
X50176953Y-30442548D01*
X49659882Y-29638214D02*
X49659882Y-30270190D01*
X49717334Y-30385095D01*
X49832239Y-30442548D01*
X50004596Y-30442548D01*
X50119501Y-30385095D01*
X50176953Y-30327643D01*
X47304333Y-37638214D02*
X47304333Y-38442548D01*
X47017071Y-37178595D02*
X46729810Y-38040381D01*
X47476690Y-38040381D01*
X47936310Y-38327643D02*
X47993762Y-38385095D01*
X47936310Y-38442548D01*
X47878858Y-38385095D01*
X47936310Y-38327643D01*
X47936310Y-38442548D01*
X48395929Y-37236048D02*
X49200262Y-37236048D01*
X48683191Y-38442548D01*
X50176953Y-37638214D02*
X50176953Y-38442548D01*
X49659882Y-37638214D02*
X49659882Y-38270190D01*
X49717334Y-38385095D01*
X49832239Y-38442548D01*
X50004596Y-38442548D01*
X50119501Y-38385095D01*
X50176953Y-38327643D01*
X47304333Y-45638214D02*
X47304333Y-46442548D01*
X47017071Y-45178595D02*
X46729810Y-46040381D01*
X47476690Y-46040381D01*
X47936310Y-46327643D02*
X47993762Y-46385095D01*
X47936310Y-46442548D01*
X47878858Y-46385095D01*
X47936310Y-46327643D01*
X47936310Y-46442548D01*
X48395929Y-45236048D02*
X49200262Y-45236048D01*
X48683191Y-46442548D01*
X50176953Y-45638214D02*
X50176953Y-46442548D01*
X49659882Y-45638214D02*
X49659882Y-46270190D01*
X49717334Y-46385095D01*
X49832239Y-46442548D01*
X50004596Y-46442548D01*
X50119501Y-46385095D01*
X50176953Y-46327643D01*
X47304333Y-53638214D02*
X47304333Y-54442548D01*
X47017071Y-53178595D02*
X46729810Y-54040381D01*
X47476690Y-54040381D01*
X47936310Y-54327643D02*
X47993762Y-54385095D01*
X47936310Y-54442548D01*
X47878858Y-54385095D01*
X47936310Y-54327643D01*
X47936310Y-54442548D01*
X48395929Y-53236048D02*
X49200262Y-53236048D01*
X48683191Y-54442548D01*
X50176953Y-53638214D02*
X50176953Y-54442548D01*
X49659882Y-53638214D02*
X49659882Y-54270190D01*
X49717334Y-54385095D01*
X49832239Y-54442548D01*
X50004596Y-54442548D01*
X50119501Y-54385095D01*
X50176953Y-54327643D01*
X35304333Y-11638214D02*
X35304333Y-12442548D01*
X35017071Y-11178595D02*
X34729810Y-12040381D01*
X35476690Y-12040381D01*
X35936310Y-12327643D02*
X35993762Y-12385095D01*
X35936310Y-12442548D01*
X35878858Y-12385095D01*
X35936310Y-12327643D01*
X35936310Y-12442548D01*
X36395929Y-11236048D02*
X37200262Y-11236048D01*
X36683191Y-12442548D01*
X38176953Y-11638214D02*
X38176953Y-12442548D01*
X37659882Y-11638214D02*
X37659882Y-12270190D01*
X37717334Y-12385095D01*
X37832239Y-12442548D01*
X38004596Y-12442548D01*
X38119501Y-12385095D01*
X38176953Y-12327643D01*
X30304333Y-12638214D02*
X30304333Y-13442548D01*
X30017071Y-12178595D02*
X29729810Y-13040381D01*
X30476690Y-13040381D01*
X30936310Y-13327643D02*
X30993762Y-13385095D01*
X30936310Y-13442548D01*
X30878858Y-13385095D01*
X30936310Y-13327643D01*
X30936310Y-13442548D01*
X31395929Y-12236048D02*
X32200262Y-12236048D01*
X31683191Y-13442548D01*
X33176953Y-12638214D02*
X33176953Y-13442548D01*
X32659882Y-12638214D02*
X32659882Y-13270190D01*
X32717334Y-13385095D01*
X32832239Y-13442548D01*
X33004596Y-13442548D01*
X33119501Y-13385095D01*
X33176953Y-13327643D01*
X39138214Y-51695667D02*
X39942548Y-51695667D01*
X38678595Y-51982929D02*
X39540381Y-52270190D01*
X39540381Y-51523310D01*
X39827643Y-51063690D02*
X39885095Y-51006238D01*
X39942548Y-51063690D01*
X39885095Y-51121142D01*
X39827643Y-51063690D01*
X39942548Y-51063690D01*
X38736048Y-50604071D02*
X38736048Y-49799738D01*
X39942548Y-50316809D01*
X39138214Y-48823047D02*
X39942548Y-48823047D01*
X39138214Y-49340118D02*
X39770190Y-49340118D01*
X39885095Y-49282666D01*
X39942548Y-49167761D01*
X39942548Y-48995404D01*
X39885095Y-48880499D01*
X39827643Y-48823047D01*
D10*
X40261905Y-60452381D02*
X39690476Y-60452381D01*
X39976190Y-60452381D02*
X39976190Y-59452381D01*
X39880952Y-59595238D01*
X39785714Y-59690476D01*
X39690476Y-59738095D01*
X40880952Y-59452381D02*
X40976191Y-59452381D01*
X41071429Y-59500000D01*
X41119048Y-59547619D01*
X41166667Y-59642857D01*
X41214286Y-59833333D01*
X41214286Y-60071429D01*
X41166667Y-60261905D01*
X41119048Y-60357143D01*
X41071429Y-60404762D01*
X40976191Y-60452381D01*
X40880952Y-60452381D01*
X40785714Y-60404762D01*
X40738095Y-60357143D01*
X40690476Y-60261905D01*
X40642857Y-60071429D01*
X40642857Y-59833333D01*
X40690476Y-59642857D01*
X40738095Y-59547619D01*
X40785714Y-59500000D01*
X40880952Y-59452381D01*
X41833333Y-59452381D02*
X41928572Y-59452381D01*
X42023810Y-59500000D01*
X42071429Y-59547619D01*
X42119048Y-59642857D01*
X42166667Y-59833333D01*
X42166667Y-60071429D01*
X42119048Y-60261905D01*
X42071429Y-60357143D01*
X42023810Y-60404762D01*
X41928572Y-60452381D01*
X41833333Y-60452381D01*
X41738095Y-60404762D01*
X41690476Y-60357143D01*
X41642857Y-60261905D01*
X41595238Y-60071429D01*
X41595238Y-59833333D01*
X41642857Y-59642857D01*
X41690476Y-59547619D01*
X41738095Y-59500000D01*
X41833333Y-59452381D01*
X39761905Y-69452381D02*
X39190476Y-69452381D01*
X39476190Y-69452381D02*
X39476190Y-68452381D01*
X39380952Y-68595238D01*
X39285714Y-68690476D01*
X39190476Y-68738095D01*
X40190476Y-69452381D02*
X40190476Y-68452381D01*
X40285714Y-69071429D02*
X40571429Y-69452381D01*
X40571429Y-68785714D02*
X40190476Y-69166667D01*
X28952381Y-21738095D02*
X28952381Y-22309524D01*
X28952381Y-22023810D02*
X27952381Y-22023810D01*
X28095238Y-22119048D01*
X28190476Y-22214286D01*
X28238095Y-22309524D01*
X28952381Y-21309524D02*
X27952381Y-21309524D01*
X28571429Y-21214286D02*
X28952381Y-20928571D01*
X28285714Y-20928571D02*
X28666667Y-21309524D01*
M02*
