G04 #@! TF.FileFunction,Soldermask,Bot*
%FSLAX46Y46*%
G04 Gerber Fmt 4.6, Leading zero omitted, Abs format (unit mm)*
G04 Created by KiCad (PCBNEW 4.0.7) date 02/19/18 11:26:27*
%MOMM*%
%LPD*%
G01*
G04 APERTURE LIST*
%ADD10C,0.100000*%
%ADD11R,2.432000X2.127200*%
%ADD12O,2.432000X2.127200*%
%ADD13R,1.000000X1.900000*%
%ADD14R,1.670000X1.365200*%
%ADD15O,1.900000X2.900000*%
%ADD16C,3.400000*%
%ADD17R,1.000000X1.950000*%
%ADD18O,1.400000X1.924000*%
%ADD19R,2.432000X2.432000*%
%ADD20O,2.432000X2.432000*%
%ADD21R,1.400000X1.200000*%
%ADD22R,1.365200X1.670000*%
%ADD23R,2.600000X1.000000*%
%ADD24R,1.000000X1.700000*%
%ADD25R,1.000000X1.400000*%
%ADD26R,1.400000X1.000000*%
%ADD27R,1.200000X1.400000*%
%ADD28R,1.900000X2.200000*%
%ADD29O,1.900000X2.200000*%
G04 APERTURE END LIST*
D10*
D11*
X22860000Y-71120000D03*
D12*
X22860000Y-68580000D03*
X22860000Y-66040000D03*
X22860000Y-63500000D03*
X22860000Y-60960000D03*
X22860000Y-58420000D03*
X22860000Y-55880000D03*
X22860000Y-53340000D03*
X22860000Y-50800000D03*
X22860000Y-48260000D03*
X22860000Y-45720000D03*
X22860000Y-43180000D03*
X22860000Y-40640000D03*
X22860000Y-38100000D03*
X22860000Y-35560000D03*
X22860000Y-33020000D03*
X22860000Y-30480000D03*
X22860000Y-27940000D03*
X22860000Y-25400000D03*
X22860000Y-22860000D03*
X22860000Y-20320000D03*
D13*
X26035000Y-66134000D03*
X27305000Y-66134000D03*
X28575000Y-66134000D03*
X29845000Y-66134000D03*
X31115000Y-66134000D03*
X32385000Y-66134000D03*
X33655000Y-66134000D03*
X34925000Y-66134000D03*
X34925000Y-71534000D03*
X33655000Y-71534000D03*
X32385000Y-71534000D03*
X31115000Y-71534000D03*
X29845000Y-71534000D03*
X28575000Y-71534000D03*
X27305000Y-71534000D03*
X26035000Y-71534000D03*
D14*
X29972000Y-29972000D03*
X29972000Y-31242000D03*
X29972000Y-32512000D03*
D15*
X36830000Y-27940000D03*
X34330000Y-27940000D03*
X31830000Y-27940000D03*
X29330000Y-27940000D03*
D16*
X33080000Y-21440000D03*
D10*
G36*
X30247398Y-55381308D02*
X29787779Y-54921689D01*
X30989860Y-53719608D01*
X31449479Y-54179227D01*
X30247398Y-55381308D01*
X30247398Y-55381308D01*
G37*
G36*
X29893845Y-55027755D02*
X29434226Y-54568136D01*
X30636307Y-53366055D01*
X31095926Y-53825674D01*
X29893845Y-55027755D01*
X29893845Y-55027755D01*
G37*
G36*
X29540291Y-54674201D02*
X29080672Y-54214582D01*
X30282753Y-53012501D01*
X30742372Y-53472120D01*
X29540291Y-54674201D01*
X29540291Y-54674201D01*
G37*
G36*
X29186738Y-54320648D02*
X28727119Y-53861029D01*
X29929200Y-52658948D01*
X30388819Y-53118567D01*
X29186738Y-54320648D01*
X29186738Y-54320648D01*
G37*
G36*
X28833185Y-53967095D02*
X28373566Y-53507476D01*
X29575647Y-52305395D01*
X30035266Y-52765014D01*
X28833185Y-53967095D01*
X28833185Y-53967095D01*
G37*
G36*
X28479631Y-53613541D02*
X28020012Y-53153922D01*
X29222093Y-51951841D01*
X29681712Y-52411460D01*
X28479631Y-53613541D01*
X28479631Y-53613541D01*
G37*
G36*
X28126078Y-53259988D02*
X27666459Y-52800369D01*
X28868540Y-51598288D01*
X29328159Y-52057907D01*
X28126078Y-53259988D01*
X28126078Y-53259988D01*
G37*
G36*
X27772524Y-52906434D02*
X27312905Y-52446815D01*
X28514986Y-51244734D01*
X28974605Y-51704353D01*
X27772524Y-52906434D01*
X27772524Y-52906434D01*
G37*
G36*
X27418971Y-52552881D02*
X26959352Y-52093262D01*
X28161433Y-50891181D01*
X28621052Y-51350800D01*
X27418971Y-52552881D01*
X27418971Y-52552881D01*
G37*
G36*
X27065418Y-52199328D02*
X26605799Y-51739709D01*
X27807880Y-50537628D01*
X28267499Y-50997247D01*
X27065418Y-52199328D01*
X27065418Y-52199328D01*
G37*
G36*
X26711864Y-51845774D02*
X26252245Y-51386155D01*
X27454326Y-50184074D01*
X27913945Y-50643693D01*
X26711864Y-51845774D01*
X26711864Y-51845774D01*
G37*
G36*
X26358311Y-51492221D02*
X25898692Y-51032602D01*
X27100773Y-49830521D01*
X27560392Y-50290140D01*
X26358311Y-51492221D01*
X26358311Y-51492221D01*
G37*
G36*
X25898692Y-48027398D02*
X26358311Y-47567779D01*
X27560392Y-48769860D01*
X27100773Y-49229479D01*
X25898692Y-48027398D01*
X25898692Y-48027398D01*
G37*
G36*
X26252245Y-47673845D02*
X26711864Y-47214226D01*
X27913945Y-48416307D01*
X27454326Y-48875926D01*
X26252245Y-47673845D01*
X26252245Y-47673845D01*
G37*
G36*
X26605799Y-47320291D02*
X27065418Y-46860672D01*
X28267499Y-48062753D01*
X27807880Y-48522372D01*
X26605799Y-47320291D01*
X26605799Y-47320291D01*
G37*
G36*
X26959352Y-46966738D02*
X27418971Y-46507119D01*
X28621052Y-47709200D01*
X28161433Y-48168819D01*
X26959352Y-46966738D01*
X26959352Y-46966738D01*
G37*
G36*
X27312905Y-46613185D02*
X27772524Y-46153566D01*
X28974605Y-47355647D01*
X28514986Y-47815266D01*
X27312905Y-46613185D01*
X27312905Y-46613185D01*
G37*
G36*
X27666459Y-46259631D02*
X28126078Y-45800012D01*
X29328159Y-47002093D01*
X28868540Y-47461712D01*
X27666459Y-46259631D01*
X27666459Y-46259631D01*
G37*
G36*
X28020012Y-45906078D02*
X28479631Y-45446459D01*
X29681712Y-46648540D01*
X29222093Y-47108159D01*
X28020012Y-45906078D01*
X28020012Y-45906078D01*
G37*
G36*
X28373566Y-45552524D02*
X28833185Y-45092905D01*
X30035266Y-46294986D01*
X29575647Y-46754605D01*
X28373566Y-45552524D01*
X28373566Y-45552524D01*
G37*
G36*
X28727119Y-45198971D02*
X29186738Y-44739352D01*
X30388819Y-45941433D01*
X29929200Y-46401052D01*
X28727119Y-45198971D01*
X28727119Y-45198971D01*
G37*
G36*
X29080672Y-44845418D02*
X29540291Y-44385799D01*
X30742372Y-45587880D01*
X30282753Y-46047499D01*
X29080672Y-44845418D01*
X29080672Y-44845418D01*
G37*
G36*
X29434226Y-44491864D02*
X29893845Y-44032245D01*
X31095926Y-45234326D01*
X30636307Y-45693945D01*
X29434226Y-44491864D01*
X29434226Y-44491864D01*
G37*
G36*
X29787779Y-44138311D02*
X30247398Y-43678692D01*
X31449479Y-44880773D01*
X30989860Y-45340392D01*
X29787779Y-44138311D01*
X29787779Y-44138311D01*
G37*
G36*
X32510140Y-45340392D02*
X32050521Y-44880773D01*
X33252602Y-43678692D01*
X33712221Y-44138311D01*
X32510140Y-45340392D01*
X32510140Y-45340392D01*
G37*
G36*
X32863693Y-45693945D02*
X32404074Y-45234326D01*
X33606155Y-44032245D01*
X34065774Y-44491864D01*
X32863693Y-45693945D01*
X32863693Y-45693945D01*
G37*
G36*
X33217247Y-46047499D02*
X32757628Y-45587880D01*
X33959709Y-44385799D01*
X34419328Y-44845418D01*
X33217247Y-46047499D01*
X33217247Y-46047499D01*
G37*
G36*
X33570800Y-46401052D02*
X33111181Y-45941433D01*
X34313262Y-44739352D01*
X34772881Y-45198971D01*
X33570800Y-46401052D01*
X33570800Y-46401052D01*
G37*
G36*
X33924353Y-46754605D02*
X33464734Y-46294986D01*
X34666815Y-45092905D01*
X35126434Y-45552524D01*
X33924353Y-46754605D01*
X33924353Y-46754605D01*
G37*
G36*
X34277907Y-47108159D02*
X33818288Y-46648540D01*
X35020369Y-45446459D01*
X35479988Y-45906078D01*
X34277907Y-47108159D01*
X34277907Y-47108159D01*
G37*
G36*
X34631460Y-47461712D02*
X34171841Y-47002093D01*
X35373922Y-45800012D01*
X35833541Y-46259631D01*
X34631460Y-47461712D01*
X34631460Y-47461712D01*
G37*
G36*
X34985014Y-47815266D02*
X34525395Y-47355647D01*
X35727476Y-46153566D01*
X36187095Y-46613185D01*
X34985014Y-47815266D01*
X34985014Y-47815266D01*
G37*
G36*
X35338567Y-48168819D02*
X34878948Y-47709200D01*
X36081029Y-46507119D01*
X36540648Y-46966738D01*
X35338567Y-48168819D01*
X35338567Y-48168819D01*
G37*
G36*
X35692120Y-48522372D02*
X35232501Y-48062753D01*
X36434582Y-46860672D01*
X36894201Y-47320291D01*
X35692120Y-48522372D01*
X35692120Y-48522372D01*
G37*
G36*
X36045674Y-48875926D02*
X35586055Y-48416307D01*
X36788136Y-47214226D01*
X37247755Y-47673845D01*
X36045674Y-48875926D01*
X36045674Y-48875926D01*
G37*
G36*
X36399227Y-49229479D02*
X35939608Y-48769860D01*
X37141689Y-47567779D01*
X37601308Y-48027398D01*
X36399227Y-49229479D01*
X36399227Y-49229479D01*
G37*
G36*
X35939608Y-50290140D02*
X36399227Y-49830521D01*
X37601308Y-51032602D01*
X37141689Y-51492221D01*
X35939608Y-50290140D01*
X35939608Y-50290140D01*
G37*
G36*
X35586055Y-50643693D02*
X36045674Y-50184074D01*
X37247755Y-51386155D01*
X36788136Y-51845774D01*
X35586055Y-50643693D01*
X35586055Y-50643693D01*
G37*
G36*
X35232501Y-50997247D02*
X35692120Y-50537628D01*
X36894201Y-51739709D01*
X36434582Y-52199328D01*
X35232501Y-50997247D01*
X35232501Y-50997247D01*
G37*
G36*
X34878948Y-51350800D02*
X35338567Y-50891181D01*
X36540648Y-52093262D01*
X36081029Y-52552881D01*
X34878948Y-51350800D01*
X34878948Y-51350800D01*
G37*
G36*
X34525395Y-51704353D02*
X34985014Y-51244734D01*
X36187095Y-52446815D01*
X35727476Y-52906434D01*
X34525395Y-51704353D01*
X34525395Y-51704353D01*
G37*
G36*
X34171841Y-52057907D02*
X34631460Y-51598288D01*
X35833541Y-52800369D01*
X35373922Y-53259988D01*
X34171841Y-52057907D01*
X34171841Y-52057907D01*
G37*
G36*
X33818288Y-52411460D02*
X34277907Y-51951841D01*
X35479988Y-53153922D01*
X35020369Y-53613541D01*
X33818288Y-52411460D01*
X33818288Y-52411460D01*
G37*
G36*
X33464734Y-52765014D02*
X33924353Y-52305395D01*
X35126434Y-53507476D01*
X34666815Y-53967095D01*
X33464734Y-52765014D01*
X33464734Y-52765014D01*
G37*
G36*
X33111181Y-53118567D02*
X33570800Y-52658948D01*
X34772881Y-53861029D01*
X34313262Y-54320648D01*
X33111181Y-53118567D01*
X33111181Y-53118567D01*
G37*
G36*
X32757628Y-53472120D02*
X33217247Y-53012501D01*
X34419328Y-54214582D01*
X33959709Y-54674201D01*
X32757628Y-53472120D01*
X32757628Y-53472120D01*
G37*
G36*
X32404074Y-53825674D02*
X32863693Y-53366055D01*
X34065774Y-54568136D01*
X33606155Y-55027755D01*
X32404074Y-53825674D01*
X32404074Y-53825674D01*
G37*
G36*
X32050521Y-54179227D02*
X32510140Y-53719608D01*
X33712221Y-54921689D01*
X33252602Y-55381308D01*
X32050521Y-54179227D01*
X32050521Y-54179227D01*
G37*
D17*
X35433000Y-39530000D03*
X34163000Y-39530000D03*
X32893000Y-39530000D03*
X31623000Y-39530000D03*
X31623000Y-34130000D03*
X32893000Y-34130000D03*
X34163000Y-34130000D03*
X35433000Y-34130000D03*
D18*
X37084000Y-60452000D03*
X35584000Y-60452000D03*
X34084000Y-60452000D03*
X32584000Y-60452000D03*
X31084000Y-60452000D03*
X29584000Y-60452000D03*
D19*
X25400000Y-25400000D03*
D20*
X25400000Y-27940000D03*
D21*
X27432000Y-28078000D03*
X27432000Y-26278000D03*
D22*
X34290000Y-58674000D03*
X35560000Y-58674000D03*
X36830000Y-58674000D03*
D23*
X26416000Y-55950000D03*
X26416000Y-57150000D03*
X26416000Y-58350000D03*
D24*
X30353000Y-39530000D03*
X29083000Y-39530000D03*
X27813000Y-39530000D03*
X26543000Y-39530000D03*
X26543000Y-34130000D03*
X27813000Y-34130000D03*
X29083000Y-34130000D03*
X30353000Y-34130000D03*
D14*
X32258000Y-32512000D03*
X32258000Y-31242000D03*
X32258000Y-29972000D03*
X35306000Y-32512000D03*
X35306000Y-31242000D03*
X35306000Y-29972000D03*
X26924000Y-29972000D03*
X26924000Y-31242000D03*
X26924000Y-32512000D03*
X29210000Y-37465000D03*
X29210000Y-36195000D03*
X27178000Y-36195000D03*
X27178000Y-37465000D03*
D25*
X31258000Y-42672000D03*
X33258000Y-42672000D03*
D26*
X38354000Y-48752000D03*
X38354000Y-46752000D03*
D25*
X30750000Y-56134000D03*
X32750000Y-56134000D03*
D23*
X37338000Y-70542000D03*
X37338000Y-69342000D03*
X37338000Y-68142000D03*
D27*
X31380000Y-62230000D03*
X29580000Y-62230000D03*
D21*
X27432000Y-63638000D03*
X27432000Y-61838000D03*
D28*
X28956000Y-64262000D03*
D29*
X31496000Y-64262000D03*
X34036000Y-64262000D03*
X36576000Y-64262000D03*
D11*
X40640000Y-20320000D03*
D12*
X40640000Y-22860000D03*
X40640000Y-25400000D03*
X40640000Y-27940000D03*
X40640000Y-30480000D03*
X40640000Y-33020000D03*
X40640000Y-35560000D03*
X40640000Y-38100000D03*
X40640000Y-40640000D03*
X40640000Y-43180000D03*
X40640000Y-45720000D03*
X40640000Y-48260000D03*
X40640000Y-50800000D03*
X40640000Y-53340000D03*
X40640000Y-55880000D03*
X40640000Y-58420000D03*
X40640000Y-60960000D03*
X40640000Y-63500000D03*
X40640000Y-66040000D03*
X40640000Y-68580000D03*
X40640000Y-71120000D03*
M02*
