M48
;DRILL file {KiCad 4.0.7} date 02/19/18 11:26:29
;FORMAT={-:-/ absolute / metric / decimal}
FMAT,2
METRIC,TZ
T1C0.400
T2C0.600
T3C0.700
T4C1.000
T5C1.016
T6C3.000
%
G90
G05
M71
T1
X23.876Y-44.45
X25.146Y-61.468
X25.654Y-31.75
X25.908Y-45.72
X26.162Y-53.594
X26.162Y-56.896
X26.162Y-67.31
X26.416Y-36.068
X26.67Y-35.052
X26.924Y-32.258
X27.178Y-56.896
X27.178Y-69.85
X27.94Y-67.564
X27.94Y-69.85
X28.194Y-29.972
X28.702Y-69.85
X29.21Y-43.434
X29.464Y-47.498
X29.464Y-69.85
X29.718Y-42.672
X29.718Y-50.8
X29.718Y-51.816
X29.718Y-56.642
X29.972Y-68.58
X30.226Y-57.658
X30.226Y-59.182
X30.226Y-69.85
X30.734Y-46.228
X30.734Y-47.244
X30.734Y-54.864
X30.988Y-48.768
X30.988Y-50.292
X30.988Y-53.086
X30.988Y-69.85
X31.496Y-32.512
X31.75Y-34.798
X31.75Y-36.322
X31.75Y-37.338
X31.75Y-38.1
X31.75Y-68.326
X31.75Y-69.85
X32.258Y-42.164
X32.258Y-51.562
X32.512Y-48.768
X32.512Y-50.292
X32.512Y-69.85
X32.766Y-26.162
X32.766Y-68.326
X33.274Y-43.18
X33.528Y-46.99
X33.528Y-49.53
X33.528Y-69.596
X33.782Y-55.372
X34.163Y-39.53
X35.052Y-34.798
X35.052Y-48.514
X35.052Y-55.626
X35.052Y-57.404
X35.306Y-40.894
X35.306Y-63.246
X35.814Y-26.162
X35.814Y-67.31
X36.322Y-49.784
X37.084Y-46.228
X37.338Y-66.802
X37.973Y-50.038
T2
X32.893Y-40.513
X34.29Y-58.42
X35.306Y-69.088
X36.068Y-56.896
X37.592Y-30.734
T3
X29.584Y-60.452
X31.084Y-60.452
X32.584Y-60.452
X34.084Y-60.452
X35.584Y-60.452
X37.084Y-60.452
T4
X29.33Y-27.94
X31.83Y-27.94
X34.33Y-27.94
X36.83Y-27.94
T5
X22.86Y-20.32
X22.86Y-22.86
X22.86Y-25.4
X22.86Y-27.94
X22.86Y-30.48
X22.86Y-33.02
X22.86Y-35.56
X22.86Y-38.1
X22.86Y-40.64
X22.86Y-43.18
X22.86Y-45.72
X22.86Y-48.26
X22.86Y-50.8
X22.86Y-53.34
X22.86Y-55.88
X22.86Y-58.42
X22.86Y-60.96
X22.86Y-63.5
X22.86Y-66.04
X22.86Y-68.58
X22.86Y-71.12
X25.4Y-25.4
X25.4Y-27.94
X28.956Y-64.262
X31.496Y-64.262
X34.036Y-64.262
X36.576Y-64.262
X40.64Y-20.32
X40.64Y-22.86
X40.64Y-25.4
X40.64Y-27.94
X40.64Y-30.48
X40.64Y-33.02
X40.64Y-35.56
X40.64Y-38.1
X40.64Y-40.64
X40.64Y-43.18
X40.64Y-45.72
X40.64Y-48.26
X40.64Y-50.8
X40.64Y-53.34
X40.64Y-55.88
X40.64Y-58.42
X40.64Y-60.96
X40.64Y-63.5
X40.64Y-66.04
X40.64Y-68.58
X40.64Y-71.12
T6
X33.08Y-21.44
T0
M30
