G04 #@! TF.FileFunction,Copper,L1,Top,Signal*
%FSLAX46Y46*%
G04 Gerber Fmt 4.6, Leading zero omitted, Abs format (unit mm)*
G04 Created by KiCad (PCBNEW 4.0.7) date 02/16/18 18:05:03*
%MOMM*%
%LPD*%
G01*
G04 APERTURE LIST*
%ADD10C,0.100000*%
%ADD11R,2.032000X1.727200*%
%ADD12O,2.032000X1.727200*%
%ADD13O,1.500000X2.500000*%
%ADD14C,3.000000*%
%ADD15R,0.800000X1.000000*%
%ADD16R,1.000000X0.800000*%
%ADD17O,1.000000X1.524000*%
%ADD18R,2.032000X2.032000*%
%ADD19O,2.032000X2.032000*%
%ADD20R,0.797560X0.797560*%
%ADD21R,1.501140X1.000760*%
%ADD22R,2.999740X1.998980*%
%ADD23R,3.048000X1.651000*%
%ADD24R,6.096000X6.096000*%
%ADD25R,1.400000X1.800000*%
%ADD26R,1.800000X1.400000*%
%ADD27R,0.600000X1.000000*%
%ADD28R,2.600000X1.500000*%
%ADD29R,2.029460X1.651000*%
%ADD30R,0.400000X1.350000*%
%ADD31R,2.100000X1.600000*%
%ADD32R,1.900000X1.900000*%
%ADD33R,1.500000X1.800000*%
%ADD34O,1.500000X1.800000*%
%ADD35C,0.600000*%
%ADD36C,0.800000*%
%ADD37C,0.250000*%
%ADD38C,0.800000*%
%ADD39C,0.500000*%
%ADD40C,0.026000*%
G04 APERTURE END LIST*
D10*
D11*
X22860000Y-71120000D03*
D12*
X22860000Y-68580000D03*
X22860000Y-66040000D03*
X22860000Y-63500000D03*
X22860000Y-60960000D03*
X22860000Y-58420000D03*
X22860000Y-55880000D03*
X22860000Y-53340000D03*
X22860000Y-50800000D03*
X22860000Y-48260000D03*
X22860000Y-45720000D03*
X22860000Y-43180000D03*
X22860000Y-40640000D03*
X22860000Y-38100000D03*
X22860000Y-35560000D03*
X22860000Y-33020000D03*
X22860000Y-30480000D03*
X22860000Y-27940000D03*
X22860000Y-25400000D03*
X22860000Y-22860000D03*
X22860000Y-20320000D03*
D13*
X36830000Y-27940000D03*
X34330000Y-27940000D03*
X31830000Y-27940000D03*
X29330000Y-27940000D03*
D14*
X33080000Y-21440000D03*
D15*
X31126000Y-54864000D03*
X29326000Y-54864000D03*
X34174000Y-54864000D03*
X32374000Y-54864000D03*
D16*
X34290000Y-45858000D03*
X34290000Y-44058000D03*
D15*
X32374000Y-56642000D03*
X34174000Y-56642000D03*
D17*
X37084000Y-60452000D03*
X35584000Y-60452000D03*
X34084000Y-60452000D03*
X32584000Y-60452000D03*
X31084000Y-60452000D03*
X29584000Y-60452000D03*
D18*
X25400000Y-25400000D03*
D19*
X25400000Y-27940000D03*
D20*
X35814000Y-44208700D03*
X35814000Y-45707300D03*
X29476700Y-56642000D03*
X30975300Y-56642000D03*
D21*
X28374340Y-39138860D03*
X28374340Y-40640000D03*
X28374340Y-42141140D03*
D22*
X31325820Y-40640000D03*
D10*
G36*
X29851350Y-41640760D02*
X29102050Y-41140380D01*
X29102050Y-40139620D01*
X29851350Y-39639240D01*
X29851350Y-41640760D01*
X29851350Y-41640760D01*
G37*
D23*
X29464000Y-32766000D03*
D24*
X35814000Y-35052000D03*
D23*
X29464000Y-37338000D03*
D25*
X32944000Y-30480000D03*
X36144000Y-30480000D03*
D26*
X26162000Y-42494000D03*
X26162000Y-39294000D03*
X35560000Y-42494000D03*
X35560000Y-39294000D03*
D27*
X32020000Y-48768000D03*
X34020000Y-48768000D03*
D28*
X34296000Y-52324000D03*
X28696000Y-52324000D03*
D29*
X26416000Y-63052960D03*
X26416000Y-59883040D03*
D30*
X30449100Y-67017460D03*
X31099100Y-67017460D03*
X31749100Y-67017460D03*
X32399100Y-67017460D03*
X33049100Y-67017460D03*
D31*
X28750000Y-67080000D03*
D32*
X28250000Y-69580000D03*
X35250000Y-69580000D03*
D31*
X34750000Y-67080000D03*
D33*
X28956000Y-64262000D03*
D34*
X31496000Y-64262000D03*
X34036000Y-64262000D03*
X36576000Y-64262000D03*
D11*
X40640000Y-20320000D03*
D12*
X40640000Y-22860000D03*
X40640000Y-25400000D03*
X40640000Y-27940000D03*
X40640000Y-30480000D03*
X40640000Y-33020000D03*
X40640000Y-35560000D03*
X40640000Y-38100000D03*
X40640000Y-40640000D03*
X40640000Y-43180000D03*
X40640000Y-45720000D03*
X40640000Y-48260000D03*
X40640000Y-50800000D03*
X40640000Y-53340000D03*
X40640000Y-55880000D03*
X40640000Y-58420000D03*
X40640000Y-60960000D03*
X40640000Y-63500000D03*
X40640000Y-66040000D03*
X40640000Y-68580000D03*
X40640000Y-71120000D03*
D20*
X26174700Y-45466000D03*
X27673300Y-45466000D03*
X26174700Y-48514000D03*
X27673300Y-48514000D03*
D15*
X27824000Y-46990000D03*
X26024000Y-46990000D03*
X27824000Y-50038000D03*
X26024000Y-50038000D03*
D35*
X35052000Y-55626000D03*
X33782000Y-55372000D03*
X29464000Y-47498000D03*
X35814000Y-67310000D03*
X27940000Y-67564000D03*
X27178000Y-69850000D03*
X27940000Y-69850000D03*
X32512000Y-69850000D03*
X31750000Y-69850000D03*
X30988000Y-69850000D03*
X30226000Y-69850000D03*
X29464000Y-69850000D03*
X28702000Y-69850000D03*
D36*
X35306000Y-69088000D03*
D35*
X26162000Y-67310000D03*
X26162000Y-53594000D03*
X37973000Y-50038000D03*
X31750000Y-37338000D03*
X31750000Y-38100000D03*
X27178000Y-56896000D03*
X26162000Y-56896000D03*
X34163000Y-39530000D03*
X33274000Y-43180000D03*
X35052000Y-34798000D03*
X31750000Y-34798000D03*
X26670000Y-35052000D03*
X33528000Y-49530000D03*
X30226000Y-57658000D03*
X30226000Y-59182000D03*
X35306000Y-63246000D03*
X37338000Y-66802000D03*
X29718000Y-51816000D03*
X30988000Y-50292000D03*
D36*
X32893000Y-40513000D03*
X37592000Y-30734000D03*
D35*
X30734000Y-54864000D03*
D36*
X36068000Y-56896000D03*
D35*
X32512000Y-48768000D03*
X32512000Y-50292000D03*
X30988000Y-48768000D03*
X29718000Y-56642000D03*
X32258000Y-51562000D03*
X33528000Y-69596000D03*
X32258000Y-42164000D03*
X33528000Y-46990000D03*
X37084000Y-46228000D03*
X35306000Y-40894000D03*
X35052000Y-48514000D03*
X36322000Y-49784000D03*
X35052000Y-57404000D03*
X23876000Y-44450000D03*
X25146000Y-61468000D03*
X25908000Y-45720000D03*
X30988000Y-53086000D03*
X29718000Y-50800000D03*
X30734000Y-46228000D03*
X29210000Y-43434000D03*
D36*
X34290000Y-58420000D03*
D35*
X29718000Y-42672000D03*
X30734000Y-47244000D03*
X26416000Y-36068000D03*
X31750000Y-36322000D03*
X25654000Y-31750000D03*
X31496000Y-32512000D03*
X32766000Y-26162000D03*
X35814000Y-26162000D03*
X26924000Y-32258000D03*
X28194000Y-29972000D03*
X32766000Y-68326000D03*
X31750000Y-68326000D03*
X29972000Y-68580000D03*
D37*
X34798000Y-55372000D02*
X35052000Y-55626000D01*
X33782000Y-55372000D02*
X34798000Y-55372000D01*
X26024000Y-50038000D02*
X26024000Y-53456000D01*
X26024000Y-53456000D02*
X26162000Y-53594000D01*
X26024000Y-46990000D02*
X26670000Y-46990000D01*
X28702000Y-46736000D02*
X29464000Y-47498000D01*
X28702000Y-44958000D02*
X28702000Y-46736000D01*
X28194000Y-44450000D02*
X28702000Y-44958000D01*
X27178000Y-44450000D02*
X28194000Y-44450000D01*
X26924000Y-44704000D02*
X27178000Y-44450000D01*
X26924000Y-46736000D02*
X26924000Y-44704000D01*
X26670000Y-46990000D02*
X26924000Y-46736000D01*
D38*
X22860000Y-20320000D02*
X26670000Y-20320000D01*
X26670000Y-20320000D02*
X30734000Y-24384000D01*
X36068000Y-24384000D02*
X36830000Y-25146000D01*
X36830000Y-25146000D02*
X36830000Y-27940000D01*
X30734000Y-24384000D02*
X36068000Y-24384000D01*
D37*
X34174000Y-54864000D02*
X34296000Y-54742000D01*
X34296000Y-54742000D02*
X34296000Y-52324000D01*
X34174000Y-56642000D02*
X34174000Y-54864000D01*
X34750000Y-67080000D02*
X34980000Y-67310000D01*
X34980000Y-67310000D02*
X35814000Y-67310000D01*
X27940000Y-67564000D02*
X28266000Y-67564000D01*
X28266000Y-67564000D02*
X28750000Y-67080000D01*
X27940000Y-69850000D02*
X28210000Y-69580000D01*
X28210000Y-69580000D02*
X28250000Y-69580000D01*
X31750000Y-69850000D02*
X30988000Y-69850000D01*
X30226000Y-69850000D02*
X29464000Y-69850000D01*
X32512000Y-69580000D02*
X32512000Y-69850000D01*
X28702000Y-69850000D02*
X28432000Y-69580000D01*
X28432000Y-69580000D02*
X28250000Y-69580000D01*
X28250000Y-69580000D02*
X32512000Y-69580000D01*
X32512000Y-69580000D02*
X32528000Y-69580000D01*
X33274000Y-68834000D02*
X34504000Y-68834000D01*
X32528000Y-69580000D02*
X33274000Y-68834000D01*
X34504000Y-68834000D02*
X35250000Y-69580000D01*
D39*
X28250000Y-69580000D02*
X28250000Y-67580000D01*
X28250000Y-67580000D02*
X28750000Y-67080000D01*
X35250000Y-69580000D02*
X35250000Y-67580000D01*
X35250000Y-67580000D02*
X34750000Y-67080000D01*
X35306000Y-69088000D02*
X35250000Y-69144000D01*
X35250000Y-69144000D02*
X35250000Y-69580000D01*
D37*
X28448000Y-69778000D02*
X28250000Y-69580000D01*
X26392000Y-67080000D02*
X28750000Y-67080000D01*
X26162000Y-67310000D02*
X26392000Y-67080000D01*
X28250000Y-67580000D02*
X28750000Y-67080000D01*
X34750000Y-67080000D02*
X33111640Y-67080000D01*
X33111640Y-67080000D02*
X33049100Y-67017460D01*
X35250000Y-67580000D02*
X34750000Y-67080000D01*
X31496000Y-64262000D02*
X33049100Y-65815100D01*
X33049100Y-65815100D02*
X33049100Y-67017460D01*
X26162000Y-53594000D02*
X26162000Y-56896000D01*
X35052000Y-67056000D02*
X35234000Y-67056000D01*
X35234000Y-67056000D02*
X35250000Y-67040000D01*
X31750000Y-39116000D02*
X31750000Y-38100000D01*
X34428000Y-54610000D02*
X34428000Y-54980000D01*
D39*
X34020000Y-48768000D02*
X33528000Y-48768000D01*
D37*
X27178000Y-56896000D02*
X26162000Y-56896000D01*
D39*
X37973000Y-47244000D02*
X37973000Y-50038000D01*
X37973000Y-50038000D02*
X37973000Y-59563000D01*
X37973000Y-59563000D02*
X37084000Y-60452000D01*
D37*
X34163000Y-39243000D02*
X34036000Y-39116000D01*
X34163000Y-39530000D02*
X34163000Y-39243000D01*
D39*
X35560000Y-39294000D02*
X35382000Y-39116000D01*
X35382000Y-39116000D02*
X34036000Y-39116000D01*
X34036000Y-39116000D02*
X31750000Y-39116000D01*
X31750000Y-39116000D02*
X28397200Y-39116000D01*
X28397200Y-39116000D02*
X28374340Y-39138860D01*
X35560000Y-39294000D02*
X35560000Y-35306000D01*
X35560000Y-35306000D02*
X35814000Y-35052000D01*
D37*
X34152000Y-44058000D02*
X33274000Y-43180000D01*
D39*
X36576000Y-39294000D02*
X36398000Y-39116000D01*
X28397200Y-39116000D02*
X28374340Y-39138860D01*
X36576000Y-39294000D02*
X37973000Y-39294000D01*
X37846000Y-39370000D02*
X37973000Y-39370000D01*
X37897000Y-39370000D02*
X37846000Y-39370000D01*
X37973000Y-39294000D02*
X37897000Y-39370000D01*
D37*
X35052000Y-34798000D02*
X35560000Y-34798000D01*
X35560000Y-34798000D02*
X35814000Y-35052000D01*
X31750000Y-34798000D02*
X32004000Y-35052000D01*
X31496000Y-35052000D02*
X26670000Y-35052000D01*
X31750000Y-34798000D02*
X31496000Y-35052000D01*
X32004000Y-35052000D02*
X35814000Y-35052000D01*
D39*
X28374340Y-39138860D02*
X26317140Y-39138860D01*
X26317140Y-39138860D02*
X26162000Y-39294000D01*
X37973000Y-47244000D02*
X34544000Y-47244000D01*
X33528000Y-48260000D02*
X33528000Y-48768000D01*
X33528000Y-48768000D02*
X33528000Y-49530000D01*
X34544000Y-47244000D02*
X33528000Y-48260000D01*
X36144000Y-30480000D02*
X36144000Y-34722000D01*
X37973000Y-37211000D02*
X37973000Y-39370000D01*
X37973000Y-39370000D02*
X37973000Y-44450000D01*
X37973000Y-44450000D02*
X37973000Y-47244000D01*
X35814000Y-35052000D02*
X37973000Y-37211000D01*
X35814000Y-35052000D02*
X37846000Y-37084000D01*
X35560000Y-35306000D02*
X35814000Y-35052000D01*
D38*
X36144000Y-34722000D02*
X35814000Y-35052000D01*
X36830000Y-27940000D02*
X36830000Y-29794000D01*
X36830000Y-29794000D02*
X36144000Y-30480000D01*
X34544000Y-35306000D02*
X34798000Y-35052000D01*
D39*
X28219200Y-39294000D02*
X28374340Y-39138860D01*
X34290000Y-35560000D02*
X34798000Y-35052000D01*
D37*
X34428000Y-52346000D02*
X34450000Y-52324000D01*
X28448000Y-55742000D02*
X29326000Y-54864000D01*
X28448000Y-57404000D02*
X28448000Y-55742000D01*
X28702000Y-57658000D02*
X28448000Y-57404000D01*
X30226000Y-57658000D02*
X28702000Y-57658000D01*
X34798000Y-62738000D02*
X35306000Y-63246000D01*
X29210000Y-59182000D02*
X28702000Y-59690000D01*
X28702000Y-59690000D02*
X28702000Y-61214000D01*
X28702000Y-61214000D02*
X29210000Y-61722000D01*
X30988000Y-62738000D02*
X34798000Y-62738000D01*
X30226000Y-59182000D02*
X29210000Y-59182000D01*
X29972000Y-61722000D02*
X30988000Y-62738000D01*
X29210000Y-61722000D02*
X29972000Y-61722000D01*
X37338000Y-66802000D02*
X39116000Y-68580000D01*
X39116000Y-68580000D02*
X40640000Y-68580000D01*
X29326000Y-54864000D02*
X29326000Y-52954000D01*
X29326000Y-52954000D02*
X28696000Y-52324000D01*
X28696000Y-52324000D02*
X28818000Y-52446000D01*
X29718000Y-51816000D02*
X29558000Y-51816000D01*
X29558000Y-51816000D02*
X29050000Y-52324000D01*
D38*
X29464000Y-32766000D02*
X29464000Y-32258000D01*
X29464000Y-32258000D02*
X31242000Y-30480000D01*
X31242000Y-30480000D02*
X32944000Y-30480000D01*
X32944000Y-30480000D02*
X32944000Y-29326000D01*
X32944000Y-29326000D02*
X34330000Y-27940000D01*
D39*
X30988000Y-50292000D02*
X30988000Y-48768000D01*
X32893000Y-40513000D02*
X32766000Y-40640000D01*
X32766000Y-40640000D02*
X31325820Y-40640000D01*
X38100000Y-30226000D02*
X38100000Y-22860000D01*
X37592000Y-30734000D02*
X38100000Y-30226000D01*
X38100000Y-22860000D02*
X40640000Y-20320000D01*
D37*
X30734000Y-54864000D02*
X31126000Y-54864000D01*
D39*
X28374340Y-40640000D02*
X29476700Y-40640000D01*
X29476700Y-40640000D02*
X31325820Y-40640000D01*
X32020000Y-48768000D02*
X32512000Y-48768000D01*
X30988000Y-48768000D02*
X32020000Y-48768000D01*
X35052000Y-50292000D02*
X36068000Y-51308000D01*
X36068000Y-51308000D02*
X36068000Y-56896000D01*
X32512000Y-50292000D02*
X35052000Y-50292000D01*
X35560000Y-42494000D02*
X34874000Y-42494000D01*
X34874000Y-42494000D02*
X33020000Y-40640000D01*
D37*
X35814000Y-44208700D02*
X35814000Y-42748000D01*
X35814000Y-42748000D02*
X35560000Y-42494000D01*
D39*
X31325820Y-40640000D02*
X32004000Y-40640000D01*
X31325820Y-40640000D02*
X32087820Y-39878000D01*
X31325820Y-40640000D02*
X31325820Y-43263820D01*
X31325820Y-43263820D02*
X32512000Y-44450000D01*
X32512000Y-48768000D02*
X32512000Y-44450000D01*
X32512000Y-48768000D02*
X32512000Y-50292000D01*
X31325820Y-40640000D02*
X33020000Y-40640000D01*
D37*
X35814000Y-45707300D02*
X34440700Y-45707300D01*
X34440700Y-45707300D02*
X34290000Y-45858000D01*
X30975300Y-56642000D02*
X32374000Y-56642000D01*
X23114000Y-68834000D02*
X22860000Y-68580000D01*
X23355300Y-69075300D02*
X22860000Y-68580000D01*
X29718000Y-56642000D02*
X29476700Y-56642000D01*
X32512000Y-51816000D02*
X32512000Y-54726000D01*
X32258000Y-51562000D02*
X32512000Y-51816000D01*
X32512000Y-54726000D02*
X32374000Y-54864000D01*
X33528000Y-70612000D02*
X34036000Y-71120000D01*
X33528000Y-69596000D02*
X33528000Y-70612000D01*
X36576000Y-64262000D02*
X36576000Y-70866000D01*
X36576000Y-70866000D02*
X36322000Y-71120000D01*
X36322000Y-71120000D02*
X34036000Y-71120000D01*
X31084000Y-60452000D02*
X32354000Y-61722000D01*
X38608000Y-40132000D02*
X40640000Y-38100000D01*
X38608000Y-60706000D02*
X38608000Y-40132000D01*
X37592000Y-61722000D02*
X38608000Y-60706000D01*
X32354000Y-61722000D02*
X37592000Y-61722000D01*
X39116000Y-42164000D02*
X39116000Y-60960000D01*
X40640000Y-40640000D02*
X39116000Y-42164000D01*
X31362000Y-62230000D02*
X29584000Y-60452000D01*
X37846000Y-62230000D02*
X31362000Y-62230000D01*
X39116000Y-60960000D02*
X37846000Y-62230000D01*
X33274000Y-44196000D02*
X32258000Y-43180000D01*
X32258000Y-43180000D02*
X32258000Y-42164000D01*
X33274000Y-46736000D02*
X33274000Y-44196000D01*
X33528000Y-46990000D02*
X33274000Y-46736000D01*
X37338000Y-45974000D02*
X37084000Y-46228000D01*
X37338000Y-41656000D02*
X37338000Y-45974000D01*
X36576000Y-40894000D02*
X37338000Y-41656000D01*
X35306000Y-40894000D02*
X36576000Y-40894000D01*
X36449000Y-59309000D02*
X33727000Y-59309000D01*
X36576000Y-48514000D02*
X37338000Y-49276000D01*
X35052000Y-48514000D02*
X36576000Y-48514000D01*
X37338000Y-58420000D02*
X36449000Y-59309000D01*
X37338000Y-49276000D02*
X37338000Y-58420000D01*
X33727000Y-59309000D02*
X32584000Y-60452000D01*
X36322000Y-49784000D02*
X36830000Y-50292000D01*
X36830000Y-57404000D02*
X36830000Y-50292000D01*
X36322000Y-57912000D02*
X36830000Y-57404000D01*
X35560000Y-57912000D02*
X36322000Y-57912000D01*
X35052000Y-57404000D02*
X35560000Y-57912000D01*
X25146000Y-61468000D02*
X24384000Y-60706000D01*
X24384000Y-60706000D02*
X24384000Y-44958000D01*
X23876000Y-44450000D02*
X24384000Y-44958000D01*
X25908000Y-45720000D02*
X25920700Y-45720000D01*
X25920700Y-45720000D02*
X26174700Y-45466000D01*
X29718000Y-50800000D02*
X29464000Y-51054000D01*
X26924000Y-49263300D02*
X26174700Y-48514000D01*
X26924000Y-50800000D02*
X26924000Y-49263300D01*
X27178000Y-51054000D02*
X26924000Y-50800000D01*
X29464000Y-51054000D02*
X27178000Y-51054000D01*
X30734000Y-44958000D02*
X30734000Y-46228000D01*
X29210000Y-43434000D02*
X30734000Y-44958000D01*
D39*
X25146000Y-57912000D02*
X25146000Y-44704000D01*
X26162000Y-43688000D02*
X26162000Y-42494000D01*
X25146000Y-44704000D02*
X26162000Y-43688000D01*
D38*
X22860000Y-22860000D02*
X26162000Y-22860000D01*
X27178000Y-23876000D02*
X26162000Y-22860000D01*
X27178000Y-28702000D02*
X27178000Y-23876000D01*
X24638000Y-31242000D02*
X27178000Y-28702000D01*
X24638000Y-32512000D02*
X24638000Y-31242000D01*
X24638000Y-32512000D02*
X24638000Y-37338000D01*
D39*
X28956000Y-64262000D02*
X28956000Y-62423040D01*
X28956000Y-62423040D02*
X26416000Y-59883040D01*
X25146000Y-57912000D02*
X25654000Y-58420000D01*
X25654000Y-58420000D02*
X26416000Y-58420000D01*
X26416000Y-59883040D02*
X26416000Y-58420000D01*
X26416000Y-58420000D02*
X34290000Y-58420000D01*
X26162000Y-42494000D02*
X26514860Y-42141140D01*
X26514860Y-42141140D02*
X28374340Y-42141140D01*
D38*
X29464000Y-37338000D02*
X24638000Y-37338000D01*
X24638000Y-42418000D02*
X26086000Y-42418000D01*
X26086000Y-42418000D02*
X26162000Y-42494000D01*
X24638000Y-37338000D02*
X24638000Y-42418000D01*
D37*
X31496000Y-44450000D02*
X29718000Y-42672000D01*
X31496000Y-46482000D02*
X31496000Y-44450000D01*
X30734000Y-47244000D02*
X31496000Y-46482000D01*
X26416000Y-36068000D02*
X26670000Y-35814000D01*
X26670000Y-35814000D02*
X31242000Y-35814000D01*
X31242000Y-35814000D02*
X31750000Y-36322000D01*
X26162000Y-34290000D02*
X25654000Y-33782000D01*
X25654000Y-33782000D02*
X25654000Y-31750000D01*
X30988000Y-34290000D02*
X26162000Y-34290000D01*
X31496000Y-33782000D02*
X30988000Y-34290000D01*
X31496000Y-33782000D02*
X31496000Y-32512000D01*
X28448000Y-26162000D02*
X32766000Y-26162000D01*
X32766000Y-26162000D02*
X35814000Y-26162000D01*
X27940000Y-26670000D02*
X28448000Y-26162000D01*
X27940000Y-29210000D02*
X27940000Y-26670000D01*
X26924000Y-32258000D02*
X26924000Y-30226000D01*
X26924000Y-30226000D02*
X27940000Y-29210000D01*
X29798000Y-29972000D02*
X31830000Y-27940000D01*
X28194000Y-29972000D02*
X29798000Y-29972000D01*
X31830000Y-27940000D02*
X31750000Y-27940000D01*
X31496000Y-69088000D02*
X32004000Y-69088000D01*
X32004000Y-69088000D02*
X32766000Y-68326000D01*
X31099100Y-68691100D02*
X31099100Y-67017460D01*
X31496000Y-69088000D02*
X31099100Y-68691100D01*
X31749100Y-68325100D02*
X31749100Y-67017460D01*
X31750000Y-68326000D02*
X31749100Y-68325100D01*
D39*
X26416000Y-65024000D02*
X25146000Y-66294000D01*
X24638000Y-71120000D02*
X22860000Y-71120000D01*
X25146000Y-70612000D02*
X24638000Y-71120000D01*
X25146000Y-66294000D02*
X25146000Y-70612000D01*
D37*
X30449100Y-67017460D02*
X30449100Y-68102900D01*
X30449100Y-68102900D02*
X29972000Y-68580000D01*
X30449100Y-67017460D02*
X30449100Y-66263100D01*
D39*
X26416000Y-65024000D02*
X26416000Y-63052960D01*
X27178000Y-65786000D02*
X26416000Y-65024000D01*
X29972000Y-65786000D02*
X27178000Y-65786000D01*
D37*
X30449100Y-66263100D02*
X29972000Y-65786000D01*
X25908000Y-63560960D02*
X26416000Y-63052960D01*
X27673300Y-45466000D02*
X27673300Y-46839300D01*
X27673300Y-46839300D02*
X27824000Y-46990000D01*
X27673300Y-48514000D02*
X27673300Y-49887300D01*
X27673300Y-49887300D02*
X27824000Y-50038000D01*
D40*
G36*
X26744544Y-66219457D02*
X26943415Y-66352338D01*
X27178000Y-66399000D01*
X27179000Y-66399000D01*
X27179000Y-66708750D01*
X27309250Y-66839000D01*
X28509000Y-66839000D01*
X28509000Y-66819000D01*
X28991000Y-66819000D01*
X28991000Y-66839000D01*
X29011000Y-66839000D01*
X29011000Y-67321000D01*
X28991000Y-67321000D01*
X28991000Y-67341000D01*
X28509000Y-67341000D01*
X28509000Y-67321000D01*
X27309250Y-67321000D01*
X27179000Y-67451250D01*
X27179000Y-67983634D01*
X27230929Y-68109000D01*
X27196367Y-68109000D01*
X27004878Y-68188317D01*
X26858318Y-68334877D01*
X26779000Y-68526366D01*
X26779000Y-69208750D01*
X26909250Y-69339000D01*
X28009000Y-69339000D01*
X28009000Y-69319000D01*
X28491000Y-69319000D01*
X28491000Y-69339000D01*
X29590750Y-69339000D01*
X29721000Y-69208750D01*
X29721000Y-69193661D01*
X29839543Y-69242885D01*
X30103300Y-69243115D01*
X30347069Y-69142392D01*
X30533736Y-68956050D01*
X30621676Y-68744268D01*
X30648247Y-68877850D01*
X30722592Y-68989115D01*
X30754032Y-69036168D01*
X31150932Y-69433068D01*
X31309250Y-69538853D01*
X31496000Y-69576000D01*
X32004000Y-69576000D01*
X32190750Y-69538853D01*
X32349068Y-69433068D01*
X32793112Y-68989024D01*
X32897300Y-68989115D01*
X33141069Y-68888392D01*
X33327736Y-68702050D01*
X33428885Y-68458457D01*
X33428996Y-68331673D01*
X33596367Y-68401000D01*
X33830929Y-68401000D01*
X33779000Y-68526366D01*
X33779000Y-68982339D01*
X33660457Y-68933115D01*
X33396700Y-68932885D01*
X33152931Y-69033608D01*
X32966264Y-69219950D01*
X32865115Y-69463543D01*
X32864885Y-69727300D01*
X32965608Y-69971069D01*
X33040000Y-70045591D01*
X33040000Y-70612000D01*
X33077147Y-70798750D01*
X33135055Y-70885415D01*
X33182932Y-70957068D01*
X33690932Y-71465068D01*
X33849250Y-71570853D01*
X34036000Y-71608000D01*
X36322000Y-71608000D01*
X36508750Y-71570853D01*
X36667068Y-71465068D01*
X36921068Y-71211068D01*
X37026853Y-71052750D01*
X37064000Y-70866000D01*
X37064000Y-67406111D01*
X37205543Y-67464885D01*
X37310841Y-67464977D01*
X38770932Y-68925068D01*
X38929251Y-69030854D01*
X39116000Y-69068000D01*
X39339782Y-69068000D01*
X39593247Y-69447337D01*
X39991185Y-69713231D01*
X40398998Y-69794350D01*
X40398998Y-69873374D01*
X40184700Y-69773937D01*
X39692641Y-69992315D01*
X39321607Y-70382373D01*
X39178622Y-70668674D01*
X39256620Y-70879000D01*
X40399000Y-70879000D01*
X40399000Y-70859000D01*
X40881000Y-70859000D01*
X40881000Y-70879000D01*
X40901000Y-70879000D01*
X40901000Y-71361000D01*
X40881000Y-71361000D01*
X40881000Y-71381000D01*
X40399000Y-71381000D01*
X40399000Y-71361000D01*
X39256620Y-71361000D01*
X39178622Y-71571326D01*
X39321607Y-71857627D01*
X39411377Y-71952000D01*
X24246111Y-71952000D01*
X24246111Y-71733000D01*
X24638000Y-71733000D01*
X24872585Y-71686338D01*
X25071456Y-71553456D01*
X25579456Y-71045457D01*
X25712338Y-70846585D01*
X25721853Y-70798749D01*
X25759000Y-70612000D01*
X25759000Y-69951250D01*
X26779000Y-69951250D01*
X26779000Y-70633634D01*
X26858318Y-70825123D01*
X27004878Y-70971683D01*
X27196367Y-71051000D01*
X27878750Y-71051000D01*
X28009000Y-70920750D01*
X28009000Y-69821000D01*
X28491000Y-69821000D01*
X28491000Y-70920750D01*
X28621250Y-71051000D01*
X29303633Y-71051000D01*
X29495122Y-70971683D01*
X29641682Y-70825123D01*
X29721000Y-70633634D01*
X29721000Y-69951250D01*
X29590750Y-69821000D01*
X28491000Y-69821000D01*
X28009000Y-69821000D01*
X26909250Y-69821000D01*
X26779000Y-69951250D01*
X25759000Y-69951250D01*
X25759000Y-66547912D01*
X26416000Y-65890913D01*
X26744544Y-66219457D01*
X26744544Y-66219457D01*
G37*
X26744544Y-66219457D02*
X26943415Y-66352338D01*
X27178000Y-66399000D01*
X27179000Y-66399000D01*
X27179000Y-66708750D01*
X27309250Y-66839000D01*
X28509000Y-66839000D01*
X28509000Y-66819000D01*
X28991000Y-66819000D01*
X28991000Y-66839000D01*
X29011000Y-66839000D01*
X29011000Y-67321000D01*
X28991000Y-67321000D01*
X28991000Y-67341000D01*
X28509000Y-67341000D01*
X28509000Y-67321000D01*
X27309250Y-67321000D01*
X27179000Y-67451250D01*
X27179000Y-67983634D01*
X27230929Y-68109000D01*
X27196367Y-68109000D01*
X27004878Y-68188317D01*
X26858318Y-68334877D01*
X26779000Y-68526366D01*
X26779000Y-69208750D01*
X26909250Y-69339000D01*
X28009000Y-69339000D01*
X28009000Y-69319000D01*
X28491000Y-69319000D01*
X28491000Y-69339000D01*
X29590750Y-69339000D01*
X29721000Y-69208750D01*
X29721000Y-69193661D01*
X29839543Y-69242885D01*
X30103300Y-69243115D01*
X30347069Y-69142392D01*
X30533736Y-68956050D01*
X30621676Y-68744268D01*
X30648247Y-68877850D01*
X30722592Y-68989115D01*
X30754032Y-69036168D01*
X31150932Y-69433068D01*
X31309250Y-69538853D01*
X31496000Y-69576000D01*
X32004000Y-69576000D01*
X32190750Y-69538853D01*
X32349068Y-69433068D01*
X32793112Y-68989024D01*
X32897300Y-68989115D01*
X33141069Y-68888392D01*
X33327736Y-68702050D01*
X33428885Y-68458457D01*
X33428996Y-68331673D01*
X33596367Y-68401000D01*
X33830929Y-68401000D01*
X33779000Y-68526366D01*
X33779000Y-68982339D01*
X33660457Y-68933115D01*
X33396700Y-68932885D01*
X33152931Y-69033608D01*
X32966264Y-69219950D01*
X32865115Y-69463543D01*
X32864885Y-69727300D01*
X32965608Y-69971069D01*
X33040000Y-70045591D01*
X33040000Y-70612000D01*
X33077147Y-70798750D01*
X33135055Y-70885415D01*
X33182932Y-70957068D01*
X33690932Y-71465068D01*
X33849250Y-71570853D01*
X34036000Y-71608000D01*
X36322000Y-71608000D01*
X36508750Y-71570853D01*
X36667068Y-71465068D01*
X36921068Y-71211068D01*
X37026853Y-71052750D01*
X37064000Y-70866000D01*
X37064000Y-67406111D01*
X37205543Y-67464885D01*
X37310841Y-67464977D01*
X38770932Y-68925068D01*
X38929251Y-69030854D01*
X39116000Y-69068000D01*
X39339782Y-69068000D01*
X39593247Y-69447337D01*
X39991185Y-69713231D01*
X40398998Y-69794350D01*
X40398998Y-69873374D01*
X40184700Y-69773937D01*
X39692641Y-69992315D01*
X39321607Y-70382373D01*
X39178622Y-70668674D01*
X39256620Y-70879000D01*
X40399000Y-70879000D01*
X40399000Y-70859000D01*
X40881000Y-70859000D01*
X40881000Y-70879000D01*
X40901000Y-70879000D01*
X40901000Y-71361000D01*
X40881000Y-71361000D01*
X40881000Y-71381000D01*
X40399000Y-71381000D01*
X40399000Y-71361000D01*
X39256620Y-71361000D01*
X39178622Y-71571326D01*
X39321607Y-71857627D01*
X39411377Y-71952000D01*
X24246111Y-71952000D01*
X24246111Y-71733000D01*
X24638000Y-71733000D01*
X24872585Y-71686338D01*
X25071456Y-71553456D01*
X25579456Y-71045457D01*
X25712338Y-70846585D01*
X25721853Y-70798749D01*
X25759000Y-70612000D01*
X25759000Y-69951250D01*
X26779000Y-69951250D01*
X26779000Y-70633634D01*
X26858318Y-70825123D01*
X27004878Y-70971683D01*
X27196367Y-71051000D01*
X27878750Y-71051000D01*
X28009000Y-70920750D01*
X28009000Y-69821000D01*
X28491000Y-69821000D01*
X28491000Y-70920750D01*
X28621250Y-71051000D01*
X29303633Y-71051000D01*
X29495122Y-70971683D01*
X29641682Y-70825123D01*
X29721000Y-70633634D01*
X29721000Y-69951250D01*
X29590750Y-69821000D01*
X28491000Y-69821000D01*
X28009000Y-69821000D01*
X26909250Y-69821000D01*
X26779000Y-69951250D01*
X25759000Y-69951250D01*
X25759000Y-66547912D01*
X26416000Y-65890913D01*
X26744544Y-66219457D01*
G36*
X35491000Y-69339000D02*
X35511000Y-69339000D01*
X35511000Y-69821000D01*
X35491000Y-69821000D01*
X35491000Y-69841000D01*
X35009000Y-69841000D01*
X35009000Y-69821000D01*
X34989000Y-69821000D01*
X34989000Y-69339000D01*
X35009000Y-69339000D01*
X35009000Y-69319000D01*
X35491000Y-69319000D01*
X35491000Y-69339000D01*
X35491000Y-69339000D01*
G37*
X35491000Y-69339000D02*
X35511000Y-69339000D01*
X35511000Y-69821000D01*
X35491000Y-69821000D01*
X35491000Y-69841000D01*
X35009000Y-69841000D01*
X35009000Y-69821000D01*
X34989000Y-69821000D01*
X34989000Y-69339000D01*
X35009000Y-69339000D01*
X35009000Y-69319000D01*
X35491000Y-69319000D01*
X35491000Y-69339000D01*
G36*
X30642932Y-63083068D02*
X30722179Y-63136019D01*
X30467216Y-63374833D01*
X30263426Y-63824645D01*
X30363899Y-64021000D01*
X31255000Y-64021000D01*
X31255000Y-64001000D01*
X31737000Y-64001000D01*
X31737000Y-64021000D01*
X32628101Y-64021000D01*
X32728574Y-63824645D01*
X32524784Y-63374833D01*
X32365887Y-63226000D01*
X33360107Y-63226000D01*
X33248990Y-63300246D01*
X33007722Y-63661329D01*
X32923000Y-64087256D01*
X32923000Y-64436744D01*
X33007722Y-64862671D01*
X33248990Y-65223754D01*
X33610073Y-65465022D01*
X34036000Y-65549744D01*
X34461927Y-65465022D01*
X34823010Y-65223754D01*
X35064278Y-64862671D01*
X35149000Y-64436744D01*
X35149000Y-64087256D01*
X35108116Y-63881717D01*
X35173543Y-63908885D01*
X35437300Y-63909115D01*
X35503909Y-63881593D01*
X35463000Y-64087256D01*
X35463000Y-64436744D01*
X35547722Y-64862671D01*
X35788990Y-65223754D01*
X36088000Y-65423546D01*
X36088000Y-65835367D01*
X35903633Y-65759000D01*
X35121250Y-65759000D01*
X34991000Y-65889250D01*
X34991000Y-66839000D01*
X35011000Y-66839000D01*
X35011000Y-67321000D01*
X34991000Y-67321000D01*
X34991000Y-67341000D01*
X34509000Y-67341000D01*
X34509000Y-67321000D01*
X33702390Y-67321000D01*
X33639850Y-67258460D01*
X33149100Y-67258460D01*
X33149100Y-67278460D01*
X32969211Y-67278460D01*
X32969211Y-66342460D01*
X32949100Y-66235581D01*
X32949100Y-65951710D01*
X33149100Y-65951710D01*
X33149100Y-66776460D01*
X33246710Y-66776460D01*
X33309250Y-66839000D01*
X34509000Y-66839000D01*
X34509000Y-65889250D01*
X34378750Y-65759000D01*
X33596367Y-65759000D01*
X33404878Y-65838317D01*
X33401525Y-65841670D01*
X33352734Y-65821460D01*
X33279350Y-65821460D01*
X33149100Y-65951710D01*
X32949100Y-65951710D01*
X32818850Y-65821460D01*
X32745466Y-65821460D01*
X32553977Y-65900778D01*
X32482406Y-65972349D01*
X32199100Y-65972349D01*
X32069511Y-65996733D01*
X31949100Y-65972349D01*
X31549100Y-65972349D01*
X31419511Y-65996733D01*
X31299100Y-65972349D01*
X30899100Y-65972349D01*
X30838128Y-65983822D01*
X30794168Y-65918032D01*
X30565847Y-65689711D01*
X30538338Y-65551415D01*
X30405456Y-65352544D01*
X30206585Y-65219662D01*
X30069938Y-65192481D01*
X30076111Y-65162000D01*
X30076111Y-64699355D01*
X30263426Y-64699355D01*
X30467216Y-65149167D01*
X30827629Y-65486752D01*
X31062746Y-65606877D01*
X31255000Y-65527002D01*
X31255000Y-64503000D01*
X31737000Y-64503000D01*
X31737000Y-65527002D01*
X31929254Y-65606877D01*
X32164371Y-65486752D01*
X32524784Y-65149167D01*
X32728574Y-64699355D01*
X32628101Y-64503000D01*
X31737000Y-64503000D01*
X31255000Y-64503000D01*
X30363899Y-64503000D01*
X30263426Y-64699355D01*
X30076111Y-64699355D01*
X30076111Y-63362000D01*
X30050799Y-63227480D01*
X29971298Y-63103932D01*
X29849994Y-63021049D01*
X29706000Y-62991889D01*
X29569000Y-62991889D01*
X29569000Y-62423040D01*
X29526624Y-62210000D01*
X29769864Y-62210000D01*
X30642932Y-63083068D01*
X30642932Y-63083068D01*
G37*
X30642932Y-63083068D02*
X30722179Y-63136019D01*
X30467216Y-63374833D01*
X30263426Y-63824645D01*
X30363899Y-64021000D01*
X31255000Y-64021000D01*
X31255000Y-64001000D01*
X31737000Y-64001000D01*
X31737000Y-64021000D01*
X32628101Y-64021000D01*
X32728574Y-63824645D01*
X32524784Y-63374833D01*
X32365887Y-63226000D01*
X33360107Y-63226000D01*
X33248990Y-63300246D01*
X33007722Y-63661329D01*
X32923000Y-64087256D01*
X32923000Y-64436744D01*
X33007722Y-64862671D01*
X33248990Y-65223754D01*
X33610073Y-65465022D01*
X34036000Y-65549744D01*
X34461927Y-65465022D01*
X34823010Y-65223754D01*
X35064278Y-64862671D01*
X35149000Y-64436744D01*
X35149000Y-64087256D01*
X35108116Y-63881717D01*
X35173543Y-63908885D01*
X35437300Y-63909115D01*
X35503909Y-63881593D01*
X35463000Y-64087256D01*
X35463000Y-64436744D01*
X35547722Y-64862671D01*
X35788990Y-65223754D01*
X36088000Y-65423546D01*
X36088000Y-65835367D01*
X35903633Y-65759000D01*
X35121250Y-65759000D01*
X34991000Y-65889250D01*
X34991000Y-66839000D01*
X35011000Y-66839000D01*
X35011000Y-67321000D01*
X34991000Y-67321000D01*
X34991000Y-67341000D01*
X34509000Y-67341000D01*
X34509000Y-67321000D01*
X33702390Y-67321000D01*
X33639850Y-67258460D01*
X33149100Y-67258460D01*
X33149100Y-67278460D01*
X32969211Y-67278460D01*
X32969211Y-66342460D01*
X32949100Y-66235581D01*
X32949100Y-65951710D01*
X33149100Y-65951710D01*
X33149100Y-66776460D01*
X33246710Y-66776460D01*
X33309250Y-66839000D01*
X34509000Y-66839000D01*
X34509000Y-65889250D01*
X34378750Y-65759000D01*
X33596367Y-65759000D01*
X33404878Y-65838317D01*
X33401525Y-65841670D01*
X33352734Y-65821460D01*
X33279350Y-65821460D01*
X33149100Y-65951710D01*
X32949100Y-65951710D01*
X32818850Y-65821460D01*
X32745466Y-65821460D01*
X32553977Y-65900778D01*
X32482406Y-65972349D01*
X32199100Y-65972349D01*
X32069511Y-65996733D01*
X31949100Y-65972349D01*
X31549100Y-65972349D01*
X31419511Y-65996733D01*
X31299100Y-65972349D01*
X30899100Y-65972349D01*
X30838128Y-65983822D01*
X30794168Y-65918032D01*
X30565847Y-65689711D01*
X30538338Y-65551415D01*
X30405456Y-65352544D01*
X30206585Y-65219662D01*
X30069938Y-65192481D01*
X30076111Y-65162000D01*
X30076111Y-64699355D01*
X30263426Y-64699355D01*
X30467216Y-65149167D01*
X30827629Y-65486752D01*
X31062746Y-65606877D01*
X31255000Y-65527002D01*
X31255000Y-64503000D01*
X31737000Y-64503000D01*
X31737000Y-65527002D01*
X31929254Y-65606877D01*
X32164371Y-65486752D01*
X32524784Y-65149167D01*
X32728574Y-64699355D01*
X32628101Y-64503000D01*
X31737000Y-64503000D01*
X31255000Y-64503000D01*
X30363899Y-64503000D01*
X30263426Y-64699355D01*
X30076111Y-64699355D01*
X30076111Y-63362000D01*
X30050799Y-63227480D01*
X29971298Y-63103932D01*
X29849994Y-63021049D01*
X29706000Y-62991889D01*
X29569000Y-62991889D01*
X29569000Y-62423040D01*
X29526624Y-62210000D01*
X29769864Y-62210000D01*
X30642932Y-63083068D01*
G36*
X32245000Y-38203633D02*
X32324317Y-38395122D01*
X32470877Y-38541682D01*
X32662366Y-38621000D01*
X34139000Y-38621000D01*
X34139000Y-38922750D01*
X34269250Y-39053000D01*
X35319000Y-39053000D01*
X35319000Y-39033000D01*
X35801000Y-39033000D01*
X35801000Y-39053000D01*
X36850750Y-39053000D01*
X36981000Y-38922750D01*
X36981000Y-38621000D01*
X38965634Y-38621000D01*
X39157123Y-38541682D01*
X39294512Y-38404293D01*
X39327353Y-38569399D01*
X39388681Y-38661183D01*
X38262932Y-39786932D01*
X38157147Y-39945250D01*
X38120000Y-40132000D01*
X38120000Y-60503864D01*
X37930864Y-60693000D01*
X37325000Y-60693000D01*
X37325000Y-60713000D01*
X36843000Y-60713000D01*
X36843000Y-60693000D01*
X36823000Y-60693000D01*
X36823000Y-60211000D01*
X36843000Y-60211000D01*
X36843000Y-60191000D01*
X37325000Y-60191000D01*
X37325000Y-60211000D01*
X37977223Y-60211000D01*
X38098157Y-60050635D01*
X37967626Y-59673142D01*
X37702571Y-59374336D01*
X37477239Y-59247767D01*
X37325002Y-59332471D01*
X37325002Y-59169000D01*
X37279136Y-59169000D01*
X37683068Y-58765068D01*
X37788854Y-58606749D01*
X37826000Y-58420000D01*
X37826000Y-49276000D01*
X37822336Y-49257579D01*
X37788854Y-49089251D01*
X37683068Y-48930932D01*
X36921068Y-48168932D01*
X36762750Y-48063147D01*
X36576000Y-48026000D01*
X35501658Y-48026000D01*
X35428050Y-47952264D01*
X35184457Y-47851115D01*
X34920700Y-47850885D01*
X34721852Y-47933047D01*
X34615122Y-47826317D01*
X34423633Y-47747000D01*
X34300250Y-47747000D01*
X34170000Y-47877250D01*
X34170000Y-48527000D01*
X34281000Y-48527000D01*
X34281000Y-49009000D01*
X34170000Y-49009000D01*
X34170000Y-49029000D01*
X33870000Y-49029000D01*
X33870000Y-49009000D01*
X33329250Y-49009000D01*
X33199000Y-49139250D01*
X33199000Y-49371634D01*
X33278318Y-49563123D01*
X33394195Y-49679000D01*
X33125000Y-49679000D01*
X33125000Y-49020593D01*
X33174885Y-48900457D01*
X33175115Y-48636700D01*
X33125000Y-48515412D01*
X33125000Y-48164366D01*
X33199000Y-48164366D01*
X33199000Y-48396750D01*
X33329250Y-48527000D01*
X33870000Y-48527000D01*
X33870000Y-47877250D01*
X33739750Y-47747000D01*
X33616367Y-47747000D01*
X33424878Y-47826317D01*
X33278318Y-47972877D01*
X33199000Y-48164366D01*
X33125000Y-48164366D01*
X33125000Y-47524739D01*
X33151950Y-47551736D01*
X33395543Y-47652885D01*
X33659300Y-47653115D01*
X33903069Y-47552392D01*
X34089736Y-47366050D01*
X34190885Y-47122457D01*
X34191115Y-46858700D01*
X34095838Y-46628111D01*
X34790000Y-46628111D01*
X34924520Y-46602799D01*
X35048068Y-46523298D01*
X35130951Y-46401994D01*
X35141322Y-46350783D01*
X35149922Y-46364148D01*
X35271226Y-46447031D01*
X35415220Y-46476191D01*
X36212780Y-46476191D01*
X36347300Y-46450879D01*
X36435321Y-46394239D01*
X36521608Y-46603069D01*
X36707950Y-46789736D01*
X36951543Y-46890885D01*
X37215300Y-46891115D01*
X37459069Y-46790392D01*
X37645736Y-46604050D01*
X37746885Y-46360457D01*
X37747005Y-46223380D01*
X37788853Y-46160750D01*
X37826000Y-45974000D01*
X37826000Y-41656000D01*
X37809849Y-41574802D01*
X37788854Y-41469251D01*
X37683068Y-41310932D01*
X36921068Y-40548932D01*
X36813516Y-40477068D01*
X36762750Y-40443147D01*
X36745422Y-40439700D01*
X36755123Y-40435682D01*
X36901683Y-40289122D01*
X36981000Y-40097633D01*
X36981000Y-39665250D01*
X36850750Y-39535000D01*
X35801000Y-39535000D01*
X35801000Y-39555000D01*
X35319000Y-39555000D01*
X35319000Y-39535000D01*
X34269250Y-39535000D01*
X34139000Y-39665250D01*
X34139000Y-40097633D01*
X34218317Y-40289122D01*
X34364877Y-40435682D01*
X34556366Y-40515000D01*
X34747219Y-40515000D01*
X34744264Y-40517950D01*
X34643115Y-40761543D01*
X34642885Y-41025300D01*
X34743608Y-41269069D01*
X34898158Y-41423889D01*
X34670801Y-41423889D01*
X33656091Y-40409179D01*
X33656132Y-40361896D01*
X33540217Y-40081360D01*
X33325769Y-39866537D01*
X33195801Y-39812570D01*
X33195801Y-39640510D01*
X33170489Y-39505990D01*
X33090988Y-39382442D01*
X32969684Y-39299559D01*
X32825690Y-39270399D01*
X32114963Y-39270399D01*
X32087820Y-39265000D01*
X32060677Y-39270399D01*
X29825950Y-39270399D01*
X29796760Y-39275891D01*
X29781750Y-39275732D01*
X29768291Y-39281248D01*
X29691430Y-39295711D01*
X29567882Y-39375212D01*
X29557480Y-39390436D01*
X29538746Y-39402946D01*
X29515660Y-39379860D01*
X28615340Y-39379860D01*
X28615340Y-39399860D01*
X28133340Y-39399860D01*
X28133340Y-39379860D01*
X27233020Y-39379860D01*
X27102770Y-39510110D01*
X27102770Y-39535000D01*
X26403000Y-39535000D01*
X26403000Y-40384750D01*
X26533250Y-40515000D01*
X27165634Y-40515000D01*
X27253659Y-40478539D01*
X27253659Y-41140380D01*
X27278971Y-41274900D01*
X27354361Y-41392060D01*
X27282819Y-41496766D01*
X27281258Y-41504474D01*
X27205994Y-41453049D01*
X27062000Y-41423889D01*
X25401000Y-41423889D01*
X25401000Y-40515000D01*
X25790750Y-40515000D01*
X25921000Y-40384750D01*
X25921000Y-39535000D01*
X25901000Y-39535000D01*
X25901000Y-39053000D01*
X25921000Y-39053000D01*
X25921000Y-39033000D01*
X26403000Y-39033000D01*
X26403000Y-39053000D01*
X27452750Y-39053000D01*
X27583000Y-38922750D01*
X27583000Y-38897860D01*
X28133340Y-38897860D01*
X28133340Y-38877860D01*
X28615340Y-38877860D01*
X28615340Y-38897860D01*
X29515660Y-38897860D01*
X29645910Y-38767610D01*
X29645910Y-38534847D01*
X29645398Y-38533611D01*
X30988000Y-38533611D01*
X31122520Y-38508299D01*
X31246068Y-38428798D01*
X31328951Y-38307494D01*
X31358111Y-38163500D01*
X31358111Y-36867869D01*
X31373950Y-36883736D01*
X31617543Y-36984885D01*
X31881300Y-36985115D01*
X32125069Y-36884392D01*
X32245000Y-36764670D01*
X32245000Y-38203633D01*
X32245000Y-38203633D01*
G37*
X32245000Y-38203633D02*
X32324317Y-38395122D01*
X32470877Y-38541682D01*
X32662366Y-38621000D01*
X34139000Y-38621000D01*
X34139000Y-38922750D01*
X34269250Y-39053000D01*
X35319000Y-39053000D01*
X35319000Y-39033000D01*
X35801000Y-39033000D01*
X35801000Y-39053000D01*
X36850750Y-39053000D01*
X36981000Y-38922750D01*
X36981000Y-38621000D01*
X38965634Y-38621000D01*
X39157123Y-38541682D01*
X39294512Y-38404293D01*
X39327353Y-38569399D01*
X39388681Y-38661183D01*
X38262932Y-39786932D01*
X38157147Y-39945250D01*
X38120000Y-40132000D01*
X38120000Y-60503864D01*
X37930864Y-60693000D01*
X37325000Y-60693000D01*
X37325000Y-60713000D01*
X36843000Y-60713000D01*
X36843000Y-60693000D01*
X36823000Y-60693000D01*
X36823000Y-60211000D01*
X36843000Y-60211000D01*
X36843000Y-60191000D01*
X37325000Y-60191000D01*
X37325000Y-60211000D01*
X37977223Y-60211000D01*
X38098157Y-60050635D01*
X37967626Y-59673142D01*
X37702571Y-59374336D01*
X37477239Y-59247767D01*
X37325002Y-59332471D01*
X37325002Y-59169000D01*
X37279136Y-59169000D01*
X37683068Y-58765068D01*
X37788854Y-58606749D01*
X37826000Y-58420000D01*
X37826000Y-49276000D01*
X37822336Y-49257579D01*
X37788854Y-49089251D01*
X37683068Y-48930932D01*
X36921068Y-48168932D01*
X36762750Y-48063147D01*
X36576000Y-48026000D01*
X35501658Y-48026000D01*
X35428050Y-47952264D01*
X35184457Y-47851115D01*
X34920700Y-47850885D01*
X34721852Y-47933047D01*
X34615122Y-47826317D01*
X34423633Y-47747000D01*
X34300250Y-47747000D01*
X34170000Y-47877250D01*
X34170000Y-48527000D01*
X34281000Y-48527000D01*
X34281000Y-49009000D01*
X34170000Y-49009000D01*
X34170000Y-49029000D01*
X33870000Y-49029000D01*
X33870000Y-49009000D01*
X33329250Y-49009000D01*
X33199000Y-49139250D01*
X33199000Y-49371634D01*
X33278318Y-49563123D01*
X33394195Y-49679000D01*
X33125000Y-49679000D01*
X33125000Y-49020593D01*
X33174885Y-48900457D01*
X33175115Y-48636700D01*
X33125000Y-48515412D01*
X33125000Y-48164366D01*
X33199000Y-48164366D01*
X33199000Y-48396750D01*
X33329250Y-48527000D01*
X33870000Y-48527000D01*
X33870000Y-47877250D01*
X33739750Y-47747000D01*
X33616367Y-47747000D01*
X33424878Y-47826317D01*
X33278318Y-47972877D01*
X33199000Y-48164366D01*
X33125000Y-48164366D01*
X33125000Y-47524739D01*
X33151950Y-47551736D01*
X33395543Y-47652885D01*
X33659300Y-47653115D01*
X33903069Y-47552392D01*
X34089736Y-47366050D01*
X34190885Y-47122457D01*
X34191115Y-46858700D01*
X34095838Y-46628111D01*
X34790000Y-46628111D01*
X34924520Y-46602799D01*
X35048068Y-46523298D01*
X35130951Y-46401994D01*
X35141322Y-46350783D01*
X35149922Y-46364148D01*
X35271226Y-46447031D01*
X35415220Y-46476191D01*
X36212780Y-46476191D01*
X36347300Y-46450879D01*
X36435321Y-46394239D01*
X36521608Y-46603069D01*
X36707950Y-46789736D01*
X36951543Y-46890885D01*
X37215300Y-46891115D01*
X37459069Y-46790392D01*
X37645736Y-46604050D01*
X37746885Y-46360457D01*
X37747005Y-46223380D01*
X37788853Y-46160750D01*
X37826000Y-45974000D01*
X37826000Y-41656000D01*
X37809849Y-41574802D01*
X37788854Y-41469251D01*
X37683068Y-41310932D01*
X36921068Y-40548932D01*
X36813516Y-40477068D01*
X36762750Y-40443147D01*
X36745422Y-40439700D01*
X36755123Y-40435682D01*
X36901683Y-40289122D01*
X36981000Y-40097633D01*
X36981000Y-39665250D01*
X36850750Y-39535000D01*
X35801000Y-39535000D01*
X35801000Y-39555000D01*
X35319000Y-39555000D01*
X35319000Y-39535000D01*
X34269250Y-39535000D01*
X34139000Y-39665250D01*
X34139000Y-40097633D01*
X34218317Y-40289122D01*
X34364877Y-40435682D01*
X34556366Y-40515000D01*
X34747219Y-40515000D01*
X34744264Y-40517950D01*
X34643115Y-40761543D01*
X34642885Y-41025300D01*
X34743608Y-41269069D01*
X34898158Y-41423889D01*
X34670801Y-41423889D01*
X33656091Y-40409179D01*
X33656132Y-40361896D01*
X33540217Y-40081360D01*
X33325769Y-39866537D01*
X33195801Y-39812570D01*
X33195801Y-39640510D01*
X33170489Y-39505990D01*
X33090988Y-39382442D01*
X32969684Y-39299559D01*
X32825690Y-39270399D01*
X32114963Y-39270399D01*
X32087820Y-39265000D01*
X32060677Y-39270399D01*
X29825950Y-39270399D01*
X29796760Y-39275891D01*
X29781750Y-39275732D01*
X29768291Y-39281248D01*
X29691430Y-39295711D01*
X29567882Y-39375212D01*
X29557480Y-39390436D01*
X29538746Y-39402946D01*
X29515660Y-39379860D01*
X28615340Y-39379860D01*
X28615340Y-39399860D01*
X28133340Y-39399860D01*
X28133340Y-39379860D01*
X27233020Y-39379860D01*
X27102770Y-39510110D01*
X27102770Y-39535000D01*
X26403000Y-39535000D01*
X26403000Y-40384750D01*
X26533250Y-40515000D01*
X27165634Y-40515000D01*
X27253659Y-40478539D01*
X27253659Y-41140380D01*
X27278971Y-41274900D01*
X27354361Y-41392060D01*
X27282819Y-41496766D01*
X27281258Y-41504474D01*
X27205994Y-41453049D01*
X27062000Y-41423889D01*
X25401000Y-41423889D01*
X25401000Y-40515000D01*
X25790750Y-40515000D01*
X25921000Y-40384750D01*
X25921000Y-39535000D01*
X25901000Y-39535000D01*
X25901000Y-39053000D01*
X25921000Y-39053000D01*
X25921000Y-39033000D01*
X26403000Y-39033000D01*
X26403000Y-39053000D01*
X27452750Y-39053000D01*
X27583000Y-38922750D01*
X27583000Y-38897860D01*
X28133340Y-38897860D01*
X28133340Y-38877860D01*
X28615340Y-38877860D01*
X28615340Y-38897860D01*
X29515660Y-38897860D01*
X29645910Y-38767610D01*
X29645910Y-38534847D01*
X29645398Y-38533611D01*
X30988000Y-38533611D01*
X31122520Y-38508299D01*
X31246068Y-38428798D01*
X31328951Y-38307494D01*
X31358111Y-38163500D01*
X31358111Y-36867869D01*
X31373950Y-36883736D01*
X31617543Y-36984885D01*
X31881300Y-36985115D01*
X32125069Y-36884392D01*
X32245000Y-36764670D01*
X32245000Y-38203633D01*
G36*
X34946088Y-51053000D02*
X34667250Y-51053000D01*
X34537000Y-51183250D01*
X34537000Y-52083000D01*
X34557000Y-52083000D01*
X34557000Y-52565000D01*
X34537000Y-52565000D01*
X34537000Y-53464750D01*
X34667250Y-53595000D01*
X35455000Y-53595000D01*
X35455000Y-56429826D01*
X35421537Y-56463231D01*
X35305133Y-56743564D01*
X35305091Y-56791207D01*
X35184457Y-56741115D01*
X34920700Y-56740885D01*
X34676931Y-56841608D01*
X34635467Y-56883000D01*
X34374000Y-56883000D01*
X34374000Y-56903000D01*
X33974000Y-56903000D01*
X33974000Y-56883000D01*
X33383250Y-56883000D01*
X33253000Y-57013250D01*
X33253000Y-57245634D01*
X33332318Y-57437123D01*
X33478878Y-57583683D01*
X33670367Y-57663000D01*
X33843750Y-57663000D01*
X33932998Y-57573752D01*
X33932998Y-57663000D01*
X34124055Y-57663000D01*
X33858360Y-57772783D01*
X33824083Y-57807000D01*
X30882016Y-57807000D01*
X30888885Y-57790457D01*
X30889115Y-57526700D01*
X30841264Y-57410891D01*
X31374080Y-57410891D01*
X31508600Y-57385579D01*
X31632148Y-57306078D01*
X31640426Y-57293963D01*
X31708702Y-57400068D01*
X31830006Y-57482951D01*
X31974000Y-57512111D01*
X32774000Y-57512111D01*
X32908520Y-57486799D01*
X33032068Y-57407298D01*
X33114951Y-57285994D01*
X33144111Y-57142000D01*
X33144111Y-56142000D01*
X33118799Y-56007480D01*
X33039298Y-55883932D01*
X32917994Y-55801049D01*
X32774000Y-55771889D01*
X31974000Y-55771889D01*
X31839480Y-55797201D01*
X31715932Y-55876702D01*
X31640568Y-55987001D01*
X31639378Y-55985152D01*
X31518074Y-55902269D01*
X31374080Y-55873109D01*
X30576520Y-55873109D01*
X30442000Y-55898421D01*
X30318452Y-55977922D01*
X30235569Y-56099226D01*
X30226719Y-56142927D01*
X30220279Y-56108700D01*
X30140778Y-55985152D01*
X30019474Y-55902269D01*
X29875480Y-55873109D01*
X29077920Y-55873109D01*
X28990596Y-55889540D01*
X29146025Y-55734111D01*
X29726000Y-55734111D01*
X29860520Y-55708799D01*
X29984068Y-55629298D01*
X30066951Y-55507994D01*
X30096111Y-55364000D01*
X30096111Y-55056352D01*
X30171608Y-55239069D01*
X30357950Y-55425736D01*
X30368315Y-55430040D01*
X30381201Y-55498520D01*
X30460702Y-55622068D01*
X30582006Y-55704951D01*
X30726000Y-55734111D01*
X31526000Y-55734111D01*
X31660520Y-55708799D01*
X31750704Y-55650767D01*
X31830006Y-55704951D01*
X31974000Y-55734111D01*
X32774000Y-55734111D01*
X32908520Y-55708799D01*
X33032068Y-55629298D01*
X33114951Y-55507994D01*
X33144111Y-55364000D01*
X33144111Y-55235250D01*
X33253000Y-55235250D01*
X33253000Y-55467634D01*
X33332318Y-55659123D01*
X33426195Y-55753000D01*
X33332318Y-55846877D01*
X33253000Y-56038366D01*
X33253000Y-56270750D01*
X33383250Y-56401000D01*
X33974000Y-56401000D01*
X33974000Y-55105000D01*
X34374000Y-55105000D01*
X34374000Y-56401000D01*
X34964750Y-56401000D01*
X35095000Y-56270750D01*
X35095000Y-56038366D01*
X35015682Y-55846877D01*
X34921805Y-55753000D01*
X35015682Y-55659123D01*
X35095000Y-55467634D01*
X35095000Y-55235250D01*
X34964750Y-55105000D01*
X34374000Y-55105000D01*
X33974000Y-55105000D01*
X33383250Y-55105000D01*
X33253000Y-55235250D01*
X33144111Y-55235250D01*
X33144111Y-54364000D01*
X33124611Y-54260366D01*
X33253000Y-54260366D01*
X33253000Y-54492750D01*
X33383250Y-54623000D01*
X33974000Y-54623000D01*
X33974000Y-53973250D01*
X34374000Y-53973250D01*
X34374000Y-54623000D01*
X34964750Y-54623000D01*
X35095000Y-54492750D01*
X35095000Y-54260366D01*
X35015682Y-54068877D01*
X34869122Y-53922317D01*
X34677633Y-53843000D01*
X34504250Y-53843000D01*
X34374000Y-53973250D01*
X33974000Y-53973250D01*
X33843750Y-53843000D01*
X33670367Y-53843000D01*
X33478878Y-53922317D01*
X33332318Y-54068877D01*
X33253000Y-54260366D01*
X33124611Y-54260366D01*
X33118799Y-54229480D01*
X33039298Y-54105932D01*
X33000000Y-54079081D01*
X33000000Y-53595000D01*
X33924750Y-53595000D01*
X34055000Y-53464750D01*
X34055000Y-52565000D01*
X34035000Y-52565000D01*
X34035000Y-52083000D01*
X34055000Y-52083000D01*
X34055000Y-51183250D01*
X33924750Y-51053000D01*
X32892367Y-51053000D01*
X32746860Y-51113271D01*
X32634050Y-51000264D01*
X32525071Y-50955012D01*
X32643300Y-50955115D01*
X32764588Y-50905000D01*
X34798088Y-50905000D01*
X34946088Y-51053000D01*
X34946088Y-51053000D01*
G37*
X34946088Y-51053000D02*
X34667250Y-51053000D01*
X34537000Y-51183250D01*
X34537000Y-52083000D01*
X34557000Y-52083000D01*
X34557000Y-52565000D01*
X34537000Y-52565000D01*
X34537000Y-53464750D01*
X34667250Y-53595000D01*
X35455000Y-53595000D01*
X35455000Y-56429826D01*
X35421537Y-56463231D01*
X35305133Y-56743564D01*
X35305091Y-56791207D01*
X35184457Y-56741115D01*
X34920700Y-56740885D01*
X34676931Y-56841608D01*
X34635467Y-56883000D01*
X34374000Y-56883000D01*
X34374000Y-56903000D01*
X33974000Y-56903000D01*
X33974000Y-56883000D01*
X33383250Y-56883000D01*
X33253000Y-57013250D01*
X33253000Y-57245634D01*
X33332318Y-57437123D01*
X33478878Y-57583683D01*
X33670367Y-57663000D01*
X33843750Y-57663000D01*
X33932998Y-57573752D01*
X33932998Y-57663000D01*
X34124055Y-57663000D01*
X33858360Y-57772783D01*
X33824083Y-57807000D01*
X30882016Y-57807000D01*
X30888885Y-57790457D01*
X30889115Y-57526700D01*
X30841264Y-57410891D01*
X31374080Y-57410891D01*
X31508600Y-57385579D01*
X31632148Y-57306078D01*
X31640426Y-57293963D01*
X31708702Y-57400068D01*
X31830006Y-57482951D01*
X31974000Y-57512111D01*
X32774000Y-57512111D01*
X32908520Y-57486799D01*
X33032068Y-57407298D01*
X33114951Y-57285994D01*
X33144111Y-57142000D01*
X33144111Y-56142000D01*
X33118799Y-56007480D01*
X33039298Y-55883932D01*
X32917994Y-55801049D01*
X32774000Y-55771889D01*
X31974000Y-55771889D01*
X31839480Y-55797201D01*
X31715932Y-55876702D01*
X31640568Y-55987001D01*
X31639378Y-55985152D01*
X31518074Y-55902269D01*
X31374080Y-55873109D01*
X30576520Y-55873109D01*
X30442000Y-55898421D01*
X30318452Y-55977922D01*
X30235569Y-56099226D01*
X30226719Y-56142927D01*
X30220279Y-56108700D01*
X30140778Y-55985152D01*
X30019474Y-55902269D01*
X29875480Y-55873109D01*
X29077920Y-55873109D01*
X28990596Y-55889540D01*
X29146025Y-55734111D01*
X29726000Y-55734111D01*
X29860520Y-55708799D01*
X29984068Y-55629298D01*
X30066951Y-55507994D01*
X30096111Y-55364000D01*
X30096111Y-55056352D01*
X30171608Y-55239069D01*
X30357950Y-55425736D01*
X30368315Y-55430040D01*
X30381201Y-55498520D01*
X30460702Y-55622068D01*
X30582006Y-55704951D01*
X30726000Y-55734111D01*
X31526000Y-55734111D01*
X31660520Y-55708799D01*
X31750704Y-55650767D01*
X31830006Y-55704951D01*
X31974000Y-55734111D01*
X32774000Y-55734111D01*
X32908520Y-55708799D01*
X33032068Y-55629298D01*
X33114951Y-55507994D01*
X33144111Y-55364000D01*
X33144111Y-55235250D01*
X33253000Y-55235250D01*
X33253000Y-55467634D01*
X33332318Y-55659123D01*
X33426195Y-55753000D01*
X33332318Y-55846877D01*
X33253000Y-56038366D01*
X33253000Y-56270750D01*
X33383250Y-56401000D01*
X33974000Y-56401000D01*
X33974000Y-55105000D01*
X34374000Y-55105000D01*
X34374000Y-56401000D01*
X34964750Y-56401000D01*
X35095000Y-56270750D01*
X35095000Y-56038366D01*
X35015682Y-55846877D01*
X34921805Y-55753000D01*
X35015682Y-55659123D01*
X35095000Y-55467634D01*
X35095000Y-55235250D01*
X34964750Y-55105000D01*
X34374000Y-55105000D01*
X33974000Y-55105000D01*
X33383250Y-55105000D01*
X33253000Y-55235250D01*
X33144111Y-55235250D01*
X33144111Y-54364000D01*
X33124611Y-54260366D01*
X33253000Y-54260366D01*
X33253000Y-54492750D01*
X33383250Y-54623000D01*
X33974000Y-54623000D01*
X33974000Y-53973250D01*
X34374000Y-53973250D01*
X34374000Y-54623000D01*
X34964750Y-54623000D01*
X35095000Y-54492750D01*
X35095000Y-54260366D01*
X35015682Y-54068877D01*
X34869122Y-53922317D01*
X34677633Y-53843000D01*
X34504250Y-53843000D01*
X34374000Y-53973250D01*
X33974000Y-53973250D01*
X33843750Y-53843000D01*
X33670367Y-53843000D01*
X33478878Y-53922317D01*
X33332318Y-54068877D01*
X33253000Y-54260366D01*
X33124611Y-54260366D01*
X33118799Y-54229480D01*
X33039298Y-54105932D01*
X33000000Y-54079081D01*
X33000000Y-53595000D01*
X33924750Y-53595000D01*
X34055000Y-53464750D01*
X34055000Y-52565000D01*
X34035000Y-52565000D01*
X34035000Y-52083000D01*
X34055000Y-52083000D01*
X34055000Y-51183250D01*
X33924750Y-51053000D01*
X32892367Y-51053000D01*
X32746860Y-51113271D01*
X32634050Y-51000264D01*
X32525071Y-50955012D01*
X32643300Y-50955115D01*
X32764588Y-50905000D01*
X34798088Y-50905000D01*
X34946088Y-51053000D01*
G36*
X26224000Y-49797000D02*
X26285000Y-49797000D01*
X26285000Y-50279000D01*
X26224000Y-50279000D01*
X26224000Y-50928750D01*
X26354250Y-51059000D01*
X26521423Y-51059000D01*
X26578932Y-51145068D01*
X26832932Y-51399068D01*
X26991250Y-51504853D01*
X27038008Y-51514154D01*
X27025889Y-51574000D01*
X27025889Y-53074000D01*
X27051201Y-53208520D01*
X27130702Y-53332068D01*
X27252006Y-53414951D01*
X27396000Y-53444111D01*
X28838000Y-53444111D01*
X28838000Y-54010448D01*
X28791480Y-54019201D01*
X28667932Y-54098702D01*
X28585049Y-54220006D01*
X28555889Y-54364000D01*
X28555889Y-54943975D01*
X28102932Y-55396932D01*
X27997147Y-55555250D01*
X27960000Y-55742000D01*
X27960000Y-57404000D01*
X27997147Y-57590750D01*
X28042839Y-57659132D01*
X28102932Y-57749068D01*
X28160864Y-57807000D01*
X25907913Y-57807000D01*
X25759000Y-57658088D01*
X25759000Y-50993750D01*
X25824000Y-50928750D01*
X25824000Y-50279000D01*
X25763000Y-50279000D01*
X25763000Y-49797000D01*
X25824000Y-49797000D01*
X25824000Y-49777000D01*
X26224000Y-49777000D01*
X26224000Y-49797000D01*
X26224000Y-49797000D01*
G37*
X26224000Y-49797000D02*
X26285000Y-49797000D01*
X26285000Y-50279000D01*
X26224000Y-50279000D01*
X26224000Y-50928750D01*
X26354250Y-51059000D01*
X26521423Y-51059000D01*
X26578932Y-51145068D01*
X26832932Y-51399068D01*
X26991250Y-51504853D01*
X27038008Y-51514154D01*
X27025889Y-51574000D01*
X27025889Y-53074000D01*
X27051201Y-53208520D01*
X27130702Y-53332068D01*
X27252006Y-53414951D01*
X27396000Y-53444111D01*
X28838000Y-53444111D01*
X28838000Y-54010448D01*
X28791480Y-54019201D01*
X28667932Y-54098702D01*
X28585049Y-54220006D01*
X28555889Y-54364000D01*
X28555889Y-54943975D01*
X28102932Y-55396932D01*
X27997147Y-55555250D01*
X27960000Y-55742000D01*
X27960000Y-57404000D01*
X27997147Y-57590750D01*
X28042839Y-57659132D01*
X28102932Y-57749068D01*
X28160864Y-57807000D01*
X25907913Y-57807000D01*
X25759000Y-57658088D01*
X25759000Y-50993750D01*
X25824000Y-50928750D01*
X25824000Y-50279000D01*
X25763000Y-50279000D01*
X25763000Y-49797000D01*
X25824000Y-49797000D01*
X25824000Y-49777000D01*
X26224000Y-49777000D01*
X26224000Y-49797000D01*
G36*
X27479776Y-42982471D02*
X27623770Y-43011631D01*
X28694664Y-43011631D01*
X28648264Y-43057950D01*
X28547115Y-43301543D01*
X28546885Y-43565300D01*
X28647608Y-43809069D01*
X28833950Y-43995736D01*
X29077543Y-44096885D01*
X29182841Y-44096977D01*
X30246000Y-45160136D01*
X30246000Y-45778342D01*
X30172264Y-45851950D01*
X30071115Y-46095543D01*
X30070885Y-46359300D01*
X30171608Y-46603069D01*
X30304376Y-46736068D01*
X30172264Y-46867950D01*
X30071115Y-47111543D01*
X30070885Y-47375300D01*
X30171608Y-47619069D01*
X30357950Y-47805736D01*
X30601543Y-47906885D01*
X30865300Y-47907115D01*
X31109069Y-47806392D01*
X31295736Y-47620050D01*
X31396885Y-47376457D01*
X31396977Y-47271159D01*
X31841068Y-46827068D01*
X31899000Y-46740367D01*
X31899000Y-47897889D01*
X31720000Y-47897889D01*
X31585480Y-47923201D01*
X31461932Y-48002702D01*
X31379049Y-48124006D01*
X31372772Y-48155000D01*
X31240593Y-48155000D01*
X31120457Y-48105115D01*
X30856700Y-48104885D01*
X30612931Y-48205608D01*
X30426264Y-48391950D01*
X30325115Y-48635543D01*
X30324885Y-48899300D01*
X30375000Y-49020588D01*
X30375000Y-50039407D01*
X30325115Y-50159543D01*
X30324885Y-50423300D01*
X30425608Y-50667069D01*
X30611950Y-50853736D01*
X30855543Y-50954885D01*
X31119300Y-50955115D01*
X31363069Y-50854392D01*
X31549736Y-50668050D01*
X31650885Y-50424457D01*
X31651115Y-50160700D01*
X31601000Y-50039412D01*
X31601000Y-49614012D01*
X31720000Y-49638111D01*
X31899000Y-49638111D01*
X31899000Y-50039407D01*
X31849115Y-50159543D01*
X31848885Y-50423300D01*
X31949608Y-50667069D01*
X32135950Y-50853736D01*
X32244929Y-50898988D01*
X32126700Y-50898885D01*
X31882931Y-50999608D01*
X31696264Y-51185950D01*
X31595115Y-51429543D01*
X31594885Y-51693300D01*
X31695608Y-51937069D01*
X31881950Y-52123736D01*
X32024000Y-52182721D01*
X32024000Y-53993889D01*
X31974000Y-53993889D01*
X31839480Y-54019201D01*
X31749296Y-54077233D01*
X31669994Y-54023049D01*
X31526000Y-53993889D01*
X30726000Y-53993889D01*
X30591480Y-54019201D01*
X30467932Y-54098702D01*
X30385049Y-54220006D01*
X30369400Y-54297282D01*
X30358931Y-54301608D01*
X30172264Y-54487950D01*
X30096111Y-54671346D01*
X30096111Y-54364000D01*
X30070799Y-54229480D01*
X29991298Y-54105932D01*
X29869994Y-54023049D01*
X29814000Y-54011710D01*
X29814000Y-53444111D01*
X29996000Y-53444111D01*
X30130520Y-53418799D01*
X30254068Y-53339298D01*
X30329611Y-53228737D01*
X30425608Y-53461069D01*
X30611950Y-53647736D01*
X30855543Y-53748885D01*
X31119300Y-53749115D01*
X31363069Y-53648392D01*
X31549736Y-53462050D01*
X31650885Y-53218457D01*
X31651115Y-52954700D01*
X31550392Y-52710931D01*
X31364050Y-52524264D01*
X31120457Y-52423115D01*
X30856700Y-52422885D01*
X30612931Y-52523608D01*
X30426264Y-52709950D01*
X30366111Y-52854814D01*
X30366111Y-51984037D01*
X30380885Y-51948457D01*
X30381115Y-51684700D01*
X30366111Y-51648387D01*
X30366111Y-51574000D01*
X30340799Y-51439480D01*
X30261298Y-51315932D01*
X30189056Y-51266572D01*
X30279736Y-51176050D01*
X30380885Y-50932457D01*
X30381115Y-50668700D01*
X30280392Y-50424931D01*
X30094050Y-50238264D01*
X29850457Y-50137115D01*
X29586700Y-50136885D01*
X29342931Y-50237608D01*
X29156264Y-50423950D01*
X29097279Y-50566000D01*
X28588441Y-50566000D01*
X28594111Y-50538000D01*
X28594111Y-49538000D01*
X28568799Y-49403480D01*
X28489298Y-49279932D01*
X28367994Y-49197049D01*
X28316783Y-49186678D01*
X28330148Y-49178078D01*
X28413031Y-49056774D01*
X28442191Y-48912780D01*
X28442191Y-48115220D01*
X28416879Y-47980700D01*
X28337378Y-47857152D01*
X28316292Y-47842745D01*
X28358520Y-47834799D01*
X28482068Y-47755298D01*
X28564951Y-47633994D01*
X28594111Y-47490000D01*
X28594111Y-46490000D01*
X28568799Y-46355480D01*
X28489298Y-46231932D01*
X28367994Y-46149049D01*
X28316783Y-46138678D01*
X28330148Y-46130078D01*
X28413031Y-46008774D01*
X28442191Y-45864780D01*
X28442191Y-45067220D01*
X28416879Y-44932700D01*
X28337378Y-44809152D01*
X28216074Y-44726269D01*
X28072080Y-44697109D01*
X27274520Y-44697109D01*
X27140000Y-44722421D01*
X27016452Y-44801922D01*
X26933569Y-44923226D01*
X26924719Y-44966927D01*
X26918279Y-44932700D01*
X26838778Y-44809152D01*
X26717474Y-44726269D01*
X26573480Y-44697109D01*
X26019803Y-44697109D01*
X26595456Y-44121456D01*
X26728338Y-43922585D01*
X26741185Y-43858000D01*
X26775000Y-43688000D01*
X26775000Y-43564111D01*
X27062000Y-43564111D01*
X27196520Y-43538799D01*
X27320068Y-43459298D01*
X27402951Y-43337994D01*
X27432111Y-43194000D01*
X27432111Y-42949903D01*
X27479776Y-42982471D01*
X27479776Y-42982471D01*
G37*
X27479776Y-42982471D02*
X27623770Y-43011631D01*
X28694664Y-43011631D01*
X28648264Y-43057950D01*
X28547115Y-43301543D01*
X28546885Y-43565300D01*
X28647608Y-43809069D01*
X28833950Y-43995736D01*
X29077543Y-44096885D01*
X29182841Y-44096977D01*
X30246000Y-45160136D01*
X30246000Y-45778342D01*
X30172264Y-45851950D01*
X30071115Y-46095543D01*
X30070885Y-46359300D01*
X30171608Y-46603069D01*
X30304376Y-46736068D01*
X30172264Y-46867950D01*
X30071115Y-47111543D01*
X30070885Y-47375300D01*
X30171608Y-47619069D01*
X30357950Y-47805736D01*
X30601543Y-47906885D01*
X30865300Y-47907115D01*
X31109069Y-47806392D01*
X31295736Y-47620050D01*
X31396885Y-47376457D01*
X31396977Y-47271159D01*
X31841068Y-46827068D01*
X31899000Y-46740367D01*
X31899000Y-47897889D01*
X31720000Y-47897889D01*
X31585480Y-47923201D01*
X31461932Y-48002702D01*
X31379049Y-48124006D01*
X31372772Y-48155000D01*
X31240593Y-48155000D01*
X31120457Y-48105115D01*
X30856700Y-48104885D01*
X30612931Y-48205608D01*
X30426264Y-48391950D01*
X30325115Y-48635543D01*
X30324885Y-48899300D01*
X30375000Y-49020588D01*
X30375000Y-50039407D01*
X30325115Y-50159543D01*
X30324885Y-50423300D01*
X30425608Y-50667069D01*
X30611950Y-50853736D01*
X30855543Y-50954885D01*
X31119300Y-50955115D01*
X31363069Y-50854392D01*
X31549736Y-50668050D01*
X31650885Y-50424457D01*
X31651115Y-50160700D01*
X31601000Y-50039412D01*
X31601000Y-49614012D01*
X31720000Y-49638111D01*
X31899000Y-49638111D01*
X31899000Y-50039407D01*
X31849115Y-50159543D01*
X31848885Y-50423300D01*
X31949608Y-50667069D01*
X32135950Y-50853736D01*
X32244929Y-50898988D01*
X32126700Y-50898885D01*
X31882931Y-50999608D01*
X31696264Y-51185950D01*
X31595115Y-51429543D01*
X31594885Y-51693300D01*
X31695608Y-51937069D01*
X31881950Y-52123736D01*
X32024000Y-52182721D01*
X32024000Y-53993889D01*
X31974000Y-53993889D01*
X31839480Y-54019201D01*
X31749296Y-54077233D01*
X31669994Y-54023049D01*
X31526000Y-53993889D01*
X30726000Y-53993889D01*
X30591480Y-54019201D01*
X30467932Y-54098702D01*
X30385049Y-54220006D01*
X30369400Y-54297282D01*
X30358931Y-54301608D01*
X30172264Y-54487950D01*
X30096111Y-54671346D01*
X30096111Y-54364000D01*
X30070799Y-54229480D01*
X29991298Y-54105932D01*
X29869994Y-54023049D01*
X29814000Y-54011710D01*
X29814000Y-53444111D01*
X29996000Y-53444111D01*
X30130520Y-53418799D01*
X30254068Y-53339298D01*
X30329611Y-53228737D01*
X30425608Y-53461069D01*
X30611950Y-53647736D01*
X30855543Y-53748885D01*
X31119300Y-53749115D01*
X31363069Y-53648392D01*
X31549736Y-53462050D01*
X31650885Y-53218457D01*
X31651115Y-52954700D01*
X31550392Y-52710931D01*
X31364050Y-52524264D01*
X31120457Y-52423115D01*
X30856700Y-52422885D01*
X30612931Y-52523608D01*
X30426264Y-52709950D01*
X30366111Y-52854814D01*
X30366111Y-51984037D01*
X30380885Y-51948457D01*
X30381115Y-51684700D01*
X30366111Y-51648387D01*
X30366111Y-51574000D01*
X30340799Y-51439480D01*
X30261298Y-51315932D01*
X30189056Y-51266572D01*
X30279736Y-51176050D01*
X30380885Y-50932457D01*
X30381115Y-50668700D01*
X30280392Y-50424931D01*
X30094050Y-50238264D01*
X29850457Y-50137115D01*
X29586700Y-50136885D01*
X29342931Y-50237608D01*
X29156264Y-50423950D01*
X29097279Y-50566000D01*
X28588441Y-50566000D01*
X28594111Y-50538000D01*
X28594111Y-49538000D01*
X28568799Y-49403480D01*
X28489298Y-49279932D01*
X28367994Y-49197049D01*
X28316783Y-49186678D01*
X28330148Y-49178078D01*
X28413031Y-49056774D01*
X28442191Y-48912780D01*
X28442191Y-48115220D01*
X28416879Y-47980700D01*
X28337378Y-47857152D01*
X28316292Y-47842745D01*
X28358520Y-47834799D01*
X28482068Y-47755298D01*
X28564951Y-47633994D01*
X28594111Y-47490000D01*
X28594111Y-46490000D01*
X28568799Y-46355480D01*
X28489298Y-46231932D01*
X28367994Y-46149049D01*
X28316783Y-46138678D01*
X28330148Y-46130078D01*
X28413031Y-46008774D01*
X28442191Y-45864780D01*
X28442191Y-45067220D01*
X28416879Y-44932700D01*
X28337378Y-44809152D01*
X28216074Y-44726269D01*
X28072080Y-44697109D01*
X27274520Y-44697109D01*
X27140000Y-44722421D01*
X27016452Y-44801922D01*
X26933569Y-44923226D01*
X26924719Y-44966927D01*
X26918279Y-44932700D01*
X26838778Y-44809152D01*
X26717474Y-44726269D01*
X26573480Y-44697109D01*
X26019803Y-44697109D01*
X26595456Y-44121456D01*
X26728338Y-43922585D01*
X26741185Y-43858000D01*
X26775000Y-43688000D01*
X26775000Y-43564111D01*
X27062000Y-43564111D01*
X27196520Y-43538799D01*
X27320068Y-43459298D01*
X27402951Y-43337994D01*
X27432111Y-43194000D01*
X27432111Y-42949903D01*
X27479776Y-42982471D01*
G36*
X26929721Y-45999300D02*
X27009222Y-46122848D01*
X27130526Y-46205731D01*
X27179881Y-46215726D01*
X27165932Y-46224702D01*
X27083049Y-46346006D01*
X27053889Y-46490000D01*
X27053889Y-47490000D01*
X27079201Y-47624520D01*
X27158702Y-47748068D01*
X27180315Y-47762835D01*
X27140000Y-47770421D01*
X27016452Y-47849922D01*
X26933569Y-47971226D01*
X26924719Y-48014927D01*
X26918279Y-47980700D01*
X26838778Y-47857152D01*
X26811970Y-47838835D01*
X26865682Y-47785123D01*
X26945000Y-47593634D01*
X26945000Y-47361250D01*
X26814750Y-47231000D01*
X26224000Y-47231000D01*
X26224000Y-47251000D01*
X25824000Y-47251000D01*
X25824000Y-47231000D01*
X25763000Y-47231000D01*
X25763000Y-46749000D01*
X25824000Y-46749000D01*
X25824000Y-46729000D01*
X26224000Y-46729000D01*
X26224000Y-46749000D01*
X26814750Y-46749000D01*
X26945000Y-46618750D01*
X26945000Y-46386366D01*
X26865682Y-46194877D01*
X26812889Y-46142084D01*
X26831548Y-46130078D01*
X26914431Y-46008774D01*
X26923281Y-45965073D01*
X26929721Y-45999300D01*
X26929721Y-45999300D01*
G37*
X26929721Y-45999300D02*
X27009222Y-46122848D01*
X27130526Y-46205731D01*
X27179881Y-46215726D01*
X27165932Y-46224702D01*
X27083049Y-46346006D01*
X27053889Y-46490000D01*
X27053889Y-47490000D01*
X27079201Y-47624520D01*
X27158702Y-47748068D01*
X27180315Y-47762835D01*
X27140000Y-47770421D01*
X27016452Y-47849922D01*
X26933569Y-47971226D01*
X26924719Y-48014927D01*
X26918279Y-47980700D01*
X26838778Y-47857152D01*
X26811970Y-47838835D01*
X26865682Y-47785123D01*
X26945000Y-47593634D01*
X26945000Y-47361250D01*
X26814750Y-47231000D01*
X26224000Y-47231000D01*
X26224000Y-47251000D01*
X25824000Y-47251000D01*
X25824000Y-47231000D01*
X25763000Y-47231000D01*
X25763000Y-46749000D01*
X25824000Y-46749000D01*
X25824000Y-46729000D01*
X26224000Y-46729000D01*
X26224000Y-46749000D01*
X26814750Y-46749000D01*
X26945000Y-46618750D01*
X26945000Y-46386366D01*
X26865682Y-46194877D01*
X26812889Y-46142084D01*
X26831548Y-46130078D01*
X26914431Y-46008774D01*
X26923281Y-45965073D01*
X26929721Y-45999300D01*
G36*
X34531000Y-43858000D02*
X34551000Y-43858000D01*
X34551000Y-44258000D01*
X34531000Y-44258000D01*
X34531000Y-44848750D01*
X34661250Y-44979000D01*
X34893634Y-44979000D01*
X35085123Y-44899682D01*
X35137916Y-44846889D01*
X35149922Y-44865548D01*
X35271226Y-44948431D01*
X35314927Y-44957281D01*
X35280700Y-44963721D01*
X35157152Y-45043222D01*
X35074269Y-45164526D01*
X35064274Y-45213881D01*
X35055298Y-45199932D01*
X34933994Y-45117049D01*
X34790000Y-45087889D01*
X33790000Y-45087889D01*
X33762000Y-45093158D01*
X33762000Y-44979000D01*
X33918750Y-44979000D01*
X34049000Y-44848750D01*
X34049000Y-44258000D01*
X34029000Y-44258000D01*
X34029000Y-43858000D01*
X34049000Y-43858000D01*
X34049000Y-43797000D01*
X34531000Y-43797000D01*
X34531000Y-43858000D01*
X34531000Y-43858000D01*
G37*
X34531000Y-43858000D02*
X34551000Y-43858000D01*
X34551000Y-44258000D01*
X34531000Y-44258000D01*
X34531000Y-44848750D01*
X34661250Y-44979000D01*
X34893634Y-44979000D01*
X35085123Y-44899682D01*
X35137916Y-44846889D01*
X35149922Y-44865548D01*
X35271226Y-44948431D01*
X35314927Y-44957281D01*
X35280700Y-44963721D01*
X35157152Y-45043222D01*
X35074269Y-45164526D01*
X35064274Y-45213881D01*
X35055298Y-45199932D01*
X34933994Y-45117049D01*
X34790000Y-45087889D01*
X33790000Y-45087889D01*
X33762000Y-45093158D01*
X33762000Y-44979000D01*
X33918750Y-44979000D01*
X34049000Y-44848750D01*
X34049000Y-44258000D01*
X34029000Y-44258000D01*
X34029000Y-43858000D01*
X34049000Y-43858000D01*
X34049000Y-43797000D01*
X34531000Y-43797000D01*
X34531000Y-43858000D01*
G36*
X34289889Y-42776801D02*
X34289889Y-43137000D01*
X34048998Y-43137000D01*
X34048998Y-43267248D01*
X33918750Y-43137000D01*
X33686366Y-43137000D01*
X33494877Y-43216318D01*
X33348317Y-43362878D01*
X33284671Y-43516535D01*
X32746000Y-42977864D01*
X32746000Y-42613658D01*
X32819736Y-42540050D01*
X32920885Y-42296457D01*
X32921115Y-42032700D01*
X32905375Y-41994607D01*
X32960210Y-41984289D01*
X33083758Y-41904788D01*
X33166641Y-41783484D01*
X33188522Y-41675434D01*
X34289889Y-42776801D01*
X34289889Y-42776801D01*
G37*
X34289889Y-42776801D02*
X34289889Y-43137000D01*
X34048998Y-43137000D01*
X34048998Y-43267248D01*
X33918750Y-43137000D01*
X33686366Y-43137000D01*
X33494877Y-43216318D01*
X33348317Y-43362878D01*
X33284671Y-43516535D01*
X32746000Y-42977864D01*
X32746000Y-42613658D01*
X32819736Y-42540050D01*
X32920885Y-42296457D01*
X32921115Y-42032700D01*
X32905375Y-41994607D01*
X32960210Y-41984289D01*
X33083758Y-41904788D01*
X33166641Y-41783484D01*
X33188522Y-41675434D01*
X34289889Y-42776801D01*
G36*
X31873889Y-31380000D02*
X31899201Y-31514520D01*
X31978702Y-31638068D01*
X32100006Y-31720951D01*
X32244000Y-31750111D01*
X32307238Y-31750111D01*
X32245000Y-31900367D01*
X32245000Y-34680750D01*
X32375250Y-34811000D01*
X35573000Y-34811000D01*
X35573000Y-34791000D01*
X36055000Y-34791000D01*
X36055000Y-34811000D01*
X36075000Y-34811000D01*
X36075000Y-35293000D01*
X36055000Y-35293000D01*
X36055000Y-35313000D01*
X35573000Y-35313000D01*
X35573000Y-35293000D01*
X32375250Y-35293000D01*
X32245000Y-35423250D01*
X32245000Y-35879421D01*
X32126050Y-35760264D01*
X31882457Y-35659115D01*
X31777159Y-35659023D01*
X31587068Y-35468932D01*
X31491215Y-35404885D01*
X31428750Y-35363147D01*
X31242000Y-35326000D01*
X26670000Y-35326000D01*
X26483250Y-35363147D01*
X26420785Y-35404885D01*
X26420608Y-35405004D01*
X26284700Y-35404885D01*
X26040931Y-35505608D01*
X25854264Y-35691950D01*
X25753115Y-35935543D01*
X25752885Y-36199300D01*
X25853608Y-36443069D01*
X25985309Y-36575000D01*
X25401000Y-36575000D01*
X25401000Y-34219136D01*
X25816932Y-34635068D01*
X25975250Y-34740853D01*
X26162000Y-34778000D01*
X30988000Y-34778000D01*
X31174750Y-34740853D01*
X31333068Y-34635068D01*
X31841068Y-34127068D01*
X31856983Y-34103250D01*
X31946853Y-33968750D01*
X31984000Y-33782000D01*
X31984000Y-32961658D01*
X32057736Y-32888050D01*
X32158885Y-32644457D01*
X32159115Y-32380700D01*
X32058392Y-32136931D01*
X31872050Y-31950264D01*
X31628457Y-31849115D01*
X31364700Y-31848885D01*
X31342591Y-31858020D01*
X31332799Y-31805980D01*
X31253298Y-31682432D01*
X31173284Y-31627761D01*
X31558045Y-31243000D01*
X31873889Y-31243000D01*
X31873889Y-31380000D01*
X31873889Y-31380000D01*
G37*
X31873889Y-31380000D02*
X31899201Y-31514520D01*
X31978702Y-31638068D01*
X32100006Y-31720951D01*
X32244000Y-31750111D01*
X32307238Y-31750111D01*
X32245000Y-31900367D01*
X32245000Y-34680750D01*
X32375250Y-34811000D01*
X35573000Y-34811000D01*
X35573000Y-34791000D01*
X36055000Y-34791000D01*
X36055000Y-34811000D01*
X36075000Y-34811000D01*
X36075000Y-35293000D01*
X36055000Y-35293000D01*
X36055000Y-35313000D01*
X35573000Y-35313000D01*
X35573000Y-35293000D01*
X32375250Y-35293000D01*
X32245000Y-35423250D01*
X32245000Y-35879421D01*
X32126050Y-35760264D01*
X31882457Y-35659115D01*
X31777159Y-35659023D01*
X31587068Y-35468932D01*
X31491215Y-35404885D01*
X31428750Y-35363147D01*
X31242000Y-35326000D01*
X26670000Y-35326000D01*
X26483250Y-35363147D01*
X26420785Y-35404885D01*
X26420608Y-35405004D01*
X26284700Y-35404885D01*
X26040931Y-35505608D01*
X25854264Y-35691950D01*
X25753115Y-35935543D01*
X25752885Y-36199300D01*
X25853608Y-36443069D01*
X25985309Y-36575000D01*
X25401000Y-36575000D01*
X25401000Y-34219136D01*
X25816932Y-34635068D01*
X25975250Y-34740853D01*
X26162000Y-34778000D01*
X30988000Y-34778000D01*
X31174750Y-34740853D01*
X31333068Y-34635068D01*
X31841068Y-34127068D01*
X31856983Y-34103250D01*
X31946853Y-33968750D01*
X31984000Y-33782000D01*
X31984000Y-32961658D01*
X32057736Y-32888050D01*
X32158885Y-32644457D01*
X32159115Y-32380700D01*
X32058392Y-32136931D01*
X31872050Y-31950264D01*
X31628457Y-31849115D01*
X31364700Y-31848885D01*
X31342591Y-31858020D01*
X31332799Y-31805980D01*
X31253298Y-31682432D01*
X31173284Y-31627761D01*
X31558045Y-31243000D01*
X31873889Y-31243000D01*
X31873889Y-31380000D01*
G36*
X34923000Y-29476366D02*
X34923000Y-30108750D01*
X35053250Y-30239000D01*
X35903000Y-30239000D01*
X35903000Y-30219000D01*
X36385000Y-30219000D01*
X36385000Y-30239000D01*
X36405000Y-30239000D01*
X36405000Y-30721000D01*
X36385000Y-30721000D01*
X36385000Y-30741000D01*
X35903000Y-30741000D01*
X35903000Y-30721000D01*
X35053250Y-30721000D01*
X34923000Y-30851250D01*
X34923000Y-31483000D01*
X33993253Y-31483000D01*
X34014111Y-31380000D01*
X34014111Y-29580000D01*
X34002727Y-29519503D01*
X34330000Y-29584601D01*
X34755927Y-29499879D01*
X34973470Y-29354521D01*
X34923000Y-29476366D01*
X34923000Y-29476366D01*
G37*
X34923000Y-29476366D02*
X34923000Y-30108750D01*
X35053250Y-30239000D01*
X35903000Y-30239000D01*
X35903000Y-30219000D01*
X36385000Y-30219000D01*
X36385000Y-30239000D01*
X36405000Y-30239000D01*
X36405000Y-30721000D01*
X36385000Y-30721000D01*
X36385000Y-30741000D01*
X35903000Y-30741000D01*
X35903000Y-30721000D01*
X35053250Y-30721000D01*
X34923000Y-30851250D01*
X34923000Y-31483000D01*
X33993253Y-31483000D01*
X34014111Y-31380000D01*
X34014111Y-29580000D01*
X34002727Y-29519503D01*
X34330000Y-29584601D01*
X34755927Y-29499879D01*
X34973470Y-29354521D01*
X34923000Y-29476366D01*
G36*
X39253889Y-20839198D02*
X37666544Y-22426544D01*
X37533662Y-22625415D01*
X37487000Y-22860000D01*
X37487000Y-26340464D01*
X37263254Y-26245123D01*
X37071000Y-26324998D01*
X37071000Y-27699000D01*
X37091000Y-27699000D01*
X37091000Y-28181000D01*
X37071000Y-28181000D01*
X37071000Y-28201000D01*
X36589000Y-28201000D01*
X36589000Y-28181000D01*
X35559000Y-28181000D01*
X35559000Y-28681000D01*
X35711619Y-29059000D01*
X35340367Y-29059000D01*
X35215952Y-29110534D01*
X35358278Y-28897528D01*
X35443000Y-28471601D01*
X35443000Y-27408399D01*
X35358278Y-26982472D01*
X35136127Y-26650000D01*
X35364342Y-26650000D01*
X35437950Y-26723736D01*
X35681543Y-26824885D01*
X35710041Y-26824910D01*
X35559000Y-27199000D01*
X35559000Y-27699000D01*
X36589000Y-27699000D01*
X36589000Y-26324998D01*
X36476899Y-26278424D01*
X36477115Y-26030700D01*
X36376392Y-25786931D01*
X36190050Y-25600264D01*
X35946457Y-25499115D01*
X35682700Y-25498885D01*
X35438931Y-25599608D01*
X35364409Y-25674000D01*
X33215658Y-25674000D01*
X33142050Y-25600264D01*
X32898457Y-25499115D01*
X32634700Y-25498885D01*
X32390931Y-25599608D01*
X32316409Y-25674000D01*
X28448000Y-25674000D01*
X28261250Y-25711147D01*
X28149300Y-25785950D01*
X28102932Y-25816932D01*
X27941000Y-25978864D01*
X27941000Y-23876000D01*
X27882920Y-23584013D01*
X27882920Y-23584012D01*
X27717522Y-23336478D01*
X26701522Y-22320478D01*
X26453988Y-22155080D01*
X26405544Y-22145444D01*
X26162000Y-22097000D01*
X23976469Y-22097000D01*
X23906753Y-21992663D01*
X23631805Y-21808948D01*
X31216678Y-21808948D01*
X31499705Y-22493926D01*
X32023318Y-23018453D01*
X32707801Y-23302676D01*
X33448948Y-23303322D01*
X34133926Y-23020295D01*
X34658453Y-22496682D01*
X34942676Y-21812199D01*
X34943322Y-21071052D01*
X34660295Y-20386074D01*
X34136682Y-19861547D01*
X33452199Y-19577324D01*
X32711052Y-19576678D01*
X32026074Y-19859705D01*
X31501547Y-20383318D01*
X31217324Y-21067801D01*
X31216678Y-21808948D01*
X23631805Y-21808948D01*
X23508815Y-21726769D01*
X23101002Y-21645650D01*
X23101002Y-21566626D01*
X23315300Y-21666063D01*
X23807359Y-21447685D01*
X24178393Y-21057627D01*
X24321378Y-20771326D01*
X24243380Y-20561000D01*
X23101000Y-20561000D01*
X23101000Y-20581000D01*
X22619000Y-20581000D01*
X22619000Y-20561000D01*
X22599000Y-20561000D01*
X22599000Y-20079000D01*
X22619000Y-20079000D01*
X22619000Y-20059000D01*
X23101000Y-20059000D01*
X23101000Y-20079000D01*
X24243380Y-20079000D01*
X24321378Y-19868674D01*
X24178393Y-19582373D01*
X24088623Y-19488000D01*
X39253889Y-19488000D01*
X39253889Y-20839198D01*
X39253889Y-20839198D01*
G37*
X39253889Y-20839198D02*
X37666544Y-22426544D01*
X37533662Y-22625415D01*
X37487000Y-22860000D01*
X37487000Y-26340464D01*
X37263254Y-26245123D01*
X37071000Y-26324998D01*
X37071000Y-27699000D01*
X37091000Y-27699000D01*
X37091000Y-28181000D01*
X37071000Y-28181000D01*
X37071000Y-28201000D01*
X36589000Y-28201000D01*
X36589000Y-28181000D01*
X35559000Y-28181000D01*
X35559000Y-28681000D01*
X35711619Y-29059000D01*
X35340367Y-29059000D01*
X35215952Y-29110534D01*
X35358278Y-28897528D01*
X35443000Y-28471601D01*
X35443000Y-27408399D01*
X35358278Y-26982472D01*
X35136127Y-26650000D01*
X35364342Y-26650000D01*
X35437950Y-26723736D01*
X35681543Y-26824885D01*
X35710041Y-26824910D01*
X35559000Y-27199000D01*
X35559000Y-27699000D01*
X36589000Y-27699000D01*
X36589000Y-26324998D01*
X36476899Y-26278424D01*
X36477115Y-26030700D01*
X36376392Y-25786931D01*
X36190050Y-25600264D01*
X35946457Y-25499115D01*
X35682700Y-25498885D01*
X35438931Y-25599608D01*
X35364409Y-25674000D01*
X33215658Y-25674000D01*
X33142050Y-25600264D01*
X32898457Y-25499115D01*
X32634700Y-25498885D01*
X32390931Y-25599608D01*
X32316409Y-25674000D01*
X28448000Y-25674000D01*
X28261250Y-25711147D01*
X28149300Y-25785950D01*
X28102932Y-25816932D01*
X27941000Y-25978864D01*
X27941000Y-23876000D01*
X27882920Y-23584013D01*
X27882920Y-23584012D01*
X27717522Y-23336478D01*
X26701522Y-22320478D01*
X26453988Y-22155080D01*
X26405544Y-22145444D01*
X26162000Y-22097000D01*
X23976469Y-22097000D01*
X23906753Y-21992663D01*
X23631805Y-21808948D01*
X31216678Y-21808948D01*
X31499705Y-22493926D01*
X32023318Y-23018453D01*
X32707801Y-23302676D01*
X33448948Y-23303322D01*
X34133926Y-23020295D01*
X34658453Y-22496682D01*
X34942676Y-21812199D01*
X34943322Y-21071052D01*
X34660295Y-20386074D01*
X34136682Y-19861547D01*
X33452199Y-19577324D01*
X32711052Y-19576678D01*
X32026074Y-19859705D01*
X31501547Y-20383318D01*
X31217324Y-21067801D01*
X31216678Y-21808948D01*
X23631805Y-21808948D01*
X23508815Y-21726769D01*
X23101002Y-21645650D01*
X23101002Y-21566626D01*
X23315300Y-21666063D01*
X23807359Y-21447685D01*
X24178393Y-21057627D01*
X24321378Y-20771326D01*
X24243380Y-20561000D01*
X23101000Y-20561000D01*
X23101000Y-20581000D01*
X22619000Y-20581000D01*
X22619000Y-20561000D01*
X22599000Y-20561000D01*
X22599000Y-20079000D01*
X22619000Y-20079000D01*
X22619000Y-20059000D01*
X23101000Y-20059000D01*
X23101000Y-20079000D01*
X24243380Y-20079000D01*
X24321378Y-19868674D01*
X24178393Y-19582373D01*
X24088623Y-19488000D01*
X39253889Y-19488000D01*
X39253889Y-20839198D01*
M02*
