G04 #@! TF.FileFunction,Copper,L2,Bot,Signal*
%FSLAX46Y46*%
G04 Gerber Fmt 4.6, Leading zero omitted, Abs format (unit mm)*
G04 Created by KiCad (PCBNEW 4.0.7) date 02/19/18 11:26:27*
%MOMM*%
%LPD*%
G01*
G04 APERTURE LIST*
%ADD10C,0.100000*%
%ADD11R,2.032000X1.727200*%
%ADD12O,2.032000X1.727200*%
%ADD13R,0.600000X1.500000*%
%ADD14R,1.270000X0.965200*%
%ADD15O,1.500000X2.500000*%
%ADD16C,3.000000*%
%ADD17R,0.600000X1.550000*%
%ADD18O,1.000000X1.524000*%
%ADD19R,2.032000X2.032000*%
%ADD20O,2.032000X2.032000*%
%ADD21R,1.000000X0.800000*%
%ADD22R,0.965200X1.270000*%
%ADD23R,2.200000X0.600000*%
%ADD24R,0.600000X1.300000*%
%ADD25R,0.600000X1.000000*%
%ADD26R,1.000000X0.600000*%
%ADD27R,0.800000X1.000000*%
%ADD28R,1.500000X1.800000*%
%ADD29O,1.500000X1.800000*%
%ADD30C,0.600000*%
%ADD31C,0.800000*%
%ADD32C,0.250000*%
%ADD33C,0.500000*%
%ADD34C,0.800000*%
%ADD35C,0.026000*%
G04 APERTURE END LIST*
D10*
D11*
X22860000Y-71120000D03*
D12*
X22860000Y-68580000D03*
X22860000Y-66040000D03*
X22860000Y-63500000D03*
X22860000Y-60960000D03*
X22860000Y-58420000D03*
X22860000Y-55880000D03*
X22860000Y-53340000D03*
X22860000Y-50800000D03*
X22860000Y-48260000D03*
X22860000Y-45720000D03*
X22860000Y-43180000D03*
X22860000Y-40640000D03*
X22860000Y-38100000D03*
X22860000Y-35560000D03*
X22860000Y-33020000D03*
X22860000Y-30480000D03*
X22860000Y-27940000D03*
X22860000Y-25400000D03*
X22860000Y-22860000D03*
X22860000Y-20320000D03*
D13*
X26035000Y-66134000D03*
X27305000Y-66134000D03*
X28575000Y-66134000D03*
X29845000Y-66134000D03*
X31115000Y-66134000D03*
X32385000Y-66134000D03*
X33655000Y-66134000D03*
X34925000Y-66134000D03*
X34925000Y-71534000D03*
X33655000Y-71534000D03*
X32385000Y-71534000D03*
X31115000Y-71534000D03*
X29845000Y-71534000D03*
X28575000Y-71534000D03*
X27305000Y-71534000D03*
X26035000Y-71534000D03*
D14*
X29972000Y-29972000D03*
X29972000Y-31242000D03*
X29972000Y-32512000D03*
D15*
X36830000Y-27940000D03*
X34330000Y-27940000D03*
X31830000Y-27940000D03*
X29330000Y-27940000D03*
D16*
X33080000Y-21440000D03*
D10*
G36*
X30247398Y-55098466D02*
X30070621Y-54921689D01*
X30989860Y-54002450D01*
X31166637Y-54179227D01*
X30247398Y-55098466D01*
X30247398Y-55098466D01*
G37*
G36*
X29893845Y-54744913D02*
X29717068Y-54568136D01*
X30636307Y-53648897D01*
X30813084Y-53825674D01*
X29893845Y-54744913D01*
X29893845Y-54744913D01*
G37*
G36*
X29540291Y-54391359D02*
X29363514Y-54214582D01*
X30282753Y-53295343D01*
X30459530Y-53472120D01*
X29540291Y-54391359D01*
X29540291Y-54391359D01*
G37*
G36*
X29186738Y-54037806D02*
X29009961Y-53861029D01*
X29929200Y-52941790D01*
X30105977Y-53118567D01*
X29186738Y-54037806D01*
X29186738Y-54037806D01*
G37*
G36*
X28833185Y-53684253D02*
X28656408Y-53507476D01*
X29575647Y-52588237D01*
X29752424Y-52765014D01*
X28833185Y-53684253D01*
X28833185Y-53684253D01*
G37*
G36*
X28479631Y-53330699D02*
X28302854Y-53153922D01*
X29222093Y-52234683D01*
X29398870Y-52411460D01*
X28479631Y-53330699D01*
X28479631Y-53330699D01*
G37*
G36*
X28126078Y-52977146D02*
X27949301Y-52800369D01*
X28868540Y-51881130D01*
X29045317Y-52057907D01*
X28126078Y-52977146D01*
X28126078Y-52977146D01*
G37*
G36*
X27772524Y-52623592D02*
X27595747Y-52446815D01*
X28514986Y-51527576D01*
X28691763Y-51704353D01*
X27772524Y-52623592D01*
X27772524Y-52623592D01*
G37*
G36*
X27418971Y-52270039D02*
X27242194Y-52093262D01*
X28161433Y-51174023D01*
X28338210Y-51350800D01*
X27418971Y-52270039D01*
X27418971Y-52270039D01*
G37*
G36*
X27065418Y-51916486D02*
X26888641Y-51739709D01*
X27807880Y-50820470D01*
X27984657Y-50997247D01*
X27065418Y-51916486D01*
X27065418Y-51916486D01*
G37*
G36*
X26711864Y-51562932D02*
X26535087Y-51386155D01*
X27454326Y-50466916D01*
X27631103Y-50643693D01*
X26711864Y-51562932D01*
X26711864Y-51562932D01*
G37*
G36*
X26358311Y-51209379D02*
X26181534Y-51032602D01*
X27100773Y-50113363D01*
X27277550Y-50290140D01*
X26358311Y-51209379D01*
X26358311Y-51209379D01*
G37*
G36*
X26181534Y-48027398D02*
X26358311Y-47850621D01*
X27277550Y-48769860D01*
X27100773Y-48946637D01*
X26181534Y-48027398D01*
X26181534Y-48027398D01*
G37*
G36*
X26535087Y-47673845D02*
X26711864Y-47497068D01*
X27631103Y-48416307D01*
X27454326Y-48593084D01*
X26535087Y-47673845D01*
X26535087Y-47673845D01*
G37*
G36*
X26888641Y-47320291D02*
X27065418Y-47143514D01*
X27984657Y-48062753D01*
X27807880Y-48239530D01*
X26888641Y-47320291D01*
X26888641Y-47320291D01*
G37*
G36*
X27242194Y-46966738D02*
X27418971Y-46789961D01*
X28338210Y-47709200D01*
X28161433Y-47885977D01*
X27242194Y-46966738D01*
X27242194Y-46966738D01*
G37*
G36*
X27595747Y-46613185D02*
X27772524Y-46436408D01*
X28691763Y-47355647D01*
X28514986Y-47532424D01*
X27595747Y-46613185D01*
X27595747Y-46613185D01*
G37*
G36*
X27949301Y-46259631D02*
X28126078Y-46082854D01*
X29045317Y-47002093D01*
X28868540Y-47178870D01*
X27949301Y-46259631D01*
X27949301Y-46259631D01*
G37*
G36*
X28302854Y-45906078D02*
X28479631Y-45729301D01*
X29398870Y-46648540D01*
X29222093Y-46825317D01*
X28302854Y-45906078D01*
X28302854Y-45906078D01*
G37*
G36*
X28656408Y-45552524D02*
X28833185Y-45375747D01*
X29752424Y-46294986D01*
X29575647Y-46471763D01*
X28656408Y-45552524D01*
X28656408Y-45552524D01*
G37*
G36*
X29009961Y-45198971D02*
X29186738Y-45022194D01*
X30105977Y-45941433D01*
X29929200Y-46118210D01*
X29009961Y-45198971D01*
X29009961Y-45198971D01*
G37*
G36*
X29363514Y-44845418D02*
X29540291Y-44668641D01*
X30459530Y-45587880D01*
X30282753Y-45764657D01*
X29363514Y-44845418D01*
X29363514Y-44845418D01*
G37*
G36*
X29717068Y-44491864D02*
X29893845Y-44315087D01*
X30813084Y-45234326D01*
X30636307Y-45411103D01*
X29717068Y-44491864D01*
X29717068Y-44491864D01*
G37*
G36*
X30070621Y-44138311D02*
X30247398Y-43961534D01*
X31166637Y-44880773D01*
X30989860Y-45057550D01*
X30070621Y-44138311D01*
X30070621Y-44138311D01*
G37*
G36*
X32510140Y-45057550D02*
X32333363Y-44880773D01*
X33252602Y-43961534D01*
X33429379Y-44138311D01*
X32510140Y-45057550D01*
X32510140Y-45057550D01*
G37*
G36*
X32863693Y-45411103D02*
X32686916Y-45234326D01*
X33606155Y-44315087D01*
X33782932Y-44491864D01*
X32863693Y-45411103D01*
X32863693Y-45411103D01*
G37*
G36*
X33217247Y-45764657D02*
X33040470Y-45587880D01*
X33959709Y-44668641D01*
X34136486Y-44845418D01*
X33217247Y-45764657D01*
X33217247Y-45764657D01*
G37*
G36*
X33570800Y-46118210D02*
X33394023Y-45941433D01*
X34313262Y-45022194D01*
X34490039Y-45198971D01*
X33570800Y-46118210D01*
X33570800Y-46118210D01*
G37*
G36*
X33924353Y-46471763D02*
X33747576Y-46294986D01*
X34666815Y-45375747D01*
X34843592Y-45552524D01*
X33924353Y-46471763D01*
X33924353Y-46471763D01*
G37*
G36*
X34277907Y-46825317D02*
X34101130Y-46648540D01*
X35020369Y-45729301D01*
X35197146Y-45906078D01*
X34277907Y-46825317D01*
X34277907Y-46825317D01*
G37*
G36*
X34631460Y-47178870D02*
X34454683Y-47002093D01*
X35373922Y-46082854D01*
X35550699Y-46259631D01*
X34631460Y-47178870D01*
X34631460Y-47178870D01*
G37*
G36*
X34985014Y-47532424D02*
X34808237Y-47355647D01*
X35727476Y-46436408D01*
X35904253Y-46613185D01*
X34985014Y-47532424D01*
X34985014Y-47532424D01*
G37*
G36*
X35338567Y-47885977D02*
X35161790Y-47709200D01*
X36081029Y-46789961D01*
X36257806Y-46966738D01*
X35338567Y-47885977D01*
X35338567Y-47885977D01*
G37*
G36*
X35692120Y-48239530D02*
X35515343Y-48062753D01*
X36434582Y-47143514D01*
X36611359Y-47320291D01*
X35692120Y-48239530D01*
X35692120Y-48239530D01*
G37*
G36*
X36045674Y-48593084D02*
X35868897Y-48416307D01*
X36788136Y-47497068D01*
X36964913Y-47673845D01*
X36045674Y-48593084D01*
X36045674Y-48593084D01*
G37*
G36*
X36399227Y-48946637D02*
X36222450Y-48769860D01*
X37141689Y-47850621D01*
X37318466Y-48027398D01*
X36399227Y-48946637D01*
X36399227Y-48946637D01*
G37*
G36*
X36222450Y-50290140D02*
X36399227Y-50113363D01*
X37318466Y-51032602D01*
X37141689Y-51209379D01*
X36222450Y-50290140D01*
X36222450Y-50290140D01*
G37*
G36*
X35868897Y-50643693D02*
X36045674Y-50466916D01*
X36964913Y-51386155D01*
X36788136Y-51562932D01*
X35868897Y-50643693D01*
X35868897Y-50643693D01*
G37*
G36*
X35515343Y-50997247D02*
X35692120Y-50820470D01*
X36611359Y-51739709D01*
X36434582Y-51916486D01*
X35515343Y-50997247D01*
X35515343Y-50997247D01*
G37*
G36*
X35161790Y-51350800D02*
X35338567Y-51174023D01*
X36257806Y-52093262D01*
X36081029Y-52270039D01*
X35161790Y-51350800D01*
X35161790Y-51350800D01*
G37*
G36*
X34808237Y-51704353D02*
X34985014Y-51527576D01*
X35904253Y-52446815D01*
X35727476Y-52623592D01*
X34808237Y-51704353D01*
X34808237Y-51704353D01*
G37*
G36*
X34454683Y-52057907D02*
X34631460Y-51881130D01*
X35550699Y-52800369D01*
X35373922Y-52977146D01*
X34454683Y-52057907D01*
X34454683Y-52057907D01*
G37*
G36*
X34101130Y-52411460D02*
X34277907Y-52234683D01*
X35197146Y-53153922D01*
X35020369Y-53330699D01*
X34101130Y-52411460D01*
X34101130Y-52411460D01*
G37*
G36*
X33747576Y-52765014D02*
X33924353Y-52588237D01*
X34843592Y-53507476D01*
X34666815Y-53684253D01*
X33747576Y-52765014D01*
X33747576Y-52765014D01*
G37*
G36*
X33394023Y-53118567D02*
X33570800Y-52941790D01*
X34490039Y-53861029D01*
X34313262Y-54037806D01*
X33394023Y-53118567D01*
X33394023Y-53118567D01*
G37*
G36*
X33040470Y-53472120D02*
X33217247Y-53295343D01*
X34136486Y-54214582D01*
X33959709Y-54391359D01*
X33040470Y-53472120D01*
X33040470Y-53472120D01*
G37*
G36*
X32686916Y-53825674D02*
X32863693Y-53648897D01*
X33782932Y-54568136D01*
X33606155Y-54744913D01*
X32686916Y-53825674D01*
X32686916Y-53825674D01*
G37*
G36*
X32333363Y-54179227D02*
X32510140Y-54002450D01*
X33429379Y-54921689D01*
X33252602Y-55098466D01*
X32333363Y-54179227D01*
X32333363Y-54179227D01*
G37*
D17*
X35433000Y-39530000D03*
X34163000Y-39530000D03*
X32893000Y-39530000D03*
X31623000Y-39530000D03*
X31623000Y-34130000D03*
X32893000Y-34130000D03*
X34163000Y-34130000D03*
X35433000Y-34130000D03*
D18*
X37084000Y-60452000D03*
X35584000Y-60452000D03*
X34084000Y-60452000D03*
X32584000Y-60452000D03*
X31084000Y-60452000D03*
X29584000Y-60452000D03*
D19*
X25400000Y-25400000D03*
D20*
X25400000Y-27940000D03*
D21*
X27432000Y-28078000D03*
X27432000Y-26278000D03*
D22*
X34290000Y-58674000D03*
X35560000Y-58674000D03*
X36830000Y-58674000D03*
D23*
X26416000Y-55950000D03*
X26416000Y-57150000D03*
X26416000Y-58350000D03*
D24*
X30353000Y-39530000D03*
X29083000Y-39530000D03*
X27813000Y-39530000D03*
X26543000Y-39530000D03*
X26543000Y-34130000D03*
X27813000Y-34130000D03*
X29083000Y-34130000D03*
X30353000Y-34130000D03*
D14*
X32258000Y-32512000D03*
X32258000Y-31242000D03*
X32258000Y-29972000D03*
X35306000Y-32512000D03*
X35306000Y-31242000D03*
X35306000Y-29972000D03*
X26924000Y-29972000D03*
X26924000Y-31242000D03*
X26924000Y-32512000D03*
X29210000Y-37465000D03*
X29210000Y-36195000D03*
X27178000Y-36195000D03*
X27178000Y-37465000D03*
D25*
X31258000Y-42672000D03*
X33258000Y-42672000D03*
D26*
X38354000Y-48752000D03*
X38354000Y-46752000D03*
D25*
X30750000Y-56134000D03*
X32750000Y-56134000D03*
D23*
X37338000Y-70542000D03*
X37338000Y-69342000D03*
X37338000Y-68142000D03*
D27*
X31380000Y-62230000D03*
X29580000Y-62230000D03*
D21*
X27432000Y-63638000D03*
X27432000Y-61838000D03*
D28*
X28956000Y-64262000D03*
D29*
X31496000Y-64262000D03*
X34036000Y-64262000D03*
X36576000Y-64262000D03*
D11*
X40640000Y-20320000D03*
D12*
X40640000Y-22860000D03*
X40640000Y-25400000D03*
X40640000Y-27940000D03*
X40640000Y-30480000D03*
X40640000Y-33020000D03*
X40640000Y-35560000D03*
X40640000Y-38100000D03*
X40640000Y-40640000D03*
X40640000Y-43180000D03*
X40640000Y-45720000D03*
X40640000Y-48260000D03*
X40640000Y-50800000D03*
X40640000Y-53340000D03*
X40640000Y-55880000D03*
X40640000Y-58420000D03*
X40640000Y-60960000D03*
X40640000Y-63500000D03*
X40640000Y-66040000D03*
X40640000Y-68580000D03*
X40640000Y-71120000D03*
D30*
X35052000Y-55626000D03*
X33782000Y-55372000D03*
X29464000Y-47498000D03*
X35814000Y-67310000D03*
X27940000Y-67564000D03*
X27178000Y-69850000D03*
X27940000Y-69850000D03*
X32512000Y-69850000D03*
X31750000Y-69850000D03*
X30988000Y-69850000D03*
X30226000Y-69850000D03*
X29464000Y-69850000D03*
X28702000Y-69850000D03*
D31*
X35306000Y-69088000D03*
D30*
X26162000Y-67310000D03*
X26162000Y-53594000D03*
X37973000Y-50038000D03*
X31750000Y-37338000D03*
X31750000Y-38100000D03*
X27178000Y-56896000D03*
X26162000Y-56896000D03*
X34163000Y-39530000D03*
X33274000Y-43180000D03*
X35052000Y-34798000D03*
X31750000Y-34798000D03*
X26670000Y-35052000D03*
X33528000Y-49530000D03*
X30226000Y-57658000D03*
X30226000Y-59182000D03*
X35306000Y-63246000D03*
X37338000Y-66802000D03*
X29718000Y-51816000D03*
X30988000Y-50292000D03*
D31*
X32893000Y-40513000D03*
X37592000Y-30734000D03*
D30*
X30734000Y-54864000D03*
D31*
X36068000Y-56896000D03*
D30*
X32512000Y-48768000D03*
X32512000Y-50292000D03*
X30988000Y-48768000D03*
X29718000Y-56642000D03*
X32258000Y-51562000D03*
X33528000Y-69596000D03*
X32258000Y-42164000D03*
X33528000Y-46990000D03*
X37084000Y-46228000D03*
X35306000Y-40894000D03*
X35052000Y-48514000D03*
X36322000Y-49784000D03*
X35052000Y-57404000D03*
X23876000Y-44450000D03*
X25146000Y-61468000D03*
X25908000Y-45720000D03*
X30988000Y-53086000D03*
X29718000Y-50800000D03*
X30734000Y-46228000D03*
X29210000Y-43434000D03*
D31*
X34290000Y-58420000D03*
D30*
X29718000Y-42672000D03*
X30734000Y-47244000D03*
X26416000Y-36068000D03*
X31750000Y-36322000D03*
X25654000Y-31750000D03*
X31496000Y-32512000D03*
X32766000Y-26162000D03*
X35814000Y-26162000D03*
X26924000Y-32258000D03*
X28194000Y-29972000D03*
X32766000Y-68326000D03*
X31750000Y-68326000D03*
X29972000Y-68580000D03*
D32*
X33234924Y-54196905D02*
X33782000Y-54743981D01*
X33782000Y-54743981D02*
X33782000Y-55372000D01*
X29972000Y-48006000D02*
X31750000Y-48006000D01*
X29464000Y-47498000D02*
X29972000Y-48006000D01*
X28933670Y-51285669D02*
X28933670Y-50060330D01*
X29464000Y-49530000D02*
X31750000Y-49530000D01*
X28933670Y-50060330D02*
X29464000Y-49530000D01*
X32572010Y-53533991D02*
X32572010Y-52892010D01*
X32572010Y-53533991D02*
X33234924Y-54196905D01*
X31496000Y-51054000D02*
X31496000Y-51816000D01*
X31750000Y-49530000D02*
X31750000Y-50800000D01*
X31750000Y-50800000D02*
X31496000Y-51054000D01*
X32572010Y-52892010D02*
X31496000Y-51816000D01*
X26162000Y-67310000D02*
X26416000Y-67564000D01*
X26416000Y-67564000D02*
X27940000Y-67564000D01*
X27940000Y-69850000D02*
X27178000Y-69850000D01*
X28702000Y-69850000D02*
X27940000Y-69850000D01*
X29464000Y-69850000D02*
X28702000Y-69850000D01*
X32512000Y-69850000D02*
X31750000Y-69850000D01*
X30988000Y-69850000D02*
X30226000Y-69850000D01*
D33*
X37338000Y-69342000D02*
X35560000Y-69342000D01*
X35560000Y-69342000D02*
X35306000Y-69088000D01*
X37084000Y-60452000D02*
X37084000Y-61976000D01*
X38862000Y-69342000D02*
X37338000Y-69342000D01*
X39116000Y-69088000D02*
X38862000Y-69342000D01*
X39116000Y-67056000D02*
X39116000Y-69088000D01*
X38354000Y-66294000D02*
X39116000Y-67056000D01*
X38354000Y-63246000D02*
X38354000Y-66294000D01*
X37084000Y-61976000D02*
X38354000Y-63246000D01*
D32*
X26035000Y-66134000D02*
X26035000Y-67183000D01*
X26035000Y-67183000D02*
X26162000Y-67310000D01*
X28143755Y-52075584D02*
X26625339Y-53594000D01*
X26625339Y-53594000D02*
X26162000Y-53594000D01*
X37973000Y-50038000D02*
X37846000Y-50038000D01*
X31750000Y-38100000D02*
X31750000Y-37338000D01*
X26416000Y-57150000D02*
X26924000Y-57150000D01*
X26924000Y-57150000D02*
X27178000Y-56896000D01*
X26162000Y-56896000D02*
X26416000Y-57150000D01*
X33258000Y-41672000D02*
X34163000Y-40767000D01*
X34163000Y-40767000D02*
X34163000Y-39530000D01*
X33258000Y-42672000D02*
X33258000Y-41672000D01*
X33274000Y-43180000D02*
X33258000Y-43164000D01*
X33258000Y-43164000D02*
X33258000Y-42672000D01*
X33270279Y-54161550D02*
X33234924Y-54196905D01*
X36416905Y-48045076D02*
X37709981Y-46752000D01*
X37709981Y-46752000D02*
X38354000Y-46752000D01*
X35052000Y-34798000D02*
X35433000Y-34417000D01*
X35433000Y-34417000D02*
X35433000Y-34130000D01*
X26543000Y-34925000D02*
X26670000Y-35052000D01*
X26543000Y-34925000D02*
X26543000Y-34130000D01*
X36416905Y-48045076D02*
X34931981Y-49530000D01*
X34931981Y-49530000D02*
X33528000Y-49530000D01*
D33*
X33528000Y-49530000D02*
X31750000Y-49530000D01*
X26543000Y-34130000D02*
X26543000Y-34925000D01*
D32*
X31750000Y-49530000D02*
X31750000Y-48006000D01*
X31750000Y-48006000D02*
X31750000Y-46348019D01*
X31750000Y-46348019D02*
X30265076Y-44863095D01*
X28143755Y-52075584D02*
X28933670Y-51285669D01*
X30226000Y-59182000D02*
X30226000Y-57658000D01*
X35306000Y-63246000D02*
X35306000Y-64770000D01*
X35306000Y-64770000D02*
X37338000Y-66802000D01*
X28497309Y-52429138D02*
X29110447Y-51816000D01*
X29110447Y-51816000D02*
X29718000Y-51816000D01*
D34*
X40640000Y-22860000D02*
X36576000Y-22860000D01*
X34330000Y-25106000D02*
X36576000Y-22860000D01*
X34330000Y-25106000D02*
X34330000Y-27940000D01*
D32*
X26416000Y-58350000D02*
X27756000Y-58350000D01*
X27756000Y-58350000D02*
X27940000Y-58166000D01*
X29204416Y-53136245D02*
X27940000Y-54400661D01*
X27940000Y-54400661D02*
X27940000Y-58166000D01*
X26600000Y-58166000D02*
X26416000Y-58350000D01*
X26973777Y-54659776D02*
X26973777Y-55576223D01*
X26973777Y-55576223D02*
X26600000Y-55950000D01*
X26600000Y-55950000D02*
X26416000Y-55950000D01*
X26973777Y-54659776D02*
X28850862Y-52782691D01*
X27790202Y-51722031D02*
X28448000Y-51064233D01*
X29464000Y-48768000D02*
X30988000Y-48768000D01*
X28448000Y-49784000D02*
X29464000Y-48768000D01*
X28448000Y-51064233D02*
X28448000Y-49784000D01*
X30988000Y-52070000D02*
X32004000Y-53086000D01*
X32004000Y-53673087D02*
X32881371Y-54550458D01*
X30988000Y-52070000D02*
X30988000Y-50292000D01*
X32004000Y-53086000D02*
X32004000Y-53673087D01*
X30618629Y-54550458D02*
X31067087Y-54102000D01*
X31067087Y-54102000D02*
X32432913Y-54102000D01*
X32432913Y-54102000D02*
X32881371Y-54550458D01*
D33*
X37338000Y-32479000D02*
X37338000Y-30988000D01*
X36322000Y-35052000D02*
X36830000Y-34544000D01*
X36322000Y-35560000D02*
X36322000Y-35052000D01*
X36830000Y-32987000D02*
X36830000Y-34544000D01*
X37338000Y-32479000D02*
X36830000Y-32987000D01*
X37338000Y-30988000D02*
X37592000Y-30734000D01*
D32*
X30618629Y-54550458D02*
X30618629Y-54748629D01*
X30618629Y-54748629D02*
X30734000Y-54864000D01*
X30480000Y-54689087D02*
X30618629Y-54550458D01*
X30750000Y-56134000D02*
X30226000Y-56134000D01*
X30226000Y-56134000D02*
X29972000Y-55880000D01*
X30618629Y-54550458D02*
X29972000Y-55197087D01*
X29972000Y-55197087D02*
X29972000Y-55880000D01*
D33*
X36830000Y-57658000D02*
X36830000Y-58674000D01*
X36068000Y-56896000D02*
X36830000Y-57658000D01*
D32*
X36770458Y-48398629D02*
X37123829Y-48752000D01*
X37123829Y-48752000D02*
X38354000Y-48752000D01*
X31258000Y-42672000D02*
X31258000Y-43870171D01*
X31258000Y-43870171D02*
X30618629Y-44509542D01*
D33*
X32893000Y-39530000D02*
X32893000Y-40513000D01*
X32893000Y-40513000D02*
X33020000Y-40640000D01*
D32*
X30353000Y-34130000D02*
X30353000Y-34925000D01*
X30988000Y-35560000D02*
X36322000Y-35560000D01*
X30353000Y-34925000D02*
X30988000Y-35560000D01*
D33*
X32893000Y-39530000D02*
X32893000Y-38481000D01*
X36322000Y-37592000D02*
X36322000Y-35560000D01*
X35814000Y-38100000D02*
X36322000Y-37592000D01*
X33274000Y-38100000D02*
X35814000Y-38100000D01*
X32893000Y-38481000D02*
X33274000Y-38100000D01*
D32*
X30618629Y-44509542D02*
X32512000Y-46402913D01*
X32512000Y-46402913D02*
X32512000Y-48768000D01*
X36770458Y-48398629D02*
X34115087Y-51054000D01*
X33274000Y-51054000D02*
X32512000Y-50292000D01*
X34115087Y-51054000D02*
X33274000Y-51054000D01*
X32881371Y-54550458D02*
X32432913Y-54102000D01*
X29464000Y-56642000D02*
X29718000Y-56642000D01*
X30265076Y-54196905D02*
X29464000Y-54997981D01*
X29464000Y-54997981D02*
X29464000Y-56642000D01*
X29464000Y-56642000D02*
X29464000Y-56896000D01*
X29464000Y-56896000D02*
X29464000Y-57150000D01*
X29464000Y-57150000D02*
X29464000Y-58928000D01*
X24892000Y-66548000D02*
X22860000Y-68580000D01*
X24892000Y-62992000D02*
X24892000Y-66548000D01*
X26162000Y-61722000D02*
X24892000Y-62992000D01*
X26162000Y-60960000D02*
X26162000Y-61722000D01*
X26416000Y-60706000D02*
X26162000Y-60960000D01*
X27686000Y-60706000D02*
X26416000Y-60706000D01*
X29464000Y-58928000D02*
X27686000Y-60706000D01*
X34295584Y-53136245D02*
X32721339Y-51562000D01*
X32721339Y-51562000D02*
X32258000Y-51562000D01*
X28956000Y-67818000D02*
X30226000Y-67818000D01*
X30226000Y-67818000D02*
X31496000Y-69088000D01*
X31496000Y-69088000D02*
X33020000Y-69088000D01*
X33020000Y-69088000D02*
X33528000Y-69596000D01*
X28575000Y-67437000D02*
X28956000Y-67818000D01*
X28575000Y-66134000D02*
X28575000Y-67437000D01*
X31084000Y-60452000D02*
X32354000Y-61722000D01*
X36576000Y-62484000D02*
X36576000Y-64262000D01*
X35814000Y-61722000D02*
X36576000Y-62484000D01*
X32354000Y-61722000D02*
X35814000Y-61722000D01*
X38608000Y-41910000D02*
X38608000Y-42318447D01*
X38608000Y-42318447D02*
X34649138Y-46277309D01*
X40640000Y-38100000D02*
X39116000Y-39624000D01*
X39116000Y-41402000D02*
X38608000Y-41910000D01*
X39116000Y-39624000D02*
X39116000Y-41402000D01*
X27432000Y-61838000D02*
X27824000Y-62230000D01*
X27824000Y-62230000D02*
X29580000Y-62230000D01*
X29580000Y-62230000D02*
X29580000Y-60456000D01*
X29580000Y-60456000D02*
X29584000Y-60452000D01*
X39116000Y-42164000D02*
X39116000Y-42517553D01*
X39116000Y-42517553D02*
X35002691Y-46630862D01*
X40640000Y-40640000D02*
X39116000Y-42164000D01*
X31623000Y-41529000D02*
X31623000Y-39530000D01*
X32258000Y-42164000D02*
X31623000Y-41529000D01*
X35356245Y-46984416D02*
X34588661Y-47752000D01*
X34290000Y-47752000D02*
X33528000Y-46990000D01*
X34588661Y-47752000D02*
X34290000Y-47752000D01*
X35356245Y-46984416D02*
X39160661Y-43180000D01*
X39160661Y-43180000D02*
X40640000Y-43180000D01*
X35433000Y-39530000D02*
X35433000Y-40767000D01*
X37078884Y-46222884D02*
X36824883Y-46222884D01*
X37084000Y-46228000D02*
X37078884Y-46222884D01*
X35433000Y-40767000D02*
X35306000Y-40894000D01*
X35709798Y-47337969D02*
X36824883Y-46222884D01*
X36824883Y-46222884D02*
X37327767Y-45720000D01*
X37327767Y-45720000D02*
X40640000Y-45720000D01*
X36063351Y-47691522D02*
X35240873Y-48514000D01*
X35240873Y-48514000D02*
X35052000Y-48514000D01*
X34084000Y-60452000D02*
X33274000Y-59642000D01*
X36322000Y-49784000D02*
X36322000Y-50212913D01*
X33782000Y-57404000D02*
X35052000Y-57404000D01*
X33274000Y-57912000D02*
X33782000Y-57404000D01*
X33274000Y-59642000D02*
X33274000Y-57912000D01*
X36770458Y-50661371D02*
X36322000Y-50212913D01*
X36770458Y-50661371D02*
X36909087Y-50800000D01*
X23876000Y-44450000D02*
X25146000Y-45720000D01*
X25146000Y-45720000D02*
X25908000Y-45720000D01*
X29911522Y-53843351D02*
X30668873Y-53086000D01*
X30668873Y-53086000D02*
X30988000Y-53086000D01*
X24384000Y-64516000D02*
X22860000Y-66040000D01*
X24384000Y-62738000D02*
X24384000Y-64516000D01*
X25146000Y-61976000D02*
X24384000Y-62738000D01*
X25146000Y-60960000D02*
X25146000Y-61468000D01*
X25146000Y-61468000D02*
X25146000Y-61976000D01*
X26416000Y-59690000D02*
X25146000Y-60960000D01*
X27940000Y-59690000D02*
X26416000Y-59690000D01*
X28956000Y-58674000D02*
X27940000Y-59690000D01*
X29911522Y-53843351D02*
X28956000Y-54798873D01*
X28956000Y-54798873D02*
X28956000Y-58674000D01*
X29966884Y-50800000D02*
X29718000Y-50800000D01*
X30474884Y-51308000D02*
X29966884Y-50800000D01*
X25400000Y-59182000D02*
X24384000Y-60198000D01*
X24384000Y-61976000D02*
X22860000Y-63500000D01*
X24384000Y-60198000D02*
X24384000Y-61976000D01*
X28448000Y-54599767D02*
X28448000Y-58420000D01*
X28448000Y-54599767D02*
X29557969Y-53489798D01*
X28448000Y-58420000D02*
X27686000Y-59182000D01*
X27686000Y-59182000D02*
X25400000Y-59182000D01*
X29557969Y-53489798D02*
X30474884Y-52572883D01*
X30474884Y-52572883D02*
X30474884Y-51308000D01*
X30474884Y-51308000D02*
X30474884Y-51302884D01*
X24384000Y-59436000D02*
X22860000Y-60960000D01*
X24384000Y-57658000D02*
X24384000Y-59436000D01*
X24892000Y-57150000D02*
X24384000Y-57658000D01*
X24892000Y-55372000D02*
X24892000Y-57150000D01*
X25400000Y-54864000D02*
X24892000Y-55372000D01*
X27436649Y-51368478D02*
X25400000Y-53405127D01*
X25400000Y-53405127D02*
X25400000Y-54864000D01*
X24384000Y-56896000D02*
X22860000Y-58420000D01*
X24384000Y-55118000D02*
X24384000Y-56896000D01*
X24892000Y-54610000D02*
X24384000Y-55118000D01*
X27083095Y-51014924D02*
X24892000Y-53206019D01*
X24892000Y-53206019D02*
X24892000Y-54610000D01*
X24384000Y-54356000D02*
X22860000Y-55880000D01*
X26729542Y-50661371D02*
X24384000Y-53006913D01*
X24384000Y-53006913D02*
X24384000Y-54356000D01*
X29210000Y-37465000D02*
X30353000Y-38608000D01*
X30353000Y-38608000D02*
X30353000Y-39530000D01*
X29304437Y-44609564D02*
X29304437Y-44355563D01*
X30353000Y-43307000D02*
X30353000Y-39530000D01*
X29304437Y-44355563D02*
X30353000Y-43307000D01*
X29911522Y-45216649D02*
X29304437Y-44609564D01*
X29304437Y-44609564D02*
X29210000Y-44515127D01*
X29210000Y-44515127D02*
X29177437Y-44482564D01*
X29177437Y-44482564D02*
X28796437Y-44101564D01*
X28796437Y-44101564D02*
X26416000Y-41721127D01*
X25908000Y-38862000D02*
X25908000Y-40640000D01*
X25908000Y-40640000D02*
X26416000Y-41148000D01*
X26416000Y-41721127D02*
X26416000Y-41148000D01*
X24892000Y-34290000D02*
X24892000Y-36068000D01*
X22860000Y-30480000D02*
X24511000Y-32131000D01*
X24892000Y-36068000D02*
X25400000Y-36576000D01*
X25400000Y-38354000D02*
X25908000Y-38862000D01*
X25400000Y-36576000D02*
X25400000Y-38354000D01*
X24511000Y-33909000D02*
X24892000Y-34290000D01*
X24511000Y-32131000D02*
X24511000Y-33909000D01*
X26543000Y-39530000D02*
X26543000Y-38100000D01*
X26543000Y-38100000D02*
X27178000Y-37465000D01*
X26543000Y-39530000D02*
X26543000Y-40259000D01*
X30215767Y-46228000D02*
X29557969Y-45570202D01*
X30734000Y-46228000D02*
X30215767Y-46228000D01*
X26924000Y-41148000D02*
X29210000Y-43434000D01*
X26924000Y-40640000D02*
X26924000Y-41148000D01*
X26543000Y-40259000D02*
X26924000Y-40640000D01*
X25908000Y-41402000D02*
X25908000Y-41920233D01*
X25400000Y-40894000D02*
X25908000Y-41402000D01*
X25908000Y-41920233D02*
X29557969Y-45570202D01*
X24384000Y-34544000D02*
X24384000Y-36322000D01*
X22860000Y-33020000D02*
X24384000Y-34544000D01*
X24892000Y-36830000D02*
X24384000Y-36322000D01*
X24892000Y-38608000D02*
X25400000Y-39116000D01*
X25400000Y-39116000D02*
X25400000Y-40894000D01*
X24892000Y-36830000D02*
X24892000Y-38608000D01*
X24892000Y-41910000D02*
X24892000Y-42318447D01*
X24892000Y-42318447D02*
X28850862Y-46277309D01*
X24384000Y-41402000D02*
X24892000Y-41910000D01*
X22860000Y-38100000D02*
X24384000Y-39624000D01*
X24384000Y-39624000D02*
X24384000Y-41402000D01*
X28143755Y-46984416D02*
X24339339Y-43180000D01*
X24339339Y-43180000D02*
X22860000Y-43180000D01*
X27790202Y-47337969D02*
X26934233Y-46482000D01*
X23622000Y-46482000D02*
X22860000Y-45720000D01*
X26934233Y-46482000D02*
X23622000Y-46482000D01*
X23368000Y-46228000D02*
X22860000Y-45720000D01*
X22860000Y-48260000D02*
X23622000Y-48260000D01*
X23622000Y-48260000D02*
X24892000Y-46990000D01*
X24892000Y-46990000D02*
X26735127Y-46990000D01*
X27436649Y-47691522D02*
X26735127Y-46990000D01*
X22860000Y-48260000D02*
X23114000Y-48260000D01*
X27083095Y-48045076D02*
X26536019Y-47498000D01*
X26536019Y-47498000D02*
X25146000Y-47498000D01*
X24384000Y-49276000D02*
X22860000Y-50800000D01*
X24384000Y-48260000D02*
X24384000Y-49276000D01*
X25146000Y-47498000D02*
X24384000Y-48260000D01*
X26729542Y-48398629D02*
X25515371Y-48398629D01*
X25515371Y-48398629D02*
X24892000Y-49022000D01*
X24892000Y-49022000D02*
X24892000Y-51308000D01*
X24892000Y-51308000D02*
X22860000Y-53340000D01*
X32881371Y-44509542D02*
X36068000Y-41322913D01*
X36068000Y-41322913D02*
X36068000Y-40640000D01*
X36576000Y-40132000D02*
X36068000Y-40640000D01*
X36576000Y-38354000D02*
X36576000Y-40132000D01*
X37084000Y-37846000D02*
X36576000Y-38354000D01*
X37084000Y-36068000D02*
X37084000Y-37846000D01*
X37592000Y-35560000D02*
X37084000Y-36068000D01*
X40640000Y-25400000D02*
X39116000Y-26924000D01*
X37592000Y-33782000D02*
X37592000Y-35560000D01*
X38100000Y-33274000D02*
X37592000Y-33782000D01*
X38100000Y-31496000D02*
X38100000Y-33274000D01*
X38608000Y-30988000D02*
X38100000Y-31496000D01*
X38608000Y-29210000D02*
X38608000Y-30988000D01*
X39116000Y-28702000D02*
X38608000Y-29210000D01*
X39116000Y-26924000D02*
X39116000Y-28702000D01*
X33234924Y-44863095D02*
X36576000Y-41522019D01*
X36576000Y-41522019D02*
X36576000Y-40894000D01*
X37084000Y-40386000D02*
X36576000Y-40894000D01*
X37084000Y-38608000D02*
X37084000Y-40386000D01*
X37592000Y-38100000D02*
X37084000Y-38608000D01*
X40640000Y-27940000D02*
X39116000Y-29464000D01*
X37592000Y-36322000D02*
X37592000Y-38100000D01*
X38100000Y-35814000D02*
X37592000Y-36322000D01*
X38100000Y-34036000D02*
X38100000Y-35814000D01*
X38608000Y-33528000D02*
X38100000Y-34036000D01*
X38608000Y-31750000D02*
X38608000Y-33528000D01*
X39116000Y-31242000D02*
X38608000Y-31750000D01*
X39116000Y-29464000D02*
X39116000Y-31242000D01*
X33588478Y-45216649D02*
X37084000Y-41721127D01*
X37084000Y-41721127D02*
X37084000Y-41148000D01*
X37592000Y-40640000D02*
X37084000Y-41148000D01*
X40640000Y-30480000D02*
X39116000Y-32004000D01*
X37592000Y-38862000D02*
X37592000Y-40640000D01*
X38100000Y-38354000D02*
X37592000Y-38862000D01*
X38100000Y-36576000D02*
X38100000Y-38354000D01*
X38608000Y-36068000D02*
X38100000Y-36576000D01*
X38608000Y-34290000D02*
X38608000Y-36068000D01*
X39116000Y-33782000D02*
X38608000Y-34290000D01*
X39116000Y-32004000D02*
X39116000Y-33782000D01*
X40487600Y-30480000D02*
X40640000Y-30480000D01*
X33942031Y-45570202D02*
X37592000Y-41920233D01*
X37592000Y-41920233D02*
X37592000Y-41402000D01*
X40640000Y-33020000D02*
X39116000Y-34544000D01*
X38100000Y-40894000D02*
X37592000Y-41402000D01*
X38100000Y-39116000D02*
X38100000Y-40894000D01*
X38608000Y-38608000D02*
X38100000Y-39116000D01*
X38608000Y-36830000D02*
X38608000Y-38608000D01*
X39116000Y-36322000D02*
X38608000Y-36830000D01*
X39116000Y-34544000D02*
X39116000Y-36322000D01*
X40487600Y-33020000D02*
X40640000Y-33020000D01*
X38100000Y-41656000D02*
X38100000Y-42119339D01*
X38100000Y-42119339D02*
X34295584Y-45923755D01*
X40640000Y-35560000D02*
X39116000Y-37084000D01*
X38608000Y-41148000D02*
X38100000Y-41656000D01*
X38608000Y-39370000D02*
X38608000Y-41148000D01*
X39116000Y-38862000D02*
X38608000Y-39370000D01*
X39116000Y-37084000D02*
X39116000Y-38862000D01*
X36416905Y-51014924D02*
X36963981Y-51562000D01*
X39116000Y-49784000D02*
X40640000Y-48260000D01*
X39116000Y-51054000D02*
X39116000Y-49784000D01*
X38608000Y-51562000D02*
X39116000Y-51054000D01*
X36963981Y-51562000D02*
X38608000Y-51562000D01*
X36063351Y-51368478D02*
X36764873Y-52070000D01*
X39370000Y-52070000D02*
X40640000Y-50800000D01*
X36764873Y-52070000D02*
X39370000Y-52070000D01*
X35709798Y-51722031D02*
X37327767Y-53340000D01*
X37327767Y-53340000D02*
X40640000Y-53340000D01*
X35356245Y-52075584D02*
X39160661Y-55880000D01*
X39160661Y-55880000D02*
X40640000Y-55880000D01*
X35002691Y-52429138D02*
X39116000Y-56542447D01*
X39116000Y-56896000D02*
X40640000Y-58420000D01*
X39116000Y-56542447D02*
X39116000Y-56896000D01*
X34649138Y-52782691D02*
X38608000Y-56741553D01*
X39116000Y-59436000D02*
X40640000Y-60960000D01*
X39116000Y-57658000D02*
X39116000Y-59436000D01*
X38608000Y-57150000D02*
X39116000Y-57658000D01*
X38608000Y-56741553D02*
X38608000Y-57150000D01*
X33942031Y-53489798D02*
X34668209Y-54215976D01*
X39116000Y-61976000D02*
X40640000Y-63500000D01*
X39116000Y-60198000D02*
X39116000Y-61976000D01*
X38608000Y-59690000D02*
X39116000Y-60198000D01*
X38608000Y-57912000D02*
X38608000Y-59690000D01*
X38100000Y-57404000D02*
X38608000Y-57912000D01*
X38100000Y-56896000D02*
X38100000Y-57404000D01*
X35419976Y-54215976D02*
X38100000Y-56896000D01*
X34668209Y-54215976D02*
X35419976Y-54215976D01*
X33588478Y-53843351D02*
X34609127Y-54864000D01*
X39116000Y-64516000D02*
X40640000Y-66040000D01*
X39116000Y-62738000D02*
X39116000Y-64516000D01*
X38608000Y-62230000D02*
X39116000Y-62738000D01*
X38608000Y-60452000D02*
X38608000Y-62230000D01*
X38100000Y-59944000D02*
X38608000Y-60452000D01*
X38100000Y-58166000D02*
X38100000Y-59944000D01*
X37592000Y-57658000D02*
X38100000Y-58166000D01*
X37592000Y-57150000D02*
X37592000Y-57658000D01*
X35306000Y-54864000D02*
X37592000Y-57150000D01*
X34609127Y-54864000D02*
X35306000Y-54864000D01*
X25400000Y-27940000D02*
X25538000Y-28078000D01*
X25538000Y-28078000D02*
X27432000Y-28078000D01*
D33*
X34290000Y-58420000D02*
X34290000Y-58674000D01*
X35560000Y-58674000D02*
X35560000Y-60428000D01*
X35560000Y-60428000D02*
X35584000Y-60452000D01*
D32*
X22860000Y-40640000D02*
X24384000Y-42164000D01*
X28497309Y-46630862D02*
X24384000Y-42517553D01*
X24384000Y-42517553D02*
X24384000Y-42164000D01*
X24384000Y-37084000D02*
X24384000Y-38862000D01*
X24384000Y-38862000D02*
X24892000Y-39370000D01*
X24892000Y-39370000D02*
X24892000Y-41148000D01*
X22860000Y-35560000D02*
X24384000Y-37084000D01*
X22860000Y-35560000D02*
X23213553Y-35560000D01*
X29083000Y-39530000D02*
X27813000Y-39530000D01*
X29204416Y-45923755D02*
X30524661Y-47244000D01*
X29083000Y-42037000D02*
X29083000Y-39530000D01*
X29718000Y-42672000D02*
X29083000Y-42037000D01*
X30524661Y-47244000D02*
X30734000Y-47244000D01*
X29204416Y-45923755D02*
X25400000Y-42119339D01*
X25400000Y-42119339D02*
X25400000Y-41656000D01*
X24892000Y-41148000D02*
X25400000Y-41656000D01*
X27813000Y-34130000D02*
X27813000Y-34798000D01*
X27813000Y-34798000D02*
X29210000Y-36195000D01*
X27813000Y-34130000D02*
X27813000Y-33401000D01*
X27940000Y-31242000D02*
X26924000Y-31242000D01*
X28194000Y-31496000D02*
X27940000Y-31242000D01*
X28194000Y-33020000D02*
X28194000Y-31496000D01*
X27813000Y-33401000D02*
X28194000Y-33020000D01*
X27178000Y-31496000D02*
X26924000Y-31242000D01*
X27178000Y-36195000D02*
X26543000Y-36195000D01*
X26543000Y-36195000D02*
X26416000Y-36068000D01*
X31750000Y-36322000D02*
X30988000Y-36322000D01*
X30988000Y-36322000D02*
X29972000Y-35306000D01*
X29972000Y-35306000D02*
X29464000Y-35306000D01*
X29464000Y-35306000D02*
X29083000Y-34925000D01*
X29083000Y-34925000D02*
X29083000Y-34130000D01*
X29083000Y-34130000D02*
X28956000Y-34003000D01*
X28956000Y-34003000D02*
X28956000Y-31496000D01*
X28956000Y-31496000D02*
X29210000Y-31242000D01*
X29210000Y-31242000D02*
X29972000Y-31242000D01*
X32893000Y-34130000D02*
X32893000Y-33655000D01*
X32893000Y-33655000D02*
X33274000Y-33274000D01*
X33274000Y-33274000D02*
X33274000Y-31496000D01*
X33274000Y-31496000D02*
X33020000Y-31242000D01*
X33020000Y-31242000D02*
X32258000Y-31242000D01*
X34163000Y-34130000D02*
X34163000Y-31623000D01*
X34544000Y-31242000D02*
X35306000Y-31242000D01*
X34163000Y-31623000D02*
X34544000Y-31242000D01*
X25654000Y-31750000D02*
X25654000Y-30734000D01*
X22860000Y-27940000D02*
X25654000Y-30734000D01*
X29972000Y-32512000D02*
X31496000Y-32512000D01*
X31496000Y-32512000D02*
X32258000Y-32512000D01*
X32258000Y-29972000D02*
X29972000Y-29972000D01*
X29330000Y-27940000D02*
X27668000Y-26278000D01*
X27668000Y-26278000D02*
X27432000Y-26278000D01*
X29330000Y-27940000D02*
X29972000Y-28582000D01*
X29972000Y-28582000D02*
X29972000Y-29972000D01*
X22860000Y-25400000D02*
X24384000Y-23876000D01*
X30480000Y-23876000D02*
X32766000Y-26162000D01*
X24384000Y-23876000D02*
X30480000Y-23876000D01*
X37338000Y-26162000D02*
X35814000Y-26162000D01*
X38100000Y-26924000D02*
X37338000Y-26162000D01*
X38100000Y-28956000D02*
X38100000Y-26924000D01*
X36576000Y-30480000D02*
X38100000Y-28956000D01*
X36576000Y-32004000D02*
X36576000Y-30480000D01*
X35306000Y-32512000D02*
X36068000Y-32512000D01*
X36068000Y-32512000D02*
X36576000Y-32004000D01*
X26924000Y-32258000D02*
X26924000Y-32512000D01*
X26924000Y-29972000D02*
X28194000Y-29972000D01*
X35306000Y-29972000D02*
X34290000Y-29972000D01*
X34290000Y-29972000D02*
X32258000Y-27940000D01*
X32258000Y-27940000D02*
X31830000Y-27940000D01*
X35052000Y-29718000D02*
X35306000Y-29972000D01*
X35052000Y-29718000D02*
X35306000Y-29972000D01*
X25400000Y-25400000D02*
X26162000Y-24638000D01*
X26162000Y-24638000D02*
X30226000Y-24638000D01*
X30226000Y-24638000D02*
X31830000Y-26242000D01*
X31830000Y-27940000D02*
X31830000Y-26242000D01*
X32385000Y-67945000D02*
X32385000Y-66134000D01*
X32766000Y-68326000D02*
X32385000Y-67945000D01*
X31115000Y-66134000D02*
X31115000Y-67691000D01*
X31115000Y-67691000D02*
X31750000Y-68326000D01*
X37338000Y-68142000D02*
X35376000Y-68142000D01*
X34925000Y-67691000D02*
X34925000Y-66134000D01*
X35376000Y-68142000D02*
X34925000Y-67691000D01*
X33655000Y-66134000D02*
X33655000Y-68707000D01*
X35490000Y-70542000D02*
X37338000Y-70542000D01*
X33655000Y-68707000D02*
X35490000Y-70542000D01*
X34036000Y-64262000D02*
X34036000Y-62738000D01*
X33528000Y-62230000D02*
X31380000Y-62230000D01*
X34036000Y-62738000D02*
X33528000Y-62230000D01*
X27305000Y-66134000D02*
X27432000Y-66007000D01*
X27432000Y-66007000D02*
X27432000Y-63638000D01*
X26035000Y-68961000D02*
X26035000Y-71534000D01*
X26416000Y-68580000D02*
X26035000Y-68961000D01*
X29972000Y-68580000D02*
X26416000Y-68580000D01*
D35*
G36*
X37325000Y-60211000D02*
X37345000Y-60211000D01*
X37345000Y-60693000D01*
X37325000Y-60693000D01*
X37325000Y-61571528D01*
X37477239Y-61656233D01*
X37702571Y-61529664D01*
X37967626Y-61230858D01*
X38098157Y-60853365D01*
X37977225Y-60693002D01*
X38105000Y-60693002D01*
X38105000Y-60639136D01*
X38120000Y-60654136D01*
X38120000Y-62230000D01*
X38157147Y-62416750D01*
X38210146Y-62496068D01*
X38262932Y-62575068D01*
X38628000Y-62940136D01*
X38628000Y-64516000D01*
X38665147Y-64702750D01*
X38739081Y-64813400D01*
X38770932Y-64861068D01*
X39388681Y-65478817D01*
X39327353Y-65570601D01*
X39233984Y-66040000D01*
X39327353Y-66509399D01*
X39593247Y-66907337D01*
X39991185Y-67173231D01*
X40460584Y-67266600D01*
X40819416Y-67266600D01*
X41288815Y-67173231D01*
X41472000Y-67050831D01*
X41472000Y-67569169D01*
X41288815Y-67446769D01*
X40819416Y-67353400D01*
X40460584Y-67353400D01*
X39991185Y-67446769D01*
X39593247Y-67712663D01*
X39327353Y-68110601D01*
X39233984Y-68580000D01*
X39327353Y-69049399D01*
X39593247Y-69447337D01*
X39991185Y-69713231D01*
X40398998Y-69794350D01*
X40398998Y-69873374D01*
X40184700Y-69773937D01*
X39692641Y-69992315D01*
X39321607Y-70382373D01*
X39178622Y-70668674D01*
X39256620Y-70879000D01*
X40399000Y-70879000D01*
X40399000Y-70859000D01*
X40881000Y-70859000D01*
X40881000Y-70879000D01*
X40901000Y-70879000D01*
X40901000Y-71361000D01*
X40881000Y-71361000D01*
X40881000Y-71381000D01*
X40399000Y-71381000D01*
X40399000Y-71361000D01*
X39256620Y-71361000D01*
X39178622Y-71571326D01*
X39321607Y-71857627D01*
X39411377Y-71952000D01*
X35595111Y-71952000D01*
X35595111Y-71030000D01*
X35927614Y-71030000D01*
X35972702Y-71100068D01*
X36094006Y-71182951D01*
X36238000Y-71212111D01*
X38438000Y-71212111D01*
X38572520Y-71186799D01*
X38696068Y-71107298D01*
X38778951Y-70985994D01*
X38808111Y-70842000D01*
X38808111Y-70242000D01*
X38782799Y-70107480D01*
X38754031Y-70062774D01*
X38879683Y-69937122D01*
X38959000Y-69745633D01*
X38959000Y-69622250D01*
X38828750Y-69492000D01*
X37579000Y-69492000D01*
X37579000Y-69603000D01*
X37097000Y-69603000D01*
X37097000Y-69492000D01*
X35847250Y-69492000D01*
X35717000Y-69622250D01*
X35717000Y-69745633D01*
X35796317Y-69937122D01*
X35913195Y-70054000D01*
X35692136Y-70054000D01*
X34143000Y-68504864D01*
X34143000Y-67194386D01*
X34213068Y-67149298D01*
X34290979Y-67035270D01*
X34359702Y-67142068D01*
X34437000Y-67194883D01*
X34437000Y-67691000D01*
X34474147Y-67877750D01*
X34522390Y-67949950D01*
X34579932Y-68036068D01*
X35030932Y-68487068D01*
X35189250Y-68592853D01*
X35376000Y-68630000D01*
X35913195Y-68630000D01*
X35796317Y-68746878D01*
X35717000Y-68938367D01*
X35717000Y-69061750D01*
X35847250Y-69192000D01*
X37097000Y-69192000D01*
X37097000Y-69081000D01*
X37579000Y-69081000D01*
X37579000Y-69192000D01*
X38828750Y-69192000D01*
X38959000Y-69061750D01*
X38959000Y-68938367D01*
X38879683Y-68746878D01*
X38754534Y-68621729D01*
X38778951Y-68585994D01*
X38808111Y-68442000D01*
X38808111Y-67842000D01*
X38782799Y-67707480D01*
X38703298Y-67583932D01*
X38581994Y-67501049D01*
X38438000Y-67471889D01*
X36238000Y-67471889D01*
X36103480Y-67497201D01*
X35979932Y-67576702D01*
X35927117Y-67654000D01*
X35578136Y-67654000D01*
X35413000Y-67488864D01*
X35413000Y-67194386D01*
X35483068Y-67149298D01*
X35565951Y-67027994D01*
X35595111Y-66884000D01*
X35595111Y-65749247D01*
X36674976Y-66829112D01*
X36674885Y-66933300D01*
X36775608Y-67177069D01*
X36961950Y-67363736D01*
X37205543Y-67464885D01*
X37469300Y-67465115D01*
X37713069Y-67364392D01*
X37899736Y-67178050D01*
X38000885Y-66934457D01*
X38001115Y-66670700D01*
X37900392Y-66426931D01*
X37714050Y-66240264D01*
X37470457Y-66139115D01*
X37365159Y-66139023D01*
X36742718Y-65516582D01*
X37001927Y-65465022D01*
X37363010Y-65223754D01*
X37604278Y-64862671D01*
X37689000Y-64436744D01*
X37689000Y-64087256D01*
X37604278Y-63661329D01*
X37363010Y-63300246D01*
X37064000Y-63100454D01*
X37064000Y-62484000D01*
X37050623Y-62416749D01*
X37026854Y-62297251D01*
X36921068Y-62138932D01*
X36159068Y-61376932D01*
X36153708Y-61373351D01*
X36194233Y-61346273D01*
X36240857Y-61276496D01*
X36465429Y-61529664D01*
X36690761Y-61656233D01*
X36843000Y-61571528D01*
X36843000Y-60693000D01*
X36823000Y-60693000D01*
X36823000Y-60211000D01*
X36843000Y-60211000D01*
X36843000Y-60191000D01*
X37325000Y-60191000D01*
X37325000Y-60211000D01*
X37325000Y-60211000D01*
G37*
X37325000Y-60211000D02*
X37345000Y-60211000D01*
X37345000Y-60693000D01*
X37325000Y-60693000D01*
X37325000Y-61571528D01*
X37477239Y-61656233D01*
X37702571Y-61529664D01*
X37967626Y-61230858D01*
X38098157Y-60853365D01*
X37977225Y-60693002D01*
X38105000Y-60693002D01*
X38105000Y-60639136D01*
X38120000Y-60654136D01*
X38120000Y-62230000D01*
X38157147Y-62416750D01*
X38210146Y-62496068D01*
X38262932Y-62575068D01*
X38628000Y-62940136D01*
X38628000Y-64516000D01*
X38665147Y-64702750D01*
X38739081Y-64813400D01*
X38770932Y-64861068D01*
X39388681Y-65478817D01*
X39327353Y-65570601D01*
X39233984Y-66040000D01*
X39327353Y-66509399D01*
X39593247Y-66907337D01*
X39991185Y-67173231D01*
X40460584Y-67266600D01*
X40819416Y-67266600D01*
X41288815Y-67173231D01*
X41472000Y-67050831D01*
X41472000Y-67569169D01*
X41288815Y-67446769D01*
X40819416Y-67353400D01*
X40460584Y-67353400D01*
X39991185Y-67446769D01*
X39593247Y-67712663D01*
X39327353Y-68110601D01*
X39233984Y-68580000D01*
X39327353Y-69049399D01*
X39593247Y-69447337D01*
X39991185Y-69713231D01*
X40398998Y-69794350D01*
X40398998Y-69873374D01*
X40184700Y-69773937D01*
X39692641Y-69992315D01*
X39321607Y-70382373D01*
X39178622Y-70668674D01*
X39256620Y-70879000D01*
X40399000Y-70879000D01*
X40399000Y-70859000D01*
X40881000Y-70859000D01*
X40881000Y-70879000D01*
X40901000Y-70879000D01*
X40901000Y-71361000D01*
X40881000Y-71361000D01*
X40881000Y-71381000D01*
X40399000Y-71381000D01*
X40399000Y-71361000D01*
X39256620Y-71361000D01*
X39178622Y-71571326D01*
X39321607Y-71857627D01*
X39411377Y-71952000D01*
X35595111Y-71952000D01*
X35595111Y-71030000D01*
X35927614Y-71030000D01*
X35972702Y-71100068D01*
X36094006Y-71182951D01*
X36238000Y-71212111D01*
X38438000Y-71212111D01*
X38572520Y-71186799D01*
X38696068Y-71107298D01*
X38778951Y-70985994D01*
X38808111Y-70842000D01*
X38808111Y-70242000D01*
X38782799Y-70107480D01*
X38754031Y-70062774D01*
X38879683Y-69937122D01*
X38959000Y-69745633D01*
X38959000Y-69622250D01*
X38828750Y-69492000D01*
X37579000Y-69492000D01*
X37579000Y-69603000D01*
X37097000Y-69603000D01*
X37097000Y-69492000D01*
X35847250Y-69492000D01*
X35717000Y-69622250D01*
X35717000Y-69745633D01*
X35796317Y-69937122D01*
X35913195Y-70054000D01*
X35692136Y-70054000D01*
X34143000Y-68504864D01*
X34143000Y-67194386D01*
X34213068Y-67149298D01*
X34290979Y-67035270D01*
X34359702Y-67142068D01*
X34437000Y-67194883D01*
X34437000Y-67691000D01*
X34474147Y-67877750D01*
X34522390Y-67949950D01*
X34579932Y-68036068D01*
X35030932Y-68487068D01*
X35189250Y-68592853D01*
X35376000Y-68630000D01*
X35913195Y-68630000D01*
X35796317Y-68746878D01*
X35717000Y-68938367D01*
X35717000Y-69061750D01*
X35847250Y-69192000D01*
X37097000Y-69192000D01*
X37097000Y-69081000D01*
X37579000Y-69081000D01*
X37579000Y-69192000D01*
X38828750Y-69192000D01*
X38959000Y-69061750D01*
X38959000Y-68938367D01*
X38879683Y-68746878D01*
X38754534Y-68621729D01*
X38778951Y-68585994D01*
X38808111Y-68442000D01*
X38808111Y-67842000D01*
X38782799Y-67707480D01*
X38703298Y-67583932D01*
X38581994Y-67501049D01*
X38438000Y-67471889D01*
X36238000Y-67471889D01*
X36103480Y-67497201D01*
X35979932Y-67576702D01*
X35927117Y-67654000D01*
X35578136Y-67654000D01*
X35413000Y-67488864D01*
X35413000Y-67194386D01*
X35483068Y-67149298D01*
X35565951Y-67027994D01*
X35595111Y-66884000D01*
X35595111Y-65749247D01*
X36674976Y-66829112D01*
X36674885Y-66933300D01*
X36775608Y-67177069D01*
X36961950Y-67363736D01*
X37205543Y-67464885D01*
X37469300Y-67465115D01*
X37713069Y-67364392D01*
X37899736Y-67178050D01*
X38000885Y-66934457D01*
X38001115Y-66670700D01*
X37900392Y-66426931D01*
X37714050Y-66240264D01*
X37470457Y-66139115D01*
X37365159Y-66139023D01*
X36742718Y-65516582D01*
X37001927Y-65465022D01*
X37363010Y-65223754D01*
X37604278Y-64862671D01*
X37689000Y-64436744D01*
X37689000Y-64087256D01*
X37604278Y-63661329D01*
X37363010Y-63300246D01*
X37064000Y-63100454D01*
X37064000Y-62484000D01*
X37050623Y-62416749D01*
X37026854Y-62297251D01*
X36921068Y-62138932D01*
X36159068Y-61376932D01*
X36153708Y-61373351D01*
X36194233Y-61346273D01*
X36240857Y-61276496D01*
X36465429Y-61529664D01*
X36690761Y-61656233D01*
X36843000Y-61571528D01*
X36843000Y-60693000D01*
X36823000Y-60693000D01*
X36823000Y-60211000D01*
X36843000Y-60211000D01*
X36843000Y-60191000D01*
X37325000Y-60191000D01*
X37325000Y-60211000D01*
G36*
X26561889Y-62238000D02*
X26587201Y-62372520D01*
X26666702Y-62496068D01*
X26788006Y-62578951D01*
X26932000Y-62608111D01*
X27528384Y-62608111D01*
X27637251Y-62680854D01*
X27824000Y-62718000D01*
X28809889Y-62718000D01*
X28809889Y-62730000D01*
X28835201Y-62864520D01*
X28914702Y-62988068D01*
X28920294Y-62991889D01*
X28206000Y-62991889D01*
X28205101Y-62992058D01*
X28197298Y-62979932D01*
X28075994Y-62897049D01*
X27932000Y-62867889D01*
X26932000Y-62867889D01*
X26797480Y-62893201D01*
X26673932Y-62972702D01*
X26591049Y-63094006D01*
X26561889Y-63238000D01*
X26561889Y-64038000D01*
X26587201Y-64172520D01*
X26666702Y-64296068D01*
X26788006Y-64378951D01*
X26932000Y-64408111D01*
X26944000Y-64408111D01*
X26944000Y-65025367D01*
X26870480Y-65039201D01*
X26780176Y-65097310D01*
X26776683Y-65088878D01*
X26630123Y-64942318D01*
X26438634Y-64863000D01*
X26315250Y-64863000D01*
X26185000Y-64993250D01*
X26185000Y-65893000D01*
X26296000Y-65893000D01*
X26296000Y-66375000D01*
X26185000Y-66375000D01*
X26185000Y-67274750D01*
X26315250Y-67405000D01*
X26438634Y-67405000D01*
X26630123Y-67325682D01*
X26776683Y-67179122D01*
X26780488Y-67169936D01*
X26861006Y-67224951D01*
X27005000Y-67254111D01*
X27605000Y-67254111D01*
X27739520Y-67228799D01*
X27863068Y-67149298D01*
X27940979Y-67035270D01*
X28009702Y-67142068D01*
X28087000Y-67194883D01*
X28087000Y-67437000D01*
X28124147Y-67623750D01*
X28180094Y-67707480D01*
X28229932Y-67782068D01*
X28539864Y-68092000D01*
X26416000Y-68092000D01*
X26229250Y-68129147D01*
X26117300Y-68203950D01*
X26070932Y-68234932D01*
X25689932Y-68615932D01*
X25584147Y-68774250D01*
X25547000Y-68961000D01*
X25547000Y-70473614D01*
X25476932Y-70518702D01*
X25394049Y-70640006D01*
X25364889Y-70784000D01*
X25364889Y-71952000D01*
X24246111Y-71952000D01*
X24246111Y-70256400D01*
X24220799Y-70121880D01*
X24141298Y-69998332D01*
X24019994Y-69915449D01*
X23876000Y-69886289D01*
X22028000Y-69886289D01*
X22028000Y-69590831D01*
X22211185Y-69713231D01*
X22680584Y-69806600D01*
X23039416Y-69806600D01*
X23508815Y-69713231D01*
X23906753Y-69447337D01*
X24172647Y-69049399D01*
X24266016Y-68580000D01*
X24172647Y-68110601D01*
X24111319Y-68018817D01*
X25214000Y-66916136D01*
X25214000Y-66987633D01*
X25293317Y-67179122D01*
X25439877Y-67325682D01*
X25631366Y-67405000D01*
X25754750Y-67405000D01*
X25885000Y-67274750D01*
X25885000Y-66375000D01*
X25774000Y-66375000D01*
X25774000Y-65893000D01*
X25885000Y-65893000D01*
X25885000Y-64993250D01*
X25754750Y-64863000D01*
X25631366Y-64863000D01*
X25439877Y-64942318D01*
X25380000Y-65002195D01*
X25380000Y-63194136D01*
X26507068Y-62067068D01*
X26531574Y-62030392D01*
X26561889Y-61985023D01*
X26561889Y-62238000D01*
X26561889Y-62238000D01*
G37*
X26561889Y-62238000D02*
X26587201Y-62372520D01*
X26666702Y-62496068D01*
X26788006Y-62578951D01*
X26932000Y-62608111D01*
X27528384Y-62608111D01*
X27637251Y-62680854D01*
X27824000Y-62718000D01*
X28809889Y-62718000D01*
X28809889Y-62730000D01*
X28835201Y-62864520D01*
X28914702Y-62988068D01*
X28920294Y-62991889D01*
X28206000Y-62991889D01*
X28205101Y-62992058D01*
X28197298Y-62979932D01*
X28075994Y-62897049D01*
X27932000Y-62867889D01*
X26932000Y-62867889D01*
X26797480Y-62893201D01*
X26673932Y-62972702D01*
X26591049Y-63094006D01*
X26561889Y-63238000D01*
X26561889Y-64038000D01*
X26587201Y-64172520D01*
X26666702Y-64296068D01*
X26788006Y-64378951D01*
X26932000Y-64408111D01*
X26944000Y-64408111D01*
X26944000Y-65025367D01*
X26870480Y-65039201D01*
X26780176Y-65097310D01*
X26776683Y-65088878D01*
X26630123Y-64942318D01*
X26438634Y-64863000D01*
X26315250Y-64863000D01*
X26185000Y-64993250D01*
X26185000Y-65893000D01*
X26296000Y-65893000D01*
X26296000Y-66375000D01*
X26185000Y-66375000D01*
X26185000Y-67274750D01*
X26315250Y-67405000D01*
X26438634Y-67405000D01*
X26630123Y-67325682D01*
X26776683Y-67179122D01*
X26780488Y-67169936D01*
X26861006Y-67224951D01*
X27005000Y-67254111D01*
X27605000Y-67254111D01*
X27739520Y-67228799D01*
X27863068Y-67149298D01*
X27940979Y-67035270D01*
X28009702Y-67142068D01*
X28087000Y-67194883D01*
X28087000Y-67437000D01*
X28124147Y-67623750D01*
X28180094Y-67707480D01*
X28229932Y-67782068D01*
X28539864Y-68092000D01*
X26416000Y-68092000D01*
X26229250Y-68129147D01*
X26117300Y-68203950D01*
X26070932Y-68234932D01*
X25689932Y-68615932D01*
X25584147Y-68774250D01*
X25547000Y-68961000D01*
X25547000Y-70473614D01*
X25476932Y-70518702D01*
X25394049Y-70640006D01*
X25364889Y-70784000D01*
X25364889Y-71952000D01*
X24246111Y-71952000D01*
X24246111Y-70256400D01*
X24220799Y-70121880D01*
X24141298Y-69998332D01*
X24019994Y-69915449D01*
X23876000Y-69886289D01*
X22028000Y-69886289D01*
X22028000Y-69590831D01*
X22211185Y-69713231D01*
X22680584Y-69806600D01*
X23039416Y-69806600D01*
X23508815Y-69713231D01*
X23906753Y-69447337D01*
X24172647Y-69049399D01*
X24266016Y-68580000D01*
X24172647Y-68110601D01*
X24111319Y-68018817D01*
X25214000Y-66916136D01*
X25214000Y-66987633D01*
X25293317Y-67179122D01*
X25439877Y-67325682D01*
X25631366Y-67405000D01*
X25754750Y-67405000D01*
X25885000Y-67274750D01*
X25885000Y-66375000D01*
X25774000Y-66375000D01*
X25774000Y-65893000D01*
X25885000Y-65893000D01*
X25885000Y-64993250D01*
X25754750Y-64863000D01*
X25631366Y-64863000D01*
X25439877Y-64942318D01*
X25380000Y-65002195D01*
X25380000Y-63194136D01*
X26507068Y-62067068D01*
X26531574Y-62030392D01*
X26561889Y-61985023D01*
X26561889Y-62238000D01*
G36*
X31150932Y-69433068D02*
X31309250Y-69538853D01*
X31496000Y-69576000D01*
X32817864Y-69576000D01*
X32864976Y-69623112D01*
X32864885Y-69727300D01*
X32965608Y-69971069D01*
X33151950Y-70157736D01*
X33395543Y-70258885D01*
X33659300Y-70259115D01*
X33903069Y-70158392D01*
X34089736Y-69972050D01*
X34130865Y-69873001D01*
X34671753Y-70413889D01*
X34625000Y-70413889D01*
X34490480Y-70439201D01*
X34366932Y-70518702D01*
X34289021Y-70632730D01*
X34220298Y-70525932D01*
X34098994Y-70443049D01*
X33955000Y-70413889D01*
X33355000Y-70413889D01*
X33220480Y-70439201D01*
X33096932Y-70518702D01*
X33019021Y-70632730D01*
X32950298Y-70525932D01*
X32828994Y-70443049D01*
X32685000Y-70413889D01*
X32085000Y-70413889D01*
X31950480Y-70439201D01*
X31826932Y-70518702D01*
X31749021Y-70632730D01*
X31680298Y-70525932D01*
X31558994Y-70443049D01*
X31415000Y-70413889D01*
X30815000Y-70413889D01*
X30680480Y-70439201D01*
X30556932Y-70518702D01*
X30479021Y-70632730D01*
X30410298Y-70525932D01*
X30288994Y-70443049D01*
X30145000Y-70413889D01*
X29545000Y-70413889D01*
X29410480Y-70439201D01*
X29286932Y-70518702D01*
X29209021Y-70632730D01*
X29140298Y-70525932D01*
X29018994Y-70443049D01*
X28875000Y-70413889D01*
X28275000Y-70413889D01*
X28140480Y-70439201D01*
X28016932Y-70518702D01*
X27939021Y-70632730D01*
X27870298Y-70525932D01*
X27748994Y-70443049D01*
X27605000Y-70413889D01*
X27005000Y-70413889D01*
X26870480Y-70439201D01*
X26746932Y-70518702D01*
X26669021Y-70632730D01*
X26600298Y-70525932D01*
X26523000Y-70473117D01*
X26523000Y-69163136D01*
X26618136Y-69068000D01*
X29522342Y-69068000D01*
X29595950Y-69141736D01*
X29839543Y-69242885D01*
X30103300Y-69243115D01*
X30347069Y-69142392D01*
X30533736Y-68956050D01*
X30574865Y-68857001D01*
X31150932Y-69433068D01*
X31150932Y-69433068D01*
G37*
X31150932Y-69433068D02*
X31309250Y-69538853D01*
X31496000Y-69576000D01*
X32817864Y-69576000D01*
X32864976Y-69623112D01*
X32864885Y-69727300D01*
X32965608Y-69971069D01*
X33151950Y-70157736D01*
X33395543Y-70258885D01*
X33659300Y-70259115D01*
X33903069Y-70158392D01*
X34089736Y-69972050D01*
X34130865Y-69873001D01*
X34671753Y-70413889D01*
X34625000Y-70413889D01*
X34490480Y-70439201D01*
X34366932Y-70518702D01*
X34289021Y-70632730D01*
X34220298Y-70525932D01*
X34098994Y-70443049D01*
X33955000Y-70413889D01*
X33355000Y-70413889D01*
X33220480Y-70439201D01*
X33096932Y-70518702D01*
X33019021Y-70632730D01*
X32950298Y-70525932D01*
X32828994Y-70443049D01*
X32685000Y-70413889D01*
X32085000Y-70413889D01*
X31950480Y-70439201D01*
X31826932Y-70518702D01*
X31749021Y-70632730D01*
X31680298Y-70525932D01*
X31558994Y-70443049D01*
X31415000Y-70413889D01*
X30815000Y-70413889D01*
X30680480Y-70439201D01*
X30556932Y-70518702D01*
X30479021Y-70632730D01*
X30410298Y-70525932D01*
X30288994Y-70443049D01*
X30145000Y-70413889D01*
X29545000Y-70413889D01*
X29410480Y-70439201D01*
X29286932Y-70518702D01*
X29209021Y-70632730D01*
X29140298Y-70525932D01*
X29018994Y-70443049D01*
X28875000Y-70413889D01*
X28275000Y-70413889D01*
X28140480Y-70439201D01*
X28016932Y-70518702D01*
X27939021Y-70632730D01*
X27870298Y-70525932D01*
X27748994Y-70443049D01*
X27605000Y-70413889D01*
X27005000Y-70413889D01*
X26870480Y-70439201D01*
X26746932Y-70518702D01*
X26669021Y-70632730D01*
X26600298Y-70525932D01*
X26523000Y-70473117D01*
X26523000Y-69163136D01*
X26618136Y-69068000D01*
X29522342Y-69068000D01*
X29595950Y-69141736D01*
X29839543Y-69242885D01*
X30103300Y-69243115D01*
X30347069Y-69142392D01*
X30533736Y-68956050D01*
X30574865Y-68857001D01*
X31150932Y-69433068D01*
G36*
X30473767Y-61346273D02*
X30699701Y-61497238D01*
X30639049Y-61586006D01*
X30609889Y-61730000D01*
X30609889Y-62730000D01*
X30635201Y-62864520D01*
X30714702Y-62988068D01*
X30810357Y-63053426D01*
X30467216Y-63374833D01*
X30263426Y-63824645D01*
X30363899Y-64021000D01*
X31255000Y-64021000D01*
X31255000Y-64001000D01*
X31737000Y-64001000D01*
X31737000Y-64021000D01*
X32628101Y-64021000D01*
X32728574Y-63824645D01*
X32524784Y-63374833D01*
X32164371Y-63037248D01*
X32049504Y-62978561D01*
X32120951Y-62873994D01*
X32150111Y-62730000D01*
X32150111Y-62718000D01*
X33325864Y-62718000D01*
X33548000Y-62940136D01*
X33548000Y-63100454D01*
X33248990Y-63300246D01*
X33007722Y-63661329D01*
X32923000Y-64087256D01*
X32923000Y-64436744D01*
X33007722Y-64862671D01*
X33154181Y-65081863D01*
X33096932Y-65118702D01*
X33019021Y-65232730D01*
X32950298Y-65125932D01*
X32828994Y-65043049D01*
X32685000Y-65013889D01*
X32586073Y-65013889D01*
X32728574Y-64699355D01*
X32628101Y-64503000D01*
X31737000Y-64503000D01*
X31737000Y-64523000D01*
X31255000Y-64523000D01*
X31255000Y-64503000D01*
X30363899Y-64503000D01*
X30263426Y-64699355D01*
X30467216Y-65149167D01*
X30509229Y-65188519D01*
X30479021Y-65232730D01*
X30410298Y-65125932D01*
X30288994Y-65043049D01*
X30145000Y-65013889D01*
X30076111Y-65013889D01*
X30076111Y-63362000D01*
X30050799Y-63227480D01*
X29971298Y-63103932D01*
X29965706Y-63100111D01*
X29980000Y-63100111D01*
X30114520Y-63074799D01*
X30238068Y-62995298D01*
X30320951Y-62873994D01*
X30350111Y-62730000D01*
X30350111Y-61730000D01*
X30324799Y-61595480D01*
X30245298Y-61471932D01*
X30127069Y-61391150D01*
X30194233Y-61346273D01*
X30334000Y-61137097D01*
X30473767Y-61346273D01*
X30473767Y-61346273D01*
G37*
X30473767Y-61346273D02*
X30699701Y-61497238D01*
X30639049Y-61586006D01*
X30609889Y-61730000D01*
X30609889Y-62730000D01*
X30635201Y-62864520D01*
X30714702Y-62988068D01*
X30810357Y-63053426D01*
X30467216Y-63374833D01*
X30263426Y-63824645D01*
X30363899Y-64021000D01*
X31255000Y-64021000D01*
X31255000Y-64001000D01*
X31737000Y-64001000D01*
X31737000Y-64021000D01*
X32628101Y-64021000D01*
X32728574Y-63824645D01*
X32524784Y-63374833D01*
X32164371Y-63037248D01*
X32049504Y-62978561D01*
X32120951Y-62873994D01*
X32150111Y-62730000D01*
X32150111Y-62718000D01*
X33325864Y-62718000D01*
X33548000Y-62940136D01*
X33548000Y-63100454D01*
X33248990Y-63300246D01*
X33007722Y-63661329D01*
X32923000Y-64087256D01*
X32923000Y-64436744D01*
X33007722Y-64862671D01*
X33154181Y-65081863D01*
X33096932Y-65118702D01*
X33019021Y-65232730D01*
X32950298Y-65125932D01*
X32828994Y-65043049D01*
X32685000Y-65013889D01*
X32586073Y-65013889D01*
X32728574Y-64699355D01*
X32628101Y-64503000D01*
X31737000Y-64503000D01*
X31737000Y-64523000D01*
X31255000Y-64523000D01*
X31255000Y-64503000D01*
X30363899Y-64503000D01*
X30263426Y-64699355D01*
X30467216Y-65149167D01*
X30509229Y-65188519D01*
X30479021Y-65232730D01*
X30410298Y-65125932D01*
X30288994Y-65043049D01*
X30145000Y-65013889D01*
X30076111Y-65013889D01*
X30076111Y-63362000D01*
X30050799Y-63227480D01*
X29971298Y-63103932D01*
X29965706Y-63100111D01*
X29980000Y-63100111D01*
X30114520Y-63074799D01*
X30238068Y-62995298D01*
X30320951Y-62873994D01*
X30350111Y-62730000D01*
X30350111Y-61730000D01*
X30324799Y-61595480D01*
X30245298Y-61471932D01*
X30127069Y-61391150D01*
X30194233Y-61346273D01*
X30334000Y-61137097D01*
X30473767Y-61346273D01*
G36*
X33698001Y-54653067D02*
X33729754Y-54674763D01*
X34264059Y-55209068D01*
X34422378Y-55314854D01*
X34609127Y-55352000D01*
X35103864Y-55352000D01*
X35894136Y-56142272D01*
X35636360Y-56248783D01*
X35421537Y-56463231D01*
X35305133Y-56743564D01*
X35305091Y-56791207D01*
X35184457Y-56741115D01*
X34920700Y-56740885D01*
X34676931Y-56841608D01*
X34602409Y-56916000D01*
X33782000Y-56916000D01*
X33595250Y-56953147D01*
X33498116Y-57018050D01*
X33436932Y-57058932D01*
X32928932Y-57566932D01*
X32823147Y-57725250D01*
X32786000Y-57912000D01*
X32786000Y-59345140D01*
X32584000Y-59304960D01*
X32253744Y-59370652D01*
X31973767Y-59557727D01*
X31834000Y-59766903D01*
X31694233Y-59557727D01*
X31414256Y-59370652D01*
X31084000Y-59304960D01*
X30875617Y-59346410D01*
X30888885Y-59314457D01*
X30889115Y-59050700D01*
X30788392Y-58806931D01*
X30714000Y-58732409D01*
X30714000Y-58107658D01*
X30787736Y-58034050D01*
X30888885Y-57790457D01*
X30889115Y-57526700D01*
X30788392Y-57282931D01*
X30602050Y-57096264D01*
X30358457Y-56995115D01*
X30289285Y-56995055D01*
X30299483Y-56970494D01*
X30306006Y-56974951D01*
X30450000Y-57004111D01*
X31050000Y-57004111D01*
X31184520Y-56978799D01*
X31308068Y-56899298D01*
X31390951Y-56777994D01*
X31420111Y-56634000D01*
X31420111Y-56505250D01*
X31929000Y-56505250D01*
X31929000Y-56737634D01*
X32008318Y-56929123D01*
X32154878Y-57075683D01*
X32346367Y-57155000D01*
X32469750Y-57155000D01*
X32600000Y-57024750D01*
X32600000Y-56375000D01*
X32900000Y-56375000D01*
X32900000Y-57024750D01*
X33030250Y-57155000D01*
X33153633Y-57155000D01*
X33345122Y-57075683D01*
X33491682Y-56929123D01*
X33571000Y-56737634D01*
X33571000Y-56505250D01*
X33440750Y-56375000D01*
X32900000Y-56375000D01*
X32600000Y-56375000D01*
X32059250Y-56375000D01*
X31929000Y-56505250D01*
X31420111Y-56505250D01*
X31420111Y-55634000D01*
X31394799Y-55499480D01*
X31315298Y-55375932D01*
X31222876Y-55312783D01*
X31295736Y-55240050D01*
X31396885Y-54996457D01*
X31397115Y-54732700D01*
X31338153Y-54590000D01*
X32220720Y-54590000D01*
X32743720Y-55113000D01*
X32508998Y-55113000D01*
X32508998Y-55152248D01*
X32469750Y-55113000D01*
X32346367Y-55113000D01*
X32154878Y-55192317D01*
X32008318Y-55338877D01*
X31929000Y-55530366D01*
X31929000Y-55762750D01*
X32059250Y-55893000D01*
X32600000Y-55893000D01*
X32600000Y-55873000D01*
X32900000Y-55873000D01*
X32900000Y-55893000D01*
X33440750Y-55893000D01*
X33571000Y-55762750D01*
X33571000Y-55530366D01*
X33503479Y-55367357D01*
X33514310Y-55360174D01*
X33608571Y-55265913D01*
X33709788Y-55265913D01*
X33901277Y-55186596D01*
X33926651Y-55161222D01*
X33926651Y-54977021D01*
X33781613Y-54831983D01*
X33772287Y-54782419D01*
X33691087Y-54659981D01*
X33046913Y-54015807D01*
X33053827Y-54008893D01*
X33698001Y-54653067D01*
X33698001Y-54653067D01*
G37*
X33698001Y-54653067D02*
X33729754Y-54674763D01*
X34264059Y-55209068D01*
X34422378Y-55314854D01*
X34609127Y-55352000D01*
X35103864Y-55352000D01*
X35894136Y-56142272D01*
X35636360Y-56248783D01*
X35421537Y-56463231D01*
X35305133Y-56743564D01*
X35305091Y-56791207D01*
X35184457Y-56741115D01*
X34920700Y-56740885D01*
X34676931Y-56841608D01*
X34602409Y-56916000D01*
X33782000Y-56916000D01*
X33595250Y-56953147D01*
X33498116Y-57018050D01*
X33436932Y-57058932D01*
X32928932Y-57566932D01*
X32823147Y-57725250D01*
X32786000Y-57912000D01*
X32786000Y-59345140D01*
X32584000Y-59304960D01*
X32253744Y-59370652D01*
X31973767Y-59557727D01*
X31834000Y-59766903D01*
X31694233Y-59557727D01*
X31414256Y-59370652D01*
X31084000Y-59304960D01*
X30875617Y-59346410D01*
X30888885Y-59314457D01*
X30889115Y-59050700D01*
X30788392Y-58806931D01*
X30714000Y-58732409D01*
X30714000Y-58107658D01*
X30787736Y-58034050D01*
X30888885Y-57790457D01*
X30889115Y-57526700D01*
X30788392Y-57282931D01*
X30602050Y-57096264D01*
X30358457Y-56995115D01*
X30289285Y-56995055D01*
X30299483Y-56970494D01*
X30306006Y-56974951D01*
X30450000Y-57004111D01*
X31050000Y-57004111D01*
X31184520Y-56978799D01*
X31308068Y-56899298D01*
X31390951Y-56777994D01*
X31420111Y-56634000D01*
X31420111Y-56505250D01*
X31929000Y-56505250D01*
X31929000Y-56737634D01*
X32008318Y-56929123D01*
X32154878Y-57075683D01*
X32346367Y-57155000D01*
X32469750Y-57155000D01*
X32600000Y-57024750D01*
X32600000Y-56375000D01*
X32900000Y-56375000D01*
X32900000Y-57024750D01*
X33030250Y-57155000D01*
X33153633Y-57155000D01*
X33345122Y-57075683D01*
X33491682Y-56929123D01*
X33571000Y-56737634D01*
X33571000Y-56505250D01*
X33440750Y-56375000D01*
X32900000Y-56375000D01*
X32600000Y-56375000D01*
X32059250Y-56375000D01*
X31929000Y-56505250D01*
X31420111Y-56505250D01*
X31420111Y-55634000D01*
X31394799Y-55499480D01*
X31315298Y-55375932D01*
X31222876Y-55312783D01*
X31295736Y-55240050D01*
X31396885Y-54996457D01*
X31397115Y-54732700D01*
X31338153Y-54590000D01*
X32220720Y-54590000D01*
X32743720Y-55113000D01*
X32508998Y-55113000D01*
X32508998Y-55152248D01*
X32469750Y-55113000D01*
X32346367Y-55113000D01*
X32154878Y-55192317D01*
X32008318Y-55338877D01*
X31929000Y-55530366D01*
X31929000Y-55762750D01*
X32059250Y-55893000D01*
X32600000Y-55893000D01*
X32600000Y-55873000D01*
X32900000Y-55873000D01*
X32900000Y-55893000D01*
X33440750Y-55893000D01*
X33571000Y-55762750D01*
X33571000Y-55530366D01*
X33503479Y-55367357D01*
X33514310Y-55360174D01*
X33608571Y-55265913D01*
X33709788Y-55265913D01*
X33901277Y-55186596D01*
X33926651Y-55161222D01*
X33926651Y-54977021D01*
X33781613Y-54831983D01*
X33772287Y-54782419D01*
X33691087Y-54659981D01*
X33046913Y-54015807D01*
X33053827Y-54008893D01*
X33698001Y-54653067D01*
G36*
X26657000Y-57000000D02*
X26677000Y-57000000D01*
X26677000Y-57300000D01*
X26657000Y-57300000D01*
X26657000Y-57411000D01*
X26175000Y-57411000D01*
X26175000Y-57300000D01*
X26155000Y-57300000D01*
X26155000Y-57000000D01*
X26175000Y-57000000D01*
X26175000Y-56889000D01*
X26657000Y-56889000D01*
X26657000Y-57000000D01*
X26657000Y-57000000D01*
G37*
X26657000Y-57000000D02*
X26677000Y-57000000D01*
X26677000Y-57300000D01*
X26657000Y-57300000D01*
X26657000Y-57411000D01*
X26175000Y-57411000D01*
X26175000Y-57300000D01*
X26155000Y-57300000D01*
X26155000Y-57000000D01*
X26175000Y-57000000D01*
X26175000Y-56889000D01*
X26657000Y-56889000D01*
X26657000Y-57000000D01*
G36*
X32024000Y-46605049D02*
X32024000Y-48318342D01*
X31950264Y-48391950D01*
X31849115Y-48635543D01*
X31848885Y-48899300D01*
X31949608Y-49143069D01*
X32135950Y-49329736D01*
X32379543Y-49430885D01*
X32643300Y-49431115D01*
X32887069Y-49330392D01*
X33073736Y-49144050D01*
X33174885Y-48900457D01*
X33175115Y-48636700D01*
X33074392Y-48392931D01*
X33000000Y-48318409D01*
X33000000Y-47399521D01*
X33151950Y-47551736D01*
X33395543Y-47652885D01*
X33500841Y-47652977D01*
X33944932Y-48097068D01*
X34103251Y-48202854D01*
X34290000Y-48240000D01*
X34447889Y-48240000D01*
X34389115Y-48381543D01*
X34388885Y-48645300D01*
X34489608Y-48889069D01*
X34675950Y-49075736D01*
X34919543Y-49176885D01*
X35183300Y-49177115D01*
X35385301Y-49093650D01*
X33912951Y-50566000D01*
X33476136Y-50566000D01*
X33175024Y-50264888D01*
X33175115Y-50160700D01*
X33074392Y-49916931D01*
X32888050Y-49730264D01*
X32644457Y-49629115D01*
X32380700Y-49628885D01*
X32136931Y-49729608D01*
X31950264Y-49915950D01*
X31849115Y-50159543D01*
X31848885Y-50423300D01*
X31949608Y-50667069D01*
X32135950Y-50853736D01*
X32244929Y-50898988D01*
X32126700Y-50898885D01*
X31882931Y-50999608D01*
X31696264Y-51185950D01*
X31595115Y-51429543D01*
X31594885Y-51693300D01*
X31695608Y-51937069D01*
X31881950Y-52123736D01*
X32125543Y-52224885D01*
X32389300Y-52225115D01*
X32605136Y-52135933D01*
X33229189Y-52759986D01*
X33132315Y-52856859D01*
X33057924Y-52965734D01*
X32955539Y-53033635D01*
X32861277Y-53127897D01*
X32760060Y-53127897D01*
X32580938Y-53202091D01*
X32577316Y-53198469D01*
X32492000Y-53283785D01*
X32492000Y-53086000D01*
X32454853Y-52899250D01*
X32349068Y-52740932D01*
X31476000Y-51867864D01*
X31476000Y-50741658D01*
X31549736Y-50668050D01*
X31650885Y-50424457D01*
X31651115Y-50160700D01*
X31550392Y-49916931D01*
X31364050Y-49730264D01*
X31120457Y-49629115D01*
X30856700Y-49628885D01*
X30612931Y-49729608D01*
X30426264Y-49915950D01*
X30325115Y-50159543D01*
X30324885Y-50423300D01*
X30356265Y-50499245D01*
X30311952Y-50454932D01*
X30287854Y-50438830D01*
X30285479Y-50437244D01*
X30280392Y-50424931D01*
X30094050Y-50238264D01*
X29850457Y-50137115D01*
X29586700Y-50136885D01*
X29342931Y-50237608D01*
X29156264Y-50423950D01*
X29055115Y-50667543D01*
X29054885Y-50931300D01*
X29155608Y-51175069D01*
X29288376Y-51308068D01*
X29268409Y-51328000D01*
X29110447Y-51328000D01*
X28923697Y-51365147D01*
X28777422Y-51462885D01*
X28765379Y-51470932D01*
X28636692Y-51599619D01*
X28606832Y-51619422D01*
X27687593Y-52538661D01*
X27610371Y-52651679D01*
X27597717Y-52710011D01*
X27452028Y-52855700D01*
X27452028Y-53039901D01*
X27477402Y-53065275D01*
X27668891Y-53144592D01*
X27770108Y-53144592D01*
X27784467Y-53158951D01*
X26628709Y-54314708D01*
X26522924Y-54473026D01*
X26485777Y-54659776D01*
X26485777Y-55279889D01*
X25674247Y-55279889D01*
X25745068Y-55209068D01*
X25786022Y-55147776D01*
X25850853Y-55050750D01*
X25888000Y-54864000D01*
X25888000Y-53607263D01*
X27060390Y-52434874D01*
X27074747Y-52449231D01*
X27074747Y-52550448D01*
X27154064Y-52741937D01*
X27179438Y-52767311D01*
X27363639Y-52767311D01*
X27508677Y-52622273D01*
X27558241Y-52612947D01*
X27680679Y-52531747D01*
X28599918Y-51612508D01*
X28621614Y-51580755D01*
X28793068Y-51409301D01*
X28898854Y-51250982D01*
X28936000Y-51064233D01*
X28936000Y-49986136D01*
X29666136Y-49256000D01*
X30538342Y-49256000D01*
X30611950Y-49329736D01*
X30855543Y-49430885D01*
X31119300Y-49431115D01*
X31363069Y-49330392D01*
X31549736Y-49144050D01*
X31650885Y-48900457D01*
X31651115Y-48636700D01*
X31550392Y-48392931D01*
X31364050Y-48206264D01*
X31120457Y-48105115D01*
X30856700Y-48104885D01*
X30612931Y-48205608D01*
X30538409Y-48280000D01*
X29464000Y-48280000D01*
X29277250Y-48317147D01*
X29168003Y-48390144D01*
X29118932Y-48422932D01*
X28102932Y-49438932D01*
X27997147Y-49597250D01*
X27960000Y-49784000D01*
X27960000Y-50483296D01*
X27892811Y-50381985D01*
X27716034Y-50205208D01*
X27607159Y-50130817D01*
X27539258Y-50028432D01*
X27362481Y-49851655D01*
X27249463Y-49774433D01*
X27105886Y-49743287D01*
X26961503Y-49770455D01*
X26839065Y-49851655D01*
X25919826Y-50770894D01*
X25898130Y-50802647D01*
X25376827Y-51323950D01*
X25380000Y-51308000D01*
X25380000Y-49224136D01*
X25717507Y-48886629D01*
X26517349Y-48886629D01*
X26839065Y-49208345D01*
X26952083Y-49285567D01*
X27095660Y-49316713D01*
X27240043Y-49289545D01*
X27362481Y-49208345D01*
X27539258Y-49031568D01*
X27613649Y-48922693D01*
X27716034Y-48854792D01*
X27892811Y-48678015D01*
X27967203Y-48569139D01*
X28069588Y-48501238D01*
X28246365Y-48324461D01*
X28320756Y-48215586D01*
X28423141Y-48147685D01*
X28599918Y-47970908D01*
X28674309Y-47862033D01*
X28776694Y-47794132D01*
X28953471Y-47617355D01*
X29027863Y-47508479D01*
X29130248Y-47440578D01*
X29307025Y-47263801D01*
X29381416Y-47154926D01*
X29483801Y-47087025D01*
X29580676Y-46990151D01*
X30144861Y-47554336D01*
X30171608Y-47619069D01*
X30357950Y-47805736D01*
X30601543Y-47906885D01*
X30865300Y-47907115D01*
X31109069Y-47806392D01*
X31295736Y-47620050D01*
X31396885Y-47376457D01*
X31397115Y-47112700D01*
X31296392Y-46868931D01*
X31163624Y-46735932D01*
X31295736Y-46604050D01*
X31396885Y-46360457D01*
X31397115Y-46096700D01*
X31313650Y-45894699D01*
X32024000Y-46605049D01*
X32024000Y-46605049D01*
G37*
X32024000Y-46605049D02*
X32024000Y-48318342D01*
X31950264Y-48391950D01*
X31849115Y-48635543D01*
X31848885Y-48899300D01*
X31949608Y-49143069D01*
X32135950Y-49329736D01*
X32379543Y-49430885D01*
X32643300Y-49431115D01*
X32887069Y-49330392D01*
X33073736Y-49144050D01*
X33174885Y-48900457D01*
X33175115Y-48636700D01*
X33074392Y-48392931D01*
X33000000Y-48318409D01*
X33000000Y-47399521D01*
X33151950Y-47551736D01*
X33395543Y-47652885D01*
X33500841Y-47652977D01*
X33944932Y-48097068D01*
X34103251Y-48202854D01*
X34290000Y-48240000D01*
X34447889Y-48240000D01*
X34389115Y-48381543D01*
X34388885Y-48645300D01*
X34489608Y-48889069D01*
X34675950Y-49075736D01*
X34919543Y-49176885D01*
X35183300Y-49177115D01*
X35385301Y-49093650D01*
X33912951Y-50566000D01*
X33476136Y-50566000D01*
X33175024Y-50264888D01*
X33175115Y-50160700D01*
X33074392Y-49916931D01*
X32888050Y-49730264D01*
X32644457Y-49629115D01*
X32380700Y-49628885D01*
X32136931Y-49729608D01*
X31950264Y-49915950D01*
X31849115Y-50159543D01*
X31848885Y-50423300D01*
X31949608Y-50667069D01*
X32135950Y-50853736D01*
X32244929Y-50898988D01*
X32126700Y-50898885D01*
X31882931Y-50999608D01*
X31696264Y-51185950D01*
X31595115Y-51429543D01*
X31594885Y-51693300D01*
X31695608Y-51937069D01*
X31881950Y-52123736D01*
X32125543Y-52224885D01*
X32389300Y-52225115D01*
X32605136Y-52135933D01*
X33229189Y-52759986D01*
X33132315Y-52856859D01*
X33057924Y-52965734D01*
X32955539Y-53033635D01*
X32861277Y-53127897D01*
X32760060Y-53127897D01*
X32580938Y-53202091D01*
X32577316Y-53198469D01*
X32492000Y-53283785D01*
X32492000Y-53086000D01*
X32454853Y-52899250D01*
X32349068Y-52740932D01*
X31476000Y-51867864D01*
X31476000Y-50741658D01*
X31549736Y-50668050D01*
X31650885Y-50424457D01*
X31651115Y-50160700D01*
X31550392Y-49916931D01*
X31364050Y-49730264D01*
X31120457Y-49629115D01*
X30856700Y-49628885D01*
X30612931Y-49729608D01*
X30426264Y-49915950D01*
X30325115Y-50159543D01*
X30324885Y-50423300D01*
X30356265Y-50499245D01*
X30311952Y-50454932D01*
X30287854Y-50438830D01*
X30285479Y-50437244D01*
X30280392Y-50424931D01*
X30094050Y-50238264D01*
X29850457Y-50137115D01*
X29586700Y-50136885D01*
X29342931Y-50237608D01*
X29156264Y-50423950D01*
X29055115Y-50667543D01*
X29054885Y-50931300D01*
X29155608Y-51175069D01*
X29288376Y-51308068D01*
X29268409Y-51328000D01*
X29110447Y-51328000D01*
X28923697Y-51365147D01*
X28777422Y-51462885D01*
X28765379Y-51470932D01*
X28636692Y-51599619D01*
X28606832Y-51619422D01*
X27687593Y-52538661D01*
X27610371Y-52651679D01*
X27597717Y-52710011D01*
X27452028Y-52855700D01*
X27452028Y-53039901D01*
X27477402Y-53065275D01*
X27668891Y-53144592D01*
X27770108Y-53144592D01*
X27784467Y-53158951D01*
X26628709Y-54314708D01*
X26522924Y-54473026D01*
X26485777Y-54659776D01*
X26485777Y-55279889D01*
X25674247Y-55279889D01*
X25745068Y-55209068D01*
X25786022Y-55147776D01*
X25850853Y-55050750D01*
X25888000Y-54864000D01*
X25888000Y-53607263D01*
X27060390Y-52434874D01*
X27074747Y-52449231D01*
X27074747Y-52550448D01*
X27154064Y-52741937D01*
X27179438Y-52767311D01*
X27363639Y-52767311D01*
X27508677Y-52622273D01*
X27558241Y-52612947D01*
X27680679Y-52531747D01*
X28599918Y-51612508D01*
X28621614Y-51580755D01*
X28793068Y-51409301D01*
X28898854Y-51250982D01*
X28936000Y-51064233D01*
X28936000Y-49986136D01*
X29666136Y-49256000D01*
X30538342Y-49256000D01*
X30611950Y-49329736D01*
X30855543Y-49430885D01*
X31119300Y-49431115D01*
X31363069Y-49330392D01*
X31549736Y-49144050D01*
X31650885Y-48900457D01*
X31651115Y-48636700D01*
X31550392Y-48392931D01*
X31364050Y-48206264D01*
X31120457Y-48105115D01*
X30856700Y-48104885D01*
X30612931Y-48205608D01*
X30538409Y-48280000D01*
X29464000Y-48280000D01*
X29277250Y-48317147D01*
X29168003Y-48390144D01*
X29118932Y-48422932D01*
X28102932Y-49438932D01*
X27997147Y-49597250D01*
X27960000Y-49784000D01*
X27960000Y-50483296D01*
X27892811Y-50381985D01*
X27716034Y-50205208D01*
X27607159Y-50130817D01*
X27539258Y-50028432D01*
X27362481Y-49851655D01*
X27249463Y-49774433D01*
X27105886Y-49743287D01*
X26961503Y-49770455D01*
X26839065Y-49851655D01*
X25919826Y-50770894D01*
X25898130Y-50802647D01*
X25376827Y-51323950D01*
X25380000Y-51308000D01*
X25380000Y-49224136D01*
X25717507Y-48886629D01*
X26517349Y-48886629D01*
X26839065Y-49208345D01*
X26952083Y-49285567D01*
X27095660Y-49316713D01*
X27240043Y-49289545D01*
X27362481Y-49208345D01*
X27539258Y-49031568D01*
X27613649Y-48922693D01*
X27716034Y-48854792D01*
X27892811Y-48678015D01*
X27967203Y-48569139D01*
X28069588Y-48501238D01*
X28246365Y-48324461D01*
X28320756Y-48215586D01*
X28423141Y-48147685D01*
X28599918Y-47970908D01*
X28674309Y-47862033D01*
X28776694Y-47794132D01*
X28953471Y-47617355D01*
X29027863Y-47508479D01*
X29130248Y-47440578D01*
X29307025Y-47263801D01*
X29381416Y-47154926D01*
X29483801Y-47087025D01*
X29580676Y-46990151D01*
X30144861Y-47554336D01*
X30171608Y-47619069D01*
X30357950Y-47805736D01*
X30601543Y-47906885D01*
X30865300Y-47907115D01*
X31109069Y-47806392D01*
X31295736Y-47620050D01*
X31396885Y-47376457D01*
X31397115Y-47112700D01*
X31296392Y-46868931D01*
X31163624Y-46735932D01*
X31295736Y-46604050D01*
X31396885Y-46360457D01*
X31397115Y-46096700D01*
X31313650Y-45894699D01*
X32024000Y-46605049D01*
G36*
X36778761Y-49097068D02*
X36937079Y-49202853D01*
X37123829Y-49240000D01*
X37543614Y-49240000D01*
X37588702Y-49310068D01*
X37710006Y-49392951D01*
X37854000Y-49422111D01*
X38787753Y-49422111D01*
X38770932Y-49438932D01*
X38665147Y-49597250D01*
X38628000Y-49784000D01*
X38628000Y-50851864D01*
X38405864Y-51074000D01*
X37680671Y-51074000D01*
X37688542Y-51037715D01*
X37661374Y-50893332D01*
X37580174Y-50770894D01*
X36908850Y-50099570D01*
X36984885Y-49916457D01*
X36985115Y-49652700D01*
X36884392Y-49408931D01*
X36698050Y-49222264D01*
X36661990Y-49207290D01*
X36775487Y-49093794D01*
X36778761Y-49097068D01*
X36778761Y-49097068D01*
G37*
X36778761Y-49097068D02*
X36937079Y-49202853D01*
X37123829Y-49240000D01*
X37543614Y-49240000D01*
X37588702Y-49310068D01*
X37710006Y-49392951D01*
X37854000Y-49422111D01*
X38787753Y-49422111D01*
X38770932Y-49438932D01*
X38665147Y-49597250D01*
X38628000Y-49784000D01*
X38628000Y-50851864D01*
X38405864Y-51074000D01*
X37680671Y-51074000D01*
X37688542Y-51037715D01*
X37661374Y-50893332D01*
X37580174Y-50770894D01*
X36908850Y-50099570D01*
X36984885Y-49916457D01*
X36985115Y-49652700D01*
X36884392Y-49408931D01*
X36698050Y-49222264D01*
X36661990Y-49207290D01*
X36775487Y-49093794D01*
X36778761Y-49097068D01*
G36*
X39593247Y-46587337D02*
X39991185Y-46853231D01*
X40460584Y-46946600D01*
X40819416Y-46946600D01*
X41288815Y-46853231D01*
X41472000Y-46730831D01*
X41472000Y-47249169D01*
X41288815Y-47126769D01*
X40819416Y-47033400D01*
X40460584Y-47033400D01*
X39991185Y-47126769D01*
X39593247Y-47392663D01*
X39327353Y-47790601D01*
X39233984Y-48260000D01*
X39327353Y-48729399D01*
X39388681Y-48821183D01*
X39224111Y-48985753D01*
X39224111Y-48452000D01*
X39198799Y-48317480D01*
X39119298Y-48193932D01*
X38997994Y-48111049D01*
X38854000Y-48081889D01*
X37854000Y-48081889D01*
X37719480Y-48107201D01*
X37664692Y-48142456D01*
X37688542Y-48032511D01*
X37661374Y-47888128D01*
X37580174Y-47765690D01*
X37485913Y-47671429D01*
X37485913Y-47570212D01*
X37406596Y-47378723D01*
X37381222Y-47353349D01*
X37197021Y-47353349D01*
X37051983Y-47498387D01*
X37002419Y-47507713D01*
X36879981Y-47588913D01*
X36235807Y-48233088D01*
X36228893Y-48226174D01*
X36873067Y-47581999D01*
X36950289Y-47468981D01*
X36962943Y-47410649D01*
X37108632Y-47264960D01*
X37108632Y-47080759D01*
X37083258Y-47055385D01*
X36891769Y-46976068D01*
X36790552Y-46976068D01*
X36776194Y-46961710D01*
X36877686Y-46860217D01*
X36951543Y-46890885D01*
X37215300Y-46891115D01*
X37333000Y-46842482D01*
X37333000Y-46993002D01*
X37372248Y-46993002D01*
X37333000Y-47032250D01*
X37333000Y-47155633D01*
X37412317Y-47347122D01*
X37558877Y-47493682D01*
X37750366Y-47573000D01*
X37982750Y-47573000D01*
X38113000Y-47442750D01*
X38113000Y-46902000D01*
X38595000Y-46902000D01*
X38595000Y-47442750D01*
X38725250Y-47573000D01*
X38957634Y-47573000D01*
X39149123Y-47493682D01*
X39295683Y-47347122D01*
X39375000Y-47155633D01*
X39375000Y-47032250D01*
X39244750Y-46902000D01*
X38595000Y-46902000D01*
X38113000Y-46902000D01*
X38093000Y-46902000D01*
X38093000Y-46602000D01*
X38113000Y-46602000D01*
X38113000Y-46491000D01*
X38595000Y-46491000D01*
X38595000Y-46602000D01*
X39244750Y-46602000D01*
X39375000Y-46471750D01*
X39375000Y-46348367D01*
X39316858Y-46208000D01*
X39339782Y-46208000D01*
X39593247Y-46587337D01*
X39593247Y-46587337D01*
G37*
X39593247Y-46587337D02*
X39991185Y-46853231D01*
X40460584Y-46946600D01*
X40819416Y-46946600D01*
X41288815Y-46853231D01*
X41472000Y-46730831D01*
X41472000Y-47249169D01*
X41288815Y-47126769D01*
X40819416Y-47033400D01*
X40460584Y-47033400D01*
X39991185Y-47126769D01*
X39593247Y-47392663D01*
X39327353Y-47790601D01*
X39233984Y-48260000D01*
X39327353Y-48729399D01*
X39388681Y-48821183D01*
X39224111Y-48985753D01*
X39224111Y-48452000D01*
X39198799Y-48317480D01*
X39119298Y-48193932D01*
X38997994Y-48111049D01*
X38854000Y-48081889D01*
X37854000Y-48081889D01*
X37719480Y-48107201D01*
X37664692Y-48142456D01*
X37688542Y-48032511D01*
X37661374Y-47888128D01*
X37580174Y-47765690D01*
X37485913Y-47671429D01*
X37485913Y-47570212D01*
X37406596Y-47378723D01*
X37381222Y-47353349D01*
X37197021Y-47353349D01*
X37051983Y-47498387D01*
X37002419Y-47507713D01*
X36879981Y-47588913D01*
X36235807Y-48233088D01*
X36228893Y-48226174D01*
X36873067Y-47581999D01*
X36950289Y-47468981D01*
X36962943Y-47410649D01*
X37108632Y-47264960D01*
X37108632Y-47080759D01*
X37083258Y-47055385D01*
X36891769Y-46976068D01*
X36790552Y-46976068D01*
X36776194Y-46961710D01*
X36877686Y-46860217D01*
X36951543Y-46890885D01*
X37215300Y-46891115D01*
X37333000Y-46842482D01*
X37333000Y-46993002D01*
X37372248Y-46993002D01*
X37333000Y-47032250D01*
X37333000Y-47155633D01*
X37412317Y-47347122D01*
X37558877Y-47493682D01*
X37750366Y-47573000D01*
X37982750Y-47573000D01*
X38113000Y-47442750D01*
X38113000Y-46902000D01*
X38595000Y-46902000D01*
X38595000Y-47442750D01*
X38725250Y-47573000D01*
X38957634Y-47573000D01*
X39149123Y-47493682D01*
X39295683Y-47347122D01*
X39375000Y-47155633D01*
X39375000Y-47032250D01*
X39244750Y-46902000D01*
X38595000Y-46902000D01*
X38113000Y-46902000D01*
X38093000Y-46902000D01*
X38093000Y-46602000D01*
X38113000Y-46602000D01*
X38113000Y-46491000D01*
X38595000Y-46491000D01*
X38595000Y-46602000D01*
X39244750Y-46602000D01*
X39375000Y-46471750D01*
X39375000Y-46348367D01*
X39316858Y-46208000D01*
X39339782Y-46208000D01*
X39593247Y-46587337D01*
G36*
X30453088Y-45044194D02*
X30446174Y-45051108D01*
X30077064Y-44681998D01*
X30083978Y-44675084D01*
X30453088Y-45044194D01*
X30453088Y-45044194D01*
G37*
X30453088Y-45044194D02*
X30446174Y-45051108D01*
X30077064Y-44681998D01*
X30083978Y-44675084D01*
X30453088Y-45044194D01*
G36*
X34313000Y-39289000D02*
X34424000Y-39289000D01*
X34424000Y-39771000D01*
X34313000Y-39771000D01*
X34313000Y-40695750D01*
X34443250Y-40826000D01*
X34566634Y-40826000D01*
X34643086Y-40794332D01*
X34642885Y-41025300D01*
X34743608Y-41269069D01*
X34929950Y-41455736D01*
X35152592Y-41548185D01*
X34079000Y-42621777D01*
X34079000Y-42430998D01*
X33948752Y-42430998D01*
X34079000Y-42300750D01*
X34079000Y-42068366D01*
X33999682Y-41876877D01*
X33853122Y-41730317D01*
X33661633Y-41651000D01*
X33538250Y-41651000D01*
X33408000Y-41781250D01*
X33408000Y-42431000D01*
X33519000Y-42431000D01*
X33519000Y-42913000D01*
X33408000Y-42913000D01*
X33408000Y-42933000D01*
X33108000Y-42933000D01*
X33108000Y-42913000D01*
X32997000Y-42913000D01*
X32997000Y-42431000D01*
X33108000Y-42431000D01*
X33108000Y-41781250D01*
X32977750Y-41651000D01*
X32854367Y-41651000D01*
X32732919Y-41701305D01*
X32634050Y-41602264D01*
X32390457Y-41501115D01*
X32285159Y-41501023D01*
X32111000Y-41326864D01*
X32111000Y-40615386D01*
X32129921Y-40603210D01*
X32129868Y-40664104D01*
X32245783Y-40944640D01*
X32460231Y-41159463D01*
X32740564Y-41275867D01*
X33044104Y-41276132D01*
X33174434Y-41222281D01*
X33254585Y-41206338D01*
X33321940Y-41161333D01*
X33324640Y-41160217D01*
X33326726Y-41158135D01*
X33453456Y-41073456D01*
X33537394Y-40947834D01*
X33539463Y-40945769D01*
X33540594Y-40943046D01*
X33586338Y-40874585D01*
X33602261Y-40794535D01*
X33614169Y-40765857D01*
X33759366Y-40826000D01*
X33882750Y-40826000D01*
X34013000Y-40695750D01*
X34013000Y-39771000D01*
X33902000Y-39771000D01*
X33902000Y-39289000D01*
X34013000Y-39289000D01*
X34013000Y-39269000D01*
X34313000Y-39269000D01*
X34313000Y-39289000D01*
X34313000Y-39289000D01*
G37*
X34313000Y-39289000D02*
X34424000Y-39289000D01*
X34424000Y-39771000D01*
X34313000Y-39771000D01*
X34313000Y-40695750D01*
X34443250Y-40826000D01*
X34566634Y-40826000D01*
X34643086Y-40794332D01*
X34642885Y-41025300D01*
X34743608Y-41269069D01*
X34929950Y-41455736D01*
X35152592Y-41548185D01*
X34079000Y-42621777D01*
X34079000Y-42430998D01*
X33948752Y-42430998D01*
X34079000Y-42300750D01*
X34079000Y-42068366D01*
X33999682Y-41876877D01*
X33853122Y-41730317D01*
X33661633Y-41651000D01*
X33538250Y-41651000D01*
X33408000Y-41781250D01*
X33408000Y-42431000D01*
X33519000Y-42431000D01*
X33519000Y-42913000D01*
X33408000Y-42913000D01*
X33408000Y-42933000D01*
X33108000Y-42933000D01*
X33108000Y-42913000D01*
X32997000Y-42913000D01*
X32997000Y-42431000D01*
X33108000Y-42431000D01*
X33108000Y-41781250D01*
X32977750Y-41651000D01*
X32854367Y-41651000D01*
X32732919Y-41701305D01*
X32634050Y-41602264D01*
X32390457Y-41501115D01*
X32285159Y-41501023D01*
X32111000Y-41326864D01*
X32111000Y-40615386D01*
X32129921Y-40603210D01*
X32129868Y-40664104D01*
X32245783Y-40944640D01*
X32460231Y-41159463D01*
X32740564Y-41275867D01*
X33044104Y-41276132D01*
X33174434Y-41222281D01*
X33254585Y-41206338D01*
X33321940Y-41161333D01*
X33324640Y-41160217D01*
X33326726Y-41158135D01*
X33453456Y-41073456D01*
X33537394Y-40947834D01*
X33539463Y-40945769D01*
X33540594Y-40943046D01*
X33586338Y-40874585D01*
X33602261Y-40794535D01*
X33614169Y-40765857D01*
X33759366Y-40826000D01*
X33882750Y-40826000D01*
X34013000Y-40695750D01*
X34013000Y-39771000D01*
X33902000Y-39771000D01*
X33902000Y-39289000D01*
X34013000Y-39289000D01*
X34013000Y-39269000D01*
X34313000Y-39269000D01*
X34313000Y-39289000D01*
G36*
X35709000Y-37338087D02*
X35560088Y-37487000D01*
X33274000Y-37487000D01*
X33039415Y-37533662D01*
X32840543Y-37666544D01*
X32459544Y-38047544D01*
X32326662Y-38246415D01*
X32280000Y-38481000D01*
X32280000Y-38570098D01*
X32257021Y-38603730D01*
X32188298Y-38496932D01*
X32066994Y-38414049D01*
X31923000Y-38384889D01*
X31323000Y-38384889D01*
X31188480Y-38410201D01*
X31064932Y-38489702D01*
X30982049Y-38611006D01*
X30965106Y-38694673D01*
X30918298Y-38621932D01*
X30832049Y-38563001D01*
X30803853Y-38421250D01*
X30698068Y-38262932D01*
X30215111Y-37779975D01*
X30215111Y-36982400D01*
X30189799Y-36847880D01*
X30179222Y-36831443D01*
X30185951Y-36821594D01*
X30215111Y-36677600D01*
X30215111Y-36239247D01*
X30642932Y-36667068D01*
X30801250Y-36772853D01*
X30988000Y-36810000D01*
X31300342Y-36810000D01*
X31373950Y-36883736D01*
X31617543Y-36984885D01*
X31881300Y-36985115D01*
X32125069Y-36884392D01*
X32311736Y-36698050D01*
X32412885Y-36454457D01*
X32413115Y-36190700D01*
X32354153Y-36048000D01*
X35709000Y-36048000D01*
X35709000Y-37338087D01*
X35709000Y-37338087D01*
G37*
X35709000Y-37338087D02*
X35560088Y-37487000D01*
X33274000Y-37487000D01*
X33039415Y-37533662D01*
X32840543Y-37666544D01*
X32459544Y-38047544D01*
X32326662Y-38246415D01*
X32280000Y-38481000D01*
X32280000Y-38570098D01*
X32257021Y-38603730D01*
X32188298Y-38496932D01*
X32066994Y-38414049D01*
X31923000Y-38384889D01*
X31323000Y-38384889D01*
X31188480Y-38410201D01*
X31064932Y-38489702D01*
X30982049Y-38611006D01*
X30965106Y-38694673D01*
X30918298Y-38621932D01*
X30832049Y-38563001D01*
X30803853Y-38421250D01*
X30698068Y-38262932D01*
X30215111Y-37779975D01*
X30215111Y-36982400D01*
X30189799Y-36847880D01*
X30179222Y-36831443D01*
X30185951Y-36821594D01*
X30215111Y-36677600D01*
X30215111Y-36239247D01*
X30642932Y-36667068D01*
X30801250Y-36772853D01*
X30988000Y-36810000D01*
X31300342Y-36810000D01*
X31373950Y-36883736D01*
X31617543Y-36984885D01*
X31881300Y-36985115D01*
X32125069Y-36884392D01*
X32311736Y-36698050D01*
X32412885Y-36454457D01*
X32413115Y-36190700D01*
X32354153Y-36048000D01*
X35709000Y-36048000D01*
X35709000Y-37338087D01*
G36*
X25166000Y-30936136D02*
X25166000Y-31300342D01*
X25092264Y-31373950D01*
X24991115Y-31617543D01*
X24990885Y-31881300D01*
X25091608Y-32125069D01*
X25277950Y-32311736D01*
X25521543Y-32412885D01*
X25785300Y-32413115D01*
X25918889Y-32357917D01*
X25918889Y-32994600D01*
X25930403Y-33055792D01*
X25801317Y-33184878D01*
X25722000Y-33376367D01*
X25722000Y-33758750D01*
X25852250Y-33889000D01*
X26393000Y-33889000D01*
X26393000Y-33869000D01*
X26693000Y-33869000D01*
X26693000Y-33889000D01*
X26804000Y-33889000D01*
X26804000Y-34371000D01*
X26693000Y-34371000D01*
X26693000Y-35170750D01*
X26823250Y-35301000D01*
X26946634Y-35301000D01*
X27138123Y-35221682D01*
X27284683Y-35075122D01*
X27288488Y-35065936D01*
X27369006Y-35120951D01*
X27466322Y-35140658D01*
X27467932Y-35143068D01*
X27667153Y-35342289D01*
X26543000Y-35342289D01*
X26408480Y-35367601D01*
X26350450Y-35404942D01*
X26284700Y-35404885D01*
X26040931Y-35505608D01*
X25854264Y-35691950D01*
X25753115Y-35935543D01*
X25752885Y-36199300D01*
X25799801Y-36312845D01*
X25745068Y-36230932D01*
X25380000Y-35865864D01*
X25380000Y-34501250D01*
X25722000Y-34501250D01*
X25722000Y-34883633D01*
X25801317Y-35075122D01*
X25947877Y-35221682D01*
X26139366Y-35301000D01*
X26262750Y-35301000D01*
X26393000Y-35170750D01*
X26393000Y-34371000D01*
X25852250Y-34371000D01*
X25722000Y-34501250D01*
X25380000Y-34501250D01*
X25380000Y-34290000D01*
X25342853Y-34103250D01*
X25237068Y-33944932D01*
X24999000Y-33706864D01*
X24999000Y-32131000D01*
X24986747Y-32069399D01*
X24961854Y-31944251D01*
X24856068Y-31785932D01*
X24111319Y-31041183D01*
X24172647Y-30949399D01*
X24266016Y-30480000D01*
X24172647Y-30010601D01*
X24036083Y-29806219D01*
X25166000Y-30936136D01*
X25166000Y-30936136D01*
G37*
X25166000Y-30936136D02*
X25166000Y-31300342D01*
X25092264Y-31373950D01*
X24991115Y-31617543D01*
X24990885Y-31881300D01*
X25091608Y-32125069D01*
X25277950Y-32311736D01*
X25521543Y-32412885D01*
X25785300Y-32413115D01*
X25918889Y-32357917D01*
X25918889Y-32994600D01*
X25930403Y-33055792D01*
X25801317Y-33184878D01*
X25722000Y-33376367D01*
X25722000Y-33758750D01*
X25852250Y-33889000D01*
X26393000Y-33889000D01*
X26393000Y-33869000D01*
X26693000Y-33869000D01*
X26693000Y-33889000D01*
X26804000Y-33889000D01*
X26804000Y-34371000D01*
X26693000Y-34371000D01*
X26693000Y-35170750D01*
X26823250Y-35301000D01*
X26946634Y-35301000D01*
X27138123Y-35221682D01*
X27284683Y-35075122D01*
X27288488Y-35065936D01*
X27369006Y-35120951D01*
X27466322Y-35140658D01*
X27467932Y-35143068D01*
X27667153Y-35342289D01*
X26543000Y-35342289D01*
X26408480Y-35367601D01*
X26350450Y-35404942D01*
X26284700Y-35404885D01*
X26040931Y-35505608D01*
X25854264Y-35691950D01*
X25753115Y-35935543D01*
X25752885Y-36199300D01*
X25799801Y-36312845D01*
X25745068Y-36230932D01*
X25380000Y-35865864D01*
X25380000Y-34501250D01*
X25722000Y-34501250D01*
X25722000Y-34883633D01*
X25801317Y-35075122D01*
X25947877Y-35221682D01*
X26139366Y-35301000D01*
X26262750Y-35301000D01*
X26393000Y-35170750D01*
X26393000Y-34371000D01*
X25852250Y-34371000D01*
X25722000Y-34501250D01*
X25380000Y-34501250D01*
X25380000Y-34290000D01*
X25342853Y-34103250D01*
X25237068Y-33944932D01*
X24999000Y-33706864D01*
X24999000Y-32131000D01*
X24986747Y-32069399D01*
X24961854Y-31944251D01*
X24856068Y-31785932D01*
X24111319Y-31041183D01*
X24172647Y-30949399D01*
X24266016Y-30480000D01*
X24172647Y-30010601D01*
X24036083Y-29806219D01*
X25166000Y-30936136D01*
G36*
X31773000Y-33889000D02*
X31884000Y-33889000D01*
X31884000Y-34371000D01*
X31773000Y-34371000D01*
X31773000Y-34391000D01*
X31473000Y-34391000D01*
X31473000Y-34371000D01*
X31362000Y-34371000D01*
X31362000Y-33889000D01*
X31473000Y-33889000D01*
X31473000Y-33869000D01*
X31773000Y-33869000D01*
X31773000Y-33889000D01*
X31773000Y-33889000D01*
G37*
X31773000Y-33889000D02*
X31884000Y-33889000D01*
X31884000Y-34371000D01*
X31773000Y-34371000D01*
X31773000Y-34391000D01*
X31473000Y-34391000D01*
X31473000Y-34371000D01*
X31362000Y-34371000D01*
X31362000Y-33889000D01*
X31473000Y-33889000D01*
X31473000Y-33869000D01*
X31773000Y-33869000D01*
X31773000Y-33889000D01*
G36*
X35583000Y-33889000D02*
X35694000Y-33889000D01*
X35694000Y-34371000D01*
X35583000Y-34371000D01*
X35583000Y-34391000D01*
X35283000Y-34391000D01*
X35283000Y-34371000D01*
X35172000Y-34371000D01*
X35172000Y-33889000D01*
X35283000Y-33889000D01*
X35283000Y-33869000D01*
X35583000Y-33869000D01*
X35583000Y-33889000D01*
X35583000Y-33889000D01*
G37*
X35583000Y-33889000D02*
X35694000Y-33889000D01*
X35694000Y-34371000D01*
X35583000Y-34371000D01*
X35583000Y-34391000D01*
X35283000Y-34391000D01*
X35283000Y-34371000D01*
X35172000Y-34371000D01*
X35172000Y-33889000D01*
X35283000Y-33889000D01*
X35283000Y-33869000D01*
X35583000Y-33869000D01*
X35583000Y-33889000D01*
G36*
X39593247Y-23727337D02*
X39991185Y-23993231D01*
X40460584Y-24086600D01*
X40819416Y-24086600D01*
X41288815Y-23993231D01*
X41472000Y-23870831D01*
X41472000Y-24389169D01*
X41288815Y-24266769D01*
X40819416Y-24173400D01*
X40460584Y-24173400D01*
X39991185Y-24266769D01*
X39593247Y-24532663D01*
X39327353Y-24930601D01*
X39233984Y-25400000D01*
X39327353Y-25869399D01*
X39388681Y-25961183D01*
X38770932Y-26578932D01*
X38665147Y-26737250D01*
X38628000Y-26924000D01*
X38628000Y-28499864D01*
X38588000Y-28539864D01*
X38588000Y-26924000D01*
X38550854Y-26737251D01*
X38445068Y-26578932D01*
X37683068Y-25816932D01*
X37644478Y-25791147D01*
X37524750Y-25711147D01*
X37338000Y-25674000D01*
X36263658Y-25674000D01*
X36190050Y-25600264D01*
X35946457Y-25499115D01*
X35682700Y-25498885D01*
X35438931Y-25599608D01*
X35252264Y-25785950D01*
X35151115Y-26029543D01*
X35150885Y-26293300D01*
X35251608Y-26537069D01*
X35437950Y-26723736D01*
X35681543Y-26824885D01*
X35710041Y-26824910D01*
X35559000Y-27199000D01*
X35559000Y-27699000D01*
X36589000Y-27699000D01*
X36589000Y-27679000D01*
X37071000Y-27679000D01*
X37071000Y-27699000D01*
X37091000Y-27699000D01*
X37091000Y-28181000D01*
X37071000Y-28181000D01*
X37071000Y-28201000D01*
X36589000Y-28201000D01*
X36589000Y-28181000D01*
X35559000Y-28181000D01*
X35559000Y-28681000D01*
X35735961Y-29119289D01*
X35210102Y-29119289D01*
X35358278Y-28897528D01*
X35443000Y-28471601D01*
X35443000Y-27408399D01*
X35358278Y-26982472D01*
X35117010Y-26621389D01*
X35093000Y-26605346D01*
X35093000Y-25422044D01*
X36892045Y-23623000D01*
X39523531Y-23623000D01*
X39593247Y-23727337D01*
X39593247Y-23727337D01*
G37*
X39593247Y-23727337D02*
X39991185Y-23993231D01*
X40460584Y-24086600D01*
X40819416Y-24086600D01*
X41288815Y-23993231D01*
X41472000Y-23870831D01*
X41472000Y-24389169D01*
X41288815Y-24266769D01*
X40819416Y-24173400D01*
X40460584Y-24173400D01*
X39991185Y-24266769D01*
X39593247Y-24532663D01*
X39327353Y-24930601D01*
X39233984Y-25400000D01*
X39327353Y-25869399D01*
X39388681Y-25961183D01*
X38770932Y-26578932D01*
X38665147Y-26737250D01*
X38628000Y-26924000D01*
X38628000Y-28499864D01*
X38588000Y-28539864D01*
X38588000Y-26924000D01*
X38550854Y-26737251D01*
X38445068Y-26578932D01*
X37683068Y-25816932D01*
X37644478Y-25791147D01*
X37524750Y-25711147D01*
X37338000Y-25674000D01*
X36263658Y-25674000D01*
X36190050Y-25600264D01*
X35946457Y-25499115D01*
X35682700Y-25498885D01*
X35438931Y-25599608D01*
X35252264Y-25785950D01*
X35151115Y-26029543D01*
X35150885Y-26293300D01*
X35251608Y-26537069D01*
X35437950Y-26723736D01*
X35681543Y-26824885D01*
X35710041Y-26824910D01*
X35559000Y-27199000D01*
X35559000Y-27699000D01*
X36589000Y-27699000D01*
X36589000Y-27679000D01*
X37071000Y-27679000D01*
X37071000Y-27699000D01*
X37091000Y-27699000D01*
X37091000Y-28181000D01*
X37071000Y-28181000D01*
X37071000Y-28201000D01*
X36589000Y-28201000D01*
X36589000Y-28181000D01*
X35559000Y-28181000D01*
X35559000Y-28681000D01*
X35735961Y-29119289D01*
X35210102Y-29119289D01*
X35358278Y-28897528D01*
X35443000Y-28471601D01*
X35443000Y-27408399D01*
X35358278Y-26982472D01*
X35117010Y-26621389D01*
X35093000Y-26605346D01*
X35093000Y-25422044D01*
X36892045Y-23623000D01*
X39523531Y-23623000D01*
X39593247Y-23727337D01*
G36*
X39253889Y-21183600D02*
X39279201Y-21318120D01*
X39358702Y-21441668D01*
X39480006Y-21524551D01*
X39624000Y-21553711D01*
X41472000Y-21553711D01*
X41472000Y-21849169D01*
X41288815Y-21726769D01*
X40819416Y-21633400D01*
X40460584Y-21633400D01*
X39991185Y-21726769D01*
X39593247Y-21992663D01*
X39523531Y-22097000D01*
X36576000Y-22097000D01*
X36284013Y-22155080D01*
X36036478Y-22320477D01*
X33790478Y-24566478D01*
X33625080Y-24814012D01*
X33625080Y-24814013D01*
X33567000Y-25106000D01*
X33567000Y-26605346D01*
X33542990Y-26621389D01*
X33301722Y-26982472D01*
X33217000Y-27408399D01*
X33217000Y-28208864D01*
X32943000Y-27934864D01*
X32943000Y-27408399D01*
X32858278Y-26982472D01*
X32753051Y-26824989D01*
X32897300Y-26825115D01*
X33141069Y-26724392D01*
X33327736Y-26538050D01*
X33428885Y-26294457D01*
X33429115Y-26030700D01*
X33328392Y-25786931D01*
X33142050Y-25600264D01*
X32898457Y-25499115D01*
X32793159Y-25499023D01*
X30825068Y-23530932D01*
X30666750Y-23425147D01*
X30480000Y-23388000D01*
X24384000Y-23388000D01*
X24197250Y-23425147D01*
X24038932Y-23530932D01*
X24036083Y-23533781D01*
X24172647Y-23329399D01*
X24266016Y-22860000D01*
X24172647Y-22390601D01*
X23906753Y-21992663D01*
X23631805Y-21808948D01*
X31216678Y-21808948D01*
X31499705Y-22493926D01*
X32023318Y-23018453D01*
X32707801Y-23302676D01*
X33448948Y-23303322D01*
X34133926Y-23020295D01*
X34658453Y-22496682D01*
X34942676Y-21812199D01*
X34943322Y-21071052D01*
X34660295Y-20386074D01*
X34136682Y-19861547D01*
X33452199Y-19577324D01*
X32711052Y-19576678D01*
X32026074Y-19859705D01*
X31501547Y-20383318D01*
X31217324Y-21067801D01*
X31216678Y-21808948D01*
X23631805Y-21808948D01*
X23508815Y-21726769D01*
X23101002Y-21645650D01*
X23101002Y-21566626D01*
X23315300Y-21666063D01*
X23807359Y-21447685D01*
X24178393Y-21057627D01*
X24321378Y-20771326D01*
X24243380Y-20561000D01*
X23101000Y-20561000D01*
X23101000Y-20581000D01*
X22619000Y-20581000D01*
X22619000Y-20561000D01*
X22599000Y-20561000D01*
X22599000Y-20079000D01*
X22619000Y-20079000D01*
X22619000Y-20059000D01*
X23101000Y-20059000D01*
X23101000Y-20079000D01*
X24243380Y-20079000D01*
X24321378Y-19868674D01*
X24178393Y-19582373D01*
X24088623Y-19488000D01*
X39253889Y-19488000D01*
X39253889Y-21183600D01*
X39253889Y-21183600D01*
G37*
X39253889Y-21183600D02*
X39279201Y-21318120D01*
X39358702Y-21441668D01*
X39480006Y-21524551D01*
X39624000Y-21553711D01*
X41472000Y-21553711D01*
X41472000Y-21849169D01*
X41288815Y-21726769D01*
X40819416Y-21633400D01*
X40460584Y-21633400D01*
X39991185Y-21726769D01*
X39593247Y-21992663D01*
X39523531Y-22097000D01*
X36576000Y-22097000D01*
X36284013Y-22155080D01*
X36036478Y-22320477D01*
X33790478Y-24566478D01*
X33625080Y-24814012D01*
X33625080Y-24814013D01*
X33567000Y-25106000D01*
X33567000Y-26605346D01*
X33542990Y-26621389D01*
X33301722Y-26982472D01*
X33217000Y-27408399D01*
X33217000Y-28208864D01*
X32943000Y-27934864D01*
X32943000Y-27408399D01*
X32858278Y-26982472D01*
X32753051Y-26824989D01*
X32897300Y-26825115D01*
X33141069Y-26724392D01*
X33327736Y-26538050D01*
X33428885Y-26294457D01*
X33429115Y-26030700D01*
X33328392Y-25786931D01*
X33142050Y-25600264D01*
X32898457Y-25499115D01*
X32793159Y-25499023D01*
X30825068Y-23530932D01*
X30666750Y-23425147D01*
X30480000Y-23388000D01*
X24384000Y-23388000D01*
X24197250Y-23425147D01*
X24038932Y-23530932D01*
X24036083Y-23533781D01*
X24172647Y-23329399D01*
X24266016Y-22860000D01*
X24172647Y-22390601D01*
X23906753Y-21992663D01*
X23631805Y-21808948D01*
X31216678Y-21808948D01*
X31499705Y-22493926D01*
X32023318Y-23018453D01*
X32707801Y-23302676D01*
X33448948Y-23303322D01*
X34133926Y-23020295D01*
X34658453Y-22496682D01*
X34942676Y-21812199D01*
X34943322Y-21071052D01*
X34660295Y-20386074D01*
X34136682Y-19861547D01*
X33452199Y-19577324D01*
X32711052Y-19576678D01*
X32026074Y-19859705D01*
X31501547Y-20383318D01*
X31217324Y-21067801D01*
X31216678Y-21808948D01*
X23631805Y-21808948D01*
X23508815Y-21726769D01*
X23101002Y-21645650D01*
X23101002Y-21566626D01*
X23315300Y-21666063D01*
X23807359Y-21447685D01*
X24178393Y-21057627D01*
X24321378Y-20771326D01*
X24243380Y-20561000D01*
X23101000Y-20561000D01*
X23101000Y-20581000D01*
X22619000Y-20581000D01*
X22619000Y-20561000D01*
X22599000Y-20561000D01*
X22599000Y-20079000D01*
X22619000Y-20079000D01*
X22619000Y-20059000D01*
X23101000Y-20059000D01*
X23101000Y-20079000D01*
X24243380Y-20079000D01*
X24321378Y-19868674D01*
X24178393Y-19582373D01*
X24088623Y-19488000D01*
X39253889Y-19488000D01*
X39253889Y-21183600D01*
M02*
