G04 #@! TF.FileFunction,Soldermask,Top*
%FSLAX46Y46*%
G04 Gerber Fmt 4.6, Leading zero omitted, Abs format (unit mm)*
G04 Created by KiCad (PCBNEW 4.0.7) date 03/03/18 19:12:10*
%MOMM*%
%LPD*%
G01*
G04 APERTURE LIST*
%ADD10C,0.100000*%
%ADD11R,2.432000X2.127200*%
%ADD12O,2.432000X2.127200*%
%ADD13O,1.900000X2.900000*%
%ADD14C,3.400000*%
%ADD15R,1.200000X1.400000*%
%ADD16R,1.400000X1.200000*%
%ADD17O,1.400000X1.924000*%
%ADD18R,2.432000X2.432000*%
%ADD19O,2.432000X2.432000*%
%ADD20R,1.197560X1.197560*%
%ADD21R,1.901140X1.400760*%
%ADD22R,3.399740X2.398980*%
%ADD23R,3.448000X2.051000*%
%ADD24R,6.496000X6.496000*%
%ADD25R,1.800000X2.200000*%
%ADD26R,2.200000X1.800000*%
%ADD27R,1.000000X1.400000*%
%ADD28R,3.000000X1.900000*%
%ADD29R,2.429460X2.051000*%
%ADD30R,0.800000X1.750000*%
%ADD31R,2.500000X2.000000*%
%ADD32R,2.300000X2.300000*%
%ADD33R,1.900000X2.200000*%
%ADD34O,1.900000X2.200000*%
G04 APERTURE END LIST*
D10*
D11*
X22860000Y-71120000D03*
D12*
X22860000Y-68580000D03*
X22860000Y-66040000D03*
X22860000Y-63500000D03*
X22860000Y-60960000D03*
X22860000Y-58420000D03*
X22860000Y-55880000D03*
X22860000Y-53340000D03*
X22860000Y-50800000D03*
X22860000Y-48260000D03*
X22860000Y-45720000D03*
X22860000Y-43180000D03*
X22860000Y-40640000D03*
X22860000Y-38100000D03*
X22860000Y-35560000D03*
X22860000Y-33020000D03*
X22860000Y-30480000D03*
X22860000Y-27940000D03*
X22860000Y-25400000D03*
X22860000Y-22860000D03*
X22860000Y-20320000D03*
D13*
X36830000Y-27940000D03*
X34330000Y-27940000D03*
X31830000Y-27940000D03*
X29330000Y-27940000D03*
D14*
X33080000Y-21440000D03*
D15*
X31126000Y-54864000D03*
X29326000Y-54864000D03*
X34174000Y-54864000D03*
X32374000Y-54864000D03*
D16*
X34290000Y-45858000D03*
X34290000Y-44058000D03*
D15*
X32374000Y-56642000D03*
X34174000Y-56642000D03*
D17*
X37084000Y-60452000D03*
X35584000Y-60452000D03*
X34084000Y-60452000D03*
X32584000Y-60452000D03*
X31084000Y-60452000D03*
X29584000Y-60452000D03*
D18*
X25400000Y-25400000D03*
D19*
X25400000Y-27940000D03*
D20*
X35814000Y-44208700D03*
X35814000Y-45707300D03*
X29476700Y-56642000D03*
X30975300Y-56642000D03*
D21*
X28374340Y-39138860D03*
X28374340Y-40640000D03*
X28374340Y-42141140D03*
D22*
X31325820Y-40640000D03*
D10*
G36*
X30051350Y-41840760D02*
X28902050Y-41340380D01*
X28902050Y-39939620D01*
X30051350Y-39439240D01*
X30051350Y-41840760D01*
X30051350Y-41840760D01*
G37*
D23*
X29464000Y-32766000D03*
D24*
X35814000Y-35052000D03*
D23*
X29464000Y-37338000D03*
D25*
X32944000Y-30480000D03*
X36144000Y-30480000D03*
D26*
X26162000Y-42494000D03*
X26162000Y-39294000D03*
X35560000Y-42494000D03*
X35560000Y-39294000D03*
D27*
X32020000Y-48768000D03*
X34020000Y-48768000D03*
D28*
X34296000Y-52324000D03*
X28696000Y-52324000D03*
D29*
X26416000Y-63052960D03*
X26416000Y-59883040D03*
D30*
X30449100Y-67017460D03*
X31099100Y-67017460D03*
X31749100Y-67017460D03*
X32399100Y-67017460D03*
X33049100Y-67017460D03*
D31*
X28750000Y-67080000D03*
D32*
X28250000Y-69580000D03*
X35250000Y-69580000D03*
D31*
X34750000Y-67080000D03*
D33*
X28956000Y-64262000D03*
D34*
X31496000Y-64262000D03*
X34036000Y-64262000D03*
X36576000Y-64262000D03*
D11*
X40640000Y-20320000D03*
D12*
X40640000Y-22860000D03*
X40640000Y-25400000D03*
X40640000Y-27940000D03*
X40640000Y-30480000D03*
X40640000Y-33020000D03*
X40640000Y-35560000D03*
X40640000Y-38100000D03*
X40640000Y-40640000D03*
X40640000Y-43180000D03*
X40640000Y-45720000D03*
X40640000Y-48260000D03*
X40640000Y-50800000D03*
X40640000Y-53340000D03*
X40640000Y-55880000D03*
X40640000Y-58420000D03*
X40640000Y-60960000D03*
X40640000Y-63500000D03*
X40640000Y-66040000D03*
X40640000Y-68580000D03*
X40640000Y-71120000D03*
D20*
X26174700Y-45466000D03*
X27673300Y-45466000D03*
X26174700Y-48514000D03*
X27673300Y-48514000D03*
D15*
X27824000Y-46990000D03*
X26024000Y-46990000D03*
X27824000Y-50038000D03*
X26024000Y-50038000D03*
D20*
X26162000Y-71615300D03*
X26162000Y-70116700D03*
D11*
X22860000Y-71120000D03*
D12*
X22860000Y-68580000D03*
X22860000Y-66040000D03*
X22860000Y-63500000D03*
X22860000Y-60960000D03*
X22860000Y-58420000D03*
X22860000Y-55880000D03*
X22860000Y-53340000D03*
X22860000Y-50800000D03*
X22860000Y-48260000D03*
X22860000Y-45720000D03*
X22860000Y-43180000D03*
X22860000Y-40640000D03*
X22860000Y-38100000D03*
X22860000Y-35560000D03*
X22860000Y-33020000D03*
X22860000Y-30480000D03*
X22860000Y-27940000D03*
X22860000Y-25400000D03*
X22860000Y-22860000D03*
X22860000Y-20320000D03*
D13*
X36830000Y-27940000D03*
X34330000Y-27940000D03*
X31830000Y-27940000D03*
X29330000Y-27940000D03*
D14*
X33080000Y-21440000D03*
D15*
X31126000Y-54864000D03*
X29326000Y-54864000D03*
X34174000Y-54864000D03*
X32374000Y-54864000D03*
D16*
X34290000Y-45858000D03*
X34290000Y-44058000D03*
D15*
X32374000Y-56642000D03*
X34174000Y-56642000D03*
D17*
X37084000Y-60452000D03*
X35584000Y-60452000D03*
X34084000Y-60452000D03*
X32584000Y-60452000D03*
X31084000Y-60452000D03*
X29584000Y-60452000D03*
D18*
X25400000Y-25400000D03*
D19*
X25400000Y-27940000D03*
D20*
X35814000Y-44208700D03*
X35814000Y-45707300D03*
X29476700Y-56642000D03*
X30975300Y-56642000D03*
D21*
X28374340Y-39138860D03*
X28374340Y-40640000D03*
X28374340Y-42141140D03*
D22*
X31325820Y-40640000D03*
D10*
G36*
X30051350Y-41840760D02*
X28902050Y-41340380D01*
X28902050Y-39939620D01*
X30051350Y-39439240D01*
X30051350Y-41840760D01*
X30051350Y-41840760D01*
G37*
D23*
X29464000Y-32766000D03*
D24*
X35814000Y-35052000D03*
D23*
X29464000Y-37338000D03*
D25*
X32944000Y-30480000D03*
X36144000Y-30480000D03*
D26*
X26162000Y-42494000D03*
X26162000Y-39294000D03*
X35560000Y-42494000D03*
X35560000Y-39294000D03*
D27*
X32020000Y-48768000D03*
X34020000Y-48768000D03*
D28*
X34296000Y-52324000D03*
X28696000Y-52324000D03*
D29*
X26416000Y-63052960D03*
X26416000Y-59883040D03*
D30*
X30449100Y-67017460D03*
X31099100Y-67017460D03*
X31749100Y-67017460D03*
X32399100Y-67017460D03*
X33049100Y-67017460D03*
D31*
X28750000Y-67080000D03*
D32*
X28250000Y-69580000D03*
X35250000Y-69580000D03*
D31*
X34750000Y-67080000D03*
D33*
X28956000Y-64262000D03*
D34*
X31496000Y-64262000D03*
X34036000Y-64262000D03*
X36576000Y-64262000D03*
D11*
X40640000Y-20320000D03*
D12*
X40640000Y-22860000D03*
X40640000Y-25400000D03*
X40640000Y-27940000D03*
X40640000Y-30480000D03*
X40640000Y-33020000D03*
X40640000Y-35560000D03*
X40640000Y-38100000D03*
X40640000Y-40640000D03*
X40640000Y-43180000D03*
X40640000Y-45720000D03*
X40640000Y-48260000D03*
X40640000Y-50800000D03*
X40640000Y-53340000D03*
X40640000Y-55880000D03*
X40640000Y-58420000D03*
X40640000Y-60960000D03*
X40640000Y-63500000D03*
X40640000Y-66040000D03*
X40640000Y-68580000D03*
X40640000Y-71120000D03*
D20*
X26174700Y-45466000D03*
X27673300Y-45466000D03*
X26174700Y-48514000D03*
X27673300Y-48514000D03*
D15*
X27824000Y-46990000D03*
X26024000Y-46990000D03*
X27824000Y-50038000D03*
X26024000Y-50038000D03*
D20*
X26162000Y-71615300D03*
X26162000Y-70116700D03*
D11*
X45720000Y-71120000D03*
D12*
X45720000Y-68580000D03*
X45720000Y-66040000D03*
X45720000Y-63500000D03*
X45720000Y-60960000D03*
X45720000Y-58420000D03*
X45720000Y-55880000D03*
X45720000Y-53340000D03*
X45720000Y-50800000D03*
X45720000Y-48260000D03*
X45720000Y-45720000D03*
X45720000Y-43180000D03*
X45720000Y-40640000D03*
X45720000Y-38100000D03*
X45720000Y-35560000D03*
X45720000Y-33020000D03*
X45720000Y-30480000D03*
X45720000Y-27940000D03*
X45720000Y-25400000D03*
X45720000Y-22860000D03*
X45720000Y-20320000D03*
D13*
X59690000Y-27940000D03*
X57190000Y-27940000D03*
X54690000Y-27940000D03*
X52190000Y-27940000D03*
D14*
X55940000Y-21440000D03*
D15*
X53986000Y-54864000D03*
X52186000Y-54864000D03*
X57034000Y-54864000D03*
X55234000Y-54864000D03*
D16*
X57150000Y-45858000D03*
X57150000Y-44058000D03*
D15*
X55234000Y-56642000D03*
X57034000Y-56642000D03*
D17*
X59944000Y-60452000D03*
X58444000Y-60452000D03*
X56944000Y-60452000D03*
X55444000Y-60452000D03*
X53944000Y-60452000D03*
X52444000Y-60452000D03*
D18*
X48260000Y-25400000D03*
D19*
X48260000Y-27940000D03*
D20*
X58674000Y-44208700D03*
X58674000Y-45707300D03*
X52336700Y-56642000D03*
X53835300Y-56642000D03*
D21*
X51234340Y-39138860D03*
X51234340Y-40640000D03*
X51234340Y-42141140D03*
D22*
X54185820Y-40640000D03*
D10*
G36*
X52911350Y-41840760D02*
X51762050Y-41340380D01*
X51762050Y-39939620D01*
X52911350Y-39439240D01*
X52911350Y-41840760D01*
X52911350Y-41840760D01*
G37*
D23*
X52324000Y-32766000D03*
D24*
X58674000Y-35052000D03*
D23*
X52324000Y-37338000D03*
D25*
X55804000Y-30480000D03*
X59004000Y-30480000D03*
D26*
X49022000Y-42494000D03*
X49022000Y-39294000D03*
X58420000Y-42494000D03*
X58420000Y-39294000D03*
D27*
X54880000Y-48768000D03*
X56880000Y-48768000D03*
D28*
X57156000Y-52324000D03*
X51556000Y-52324000D03*
D29*
X49276000Y-63052960D03*
X49276000Y-59883040D03*
D30*
X53309100Y-67017460D03*
X53959100Y-67017460D03*
X54609100Y-67017460D03*
X55259100Y-67017460D03*
X55909100Y-67017460D03*
D31*
X51610000Y-67080000D03*
D32*
X51110000Y-69580000D03*
X58110000Y-69580000D03*
D31*
X57610000Y-67080000D03*
D33*
X51816000Y-64262000D03*
D34*
X54356000Y-64262000D03*
X56896000Y-64262000D03*
X59436000Y-64262000D03*
D11*
X63500000Y-20320000D03*
D12*
X63500000Y-22860000D03*
X63500000Y-25400000D03*
X63500000Y-27940000D03*
X63500000Y-30480000D03*
X63500000Y-33020000D03*
X63500000Y-35560000D03*
X63500000Y-38100000D03*
X63500000Y-40640000D03*
X63500000Y-43180000D03*
X63500000Y-45720000D03*
X63500000Y-48260000D03*
X63500000Y-50800000D03*
X63500000Y-53340000D03*
X63500000Y-55880000D03*
X63500000Y-58420000D03*
X63500000Y-60960000D03*
X63500000Y-63500000D03*
X63500000Y-66040000D03*
X63500000Y-68580000D03*
X63500000Y-71120000D03*
D20*
X49034700Y-45466000D03*
X50533300Y-45466000D03*
X49034700Y-48514000D03*
X50533300Y-48514000D03*
D15*
X50684000Y-46990000D03*
X48884000Y-46990000D03*
X50684000Y-50038000D03*
X48884000Y-50038000D03*
D20*
X49022000Y-71615300D03*
X49022000Y-70116700D03*
D11*
X68580000Y-71120000D03*
D12*
X68580000Y-68580000D03*
X68580000Y-66040000D03*
X68580000Y-63500000D03*
X68580000Y-60960000D03*
X68580000Y-58420000D03*
X68580000Y-55880000D03*
X68580000Y-53340000D03*
X68580000Y-50800000D03*
X68580000Y-48260000D03*
X68580000Y-45720000D03*
X68580000Y-43180000D03*
X68580000Y-40640000D03*
X68580000Y-38100000D03*
X68580000Y-35560000D03*
X68580000Y-33020000D03*
X68580000Y-30480000D03*
X68580000Y-27940000D03*
X68580000Y-25400000D03*
X68580000Y-22860000D03*
X68580000Y-20320000D03*
D13*
X82550000Y-27940000D03*
X80050000Y-27940000D03*
X77550000Y-27940000D03*
X75050000Y-27940000D03*
D14*
X78800000Y-21440000D03*
D15*
X76846000Y-54864000D03*
X75046000Y-54864000D03*
X79894000Y-54864000D03*
X78094000Y-54864000D03*
D16*
X80010000Y-45858000D03*
X80010000Y-44058000D03*
D15*
X78094000Y-56642000D03*
X79894000Y-56642000D03*
D17*
X82804000Y-60452000D03*
X81304000Y-60452000D03*
X79804000Y-60452000D03*
X78304000Y-60452000D03*
X76804000Y-60452000D03*
X75304000Y-60452000D03*
D18*
X71120000Y-25400000D03*
D19*
X71120000Y-27940000D03*
D20*
X81534000Y-44208700D03*
X81534000Y-45707300D03*
X75196700Y-56642000D03*
X76695300Y-56642000D03*
D21*
X74094340Y-39138860D03*
X74094340Y-40640000D03*
X74094340Y-42141140D03*
D22*
X77045820Y-40640000D03*
D10*
G36*
X75771350Y-41840760D02*
X74622050Y-41340380D01*
X74622050Y-39939620D01*
X75771350Y-39439240D01*
X75771350Y-41840760D01*
X75771350Y-41840760D01*
G37*
D23*
X75184000Y-32766000D03*
D24*
X81534000Y-35052000D03*
D23*
X75184000Y-37338000D03*
D25*
X78664000Y-30480000D03*
X81864000Y-30480000D03*
D26*
X71882000Y-42494000D03*
X71882000Y-39294000D03*
X81280000Y-42494000D03*
X81280000Y-39294000D03*
D27*
X77740000Y-48768000D03*
X79740000Y-48768000D03*
D28*
X80016000Y-52324000D03*
X74416000Y-52324000D03*
D29*
X72136000Y-63052960D03*
X72136000Y-59883040D03*
D30*
X76169100Y-67017460D03*
X76819100Y-67017460D03*
X77469100Y-67017460D03*
X78119100Y-67017460D03*
X78769100Y-67017460D03*
D31*
X74470000Y-67080000D03*
D32*
X73970000Y-69580000D03*
X80970000Y-69580000D03*
D31*
X80470000Y-67080000D03*
D33*
X74676000Y-64262000D03*
D34*
X77216000Y-64262000D03*
X79756000Y-64262000D03*
X82296000Y-64262000D03*
D11*
X86360000Y-20320000D03*
D12*
X86360000Y-22860000D03*
X86360000Y-25400000D03*
X86360000Y-27940000D03*
X86360000Y-30480000D03*
X86360000Y-33020000D03*
X86360000Y-35560000D03*
X86360000Y-38100000D03*
X86360000Y-40640000D03*
X86360000Y-43180000D03*
X86360000Y-45720000D03*
X86360000Y-48260000D03*
X86360000Y-50800000D03*
X86360000Y-53340000D03*
X86360000Y-55880000D03*
X86360000Y-58420000D03*
X86360000Y-60960000D03*
X86360000Y-63500000D03*
X86360000Y-66040000D03*
X86360000Y-68580000D03*
X86360000Y-71120000D03*
D20*
X71894700Y-45466000D03*
X73393300Y-45466000D03*
X71894700Y-48514000D03*
X73393300Y-48514000D03*
D15*
X73544000Y-46990000D03*
X71744000Y-46990000D03*
X73544000Y-50038000D03*
X71744000Y-50038000D03*
D20*
X71882000Y-71615300D03*
X71882000Y-70116700D03*
D11*
X91440000Y-71120000D03*
D12*
X91440000Y-68580000D03*
X91440000Y-66040000D03*
X91440000Y-63500000D03*
X91440000Y-60960000D03*
X91440000Y-58420000D03*
X91440000Y-55880000D03*
X91440000Y-53340000D03*
X91440000Y-50800000D03*
X91440000Y-48260000D03*
X91440000Y-45720000D03*
X91440000Y-43180000D03*
X91440000Y-40640000D03*
X91440000Y-38100000D03*
X91440000Y-35560000D03*
X91440000Y-33020000D03*
X91440000Y-30480000D03*
X91440000Y-27940000D03*
X91440000Y-25400000D03*
X91440000Y-22860000D03*
X91440000Y-20320000D03*
D13*
X105410000Y-27940000D03*
X102910000Y-27940000D03*
X100410000Y-27940000D03*
X97910000Y-27940000D03*
D14*
X101660000Y-21440000D03*
D15*
X99706000Y-54864000D03*
X97906000Y-54864000D03*
X102754000Y-54864000D03*
X100954000Y-54864000D03*
D16*
X102870000Y-45858000D03*
X102870000Y-44058000D03*
D15*
X100954000Y-56642000D03*
X102754000Y-56642000D03*
D17*
X105664000Y-60452000D03*
X104164000Y-60452000D03*
X102664000Y-60452000D03*
X101164000Y-60452000D03*
X99664000Y-60452000D03*
X98164000Y-60452000D03*
D18*
X93980000Y-25400000D03*
D19*
X93980000Y-27940000D03*
D20*
X104394000Y-44208700D03*
X104394000Y-45707300D03*
X98056700Y-56642000D03*
X99555300Y-56642000D03*
D21*
X96954340Y-39138860D03*
X96954340Y-40640000D03*
X96954340Y-42141140D03*
D22*
X99905820Y-40640000D03*
D10*
G36*
X98631350Y-41840760D02*
X97482050Y-41340380D01*
X97482050Y-39939620D01*
X98631350Y-39439240D01*
X98631350Y-41840760D01*
X98631350Y-41840760D01*
G37*
D23*
X98044000Y-32766000D03*
D24*
X104394000Y-35052000D03*
D23*
X98044000Y-37338000D03*
D25*
X101524000Y-30480000D03*
X104724000Y-30480000D03*
D26*
X94742000Y-42494000D03*
X94742000Y-39294000D03*
X104140000Y-42494000D03*
X104140000Y-39294000D03*
D27*
X100600000Y-48768000D03*
X102600000Y-48768000D03*
D28*
X102876000Y-52324000D03*
X97276000Y-52324000D03*
D29*
X94996000Y-63052960D03*
X94996000Y-59883040D03*
D30*
X99029100Y-67017460D03*
X99679100Y-67017460D03*
X100329100Y-67017460D03*
X100979100Y-67017460D03*
X101629100Y-67017460D03*
D31*
X97330000Y-67080000D03*
D32*
X96830000Y-69580000D03*
X103830000Y-69580000D03*
D31*
X103330000Y-67080000D03*
D33*
X97536000Y-64262000D03*
D34*
X100076000Y-64262000D03*
X102616000Y-64262000D03*
X105156000Y-64262000D03*
D11*
X109220000Y-20320000D03*
D12*
X109220000Y-22860000D03*
X109220000Y-25400000D03*
X109220000Y-27940000D03*
X109220000Y-30480000D03*
X109220000Y-33020000D03*
X109220000Y-35560000D03*
X109220000Y-38100000D03*
X109220000Y-40640000D03*
X109220000Y-43180000D03*
X109220000Y-45720000D03*
X109220000Y-48260000D03*
X109220000Y-50800000D03*
X109220000Y-53340000D03*
X109220000Y-55880000D03*
X109220000Y-58420000D03*
X109220000Y-60960000D03*
X109220000Y-63500000D03*
X109220000Y-66040000D03*
X109220000Y-68580000D03*
X109220000Y-71120000D03*
D20*
X94754700Y-45466000D03*
X96253300Y-45466000D03*
X94754700Y-48514000D03*
X96253300Y-48514000D03*
D15*
X96404000Y-46990000D03*
X94604000Y-46990000D03*
X96404000Y-50038000D03*
X94604000Y-50038000D03*
D20*
X94742000Y-71615300D03*
X94742000Y-70116700D03*
M02*
