M48
;DRILL file {KiCad 4.0.1-stable} date 2016/04/06 15:34:19
;FORMAT={-:-/ absolute / metric / decimal}
FMAT,2
METRIC,TZ
T1C0.762
T2C0.800
T3C1.000
T4C1.001
T5C3.000
%
G90
G05
M71
T1
X154.94Y-85.09
X154.94Y-95.25
X154.94Y-97.79
X162.56Y-85.09
X162.56Y-95.25
X162.56Y-97.79
X167.64Y-85.09
X167.64Y-95.25
X167.64Y-97.79
X175.26Y-85.09
X175.26Y-95.25
X175.26Y-97.79
X180.34Y-85.09
X180.34Y-95.25
X180.34Y-97.79
X187.96Y-85.09
X187.96Y-95.25
X187.96Y-97.79
X193.04Y-85.09
X193.04Y-95.25
X193.04Y-97.79
X200.66Y-85.09
X200.66Y-95.25
X200.66Y-97.79
T2
X154.94Y-104.14
X161.29Y-111.76
X166.37Y-129.54
X168.87Y-129.54
X168.91Y-111.76
X171.37Y-129.54
X171.46Y-114.935
X172.72Y-109.22
X173.87Y-129.54
X175.26Y-114.935
X177.8Y-104.14
X180.34Y-104.14
X181.61Y-129.54
X184.11Y-129.54
X186.61Y-129.54
X186.69Y-111.76
X189.11Y-129.54
X194.31Y-111.76
X196.86Y-114.935
X198.12Y-109.22
X200.66Y-104.14
X200.66Y-114.935
T3
X162.56Y-81.788
X167.64Y-81.788
X187.96Y-81.788
X193.04Y-81.788
T4
X156.21Y-101.6
X161.29Y-101.6
X167.64Y-101.6
X170.18Y-101.6
X172.72Y-101.6
X181.61Y-101.6
X186.69Y-101.6
X193.04Y-101.6
X195.58Y-101.6
X198.12Y-101.6
T5
X157.48Y-129.54
X158.75Y-74.168
X171.45Y-74.168
X177.8Y-74.295
X184.15Y-74.168
X196.85Y-74.168
X198.12Y-129.54
T0
M30
