G04 #@! TF.FileFunction,Legend,Bot*
%FSLAX46Y46*%
G04 Gerber Fmt 4.6, Leading zero omitted, Abs format (unit mm)*
G04 Created by KiCad (PCBNEW 4.0.5) date 01/02/17 01:45:52*
%MOMM*%
%LPD*%
G01*
G04 APERTURE LIST*
%ADD10C,0.100000*%
%ADD11C,0.150000*%
%ADD12C,0.010000*%
%ADD13C,0.101600*%
G04 APERTURE END LIST*
D10*
D11*
X38100000Y-2540000D02*
X38100000Y-71120000D01*
X38100000Y-71120000D02*
X35560000Y-71120000D01*
X35560000Y-71120000D02*
X35560000Y-2540000D01*
X35280000Y280000D02*
X35280000Y-1270000D01*
X35560000Y-2540000D02*
X38100000Y-2540000D01*
X38380000Y-1270000D02*
X38380000Y280000D01*
X38380000Y280000D02*
X35280000Y280000D01*
X19050000Y-30076272D02*
X18512599Y-29538870D01*
X29126272Y-20000000D02*
X28588870Y-19462599D01*
X19050000Y-9923728D02*
X19587401Y-10461130D01*
X8973728Y-20000000D02*
X9511130Y-20537401D01*
X19050000Y-30076272D02*
X19587401Y-29538870D01*
X8973728Y-20000000D02*
X9511130Y-19462599D01*
X19050000Y-9923728D02*
X18512599Y-10461130D01*
X29126272Y-20000000D02*
X28588870Y-20537401D01*
X18512599Y-29538870D02*
X17434261Y-30617208D01*
X7375000Y-47560000D02*
X7730000Y-47560000D01*
X7375000Y-55310000D02*
X7730000Y-55310000D01*
X18025000Y-55310000D02*
X17670000Y-55310000D01*
X18025000Y-47560000D02*
X17670000Y-47560000D01*
X7375000Y-47560000D02*
X7375000Y-55310000D01*
X18025000Y-47560000D02*
X18025000Y-55310000D01*
X7730000Y-47560000D02*
X7730000Y-46035000D01*
X20075000Y-47560000D02*
X20430000Y-47560000D01*
X20075000Y-55310000D02*
X20430000Y-55310000D01*
X30725000Y-55310000D02*
X30370000Y-55310000D01*
X30725000Y-47560000D02*
X30370000Y-47560000D01*
X20075000Y-47560000D02*
X20075000Y-55310000D01*
X30725000Y-47560000D02*
X30725000Y-55310000D01*
X20430000Y-47560000D02*
X20430000Y-46035000D01*
X2540000Y-2540000D02*
X2540000Y-71120000D01*
X2540000Y-71120000D02*
X0Y-71120000D01*
X0Y-71120000D02*
X0Y-2540000D01*
X-280000Y280000D02*
X-280000Y-1270000D01*
X0Y-2540000D02*
X2540000Y-2540000D01*
X2820000Y-1270000D02*
X2820000Y280000D01*
X2820000Y280000D02*
X-280000Y280000D01*
D12*
G36*
X14605110Y-37100508D02*
X14624634Y-37185333D01*
X14712301Y-37416042D01*
X14817206Y-37521236D01*
X14836357Y-37524000D01*
X14923762Y-37581225D01*
X14916485Y-37642912D01*
X14929603Y-37729156D01*
X15079533Y-37738917D01*
X15221921Y-37734547D01*
X15250161Y-37754060D01*
X15274187Y-37833323D01*
X15396295Y-37964551D01*
X15573714Y-38105719D01*
X15671096Y-38167646D01*
X15815841Y-38322896D01*
X15860055Y-38442813D01*
X15942233Y-38591365D01*
X16087161Y-38624666D01*
X16287211Y-38624666D01*
X15996605Y-38057197D01*
X15788688Y-37567668D01*
X15712530Y-37149241D01*
X15766090Y-36769232D01*
X15897892Y-36476233D01*
X16094284Y-36221392D01*
X16341366Y-36005272D01*
X16396204Y-35970653D01*
X16612510Y-35862599D01*
X16763557Y-35845068D01*
X16907916Y-35901552D01*
X17029049Y-35999153D01*
X17115938Y-36165477D01*
X17187850Y-36443087D01*
X17213418Y-36576465D01*
X17266656Y-37092778D01*
X17210054Y-37511058D01*
X17034400Y-37869463D01*
X16847297Y-38093270D01*
X16677433Y-38311058D01*
X16615197Y-38486851D01*
X16663600Y-38592130D01*
X16793233Y-38604999D01*
X16910377Y-38641358D01*
X16926298Y-38789202D01*
X16839813Y-39023390D01*
X16815133Y-39069456D01*
X16735027Y-39238812D01*
X16756459Y-39339573D01*
X16866423Y-39429548D01*
X16972822Y-39533626D01*
X17026379Y-39687409D01*
X17041828Y-39942636D01*
X17041277Y-40043509D01*
X17086143Y-40486283D01*
X17220181Y-40879322D01*
X17424570Y-41183569D01*
X17674500Y-41357756D01*
X17799316Y-41445006D01*
X17822666Y-41500676D01*
X17889682Y-41581393D01*
X17930850Y-41588000D01*
X18062972Y-41647108D01*
X18186031Y-41759680D01*
X18339727Y-41877259D01*
X18480014Y-41855483D01*
X18638963Y-41806665D01*
X18904497Y-41756021D01*
X19169271Y-41720449D01*
X19596795Y-41641821D01*
X19910484Y-41504239D01*
X19989324Y-41449418D01*
X20192615Y-41316879D01*
X20339222Y-41291948D01*
X20436319Y-41328105D01*
X20622016Y-41409692D01*
X20684673Y-41392696D01*
X20664483Y-41342871D01*
X20677741Y-41257418D01*
X20794932Y-41208148D01*
X20951585Y-41213492D01*
X21021662Y-41240754D01*
X21171636Y-41255744D01*
X21380122Y-41146199D01*
X21437719Y-41103840D01*
X21608264Y-40988639D01*
X21707268Y-40950559D01*
X21717333Y-40961789D01*
X21757923Y-40953127D01*
X21856470Y-40835438D01*
X21864842Y-40823672D01*
X21963467Y-40656158D01*
X21991842Y-40550833D01*
X22034283Y-40489614D01*
X22056000Y-40487333D01*
X22133791Y-40420007D01*
X22140666Y-40376298D01*
X22194334Y-40236768D01*
X22304901Y-40088977D01*
X22407046Y-39946871D01*
X22417790Y-39861346D01*
X22429120Y-39813106D01*
X22456939Y-39810000D01*
X22545690Y-39737534D01*
X22629721Y-39566614D01*
X22684495Y-39366956D01*
X22685474Y-39208274D01*
X22676411Y-39186441D01*
X22664796Y-39134970D01*
X22690802Y-39153098D01*
X22804588Y-39161337D01*
X22873709Y-39121565D01*
X23010173Y-39074593D01*
X23116271Y-39134275D01*
X23207932Y-39195834D01*
X23201370Y-39127945D01*
X23190906Y-39099773D01*
X23210355Y-38929409D01*
X23315988Y-38802682D01*
X23458564Y-38609282D01*
X23513038Y-38433661D01*
X23558344Y-38279497D01*
X23656904Y-38268648D01*
X23727086Y-38321730D01*
X23681552Y-38350926D01*
X23584748Y-38429930D01*
X23636538Y-38526011D01*
X23760056Y-38585736D01*
X23927430Y-38586361D01*
X24090573Y-38454162D01*
X24119889Y-38418849D01*
X24245080Y-38273479D01*
X24318173Y-38251726D01*
X24391786Y-38344136D01*
X24406217Y-38367407D01*
X24458838Y-38498573D01*
X24429479Y-38540000D01*
X24388878Y-38607271D01*
X24428774Y-38757210D01*
X24464370Y-39020283D01*
X24429657Y-39127077D01*
X24385652Y-39273986D01*
X24401423Y-39333201D01*
X24391661Y-39383113D01*
X24361999Y-39386666D01*
X24299666Y-39440364D01*
X24299666Y-39894666D01*
X24342000Y-39937000D01*
X24299666Y-39979333D01*
X24257333Y-39937000D01*
X24299666Y-39894666D01*
X24299666Y-39440364D01*
X24278412Y-39458674D01*
X24240045Y-39577166D01*
X24176893Y-39716102D01*
X24100863Y-39744402D01*
X24029693Y-39766862D01*
X24039900Y-39800670D01*
X24023098Y-39895415D01*
X23982694Y-39919676D01*
X23969690Y-39972471D01*
X24095777Y-40046607D01*
X24100942Y-40048685D01*
X24307740Y-40156184D01*
X24383337Y-40249844D01*
X24318345Y-40308426D01*
X24219996Y-40318000D01*
X24054787Y-40353718D01*
X23993679Y-40423833D01*
X23952570Y-40765631D01*
X23895522Y-40984404D01*
X23807365Y-41126458D01*
X23744193Y-41185379D01*
X23585375Y-41277630D01*
X23482173Y-41283533D01*
X23383710Y-41308476D01*
X23236148Y-41420986D01*
X23090572Y-41572112D01*
X22998070Y-41712906D01*
X22987333Y-41757673D01*
X23057855Y-41799774D01*
X23225698Y-41801545D01*
X23425271Y-41768862D01*
X23590986Y-41707597D01*
X23598788Y-41702911D01*
X23766603Y-41658203D01*
X23894465Y-41659773D01*
X24049141Y-41633674D01*
X24133268Y-41478608D01*
X24138238Y-41459647D01*
X24214360Y-41296889D01*
X24343093Y-41274305D01*
X24353055Y-41276756D01*
X24460718Y-41279125D01*
X24464120Y-41241437D01*
X24495190Y-41181750D01*
X24598929Y-41164666D01*
X24771606Y-41093838D01*
X24825467Y-40995333D01*
X24889984Y-40858135D01*
X24938652Y-40826000D01*
X25003725Y-40754289D01*
X25034611Y-40642227D01*
X25116406Y-40491181D01*
X25314137Y-40425034D01*
X25505323Y-40397049D01*
X25588472Y-40349505D01*
X25622034Y-40231904D01*
X25635789Y-40147137D01*
X25714031Y-39857465D01*
X25821795Y-39682437D01*
X25938833Y-39636531D01*
X26044903Y-39734226D01*
X26083131Y-39827217D01*
X26197835Y-40053353D01*
X26352994Y-40202838D01*
X26449640Y-40233333D01*
X26553588Y-40299709D01*
X26631880Y-40409918D01*
X26719996Y-40528312D01*
X26771939Y-40540949D01*
X26858432Y-40556020D01*
X26950788Y-40628693D01*
X27035504Y-40740204D01*
X26989826Y-40830804D01*
X26919542Y-40888377D01*
X26818511Y-40997531D01*
X26860833Y-41054437D01*
X26941573Y-41158926D01*
X26935783Y-41333354D01*
X26863653Y-41516191D01*
X26755000Y-41635349D01*
X26755000Y-42434666D01*
X26797333Y-42477000D01*
X26755000Y-42519333D01*
X26712666Y-42477000D01*
X26755000Y-42434666D01*
X26755000Y-41635349D01*
X26745373Y-41645907D01*
X26657975Y-41672666D01*
X26594293Y-41743635D01*
X26579619Y-41842000D01*
X26607315Y-41979691D01*
X26645611Y-42011333D01*
X26699246Y-42071214D01*
X26678706Y-42209575D01*
X26670333Y-42227048D01*
X26670333Y-43876592D01*
X26685478Y-43911530D01*
X26628000Y-43958666D01*
X26473651Y-44030310D01*
X26416333Y-44040740D01*
X26401188Y-44005802D01*
X26458666Y-43958666D01*
X26613015Y-43887022D01*
X26670333Y-43876592D01*
X26670333Y-42227048D01*
X26604475Y-42364491D01*
X26497037Y-42474037D01*
X26491574Y-42477000D01*
X26312957Y-42599157D01*
X26137444Y-42754320D01*
X25946359Y-42946973D01*
X26150943Y-42895626D01*
X26326787Y-42888902D01*
X26412093Y-42935806D01*
X26398242Y-43015115D01*
X26343524Y-43027333D01*
X26247000Y-43049411D01*
X26247000Y-43874000D01*
X26289333Y-43916333D01*
X26247000Y-43958666D01*
X26204666Y-43916333D01*
X26247000Y-43874000D01*
X26247000Y-43049411D01*
X26187502Y-43063021D01*
X25969008Y-43150503D01*
X25936361Y-43166183D01*
X25559625Y-43353818D01*
X25310121Y-43486850D01*
X25162201Y-43583484D01*
X25090215Y-43661926D01*
X25068516Y-43740385D01*
X25068389Y-43782312D01*
X25038740Y-43923410D01*
X24987955Y-43958666D01*
X24914604Y-43979722D01*
X24967849Y-44031118D01*
X25111895Y-44095202D01*
X25310950Y-44154320D01*
X25434465Y-44178894D01*
X25663330Y-44205619D01*
X25753368Y-44185443D01*
X25742956Y-44134401D01*
X25743104Y-44063054D01*
X25884832Y-44054879D01*
X25913960Y-44058006D01*
X26098976Y-44119249D01*
X26187553Y-44212666D01*
X26196786Y-44293493D01*
X26119040Y-44238896D01*
X26113650Y-44233833D01*
X25975771Y-44136838D01*
X25906854Y-44188943D01*
X25889279Y-44297333D01*
X25920574Y-44434836D01*
X25977095Y-44467963D01*
X26009912Y-44501211D01*
X25950666Y-44551333D01*
X25866361Y-44618582D01*
X25929987Y-44640438D01*
X25950666Y-44641980D01*
X25970356Y-44667101D01*
X25852844Y-44717539D01*
X25823666Y-44726602D01*
X25594851Y-44767070D01*
X25422032Y-44756122D01*
X25316450Y-44752540D01*
X25325257Y-44842130D01*
X25440091Y-44944251D01*
X25583721Y-44974666D01*
X25721182Y-44946996D01*
X25739713Y-44891154D01*
X25771333Y-44839415D01*
X25937782Y-44836746D01*
X25946383Y-44837715D01*
X26125589Y-44836463D01*
X26204489Y-44792131D01*
X26204666Y-44789230D01*
X26257194Y-44749049D01*
X26289333Y-44763000D01*
X26362910Y-44745158D01*
X26374000Y-44690385D01*
X26435666Y-44552030D01*
X26479833Y-44522739D01*
X26509531Y-44485466D01*
X26437500Y-44473350D01*
X26311636Y-44431297D01*
X26289333Y-44389926D01*
X26355654Y-44343428D01*
X26437771Y-44352003D01*
X26608586Y-44343552D01*
X26847405Y-44276952D01*
X27081715Y-44178699D01*
X27239007Y-44075292D01*
X27257327Y-44052512D01*
X27227748Y-44008035D01*
X27114950Y-44016240D01*
X26992479Y-44033799D01*
X27018728Y-43991525D01*
X27051333Y-43967307D01*
X27120378Y-43899045D01*
X27040980Y-43876501D01*
X26987833Y-43875296D01*
X26839128Y-43841293D01*
X26797333Y-43786436D01*
X26866067Y-43736675D01*
X27020954Y-43729192D01*
X27185024Y-43760836D01*
X27265154Y-43805599D01*
X27401855Y-43836740D01*
X27593917Y-43767272D01*
X27787020Y-43625595D01*
X27912891Y-43466960D01*
X27999696Y-43292420D01*
X28024416Y-43200731D01*
X28018917Y-43196666D01*
X28043712Y-43146915D01*
X28161521Y-43023520D01*
X28202334Y-42985000D01*
X28383188Y-42844389D01*
X28529677Y-42774911D01*
X28545363Y-42773333D01*
X28570212Y-42749462D01*
X28591314Y-42669984D01*
X28608943Y-42523102D01*
X28623373Y-42297015D01*
X28634880Y-41979927D01*
X28643738Y-41560039D01*
X28650220Y-41025552D01*
X28654602Y-40364669D01*
X28657157Y-39565590D01*
X28658161Y-38616519D01*
X28658117Y-37926166D01*
X28657515Y-36898897D01*
X28656309Y-36028638D01*
X28654108Y-35303067D01*
X28650519Y-34709862D01*
X28645150Y-34236699D01*
X28637610Y-33871256D01*
X28627507Y-33601210D01*
X28614447Y-33414240D01*
X28598040Y-33298021D01*
X28577894Y-33240232D01*
X28553615Y-33228550D01*
X28524813Y-33250652D01*
X28509950Y-33268753D01*
X28363666Y-33458507D01*
X27982666Y-33205125D01*
X27750905Y-33070296D01*
X27565037Y-32996248D01*
X27494159Y-32992189D01*
X27348508Y-32968888D01*
X27176858Y-32845824D01*
X27032041Y-32673097D01*
X26966889Y-32500808D01*
X26966666Y-32491956D01*
X26907819Y-32324394D01*
X26761598Y-32126189D01*
X26712666Y-32076714D01*
X26553395Y-31909739D01*
X26465015Y-31784749D01*
X26458666Y-31762147D01*
X26396238Y-31721920D01*
X26330588Y-31736462D01*
X26190716Y-31732979D01*
X26051612Y-31660490D01*
X25980483Y-31561608D01*
X25988675Y-31519663D01*
X25927678Y-31490837D01*
X25782738Y-31470901D01*
X25782738Y-34253210D01*
X25864753Y-34293438D01*
X25866000Y-34302355D01*
X25813929Y-34402738D01*
X25760166Y-34465114D01*
X25709669Y-34541484D01*
X25739000Y-34545817D01*
X25846774Y-34576554D01*
X26016869Y-34681710D01*
X26200654Y-34823036D01*
X26349496Y-34962286D01*
X26414761Y-35061210D01*
X26412235Y-35075297D01*
X26310168Y-35140908D01*
X26197611Y-35179710D01*
X26076071Y-35199199D01*
X26064066Y-35181044D01*
X26041461Y-35099361D01*
X25924682Y-34963210D01*
X25914874Y-34953947D01*
X25908333Y-34946047D01*
X25908333Y-35238000D01*
X25950666Y-35280333D01*
X25908333Y-35322666D01*
X25866000Y-35280333D01*
X25908333Y-35238000D01*
X25908333Y-34946047D01*
X25752339Y-34757625D01*
X25658451Y-34575710D01*
X25565232Y-34431669D01*
X25470276Y-34427601D01*
X25377651Y-34424459D01*
X25379064Y-34370224D01*
X25465845Y-34301923D01*
X25625085Y-34259479D01*
X25782738Y-34253210D01*
X25782738Y-31470901D01*
X25733818Y-31464172D01*
X25443549Y-31444019D01*
X25311691Y-31438852D01*
X24953818Y-31440284D01*
X24561174Y-31462046D01*
X24169730Y-31499482D01*
X23815456Y-31547937D01*
X23534323Y-31602755D01*
X23362301Y-31659281D01*
X23326000Y-31695852D01*
X23262427Y-31726279D01*
X23186111Y-31707671D01*
X23117231Y-31710820D01*
X23146345Y-31796339D01*
X23246507Y-31932299D01*
X23390774Y-32086771D01*
X23552202Y-32227824D01*
X23703848Y-32323530D01*
X23707000Y-32324941D01*
X23848729Y-32399915D01*
X23869454Y-32439204D01*
X23857823Y-32440685D01*
X23790939Y-32504217D01*
X23799814Y-32561701D01*
X23890549Y-32635368D01*
X24041364Y-32665518D01*
X24178723Y-32648746D01*
X24229086Y-32581644D01*
X24229074Y-32581583D01*
X24278876Y-32486863D01*
X24303078Y-32474612D01*
X24359932Y-32519000D01*
X24383025Y-32662810D01*
X24372160Y-32839492D01*
X24327142Y-32982496D01*
X24304658Y-33011045D01*
X24269079Y-33019241D01*
X24287873Y-32978370D01*
X24282683Y-32864772D01*
X24175301Y-32784909D01*
X24032869Y-32772830D01*
X23959161Y-32811677D01*
X23905940Y-32918953D01*
X23939924Y-33095880D01*
X23981166Y-33203962D01*
X24083370Y-33422782D01*
X24172132Y-33565724D01*
X24228289Y-33611507D01*
X24232679Y-33538848D01*
X24212303Y-33460663D01*
X24178549Y-33318853D01*
X24219864Y-33312912D01*
X24282041Y-33360705D01*
X24436008Y-33427923D01*
X24592959Y-33376960D01*
X24711878Y-33277898D01*
X24723990Y-33207602D01*
X24739783Y-33104318D01*
X24777033Y-33071768D01*
X24836414Y-33060366D01*
X24815751Y-33108251D01*
X24819022Y-33194903D01*
X24861185Y-33206000D01*
X24886221Y-33245225D01*
X24805878Y-33323838D01*
X24697948Y-33432591D01*
X24729023Y-33541177D01*
X24757729Y-33577838D01*
X24821496Y-33687422D01*
X24770703Y-33714000D01*
X24707581Y-33760819D01*
X24718120Y-33790770D01*
X24693159Y-33836121D01*
X24611368Y-33827217D01*
X24438775Y-33854761D01*
X24336085Y-33936032D01*
X24279330Y-34027185D01*
X24314983Y-34025204D01*
X24436612Y-34020900D01*
X24468338Y-34051596D01*
X24581180Y-34098960D01*
X24728188Y-34086132D01*
X24893615Y-34063019D01*
X24916539Y-34117598D01*
X24797788Y-34257326D01*
X24752005Y-34300911D01*
X24634642Y-34425396D01*
X24640713Y-34490815D01*
X24709672Y-34524934D01*
X24830346Y-34632426D01*
X24850000Y-34703346D01*
X24801451Y-34785675D01*
X24634588Y-34806443D01*
X24532500Y-34800121D01*
X24325812Y-34792937D01*
X24241465Y-34837244D01*
X24234622Y-34957577D01*
X24235168Y-34962833D01*
X24217923Y-35110650D01*
X24166671Y-35153333D01*
X24117035Y-35205262D01*
X24130333Y-35238000D01*
X24111139Y-35310483D01*
X24088000Y-35315144D01*
X24088000Y-35661333D01*
X24157690Y-35692311D01*
X24144444Y-35717777D01*
X24043964Y-35727910D01*
X24031555Y-35717777D01*
X24043177Y-35667443D01*
X24088000Y-35661333D01*
X24088000Y-35315144D01*
X24050663Y-35322666D01*
X23934808Y-35366043D01*
X23918666Y-35405720D01*
X23846651Y-35485183D01*
X23707000Y-35540759D01*
X23707000Y-36677333D01*
X23749333Y-36719666D01*
X23707000Y-36762000D01*
X23664666Y-36719666D01*
X23707000Y-36677333D01*
X23707000Y-35540759D01*
X23699255Y-35543842D01*
X23540647Y-35616466D01*
X23511191Y-35754069D01*
X23518988Y-35803674D01*
X23514444Y-35962156D01*
X23399133Y-36072731D01*
X23368333Y-36087827D01*
X23368333Y-37185333D01*
X23410666Y-37227666D01*
X23368333Y-37270000D01*
X23326000Y-37227666D01*
X23368333Y-37185333D01*
X23368333Y-36087827D01*
X23293898Y-36124312D01*
X23147731Y-36201289D01*
X23121877Y-36244457D01*
X23135500Y-36247093D01*
X23232523Y-36302190D01*
X23215582Y-36389165D01*
X23121824Y-36423333D01*
X23034746Y-36361242D01*
X23032792Y-36226001D01*
X23097771Y-36115339D01*
X23145843Y-35990677D01*
X23156666Y-35875822D01*
X23189376Y-35692134D01*
X23231959Y-35614766D01*
X23324020Y-35443431D01*
X23415054Y-35150873D01*
X23498550Y-34779536D01*
X23567996Y-34371864D01*
X23616884Y-33970303D01*
X23638700Y-33617294D01*
X23626934Y-33355284D01*
X23594973Y-33248333D01*
X23537104Y-33095631D01*
X23518291Y-33007705D01*
X23451214Y-32816901D01*
X23367675Y-32671367D01*
X23269511Y-32475462D01*
X23241333Y-32341211D01*
X23175270Y-32181463D01*
X23072000Y-32085684D01*
X22938365Y-31949850D01*
X22902666Y-31844811D01*
X22824413Y-31702336D01*
X22612686Y-31553007D01*
X22302034Y-31410996D01*
X21927007Y-31290474D01*
X21522155Y-31205611D01*
X21275577Y-31177429D01*
X20930600Y-31161764D01*
X20689681Y-31169368D01*
X20567665Y-31195714D01*
X20579400Y-31236278D01*
X20739729Y-31286533D01*
X20847147Y-31308037D01*
X21380840Y-31476801D01*
X21913286Y-31795731D01*
X21939717Y-31815333D01*
X22118778Y-31929775D01*
X22237827Y-31970290D01*
X22253274Y-31964503D01*
X22363012Y-31946137D01*
X22515718Y-31969275D01*
X22653954Y-32042846D01*
X22794038Y-32210018D01*
X22957802Y-32499344D01*
X23025168Y-32635609D01*
X23174471Y-32969665D01*
X23295463Y-33285795D01*
X23364739Y-33522101D01*
X23368878Y-33544666D01*
X23413856Y-33788416D01*
X23457777Y-33976149D01*
X23460063Y-33983870D01*
X23459785Y-34176652D01*
X23424569Y-34280204D01*
X23329661Y-34471966D01*
X23236904Y-34666500D01*
X23126098Y-34831804D01*
X23015359Y-34899333D01*
X22915860Y-34967497D01*
X22909722Y-34995402D01*
X22909722Y-37694629D01*
X23093166Y-37711338D01*
X23179086Y-37743975D01*
X23198099Y-37862874D01*
X23136577Y-38021607D01*
X23033441Y-38139991D01*
X22977634Y-38159000D01*
X22888331Y-38089456D01*
X22875414Y-37990902D01*
X22843356Y-37822642D01*
X22790747Y-37759365D01*
X22780814Y-37712448D01*
X22909722Y-37694629D01*
X22909722Y-34995402D01*
X22902666Y-35027482D01*
X22864890Y-35211259D01*
X22826706Y-35302648D01*
X22751466Y-35459674D01*
X22751466Y-36869800D01*
X22808533Y-36883149D01*
X22898440Y-36992531D01*
X22827765Y-37089355D01*
X22733333Y-37125198D01*
X22591533Y-37135620D01*
X22582437Y-37048958D01*
X22640497Y-36941652D01*
X22751466Y-36869800D01*
X22751466Y-35459674D01*
X22734057Y-35496007D01*
X22660818Y-35661333D01*
X22607291Y-35773709D01*
X22591829Y-35750912D01*
X22609041Y-35578116D01*
X22614625Y-35534333D01*
X22604165Y-35177721D01*
X22484179Y-34860264D01*
X22479333Y-34850086D01*
X22479333Y-35915333D01*
X22550877Y-35940225D01*
X22537546Y-36024935D01*
X22429556Y-36184515D01*
X22217125Y-36434016D01*
X22183000Y-36471210D01*
X22183000Y-37608666D01*
X22225333Y-37651000D01*
X22183000Y-37693333D01*
X22140666Y-37651000D01*
X22183000Y-37608666D01*
X22183000Y-36471210D01*
X21960194Y-36714061D01*
X21708130Y-36976314D01*
X21675000Y-37008505D01*
X21675000Y-38116666D01*
X21788364Y-38157367D01*
X21765364Y-38284988D01*
X21677692Y-38417984D01*
X21632666Y-38470798D01*
X21632666Y-38878666D01*
X21715132Y-38907553D01*
X21717333Y-38916003D01*
X21658004Y-38988289D01*
X21632666Y-39005666D01*
X21554647Y-38998953D01*
X21548000Y-38968330D01*
X21609460Y-38882112D01*
X21632666Y-38878666D01*
X21632666Y-38470798D01*
X21588439Y-38522676D01*
X21556099Y-38487588D01*
X21550692Y-38349500D01*
X21589063Y-38163017D01*
X21675000Y-38116666D01*
X21675000Y-37008505D01*
X21526663Y-37152638D01*
X21526663Y-39413455D01*
X21537725Y-39487674D01*
X21453483Y-39592675D01*
X21387130Y-39636137D01*
X21246165Y-39675533D01*
X21178120Y-39596782D01*
X21173827Y-39488547D01*
X21205065Y-39471333D01*
X21344240Y-39443510D01*
X21414075Y-39419941D01*
X21526663Y-39413455D01*
X21526663Y-37152638D01*
X21499349Y-37179179D01*
X21468529Y-37205500D01*
X21468529Y-38624666D01*
X21513062Y-38681401D01*
X21478739Y-38812024D01*
X21391178Y-38957160D01*
X21329277Y-39012595D01*
X21329277Y-39224017D01*
X21439091Y-39239584D01*
X21440402Y-39268486D01*
X21327085Y-39288697D01*
X21278125Y-39275170D01*
X21246054Y-39237575D01*
X21329277Y-39224017D01*
X21329277Y-39012595D01*
X21283424Y-39053660D01*
X21155138Y-39094632D01*
X21124666Y-39036478D01*
X21177833Y-38901070D01*
X21297923Y-38744546D01*
X21425822Y-38637704D01*
X21468529Y-38624666D01*
X21468529Y-37205500D01*
X21359408Y-37298695D01*
X21314875Y-37319097D01*
X21350343Y-37243405D01*
X21479314Y-37072990D01*
X21679192Y-36836395D01*
X21834014Y-36663292D01*
X22072732Y-36395334D01*
X22260878Y-36171963D01*
X22373583Y-36023392D01*
X22394666Y-35982166D01*
X22459592Y-35917179D01*
X22479333Y-35915333D01*
X22479333Y-34850086D01*
X22377826Y-34636871D01*
X22316189Y-34471409D01*
X22310000Y-34436066D01*
X22256808Y-34321230D01*
X22125175Y-34149218D01*
X22087648Y-34107473D01*
X21970028Y-33988238D01*
X21863247Y-33924949D01*
X21725250Y-33915791D01*
X21513984Y-33958952D01*
X21187391Y-34052618D01*
X21140268Y-34066626D01*
X20910079Y-34123913D01*
X20734381Y-34120538D01*
X20535931Y-34046281D01*
X20378268Y-33965810D01*
X20046587Y-33736977D01*
X19831446Y-33446809D01*
X19716575Y-33063311D01*
X19685464Y-32603584D01*
X19700036Y-32249527D01*
X19751656Y-32009915D01*
X19851881Y-31831790D01*
X19854666Y-31828230D01*
X19996368Y-31604872D01*
X20004852Y-31468992D01*
X19897000Y-31428000D01*
X19794580Y-31354861D01*
X19770000Y-31224615D01*
X19718834Y-31053930D01*
X19540431Y-30941687D01*
X19509649Y-30930473D01*
X19346148Y-30848937D01*
X19313626Y-30800752D01*
X19313626Y-33240183D01*
X19405483Y-33315649D01*
X19359404Y-33393891D01*
X19204325Y-33448925D01*
X19068831Y-33460000D01*
X18800988Y-33460000D01*
X18993088Y-33325448D01*
X19178703Y-33241820D01*
X19313626Y-33240183D01*
X19313626Y-30800752D01*
X19293273Y-30770596D01*
X19296444Y-30763430D01*
X19250675Y-30725596D01*
X19177333Y-30721812D01*
X19177333Y-31597333D01*
X19247023Y-31628311D01*
X19233777Y-31653777D01*
X19133298Y-31663910D01*
X19120888Y-31653777D01*
X19132511Y-31603443D01*
X19177333Y-31597333D01*
X19177333Y-30721812D01*
X19076806Y-30716624D01*
X18942961Y-30725332D01*
X18711526Y-30739340D01*
X18630546Y-30719854D01*
X18669333Y-30673721D01*
X18735682Y-30599547D01*
X18695496Y-30582629D01*
X18560456Y-30642941D01*
X18542333Y-30666000D01*
X18428165Y-30726421D01*
X18234955Y-30750666D01*
X18007689Y-30791319D01*
X17852904Y-30877666D01*
X17665533Y-30984240D01*
X17549411Y-31004666D01*
X17392970Y-31062504D01*
X17183718Y-31210696D01*
X17051153Y-31332916D01*
X16867787Y-31507559D01*
X16735082Y-31610942D01*
X16692461Y-31624238D01*
X16579610Y-31613673D01*
X16369586Y-31662184D01*
X16188729Y-31724545D01*
X16188729Y-32020666D01*
X16406732Y-32077404D01*
X16660586Y-32217912D01*
X16875661Y-32397634D01*
X16928527Y-32462355D01*
X17027802Y-32684836D01*
X17058373Y-32929877D01*
X17020380Y-33136415D01*
X16926741Y-33239274D01*
X16745199Y-33277214D01*
X16540175Y-33290666D01*
X16184979Y-33227330D01*
X15947352Y-33052027D01*
X15841568Y-32786814D01*
X15881903Y-32453749D01*
X15925780Y-32341340D01*
X16042105Y-32141166D01*
X16157740Y-32029225D01*
X16188729Y-32020666D01*
X16188729Y-31724545D01*
X16115044Y-31749953D01*
X15868639Y-31857159D01*
X15683027Y-31963982D01*
X15616805Y-32029127D01*
X15519370Y-32141375D01*
X15454131Y-32148983D01*
X15344019Y-32167598D01*
X15186617Y-32279352D01*
X15029239Y-32437036D01*
X14919202Y-32593439D01*
X14902511Y-32699367D01*
X14906294Y-32823963D01*
X14871455Y-32859841D01*
X14790436Y-32977360D01*
X14724670Y-33180993D01*
X14723024Y-33189042D01*
X14700387Y-33375643D01*
X14750592Y-33449435D01*
X14843753Y-33460000D01*
X15011173Y-33498017D01*
X15072885Y-33547717D01*
X15190316Y-33594539D01*
X15422830Y-33589661D01*
X15480048Y-33581968D01*
X15899948Y-33520727D01*
X16192103Y-33487706D01*
X16395778Y-33483159D01*
X16550238Y-33507338D01*
X16694745Y-33560498D01*
X16759169Y-33590224D01*
X16963615Y-33676577D01*
X17116775Y-33690020D01*
X17302665Y-33629550D01*
X17409416Y-33582453D01*
X17645683Y-33510638D01*
X17945435Y-33464726D01*
X18252505Y-33447654D01*
X18510728Y-33462360D01*
X18663939Y-33511784D01*
X18669200Y-33516541D01*
X18642151Y-33588047D01*
X18521705Y-33697371D01*
X18361963Y-33799149D01*
X18297493Y-33828230D01*
X18275644Y-33896702D01*
X18356441Y-33981684D01*
X18452287Y-34125391D01*
X18442104Y-34275693D01*
X18341743Y-34367879D01*
X18260918Y-34371665D01*
X18128319Y-34422965D01*
X18022048Y-34560727D01*
X17889128Y-34763900D01*
X17702168Y-34979069D01*
X17679745Y-35001028D01*
X17499091Y-35148819D01*
X17441666Y-35163204D01*
X17441666Y-36423333D01*
X17484000Y-36465666D01*
X17441666Y-36508000D01*
X17399333Y-36465666D01*
X17441666Y-36423333D01*
X17441666Y-35163204D01*
X17357000Y-35184414D01*
X17357000Y-36169333D01*
X17399333Y-36211666D01*
X17357000Y-36254000D01*
X17314666Y-36211666D01*
X17357000Y-36169333D01*
X17357000Y-35184414D01*
X17333485Y-35190305D01*
X17118321Y-35156788D01*
X16895270Y-35121847D01*
X16782309Y-35154445D01*
X16746401Y-35211866D01*
X16763843Y-35361263D01*
X16815495Y-35414581D01*
X16869041Y-35471594D01*
X16767847Y-35490410D01*
X16747150Y-35490703D01*
X16525812Y-35527273D01*
X16344626Y-35590419D01*
X16161546Y-35640622D01*
X16057829Y-35612603D01*
X16068089Y-35527139D01*
X16133879Y-35463910D01*
X16219852Y-35343439D01*
X16260405Y-35185172D01*
X16249830Y-35052472D01*
X16182419Y-35008702D01*
X16174690Y-35010844D01*
X16072023Y-35102325D01*
X15992728Y-35227125D01*
X15867287Y-35392655D01*
X15670042Y-35576669D01*
X15455910Y-35735151D01*
X15279810Y-35824083D01*
X15239724Y-35830666D01*
X15082061Y-35901378D01*
X14908471Y-36077387D01*
X14759929Y-36304509D01*
X14677413Y-36528554D01*
X14671763Y-36581718D01*
X14649029Y-36764896D01*
X14604250Y-36846406D01*
X14601451Y-36846666D01*
X14581145Y-36919000D01*
X14605110Y-37100508D01*
X14605110Y-37100508D01*
G37*
X14605110Y-37100508D02*
X14624634Y-37185333D01*
X14712301Y-37416042D01*
X14817206Y-37521236D01*
X14836357Y-37524000D01*
X14923762Y-37581225D01*
X14916485Y-37642912D01*
X14929603Y-37729156D01*
X15079533Y-37738917D01*
X15221921Y-37734547D01*
X15250161Y-37754060D01*
X15274187Y-37833323D01*
X15396295Y-37964551D01*
X15573714Y-38105719D01*
X15671096Y-38167646D01*
X15815841Y-38322896D01*
X15860055Y-38442813D01*
X15942233Y-38591365D01*
X16087161Y-38624666D01*
X16287211Y-38624666D01*
X15996605Y-38057197D01*
X15788688Y-37567668D01*
X15712530Y-37149241D01*
X15766090Y-36769232D01*
X15897892Y-36476233D01*
X16094284Y-36221392D01*
X16341366Y-36005272D01*
X16396204Y-35970653D01*
X16612510Y-35862599D01*
X16763557Y-35845068D01*
X16907916Y-35901552D01*
X17029049Y-35999153D01*
X17115938Y-36165477D01*
X17187850Y-36443087D01*
X17213418Y-36576465D01*
X17266656Y-37092778D01*
X17210054Y-37511058D01*
X17034400Y-37869463D01*
X16847297Y-38093270D01*
X16677433Y-38311058D01*
X16615197Y-38486851D01*
X16663600Y-38592130D01*
X16793233Y-38604999D01*
X16910377Y-38641358D01*
X16926298Y-38789202D01*
X16839813Y-39023390D01*
X16815133Y-39069456D01*
X16735027Y-39238812D01*
X16756459Y-39339573D01*
X16866423Y-39429548D01*
X16972822Y-39533626D01*
X17026379Y-39687409D01*
X17041828Y-39942636D01*
X17041277Y-40043509D01*
X17086143Y-40486283D01*
X17220181Y-40879322D01*
X17424570Y-41183569D01*
X17674500Y-41357756D01*
X17799316Y-41445006D01*
X17822666Y-41500676D01*
X17889682Y-41581393D01*
X17930850Y-41588000D01*
X18062972Y-41647108D01*
X18186031Y-41759680D01*
X18339727Y-41877259D01*
X18480014Y-41855483D01*
X18638963Y-41806665D01*
X18904497Y-41756021D01*
X19169271Y-41720449D01*
X19596795Y-41641821D01*
X19910484Y-41504239D01*
X19989324Y-41449418D01*
X20192615Y-41316879D01*
X20339222Y-41291948D01*
X20436319Y-41328105D01*
X20622016Y-41409692D01*
X20684673Y-41392696D01*
X20664483Y-41342871D01*
X20677741Y-41257418D01*
X20794932Y-41208148D01*
X20951585Y-41213492D01*
X21021662Y-41240754D01*
X21171636Y-41255744D01*
X21380122Y-41146199D01*
X21437719Y-41103840D01*
X21608264Y-40988639D01*
X21707268Y-40950559D01*
X21717333Y-40961789D01*
X21757923Y-40953127D01*
X21856470Y-40835438D01*
X21864842Y-40823672D01*
X21963467Y-40656158D01*
X21991842Y-40550833D01*
X22034283Y-40489614D01*
X22056000Y-40487333D01*
X22133791Y-40420007D01*
X22140666Y-40376298D01*
X22194334Y-40236768D01*
X22304901Y-40088977D01*
X22407046Y-39946871D01*
X22417790Y-39861346D01*
X22429120Y-39813106D01*
X22456939Y-39810000D01*
X22545690Y-39737534D01*
X22629721Y-39566614D01*
X22684495Y-39366956D01*
X22685474Y-39208274D01*
X22676411Y-39186441D01*
X22664796Y-39134970D01*
X22690802Y-39153098D01*
X22804588Y-39161337D01*
X22873709Y-39121565D01*
X23010173Y-39074593D01*
X23116271Y-39134275D01*
X23207932Y-39195834D01*
X23201370Y-39127945D01*
X23190906Y-39099773D01*
X23210355Y-38929409D01*
X23315988Y-38802682D01*
X23458564Y-38609282D01*
X23513038Y-38433661D01*
X23558344Y-38279497D01*
X23656904Y-38268648D01*
X23727086Y-38321730D01*
X23681552Y-38350926D01*
X23584748Y-38429930D01*
X23636538Y-38526011D01*
X23760056Y-38585736D01*
X23927430Y-38586361D01*
X24090573Y-38454162D01*
X24119889Y-38418849D01*
X24245080Y-38273479D01*
X24318173Y-38251726D01*
X24391786Y-38344136D01*
X24406217Y-38367407D01*
X24458838Y-38498573D01*
X24429479Y-38540000D01*
X24388878Y-38607271D01*
X24428774Y-38757210D01*
X24464370Y-39020283D01*
X24429657Y-39127077D01*
X24385652Y-39273986D01*
X24401423Y-39333201D01*
X24391661Y-39383113D01*
X24361999Y-39386666D01*
X24299666Y-39440364D01*
X24299666Y-39894666D01*
X24342000Y-39937000D01*
X24299666Y-39979333D01*
X24257333Y-39937000D01*
X24299666Y-39894666D01*
X24299666Y-39440364D01*
X24278412Y-39458674D01*
X24240045Y-39577166D01*
X24176893Y-39716102D01*
X24100863Y-39744402D01*
X24029693Y-39766862D01*
X24039900Y-39800670D01*
X24023098Y-39895415D01*
X23982694Y-39919676D01*
X23969690Y-39972471D01*
X24095777Y-40046607D01*
X24100942Y-40048685D01*
X24307740Y-40156184D01*
X24383337Y-40249844D01*
X24318345Y-40308426D01*
X24219996Y-40318000D01*
X24054787Y-40353718D01*
X23993679Y-40423833D01*
X23952570Y-40765631D01*
X23895522Y-40984404D01*
X23807365Y-41126458D01*
X23744193Y-41185379D01*
X23585375Y-41277630D01*
X23482173Y-41283533D01*
X23383710Y-41308476D01*
X23236148Y-41420986D01*
X23090572Y-41572112D01*
X22998070Y-41712906D01*
X22987333Y-41757673D01*
X23057855Y-41799774D01*
X23225698Y-41801545D01*
X23425271Y-41768862D01*
X23590986Y-41707597D01*
X23598788Y-41702911D01*
X23766603Y-41658203D01*
X23894465Y-41659773D01*
X24049141Y-41633674D01*
X24133268Y-41478608D01*
X24138238Y-41459647D01*
X24214360Y-41296889D01*
X24343093Y-41274305D01*
X24353055Y-41276756D01*
X24460718Y-41279125D01*
X24464120Y-41241437D01*
X24495190Y-41181750D01*
X24598929Y-41164666D01*
X24771606Y-41093838D01*
X24825467Y-40995333D01*
X24889984Y-40858135D01*
X24938652Y-40826000D01*
X25003725Y-40754289D01*
X25034611Y-40642227D01*
X25116406Y-40491181D01*
X25314137Y-40425034D01*
X25505323Y-40397049D01*
X25588472Y-40349505D01*
X25622034Y-40231904D01*
X25635789Y-40147137D01*
X25714031Y-39857465D01*
X25821795Y-39682437D01*
X25938833Y-39636531D01*
X26044903Y-39734226D01*
X26083131Y-39827217D01*
X26197835Y-40053353D01*
X26352994Y-40202838D01*
X26449640Y-40233333D01*
X26553588Y-40299709D01*
X26631880Y-40409918D01*
X26719996Y-40528312D01*
X26771939Y-40540949D01*
X26858432Y-40556020D01*
X26950788Y-40628693D01*
X27035504Y-40740204D01*
X26989826Y-40830804D01*
X26919542Y-40888377D01*
X26818511Y-40997531D01*
X26860833Y-41054437D01*
X26941573Y-41158926D01*
X26935783Y-41333354D01*
X26863653Y-41516191D01*
X26755000Y-41635349D01*
X26755000Y-42434666D01*
X26797333Y-42477000D01*
X26755000Y-42519333D01*
X26712666Y-42477000D01*
X26755000Y-42434666D01*
X26755000Y-41635349D01*
X26745373Y-41645907D01*
X26657975Y-41672666D01*
X26594293Y-41743635D01*
X26579619Y-41842000D01*
X26607315Y-41979691D01*
X26645611Y-42011333D01*
X26699246Y-42071214D01*
X26678706Y-42209575D01*
X26670333Y-42227048D01*
X26670333Y-43876592D01*
X26685478Y-43911530D01*
X26628000Y-43958666D01*
X26473651Y-44030310D01*
X26416333Y-44040740D01*
X26401188Y-44005802D01*
X26458666Y-43958666D01*
X26613015Y-43887022D01*
X26670333Y-43876592D01*
X26670333Y-42227048D01*
X26604475Y-42364491D01*
X26497037Y-42474037D01*
X26491574Y-42477000D01*
X26312957Y-42599157D01*
X26137444Y-42754320D01*
X25946359Y-42946973D01*
X26150943Y-42895626D01*
X26326787Y-42888902D01*
X26412093Y-42935806D01*
X26398242Y-43015115D01*
X26343524Y-43027333D01*
X26247000Y-43049411D01*
X26247000Y-43874000D01*
X26289333Y-43916333D01*
X26247000Y-43958666D01*
X26204666Y-43916333D01*
X26247000Y-43874000D01*
X26247000Y-43049411D01*
X26187502Y-43063021D01*
X25969008Y-43150503D01*
X25936361Y-43166183D01*
X25559625Y-43353818D01*
X25310121Y-43486850D01*
X25162201Y-43583484D01*
X25090215Y-43661926D01*
X25068516Y-43740385D01*
X25068389Y-43782312D01*
X25038740Y-43923410D01*
X24987955Y-43958666D01*
X24914604Y-43979722D01*
X24967849Y-44031118D01*
X25111895Y-44095202D01*
X25310950Y-44154320D01*
X25434465Y-44178894D01*
X25663330Y-44205619D01*
X25753368Y-44185443D01*
X25742956Y-44134401D01*
X25743104Y-44063054D01*
X25884832Y-44054879D01*
X25913960Y-44058006D01*
X26098976Y-44119249D01*
X26187553Y-44212666D01*
X26196786Y-44293493D01*
X26119040Y-44238896D01*
X26113650Y-44233833D01*
X25975771Y-44136838D01*
X25906854Y-44188943D01*
X25889279Y-44297333D01*
X25920574Y-44434836D01*
X25977095Y-44467963D01*
X26009912Y-44501211D01*
X25950666Y-44551333D01*
X25866361Y-44618582D01*
X25929987Y-44640438D01*
X25950666Y-44641980D01*
X25970356Y-44667101D01*
X25852844Y-44717539D01*
X25823666Y-44726602D01*
X25594851Y-44767070D01*
X25422032Y-44756122D01*
X25316450Y-44752540D01*
X25325257Y-44842130D01*
X25440091Y-44944251D01*
X25583721Y-44974666D01*
X25721182Y-44946996D01*
X25739713Y-44891154D01*
X25771333Y-44839415D01*
X25937782Y-44836746D01*
X25946383Y-44837715D01*
X26125589Y-44836463D01*
X26204489Y-44792131D01*
X26204666Y-44789230D01*
X26257194Y-44749049D01*
X26289333Y-44763000D01*
X26362910Y-44745158D01*
X26374000Y-44690385D01*
X26435666Y-44552030D01*
X26479833Y-44522739D01*
X26509531Y-44485466D01*
X26437500Y-44473350D01*
X26311636Y-44431297D01*
X26289333Y-44389926D01*
X26355654Y-44343428D01*
X26437771Y-44352003D01*
X26608586Y-44343552D01*
X26847405Y-44276952D01*
X27081715Y-44178699D01*
X27239007Y-44075292D01*
X27257327Y-44052512D01*
X27227748Y-44008035D01*
X27114950Y-44016240D01*
X26992479Y-44033799D01*
X27018728Y-43991525D01*
X27051333Y-43967307D01*
X27120378Y-43899045D01*
X27040980Y-43876501D01*
X26987833Y-43875296D01*
X26839128Y-43841293D01*
X26797333Y-43786436D01*
X26866067Y-43736675D01*
X27020954Y-43729192D01*
X27185024Y-43760836D01*
X27265154Y-43805599D01*
X27401855Y-43836740D01*
X27593917Y-43767272D01*
X27787020Y-43625595D01*
X27912891Y-43466960D01*
X27999696Y-43292420D01*
X28024416Y-43200731D01*
X28018917Y-43196666D01*
X28043712Y-43146915D01*
X28161521Y-43023520D01*
X28202334Y-42985000D01*
X28383188Y-42844389D01*
X28529677Y-42774911D01*
X28545363Y-42773333D01*
X28570212Y-42749462D01*
X28591314Y-42669984D01*
X28608943Y-42523102D01*
X28623373Y-42297015D01*
X28634880Y-41979927D01*
X28643738Y-41560039D01*
X28650220Y-41025552D01*
X28654602Y-40364669D01*
X28657157Y-39565590D01*
X28658161Y-38616519D01*
X28658117Y-37926166D01*
X28657515Y-36898897D01*
X28656309Y-36028638D01*
X28654108Y-35303067D01*
X28650519Y-34709862D01*
X28645150Y-34236699D01*
X28637610Y-33871256D01*
X28627507Y-33601210D01*
X28614447Y-33414240D01*
X28598040Y-33298021D01*
X28577894Y-33240232D01*
X28553615Y-33228550D01*
X28524813Y-33250652D01*
X28509950Y-33268753D01*
X28363666Y-33458507D01*
X27982666Y-33205125D01*
X27750905Y-33070296D01*
X27565037Y-32996248D01*
X27494159Y-32992189D01*
X27348508Y-32968888D01*
X27176858Y-32845824D01*
X27032041Y-32673097D01*
X26966889Y-32500808D01*
X26966666Y-32491956D01*
X26907819Y-32324394D01*
X26761598Y-32126189D01*
X26712666Y-32076714D01*
X26553395Y-31909739D01*
X26465015Y-31784749D01*
X26458666Y-31762147D01*
X26396238Y-31721920D01*
X26330588Y-31736462D01*
X26190716Y-31732979D01*
X26051612Y-31660490D01*
X25980483Y-31561608D01*
X25988675Y-31519663D01*
X25927678Y-31490837D01*
X25782738Y-31470901D01*
X25782738Y-34253210D01*
X25864753Y-34293438D01*
X25866000Y-34302355D01*
X25813929Y-34402738D01*
X25760166Y-34465114D01*
X25709669Y-34541484D01*
X25739000Y-34545817D01*
X25846774Y-34576554D01*
X26016869Y-34681710D01*
X26200654Y-34823036D01*
X26349496Y-34962286D01*
X26414761Y-35061210D01*
X26412235Y-35075297D01*
X26310168Y-35140908D01*
X26197611Y-35179710D01*
X26076071Y-35199199D01*
X26064066Y-35181044D01*
X26041461Y-35099361D01*
X25924682Y-34963210D01*
X25914874Y-34953947D01*
X25908333Y-34946047D01*
X25908333Y-35238000D01*
X25950666Y-35280333D01*
X25908333Y-35322666D01*
X25866000Y-35280333D01*
X25908333Y-35238000D01*
X25908333Y-34946047D01*
X25752339Y-34757625D01*
X25658451Y-34575710D01*
X25565232Y-34431669D01*
X25470276Y-34427601D01*
X25377651Y-34424459D01*
X25379064Y-34370224D01*
X25465845Y-34301923D01*
X25625085Y-34259479D01*
X25782738Y-34253210D01*
X25782738Y-31470901D01*
X25733818Y-31464172D01*
X25443549Y-31444019D01*
X25311691Y-31438852D01*
X24953818Y-31440284D01*
X24561174Y-31462046D01*
X24169730Y-31499482D01*
X23815456Y-31547937D01*
X23534323Y-31602755D01*
X23362301Y-31659281D01*
X23326000Y-31695852D01*
X23262427Y-31726279D01*
X23186111Y-31707671D01*
X23117231Y-31710820D01*
X23146345Y-31796339D01*
X23246507Y-31932299D01*
X23390774Y-32086771D01*
X23552202Y-32227824D01*
X23703848Y-32323530D01*
X23707000Y-32324941D01*
X23848729Y-32399915D01*
X23869454Y-32439204D01*
X23857823Y-32440685D01*
X23790939Y-32504217D01*
X23799814Y-32561701D01*
X23890549Y-32635368D01*
X24041364Y-32665518D01*
X24178723Y-32648746D01*
X24229086Y-32581644D01*
X24229074Y-32581583D01*
X24278876Y-32486863D01*
X24303078Y-32474612D01*
X24359932Y-32519000D01*
X24383025Y-32662810D01*
X24372160Y-32839492D01*
X24327142Y-32982496D01*
X24304658Y-33011045D01*
X24269079Y-33019241D01*
X24287873Y-32978370D01*
X24282683Y-32864772D01*
X24175301Y-32784909D01*
X24032869Y-32772830D01*
X23959161Y-32811677D01*
X23905940Y-32918953D01*
X23939924Y-33095880D01*
X23981166Y-33203962D01*
X24083370Y-33422782D01*
X24172132Y-33565724D01*
X24228289Y-33611507D01*
X24232679Y-33538848D01*
X24212303Y-33460663D01*
X24178549Y-33318853D01*
X24219864Y-33312912D01*
X24282041Y-33360705D01*
X24436008Y-33427923D01*
X24592959Y-33376960D01*
X24711878Y-33277898D01*
X24723990Y-33207602D01*
X24739783Y-33104318D01*
X24777033Y-33071768D01*
X24836414Y-33060366D01*
X24815751Y-33108251D01*
X24819022Y-33194903D01*
X24861185Y-33206000D01*
X24886221Y-33245225D01*
X24805878Y-33323838D01*
X24697948Y-33432591D01*
X24729023Y-33541177D01*
X24757729Y-33577838D01*
X24821496Y-33687422D01*
X24770703Y-33714000D01*
X24707581Y-33760819D01*
X24718120Y-33790770D01*
X24693159Y-33836121D01*
X24611368Y-33827217D01*
X24438775Y-33854761D01*
X24336085Y-33936032D01*
X24279330Y-34027185D01*
X24314983Y-34025204D01*
X24436612Y-34020900D01*
X24468338Y-34051596D01*
X24581180Y-34098960D01*
X24728188Y-34086132D01*
X24893615Y-34063019D01*
X24916539Y-34117598D01*
X24797788Y-34257326D01*
X24752005Y-34300911D01*
X24634642Y-34425396D01*
X24640713Y-34490815D01*
X24709672Y-34524934D01*
X24830346Y-34632426D01*
X24850000Y-34703346D01*
X24801451Y-34785675D01*
X24634588Y-34806443D01*
X24532500Y-34800121D01*
X24325812Y-34792937D01*
X24241465Y-34837244D01*
X24234622Y-34957577D01*
X24235168Y-34962833D01*
X24217923Y-35110650D01*
X24166671Y-35153333D01*
X24117035Y-35205262D01*
X24130333Y-35238000D01*
X24111139Y-35310483D01*
X24088000Y-35315144D01*
X24088000Y-35661333D01*
X24157690Y-35692311D01*
X24144444Y-35717777D01*
X24043964Y-35727910D01*
X24031555Y-35717777D01*
X24043177Y-35667443D01*
X24088000Y-35661333D01*
X24088000Y-35315144D01*
X24050663Y-35322666D01*
X23934808Y-35366043D01*
X23918666Y-35405720D01*
X23846651Y-35485183D01*
X23707000Y-35540759D01*
X23707000Y-36677333D01*
X23749333Y-36719666D01*
X23707000Y-36762000D01*
X23664666Y-36719666D01*
X23707000Y-36677333D01*
X23707000Y-35540759D01*
X23699255Y-35543842D01*
X23540647Y-35616466D01*
X23511191Y-35754069D01*
X23518988Y-35803674D01*
X23514444Y-35962156D01*
X23399133Y-36072731D01*
X23368333Y-36087827D01*
X23368333Y-37185333D01*
X23410666Y-37227666D01*
X23368333Y-37270000D01*
X23326000Y-37227666D01*
X23368333Y-37185333D01*
X23368333Y-36087827D01*
X23293898Y-36124312D01*
X23147731Y-36201289D01*
X23121877Y-36244457D01*
X23135500Y-36247093D01*
X23232523Y-36302190D01*
X23215582Y-36389165D01*
X23121824Y-36423333D01*
X23034746Y-36361242D01*
X23032792Y-36226001D01*
X23097771Y-36115339D01*
X23145843Y-35990677D01*
X23156666Y-35875822D01*
X23189376Y-35692134D01*
X23231959Y-35614766D01*
X23324020Y-35443431D01*
X23415054Y-35150873D01*
X23498550Y-34779536D01*
X23567996Y-34371864D01*
X23616884Y-33970303D01*
X23638700Y-33617294D01*
X23626934Y-33355284D01*
X23594973Y-33248333D01*
X23537104Y-33095631D01*
X23518291Y-33007705D01*
X23451214Y-32816901D01*
X23367675Y-32671367D01*
X23269511Y-32475462D01*
X23241333Y-32341211D01*
X23175270Y-32181463D01*
X23072000Y-32085684D01*
X22938365Y-31949850D01*
X22902666Y-31844811D01*
X22824413Y-31702336D01*
X22612686Y-31553007D01*
X22302034Y-31410996D01*
X21927007Y-31290474D01*
X21522155Y-31205611D01*
X21275577Y-31177429D01*
X20930600Y-31161764D01*
X20689681Y-31169368D01*
X20567665Y-31195714D01*
X20579400Y-31236278D01*
X20739729Y-31286533D01*
X20847147Y-31308037D01*
X21380840Y-31476801D01*
X21913286Y-31795731D01*
X21939717Y-31815333D01*
X22118778Y-31929775D01*
X22237827Y-31970290D01*
X22253274Y-31964503D01*
X22363012Y-31946137D01*
X22515718Y-31969275D01*
X22653954Y-32042846D01*
X22794038Y-32210018D01*
X22957802Y-32499344D01*
X23025168Y-32635609D01*
X23174471Y-32969665D01*
X23295463Y-33285795D01*
X23364739Y-33522101D01*
X23368878Y-33544666D01*
X23413856Y-33788416D01*
X23457777Y-33976149D01*
X23460063Y-33983870D01*
X23459785Y-34176652D01*
X23424569Y-34280204D01*
X23329661Y-34471966D01*
X23236904Y-34666500D01*
X23126098Y-34831804D01*
X23015359Y-34899333D01*
X22915860Y-34967497D01*
X22909722Y-34995402D01*
X22909722Y-37694629D01*
X23093166Y-37711338D01*
X23179086Y-37743975D01*
X23198099Y-37862874D01*
X23136577Y-38021607D01*
X23033441Y-38139991D01*
X22977634Y-38159000D01*
X22888331Y-38089456D01*
X22875414Y-37990902D01*
X22843356Y-37822642D01*
X22790747Y-37759365D01*
X22780814Y-37712448D01*
X22909722Y-37694629D01*
X22909722Y-34995402D01*
X22902666Y-35027482D01*
X22864890Y-35211259D01*
X22826706Y-35302648D01*
X22751466Y-35459674D01*
X22751466Y-36869800D01*
X22808533Y-36883149D01*
X22898440Y-36992531D01*
X22827765Y-37089355D01*
X22733333Y-37125198D01*
X22591533Y-37135620D01*
X22582437Y-37048958D01*
X22640497Y-36941652D01*
X22751466Y-36869800D01*
X22751466Y-35459674D01*
X22734057Y-35496007D01*
X22660818Y-35661333D01*
X22607291Y-35773709D01*
X22591829Y-35750912D01*
X22609041Y-35578116D01*
X22614625Y-35534333D01*
X22604165Y-35177721D01*
X22484179Y-34860264D01*
X22479333Y-34850086D01*
X22479333Y-35915333D01*
X22550877Y-35940225D01*
X22537546Y-36024935D01*
X22429556Y-36184515D01*
X22217125Y-36434016D01*
X22183000Y-36471210D01*
X22183000Y-37608666D01*
X22225333Y-37651000D01*
X22183000Y-37693333D01*
X22140666Y-37651000D01*
X22183000Y-37608666D01*
X22183000Y-36471210D01*
X21960194Y-36714061D01*
X21708130Y-36976314D01*
X21675000Y-37008505D01*
X21675000Y-38116666D01*
X21788364Y-38157367D01*
X21765364Y-38284988D01*
X21677692Y-38417984D01*
X21632666Y-38470798D01*
X21632666Y-38878666D01*
X21715132Y-38907553D01*
X21717333Y-38916003D01*
X21658004Y-38988289D01*
X21632666Y-39005666D01*
X21554647Y-38998953D01*
X21548000Y-38968330D01*
X21609460Y-38882112D01*
X21632666Y-38878666D01*
X21632666Y-38470798D01*
X21588439Y-38522676D01*
X21556099Y-38487588D01*
X21550692Y-38349500D01*
X21589063Y-38163017D01*
X21675000Y-38116666D01*
X21675000Y-37008505D01*
X21526663Y-37152638D01*
X21526663Y-39413455D01*
X21537725Y-39487674D01*
X21453483Y-39592675D01*
X21387130Y-39636137D01*
X21246165Y-39675533D01*
X21178120Y-39596782D01*
X21173827Y-39488547D01*
X21205065Y-39471333D01*
X21344240Y-39443510D01*
X21414075Y-39419941D01*
X21526663Y-39413455D01*
X21526663Y-37152638D01*
X21499349Y-37179179D01*
X21468529Y-37205500D01*
X21468529Y-38624666D01*
X21513062Y-38681401D01*
X21478739Y-38812024D01*
X21391178Y-38957160D01*
X21329277Y-39012595D01*
X21329277Y-39224017D01*
X21439091Y-39239584D01*
X21440402Y-39268486D01*
X21327085Y-39288697D01*
X21278125Y-39275170D01*
X21246054Y-39237575D01*
X21329277Y-39224017D01*
X21329277Y-39012595D01*
X21283424Y-39053660D01*
X21155138Y-39094632D01*
X21124666Y-39036478D01*
X21177833Y-38901070D01*
X21297923Y-38744546D01*
X21425822Y-38637704D01*
X21468529Y-38624666D01*
X21468529Y-37205500D01*
X21359408Y-37298695D01*
X21314875Y-37319097D01*
X21350343Y-37243405D01*
X21479314Y-37072990D01*
X21679192Y-36836395D01*
X21834014Y-36663292D01*
X22072732Y-36395334D01*
X22260878Y-36171963D01*
X22373583Y-36023392D01*
X22394666Y-35982166D01*
X22459592Y-35917179D01*
X22479333Y-35915333D01*
X22479333Y-34850086D01*
X22377826Y-34636871D01*
X22316189Y-34471409D01*
X22310000Y-34436066D01*
X22256808Y-34321230D01*
X22125175Y-34149218D01*
X22087648Y-34107473D01*
X21970028Y-33988238D01*
X21863247Y-33924949D01*
X21725250Y-33915791D01*
X21513984Y-33958952D01*
X21187391Y-34052618D01*
X21140268Y-34066626D01*
X20910079Y-34123913D01*
X20734381Y-34120538D01*
X20535931Y-34046281D01*
X20378268Y-33965810D01*
X20046587Y-33736977D01*
X19831446Y-33446809D01*
X19716575Y-33063311D01*
X19685464Y-32603584D01*
X19700036Y-32249527D01*
X19751656Y-32009915D01*
X19851881Y-31831790D01*
X19854666Y-31828230D01*
X19996368Y-31604872D01*
X20004852Y-31468992D01*
X19897000Y-31428000D01*
X19794580Y-31354861D01*
X19770000Y-31224615D01*
X19718834Y-31053930D01*
X19540431Y-30941687D01*
X19509649Y-30930473D01*
X19346148Y-30848937D01*
X19313626Y-30800752D01*
X19313626Y-33240183D01*
X19405483Y-33315649D01*
X19359404Y-33393891D01*
X19204325Y-33448925D01*
X19068831Y-33460000D01*
X18800988Y-33460000D01*
X18993088Y-33325448D01*
X19178703Y-33241820D01*
X19313626Y-33240183D01*
X19313626Y-30800752D01*
X19293273Y-30770596D01*
X19296444Y-30763430D01*
X19250675Y-30725596D01*
X19177333Y-30721812D01*
X19177333Y-31597333D01*
X19247023Y-31628311D01*
X19233777Y-31653777D01*
X19133298Y-31663910D01*
X19120888Y-31653777D01*
X19132511Y-31603443D01*
X19177333Y-31597333D01*
X19177333Y-30721812D01*
X19076806Y-30716624D01*
X18942961Y-30725332D01*
X18711526Y-30739340D01*
X18630546Y-30719854D01*
X18669333Y-30673721D01*
X18735682Y-30599547D01*
X18695496Y-30582629D01*
X18560456Y-30642941D01*
X18542333Y-30666000D01*
X18428165Y-30726421D01*
X18234955Y-30750666D01*
X18007689Y-30791319D01*
X17852904Y-30877666D01*
X17665533Y-30984240D01*
X17549411Y-31004666D01*
X17392970Y-31062504D01*
X17183718Y-31210696D01*
X17051153Y-31332916D01*
X16867787Y-31507559D01*
X16735082Y-31610942D01*
X16692461Y-31624238D01*
X16579610Y-31613673D01*
X16369586Y-31662184D01*
X16188729Y-31724545D01*
X16188729Y-32020666D01*
X16406732Y-32077404D01*
X16660586Y-32217912D01*
X16875661Y-32397634D01*
X16928527Y-32462355D01*
X17027802Y-32684836D01*
X17058373Y-32929877D01*
X17020380Y-33136415D01*
X16926741Y-33239274D01*
X16745199Y-33277214D01*
X16540175Y-33290666D01*
X16184979Y-33227330D01*
X15947352Y-33052027D01*
X15841568Y-32786814D01*
X15881903Y-32453749D01*
X15925780Y-32341340D01*
X16042105Y-32141166D01*
X16157740Y-32029225D01*
X16188729Y-32020666D01*
X16188729Y-31724545D01*
X16115044Y-31749953D01*
X15868639Y-31857159D01*
X15683027Y-31963982D01*
X15616805Y-32029127D01*
X15519370Y-32141375D01*
X15454131Y-32148983D01*
X15344019Y-32167598D01*
X15186617Y-32279352D01*
X15029239Y-32437036D01*
X14919202Y-32593439D01*
X14902511Y-32699367D01*
X14906294Y-32823963D01*
X14871455Y-32859841D01*
X14790436Y-32977360D01*
X14724670Y-33180993D01*
X14723024Y-33189042D01*
X14700387Y-33375643D01*
X14750592Y-33449435D01*
X14843753Y-33460000D01*
X15011173Y-33498017D01*
X15072885Y-33547717D01*
X15190316Y-33594539D01*
X15422830Y-33589661D01*
X15480048Y-33581968D01*
X15899948Y-33520727D01*
X16192103Y-33487706D01*
X16395778Y-33483159D01*
X16550238Y-33507338D01*
X16694745Y-33560498D01*
X16759169Y-33590224D01*
X16963615Y-33676577D01*
X17116775Y-33690020D01*
X17302665Y-33629550D01*
X17409416Y-33582453D01*
X17645683Y-33510638D01*
X17945435Y-33464726D01*
X18252505Y-33447654D01*
X18510728Y-33462360D01*
X18663939Y-33511784D01*
X18669200Y-33516541D01*
X18642151Y-33588047D01*
X18521705Y-33697371D01*
X18361963Y-33799149D01*
X18297493Y-33828230D01*
X18275644Y-33896702D01*
X18356441Y-33981684D01*
X18452287Y-34125391D01*
X18442104Y-34275693D01*
X18341743Y-34367879D01*
X18260918Y-34371665D01*
X18128319Y-34422965D01*
X18022048Y-34560727D01*
X17889128Y-34763900D01*
X17702168Y-34979069D01*
X17679745Y-35001028D01*
X17499091Y-35148819D01*
X17441666Y-35163204D01*
X17441666Y-36423333D01*
X17484000Y-36465666D01*
X17441666Y-36508000D01*
X17399333Y-36465666D01*
X17441666Y-36423333D01*
X17441666Y-35163204D01*
X17357000Y-35184414D01*
X17357000Y-36169333D01*
X17399333Y-36211666D01*
X17357000Y-36254000D01*
X17314666Y-36211666D01*
X17357000Y-36169333D01*
X17357000Y-35184414D01*
X17333485Y-35190305D01*
X17118321Y-35156788D01*
X16895270Y-35121847D01*
X16782309Y-35154445D01*
X16746401Y-35211866D01*
X16763843Y-35361263D01*
X16815495Y-35414581D01*
X16869041Y-35471594D01*
X16767847Y-35490410D01*
X16747150Y-35490703D01*
X16525812Y-35527273D01*
X16344626Y-35590419D01*
X16161546Y-35640622D01*
X16057829Y-35612603D01*
X16068089Y-35527139D01*
X16133879Y-35463910D01*
X16219852Y-35343439D01*
X16260405Y-35185172D01*
X16249830Y-35052472D01*
X16182419Y-35008702D01*
X16174690Y-35010844D01*
X16072023Y-35102325D01*
X15992728Y-35227125D01*
X15867287Y-35392655D01*
X15670042Y-35576669D01*
X15455910Y-35735151D01*
X15279810Y-35824083D01*
X15239724Y-35830666D01*
X15082061Y-35901378D01*
X14908471Y-36077387D01*
X14759929Y-36304509D01*
X14677413Y-36528554D01*
X14671763Y-36581718D01*
X14649029Y-36764896D01*
X14604250Y-36846406D01*
X14601451Y-36846666D01*
X14581145Y-36919000D01*
X14605110Y-37100508D01*
G36*
X26162333Y-31512666D02*
X26204666Y-31470333D01*
X26162333Y-31428000D01*
X26120000Y-31470333D01*
X26162333Y-31512666D01*
X26162333Y-31512666D01*
G37*
X26162333Y-31512666D02*
X26204666Y-31470333D01*
X26162333Y-31428000D01*
X26120000Y-31470333D01*
X26162333Y-31512666D01*
G36*
X25133216Y-44420681D02*
X25231904Y-44541029D01*
X25343023Y-44503324D01*
X25389847Y-44421128D01*
X25370080Y-44283341D01*
X25310587Y-44241335D01*
X25155216Y-44230531D01*
X25112152Y-44341212D01*
X25133216Y-44420681D01*
X25133216Y-44420681D01*
G37*
X25133216Y-44420681D02*
X25231904Y-44541029D01*
X25343023Y-44503324D01*
X25389847Y-44421128D01*
X25370080Y-44283341D01*
X25310587Y-44241335D01*
X25155216Y-44230531D01*
X25112152Y-44341212D01*
X25133216Y-44420681D01*
G36*
X24892333Y-44890000D02*
X24934666Y-44847666D01*
X24892333Y-44805333D01*
X24850000Y-44847666D01*
X24892333Y-44890000D01*
X24892333Y-44890000D01*
G37*
X24892333Y-44890000D02*
X24934666Y-44847666D01*
X24892333Y-44805333D01*
X24850000Y-44847666D01*
X24892333Y-44890000D01*
G36*
X24539555Y-33685777D02*
X24640035Y-33695910D01*
X24652444Y-33685777D01*
X24640822Y-33635443D01*
X24596000Y-33629333D01*
X24526309Y-33660311D01*
X24539555Y-33685777D01*
X24539555Y-33685777D01*
G37*
X24539555Y-33685777D02*
X24640035Y-33695910D01*
X24652444Y-33685777D01*
X24640822Y-33635443D01*
X24596000Y-33629333D01*
X24526309Y-33660311D01*
X24539555Y-33685777D01*
G36*
X24351808Y-44805058D02*
X24365225Y-44805333D01*
X24512523Y-44763128D01*
X24549073Y-44728099D01*
X24527950Y-44670467D01*
X24471853Y-44669204D01*
X24330964Y-44714563D01*
X24280732Y-44772890D01*
X24351808Y-44805058D01*
X24351808Y-44805058D01*
G37*
X24351808Y-44805058D02*
X24365225Y-44805333D01*
X24512523Y-44763128D01*
X24549073Y-44728099D01*
X24527950Y-44670467D01*
X24471853Y-44669204D01*
X24330964Y-44714563D01*
X24280732Y-44772890D01*
X24351808Y-44805058D01*
G36*
X24215000Y-33883333D02*
X24257333Y-33841000D01*
X24215000Y-33798666D01*
X24172666Y-33841000D01*
X24215000Y-33883333D01*
X24215000Y-33883333D01*
G37*
X24215000Y-33883333D02*
X24257333Y-33841000D01*
X24215000Y-33798666D01*
X24172666Y-33841000D01*
X24215000Y-33883333D01*
G36*
X23876333Y-44805333D02*
X23918666Y-44763000D01*
X23876333Y-44720666D01*
X23834000Y-44763000D01*
X23876333Y-44805333D01*
X23876333Y-44805333D01*
G37*
X23876333Y-44805333D02*
X23918666Y-44763000D01*
X23876333Y-44720666D01*
X23834000Y-44763000D01*
X23876333Y-44805333D01*
G36*
X23707000Y-41757333D02*
X23749333Y-41715000D01*
X23707000Y-41672666D01*
X23664666Y-41715000D01*
X23707000Y-41757333D01*
X23707000Y-41757333D01*
G37*
X23707000Y-41757333D02*
X23749333Y-41715000D01*
X23707000Y-41672666D01*
X23664666Y-41715000D01*
X23707000Y-41757333D01*
G36*
X20489666Y-31089333D02*
X20532000Y-31047000D01*
X20489666Y-31004666D01*
X20447333Y-31047000D01*
X20489666Y-31089333D01*
X20489666Y-31089333D01*
G37*
X20489666Y-31089333D02*
X20532000Y-31047000D01*
X20489666Y-31004666D01*
X20447333Y-31047000D01*
X20489666Y-31089333D01*
G36*
X20235666Y-31004666D02*
X20278000Y-30962333D01*
X20235666Y-30920000D01*
X20193333Y-30962333D01*
X20235666Y-31004666D01*
X20235666Y-31004666D01*
G37*
X20235666Y-31004666D02*
X20278000Y-30962333D01*
X20235666Y-30920000D01*
X20193333Y-30962333D01*
X20235666Y-31004666D01*
G36*
X19643000Y-30835333D02*
X19685333Y-30793000D01*
X19643000Y-30750666D01*
X19600666Y-30793000D01*
X19643000Y-30835333D01*
X19643000Y-30835333D01*
G37*
X19643000Y-30835333D02*
X19685333Y-30793000D01*
X19643000Y-30750666D01*
X19600666Y-30793000D01*
X19643000Y-30835333D01*
G36*
X18542333Y-33629333D02*
X18584666Y-33587000D01*
X18542333Y-33544666D01*
X18500000Y-33587000D01*
X18542333Y-33629333D01*
X18542333Y-33629333D01*
G37*
X18542333Y-33629333D02*
X18584666Y-33587000D01*
X18542333Y-33544666D01*
X18500000Y-33587000D01*
X18542333Y-33629333D01*
G36*
X17780333Y-33544666D02*
X17822666Y-33502333D01*
X17780333Y-33460000D01*
X17738000Y-33502333D01*
X17780333Y-33544666D01*
X17780333Y-33544666D01*
G37*
X17780333Y-33544666D02*
X17822666Y-33502333D01*
X17780333Y-33460000D01*
X17738000Y-33502333D01*
X17780333Y-33544666D01*
G36*
X17096874Y-34102080D02*
X17156835Y-34126545D01*
X17351761Y-34175895D01*
X17455646Y-34112997D01*
X17508187Y-33969319D01*
X17507442Y-33837881D01*
X17382615Y-33798981D01*
X17359440Y-33798666D01*
X17159575Y-33850932D01*
X17061369Y-33924819D01*
X17010501Y-34028860D01*
X17096874Y-34102080D01*
X17096874Y-34102080D01*
G37*
X17096874Y-34102080D02*
X17156835Y-34126545D01*
X17351761Y-34175895D01*
X17455646Y-34112997D01*
X17508187Y-33969319D01*
X17507442Y-33837881D01*
X17382615Y-33798981D01*
X17359440Y-33798666D01*
X17159575Y-33850932D01*
X17061369Y-33924819D01*
X17010501Y-34028860D01*
X17096874Y-34102080D01*
G36*
X17018333Y-34306666D02*
X17060666Y-34264333D01*
X17018333Y-34222000D01*
X16976000Y-34264333D01*
X17018333Y-34306666D01*
X17018333Y-34306666D01*
G37*
X17018333Y-34306666D02*
X17060666Y-34264333D01*
X17018333Y-34222000D01*
X16976000Y-34264333D01*
X17018333Y-34306666D01*
G36*
X13546068Y-40819319D02*
X13663436Y-40785848D01*
X13801270Y-40759040D01*
X13807738Y-40814094D01*
X13798521Y-40830011D01*
X13779079Y-40896392D01*
X13844027Y-40867904D01*
X14009206Y-40797733D01*
X14182446Y-40748989D01*
X14337956Y-40695416D01*
X14366694Y-40593977D01*
X14330948Y-40466166D01*
X14239794Y-40298613D01*
X14139535Y-40233333D01*
X13932250Y-40270626D01*
X13787736Y-40360172D01*
X13758666Y-40426225D01*
X13706954Y-40552453D01*
X13610500Y-40682418D01*
X13514022Y-40799700D01*
X13546068Y-40819319D01*
X13546068Y-40819319D01*
G37*
X13546068Y-40819319D02*
X13663436Y-40785848D01*
X13801270Y-40759040D01*
X13807738Y-40814094D01*
X13798521Y-40830011D01*
X13779079Y-40896392D01*
X13844027Y-40867904D01*
X14009206Y-40797733D01*
X14182446Y-40748989D01*
X14337956Y-40695416D01*
X14366694Y-40593977D01*
X14330948Y-40466166D01*
X14239794Y-40298613D01*
X14139535Y-40233333D01*
X13932250Y-40270626D01*
X13787736Y-40360172D01*
X13758666Y-40426225D01*
X13706954Y-40552453D01*
X13610500Y-40682418D01*
X13514022Y-40799700D01*
X13546068Y-40819319D01*
G36*
X13774466Y-41534326D02*
X13899777Y-41569753D01*
X14061600Y-41538347D01*
X14097333Y-41460051D01*
X14024515Y-41358454D01*
X13899777Y-41334000D01*
X13747710Y-41373870D01*
X13702222Y-41443701D01*
X13774466Y-41534326D01*
X13774466Y-41534326D01*
G37*
X13774466Y-41534326D02*
X13899777Y-41569753D01*
X14061600Y-41538347D01*
X14097333Y-41460051D01*
X14024515Y-41358454D01*
X13899777Y-41334000D01*
X13747710Y-41373870D01*
X13702222Y-41443701D01*
X13774466Y-41534326D01*
G36*
X10985069Y-30874858D02*
X11007000Y-30866830D01*
X11122353Y-30833697D01*
X11104169Y-30890136D01*
X11054777Y-30952934D01*
X10990765Y-31075276D01*
X11040678Y-31172909D01*
X11223785Y-31263849D01*
X11470226Y-31341375D01*
X11684894Y-31383879D01*
X11798993Y-31347773D01*
X11831401Y-31304465D01*
X11957736Y-31229339D01*
X12159730Y-31252090D01*
X12391187Y-31353017D01*
X12605909Y-31512420D01*
X12750352Y-31696361D01*
X12850900Y-31802480D01*
X12919956Y-31804082D01*
X13047070Y-31806900D01*
X13148542Y-31861127D01*
X13243805Y-31927956D01*
X13217495Y-31885978D01*
X13187166Y-31851483D01*
X13100192Y-31719189D01*
X13088075Y-31630016D01*
X13157338Y-31634325D01*
X13159174Y-31635448D01*
X13273151Y-31622283D01*
X13365442Y-31555128D01*
X13491766Y-31481456D01*
X13546598Y-31512017D01*
X13644308Y-31588290D01*
X13738167Y-31580436D01*
X13757370Y-31533833D01*
X13711913Y-31412874D01*
X13693870Y-31385666D01*
X13577761Y-31328695D01*
X13358040Y-31284325D01*
X13250666Y-31273447D01*
X12939844Y-31217295D01*
X12869666Y-31192269D01*
X12869666Y-31682000D01*
X12912000Y-31724333D01*
X12869666Y-31766666D01*
X12827333Y-31724333D01*
X12869666Y-31682000D01*
X12869666Y-31192269D01*
X12646065Y-31112530D01*
X12588651Y-31082352D01*
X12349320Y-30982934D01*
X12129226Y-30952651D01*
X12103195Y-30955881D01*
X11930104Y-30957727D01*
X11853070Y-30919035D01*
X11730346Y-30847082D01*
X11507655Y-30796987D01*
X11253682Y-30775442D01*
X11037112Y-30789142D01*
X10937134Y-30829781D01*
X10892935Y-30894249D01*
X10985069Y-30874858D01*
X10985069Y-30874858D01*
G37*
X10985069Y-30874858D02*
X11007000Y-30866830D01*
X11122353Y-30833697D01*
X11104169Y-30890136D01*
X11054777Y-30952934D01*
X10990765Y-31075276D01*
X11040678Y-31172909D01*
X11223785Y-31263849D01*
X11470226Y-31341375D01*
X11684894Y-31383879D01*
X11798993Y-31347773D01*
X11831401Y-31304465D01*
X11957736Y-31229339D01*
X12159730Y-31252090D01*
X12391187Y-31353017D01*
X12605909Y-31512420D01*
X12750352Y-31696361D01*
X12850900Y-31802480D01*
X12919956Y-31804082D01*
X13047070Y-31806900D01*
X13148542Y-31861127D01*
X13243805Y-31927956D01*
X13217495Y-31885978D01*
X13187166Y-31851483D01*
X13100192Y-31719189D01*
X13088075Y-31630016D01*
X13157338Y-31634325D01*
X13159174Y-31635448D01*
X13273151Y-31622283D01*
X13365442Y-31555128D01*
X13491766Y-31481456D01*
X13546598Y-31512017D01*
X13644308Y-31588290D01*
X13738167Y-31580436D01*
X13757370Y-31533833D01*
X13711913Y-31412874D01*
X13693870Y-31385666D01*
X13577761Y-31328695D01*
X13358040Y-31284325D01*
X13250666Y-31273447D01*
X12939844Y-31217295D01*
X12869666Y-31192269D01*
X12869666Y-31682000D01*
X12912000Y-31724333D01*
X12869666Y-31766666D01*
X12827333Y-31724333D01*
X12869666Y-31682000D01*
X12869666Y-31192269D01*
X12646065Y-31112530D01*
X12588651Y-31082352D01*
X12349320Y-30982934D01*
X12129226Y-30952651D01*
X12103195Y-30955881D01*
X11930104Y-30957727D01*
X11853070Y-30919035D01*
X11730346Y-30847082D01*
X11507655Y-30796987D01*
X11253682Y-30775442D01*
X11037112Y-30789142D01*
X10937134Y-30829781D01*
X10892935Y-30894249D01*
X10985069Y-30874858D01*
G36*
X10867709Y-39757229D02*
X11137044Y-39833523D01*
X11387407Y-39782466D01*
X11563043Y-39617087D01*
X11575716Y-39591798D01*
X11709851Y-39399043D01*
X11853317Y-39357473D01*
X11981603Y-39473458D01*
X11987822Y-39484703D01*
X12038838Y-39606569D01*
X11990525Y-39604421D01*
X11989113Y-39603553D01*
X11905482Y-39608848D01*
X11896000Y-39647463D01*
X11953976Y-39705132D01*
X12141649Y-39715195D01*
X12340500Y-39697592D01*
X12785000Y-39646264D01*
X12573333Y-39810916D01*
X12446786Y-39930518D01*
X12466244Y-39983005D01*
X12488666Y-39986450D01*
X12779206Y-40006386D01*
X12976133Y-40002339D01*
X13153823Y-39971619D01*
X13198665Y-39960779D01*
X13352526Y-39933519D01*
X13392172Y-39950504D01*
X13389899Y-39952988D01*
X13380449Y-40050199D01*
X13470606Y-40145907D01*
X13599353Y-40185009D01*
X13637856Y-40176908D01*
X13749420Y-40076598D01*
X13721851Y-39953644D01*
X13568166Y-39862210D01*
X13445504Y-39808437D01*
X13478544Y-39745228D01*
X13490598Y-39737117D01*
X13534888Y-39660446D01*
X13434165Y-39598375D01*
X13212693Y-39561023D01*
X13053241Y-39554703D01*
X12886202Y-39542611D01*
X12871366Y-39502398D01*
X12912000Y-39471333D01*
X12977310Y-39409979D01*
X12892741Y-39389006D01*
X12843503Y-39387963D01*
X12713032Y-39357467D01*
X12700333Y-39302000D01*
X12668654Y-39240365D01*
X12514830Y-39216036D01*
X12364254Y-39203474D01*
X12365896Y-39160246D01*
X12404000Y-39132666D01*
X12469178Y-39071358D01*
X12384552Y-39050351D01*
X12334933Y-39049296D01*
X12112494Y-39016329D01*
X11996267Y-38973970D01*
X11803920Y-38942668D01*
X11684333Y-38968019D01*
X11576574Y-39022990D01*
X11578500Y-39042049D01*
X11608637Y-39083913D01*
X11531089Y-39170337D01*
X11389691Y-39270292D01*
X11228281Y-39352744D01*
X11091666Y-39386666D01*
X10921428Y-39430827D01*
X10880000Y-39513666D01*
X10822899Y-39627927D01*
X10774166Y-39643666D01*
X10758229Y-39678555D01*
X10867709Y-39757229D01*
X10867709Y-39757229D01*
G37*
X10867709Y-39757229D02*
X11137044Y-39833523D01*
X11387407Y-39782466D01*
X11563043Y-39617087D01*
X11575716Y-39591798D01*
X11709851Y-39399043D01*
X11853317Y-39357473D01*
X11981603Y-39473458D01*
X11987822Y-39484703D01*
X12038838Y-39606569D01*
X11990525Y-39604421D01*
X11989113Y-39603553D01*
X11905482Y-39608848D01*
X11896000Y-39647463D01*
X11953976Y-39705132D01*
X12141649Y-39715195D01*
X12340500Y-39697592D01*
X12785000Y-39646264D01*
X12573333Y-39810916D01*
X12446786Y-39930518D01*
X12466244Y-39983005D01*
X12488666Y-39986450D01*
X12779206Y-40006386D01*
X12976133Y-40002339D01*
X13153823Y-39971619D01*
X13198665Y-39960779D01*
X13352526Y-39933519D01*
X13392172Y-39950504D01*
X13389899Y-39952988D01*
X13380449Y-40050199D01*
X13470606Y-40145907D01*
X13599353Y-40185009D01*
X13637856Y-40176908D01*
X13749420Y-40076598D01*
X13721851Y-39953644D01*
X13568166Y-39862210D01*
X13445504Y-39808437D01*
X13478544Y-39745228D01*
X13490598Y-39737117D01*
X13534888Y-39660446D01*
X13434165Y-39598375D01*
X13212693Y-39561023D01*
X13053241Y-39554703D01*
X12886202Y-39542611D01*
X12871366Y-39502398D01*
X12912000Y-39471333D01*
X12977310Y-39409979D01*
X12892741Y-39389006D01*
X12843503Y-39387963D01*
X12713032Y-39357467D01*
X12700333Y-39302000D01*
X12668654Y-39240365D01*
X12514830Y-39216036D01*
X12364254Y-39203474D01*
X12365896Y-39160246D01*
X12404000Y-39132666D01*
X12469178Y-39071358D01*
X12384552Y-39050351D01*
X12334933Y-39049296D01*
X12112494Y-39016329D01*
X11996267Y-38973970D01*
X11803920Y-38942668D01*
X11684333Y-38968019D01*
X11576574Y-39022990D01*
X11578500Y-39042049D01*
X11608637Y-39083913D01*
X11531089Y-39170337D01*
X11389691Y-39270292D01*
X11228281Y-39352744D01*
X11091666Y-39386666D01*
X10921428Y-39430827D01*
X10880000Y-39513666D01*
X10822899Y-39627927D01*
X10774166Y-39643666D01*
X10758229Y-39678555D01*
X10867709Y-39757229D01*
G36*
X13423734Y-32057391D02*
X13547947Y-32055452D01*
X13629216Y-31994895D01*
X13631024Y-31968935D01*
X13618290Y-31977598D01*
X13514258Y-31969493D01*
X13463067Y-31936609D01*
X13378379Y-31908393D01*
X13363555Y-31970114D01*
X13423734Y-32057391D01*
X13423734Y-32057391D01*
G37*
X13423734Y-32057391D02*
X13547947Y-32055452D01*
X13629216Y-31994895D01*
X13631024Y-31968935D01*
X13618290Y-31977598D01*
X13514258Y-31969493D01*
X13463067Y-31936609D01*
X13378379Y-31908393D01*
X13363555Y-31970114D01*
X13423734Y-32057391D01*
G36*
X13547000Y-41164666D02*
X13589333Y-41122333D01*
X13547000Y-41080000D01*
X13504666Y-41122333D01*
X13547000Y-41164666D01*
X13547000Y-41164666D01*
G37*
X13547000Y-41164666D02*
X13589333Y-41122333D01*
X13547000Y-41080000D01*
X13504666Y-41122333D01*
X13547000Y-41164666D01*
G36*
X13363555Y-41390444D02*
X13464035Y-41400577D01*
X13476444Y-41390444D01*
X13464822Y-41340110D01*
X13420000Y-41334000D01*
X13350309Y-41364978D01*
X13363555Y-41390444D01*
X13363555Y-41390444D01*
G37*
X13363555Y-41390444D02*
X13464035Y-41400577D01*
X13476444Y-41390444D01*
X13464822Y-41340110D01*
X13420000Y-41334000D01*
X13350309Y-41364978D01*
X13363555Y-41390444D01*
G36*
X12718772Y-40923057D02*
X12783285Y-40964057D01*
X12927651Y-40991826D01*
X12935627Y-40927282D01*
X12865603Y-40848009D01*
X12743822Y-40793471D01*
X12699442Y-40827440D01*
X12718772Y-40923057D01*
X12718772Y-40923057D01*
G37*
X12718772Y-40923057D02*
X12783285Y-40964057D01*
X12927651Y-40991826D01*
X12935627Y-40927282D01*
X12865603Y-40848009D01*
X12743822Y-40793471D01*
X12699442Y-40827440D01*
X12718772Y-40923057D01*
G36*
X12954333Y-41249333D02*
X12996666Y-41207000D01*
X12954333Y-41164666D01*
X12912000Y-41207000D01*
X12954333Y-41249333D01*
X12954333Y-41249333D01*
G37*
X12954333Y-41249333D02*
X12996666Y-41207000D01*
X12954333Y-41164666D01*
X12912000Y-41207000D01*
X12954333Y-41249333D01*
G36*
X9376772Y-31404135D02*
X9539397Y-31521711D01*
X9728239Y-31576020D01*
X9876043Y-31534447D01*
X9878000Y-31532532D01*
X10030611Y-31486377D01*
X10210299Y-31528014D01*
X10369222Y-31598132D01*
X10386587Y-31668666D01*
X10333909Y-31732185D01*
X10329666Y-31734478D01*
X10329666Y-32359333D01*
X10372000Y-32401666D01*
X10329666Y-32444000D01*
X10287333Y-32401666D01*
X10329666Y-32359333D01*
X10329666Y-31734478D01*
X10195281Y-31807110D01*
X9998877Y-31769579D01*
X9985157Y-31764445D01*
X9780580Y-31711787D01*
X9705198Y-31752298D01*
X9768370Y-31880245D01*
X9777635Y-31891620D01*
X9833633Y-31995039D01*
X9810866Y-32021224D01*
X9821106Y-32060692D01*
X9942428Y-32156871D01*
X9970515Y-32175764D01*
X10115843Y-32291530D01*
X10161598Y-32370421D01*
X10158300Y-32375476D01*
X10194723Y-32434166D01*
X10344355Y-32516929D01*
X10368209Y-32527096D01*
X10531171Y-32615066D01*
X10588241Y-32688655D01*
X10585915Y-32694361D01*
X10619681Y-32780844D01*
X10756220Y-32906692D01*
X10946193Y-33036860D01*
X11140266Y-33136304D01*
X11254300Y-33169140D01*
X11490591Y-33216472D01*
X11599666Y-33248563D01*
X11709997Y-33278597D01*
X11674685Y-33233485D01*
X11642000Y-33207358D01*
X11583437Y-33145009D01*
X11658592Y-33139726D01*
X11769000Y-33159702D01*
X12049537Y-33212622D01*
X12200245Y-33225394D01*
X12256097Y-33196780D01*
X12255833Y-33142500D01*
X12272825Y-33045364D01*
X12383992Y-33081782D01*
X12506810Y-33180086D01*
X12619093Y-33274900D01*
X12636088Y-33253371D01*
X12610525Y-33180800D01*
X12620428Y-33035193D01*
X12686202Y-32988040D01*
X12775405Y-32880900D01*
X12765265Y-32804103D01*
X12757104Y-32714445D01*
X12812945Y-32731440D01*
X12902014Y-32759806D01*
X12912000Y-32745330D01*
X12890833Y-32691522D01*
X12654436Y-32640888D01*
X12615666Y-32636741D01*
X12615666Y-32782666D01*
X12658000Y-32825000D01*
X12615666Y-32867333D01*
X12573333Y-32825000D01*
X12615666Y-32782666D01*
X12615666Y-32636741D01*
X12379245Y-32611448D01*
X12125532Y-32606099D01*
X11953569Y-32627741D01*
X11920909Y-32644868D01*
X11847962Y-32608237D01*
X11689960Y-32478112D01*
X11480228Y-32282075D01*
X11467226Y-32269311D01*
X11261647Y-32074840D01*
X11112347Y-31948643D01*
X11049328Y-31915907D01*
X11048912Y-31918149D01*
X11003399Y-31900533D01*
X10891224Y-31781081D01*
X10858412Y-31741029D01*
X10822935Y-31704447D01*
X10822935Y-31897486D01*
X10932703Y-31952779D01*
X10939763Y-32005995D01*
X10880000Y-31978333D01*
X10809061Y-31956082D01*
X10830435Y-32008966D01*
X10931759Y-32070618D01*
X10970516Y-32059384D01*
X11105344Y-32049561D01*
X11186042Y-32165610D01*
X11190444Y-32211559D01*
X11156526Y-32279141D01*
X11091666Y-32275034D01*
X11091666Y-32867333D01*
X11134000Y-32909666D01*
X11091666Y-32952000D01*
X11049333Y-32909666D01*
X11091666Y-32867333D01*
X11091666Y-32275034D01*
X11028659Y-32271043D01*
X10908222Y-32236899D01*
X10719913Y-32152997D01*
X10627829Y-32062977D01*
X10626000Y-32051341D01*
X10690304Y-31939609D01*
X10822935Y-31897486D01*
X10822935Y-31704447D01*
X10696890Y-31574476D01*
X10554182Y-31482079D01*
X10541333Y-31478650D01*
X10541333Y-32444000D01*
X10611023Y-32474978D01*
X10597777Y-32500444D01*
X10497298Y-32510577D01*
X10484888Y-32500444D01*
X10496511Y-32450110D01*
X10541333Y-32444000D01*
X10541333Y-31478650D01*
X10400222Y-31433304D01*
X10400222Y-31794888D01*
X10450556Y-31806511D01*
X10456666Y-31851333D01*
X10425688Y-31921023D01*
X10400222Y-31907777D01*
X10390089Y-31807298D01*
X10400222Y-31794888D01*
X10400222Y-31433304D01*
X10275974Y-31393376D01*
X10154149Y-31276339D01*
X10156427Y-31195980D01*
X10155951Y-31108622D01*
X10070493Y-31121936D01*
X9890143Y-31126840D01*
X9775105Y-31087070D01*
X9754655Y-31079146D01*
X9754655Y-31377777D01*
X9785183Y-31389282D01*
X9860257Y-31471016D01*
X9774750Y-31511010D01*
X9732003Y-31512666D01*
X9644800Y-31471010D01*
X9653186Y-31426618D01*
X9754655Y-31377777D01*
X9754655Y-31079146D01*
X9659830Y-31042401D01*
X9653998Y-31112185D01*
X9666699Y-31150874D01*
X9688623Y-31250068D01*
X9620515Y-31208888D01*
X9605527Y-31195166D01*
X9440386Y-31096483D01*
X9333276Y-31139865D01*
X9307619Y-31255909D01*
X9376772Y-31404135D01*
X9376772Y-31404135D01*
G37*
X9376772Y-31404135D02*
X9539397Y-31521711D01*
X9728239Y-31576020D01*
X9876043Y-31534447D01*
X9878000Y-31532532D01*
X10030611Y-31486377D01*
X10210299Y-31528014D01*
X10369222Y-31598132D01*
X10386587Y-31668666D01*
X10333909Y-31732185D01*
X10329666Y-31734478D01*
X10329666Y-32359333D01*
X10372000Y-32401666D01*
X10329666Y-32444000D01*
X10287333Y-32401666D01*
X10329666Y-32359333D01*
X10329666Y-31734478D01*
X10195281Y-31807110D01*
X9998877Y-31769579D01*
X9985157Y-31764445D01*
X9780580Y-31711787D01*
X9705198Y-31752298D01*
X9768370Y-31880245D01*
X9777635Y-31891620D01*
X9833633Y-31995039D01*
X9810866Y-32021224D01*
X9821106Y-32060692D01*
X9942428Y-32156871D01*
X9970515Y-32175764D01*
X10115843Y-32291530D01*
X10161598Y-32370421D01*
X10158300Y-32375476D01*
X10194723Y-32434166D01*
X10344355Y-32516929D01*
X10368209Y-32527096D01*
X10531171Y-32615066D01*
X10588241Y-32688655D01*
X10585915Y-32694361D01*
X10619681Y-32780844D01*
X10756220Y-32906692D01*
X10946193Y-33036860D01*
X11140266Y-33136304D01*
X11254300Y-33169140D01*
X11490591Y-33216472D01*
X11599666Y-33248563D01*
X11709997Y-33278597D01*
X11674685Y-33233485D01*
X11642000Y-33207358D01*
X11583437Y-33145009D01*
X11658592Y-33139726D01*
X11769000Y-33159702D01*
X12049537Y-33212622D01*
X12200245Y-33225394D01*
X12256097Y-33196780D01*
X12255833Y-33142500D01*
X12272825Y-33045364D01*
X12383992Y-33081782D01*
X12506810Y-33180086D01*
X12619093Y-33274900D01*
X12636088Y-33253371D01*
X12610525Y-33180800D01*
X12620428Y-33035193D01*
X12686202Y-32988040D01*
X12775405Y-32880900D01*
X12765265Y-32804103D01*
X12757104Y-32714445D01*
X12812945Y-32731440D01*
X12902014Y-32759806D01*
X12912000Y-32745330D01*
X12890833Y-32691522D01*
X12654436Y-32640888D01*
X12615666Y-32636741D01*
X12615666Y-32782666D01*
X12658000Y-32825000D01*
X12615666Y-32867333D01*
X12573333Y-32825000D01*
X12615666Y-32782666D01*
X12615666Y-32636741D01*
X12379245Y-32611448D01*
X12125532Y-32606099D01*
X11953569Y-32627741D01*
X11920909Y-32644868D01*
X11847962Y-32608237D01*
X11689960Y-32478112D01*
X11480228Y-32282075D01*
X11467226Y-32269311D01*
X11261647Y-32074840D01*
X11112347Y-31948643D01*
X11049328Y-31915907D01*
X11048912Y-31918149D01*
X11003399Y-31900533D01*
X10891224Y-31781081D01*
X10858412Y-31741029D01*
X10822935Y-31704447D01*
X10822935Y-31897486D01*
X10932703Y-31952779D01*
X10939763Y-32005995D01*
X10880000Y-31978333D01*
X10809061Y-31956082D01*
X10830435Y-32008966D01*
X10931759Y-32070618D01*
X10970516Y-32059384D01*
X11105344Y-32049561D01*
X11186042Y-32165610D01*
X11190444Y-32211559D01*
X11156526Y-32279141D01*
X11091666Y-32275034D01*
X11091666Y-32867333D01*
X11134000Y-32909666D01*
X11091666Y-32952000D01*
X11049333Y-32909666D01*
X11091666Y-32867333D01*
X11091666Y-32275034D01*
X11028659Y-32271043D01*
X10908222Y-32236899D01*
X10719913Y-32152997D01*
X10627829Y-32062977D01*
X10626000Y-32051341D01*
X10690304Y-31939609D01*
X10822935Y-31897486D01*
X10822935Y-31704447D01*
X10696890Y-31574476D01*
X10554182Y-31482079D01*
X10541333Y-31478650D01*
X10541333Y-32444000D01*
X10611023Y-32474978D01*
X10597777Y-32500444D01*
X10497298Y-32510577D01*
X10484888Y-32500444D01*
X10496511Y-32450110D01*
X10541333Y-32444000D01*
X10541333Y-31478650D01*
X10400222Y-31433304D01*
X10400222Y-31794888D01*
X10450556Y-31806511D01*
X10456666Y-31851333D01*
X10425688Y-31921023D01*
X10400222Y-31907777D01*
X10390089Y-31807298D01*
X10400222Y-31794888D01*
X10400222Y-31433304D01*
X10275974Y-31393376D01*
X10154149Y-31276339D01*
X10156427Y-31195980D01*
X10155951Y-31108622D01*
X10070493Y-31121936D01*
X9890143Y-31126840D01*
X9775105Y-31087070D01*
X9754655Y-31079146D01*
X9754655Y-31377777D01*
X9785183Y-31389282D01*
X9860257Y-31471016D01*
X9774750Y-31511010D01*
X9732003Y-31512666D01*
X9644800Y-31471010D01*
X9653186Y-31426618D01*
X9754655Y-31377777D01*
X9754655Y-31079146D01*
X9659830Y-31042401D01*
X9653998Y-31112185D01*
X9666699Y-31150874D01*
X9688623Y-31250068D01*
X9620515Y-31208888D01*
X9605527Y-31195166D01*
X9440386Y-31096483D01*
X9333276Y-31139865D01*
X9307619Y-31255909D01*
X9376772Y-31404135D01*
G36*
X9258633Y-40729830D02*
X9343386Y-40809000D01*
X9535588Y-40900546D01*
X9776586Y-40983911D01*
X10007730Y-41038536D01*
X10160333Y-41045893D01*
X10345203Y-41081278D01*
X10481131Y-41175721D01*
X10706833Y-41301696D01*
X10947598Y-41334000D01*
X11214196Y-41373890D01*
X11368351Y-41503333D01*
X11520748Y-41637809D01*
X11647714Y-41672666D01*
X11764331Y-41639959D01*
X11769000Y-41588000D01*
X11775712Y-41509981D01*
X11806336Y-41503333D01*
X11895488Y-41466451D01*
X11863913Y-41386741D01*
X11734798Y-41310606D01*
X11705500Y-41301543D01*
X11579838Y-41251184D01*
X11606182Y-41191223D01*
X11642000Y-41165965D01*
X11795934Y-41093312D01*
X11853666Y-41082592D01*
X11871202Y-41116451D01*
X11821313Y-41156707D01*
X11763892Y-41223418D01*
X11858562Y-41279465D01*
X11884813Y-41288116D01*
X12027875Y-41378824D01*
X12065333Y-41461000D01*
X12135530Y-41581143D01*
X12307211Y-41644580D01*
X12522009Y-41650476D01*
X12721557Y-41597997D01*
X12847489Y-41486309D01*
X12853627Y-41472268D01*
X12819754Y-41350910D01*
X12688858Y-41259510D01*
X12550905Y-41167126D01*
X12524516Y-41090489D01*
X12480927Y-41024182D01*
X12327065Y-40934478D01*
X12115666Y-40843820D01*
X11899468Y-40774647D01*
X11731210Y-40749403D01*
X11723836Y-40749772D01*
X11698402Y-40777637D01*
X11811333Y-40832507D01*
X11893483Y-40871899D01*
X11825670Y-40882737D01*
X11599666Y-40866465D01*
X10988427Y-40798696D01*
X10530431Y-40725397D01*
X10209602Y-40643413D01*
X10020590Y-40556840D01*
X9787656Y-40464942D01*
X9645277Y-40449210D01*
X9645277Y-40748017D01*
X9755091Y-40763584D01*
X9756402Y-40792486D01*
X9643085Y-40812697D01*
X9594125Y-40799170D01*
X9562054Y-40761575D01*
X9645277Y-40748017D01*
X9645277Y-40449210D01*
X9520975Y-40435475D01*
X9319076Y-40466343D01*
X9246448Y-40559998D01*
X9258633Y-40729830D01*
X9258633Y-40729830D01*
G37*
X9258633Y-40729830D02*
X9343386Y-40809000D01*
X9535588Y-40900546D01*
X9776586Y-40983911D01*
X10007730Y-41038536D01*
X10160333Y-41045893D01*
X10345203Y-41081278D01*
X10481131Y-41175721D01*
X10706833Y-41301696D01*
X10947598Y-41334000D01*
X11214196Y-41373890D01*
X11368351Y-41503333D01*
X11520748Y-41637809D01*
X11647714Y-41672666D01*
X11764331Y-41639959D01*
X11769000Y-41588000D01*
X11775712Y-41509981D01*
X11806336Y-41503333D01*
X11895488Y-41466451D01*
X11863913Y-41386741D01*
X11734798Y-41310606D01*
X11705500Y-41301543D01*
X11579838Y-41251184D01*
X11606182Y-41191223D01*
X11642000Y-41165965D01*
X11795934Y-41093312D01*
X11853666Y-41082592D01*
X11871202Y-41116451D01*
X11821313Y-41156707D01*
X11763892Y-41223418D01*
X11858562Y-41279465D01*
X11884813Y-41288116D01*
X12027875Y-41378824D01*
X12065333Y-41461000D01*
X12135530Y-41581143D01*
X12307211Y-41644580D01*
X12522009Y-41650476D01*
X12721557Y-41597997D01*
X12847489Y-41486309D01*
X12853627Y-41472268D01*
X12819754Y-41350910D01*
X12688858Y-41259510D01*
X12550905Y-41167126D01*
X12524516Y-41090489D01*
X12480927Y-41024182D01*
X12327065Y-40934478D01*
X12115666Y-40843820D01*
X11899468Y-40774647D01*
X11731210Y-40749403D01*
X11723836Y-40749772D01*
X11698402Y-40777637D01*
X11811333Y-40832507D01*
X11893483Y-40871899D01*
X11825670Y-40882737D01*
X11599666Y-40866465D01*
X10988427Y-40798696D01*
X10530431Y-40725397D01*
X10209602Y-40643413D01*
X10020590Y-40556840D01*
X9787656Y-40464942D01*
X9645277Y-40449210D01*
X9645277Y-40748017D01*
X9755091Y-40763584D01*
X9756402Y-40792486D01*
X9643085Y-40812697D01*
X9594125Y-40799170D01*
X9562054Y-40761575D01*
X9645277Y-40748017D01*
X9645277Y-40449210D01*
X9520975Y-40435475D01*
X9319076Y-40466343D01*
X9246448Y-40559998D01*
X9258633Y-40729830D01*
G36*
X12700333Y-33121333D02*
X12742666Y-33079000D01*
X12700333Y-33036666D01*
X12658000Y-33079000D01*
X12700333Y-33121333D01*
X12700333Y-33121333D01*
G37*
X12700333Y-33121333D02*
X12742666Y-33079000D01*
X12700333Y-33036666D01*
X12658000Y-33079000D01*
X12700333Y-33121333D01*
G36*
X12107666Y-39894666D02*
X12150000Y-39852333D01*
X12107666Y-39810000D01*
X12065333Y-39852333D01*
X12107666Y-39894666D01*
X12107666Y-39894666D01*
G37*
X12107666Y-39894666D02*
X12150000Y-39852333D01*
X12107666Y-39810000D01*
X12065333Y-39852333D01*
X12107666Y-39894666D01*
G36*
X11938333Y-32528666D02*
X11980666Y-32486333D01*
X11938333Y-32444000D01*
X11896000Y-32486333D01*
X11938333Y-32528666D01*
X11938333Y-32528666D01*
G37*
X11938333Y-32528666D02*
X11980666Y-32486333D01*
X11938333Y-32444000D01*
X11896000Y-32486333D01*
X11938333Y-32528666D01*
G36*
X11007000Y-36000000D02*
X11049333Y-35957666D01*
X11007000Y-35915333D01*
X10964666Y-35957666D01*
X11007000Y-36000000D01*
X11007000Y-36000000D01*
G37*
X11007000Y-36000000D02*
X11049333Y-35957666D01*
X11007000Y-35915333D01*
X10964666Y-35957666D01*
X11007000Y-36000000D01*
G36*
X10823555Y-39273777D02*
X10924035Y-39283910D01*
X10936444Y-39273777D01*
X10924822Y-39223443D01*
X10880000Y-39217333D01*
X10810309Y-39248311D01*
X10823555Y-39273777D01*
X10823555Y-39273777D01*
G37*
X10823555Y-39273777D02*
X10924035Y-39283910D01*
X10936444Y-39273777D01*
X10924822Y-39223443D01*
X10880000Y-39217333D01*
X10810309Y-39248311D01*
X10823555Y-39273777D01*
G36*
X10753000Y-31089333D02*
X10795333Y-31047000D01*
X10753000Y-31004666D01*
X10710666Y-31047000D01*
X10753000Y-31089333D01*
X10753000Y-31089333D01*
G37*
X10753000Y-31089333D02*
X10795333Y-31047000D01*
X10753000Y-31004666D01*
X10710666Y-31047000D01*
X10753000Y-31089333D01*
G36*
X9707029Y-30885566D02*
X9883250Y-31015153D01*
X10027570Y-31046211D01*
X10100283Y-30980476D01*
X10084095Y-30869102D01*
X10060334Y-30775179D01*
X10115269Y-30762762D01*
X10282183Y-30829239D01*
X10327979Y-30849970D01*
X10511420Y-30906278D01*
X10631245Y-30855962D01*
X10649463Y-30837549D01*
X10705221Y-30763114D01*
X10653016Y-30781960D01*
X10535006Y-30789975D01*
X10507990Y-30765213D01*
X10405302Y-30723294D01*
X10186350Y-30690336D01*
X9972973Y-30676627D01*
X9483000Y-30660923D01*
X9707029Y-30885566D01*
X9707029Y-30885566D01*
G37*
X9707029Y-30885566D02*
X9883250Y-31015153D01*
X10027570Y-31046211D01*
X10100283Y-30980476D01*
X10084095Y-30869102D01*
X10060334Y-30775179D01*
X10115269Y-30762762D01*
X10282183Y-30829239D01*
X10327979Y-30849970D01*
X10511420Y-30906278D01*
X10631245Y-30855962D01*
X10649463Y-30837549D01*
X10705221Y-30763114D01*
X10653016Y-30781960D01*
X10535006Y-30789975D01*
X10507990Y-30765213D01*
X10405302Y-30723294D01*
X10186350Y-30690336D01*
X9972973Y-30676627D01*
X9483000Y-30660923D01*
X9707029Y-30885566D01*
G36*
X10075666Y-39725333D02*
X10118000Y-39683000D01*
X10075666Y-39640666D01*
X10033333Y-39683000D01*
X10075666Y-39725333D01*
X10075666Y-39725333D01*
G37*
X10075666Y-39725333D02*
X10118000Y-39683000D01*
X10075666Y-39640666D01*
X10033333Y-39683000D01*
X10075666Y-39725333D01*
G36*
X25839703Y-34744190D02*
X25908333Y-34814666D01*
X26010511Y-34865478D01*
X26035333Y-34835400D01*
X25976963Y-34715809D01*
X25908333Y-34645333D01*
X25806154Y-34594521D01*
X25781333Y-34624599D01*
X25839703Y-34744190D01*
X25839703Y-34744190D01*
G37*
X25839703Y-34744190D02*
X25908333Y-34814666D01*
X26010511Y-34865478D01*
X26035333Y-34835400D01*
X25976963Y-34715809D01*
X25908333Y-34645333D01*
X25806154Y-34594521D01*
X25781333Y-34624599D01*
X25839703Y-34744190D01*
D13*
X33442548Y-63419238D02*
X33442548Y-62729810D01*
X33442548Y-63074524D02*
X32236048Y-63074524D01*
X32408405Y-62959619D01*
X32523310Y-62844714D01*
X32580762Y-62729810D01*
X32350952Y-63878858D02*
X32293500Y-63936310D01*
X32236048Y-64051215D01*
X32236048Y-64338477D01*
X32293500Y-64453381D01*
X32350952Y-64510834D01*
X32465857Y-64568286D01*
X32580762Y-64568286D01*
X32753119Y-64510834D01*
X33442548Y-63821405D01*
X33442548Y-64568286D01*
X32236048Y-65315167D02*
X32236048Y-65430072D01*
X32293500Y-65544977D01*
X32350952Y-65602429D01*
X32465857Y-65659882D01*
X32695667Y-65717334D01*
X32982929Y-65717334D01*
X33212738Y-65659882D01*
X33327643Y-65602429D01*
X33385095Y-65544977D01*
X33442548Y-65430072D01*
X33442548Y-65315167D01*
X33385095Y-65200263D01*
X33327643Y-65142810D01*
X33212738Y-65085358D01*
X32982929Y-65027906D01*
X32695667Y-65027906D01*
X32465857Y-65085358D01*
X32350952Y-65142810D01*
X32293500Y-65200263D01*
X32236048Y-65315167D01*
X20442548Y-63419238D02*
X20442548Y-62729810D01*
X20442548Y-63074524D02*
X19236048Y-63074524D01*
X19408405Y-62959619D01*
X19523310Y-62844714D01*
X19580762Y-62729810D01*
X19350952Y-63878858D02*
X19293500Y-63936310D01*
X19236048Y-64051215D01*
X19236048Y-64338477D01*
X19293500Y-64453381D01*
X19350952Y-64510834D01*
X19465857Y-64568286D01*
X19580762Y-64568286D01*
X19753119Y-64510834D01*
X20442548Y-63821405D01*
X20442548Y-64568286D01*
X19236048Y-65315167D02*
X19236048Y-65430072D01*
X19293500Y-65544977D01*
X19350952Y-65602429D01*
X19465857Y-65659882D01*
X19695667Y-65717334D01*
X19982929Y-65717334D01*
X20212738Y-65659882D01*
X20327643Y-65602429D01*
X20385095Y-65544977D01*
X20442548Y-65430072D01*
X20442548Y-65315167D01*
X20385095Y-65200263D01*
X20327643Y-65142810D01*
X20212738Y-65085358D01*
X19982929Y-65027906D01*
X19695667Y-65027906D01*
X19465857Y-65085358D01*
X19350952Y-65142810D01*
X19293500Y-65200263D01*
X19236048Y-65315167D01*
X17982929Y-42736048D02*
X17868024Y-42736048D01*
X17753119Y-42793500D01*
X17695667Y-42850952D01*
X17638214Y-42965857D01*
X17580762Y-43195667D01*
X17580762Y-43482929D01*
X17638214Y-43712738D01*
X17695667Y-43827643D01*
X17753119Y-43885095D01*
X17868024Y-43942548D01*
X17982929Y-43942548D01*
X18097833Y-43885095D01*
X18155286Y-43827643D01*
X18212738Y-43712738D01*
X18270190Y-43482929D01*
X18270190Y-43195667D01*
X18212738Y-42965857D01*
X18155286Y-42850952D01*
X18097833Y-42793500D01*
X17982929Y-42736048D01*
X17063690Y-43827643D02*
X17006238Y-43885095D01*
X17063690Y-43942548D01*
X17121142Y-43885095D01*
X17063690Y-43827643D01*
X17063690Y-43942548D01*
X15857190Y-43942548D02*
X16546618Y-43942548D01*
X16201904Y-43942548D02*
X16201904Y-42736048D01*
X16316809Y-42908405D01*
X16431714Y-43023310D01*
X16546618Y-43080762D01*
X14823047Y-43138214D02*
X14823047Y-43942548D01*
X15340118Y-43138214D02*
X15340118Y-43770190D01*
X15282666Y-43885095D01*
X15167761Y-43942548D01*
X14995404Y-43942548D01*
X14880499Y-43885095D01*
X14823047Y-43827643D01*
X30482929Y-42736048D02*
X30368024Y-42736048D01*
X30253119Y-42793500D01*
X30195667Y-42850952D01*
X30138214Y-42965857D01*
X30080762Y-43195667D01*
X30080762Y-43482929D01*
X30138214Y-43712738D01*
X30195667Y-43827643D01*
X30253119Y-43885095D01*
X30368024Y-43942548D01*
X30482929Y-43942548D01*
X30597833Y-43885095D01*
X30655286Y-43827643D01*
X30712738Y-43712738D01*
X30770190Y-43482929D01*
X30770190Y-43195667D01*
X30712738Y-42965857D01*
X30655286Y-42850952D01*
X30597833Y-42793500D01*
X30482929Y-42736048D01*
X29563690Y-43827643D02*
X29506238Y-43885095D01*
X29563690Y-43942548D01*
X29621142Y-43885095D01*
X29563690Y-43827643D01*
X29563690Y-43942548D01*
X28357190Y-43942548D02*
X29046618Y-43942548D01*
X28701904Y-43942548D02*
X28701904Y-42736048D01*
X28816809Y-42908405D01*
X28931714Y-43023310D01*
X29046618Y-43080762D01*
X27323047Y-43138214D02*
X27323047Y-43942548D01*
X27840118Y-43138214D02*
X27840118Y-43770190D01*
X27782666Y-43885095D01*
X27667761Y-43942548D01*
X27495404Y-43942548D01*
X27380499Y-43885095D01*
X27323047Y-43827643D01*
M02*
