G04 #@! TF.GenerationSoftware,KiCad,Pcbnew,(6.0.8)*
G04 #@! TF.CreationDate,2022-10-28T20:08:31+09:00*
G04 #@! TF.ProjectId,ORION_boost_v2,4f52494f-4e5f-4626-9f6f-73745f76322e,rev?*
G04 #@! TF.SameCoordinates,Original*
G04 #@! TF.FileFunction,Soldermask,Bot*
G04 #@! TF.FilePolarity,Negative*
%FSLAX46Y46*%
G04 Gerber Fmt 4.6, Leading zero omitted, Abs format (unit mm)*
G04 Created by KiCad (PCBNEW (6.0.8)) date 2022-10-28 20:08:31*
%MOMM*%
%LPD*%
G01*
G04 APERTURE LIST*
G04 Aperture macros list*
%AMRoundRect*
0 Rectangle with rounded corners*
0 $1 Rounding radius*
0 $2 $3 $4 $5 $6 $7 $8 $9 X,Y pos of 4 corners*
0 Add a 4 corners polygon primitive as box body*
4,1,4,$2,$3,$4,$5,$6,$7,$8,$9,$2,$3,0*
0 Add four circle primitives for the rounded corners*
1,1,$1+$1,$2,$3*
1,1,$1+$1,$4,$5*
1,1,$1+$1,$6,$7*
1,1,$1+$1,$8,$9*
0 Add four rect primitives between the rounded corners*
20,1,$1+$1,$2,$3,$4,$5,0*
20,1,$1+$1,$4,$5,$6,$7,0*
20,1,$1+$1,$6,$7,$8,$9,0*
20,1,$1+$1,$8,$9,$2,$3,0*%
%AMRotRect*
0 Rectangle, with rotation*
0 The origin of the aperture is its center*
0 $1 length*
0 $2 width*
0 $3 Rotation angle, in degrees counterclockwise*
0 Add horizontal line*
21,1,$1,$2,0,0,$3*%
%AMFreePoly0*
4,1,22,0.550000,-0.750000,0.000000,-0.750000,0.000000,-0.745033,-0.079941,-0.743568,-0.215256,-0.701293,-0.333266,-0.622738,-0.424486,-0.514219,-0.481581,-0.384460,-0.499164,-0.250000,-0.500000,-0.250000,-0.500000,0.250000,-0.499164,0.250000,-0.499963,0.256109,-0.478152,0.396186,-0.417904,0.524511,-0.324060,0.630769,-0.204165,0.706417,-0.067858,0.745374,0.000000,0.744959,0.000000,0.750000,
0.550000,0.750000,0.550000,-0.750000,0.550000,-0.750000,$1*%
%AMFreePoly1*
4,1,20,0.000000,0.744959,0.073905,0.744508,0.209726,0.703889,0.328688,0.626782,0.421226,0.519385,0.479903,0.390333,0.500000,0.250000,0.500000,-0.250000,0.499851,-0.262216,0.476331,-0.402017,0.414519,-0.529596,0.319384,-0.634700,0.198574,-0.708877,0.061801,-0.746166,0.000000,-0.745033,0.000000,-0.750000,-0.550000,-0.750000,-0.550000,0.750000,0.000000,0.750000,0.000000,0.744959,
0.000000,0.744959,$1*%
%AMFreePoly2*
4,1,9,3.862500,-0.866500,0.737500,-0.866500,0.737500,-0.450000,-0.737500,-0.450000,-0.737500,0.450000,0.737500,0.450000,0.737500,0.866500,3.862500,0.866500,3.862500,-0.866500,3.862500,-0.866500,$1*%
G04 Aperture macros list end*
%ADD10RoundRect,0.250000X-0.980000X-1.150000X0.980000X-1.150000X0.980000X1.150000X-0.980000X1.150000X0*%
%ADD11O,2.460000X2.800000*%
%ADD12R,3.800000X3.800000*%
%ADD13C,3.800000*%
%ADD14RoundRect,0.250000X-0.350000X-0.575000X0.350000X-0.575000X0.350000X0.575000X-0.350000X0.575000X0*%
%ADD15O,1.200000X1.650000*%
%ADD16RoundRect,0.250000X0.575000X-0.350000X0.575000X0.350000X-0.575000X0.350000X-0.575000X-0.350000X0*%
%ADD17O,1.650000X1.200000*%
%ADD18R,1.700000X1.700000*%
%ADD19O,1.700000X1.700000*%
%ADD20C,5.000000*%
%ADD21RoundRect,0.500000X-0.500000X2.000000X-0.500000X-2.000000X0.500000X-2.000000X0.500000X2.000000X0*%
%ADD22R,2.000000X2.000000*%
%ADD23C,2.000000*%
%ADD24RoundRect,0.250000X0.980000X1.150000X-0.980000X1.150000X-0.980000X-1.150000X0.980000X-1.150000X0*%
%ADD25RoundRect,0.225000X-0.575000X0.225000X-0.575000X-0.225000X0.575000X-0.225000X0.575000X0.225000X0*%
%ADD26C,1.524000*%
%ADD27RoundRect,0.250000X-0.350000X-0.625000X0.350000X-0.625000X0.350000X0.625000X-0.350000X0.625000X0*%
%ADD28O,1.200000X1.750000*%
%ADD29RoundRect,0.218750X-0.256250X0.218750X-0.256250X-0.218750X0.256250X-0.218750X0.256250X0.218750X0*%
%ADD30RoundRect,0.200000X0.275000X-0.200000X0.275000X0.200000X-0.275000X0.200000X-0.275000X-0.200000X0*%
%ADD31RoundRect,0.250000X-0.650000X0.325000X-0.650000X-0.325000X0.650000X-0.325000X0.650000X0.325000X0*%
%ADD32RoundRect,0.250000X0.325000X0.650000X-0.325000X0.650000X-0.325000X-0.650000X0.325000X-0.650000X0*%
%ADD33FreePoly0,0.000000*%
%ADD34R,1.000000X1.500000*%
%ADD35FreePoly1,0.000000*%
%ADD36RoundRect,0.200000X-0.275000X0.200000X-0.275000X-0.200000X0.275000X-0.200000X0.275000X0.200000X0*%
%ADD37RoundRect,0.225000X0.250000X-0.225000X0.250000X0.225000X-0.250000X0.225000X-0.250000X-0.225000X0*%
%ADD38RoundRect,0.250000X-0.325000X-0.650000X0.325000X-0.650000X0.325000X0.650000X-0.325000X0.650000X0*%
%ADD39RoundRect,0.237500X0.237500X-0.250000X0.237500X0.250000X-0.237500X0.250000X-0.237500X-0.250000X0*%
%ADD40RoundRect,0.150000X0.150000X-0.512500X0.150000X0.512500X-0.150000X0.512500X-0.150000X-0.512500X0*%
%ADD41RoundRect,0.250000X-0.662913X-0.220971X-0.220971X-0.662913X0.662913X0.220971X0.220971X0.662913X0*%
%ADD42RoundRect,0.200000X0.200000X0.275000X-0.200000X0.275000X-0.200000X-0.275000X0.200000X-0.275000X0*%
%ADD43RoundRect,0.225000X-0.250000X0.225000X-0.250000X-0.225000X0.250000X-0.225000X0.250000X0.225000X0*%
%ADD44RoundRect,0.218750X0.256250X-0.218750X0.256250X0.218750X-0.256250X0.218750X-0.256250X-0.218750X0*%
%ADD45R,5.800000X6.400000*%
%ADD46R,1.200000X2.200000*%
%ADD47RoundRect,0.225000X0.225000X0.250000X-0.225000X0.250000X-0.225000X-0.250000X0.225000X-0.250000X0*%
%ADD48RoundRect,0.237500X0.250000X0.237500X-0.250000X0.237500X-0.250000X-0.237500X0.250000X-0.237500X0*%
%ADD49RoundRect,0.200000X-0.200000X-0.275000X0.200000X-0.275000X0.200000X0.275000X-0.200000X0.275000X0*%
%ADD50RoundRect,0.225000X-0.225000X-0.250000X0.225000X-0.250000X0.225000X0.250000X-0.225000X0.250000X0*%
%ADD51RoundRect,0.075000X-0.415425X-0.521491X0.521491X0.415425X0.415425X0.521491X-0.521491X-0.415425X0*%
%ADD52RoundRect,0.075000X0.415425X-0.521491X0.521491X-0.415425X-0.415425X0.521491X-0.521491X0.415425X0*%
%ADD53RotRect,0.400000X1.900000X315.000000*%
%ADD54RoundRect,0.218750X-0.218750X-0.256250X0.218750X-0.256250X0.218750X0.256250X-0.218750X0.256250X0*%
%ADD55R,0.800000X1.200000*%
%ADD56RoundRect,0.250000X-0.375000X-1.075000X0.375000X-1.075000X0.375000X1.075000X-0.375000X1.075000X0*%
%ADD57RoundRect,0.237500X0.287500X0.237500X-0.287500X0.237500X-0.287500X-0.237500X0.287500X-0.237500X0*%
%ADD58RoundRect,0.250000X0.375000X1.075000X-0.375000X1.075000X-0.375000X-1.075000X0.375000X-1.075000X0*%
%ADD59R,1.905000X2.000000*%
%ADD60O,1.905000X2.000000*%
%ADD61RoundRect,0.150000X-0.150000X0.587500X-0.150000X-0.587500X0.150000X-0.587500X0.150000X0.587500X0*%
%ADD62RoundRect,0.150000X-0.150000X0.512500X-0.150000X-0.512500X0.150000X-0.512500X0.150000X0.512500X0*%
%ADD63RoundRect,0.237500X-0.237500X0.250000X-0.237500X-0.250000X0.237500X-0.250000X0.237500X0.250000X0*%
%ADD64R,1.000000X0.900000*%
%ADD65C,2.200000*%
%ADD66R,3.150000X12.500000*%
%ADD67R,2.200000X1.200000*%
%ADD68R,6.400000X5.800000*%
%ADD69RoundRect,0.250000X2.350000X-0.325000X2.350000X0.325000X-2.350000X0.325000X-2.350000X-0.325000X0*%
%ADD70R,1.300000X0.900000*%
%ADD71FreePoly2,180.000000*%
%ADD72RoundRect,0.237500X-0.250000X-0.237500X0.250000X-0.237500X0.250000X0.237500X-0.250000X0.237500X0*%
%ADD73FreePoly0,180.000000*%
%ADD74FreePoly1,180.000000*%
%ADD75RoundRect,0.150000X-0.150000X0.825000X-0.150000X-0.825000X0.150000X-0.825000X0.150000X0.825000X0*%
%ADD76R,1.300000X1.700000*%
G04 APERTURE END LIST*
D10*
X158520000Y-74950000D03*
D11*
X162480000Y-74950000D03*
D12*
X88000000Y-88000000D03*
D13*
X93000000Y-88000000D03*
D14*
X106500000Y-124000000D03*
D15*
X106500000Y-126000000D03*
X108500000Y-124000000D03*
X108500000Y-126000000D03*
X110500000Y-124000000D03*
X110500000Y-126000000D03*
X112500000Y-124000000D03*
X112500000Y-126000000D03*
D16*
X142000000Y-154000000D03*
D17*
X144000000Y-154000000D03*
X142000000Y-152000000D03*
X144000000Y-152000000D03*
X142000000Y-150000000D03*
X144000000Y-150000000D03*
X142000000Y-148000000D03*
X144000000Y-148000000D03*
D18*
X137500000Y-157500000D03*
D19*
X137500000Y-154960000D03*
X137500000Y-152420000D03*
X137500000Y-149880000D03*
X137500000Y-147340000D03*
X137500000Y-144800000D03*
X137500000Y-142260000D03*
X137500000Y-139720000D03*
X137500000Y-137180000D03*
X137500000Y-134640000D03*
D20*
X142500000Y-142500000D03*
D12*
X162000000Y-92500000D03*
D13*
X157000000Y-92500000D03*
D21*
X142500000Y-129250000D03*
X142500000Y-136750000D03*
D20*
X118000000Y-125000000D03*
D22*
X157132323Y-84500000D03*
D23*
X162132323Y-84500000D03*
D24*
X91480000Y-75050000D03*
D11*
X87520000Y-75050000D03*
D22*
X93000000Y-96000000D03*
D23*
X88000000Y-96000000D03*
D25*
X155500000Y-97000000D03*
X155500000Y-98500000D03*
X155500000Y-100000000D03*
X155500000Y-101500000D03*
X155500000Y-103000000D03*
X155500000Y-104500000D03*
D26*
X113460000Y-135000000D03*
X116000000Y-135000000D03*
X118540000Y-135000000D03*
D27*
X106500000Y-130000000D03*
D28*
X108500000Y-130000000D03*
D29*
X114000000Y-86212500D03*
X114000000Y-87787500D03*
D30*
X116500000Y-111325000D03*
X116500000Y-109675000D03*
D31*
X133000000Y-73525000D03*
X133000000Y-76475000D03*
D32*
X118475000Y-86500000D03*
X115525000Y-86500000D03*
D24*
X91480000Y-68950000D03*
D11*
X87520000Y-68950000D03*
D31*
X135500000Y-73525000D03*
X135500000Y-76475000D03*
D33*
X106200000Y-119000000D03*
D34*
X107500000Y-119000000D03*
D35*
X108800000Y-119000000D03*
D36*
X131000000Y-105350000D03*
X131000000Y-107000000D03*
D37*
X137000000Y-110775000D03*
X137000000Y-109225000D03*
D38*
X104025000Y-103500000D03*
X106975000Y-103500000D03*
D30*
X130500000Y-86325000D03*
X130500000Y-84675000D03*
D39*
X120000000Y-93412500D03*
X120000000Y-91587500D03*
D40*
X111475000Y-102637500D03*
X110525000Y-102637500D03*
X109575000Y-102637500D03*
X109575000Y-100362500D03*
X111475000Y-100362500D03*
D41*
X103465856Y-57465856D03*
X105534144Y-59534144D03*
D36*
X129500000Y-105350000D03*
X129500000Y-107000000D03*
D42*
X109300000Y-92710000D03*
X107650000Y-92710000D03*
D31*
X117000000Y-129525000D03*
X117000000Y-132475000D03*
D43*
X138500000Y-91225000D03*
X138500000Y-92775000D03*
D36*
X148000000Y-73675000D03*
X148000000Y-75325000D03*
D31*
X122000000Y-129525000D03*
X122000000Y-132475000D03*
D44*
X113525000Y-97287500D03*
X113525000Y-95712500D03*
D30*
X106500000Y-90325000D03*
X106500000Y-88675000D03*
D45*
X152500000Y-62900000D03*
D46*
X150220000Y-69200000D03*
X154780000Y-69200000D03*
D43*
X129000000Y-84725000D03*
X129000000Y-86275000D03*
D30*
X118500000Y-107825000D03*
X118500000Y-106175000D03*
D47*
X132275000Y-82500000D03*
X130725000Y-82500000D03*
D48*
X134412500Y-130000000D03*
X132587500Y-130000000D03*
D42*
X122325000Y-105000000D03*
X120675000Y-105000000D03*
D36*
X128000000Y-105350000D03*
X128000000Y-107000000D03*
D49*
X121675000Y-111500000D03*
X123325000Y-111500000D03*
X125175000Y-111500000D03*
X126825000Y-111500000D03*
D42*
X105800000Y-94200000D03*
X104150000Y-94200000D03*
D43*
X116500000Y-106225000D03*
X116500000Y-107775000D03*
D50*
X121725000Y-88500000D03*
X123275000Y-88500000D03*
D51*
X131176212Y-97887876D03*
X130822658Y-97534322D03*
X130469105Y-97180769D03*
X130115551Y-96827215D03*
X129761998Y-96473662D03*
X129408445Y-96120109D03*
X129054891Y-95766555D03*
X128701338Y-95413002D03*
X128347785Y-95059449D03*
X127994231Y-94705895D03*
X127640678Y-94352342D03*
X127287124Y-93998788D03*
D52*
X127287124Y-92001212D03*
X127640678Y-91647658D03*
X127994231Y-91294105D03*
X128347785Y-90940551D03*
X128701338Y-90586998D03*
X129054891Y-90233445D03*
X129408445Y-89879891D03*
X129761998Y-89526338D03*
X130115551Y-89172785D03*
X130469105Y-88819231D03*
X130822658Y-88465678D03*
X131176212Y-88112124D03*
D51*
X133173788Y-88112124D03*
X133527342Y-88465678D03*
X133880895Y-88819231D03*
X134234449Y-89172785D03*
X134588002Y-89526338D03*
X134941555Y-89879891D03*
X135295109Y-90233445D03*
X135648662Y-90586998D03*
X136002215Y-90940551D03*
X136355769Y-91294105D03*
X136709322Y-91647658D03*
X137062876Y-92001212D03*
D52*
X137062876Y-93998788D03*
X136709322Y-94352342D03*
X136355769Y-94705895D03*
X136002215Y-95059449D03*
X135648662Y-95413002D03*
X135295109Y-95766555D03*
X134941555Y-96120109D03*
X134588002Y-96473662D03*
X134234449Y-96827215D03*
X133880895Y-97180769D03*
X133527342Y-97534322D03*
X133173788Y-97887876D03*
D47*
X132275000Y-99500000D03*
X130725000Y-99500000D03*
D53*
X125326472Y-99151472D03*
X126175000Y-100000000D03*
X127023528Y-100848528D03*
D54*
X148212500Y-98000000D03*
X149787500Y-98000000D03*
D38*
X142525000Y-64500000D03*
X145475000Y-64500000D03*
D55*
X104770000Y-91150000D03*
X102230000Y-91150000D03*
X102230000Y-84850000D03*
X103500000Y-84850000D03*
X104770000Y-84850000D03*
D42*
X105800000Y-92700000D03*
X104150000Y-92700000D03*
D56*
X132100000Y-132500000D03*
X134900000Y-132500000D03*
D37*
X108500000Y-90275000D03*
X108500000Y-88725000D03*
D31*
X138000000Y-73525000D03*
X138000000Y-76475000D03*
D30*
X102000000Y-73325000D03*
X102000000Y-71675000D03*
D57*
X126875000Y-109500000D03*
X125125000Y-109500000D03*
D58*
X137400000Y-125500000D03*
X134600000Y-125500000D03*
D43*
X132000000Y-84725000D03*
X132000000Y-86275000D03*
D59*
X114000000Y-65217500D03*
D60*
X116540000Y-61407500D03*
X119080000Y-65217500D03*
D61*
X120550000Y-107062500D03*
X122450000Y-107062500D03*
X121500000Y-108937500D03*
D30*
X127500000Y-86325000D03*
X127500000Y-84675000D03*
D49*
X121175000Y-99500000D03*
X122825000Y-99500000D03*
D62*
X133550000Y-108862500D03*
X134500000Y-108862500D03*
X135450000Y-108862500D03*
X135450000Y-111137500D03*
X134500000Y-111137500D03*
X133550000Y-111137500D03*
D47*
X135275000Y-99500000D03*
X133725000Y-99500000D03*
D42*
X109290000Y-94180000D03*
X107640000Y-94180000D03*
D63*
X114000000Y-89587500D03*
X114000000Y-91412500D03*
D38*
X109050000Y-96500000D03*
X112000000Y-96500000D03*
D37*
X145500000Y-83275000D03*
X145500000Y-81725000D03*
D43*
X126000000Y-84725000D03*
X126000000Y-86275000D03*
D63*
X141175000Y-101087500D03*
X141175000Y-102912500D03*
D55*
X148270000Y-91150000D03*
X145730000Y-91150000D03*
X145730000Y-84850000D03*
X147000000Y-84850000D03*
X148270000Y-84850000D03*
D64*
X134800000Y-102450000D03*
X134800000Y-106550000D03*
X133200000Y-102450000D03*
X133200000Y-106550000D03*
D31*
X124500000Y-129525000D03*
X124500000Y-132475000D03*
D29*
X128000000Y-102387500D03*
X128000000Y-103962500D03*
D30*
X116500000Y-68325000D03*
X116500000Y-66675000D03*
D29*
X131000000Y-102387500D03*
X131000000Y-103962500D03*
D31*
X128000000Y-73525000D03*
X128000000Y-76475000D03*
D65*
X111500000Y-66500000D03*
X111500000Y-51500000D03*
D24*
X162480000Y-68950000D03*
D11*
X158520000Y-68950000D03*
D36*
X110500000Y-88675000D03*
X110500000Y-90325000D03*
D66*
X140675000Y-64000000D03*
X125325000Y-64000000D03*
D37*
X123000000Y-97775000D03*
X123000000Y-96225000D03*
D29*
X129500000Y-102387500D03*
X129500000Y-103962500D03*
D67*
X138200000Y-118220000D03*
D68*
X131900000Y-120500000D03*
D67*
X138200000Y-122780000D03*
D54*
X109737500Y-98500000D03*
X111312500Y-98500000D03*
D37*
X113525000Y-101275000D03*
X113525000Y-99725000D03*
D45*
X97500000Y-61900000D03*
D46*
X95220000Y-68200000D03*
X99780000Y-68200000D03*
D45*
X119000000Y-53900000D03*
D46*
X121280000Y-60200000D03*
X116720000Y-60200000D03*
D42*
X112800000Y-92700000D03*
X111150000Y-92700000D03*
D69*
X142500000Y-125625000D03*
X142500000Y-123375000D03*
D43*
X105000000Y-81725000D03*
X105000000Y-83275000D03*
D38*
X142525000Y-62000000D03*
X145475000Y-62000000D03*
D70*
X105150000Y-98500000D03*
D71*
X105062500Y-100000000D03*
D70*
X105150000Y-101500000D03*
D55*
X118270000Y-94650000D03*
X115730000Y-94650000D03*
X115730000Y-88350000D03*
X117000000Y-88350000D03*
X118270000Y-88350000D03*
D38*
X104050000Y-96500000D03*
X107000000Y-96500000D03*
D29*
X118500000Y-109712500D03*
X118500000Y-111287500D03*
D72*
X129087500Y-129000000D03*
X130912500Y-129000000D03*
D50*
X120225000Y-86500000D03*
X121775000Y-86500000D03*
D38*
X142525000Y-69500000D03*
X145475000Y-69500000D03*
D31*
X119500000Y-129525000D03*
X119500000Y-132475000D03*
D30*
X103000000Y-83325000D03*
X103000000Y-81675000D03*
D73*
X113300000Y-119000000D03*
D34*
X112000000Y-119000000D03*
D74*
X110700000Y-119000000D03*
D38*
X142525000Y-67000000D03*
X145475000Y-67000000D03*
D64*
X138300000Y-102450000D03*
X138300000Y-106550000D03*
X136700000Y-106550000D03*
X136700000Y-102450000D03*
D42*
X131825000Y-109000000D03*
X130175000Y-109000000D03*
D67*
X103700000Y-70220000D03*
D68*
X97400000Y-72500000D03*
D67*
X103700000Y-74780000D03*
D49*
X120675000Y-103000000D03*
X122325000Y-103000000D03*
D75*
X142770000Y-99525000D03*
X144040000Y-99525000D03*
X145310000Y-99525000D03*
X146580000Y-99525000D03*
X146580000Y-104475000D03*
X145310000Y-104475000D03*
X144040000Y-104475000D03*
X142770000Y-104475000D03*
D76*
X126750000Y-132500000D03*
X130250000Y-132500000D03*
D30*
X148000000Y-83325000D03*
X148000000Y-81675000D03*
X144000000Y-89825000D03*
X144000000Y-88175000D03*
D42*
X145500000Y-106500000D03*
X143850000Y-106500000D03*
D30*
X124287142Y-86325000D03*
X124287142Y-84675000D03*
D67*
X146300000Y-76780000D03*
D68*
X152600000Y-74500000D03*
D67*
X146300000Y-72220000D03*
D31*
X130500000Y-73525000D03*
X130500000Y-76475000D03*
G36*
X143506163Y-134000607D02*
G01*
X143682737Y-134017998D01*
X143706963Y-134022816D01*
X143870809Y-134072518D01*
X143893629Y-134081971D01*
X144044628Y-134162681D01*
X144065166Y-134176404D01*
X144197515Y-134285020D01*
X144214980Y-134302485D01*
X144323596Y-134434834D01*
X144337319Y-134455372D01*
X144418029Y-134606371D01*
X144427482Y-134629191D01*
X144477184Y-134793037D01*
X144482002Y-134817263D01*
X144499393Y-134993837D01*
X144500000Y-135006187D01*
X144500000Y-140493813D01*
X144499393Y-140506163D01*
X144482002Y-140682737D01*
X144477184Y-140706963D01*
X144427482Y-140870809D01*
X144418029Y-140893629D01*
X144337319Y-141044628D01*
X144323596Y-141065166D01*
X144214980Y-141197515D01*
X144197515Y-141214980D01*
X144065166Y-141323596D01*
X144044628Y-141337319D01*
X143893629Y-141418029D01*
X143870809Y-141427482D01*
X143706963Y-141477184D01*
X143682737Y-141482002D01*
X143506163Y-141499393D01*
X143493813Y-141500000D01*
X142006187Y-141500000D01*
X141993837Y-141499393D01*
X141817263Y-141482002D01*
X141793037Y-141477184D01*
X141629191Y-141427482D01*
X141606371Y-141418029D01*
X141455372Y-141337319D01*
X141434834Y-141323596D01*
X141302485Y-141214980D01*
X141285020Y-141197515D01*
X141176404Y-141065166D01*
X141162681Y-141044628D01*
X141081971Y-140893629D01*
X141072518Y-140870809D01*
X141022816Y-140706963D01*
X141017998Y-140682737D01*
X141000607Y-140506163D01*
X141000000Y-140493813D01*
X141000000Y-135006187D01*
X141000607Y-134993837D01*
X141017998Y-134817263D01*
X141022816Y-134793037D01*
X141072518Y-134629191D01*
X141081971Y-134606371D01*
X141162681Y-134455372D01*
X141176404Y-134434834D01*
X141285020Y-134302485D01*
X141302485Y-134285020D01*
X141434834Y-134176404D01*
X141455372Y-134162681D01*
X141606371Y-134081971D01*
X141629191Y-134072518D01*
X141793037Y-134022816D01*
X141817263Y-134017998D01*
X141993837Y-134000607D01*
X142006187Y-134000000D01*
X143493813Y-134000000D01*
X143506163Y-134000607D01*
G37*
G36*
X108942121Y-79020002D02*
G01*
X108988614Y-79073658D01*
X109000000Y-79126000D01*
X109000000Y-80374000D01*
X108979998Y-80442121D01*
X108926342Y-80488614D01*
X108874000Y-80500000D01*
X101518115Y-80500000D01*
X101492470Y-80507530D01*
X97512812Y-84487188D01*
X97500000Y-84510650D01*
X97500000Y-108481885D01*
X97507530Y-108507530D01*
X102487188Y-113487188D01*
X102510650Y-113500000D01*
X147481885Y-113500000D01*
X147507530Y-113492470D01*
X152487188Y-108512812D01*
X152500000Y-108489350D01*
X152500000Y-82518115D01*
X152492470Y-82492470D01*
X150512812Y-80512812D01*
X150489350Y-80500000D01*
X124126000Y-80500000D01*
X124057879Y-80479998D01*
X124011386Y-80426342D01*
X124000000Y-80374000D01*
X124000000Y-79126000D01*
X124020002Y-79057879D01*
X124073658Y-79011386D01*
X124126000Y-79000000D01*
X151447810Y-79000000D01*
X151515931Y-79020002D01*
X151536905Y-79036905D01*
X153963095Y-81463095D01*
X153997121Y-81525407D01*
X154000000Y-81552190D01*
X154000000Y-108947810D01*
X153979998Y-109015931D01*
X153963095Y-109036905D01*
X148036905Y-114963095D01*
X147974593Y-114997121D01*
X147947810Y-115000000D01*
X118518115Y-115000000D01*
X118502876Y-115004475D01*
X118501671Y-115005865D01*
X118500000Y-115013548D01*
X118500000Y-122874000D01*
X118479998Y-122942121D01*
X118426342Y-122988614D01*
X118374000Y-123000000D01*
X117126000Y-123000000D01*
X117057879Y-122979998D01*
X117011386Y-122926342D01*
X117000000Y-122874000D01*
X117000000Y-115018115D01*
X116995525Y-115002876D01*
X116994135Y-115001671D01*
X116986452Y-115000000D01*
X102052190Y-115000000D01*
X101984069Y-114979998D01*
X101963095Y-114963095D01*
X96036905Y-109036905D01*
X96002879Y-108974593D01*
X96000000Y-108947810D01*
X96000000Y-84052190D01*
X96020002Y-83984069D01*
X96036905Y-83963095D01*
X100963095Y-79036905D01*
X101025407Y-79002879D01*
X101052190Y-79000000D01*
X108874000Y-79000000D01*
X108942121Y-79020002D01*
G37*
G36*
X143506163Y-125500607D02*
G01*
X143682737Y-125517998D01*
X143706963Y-125522816D01*
X143870809Y-125572518D01*
X143893629Y-125581971D01*
X144044628Y-125662681D01*
X144065166Y-125676404D01*
X144197515Y-125785020D01*
X144214980Y-125802485D01*
X144323596Y-125934834D01*
X144337319Y-125955372D01*
X144418029Y-126106371D01*
X144427482Y-126129191D01*
X144477184Y-126293037D01*
X144482002Y-126317263D01*
X144499393Y-126493837D01*
X144500000Y-126506187D01*
X144500000Y-130993813D01*
X144499393Y-131006163D01*
X144482002Y-131182737D01*
X144477184Y-131206963D01*
X144427482Y-131370809D01*
X144418029Y-131393629D01*
X144337319Y-131544628D01*
X144323596Y-131565166D01*
X144214980Y-131697515D01*
X144197515Y-131714980D01*
X144065166Y-131823596D01*
X144044628Y-131837319D01*
X143893629Y-131918029D01*
X143870809Y-131927482D01*
X143706963Y-131977184D01*
X143682737Y-131982002D01*
X143506163Y-131999393D01*
X143493813Y-132000000D01*
X142006187Y-132000000D01*
X141993837Y-131999393D01*
X141817263Y-131982002D01*
X141793037Y-131977184D01*
X141629191Y-131927482D01*
X141606371Y-131918029D01*
X141455372Y-131837319D01*
X141434834Y-131823596D01*
X141302485Y-131714980D01*
X141285020Y-131697515D01*
X141176404Y-131565166D01*
X141162681Y-131544628D01*
X141081971Y-131393629D01*
X141072518Y-131370809D01*
X141022816Y-131206963D01*
X141017998Y-131182737D01*
X141000607Y-131006163D01*
X141000000Y-130993813D01*
X141000000Y-126506187D01*
X141000607Y-126493837D01*
X141017998Y-126317263D01*
X141022816Y-126293037D01*
X141072518Y-126129191D01*
X141081971Y-126106371D01*
X141162681Y-125955372D01*
X141176404Y-125934834D01*
X141285020Y-125802485D01*
X141302485Y-125785020D01*
X141434834Y-125676404D01*
X141455372Y-125662681D01*
X141606371Y-125581971D01*
X141629191Y-125572518D01*
X141793037Y-125522816D01*
X141817263Y-125517998D01*
X141993837Y-125500607D01*
X142006187Y-125500000D01*
X143493813Y-125500000D01*
X143506163Y-125500607D01*
G37*
G36*
X141015931Y-51020002D02*
G01*
X141036905Y-51036905D01*
X147487188Y-57487188D01*
X147510650Y-57500000D01*
X158933982Y-57500000D01*
X159002103Y-57520002D01*
X159037578Y-57554280D01*
X163477596Y-63967639D01*
X163500000Y-64039359D01*
X163500000Y-65874000D01*
X163479998Y-65942121D01*
X163426342Y-65988614D01*
X163374000Y-66000000D01*
X162126000Y-66000000D01*
X162057879Y-65979998D01*
X162011386Y-65926342D01*
X162000000Y-65874000D01*
X162000000Y-64019390D01*
X161988881Y-63984115D01*
X158510389Y-59014842D01*
X158493171Y-59001075D01*
X158487712Y-59000000D01*
X147552190Y-59000000D01*
X147484069Y-58979998D01*
X147463095Y-58963095D01*
X141012812Y-52512812D01*
X140989350Y-52500000D01*
X108018115Y-52500000D01*
X107992470Y-52507530D01*
X102536905Y-57963095D01*
X102474593Y-57997121D01*
X102447810Y-58000000D01*
X92518115Y-58000000D01*
X92495917Y-58006518D01*
X92493253Y-58008996D01*
X88010870Y-63985507D01*
X88000000Y-64014570D01*
X88000000Y-65874000D01*
X87979998Y-65942121D01*
X87926342Y-65988614D01*
X87874000Y-66000000D01*
X86626000Y-66000000D01*
X86557879Y-65979998D01*
X86511386Y-65926342D01*
X86500000Y-65874000D01*
X86500000Y-63540378D01*
X86523470Y-63467142D01*
X91462311Y-56552764D01*
X91518181Y-56508958D01*
X91564841Y-56500000D01*
X102481885Y-56500000D01*
X102507530Y-56492470D01*
X107963095Y-51036905D01*
X108025407Y-51002879D01*
X108052190Y-51000000D01*
X140947810Y-51000000D01*
X141015931Y-51020002D01*
G37*
G36*
X145442121Y-122020002D02*
G01*
X145488614Y-122073658D01*
X145500000Y-122126000D01*
X145500000Y-123374000D01*
X145479998Y-123442121D01*
X145426342Y-123488614D01*
X145374000Y-123500000D01*
X137126000Y-123500000D01*
X137057879Y-123479998D01*
X137011386Y-123426342D01*
X137000000Y-123374000D01*
X137000000Y-122126000D01*
X137020002Y-122057879D01*
X137073658Y-122011386D01*
X137126000Y-122000000D01*
X145374000Y-122000000D01*
X145442121Y-122020002D01*
G37*
M02*
