M48
;DRILL file {KiCad 4.0.7} date 09/30/17 11:32:36
;FORMAT={-:-/ absolute / metric / decimal}
FMAT,2
METRIC,TZ
T1C0.400
T2C0.700
T3C0.800
T4C2.000
%
G90
G05
M71
T1
X11.5Y-11.5
X11.6Y-33.5
X13.Y-13.
X13.Y-35.
X14.Y-13.5
X14.Y-35.5
X31.5Y-6.5
X32.Y-28.5
X32.5Y-7.
X33.Y-29.
X34.4Y-30.5
X34.5Y-8.5
X39.5Y-6.5
T2
X4.5Y-7.
X4.5Y-8.5
X4.5Y-10.
X4.5Y-11.5
X4.5Y-13.
X4.5Y-14.5
X4.5Y-29.
X4.5Y-30.5
X4.5Y-32.
X4.5Y-33.5
X4.5Y-35.
X4.5Y-36.5
X16.Y-7.
X16.Y-8.5
X16.Y-10.
X16.Y-11.5
X16.Y-13.
X16.Y-14.5
X16.Y-29.
X16.Y-30.5
X16.Y-32.
X16.Y-33.5
X16.Y-35.
X16.Y-36.5
X20.Y-7.
X20.Y-8.5
X20.Y-10.
X20.Y-11.5
X20.Y-13.
X20.Y-14.5
X20.Y-29.
X20.Y-30.5
X20.Y-32.
X20.Y-33.5
X20.Y-35.
X20.Y-36.5
X26.Y-5.5
X26.Y-7.
X26.Y-8.5
X26.Y-10.
X26.Y-11.5
X26.Y-13.
X26.Y-27.5
X26.Y-29.
X26.Y-30.5
X26.Y-32.
X26.Y-33.5
X26.Y-35.
X30.Y-5.5
X30.Y-7.
X30.Y-8.5
X30.Y-10.
X30.Y-11.5
X30.Y-13.
X30.Y-27.5
X30.Y-29.
X30.Y-30.5
X30.Y-32.
X30.Y-33.5
X30.Y-35.
X41.5Y-5.5
X41.5Y-7.
X41.5Y-8.5
X41.5Y-10.
X41.5Y-11.5
X41.5Y-13.
X42.Y-27.5
X42.Y-29.
X42.Y-30.5
X42.Y-32.
X42.Y-33.5
X42.Y-35.
T3
X7.5Y-6.5
X7.5Y-28.5
X10.Y-9.
X10.Y-31.
X13.Y-6.5
X13.Y-28.5
X33.Y-13.5
X33.Y-35.5
X36.Y-11.
X36.Y-33.
X38.5Y-13.5
X38.5Y-35.5
T4
X10.Y-2.
X10.Y-18.
X10.Y-24.
X10.Y-40.
X15.Y-2.
X15.Y-18.
X15.Y-24.
X15.Y-40.
X20.Y-2.
X20.Y-18.
X20.Y-24.
X20.Y-40.
X26.Y-2.
X26.Y-18.
X26.Y-24.
X26.Y-40.
X31.Y-2.
X31.Y-18.
X31.Y-24.
X31.Y-40.
X36.Y-2.
X36.Y-18.
X36.Y-24.
X36.Y-40.
T0
M30
