G04 #@! TF.FileFunction,Copper,L2,Bot,Signal*
%FSLAX46Y46*%
G04 Gerber Fmt 4.6, Leading zero omitted, Abs format (unit mm)*
G04 Created by KiCad (PCBNEW 4.0.5) date 02/07/17 18:44:56*
%MOMM*%
%LPD*%
G01*
G04 APERTURE LIST*
%ADD10C,0.100000*%
%ADD11R,0.800000X1.000000*%
%ADD12R,1.000000X0.800000*%
%ADD13O,2.500000X1.500000*%
%ADD14C,3.000000*%
%ADD15R,1.550000X0.600000*%
%ADD16R,1.800860X0.800100*%
%ADD17C,1.000000*%
%ADD18C,0.500000*%
%ADD19C,0.026000*%
G04 APERTURE END LIST*
D10*
D11*
X12400000Y-6500000D03*
X10600000Y-6500000D03*
D12*
X23000000Y-4900000D03*
X23000000Y-3100000D03*
D13*
X21000000Y-7500000D03*
X21000000Y-5000000D03*
X21000000Y-2500000D03*
D14*
X27500000Y-5000000D03*
D15*
X12300000Y-3805000D03*
X12300000Y-1265000D03*
X17700000Y-1265000D03*
X17700000Y-2535000D03*
X17700000Y-3805000D03*
D12*
X9000000Y-9900000D03*
X9000000Y-8100000D03*
D11*
X10400000Y-13500000D03*
X8600000Y-13500000D03*
X18400000Y-13500000D03*
X16600000Y-13500000D03*
D12*
X14500000Y-5600000D03*
X14500000Y-7400000D03*
D16*
X11498860Y-9950000D03*
X11498860Y-8050000D03*
X14501140Y-9000000D03*
D11*
X13900000Y-13500000D03*
X12100000Y-13500000D03*
X21900000Y-13500000D03*
X20100000Y-13500000D03*
D17*
X9000000Y-11500000D03*
X8000000Y-4000000D03*
X8000000Y-6500000D03*
D18*
X13900000Y-13500000D02*
X13900000Y-11400000D01*
X13000000Y-7100000D02*
X12400000Y-6500000D01*
X13000000Y-10500000D02*
X13000000Y-7100000D01*
X13900000Y-11400000D02*
X13000000Y-10500000D01*
X12300000Y-3805000D02*
X8195000Y-3805000D01*
X8195000Y-3805000D02*
X8000000Y-4000000D01*
X12400000Y-6500000D02*
X12400000Y-3905000D01*
X12400000Y-3905000D02*
X12300000Y-3805000D01*
X9000000Y-8100000D02*
X7500000Y-9600000D01*
X7500000Y-12400000D02*
X8600000Y-13500000D01*
X7500000Y-9600000D02*
X7500000Y-12400000D01*
X10600000Y-6500000D02*
X10600000Y-7151140D01*
X10600000Y-7151140D02*
X11498860Y-8050000D01*
X9000000Y-8100000D02*
X11448860Y-8100000D01*
X11448860Y-8100000D02*
X11498860Y-8050000D01*
X8000000Y-6500000D02*
X8000000Y-7100000D01*
X8000000Y-7100000D02*
X9000000Y-8100000D01*
X17700000Y-3805000D02*
X17700000Y-7700000D01*
X19000000Y-9000000D02*
X20500000Y-9000000D01*
X17700000Y-7700000D02*
X19000000Y-9000000D01*
X21900000Y-13500000D02*
X21900000Y-10400000D01*
X21900000Y-10400000D02*
X20500000Y-9000000D01*
X23000000Y-8000000D02*
X23000000Y-4900000D01*
X22000000Y-9000000D02*
X23000000Y-8000000D01*
X20500000Y-9000000D02*
X22000000Y-9000000D01*
X21000000Y-5000000D02*
X21100000Y-4900000D01*
X21100000Y-4900000D02*
X23000000Y-4900000D01*
X16600000Y-13500000D02*
X16600000Y-5100000D01*
X16735000Y-1265000D02*
X17700000Y-1265000D01*
X16000000Y-2000000D02*
X16735000Y-1265000D01*
X16000000Y-4500000D02*
X16000000Y-2000000D01*
X16600000Y-5100000D02*
X16000000Y-4500000D01*
X17700000Y-1265000D02*
X19765000Y-1265000D01*
X19765000Y-1265000D02*
X21000000Y-2500000D01*
X20765000Y-2265000D02*
X21000000Y-2500000D01*
X23000000Y-3100000D02*
X21600000Y-3100000D01*
X21600000Y-3100000D02*
X21000000Y-2500000D01*
X20735000Y-2765000D02*
X21000000Y-2500000D01*
X10400000Y-13500000D02*
X12100000Y-13500000D01*
X18400000Y-13500000D02*
X20100000Y-13500000D01*
X9000000Y-9900000D02*
X9000000Y-11500000D01*
X9000000Y-9900000D02*
X11448860Y-9900000D01*
X11448860Y-9900000D02*
X11498860Y-9950000D01*
X17700000Y-2535000D02*
X18535000Y-2535000D01*
X19000000Y-5500000D02*
X21000000Y-7500000D01*
X19000000Y-3000000D02*
X19000000Y-5500000D01*
X18535000Y-2535000D02*
X19000000Y-3000000D01*
X14500000Y-5600000D02*
X14500000Y-2500000D01*
X13265000Y-1265000D02*
X12300000Y-1265000D01*
X14500000Y-2500000D02*
X13265000Y-1265000D01*
X14501140Y-9000000D02*
X14501140Y-7401140D01*
X14501140Y-7401140D02*
X14500000Y-7400000D01*
D19*
G36*
X29562000Y-14562000D02*
X438000Y-14562000D01*
X438000Y-2750000D01*
X6737000Y-2750000D01*
X6737000Y-7750000D01*
X6738024Y-7755058D01*
X6740935Y-7759319D01*
X6745275Y-7762111D01*
X6750000Y-7763000D01*
X7796088Y-7763000D01*
X8129889Y-8096802D01*
X8129889Y-8103198D01*
X7066544Y-9166544D01*
X6933662Y-9365415D01*
X6887000Y-9600000D01*
X6887000Y-12400000D01*
X6932728Y-12629889D01*
X6933662Y-12634585D01*
X7066544Y-12833456D01*
X7829889Y-13596802D01*
X7829889Y-14000000D01*
X7855201Y-14134520D01*
X7934702Y-14258068D01*
X8056006Y-14340951D01*
X8200000Y-14370111D01*
X9000000Y-14370111D01*
X9134520Y-14344799D01*
X9258068Y-14265298D01*
X9340951Y-14143994D01*
X9370111Y-14000000D01*
X9370111Y-13000000D01*
X9344799Y-12865480D01*
X9278855Y-12763000D01*
X9722597Y-12763000D01*
X9659049Y-12856006D01*
X9629889Y-13000000D01*
X9629889Y-14000000D01*
X9655201Y-14134520D01*
X9734702Y-14258068D01*
X9856006Y-14340951D01*
X10000000Y-14370111D01*
X10800000Y-14370111D01*
X10934520Y-14344799D01*
X11058068Y-14265298D01*
X11140951Y-14143994D01*
X11147228Y-14113000D01*
X11351152Y-14113000D01*
X11355201Y-14134520D01*
X11434702Y-14258068D01*
X11556006Y-14340951D01*
X11700000Y-14370111D01*
X12500000Y-14370111D01*
X12634520Y-14344799D01*
X12758068Y-14265298D01*
X12840951Y-14143994D01*
X12870111Y-14000000D01*
X12870111Y-13000000D01*
X12844799Y-12865480D01*
X12765298Y-12741932D01*
X12763000Y-12740362D01*
X12763000Y-11129912D01*
X13287000Y-11653913D01*
X13287000Y-12705702D01*
X13241932Y-12734702D01*
X13159049Y-12856006D01*
X13129889Y-13000000D01*
X13129889Y-14000000D01*
X13155201Y-14134520D01*
X13234702Y-14258068D01*
X13356006Y-14340951D01*
X13500000Y-14370111D01*
X14300000Y-14370111D01*
X14434520Y-14344799D01*
X14558068Y-14265298D01*
X14640951Y-14143994D01*
X14670111Y-14000000D01*
X14670111Y-13000000D01*
X14644799Y-12865480D01*
X14565298Y-12741932D01*
X14513000Y-12706199D01*
X14513000Y-11400000D01*
X14466338Y-11165415D01*
X14400137Y-11066338D01*
X14333456Y-10966543D01*
X13613000Y-10246088D01*
X13613000Y-9770161D01*
X15401570Y-9770161D01*
X15536090Y-9744849D01*
X15659638Y-9665348D01*
X15742521Y-9544044D01*
X15771681Y-9400050D01*
X15771681Y-8599950D01*
X15746369Y-8465430D01*
X15666868Y-8341882D01*
X15545564Y-8258999D01*
X15401570Y-8229839D01*
X15114140Y-8229839D01*
X15114140Y-8148634D01*
X15134520Y-8144799D01*
X15258068Y-8065298D01*
X15340951Y-7943994D01*
X15370111Y-7800000D01*
X15370111Y-7000000D01*
X15344799Y-6865480D01*
X15265298Y-6741932D01*
X15143994Y-6659049D01*
X15000000Y-6629889D01*
X14000000Y-6629889D01*
X13865480Y-6655201D01*
X13741932Y-6734702D01*
X13659049Y-6856006D01*
X13629889Y-7000000D01*
X13629889Y-7800000D01*
X13655201Y-7934520D01*
X13734702Y-8058068D01*
X13856006Y-8140951D01*
X13888140Y-8147458D01*
X13888140Y-8229839D01*
X13613000Y-8229839D01*
X13613000Y-7100000D01*
X13566338Y-6865415D01*
X13433456Y-6666543D01*
X13170111Y-6403198D01*
X13170111Y-6000000D01*
X13144799Y-5865480D01*
X13065298Y-5741932D01*
X13013000Y-5706199D01*
X13013000Y-4475111D01*
X13075000Y-4475111D01*
X13209520Y-4449799D01*
X13333068Y-4370298D01*
X13415951Y-4248994D01*
X13445111Y-4105000D01*
X13445111Y-3505000D01*
X13419799Y-3370480D01*
X13340298Y-3246932D01*
X13218994Y-3164049D01*
X13075000Y-3134889D01*
X11525000Y-3134889D01*
X11390480Y-3160201D01*
X11341063Y-3192000D01*
X11013000Y-3192000D01*
X11013000Y-2750000D01*
X11011976Y-2744942D01*
X11009065Y-2740681D01*
X11004725Y-2737889D01*
X11000000Y-2737000D01*
X6750000Y-2737000D01*
X6744942Y-2738024D01*
X6740681Y-2740935D01*
X6737889Y-2745275D01*
X6737000Y-2750000D01*
X438000Y-2750000D01*
X438000Y-965000D01*
X11154889Y-965000D01*
X11154889Y-1565000D01*
X11180201Y-1699520D01*
X11259702Y-1823068D01*
X11381006Y-1905951D01*
X11525000Y-1935111D01*
X13068199Y-1935111D01*
X13887000Y-2753913D01*
X13887000Y-4851152D01*
X13865480Y-4855201D01*
X13741932Y-4934702D01*
X13659049Y-5056006D01*
X13629889Y-5200000D01*
X13629889Y-6000000D01*
X13655201Y-6134520D01*
X13734702Y-6258068D01*
X13856006Y-6340951D01*
X14000000Y-6370111D01*
X15000000Y-6370111D01*
X15134520Y-6344799D01*
X15258068Y-6265298D01*
X15340951Y-6143994D01*
X15370111Y-6000000D01*
X15370111Y-5200000D01*
X15344799Y-5065480D01*
X15265298Y-4941932D01*
X15143994Y-4859049D01*
X15113000Y-4852772D01*
X15113000Y-2500000D01*
X15066338Y-2265415D01*
X15045738Y-2234585D01*
X14933457Y-2066544D01*
X14866913Y-2000000D01*
X15387000Y-2000000D01*
X15387000Y-4500000D01*
X15433156Y-4732042D01*
X15433662Y-4734585D01*
X15566544Y-4933456D01*
X15987000Y-5353913D01*
X15987000Y-12705702D01*
X15941932Y-12734702D01*
X15859049Y-12856006D01*
X15829889Y-13000000D01*
X15829889Y-14000000D01*
X15855201Y-14134520D01*
X15934702Y-14258068D01*
X16056006Y-14340951D01*
X16200000Y-14370111D01*
X17000000Y-14370111D01*
X17134520Y-14344799D01*
X17258068Y-14265298D01*
X17340951Y-14143994D01*
X17370111Y-14000000D01*
X17370111Y-13000000D01*
X17629889Y-13000000D01*
X17629889Y-14000000D01*
X17655201Y-14134520D01*
X17734702Y-14258068D01*
X17856006Y-14340951D01*
X18000000Y-14370111D01*
X18800000Y-14370111D01*
X18934520Y-14344799D01*
X19058068Y-14265298D01*
X19140951Y-14143994D01*
X19147228Y-14113000D01*
X19351152Y-14113000D01*
X19355201Y-14134520D01*
X19434702Y-14258068D01*
X19556006Y-14340951D01*
X19700000Y-14370111D01*
X20500000Y-14370111D01*
X20634520Y-14344799D01*
X20758068Y-14265298D01*
X20840951Y-14143994D01*
X20870111Y-14000000D01*
X20870111Y-13000000D01*
X20844799Y-12865480D01*
X20765298Y-12741932D01*
X20643994Y-12659049D01*
X20500000Y-12629889D01*
X19700000Y-12629889D01*
X19565480Y-12655201D01*
X19441932Y-12734702D01*
X19359049Y-12856006D01*
X19352772Y-12887000D01*
X19148848Y-12887000D01*
X19144799Y-12865480D01*
X19065298Y-12741932D01*
X18943994Y-12659049D01*
X18800000Y-12629889D01*
X18000000Y-12629889D01*
X17865480Y-12655201D01*
X17741932Y-12734702D01*
X17659049Y-12856006D01*
X17629889Y-13000000D01*
X17370111Y-13000000D01*
X17344799Y-12865480D01*
X17265298Y-12741932D01*
X17213000Y-12706199D01*
X17213000Y-8053322D01*
X17266544Y-8133456D01*
X18566544Y-9433457D01*
X18765415Y-9566338D01*
X19000000Y-9613000D01*
X20246088Y-9613000D01*
X21287000Y-10653912D01*
X21287000Y-12705702D01*
X21241932Y-12734702D01*
X21159049Y-12856006D01*
X21129889Y-13000000D01*
X21129889Y-14000000D01*
X21155201Y-14134520D01*
X21234702Y-14258068D01*
X21356006Y-14340951D01*
X21500000Y-14370111D01*
X22300000Y-14370111D01*
X22434520Y-14344799D01*
X22558068Y-14265298D01*
X22640951Y-14143994D01*
X22670111Y-14000000D01*
X22670111Y-13000000D01*
X22644799Y-12865480D01*
X22565298Y-12741932D01*
X22513000Y-12706199D01*
X22513000Y-10400000D01*
X22466338Y-10165415D01*
X22333456Y-9966544D01*
X21979912Y-9613000D01*
X22000000Y-9613000D01*
X22234585Y-9566338D01*
X22433456Y-9433456D01*
X23433457Y-8433456D01*
X23513943Y-8313000D01*
X23566338Y-8234585D01*
X23613000Y-8000000D01*
X23613000Y-5648848D01*
X23634520Y-5644799D01*
X23758068Y-5565298D01*
X23840951Y-5443994D01*
X23856148Y-5368948D01*
X25636678Y-5368948D01*
X25919705Y-6053926D01*
X26443318Y-6578453D01*
X27127801Y-6862676D01*
X27868948Y-6863322D01*
X28553926Y-6580295D01*
X29078453Y-6056682D01*
X29362676Y-5372199D01*
X29363322Y-4631052D01*
X29080295Y-3946074D01*
X28556682Y-3421547D01*
X27872199Y-3137324D01*
X27131052Y-3136678D01*
X26446074Y-3419705D01*
X25921547Y-3943318D01*
X25637324Y-4627801D01*
X25636678Y-5368948D01*
X23856148Y-5368948D01*
X23870111Y-5300000D01*
X23870111Y-4500000D01*
X23844799Y-4365480D01*
X23765298Y-4241932D01*
X23643994Y-4159049D01*
X23500000Y-4129889D01*
X22500000Y-4129889D01*
X22365480Y-4155201D01*
X22297546Y-4198915D01*
X21957528Y-3971722D01*
X21531601Y-3887000D01*
X20468399Y-3887000D01*
X20042472Y-3971722D01*
X19681389Y-4212990D01*
X19613000Y-4315341D01*
X19613000Y-3184659D01*
X19681389Y-3287010D01*
X20042472Y-3528278D01*
X20468399Y-3613000D01*
X21285589Y-3613000D01*
X21365415Y-3666338D01*
X21600000Y-3713000D01*
X22205702Y-3713000D01*
X22234702Y-3758068D01*
X22356006Y-3840951D01*
X22500000Y-3870111D01*
X23500000Y-3870111D01*
X23634520Y-3844799D01*
X23758068Y-3765298D01*
X23840951Y-3643994D01*
X23870111Y-3500000D01*
X23870111Y-2700000D01*
X23844799Y-2565480D01*
X23765298Y-2441932D01*
X23643994Y-2359049D01*
X23500000Y-2329889D01*
X22610764Y-2329889D01*
X22559879Y-2074073D01*
X22318611Y-1712990D01*
X21957528Y-1471722D01*
X21531601Y-1387000D01*
X20753912Y-1387000D01*
X20198456Y-831544D01*
X19999585Y-698662D01*
X19765000Y-652000D01*
X18659902Y-652000D01*
X18618994Y-624049D01*
X18475000Y-594889D01*
X16925000Y-594889D01*
X16790480Y-620201D01*
X16741063Y-652000D01*
X16735000Y-652000D01*
X16500415Y-698662D01*
X16301544Y-831544D01*
X15566544Y-1566544D01*
X15433662Y-1765415D01*
X15387000Y-2000000D01*
X14866913Y-2000000D01*
X13698456Y-831544D01*
X13499585Y-698662D01*
X13265000Y-652000D01*
X13259902Y-652000D01*
X13218994Y-624049D01*
X13075000Y-594889D01*
X11525000Y-594889D01*
X11390480Y-620201D01*
X11266932Y-699702D01*
X11184049Y-821006D01*
X11154889Y-965000D01*
X438000Y-965000D01*
X438000Y-438000D01*
X29562000Y-438000D01*
X29562000Y-14562000D01*
X29562000Y-14562000D01*
G37*
X29562000Y-14562000D02*
X438000Y-14562000D01*
X438000Y-2750000D01*
X6737000Y-2750000D01*
X6737000Y-7750000D01*
X6738024Y-7755058D01*
X6740935Y-7759319D01*
X6745275Y-7762111D01*
X6750000Y-7763000D01*
X7796088Y-7763000D01*
X8129889Y-8096802D01*
X8129889Y-8103198D01*
X7066544Y-9166544D01*
X6933662Y-9365415D01*
X6887000Y-9600000D01*
X6887000Y-12400000D01*
X6932728Y-12629889D01*
X6933662Y-12634585D01*
X7066544Y-12833456D01*
X7829889Y-13596802D01*
X7829889Y-14000000D01*
X7855201Y-14134520D01*
X7934702Y-14258068D01*
X8056006Y-14340951D01*
X8200000Y-14370111D01*
X9000000Y-14370111D01*
X9134520Y-14344799D01*
X9258068Y-14265298D01*
X9340951Y-14143994D01*
X9370111Y-14000000D01*
X9370111Y-13000000D01*
X9344799Y-12865480D01*
X9278855Y-12763000D01*
X9722597Y-12763000D01*
X9659049Y-12856006D01*
X9629889Y-13000000D01*
X9629889Y-14000000D01*
X9655201Y-14134520D01*
X9734702Y-14258068D01*
X9856006Y-14340951D01*
X10000000Y-14370111D01*
X10800000Y-14370111D01*
X10934520Y-14344799D01*
X11058068Y-14265298D01*
X11140951Y-14143994D01*
X11147228Y-14113000D01*
X11351152Y-14113000D01*
X11355201Y-14134520D01*
X11434702Y-14258068D01*
X11556006Y-14340951D01*
X11700000Y-14370111D01*
X12500000Y-14370111D01*
X12634520Y-14344799D01*
X12758068Y-14265298D01*
X12840951Y-14143994D01*
X12870111Y-14000000D01*
X12870111Y-13000000D01*
X12844799Y-12865480D01*
X12765298Y-12741932D01*
X12763000Y-12740362D01*
X12763000Y-11129912D01*
X13287000Y-11653913D01*
X13287000Y-12705702D01*
X13241932Y-12734702D01*
X13159049Y-12856006D01*
X13129889Y-13000000D01*
X13129889Y-14000000D01*
X13155201Y-14134520D01*
X13234702Y-14258068D01*
X13356006Y-14340951D01*
X13500000Y-14370111D01*
X14300000Y-14370111D01*
X14434520Y-14344799D01*
X14558068Y-14265298D01*
X14640951Y-14143994D01*
X14670111Y-14000000D01*
X14670111Y-13000000D01*
X14644799Y-12865480D01*
X14565298Y-12741932D01*
X14513000Y-12706199D01*
X14513000Y-11400000D01*
X14466338Y-11165415D01*
X14400137Y-11066338D01*
X14333456Y-10966543D01*
X13613000Y-10246088D01*
X13613000Y-9770161D01*
X15401570Y-9770161D01*
X15536090Y-9744849D01*
X15659638Y-9665348D01*
X15742521Y-9544044D01*
X15771681Y-9400050D01*
X15771681Y-8599950D01*
X15746369Y-8465430D01*
X15666868Y-8341882D01*
X15545564Y-8258999D01*
X15401570Y-8229839D01*
X15114140Y-8229839D01*
X15114140Y-8148634D01*
X15134520Y-8144799D01*
X15258068Y-8065298D01*
X15340951Y-7943994D01*
X15370111Y-7800000D01*
X15370111Y-7000000D01*
X15344799Y-6865480D01*
X15265298Y-6741932D01*
X15143994Y-6659049D01*
X15000000Y-6629889D01*
X14000000Y-6629889D01*
X13865480Y-6655201D01*
X13741932Y-6734702D01*
X13659049Y-6856006D01*
X13629889Y-7000000D01*
X13629889Y-7800000D01*
X13655201Y-7934520D01*
X13734702Y-8058068D01*
X13856006Y-8140951D01*
X13888140Y-8147458D01*
X13888140Y-8229839D01*
X13613000Y-8229839D01*
X13613000Y-7100000D01*
X13566338Y-6865415D01*
X13433456Y-6666543D01*
X13170111Y-6403198D01*
X13170111Y-6000000D01*
X13144799Y-5865480D01*
X13065298Y-5741932D01*
X13013000Y-5706199D01*
X13013000Y-4475111D01*
X13075000Y-4475111D01*
X13209520Y-4449799D01*
X13333068Y-4370298D01*
X13415951Y-4248994D01*
X13445111Y-4105000D01*
X13445111Y-3505000D01*
X13419799Y-3370480D01*
X13340298Y-3246932D01*
X13218994Y-3164049D01*
X13075000Y-3134889D01*
X11525000Y-3134889D01*
X11390480Y-3160201D01*
X11341063Y-3192000D01*
X11013000Y-3192000D01*
X11013000Y-2750000D01*
X11011976Y-2744942D01*
X11009065Y-2740681D01*
X11004725Y-2737889D01*
X11000000Y-2737000D01*
X6750000Y-2737000D01*
X6744942Y-2738024D01*
X6740681Y-2740935D01*
X6737889Y-2745275D01*
X6737000Y-2750000D01*
X438000Y-2750000D01*
X438000Y-965000D01*
X11154889Y-965000D01*
X11154889Y-1565000D01*
X11180201Y-1699520D01*
X11259702Y-1823068D01*
X11381006Y-1905951D01*
X11525000Y-1935111D01*
X13068199Y-1935111D01*
X13887000Y-2753913D01*
X13887000Y-4851152D01*
X13865480Y-4855201D01*
X13741932Y-4934702D01*
X13659049Y-5056006D01*
X13629889Y-5200000D01*
X13629889Y-6000000D01*
X13655201Y-6134520D01*
X13734702Y-6258068D01*
X13856006Y-6340951D01*
X14000000Y-6370111D01*
X15000000Y-6370111D01*
X15134520Y-6344799D01*
X15258068Y-6265298D01*
X15340951Y-6143994D01*
X15370111Y-6000000D01*
X15370111Y-5200000D01*
X15344799Y-5065480D01*
X15265298Y-4941932D01*
X15143994Y-4859049D01*
X15113000Y-4852772D01*
X15113000Y-2500000D01*
X15066338Y-2265415D01*
X15045738Y-2234585D01*
X14933457Y-2066544D01*
X14866913Y-2000000D01*
X15387000Y-2000000D01*
X15387000Y-4500000D01*
X15433156Y-4732042D01*
X15433662Y-4734585D01*
X15566544Y-4933456D01*
X15987000Y-5353913D01*
X15987000Y-12705702D01*
X15941932Y-12734702D01*
X15859049Y-12856006D01*
X15829889Y-13000000D01*
X15829889Y-14000000D01*
X15855201Y-14134520D01*
X15934702Y-14258068D01*
X16056006Y-14340951D01*
X16200000Y-14370111D01*
X17000000Y-14370111D01*
X17134520Y-14344799D01*
X17258068Y-14265298D01*
X17340951Y-14143994D01*
X17370111Y-14000000D01*
X17370111Y-13000000D01*
X17629889Y-13000000D01*
X17629889Y-14000000D01*
X17655201Y-14134520D01*
X17734702Y-14258068D01*
X17856006Y-14340951D01*
X18000000Y-14370111D01*
X18800000Y-14370111D01*
X18934520Y-14344799D01*
X19058068Y-14265298D01*
X19140951Y-14143994D01*
X19147228Y-14113000D01*
X19351152Y-14113000D01*
X19355201Y-14134520D01*
X19434702Y-14258068D01*
X19556006Y-14340951D01*
X19700000Y-14370111D01*
X20500000Y-14370111D01*
X20634520Y-14344799D01*
X20758068Y-14265298D01*
X20840951Y-14143994D01*
X20870111Y-14000000D01*
X20870111Y-13000000D01*
X20844799Y-12865480D01*
X20765298Y-12741932D01*
X20643994Y-12659049D01*
X20500000Y-12629889D01*
X19700000Y-12629889D01*
X19565480Y-12655201D01*
X19441932Y-12734702D01*
X19359049Y-12856006D01*
X19352772Y-12887000D01*
X19148848Y-12887000D01*
X19144799Y-12865480D01*
X19065298Y-12741932D01*
X18943994Y-12659049D01*
X18800000Y-12629889D01*
X18000000Y-12629889D01*
X17865480Y-12655201D01*
X17741932Y-12734702D01*
X17659049Y-12856006D01*
X17629889Y-13000000D01*
X17370111Y-13000000D01*
X17344799Y-12865480D01*
X17265298Y-12741932D01*
X17213000Y-12706199D01*
X17213000Y-8053322D01*
X17266544Y-8133456D01*
X18566544Y-9433457D01*
X18765415Y-9566338D01*
X19000000Y-9613000D01*
X20246088Y-9613000D01*
X21287000Y-10653912D01*
X21287000Y-12705702D01*
X21241932Y-12734702D01*
X21159049Y-12856006D01*
X21129889Y-13000000D01*
X21129889Y-14000000D01*
X21155201Y-14134520D01*
X21234702Y-14258068D01*
X21356006Y-14340951D01*
X21500000Y-14370111D01*
X22300000Y-14370111D01*
X22434520Y-14344799D01*
X22558068Y-14265298D01*
X22640951Y-14143994D01*
X22670111Y-14000000D01*
X22670111Y-13000000D01*
X22644799Y-12865480D01*
X22565298Y-12741932D01*
X22513000Y-12706199D01*
X22513000Y-10400000D01*
X22466338Y-10165415D01*
X22333456Y-9966544D01*
X21979912Y-9613000D01*
X22000000Y-9613000D01*
X22234585Y-9566338D01*
X22433456Y-9433456D01*
X23433457Y-8433456D01*
X23513943Y-8313000D01*
X23566338Y-8234585D01*
X23613000Y-8000000D01*
X23613000Y-5648848D01*
X23634520Y-5644799D01*
X23758068Y-5565298D01*
X23840951Y-5443994D01*
X23856148Y-5368948D01*
X25636678Y-5368948D01*
X25919705Y-6053926D01*
X26443318Y-6578453D01*
X27127801Y-6862676D01*
X27868948Y-6863322D01*
X28553926Y-6580295D01*
X29078453Y-6056682D01*
X29362676Y-5372199D01*
X29363322Y-4631052D01*
X29080295Y-3946074D01*
X28556682Y-3421547D01*
X27872199Y-3137324D01*
X27131052Y-3136678D01*
X26446074Y-3419705D01*
X25921547Y-3943318D01*
X25637324Y-4627801D01*
X25636678Y-5368948D01*
X23856148Y-5368948D01*
X23870111Y-5300000D01*
X23870111Y-4500000D01*
X23844799Y-4365480D01*
X23765298Y-4241932D01*
X23643994Y-4159049D01*
X23500000Y-4129889D01*
X22500000Y-4129889D01*
X22365480Y-4155201D01*
X22297546Y-4198915D01*
X21957528Y-3971722D01*
X21531601Y-3887000D01*
X20468399Y-3887000D01*
X20042472Y-3971722D01*
X19681389Y-4212990D01*
X19613000Y-4315341D01*
X19613000Y-3184659D01*
X19681389Y-3287010D01*
X20042472Y-3528278D01*
X20468399Y-3613000D01*
X21285589Y-3613000D01*
X21365415Y-3666338D01*
X21600000Y-3713000D01*
X22205702Y-3713000D01*
X22234702Y-3758068D01*
X22356006Y-3840951D01*
X22500000Y-3870111D01*
X23500000Y-3870111D01*
X23634520Y-3844799D01*
X23758068Y-3765298D01*
X23840951Y-3643994D01*
X23870111Y-3500000D01*
X23870111Y-2700000D01*
X23844799Y-2565480D01*
X23765298Y-2441932D01*
X23643994Y-2359049D01*
X23500000Y-2329889D01*
X22610764Y-2329889D01*
X22559879Y-2074073D01*
X22318611Y-1712990D01*
X21957528Y-1471722D01*
X21531601Y-1387000D01*
X20753912Y-1387000D01*
X20198456Y-831544D01*
X19999585Y-698662D01*
X19765000Y-652000D01*
X18659902Y-652000D01*
X18618994Y-624049D01*
X18475000Y-594889D01*
X16925000Y-594889D01*
X16790480Y-620201D01*
X16741063Y-652000D01*
X16735000Y-652000D01*
X16500415Y-698662D01*
X16301544Y-831544D01*
X15566544Y-1566544D01*
X15433662Y-1765415D01*
X15387000Y-2000000D01*
X14866913Y-2000000D01*
X13698456Y-831544D01*
X13499585Y-698662D01*
X13265000Y-652000D01*
X13259902Y-652000D01*
X13218994Y-624049D01*
X13075000Y-594889D01*
X11525000Y-594889D01*
X11390480Y-620201D01*
X11266932Y-699702D01*
X11184049Y-821006D01*
X11154889Y-965000D01*
X438000Y-965000D01*
X438000Y-438000D01*
X29562000Y-438000D01*
X29562000Y-14562000D01*
G36*
X11359049Y-12856006D02*
X11352772Y-12887000D01*
X11148848Y-12887000D01*
X11144799Y-12865480D01*
X11078855Y-12763000D01*
X11422597Y-12763000D01*
X11359049Y-12856006D01*
X11359049Y-12856006D01*
G37*
X11359049Y-12856006D02*
X11352772Y-12887000D01*
X11148848Y-12887000D01*
X11144799Y-12865480D01*
X11078855Y-12763000D01*
X11422597Y-12763000D01*
X11359049Y-12856006D01*
G36*
X8129889Y-10237000D02*
X8113000Y-10237000D01*
X8113000Y-9853912D01*
X8129889Y-9837023D01*
X8129889Y-10237000D01*
X8129889Y-10237000D01*
G37*
X8129889Y-10237000D02*
X8113000Y-10237000D01*
X8113000Y-9853912D01*
X8129889Y-9837023D01*
X8129889Y-10237000D01*
G36*
X10454436Y-8791001D02*
X10598430Y-8820161D01*
X12387000Y-8820161D01*
X12387000Y-9179839D01*
X10598430Y-9179839D01*
X10463910Y-9205151D01*
X10340362Y-9284652D01*
X10338758Y-9287000D01*
X9794298Y-9287000D01*
X9765298Y-9241932D01*
X9643994Y-9159049D01*
X9500000Y-9129889D01*
X8837024Y-9129889D01*
X9096802Y-8870111D01*
X9500000Y-8870111D01*
X9634520Y-8844799D01*
X9758068Y-8765298D01*
X9793801Y-8713000D01*
X10340277Y-8713000D01*
X10454436Y-8791001D01*
X10454436Y-8791001D01*
G37*
X10454436Y-8791001D02*
X10598430Y-8820161D01*
X12387000Y-8820161D01*
X12387000Y-9179839D01*
X10598430Y-9179839D01*
X10463910Y-9205151D01*
X10340362Y-9284652D01*
X10338758Y-9287000D01*
X9794298Y-9287000D01*
X9765298Y-9241932D01*
X9643994Y-9159049D01*
X9500000Y-9129889D01*
X8837024Y-9129889D01*
X9096802Y-8870111D01*
X9500000Y-8870111D01*
X9634520Y-8844799D01*
X9758068Y-8765298D01*
X9793801Y-8713000D01*
X10340277Y-8713000D01*
X10454436Y-8791001D01*
G36*
X10019841Y-7316240D02*
X10028356Y-7359049D01*
X10033662Y-7385725D01*
X10101332Y-7487000D01*
X10013000Y-7487000D01*
X10013000Y-7311566D01*
X10019841Y-7316240D01*
X10019841Y-7316240D01*
G37*
X10019841Y-7316240D02*
X10028356Y-7359049D01*
X10033662Y-7385725D01*
X10101332Y-7487000D01*
X10013000Y-7487000D01*
X10013000Y-7311566D01*
X10019841Y-7316240D01*
G36*
X11381006Y-4445951D02*
X11525000Y-4475111D01*
X11787000Y-4475111D01*
X11787000Y-5705702D01*
X11741932Y-5734702D01*
X11659049Y-5856006D01*
X11629889Y-6000000D01*
X11629889Y-7000000D01*
X11655201Y-7134520D01*
X11734702Y-7258068D01*
X11766565Y-7279839D01*
X11595611Y-7279839D01*
X11360960Y-7045188D01*
X11370111Y-7000000D01*
X11370111Y-6000000D01*
X11344799Y-5865480D01*
X11265298Y-5741932D01*
X11143994Y-5659049D01*
X11000000Y-5629889D01*
X10200000Y-5629889D01*
X10065480Y-5655201D01*
X10013000Y-5688971D01*
X10013000Y-5263000D01*
X11000000Y-5263000D01*
X11005058Y-5261976D01*
X11009319Y-5259065D01*
X11012111Y-5254725D01*
X11013000Y-5250000D01*
X11013000Y-4418000D01*
X11340098Y-4418000D01*
X11381006Y-4445951D01*
X11381006Y-4445951D01*
G37*
X11381006Y-4445951D02*
X11525000Y-4475111D01*
X11787000Y-4475111D01*
X11787000Y-5705702D01*
X11741932Y-5734702D01*
X11659049Y-5856006D01*
X11629889Y-6000000D01*
X11629889Y-7000000D01*
X11655201Y-7134520D01*
X11734702Y-7258068D01*
X11766565Y-7279839D01*
X11595611Y-7279839D01*
X11360960Y-7045188D01*
X11370111Y-7000000D01*
X11370111Y-6000000D01*
X11344799Y-5865480D01*
X11265298Y-5741932D01*
X11143994Y-5659049D01*
X11000000Y-5629889D01*
X10200000Y-5629889D01*
X10065480Y-5655201D01*
X10013000Y-5688971D01*
X10013000Y-5263000D01*
X11000000Y-5263000D01*
X11005058Y-5261976D01*
X11009319Y-5259065D01*
X11012111Y-5254725D01*
X11013000Y-5250000D01*
X11013000Y-4418000D01*
X11340098Y-4418000D01*
X11381006Y-4445951D01*
G36*
X18387000Y-5500000D02*
X18429368Y-5712999D01*
X18433662Y-5734585D01*
X18566544Y-5933456D01*
X19547082Y-6913995D01*
X19440121Y-7074073D01*
X19355399Y-7500000D01*
X19440121Y-7925927D01*
X19681389Y-8287010D01*
X19831035Y-8387000D01*
X19253913Y-8387000D01*
X18313000Y-7446088D01*
X18313000Y-4475111D01*
X18387000Y-4475111D01*
X18387000Y-5500000D01*
X18387000Y-5500000D01*
G37*
X18387000Y-5500000D02*
X18429368Y-5712999D01*
X18433662Y-5734585D01*
X18566544Y-5933456D01*
X19547082Y-6913995D01*
X19440121Y-7074073D01*
X19355399Y-7500000D01*
X19440121Y-7925927D01*
X19681389Y-8287010D01*
X19831035Y-8387000D01*
X19253913Y-8387000D01*
X18313000Y-7446088D01*
X18313000Y-4475111D01*
X18387000Y-4475111D01*
X18387000Y-5500000D01*
G36*
X22387000Y-6815341D02*
X22318611Y-6712990D01*
X21957528Y-6471722D01*
X21531601Y-6387000D01*
X20753913Y-6387000D01*
X20479913Y-6113000D01*
X21531601Y-6113000D01*
X21957528Y-6028278D01*
X22318611Y-5787010D01*
X22387000Y-5684659D01*
X22387000Y-6815341D01*
X22387000Y-6815341D01*
G37*
X22387000Y-6815341D02*
X22318611Y-6712990D01*
X21957528Y-6471722D01*
X21531601Y-6387000D01*
X20753913Y-6387000D01*
X20479913Y-6113000D01*
X21531601Y-6113000D01*
X21957528Y-6028278D01*
X22318611Y-5787010D01*
X22387000Y-5684659D01*
X22387000Y-6815341D01*
G36*
X16925000Y-4475111D02*
X17087000Y-4475111D01*
X17087000Y-4746678D01*
X17076651Y-4731189D01*
X17033456Y-4666543D01*
X16820953Y-4454041D01*
X16925000Y-4475111D01*
X16925000Y-4475111D01*
G37*
X16925000Y-4475111D02*
X17087000Y-4475111D01*
X17087000Y-4746678D01*
X17076651Y-4731189D01*
X17033456Y-4666543D01*
X16820953Y-4454041D01*
X16925000Y-4475111D01*
G36*
X16659702Y-3093068D02*
X16773730Y-3170979D01*
X16666932Y-3239702D01*
X16613000Y-3318635D01*
X16613000Y-3020491D01*
X16659702Y-3093068D01*
X16659702Y-3093068D01*
G37*
X16659702Y-3093068D02*
X16773730Y-3170979D01*
X16666932Y-3239702D01*
X16613000Y-3318635D01*
X16613000Y-3020491D01*
X16659702Y-3093068D01*
G36*
X19547082Y-1913994D02*
X19440121Y-2074073D01*
X19357309Y-2490396D01*
X18968456Y-2101544D01*
X18769585Y-1968662D01*
X18711196Y-1957048D01*
X18626270Y-1899021D01*
X18658937Y-1878000D01*
X19511088Y-1878000D01*
X19547082Y-1913994D01*
X19547082Y-1913994D01*
G37*
X19547082Y-1913994D02*
X19440121Y-2074073D01*
X19357309Y-2490396D01*
X18968456Y-2101544D01*
X18769585Y-1968662D01*
X18711196Y-1957048D01*
X18626270Y-1899021D01*
X18658937Y-1878000D01*
X19511088Y-1878000D01*
X19547082Y-1913994D01*
G36*
X10487000Y-4737000D02*
X7263000Y-4737000D01*
X7263000Y-3263000D01*
X10487000Y-3263000D01*
X10487000Y-4737000D01*
X10487000Y-4737000D01*
G37*
X10487000Y-4737000D02*
X7263000Y-4737000D01*
X7263000Y-3263000D01*
X10487000Y-3263000D01*
X10487000Y-4737000D01*
G36*
X9487000Y-7237000D02*
X7263000Y-7237000D01*
X7263000Y-5763000D01*
X9487000Y-5763000D01*
X9487000Y-7237000D01*
X9487000Y-7237000D01*
G37*
X9487000Y-7237000D02*
X7263000Y-7237000D01*
X7263000Y-5763000D01*
X9487000Y-5763000D01*
X9487000Y-7237000D01*
G36*
X12237000Y-12237000D02*
X8263000Y-12237000D01*
X8263000Y-10763000D01*
X12237000Y-10763000D01*
X12237000Y-12237000D01*
X12237000Y-12237000D01*
G37*
X12237000Y-12237000D02*
X8263000Y-12237000D01*
X8263000Y-10763000D01*
X12237000Y-10763000D01*
X12237000Y-12237000D01*
M02*
