G04 #@! TF.FileFunction,Copper,L1,Top,Signal*
%FSLAX46Y46*%
G04 Gerber Fmt 4.6, Leading zero omitted, Abs format (unit mm)*
G04 Created by KiCad (PCBNEW 4.0.4-stable) date 12/22/16 13:47:29*
%MOMM*%
%LPD*%
G01*
G04 APERTURE LIST*
%ADD10C,0.100000*%
%ADD11C,1.524000*%
%ADD12O,8.000000X3.500000*%
%ADD13R,0.797560X0.797560*%
%ADD14R,1.600000X2.000000*%
%ADD15O,1.600000X2.000000*%
%ADD16R,1.727200X2.032000*%
%ADD17O,1.727200X2.032000*%
%ADD18C,2.500000*%
%ADD19C,5.000000*%
%ADD20R,0.800000X1.000000*%
%ADD21R,1.727200X1.727200*%
%ADD22O,1.727200X1.727200*%
%ADD23R,2.032000X1.727200*%
%ADD24O,2.032000X1.727200*%
%ADD25O,1.524000X1.000000*%
%ADD26R,3.000000X6.500000*%
%ADD27R,6.451600X3.000000*%
%ADD28R,1.270000X0.965200*%
%ADD29R,1.500000X2.600000*%
%ADD30C,3.000000*%
%ADD31C,0.600000*%
%ADD32C,1.200000*%
%ADD33C,0.250000*%
%ADD34C,0.500000*%
%ADD35C,0.026000*%
G04 APERTURE END LIST*
D10*
D11*
X56410000Y-50000000D03*
X54500000Y-50000000D03*
X52590000Y-50000000D03*
D12*
X49500000Y-28600000D03*
X59500000Y-28600000D03*
D11*
X30410000Y-50000000D03*
X28500000Y-50000000D03*
X26590000Y-50000000D03*
D12*
X23500000Y-28600000D03*
X33500000Y-28600000D03*
D13*
X22110700Y-60960000D03*
X23609300Y-60960000D03*
X22110700Y-63500000D03*
X23609300Y-63500000D03*
X22110700Y-66040000D03*
X23609300Y-66040000D03*
X22110700Y-68580000D03*
X23609300Y-68580000D03*
D14*
X65500000Y-79500000D03*
D15*
X65500000Y-82040000D03*
X62960000Y-79500000D03*
X62960000Y-82040000D03*
X60420000Y-79500000D03*
X60420000Y-82040000D03*
X57880000Y-79500000D03*
X57880000Y-82040000D03*
X55340000Y-79500000D03*
X55340000Y-82040000D03*
D16*
X43500000Y-63000000D03*
D17*
X40960000Y-63000000D03*
X38420000Y-63000000D03*
X35880000Y-63000000D03*
D18*
X31500000Y-17000000D03*
X36580000Y-17000000D03*
D19*
X27690000Y-9380000D03*
X40390000Y-9380000D03*
D18*
X57500000Y-17000000D03*
X62580000Y-17000000D03*
D19*
X53690000Y-9380000D03*
X66390000Y-9380000D03*
D20*
X19950000Y-60960000D03*
X18150000Y-60960000D03*
X19950000Y-63500000D03*
X18150000Y-63500000D03*
X19950000Y-66040000D03*
X18150000Y-66040000D03*
X19950000Y-68580000D03*
X18150000Y-68580000D03*
D21*
X48500000Y-71500000D03*
D22*
X48500000Y-68960000D03*
X45960000Y-71500000D03*
X45960000Y-68960000D03*
X43420000Y-71500000D03*
X43420000Y-68960000D03*
X40880000Y-71500000D03*
X40880000Y-68960000D03*
X38340000Y-71500000D03*
X38340000Y-68960000D03*
X35800000Y-71500000D03*
X35800000Y-68960000D03*
D21*
X12700000Y-60960000D03*
D22*
X15240000Y-60960000D03*
X12700000Y-63500000D03*
X15240000Y-63500000D03*
X12700000Y-66040000D03*
X15240000Y-66040000D03*
X12700000Y-68580000D03*
X15240000Y-68580000D03*
D23*
X73000000Y-20000000D03*
D24*
X73000000Y-17460000D03*
X73000000Y-14920000D03*
D25*
X15500000Y-42500000D03*
X15500000Y-41000000D03*
X15500000Y-39500000D03*
X15500000Y-38000000D03*
X15500000Y-36500000D03*
X15500000Y-35000000D03*
D26*
X31200000Y-23000000D03*
D27*
X36900000Y-23400000D03*
D26*
X57200000Y-23000000D03*
D27*
X62900000Y-23400000D03*
D28*
X43000000Y-52635000D03*
X43000000Y-51365000D03*
X40000000Y-52635000D03*
X40000000Y-51365000D03*
D14*
X26500000Y-79500000D03*
D15*
X26500000Y-82040000D03*
X23960000Y-79500000D03*
X23960000Y-82040000D03*
X21420000Y-79500000D03*
X21420000Y-82040000D03*
X18880000Y-79500000D03*
X18880000Y-82040000D03*
X16340000Y-79500000D03*
X16340000Y-82040000D03*
D29*
X20000000Y-36700000D03*
X20000000Y-42300000D03*
D30*
X44000000Y-23000000D03*
X17000000Y-28000000D03*
X3000000Y-53000000D03*
X73000000Y-53000000D03*
X73000000Y-11000000D03*
D31*
X44500000Y-56500000D03*
D32*
X41500000Y-50000000D03*
D31*
X47000000Y-50000000D03*
X49000000Y-50000000D03*
X51000000Y-50000000D03*
X51000000Y-53000000D03*
X53000000Y-52000000D03*
X35000000Y-55000000D03*
X46000000Y-73000000D03*
D32*
X39500000Y-73000000D03*
D31*
X25000000Y-52000000D03*
X27000000Y-54000000D03*
X32000000Y-55000000D03*
X29000000Y-55000000D03*
X32000000Y-50000000D03*
X32000000Y-52000000D03*
D32*
X46500000Y-53905000D03*
D31*
X35000000Y-56500000D03*
X35000000Y-61500000D03*
X37500000Y-56500000D03*
X37000000Y-61500000D03*
X39500000Y-64500000D03*
X37000000Y-64500000D03*
X35000000Y-64500000D03*
X39500000Y-56000000D03*
X39500000Y-61500000D03*
D32*
X36500000Y-53000000D03*
X35000000Y-50000000D03*
D31*
X40000000Y-51365000D03*
X43000000Y-50500000D03*
X45500000Y-64000000D03*
X44300000Y-75800000D03*
X46300000Y-75000000D03*
X40300000Y-75000000D03*
X40400000Y-74100000D03*
X41300000Y-84000000D03*
X37700000Y-84000000D03*
X43700000Y-84000000D03*
X47300000Y-84000000D03*
X43000000Y-52635000D03*
X40000000Y-52635000D03*
X43600000Y-80700000D03*
X40900000Y-80700000D03*
D32*
X66500000Y-33000000D03*
X54500000Y-40500000D03*
D31*
X65700000Y-51000000D03*
X68000000Y-47500000D03*
X67500000Y-51500000D03*
X72500000Y-46000000D03*
X62500000Y-54500000D03*
X73000000Y-28500000D03*
D32*
X59000000Y-41000000D03*
X66000000Y-44000000D03*
X73000000Y-38000000D03*
D31*
X68000000Y-42000000D03*
X69000000Y-43000000D03*
X70000000Y-42000000D03*
X69000000Y-41000000D03*
D32*
X69700000Y-35000000D03*
D31*
X59000000Y-39100000D03*
X71900000Y-39200000D03*
X59500000Y-38400000D03*
X70100000Y-39600000D03*
X59000000Y-37700000D03*
X69400000Y-39100000D03*
X70100000Y-36400000D03*
X59500000Y-37000000D03*
X20000000Y-39000000D03*
X68500000Y-45000000D03*
X59500000Y-39800000D03*
X65000000Y-47500000D03*
X67500000Y-53500000D03*
D33*
X42460000Y-56500000D02*
X40960000Y-58000000D01*
X44500000Y-56500000D02*
X42460000Y-56500000D01*
D34*
X41500000Y-50000000D02*
X41500000Y-53500000D01*
X41500000Y-53500000D02*
X40960000Y-54040000D01*
X40960000Y-54040000D02*
X40960000Y-58000000D01*
X40960000Y-58000000D02*
X40960000Y-63000000D01*
X41500000Y-50000000D02*
X43000000Y-48500000D01*
X54910000Y-48500000D02*
X56410000Y-50000000D01*
X43000000Y-48500000D02*
X54910000Y-48500000D01*
X30410000Y-50000000D02*
X31910000Y-48500000D01*
X40000000Y-48500000D02*
X41500000Y-50000000D01*
X31910000Y-48500000D02*
X40000000Y-48500000D01*
D33*
X54500000Y-50000000D02*
X53000000Y-51500000D01*
X49000000Y-50000000D02*
X47000000Y-50000000D01*
X51000000Y-53000000D02*
X51000000Y-50000000D01*
X53000000Y-51500000D02*
X53000000Y-52000000D01*
X32000000Y-55000000D02*
X35000000Y-55000000D01*
D34*
X48500000Y-71500000D02*
X47000000Y-73000000D01*
X47000000Y-73000000D02*
X46000000Y-73000000D01*
X46000000Y-73000000D02*
X39500000Y-73000000D01*
D33*
X27000000Y-54000000D02*
X28000000Y-55000000D01*
X26500000Y-52000000D02*
X25000000Y-52000000D01*
X28500000Y-50000000D02*
X26500000Y-52000000D01*
X28000000Y-55000000D02*
X29000000Y-55000000D01*
X28500000Y-50000000D02*
X28500000Y-51500000D01*
X29000000Y-52000000D02*
X32000000Y-52000000D01*
X28500000Y-51500000D02*
X29000000Y-52000000D01*
X46500000Y-53905000D02*
X46500000Y-54000000D01*
X35000000Y-61500000D02*
X34500000Y-62000000D01*
X39500000Y-61500000D02*
X37000000Y-61500000D01*
X37500000Y-56500000D02*
X35000000Y-56500000D01*
X37000000Y-64500000D02*
X39500000Y-64500000D01*
X34500000Y-64000000D02*
X35000000Y-64500000D01*
X34500000Y-62000000D02*
X34500000Y-64000000D01*
X39500000Y-61500000D02*
X39500000Y-56000000D01*
D34*
X36500000Y-53000000D02*
X35000000Y-51500000D01*
X35000000Y-51500000D02*
X35000000Y-50000000D01*
D33*
X43000000Y-51365000D02*
X43000000Y-50500000D01*
X19950000Y-60960000D02*
X22110700Y-60960000D01*
X45500000Y-66040000D02*
X45580000Y-66040000D01*
X45500000Y-64000000D02*
X45500000Y-66040000D01*
D34*
X30960000Y-66040000D02*
X25880000Y-60960000D01*
X25880000Y-60960000D02*
X23609300Y-60960000D01*
X27000000Y-70000000D02*
X30960000Y-66040000D01*
X48500000Y-68960000D02*
X45580000Y-66040000D01*
X45580000Y-66040000D02*
X30960000Y-66040000D01*
X23609300Y-63500000D02*
X23609300Y-60960000D01*
X23609300Y-66040000D02*
X23609300Y-63500000D01*
X23609300Y-68580000D02*
X23609300Y-66040000D01*
X12700000Y-68580000D02*
X14120000Y-70000000D01*
X14120000Y-70000000D02*
X27000000Y-70000000D01*
D33*
X19950000Y-63500000D02*
X22110700Y-63500000D01*
X19950000Y-66040000D02*
X22110700Y-66040000D01*
X22110700Y-68580000D02*
X19950000Y-68580000D01*
X60420000Y-79500000D02*
X60420000Y-78220000D01*
X56720000Y-75800000D02*
X44300000Y-75800000D01*
X60420000Y-78220000D02*
X58000000Y-75800000D01*
X58000000Y-75800000D02*
X56720000Y-75800000D01*
X61700000Y-80760000D02*
X60420000Y-82040000D01*
X61700000Y-77800000D02*
X61700000Y-80760000D01*
X58900000Y-75000000D02*
X61700000Y-77800000D01*
X46300000Y-75000000D02*
X58900000Y-75000000D01*
X40300000Y-75000000D02*
X42500000Y-77200000D01*
X42500000Y-77200000D02*
X55580000Y-77200000D01*
X55580000Y-77200000D02*
X57880000Y-79500000D01*
X40400000Y-74100000D02*
X42800000Y-76500000D01*
X56700000Y-76500000D02*
X59100000Y-78900000D01*
X42800000Y-76500000D02*
X56700000Y-76500000D01*
X59100000Y-80820000D02*
X57880000Y-82040000D01*
X59100000Y-78900000D02*
X59100000Y-80820000D01*
X41300000Y-84000000D02*
X40400000Y-83100000D01*
X22700000Y-80780000D02*
X21420000Y-79500000D01*
X22700000Y-82600000D02*
X22700000Y-80780000D01*
X23600000Y-83500000D02*
X22700000Y-82600000D01*
X36700000Y-83500000D02*
X23600000Y-83500000D01*
X37100000Y-83100000D02*
X36700000Y-83500000D01*
X40400000Y-83100000D02*
X37100000Y-83100000D01*
X37700000Y-84000000D02*
X23380000Y-84000000D01*
X23380000Y-84000000D02*
X21420000Y-82040000D01*
X43700000Y-84000000D02*
X42300000Y-82600000D01*
X21380000Y-77000000D02*
X18880000Y-79500000D01*
X29200000Y-77000000D02*
X21380000Y-77000000D01*
X34800000Y-82600000D02*
X29200000Y-77000000D01*
X42300000Y-82600000D02*
X34800000Y-82600000D01*
X47300000Y-84000000D02*
X45400000Y-82100000D01*
X17600000Y-80760000D02*
X18880000Y-82040000D01*
X17600000Y-78700000D02*
X17600000Y-80760000D01*
X19800000Y-76500000D02*
X17600000Y-78700000D01*
X29400000Y-76500000D02*
X19800000Y-76500000D01*
X35000000Y-82100000D02*
X29400000Y-76500000D01*
X45400000Y-82100000D02*
X35000000Y-82100000D01*
X38340000Y-71500000D02*
X38340000Y-75440000D01*
X38340000Y-75440000D02*
X43600000Y-80700000D01*
X40900000Y-80700000D02*
X35800000Y-75600000D01*
X35800000Y-75600000D02*
X35800000Y-71500000D01*
X15240000Y-60960000D02*
X18150000Y-60960000D01*
X15240000Y-63500000D02*
X18150000Y-63500000D01*
X15240000Y-66040000D02*
X18150000Y-66040000D01*
X18150000Y-68580000D02*
X15240000Y-68580000D01*
D34*
X59000000Y-36000000D02*
X54500000Y-40500000D01*
X66500000Y-33000000D02*
X63500000Y-36000000D01*
X63500000Y-36000000D02*
X59000000Y-36000000D01*
D33*
X20000000Y-42300000D02*
X19800000Y-42500000D01*
X19800000Y-42500000D02*
X15500000Y-42500000D01*
X66200000Y-51500000D02*
X67500000Y-51500000D01*
X65700000Y-51000000D02*
X66200000Y-51500000D01*
X68000000Y-51000000D02*
X68000000Y-47500000D01*
X67500000Y-51500000D02*
X68000000Y-51000000D01*
X72500000Y-46000000D02*
X72500000Y-50500000D01*
X72500000Y-46000000D02*
X73000000Y-45500000D01*
X73000000Y-45500000D02*
X75000000Y-43500000D01*
X72500000Y-50500000D02*
X68500000Y-54500000D01*
X68500000Y-54500000D02*
X62500000Y-54500000D01*
X75000000Y-30500000D02*
X75000000Y-43500000D01*
X73000000Y-28500000D02*
X75000000Y-30500000D01*
D34*
X66000000Y-44000000D02*
X63000000Y-41000000D01*
X63000000Y-41000000D02*
X59000000Y-41000000D01*
X64500000Y-42500000D02*
X66000000Y-44000000D01*
X71500000Y-42000000D02*
X73000000Y-40500000D01*
X73000000Y-38000000D02*
X73000000Y-40500000D01*
X70000000Y-42000000D02*
X71500000Y-42000000D01*
X69000000Y-41000000D02*
X68000000Y-42000000D01*
X70000000Y-42000000D02*
X69000000Y-43000000D01*
X69000000Y-41000000D02*
X70000000Y-42000000D01*
X74900000Y-16820000D02*
X73000000Y-14920000D01*
X74900000Y-21800000D02*
X74900000Y-16820000D01*
X69700000Y-27000000D02*
X74900000Y-21800000D01*
X69700000Y-35000000D02*
X69700000Y-27000000D01*
D33*
X66600000Y-39100000D02*
X59000000Y-39100000D01*
X71900000Y-39200000D02*
X70800000Y-40300000D01*
X70800000Y-40300000D02*
X67800000Y-40300000D01*
X67800000Y-40300000D02*
X66600000Y-39100000D01*
X70100000Y-39600000D02*
X69900000Y-39800000D01*
X69900000Y-39800000D02*
X68300000Y-39800000D01*
X68300000Y-39800000D02*
X66900000Y-38400000D01*
X59500000Y-38400000D02*
X66900000Y-38400000D01*
X66900000Y-37700000D02*
X59000000Y-37700000D01*
X69400000Y-39100000D02*
X68300000Y-39100000D01*
X68300000Y-39100000D02*
X66900000Y-37700000D01*
X69500000Y-37000000D02*
X59500000Y-37000000D01*
X70100000Y-36400000D02*
X69500000Y-37000000D01*
X20000000Y-36700000D02*
X20000000Y-39000000D01*
X68500000Y-45000000D02*
X63300000Y-39800000D01*
X63300000Y-39800000D02*
X59500000Y-39800000D01*
X65000000Y-52500000D02*
X66000000Y-53500000D01*
X65000000Y-47500000D02*
X65000000Y-52500000D01*
X66000000Y-53500000D02*
X67500000Y-53500000D01*
D35*
G36*
X69487000Y-21994616D02*
X66494616Y-24987000D01*
X59513000Y-24987000D01*
X59513000Y-6513000D01*
X69487000Y-6513000D01*
X69487000Y-21994616D01*
X69487000Y-21994616D01*
G37*
X69487000Y-21994616D02*
X66494616Y-24987000D01*
X59513000Y-24987000D01*
X59513000Y-6513000D01*
X69487000Y-6513000D01*
X69487000Y-21994616D01*
G36*
X58987000Y-25500000D02*
X58988024Y-25505058D01*
X58990935Y-25509319D01*
X58995275Y-25512111D01*
X59000000Y-25513000D01*
X65968616Y-25513000D01*
X63490808Y-27990808D01*
X63487955Y-27995108D01*
X63487000Y-28000000D01*
X63487000Y-30487000D01*
X55513000Y-30487000D01*
X55513000Y-19513000D01*
X58987000Y-19513000D01*
X58987000Y-25500000D01*
X58987000Y-25500000D01*
G37*
X58987000Y-25500000D02*
X58988024Y-25505058D01*
X58990935Y-25509319D01*
X58995275Y-25512111D01*
X59000000Y-25513000D01*
X65968616Y-25513000D01*
X63490808Y-27990808D01*
X63487955Y-27995108D01*
X63487000Y-28000000D01*
X63487000Y-30487000D01*
X55513000Y-30487000D01*
X55513000Y-19513000D01*
X58987000Y-19513000D01*
X58987000Y-25500000D01*
G36*
X58987000Y-18987000D02*
X55000000Y-18987000D01*
X54994942Y-18988024D01*
X54990681Y-18990935D01*
X54987889Y-18995275D01*
X54987000Y-19000000D01*
X54987000Y-30487000D01*
X45513000Y-30487000D01*
X45513000Y-25505384D01*
X47009192Y-24009192D01*
X47012045Y-24004892D01*
X47013000Y-24000000D01*
X47013000Y-6513000D01*
X58987000Y-6513000D01*
X58987000Y-18987000D01*
X58987000Y-18987000D01*
G37*
X58987000Y-18987000D02*
X55000000Y-18987000D01*
X54994942Y-18988024D01*
X54990681Y-18990935D01*
X54987889Y-18995275D01*
X54987000Y-19000000D01*
X54987000Y-30487000D01*
X45513000Y-30487000D01*
X45513000Y-25505384D01*
X47009192Y-24009192D01*
X47012045Y-24004892D01*
X47013000Y-24000000D01*
X47013000Y-6513000D01*
X58987000Y-6513000D01*
X58987000Y-18987000D01*
G36*
X43487000Y-14994616D02*
X41990808Y-16490808D01*
X41987955Y-16495108D01*
X41987000Y-16500000D01*
X41987000Y-24987000D01*
X33513000Y-24987000D01*
X33513000Y-6513000D01*
X43487000Y-6513000D01*
X43487000Y-14994616D01*
X43487000Y-14994616D01*
G37*
X43487000Y-14994616D02*
X41990808Y-16490808D01*
X41987955Y-16495108D01*
X41987000Y-16500000D01*
X41987000Y-24987000D01*
X33513000Y-24987000D01*
X33513000Y-6513000D01*
X43487000Y-6513000D01*
X43487000Y-14994616D01*
G36*
X32987000Y-18987000D02*
X29000000Y-18987000D01*
X28994942Y-18988024D01*
X28990681Y-18990935D01*
X28987889Y-18995275D01*
X28987000Y-19000000D01*
X28987000Y-30487000D01*
X19513000Y-30487000D01*
X19513000Y-6513000D01*
X32987000Y-6513000D01*
X32987000Y-18987000D01*
X32987000Y-18987000D01*
G37*
X32987000Y-18987000D02*
X29000000Y-18987000D01*
X28994942Y-18988024D01*
X28990681Y-18990935D01*
X28987889Y-18995275D01*
X28987000Y-19000000D01*
X28987000Y-30487000D01*
X19513000Y-30487000D01*
X19513000Y-6513000D01*
X32987000Y-6513000D01*
X32987000Y-18987000D01*
G36*
X32987000Y-25500000D02*
X32988024Y-25505058D01*
X32990935Y-25509319D01*
X32995275Y-25512111D01*
X33000000Y-25513000D01*
X37487000Y-25513000D01*
X37487000Y-30487000D01*
X29513000Y-30487000D01*
X29513000Y-19513000D01*
X32987000Y-19513000D01*
X32987000Y-25500000D01*
X32987000Y-25500000D01*
G37*
X32987000Y-25500000D02*
X32988024Y-25505058D01*
X32990935Y-25509319D01*
X32995275Y-25512111D01*
X33000000Y-25513000D01*
X37487000Y-25513000D01*
X37487000Y-30487000D01*
X29513000Y-30487000D01*
X29513000Y-19513000D01*
X32987000Y-19513000D01*
X32987000Y-25500000D01*
G36*
X75712000Y-59712000D02*
X71000000Y-59712000D01*
X70889787Y-59733923D01*
X70796353Y-59796353D01*
X70733923Y-59889787D01*
X70714586Y-59987000D01*
X64005384Y-59987000D01*
X61013000Y-56994616D01*
X61013000Y-54601594D01*
X61986911Y-54601594D01*
X62064846Y-54790211D01*
X62209030Y-54934646D01*
X62397510Y-55012910D01*
X62601594Y-55013089D01*
X62790211Y-54935154D01*
X62887534Y-54838000D01*
X68500000Y-54838000D01*
X68629347Y-54812271D01*
X68739002Y-54739002D01*
X70138762Y-53339242D01*
X71286703Y-53339242D01*
X71546942Y-53969069D01*
X72028396Y-54451364D01*
X72657768Y-54712702D01*
X73339242Y-54713297D01*
X73969069Y-54453058D01*
X74451364Y-53971604D01*
X74712702Y-53342232D01*
X74713297Y-52660758D01*
X74453058Y-52030931D01*
X73971604Y-51548636D01*
X73342232Y-51287298D01*
X72660758Y-51286703D01*
X72030931Y-51546942D01*
X71548636Y-52028396D01*
X71287298Y-52657768D01*
X71286703Y-53339242D01*
X70138762Y-53339242D01*
X72739002Y-50739002D01*
X72812271Y-50629347D01*
X72838000Y-50500000D01*
X72838000Y-46387448D01*
X72934646Y-46290970D01*
X73012910Y-46102490D01*
X73013031Y-45964973D01*
X75239002Y-43739002D01*
X75312271Y-43629347D01*
X75338000Y-43500000D01*
X75338000Y-30500000D01*
X75312271Y-30370653D01*
X75239002Y-30260998D01*
X73512969Y-28534965D01*
X73513089Y-28398406D01*
X73435154Y-28209789D01*
X73290970Y-28065354D01*
X73102490Y-27987090D01*
X72898406Y-27986911D01*
X72709789Y-28064846D01*
X72565354Y-28209030D01*
X72487090Y-28397510D01*
X72486911Y-28601594D01*
X72564846Y-28790211D01*
X72709030Y-28934646D01*
X72897510Y-29012910D01*
X73035027Y-29013031D01*
X74662000Y-30640004D01*
X74662000Y-43359996D01*
X72534965Y-45487031D01*
X72398406Y-45486911D01*
X72209789Y-45564846D01*
X72065354Y-45709030D01*
X71987090Y-45897510D01*
X71986911Y-46101594D01*
X72064846Y-46290211D01*
X72162000Y-46387534D01*
X72162000Y-50359996D01*
X68359996Y-54162000D01*
X62887448Y-54162000D01*
X62790970Y-54065354D01*
X62602490Y-53987090D01*
X62398406Y-53986911D01*
X62209789Y-54064846D01*
X62065354Y-54209030D01*
X61987090Y-54397510D01*
X61986911Y-54601594D01*
X61013000Y-54601594D01*
X61013000Y-48500000D01*
X61011976Y-48494942D01*
X61009192Y-48490808D01*
X60119978Y-47601594D01*
X64486911Y-47601594D01*
X64564846Y-47790211D01*
X64662000Y-47887534D01*
X64662000Y-52500000D01*
X64687729Y-52629347D01*
X64760998Y-52739002D01*
X65760998Y-53739002D01*
X65870653Y-53812271D01*
X66000000Y-53838000D01*
X67112552Y-53838000D01*
X67209030Y-53934646D01*
X67397510Y-54012910D01*
X67601594Y-54013089D01*
X67790211Y-53935154D01*
X67934646Y-53790970D01*
X68012910Y-53602490D01*
X68013089Y-53398406D01*
X67935154Y-53209789D01*
X67790970Y-53065354D01*
X67602490Y-52987090D01*
X67398406Y-52986911D01*
X67209789Y-53064846D01*
X67112466Y-53162000D01*
X66140004Y-53162000D01*
X65338000Y-52359996D01*
X65338000Y-47887448D01*
X65434646Y-47790970D01*
X65512910Y-47602490D01*
X65513089Y-47398406D01*
X65435154Y-47209789D01*
X65290970Y-47065354D01*
X65102490Y-46987090D01*
X64898406Y-46986911D01*
X64709789Y-47064846D01*
X64565354Y-47209030D01*
X64487090Y-47397510D01*
X64486911Y-47601594D01*
X60119978Y-47601594D01*
X57509192Y-44990808D01*
X57504892Y-44987955D01*
X57500000Y-44987000D01*
X14097316Y-44987000D01*
X14282466Y-44056186D01*
X14282466Y-44027821D01*
X14288000Y-44000000D01*
X14288000Y-42741002D01*
X14380471Y-42741002D01*
X14295767Y-42893239D01*
X14422336Y-43118571D01*
X14721142Y-43383626D01*
X15098635Y-43514157D01*
X15259000Y-43393223D01*
X15259000Y-42741000D01*
X15741000Y-42741000D01*
X15741000Y-43393223D01*
X15901365Y-43514157D01*
X16278858Y-43383626D01*
X16577664Y-43118571D01*
X16704233Y-42893239D01*
X16619528Y-42741000D01*
X15741000Y-42741000D01*
X15259000Y-42741000D01*
X15239000Y-42741000D01*
X15239000Y-42671250D01*
X18729000Y-42671250D01*
X18729000Y-43703633D01*
X18808317Y-43895122D01*
X18954877Y-44041682D01*
X19146366Y-44121000D01*
X19628750Y-44121000D01*
X19759000Y-43990750D01*
X19759000Y-42541000D01*
X20241000Y-42541000D01*
X20241000Y-43990750D01*
X20371250Y-44121000D01*
X20853634Y-44121000D01*
X21045123Y-44041682D01*
X21191683Y-43895122D01*
X21271000Y-43703633D01*
X21271000Y-42671250D01*
X21140750Y-42541000D01*
X20241000Y-42541000D01*
X19759000Y-42541000D01*
X18859250Y-42541000D01*
X18729000Y-42671250D01*
X15239000Y-42671250D01*
X15239000Y-42259000D01*
X15259000Y-42259000D01*
X15259000Y-42239000D01*
X15741000Y-42239000D01*
X15741000Y-42259000D01*
X16619528Y-42259000D01*
X16704233Y-42106761D01*
X16577664Y-41881429D01*
X16278858Y-41616374D01*
X16172420Y-41579569D01*
X16285268Y-41504167D01*
X16439827Y-41272853D01*
X16494101Y-41000000D01*
X16473488Y-40896367D01*
X18729000Y-40896367D01*
X18729000Y-41928750D01*
X18859250Y-42059000D01*
X19759000Y-42059000D01*
X19759000Y-40609250D01*
X20241000Y-40609250D01*
X20241000Y-42059000D01*
X21140750Y-42059000D01*
X21271000Y-41928750D01*
X21271000Y-41161006D01*
X58186859Y-41161006D01*
X58310370Y-41459926D01*
X58538871Y-41688826D01*
X58837575Y-41812859D01*
X59161006Y-41813141D01*
X59459926Y-41689630D01*
X59686952Y-41463000D01*
X62808220Y-41463000D01*
X64974566Y-43629347D01*
X65187137Y-43841918D01*
X65186859Y-44161006D01*
X65310370Y-44459926D01*
X65538871Y-44688826D01*
X65837575Y-44812859D01*
X66161006Y-44813141D01*
X66459926Y-44689630D01*
X66688826Y-44461129D01*
X66812859Y-44162425D01*
X66813141Y-43838994D01*
X66779449Y-43757453D01*
X67987031Y-44965035D01*
X67986911Y-45101594D01*
X68064846Y-45290211D01*
X68209030Y-45434646D01*
X68397510Y-45512910D01*
X68601594Y-45513089D01*
X68790211Y-45435154D01*
X68934646Y-45290970D01*
X69012910Y-45102490D01*
X69013089Y-44898406D01*
X68935154Y-44709789D01*
X68790970Y-44565354D01*
X68602490Y-44487090D01*
X68464973Y-44486969D01*
X63539002Y-39560998D01*
X63429347Y-39487729D01*
X63300000Y-39462000D01*
X59887448Y-39462000D01*
X59863490Y-39438000D01*
X66459996Y-39438000D01*
X67560998Y-40539002D01*
X67670653Y-40612271D01*
X67800000Y-40638000D01*
X68636508Y-40638000D01*
X68565354Y-40709030D01*
X68515054Y-40830165D01*
X67830075Y-41515145D01*
X67709789Y-41564846D01*
X67565354Y-41709030D01*
X67487090Y-41897510D01*
X67486911Y-42101594D01*
X67564846Y-42290211D01*
X67709030Y-42434646D01*
X67897510Y-42512910D01*
X68101594Y-42513089D01*
X68290211Y-42435154D01*
X68434646Y-42290970D01*
X68484946Y-42169834D01*
X69000000Y-41654780D01*
X69345219Y-42000000D01*
X68830075Y-42515145D01*
X68709789Y-42564846D01*
X68565354Y-42709030D01*
X68487090Y-42897510D01*
X68486911Y-43101594D01*
X68564846Y-43290211D01*
X68709030Y-43434646D01*
X68897510Y-43512910D01*
X69101594Y-43513089D01*
X69290211Y-43435154D01*
X69434646Y-43290970D01*
X69484946Y-43169834D01*
X70169926Y-42484855D01*
X70222819Y-42463000D01*
X71500000Y-42463000D01*
X71647786Y-42433603D01*
X71677183Y-42427756D01*
X71827390Y-42327390D01*
X73327390Y-40827391D01*
X73427756Y-40677183D01*
X73435550Y-40638000D01*
X73463000Y-40500000D01*
X73463000Y-38686561D01*
X73688826Y-38461129D01*
X73812859Y-38162425D01*
X73813141Y-37838994D01*
X73689630Y-37540074D01*
X73461129Y-37311174D01*
X73162425Y-37187141D01*
X72838994Y-37186859D01*
X72540074Y-37310370D01*
X72311174Y-37538871D01*
X72187141Y-37837575D01*
X72186859Y-38161006D01*
X72310370Y-38459926D01*
X72537000Y-38686952D01*
X72537000Y-40308219D01*
X71308220Y-41537000D01*
X70222686Y-41537000D01*
X70169835Y-41515054D01*
X69484855Y-40830075D01*
X69435154Y-40709789D01*
X69363490Y-40638000D01*
X70800000Y-40638000D01*
X70929347Y-40612271D01*
X71039002Y-40539002D01*
X71865035Y-39712969D01*
X72001594Y-39713089D01*
X72190211Y-39635154D01*
X72334646Y-39490970D01*
X72412910Y-39302490D01*
X72413089Y-39098406D01*
X72335154Y-38909789D01*
X72190970Y-38765354D01*
X72002490Y-38687090D01*
X71798406Y-38686911D01*
X71609789Y-38764846D01*
X71465354Y-38909030D01*
X71387090Y-39097510D01*
X71386969Y-39235027D01*
X70659996Y-39962000D01*
X70463492Y-39962000D01*
X70534646Y-39890970D01*
X70612910Y-39702490D01*
X70613089Y-39498406D01*
X70535154Y-39309789D01*
X70390970Y-39165354D01*
X70202490Y-39087090D01*
X69998406Y-39086911D01*
X69912980Y-39122208D01*
X69913089Y-38998406D01*
X69835154Y-38809789D01*
X69690970Y-38665354D01*
X69502490Y-38587090D01*
X69298406Y-38586911D01*
X69109789Y-38664846D01*
X69012466Y-38762000D01*
X68440004Y-38762000D01*
X67139002Y-37460998D01*
X67029347Y-37387729D01*
X66900000Y-37362000D01*
X59863492Y-37362000D01*
X59887534Y-37338000D01*
X69500000Y-37338000D01*
X69629347Y-37312271D01*
X69739002Y-37239002D01*
X70065035Y-36912969D01*
X70201594Y-36913089D01*
X70390211Y-36835154D01*
X70534646Y-36690970D01*
X70612910Y-36502490D01*
X70613089Y-36298406D01*
X70535154Y-36109789D01*
X70390970Y-35965354D01*
X70202490Y-35887090D01*
X69998406Y-35886911D01*
X69809789Y-35964846D01*
X69665354Y-36109030D01*
X69587090Y-36297510D01*
X69586969Y-36435027D01*
X69359996Y-36662000D01*
X59887448Y-36662000D01*
X59790970Y-36565354D01*
X59602490Y-36487090D01*
X59398406Y-36486911D01*
X59209789Y-36564846D01*
X59065354Y-36709030D01*
X58987090Y-36897510D01*
X58986911Y-37101594D01*
X59022208Y-37187020D01*
X58898406Y-37186911D01*
X58709789Y-37264846D01*
X58565354Y-37409030D01*
X58487090Y-37597510D01*
X58486911Y-37801594D01*
X58564846Y-37990211D01*
X58709030Y-38134646D01*
X58897510Y-38212910D01*
X59022174Y-38213019D01*
X58987090Y-38297510D01*
X58986911Y-38501594D01*
X59022208Y-38587020D01*
X58898406Y-38586911D01*
X58709789Y-38664846D01*
X58565354Y-38809030D01*
X58487090Y-38997510D01*
X58486911Y-39201594D01*
X58564846Y-39390211D01*
X58709030Y-39534646D01*
X58897510Y-39612910D01*
X59022174Y-39613019D01*
X58987090Y-39697510D01*
X58986911Y-39901594D01*
X59064846Y-40090211D01*
X59161607Y-40187140D01*
X58838994Y-40186859D01*
X58540074Y-40310370D01*
X58311174Y-40538871D01*
X58187141Y-40837575D01*
X58186859Y-41161006D01*
X21271000Y-41161006D01*
X21271000Y-40896367D01*
X21191683Y-40704878D01*
X21045123Y-40558318D01*
X20853634Y-40479000D01*
X20371250Y-40479000D01*
X20241000Y-40609250D01*
X19759000Y-40609250D01*
X19628750Y-40479000D01*
X19146366Y-40479000D01*
X18954877Y-40558318D01*
X18808317Y-40704878D01*
X18729000Y-40896367D01*
X16473488Y-40896367D01*
X16439827Y-40727147D01*
X16285268Y-40495833D01*
X16053954Y-40341274D01*
X15781101Y-40287000D01*
X15218899Y-40287000D01*
X14946046Y-40341274D01*
X14714732Y-40495833D01*
X14560173Y-40727147D01*
X14505899Y-41000000D01*
X14560173Y-41272853D01*
X14714732Y-41504167D01*
X14827580Y-41579569D01*
X14721142Y-41616374D01*
X14422336Y-41881429D01*
X14295767Y-42106761D01*
X14380471Y-42258998D01*
X14288000Y-42258998D01*
X14288000Y-39500000D01*
X14505899Y-39500000D01*
X14560173Y-39772853D01*
X14714732Y-40004167D01*
X14946046Y-40158726D01*
X15218899Y-40213000D01*
X15781101Y-40213000D01*
X16053954Y-40158726D01*
X16285268Y-40004167D01*
X16439827Y-39772853D01*
X16494101Y-39500000D01*
X16439827Y-39227147D01*
X16285268Y-38995833D01*
X16053954Y-38841274D01*
X15781101Y-38787000D01*
X15218899Y-38787000D01*
X14946046Y-38841274D01*
X14714732Y-38995833D01*
X14560173Y-39227147D01*
X14505899Y-39500000D01*
X14288000Y-39500000D01*
X14288000Y-38000000D01*
X14505899Y-38000000D01*
X14560173Y-38272853D01*
X14714732Y-38504167D01*
X14946046Y-38658726D01*
X15218899Y-38713000D01*
X15781101Y-38713000D01*
X16053954Y-38658726D01*
X16285268Y-38504167D01*
X16439827Y-38272853D01*
X16494101Y-38000000D01*
X16439827Y-37727147D01*
X16285268Y-37495833D01*
X16053954Y-37341274D01*
X15781101Y-37287000D01*
X15218899Y-37287000D01*
X14946046Y-37341274D01*
X14714732Y-37495833D01*
X14560173Y-37727147D01*
X14505899Y-38000000D01*
X14288000Y-38000000D01*
X14288000Y-36500000D01*
X14505899Y-36500000D01*
X14560173Y-36772853D01*
X14714732Y-37004167D01*
X14946046Y-37158726D01*
X15218899Y-37213000D01*
X15781101Y-37213000D01*
X16053954Y-37158726D01*
X16285268Y-37004167D01*
X16439827Y-36772853D01*
X16494101Y-36500000D01*
X16439827Y-36227147D01*
X16285268Y-35995833D01*
X16053954Y-35841274D01*
X15781101Y-35787000D01*
X15218899Y-35787000D01*
X14946046Y-35841274D01*
X14714732Y-35995833D01*
X14560173Y-36227147D01*
X14505899Y-36500000D01*
X14288000Y-36500000D01*
X14288000Y-35000000D01*
X14505899Y-35000000D01*
X14560173Y-35272853D01*
X14714732Y-35504167D01*
X14946046Y-35658726D01*
X15218899Y-35713000D01*
X15781101Y-35713000D01*
X16053954Y-35658726D01*
X16285268Y-35504167D01*
X16354870Y-35400000D01*
X19032828Y-35400000D01*
X19032828Y-38000000D01*
X19047680Y-38078933D01*
X19094329Y-38151428D01*
X19165508Y-38200062D01*
X19250000Y-38217172D01*
X19662000Y-38217172D01*
X19662000Y-38612552D01*
X19565354Y-38709030D01*
X19487090Y-38897510D01*
X19486911Y-39101594D01*
X19564846Y-39290211D01*
X19709030Y-39434646D01*
X19897510Y-39512910D01*
X20101594Y-39513089D01*
X20290211Y-39435154D01*
X20434646Y-39290970D01*
X20512910Y-39102490D01*
X20513089Y-38898406D01*
X20435154Y-38709789D01*
X20338000Y-38612466D01*
X20338000Y-38217172D01*
X20750000Y-38217172D01*
X20828933Y-38202320D01*
X20901428Y-38155671D01*
X20950062Y-38084492D01*
X20967172Y-38000000D01*
X20967172Y-35400000D01*
X20952320Y-35321067D01*
X20905671Y-35248572D01*
X20834492Y-35199938D01*
X20750000Y-35182828D01*
X19250000Y-35182828D01*
X19171067Y-35197680D01*
X19098572Y-35244329D01*
X19049938Y-35315508D01*
X19032828Y-35400000D01*
X16354870Y-35400000D01*
X16439827Y-35272853D01*
X16462074Y-35161006D01*
X68886859Y-35161006D01*
X69010370Y-35459926D01*
X69238871Y-35688826D01*
X69537575Y-35812859D01*
X69861006Y-35813141D01*
X70159926Y-35689630D01*
X70388826Y-35461129D01*
X70512859Y-35162425D01*
X70513141Y-34838994D01*
X70389630Y-34540074D01*
X70163000Y-34313048D01*
X70163000Y-27191780D01*
X75227391Y-22127390D01*
X75327756Y-21977182D01*
X75363000Y-21800000D01*
X75363000Y-16820000D01*
X75327756Y-16642818D01*
X75227391Y-16492610D01*
X74129330Y-15394550D01*
X74171127Y-15331997D01*
X74253078Y-14920000D01*
X74171127Y-14508003D01*
X73937749Y-14158729D01*
X73588475Y-13925351D01*
X73176478Y-13843400D01*
X72823522Y-13843400D01*
X72411525Y-13925351D01*
X72062251Y-14158729D01*
X71828873Y-14508003D01*
X71746922Y-14920000D01*
X71828873Y-15331997D01*
X72062251Y-15681271D01*
X72411525Y-15914649D01*
X72823522Y-15996600D01*
X73176478Y-15996600D01*
X73381115Y-15955895D01*
X74437000Y-17011781D01*
X74437000Y-18820595D01*
X74311123Y-18694718D01*
X74119634Y-18615400D01*
X73371250Y-18615400D01*
X73241000Y-18745650D01*
X73241000Y-19759000D01*
X73261000Y-19759000D01*
X73261000Y-20241000D01*
X73241000Y-20241000D01*
X73241000Y-21254350D01*
X73371250Y-21384600D01*
X74119634Y-21384600D01*
X74311123Y-21305282D01*
X74437000Y-21179405D01*
X74437000Y-21608219D01*
X69372610Y-26672610D01*
X69272244Y-26822817D01*
X69272244Y-26822818D01*
X69237000Y-27000000D01*
X69237000Y-34313439D01*
X69011174Y-34538871D01*
X68887141Y-34837575D01*
X68886859Y-35161006D01*
X16462074Y-35161006D01*
X16494101Y-35000000D01*
X16439827Y-34727147D01*
X16285268Y-34495833D01*
X16053954Y-34341274D01*
X15781101Y-34287000D01*
X15218899Y-34287000D01*
X14946046Y-34341274D01*
X14714732Y-34495833D01*
X14560173Y-34727147D01*
X14505899Y-35000000D01*
X14288000Y-35000000D01*
X14288000Y-32513000D01*
X65500000Y-32513000D01*
X65505058Y-32511976D01*
X65509319Y-32509065D01*
X65512111Y-32504725D01*
X65513000Y-32500000D01*
X65513000Y-28005384D01*
X71509192Y-22009192D01*
X71512045Y-22004892D01*
X71513000Y-22000000D01*
X71513000Y-21087944D01*
X71542317Y-21158722D01*
X71688877Y-21305282D01*
X71880366Y-21384600D01*
X72628750Y-21384600D01*
X72759000Y-21254350D01*
X72759000Y-20241000D01*
X72739000Y-20241000D01*
X72739000Y-19759000D01*
X72759000Y-19759000D01*
X72759000Y-18745650D01*
X72628750Y-18615400D01*
X71880366Y-18615400D01*
X71688877Y-18694718D01*
X71542317Y-18841278D01*
X71513000Y-18912056D01*
X71513000Y-17460000D01*
X71746922Y-17460000D01*
X71828873Y-17871997D01*
X72062251Y-18221271D01*
X72411525Y-18454649D01*
X72823522Y-18536600D01*
X73176478Y-18536600D01*
X73588475Y-18454649D01*
X73937749Y-18221271D01*
X74171127Y-17871997D01*
X74253078Y-17460000D01*
X74171127Y-17048003D01*
X73937749Y-16698729D01*
X73588475Y-16465351D01*
X73176478Y-16383400D01*
X72823522Y-16383400D01*
X72411525Y-16465351D01*
X72062251Y-16698729D01*
X71828873Y-17048003D01*
X71746922Y-17460000D01*
X71513000Y-17460000D01*
X71513000Y-13013000D01*
X75712000Y-13013000D01*
X75712000Y-59712000D01*
X75712000Y-59712000D01*
G37*
X75712000Y-59712000D02*
X71000000Y-59712000D01*
X70889787Y-59733923D01*
X70796353Y-59796353D01*
X70733923Y-59889787D01*
X70714586Y-59987000D01*
X64005384Y-59987000D01*
X61013000Y-56994616D01*
X61013000Y-54601594D01*
X61986911Y-54601594D01*
X62064846Y-54790211D01*
X62209030Y-54934646D01*
X62397510Y-55012910D01*
X62601594Y-55013089D01*
X62790211Y-54935154D01*
X62887534Y-54838000D01*
X68500000Y-54838000D01*
X68629347Y-54812271D01*
X68739002Y-54739002D01*
X70138762Y-53339242D01*
X71286703Y-53339242D01*
X71546942Y-53969069D01*
X72028396Y-54451364D01*
X72657768Y-54712702D01*
X73339242Y-54713297D01*
X73969069Y-54453058D01*
X74451364Y-53971604D01*
X74712702Y-53342232D01*
X74713297Y-52660758D01*
X74453058Y-52030931D01*
X73971604Y-51548636D01*
X73342232Y-51287298D01*
X72660758Y-51286703D01*
X72030931Y-51546942D01*
X71548636Y-52028396D01*
X71287298Y-52657768D01*
X71286703Y-53339242D01*
X70138762Y-53339242D01*
X72739002Y-50739002D01*
X72812271Y-50629347D01*
X72838000Y-50500000D01*
X72838000Y-46387448D01*
X72934646Y-46290970D01*
X73012910Y-46102490D01*
X73013031Y-45964973D01*
X75239002Y-43739002D01*
X75312271Y-43629347D01*
X75338000Y-43500000D01*
X75338000Y-30500000D01*
X75312271Y-30370653D01*
X75239002Y-30260998D01*
X73512969Y-28534965D01*
X73513089Y-28398406D01*
X73435154Y-28209789D01*
X73290970Y-28065354D01*
X73102490Y-27987090D01*
X72898406Y-27986911D01*
X72709789Y-28064846D01*
X72565354Y-28209030D01*
X72487090Y-28397510D01*
X72486911Y-28601594D01*
X72564846Y-28790211D01*
X72709030Y-28934646D01*
X72897510Y-29012910D01*
X73035027Y-29013031D01*
X74662000Y-30640004D01*
X74662000Y-43359996D01*
X72534965Y-45487031D01*
X72398406Y-45486911D01*
X72209789Y-45564846D01*
X72065354Y-45709030D01*
X71987090Y-45897510D01*
X71986911Y-46101594D01*
X72064846Y-46290211D01*
X72162000Y-46387534D01*
X72162000Y-50359996D01*
X68359996Y-54162000D01*
X62887448Y-54162000D01*
X62790970Y-54065354D01*
X62602490Y-53987090D01*
X62398406Y-53986911D01*
X62209789Y-54064846D01*
X62065354Y-54209030D01*
X61987090Y-54397510D01*
X61986911Y-54601594D01*
X61013000Y-54601594D01*
X61013000Y-48500000D01*
X61011976Y-48494942D01*
X61009192Y-48490808D01*
X60119978Y-47601594D01*
X64486911Y-47601594D01*
X64564846Y-47790211D01*
X64662000Y-47887534D01*
X64662000Y-52500000D01*
X64687729Y-52629347D01*
X64760998Y-52739002D01*
X65760998Y-53739002D01*
X65870653Y-53812271D01*
X66000000Y-53838000D01*
X67112552Y-53838000D01*
X67209030Y-53934646D01*
X67397510Y-54012910D01*
X67601594Y-54013089D01*
X67790211Y-53935154D01*
X67934646Y-53790970D01*
X68012910Y-53602490D01*
X68013089Y-53398406D01*
X67935154Y-53209789D01*
X67790970Y-53065354D01*
X67602490Y-52987090D01*
X67398406Y-52986911D01*
X67209789Y-53064846D01*
X67112466Y-53162000D01*
X66140004Y-53162000D01*
X65338000Y-52359996D01*
X65338000Y-47887448D01*
X65434646Y-47790970D01*
X65512910Y-47602490D01*
X65513089Y-47398406D01*
X65435154Y-47209789D01*
X65290970Y-47065354D01*
X65102490Y-46987090D01*
X64898406Y-46986911D01*
X64709789Y-47064846D01*
X64565354Y-47209030D01*
X64487090Y-47397510D01*
X64486911Y-47601594D01*
X60119978Y-47601594D01*
X57509192Y-44990808D01*
X57504892Y-44987955D01*
X57500000Y-44987000D01*
X14097316Y-44987000D01*
X14282466Y-44056186D01*
X14282466Y-44027821D01*
X14288000Y-44000000D01*
X14288000Y-42741002D01*
X14380471Y-42741002D01*
X14295767Y-42893239D01*
X14422336Y-43118571D01*
X14721142Y-43383626D01*
X15098635Y-43514157D01*
X15259000Y-43393223D01*
X15259000Y-42741000D01*
X15741000Y-42741000D01*
X15741000Y-43393223D01*
X15901365Y-43514157D01*
X16278858Y-43383626D01*
X16577664Y-43118571D01*
X16704233Y-42893239D01*
X16619528Y-42741000D01*
X15741000Y-42741000D01*
X15259000Y-42741000D01*
X15239000Y-42741000D01*
X15239000Y-42671250D01*
X18729000Y-42671250D01*
X18729000Y-43703633D01*
X18808317Y-43895122D01*
X18954877Y-44041682D01*
X19146366Y-44121000D01*
X19628750Y-44121000D01*
X19759000Y-43990750D01*
X19759000Y-42541000D01*
X20241000Y-42541000D01*
X20241000Y-43990750D01*
X20371250Y-44121000D01*
X20853634Y-44121000D01*
X21045123Y-44041682D01*
X21191683Y-43895122D01*
X21271000Y-43703633D01*
X21271000Y-42671250D01*
X21140750Y-42541000D01*
X20241000Y-42541000D01*
X19759000Y-42541000D01*
X18859250Y-42541000D01*
X18729000Y-42671250D01*
X15239000Y-42671250D01*
X15239000Y-42259000D01*
X15259000Y-42259000D01*
X15259000Y-42239000D01*
X15741000Y-42239000D01*
X15741000Y-42259000D01*
X16619528Y-42259000D01*
X16704233Y-42106761D01*
X16577664Y-41881429D01*
X16278858Y-41616374D01*
X16172420Y-41579569D01*
X16285268Y-41504167D01*
X16439827Y-41272853D01*
X16494101Y-41000000D01*
X16473488Y-40896367D01*
X18729000Y-40896367D01*
X18729000Y-41928750D01*
X18859250Y-42059000D01*
X19759000Y-42059000D01*
X19759000Y-40609250D01*
X20241000Y-40609250D01*
X20241000Y-42059000D01*
X21140750Y-42059000D01*
X21271000Y-41928750D01*
X21271000Y-41161006D01*
X58186859Y-41161006D01*
X58310370Y-41459926D01*
X58538871Y-41688826D01*
X58837575Y-41812859D01*
X59161006Y-41813141D01*
X59459926Y-41689630D01*
X59686952Y-41463000D01*
X62808220Y-41463000D01*
X64974566Y-43629347D01*
X65187137Y-43841918D01*
X65186859Y-44161006D01*
X65310370Y-44459926D01*
X65538871Y-44688826D01*
X65837575Y-44812859D01*
X66161006Y-44813141D01*
X66459926Y-44689630D01*
X66688826Y-44461129D01*
X66812859Y-44162425D01*
X66813141Y-43838994D01*
X66779449Y-43757453D01*
X67987031Y-44965035D01*
X67986911Y-45101594D01*
X68064846Y-45290211D01*
X68209030Y-45434646D01*
X68397510Y-45512910D01*
X68601594Y-45513089D01*
X68790211Y-45435154D01*
X68934646Y-45290970D01*
X69012910Y-45102490D01*
X69013089Y-44898406D01*
X68935154Y-44709789D01*
X68790970Y-44565354D01*
X68602490Y-44487090D01*
X68464973Y-44486969D01*
X63539002Y-39560998D01*
X63429347Y-39487729D01*
X63300000Y-39462000D01*
X59887448Y-39462000D01*
X59863490Y-39438000D01*
X66459996Y-39438000D01*
X67560998Y-40539002D01*
X67670653Y-40612271D01*
X67800000Y-40638000D01*
X68636508Y-40638000D01*
X68565354Y-40709030D01*
X68515054Y-40830165D01*
X67830075Y-41515145D01*
X67709789Y-41564846D01*
X67565354Y-41709030D01*
X67487090Y-41897510D01*
X67486911Y-42101594D01*
X67564846Y-42290211D01*
X67709030Y-42434646D01*
X67897510Y-42512910D01*
X68101594Y-42513089D01*
X68290211Y-42435154D01*
X68434646Y-42290970D01*
X68484946Y-42169834D01*
X69000000Y-41654780D01*
X69345219Y-42000000D01*
X68830075Y-42515145D01*
X68709789Y-42564846D01*
X68565354Y-42709030D01*
X68487090Y-42897510D01*
X68486911Y-43101594D01*
X68564846Y-43290211D01*
X68709030Y-43434646D01*
X68897510Y-43512910D01*
X69101594Y-43513089D01*
X69290211Y-43435154D01*
X69434646Y-43290970D01*
X69484946Y-43169834D01*
X70169926Y-42484855D01*
X70222819Y-42463000D01*
X71500000Y-42463000D01*
X71647786Y-42433603D01*
X71677183Y-42427756D01*
X71827390Y-42327390D01*
X73327390Y-40827391D01*
X73427756Y-40677183D01*
X73435550Y-40638000D01*
X73463000Y-40500000D01*
X73463000Y-38686561D01*
X73688826Y-38461129D01*
X73812859Y-38162425D01*
X73813141Y-37838994D01*
X73689630Y-37540074D01*
X73461129Y-37311174D01*
X73162425Y-37187141D01*
X72838994Y-37186859D01*
X72540074Y-37310370D01*
X72311174Y-37538871D01*
X72187141Y-37837575D01*
X72186859Y-38161006D01*
X72310370Y-38459926D01*
X72537000Y-38686952D01*
X72537000Y-40308219D01*
X71308220Y-41537000D01*
X70222686Y-41537000D01*
X70169835Y-41515054D01*
X69484855Y-40830075D01*
X69435154Y-40709789D01*
X69363490Y-40638000D01*
X70800000Y-40638000D01*
X70929347Y-40612271D01*
X71039002Y-40539002D01*
X71865035Y-39712969D01*
X72001594Y-39713089D01*
X72190211Y-39635154D01*
X72334646Y-39490970D01*
X72412910Y-39302490D01*
X72413089Y-39098406D01*
X72335154Y-38909789D01*
X72190970Y-38765354D01*
X72002490Y-38687090D01*
X71798406Y-38686911D01*
X71609789Y-38764846D01*
X71465354Y-38909030D01*
X71387090Y-39097510D01*
X71386969Y-39235027D01*
X70659996Y-39962000D01*
X70463492Y-39962000D01*
X70534646Y-39890970D01*
X70612910Y-39702490D01*
X70613089Y-39498406D01*
X70535154Y-39309789D01*
X70390970Y-39165354D01*
X70202490Y-39087090D01*
X69998406Y-39086911D01*
X69912980Y-39122208D01*
X69913089Y-38998406D01*
X69835154Y-38809789D01*
X69690970Y-38665354D01*
X69502490Y-38587090D01*
X69298406Y-38586911D01*
X69109789Y-38664846D01*
X69012466Y-38762000D01*
X68440004Y-38762000D01*
X67139002Y-37460998D01*
X67029347Y-37387729D01*
X66900000Y-37362000D01*
X59863492Y-37362000D01*
X59887534Y-37338000D01*
X69500000Y-37338000D01*
X69629347Y-37312271D01*
X69739002Y-37239002D01*
X70065035Y-36912969D01*
X70201594Y-36913089D01*
X70390211Y-36835154D01*
X70534646Y-36690970D01*
X70612910Y-36502490D01*
X70613089Y-36298406D01*
X70535154Y-36109789D01*
X70390970Y-35965354D01*
X70202490Y-35887090D01*
X69998406Y-35886911D01*
X69809789Y-35964846D01*
X69665354Y-36109030D01*
X69587090Y-36297510D01*
X69586969Y-36435027D01*
X69359996Y-36662000D01*
X59887448Y-36662000D01*
X59790970Y-36565354D01*
X59602490Y-36487090D01*
X59398406Y-36486911D01*
X59209789Y-36564846D01*
X59065354Y-36709030D01*
X58987090Y-36897510D01*
X58986911Y-37101594D01*
X59022208Y-37187020D01*
X58898406Y-37186911D01*
X58709789Y-37264846D01*
X58565354Y-37409030D01*
X58487090Y-37597510D01*
X58486911Y-37801594D01*
X58564846Y-37990211D01*
X58709030Y-38134646D01*
X58897510Y-38212910D01*
X59022174Y-38213019D01*
X58987090Y-38297510D01*
X58986911Y-38501594D01*
X59022208Y-38587020D01*
X58898406Y-38586911D01*
X58709789Y-38664846D01*
X58565354Y-38809030D01*
X58487090Y-38997510D01*
X58486911Y-39201594D01*
X58564846Y-39390211D01*
X58709030Y-39534646D01*
X58897510Y-39612910D01*
X59022174Y-39613019D01*
X58987090Y-39697510D01*
X58986911Y-39901594D01*
X59064846Y-40090211D01*
X59161607Y-40187140D01*
X58838994Y-40186859D01*
X58540074Y-40310370D01*
X58311174Y-40538871D01*
X58187141Y-40837575D01*
X58186859Y-41161006D01*
X21271000Y-41161006D01*
X21271000Y-40896367D01*
X21191683Y-40704878D01*
X21045123Y-40558318D01*
X20853634Y-40479000D01*
X20371250Y-40479000D01*
X20241000Y-40609250D01*
X19759000Y-40609250D01*
X19628750Y-40479000D01*
X19146366Y-40479000D01*
X18954877Y-40558318D01*
X18808317Y-40704878D01*
X18729000Y-40896367D01*
X16473488Y-40896367D01*
X16439827Y-40727147D01*
X16285268Y-40495833D01*
X16053954Y-40341274D01*
X15781101Y-40287000D01*
X15218899Y-40287000D01*
X14946046Y-40341274D01*
X14714732Y-40495833D01*
X14560173Y-40727147D01*
X14505899Y-41000000D01*
X14560173Y-41272853D01*
X14714732Y-41504167D01*
X14827580Y-41579569D01*
X14721142Y-41616374D01*
X14422336Y-41881429D01*
X14295767Y-42106761D01*
X14380471Y-42258998D01*
X14288000Y-42258998D01*
X14288000Y-39500000D01*
X14505899Y-39500000D01*
X14560173Y-39772853D01*
X14714732Y-40004167D01*
X14946046Y-40158726D01*
X15218899Y-40213000D01*
X15781101Y-40213000D01*
X16053954Y-40158726D01*
X16285268Y-40004167D01*
X16439827Y-39772853D01*
X16494101Y-39500000D01*
X16439827Y-39227147D01*
X16285268Y-38995833D01*
X16053954Y-38841274D01*
X15781101Y-38787000D01*
X15218899Y-38787000D01*
X14946046Y-38841274D01*
X14714732Y-38995833D01*
X14560173Y-39227147D01*
X14505899Y-39500000D01*
X14288000Y-39500000D01*
X14288000Y-38000000D01*
X14505899Y-38000000D01*
X14560173Y-38272853D01*
X14714732Y-38504167D01*
X14946046Y-38658726D01*
X15218899Y-38713000D01*
X15781101Y-38713000D01*
X16053954Y-38658726D01*
X16285268Y-38504167D01*
X16439827Y-38272853D01*
X16494101Y-38000000D01*
X16439827Y-37727147D01*
X16285268Y-37495833D01*
X16053954Y-37341274D01*
X15781101Y-37287000D01*
X15218899Y-37287000D01*
X14946046Y-37341274D01*
X14714732Y-37495833D01*
X14560173Y-37727147D01*
X14505899Y-38000000D01*
X14288000Y-38000000D01*
X14288000Y-36500000D01*
X14505899Y-36500000D01*
X14560173Y-36772853D01*
X14714732Y-37004167D01*
X14946046Y-37158726D01*
X15218899Y-37213000D01*
X15781101Y-37213000D01*
X16053954Y-37158726D01*
X16285268Y-37004167D01*
X16439827Y-36772853D01*
X16494101Y-36500000D01*
X16439827Y-36227147D01*
X16285268Y-35995833D01*
X16053954Y-35841274D01*
X15781101Y-35787000D01*
X15218899Y-35787000D01*
X14946046Y-35841274D01*
X14714732Y-35995833D01*
X14560173Y-36227147D01*
X14505899Y-36500000D01*
X14288000Y-36500000D01*
X14288000Y-35000000D01*
X14505899Y-35000000D01*
X14560173Y-35272853D01*
X14714732Y-35504167D01*
X14946046Y-35658726D01*
X15218899Y-35713000D01*
X15781101Y-35713000D01*
X16053954Y-35658726D01*
X16285268Y-35504167D01*
X16354870Y-35400000D01*
X19032828Y-35400000D01*
X19032828Y-38000000D01*
X19047680Y-38078933D01*
X19094329Y-38151428D01*
X19165508Y-38200062D01*
X19250000Y-38217172D01*
X19662000Y-38217172D01*
X19662000Y-38612552D01*
X19565354Y-38709030D01*
X19487090Y-38897510D01*
X19486911Y-39101594D01*
X19564846Y-39290211D01*
X19709030Y-39434646D01*
X19897510Y-39512910D01*
X20101594Y-39513089D01*
X20290211Y-39435154D01*
X20434646Y-39290970D01*
X20512910Y-39102490D01*
X20513089Y-38898406D01*
X20435154Y-38709789D01*
X20338000Y-38612466D01*
X20338000Y-38217172D01*
X20750000Y-38217172D01*
X20828933Y-38202320D01*
X20901428Y-38155671D01*
X20950062Y-38084492D01*
X20967172Y-38000000D01*
X20967172Y-35400000D01*
X20952320Y-35321067D01*
X20905671Y-35248572D01*
X20834492Y-35199938D01*
X20750000Y-35182828D01*
X19250000Y-35182828D01*
X19171067Y-35197680D01*
X19098572Y-35244329D01*
X19049938Y-35315508D01*
X19032828Y-35400000D01*
X16354870Y-35400000D01*
X16439827Y-35272853D01*
X16462074Y-35161006D01*
X68886859Y-35161006D01*
X69010370Y-35459926D01*
X69238871Y-35688826D01*
X69537575Y-35812859D01*
X69861006Y-35813141D01*
X70159926Y-35689630D01*
X70388826Y-35461129D01*
X70512859Y-35162425D01*
X70513141Y-34838994D01*
X70389630Y-34540074D01*
X70163000Y-34313048D01*
X70163000Y-27191780D01*
X75227391Y-22127390D01*
X75327756Y-21977182D01*
X75363000Y-21800000D01*
X75363000Y-16820000D01*
X75327756Y-16642818D01*
X75227391Y-16492610D01*
X74129330Y-15394550D01*
X74171127Y-15331997D01*
X74253078Y-14920000D01*
X74171127Y-14508003D01*
X73937749Y-14158729D01*
X73588475Y-13925351D01*
X73176478Y-13843400D01*
X72823522Y-13843400D01*
X72411525Y-13925351D01*
X72062251Y-14158729D01*
X71828873Y-14508003D01*
X71746922Y-14920000D01*
X71828873Y-15331997D01*
X72062251Y-15681271D01*
X72411525Y-15914649D01*
X72823522Y-15996600D01*
X73176478Y-15996600D01*
X73381115Y-15955895D01*
X74437000Y-17011781D01*
X74437000Y-18820595D01*
X74311123Y-18694718D01*
X74119634Y-18615400D01*
X73371250Y-18615400D01*
X73241000Y-18745650D01*
X73241000Y-19759000D01*
X73261000Y-19759000D01*
X73261000Y-20241000D01*
X73241000Y-20241000D01*
X73241000Y-21254350D01*
X73371250Y-21384600D01*
X74119634Y-21384600D01*
X74311123Y-21305282D01*
X74437000Y-21179405D01*
X74437000Y-21608219D01*
X69372610Y-26672610D01*
X69272244Y-26822817D01*
X69272244Y-26822818D01*
X69237000Y-27000000D01*
X69237000Y-34313439D01*
X69011174Y-34538871D01*
X68887141Y-34837575D01*
X68886859Y-35161006D01*
X16462074Y-35161006D01*
X16494101Y-35000000D01*
X16439827Y-34727147D01*
X16285268Y-34495833D01*
X16053954Y-34341274D01*
X15781101Y-34287000D01*
X15218899Y-34287000D01*
X14946046Y-34341274D01*
X14714732Y-34495833D01*
X14560173Y-34727147D01*
X14505899Y-35000000D01*
X14288000Y-35000000D01*
X14288000Y-32513000D01*
X65500000Y-32513000D01*
X65505058Y-32511976D01*
X65509319Y-32509065D01*
X65512111Y-32504725D01*
X65513000Y-32500000D01*
X65513000Y-28005384D01*
X71509192Y-22009192D01*
X71512045Y-22004892D01*
X71513000Y-22000000D01*
X71513000Y-21087944D01*
X71542317Y-21158722D01*
X71688877Y-21305282D01*
X71880366Y-21384600D01*
X72628750Y-21384600D01*
X72759000Y-21254350D01*
X72759000Y-20241000D01*
X72739000Y-20241000D01*
X72739000Y-19759000D01*
X72759000Y-19759000D01*
X72759000Y-18745650D01*
X72628750Y-18615400D01*
X71880366Y-18615400D01*
X71688877Y-18694718D01*
X71542317Y-18841278D01*
X71513000Y-18912056D01*
X71513000Y-17460000D01*
X71746922Y-17460000D01*
X71828873Y-17871997D01*
X72062251Y-18221271D01*
X72411525Y-18454649D01*
X72823522Y-18536600D01*
X73176478Y-18536600D01*
X73588475Y-18454649D01*
X73937749Y-18221271D01*
X74171127Y-17871997D01*
X74253078Y-17460000D01*
X74171127Y-17048003D01*
X73937749Y-16698729D01*
X73588475Y-16465351D01*
X73176478Y-16383400D01*
X72823522Y-16383400D01*
X72411525Y-16465351D01*
X72062251Y-16698729D01*
X71828873Y-17048003D01*
X71746922Y-17460000D01*
X71513000Y-17460000D01*
X71513000Y-13013000D01*
X75712000Y-13013000D01*
X75712000Y-59712000D01*
G36*
X57987000Y-50005384D02*
X57987000Y-58500000D01*
X57988024Y-58505058D01*
X57990808Y-58509192D01*
X62490808Y-63009192D01*
X62495108Y-63012045D01*
X62500000Y-63013000D01*
X70712000Y-63013000D01*
X70712000Y-84712000D01*
X11288000Y-84712000D01*
X11288000Y-81816236D01*
X15327000Y-81816236D01*
X15327000Y-82263764D01*
X15404110Y-82651422D01*
X15623701Y-82980063D01*
X15952342Y-83199654D01*
X16340000Y-83276764D01*
X16727658Y-83199654D01*
X17056299Y-82980063D01*
X17275890Y-82651422D01*
X17353000Y-82263764D01*
X17353000Y-81816236D01*
X17275890Y-81428578D01*
X17056299Y-81099937D01*
X16727658Y-80880346D01*
X16340000Y-80803236D01*
X15952342Y-80880346D01*
X15623701Y-81099937D01*
X15404110Y-81428578D01*
X15327000Y-81816236D01*
X11288000Y-81816236D01*
X11288000Y-79276236D01*
X15327000Y-79276236D01*
X15327000Y-79723764D01*
X15404110Y-80111422D01*
X15623701Y-80440063D01*
X15952342Y-80659654D01*
X16340000Y-80736764D01*
X16727658Y-80659654D01*
X17056299Y-80440063D01*
X17262000Y-80132210D01*
X17262000Y-80760000D01*
X17287729Y-80889347D01*
X17360998Y-80999002D01*
X17918637Y-81556641D01*
X17867000Y-81816236D01*
X17867000Y-82263764D01*
X17944110Y-82651422D01*
X18163701Y-82980063D01*
X18492342Y-83199654D01*
X18880000Y-83276764D01*
X19267658Y-83199654D01*
X19596299Y-82980063D01*
X19815890Y-82651422D01*
X19893000Y-82263764D01*
X19893000Y-81816236D01*
X19815890Y-81428578D01*
X19596299Y-81099937D01*
X19267658Y-80880346D01*
X18880000Y-80803236D01*
X18492342Y-80880346D01*
X18316107Y-80998103D01*
X17938000Y-80619996D01*
X17938000Y-80080705D01*
X17944110Y-80111422D01*
X18163701Y-80440063D01*
X18492342Y-80659654D01*
X18880000Y-80736764D01*
X19267658Y-80659654D01*
X19596299Y-80440063D01*
X19815890Y-80111422D01*
X19893000Y-79723764D01*
X19893000Y-79276236D01*
X19841363Y-79016641D01*
X21520004Y-77338000D01*
X29059996Y-77338000D01*
X34560998Y-82839002D01*
X34670653Y-82912271D01*
X34800000Y-82938000D01*
X36783996Y-82938000D01*
X36559996Y-83162000D01*
X26944011Y-83162000D01*
X27216299Y-82980063D01*
X27435890Y-82651422D01*
X27513000Y-82263764D01*
X27513000Y-81816236D01*
X27435890Y-81428578D01*
X27216299Y-81099937D01*
X26887658Y-80880346D01*
X26500000Y-80803236D01*
X26112342Y-80880346D01*
X25783701Y-81099937D01*
X25564110Y-81428578D01*
X25487000Y-81816236D01*
X25487000Y-82263764D01*
X25564110Y-82651422D01*
X25783701Y-82980063D01*
X26055989Y-83162000D01*
X24404011Y-83162000D01*
X24676299Y-82980063D01*
X24895890Y-82651422D01*
X24973000Y-82263764D01*
X24973000Y-81816236D01*
X24895890Y-81428578D01*
X24676299Y-81099937D01*
X24425668Y-80932471D01*
X24701095Y-80789784D01*
X25061725Y-80423224D01*
X25254627Y-79946560D01*
X25147008Y-79741000D01*
X24201000Y-79741000D01*
X24201000Y-79761000D01*
X23719000Y-79761000D01*
X23719000Y-79741000D01*
X22772992Y-79741000D01*
X22665373Y-79946560D01*
X22858275Y-80423224D01*
X23218905Y-80789784D01*
X23494332Y-80932471D01*
X23243701Y-81099937D01*
X23038000Y-81407790D01*
X23038000Y-80780000D01*
X23012271Y-80650653D01*
X22939002Y-80540998D01*
X22381363Y-79983359D01*
X22433000Y-79723764D01*
X22433000Y-79276236D01*
X22388684Y-79053440D01*
X22665373Y-79053440D01*
X22772992Y-79259000D01*
X23719000Y-79259000D01*
X23719000Y-78133893D01*
X24201000Y-78133893D01*
X24201000Y-79259000D01*
X25147008Y-79259000D01*
X25254627Y-79053440D01*
X25061725Y-78576776D01*
X24986192Y-78500000D01*
X25482828Y-78500000D01*
X25482828Y-80500000D01*
X25497680Y-80578933D01*
X25544329Y-80651428D01*
X25615508Y-80700062D01*
X25700000Y-80717172D01*
X27300000Y-80717172D01*
X27378933Y-80702320D01*
X27451428Y-80655671D01*
X27500062Y-80584492D01*
X27517172Y-80500000D01*
X27517172Y-78500000D01*
X27502320Y-78421067D01*
X27455671Y-78348572D01*
X27384492Y-78299938D01*
X27300000Y-78282828D01*
X25700000Y-78282828D01*
X25621067Y-78297680D01*
X25548572Y-78344329D01*
X25499938Y-78415508D01*
X25482828Y-78500000D01*
X24986192Y-78500000D01*
X24701095Y-78210216D01*
X24401215Y-78054861D01*
X24201000Y-78133893D01*
X23719000Y-78133893D01*
X23518785Y-78054861D01*
X23218905Y-78210216D01*
X22858275Y-78576776D01*
X22665373Y-79053440D01*
X22388684Y-79053440D01*
X22355890Y-78888578D01*
X22136299Y-78559937D01*
X21807658Y-78340346D01*
X21420000Y-78263236D01*
X21032342Y-78340346D01*
X20703701Y-78559937D01*
X20484110Y-78888578D01*
X20407000Y-79276236D01*
X20407000Y-79723764D01*
X20484110Y-80111422D01*
X20703701Y-80440063D01*
X21032342Y-80659654D01*
X21420000Y-80736764D01*
X21807658Y-80659654D01*
X21983893Y-80541897D01*
X22362000Y-80920004D01*
X22362000Y-81459295D01*
X22355890Y-81428578D01*
X22136299Y-81099937D01*
X21807658Y-80880346D01*
X21420000Y-80803236D01*
X21032342Y-80880346D01*
X20703701Y-81099937D01*
X20484110Y-81428578D01*
X20407000Y-81816236D01*
X20407000Y-82263764D01*
X20484110Y-82651422D01*
X20703701Y-82980063D01*
X21032342Y-83199654D01*
X21420000Y-83276764D01*
X21807658Y-83199654D01*
X21983893Y-83081897D01*
X23140998Y-84239002D01*
X23250653Y-84312271D01*
X23380000Y-84338000D01*
X37312552Y-84338000D01*
X37409030Y-84434646D01*
X37597510Y-84512910D01*
X37801594Y-84513089D01*
X37990211Y-84435154D01*
X38134646Y-84290970D01*
X38212910Y-84102490D01*
X38213089Y-83898406D01*
X38135154Y-83709789D01*
X37990970Y-83565354D01*
X37802490Y-83487090D01*
X37598406Y-83486911D01*
X37409789Y-83564846D01*
X37312466Y-83662000D01*
X37016004Y-83662000D01*
X37240004Y-83438000D01*
X40259996Y-83438000D01*
X40787031Y-83965035D01*
X40786911Y-84101594D01*
X40864846Y-84290211D01*
X41009030Y-84434646D01*
X41197510Y-84512910D01*
X41401594Y-84513089D01*
X41590211Y-84435154D01*
X41734646Y-84290970D01*
X41812910Y-84102490D01*
X41813089Y-83898406D01*
X41735154Y-83709789D01*
X41590970Y-83565354D01*
X41402490Y-83487090D01*
X41264973Y-83486969D01*
X40716004Y-82938000D01*
X42159996Y-82938000D01*
X43187031Y-83965035D01*
X43186911Y-84101594D01*
X43264846Y-84290211D01*
X43409030Y-84434646D01*
X43597510Y-84512910D01*
X43801594Y-84513089D01*
X43990211Y-84435154D01*
X44134646Y-84290970D01*
X44212910Y-84102490D01*
X44213089Y-83898406D01*
X44135154Y-83709789D01*
X43990970Y-83565354D01*
X43802490Y-83487090D01*
X43664973Y-83486969D01*
X42616004Y-82438000D01*
X45259996Y-82438000D01*
X46787031Y-83965035D01*
X46786911Y-84101594D01*
X46864846Y-84290211D01*
X47009030Y-84434646D01*
X47197510Y-84512910D01*
X47401594Y-84513089D01*
X47590211Y-84435154D01*
X47734646Y-84290970D01*
X47812910Y-84102490D01*
X47813089Y-83898406D01*
X47735154Y-83709789D01*
X47590970Y-83565354D01*
X47402490Y-83487090D01*
X47264973Y-83486969D01*
X45639002Y-81860998D01*
X45572011Y-81816236D01*
X54327000Y-81816236D01*
X54327000Y-82263764D01*
X54404110Y-82651422D01*
X54623701Y-82980063D01*
X54952342Y-83199654D01*
X55340000Y-83276764D01*
X55727658Y-83199654D01*
X56056299Y-82980063D01*
X56275890Y-82651422D01*
X56353000Y-82263764D01*
X56353000Y-81816236D01*
X56275890Y-81428578D01*
X56056299Y-81099937D01*
X55727658Y-80880346D01*
X55340000Y-80803236D01*
X54952342Y-80880346D01*
X54623701Y-81099937D01*
X54404110Y-81428578D01*
X54327000Y-81816236D01*
X45572011Y-81816236D01*
X45529347Y-81787729D01*
X45400000Y-81762000D01*
X35140004Y-81762000D01*
X29639002Y-76260998D01*
X29529347Y-76187729D01*
X29400000Y-76162000D01*
X19800000Y-76162000D01*
X19670653Y-76187729D01*
X19560998Y-76260998D01*
X17360998Y-78460998D01*
X17287729Y-78570653D01*
X17262000Y-78700000D01*
X17262000Y-78867790D01*
X17056299Y-78559937D01*
X16727658Y-78340346D01*
X16340000Y-78263236D01*
X15952342Y-78340346D01*
X15623701Y-78559937D01*
X15404110Y-78888578D01*
X15327000Y-79276236D01*
X11288000Y-79276236D01*
X11288000Y-71478908D01*
X34723400Y-71478908D01*
X34723400Y-71521092D01*
X34805351Y-71933089D01*
X35038729Y-72282363D01*
X35388003Y-72515741D01*
X35462000Y-72530460D01*
X35462000Y-75600000D01*
X35487729Y-75729347D01*
X35560998Y-75839002D01*
X40387031Y-80665035D01*
X40386911Y-80801594D01*
X40464846Y-80990211D01*
X40609030Y-81134646D01*
X40797510Y-81212910D01*
X41001594Y-81213089D01*
X41190211Y-81135154D01*
X41334646Y-80990970D01*
X41412910Y-80802490D01*
X41413089Y-80598406D01*
X41335154Y-80409789D01*
X41190970Y-80265354D01*
X41002490Y-80187090D01*
X40864973Y-80186969D01*
X36138000Y-75459996D01*
X36138000Y-72530460D01*
X36211997Y-72515741D01*
X36561271Y-72282363D01*
X36794649Y-71933089D01*
X36876600Y-71521092D01*
X36876600Y-71478908D01*
X37263400Y-71478908D01*
X37263400Y-71521092D01*
X37345351Y-71933089D01*
X37578729Y-72282363D01*
X37928003Y-72515741D01*
X38002000Y-72530460D01*
X38002000Y-75440000D01*
X38027729Y-75569347D01*
X38100998Y-75679002D01*
X43087031Y-80665035D01*
X43086911Y-80801594D01*
X43164846Y-80990211D01*
X43309030Y-81134646D01*
X43497510Y-81212910D01*
X43701594Y-81213089D01*
X43890211Y-81135154D01*
X44034646Y-80990970D01*
X44112910Y-80802490D01*
X44113089Y-80598406D01*
X44035154Y-80409789D01*
X43890970Y-80265354D01*
X43702490Y-80187090D01*
X43564973Y-80186969D01*
X42654240Y-79276236D01*
X54327000Y-79276236D01*
X54327000Y-79723764D01*
X54404110Y-80111422D01*
X54623701Y-80440063D01*
X54952342Y-80659654D01*
X55340000Y-80736764D01*
X55727658Y-80659654D01*
X56056299Y-80440063D01*
X56275890Y-80111422D01*
X56353000Y-79723764D01*
X56353000Y-79276236D01*
X56275890Y-78888578D01*
X56056299Y-78559937D01*
X55727658Y-78340346D01*
X55340000Y-78263236D01*
X54952342Y-78340346D01*
X54623701Y-78559937D01*
X54404110Y-78888578D01*
X54327000Y-79276236D01*
X42654240Y-79276236D01*
X38678000Y-75299996D01*
X38678000Y-75101594D01*
X39786911Y-75101594D01*
X39864846Y-75290211D01*
X40009030Y-75434646D01*
X40197510Y-75512910D01*
X40335027Y-75513031D01*
X42260998Y-77439002D01*
X42370653Y-77512271D01*
X42500000Y-77538000D01*
X55439996Y-77538000D01*
X56918637Y-79016641D01*
X56867000Y-79276236D01*
X56867000Y-79723764D01*
X56944110Y-80111422D01*
X57163701Y-80440063D01*
X57492342Y-80659654D01*
X57880000Y-80736764D01*
X58267658Y-80659654D01*
X58596299Y-80440063D01*
X58762000Y-80192074D01*
X58762000Y-80679996D01*
X58443893Y-80998103D01*
X58267658Y-80880346D01*
X57880000Y-80803236D01*
X57492342Y-80880346D01*
X57163701Y-81099937D01*
X56944110Y-81428578D01*
X56867000Y-81816236D01*
X56867000Y-82263764D01*
X56944110Y-82651422D01*
X57163701Y-82980063D01*
X57492342Y-83199654D01*
X57880000Y-83276764D01*
X58267658Y-83199654D01*
X58596299Y-82980063D01*
X58815890Y-82651422D01*
X58893000Y-82263764D01*
X58893000Y-81816236D01*
X58841363Y-81556641D01*
X59339002Y-81059002D01*
X59365729Y-81019002D01*
X59412271Y-80949347D01*
X59438000Y-80820000D01*
X59438000Y-79879611D01*
X59484110Y-80111422D01*
X59703701Y-80440063D01*
X60032342Y-80659654D01*
X60420000Y-80736764D01*
X60807658Y-80659654D01*
X61136299Y-80440063D01*
X61355890Y-80111422D01*
X61362000Y-80080705D01*
X61362000Y-80619996D01*
X60983893Y-80998103D01*
X60807658Y-80880346D01*
X60420000Y-80803236D01*
X60032342Y-80880346D01*
X59703701Y-81099937D01*
X59484110Y-81428578D01*
X59407000Y-81816236D01*
X59407000Y-82263764D01*
X59484110Y-82651422D01*
X59703701Y-82980063D01*
X60032342Y-83199654D01*
X60420000Y-83276764D01*
X60807658Y-83199654D01*
X61136299Y-82980063D01*
X61355890Y-82651422D01*
X61433000Y-82263764D01*
X61433000Y-81816236D01*
X61381363Y-81556641D01*
X61939002Y-80999002D01*
X62012271Y-80889347D01*
X62038000Y-80760000D01*
X62038000Y-80605904D01*
X62218905Y-80789784D01*
X62494332Y-80932471D01*
X62243701Y-81099937D01*
X62024110Y-81428578D01*
X61947000Y-81816236D01*
X61947000Y-82263764D01*
X62024110Y-82651422D01*
X62243701Y-82980063D01*
X62572342Y-83199654D01*
X62960000Y-83276764D01*
X63347658Y-83199654D01*
X63676299Y-82980063D01*
X63895890Y-82651422D01*
X63973000Y-82263764D01*
X63973000Y-81816236D01*
X64487000Y-81816236D01*
X64487000Y-82263764D01*
X64564110Y-82651422D01*
X64783701Y-82980063D01*
X65112342Y-83199654D01*
X65500000Y-83276764D01*
X65887658Y-83199654D01*
X66216299Y-82980063D01*
X66435890Y-82651422D01*
X66513000Y-82263764D01*
X66513000Y-81816236D01*
X66435890Y-81428578D01*
X66216299Y-81099937D01*
X65887658Y-80880346D01*
X65500000Y-80803236D01*
X65112342Y-80880346D01*
X64783701Y-81099937D01*
X64564110Y-81428578D01*
X64487000Y-81816236D01*
X63973000Y-81816236D01*
X63895890Y-81428578D01*
X63676299Y-81099937D01*
X63425668Y-80932471D01*
X63701095Y-80789784D01*
X64061725Y-80423224D01*
X64254627Y-79946560D01*
X64147008Y-79741000D01*
X63201000Y-79741000D01*
X63201000Y-79761000D01*
X62719000Y-79761000D01*
X62719000Y-79741000D01*
X62699000Y-79741000D01*
X62699000Y-79259000D01*
X62719000Y-79259000D01*
X62719000Y-78133893D01*
X63201000Y-78133893D01*
X63201000Y-79259000D01*
X64147008Y-79259000D01*
X64254627Y-79053440D01*
X64061725Y-78576776D01*
X63986192Y-78500000D01*
X64482828Y-78500000D01*
X64482828Y-80500000D01*
X64497680Y-80578933D01*
X64544329Y-80651428D01*
X64615508Y-80700062D01*
X64700000Y-80717172D01*
X66300000Y-80717172D01*
X66378933Y-80702320D01*
X66451428Y-80655671D01*
X66500062Y-80584492D01*
X66517172Y-80500000D01*
X66517172Y-78500000D01*
X66502320Y-78421067D01*
X66455671Y-78348572D01*
X66384492Y-78299938D01*
X66300000Y-78282828D01*
X64700000Y-78282828D01*
X64621067Y-78297680D01*
X64548572Y-78344329D01*
X64499938Y-78415508D01*
X64482828Y-78500000D01*
X63986192Y-78500000D01*
X63701095Y-78210216D01*
X63401215Y-78054861D01*
X63201000Y-78133893D01*
X62719000Y-78133893D01*
X62518785Y-78054861D01*
X62218905Y-78210216D01*
X62038000Y-78394096D01*
X62038000Y-77800000D01*
X62012271Y-77670653D01*
X61939002Y-77560998D01*
X59139002Y-74760998D01*
X59029347Y-74687729D01*
X58900000Y-74662000D01*
X46687448Y-74662000D01*
X46590970Y-74565354D01*
X46402490Y-74487090D01*
X46198406Y-74486911D01*
X46009789Y-74564846D01*
X45865354Y-74709030D01*
X45787090Y-74897510D01*
X45786911Y-75101594D01*
X45864846Y-75290211D01*
X46009030Y-75434646D01*
X46074906Y-75462000D01*
X44687448Y-75462000D01*
X44590970Y-75365354D01*
X44402490Y-75287090D01*
X44198406Y-75286911D01*
X44009789Y-75364846D01*
X43865354Y-75509030D01*
X43787090Y-75697510D01*
X43786911Y-75901594D01*
X43864846Y-76090211D01*
X43936510Y-76162000D01*
X42940004Y-76162000D01*
X40912969Y-74134965D01*
X40913089Y-73998406D01*
X40835154Y-73809789D01*
X40690970Y-73665354D01*
X40502490Y-73587090D01*
X40298406Y-73586911D01*
X40109789Y-73664846D01*
X39965354Y-73809030D01*
X39887090Y-73997510D01*
X39886911Y-74201594D01*
X39964846Y-74390211D01*
X40101393Y-74526996D01*
X40009789Y-74564846D01*
X39865354Y-74709030D01*
X39787090Y-74897510D01*
X39786911Y-75101594D01*
X38678000Y-75101594D01*
X38678000Y-72530460D01*
X38751997Y-72515741D01*
X39101271Y-72282363D01*
X39334649Y-71933089D01*
X39416600Y-71521092D01*
X39416600Y-71478908D01*
X39803400Y-71478908D01*
X39803400Y-71521092D01*
X39885351Y-71933089D01*
X40118729Y-72282363D01*
X40468003Y-72515741D01*
X40880000Y-72597692D01*
X41291997Y-72515741D01*
X41641271Y-72282363D01*
X41874649Y-71933089D01*
X41956600Y-71521092D01*
X41956600Y-71478908D01*
X42343400Y-71478908D01*
X42343400Y-71521092D01*
X42425351Y-71933089D01*
X42658729Y-72282363D01*
X43008003Y-72515741D01*
X43420000Y-72597692D01*
X43831997Y-72515741D01*
X44181271Y-72282363D01*
X44414649Y-71933089D01*
X44496600Y-71521092D01*
X44496600Y-71478908D01*
X44883400Y-71478908D01*
X44883400Y-71521092D01*
X44965351Y-71933089D01*
X45198729Y-72282363D01*
X45548003Y-72515741D01*
X45960000Y-72597692D01*
X46371997Y-72515741D01*
X46721271Y-72282363D01*
X46954649Y-71933089D01*
X46966949Y-71871250D01*
X47115400Y-71871250D01*
X47115400Y-72467233D01*
X47194717Y-72658722D01*
X47341277Y-72805282D01*
X47532766Y-72884600D01*
X48128750Y-72884600D01*
X48259000Y-72754350D01*
X48259000Y-71741000D01*
X48741000Y-71741000D01*
X48741000Y-72754350D01*
X48871250Y-72884600D01*
X49467234Y-72884600D01*
X49658723Y-72805282D01*
X49805283Y-72658722D01*
X49884600Y-72467233D01*
X49884600Y-71871250D01*
X49754350Y-71741000D01*
X48741000Y-71741000D01*
X48259000Y-71741000D01*
X47245650Y-71741000D01*
X47115400Y-71871250D01*
X46966949Y-71871250D01*
X47036600Y-71521092D01*
X47036600Y-71478908D01*
X46954649Y-71066911D01*
X46721271Y-70717637D01*
X46444595Y-70532767D01*
X47115400Y-70532767D01*
X47115400Y-71128750D01*
X47245650Y-71259000D01*
X48259000Y-71259000D01*
X48259000Y-70245650D01*
X48741000Y-70245650D01*
X48741000Y-71259000D01*
X49754350Y-71259000D01*
X49884600Y-71128750D01*
X49884600Y-70532767D01*
X49805283Y-70341278D01*
X49658723Y-70194718D01*
X49467234Y-70115400D01*
X48871250Y-70115400D01*
X48741000Y-70245650D01*
X48259000Y-70245650D01*
X48128750Y-70115400D01*
X47532766Y-70115400D01*
X47341277Y-70194718D01*
X47194717Y-70341278D01*
X47115400Y-70532767D01*
X46444595Y-70532767D01*
X46371997Y-70484259D01*
X45960000Y-70402308D01*
X45548003Y-70484259D01*
X45198729Y-70717637D01*
X44965351Y-71066911D01*
X44883400Y-71478908D01*
X44496600Y-71478908D01*
X44414649Y-71066911D01*
X44181271Y-70717637D01*
X43831997Y-70484259D01*
X43420000Y-70402308D01*
X43008003Y-70484259D01*
X42658729Y-70717637D01*
X42425351Y-71066911D01*
X42343400Y-71478908D01*
X41956600Y-71478908D01*
X41874649Y-71066911D01*
X41641271Y-70717637D01*
X41291997Y-70484259D01*
X40880000Y-70402308D01*
X40468003Y-70484259D01*
X40118729Y-70717637D01*
X39885351Y-71066911D01*
X39803400Y-71478908D01*
X39416600Y-71478908D01*
X39334649Y-71066911D01*
X39101271Y-70717637D01*
X38751997Y-70484259D01*
X38340000Y-70402308D01*
X37928003Y-70484259D01*
X37578729Y-70717637D01*
X37345351Y-71066911D01*
X37263400Y-71478908D01*
X36876600Y-71478908D01*
X36794649Y-71066911D01*
X36561271Y-70717637D01*
X36211997Y-70484259D01*
X35800000Y-70402308D01*
X35388003Y-70484259D01*
X35038729Y-70717637D01*
X34805351Y-71066911D01*
X34723400Y-71478908D01*
X11288000Y-71478908D01*
X11288000Y-68580000D01*
X11602308Y-68580000D01*
X11684259Y-68991997D01*
X11917637Y-69341271D01*
X12266911Y-69574649D01*
X12678908Y-69656600D01*
X12721092Y-69656600D01*
X13055335Y-69590115D01*
X13792609Y-70327390D01*
X13942817Y-70427756D01*
X13972214Y-70433603D01*
X14120000Y-70463000D01*
X27000000Y-70463000D01*
X27147786Y-70433603D01*
X27177183Y-70427756D01*
X27327390Y-70327390D01*
X28715872Y-68938908D01*
X34723400Y-68938908D01*
X34723400Y-68981092D01*
X34805351Y-69393089D01*
X35038729Y-69742363D01*
X35388003Y-69975741D01*
X35800000Y-70057692D01*
X36211997Y-69975741D01*
X36561271Y-69742363D01*
X36794649Y-69393089D01*
X36876600Y-68981092D01*
X36876600Y-68938908D01*
X37263400Y-68938908D01*
X37263400Y-68981092D01*
X37345351Y-69393089D01*
X37578729Y-69742363D01*
X37928003Y-69975741D01*
X38340000Y-70057692D01*
X38751997Y-69975741D01*
X39101271Y-69742363D01*
X39334649Y-69393089D01*
X39416600Y-68981092D01*
X39416600Y-68938908D01*
X39803400Y-68938908D01*
X39803400Y-68981092D01*
X39885351Y-69393089D01*
X40118729Y-69742363D01*
X40468003Y-69975741D01*
X40880000Y-70057692D01*
X41291997Y-69975741D01*
X41641271Y-69742363D01*
X41874649Y-69393089D01*
X41956600Y-68981092D01*
X41956600Y-68938908D01*
X42343400Y-68938908D01*
X42343400Y-68981092D01*
X42425351Y-69393089D01*
X42658729Y-69742363D01*
X43008003Y-69975741D01*
X43420000Y-70057692D01*
X43831997Y-69975741D01*
X44181271Y-69742363D01*
X44414649Y-69393089D01*
X44496600Y-68981092D01*
X44496600Y-68938908D01*
X44883400Y-68938908D01*
X44883400Y-68981092D01*
X44965351Y-69393089D01*
X45198729Y-69742363D01*
X45548003Y-69975741D01*
X45960000Y-70057692D01*
X46371997Y-69975741D01*
X46721271Y-69742363D01*
X46954649Y-69393089D01*
X47036600Y-68981092D01*
X47036600Y-68938908D01*
X46954649Y-68526911D01*
X46721271Y-68177637D01*
X46371997Y-67944259D01*
X45960000Y-67862308D01*
X45548003Y-67944259D01*
X45198729Y-68177637D01*
X44965351Y-68526911D01*
X44883400Y-68938908D01*
X44496600Y-68938908D01*
X44414649Y-68526911D01*
X44181271Y-68177637D01*
X43831997Y-67944259D01*
X43420000Y-67862308D01*
X43008003Y-67944259D01*
X42658729Y-68177637D01*
X42425351Y-68526911D01*
X42343400Y-68938908D01*
X41956600Y-68938908D01*
X41874649Y-68526911D01*
X41641271Y-68177637D01*
X41291997Y-67944259D01*
X40880000Y-67862308D01*
X40468003Y-67944259D01*
X40118729Y-68177637D01*
X39885351Y-68526911D01*
X39803400Y-68938908D01*
X39416600Y-68938908D01*
X39334649Y-68526911D01*
X39101271Y-68177637D01*
X38751997Y-67944259D01*
X38340000Y-67862308D01*
X37928003Y-67944259D01*
X37578729Y-68177637D01*
X37345351Y-68526911D01*
X37263400Y-68938908D01*
X36876600Y-68938908D01*
X36794649Y-68526911D01*
X36561271Y-68177637D01*
X36211997Y-67944259D01*
X35800000Y-67862308D01*
X35388003Y-67944259D01*
X35038729Y-68177637D01*
X34805351Y-68526911D01*
X34723400Y-68938908D01*
X28715872Y-68938908D01*
X31151781Y-66503000D01*
X45388220Y-66503000D01*
X47489885Y-68604665D01*
X47423400Y-68938908D01*
X47423400Y-68981092D01*
X47505351Y-69393089D01*
X47738729Y-69742363D01*
X48088003Y-69975741D01*
X48500000Y-70057692D01*
X48911997Y-69975741D01*
X49261271Y-69742363D01*
X49494649Y-69393089D01*
X49576600Y-68981092D01*
X49576600Y-68938908D01*
X49494649Y-68526911D01*
X49261271Y-68177637D01*
X48911997Y-67944259D01*
X48500000Y-67862308D01*
X48130572Y-67935791D01*
X45907390Y-65712610D01*
X45838000Y-65666245D01*
X45838000Y-64387448D01*
X45934646Y-64290970D01*
X46012910Y-64102490D01*
X46013089Y-63898406D01*
X45935154Y-63709789D01*
X45790970Y-63565354D01*
X45602490Y-63487090D01*
X45398406Y-63486911D01*
X45209789Y-63564846D01*
X45065354Y-63709030D01*
X44987090Y-63897510D01*
X44986911Y-64101594D01*
X45064846Y-64290211D01*
X45162000Y-64387534D01*
X45162000Y-65577000D01*
X31151781Y-65577000D01*
X28398303Y-62823522D01*
X34803400Y-62823522D01*
X34803400Y-63176478D01*
X34885351Y-63588475D01*
X35118729Y-63937749D01*
X35468003Y-64171127D01*
X35880000Y-64253078D01*
X36291997Y-64171127D01*
X36641271Y-63937749D01*
X36874649Y-63588475D01*
X36956600Y-63176478D01*
X36956600Y-62823522D01*
X37343400Y-62823522D01*
X37343400Y-63176478D01*
X37425351Y-63588475D01*
X37658729Y-63937749D01*
X38008003Y-64171127D01*
X38420000Y-64253078D01*
X38831997Y-64171127D01*
X39181271Y-63937749D01*
X39414649Y-63588475D01*
X39496600Y-63176478D01*
X39496600Y-62823522D01*
X39414649Y-62411525D01*
X39181271Y-62062251D01*
X38831997Y-61828873D01*
X38420000Y-61746922D01*
X38008003Y-61828873D01*
X37658729Y-62062251D01*
X37425351Y-62411525D01*
X37343400Y-62823522D01*
X36956600Y-62823522D01*
X36874649Y-62411525D01*
X36641271Y-62062251D01*
X36291997Y-61828873D01*
X35880000Y-61746922D01*
X35468003Y-61828873D01*
X35118729Y-62062251D01*
X34885351Y-62411525D01*
X34803400Y-62823522D01*
X28398303Y-62823522D01*
X26207390Y-60632610D01*
X26057183Y-60532244D01*
X26027786Y-60526397D01*
X25880000Y-60497000D01*
X24213168Y-60497000D01*
X24210400Y-60482287D01*
X24163751Y-60409792D01*
X24092572Y-60361158D01*
X24008080Y-60344048D01*
X23210520Y-60344048D01*
X23131587Y-60358900D01*
X23059092Y-60405549D01*
X23010458Y-60476728D01*
X22993348Y-60561220D01*
X22993348Y-61358780D01*
X23008200Y-61437713D01*
X23054849Y-61510208D01*
X23126028Y-61558842D01*
X23146300Y-61562947D01*
X23146300Y-62896132D01*
X23131587Y-62898900D01*
X23059092Y-62945549D01*
X23010458Y-63016728D01*
X22993348Y-63101220D01*
X22993348Y-63898780D01*
X23008200Y-63977713D01*
X23054849Y-64050208D01*
X23126028Y-64098842D01*
X23146300Y-64102947D01*
X23146300Y-65436132D01*
X23131587Y-65438900D01*
X23059092Y-65485549D01*
X23010458Y-65556728D01*
X22993348Y-65641220D01*
X22993348Y-66438780D01*
X23008200Y-66517713D01*
X23054849Y-66590208D01*
X23126028Y-66638842D01*
X23146300Y-66642947D01*
X23146300Y-67976132D01*
X23131587Y-67978900D01*
X23059092Y-68025549D01*
X23010458Y-68096728D01*
X22993348Y-68181220D01*
X22993348Y-68978780D01*
X23008200Y-69057713D01*
X23054849Y-69130208D01*
X23126028Y-69178842D01*
X23210520Y-69195952D01*
X24008080Y-69195952D01*
X24087013Y-69181100D01*
X24159508Y-69134451D01*
X24208142Y-69063272D01*
X24225252Y-68978780D01*
X24225252Y-68181220D01*
X24210400Y-68102287D01*
X24163751Y-68029792D01*
X24092572Y-67981158D01*
X24072300Y-67977053D01*
X24072300Y-66643868D01*
X24087013Y-66641100D01*
X24159508Y-66594451D01*
X24208142Y-66523272D01*
X24225252Y-66438780D01*
X24225252Y-65641220D01*
X24210400Y-65562287D01*
X24163751Y-65489792D01*
X24092572Y-65441158D01*
X24072300Y-65437053D01*
X24072300Y-64103868D01*
X24087013Y-64101100D01*
X24159508Y-64054451D01*
X24208142Y-63983272D01*
X24225252Y-63898780D01*
X24225252Y-63101220D01*
X24210400Y-63022287D01*
X24163751Y-62949792D01*
X24092572Y-62901158D01*
X24072300Y-62897053D01*
X24072300Y-61563868D01*
X24087013Y-61561100D01*
X24159508Y-61514451D01*
X24208142Y-61443272D01*
X24212247Y-61423000D01*
X25688220Y-61423000D01*
X30305219Y-66040000D01*
X26808220Y-69537000D01*
X15729435Y-69537000D01*
X16022363Y-69341271D01*
X16255741Y-68991997D01*
X16270460Y-68918000D01*
X17532828Y-68918000D01*
X17532828Y-69080000D01*
X17547680Y-69158933D01*
X17594329Y-69231428D01*
X17665508Y-69280062D01*
X17750000Y-69297172D01*
X18550000Y-69297172D01*
X18628933Y-69282320D01*
X18701428Y-69235671D01*
X18750062Y-69164492D01*
X18767172Y-69080000D01*
X18767172Y-68080000D01*
X19332828Y-68080000D01*
X19332828Y-69080000D01*
X19347680Y-69158933D01*
X19394329Y-69231428D01*
X19465508Y-69280062D01*
X19550000Y-69297172D01*
X20350000Y-69297172D01*
X20428933Y-69282320D01*
X20501428Y-69235671D01*
X20550062Y-69164492D01*
X20567172Y-69080000D01*
X20567172Y-68918000D01*
X21494748Y-68918000D01*
X21494748Y-68978780D01*
X21509600Y-69057713D01*
X21556249Y-69130208D01*
X21627428Y-69178842D01*
X21711920Y-69195952D01*
X22509480Y-69195952D01*
X22588413Y-69181100D01*
X22660908Y-69134451D01*
X22709542Y-69063272D01*
X22726652Y-68978780D01*
X22726652Y-68181220D01*
X22711800Y-68102287D01*
X22665151Y-68029792D01*
X22593972Y-67981158D01*
X22509480Y-67964048D01*
X21711920Y-67964048D01*
X21632987Y-67978900D01*
X21560492Y-68025549D01*
X21511858Y-68096728D01*
X21494748Y-68181220D01*
X21494748Y-68242000D01*
X20567172Y-68242000D01*
X20567172Y-68080000D01*
X20552320Y-68001067D01*
X20505671Y-67928572D01*
X20434492Y-67879938D01*
X20350000Y-67862828D01*
X19550000Y-67862828D01*
X19471067Y-67877680D01*
X19398572Y-67924329D01*
X19349938Y-67995508D01*
X19332828Y-68080000D01*
X18767172Y-68080000D01*
X18752320Y-68001067D01*
X18705671Y-67928572D01*
X18634492Y-67879938D01*
X18550000Y-67862828D01*
X17750000Y-67862828D01*
X17671067Y-67877680D01*
X17598572Y-67924329D01*
X17549938Y-67995508D01*
X17532828Y-68080000D01*
X17532828Y-68242000D01*
X16270460Y-68242000D01*
X16255741Y-68168003D01*
X16022363Y-67818729D01*
X15673089Y-67585351D01*
X15261092Y-67503400D01*
X15218908Y-67503400D01*
X14806911Y-67585351D01*
X14457637Y-67818729D01*
X14224259Y-68168003D01*
X14142308Y-68580000D01*
X14224259Y-68991997D01*
X14457637Y-69341271D01*
X14750565Y-69537000D01*
X14311781Y-69537000D01*
X13724208Y-68949428D01*
X13797692Y-68580000D01*
X13715741Y-68168003D01*
X13482363Y-67818729D01*
X13133089Y-67585351D01*
X12721092Y-67503400D01*
X12678908Y-67503400D01*
X12266911Y-67585351D01*
X11917637Y-67818729D01*
X11684259Y-68168003D01*
X11602308Y-68580000D01*
X11288000Y-68580000D01*
X11288000Y-66040000D01*
X11602308Y-66040000D01*
X11684259Y-66451997D01*
X11917637Y-66801271D01*
X12266911Y-67034649D01*
X12678908Y-67116600D01*
X12721092Y-67116600D01*
X13133089Y-67034649D01*
X13482363Y-66801271D01*
X13715741Y-66451997D01*
X13797692Y-66040000D01*
X14142308Y-66040000D01*
X14224259Y-66451997D01*
X14457637Y-66801271D01*
X14806911Y-67034649D01*
X15218908Y-67116600D01*
X15261092Y-67116600D01*
X15673089Y-67034649D01*
X16022363Y-66801271D01*
X16255741Y-66451997D01*
X16270460Y-66378000D01*
X17532828Y-66378000D01*
X17532828Y-66540000D01*
X17547680Y-66618933D01*
X17594329Y-66691428D01*
X17665508Y-66740062D01*
X17750000Y-66757172D01*
X18550000Y-66757172D01*
X18628933Y-66742320D01*
X18701428Y-66695671D01*
X18750062Y-66624492D01*
X18767172Y-66540000D01*
X18767172Y-65540000D01*
X19332828Y-65540000D01*
X19332828Y-66540000D01*
X19347680Y-66618933D01*
X19394329Y-66691428D01*
X19465508Y-66740062D01*
X19550000Y-66757172D01*
X20350000Y-66757172D01*
X20428933Y-66742320D01*
X20501428Y-66695671D01*
X20550062Y-66624492D01*
X20567172Y-66540000D01*
X20567172Y-66378000D01*
X21494748Y-66378000D01*
X21494748Y-66438780D01*
X21509600Y-66517713D01*
X21556249Y-66590208D01*
X21627428Y-66638842D01*
X21711920Y-66655952D01*
X22509480Y-66655952D01*
X22588413Y-66641100D01*
X22660908Y-66594451D01*
X22709542Y-66523272D01*
X22726652Y-66438780D01*
X22726652Y-65641220D01*
X22711800Y-65562287D01*
X22665151Y-65489792D01*
X22593972Y-65441158D01*
X22509480Y-65424048D01*
X21711920Y-65424048D01*
X21632987Y-65438900D01*
X21560492Y-65485549D01*
X21511858Y-65556728D01*
X21494748Y-65641220D01*
X21494748Y-65702000D01*
X20567172Y-65702000D01*
X20567172Y-65540000D01*
X20552320Y-65461067D01*
X20505671Y-65388572D01*
X20434492Y-65339938D01*
X20350000Y-65322828D01*
X19550000Y-65322828D01*
X19471067Y-65337680D01*
X19398572Y-65384329D01*
X19349938Y-65455508D01*
X19332828Y-65540000D01*
X18767172Y-65540000D01*
X18752320Y-65461067D01*
X18705671Y-65388572D01*
X18634492Y-65339938D01*
X18550000Y-65322828D01*
X17750000Y-65322828D01*
X17671067Y-65337680D01*
X17598572Y-65384329D01*
X17549938Y-65455508D01*
X17532828Y-65540000D01*
X17532828Y-65702000D01*
X16270460Y-65702000D01*
X16255741Y-65628003D01*
X16022363Y-65278729D01*
X15673089Y-65045351D01*
X15261092Y-64963400D01*
X15218908Y-64963400D01*
X14806911Y-65045351D01*
X14457637Y-65278729D01*
X14224259Y-65628003D01*
X14142308Y-66040000D01*
X13797692Y-66040000D01*
X13715741Y-65628003D01*
X13482363Y-65278729D01*
X13133089Y-65045351D01*
X12721092Y-64963400D01*
X12678908Y-64963400D01*
X12266911Y-65045351D01*
X11917637Y-65278729D01*
X11684259Y-65628003D01*
X11602308Y-66040000D01*
X11288000Y-66040000D01*
X11288000Y-63500000D01*
X11602308Y-63500000D01*
X11684259Y-63911997D01*
X11917637Y-64261271D01*
X12266911Y-64494649D01*
X12678908Y-64576600D01*
X12721092Y-64576600D01*
X13133089Y-64494649D01*
X13482363Y-64261271D01*
X13715741Y-63911997D01*
X13797692Y-63500000D01*
X14142308Y-63500000D01*
X14224259Y-63911997D01*
X14457637Y-64261271D01*
X14806911Y-64494649D01*
X15218908Y-64576600D01*
X15261092Y-64576600D01*
X15673089Y-64494649D01*
X16022363Y-64261271D01*
X16255741Y-63911997D01*
X16270460Y-63838000D01*
X17532828Y-63838000D01*
X17532828Y-64000000D01*
X17547680Y-64078933D01*
X17594329Y-64151428D01*
X17665508Y-64200062D01*
X17750000Y-64217172D01*
X18550000Y-64217172D01*
X18628933Y-64202320D01*
X18701428Y-64155671D01*
X18750062Y-64084492D01*
X18767172Y-64000000D01*
X18767172Y-63000000D01*
X19332828Y-63000000D01*
X19332828Y-64000000D01*
X19347680Y-64078933D01*
X19394329Y-64151428D01*
X19465508Y-64200062D01*
X19550000Y-64217172D01*
X20350000Y-64217172D01*
X20428933Y-64202320D01*
X20501428Y-64155671D01*
X20550062Y-64084492D01*
X20567172Y-64000000D01*
X20567172Y-63838000D01*
X21494748Y-63838000D01*
X21494748Y-63898780D01*
X21509600Y-63977713D01*
X21556249Y-64050208D01*
X21627428Y-64098842D01*
X21711920Y-64115952D01*
X22509480Y-64115952D01*
X22588413Y-64101100D01*
X22660908Y-64054451D01*
X22709542Y-63983272D01*
X22726652Y-63898780D01*
X22726652Y-63101220D01*
X22711800Y-63022287D01*
X22665151Y-62949792D01*
X22593972Y-62901158D01*
X22509480Y-62884048D01*
X21711920Y-62884048D01*
X21632987Y-62898900D01*
X21560492Y-62945549D01*
X21511858Y-63016728D01*
X21494748Y-63101220D01*
X21494748Y-63162000D01*
X20567172Y-63162000D01*
X20567172Y-63000000D01*
X20552320Y-62921067D01*
X20505671Y-62848572D01*
X20434492Y-62799938D01*
X20350000Y-62782828D01*
X19550000Y-62782828D01*
X19471067Y-62797680D01*
X19398572Y-62844329D01*
X19349938Y-62915508D01*
X19332828Y-63000000D01*
X18767172Y-63000000D01*
X18752320Y-62921067D01*
X18705671Y-62848572D01*
X18634492Y-62799938D01*
X18550000Y-62782828D01*
X17750000Y-62782828D01*
X17671067Y-62797680D01*
X17598572Y-62844329D01*
X17549938Y-62915508D01*
X17532828Y-63000000D01*
X17532828Y-63162000D01*
X16270460Y-63162000D01*
X16255741Y-63088003D01*
X16022363Y-62738729D01*
X15673089Y-62505351D01*
X15261092Y-62423400D01*
X15218908Y-62423400D01*
X14806911Y-62505351D01*
X14457637Y-62738729D01*
X14224259Y-63088003D01*
X14142308Y-63500000D01*
X13797692Y-63500000D01*
X13715741Y-63088003D01*
X13482363Y-62738729D01*
X13133089Y-62505351D01*
X12721092Y-62423400D01*
X12678908Y-62423400D01*
X12266911Y-62505351D01*
X11917637Y-62738729D01*
X11684259Y-63088003D01*
X11602308Y-63500000D01*
X11288000Y-63500000D01*
X11288000Y-60500000D01*
X11282466Y-60472179D01*
X11282466Y-60443814D01*
X11213362Y-60096400D01*
X11619228Y-60096400D01*
X11619228Y-61823600D01*
X11634080Y-61902533D01*
X11680729Y-61975028D01*
X11751908Y-62023662D01*
X11836400Y-62040772D01*
X13563600Y-62040772D01*
X13642533Y-62025920D01*
X13715028Y-61979271D01*
X13763662Y-61908092D01*
X13780772Y-61823600D01*
X13780772Y-60960000D01*
X14142308Y-60960000D01*
X14224259Y-61371997D01*
X14457637Y-61721271D01*
X14806911Y-61954649D01*
X15218908Y-62036600D01*
X15261092Y-62036600D01*
X15673089Y-61954649D01*
X16022363Y-61721271D01*
X16255741Y-61371997D01*
X16270460Y-61298000D01*
X17532828Y-61298000D01*
X17532828Y-61460000D01*
X17547680Y-61538933D01*
X17594329Y-61611428D01*
X17665508Y-61660062D01*
X17750000Y-61677172D01*
X18550000Y-61677172D01*
X18628933Y-61662320D01*
X18701428Y-61615671D01*
X18750062Y-61544492D01*
X18767172Y-61460000D01*
X18767172Y-60460000D01*
X19332828Y-60460000D01*
X19332828Y-61460000D01*
X19347680Y-61538933D01*
X19394329Y-61611428D01*
X19465508Y-61660062D01*
X19550000Y-61677172D01*
X20350000Y-61677172D01*
X20428933Y-61662320D01*
X20501428Y-61615671D01*
X20550062Y-61544492D01*
X20567172Y-61460000D01*
X20567172Y-61298000D01*
X21494748Y-61298000D01*
X21494748Y-61358780D01*
X21509600Y-61437713D01*
X21556249Y-61510208D01*
X21627428Y-61558842D01*
X21711920Y-61575952D01*
X22509480Y-61575952D01*
X22588413Y-61561100D01*
X22660908Y-61514451D01*
X22709542Y-61443272D01*
X22726652Y-61358780D01*
X22726652Y-60561220D01*
X22711800Y-60482287D01*
X22665151Y-60409792D01*
X22593972Y-60361158D01*
X22509480Y-60344048D01*
X21711920Y-60344048D01*
X21632987Y-60358900D01*
X21560492Y-60405549D01*
X21511858Y-60476728D01*
X21494748Y-60561220D01*
X21494748Y-60622000D01*
X20567172Y-60622000D01*
X20567172Y-60460000D01*
X20552320Y-60381067D01*
X20505671Y-60308572D01*
X20434492Y-60259938D01*
X20350000Y-60242828D01*
X19550000Y-60242828D01*
X19471067Y-60257680D01*
X19398572Y-60304329D01*
X19349938Y-60375508D01*
X19332828Y-60460000D01*
X18767172Y-60460000D01*
X18752320Y-60381067D01*
X18705671Y-60308572D01*
X18634492Y-60259938D01*
X18550000Y-60242828D01*
X17750000Y-60242828D01*
X17671067Y-60257680D01*
X17598572Y-60304329D01*
X17549938Y-60375508D01*
X17532828Y-60460000D01*
X17532828Y-60622000D01*
X16270460Y-60622000D01*
X16255741Y-60548003D01*
X16022363Y-60198729D01*
X15673089Y-59965351D01*
X15261092Y-59883400D01*
X15218908Y-59883400D01*
X14806911Y-59965351D01*
X14457637Y-60198729D01*
X14224259Y-60548003D01*
X14142308Y-60960000D01*
X13780772Y-60960000D01*
X13780772Y-60096400D01*
X13765920Y-60017467D01*
X13719271Y-59944972D01*
X13648092Y-59896338D01*
X13563600Y-59879228D01*
X11836400Y-59879228D01*
X11757467Y-59894080D01*
X11684972Y-59940729D01*
X11636338Y-60011908D01*
X11619228Y-60096400D01*
X11213362Y-60096400D01*
X11013000Y-59089116D01*
X11013000Y-50985684D01*
X27855142Y-50985684D01*
X27939232Y-51181844D01*
X28434190Y-51306478D01*
X28939167Y-51232213D01*
X29060768Y-51181844D01*
X29144858Y-50985684D01*
X28500000Y-50340825D01*
X27855142Y-50985684D01*
X11013000Y-50985684D01*
X11013000Y-50193089D01*
X25614831Y-50193089D01*
X25762954Y-50551571D01*
X26036986Y-50826082D01*
X26395210Y-50974830D01*
X26783089Y-50975169D01*
X27141571Y-50827046D01*
X27381229Y-50587806D01*
X27514316Y-50644858D01*
X28159175Y-50000000D01*
X28840825Y-50000000D01*
X29485684Y-50644858D01*
X29619020Y-50587700D01*
X29856986Y-50826082D01*
X30215210Y-50974830D01*
X30603089Y-50975169D01*
X30827605Y-50882400D01*
X39147828Y-50882400D01*
X39147828Y-51847600D01*
X39162680Y-51926533D01*
X39209329Y-51999028D01*
X39211151Y-52000273D01*
X39164938Y-52067908D01*
X39147828Y-52152400D01*
X39147828Y-53117600D01*
X39162680Y-53196533D01*
X39209329Y-53269028D01*
X39280508Y-53317662D01*
X39365000Y-53334772D01*
X40635000Y-53334772D01*
X40713933Y-53319920D01*
X40786428Y-53273271D01*
X40835062Y-53202092D01*
X40852172Y-53117600D01*
X40852172Y-52152400D01*
X40837320Y-52073467D01*
X40790671Y-52000972D01*
X40788849Y-51999727D01*
X40835062Y-51932092D01*
X40852172Y-51847600D01*
X40852172Y-50882400D01*
X40837320Y-50803467D01*
X40790671Y-50730972D01*
X40719492Y-50682338D01*
X40635000Y-50665228D01*
X39365000Y-50665228D01*
X39286067Y-50680080D01*
X39213572Y-50726729D01*
X39164938Y-50797908D01*
X39147828Y-50882400D01*
X30827605Y-50882400D01*
X30961571Y-50827046D01*
X31236082Y-50553014D01*
X31384830Y-50194790D01*
X31385169Y-49806911D01*
X31347949Y-49716832D01*
X32101781Y-48963000D01*
X39808220Y-48963000D01*
X40687137Y-49841918D01*
X40686859Y-50161006D01*
X40810370Y-50459926D01*
X41037000Y-50686952D01*
X41037000Y-53308219D01*
X40632610Y-53712610D01*
X40532244Y-53862817D01*
X40532244Y-53862818D01*
X40497000Y-54040000D01*
X40497000Y-61862952D01*
X40198729Y-62062251D01*
X39965351Y-62411525D01*
X39883400Y-62823522D01*
X39883400Y-63176478D01*
X39965351Y-63588475D01*
X40198729Y-63937749D01*
X40548003Y-64171127D01*
X40960000Y-64253078D01*
X41371997Y-64171127D01*
X41721271Y-63937749D01*
X41954649Y-63588475D01*
X41997857Y-63371250D01*
X42115400Y-63371250D01*
X42115400Y-64119633D01*
X42194717Y-64311122D01*
X42341277Y-64457682D01*
X42532766Y-64537000D01*
X43128750Y-64537000D01*
X43259000Y-64406750D01*
X43259000Y-63241000D01*
X43741000Y-63241000D01*
X43741000Y-64406750D01*
X43871250Y-64537000D01*
X44467234Y-64537000D01*
X44658723Y-64457682D01*
X44805283Y-64311122D01*
X44884600Y-64119633D01*
X44884600Y-63371250D01*
X44754350Y-63241000D01*
X43741000Y-63241000D01*
X43259000Y-63241000D01*
X42245650Y-63241000D01*
X42115400Y-63371250D01*
X41997857Y-63371250D01*
X42036600Y-63176478D01*
X42036600Y-62823522D01*
X41954649Y-62411525D01*
X41721271Y-62062251D01*
X41449064Y-61880367D01*
X42115400Y-61880367D01*
X42115400Y-62628750D01*
X42245650Y-62759000D01*
X43259000Y-62759000D01*
X43259000Y-61593250D01*
X43741000Y-61593250D01*
X43741000Y-62759000D01*
X44754350Y-62759000D01*
X44884600Y-62628750D01*
X44884600Y-61880367D01*
X44805283Y-61688878D01*
X44658723Y-61542318D01*
X44467234Y-61463000D01*
X43871250Y-61463000D01*
X43741000Y-61593250D01*
X43259000Y-61593250D01*
X43128750Y-61463000D01*
X42532766Y-61463000D01*
X42341277Y-61542318D01*
X42194717Y-61688878D01*
X42115400Y-61880367D01*
X41449064Y-61880367D01*
X41423000Y-61862952D01*
X41423000Y-58015004D01*
X42600004Y-56838000D01*
X44112552Y-56838000D01*
X44209030Y-56934646D01*
X44397510Y-57012910D01*
X44601594Y-57013089D01*
X44790211Y-56935154D01*
X44934646Y-56790970D01*
X45012910Y-56602490D01*
X45013089Y-56398406D01*
X44935154Y-56209789D01*
X44790970Y-56065354D01*
X44602490Y-55987090D01*
X44398406Y-55986911D01*
X44209789Y-56064846D01*
X44112466Y-56162000D01*
X42460000Y-56162000D01*
X42330653Y-56187729D01*
X42220998Y-56260998D01*
X41423000Y-57058996D01*
X41423000Y-54231780D01*
X41827390Y-53827391D01*
X41927756Y-53677183D01*
X41942613Y-53602490D01*
X41963000Y-53500000D01*
X41963000Y-50882400D01*
X42147828Y-50882400D01*
X42147828Y-51847600D01*
X42162680Y-51926533D01*
X42209329Y-51999028D01*
X42211151Y-52000273D01*
X42164938Y-52067908D01*
X42147828Y-52152400D01*
X42147828Y-53117600D01*
X42162680Y-53196533D01*
X42209329Y-53269028D01*
X42280508Y-53317662D01*
X42365000Y-53334772D01*
X43635000Y-53334772D01*
X43713933Y-53319920D01*
X43786428Y-53273271D01*
X43835062Y-53202092D01*
X43852172Y-53117600D01*
X43852172Y-52152400D01*
X43837320Y-52073467D01*
X43790671Y-52000972D01*
X43788849Y-51999727D01*
X43835062Y-51932092D01*
X43852172Y-51847600D01*
X43852172Y-50985684D01*
X53855142Y-50985684D01*
X53939232Y-51181844D01*
X54434190Y-51306478D01*
X54939167Y-51232213D01*
X55060768Y-51181844D01*
X55144858Y-50985684D01*
X54500000Y-50340825D01*
X53855142Y-50985684D01*
X43852172Y-50985684D01*
X43852172Y-50882400D01*
X43837320Y-50803467D01*
X43790671Y-50730972D01*
X43719492Y-50682338D01*
X43635000Y-50665228D01*
X43486859Y-50665228D01*
X43512910Y-50602490D01*
X43513089Y-50398406D01*
X43435154Y-50209789D01*
X43418484Y-50193089D01*
X51614831Y-50193089D01*
X51762954Y-50551571D01*
X52036986Y-50826082D01*
X52395210Y-50974830D01*
X52783089Y-50975169D01*
X53141571Y-50827046D01*
X53381229Y-50587806D01*
X53514316Y-50644858D01*
X54159175Y-50000000D01*
X53514316Y-49355142D01*
X53380980Y-49412300D01*
X53143014Y-49173918D01*
X52784790Y-49025170D01*
X52396911Y-49024831D01*
X52038429Y-49172954D01*
X51763918Y-49446986D01*
X51615170Y-49805210D01*
X51614831Y-50193089D01*
X43418484Y-50193089D01*
X43290970Y-50065354D01*
X43102490Y-49987090D01*
X42898406Y-49986911D01*
X42709789Y-50064846D01*
X42565354Y-50209030D01*
X42487090Y-50397510D01*
X42486911Y-50601594D01*
X42513204Y-50665228D01*
X42365000Y-50665228D01*
X42286067Y-50680080D01*
X42213572Y-50726729D01*
X42164938Y-50797908D01*
X42147828Y-50882400D01*
X41963000Y-50882400D01*
X41963000Y-50686561D01*
X42188826Y-50461129D01*
X42312859Y-50162425D01*
X42313139Y-49841642D01*
X43191781Y-48963000D01*
X53877140Y-48963000D01*
X53855142Y-49014316D01*
X54500000Y-49659175D01*
X54514142Y-49645032D01*
X54854968Y-49985858D01*
X54840825Y-50000000D01*
X55485684Y-50644858D01*
X55619020Y-50587700D01*
X55856986Y-50826082D01*
X56215210Y-50974830D01*
X56603089Y-50975169D01*
X56961571Y-50827046D01*
X57236082Y-50553014D01*
X57384830Y-50194790D01*
X57385169Y-49806911D01*
X57237046Y-49448429D01*
X56963014Y-49173918D01*
X56604790Y-49025170D01*
X56216911Y-49024831D01*
X56126832Y-49062051D01*
X55237390Y-48172610D01*
X55087183Y-48072244D01*
X55057786Y-48066397D01*
X54910000Y-48037000D01*
X43000000Y-48037000D01*
X42852214Y-48066397D01*
X42822817Y-48072244D01*
X42672609Y-48172610D01*
X41658082Y-49187137D01*
X41341642Y-49186861D01*
X40327390Y-48172610D01*
X40177183Y-48072244D01*
X40147786Y-48066397D01*
X40000000Y-48037000D01*
X31910000Y-48037000D01*
X31762214Y-48066397D01*
X31732817Y-48072244D01*
X31582609Y-48172610D01*
X30693298Y-49061922D01*
X30604790Y-49025170D01*
X30216911Y-49024831D01*
X29858429Y-49172954D01*
X29618771Y-49412194D01*
X29485684Y-49355142D01*
X28840825Y-50000000D01*
X28159175Y-50000000D01*
X27514316Y-49355142D01*
X27380980Y-49412300D01*
X27143014Y-49173918D01*
X26784790Y-49025170D01*
X26396911Y-49024831D01*
X26038429Y-49172954D01*
X25763918Y-49446986D01*
X25615170Y-49805210D01*
X25614831Y-50193089D01*
X11013000Y-50193089D01*
X11013000Y-49666335D01*
X11988815Y-49014316D01*
X27855142Y-49014316D01*
X28500000Y-49659175D01*
X29144858Y-49014316D01*
X29060768Y-48818156D01*
X28565810Y-48693522D01*
X28060833Y-48767787D01*
X27939232Y-48818156D01*
X27855142Y-49014316D01*
X11988815Y-49014316D01*
X12256198Y-48835657D01*
X12335657Y-48756198D01*
X12832246Y-48013000D01*
X55994616Y-48013000D01*
X57987000Y-50005384D01*
X57987000Y-50005384D01*
G37*
X57987000Y-50005384D02*
X57987000Y-58500000D01*
X57988024Y-58505058D01*
X57990808Y-58509192D01*
X62490808Y-63009192D01*
X62495108Y-63012045D01*
X62500000Y-63013000D01*
X70712000Y-63013000D01*
X70712000Y-84712000D01*
X11288000Y-84712000D01*
X11288000Y-81816236D01*
X15327000Y-81816236D01*
X15327000Y-82263764D01*
X15404110Y-82651422D01*
X15623701Y-82980063D01*
X15952342Y-83199654D01*
X16340000Y-83276764D01*
X16727658Y-83199654D01*
X17056299Y-82980063D01*
X17275890Y-82651422D01*
X17353000Y-82263764D01*
X17353000Y-81816236D01*
X17275890Y-81428578D01*
X17056299Y-81099937D01*
X16727658Y-80880346D01*
X16340000Y-80803236D01*
X15952342Y-80880346D01*
X15623701Y-81099937D01*
X15404110Y-81428578D01*
X15327000Y-81816236D01*
X11288000Y-81816236D01*
X11288000Y-79276236D01*
X15327000Y-79276236D01*
X15327000Y-79723764D01*
X15404110Y-80111422D01*
X15623701Y-80440063D01*
X15952342Y-80659654D01*
X16340000Y-80736764D01*
X16727658Y-80659654D01*
X17056299Y-80440063D01*
X17262000Y-80132210D01*
X17262000Y-80760000D01*
X17287729Y-80889347D01*
X17360998Y-80999002D01*
X17918637Y-81556641D01*
X17867000Y-81816236D01*
X17867000Y-82263764D01*
X17944110Y-82651422D01*
X18163701Y-82980063D01*
X18492342Y-83199654D01*
X18880000Y-83276764D01*
X19267658Y-83199654D01*
X19596299Y-82980063D01*
X19815890Y-82651422D01*
X19893000Y-82263764D01*
X19893000Y-81816236D01*
X19815890Y-81428578D01*
X19596299Y-81099937D01*
X19267658Y-80880346D01*
X18880000Y-80803236D01*
X18492342Y-80880346D01*
X18316107Y-80998103D01*
X17938000Y-80619996D01*
X17938000Y-80080705D01*
X17944110Y-80111422D01*
X18163701Y-80440063D01*
X18492342Y-80659654D01*
X18880000Y-80736764D01*
X19267658Y-80659654D01*
X19596299Y-80440063D01*
X19815890Y-80111422D01*
X19893000Y-79723764D01*
X19893000Y-79276236D01*
X19841363Y-79016641D01*
X21520004Y-77338000D01*
X29059996Y-77338000D01*
X34560998Y-82839002D01*
X34670653Y-82912271D01*
X34800000Y-82938000D01*
X36783996Y-82938000D01*
X36559996Y-83162000D01*
X26944011Y-83162000D01*
X27216299Y-82980063D01*
X27435890Y-82651422D01*
X27513000Y-82263764D01*
X27513000Y-81816236D01*
X27435890Y-81428578D01*
X27216299Y-81099937D01*
X26887658Y-80880346D01*
X26500000Y-80803236D01*
X26112342Y-80880346D01*
X25783701Y-81099937D01*
X25564110Y-81428578D01*
X25487000Y-81816236D01*
X25487000Y-82263764D01*
X25564110Y-82651422D01*
X25783701Y-82980063D01*
X26055989Y-83162000D01*
X24404011Y-83162000D01*
X24676299Y-82980063D01*
X24895890Y-82651422D01*
X24973000Y-82263764D01*
X24973000Y-81816236D01*
X24895890Y-81428578D01*
X24676299Y-81099937D01*
X24425668Y-80932471D01*
X24701095Y-80789784D01*
X25061725Y-80423224D01*
X25254627Y-79946560D01*
X25147008Y-79741000D01*
X24201000Y-79741000D01*
X24201000Y-79761000D01*
X23719000Y-79761000D01*
X23719000Y-79741000D01*
X22772992Y-79741000D01*
X22665373Y-79946560D01*
X22858275Y-80423224D01*
X23218905Y-80789784D01*
X23494332Y-80932471D01*
X23243701Y-81099937D01*
X23038000Y-81407790D01*
X23038000Y-80780000D01*
X23012271Y-80650653D01*
X22939002Y-80540998D01*
X22381363Y-79983359D01*
X22433000Y-79723764D01*
X22433000Y-79276236D01*
X22388684Y-79053440D01*
X22665373Y-79053440D01*
X22772992Y-79259000D01*
X23719000Y-79259000D01*
X23719000Y-78133893D01*
X24201000Y-78133893D01*
X24201000Y-79259000D01*
X25147008Y-79259000D01*
X25254627Y-79053440D01*
X25061725Y-78576776D01*
X24986192Y-78500000D01*
X25482828Y-78500000D01*
X25482828Y-80500000D01*
X25497680Y-80578933D01*
X25544329Y-80651428D01*
X25615508Y-80700062D01*
X25700000Y-80717172D01*
X27300000Y-80717172D01*
X27378933Y-80702320D01*
X27451428Y-80655671D01*
X27500062Y-80584492D01*
X27517172Y-80500000D01*
X27517172Y-78500000D01*
X27502320Y-78421067D01*
X27455671Y-78348572D01*
X27384492Y-78299938D01*
X27300000Y-78282828D01*
X25700000Y-78282828D01*
X25621067Y-78297680D01*
X25548572Y-78344329D01*
X25499938Y-78415508D01*
X25482828Y-78500000D01*
X24986192Y-78500000D01*
X24701095Y-78210216D01*
X24401215Y-78054861D01*
X24201000Y-78133893D01*
X23719000Y-78133893D01*
X23518785Y-78054861D01*
X23218905Y-78210216D01*
X22858275Y-78576776D01*
X22665373Y-79053440D01*
X22388684Y-79053440D01*
X22355890Y-78888578D01*
X22136299Y-78559937D01*
X21807658Y-78340346D01*
X21420000Y-78263236D01*
X21032342Y-78340346D01*
X20703701Y-78559937D01*
X20484110Y-78888578D01*
X20407000Y-79276236D01*
X20407000Y-79723764D01*
X20484110Y-80111422D01*
X20703701Y-80440063D01*
X21032342Y-80659654D01*
X21420000Y-80736764D01*
X21807658Y-80659654D01*
X21983893Y-80541897D01*
X22362000Y-80920004D01*
X22362000Y-81459295D01*
X22355890Y-81428578D01*
X22136299Y-81099937D01*
X21807658Y-80880346D01*
X21420000Y-80803236D01*
X21032342Y-80880346D01*
X20703701Y-81099937D01*
X20484110Y-81428578D01*
X20407000Y-81816236D01*
X20407000Y-82263764D01*
X20484110Y-82651422D01*
X20703701Y-82980063D01*
X21032342Y-83199654D01*
X21420000Y-83276764D01*
X21807658Y-83199654D01*
X21983893Y-83081897D01*
X23140998Y-84239002D01*
X23250653Y-84312271D01*
X23380000Y-84338000D01*
X37312552Y-84338000D01*
X37409030Y-84434646D01*
X37597510Y-84512910D01*
X37801594Y-84513089D01*
X37990211Y-84435154D01*
X38134646Y-84290970D01*
X38212910Y-84102490D01*
X38213089Y-83898406D01*
X38135154Y-83709789D01*
X37990970Y-83565354D01*
X37802490Y-83487090D01*
X37598406Y-83486911D01*
X37409789Y-83564846D01*
X37312466Y-83662000D01*
X37016004Y-83662000D01*
X37240004Y-83438000D01*
X40259996Y-83438000D01*
X40787031Y-83965035D01*
X40786911Y-84101594D01*
X40864846Y-84290211D01*
X41009030Y-84434646D01*
X41197510Y-84512910D01*
X41401594Y-84513089D01*
X41590211Y-84435154D01*
X41734646Y-84290970D01*
X41812910Y-84102490D01*
X41813089Y-83898406D01*
X41735154Y-83709789D01*
X41590970Y-83565354D01*
X41402490Y-83487090D01*
X41264973Y-83486969D01*
X40716004Y-82938000D01*
X42159996Y-82938000D01*
X43187031Y-83965035D01*
X43186911Y-84101594D01*
X43264846Y-84290211D01*
X43409030Y-84434646D01*
X43597510Y-84512910D01*
X43801594Y-84513089D01*
X43990211Y-84435154D01*
X44134646Y-84290970D01*
X44212910Y-84102490D01*
X44213089Y-83898406D01*
X44135154Y-83709789D01*
X43990970Y-83565354D01*
X43802490Y-83487090D01*
X43664973Y-83486969D01*
X42616004Y-82438000D01*
X45259996Y-82438000D01*
X46787031Y-83965035D01*
X46786911Y-84101594D01*
X46864846Y-84290211D01*
X47009030Y-84434646D01*
X47197510Y-84512910D01*
X47401594Y-84513089D01*
X47590211Y-84435154D01*
X47734646Y-84290970D01*
X47812910Y-84102490D01*
X47813089Y-83898406D01*
X47735154Y-83709789D01*
X47590970Y-83565354D01*
X47402490Y-83487090D01*
X47264973Y-83486969D01*
X45639002Y-81860998D01*
X45572011Y-81816236D01*
X54327000Y-81816236D01*
X54327000Y-82263764D01*
X54404110Y-82651422D01*
X54623701Y-82980063D01*
X54952342Y-83199654D01*
X55340000Y-83276764D01*
X55727658Y-83199654D01*
X56056299Y-82980063D01*
X56275890Y-82651422D01*
X56353000Y-82263764D01*
X56353000Y-81816236D01*
X56275890Y-81428578D01*
X56056299Y-81099937D01*
X55727658Y-80880346D01*
X55340000Y-80803236D01*
X54952342Y-80880346D01*
X54623701Y-81099937D01*
X54404110Y-81428578D01*
X54327000Y-81816236D01*
X45572011Y-81816236D01*
X45529347Y-81787729D01*
X45400000Y-81762000D01*
X35140004Y-81762000D01*
X29639002Y-76260998D01*
X29529347Y-76187729D01*
X29400000Y-76162000D01*
X19800000Y-76162000D01*
X19670653Y-76187729D01*
X19560998Y-76260998D01*
X17360998Y-78460998D01*
X17287729Y-78570653D01*
X17262000Y-78700000D01*
X17262000Y-78867790D01*
X17056299Y-78559937D01*
X16727658Y-78340346D01*
X16340000Y-78263236D01*
X15952342Y-78340346D01*
X15623701Y-78559937D01*
X15404110Y-78888578D01*
X15327000Y-79276236D01*
X11288000Y-79276236D01*
X11288000Y-71478908D01*
X34723400Y-71478908D01*
X34723400Y-71521092D01*
X34805351Y-71933089D01*
X35038729Y-72282363D01*
X35388003Y-72515741D01*
X35462000Y-72530460D01*
X35462000Y-75600000D01*
X35487729Y-75729347D01*
X35560998Y-75839002D01*
X40387031Y-80665035D01*
X40386911Y-80801594D01*
X40464846Y-80990211D01*
X40609030Y-81134646D01*
X40797510Y-81212910D01*
X41001594Y-81213089D01*
X41190211Y-81135154D01*
X41334646Y-80990970D01*
X41412910Y-80802490D01*
X41413089Y-80598406D01*
X41335154Y-80409789D01*
X41190970Y-80265354D01*
X41002490Y-80187090D01*
X40864973Y-80186969D01*
X36138000Y-75459996D01*
X36138000Y-72530460D01*
X36211997Y-72515741D01*
X36561271Y-72282363D01*
X36794649Y-71933089D01*
X36876600Y-71521092D01*
X36876600Y-71478908D01*
X37263400Y-71478908D01*
X37263400Y-71521092D01*
X37345351Y-71933089D01*
X37578729Y-72282363D01*
X37928003Y-72515741D01*
X38002000Y-72530460D01*
X38002000Y-75440000D01*
X38027729Y-75569347D01*
X38100998Y-75679002D01*
X43087031Y-80665035D01*
X43086911Y-80801594D01*
X43164846Y-80990211D01*
X43309030Y-81134646D01*
X43497510Y-81212910D01*
X43701594Y-81213089D01*
X43890211Y-81135154D01*
X44034646Y-80990970D01*
X44112910Y-80802490D01*
X44113089Y-80598406D01*
X44035154Y-80409789D01*
X43890970Y-80265354D01*
X43702490Y-80187090D01*
X43564973Y-80186969D01*
X42654240Y-79276236D01*
X54327000Y-79276236D01*
X54327000Y-79723764D01*
X54404110Y-80111422D01*
X54623701Y-80440063D01*
X54952342Y-80659654D01*
X55340000Y-80736764D01*
X55727658Y-80659654D01*
X56056299Y-80440063D01*
X56275890Y-80111422D01*
X56353000Y-79723764D01*
X56353000Y-79276236D01*
X56275890Y-78888578D01*
X56056299Y-78559937D01*
X55727658Y-78340346D01*
X55340000Y-78263236D01*
X54952342Y-78340346D01*
X54623701Y-78559937D01*
X54404110Y-78888578D01*
X54327000Y-79276236D01*
X42654240Y-79276236D01*
X38678000Y-75299996D01*
X38678000Y-75101594D01*
X39786911Y-75101594D01*
X39864846Y-75290211D01*
X40009030Y-75434646D01*
X40197510Y-75512910D01*
X40335027Y-75513031D01*
X42260998Y-77439002D01*
X42370653Y-77512271D01*
X42500000Y-77538000D01*
X55439996Y-77538000D01*
X56918637Y-79016641D01*
X56867000Y-79276236D01*
X56867000Y-79723764D01*
X56944110Y-80111422D01*
X57163701Y-80440063D01*
X57492342Y-80659654D01*
X57880000Y-80736764D01*
X58267658Y-80659654D01*
X58596299Y-80440063D01*
X58762000Y-80192074D01*
X58762000Y-80679996D01*
X58443893Y-80998103D01*
X58267658Y-80880346D01*
X57880000Y-80803236D01*
X57492342Y-80880346D01*
X57163701Y-81099937D01*
X56944110Y-81428578D01*
X56867000Y-81816236D01*
X56867000Y-82263764D01*
X56944110Y-82651422D01*
X57163701Y-82980063D01*
X57492342Y-83199654D01*
X57880000Y-83276764D01*
X58267658Y-83199654D01*
X58596299Y-82980063D01*
X58815890Y-82651422D01*
X58893000Y-82263764D01*
X58893000Y-81816236D01*
X58841363Y-81556641D01*
X59339002Y-81059002D01*
X59365729Y-81019002D01*
X59412271Y-80949347D01*
X59438000Y-80820000D01*
X59438000Y-79879611D01*
X59484110Y-80111422D01*
X59703701Y-80440063D01*
X60032342Y-80659654D01*
X60420000Y-80736764D01*
X60807658Y-80659654D01*
X61136299Y-80440063D01*
X61355890Y-80111422D01*
X61362000Y-80080705D01*
X61362000Y-80619996D01*
X60983893Y-80998103D01*
X60807658Y-80880346D01*
X60420000Y-80803236D01*
X60032342Y-80880346D01*
X59703701Y-81099937D01*
X59484110Y-81428578D01*
X59407000Y-81816236D01*
X59407000Y-82263764D01*
X59484110Y-82651422D01*
X59703701Y-82980063D01*
X60032342Y-83199654D01*
X60420000Y-83276764D01*
X60807658Y-83199654D01*
X61136299Y-82980063D01*
X61355890Y-82651422D01*
X61433000Y-82263764D01*
X61433000Y-81816236D01*
X61381363Y-81556641D01*
X61939002Y-80999002D01*
X62012271Y-80889347D01*
X62038000Y-80760000D01*
X62038000Y-80605904D01*
X62218905Y-80789784D01*
X62494332Y-80932471D01*
X62243701Y-81099937D01*
X62024110Y-81428578D01*
X61947000Y-81816236D01*
X61947000Y-82263764D01*
X62024110Y-82651422D01*
X62243701Y-82980063D01*
X62572342Y-83199654D01*
X62960000Y-83276764D01*
X63347658Y-83199654D01*
X63676299Y-82980063D01*
X63895890Y-82651422D01*
X63973000Y-82263764D01*
X63973000Y-81816236D01*
X64487000Y-81816236D01*
X64487000Y-82263764D01*
X64564110Y-82651422D01*
X64783701Y-82980063D01*
X65112342Y-83199654D01*
X65500000Y-83276764D01*
X65887658Y-83199654D01*
X66216299Y-82980063D01*
X66435890Y-82651422D01*
X66513000Y-82263764D01*
X66513000Y-81816236D01*
X66435890Y-81428578D01*
X66216299Y-81099937D01*
X65887658Y-80880346D01*
X65500000Y-80803236D01*
X65112342Y-80880346D01*
X64783701Y-81099937D01*
X64564110Y-81428578D01*
X64487000Y-81816236D01*
X63973000Y-81816236D01*
X63895890Y-81428578D01*
X63676299Y-81099937D01*
X63425668Y-80932471D01*
X63701095Y-80789784D01*
X64061725Y-80423224D01*
X64254627Y-79946560D01*
X64147008Y-79741000D01*
X63201000Y-79741000D01*
X63201000Y-79761000D01*
X62719000Y-79761000D01*
X62719000Y-79741000D01*
X62699000Y-79741000D01*
X62699000Y-79259000D01*
X62719000Y-79259000D01*
X62719000Y-78133893D01*
X63201000Y-78133893D01*
X63201000Y-79259000D01*
X64147008Y-79259000D01*
X64254627Y-79053440D01*
X64061725Y-78576776D01*
X63986192Y-78500000D01*
X64482828Y-78500000D01*
X64482828Y-80500000D01*
X64497680Y-80578933D01*
X64544329Y-80651428D01*
X64615508Y-80700062D01*
X64700000Y-80717172D01*
X66300000Y-80717172D01*
X66378933Y-80702320D01*
X66451428Y-80655671D01*
X66500062Y-80584492D01*
X66517172Y-80500000D01*
X66517172Y-78500000D01*
X66502320Y-78421067D01*
X66455671Y-78348572D01*
X66384492Y-78299938D01*
X66300000Y-78282828D01*
X64700000Y-78282828D01*
X64621067Y-78297680D01*
X64548572Y-78344329D01*
X64499938Y-78415508D01*
X64482828Y-78500000D01*
X63986192Y-78500000D01*
X63701095Y-78210216D01*
X63401215Y-78054861D01*
X63201000Y-78133893D01*
X62719000Y-78133893D01*
X62518785Y-78054861D01*
X62218905Y-78210216D01*
X62038000Y-78394096D01*
X62038000Y-77800000D01*
X62012271Y-77670653D01*
X61939002Y-77560998D01*
X59139002Y-74760998D01*
X59029347Y-74687729D01*
X58900000Y-74662000D01*
X46687448Y-74662000D01*
X46590970Y-74565354D01*
X46402490Y-74487090D01*
X46198406Y-74486911D01*
X46009789Y-74564846D01*
X45865354Y-74709030D01*
X45787090Y-74897510D01*
X45786911Y-75101594D01*
X45864846Y-75290211D01*
X46009030Y-75434646D01*
X46074906Y-75462000D01*
X44687448Y-75462000D01*
X44590970Y-75365354D01*
X44402490Y-75287090D01*
X44198406Y-75286911D01*
X44009789Y-75364846D01*
X43865354Y-75509030D01*
X43787090Y-75697510D01*
X43786911Y-75901594D01*
X43864846Y-76090211D01*
X43936510Y-76162000D01*
X42940004Y-76162000D01*
X40912969Y-74134965D01*
X40913089Y-73998406D01*
X40835154Y-73809789D01*
X40690970Y-73665354D01*
X40502490Y-73587090D01*
X40298406Y-73586911D01*
X40109789Y-73664846D01*
X39965354Y-73809030D01*
X39887090Y-73997510D01*
X39886911Y-74201594D01*
X39964846Y-74390211D01*
X40101393Y-74526996D01*
X40009789Y-74564846D01*
X39865354Y-74709030D01*
X39787090Y-74897510D01*
X39786911Y-75101594D01*
X38678000Y-75101594D01*
X38678000Y-72530460D01*
X38751997Y-72515741D01*
X39101271Y-72282363D01*
X39334649Y-71933089D01*
X39416600Y-71521092D01*
X39416600Y-71478908D01*
X39803400Y-71478908D01*
X39803400Y-71521092D01*
X39885351Y-71933089D01*
X40118729Y-72282363D01*
X40468003Y-72515741D01*
X40880000Y-72597692D01*
X41291997Y-72515741D01*
X41641271Y-72282363D01*
X41874649Y-71933089D01*
X41956600Y-71521092D01*
X41956600Y-71478908D01*
X42343400Y-71478908D01*
X42343400Y-71521092D01*
X42425351Y-71933089D01*
X42658729Y-72282363D01*
X43008003Y-72515741D01*
X43420000Y-72597692D01*
X43831997Y-72515741D01*
X44181271Y-72282363D01*
X44414649Y-71933089D01*
X44496600Y-71521092D01*
X44496600Y-71478908D01*
X44883400Y-71478908D01*
X44883400Y-71521092D01*
X44965351Y-71933089D01*
X45198729Y-72282363D01*
X45548003Y-72515741D01*
X45960000Y-72597692D01*
X46371997Y-72515741D01*
X46721271Y-72282363D01*
X46954649Y-71933089D01*
X46966949Y-71871250D01*
X47115400Y-71871250D01*
X47115400Y-72467233D01*
X47194717Y-72658722D01*
X47341277Y-72805282D01*
X47532766Y-72884600D01*
X48128750Y-72884600D01*
X48259000Y-72754350D01*
X48259000Y-71741000D01*
X48741000Y-71741000D01*
X48741000Y-72754350D01*
X48871250Y-72884600D01*
X49467234Y-72884600D01*
X49658723Y-72805282D01*
X49805283Y-72658722D01*
X49884600Y-72467233D01*
X49884600Y-71871250D01*
X49754350Y-71741000D01*
X48741000Y-71741000D01*
X48259000Y-71741000D01*
X47245650Y-71741000D01*
X47115400Y-71871250D01*
X46966949Y-71871250D01*
X47036600Y-71521092D01*
X47036600Y-71478908D01*
X46954649Y-71066911D01*
X46721271Y-70717637D01*
X46444595Y-70532767D01*
X47115400Y-70532767D01*
X47115400Y-71128750D01*
X47245650Y-71259000D01*
X48259000Y-71259000D01*
X48259000Y-70245650D01*
X48741000Y-70245650D01*
X48741000Y-71259000D01*
X49754350Y-71259000D01*
X49884600Y-71128750D01*
X49884600Y-70532767D01*
X49805283Y-70341278D01*
X49658723Y-70194718D01*
X49467234Y-70115400D01*
X48871250Y-70115400D01*
X48741000Y-70245650D01*
X48259000Y-70245650D01*
X48128750Y-70115400D01*
X47532766Y-70115400D01*
X47341277Y-70194718D01*
X47194717Y-70341278D01*
X47115400Y-70532767D01*
X46444595Y-70532767D01*
X46371997Y-70484259D01*
X45960000Y-70402308D01*
X45548003Y-70484259D01*
X45198729Y-70717637D01*
X44965351Y-71066911D01*
X44883400Y-71478908D01*
X44496600Y-71478908D01*
X44414649Y-71066911D01*
X44181271Y-70717637D01*
X43831997Y-70484259D01*
X43420000Y-70402308D01*
X43008003Y-70484259D01*
X42658729Y-70717637D01*
X42425351Y-71066911D01*
X42343400Y-71478908D01*
X41956600Y-71478908D01*
X41874649Y-71066911D01*
X41641271Y-70717637D01*
X41291997Y-70484259D01*
X40880000Y-70402308D01*
X40468003Y-70484259D01*
X40118729Y-70717637D01*
X39885351Y-71066911D01*
X39803400Y-71478908D01*
X39416600Y-71478908D01*
X39334649Y-71066911D01*
X39101271Y-70717637D01*
X38751997Y-70484259D01*
X38340000Y-70402308D01*
X37928003Y-70484259D01*
X37578729Y-70717637D01*
X37345351Y-71066911D01*
X37263400Y-71478908D01*
X36876600Y-71478908D01*
X36794649Y-71066911D01*
X36561271Y-70717637D01*
X36211997Y-70484259D01*
X35800000Y-70402308D01*
X35388003Y-70484259D01*
X35038729Y-70717637D01*
X34805351Y-71066911D01*
X34723400Y-71478908D01*
X11288000Y-71478908D01*
X11288000Y-68580000D01*
X11602308Y-68580000D01*
X11684259Y-68991997D01*
X11917637Y-69341271D01*
X12266911Y-69574649D01*
X12678908Y-69656600D01*
X12721092Y-69656600D01*
X13055335Y-69590115D01*
X13792609Y-70327390D01*
X13942817Y-70427756D01*
X13972214Y-70433603D01*
X14120000Y-70463000D01*
X27000000Y-70463000D01*
X27147786Y-70433603D01*
X27177183Y-70427756D01*
X27327390Y-70327390D01*
X28715872Y-68938908D01*
X34723400Y-68938908D01*
X34723400Y-68981092D01*
X34805351Y-69393089D01*
X35038729Y-69742363D01*
X35388003Y-69975741D01*
X35800000Y-70057692D01*
X36211997Y-69975741D01*
X36561271Y-69742363D01*
X36794649Y-69393089D01*
X36876600Y-68981092D01*
X36876600Y-68938908D01*
X37263400Y-68938908D01*
X37263400Y-68981092D01*
X37345351Y-69393089D01*
X37578729Y-69742363D01*
X37928003Y-69975741D01*
X38340000Y-70057692D01*
X38751997Y-69975741D01*
X39101271Y-69742363D01*
X39334649Y-69393089D01*
X39416600Y-68981092D01*
X39416600Y-68938908D01*
X39803400Y-68938908D01*
X39803400Y-68981092D01*
X39885351Y-69393089D01*
X40118729Y-69742363D01*
X40468003Y-69975741D01*
X40880000Y-70057692D01*
X41291997Y-69975741D01*
X41641271Y-69742363D01*
X41874649Y-69393089D01*
X41956600Y-68981092D01*
X41956600Y-68938908D01*
X42343400Y-68938908D01*
X42343400Y-68981092D01*
X42425351Y-69393089D01*
X42658729Y-69742363D01*
X43008003Y-69975741D01*
X43420000Y-70057692D01*
X43831997Y-69975741D01*
X44181271Y-69742363D01*
X44414649Y-69393089D01*
X44496600Y-68981092D01*
X44496600Y-68938908D01*
X44883400Y-68938908D01*
X44883400Y-68981092D01*
X44965351Y-69393089D01*
X45198729Y-69742363D01*
X45548003Y-69975741D01*
X45960000Y-70057692D01*
X46371997Y-69975741D01*
X46721271Y-69742363D01*
X46954649Y-69393089D01*
X47036600Y-68981092D01*
X47036600Y-68938908D01*
X46954649Y-68526911D01*
X46721271Y-68177637D01*
X46371997Y-67944259D01*
X45960000Y-67862308D01*
X45548003Y-67944259D01*
X45198729Y-68177637D01*
X44965351Y-68526911D01*
X44883400Y-68938908D01*
X44496600Y-68938908D01*
X44414649Y-68526911D01*
X44181271Y-68177637D01*
X43831997Y-67944259D01*
X43420000Y-67862308D01*
X43008003Y-67944259D01*
X42658729Y-68177637D01*
X42425351Y-68526911D01*
X42343400Y-68938908D01*
X41956600Y-68938908D01*
X41874649Y-68526911D01*
X41641271Y-68177637D01*
X41291997Y-67944259D01*
X40880000Y-67862308D01*
X40468003Y-67944259D01*
X40118729Y-68177637D01*
X39885351Y-68526911D01*
X39803400Y-68938908D01*
X39416600Y-68938908D01*
X39334649Y-68526911D01*
X39101271Y-68177637D01*
X38751997Y-67944259D01*
X38340000Y-67862308D01*
X37928003Y-67944259D01*
X37578729Y-68177637D01*
X37345351Y-68526911D01*
X37263400Y-68938908D01*
X36876600Y-68938908D01*
X36794649Y-68526911D01*
X36561271Y-68177637D01*
X36211997Y-67944259D01*
X35800000Y-67862308D01*
X35388003Y-67944259D01*
X35038729Y-68177637D01*
X34805351Y-68526911D01*
X34723400Y-68938908D01*
X28715872Y-68938908D01*
X31151781Y-66503000D01*
X45388220Y-66503000D01*
X47489885Y-68604665D01*
X47423400Y-68938908D01*
X47423400Y-68981092D01*
X47505351Y-69393089D01*
X47738729Y-69742363D01*
X48088003Y-69975741D01*
X48500000Y-70057692D01*
X48911997Y-69975741D01*
X49261271Y-69742363D01*
X49494649Y-69393089D01*
X49576600Y-68981092D01*
X49576600Y-68938908D01*
X49494649Y-68526911D01*
X49261271Y-68177637D01*
X48911997Y-67944259D01*
X48500000Y-67862308D01*
X48130572Y-67935791D01*
X45907390Y-65712610D01*
X45838000Y-65666245D01*
X45838000Y-64387448D01*
X45934646Y-64290970D01*
X46012910Y-64102490D01*
X46013089Y-63898406D01*
X45935154Y-63709789D01*
X45790970Y-63565354D01*
X45602490Y-63487090D01*
X45398406Y-63486911D01*
X45209789Y-63564846D01*
X45065354Y-63709030D01*
X44987090Y-63897510D01*
X44986911Y-64101594D01*
X45064846Y-64290211D01*
X45162000Y-64387534D01*
X45162000Y-65577000D01*
X31151781Y-65577000D01*
X28398303Y-62823522D01*
X34803400Y-62823522D01*
X34803400Y-63176478D01*
X34885351Y-63588475D01*
X35118729Y-63937749D01*
X35468003Y-64171127D01*
X35880000Y-64253078D01*
X36291997Y-64171127D01*
X36641271Y-63937749D01*
X36874649Y-63588475D01*
X36956600Y-63176478D01*
X36956600Y-62823522D01*
X37343400Y-62823522D01*
X37343400Y-63176478D01*
X37425351Y-63588475D01*
X37658729Y-63937749D01*
X38008003Y-64171127D01*
X38420000Y-64253078D01*
X38831997Y-64171127D01*
X39181271Y-63937749D01*
X39414649Y-63588475D01*
X39496600Y-63176478D01*
X39496600Y-62823522D01*
X39414649Y-62411525D01*
X39181271Y-62062251D01*
X38831997Y-61828873D01*
X38420000Y-61746922D01*
X38008003Y-61828873D01*
X37658729Y-62062251D01*
X37425351Y-62411525D01*
X37343400Y-62823522D01*
X36956600Y-62823522D01*
X36874649Y-62411525D01*
X36641271Y-62062251D01*
X36291997Y-61828873D01*
X35880000Y-61746922D01*
X35468003Y-61828873D01*
X35118729Y-62062251D01*
X34885351Y-62411525D01*
X34803400Y-62823522D01*
X28398303Y-62823522D01*
X26207390Y-60632610D01*
X26057183Y-60532244D01*
X26027786Y-60526397D01*
X25880000Y-60497000D01*
X24213168Y-60497000D01*
X24210400Y-60482287D01*
X24163751Y-60409792D01*
X24092572Y-60361158D01*
X24008080Y-60344048D01*
X23210520Y-60344048D01*
X23131587Y-60358900D01*
X23059092Y-60405549D01*
X23010458Y-60476728D01*
X22993348Y-60561220D01*
X22993348Y-61358780D01*
X23008200Y-61437713D01*
X23054849Y-61510208D01*
X23126028Y-61558842D01*
X23146300Y-61562947D01*
X23146300Y-62896132D01*
X23131587Y-62898900D01*
X23059092Y-62945549D01*
X23010458Y-63016728D01*
X22993348Y-63101220D01*
X22993348Y-63898780D01*
X23008200Y-63977713D01*
X23054849Y-64050208D01*
X23126028Y-64098842D01*
X23146300Y-64102947D01*
X23146300Y-65436132D01*
X23131587Y-65438900D01*
X23059092Y-65485549D01*
X23010458Y-65556728D01*
X22993348Y-65641220D01*
X22993348Y-66438780D01*
X23008200Y-66517713D01*
X23054849Y-66590208D01*
X23126028Y-66638842D01*
X23146300Y-66642947D01*
X23146300Y-67976132D01*
X23131587Y-67978900D01*
X23059092Y-68025549D01*
X23010458Y-68096728D01*
X22993348Y-68181220D01*
X22993348Y-68978780D01*
X23008200Y-69057713D01*
X23054849Y-69130208D01*
X23126028Y-69178842D01*
X23210520Y-69195952D01*
X24008080Y-69195952D01*
X24087013Y-69181100D01*
X24159508Y-69134451D01*
X24208142Y-69063272D01*
X24225252Y-68978780D01*
X24225252Y-68181220D01*
X24210400Y-68102287D01*
X24163751Y-68029792D01*
X24092572Y-67981158D01*
X24072300Y-67977053D01*
X24072300Y-66643868D01*
X24087013Y-66641100D01*
X24159508Y-66594451D01*
X24208142Y-66523272D01*
X24225252Y-66438780D01*
X24225252Y-65641220D01*
X24210400Y-65562287D01*
X24163751Y-65489792D01*
X24092572Y-65441158D01*
X24072300Y-65437053D01*
X24072300Y-64103868D01*
X24087013Y-64101100D01*
X24159508Y-64054451D01*
X24208142Y-63983272D01*
X24225252Y-63898780D01*
X24225252Y-63101220D01*
X24210400Y-63022287D01*
X24163751Y-62949792D01*
X24092572Y-62901158D01*
X24072300Y-62897053D01*
X24072300Y-61563868D01*
X24087013Y-61561100D01*
X24159508Y-61514451D01*
X24208142Y-61443272D01*
X24212247Y-61423000D01*
X25688220Y-61423000D01*
X30305219Y-66040000D01*
X26808220Y-69537000D01*
X15729435Y-69537000D01*
X16022363Y-69341271D01*
X16255741Y-68991997D01*
X16270460Y-68918000D01*
X17532828Y-68918000D01*
X17532828Y-69080000D01*
X17547680Y-69158933D01*
X17594329Y-69231428D01*
X17665508Y-69280062D01*
X17750000Y-69297172D01*
X18550000Y-69297172D01*
X18628933Y-69282320D01*
X18701428Y-69235671D01*
X18750062Y-69164492D01*
X18767172Y-69080000D01*
X18767172Y-68080000D01*
X19332828Y-68080000D01*
X19332828Y-69080000D01*
X19347680Y-69158933D01*
X19394329Y-69231428D01*
X19465508Y-69280062D01*
X19550000Y-69297172D01*
X20350000Y-69297172D01*
X20428933Y-69282320D01*
X20501428Y-69235671D01*
X20550062Y-69164492D01*
X20567172Y-69080000D01*
X20567172Y-68918000D01*
X21494748Y-68918000D01*
X21494748Y-68978780D01*
X21509600Y-69057713D01*
X21556249Y-69130208D01*
X21627428Y-69178842D01*
X21711920Y-69195952D01*
X22509480Y-69195952D01*
X22588413Y-69181100D01*
X22660908Y-69134451D01*
X22709542Y-69063272D01*
X22726652Y-68978780D01*
X22726652Y-68181220D01*
X22711800Y-68102287D01*
X22665151Y-68029792D01*
X22593972Y-67981158D01*
X22509480Y-67964048D01*
X21711920Y-67964048D01*
X21632987Y-67978900D01*
X21560492Y-68025549D01*
X21511858Y-68096728D01*
X21494748Y-68181220D01*
X21494748Y-68242000D01*
X20567172Y-68242000D01*
X20567172Y-68080000D01*
X20552320Y-68001067D01*
X20505671Y-67928572D01*
X20434492Y-67879938D01*
X20350000Y-67862828D01*
X19550000Y-67862828D01*
X19471067Y-67877680D01*
X19398572Y-67924329D01*
X19349938Y-67995508D01*
X19332828Y-68080000D01*
X18767172Y-68080000D01*
X18752320Y-68001067D01*
X18705671Y-67928572D01*
X18634492Y-67879938D01*
X18550000Y-67862828D01*
X17750000Y-67862828D01*
X17671067Y-67877680D01*
X17598572Y-67924329D01*
X17549938Y-67995508D01*
X17532828Y-68080000D01*
X17532828Y-68242000D01*
X16270460Y-68242000D01*
X16255741Y-68168003D01*
X16022363Y-67818729D01*
X15673089Y-67585351D01*
X15261092Y-67503400D01*
X15218908Y-67503400D01*
X14806911Y-67585351D01*
X14457637Y-67818729D01*
X14224259Y-68168003D01*
X14142308Y-68580000D01*
X14224259Y-68991997D01*
X14457637Y-69341271D01*
X14750565Y-69537000D01*
X14311781Y-69537000D01*
X13724208Y-68949428D01*
X13797692Y-68580000D01*
X13715741Y-68168003D01*
X13482363Y-67818729D01*
X13133089Y-67585351D01*
X12721092Y-67503400D01*
X12678908Y-67503400D01*
X12266911Y-67585351D01*
X11917637Y-67818729D01*
X11684259Y-68168003D01*
X11602308Y-68580000D01*
X11288000Y-68580000D01*
X11288000Y-66040000D01*
X11602308Y-66040000D01*
X11684259Y-66451997D01*
X11917637Y-66801271D01*
X12266911Y-67034649D01*
X12678908Y-67116600D01*
X12721092Y-67116600D01*
X13133089Y-67034649D01*
X13482363Y-66801271D01*
X13715741Y-66451997D01*
X13797692Y-66040000D01*
X14142308Y-66040000D01*
X14224259Y-66451997D01*
X14457637Y-66801271D01*
X14806911Y-67034649D01*
X15218908Y-67116600D01*
X15261092Y-67116600D01*
X15673089Y-67034649D01*
X16022363Y-66801271D01*
X16255741Y-66451997D01*
X16270460Y-66378000D01*
X17532828Y-66378000D01*
X17532828Y-66540000D01*
X17547680Y-66618933D01*
X17594329Y-66691428D01*
X17665508Y-66740062D01*
X17750000Y-66757172D01*
X18550000Y-66757172D01*
X18628933Y-66742320D01*
X18701428Y-66695671D01*
X18750062Y-66624492D01*
X18767172Y-66540000D01*
X18767172Y-65540000D01*
X19332828Y-65540000D01*
X19332828Y-66540000D01*
X19347680Y-66618933D01*
X19394329Y-66691428D01*
X19465508Y-66740062D01*
X19550000Y-66757172D01*
X20350000Y-66757172D01*
X20428933Y-66742320D01*
X20501428Y-66695671D01*
X20550062Y-66624492D01*
X20567172Y-66540000D01*
X20567172Y-66378000D01*
X21494748Y-66378000D01*
X21494748Y-66438780D01*
X21509600Y-66517713D01*
X21556249Y-66590208D01*
X21627428Y-66638842D01*
X21711920Y-66655952D01*
X22509480Y-66655952D01*
X22588413Y-66641100D01*
X22660908Y-66594451D01*
X22709542Y-66523272D01*
X22726652Y-66438780D01*
X22726652Y-65641220D01*
X22711800Y-65562287D01*
X22665151Y-65489792D01*
X22593972Y-65441158D01*
X22509480Y-65424048D01*
X21711920Y-65424048D01*
X21632987Y-65438900D01*
X21560492Y-65485549D01*
X21511858Y-65556728D01*
X21494748Y-65641220D01*
X21494748Y-65702000D01*
X20567172Y-65702000D01*
X20567172Y-65540000D01*
X20552320Y-65461067D01*
X20505671Y-65388572D01*
X20434492Y-65339938D01*
X20350000Y-65322828D01*
X19550000Y-65322828D01*
X19471067Y-65337680D01*
X19398572Y-65384329D01*
X19349938Y-65455508D01*
X19332828Y-65540000D01*
X18767172Y-65540000D01*
X18752320Y-65461067D01*
X18705671Y-65388572D01*
X18634492Y-65339938D01*
X18550000Y-65322828D01*
X17750000Y-65322828D01*
X17671067Y-65337680D01*
X17598572Y-65384329D01*
X17549938Y-65455508D01*
X17532828Y-65540000D01*
X17532828Y-65702000D01*
X16270460Y-65702000D01*
X16255741Y-65628003D01*
X16022363Y-65278729D01*
X15673089Y-65045351D01*
X15261092Y-64963400D01*
X15218908Y-64963400D01*
X14806911Y-65045351D01*
X14457637Y-65278729D01*
X14224259Y-65628003D01*
X14142308Y-66040000D01*
X13797692Y-66040000D01*
X13715741Y-65628003D01*
X13482363Y-65278729D01*
X13133089Y-65045351D01*
X12721092Y-64963400D01*
X12678908Y-64963400D01*
X12266911Y-65045351D01*
X11917637Y-65278729D01*
X11684259Y-65628003D01*
X11602308Y-66040000D01*
X11288000Y-66040000D01*
X11288000Y-63500000D01*
X11602308Y-63500000D01*
X11684259Y-63911997D01*
X11917637Y-64261271D01*
X12266911Y-64494649D01*
X12678908Y-64576600D01*
X12721092Y-64576600D01*
X13133089Y-64494649D01*
X13482363Y-64261271D01*
X13715741Y-63911997D01*
X13797692Y-63500000D01*
X14142308Y-63500000D01*
X14224259Y-63911997D01*
X14457637Y-64261271D01*
X14806911Y-64494649D01*
X15218908Y-64576600D01*
X15261092Y-64576600D01*
X15673089Y-64494649D01*
X16022363Y-64261271D01*
X16255741Y-63911997D01*
X16270460Y-63838000D01*
X17532828Y-63838000D01*
X17532828Y-64000000D01*
X17547680Y-64078933D01*
X17594329Y-64151428D01*
X17665508Y-64200062D01*
X17750000Y-64217172D01*
X18550000Y-64217172D01*
X18628933Y-64202320D01*
X18701428Y-64155671D01*
X18750062Y-64084492D01*
X18767172Y-64000000D01*
X18767172Y-63000000D01*
X19332828Y-63000000D01*
X19332828Y-64000000D01*
X19347680Y-64078933D01*
X19394329Y-64151428D01*
X19465508Y-64200062D01*
X19550000Y-64217172D01*
X20350000Y-64217172D01*
X20428933Y-64202320D01*
X20501428Y-64155671D01*
X20550062Y-64084492D01*
X20567172Y-64000000D01*
X20567172Y-63838000D01*
X21494748Y-63838000D01*
X21494748Y-63898780D01*
X21509600Y-63977713D01*
X21556249Y-64050208D01*
X21627428Y-64098842D01*
X21711920Y-64115952D01*
X22509480Y-64115952D01*
X22588413Y-64101100D01*
X22660908Y-64054451D01*
X22709542Y-63983272D01*
X22726652Y-63898780D01*
X22726652Y-63101220D01*
X22711800Y-63022287D01*
X22665151Y-62949792D01*
X22593972Y-62901158D01*
X22509480Y-62884048D01*
X21711920Y-62884048D01*
X21632987Y-62898900D01*
X21560492Y-62945549D01*
X21511858Y-63016728D01*
X21494748Y-63101220D01*
X21494748Y-63162000D01*
X20567172Y-63162000D01*
X20567172Y-63000000D01*
X20552320Y-62921067D01*
X20505671Y-62848572D01*
X20434492Y-62799938D01*
X20350000Y-62782828D01*
X19550000Y-62782828D01*
X19471067Y-62797680D01*
X19398572Y-62844329D01*
X19349938Y-62915508D01*
X19332828Y-63000000D01*
X18767172Y-63000000D01*
X18752320Y-62921067D01*
X18705671Y-62848572D01*
X18634492Y-62799938D01*
X18550000Y-62782828D01*
X17750000Y-62782828D01*
X17671067Y-62797680D01*
X17598572Y-62844329D01*
X17549938Y-62915508D01*
X17532828Y-63000000D01*
X17532828Y-63162000D01*
X16270460Y-63162000D01*
X16255741Y-63088003D01*
X16022363Y-62738729D01*
X15673089Y-62505351D01*
X15261092Y-62423400D01*
X15218908Y-62423400D01*
X14806911Y-62505351D01*
X14457637Y-62738729D01*
X14224259Y-63088003D01*
X14142308Y-63500000D01*
X13797692Y-63500000D01*
X13715741Y-63088003D01*
X13482363Y-62738729D01*
X13133089Y-62505351D01*
X12721092Y-62423400D01*
X12678908Y-62423400D01*
X12266911Y-62505351D01*
X11917637Y-62738729D01*
X11684259Y-63088003D01*
X11602308Y-63500000D01*
X11288000Y-63500000D01*
X11288000Y-60500000D01*
X11282466Y-60472179D01*
X11282466Y-60443814D01*
X11213362Y-60096400D01*
X11619228Y-60096400D01*
X11619228Y-61823600D01*
X11634080Y-61902533D01*
X11680729Y-61975028D01*
X11751908Y-62023662D01*
X11836400Y-62040772D01*
X13563600Y-62040772D01*
X13642533Y-62025920D01*
X13715028Y-61979271D01*
X13763662Y-61908092D01*
X13780772Y-61823600D01*
X13780772Y-60960000D01*
X14142308Y-60960000D01*
X14224259Y-61371997D01*
X14457637Y-61721271D01*
X14806911Y-61954649D01*
X15218908Y-62036600D01*
X15261092Y-62036600D01*
X15673089Y-61954649D01*
X16022363Y-61721271D01*
X16255741Y-61371997D01*
X16270460Y-61298000D01*
X17532828Y-61298000D01*
X17532828Y-61460000D01*
X17547680Y-61538933D01*
X17594329Y-61611428D01*
X17665508Y-61660062D01*
X17750000Y-61677172D01*
X18550000Y-61677172D01*
X18628933Y-61662320D01*
X18701428Y-61615671D01*
X18750062Y-61544492D01*
X18767172Y-61460000D01*
X18767172Y-60460000D01*
X19332828Y-60460000D01*
X19332828Y-61460000D01*
X19347680Y-61538933D01*
X19394329Y-61611428D01*
X19465508Y-61660062D01*
X19550000Y-61677172D01*
X20350000Y-61677172D01*
X20428933Y-61662320D01*
X20501428Y-61615671D01*
X20550062Y-61544492D01*
X20567172Y-61460000D01*
X20567172Y-61298000D01*
X21494748Y-61298000D01*
X21494748Y-61358780D01*
X21509600Y-61437713D01*
X21556249Y-61510208D01*
X21627428Y-61558842D01*
X21711920Y-61575952D01*
X22509480Y-61575952D01*
X22588413Y-61561100D01*
X22660908Y-61514451D01*
X22709542Y-61443272D01*
X22726652Y-61358780D01*
X22726652Y-60561220D01*
X22711800Y-60482287D01*
X22665151Y-60409792D01*
X22593972Y-60361158D01*
X22509480Y-60344048D01*
X21711920Y-60344048D01*
X21632987Y-60358900D01*
X21560492Y-60405549D01*
X21511858Y-60476728D01*
X21494748Y-60561220D01*
X21494748Y-60622000D01*
X20567172Y-60622000D01*
X20567172Y-60460000D01*
X20552320Y-60381067D01*
X20505671Y-60308572D01*
X20434492Y-60259938D01*
X20350000Y-60242828D01*
X19550000Y-60242828D01*
X19471067Y-60257680D01*
X19398572Y-60304329D01*
X19349938Y-60375508D01*
X19332828Y-60460000D01*
X18767172Y-60460000D01*
X18752320Y-60381067D01*
X18705671Y-60308572D01*
X18634492Y-60259938D01*
X18550000Y-60242828D01*
X17750000Y-60242828D01*
X17671067Y-60257680D01*
X17598572Y-60304329D01*
X17549938Y-60375508D01*
X17532828Y-60460000D01*
X17532828Y-60622000D01*
X16270460Y-60622000D01*
X16255741Y-60548003D01*
X16022363Y-60198729D01*
X15673089Y-59965351D01*
X15261092Y-59883400D01*
X15218908Y-59883400D01*
X14806911Y-59965351D01*
X14457637Y-60198729D01*
X14224259Y-60548003D01*
X14142308Y-60960000D01*
X13780772Y-60960000D01*
X13780772Y-60096400D01*
X13765920Y-60017467D01*
X13719271Y-59944972D01*
X13648092Y-59896338D01*
X13563600Y-59879228D01*
X11836400Y-59879228D01*
X11757467Y-59894080D01*
X11684972Y-59940729D01*
X11636338Y-60011908D01*
X11619228Y-60096400D01*
X11213362Y-60096400D01*
X11013000Y-59089116D01*
X11013000Y-50985684D01*
X27855142Y-50985684D01*
X27939232Y-51181844D01*
X28434190Y-51306478D01*
X28939167Y-51232213D01*
X29060768Y-51181844D01*
X29144858Y-50985684D01*
X28500000Y-50340825D01*
X27855142Y-50985684D01*
X11013000Y-50985684D01*
X11013000Y-50193089D01*
X25614831Y-50193089D01*
X25762954Y-50551571D01*
X26036986Y-50826082D01*
X26395210Y-50974830D01*
X26783089Y-50975169D01*
X27141571Y-50827046D01*
X27381229Y-50587806D01*
X27514316Y-50644858D01*
X28159175Y-50000000D01*
X28840825Y-50000000D01*
X29485684Y-50644858D01*
X29619020Y-50587700D01*
X29856986Y-50826082D01*
X30215210Y-50974830D01*
X30603089Y-50975169D01*
X30827605Y-50882400D01*
X39147828Y-50882400D01*
X39147828Y-51847600D01*
X39162680Y-51926533D01*
X39209329Y-51999028D01*
X39211151Y-52000273D01*
X39164938Y-52067908D01*
X39147828Y-52152400D01*
X39147828Y-53117600D01*
X39162680Y-53196533D01*
X39209329Y-53269028D01*
X39280508Y-53317662D01*
X39365000Y-53334772D01*
X40635000Y-53334772D01*
X40713933Y-53319920D01*
X40786428Y-53273271D01*
X40835062Y-53202092D01*
X40852172Y-53117600D01*
X40852172Y-52152400D01*
X40837320Y-52073467D01*
X40790671Y-52000972D01*
X40788849Y-51999727D01*
X40835062Y-51932092D01*
X40852172Y-51847600D01*
X40852172Y-50882400D01*
X40837320Y-50803467D01*
X40790671Y-50730972D01*
X40719492Y-50682338D01*
X40635000Y-50665228D01*
X39365000Y-50665228D01*
X39286067Y-50680080D01*
X39213572Y-50726729D01*
X39164938Y-50797908D01*
X39147828Y-50882400D01*
X30827605Y-50882400D01*
X30961571Y-50827046D01*
X31236082Y-50553014D01*
X31384830Y-50194790D01*
X31385169Y-49806911D01*
X31347949Y-49716832D01*
X32101781Y-48963000D01*
X39808220Y-48963000D01*
X40687137Y-49841918D01*
X40686859Y-50161006D01*
X40810370Y-50459926D01*
X41037000Y-50686952D01*
X41037000Y-53308219D01*
X40632610Y-53712610D01*
X40532244Y-53862817D01*
X40532244Y-53862818D01*
X40497000Y-54040000D01*
X40497000Y-61862952D01*
X40198729Y-62062251D01*
X39965351Y-62411525D01*
X39883400Y-62823522D01*
X39883400Y-63176478D01*
X39965351Y-63588475D01*
X40198729Y-63937749D01*
X40548003Y-64171127D01*
X40960000Y-64253078D01*
X41371997Y-64171127D01*
X41721271Y-63937749D01*
X41954649Y-63588475D01*
X41997857Y-63371250D01*
X42115400Y-63371250D01*
X42115400Y-64119633D01*
X42194717Y-64311122D01*
X42341277Y-64457682D01*
X42532766Y-64537000D01*
X43128750Y-64537000D01*
X43259000Y-64406750D01*
X43259000Y-63241000D01*
X43741000Y-63241000D01*
X43741000Y-64406750D01*
X43871250Y-64537000D01*
X44467234Y-64537000D01*
X44658723Y-64457682D01*
X44805283Y-64311122D01*
X44884600Y-64119633D01*
X44884600Y-63371250D01*
X44754350Y-63241000D01*
X43741000Y-63241000D01*
X43259000Y-63241000D01*
X42245650Y-63241000D01*
X42115400Y-63371250D01*
X41997857Y-63371250D01*
X42036600Y-63176478D01*
X42036600Y-62823522D01*
X41954649Y-62411525D01*
X41721271Y-62062251D01*
X41449064Y-61880367D01*
X42115400Y-61880367D01*
X42115400Y-62628750D01*
X42245650Y-62759000D01*
X43259000Y-62759000D01*
X43259000Y-61593250D01*
X43741000Y-61593250D01*
X43741000Y-62759000D01*
X44754350Y-62759000D01*
X44884600Y-62628750D01*
X44884600Y-61880367D01*
X44805283Y-61688878D01*
X44658723Y-61542318D01*
X44467234Y-61463000D01*
X43871250Y-61463000D01*
X43741000Y-61593250D01*
X43259000Y-61593250D01*
X43128750Y-61463000D01*
X42532766Y-61463000D01*
X42341277Y-61542318D01*
X42194717Y-61688878D01*
X42115400Y-61880367D01*
X41449064Y-61880367D01*
X41423000Y-61862952D01*
X41423000Y-58015004D01*
X42600004Y-56838000D01*
X44112552Y-56838000D01*
X44209030Y-56934646D01*
X44397510Y-57012910D01*
X44601594Y-57013089D01*
X44790211Y-56935154D01*
X44934646Y-56790970D01*
X45012910Y-56602490D01*
X45013089Y-56398406D01*
X44935154Y-56209789D01*
X44790970Y-56065354D01*
X44602490Y-55987090D01*
X44398406Y-55986911D01*
X44209789Y-56064846D01*
X44112466Y-56162000D01*
X42460000Y-56162000D01*
X42330653Y-56187729D01*
X42220998Y-56260998D01*
X41423000Y-57058996D01*
X41423000Y-54231780D01*
X41827390Y-53827391D01*
X41927756Y-53677183D01*
X41942613Y-53602490D01*
X41963000Y-53500000D01*
X41963000Y-50882400D01*
X42147828Y-50882400D01*
X42147828Y-51847600D01*
X42162680Y-51926533D01*
X42209329Y-51999028D01*
X42211151Y-52000273D01*
X42164938Y-52067908D01*
X42147828Y-52152400D01*
X42147828Y-53117600D01*
X42162680Y-53196533D01*
X42209329Y-53269028D01*
X42280508Y-53317662D01*
X42365000Y-53334772D01*
X43635000Y-53334772D01*
X43713933Y-53319920D01*
X43786428Y-53273271D01*
X43835062Y-53202092D01*
X43852172Y-53117600D01*
X43852172Y-52152400D01*
X43837320Y-52073467D01*
X43790671Y-52000972D01*
X43788849Y-51999727D01*
X43835062Y-51932092D01*
X43852172Y-51847600D01*
X43852172Y-50985684D01*
X53855142Y-50985684D01*
X53939232Y-51181844D01*
X54434190Y-51306478D01*
X54939167Y-51232213D01*
X55060768Y-51181844D01*
X55144858Y-50985684D01*
X54500000Y-50340825D01*
X53855142Y-50985684D01*
X43852172Y-50985684D01*
X43852172Y-50882400D01*
X43837320Y-50803467D01*
X43790671Y-50730972D01*
X43719492Y-50682338D01*
X43635000Y-50665228D01*
X43486859Y-50665228D01*
X43512910Y-50602490D01*
X43513089Y-50398406D01*
X43435154Y-50209789D01*
X43418484Y-50193089D01*
X51614831Y-50193089D01*
X51762954Y-50551571D01*
X52036986Y-50826082D01*
X52395210Y-50974830D01*
X52783089Y-50975169D01*
X53141571Y-50827046D01*
X53381229Y-50587806D01*
X53514316Y-50644858D01*
X54159175Y-50000000D01*
X53514316Y-49355142D01*
X53380980Y-49412300D01*
X53143014Y-49173918D01*
X52784790Y-49025170D01*
X52396911Y-49024831D01*
X52038429Y-49172954D01*
X51763918Y-49446986D01*
X51615170Y-49805210D01*
X51614831Y-50193089D01*
X43418484Y-50193089D01*
X43290970Y-50065354D01*
X43102490Y-49987090D01*
X42898406Y-49986911D01*
X42709789Y-50064846D01*
X42565354Y-50209030D01*
X42487090Y-50397510D01*
X42486911Y-50601594D01*
X42513204Y-50665228D01*
X42365000Y-50665228D01*
X42286067Y-50680080D01*
X42213572Y-50726729D01*
X42164938Y-50797908D01*
X42147828Y-50882400D01*
X41963000Y-50882400D01*
X41963000Y-50686561D01*
X42188826Y-50461129D01*
X42312859Y-50162425D01*
X42313139Y-49841642D01*
X43191781Y-48963000D01*
X53877140Y-48963000D01*
X53855142Y-49014316D01*
X54500000Y-49659175D01*
X54514142Y-49645032D01*
X54854968Y-49985858D01*
X54840825Y-50000000D01*
X55485684Y-50644858D01*
X55619020Y-50587700D01*
X55856986Y-50826082D01*
X56215210Y-50974830D01*
X56603089Y-50975169D01*
X56961571Y-50827046D01*
X57236082Y-50553014D01*
X57384830Y-50194790D01*
X57385169Y-49806911D01*
X57237046Y-49448429D01*
X56963014Y-49173918D01*
X56604790Y-49025170D01*
X56216911Y-49024831D01*
X56126832Y-49062051D01*
X55237390Y-48172610D01*
X55087183Y-48072244D01*
X55057786Y-48066397D01*
X54910000Y-48037000D01*
X43000000Y-48037000D01*
X42852214Y-48066397D01*
X42822817Y-48072244D01*
X42672609Y-48172610D01*
X41658082Y-49187137D01*
X41341642Y-49186861D01*
X40327390Y-48172610D01*
X40177183Y-48072244D01*
X40147786Y-48066397D01*
X40000000Y-48037000D01*
X31910000Y-48037000D01*
X31762214Y-48066397D01*
X31732817Y-48072244D01*
X31582609Y-48172610D01*
X30693298Y-49061922D01*
X30604790Y-49025170D01*
X30216911Y-49024831D01*
X29858429Y-49172954D01*
X29618771Y-49412194D01*
X29485684Y-49355142D01*
X28840825Y-50000000D01*
X28159175Y-50000000D01*
X27514316Y-49355142D01*
X27380980Y-49412300D01*
X27143014Y-49173918D01*
X26784790Y-49025170D01*
X26396911Y-49024831D01*
X26038429Y-49172954D01*
X25763918Y-49446986D01*
X25615170Y-49805210D01*
X25614831Y-50193089D01*
X11013000Y-50193089D01*
X11013000Y-49666335D01*
X11988815Y-49014316D01*
X27855142Y-49014316D01*
X28500000Y-49659175D01*
X29144858Y-49014316D01*
X29060768Y-48818156D01*
X28565810Y-48693522D01*
X28060833Y-48767787D01*
X27939232Y-48818156D01*
X27855142Y-49014316D01*
X11988815Y-49014316D01*
X12256198Y-48835657D01*
X12335657Y-48756198D01*
X12832246Y-48013000D01*
X55994616Y-48013000D01*
X57987000Y-50005384D01*
M02*
