M48
;DRILL file {KiCad 4.0.6} date 03/31/17 11:29:40
;FORMAT={-:-/ absolute / metric / decimal}
FMAT,2
METRIC,TZ
T1C0.800
T2C1.000
T3C3.000
%
G90
G05
M71
T1
X15.Y-1.88
X15.Y-9.5
X17.54Y-1.88
X17.54Y-9.5
X20.08Y-1.88
X20.08Y-9.5
X22.62Y-1.88
X22.62Y-9.5
X25.16Y-1.88
X25.16Y-9.5
X27.7Y-1.88
X27.7Y-9.5
X30.24Y-1.88
X30.24Y-9.5
T2
X9.Y-2.5
X9.Y-5.
X9.Y-7.5
X9.Y-10.
X36.Y-2.5
X36.Y-5.
X36.Y-7.5
X36.Y-10.
T3
X2.5Y-6.25
X42.5Y-6.25
T0
M30
