M48
; DRILL file {KiCad (6.0.5)} date Fri Aug  5 23:57:33 2022
; FORMAT={-:-/ absolute / inch / decimal}
; #@! TF.CreationDate,2022-08-05T23:57:33+09:00
; #@! TF.GenerationSoftware,Kicad,Pcbnew,(6.0.5)
; #@! TF.FileFunction,Plated,1,2,PTH
FMAT,2
INCH
; #@! TA.AperFunction,Plated,PTH,ViaDrill
T1C0.0157
; #@! TA.AperFunction,Plated,PTH,ComponentDrill
T2C0.0236
; #@! TA.AperFunction,Plated,PTH,ViaDrill
T3C0.0472
%
G90
G05
T1
X2.4995Y-2.5984
X2.5Y-2.6575
X2.5Y-2.7165
X2.5Y-2.7756
X2.5197Y-1.8701
X2.5197Y-1.9291
X2.5197Y-1.9882
X2.5197Y-2.0472
X2.5197Y-2.1063
X2.5394Y-1.811
X2.5891Y-2.5881
X2.5984Y-1.811
X2.5984Y-2.7756
X2.6078Y-2.5197
X2.6378Y-2.4409
X2.6378Y-2.7756
X2.6575Y-1.811
X2.6575Y-2.5787
X2.6575Y-2.6378
X2.6772Y-2.7756
X2.6973Y-2.6383
X2.7008Y-2.0472
X2.7165Y-1.811
X2.7165Y-2.4213
X2.7165Y-2.7756
X2.7362Y-2.126
X2.7559Y-2.6378
X2.7559Y-2.7756
X2.7564Y-2.5979
X2.7756Y-1.811
X2.7756Y-2.1565
X2.7953Y-2.7756
X2.815Y-2.4409
X2.815Y-2.5591
X2.8248Y-2.0866
X2.8346Y-1.811
X2.8346Y-2.3228
X2.8346Y-2.4803
X2.8346Y-2.7756
X2.8351Y-2.2042
X2.874Y-2.1358
X2.8937Y-1.811
X2.9134Y-1.8701
X2.9134Y-1.9291
X2.9134Y-1.9882
X2.9134Y-2.0472
X2.9331Y-2.6575
X2.9331Y-2.7165
X2.9331Y-2.7756
T2
X2.5886Y-1.9685
X2.6181Y-2.2611
X2.6378Y-1.9685
X2.6673Y-2.2611
X2.687Y-1.9685
X2.7165Y-2.2611
X2.7362Y-1.9685
X2.7657Y-2.2611
X2.7854Y-1.9685
X2.815Y-2.2611
X2.8346Y-1.9685
T3
X2.7165Y-2.5197
T0
M30
