  0
SECTION
  2
HEADER
  9
$ANGBASE
  50
0.0
  9
$ANGDIR
  70
  1
  9
$MEASUREMENT
  70
0
  0
ENDSEC
  0
SECTION
  2
TABLES
  0
TABLE
  2
LTYPE
  70
1
  0
LTYPE
  2
CONTINUOUS
  70
0
  3
Solid line
  72
65
  73
0
  40
0.0
  0
ENDTAB
  0
TABLE
  2
STYLE
  70
4
  0
STYLE
  2
KICAD
  70
0
  40
0
  41
1
  42
1
  50
0
  71
0
  3
isocp.shx
  0
STYLE
  2
KICADB
  70
0
  40
0
  41
1
  42
1
  50
0
  71
0
  3
isocp.shx
  0
STYLE
  2
KICADI
  70
0
  40
0
  41
1
  42
1
  50
15
  71
0
  3
isocp.shx
  0
STYLE
  2
KICADBI
  70
0
  40
0
  41
1
  42
1
  50
15
  71
0
  3
isocp.shx
  0
ENDTAB
  0
TABLE
  2
LAYER
  70
30
  0
LAYER
  2
BLACK
  70
0
  62
7
  6
CONTINUOUS
  0
LAYER
  2
GRAY1
  70
0
  62
251
  6
CONTINUOUS
  0
LAYER
  2
GRAY2
  70
0
  62
8
  6
CONTINUOUS
  0
LAYER
  2
GRAY3
  70
0
  62
9
  6
CONTINUOUS
  0
LAYER
  2
WHITE
  70
0
  62
7
  6
CONTINUOUS
  0
LAYER
  2
LYELLOW
  70
0
  62
51
  6
CONTINUOUS
  0
LAYER
  2
BLUE1
  70
0
  62
178
  6
CONTINUOUS
  0
LAYER
  2
GREEN1
  70
0
  62
98
  6
CONTINUOUS
  0
LAYER
  2
CYAN1
  70
0
  62
138
  6
CONTINUOUS
  0
LAYER
  2
RED1
  70
0
  62
18
  6
CONTINUOUS
  0
LAYER
  2
MAGENTA1
  70
0
  62
228
  6
CONTINUOUS
  0
LAYER
  2
BROWN1
  70
0
  62
58
  6
CONTINUOUS
  0
LAYER
  2
BLUE2
  70
0
  62
5
  6
CONTINUOUS
  0
LAYER
  2
GREEN2
  70
0
  62
3
  6
CONTINUOUS
  0
LAYER
  2
CYAN2
  70
0
  62
4
  6
CONTINUOUS
  0
LAYER
  2
RED2
  70
0
  62
1
  6
CONTINUOUS
  0
LAYER
  2
MAGENTA2
  70
0
  62
6
  6
CONTINUOUS
  0
LAYER
  2
BROWN2
  70
0
  62
54
  6
CONTINUOUS
  0
LAYER
  2
BLUE3
  70
0
  62
171
  6
CONTINUOUS
  0
LAYER
  2
GREEN3
  70
0
  62
91
  6
CONTINUOUS
  0
LAYER
  2
CYAN3
  70
0
  62
131
  6
CONTINUOUS
  0
LAYER
  2
RED3
  70
0
  62
11
  6
CONTINUOUS
  0
LAYER
  2
MAGENTA3
  70
0
  62
221
  6
CONTINUOUS
  0
LAYER
  2
YELLOW3
  70
0
  62
2
  6
CONTINUOUS
  0
LAYER
  2
BLUE4
  70
0
  62
5
  6
CONTINUOUS
  0
LAYER
  2
GREEN4
  70
0
  62
3
  6
CONTINUOUS
  0
LAYER
  2
CYAN4
  70
0
  62
4
  6
CONTINUOUS
  0
LAYER
  2
RED4
  70
0
  62
1
  6
CONTINUOUS
  0
LAYER
  2
MAGENTA4
  70
0
  62
6
  6
CONTINUOUS
  0
LAYER
  2
YELLOW4
  70
0
  62
2
  6
CONTINUOUS
  0
ENDTAB
  0
ENDSEC
  0
SECTION
  2
ENTITIES
0
LINE
8
Black
10
57.0033
20
3.07443
11
57.0065
21
3.07471
0
LINE
8
Black
10
57.0065
20
3.07471
11
57.016
21
3.07218
0
LINE
8
Black
10
57.016
20
3.07218
11
57.0257
21
3.07048
0
LINE
8
Black
10
57.0257
20
3.07048
11
57.0285
21
3.06883
0
LINE
8
Black
10
57.0285
20
3.06883
11
57.0317
21
3.06797
0
LINE
8
Black
10
57.0317
20
3.06797
11
57.0397
21
3.06235
0
LINE
8
Black
10
57.0397
20
3.06235
11
57.0482
21
3.05745
0
LINE
8
Black
10
57.0482
20
3.05745
11
57.0503
21
3.05493
0
LINE
8
Black
10
57.0503
20
3.05493
11
57.053
21
3.05303
0
LINE
8
Black
10
57.053
20
3.05303
11
60.0311
21
0.075
0
LINE
8
Black
10
60.0311
20
0.075
11
90
21
0.075
0
LINE
8
Black
10
90
20
0.075
11
90.0065
21
0.073861
0
LINE
8
Black
10
90.0065
20
0.073861
11
90.013
21
0.073861
0
LINE
8
Black
10
90.013
20
0.073861
11
90.0192
21
0.071616
0
LINE
8
Black
10
90.0192
20
0.071616
11
90.0257
21
0.070477
0
LINE
8
Black
10
90.0257
20
0.070477
11
90.0313
21
0.067196
0
LINE
8
Black
10
90.0313
20
0.067196
11
90.0375
21
0.064952
0
LINE
8
Black
10
90.0375
20
0.064952
11
90.0425
21
0.060734
0
LINE
8
Black
10
90.0425
20
0.060734
11
90.0482
21
0.057453
0
LINE
8
Black
10
90.0482
20
0.057453
11
90.0524
21
0.052427
0
LINE
8
Black
10
90.0524
20
0.052427
11
90.0575
21
0.048209
0
LINE
8
Black
10
90.0575
20
0.048209
11
90.0607
21
0.042527
0
LINE
8
Black
10
90.0607
20
0.042527
11
90.065
21
0.0375
0
LINE
8
Black
10
90.065
20
0.0375
11
90.0672
21
0.031334
0
LINE
8
Black
10
90.0672
20
0.031334
11
90.0705
21
0.025652
0
LINE
8
Black
10
90.0705
20
0.025652
11
90.0716
21
0.019191
0
LINE
8
Black
10
90.0716
20
0.019191
11
90.0739
21
0.013024
0
LINE
8
Black
10
90.0739
20
0.013024
11
90.0739
21
0.00646
0
LINE
8
Black
10
90.0739
20
0.00646
11
90.075
21
0
0
LINE
8
Black
10
90.075
20
0
11
90.075
21
-74
0
LINE
8
Black
10
90.075
20
-74
11
90.0739
21
-74.0065
0
LINE
8
Black
10
90.0739
20
-74.0065
11
90.0739
21
-74.013
0
LINE
8
Black
10
90.0739
20
-74.013
11
90.0716
21
-74.0192
0
LINE
8
Black
10
90.0716
20
-74.0192
11
90.0705
21
-74.0257
0
LINE
8
Black
10
90.0705
20
-74.0257
11
90.0672
21
-74.0313
0
LINE
8
Black
10
90.0672
20
-74.0313
11
90.065
21
-74.0375
0
LINE
8
Black
10
90.065
20
-74.0375
11
90.0607
21
-74.0425
0
LINE
8
Black
10
90.0607
20
-74.0425
11
90.0575
21
-74.0482
0
LINE
8
Black
10
90.0575
20
-74.0482
11
90.0524
21
-74.0524
0
LINE
8
Black
10
90.0524
20
-74.0524
11
90.0482
21
-74.0575
0
LINE
8
Black
10
90.0482
20
-74.0575
11
90.0425
21
-74.0607
0
LINE
8
Black
10
90.0425
20
-74.0607
11
90.0375
21
-74.065
0
LINE
8
Black
10
90.0375
20
-74.065
11
90.0313
21
-74.0672
0
LINE
8
Black
10
90.0313
20
-74.0672
11
90.0257
21
-74.0705
0
LINE
8
Black
10
90.0257
20
-74.0705
11
90.0192
21
-74.0716
0
LINE
8
Black
10
90.0192
20
-74.0716
11
90.013
21
-74.0739
0
LINE
8
Black
10
90.013
20
-74.0739
11
90.0065
21
-74.0739
0
LINE
8
Black
10
90.0065
20
-74.0739
11
90
21
-74.075
0
LINE
8
Black
10
90
20
-74.075
11
0
21
-74.075
0
LINE
8
Black
10
0
20
-74.075
11
-0.00646
21
-74.0739
0
LINE
8
Black
10
-0.00646
20
-74.0739
11
-0.013024
21
-74.0739
0
LINE
8
Black
10
-0.013024
20
-74.0739
11
-0.019191
21
-74.0716
0
LINE
8
Black
10
-0.019191
20
-74.0716
11
-0.025652
21
-74.0705
0
LINE
8
Black
10
-0.025652
20
-74.0705
11
-0.031334
21
-74.0672
0
LINE
8
Black
10
-0.031334
20
-74.0672
11
-0.0375
21
-74.065
0
LINE
8
Black
10
-0.0375
20
-74.065
11
-0.042527
21
-74.0607
0
LINE
8
Black
10
-0.042527
20
-74.0607
11
-0.048209
21
-74.0575
0
LINE
8
Black
10
-0.048209
20
-74.0575
11
-0.052427
21
-74.0524
0
LINE
8
Black
10
-0.052427
20
-74.0524
11
-0.057453
21
-74.0482
0
LINE
8
Black
10
-0.057453
20
-74.0482
11
-0.060734
21
-74.0425
0
LINE
8
Black
10
-0.060734
20
-74.0425
11
-0.064952
21
-74.0375
0
LINE
8
Black
10
-0.064952
20
-74.0375
11
-0.067196
21
-74.0313
0
LINE
8
Black
10
-0.067196
20
-74.0313
11
-0.070477
21
-74.0257
0
LINE
8
Black
10
-0.070477
20
-74.0257
11
-0.071616
21
-74.0192
0
LINE
8
Black
10
-0.071616
20
-74.0192
11
-0.073861
21
-74.013
0
LINE
8
Black
10
-0.073861
20
-74.013
11
-0.073861
21
-74.0065
0
LINE
8
Black
10
-0.073861
20
-74.0065
11
-0.075
21
-74
0
LINE
8
Black
10
-0.075
20
-74
11
-0.075
21
0
0
LINE
8
Black
10
-0.075
20
0
11
-0.073861
21
0.00646
0
LINE
8
Black
10
-0.073861
20
0.00646
11
-0.073861
21
0.013024
0
LINE
8
Black
10
-0.073861
20
0.013024
11
-0.071616
21
0.019191
0
LINE
8
Black
10
-0.071616
20
0.019191
11
-0.070477
21
0.025652
0
LINE
8
Black
10
-0.070477
20
0.025652
11
-0.067196
21
0.031334
0
LINE
8
Black
10
-0.067196
20
0.031334
11
-0.064952
21
0.0375
0
LINE
8
Black
10
-0.064952
20
0.0375
11
-0.060734
21
0.042527
0
LINE
8
Black
10
-0.060734
20
0.042527
11
-0.057453
21
0.048209
0
LINE
8
Black
10
-0.057453
20
0.048209
11
-0.052427
21
0.052427
0
LINE
8
Black
10
-0.052427
20
0.052427
11
-0.048209
21
0.057453
0
LINE
8
Black
10
-0.048209
20
0.057453
11
-0.042527
21
0.060734
0
LINE
8
Black
10
-0.042527
20
0.060734
11
-0.0375
21
0.064952
0
LINE
8
Black
10
-0.0375
20
0.064952
11
-0.031334
21
0.067196
0
LINE
8
Black
10
-0.031334
20
0.067196
11
-0.025652
21
0.070477
0
LINE
8
Black
10
-0.025652
20
0.070477
11
-0.019191
21
0.071616
0
LINE
8
Black
10
-0.019191
20
0.071616
11
-0.013024
21
0.073861
0
LINE
8
Black
10
-0.013024
20
0.073861
11
-0.00646
21
0.073861
0
LINE
8
Black
10
-0.00646
20
0.073861
11
0
21
0.075
0
LINE
8
Black
10
0
20
0.075
11
36.9689
21
0.075
0
LINE
8
Black
10
36.9689
20
0.075
11
39.947
21
3.05303
0
LINE
8
Black
10
39.947
20
3.05303
11
39.9497
21
3.05493
0
LINE
8
Black
10
39.9497
20
3.05493
11
39.9518
21
3.05745
0
LINE
8
Black
10
39.9518
20
3.05745
11
39.9603
21
3.06235
0
LINE
8
Black
10
39.9603
20
3.06235
11
39.9683
21
3.06797
0
LINE
8
Black
10
39.9683
20
3.06797
11
39.9715
21
3.06883
0
LINE
8
Black
10
39.9715
20
3.06883
11
39.9743
21
3.07048
0
LINE
8
Black
10
39.9743
20
3.07048
11
39.984
21
3.07218
0
LINE
8
Black
10
39.984
20
3.07218
11
39.9935
21
3.07471
0
LINE
8
Black
10
39.9935
20
3.07471
11
39.9968
21
3.07443
0
LINE
8
Black
10
39.9968
20
3.07443
11
40
21
3.075
0
LINE
8
Black
10
40
20
3.075
11
57
21
3.075
0
LINE
8
Black
10
57
20
3.075
11
57.0033
21
3.07443
0
LINE
8
Black
10
40.0311
20
2.925
11
37.053
21
-0.053033
0
LINE
8
Black
10
37.053
20
-0.053033
11
37.0503
21
-0.054926
0
LINE
8
Black
10
37.0503
20
-0.054926
11
37.0482
21
-0.057453
0
LINE
8
Black
10
37.0482
20
-0.057453
11
37.0397
21
-0.062353
0
LINE
8
Black
10
37.0397
20
-0.062353
11
37.0317
21
-0.067973
0
LINE
8
Black
10
37.0317
20
-0.067973
11
37.0285
21
-0.068826
0
LINE
8
Black
10
37.0285
20
-0.068826
11
37.0257
21
-0.070477
0
LINE
8
Black
10
37.0257
20
-0.070477
11
37.016
21
-0.07218
0
LINE
8
Black
10
37.016
20
-0.07218
11
37.0065
21
-0.074714
0
LINE
8
Black
10
37.0065
20
-0.074714
11
37.0033
21
-0.074427
0
LINE
8
Black
10
37.0033
20
-0.074427
11
37
21
-0.075
0
LINE
8
Black
10
37
20
-0.075
11
0.075
21
-0.075
0
LINE
8
Black
10
0.075
20
-0.075
11
0.075
21
-73.925
0
LINE
8
Black
10
0.075
20
-73.925
11
89.925
21
-73.925
0
LINE
8
Black
10
89.925
20
-73.925
11
89.925
21
-0.075
0
LINE
8
Black
10
89.925
20
-0.075
11
60
21
-0.075
0
LINE
8
Black
10
60
20
-0.075
11
59.9968
21
-0.074427
0
LINE
8
Black
10
59.9968
20
-0.074427
11
59.9935
21
-0.074715
0
LINE
8
Black
10
59.9935
20
-0.074715
11
59.984
21
-0.072178
0
LINE
8
Black
10
59.984
20
-0.072178
11
59.9743
21
-0.070477
0
LINE
8
Black
10
59.9743
20
-0.070477
11
59.9715
21
-0.068828
0
LINE
8
Black
10
59.9715
20
-0.068828
11
59.9683
21
-0.067974
0
LINE
8
Black
10
59.9683
20
-0.067974
11
59.9603
21
-0.06235
0
LINE
8
Black
10
59.9603
20
-0.06235
11
59.9518
21
-0.057453
0
LINE
8
Black
10
59.9518
20
-0.057453
11
59.9497
21
-0.054926
0
LINE
8
Black
10
59.9497
20
-0.054926
11
59.947
21
-0.053033
0
LINE
8
Black
10
59.947
20
-0.053033
11
56.9689
21
2.925
0
LINE
8
Black
10
56.9689
20
2.925
11
40.0311
21
2.925
  0
ENDSEC
  0
EOF
