G04 #@! TF.FileFunction,Soldermask,Bot*
%FSLAX46Y46*%
G04 Gerber Fmt 4.6, Leading zero omitted, Abs format (unit mm)*
G04 Created by KiCad (PCBNEW 4.0.6) date 08/21/17 16:56:05*
%MOMM*%
%LPD*%
G01*
G04 APERTURE LIST*
%ADD10C,0.100000*%
%ADD11O,1.924000X1.400000*%
%ADD12R,1.000000X1.950000*%
%ADD13R,2.432000X2.127200*%
%ADD14O,2.432000X2.127200*%
%ADD15O,1.900000X2.900000*%
%ADD16C,3.400000*%
%ADD17R,2.000000X2.200000*%
%ADD18R,2.200000X2.000000*%
%ADD19R,1.400000X1.200000*%
%ADD20R,1.600000X2.100000*%
%ADD21R,3.700000X2.100000*%
%ADD22R,1.670000X1.365200*%
%ADD23R,1.365200X1.670000*%
G04 APERTURE END LIST*
D10*
D11*
X8000000Y-19500000D03*
X8000000Y-18000000D03*
X8000000Y-16500000D03*
X8000000Y-15000000D03*
X8000000Y-13500000D03*
X8000000Y-12000000D03*
D12*
X6095000Y-57800000D03*
X7365000Y-57800000D03*
X8635000Y-57800000D03*
X9905000Y-57800000D03*
X9905000Y-63200000D03*
X8635000Y-63200000D03*
X7365000Y-63200000D03*
X6095000Y-63200000D03*
D13*
X2540000Y-8890000D03*
D14*
X2540000Y-11430000D03*
X2540000Y-13970000D03*
X2540000Y-16510000D03*
X2540000Y-19050000D03*
X2540000Y-21590000D03*
X2540000Y-24130000D03*
X2540000Y-26670000D03*
X2540000Y-29210000D03*
X2540000Y-31750000D03*
X2540000Y-34290000D03*
X2540000Y-36830000D03*
X2540000Y-39370000D03*
X2540000Y-41910000D03*
X2540000Y-44450000D03*
X2540000Y-46990000D03*
X2540000Y-49530000D03*
X2540000Y-52070000D03*
X2540000Y-54610000D03*
X2540000Y-57150000D03*
X2540000Y-59690000D03*
X2540000Y-62230000D03*
D13*
X25400000Y-62230000D03*
D14*
X25400000Y-59690000D03*
X25400000Y-57150000D03*
X25400000Y-54610000D03*
X25400000Y-52070000D03*
X25400000Y-49530000D03*
X25400000Y-46990000D03*
X25400000Y-44450000D03*
X25400000Y-41910000D03*
X25400000Y-39370000D03*
X25400000Y-36830000D03*
X25400000Y-34290000D03*
X25400000Y-31750000D03*
X25400000Y-29210000D03*
X25400000Y-26670000D03*
X25400000Y-24130000D03*
X25400000Y-21590000D03*
X25400000Y-19050000D03*
X25400000Y-16510000D03*
X25400000Y-13970000D03*
X25400000Y-11430000D03*
X25400000Y-8890000D03*
D15*
X4000000Y-4500000D03*
X6500000Y-4500000D03*
X9000000Y-4500000D03*
X11500000Y-4500000D03*
X16500000Y-4500000D03*
X19000000Y-4500000D03*
X21500000Y-4500000D03*
X24000000Y-4500000D03*
X16500000Y-72000000D03*
X19000000Y-72000000D03*
X21500000Y-72000000D03*
X24000000Y-72000000D03*
D16*
X20250000Y-78500000D03*
D15*
X4000000Y-72000000D03*
X6500000Y-72000000D03*
X9000000Y-72000000D03*
X11500000Y-72000000D03*
D16*
X7750000Y-78500000D03*
D15*
X24000000Y-67000000D03*
X21500000Y-67000000D03*
X19000000Y-67000000D03*
X16500000Y-67000000D03*
X11500000Y-67000000D03*
X9000000Y-67000000D03*
X6500000Y-67000000D03*
X4000000Y-67000000D03*
D12*
X18095000Y-57800000D03*
X19365000Y-57800000D03*
X20635000Y-57800000D03*
X21905000Y-57800000D03*
X21905000Y-63200000D03*
X20635000Y-63200000D03*
X19365000Y-63200000D03*
X18095000Y-63200000D03*
D17*
X15600000Y-55000000D03*
X12400000Y-55000000D03*
D18*
X14000000Y-68400000D03*
X14000000Y-71600000D03*
D19*
X12000000Y-41900000D03*
X12000000Y-40100000D03*
D20*
X16300000Y-64000000D03*
X14000000Y-64000000D03*
X11700000Y-64000000D03*
D21*
X14000000Y-57700000D03*
D22*
X9000000Y-70135000D03*
X9000000Y-68865000D03*
X11500000Y-70135000D03*
X11500000Y-68865000D03*
X21500000Y-70135000D03*
X21500000Y-68865000D03*
X24000000Y-70135000D03*
X24000000Y-68865000D03*
D17*
X12900000Y-27000000D03*
X16100000Y-27000000D03*
D22*
X21000000Y-40865000D03*
X21000000Y-42135000D03*
X22000000Y-43865000D03*
X22000000Y-45135000D03*
X5000000Y-8135000D03*
X5000000Y-6865000D03*
X7000000Y-41365000D03*
X7000000Y-42635000D03*
X8000000Y-38365000D03*
X8000000Y-39635000D03*
X7500000Y-8135000D03*
X7500000Y-6865000D03*
X19000000Y-8135000D03*
X19000000Y-6865000D03*
X16500000Y-8135000D03*
X16500000Y-6865000D03*
X18500000Y-31365000D03*
X18500000Y-32635000D03*
X16500000Y-31365000D03*
X16500000Y-32635000D03*
D23*
X21135000Y-11000000D03*
X19865000Y-11000000D03*
X21135000Y-15000000D03*
X19865000Y-15000000D03*
X21135000Y-19000000D03*
X19865000Y-19000000D03*
M02*
