%TF.GenerationSoftware,KiCad,Pcbnew,8.0.9*%
%TF.CreationDate,2025-06-15T02:31:13+09:00*%
%TF.ProjectId,ARTEMIS_ENC_AK,41525445-4d49-4535-9f45-4e435f414b2e,rev?*%
%TF.SameCoordinates,Original*%
%TF.FileFunction,Legend,Top*%
%TF.FilePolarity,Positive*%
%FSLAX46Y46*%
G04 Gerber Fmt 4.6, Leading zero omitted, Abs format (unit mm)*
G04 Created by KiCad (PCBNEW 8.0.9) date 2025-06-15 02:31:13*
%MOMM*%
%LPD*%
G01*
G04 APERTURE LIST*
G04 Aperture macros list*
%AMRoundRect*
0 Rectangle with rounded corners*
0 $1 Rounding radius*
0 $2 $3 $4 $5 $6 $7 $8 $9 X,Y pos of 4 corners*
0 Add a 4 corners polygon primitive as box body*
4,1,4,$2,$3,$4,$5,$6,$7,$8,$9,$2,$3,0*
0 Add four circle primitives for the rounded corners*
1,1,$1+$1,$2,$3*
1,1,$1+$1,$4,$5*
1,1,$1+$1,$6,$7*
1,1,$1+$1,$8,$9*
0 Add four rect primitives between the rounded corners*
20,1,$1+$1,$2,$3,$4,$5,0*
20,1,$1+$1,$4,$5,$6,$7,0*
20,1,$1+$1,$6,$7,$8,$9,0*
20,1,$1+$1,$8,$9,$2,$3,0*%
G04 Aperture macros list end*
%ADD10C,0.100000*%
%ADD11C,0.150000*%
%ADD12C,0.120000*%
%ADD13RoundRect,0.225000X-0.225000X-0.475000X0.225000X-0.475000X0.225000X0.475000X-0.225000X0.475000X0*%
%ADD14O,0.900000X1.400000*%
%ADD15RoundRect,0.100000X-0.100000X0.637500X-0.100000X-0.637500X0.100000X-0.637500X0.100000X0.637500X0*%
%ADD16RoundRect,0.225000X-0.225000X-0.250000X0.225000X-0.250000X0.225000X0.250000X-0.225000X0.250000X0*%
G04 APERTURE END LIST*
D10*
X37500000Y-53000000D02*
X58000000Y-53000000D01*
X50000000Y-60500000D02*
G75*
G02*
X46000000Y-60500000I-2000000J0D01*
G01*
X46000000Y-60500000D02*
G75*
G02*
X50000000Y-60500000I2000000J0D01*
G01*
X48000000Y-42500000D02*
X48000000Y-64500000D01*
X50000000Y-45500000D02*
G75*
G02*
X46000000Y-45500000I-2000000J0D01*
G01*
X46000000Y-45500000D02*
G75*
G02*
X50000000Y-45500000I2000000J0D01*
G01*
X55500000Y-53000000D02*
G75*
G02*
X40500000Y-53000000I-7500000J0D01*
G01*
X40500000Y-53000000D02*
G75*
G02*
X55500000Y-53000000I7500000J0D01*
G01*
D11*
X47666666Y-31554819D02*
X47666666Y-32269104D01*
X47666666Y-32269104D02*
X47619047Y-32411961D01*
X47619047Y-32411961D02*
X47523809Y-32507200D01*
X47523809Y-32507200D02*
X47380952Y-32554819D01*
X47380952Y-32554819D02*
X47285714Y-32554819D01*
X48666666Y-32554819D02*
X48095238Y-32554819D01*
X48380952Y-32554819D02*
X48380952Y-31554819D01*
X48380952Y-31554819D02*
X48285714Y-31697676D01*
X48285714Y-31697676D02*
X48190476Y-31792914D01*
X48190476Y-31792914D02*
X48095238Y-31840533D01*
X50904819Y-53761904D02*
X51714342Y-53761904D01*
X51714342Y-53761904D02*
X51809580Y-53714285D01*
X51809580Y-53714285D02*
X51857200Y-53666666D01*
X51857200Y-53666666D02*
X51904819Y-53571428D01*
X51904819Y-53571428D02*
X51904819Y-53380952D01*
X51904819Y-53380952D02*
X51857200Y-53285714D01*
X51857200Y-53285714D02*
X51809580Y-53238095D01*
X51809580Y-53238095D02*
X51714342Y-53190476D01*
X51714342Y-53190476D02*
X50904819Y-53190476D01*
X51904819Y-52190476D02*
X51904819Y-52761904D01*
X51904819Y-52476190D02*
X50904819Y-52476190D01*
X50904819Y-52476190D02*
X51047676Y-52571428D01*
X51047676Y-52571428D02*
X51142914Y-52666666D01*
X51142914Y-52666666D02*
X51190533Y-52761904D01*
D12*
%TO.C,J1*%
X42390000Y-35200000D02*
X42390000Y-37110000D01*
X42390000Y-37110000D02*
X44300000Y-37110000D01*
X42700000Y-33200000D02*
X42700000Y-36800000D01*
X42700000Y-34750000D02*
X43000000Y-34750000D01*
X42700000Y-35500000D02*
X43000000Y-35500000D01*
X42700000Y-36800000D02*
X53300000Y-36800000D01*
X43000000Y-33650000D02*
X43300000Y-33650000D01*
X43000000Y-34750000D02*
X43000000Y-33650000D01*
X43000000Y-35500000D02*
X43000000Y-36500000D01*
X43000000Y-36500000D02*
X53000000Y-36500000D01*
X43300000Y-33650000D02*
X43300000Y-33200000D01*
X43300000Y-33650000D02*
X44500000Y-33650000D01*
X44500000Y-33350000D02*
X45250000Y-33350000D01*
X44500000Y-33650000D02*
X44500000Y-33350000D01*
X45250000Y-33350000D02*
X45250000Y-33650000D01*
X45250000Y-33650000D02*
X50750000Y-33650000D01*
X50750000Y-33350000D02*
X51500000Y-33350000D01*
X50750000Y-33650000D02*
X50750000Y-33350000D01*
X51500000Y-33350000D02*
X51500000Y-33650000D01*
X51500000Y-33650000D02*
X52700000Y-33650000D01*
X52700000Y-33650000D02*
X52700000Y-33200000D01*
X53000000Y-33650000D02*
X52700000Y-33650000D01*
X53000000Y-34750000D02*
X53000000Y-33650000D01*
X53000000Y-35500000D02*
X53300000Y-35500000D01*
X53000000Y-36500000D02*
X53000000Y-35500000D01*
X53300000Y-33200000D02*
X42700000Y-33200000D01*
X53300000Y-34750000D02*
X53000000Y-34750000D01*
X53300000Y-36800000D02*
X53300000Y-33200000D01*
%TO.C,U1*%
X45265000Y-53000000D02*
X45265000Y-50800000D01*
X45265000Y-53000000D02*
X45265000Y-55200000D01*
X50735000Y-53000000D02*
X50735000Y-50800000D01*
X50735000Y-53000000D02*
X50735000Y-55200000D01*
X50275000Y-49140000D02*
X50035000Y-48810000D01*
X50515000Y-48810000D01*
X50275000Y-49140000D01*
G36*
X50275000Y-49140000D02*
G01*
X50035000Y-48810000D01*
X50515000Y-48810000D01*
X50275000Y-49140000D01*
G37*
%TO.C,C1*%
X46359420Y-57240000D02*
X46640580Y-57240000D01*
X46359420Y-58260000D02*
X46640580Y-58260000D01*
%TD*%
%LPC*%
D13*
%TO.C,J1*%
X44250000Y-35500000D03*
D14*
X45500000Y-35500000D03*
X46750000Y-35500000D03*
X48000000Y-35500000D03*
X49250000Y-35500000D03*
X50500000Y-35500000D03*
X51750000Y-35500000D03*
%TD*%
D15*
%TO.C,U1*%
X50275000Y-50137500D03*
X49625000Y-50137500D03*
X48975000Y-50137500D03*
X48325000Y-50137500D03*
X47675000Y-50137500D03*
X47025000Y-50137500D03*
X46375000Y-50137500D03*
X45725000Y-50137500D03*
X45725000Y-55862500D03*
X46375000Y-55862500D03*
X47025000Y-55862500D03*
X47675000Y-55862500D03*
X48325000Y-55862500D03*
X48975000Y-55862500D03*
X49625000Y-55862500D03*
X50275000Y-55862500D03*
%TD*%
D16*
%TO.C,C1*%
X45725000Y-57750000D03*
X47275000Y-57750000D03*
%TD*%
%LPD*%
M02*
