G04 #@! TF.FileFunction,Copper,L2,Bot,Signal*
%FSLAX46Y46*%
G04 Gerber Fmt 4.6, Leading zero omitted, Abs format (unit mm)*
G04 Created by KiCad (PCBNEW 4.0.1-stable) date 2016/02/04 17:10:09*
%MOMM*%
G01*
G04 APERTURE LIST*
%ADD10C,0.100000*%
%ADD11C,1.676400*%
%ADD12R,3.810000X2.082800*%
%ADD13R,8.890000X11.430000*%
%ADD14R,2.999740X1.501140*%
%ADD15R,1.300000X1.300000*%
%ADD16C,1.300000*%
%ADD17R,2.540000X2.540000*%
%ADD18C,2.540000*%
%ADD19O,3.014980X1.506220*%
%ADD20R,2.200000X0.600000*%
%ADD21C,2.000000*%
%ADD22C,0.500000*%
%ADD23C,1.000000*%
%ADD24C,0.254000*%
G04 APERTURE END LIST*
D10*
D11*
X67100000Y-20410000D03*
X67100000Y-12790000D03*
D12*
X38890000Y-7460000D03*
X38890000Y-12540000D03*
D13*
X27460000Y-10000000D03*
D14*
X60498980Y-8500000D03*
X56501020Y-8500000D03*
X58398980Y-35600000D03*
X54401020Y-35600000D03*
D15*
X26000000Y-49000000D03*
D16*
X26000000Y-54000000D03*
D15*
X15000000Y-49000000D03*
D16*
X15000000Y-54000000D03*
X35000000Y-52500000D03*
D15*
X35000000Y-50000000D03*
D14*
X57898980Y-17800000D03*
X53901020Y-17800000D03*
X57898980Y-44300000D03*
X53901020Y-44300000D03*
X27001020Y-47000000D03*
X30998980Y-47000000D03*
D17*
X5000000Y-53540000D03*
D18*
X5000000Y-48460000D03*
D17*
X28000000Y-25540000D03*
D18*
X28000000Y-20460000D03*
D19*
X70000000Y-26460000D03*
X70000000Y-29000000D03*
X70000000Y-31540000D03*
X63200000Y-27530000D03*
X63200000Y-30070000D03*
D12*
X18890000Y-7460000D03*
X18890000Y-12540000D03*
D13*
X7460000Y-10000000D03*
D12*
X18890000Y-34460000D03*
X18890000Y-39540000D03*
D13*
X7460000Y-37000000D03*
D12*
X38890000Y-34460000D03*
X38890000Y-39540000D03*
D13*
X27460000Y-37000000D03*
D20*
X57900000Y-15405000D03*
X57900000Y-14135000D03*
X57900000Y-12865000D03*
X57900000Y-11595000D03*
X63100000Y-11595000D03*
X63100000Y-12865000D03*
X63100000Y-14135000D03*
X63100000Y-15405000D03*
X57900000Y-41905000D03*
X57900000Y-40635000D03*
X57900000Y-39365000D03*
X57900000Y-38095000D03*
X63100000Y-38095000D03*
X63100000Y-39365000D03*
X63100000Y-40635000D03*
X63100000Y-41905000D03*
D11*
X69900000Y-47010000D03*
X69900000Y-39390000D03*
X70000000Y-8690000D03*
X70000000Y-16310000D03*
X66600000Y-38090000D03*
X66600000Y-45710000D03*
X38890000Y-10000000D03*
X46510000Y-10000000D03*
X38890000Y-37000000D03*
X46510000Y-37000000D03*
X53300000Y-5190000D03*
X53300000Y-12810000D03*
X49700000Y-31790000D03*
X49700000Y-39410000D03*
D21*
X50000000Y-15000000D03*
X35000000Y-15000000D03*
X50000000Y-25500000D03*
X35000000Y-25500000D03*
X60000000Y-47000000D03*
X60000000Y-44300000D03*
X60000000Y-17800000D03*
X35000000Y-47000000D03*
X49800000Y-4800000D03*
X19000000Y-4800000D03*
X47600000Y-31800000D03*
X19000000Y-31800000D03*
D22*
X55465000Y-14135000D02*
X57900000Y-14135000D01*
X60498980Y-8500000D02*
X60498980Y-12501020D01*
X60498980Y-12501020D02*
X58865000Y-14135000D01*
X58865000Y-14135000D02*
X57900000Y-14135000D01*
X53901020Y-17800000D02*
X53901020Y-15698980D01*
X53901020Y-15698980D02*
X55465000Y-14135000D01*
X52400000Y-8500000D02*
X56501020Y-8500000D01*
X50000000Y-10900000D02*
X52400000Y-8500000D01*
X50000000Y-15000000D02*
X50000000Y-10900000D01*
X28000000Y-16300000D02*
X33700000Y-16300000D01*
X33700000Y-16300000D02*
X35000000Y-15000000D01*
X56501020Y-8500000D02*
X56501020Y-10196020D01*
X56501020Y-10196020D02*
X57900000Y-11595000D01*
X18890000Y-12540000D02*
X24920000Y-12540000D01*
X24920000Y-12540000D02*
X27460000Y-10000000D01*
X28000000Y-20460000D02*
X28000000Y-16300000D01*
X28000000Y-16300000D02*
X28000000Y-10540000D01*
X28000000Y-10540000D02*
X27460000Y-10000000D01*
X25920000Y-12540000D02*
X27460000Y-11000000D01*
X28000000Y-11540000D02*
X27460000Y-11000000D01*
X60000000Y-37900000D02*
X60000000Y-37200000D01*
X60000000Y-37200000D02*
X58400000Y-35600000D01*
X58400000Y-35600000D02*
X58398980Y-35600000D01*
X60000000Y-37900000D02*
X60000000Y-39800000D01*
X60000000Y-39800000D02*
X59165000Y-40635000D01*
X59165000Y-40635000D02*
X57900000Y-40635000D01*
X53901020Y-44300000D02*
X53901020Y-42498980D01*
X55765000Y-40635000D02*
X57900000Y-40635000D01*
X53901020Y-42498980D02*
X55765000Y-40635000D01*
X57900000Y-38095000D02*
X56896020Y-38095000D01*
X56896020Y-38095000D02*
X54401020Y-35600000D01*
X54401020Y-35600000D02*
X54401020Y-29901020D01*
X34960000Y-25540000D02*
X35000000Y-25500000D01*
X34960000Y-25540000D02*
X28000000Y-25540000D01*
X54401020Y-29901020D02*
X50000000Y-25500000D01*
X18890000Y-39540000D02*
X24920000Y-39540000D01*
X24920000Y-39540000D02*
X27460000Y-37000000D01*
X28000000Y-25540000D02*
X28000000Y-36460000D01*
X28000000Y-36460000D02*
X27460000Y-37000000D01*
X5000000Y-48460000D02*
X5000000Y-39460000D01*
X5000000Y-39460000D02*
X7460000Y-37000000D01*
X15000000Y-49000000D02*
X5540000Y-49000000D01*
X5540000Y-49000000D02*
X5000000Y-48460000D01*
X26000000Y-49000000D02*
X15000000Y-49000000D01*
X26000000Y-49000000D02*
X26000000Y-48001020D01*
X26000000Y-48001020D02*
X27001020Y-47000000D01*
X7460000Y-10000000D02*
X7460000Y-37000000D01*
X63200000Y-27530000D02*
X63200000Y-21900000D01*
X63200000Y-21900000D02*
X63200000Y-22200000D01*
X63200000Y-22200000D02*
X63200000Y-21900000D01*
X70000000Y-26460000D02*
X70000000Y-19000000D01*
X71300000Y-17600000D02*
X71300000Y-18600000D01*
X71300000Y-18600000D02*
X70900000Y-19000000D01*
X70000000Y-19000000D02*
X70000000Y-19200000D01*
X70000000Y-19200000D02*
X70000000Y-19000000D01*
X62810000Y-49500000D02*
X67410000Y-49500000D01*
X67410000Y-49500000D02*
X69900000Y-47010000D01*
X65050000Y-41050000D02*
X65050000Y-44160000D01*
X65050000Y-44160000D02*
X66600000Y-45710000D01*
X69900000Y-47010000D02*
X69790000Y-47010000D01*
X66600000Y-45710000D02*
X66600000Y-45700000D01*
X68500000Y-17400000D02*
X68500000Y-19000000D01*
X65235000Y-14135000D02*
X68500000Y-17400000D01*
X63100000Y-14135000D02*
X65235000Y-14135000D01*
X68500000Y-19000000D02*
X70000000Y-19000000D01*
X70000000Y-19000000D02*
X70900000Y-19000000D01*
X67100000Y-20400000D02*
X68500000Y-19000000D01*
X67100000Y-20410000D02*
X67100000Y-20400000D01*
X70010000Y-16310000D02*
X71300000Y-17600000D01*
X70000000Y-16310000D02*
X70010000Y-16310000D01*
D23*
X38890000Y-12540000D02*
X38890000Y-18590000D01*
X48600000Y-21900000D02*
X63200000Y-21900000D01*
X63200000Y-21900000D02*
X65610000Y-21900000D01*
X38890000Y-18590000D02*
X42200000Y-21900000D01*
X42200000Y-21900000D02*
X48600000Y-21900000D01*
X38890000Y-39540000D02*
X38890000Y-50390000D01*
X59110000Y-53200000D02*
X62810000Y-49500000D01*
X38890000Y-50390000D02*
X41700000Y-53200000D01*
X41700000Y-53200000D02*
X59110000Y-53200000D01*
D22*
X38890000Y-12540000D02*
X39240000Y-12540000D01*
X65610000Y-21900000D02*
X67100000Y-20410000D01*
X63100000Y-40635000D02*
X64635000Y-40635000D01*
X64635000Y-40635000D02*
X65050000Y-41050000D01*
X26000000Y-54000000D02*
X34500000Y-54000000D01*
X34500000Y-54000000D02*
X35000000Y-53500000D01*
X15000000Y-54000000D02*
X26000000Y-54000000D01*
X15000000Y-54000000D02*
X5460000Y-54000000D01*
X5460000Y-54000000D02*
X5000000Y-53540000D01*
X62810000Y-49500000D02*
X66600000Y-45710000D01*
X63200000Y-30070000D02*
X63200000Y-35300000D01*
X59895000Y-41905000D02*
X57900000Y-41905000D01*
X61000000Y-40800000D02*
X59895000Y-41905000D01*
X61000000Y-37500000D02*
X61000000Y-40800000D01*
X63200000Y-35300000D02*
X61000000Y-37500000D01*
X35000000Y-50000000D02*
X35000000Y-47000000D01*
X57898980Y-44300000D02*
X57898980Y-41906020D01*
X57898980Y-41906020D02*
X57900000Y-41905000D01*
X60000000Y-44300000D02*
X60000000Y-47000000D01*
X60000000Y-44300000D02*
X57898980Y-44300000D01*
X57898980Y-17800000D02*
X60000000Y-17800000D01*
X57898980Y-17800000D02*
X57898980Y-15406020D01*
X57898980Y-15406020D02*
X57900000Y-15405000D01*
X30998980Y-47000000D02*
X35000000Y-47000000D01*
X30998980Y-47000000D02*
X32000000Y-47000000D01*
X30998980Y-47000000D02*
X31000000Y-47000000D01*
X70000000Y-29000000D02*
X72000000Y-29000000D01*
X71290000Y-12790000D02*
X67100000Y-12790000D01*
X73300000Y-14800000D02*
X73300000Y-23400000D01*
X71290000Y-12790000D02*
X73300000Y-14800000D01*
X73300000Y-27700000D02*
X73300000Y-23400000D01*
X72000000Y-29000000D02*
X73300000Y-27700000D01*
X63100000Y-12865000D02*
X67025000Y-12865000D01*
X67025000Y-12865000D02*
X67100000Y-12790000D01*
X70000000Y-31540000D02*
X70000000Y-39290000D01*
X70000000Y-39290000D02*
X69900000Y-39390000D01*
X69900000Y-39390000D02*
X69910000Y-39390000D01*
X68690000Y-40600000D02*
X69900000Y-39390000D01*
X66600000Y-40600000D02*
X68690000Y-40600000D01*
X63100000Y-39365000D02*
X65365000Y-39365000D01*
X65365000Y-39365000D02*
X66600000Y-40600000D01*
X49800000Y-4800000D02*
X52910000Y-4800000D01*
X52910000Y-4800000D02*
X53300000Y-5190000D01*
X18890000Y-7460000D02*
X18890000Y-4910000D01*
X18890000Y-4910000D02*
X19000000Y-4800000D01*
X49800000Y-4800000D02*
X49700000Y-4800000D01*
X38890000Y-7460000D02*
X38890000Y-10000000D01*
X49700000Y-31790000D02*
X47610000Y-31790000D01*
X47610000Y-31790000D02*
X47600000Y-31800000D01*
X18890000Y-34460000D02*
X18890000Y-31910000D01*
X18890000Y-31910000D02*
X19000000Y-31800000D01*
X38890000Y-34460000D02*
X38890000Y-37000000D01*
X70000000Y-8690000D02*
X66005000Y-8690000D01*
X66005000Y-8690000D02*
X63100000Y-11595000D01*
X66595000Y-38095000D02*
X66600000Y-38090000D01*
X63100000Y-38095000D02*
X66595000Y-38095000D01*
X46510000Y-10000000D02*
X46510000Y-16510000D01*
X63100000Y-18300000D02*
X63100000Y-15405000D01*
X61100000Y-20300000D02*
X63100000Y-18300000D01*
X50300000Y-20300000D02*
X61100000Y-20300000D01*
X46510000Y-16510000D02*
X50300000Y-20300000D01*
X63100000Y-47200000D02*
X63100000Y-41905000D01*
X60800000Y-49500000D02*
X63100000Y-47200000D01*
X53400000Y-49500000D02*
X60800000Y-49500000D01*
X46510000Y-37000000D02*
X46510000Y-42610000D01*
X46510000Y-42610000D02*
X53400000Y-49500000D01*
X57900000Y-12865000D02*
X53355000Y-12865000D01*
X53355000Y-12865000D02*
X53300000Y-12810000D01*
X57900000Y-39365000D02*
X49745000Y-39365000D01*
X49745000Y-39365000D02*
X49700000Y-39410000D01*
D24*
G36*
X36373000Y-22373000D02*
X16627000Y-22373000D01*
X16627000Y-9127000D01*
X36373000Y-9127000D01*
X36373000Y-22373000D01*
X36373000Y-22373000D01*
G37*
X36373000Y-22373000D02*
X16627000Y-22373000D01*
X16627000Y-9127000D01*
X36373000Y-9127000D01*
X36373000Y-22373000D01*
G36*
X36373000Y-42873000D02*
X16627000Y-42873000D01*
X16627000Y-35648646D01*
X16706546Y-35772265D01*
X16833866Y-35859259D01*
X16985000Y-35889864D01*
X20795000Y-35889864D01*
X20936190Y-35863297D01*
X21065865Y-35779854D01*
X21152859Y-35652534D01*
X21183464Y-35501400D01*
X21183464Y-33418600D01*
X21156897Y-33277410D01*
X21073454Y-33147735D01*
X20946134Y-33060741D01*
X20795000Y-33030136D01*
X19639189Y-33030136D01*
X19781251Y-32971437D01*
X20170072Y-32583295D01*
X20380759Y-32075903D01*
X20381239Y-31526507D01*
X20171437Y-31018749D01*
X19783295Y-30629928D01*
X19275903Y-30419241D01*
X18726507Y-30418761D01*
X18218749Y-30628563D01*
X17829928Y-31016705D01*
X17619241Y-31524097D01*
X17618761Y-32073493D01*
X17828563Y-32581251D01*
X18216705Y-32970072D01*
X18259000Y-32987634D01*
X18259000Y-33030136D01*
X16985000Y-33030136D01*
X16843810Y-33056703D01*
X16714135Y-33140146D01*
X16627141Y-33267466D01*
X16627000Y-33268162D01*
X16627000Y-23127000D01*
X36373000Y-23127000D01*
X36373000Y-42873000D01*
X36373000Y-42873000D01*
G37*
X36373000Y-42873000D02*
X16627000Y-42873000D01*
X16627000Y-35648646D01*
X16706546Y-35772265D01*
X16833866Y-35859259D01*
X16985000Y-35889864D01*
X20795000Y-35889864D01*
X20936190Y-35863297D01*
X21065865Y-35779854D01*
X21152859Y-35652534D01*
X21183464Y-35501400D01*
X21183464Y-33418600D01*
X21156897Y-33277410D01*
X21073454Y-33147735D01*
X20946134Y-33060741D01*
X20795000Y-33030136D01*
X19639189Y-33030136D01*
X19781251Y-32971437D01*
X20170072Y-32583295D01*
X20380759Y-32075903D01*
X20381239Y-31526507D01*
X20171437Y-31018749D01*
X19783295Y-30629928D01*
X19275903Y-30419241D01*
X18726507Y-30418761D01*
X18218749Y-30628563D01*
X17829928Y-31016705D01*
X17619241Y-31524097D01*
X17618761Y-32073493D01*
X17828563Y-32581251D01*
X18216705Y-32970072D01*
X18259000Y-32987634D01*
X18259000Y-33030136D01*
X16985000Y-33030136D01*
X16843810Y-33056703D01*
X16714135Y-33140146D01*
X16627141Y-33267466D01*
X16627000Y-33268162D01*
X16627000Y-23127000D01*
X36373000Y-23127000D01*
X36373000Y-42873000D01*
G36*
X36373000Y-50873000D02*
X36244949Y-50873000D01*
X36285000Y-50776309D01*
X36285000Y-50285750D01*
X36126250Y-50127000D01*
X35127000Y-50127000D01*
X35127000Y-50147000D01*
X34873000Y-50147000D01*
X34873000Y-50127000D01*
X33873750Y-50127000D01*
X33715000Y-50285750D01*
X33715000Y-50776309D01*
X33755051Y-50873000D01*
X29127000Y-50873000D01*
X29127000Y-49223691D01*
X33715000Y-49223691D01*
X33715000Y-49714250D01*
X33873750Y-49873000D01*
X34873000Y-49873000D01*
X34873000Y-48873750D01*
X35127000Y-48873750D01*
X35127000Y-49873000D01*
X36126250Y-49873000D01*
X36285000Y-49714250D01*
X36285000Y-49223691D01*
X36188327Y-48990302D01*
X36009699Y-48811673D01*
X35776310Y-48715000D01*
X35285750Y-48715000D01*
X35127000Y-48873750D01*
X34873000Y-48873750D01*
X34714250Y-48715000D01*
X34223690Y-48715000D01*
X33990301Y-48811673D01*
X33811673Y-48990302D01*
X33715000Y-49223691D01*
X29127000Y-49223691D01*
X29127000Y-48276485D01*
X29139412Y-48288897D01*
X29372801Y-48385570D01*
X30713230Y-48385570D01*
X30871980Y-48226820D01*
X30871980Y-47127000D01*
X31125980Y-47127000D01*
X31125980Y-48226820D01*
X31284730Y-48385570D01*
X32625159Y-48385570D01*
X32858548Y-48288897D01*
X33037177Y-48110269D01*
X33133850Y-47876880D01*
X33133850Y-47285750D01*
X32975100Y-47127000D01*
X31125980Y-47127000D01*
X30871980Y-47127000D01*
X30851980Y-47127000D01*
X30851980Y-46873000D01*
X30871980Y-46873000D01*
X30871980Y-45773180D01*
X31125980Y-45773180D01*
X31125980Y-46873000D01*
X32975100Y-46873000D01*
X33133850Y-46714250D01*
X33133850Y-46123120D01*
X33037177Y-45889731D01*
X32858548Y-45711103D01*
X32625159Y-45614430D01*
X31284730Y-45614430D01*
X31125980Y-45773180D01*
X30871980Y-45773180D01*
X30713230Y-45614430D01*
X29372801Y-45614430D01*
X29139412Y-45711103D01*
X29127000Y-45723515D01*
X29127000Y-43627000D01*
X36373000Y-43627000D01*
X36373000Y-50873000D01*
X36373000Y-50873000D01*
G37*
X36373000Y-50873000D02*
X36244949Y-50873000D01*
X36285000Y-50776309D01*
X36285000Y-50285750D01*
X36126250Y-50127000D01*
X35127000Y-50127000D01*
X35127000Y-50147000D01*
X34873000Y-50147000D01*
X34873000Y-50127000D01*
X33873750Y-50127000D01*
X33715000Y-50285750D01*
X33715000Y-50776309D01*
X33755051Y-50873000D01*
X29127000Y-50873000D01*
X29127000Y-49223691D01*
X33715000Y-49223691D01*
X33715000Y-49714250D01*
X33873750Y-49873000D01*
X34873000Y-49873000D01*
X34873000Y-48873750D01*
X35127000Y-48873750D01*
X35127000Y-49873000D01*
X36126250Y-49873000D01*
X36285000Y-49714250D01*
X36285000Y-49223691D01*
X36188327Y-48990302D01*
X36009699Y-48811673D01*
X35776310Y-48715000D01*
X35285750Y-48715000D01*
X35127000Y-48873750D01*
X34873000Y-48873750D01*
X34714250Y-48715000D01*
X34223690Y-48715000D01*
X33990301Y-48811673D01*
X33811673Y-48990302D01*
X33715000Y-49223691D01*
X29127000Y-49223691D01*
X29127000Y-48276485D01*
X29139412Y-48288897D01*
X29372801Y-48385570D01*
X30713230Y-48385570D01*
X30871980Y-48226820D01*
X30871980Y-47127000D01*
X31125980Y-47127000D01*
X31125980Y-48226820D01*
X31284730Y-48385570D01*
X32625159Y-48385570D01*
X32858548Y-48288897D01*
X33037177Y-48110269D01*
X33133850Y-47876880D01*
X33133850Y-47285750D01*
X32975100Y-47127000D01*
X31125980Y-47127000D01*
X30871980Y-47127000D01*
X30851980Y-47127000D01*
X30851980Y-46873000D01*
X30871980Y-46873000D01*
X30871980Y-45773180D01*
X31125980Y-45773180D01*
X31125980Y-46873000D01*
X32975100Y-46873000D01*
X33133850Y-46714250D01*
X33133850Y-46123120D01*
X33037177Y-45889731D01*
X32858548Y-45711103D01*
X32625159Y-45614430D01*
X31284730Y-45614430D01*
X31125980Y-45773180D01*
X30871980Y-45773180D01*
X30713230Y-45614430D01*
X29372801Y-45614430D01*
X29139412Y-45711103D01*
X29127000Y-45723515D01*
X29127000Y-43627000D01*
X36373000Y-43627000D01*
X36373000Y-50873000D01*
G36*
X43873000Y-59290000D02*
X710000Y-59290000D01*
X710000Y-51627000D01*
X37000000Y-51627000D01*
X37049410Y-51616994D01*
X37091035Y-51588553D01*
X37118315Y-51546159D01*
X37127000Y-51500000D01*
X37127000Y-36148840D01*
X37657406Y-36148840D01*
X37641810Y-36164409D01*
X37417056Y-36705677D01*
X37416545Y-37291752D01*
X37640353Y-37833411D01*
X38054409Y-38248190D01*
X38595677Y-38472944D01*
X39181752Y-38473455D01*
X39723411Y-38249647D01*
X40138190Y-37835591D01*
X40362944Y-37294323D01*
X40363455Y-36708248D01*
X40139647Y-36166589D01*
X40121929Y-36148840D01*
X40795000Y-36148840D01*
X41030317Y-36104562D01*
X41246441Y-35965490D01*
X41391431Y-35753290D01*
X41442440Y-35501400D01*
X41442440Y-33418600D01*
X41398162Y-33183283D01*
X41259090Y-32967159D01*
X41046890Y-32822169D01*
X40795000Y-32771160D01*
X37127000Y-32771160D01*
X37127000Y-9148840D01*
X37657406Y-9148840D01*
X37641810Y-9164409D01*
X37417056Y-9705677D01*
X37416545Y-10291752D01*
X37640353Y-10833411D01*
X38054409Y-11248190D01*
X38595677Y-11472944D01*
X39181752Y-11473455D01*
X39723411Y-11249647D01*
X40138190Y-10835591D01*
X40362944Y-10294323D01*
X40363455Y-9708248D01*
X40139647Y-9166589D01*
X40121929Y-9148840D01*
X40795000Y-9148840D01*
X41030317Y-9104562D01*
X41246441Y-8965490D01*
X41391431Y-8753290D01*
X41442440Y-8501400D01*
X41442440Y-6418600D01*
X41398162Y-6183283D01*
X41259090Y-5967159D01*
X41046890Y-5822169D01*
X40795000Y-5771160D01*
X36985000Y-5771160D01*
X36749683Y-5815438D01*
X36533559Y-5954510D01*
X36388569Y-6166710D01*
X36337560Y-6418600D01*
X36337560Y-8373000D01*
X32552440Y-8373000D01*
X32552440Y-4285000D01*
X32508162Y-4049683D01*
X32369090Y-3833559D01*
X32156890Y-3688569D01*
X31905000Y-3637560D01*
X23015000Y-3637560D01*
X22779683Y-3681838D01*
X22563559Y-3820910D01*
X22418569Y-4033110D01*
X22367560Y-4285000D01*
X22367560Y-8373000D01*
X21442440Y-8373000D01*
X21442440Y-6418600D01*
X21398162Y-6183283D01*
X21259090Y-5967159D01*
X21046890Y-5822169D01*
X20795000Y-5771160D01*
X20341404Y-5771160D01*
X20385278Y-5727363D01*
X20634716Y-5126648D01*
X20635284Y-4476205D01*
X20386894Y-3875057D01*
X19927363Y-3414722D01*
X19326648Y-3165284D01*
X18676205Y-3164716D01*
X18075057Y-3413106D01*
X17614722Y-3872637D01*
X17365284Y-4473352D01*
X17364716Y-5123795D01*
X17613106Y-5724943D01*
X17659242Y-5771160D01*
X16985000Y-5771160D01*
X16749683Y-5815438D01*
X16627000Y-5894382D01*
X16627000Y-710000D01*
X43873000Y-710000D01*
X43873000Y-59290000D01*
X43873000Y-59290000D01*
G37*
X43873000Y-59290000D02*
X710000Y-59290000D01*
X710000Y-51627000D01*
X37000000Y-51627000D01*
X37049410Y-51616994D01*
X37091035Y-51588553D01*
X37118315Y-51546159D01*
X37127000Y-51500000D01*
X37127000Y-36148840D01*
X37657406Y-36148840D01*
X37641810Y-36164409D01*
X37417056Y-36705677D01*
X37416545Y-37291752D01*
X37640353Y-37833411D01*
X38054409Y-38248190D01*
X38595677Y-38472944D01*
X39181752Y-38473455D01*
X39723411Y-38249647D01*
X40138190Y-37835591D01*
X40362944Y-37294323D01*
X40363455Y-36708248D01*
X40139647Y-36166589D01*
X40121929Y-36148840D01*
X40795000Y-36148840D01*
X41030317Y-36104562D01*
X41246441Y-35965490D01*
X41391431Y-35753290D01*
X41442440Y-35501400D01*
X41442440Y-33418600D01*
X41398162Y-33183283D01*
X41259090Y-32967159D01*
X41046890Y-32822169D01*
X40795000Y-32771160D01*
X37127000Y-32771160D01*
X37127000Y-9148840D01*
X37657406Y-9148840D01*
X37641810Y-9164409D01*
X37417056Y-9705677D01*
X37416545Y-10291752D01*
X37640353Y-10833411D01*
X38054409Y-11248190D01*
X38595677Y-11472944D01*
X39181752Y-11473455D01*
X39723411Y-11249647D01*
X40138190Y-10835591D01*
X40362944Y-10294323D01*
X40363455Y-9708248D01*
X40139647Y-9166589D01*
X40121929Y-9148840D01*
X40795000Y-9148840D01*
X41030317Y-9104562D01*
X41246441Y-8965490D01*
X41391431Y-8753290D01*
X41442440Y-8501400D01*
X41442440Y-6418600D01*
X41398162Y-6183283D01*
X41259090Y-5967159D01*
X41046890Y-5822169D01*
X40795000Y-5771160D01*
X36985000Y-5771160D01*
X36749683Y-5815438D01*
X36533559Y-5954510D01*
X36388569Y-6166710D01*
X36337560Y-6418600D01*
X36337560Y-8373000D01*
X32552440Y-8373000D01*
X32552440Y-4285000D01*
X32508162Y-4049683D01*
X32369090Y-3833559D01*
X32156890Y-3688569D01*
X31905000Y-3637560D01*
X23015000Y-3637560D01*
X22779683Y-3681838D01*
X22563559Y-3820910D01*
X22418569Y-4033110D01*
X22367560Y-4285000D01*
X22367560Y-8373000D01*
X21442440Y-8373000D01*
X21442440Y-6418600D01*
X21398162Y-6183283D01*
X21259090Y-5967159D01*
X21046890Y-5822169D01*
X20795000Y-5771160D01*
X20341404Y-5771160D01*
X20385278Y-5727363D01*
X20634716Y-5126648D01*
X20635284Y-4476205D01*
X20386894Y-3875057D01*
X19927363Y-3414722D01*
X19326648Y-3165284D01*
X18676205Y-3164716D01*
X18075057Y-3413106D01*
X17614722Y-3872637D01*
X17365284Y-4473352D01*
X17364716Y-5123795D01*
X17613106Y-5724943D01*
X17659242Y-5771160D01*
X16985000Y-5771160D01*
X16749683Y-5815438D01*
X16627000Y-5894382D01*
X16627000Y-710000D01*
X43873000Y-710000D01*
X43873000Y-59290000D01*
G36*
X15873000Y-43500000D02*
X15883006Y-43549410D01*
X15911447Y-43591035D01*
X15953841Y-43618315D01*
X16000000Y-43627000D01*
X28373000Y-43627000D01*
X28373000Y-50873000D01*
X710000Y-50873000D01*
X710000Y-710000D01*
X15873000Y-710000D01*
X15873000Y-43500000D01*
X15873000Y-43500000D01*
G37*
X15873000Y-43500000D02*
X15883006Y-43549410D01*
X15911447Y-43591035D01*
X15953841Y-43618315D01*
X16000000Y-43627000D01*
X28373000Y-43627000D01*
X28373000Y-50873000D01*
X710000Y-50873000D01*
X710000Y-710000D01*
X15873000Y-710000D01*
X15873000Y-43500000D01*
G36*
X74290000Y-59290000D02*
X45127000Y-59290000D01*
X45127000Y-37510671D01*
X45260353Y-37833411D01*
X45625000Y-38198695D01*
X45625000Y-42609995D01*
X45624999Y-42610000D01*
X45681190Y-42892484D01*
X45692367Y-42948675D01*
X45783683Y-43085340D01*
X45884210Y-43235790D01*
X52774208Y-50125787D01*
X52774210Y-50125790D01*
X53061325Y-50317633D01*
X53400000Y-50385000D01*
X60799995Y-50385000D01*
X60800000Y-50385001D01*
X61082484Y-50328810D01*
X61138675Y-50317633D01*
X61425790Y-50125790D01*
X61425791Y-50125789D01*
X63506166Y-48045413D01*
X69044192Y-48045413D01*
X69123017Y-48295490D01*
X69674097Y-48494977D01*
X70259569Y-48468389D01*
X70676983Y-48295490D01*
X70755808Y-48045413D01*
X69900000Y-47189605D01*
X69044192Y-48045413D01*
X63506166Y-48045413D01*
X63725787Y-47825792D01*
X63725790Y-47825790D01*
X63917633Y-47538675D01*
X63985001Y-47200000D01*
X63985000Y-47199995D01*
X63985000Y-46745413D01*
X65744192Y-46745413D01*
X65823017Y-46995490D01*
X66374097Y-47194977D01*
X66959569Y-47168389D01*
X67376983Y-46995490D01*
X67443614Y-46784097D01*
X68415023Y-46784097D01*
X68441611Y-47369569D01*
X68614510Y-47786983D01*
X68864587Y-47865808D01*
X69720395Y-47010000D01*
X70079605Y-47010000D01*
X70935413Y-47865808D01*
X71185490Y-47786983D01*
X71384977Y-47235903D01*
X71358389Y-46650431D01*
X71185490Y-46233017D01*
X70935413Y-46154192D01*
X70079605Y-47010000D01*
X69720395Y-47010000D01*
X68864587Y-46154192D01*
X68614510Y-46233017D01*
X68415023Y-46784097D01*
X67443614Y-46784097D01*
X67455808Y-46745413D01*
X66600000Y-45889605D01*
X65744192Y-46745413D01*
X63985000Y-46745413D01*
X63985000Y-45484097D01*
X65115023Y-45484097D01*
X65141611Y-46069569D01*
X65314510Y-46486983D01*
X65564587Y-46565808D01*
X66420395Y-45710000D01*
X66779605Y-45710000D01*
X67635413Y-46565808D01*
X67885490Y-46486983D01*
X68070973Y-45974587D01*
X69044192Y-45974587D01*
X69900000Y-46830395D01*
X70755808Y-45974587D01*
X70676983Y-45724510D01*
X70125903Y-45525023D01*
X69540431Y-45551611D01*
X69123017Y-45724510D01*
X69044192Y-45974587D01*
X68070973Y-45974587D01*
X68084977Y-45935903D01*
X68058389Y-45350431D01*
X67885490Y-44933017D01*
X67635413Y-44854192D01*
X66779605Y-45710000D01*
X66420395Y-45710000D01*
X65564587Y-44854192D01*
X65314510Y-44933017D01*
X65115023Y-45484097D01*
X63985000Y-45484097D01*
X63985000Y-44674587D01*
X65744192Y-44674587D01*
X66600000Y-45530395D01*
X67455808Y-44674587D01*
X67376983Y-44424510D01*
X66825903Y-44225023D01*
X66240431Y-44251611D01*
X65823017Y-44424510D01*
X65744192Y-44674587D01*
X63985000Y-44674587D01*
X63985000Y-42852440D01*
X64200000Y-42852440D01*
X64435317Y-42808162D01*
X64651441Y-42669090D01*
X64796431Y-42456890D01*
X64847440Y-42205000D01*
X64847440Y-41605000D01*
X64803162Y-41369683D01*
X64744821Y-41279019D01*
X64835000Y-41061309D01*
X64835000Y-40920750D01*
X64676250Y-40762000D01*
X63227000Y-40762000D01*
X63227000Y-40782000D01*
X62973000Y-40782000D01*
X62973000Y-40762000D01*
X62953000Y-40762000D01*
X62953000Y-40508000D01*
X62973000Y-40508000D01*
X62973000Y-40488000D01*
X63227000Y-40488000D01*
X63227000Y-40508000D01*
X64676250Y-40508000D01*
X64835000Y-40349250D01*
X64835000Y-40250000D01*
X64998420Y-40250000D01*
X65974208Y-41225787D01*
X65974210Y-41225790D01*
X66261325Y-41417633D01*
X66302328Y-41425789D01*
X66600000Y-41485001D01*
X66600005Y-41485000D01*
X68689995Y-41485000D01*
X68690000Y-41485001D01*
X68987672Y-41425789D01*
X69028675Y-41417633D01*
X69315790Y-41225790D01*
X69678572Y-40863008D01*
X70191752Y-40863455D01*
X70733411Y-40639647D01*
X71148190Y-40225591D01*
X71372944Y-39684323D01*
X71373455Y-39098248D01*
X71149647Y-38556589D01*
X70885000Y-38291480D01*
X70885000Y-32910477D01*
X71327561Y-32822446D01*
X71777896Y-32521542D01*
X72078800Y-32071207D01*
X72184464Y-31540000D01*
X72078800Y-31008793D01*
X71777896Y-30558458D01*
X71346188Y-30270000D01*
X71777896Y-29981542D01*
X71842403Y-29885000D01*
X71999995Y-29885000D01*
X72000000Y-29885001D01*
X72282484Y-29828810D01*
X72338675Y-29817633D01*
X72625790Y-29625790D01*
X73925787Y-28325792D01*
X73925790Y-28325790D01*
X74117633Y-28038675D01*
X74155539Y-27848110D01*
X74185001Y-27700000D01*
X74185000Y-27699995D01*
X74185000Y-14800005D01*
X74185001Y-14800000D01*
X74117633Y-14461325D01*
X74090522Y-14420750D01*
X73925790Y-14174210D01*
X73925787Y-14174208D01*
X71915790Y-12164210D01*
X71821054Y-12100910D01*
X71628675Y-11972367D01*
X71538395Y-11954409D01*
X71290000Y-11904999D01*
X71289995Y-11905000D01*
X68298148Y-11905000D01*
X67935591Y-11541810D01*
X67394323Y-11317056D01*
X66808248Y-11316545D01*
X66266589Y-11540353D01*
X65851810Y-11954409D01*
X65841184Y-11980000D01*
X64830227Y-11980000D01*
X64847440Y-11895000D01*
X64847440Y-11295000D01*
X64816423Y-11130157D01*
X66371579Y-9575000D01*
X68801852Y-9575000D01*
X69164409Y-9938190D01*
X69705677Y-10162944D01*
X70291752Y-10163455D01*
X70833411Y-9939647D01*
X71248190Y-9525591D01*
X71472944Y-8984323D01*
X71473455Y-8398248D01*
X71249647Y-7856589D01*
X70835591Y-7441810D01*
X70294323Y-7217056D01*
X69708248Y-7216545D01*
X69166589Y-7440353D01*
X68801305Y-7805000D01*
X66005000Y-7805000D01*
X65666325Y-7872367D01*
X65379210Y-8064210D01*
X65379208Y-8064213D01*
X62795860Y-10647560D01*
X62000000Y-10647560D01*
X61764683Y-10691838D01*
X61548559Y-10830910D01*
X61403569Y-11043110D01*
X61383980Y-11139843D01*
X61383980Y-9898010D01*
X61998850Y-9898010D01*
X62234167Y-9853732D01*
X62450291Y-9714660D01*
X62595281Y-9502460D01*
X62646290Y-9250570D01*
X62646290Y-7749430D01*
X62602012Y-7514113D01*
X62462940Y-7297989D01*
X62250740Y-7152999D01*
X61998850Y-7101990D01*
X58999110Y-7101990D01*
X58763793Y-7146268D01*
X58547669Y-7285340D01*
X58500893Y-7353799D01*
X58464980Y-7297989D01*
X58252780Y-7152999D01*
X58000890Y-7101990D01*
X55001150Y-7101990D01*
X54765833Y-7146268D01*
X54549709Y-7285340D01*
X54404719Y-7497540D01*
X54380933Y-7615000D01*
X52400005Y-7615000D01*
X52400000Y-7614999D01*
X52061326Y-7682366D01*
X52061324Y-7682367D01*
X52061325Y-7682367D01*
X51774210Y-7874210D01*
X51774208Y-7874213D01*
X49374210Y-10274210D01*
X49182367Y-10561325D01*
X49182367Y-10561326D01*
X49114999Y-10900000D01*
X49115000Y-10900005D01*
X49115000Y-13596602D01*
X49075057Y-13613106D01*
X48614722Y-14072637D01*
X48365284Y-14673352D01*
X48364716Y-15323795D01*
X48613106Y-15924943D01*
X49072637Y-16385278D01*
X49673352Y-16634716D01*
X50323795Y-16635284D01*
X50924943Y-16386894D01*
X51385278Y-15927363D01*
X51634716Y-15326648D01*
X51635284Y-14676205D01*
X51386894Y-14075057D01*
X50927363Y-13614722D01*
X50885000Y-13597131D01*
X50885000Y-11266580D01*
X52766579Y-9385000D01*
X54379005Y-9385000D01*
X54397988Y-9485887D01*
X54537060Y-9702011D01*
X54749260Y-9847001D01*
X55001150Y-9898010D01*
X55616020Y-9898010D01*
X55616020Y-10196015D01*
X55616019Y-10196020D01*
X55672210Y-10478504D01*
X55683387Y-10534695D01*
X55875230Y-10821810D01*
X56185543Y-11132123D01*
X56152560Y-11295000D01*
X56152560Y-11895000D01*
X56168554Y-11980000D01*
X54551056Y-11980000D01*
X54549647Y-11976589D01*
X54135591Y-11561810D01*
X53594323Y-11337056D01*
X53008248Y-11336545D01*
X52466589Y-11560353D01*
X52051810Y-11974409D01*
X51827056Y-12515677D01*
X51826545Y-13101752D01*
X52050353Y-13643411D01*
X52464409Y-14058190D01*
X53005677Y-14282944D01*
X53591752Y-14283455D01*
X54133411Y-14059647D01*
X54443599Y-13750000D01*
X54598421Y-13750000D01*
X53275230Y-15073190D01*
X53083387Y-15360305D01*
X53083387Y-15360306D01*
X53016019Y-15698980D01*
X53016020Y-15698985D01*
X53016020Y-16401990D01*
X52401150Y-16401990D01*
X52165833Y-16446268D01*
X51949709Y-16585340D01*
X51804719Y-16797540D01*
X51753710Y-17049430D01*
X51753710Y-18550570D01*
X51797988Y-18785887D01*
X51937060Y-19002011D01*
X52149260Y-19147001D01*
X52401150Y-19198010D01*
X55400890Y-19198010D01*
X55636207Y-19153732D01*
X55852331Y-19014660D01*
X55899107Y-18946201D01*
X55935020Y-19002011D01*
X56147220Y-19147001D01*
X56399110Y-19198010D01*
X59103299Y-19198010D01*
X59625870Y-19415000D01*
X50666579Y-19415000D01*
X47395000Y-16143420D01*
X47395000Y-11198148D01*
X47758190Y-10835591D01*
X47982944Y-10294323D01*
X47983455Y-9708248D01*
X47759647Y-9166589D01*
X47345591Y-8751810D01*
X46804323Y-8527056D01*
X46218248Y-8526545D01*
X45676589Y-8750353D01*
X45261810Y-9164409D01*
X45127000Y-9489068D01*
X45127000Y-5123795D01*
X48164716Y-5123795D01*
X48413106Y-5724943D01*
X48872637Y-6185278D01*
X49473352Y-6434716D01*
X50123795Y-6435284D01*
X50724943Y-6186894D01*
X51185278Y-5727363D01*
X51202869Y-5685000D01*
X51910525Y-5685000D01*
X52050353Y-6023411D01*
X52464409Y-6438190D01*
X53005677Y-6662944D01*
X53591752Y-6663455D01*
X54133411Y-6439647D01*
X54548190Y-6025591D01*
X54772944Y-5484323D01*
X54773455Y-4898248D01*
X54549647Y-4356589D01*
X54135591Y-3941810D01*
X53594323Y-3717056D01*
X53008248Y-3716545D01*
X52527948Y-3915000D01*
X51203398Y-3915000D01*
X51186894Y-3875057D01*
X50727363Y-3414722D01*
X50126648Y-3165284D01*
X49476205Y-3164716D01*
X48875057Y-3413106D01*
X48414722Y-3872637D01*
X48165284Y-4473352D01*
X48164716Y-5123795D01*
X45127000Y-5123795D01*
X45127000Y-710000D01*
X74290000Y-710000D01*
X74290000Y-59290000D01*
X74290000Y-59290000D01*
G37*
X74290000Y-59290000D02*
X45127000Y-59290000D01*
X45127000Y-37510671D01*
X45260353Y-37833411D01*
X45625000Y-38198695D01*
X45625000Y-42609995D01*
X45624999Y-42610000D01*
X45681190Y-42892484D01*
X45692367Y-42948675D01*
X45783683Y-43085340D01*
X45884210Y-43235790D01*
X52774208Y-50125787D01*
X52774210Y-50125790D01*
X53061325Y-50317633D01*
X53400000Y-50385000D01*
X60799995Y-50385000D01*
X60800000Y-50385001D01*
X61082484Y-50328810D01*
X61138675Y-50317633D01*
X61425790Y-50125790D01*
X61425791Y-50125789D01*
X63506166Y-48045413D01*
X69044192Y-48045413D01*
X69123017Y-48295490D01*
X69674097Y-48494977D01*
X70259569Y-48468389D01*
X70676983Y-48295490D01*
X70755808Y-48045413D01*
X69900000Y-47189605D01*
X69044192Y-48045413D01*
X63506166Y-48045413D01*
X63725787Y-47825792D01*
X63725790Y-47825790D01*
X63917633Y-47538675D01*
X63985001Y-47200000D01*
X63985000Y-47199995D01*
X63985000Y-46745413D01*
X65744192Y-46745413D01*
X65823017Y-46995490D01*
X66374097Y-47194977D01*
X66959569Y-47168389D01*
X67376983Y-46995490D01*
X67443614Y-46784097D01*
X68415023Y-46784097D01*
X68441611Y-47369569D01*
X68614510Y-47786983D01*
X68864587Y-47865808D01*
X69720395Y-47010000D01*
X70079605Y-47010000D01*
X70935413Y-47865808D01*
X71185490Y-47786983D01*
X71384977Y-47235903D01*
X71358389Y-46650431D01*
X71185490Y-46233017D01*
X70935413Y-46154192D01*
X70079605Y-47010000D01*
X69720395Y-47010000D01*
X68864587Y-46154192D01*
X68614510Y-46233017D01*
X68415023Y-46784097D01*
X67443614Y-46784097D01*
X67455808Y-46745413D01*
X66600000Y-45889605D01*
X65744192Y-46745413D01*
X63985000Y-46745413D01*
X63985000Y-45484097D01*
X65115023Y-45484097D01*
X65141611Y-46069569D01*
X65314510Y-46486983D01*
X65564587Y-46565808D01*
X66420395Y-45710000D01*
X66779605Y-45710000D01*
X67635413Y-46565808D01*
X67885490Y-46486983D01*
X68070973Y-45974587D01*
X69044192Y-45974587D01*
X69900000Y-46830395D01*
X70755808Y-45974587D01*
X70676983Y-45724510D01*
X70125903Y-45525023D01*
X69540431Y-45551611D01*
X69123017Y-45724510D01*
X69044192Y-45974587D01*
X68070973Y-45974587D01*
X68084977Y-45935903D01*
X68058389Y-45350431D01*
X67885490Y-44933017D01*
X67635413Y-44854192D01*
X66779605Y-45710000D01*
X66420395Y-45710000D01*
X65564587Y-44854192D01*
X65314510Y-44933017D01*
X65115023Y-45484097D01*
X63985000Y-45484097D01*
X63985000Y-44674587D01*
X65744192Y-44674587D01*
X66600000Y-45530395D01*
X67455808Y-44674587D01*
X67376983Y-44424510D01*
X66825903Y-44225023D01*
X66240431Y-44251611D01*
X65823017Y-44424510D01*
X65744192Y-44674587D01*
X63985000Y-44674587D01*
X63985000Y-42852440D01*
X64200000Y-42852440D01*
X64435317Y-42808162D01*
X64651441Y-42669090D01*
X64796431Y-42456890D01*
X64847440Y-42205000D01*
X64847440Y-41605000D01*
X64803162Y-41369683D01*
X64744821Y-41279019D01*
X64835000Y-41061309D01*
X64835000Y-40920750D01*
X64676250Y-40762000D01*
X63227000Y-40762000D01*
X63227000Y-40782000D01*
X62973000Y-40782000D01*
X62973000Y-40762000D01*
X62953000Y-40762000D01*
X62953000Y-40508000D01*
X62973000Y-40508000D01*
X62973000Y-40488000D01*
X63227000Y-40488000D01*
X63227000Y-40508000D01*
X64676250Y-40508000D01*
X64835000Y-40349250D01*
X64835000Y-40250000D01*
X64998420Y-40250000D01*
X65974208Y-41225787D01*
X65974210Y-41225790D01*
X66261325Y-41417633D01*
X66302328Y-41425789D01*
X66600000Y-41485001D01*
X66600005Y-41485000D01*
X68689995Y-41485000D01*
X68690000Y-41485001D01*
X68987672Y-41425789D01*
X69028675Y-41417633D01*
X69315790Y-41225790D01*
X69678572Y-40863008D01*
X70191752Y-40863455D01*
X70733411Y-40639647D01*
X71148190Y-40225591D01*
X71372944Y-39684323D01*
X71373455Y-39098248D01*
X71149647Y-38556589D01*
X70885000Y-38291480D01*
X70885000Y-32910477D01*
X71327561Y-32822446D01*
X71777896Y-32521542D01*
X72078800Y-32071207D01*
X72184464Y-31540000D01*
X72078800Y-31008793D01*
X71777896Y-30558458D01*
X71346188Y-30270000D01*
X71777896Y-29981542D01*
X71842403Y-29885000D01*
X71999995Y-29885000D01*
X72000000Y-29885001D01*
X72282484Y-29828810D01*
X72338675Y-29817633D01*
X72625790Y-29625790D01*
X73925787Y-28325792D01*
X73925790Y-28325790D01*
X74117633Y-28038675D01*
X74155539Y-27848110D01*
X74185001Y-27700000D01*
X74185000Y-27699995D01*
X74185000Y-14800005D01*
X74185001Y-14800000D01*
X74117633Y-14461325D01*
X74090522Y-14420750D01*
X73925790Y-14174210D01*
X73925787Y-14174208D01*
X71915790Y-12164210D01*
X71821054Y-12100910D01*
X71628675Y-11972367D01*
X71538395Y-11954409D01*
X71290000Y-11904999D01*
X71289995Y-11905000D01*
X68298148Y-11905000D01*
X67935591Y-11541810D01*
X67394323Y-11317056D01*
X66808248Y-11316545D01*
X66266589Y-11540353D01*
X65851810Y-11954409D01*
X65841184Y-11980000D01*
X64830227Y-11980000D01*
X64847440Y-11895000D01*
X64847440Y-11295000D01*
X64816423Y-11130157D01*
X66371579Y-9575000D01*
X68801852Y-9575000D01*
X69164409Y-9938190D01*
X69705677Y-10162944D01*
X70291752Y-10163455D01*
X70833411Y-9939647D01*
X71248190Y-9525591D01*
X71472944Y-8984323D01*
X71473455Y-8398248D01*
X71249647Y-7856589D01*
X70835591Y-7441810D01*
X70294323Y-7217056D01*
X69708248Y-7216545D01*
X69166589Y-7440353D01*
X68801305Y-7805000D01*
X66005000Y-7805000D01*
X65666325Y-7872367D01*
X65379210Y-8064210D01*
X65379208Y-8064213D01*
X62795860Y-10647560D01*
X62000000Y-10647560D01*
X61764683Y-10691838D01*
X61548559Y-10830910D01*
X61403569Y-11043110D01*
X61383980Y-11139843D01*
X61383980Y-9898010D01*
X61998850Y-9898010D01*
X62234167Y-9853732D01*
X62450291Y-9714660D01*
X62595281Y-9502460D01*
X62646290Y-9250570D01*
X62646290Y-7749430D01*
X62602012Y-7514113D01*
X62462940Y-7297989D01*
X62250740Y-7152999D01*
X61998850Y-7101990D01*
X58999110Y-7101990D01*
X58763793Y-7146268D01*
X58547669Y-7285340D01*
X58500893Y-7353799D01*
X58464980Y-7297989D01*
X58252780Y-7152999D01*
X58000890Y-7101990D01*
X55001150Y-7101990D01*
X54765833Y-7146268D01*
X54549709Y-7285340D01*
X54404719Y-7497540D01*
X54380933Y-7615000D01*
X52400005Y-7615000D01*
X52400000Y-7614999D01*
X52061326Y-7682366D01*
X52061324Y-7682367D01*
X52061325Y-7682367D01*
X51774210Y-7874210D01*
X51774208Y-7874213D01*
X49374210Y-10274210D01*
X49182367Y-10561325D01*
X49182367Y-10561326D01*
X49114999Y-10900000D01*
X49115000Y-10900005D01*
X49115000Y-13596602D01*
X49075057Y-13613106D01*
X48614722Y-14072637D01*
X48365284Y-14673352D01*
X48364716Y-15323795D01*
X48613106Y-15924943D01*
X49072637Y-16385278D01*
X49673352Y-16634716D01*
X50323795Y-16635284D01*
X50924943Y-16386894D01*
X51385278Y-15927363D01*
X51634716Y-15326648D01*
X51635284Y-14676205D01*
X51386894Y-14075057D01*
X50927363Y-13614722D01*
X50885000Y-13597131D01*
X50885000Y-11266580D01*
X52766579Y-9385000D01*
X54379005Y-9385000D01*
X54397988Y-9485887D01*
X54537060Y-9702011D01*
X54749260Y-9847001D01*
X55001150Y-9898010D01*
X55616020Y-9898010D01*
X55616020Y-10196015D01*
X55616019Y-10196020D01*
X55672210Y-10478504D01*
X55683387Y-10534695D01*
X55875230Y-10821810D01*
X56185543Y-11132123D01*
X56152560Y-11295000D01*
X56152560Y-11895000D01*
X56168554Y-11980000D01*
X54551056Y-11980000D01*
X54549647Y-11976589D01*
X54135591Y-11561810D01*
X53594323Y-11337056D01*
X53008248Y-11336545D01*
X52466589Y-11560353D01*
X52051810Y-11974409D01*
X51827056Y-12515677D01*
X51826545Y-13101752D01*
X52050353Y-13643411D01*
X52464409Y-14058190D01*
X53005677Y-14282944D01*
X53591752Y-14283455D01*
X54133411Y-14059647D01*
X54443599Y-13750000D01*
X54598421Y-13750000D01*
X53275230Y-15073190D01*
X53083387Y-15360305D01*
X53083387Y-15360306D01*
X53016019Y-15698980D01*
X53016020Y-15698985D01*
X53016020Y-16401990D01*
X52401150Y-16401990D01*
X52165833Y-16446268D01*
X51949709Y-16585340D01*
X51804719Y-16797540D01*
X51753710Y-17049430D01*
X51753710Y-18550570D01*
X51797988Y-18785887D01*
X51937060Y-19002011D01*
X52149260Y-19147001D01*
X52401150Y-19198010D01*
X55400890Y-19198010D01*
X55636207Y-19153732D01*
X55852331Y-19014660D01*
X55899107Y-18946201D01*
X55935020Y-19002011D01*
X56147220Y-19147001D01*
X56399110Y-19198010D01*
X59103299Y-19198010D01*
X59625870Y-19415000D01*
X50666579Y-19415000D01*
X47395000Y-16143420D01*
X47395000Y-11198148D01*
X47758190Y-10835591D01*
X47982944Y-10294323D01*
X47983455Y-9708248D01*
X47759647Y-9166589D01*
X47345591Y-8751810D01*
X46804323Y-8527056D01*
X46218248Y-8526545D01*
X45676589Y-8750353D01*
X45261810Y-9164409D01*
X45127000Y-9489068D01*
X45127000Y-5123795D01*
X48164716Y-5123795D01*
X48413106Y-5724943D01*
X48872637Y-6185278D01*
X49473352Y-6434716D01*
X50123795Y-6435284D01*
X50724943Y-6186894D01*
X51185278Y-5727363D01*
X51202869Y-5685000D01*
X51910525Y-5685000D01*
X52050353Y-6023411D01*
X52464409Y-6438190D01*
X53005677Y-6662944D01*
X53591752Y-6663455D01*
X54133411Y-6439647D01*
X54548190Y-6025591D01*
X54772944Y-5484323D01*
X54773455Y-4898248D01*
X54549647Y-4356589D01*
X54135591Y-3941810D01*
X53594323Y-3717056D01*
X53008248Y-3716545D01*
X52527948Y-3915000D01*
X51203398Y-3915000D01*
X51186894Y-3875057D01*
X50727363Y-3414722D01*
X50126648Y-3165284D01*
X49476205Y-3164716D01*
X48875057Y-3413106D01*
X48414722Y-3872637D01*
X48165284Y-4473352D01*
X48164716Y-5123795D01*
X45127000Y-5123795D01*
X45127000Y-710000D01*
X74290000Y-710000D01*
X74290000Y-59290000D01*
G36*
X45260353Y-10833411D02*
X45625000Y-11198695D01*
X45625000Y-16509995D01*
X45624999Y-16510000D01*
X45656740Y-16669569D01*
X45692367Y-16848675D01*
X45884210Y-17135790D01*
X49674208Y-20925787D01*
X49674210Y-20925790D01*
X49961325Y-21117633D01*
X50300000Y-21185000D01*
X61099995Y-21185000D01*
X61100000Y-21185001D01*
X61382484Y-21128810D01*
X61438675Y-21117633D01*
X61725790Y-20925790D01*
X61725791Y-20925789D01*
X62467482Y-20184097D01*
X65615023Y-20184097D01*
X65641611Y-20769569D01*
X65814510Y-21186983D01*
X66064587Y-21265808D01*
X66920395Y-20410000D01*
X67279605Y-20410000D01*
X68135413Y-21265808D01*
X68385490Y-21186983D01*
X68584977Y-20635903D01*
X68558389Y-20050431D01*
X68385490Y-19633017D01*
X68135413Y-19554192D01*
X67279605Y-20410000D01*
X66920395Y-20410000D01*
X66064587Y-19554192D01*
X65814510Y-19633017D01*
X65615023Y-20184097D01*
X62467482Y-20184097D01*
X63276992Y-19374587D01*
X66244192Y-19374587D01*
X67100000Y-20230395D01*
X67955808Y-19374587D01*
X67876983Y-19124510D01*
X67325903Y-18925023D01*
X66740431Y-18951611D01*
X66323017Y-19124510D01*
X66244192Y-19374587D01*
X63276992Y-19374587D01*
X63725787Y-18925792D01*
X63725790Y-18925790D01*
X63917633Y-18638675D01*
X63921819Y-18617633D01*
X63985001Y-18300000D01*
X63985000Y-18299995D01*
X63985000Y-17345413D01*
X69144192Y-17345413D01*
X69223017Y-17595490D01*
X69774097Y-17794977D01*
X70359569Y-17768389D01*
X70776983Y-17595490D01*
X70855808Y-17345413D01*
X70000000Y-16489605D01*
X69144192Y-17345413D01*
X63985000Y-17345413D01*
X63985000Y-16352440D01*
X64200000Y-16352440D01*
X64435317Y-16308162D01*
X64651441Y-16169090D01*
X64709514Y-16084097D01*
X68515023Y-16084097D01*
X68541611Y-16669569D01*
X68714510Y-17086983D01*
X68964587Y-17165808D01*
X69820395Y-16310000D01*
X70179605Y-16310000D01*
X71035413Y-17165808D01*
X71285490Y-17086983D01*
X71484977Y-16535903D01*
X71458389Y-15950431D01*
X71285490Y-15533017D01*
X71035413Y-15454192D01*
X70179605Y-16310000D01*
X69820395Y-16310000D01*
X68964587Y-15454192D01*
X68714510Y-15533017D01*
X68515023Y-16084097D01*
X64709514Y-16084097D01*
X64796431Y-15956890D01*
X64847440Y-15705000D01*
X64847440Y-15274587D01*
X69144192Y-15274587D01*
X70000000Y-16130395D01*
X70855808Y-15274587D01*
X70776983Y-15024510D01*
X70225903Y-14825023D01*
X69640431Y-14851611D01*
X69223017Y-15024510D01*
X69144192Y-15274587D01*
X64847440Y-15274587D01*
X64847440Y-15105000D01*
X64803162Y-14869683D01*
X64744821Y-14779019D01*
X64835000Y-14561309D01*
X64835000Y-14420750D01*
X64676250Y-14262000D01*
X63227000Y-14262000D01*
X63227000Y-14282000D01*
X62973000Y-14282000D01*
X62973000Y-14262000D01*
X61523750Y-14262000D01*
X61365000Y-14420750D01*
X61365000Y-14561309D01*
X61454807Y-14778121D01*
X61403569Y-14853110D01*
X61352560Y-15105000D01*
X61352560Y-15705000D01*
X61396838Y-15940317D01*
X61535910Y-16156441D01*
X61748110Y-16301431D01*
X62000000Y-16352440D01*
X62215000Y-16352440D01*
X62215000Y-17933421D01*
X60733420Y-19415000D01*
X60372886Y-19415000D01*
X60924943Y-19186894D01*
X61385278Y-18727363D01*
X61634716Y-18126648D01*
X61635284Y-17476205D01*
X61386894Y-16875057D01*
X60927363Y-16414722D01*
X60326648Y-16165284D01*
X59676205Y-16164716D01*
X59101960Y-16401990D01*
X58783980Y-16401990D01*
X58783980Y-16352440D01*
X59000000Y-16352440D01*
X59235317Y-16308162D01*
X59451441Y-16169090D01*
X59596431Y-15956890D01*
X59647440Y-15705000D01*
X59647440Y-15105000D01*
X59603162Y-14869683D01*
X59539322Y-14770472D01*
X59596431Y-14686890D01*
X59604491Y-14647089D01*
X61124767Y-13126812D01*
X61124770Y-13126810D01*
X61316613Y-12839695D01*
X61352560Y-12658978D01*
X61352560Y-13165000D01*
X61396838Y-13400317D01*
X61455179Y-13490981D01*
X61365000Y-13708691D01*
X61365000Y-13849250D01*
X61523750Y-14008000D01*
X62973000Y-14008000D01*
X62973000Y-13988000D01*
X63227000Y-13988000D01*
X63227000Y-14008000D01*
X64676250Y-14008000D01*
X64835000Y-13849250D01*
X64835000Y-13750000D01*
X65976721Y-13750000D01*
X66264409Y-14038190D01*
X66805677Y-14262944D01*
X67391752Y-14263455D01*
X67933411Y-14039647D01*
X68298695Y-13675000D01*
X70923420Y-13675000D01*
X72415000Y-15166579D01*
X72415000Y-27333421D01*
X71749162Y-27999258D01*
X71327561Y-27717554D01*
X71324694Y-27716984D01*
X71402919Y-27693846D01*
X71825724Y-27351740D01*
X72085427Y-26873875D01*
X72099783Y-26801674D01*
X71977162Y-26587000D01*
X70127000Y-26587000D01*
X70127000Y-26607000D01*
X69873000Y-26607000D01*
X69873000Y-26587000D01*
X68022838Y-26587000D01*
X67900217Y-26801674D01*
X67914573Y-26873875D01*
X68174276Y-27351740D01*
X68597081Y-27693846D01*
X68675306Y-27716984D01*
X68672439Y-27717554D01*
X68222104Y-28018458D01*
X67921200Y-28468793D01*
X67815536Y-29000000D01*
X67921200Y-29531207D01*
X68222104Y-29981542D01*
X68653812Y-30270000D01*
X68222104Y-30558458D01*
X67921200Y-31008793D01*
X67815536Y-31540000D01*
X67921200Y-32071207D01*
X68222104Y-32521542D01*
X68672439Y-32822446D01*
X69115000Y-32910477D01*
X69115000Y-38120350D01*
X69066589Y-38140353D01*
X68651810Y-38554409D01*
X68427056Y-39095677D01*
X68426606Y-39611814D01*
X68323420Y-39715000D01*
X66966579Y-39715000D01*
X66814967Y-39563388D01*
X66891752Y-39563455D01*
X67433411Y-39339647D01*
X67848190Y-38925591D01*
X68072944Y-38384323D01*
X68073455Y-37798248D01*
X67849647Y-37256589D01*
X67435591Y-36841810D01*
X66894323Y-36617056D01*
X66308248Y-36616545D01*
X65766589Y-36840353D01*
X65396297Y-37210000D01*
X64468620Y-37210000D01*
X64451890Y-37198569D01*
X64200000Y-37147560D01*
X62604020Y-37147560D01*
X63825787Y-35925792D01*
X63825790Y-35925790D01*
X64017633Y-35638675D01*
X64039937Y-35526545D01*
X64085001Y-35300000D01*
X64085000Y-35299995D01*
X64085000Y-31440477D01*
X64527561Y-31352446D01*
X64977896Y-31051542D01*
X65278800Y-30601207D01*
X65384464Y-30070000D01*
X65278800Y-29538793D01*
X64977896Y-29088458D01*
X64527561Y-28787554D01*
X64524694Y-28786984D01*
X64602919Y-28763846D01*
X65025724Y-28421740D01*
X65285427Y-27943875D01*
X65299783Y-27871674D01*
X65177162Y-27657000D01*
X63327000Y-27657000D01*
X63327000Y-27677000D01*
X63073000Y-27677000D01*
X63073000Y-27657000D01*
X61222838Y-27657000D01*
X61100217Y-27871674D01*
X61114573Y-27943875D01*
X61374276Y-28421740D01*
X61797081Y-28763846D01*
X61875306Y-28786984D01*
X61872439Y-28787554D01*
X61422104Y-29088458D01*
X61121200Y-29538793D01*
X61015536Y-30070000D01*
X61121200Y-30601207D01*
X61422104Y-31051542D01*
X61872439Y-31352446D01*
X62315000Y-31440477D01*
X62315000Y-34933421D01*
X60645184Y-36603236D01*
X60625790Y-36574210D01*
X60625787Y-36574208D01*
X60522016Y-36470437D01*
X60546290Y-36350570D01*
X60546290Y-34849430D01*
X60502012Y-34614113D01*
X60362940Y-34397989D01*
X60150740Y-34252999D01*
X59898850Y-34201990D01*
X56899110Y-34201990D01*
X56663793Y-34246268D01*
X56447669Y-34385340D01*
X56400893Y-34453799D01*
X56364980Y-34397989D01*
X56152780Y-34252999D01*
X55900890Y-34201990D01*
X55286020Y-34201990D01*
X55286020Y-29901025D01*
X55286021Y-29901020D01*
X55218653Y-29562345D01*
X55069202Y-29338675D01*
X55026810Y-29275230D01*
X55026807Y-29275228D01*
X52939906Y-27188326D01*
X61100217Y-27188326D01*
X61222838Y-27403000D01*
X63073000Y-27403000D01*
X63073000Y-26141890D01*
X63327000Y-26141890D01*
X63327000Y-27403000D01*
X65177162Y-27403000D01*
X65299783Y-27188326D01*
X65285427Y-27116125D01*
X65025724Y-26638260D01*
X64602919Y-26296154D01*
X64081380Y-26141890D01*
X63327000Y-26141890D01*
X63073000Y-26141890D01*
X62318620Y-26141890D01*
X61797081Y-26296154D01*
X61374276Y-26638260D01*
X61114573Y-27116125D01*
X61100217Y-27188326D01*
X52939906Y-27188326D01*
X51869906Y-26118326D01*
X67900217Y-26118326D01*
X68022838Y-26333000D01*
X69873000Y-26333000D01*
X69873000Y-25071890D01*
X70127000Y-25071890D01*
X70127000Y-26333000D01*
X71977162Y-26333000D01*
X72099783Y-26118326D01*
X72085427Y-26046125D01*
X71825724Y-25568260D01*
X71402919Y-25226154D01*
X70881380Y-25071890D01*
X70127000Y-25071890D01*
X69873000Y-25071890D01*
X69118620Y-25071890D01*
X68597081Y-25226154D01*
X68174276Y-25568260D01*
X67914573Y-26046125D01*
X67900217Y-26118326D01*
X51869906Y-26118326D01*
X51618142Y-25866562D01*
X51634716Y-25826648D01*
X51635284Y-25176205D01*
X51386894Y-24575057D01*
X50927363Y-24114722D01*
X50326648Y-23865284D01*
X49676205Y-23864716D01*
X49075057Y-24113106D01*
X48614722Y-24572637D01*
X48365284Y-25173352D01*
X48364716Y-25823795D01*
X48613106Y-26424943D01*
X49072637Y-26885278D01*
X49673352Y-27134716D01*
X50323795Y-27135284D01*
X50366188Y-27117768D01*
X53516020Y-30267599D01*
X53516020Y-34201990D01*
X52901150Y-34201990D01*
X52665833Y-34246268D01*
X52449709Y-34385340D01*
X52304719Y-34597540D01*
X52253710Y-34849430D01*
X52253710Y-36350570D01*
X52297988Y-36585887D01*
X52437060Y-36802011D01*
X52649260Y-36947001D01*
X52901150Y-36998010D01*
X54547450Y-36998010D01*
X56029441Y-38480000D01*
X50853226Y-38480000D01*
X50535591Y-38161810D01*
X49994323Y-37937056D01*
X49408248Y-37936545D01*
X48866589Y-38160353D01*
X48451810Y-38574409D01*
X48227056Y-39115677D01*
X48226545Y-39701752D01*
X48450353Y-40243411D01*
X48864409Y-40658190D01*
X49405677Y-40882944D01*
X49991752Y-40883455D01*
X50533411Y-40659647D01*
X50943773Y-40250000D01*
X54898421Y-40250000D01*
X53275230Y-41873190D01*
X53083387Y-42160305D01*
X53083387Y-42160306D01*
X53016019Y-42498980D01*
X53016020Y-42498985D01*
X53016020Y-42901990D01*
X52401150Y-42901990D01*
X52165833Y-42946268D01*
X51949709Y-43085340D01*
X51804719Y-43297540D01*
X51753710Y-43549430D01*
X51753710Y-45050570D01*
X51797988Y-45285887D01*
X51937060Y-45502011D01*
X52149260Y-45647001D01*
X52401150Y-45698010D01*
X55400890Y-45698010D01*
X55636207Y-45653732D01*
X55852331Y-45514660D01*
X55899107Y-45446201D01*
X55935020Y-45502011D01*
X56147220Y-45647001D01*
X56399110Y-45698010D01*
X58990004Y-45698010D01*
X58614722Y-46072637D01*
X58365284Y-46673352D01*
X58364716Y-47323795D01*
X58613106Y-47924943D01*
X59072637Y-48385278D01*
X59625870Y-48615000D01*
X53766579Y-48615000D01*
X47395000Y-42243420D01*
X47395000Y-38198148D01*
X47758190Y-37835591D01*
X47982944Y-37294323D01*
X47983455Y-36708248D01*
X47759647Y-36166589D01*
X47345591Y-35751810D01*
X46804323Y-35527056D01*
X46218248Y-35526545D01*
X45676589Y-35750353D01*
X45261810Y-36164409D01*
X45127000Y-36489068D01*
X45127000Y-32123795D01*
X45964716Y-32123795D01*
X46213106Y-32724943D01*
X46672637Y-33185278D01*
X47273352Y-33434716D01*
X47923795Y-33435284D01*
X48524943Y-33186894D01*
X48769324Y-32942939D01*
X48864409Y-33038190D01*
X49405677Y-33262944D01*
X49991752Y-33263455D01*
X50533411Y-33039647D01*
X50948190Y-32625591D01*
X51172944Y-32084323D01*
X51173455Y-31498248D01*
X50949647Y-30956589D01*
X50535591Y-30541810D01*
X49994323Y-30317056D01*
X49408248Y-30316545D01*
X48866589Y-30540353D01*
X48759495Y-30647260D01*
X48527363Y-30414722D01*
X47926648Y-30165284D01*
X47276205Y-30164716D01*
X46675057Y-30413106D01*
X46214722Y-30872637D01*
X45965284Y-31473352D01*
X45964716Y-32123795D01*
X45127000Y-32123795D01*
X45127000Y-21445413D01*
X66244192Y-21445413D01*
X66323017Y-21695490D01*
X66874097Y-21894977D01*
X67459569Y-21868389D01*
X67876983Y-21695490D01*
X67955808Y-21445413D01*
X67100000Y-20589605D01*
X66244192Y-21445413D01*
X45127000Y-21445413D01*
X45127000Y-10510671D01*
X45260353Y-10833411D01*
X45260353Y-10833411D01*
G37*
X45260353Y-10833411D02*
X45625000Y-11198695D01*
X45625000Y-16509995D01*
X45624999Y-16510000D01*
X45656740Y-16669569D01*
X45692367Y-16848675D01*
X45884210Y-17135790D01*
X49674208Y-20925787D01*
X49674210Y-20925790D01*
X49961325Y-21117633D01*
X50300000Y-21185000D01*
X61099995Y-21185000D01*
X61100000Y-21185001D01*
X61382484Y-21128810D01*
X61438675Y-21117633D01*
X61725790Y-20925790D01*
X61725791Y-20925789D01*
X62467482Y-20184097D01*
X65615023Y-20184097D01*
X65641611Y-20769569D01*
X65814510Y-21186983D01*
X66064587Y-21265808D01*
X66920395Y-20410000D01*
X67279605Y-20410000D01*
X68135413Y-21265808D01*
X68385490Y-21186983D01*
X68584977Y-20635903D01*
X68558389Y-20050431D01*
X68385490Y-19633017D01*
X68135413Y-19554192D01*
X67279605Y-20410000D01*
X66920395Y-20410000D01*
X66064587Y-19554192D01*
X65814510Y-19633017D01*
X65615023Y-20184097D01*
X62467482Y-20184097D01*
X63276992Y-19374587D01*
X66244192Y-19374587D01*
X67100000Y-20230395D01*
X67955808Y-19374587D01*
X67876983Y-19124510D01*
X67325903Y-18925023D01*
X66740431Y-18951611D01*
X66323017Y-19124510D01*
X66244192Y-19374587D01*
X63276992Y-19374587D01*
X63725787Y-18925792D01*
X63725790Y-18925790D01*
X63917633Y-18638675D01*
X63921819Y-18617633D01*
X63985001Y-18300000D01*
X63985000Y-18299995D01*
X63985000Y-17345413D01*
X69144192Y-17345413D01*
X69223017Y-17595490D01*
X69774097Y-17794977D01*
X70359569Y-17768389D01*
X70776983Y-17595490D01*
X70855808Y-17345413D01*
X70000000Y-16489605D01*
X69144192Y-17345413D01*
X63985000Y-17345413D01*
X63985000Y-16352440D01*
X64200000Y-16352440D01*
X64435317Y-16308162D01*
X64651441Y-16169090D01*
X64709514Y-16084097D01*
X68515023Y-16084097D01*
X68541611Y-16669569D01*
X68714510Y-17086983D01*
X68964587Y-17165808D01*
X69820395Y-16310000D01*
X70179605Y-16310000D01*
X71035413Y-17165808D01*
X71285490Y-17086983D01*
X71484977Y-16535903D01*
X71458389Y-15950431D01*
X71285490Y-15533017D01*
X71035413Y-15454192D01*
X70179605Y-16310000D01*
X69820395Y-16310000D01*
X68964587Y-15454192D01*
X68714510Y-15533017D01*
X68515023Y-16084097D01*
X64709514Y-16084097D01*
X64796431Y-15956890D01*
X64847440Y-15705000D01*
X64847440Y-15274587D01*
X69144192Y-15274587D01*
X70000000Y-16130395D01*
X70855808Y-15274587D01*
X70776983Y-15024510D01*
X70225903Y-14825023D01*
X69640431Y-14851611D01*
X69223017Y-15024510D01*
X69144192Y-15274587D01*
X64847440Y-15274587D01*
X64847440Y-15105000D01*
X64803162Y-14869683D01*
X64744821Y-14779019D01*
X64835000Y-14561309D01*
X64835000Y-14420750D01*
X64676250Y-14262000D01*
X63227000Y-14262000D01*
X63227000Y-14282000D01*
X62973000Y-14282000D01*
X62973000Y-14262000D01*
X61523750Y-14262000D01*
X61365000Y-14420750D01*
X61365000Y-14561309D01*
X61454807Y-14778121D01*
X61403569Y-14853110D01*
X61352560Y-15105000D01*
X61352560Y-15705000D01*
X61396838Y-15940317D01*
X61535910Y-16156441D01*
X61748110Y-16301431D01*
X62000000Y-16352440D01*
X62215000Y-16352440D01*
X62215000Y-17933421D01*
X60733420Y-19415000D01*
X60372886Y-19415000D01*
X60924943Y-19186894D01*
X61385278Y-18727363D01*
X61634716Y-18126648D01*
X61635284Y-17476205D01*
X61386894Y-16875057D01*
X60927363Y-16414722D01*
X60326648Y-16165284D01*
X59676205Y-16164716D01*
X59101960Y-16401990D01*
X58783980Y-16401990D01*
X58783980Y-16352440D01*
X59000000Y-16352440D01*
X59235317Y-16308162D01*
X59451441Y-16169090D01*
X59596431Y-15956890D01*
X59647440Y-15705000D01*
X59647440Y-15105000D01*
X59603162Y-14869683D01*
X59539322Y-14770472D01*
X59596431Y-14686890D01*
X59604491Y-14647089D01*
X61124767Y-13126812D01*
X61124770Y-13126810D01*
X61316613Y-12839695D01*
X61352560Y-12658978D01*
X61352560Y-13165000D01*
X61396838Y-13400317D01*
X61455179Y-13490981D01*
X61365000Y-13708691D01*
X61365000Y-13849250D01*
X61523750Y-14008000D01*
X62973000Y-14008000D01*
X62973000Y-13988000D01*
X63227000Y-13988000D01*
X63227000Y-14008000D01*
X64676250Y-14008000D01*
X64835000Y-13849250D01*
X64835000Y-13750000D01*
X65976721Y-13750000D01*
X66264409Y-14038190D01*
X66805677Y-14262944D01*
X67391752Y-14263455D01*
X67933411Y-14039647D01*
X68298695Y-13675000D01*
X70923420Y-13675000D01*
X72415000Y-15166579D01*
X72415000Y-27333421D01*
X71749162Y-27999258D01*
X71327561Y-27717554D01*
X71324694Y-27716984D01*
X71402919Y-27693846D01*
X71825724Y-27351740D01*
X72085427Y-26873875D01*
X72099783Y-26801674D01*
X71977162Y-26587000D01*
X70127000Y-26587000D01*
X70127000Y-26607000D01*
X69873000Y-26607000D01*
X69873000Y-26587000D01*
X68022838Y-26587000D01*
X67900217Y-26801674D01*
X67914573Y-26873875D01*
X68174276Y-27351740D01*
X68597081Y-27693846D01*
X68675306Y-27716984D01*
X68672439Y-27717554D01*
X68222104Y-28018458D01*
X67921200Y-28468793D01*
X67815536Y-29000000D01*
X67921200Y-29531207D01*
X68222104Y-29981542D01*
X68653812Y-30270000D01*
X68222104Y-30558458D01*
X67921200Y-31008793D01*
X67815536Y-31540000D01*
X67921200Y-32071207D01*
X68222104Y-32521542D01*
X68672439Y-32822446D01*
X69115000Y-32910477D01*
X69115000Y-38120350D01*
X69066589Y-38140353D01*
X68651810Y-38554409D01*
X68427056Y-39095677D01*
X68426606Y-39611814D01*
X68323420Y-39715000D01*
X66966579Y-39715000D01*
X66814967Y-39563388D01*
X66891752Y-39563455D01*
X67433411Y-39339647D01*
X67848190Y-38925591D01*
X68072944Y-38384323D01*
X68073455Y-37798248D01*
X67849647Y-37256589D01*
X67435591Y-36841810D01*
X66894323Y-36617056D01*
X66308248Y-36616545D01*
X65766589Y-36840353D01*
X65396297Y-37210000D01*
X64468620Y-37210000D01*
X64451890Y-37198569D01*
X64200000Y-37147560D01*
X62604020Y-37147560D01*
X63825787Y-35925792D01*
X63825790Y-35925790D01*
X64017633Y-35638675D01*
X64039937Y-35526545D01*
X64085001Y-35300000D01*
X64085000Y-35299995D01*
X64085000Y-31440477D01*
X64527561Y-31352446D01*
X64977896Y-31051542D01*
X65278800Y-30601207D01*
X65384464Y-30070000D01*
X65278800Y-29538793D01*
X64977896Y-29088458D01*
X64527561Y-28787554D01*
X64524694Y-28786984D01*
X64602919Y-28763846D01*
X65025724Y-28421740D01*
X65285427Y-27943875D01*
X65299783Y-27871674D01*
X65177162Y-27657000D01*
X63327000Y-27657000D01*
X63327000Y-27677000D01*
X63073000Y-27677000D01*
X63073000Y-27657000D01*
X61222838Y-27657000D01*
X61100217Y-27871674D01*
X61114573Y-27943875D01*
X61374276Y-28421740D01*
X61797081Y-28763846D01*
X61875306Y-28786984D01*
X61872439Y-28787554D01*
X61422104Y-29088458D01*
X61121200Y-29538793D01*
X61015536Y-30070000D01*
X61121200Y-30601207D01*
X61422104Y-31051542D01*
X61872439Y-31352446D01*
X62315000Y-31440477D01*
X62315000Y-34933421D01*
X60645184Y-36603236D01*
X60625790Y-36574210D01*
X60625787Y-36574208D01*
X60522016Y-36470437D01*
X60546290Y-36350570D01*
X60546290Y-34849430D01*
X60502012Y-34614113D01*
X60362940Y-34397989D01*
X60150740Y-34252999D01*
X59898850Y-34201990D01*
X56899110Y-34201990D01*
X56663793Y-34246268D01*
X56447669Y-34385340D01*
X56400893Y-34453799D01*
X56364980Y-34397989D01*
X56152780Y-34252999D01*
X55900890Y-34201990D01*
X55286020Y-34201990D01*
X55286020Y-29901025D01*
X55286021Y-29901020D01*
X55218653Y-29562345D01*
X55069202Y-29338675D01*
X55026810Y-29275230D01*
X55026807Y-29275228D01*
X52939906Y-27188326D01*
X61100217Y-27188326D01*
X61222838Y-27403000D01*
X63073000Y-27403000D01*
X63073000Y-26141890D01*
X63327000Y-26141890D01*
X63327000Y-27403000D01*
X65177162Y-27403000D01*
X65299783Y-27188326D01*
X65285427Y-27116125D01*
X65025724Y-26638260D01*
X64602919Y-26296154D01*
X64081380Y-26141890D01*
X63327000Y-26141890D01*
X63073000Y-26141890D01*
X62318620Y-26141890D01*
X61797081Y-26296154D01*
X61374276Y-26638260D01*
X61114573Y-27116125D01*
X61100217Y-27188326D01*
X52939906Y-27188326D01*
X51869906Y-26118326D01*
X67900217Y-26118326D01*
X68022838Y-26333000D01*
X69873000Y-26333000D01*
X69873000Y-25071890D01*
X70127000Y-25071890D01*
X70127000Y-26333000D01*
X71977162Y-26333000D01*
X72099783Y-26118326D01*
X72085427Y-26046125D01*
X71825724Y-25568260D01*
X71402919Y-25226154D01*
X70881380Y-25071890D01*
X70127000Y-25071890D01*
X69873000Y-25071890D01*
X69118620Y-25071890D01*
X68597081Y-25226154D01*
X68174276Y-25568260D01*
X67914573Y-26046125D01*
X67900217Y-26118326D01*
X51869906Y-26118326D01*
X51618142Y-25866562D01*
X51634716Y-25826648D01*
X51635284Y-25176205D01*
X51386894Y-24575057D01*
X50927363Y-24114722D01*
X50326648Y-23865284D01*
X49676205Y-23864716D01*
X49075057Y-24113106D01*
X48614722Y-24572637D01*
X48365284Y-25173352D01*
X48364716Y-25823795D01*
X48613106Y-26424943D01*
X49072637Y-26885278D01*
X49673352Y-27134716D01*
X50323795Y-27135284D01*
X50366188Y-27117768D01*
X53516020Y-30267599D01*
X53516020Y-34201990D01*
X52901150Y-34201990D01*
X52665833Y-34246268D01*
X52449709Y-34385340D01*
X52304719Y-34597540D01*
X52253710Y-34849430D01*
X52253710Y-36350570D01*
X52297988Y-36585887D01*
X52437060Y-36802011D01*
X52649260Y-36947001D01*
X52901150Y-36998010D01*
X54547450Y-36998010D01*
X56029441Y-38480000D01*
X50853226Y-38480000D01*
X50535591Y-38161810D01*
X49994323Y-37937056D01*
X49408248Y-37936545D01*
X48866589Y-38160353D01*
X48451810Y-38574409D01*
X48227056Y-39115677D01*
X48226545Y-39701752D01*
X48450353Y-40243411D01*
X48864409Y-40658190D01*
X49405677Y-40882944D01*
X49991752Y-40883455D01*
X50533411Y-40659647D01*
X50943773Y-40250000D01*
X54898421Y-40250000D01*
X53275230Y-41873190D01*
X53083387Y-42160305D01*
X53083387Y-42160306D01*
X53016019Y-42498980D01*
X53016020Y-42498985D01*
X53016020Y-42901990D01*
X52401150Y-42901990D01*
X52165833Y-42946268D01*
X51949709Y-43085340D01*
X51804719Y-43297540D01*
X51753710Y-43549430D01*
X51753710Y-45050570D01*
X51797988Y-45285887D01*
X51937060Y-45502011D01*
X52149260Y-45647001D01*
X52401150Y-45698010D01*
X55400890Y-45698010D01*
X55636207Y-45653732D01*
X55852331Y-45514660D01*
X55899107Y-45446201D01*
X55935020Y-45502011D01*
X56147220Y-45647001D01*
X56399110Y-45698010D01*
X58990004Y-45698010D01*
X58614722Y-46072637D01*
X58365284Y-46673352D01*
X58364716Y-47323795D01*
X58613106Y-47924943D01*
X59072637Y-48385278D01*
X59625870Y-48615000D01*
X53766579Y-48615000D01*
X47395000Y-42243420D01*
X47395000Y-38198148D01*
X47758190Y-37835591D01*
X47982944Y-37294323D01*
X47983455Y-36708248D01*
X47759647Y-36166589D01*
X47345591Y-35751810D01*
X46804323Y-35527056D01*
X46218248Y-35526545D01*
X45676589Y-35750353D01*
X45261810Y-36164409D01*
X45127000Y-36489068D01*
X45127000Y-32123795D01*
X45964716Y-32123795D01*
X46213106Y-32724943D01*
X46672637Y-33185278D01*
X47273352Y-33434716D01*
X47923795Y-33435284D01*
X48524943Y-33186894D01*
X48769324Y-32942939D01*
X48864409Y-33038190D01*
X49405677Y-33262944D01*
X49991752Y-33263455D01*
X50533411Y-33039647D01*
X50948190Y-32625591D01*
X51172944Y-32084323D01*
X51173455Y-31498248D01*
X50949647Y-30956589D01*
X50535591Y-30541810D01*
X49994323Y-30317056D01*
X49408248Y-30316545D01*
X48866589Y-30540353D01*
X48759495Y-30647260D01*
X48527363Y-30414722D01*
X47926648Y-30165284D01*
X47276205Y-30164716D01*
X46675057Y-30413106D01*
X46214722Y-30872637D01*
X45965284Y-31473352D01*
X45964716Y-32123795D01*
X45127000Y-32123795D01*
X45127000Y-21445413D01*
X66244192Y-21445413D01*
X66323017Y-21695490D01*
X66874097Y-21894977D01*
X67459569Y-21868389D01*
X67876983Y-21695490D01*
X67955808Y-21445413D01*
X67100000Y-20589605D01*
X66244192Y-21445413D01*
X45127000Y-21445413D01*
X45127000Y-10510671D01*
X45260353Y-10833411D01*
M02*
