G04 #@! TF.FileFunction,Copper,L2,Bot,Signal*
%FSLAX46Y46*%
G04 Gerber Fmt 4.6, Leading zero omitted, Abs format (unit mm)*
G04 Created by KiCad (PCBNEW 4.0.4-stable) date 12/06/16 22:33:33*
%MOMM*%
%LPD*%
G01*
G04 APERTURE LIST*
%ADD10C,0.100000*%
%ADD11R,2.000000X2.000000*%
%ADD12C,2.000000*%
%ADD13O,1.500000X2.500000*%
%ADD14R,1.000000X0.800000*%
%ADD15O,2.300000X1.600000*%
%ADD16R,1.600000X2.000000*%
%ADD17O,1.600000X2.000000*%
%ADD18C,4.000000*%
%ADD19C,1.200000*%
%ADD20C,0.500000*%
%ADD21C,0.026000*%
G04 APERTURE END LIST*
D10*
D11*
X10160000Y-21590000D03*
D12*
X12700000Y-21590000D03*
D13*
X5080000Y-27940000D03*
X7580000Y-27940000D03*
X10080000Y-27940000D03*
X12580000Y-27940000D03*
X38100000Y-27940000D03*
X40600000Y-27940000D03*
X43100000Y-27940000D03*
X45600000Y-27940000D03*
D14*
X12700000Y-23865000D03*
X12700000Y-25665000D03*
D15*
X21590000Y-13970000D03*
X21590000Y-16510000D03*
X21590000Y-19050000D03*
X21590000Y-21590000D03*
X21590000Y-24130000D03*
X21590000Y-26670000D03*
X21590000Y-29210000D03*
X21590000Y-31750000D03*
X29210000Y-31750000D03*
X29210000Y-29210000D03*
X29210000Y-26670000D03*
X29210000Y-24130000D03*
X29210000Y-21590000D03*
X29210000Y-19050000D03*
X29210000Y-16510000D03*
X29210000Y-13970000D03*
D14*
X19685000Y-14340000D03*
X19685000Y-16140000D03*
X19685000Y-28840000D03*
X19685000Y-27040000D03*
X31115000Y-31380000D03*
X31115000Y-29580000D03*
X31115000Y-16880000D03*
X31115000Y-18680000D03*
D16*
X7620000Y-7620000D03*
D17*
X7620000Y-5080000D03*
X10160000Y-7620000D03*
X10160000Y-5080000D03*
X12700000Y-7620000D03*
X12700000Y-5080000D03*
X15240000Y-7620000D03*
X15240000Y-5080000D03*
X17780000Y-7620000D03*
X17780000Y-5080000D03*
D16*
X33020000Y-7620000D03*
D17*
X33020000Y-5080000D03*
X35560000Y-7620000D03*
X35560000Y-5080000D03*
X38100000Y-7620000D03*
X38100000Y-5080000D03*
X40640000Y-7620000D03*
X40640000Y-5080000D03*
X43180000Y-7620000D03*
X43180000Y-5080000D03*
D18*
X5000000Y-20000000D03*
X45000000Y-20000000D03*
D19*
X18415000Y-18415000D03*
X13335000Y-18415000D03*
D20*
X33020000Y-5080000D02*
X30480000Y-2540000D01*
X10160000Y-2540000D02*
X7620000Y-5080000D01*
X30480000Y-2540000D02*
X10160000Y-2540000D01*
X33020000Y-5080000D02*
X29210000Y-8890000D01*
X29210000Y-8890000D02*
X29210000Y-13970000D01*
X10160000Y-21590000D02*
X10160000Y-19685000D01*
X11430000Y-18415000D02*
X13335000Y-18415000D01*
X10160000Y-19685000D02*
X11430000Y-18415000D01*
X10160000Y-21590000D02*
X10160000Y-27860000D01*
X10160000Y-27860000D02*
X10080000Y-27940000D01*
X19685000Y-18415000D02*
X18415000Y-18415000D01*
X29210000Y-24130000D02*
X25400000Y-20320000D01*
X25400000Y-17780000D02*
X25400000Y-20320000D01*
X21590000Y-21590000D02*
X19685000Y-19685000D01*
X20320000Y-17780000D02*
X25400000Y-17780000D01*
X19685000Y-18415000D02*
X20320000Y-17780000D01*
X19685000Y-19685000D02*
X19685000Y-18415000D01*
X29210000Y-13970000D02*
X25400000Y-17780000D01*
X12700000Y-21590000D02*
X12700000Y-23865000D01*
X34290000Y-3810000D02*
X34290000Y-6350000D01*
X34290000Y-6350000D02*
X35560000Y-7620000D01*
X10160000Y-10160000D02*
X7620000Y-10160000D01*
X5080000Y-3810000D02*
X7620000Y-1270000D01*
X7620000Y-1270000D02*
X31750000Y-1270000D01*
X5080000Y-7620000D02*
X7620000Y-10160000D01*
X31750000Y-1270000D02*
X34290000Y-3810000D01*
X5080000Y-7620000D02*
X5080000Y-3810000D01*
X10160000Y-7620000D02*
X10160000Y-10160000D01*
X10160000Y-10160000D02*
X10160000Y-12065000D01*
X10160000Y-12065000D02*
X14605000Y-16510000D01*
X14605000Y-16510000D02*
X14605000Y-23760000D01*
X14605000Y-23760000D02*
X12700000Y-25665000D01*
X12700000Y-25665000D02*
X12700000Y-27820000D01*
X12700000Y-27820000D02*
X12580000Y-27940000D01*
X45600000Y-27940000D02*
X41275000Y-23615000D01*
X41275000Y-23615000D02*
X41275000Y-14605000D01*
X41275000Y-14605000D02*
X45720000Y-10160000D01*
X45720000Y-10160000D02*
X45720000Y-4445000D01*
X45720000Y-4445000D02*
X42545000Y-1270000D01*
X42545000Y-1270000D02*
X36830000Y-1270000D01*
X36830000Y-1270000D02*
X34290000Y-3810000D01*
X12580000Y-27940000D02*
X16390000Y-31750000D01*
X16390000Y-31750000D02*
X21590000Y-31750000D01*
X10160000Y-8890000D02*
X10160000Y-7620000D01*
X15240000Y-5080000D02*
X16510000Y-6350000D01*
X16510000Y-11165000D02*
X19685000Y-14340000D01*
X16510000Y-6350000D02*
X16510000Y-11165000D01*
X21590000Y-13970000D02*
X20055000Y-13970000D01*
X20055000Y-13970000D02*
X19685000Y-14340000D01*
X15240000Y-7620000D02*
X15240000Y-11695000D01*
X15240000Y-11695000D02*
X19685000Y-16140000D01*
X21590000Y-16510000D02*
X20055000Y-16510000D01*
X20055000Y-16510000D02*
X19685000Y-16140000D01*
X12700000Y-5080000D02*
X11430000Y-6350000D01*
X15875000Y-25030000D02*
X19685000Y-28840000D01*
X15875000Y-15875000D02*
X15875000Y-25030000D01*
X11430000Y-11430000D02*
X15875000Y-15875000D01*
X11430000Y-6350000D02*
X11430000Y-11430000D01*
X21590000Y-29210000D02*
X20055000Y-29210000D01*
X20055000Y-29210000D02*
X19685000Y-28840000D01*
X12700000Y-7620000D02*
X12700000Y-10795000D01*
X17145000Y-24500000D02*
X19685000Y-27040000D01*
X17145000Y-15240000D02*
X17145000Y-24500000D01*
X12700000Y-10795000D02*
X17145000Y-15240000D01*
X21590000Y-26670000D02*
X20055000Y-26670000D01*
X20055000Y-26670000D02*
X19685000Y-27040000D01*
X40640000Y-5080000D02*
X41910000Y-6350000D01*
X33655000Y-28840000D02*
X31115000Y-31380000D01*
X33655000Y-20320000D02*
X33655000Y-28840000D01*
X41910000Y-12065000D02*
X33655000Y-20320000D01*
X41910000Y-6350000D02*
X41910000Y-12065000D01*
X29210000Y-31750000D02*
X30745000Y-31750000D01*
X30745000Y-31750000D02*
X31115000Y-31380000D01*
X40640000Y-7620000D02*
X40640000Y-11430000D01*
X32385000Y-28310000D02*
X31115000Y-29580000D01*
X32385000Y-19685000D02*
X32385000Y-28310000D01*
X40640000Y-11430000D02*
X32385000Y-19685000D01*
X29210000Y-29210000D02*
X30745000Y-29210000D01*
X30745000Y-29210000D02*
X31115000Y-29580000D01*
X38100000Y-5080000D02*
X36830000Y-6350000D01*
X36830000Y-11165000D02*
X31115000Y-16880000D01*
X36830000Y-6350000D02*
X36830000Y-11165000D01*
X29210000Y-16510000D02*
X30745000Y-16510000D01*
X30745000Y-16510000D02*
X31115000Y-16880000D01*
X38100000Y-7620000D02*
X38100000Y-11695000D01*
X38100000Y-11695000D02*
X31115000Y-18680000D01*
X29210000Y-19050000D02*
X30745000Y-19050000D01*
X30745000Y-19050000D02*
X31115000Y-18680000D01*
X23495000Y-32385000D02*
X22860000Y-33020000D01*
X10160000Y-33020000D02*
X5080000Y-27940000D01*
X22860000Y-33020000D02*
X10160000Y-33020000D01*
X21590000Y-24130000D02*
X23495000Y-26035000D01*
X23495000Y-26035000D02*
X23495000Y-32385000D01*
X21590000Y-19050000D02*
X24765000Y-22225000D01*
X24765000Y-22225000D02*
X24765000Y-24765000D01*
X24765000Y-32385000D02*
X22860000Y-34290000D01*
X24765000Y-24765000D02*
X24765000Y-32385000D01*
X22860000Y-34290000D02*
X8890000Y-34290000D01*
X8890000Y-34290000D02*
X3810000Y-29210000D01*
X3810000Y-29210000D02*
X3810000Y-26670000D01*
X3810000Y-26670000D02*
X4445000Y-26035000D01*
X4445000Y-26035000D02*
X6985000Y-26035000D01*
X6985000Y-26035000D02*
X7580000Y-26630000D01*
X7580000Y-26630000D02*
X7580000Y-27940000D01*
X29210000Y-21590000D02*
X31115000Y-23495000D01*
X31115000Y-23495000D02*
X31115000Y-24765000D01*
X31115000Y-24765000D02*
X30480000Y-25400000D01*
X30480000Y-25400000D02*
X27305000Y-25400000D01*
X27305000Y-25400000D02*
X26035000Y-26670000D01*
X26035000Y-32385000D02*
X27940000Y-34290000D01*
X26035000Y-26670000D02*
X26035000Y-32385000D01*
X31750000Y-34290000D02*
X38100000Y-27940000D01*
X31750000Y-34290000D02*
X27940000Y-34290000D01*
X27305000Y-32385000D02*
X27940000Y-33020000D01*
X27305000Y-28575000D02*
X27305000Y-32385000D01*
X29210000Y-26670000D02*
X27305000Y-28575000D01*
X40600000Y-26630000D02*
X40600000Y-27940000D01*
X39370000Y-25400000D02*
X40600000Y-26630000D01*
X37465000Y-25400000D02*
X39370000Y-25400000D01*
X36195000Y-26670000D02*
X37465000Y-25400000D01*
X36195000Y-28575000D02*
X36195000Y-26670000D01*
X31750000Y-33020000D02*
X36195000Y-28575000D01*
X27940000Y-33020000D02*
X31750000Y-33020000D01*
D21*
G36*
X49562000Y-34562000D02*
X32344912Y-34562000D01*
X37513995Y-29392918D01*
X37674073Y-29499879D01*
X38100000Y-29584601D01*
X38525927Y-29499879D01*
X38887010Y-29258611D01*
X39128278Y-28897528D01*
X39213000Y-28471601D01*
X39213000Y-27408399D01*
X39128278Y-26982472D01*
X38887010Y-26621389D01*
X38525927Y-26380121D01*
X38100000Y-26295399D01*
X37674073Y-26380121D01*
X37312990Y-26621389D01*
X37071722Y-26982472D01*
X36987000Y-27408399D01*
X36987000Y-28186087D01*
X36808000Y-28365087D01*
X36808000Y-26923912D01*
X37718913Y-26013000D01*
X39116088Y-26013000D01*
X39777536Y-26674449D01*
X39571722Y-26982472D01*
X39487000Y-27408399D01*
X39487000Y-28471601D01*
X39571722Y-28897528D01*
X39812990Y-29258611D01*
X40174073Y-29499879D01*
X40600000Y-29584601D01*
X41025927Y-29499879D01*
X41387010Y-29258611D01*
X41628278Y-28897528D01*
X41713000Y-28471601D01*
X41713000Y-27408399D01*
X41628278Y-26982472D01*
X41387010Y-26621389D01*
X41184352Y-26485977D01*
X41166338Y-26395415D01*
X41101948Y-26299049D01*
X41033457Y-26196544D01*
X39803456Y-24966544D01*
X39604585Y-24833662D01*
X39370000Y-24787000D01*
X37465000Y-24787000D01*
X37230415Y-24833662D01*
X37031543Y-24966544D01*
X35761545Y-26236543D01*
X35761544Y-26236544D01*
X35628662Y-26435415D01*
X35582000Y-26670000D01*
X35582000Y-28321087D01*
X31906026Y-31997061D01*
X31955951Y-31923994D01*
X31985111Y-31780000D01*
X31985111Y-31376801D01*
X34088456Y-29273457D01*
X34221338Y-29074585D01*
X34229012Y-29036006D01*
X34268000Y-28840000D01*
X34268000Y-20573912D01*
X42343456Y-12498456D01*
X42476338Y-12299585D01*
X42483946Y-12261338D01*
X42523000Y-12065000D01*
X42523000Y-8953350D01*
X42738785Y-9065139D01*
X42939000Y-8986107D01*
X42939000Y-8961765D01*
X43180000Y-9009703D01*
X43421000Y-8961765D01*
X43421000Y-8986107D01*
X43621215Y-9065139D01*
X43921095Y-8909784D01*
X44281725Y-8543224D01*
X44474627Y-8066560D01*
X44367008Y-7861000D01*
X44340156Y-7861000D01*
X44343000Y-7846703D01*
X44343000Y-7393297D01*
X44340156Y-7379000D01*
X44367008Y-7379000D01*
X44474627Y-7173440D01*
X44281725Y-6696776D01*
X43940559Y-6350000D01*
X44281725Y-6003224D01*
X44474627Y-5526560D01*
X44367008Y-5321000D01*
X44340156Y-5321000D01*
X44343000Y-5306703D01*
X44343000Y-4853297D01*
X44340156Y-4839000D01*
X44367008Y-4839000D01*
X44474627Y-4633440D01*
X44281725Y-4156776D01*
X43921095Y-3790216D01*
X43621215Y-3634861D01*
X43421000Y-3713893D01*
X43421000Y-3738235D01*
X43180000Y-3690297D01*
X42939000Y-3738235D01*
X42939000Y-3713893D01*
X42738785Y-3634861D01*
X42438905Y-3790216D01*
X42078275Y-4156776D01*
X41885373Y-4633440D01*
X41992992Y-4839000D01*
X42019844Y-4839000D01*
X42017000Y-4853297D01*
X42017000Y-5306703D01*
X42019844Y-5321000D01*
X41992992Y-5321000D01*
X41908774Y-5481862D01*
X41791488Y-5364576D01*
X41803000Y-5306703D01*
X41803000Y-4853297D01*
X41714472Y-4408236D01*
X41462365Y-4030932D01*
X41085061Y-3778825D01*
X40640000Y-3690297D01*
X40194939Y-3778825D01*
X39817635Y-4030932D01*
X39565528Y-4408236D01*
X39477000Y-4853297D01*
X39477000Y-5306703D01*
X39565528Y-5751764D01*
X39817635Y-6129068D01*
X40148282Y-6350000D01*
X39817635Y-6570932D01*
X39565528Y-6948236D01*
X39477000Y-7393297D01*
X39477000Y-7846703D01*
X39565528Y-8291764D01*
X39817635Y-8669068D01*
X40027000Y-8808962D01*
X40027000Y-11176088D01*
X31951544Y-19251544D01*
X31818662Y-19450415D01*
X31772000Y-19685000D01*
X31772000Y-28056087D01*
X31102378Y-28725710D01*
X30979585Y-28643662D01*
X30745000Y-28597000D01*
X30551900Y-28597000D01*
X30412006Y-28387635D01*
X30034702Y-28135528D01*
X29589641Y-28047000D01*
X28830359Y-28047000D01*
X28667522Y-28079390D01*
X28913913Y-27833000D01*
X29589641Y-27833000D01*
X30034702Y-27744472D01*
X30412006Y-27492365D01*
X30664113Y-27115061D01*
X30752641Y-26670000D01*
X30664113Y-26224939D01*
X30517514Y-26005538D01*
X30714585Y-25966338D01*
X30913456Y-25833456D01*
X31548457Y-25198456D01*
X31681338Y-24999585D01*
X31728000Y-24765000D01*
X31728000Y-23495000D01*
X31681338Y-23260415D01*
X31570737Y-23094889D01*
X31548457Y-23061544D01*
X30607180Y-22120267D01*
X30664113Y-22035061D01*
X30752641Y-21590000D01*
X30664113Y-21144939D01*
X30412006Y-20767635D01*
X30034702Y-20515528D01*
X29589641Y-20427000D01*
X28830359Y-20427000D01*
X28385298Y-20515528D01*
X28007994Y-20767635D01*
X27755887Y-21144939D01*
X27667359Y-21590000D01*
X27699749Y-21752837D01*
X26013000Y-20066088D01*
X26013000Y-18033912D01*
X27699749Y-16347163D01*
X27667359Y-16510000D01*
X27755887Y-16955061D01*
X28007994Y-17332365D01*
X28385298Y-17584472D01*
X28830359Y-17673000D01*
X29589641Y-17673000D01*
X30034702Y-17584472D01*
X30275869Y-17423329D01*
X30349702Y-17538068D01*
X30471006Y-17620951D01*
X30615000Y-17650111D01*
X31277977Y-17650111D01*
X31018199Y-17909889D01*
X30615000Y-17909889D01*
X30480480Y-17935201D01*
X30356932Y-18014702D01*
X30274308Y-18135628D01*
X30034702Y-17975528D01*
X29589641Y-17887000D01*
X28830359Y-17887000D01*
X28385298Y-17975528D01*
X28007994Y-18227635D01*
X27755887Y-18604939D01*
X27667359Y-19050000D01*
X27755887Y-19495061D01*
X28007994Y-19872365D01*
X28385298Y-20124472D01*
X28830359Y-20213000D01*
X29589641Y-20213000D01*
X30034702Y-20124472D01*
X30412006Y-19872365D01*
X30551900Y-19663000D01*
X30745000Y-19663000D01*
X30979585Y-19616338D01*
X31178456Y-19483456D01*
X31211801Y-19450111D01*
X31615000Y-19450111D01*
X31749520Y-19424799D01*
X31873068Y-19345298D01*
X31955951Y-19223994D01*
X31985111Y-19080000D01*
X31985111Y-18676801D01*
X38533457Y-12128456D01*
X38666338Y-11929585D01*
X38713000Y-11695000D01*
X38713000Y-8808962D01*
X38922365Y-8669068D01*
X39174472Y-8291764D01*
X39263000Y-7846703D01*
X39263000Y-7393297D01*
X39174472Y-6948236D01*
X38922365Y-6570932D01*
X38591718Y-6350000D01*
X38922365Y-6129068D01*
X39174472Y-5751764D01*
X39263000Y-5306703D01*
X39263000Y-4853297D01*
X39174472Y-4408236D01*
X38922365Y-4030932D01*
X38545061Y-3778825D01*
X38100000Y-3690297D01*
X37654939Y-3778825D01*
X37277635Y-4030932D01*
X37025528Y-4408236D01*
X36937000Y-4853297D01*
X36937000Y-5306703D01*
X36948512Y-5364576D01*
X36831226Y-5481862D01*
X36747008Y-5321000D01*
X36720156Y-5321000D01*
X36723000Y-5306703D01*
X36723000Y-4853297D01*
X36720156Y-4839000D01*
X36747008Y-4839000D01*
X36854627Y-4633440D01*
X36661725Y-4156776D01*
X36301095Y-3790216D01*
X36001215Y-3634861D01*
X35801000Y-3713893D01*
X35801000Y-3738235D01*
X35560000Y-3690297D01*
X35319000Y-3738235D01*
X35319000Y-3713893D01*
X35271693Y-3695219D01*
X37083913Y-1883000D01*
X42291088Y-1883000D01*
X45107000Y-4698912D01*
X45107000Y-9906087D01*
X40841544Y-14171544D01*
X40708662Y-14370415D01*
X40662000Y-14605000D01*
X40662000Y-23615000D01*
X40708662Y-23849585D01*
X40841544Y-24048456D01*
X43090397Y-26297309D01*
X42674073Y-26380121D01*
X42312990Y-26621389D01*
X42071722Y-26982472D01*
X41987000Y-27408399D01*
X41987000Y-28471601D01*
X42071722Y-28897528D01*
X42312990Y-29258611D01*
X42674073Y-29499879D01*
X43100000Y-29584601D01*
X43525927Y-29499879D01*
X43887010Y-29258611D01*
X44128278Y-28897528D01*
X44213000Y-28471601D01*
X44213000Y-27419913D01*
X44487000Y-27693913D01*
X44487000Y-28471601D01*
X44571722Y-28897528D01*
X44812990Y-29258611D01*
X45174073Y-29499879D01*
X45600000Y-29584601D01*
X46025927Y-29499879D01*
X46387010Y-29258611D01*
X46628278Y-28897528D01*
X46713000Y-28471601D01*
X46713000Y-27408399D01*
X46628278Y-26982472D01*
X46387010Y-26621389D01*
X46025927Y-26380121D01*
X45600000Y-26295399D01*
X45174073Y-26380121D01*
X45013995Y-26487082D01*
X41888000Y-23361088D01*
X41888000Y-20467968D01*
X42636591Y-20467968D01*
X42995578Y-21336783D01*
X43659720Y-22002086D01*
X44527908Y-22362589D01*
X45467968Y-22363409D01*
X46336783Y-22004422D01*
X47002086Y-21340280D01*
X47362589Y-20472092D01*
X47363409Y-19532032D01*
X47004422Y-18663217D01*
X46340280Y-17997914D01*
X45472092Y-17637411D01*
X44532032Y-17636591D01*
X43663217Y-17995578D01*
X42997914Y-18659720D01*
X42637411Y-19527908D01*
X42636591Y-20467968D01*
X41888000Y-20467968D01*
X41888000Y-14858912D01*
X46153456Y-10593457D01*
X46286338Y-10394585D01*
X46319342Y-10228662D01*
X46333000Y-10160000D01*
X46333000Y-4445000D01*
X46286338Y-4210415D01*
X46153456Y-4011544D01*
X42978456Y-836544D01*
X42779585Y-703662D01*
X42545000Y-657000D01*
X36830000Y-657000D01*
X36595415Y-703662D01*
X36396543Y-836544D01*
X34290000Y-2943087D01*
X32183456Y-836544D01*
X31984585Y-703662D01*
X31750000Y-657000D01*
X7620000Y-657000D01*
X7385415Y-703662D01*
X7186543Y-836544D01*
X4646545Y-3376543D01*
X4646544Y-3376544D01*
X4513662Y-3575415D01*
X4467000Y-3810000D01*
X4467000Y-7620000D01*
X4512094Y-7846703D01*
X4513662Y-7854585D01*
X4646544Y-8053456D01*
X7186543Y-10593456D01*
X7385415Y-10726338D01*
X7620000Y-10773000D01*
X9547000Y-10773000D01*
X9547000Y-12065000D01*
X9586054Y-12261338D01*
X9593662Y-12299585D01*
X9726544Y-12498456D01*
X13992000Y-16763913D01*
X13992000Y-17710071D01*
X13881208Y-17599085D01*
X13527393Y-17452168D01*
X13144288Y-17451833D01*
X12790217Y-17598133D01*
X12585994Y-17802000D01*
X11430000Y-17802000D01*
X11195415Y-17848662D01*
X10996543Y-17981544D01*
X9726544Y-19251544D01*
X9593662Y-19450415D01*
X9547000Y-19685000D01*
X9547000Y-20219889D01*
X9160000Y-20219889D01*
X9025480Y-20245201D01*
X8901932Y-20324702D01*
X8819049Y-20446006D01*
X8789889Y-20590000D01*
X8789889Y-22590000D01*
X8815201Y-22724520D01*
X8894702Y-22848068D01*
X9016006Y-22930951D01*
X9160000Y-22960111D01*
X9547000Y-22960111D01*
X9547000Y-26451665D01*
X9292990Y-26621389D01*
X9051722Y-26982472D01*
X8967000Y-27408399D01*
X8967000Y-28471601D01*
X9051722Y-28897528D01*
X9292990Y-29258611D01*
X9654073Y-29499879D01*
X10080000Y-29584601D01*
X10505927Y-29499879D01*
X10867010Y-29258611D01*
X11108278Y-28897528D01*
X11193000Y-28471601D01*
X11193000Y-27408399D01*
X11108278Y-26982472D01*
X10867010Y-26621389D01*
X10773000Y-26558574D01*
X10773000Y-22960111D01*
X11160000Y-22960111D01*
X11294520Y-22934799D01*
X11418068Y-22855298D01*
X11500951Y-22733994D01*
X11530111Y-22590000D01*
X11530111Y-22327864D01*
X11543831Y-22361069D01*
X11926914Y-22744822D01*
X12087000Y-22811295D01*
X12087000Y-23116152D01*
X12065480Y-23120201D01*
X11941932Y-23199702D01*
X11859049Y-23321006D01*
X11829889Y-23465000D01*
X11829889Y-24265000D01*
X11855201Y-24399520D01*
X11934702Y-24523068D01*
X12056006Y-24605951D01*
X12200000Y-24635111D01*
X12862977Y-24635111D01*
X12603199Y-24894889D01*
X12200000Y-24894889D01*
X12065480Y-24920201D01*
X11941932Y-24999702D01*
X11859049Y-25121006D01*
X11829889Y-25265000D01*
X11829889Y-26065000D01*
X11855201Y-26199520D01*
X11934702Y-26323068D01*
X12056006Y-26405951D01*
X12087000Y-26412228D01*
X12087000Y-26424938D01*
X11792990Y-26621389D01*
X11551722Y-26982472D01*
X11467000Y-27408399D01*
X11467000Y-28471601D01*
X11551722Y-28897528D01*
X11792990Y-29258611D01*
X12154073Y-29499879D01*
X12580000Y-29584601D01*
X13005927Y-29499879D01*
X13166006Y-29392918D01*
X15956544Y-32183457D01*
X16155415Y-32316338D01*
X16390000Y-32363000D01*
X20248100Y-32363000D01*
X20277500Y-32407000D01*
X10413913Y-32407000D01*
X7589603Y-29582691D01*
X8005927Y-29499879D01*
X8367010Y-29258611D01*
X8608278Y-28897528D01*
X8693000Y-28471601D01*
X8693000Y-27408399D01*
X8608278Y-26982472D01*
X8367010Y-26621389D01*
X8164352Y-26485977D01*
X8146338Y-26395415D01*
X8062261Y-26269585D01*
X8013456Y-26196543D01*
X7418456Y-25601544D01*
X7219585Y-25468662D01*
X6985000Y-25422000D01*
X4445000Y-25422000D01*
X4210415Y-25468662D01*
X4011544Y-25601543D01*
X3376545Y-26236543D01*
X3376544Y-26236544D01*
X3243662Y-26435415D01*
X3197000Y-26670000D01*
X3197000Y-29210000D01*
X3223936Y-29345415D01*
X3243662Y-29444585D01*
X3376544Y-29643456D01*
X8295087Y-34562000D01*
X438000Y-34562000D01*
X438000Y-20467968D01*
X2636591Y-20467968D01*
X2995578Y-21336783D01*
X3659720Y-22002086D01*
X4527908Y-22362589D01*
X5467968Y-22363409D01*
X6336783Y-22004422D01*
X7002086Y-21340280D01*
X7362589Y-20472092D01*
X7363409Y-19532032D01*
X7004422Y-18663217D01*
X6340280Y-17997914D01*
X5472092Y-17637411D01*
X4532032Y-17636591D01*
X3663217Y-17995578D01*
X2997914Y-18659720D01*
X2637411Y-19527908D01*
X2636591Y-20467968D01*
X438000Y-20467968D01*
X438000Y-438000D01*
X49562000Y-438000D01*
X49562000Y-34562000D01*
X49562000Y-34562000D01*
G37*
X49562000Y-34562000D02*
X32344912Y-34562000D01*
X37513995Y-29392918D01*
X37674073Y-29499879D01*
X38100000Y-29584601D01*
X38525927Y-29499879D01*
X38887010Y-29258611D01*
X39128278Y-28897528D01*
X39213000Y-28471601D01*
X39213000Y-27408399D01*
X39128278Y-26982472D01*
X38887010Y-26621389D01*
X38525927Y-26380121D01*
X38100000Y-26295399D01*
X37674073Y-26380121D01*
X37312990Y-26621389D01*
X37071722Y-26982472D01*
X36987000Y-27408399D01*
X36987000Y-28186087D01*
X36808000Y-28365087D01*
X36808000Y-26923912D01*
X37718913Y-26013000D01*
X39116088Y-26013000D01*
X39777536Y-26674449D01*
X39571722Y-26982472D01*
X39487000Y-27408399D01*
X39487000Y-28471601D01*
X39571722Y-28897528D01*
X39812990Y-29258611D01*
X40174073Y-29499879D01*
X40600000Y-29584601D01*
X41025927Y-29499879D01*
X41387010Y-29258611D01*
X41628278Y-28897528D01*
X41713000Y-28471601D01*
X41713000Y-27408399D01*
X41628278Y-26982472D01*
X41387010Y-26621389D01*
X41184352Y-26485977D01*
X41166338Y-26395415D01*
X41101948Y-26299049D01*
X41033457Y-26196544D01*
X39803456Y-24966544D01*
X39604585Y-24833662D01*
X39370000Y-24787000D01*
X37465000Y-24787000D01*
X37230415Y-24833662D01*
X37031543Y-24966544D01*
X35761545Y-26236543D01*
X35761544Y-26236544D01*
X35628662Y-26435415D01*
X35582000Y-26670000D01*
X35582000Y-28321087D01*
X31906026Y-31997061D01*
X31955951Y-31923994D01*
X31985111Y-31780000D01*
X31985111Y-31376801D01*
X34088456Y-29273457D01*
X34221338Y-29074585D01*
X34229012Y-29036006D01*
X34268000Y-28840000D01*
X34268000Y-20573912D01*
X42343456Y-12498456D01*
X42476338Y-12299585D01*
X42483946Y-12261338D01*
X42523000Y-12065000D01*
X42523000Y-8953350D01*
X42738785Y-9065139D01*
X42939000Y-8986107D01*
X42939000Y-8961765D01*
X43180000Y-9009703D01*
X43421000Y-8961765D01*
X43421000Y-8986107D01*
X43621215Y-9065139D01*
X43921095Y-8909784D01*
X44281725Y-8543224D01*
X44474627Y-8066560D01*
X44367008Y-7861000D01*
X44340156Y-7861000D01*
X44343000Y-7846703D01*
X44343000Y-7393297D01*
X44340156Y-7379000D01*
X44367008Y-7379000D01*
X44474627Y-7173440D01*
X44281725Y-6696776D01*
X43940559Y-6350000D01*
X44281725Y-6003224D01*
X44474627Y-5526560D01*
X44367008Y-5321000D01*
X44340156Y-5321000D01*
X44343000Y-5306703D01*
X44343000Y-4853297D01*
X44340156Y-4839000D01*
X44367008Y-4839000D01*
X44474627Y-4633440D01*
X44281725Y-4156776D01*
X43921095Y-3790216D01*
X43621215Y-3634861D01*
X43421000Y-3713893D01*
X43421000Y-3738235D01*
X43180000Y-3690297D01*
X42939000Y-3738235D01*
X42939000Y-3713893D01*
X42738785Y-3634861D01*
X42438905Y-3790216D01*
X42078275Y-4156776D01*
X41885373Y-4633440D01*
X41992992Y-4839000D01*
X42019844Y-4839000D01*
X42017000Y-4853297D01*
X42017000Y-5306703D01*
X42019844Y-5321000D01*
X41992992Y-5321000D01*
X41908774Y-5481862D01*
X41791488Y-5364576D01*
X41803000Y-5306703D01*
X41803000Y-4853297D01*
X41714472Y-4408236D01*
X41462365Y-4030932D01*
X41085061Y-3778825D01*
X40640000Y-3690297D01*
X40194939Y-3778825D01*
X39817635Y-4030932D01*
X39565528Y-4408236D01*
X39477000Y-4853297D01*
X39477000Y-5306703D01*
X39565528Y-5751764D01*
X39817635Y-6129068D01*
X40148282Y-6350000D01*
X39817635Y-6570932D01*
X39565528Y-6948236D01*
X39477000Y-7393297D01*
X39477000Y-7846703D01*
X39565528Y-8291764D01*
X39817635Y-8669068D01*
X40027000Y-8808962D01*
X40027000Y-11176088D01*
X31951544Y-19251544D01*
X31818662Y-19450415D01*
X31772000Y-19685000D01*
X31772000Y-28056087D01*
X31102378Y-28725710D01*
X30979585Y-28643662D01*
X30745000Y-28597000D01*
X30551900Y-28597000D01*
X30412006Y-28387635D01*
X30034702Y-28135528D01*
X29589641Y-28047000D01*
X28830359Y-28047000D01*
X28667522Y-28079390D01*
X28913913Y-27833000D01*
X29589641Y-27833000D01*
X30034702Y-27744472D01*
X30412006Y-27492365D01*
X30664113Y-27115061D01*
X30752641Y-26670000D01*
X30664113Y-26224939D01*
X30517514Y-26005538D01*
X30714585Y-25966338D01*
X30913456Y-25833456D01*
X31548457Y-25198456D01*
X31681338Y-24999585D01*
X31728000Y-24765000D01*
X31728000Y-23495000D01*
X31681338Y-23260415D01*
X31570737Y-23094889D01*
X31548457Y-23061544D01*
X30607180Y-22120267D01*
X30664113Y-22035061D01*
X30752641Y-21590000D01*
X30664113Y-21144939D01*
X30412006Y-20767635D01*
X30034702Y-20515528D01*
X29589641Y-20427000D01*
X28830359Y-20427000D01*
X28385298Y-20515528D01*
X28007994Y-20767635D01*
X27755887Y-21144939D01*
X27667359Y-21590000D01*
X27699749Y-21752837D01*
X26013000Y-20066088D01*
X26013000Y-18033912D01*
X27699749Y-16347163D01*
X27667359Y-16510000D01*
X27755887Y-16955061D01*
X28007994Y-17332365D01*
X28385298Y-17584472D01*
X28830359Y-17673000D01*
X29589641Y-17673000D01*
X30034702Y-17584472D01*
X30275869Y-17423329D01*
X30349702Y-17538068D01*
X30471006Y-17620951D01*
X30615000Y-17650111D01*
X31277977Y-17650111D01*
X31018199Y-17909889D01*
X30615000Y-17909889D01*
X30480480Y-17935201D01*
X30356932Y-18014702D01*
X30274308Y-18135628D01*
X30034702Y-17975528D01*
X29589641Y-17887000D01*
X28830359Y-17887000D01*
X28385298Y-17975528D01*
X28007994Y-18227635D01*
X27755887Y-18604939D01*
X27667359Y-19050000D01*
X27755887Y-19495061D01*
X28007994Y-19872365D01*
X28385298Y-20124472D01*
X28830359Y-20213000D01*
X29589641Y-20213000D01*
X30034702Y-20124472D01*
X30412006Y-19872365D01*
X30551900Y-19663000D01*
X30745000Y-19663000D01*
X30979585Y-19616338D01*
X31178456Y-19483456D01*
X31211801Y-19450111D01*
X31615000Y-19450111D01*
X31749520Y-19424799D01*
X31873068Y-19345298D01*
X31955951Y-19223994D01*
X31985111Y-19080000D01*
X31985111Y-18676801D01*
X38533457Y-12128456D01*
X38666338Y-11929585D01*
X38713000Y-11695000D01*
X38713000Y-8808962D01*
X38922365Y-8669068D01*
X39174472Y-8291764D01*
X39263000Y-7846703D01*
X39263000Y-7393297D01*
X39174472Y-6948236D01*
X38922365Y-6570932D01*
X38591718Y-6350000D01*
X38922365Y-6129068D01*
X39174472Y-5751764D01*
X39263000Y-5306703D01*
X39263000Y-4853297D01*
X39174472Y-4408236D01*
X38922365Y-4030932D01*
X38545061Y-3778825D01*
X38100000Y-3690297D01*
X37654939Y-3778825D01*
X37277635Y-4030932D01*
X37025528Y-4408236D01*
X36937000Y-4853297D01*
X36937000Y-5306703D01*
X36948512Y-5364576D01*
X36831226Y-5481862D01*
X36747008Y-5321000D01*
X36720156Y-5321000D01*
X36723000Y-5306703D01*
X36723000Y-4853297D01*
X36720156Y-4839000D01*
X36747008Y-4839000D01*
X36854627Y-4633440D01*
X36661725Y-4156776D01*
X36301095Y-3790216D01*
X36001215Y-3634861D01*
X35801000Y-3713893D01*
X35801000Y-3738235D01*
X35560000Y-3690297D01*
X35319000Y-3738235D01*
X35319000Y-3713893D01*
X35271693Y-3695219D01*
X37083913Y-1883000D01*
X42291088Y-1883000D01*
X45107000Y-4698912D01*
X45107000Y-9906087D01*
X40841544Y-14171544D01*
X40708662Y-14370415D01*
X40662000Y-14605000D01*
X40662000Y-23615000D01*
X40708662Y-23849585D01*
X40841544Y-24048456D01*
X43090397Y-26297309D01*
X42674073Y-26380121D01*
X42312990Y-26621389D01*
X42071722Y-26982472D01*
X41987000Y-27408399D01*
X41987000Y-28471601D01*
X42071722Y-28897528D01*
X42312990Y-29258611D01*
X42674073Y-29499879D01*
X43100000Y-29584601D01*
X43525927Y-29499879D01*
X43887010Y-29258611D01*
X44128278Y-28897528D01*
X44213000Y-28471601D01*
X44213000Y-27419913D01*
X44487000Y-27693913D01*
X44487000Y-28471601D01*
X44571722Y-28897528D01*
X44812990Y-29258611D01*
X45174073Y-29499879D01*
X45600000Y-29584601D01*
X46025927Y-29499879D01*
X46387010Y-29258611D01*
X46628278Y-28897528D01*
X46713000Y-28471601D01*
X46713000Y-27408399D01*
X46628278Y-26982472D01*
X46387010Y-26621389D01*
X46025927Y-26380121D01*
X45600000Y-26295399D01*
X45174073Y-26380121D01*
X45013995Y-26487082D01*
X41888000Y-23361088D01*
X41888000Y-20467968D01*
X42636591Y-20467968D01*
X42995578Y-21336783D01*
X43659720Y-22002086D01*
X44527908Y-22362589D01*
X45467968Y-22363409D01*
X46336783Y-22004422D01*
X47002086Y-21340280D01*
X47362589Y-20472092D01*
X47363409Y-19532032D01*
X47004422Y-18663217D01*
X46340280Y-17997914D01*
X45472092Y-17637411D01*
X44532032Y-17636591D01*
X43663217Y-17995578D01*
X42997914Y-18659720D01*
X42637411Y-19527908D01*
X42636591Y-20467968D01*
X41888000Y-20467968D01*
X41888000Y-14858912D01*
X46153456Y-10593457D01*
X46286338Y-10394585D01*
X46319342Y-10228662D01*
X46333000Y-10160000D01*
X46333000Y-4445000D01*
X46286338Y-4210415D01*
X46153456Y-4011544D01*
X42978456Y-836544D01*
X42779585Y-703662D01*
X42545000Y-657000D01*
X36830000Y-657000D01*
X36595415Y-703662D01*
X36396543Y-836544D01*
X34290000Y-2943087D01*
X32183456Y-836544D01*
X31984585Y-703662D01*
X31750000Y-657000D01*
X7620000Y-657000D01*
X7385415Y-703662D01*
X7186543Y-836544D01*
X4646545Y-3376543D01*
X4646544Y-3376544D01*
X4513662Y-3575415D01*
X4467000Y-3810000D01*
X4467000Y-7620000D01*
X4512094Y-7846703D01*
X4513662Y-7854585D01*
X4646544Y-8053456D01*
X7186543Y-10593456D01*
X7385415Y-10726338D01*
X7620000Y-10773000D01*
X9547000Y-10773000D01*
X9547000Y-12065000D01*
X9586054Y-12261338D01*
X9593662Y-12299585D01*
X9726544Y-12498456D01*
X13992000Y-16763913D01*
X13992000Y-17710071D01*
X13881208Y-17599085D01*
X13527393Y-17452168D01*
X13144288Y-17451833D01*
X12790217Y-17598133D01*
X12585994Y-17802000D01*
X11430000Y-17802000D01*
X11195415Y-17848662D01*
X10996543Y-17981544D01*
X9726544Y-19251544D01*
X9593662Y-19450415D01*
X9547000Y-19685000D01*
X9547000Y-20219889D01*
X9160000Y-20219889D01*
X9025480Y-20245201D01*
X8901932Y-20324702D01*
X8819049Y-20446006D01*
X8789889Y-20590000D01*
X8789889Y-22590000D01*
X8815201Y-22724520D01*
X8894702Y-22848068D01*
X9016006Y-22930951D01*
X9160000Y-22960111D01*
X9547000Y-22960111D01*
X9547000Y-26451665D01*
X9292990Y-26621389D01*
X9051722Y-26982472D01*
X8967000Y-27408399D01*
X8967000Y-28471601D01*
X9051722Y-28897528D01*
X9292990Y-29258611D01*
X9654073Y-29499879D01*
X10080000Y-29584601D01*
X10505927Y-29499879D01*
X10867010Y-29258611D01*
X11108278Y-28897528D01*
X11193000Y-28471601D01*
X11193000Y-27408399D01*
X11108278Y-26982472D01*
X10867010Y-26621389D01*
X10773000Y-26558574D01*
X10773000Y-22960111D01*
X11160000Y-22960111D01*
X11294520Y-22934799D01*
X11418068Y-22855298D01*
X11500951Y-22733994D01*
X11530111Y-22590000D01*
X11530111Y-22327864D01*
X11543831Y-22361069D01*
X11926914Y-22744822D01*
X12087000Y-22811295D01*
X12087000Y-23116152D01*
X12065480Y-23120201D01*
X11941932Y-23199702D01*
X11859049Y-23321006D01*
X11829889Y-23465000D01*
X11829889Y-24265000D01*
X11855201Y-24399520D01*
X11934702Y-24523068D01*
X12056006Y-24605951D01*
X12200000Y-24635111D01*
X12862977Y-24635111D01*
X12603199Y-24894889D01*
X12200000Y-24894889D01*
X12065480Y-24920201D01*
X11941932Y-24999702D01*
X11859049Y-25121006D01*
X11829889Y-25265000D01*
X11829889Y-26065000D01*
X11855201Y-26199520D01*
X11934702Y-26323068D01*
X12056006Y-26405951D01*
X12087000Y-26412228D01*
X12087000Y-26424938D01*
X11792990Y-26621389D01*
X11551722Y-26982472D01*
X11467000Y-27408399D01*
X11467000Y-28471601D01*
X11551722Y-28897528D01*
X11792990Y-29258611D01*
X12154073Y-29499879D01*
X12580000Y-29584601D01*
X13005927Y-29499879D01*
X13166006Y-29392918D01*
X15956544Y-32183457D01*
X16155415Y-32316338D01*
X16390000Y-32363000D01*
X20248100Y-32363000D01*
X20277500Y-32407000D01*
X10413913Y-32407000D01*
X7589603Y-29582691D01*
X8005927Y-29499879D01*
X8367010Y-29258611D01*
X8608278Y-28897528D01*
X8693000Y-28471601D01*
X8693000Y-27408399D01*
X8608278Y-26982472D01*
X8367010Y-26621389D01*
X8164352Y-26485977D01*
X8146338Y-26395415D01*
X8062261Y-26269585D01*
X8013456Y-26196543D01*
X7418456Y-25601544D01*
X7219585Y-25468662D01*
X6985000Y-25422000D01*
X4445000Y-25422000D01*
X4210415Y-25468662D01*
X4011544Y-25601543D01*
X3376545Y-26236543D01*
X3376544Y-26236544D01*
X3243662Y-26435415D01*
X3197000Y-26670000D01*
X3197000Y-29210000D01*
X3223936Y-29345415D01*
X3243662Y-29444585D01*
X3376544Y-29643456D01*
X8295087Y-34562000D01*
X438000Y-34562000D01*
X438000Y-20467968D01*
X2636591Y-20467968D01*
X2995578Y-21336783D01*
X3659720Y-22002086D01*
X4527908Y-22362589D01*
X5467968Y-22363409D01*
X6336783Y-22004422D01*
X7002086Y-21340280D01*
X7362589Y-20472092D01*
X7363409Y-19532032D01*
X7004422Y-18663217D01*
X6340280Y-17997914D01*
X5472092Y-17637411D01*
X4532032Y-17636591D01*
X3663217Y-17995578D01*
X2997914Y-18659720D01*
X2637411Y-19527908D01*
X2636591Y-20467968D01*
X438000Y-20467968D01*
X438000Y-438000D01*
X49562000Y-438000D01*
X49562000Y-34562000D01*
G36*
X24787000Y-20320000D02*
X24813949Y-20455480D01*
X24833662Y-20554585D01*
X24966544Y-20753456D01*
X27812820Y-23599733D01*
X27755887Y-23684939D01*
X27667359Y-24130000D01*
X27755887Y-24575061D01*
X27897500Y-24787000D01*
X27305000Y-24787000D01*
X27070415Y-24833662D01*
X26871543Y-24966544D01*
X25601545Y-26236543D01*
X25601544Y-26236544D01*
X25468662Y-26435415D01*
X25422000Y-26670000D01*
X25422000Y-32385000D01*
X25462090Y-32586544D01*
X25468662Y-32619585D01*
X25601544Y-32818456D01*
X27345087Y-34562000D01*
X23454912Y-34562000D01*
X25198457Y-32818456D01*
X25331338Y-32619585D01*
X25337910Y-32586544D01*
X25378000Y-32385000D01*
X25378000Y-22225000D01*
X25331338Y-21990415D01*
X25198456Y-21791544D01*
X22987180Y-19580268D01*
X23044113Y-19495061D01*
X23132641Y-19050000D01*
X23044113Y-18604939D01*
X22902500Y-18393000D01*
X24787000Y-18393000D01*
X24787000Y-20320000D01*
X24787000Y-20320000D01*
G37*
X24787000Y-20320000D02*
X24813949Y-20455480D01*
X24833662Y-20554585D01*
X24966544Y-20753456D01*
X27812820Y-23599733D01*
X27755887Y-23684939D01*
X27667359Y-24130000D01*
X27755887Y-24575061D01*
X27897500Y-24787000D01*
X27305000Y-24787000D01*
X27070415Y-24833662D01*
X26871543Y-24966544D01*
X25601545Y-26236543D01*
X25601544Y-26236544D01*
X25468662Y-26435415D01*
X25422000Y-26670000D01*
X25422000Y-32385000D01*
X25462090Y-32586544D01*
X25468662Y-32619585D01*
X25601544Y-32818456D01*
X27345087Y-34562000D01*
X23454912Y-34562000D01*
X25198457Y-32818456D01*
X25331338Y-32619585D01*
X25337910Y-32586544D01*
X25378000Y-32385000D01*
X25378000Y-22225000D01*
X25331338Y-21990415D01*
X25198456Y-21791544D01*
X22987180Y-19580268D01*
X23044113Y-19495061D01*
X23132641Y-19050000D01*
X23044113Y-18604939D01*
X22902500Y-18393000D01*
X24787000Y-18393000D01*
X24787000Y-20320000D01*
G36*
X9726544Y-33453457D02*
X9925415Y-33586338D01*
X10160000Y-33633000D01*
X22650088Y-33633000D01*
X22606088Y-33677000D01*
X9143913Y-33677000D01*
X5044440Y-29577528D01*
X5080000Y-29584601D01*
X5505927Y-29499879D01*
X5666006Y-29392918D01*
X9726544Y-33453457D01*
X9726544Y-33453457D01*
G37*
X9726544Y-33453457D02*
X9925415Y-33586338D01*
X10160000Y-33633000D01*
X22650088Y-33633000D01*
X22606088Y-33677000D01*
X9143913Y-33677000D01*
X5044440Y-29577528D01*
X5080000Y-29584601D01*
X5505927Y-29499879D01*
X5666006Y-29392918D01*
X9726544Y-33453457D01*
G36*
X31496088Y-33677000D02*
X28193913Y-33677000D01*
X28149913Y-33633000D01*
X31540088Y-33633000D01*
X31496088Y-33677000D01*
X31496088Y-33677000D01*
G37*
X31496088Y-33677000D02*
X28193913Y-33677000D01*
X28149913Y-33633000D01*
X31540088Y-33633000D01*
X31496088Y-33677000D01*
G36*
X31496088Y-32407000D02*
X30522500Y-32407000D01*
X30551900Y-32363000D01*
X30745000Y-32363000D01*
X30979585Y-32316338D01*
X31178456Y-32183456D01*
X31211801Y-32150111D01*
X31615000Y-32150111D01*
X31749520Y-32124799D01*
X31830214Y-32072874D01*
X31496088Y-32407000D01*
X31496088Y-32407000D01*
G37*
X31496088Y-32407000D02*
X30522500Y-32407000D01*
X30551900Y-32363000D01*
X30745000Y-32363000D01*
X30979585Y-32316338D01*
X31178456Y-32183456D01*
X31211801Y-32150111D01*
X31615000Y-32150111D01*
X31749520Y-32124799D01*
X31830214Y-32072874D01*
X31496088Y-32407000D01*
G36*
X27755887Y-26224939D02*
X27667359Y-26670000D01*
X27755887Y-27115061D01*
X27812820Y-27200267D01*
X26871544Y-28141544D01*
X26738662Y-28340415D01*
X26692000Y-28575000D01*
X26692000Y-32175088D01*
X26648000Y-32131088D01*
X26648000Y-26923912D01*
X27558913Y-26013000D01*
X27897500Y-26013000D01*
X27755887Y-26224939D01*
X27755887Y-26224939D01*
G37*
X27755887Y-26224939D02*
X27667359Y-26670000D01*
X27755887Y-27115061D01*
X27812820Y-27200267D01*
X26871544Y-28141544D01*
X26738662Y-28340415D01*
X26692000Y-28575000D01*
X26692000Y-32175088D01*
X26648000Y-32131088D01*
X26648000Y-26923912D01*
X27558913Y-26013000D01*
X27897500Y-26013000D01*
X27755887Y-26224939D01*
G36*
X19072000Y-19685000D02*
X19112090Y-19886544D01*
X19118662Y-19919585D01*
X19251544Y-20118456D01*
X20192820Y-21059733D01*
X20135887Y-21144939D01*
X20047359Y-21590000D01*
X20135887Y-22035061D01*
X20387994Y-22412365D01*
X20765298Y-22664472D01*
X21210359Y-22753000D01*
X21969641Y-22753000D01*
X22414702Y-22664472D01*
X22792006Y-22412365D01*
X23044113Y-22035061D01*
X23132641Y-21590000D01*
X23100251Y-21427163D01*
X24152000Y-22478912D01*
X24152000Y-32131087D01*
X24108000Y-32175087D01*
X24108000Y-26035000D01*
X24061338Y-25800415D01*
X23928457Y-25601544D01*
X22987180Y-24660267D01*
X23044113Y-24575061D01*
X23132641Y-24130000D01*
X23044113Y-23684939D01*
X22792006Y-23307635D01*
X22414702Y-23055528D01*
X21969641Y-22967000D01*
X21210359Y-22967000D01*
X20765298Y-23055528D01*
X20387994Y-23307635D01*
X20135887Y-23684939D01*
X20047359Y-24130000D01*
X20135887Y-24575061D01*
X20387994Y-24952365D01*
X20765298Y-25204472D01*
X21210359Y-25293000D01*
X21886088Y-25293000D01*
X22132478Y-25539390D01*
X21969641Y-25507000D01*
X21210359Y-25507000D01*
X20765298Y-25595528D01*
X20387994Y-25847635D01*
X20248100Y-26057000D01*
X20055000Y-26057000D01*
X19820415Y-26103662D01*
X19697623Y-26185710D01*
X17758000Y-24246088D01*
X17758000Y-19119929D01*
X17868792Y-19230915D01*
X18222607Y-19377832D01*
X18605712Y-19378167D01*
X18959783Y-19231867D01*
X19072000Y-19119846D01*
X19072000Y-19685000D01*
X19072000Y-19685000D01*
G37*
X19072000Y-19685000D02*
X19112090Y-19886544D01*
X19118662Y-19919585D01*
X19251544Y-20118456D01*
X20192820Y-21059733D01*
X20135887Y-21144939D01*
X20047359Y-21590000D01*
X20135887Y-22035061D01*
X20387994Y-22412365D01*
X20765298Y-22664472D01*
X21210359Y-22753000D01*
X21969641Y-22753000D01*
X22414702Y-22664472D01*
X22792006Y-22412365D01*
X23044113Y-22035061D01*
X23132641Y-21590000D01*
X23100251Y-21427163D01*
X24152000Y-22478912D01*
X24152000Y-32131087D01*
X24108000Y-32175087D01*
X24108000Y-26035000D01*
X24061338Y-25800415D01*
X23928457Y-25601544D01*
X22987180Y-24660267D01*
X23044113Y-24575061D01*
X23132641Y-24130000D01*
X23044113Y-23684939D01*
X22792006Y-23307635D01*
X22414702Y-23055528D01*
X21969641Y-22967000D01*
X21210359Y-22967000D01*
X20765298Y-23055528D01*
X20387994Y-23307635D01*
X20135887Y-23684939D01*
X20047359Y-24130000D01*
X20135887Y-24575061D01*
X20387994Y-24952365D01*
X20765298Y-25204472D01*
X21210359Y-25293000D01*
X21886088Y-25293000D01*
X22132478Y-25539390D01*
X21969641Y-25507000D01*
X21210359Y-25507000D01*
X20765298Y-25595528D01*
X20387994Y-25847635D01*
X20248100Y-26057000D01*
X20055000Y-26057000D01*
X19820415Y-26103662D01*
X19697623Y-26185710D01*
X17758000Y-24246088D01*
X17758000Y-19119929D01*
X17868792Y-19230915D01*
X18222607Y-19377832D01*
X18605712Y-19378167D01*
X18959783Y-19231867D01*
X19072000Y-19119846D01*
X19072000Y-19685000D01*
G36*
X10817000Y-11430000D02*
X10830658Y-11498662D01*
X10863662Y-11664585D01*
X10996544Y-11863456D01*
X15262000Y-16128913D01*
X15262000Y-25030000D01*
X15281987Y-25130480D01*
X15308662Y-25264585D01*
X15441544Y-25463456D01*
X18814889Y-28836802D01*
X18814889Y-29240000D01*
X18840201Y-29374520D01*
X18919702Y-29498068D01*
X19041006Y-29580951D01*
X19185000Y-29610111D01*
X19588199Y-29610111D01*
X19621544Y-29643456D01*
X19820415Y-29776338D01*
X20055000Y-29823000D01*
X20248100Y-29823000D01*
X20387994Y-30032365D01*
X20765298Y-30284472D01*
X21210359Y-30373000D01*
X21969641Y-30373000D01*
X22414702Y-30284472D01*
X22792006Y-30032365D01*
X22882000Y-29897680D01*
X22882000Y-31062320D01*
X22792006Y-30927635D01*
X22414702Y-30675528D01*
X21969641Y-30587000D01*
X21210359Y-30587000D01*
X20765298Y-30675528D01*
X20387994Y-30927635D01*
X20248100Y-31137000D01*
X16643913Y-31137000D01*
X13693000Y-28186088D01*
X13693000Y-27408399D01*
X13608278Y-26982472D01*
X13367010Y-26621389D01*
X13313000Y-26585301D01*
X13313000Y-26413848D01*
X13334520Y-26409799D01*
X13458068Y-26330298D01*
X13540951Y-26208994D01*
X13570111Y-26065000D01*
X13570111Y-25661801D01*
X15038457Y-24193456D01*
X15171338Y-23994585D01*
X15183456Y-23933662D01*
X15218000Y-23760000D01*
X15218000Y-16510000D01*
X15171338Y-16275415D01*
X15130771Y-16214702D01*
X15038456Y-16076543D01*
X10773000Y-11811088D01*
X10773000Y-8808962D01*
X10817000Y-8779562D01*
X10817000Y-11430000D01*
X10817000Y-11430000D01*
G37*
X10817000Y-11430000D02*
X10830658Y-11498662D01*
X10863662Y-11664585D01*
X10996544Y-11863456D01*
X15262000Y-16128913D01*
X15262000Y-25030000D01*
X15281987Y-25130480D01*
X15308662Y-25264585D01*
X15441544Y-25463456D01*
X18814889Y-28836802D01*
X18814889Y-29240000D01*
X18840201Y-29374520D01*
X18919702Y-29498068D01*
X19041006Y-29580951D01*
X19185000Y-29610111D01*
X19588199Y-29610111D01*
X19621544Y-29643456D01*
X19820415Y-29776338D01*
X20055000Y-29823000D01*
X20248100Y-29823000D01*
X20387994Y-30032365D01*
X20765298Y-30284472D01*
X21210359Y-30373000D01*
X21969641Y-30373000D01*
X22414702Y-30284472D01*
X22792006Y-30032365D01*
X22882000Y-29897680D01*
X22882000Y-31062320D01*
X22792006Y-30927635D01*
X22414702Y-30675528D01*
X21969641Y-30587000D01*
X21210359Y-30587000D01*
X20765298Y-30675528D01*
X20387994Y-30927635D01*
X20248100Y-31137000D01*
X16643913Y-31137000D01*
X13693000Y-28186088D01*
X13693000Y-27408399D01*
X13608278Y-26982472D01*
X13367010Y-26621389D01*
X13313000Y-26585301D01*
X13313000Y-26413848D01*
X13334520Y-26409799D01*
X13458068Y-26330298D01*
X13540951Y-26208994D01*
X13570111Y-26065000D01*
X13570111Y-25661801D01*
X15038457Y-24193456D01*
X15171338Y-23994585D01*
X15183456Y-23933662D01*
X15218000Y-23760000D01*
X15218000Y-16510000D01*
X15171338Y-16275415D01*
X15130771Y-16214702D01*
X15038456Y-16076543D01*
X10773000Y-11811088D01*
X10773000Y-8808962D01*
X10817000Y-8779562D01*
X10817000Y-11430000D01*
G36*
X28007994Y-30032365D02*
X28385298Y-30284472D01*
X28830359Y-30373000D01*
X29589641Y-30373000D01*
X30034702Y-30284472D01*
X30275869Y-30123329D01*
X30349702Y-30238068D01*
X30471006Y-30320951D01*
X30615000Y-30350111D01*
X31277977Y-30350111D01*
X31018199Y-30609889D01*
X30615000Y-30609889D01*
X30480480Y-30635201D01*
X30356932Y-30714702D01*
X30274308Y-30835628D01*
X30034702Y-30675528D01*
X29589641Y-30587000D01*
X28830359Y-30587000D01*
X28385298Y-30675528D01*
X28007994Y-30927635D01*
X27918000Y-31062320D01*
X27918000Y-29897680D01*
X28007994Y-30032365D01*
X28007994Y-30032365D01*
G37*
X28007994Y-30032365D02*
X28385298Y-30284472D01*
X28830359Y-30373000D01*
X29589641Y-30373000D01*
X30034702Y-30284472D01*
X30275869Y-30123329D01*
X30349702Y-30238068D01*
X30471006Y-30320951D01*
X30615000Y-30350111D01*
X31277977Y-30350111D01*
X31018199Y-30609889D01*
X30615000Y-30609889D01*
X30480480Y-30635201D01*
X30356932Y-30714702D01*
X30274308Y-30835628D01*
X30034702Y-30675528D01*
X29589641Y-30587000D01*
X28830359Y-30587000D01*
X28385298Y-30675528D01*
X28007994Y-30927635D01*
X27918000Y-31062320D01*
X27918000Y-29897680D01*
X28007994Y-30032365D01*
G36*
X41297000Y-11811088D02*
X33221544Y-19886544D01*
X33088662Y-20085415D01*
X33042000Y-20320000D01*
X33042000Y-28586087D01*
X31985111Y-29642976D01*
X31985111Y-29576801D01*
X32818456Y-28743457D01*
X32951338Y-28544585D01*
X32972141Y-28440000D01*
X32998000Y-28310000D01*
X32998000Y-19938912D01*
X41073456Y-11863456D01*
X41206338Y-11664585D01*
X41239342Y-11498662D01*
X41253000Y-11430000D01*
X41253000Y-8808962D01*
X41297000Y-8779562D01*
X41297000Y-11811088D01*
X41297000Y-11811088D01*
G37*
X41297000Y-11811088D02*
X33221544Y-19886544D01*
X33088662Y-20085415D01*
X33042000Y-20320000D01*
X33042000Y-28586087D01*
X31985111Y-29642976D01*
X31985111Y-29576801D01*
X32818456Y-28743457D01*
X32951338Y-28544585D01*
X32972141Y-28440000D01*
X32998000Y-28310000D01*
X32998000Y-19938912D01*
X41073456Y-11863456D01*
X41206338Y-11664585D01*
X41239342Y-11498662D01*
X41253000Y-11430000D01*
X41253000Y-8808962D01*
X41297000Y-8779562D01*
X41297000Y-11811088D01*
G36*
X22882000Y-28522320D02*
X22792006Y-28387635D01*
X22414702Y-28135528D01*
X21969641Y-28047000D01*
X21210359Y-28047000D01*
X20765298Y-28135528D01*
X20524131Y-28296671D01*
X20450298Y-28181932D01*
X20328994Y-28099049D01*
X20185000Y-28069889D01*
X19781802Y-28069889D01*
X19522024Y-27810111D01*
X20185000Y-27810111D01*
X20319520Y-27784799D01*
X20443068Y-27705298D01*
X20525692Y-27584372D01*
X20765298Y-27744472D01*
X21210359Y-27833000D01*
X21969641Y-27833000D01*
X22414702Y-27744472D01*
X22792006Y-27492365D01*
X22882000Y-27357680D01*
X22882000Y-28522320D01*
X22882000Y-28522320D01*
G37*
X22882000Y-28522320D02*
X22792006Y-28387635D01*
X22414702Y-28135528D01*
X21969641Y-28047000D01*
X21210359Y-28047000D01*
X20765298Y-28135528D01*
X20524131Y-28296671D01*
X20450298Y-28181932D01*
X20328994Y-28099049D01*
X20185000Y-28069889D01*
X19781802Y-28069889D01*
X19522024Y-27810111D01*
X20185000Y-27810111D01*
X20319520Y-27784799D01*
X20443068Y-27705298D01*
X20525692Y-27584372D01*
X20765298Y-27744472D01*
X21210359Y-27833000D01*
X21969641Y-27833000D01*
X22414702Y-27744472D01*
X22792006Y-27492365D01*
X22882000Y-27357680D01*
X22882000Y-28522320D01*
G36*
X6757537Y-26674449D02*
X6551722Y-26982472D01*
X6467000Y-27408399D01*
X6467000Y-28460088D01*
X6193000Y-28186088D01*
X6193000Y-27408399D01*
X6108278Y-26982472D01*
X5884791Y-26648000D01*
X6731088Y-26648000D01*
X6757537Y-26674449D01*
X6757537Y-26674449D01*
G37*
X6757537Y-26674449D02*
X6551722Y-26982472D01*
X6467000Y-27408399D01*
X6467000Y-28460088D01*
X6193000Y-28186088D01*
X6193000Y-27408399D01*
X6108278Y-26982472D01*
X5884791Y-26648000D01*
X6731088Y-26648000D01*
X6757537Y-26674449D01*
G36*
X12087000Y-8808962D02*
X12087000Y-10795000D01*
X12100658Y-10863662D01*
X12133662Y-11029585D01*
X12266544Y-11228456D01*
X16532000Y-15493913D01*
X16532000Y-24500000D01*
X16571054Y-24696338D01*
X16578662Y-24734585D01*
X16711544Y-24933456D01*
X18814889Y-27036802D01*
X18814889Y-27102976D01*
X16488000Y-24776088D01*
X16488000Y-15875000D01*
X16441338Y-15640415D01*
X16330612Y-15474702D01*
X16308456Y-15441543D01*
X12043000Y-11176088D01*
X12043000Y-8779562D01*
X12087000Y-8808962D01*
X12087000Y-8808962D01*
G37*
X12087000Y-8808962D02*
X12087000Y-10795000D01*
X12100658Y-10863662D01*
X12133662Y-11029585D01*
X12266544Y-11228456D01*
X16532000Y-15493913D01*
X16532000Y-24500000D01*
X16571054Y-24696338D01*
X16578662Y-24734585D01*
X16711544Y-24933456D01*
X18814889Y-27036802D01*
X18814889Y-27102976D01*
X16488000Y-24776088D01*
X16488000Y-15875000D01*
X16441338Y-15640415D01*
X16330612Y-15474702D01*
X16308456Y-15441543D01*
X12043000Y-11176088D01*
X12043000Y-8779562D01*
X12087000Y-8808962D01*
G36*
X13992000Y-23506087D02*
X13570111Y-23927976D01*
X13570111Y-23465000D01*
X13544799Y-23330480D01*
X13465298Y-23206932D01*
X13343994Y-23124049D01*
X13313000Y-23117772D01*
X13313000Y-22811482D01*
X13471069Y-22746169D01*
X13854822Y-22363086D01*
X13992000Y-22032724D01*
X13992000Y-23506087D01*
X13992000Y-23506087D01*
G37*
X13992000Y-23506087D02*
X13570111Y-23927976D01*
X13570111Y-23465000D01*
X13544799Y-23330480D01*
X13465298Y-23206932D01*
X13343994Y-23124049D01*
X13313000Y-23117772D01*
X13313000Y-22811482D01*
X13471069Y-22746169D01*
X13854822Y-22363086D01*
X13992000Y-22032724D01*
X13992000Y-23506087D01*
G36*
X28830359Y-22753000D02*
X29506088Y-22753000D01*
X29752478Y-22999390D01*
X29589641Y-22967000D01*
X28913913Y-22967000D01*
X28667523Y-22720610D01*
X28830359Y-22753000D01*
X28830359Y-22753000D01*
G37*
X28830359Y-22753000D02*
X29506088Y-22753000D01*
X29752478Y-22999390D01*
X29589641Y-22967000D01*
X28913913Y-22967000D01*
X28667523Y-22720610D01*
X28830359Y-22753000D01*
G36*
X12788792Y-19230915D02*
X13142607Y-19377832D01*
X13525712Y-19378167D01*
X13879783Y-19231867D01*
X13992000Y-19119846D01*
X13992000Y-21147668D01*
X13856169Y-20818931D01*
X13473086Y-20435178D01*
X12972307Y-20227237D01*
X12430072Y-20226764D01*
X11928931Y-20433831D01*
X11545178Y-20816914D01*
X11530111Y-20853199D01*
X11530111Y-20590000D01*
X11504799Y-20455480D01*
X11425298Y-20331932D01*
X11303994Y-20249049D01*
X11160000Y-20219889D01*
X10773000Y-20219889D01*
X10773000Y-19938912D01*
X11683913Y-19028000D01*
X12586231Y-19028000D01*
X12788792Y-19230915D01*
X12788792Y-19230915D01*
G37*
X12788792Y-19230915D02*
X13142607Y-19377832D01*
X13525712Y-19378167D01*
X13879783Y-19231867D01*
X13992000Y-19119846D01*
X13992000Y-21147668D01*
X13856169Y-20818931D01*
X13473086Y-20435178D01*
X12972307Y-20227237D01*
X12430072Y-20226764D01*
X11928931Y-20433831D01*
X11545178Y-20816914D01*
X11530111Y-20853199D01*
X11530111Y-20590000D01*
X11504799Y-20455480D01*
X11425298Y-20331932D01*
X11303994Y-20249049D01*
X11160000Y-20219889D01*
X10773000Y-20219889D01*
X10773000Y-19938912D01*
X11683913Y-19028000D01*
X12586231Y-19028000D01*
X12788792Y-19230915D01*
G36*
X21210359Y-20213000D02*
X21886088Y-20213000D01*
X22132478Y-20459390D01*
X21969641Y-20427000D01*
X21293913Y-20427000D01*
X21047522Y-20180610D01*
X21210359Y-20213000D01*
X21210359Y-20213000D01*
G37*
X21210359Y-20213000D02*
X21886088Y-20213000D01*
X22132478Y-20459390D01*
X21969641Y-20427000D01*
X21293913Y-20427000D01*
X21047522Y-20180610D01*
X21210359Y-20213000D01*
G36*
X18814889Y-16136802D02*
X18814889Y-16540000D01*
X18840201Y-16674520D01*
X18919702Y-16798068D01*
X19041006Y-16880951D01*
X19185000Y-16910111D01*
X19588199Y-16910111D01*
X19621544Y-16943456D01*
X19820415Y-17076338D01*
X20055000Y-17123000D01*
X20248100Y-17123000D01*
X20282486Y-17174462D01*
X20085415Y-17213662D01*
X19886544Y-17346543D01*
X19431088Y-17802000D01*
X19163769Y-17802000D01*
X18961208Y-17599085D01*
X18607393Y-17452168D01*
X18224288Y-17451833D01*
X17870217Y-17598133D01*
X17758000Y-17710154D01*
X17758000Y-15240000D01*
X17718250Y-15040162D01*
X18814889Y-16136802D01*
X18814889Y-16136802D01*
G37*
X18814889Y-16136802D02*
X18814889Y-16540000D01*
X18840201Y-16674520D01*
X18919702Y-16798068D01*
X19041006Y-16880951D01*
X19185000Y-16910111D01*
X19588199Y-16910111D01*
X19621544Y-16943456D01*
X19820415Y-17076338D01*
X20055000Y-17123000D01*
X20248100Y-17123000D01*
X20282486Y-17174462D01*
X20085415Y-17213662D01*
X19886544Y-17346543D01*
X19431088Y-17802000D01*
X19163769Y-17802000D01*
X18961208Y-17599085D01*
X18607393Y-17452168D01*
X18224288Y-17451833D01*
X17870217Y-17598133D01*
X17758000Y-17710154D01*
X17758000Y-15240000D01*
X17718250Y-15040162D01*
X18814889Y-16136802D01*
G36*
X31868512Y-4795424D02*
X31857000Y-4853297D01*
X31857000Y-5306703D01*
X31868512Y-5364576D01*
X28776544Y-8456544D01*
X28643662Y-8655415D01*
X28597000Y-8890000D01*
X28597000Y-12853418D01*
X28385298Y-12895528D01*
X28007994Y-13147635D01*
X27755887Y-13524939D01*
X27667359Y-13970000D01*
X27755887Y-14415061D01*
X27812820Y-14500267D01*
X25146088Y-17167000D01*
X22902500Y-17167000D01*
X23044113Y-16955061D01*
X23132641Y-16510000D01*
X23044113Y-16064939D01*
X22792006Y-15687635D01*
X22414702Y-15435528D01*
X21969641Y-15347000D01*
X21210359Y-15347000D01*
X20765298Y-15435528D01*
X20524131Y-15596671D01*
X20450298Y-15481932D01*
X20328994Y-15399049D01*
X20185000Y-15369889D01*
X19781802Y-15369889D01*
X19522024Y-15110111D01*
X20185000Y-15110111D01*
X20319520Y-15084799D01*
X20443068Y-15005298D01*
X20525692Y-14884372D01*
X20765298Y-15044472D01*
X21210359Y-15133000D01*
X21969641Y-15133000D01*
X22414702Y-15044472D01*
X22792006Y-14792365D01*
X23044113Y-14415061D01*
X23132641Y-13970000D01*
X23044113Y-13524939D01*
X22792006Y-13147635D01*
X22414702Y-12895528D01*
X21969641Y-12807000D01*
X21210359Y-12807000D01*
X20765298Y-12895528D01*
X20387994Y-13147635D01*
X20248100Y-13357000D01*
X20055000Y-13357000D01*
X19820415Y-13403662D01*
X19697622Y-13485710D01*
X17123000Y-10911088D01*
X17123000Y-8953350D01*
X17338785Y-9065139D01*
X17539000Y-8986107D01*
X17539000Y-8961765D01*
X17780000Y-9009703D01*
X18021000Y-8961765D01*
X18021000Y-8986107D01*
X18221215Y-9065139D01*
X18521095Y-8909784D01*
X18881725Y-8543224D01*
X19074627Y-8066560D01*
X18967008Y-7861000D01*
X18940156Y-7861000D01*
X18943000Y-7846703D01*
X18943000Y-7393297D01*
X18940156Y-7379000D01*
X18967008Y-7379000D01*
X19074627Y-7173440D01*
X18881725Y-6696776D01*
X18540559Y-6350000D01*
X18881725Y-6003224D01*
X19074627Y-5526560D01*
X18967008Y-5321000D01*
X18940156Y-5321000D01*
X18943000Y-5306703D01*
X18943000Y-4853297D01*
X18940156Y-4839000D01*
X18967008Y-4839000D01*
X19074627Y-4633440D01*
X18881725Y-4156776D01*
X18521095Y-3790216D01*
X18221215Y-3634861D01*
X18021000Y-3713893D01*
X18021000Y-3738235D01*
X17780000Y-3690297D01*
X17539000Y-3738235D01*
X17539000Y-3713893D01*
X17338785Y-3634861D01*
X17038905Y-3790216D01*
X16678275Y-4156776D01*
X16485373Y-4633440D01*
X16592992Y-4839000D01*
X16619844Y-4839000D01*
X16617000Y-4853297D01*
X16617000Y-5306703D01*
X16619844Y-5321000D01*
X16592992Y-5321000D01*
X16508774Y-5481862D01*
X16391488Y-5364576D01*
X16403000Y-5306703D01*
X16403000Y-4853297D01*
X16314472Y-4408236D01*
X16062365Y-4030932D01*
X15685061Y-3778825D01*
X15240000Y-3690297D01*
X14794939Y-3778825D01*
X14417635Y-4030932D01*
X14165528Y-4408236D01*
X14077000Y-4853297D01*
X14077000Y-5306703D01*
X14165528Y-5751764D01*
X14417635Y-6129068D01*
X14748282Y-6350000D01*
X14417635Y-6570932D01*
X14165528Y-6948236D01*
X14077000Y-7393297D01*
X14077000Y-7846703D01*
X14165528Y-8291764D01*
X14417635Y-8669068D01*
X14627000Y-8808962D01*
X14627000Y-11695000D01*
X14643510Y-11778000D01*
X14666751Y-11894838D01*
X13313000Y-10541088D01*
X13313000Y-8808962D01*
X13522365Y-8669068D01*
X13774472Y-8291764D01*
X13863000Y-7846703D01*
X13863000Y-7393297D01*
X13774472Y-6948236D01*
X13522365Y-6570932D01*
X13191718Y-6350000D01*
X13522365Y-6129068D01*
X13774472Y-5751764D01*
X13863000Y-5306703D01*
X13863000Y-4853297D01*
X13774472Y-4408236D01*
X13522365Y-4030932D01*
X13145061Y-3778825D01*
X12700000Y-3690297D01*
X12254939Y-3778825D01*
X11877635Y-4030932D01*
X11625528Y-4408236D01*
X11537000Y-4853297D01*
X11537000Y-5306703D01*
X11548512Y-5364576D01*
X11431226Y-5481862D01*
X11347008Y-5321000D01*
X11320156Y-5321000D01*
X11323000Y-5306703D01*
X11323000Y-4853297D01*
X11320156Y-4839000D01*
X11347008Y-4839000D01*
X11454627Y-4633440D01*
X11261725Y-4156776D01*
X10901095Y-3790216D01*
X10601215Y-3634861D01*
X10401000Y-3713893D01*
X10401000Y-3738235D01*
X10160000Y-3690297D01*
X9919000Y-3738235D01*
X9919000Y-3713893D01*
X9871693Y-3695219D01*
X10413913Y-3153000D01*
X30226088Y-3153000D01*
X31868512Y-4795424D01*
X31868512Y-4795424D01*
G37*
X31868512Y-4795424D02*
X31857000Y-4853297D01*
X31857000Y-5306703D01*
X31868512Y-5364576D01*
X28776544Y-8456544D01*
X28643662Y-8655415D01*
X28597000Y-8890000D01*
X28597000Y-12853418D01*
X28385298Y-12895528D01*
X28007994Y-13147635D01*
X27755887Y-13524939D01*
X27667359Y-13970000D01*
X27755887Y-14415061D01*
X27812820Y-14500267D01*
X25146088Y-17167000D01*
X22902500Y-17167000D01*
X23044113Y-16955061D01*
X23132641Y-16510000D01*
X23044113Y-16064939D01*
X22792006Y-15687635D01*
X22414702Y-15435528D01*
X21969641Y-15347000D01*
X21210359Y-15347000D01*
X20765298Y-15435528D01*
X20524131Y-15596671D01*
X20450298Y-15481932D01*
X20328994Y-15399049D01*
X20185000Y-15369889D01*
X19781802Y-15369889D01*
X19522024Y-15110111D01*
X20185000Y-15110111D01*
X20319520Y-15084799D01*
X20443068Y-15005298D01*
X20525692Y-14884372D01*
X20765298Y-15044472D01*
X21210359Y-15133000D01*
X21969641Y-15133000D01*
X22414702Y-15044472D01*
X22792006Y-14792365D01*
X23044113Y-14415061D01*
X23132641Y-13970000D01*
X23044113Y-13524939D01*
X22792006Y-13147635D01*
X22414702Y-12895528D01*
X21969641Y-12807000D01*
X21210359Y-12807000D01*
X20765298Y-12895528D01*
X20387994Y-13147635D01*
X20248100Y-13357000D01*
X20055000Y-13357000D01*
X19820415Y-13403662D01*
X19697622Y-13485710D01*
X17123000Y-10911088D01*
X17123000Y-8953350D01*
X17338785Y-9065139D01*
X17539000Y-8986107D01*
X17539000Y-8961765D01*
X17780000Y-9009703D01*
X18021000Y-8961765D01*
X18021000Y-8986107D01*
X18221215Y-9065139D01*
X18521095Y-8909784D01*
X18881725Y-8543224D01*
X19074627Y-8066560D01*
X18967008Y-7861000D01*
X18940156Y-7861000D01*
X18943000Y-7846703D01*
X18943000Y-7393297D01*
X18940156Y-7379000D01*
X18967008Y-7379000D01*
X19074627Y-7173440D01*
X18881725Y-6696776D01*
X18540559Y-6350000D01*
X18881725Y-6003224D01*
X19074627Y-5526560D01*
X18967008Y-5321000D01*
X18940156Y-5321000D01*
X18943000Y-5306703D01*
X18943000Y-4853297D01*
X18940156Y-4839000D01*
X18967008Y-4839000D01*
X19074627Y-4633440D01*
X18881725Y-4156776D01*
X18521095Y-3790216D01*
X18221215Y-3634861D01*
X18021000Y-3713893D01*
X18021000Y-3738235D01*
X17780000Y-3690297D01*
X17539000Y-3738235D01*
X17539000Y-3713893D01*
X17338785Y-3634861D01*
X17038905Y-3790216D01*
X16678275Y-4156776D01*
X16485373Y-4633440D01*
X16592992Y-4839000D01*
X16619844Y-4839000D01*
X16617000Y-4853297D01*
X16617000Y-5306703D01*
X16619844Y-5321000D01*
X16592992Y-5321000D01*
X16508774Y-5481862D01*
X16391488Y-5364576D01*
X16403000Y-5306703D01*
X16403000Y-4853297D01*
X16314472Y-4408236D01*
X16062365Y-4030932D01*
X15685061Y-3778825D01*
X15240000Y-3690297D01*
X14794939Y-3778825D01*
X14417635Y-4030932D01*
X14165528Y-4408236D01*
X14077000Y-4853297D01*
X14077000Y-5306703D01*
X14165528Y-5751764D01*
X14417635Y-6129068D01*
X14748282Y-6350000D01*
X14417635Y-6570932D01*
X14165528Y-6948236D01*
X14077000Y-7393297D01*
X14077000Y-7846703D01*
X14165528Y-8291764D01*
X14417635Y-8669068D01*
X14627000Y-8808962D01*
X14627000Y-11695000D01*
X14643510Y-11778000D01*
X14666751Y-11894838D01*
X13313000Y-10541088D01*
X13313000Y-8808962D01*
X13522365Y-8669068D01*
X13774472Y-8291764D01*
X13863000Y-7846703D01*
X13863000Y-7393297D01*
X13774472Y-6948236D01*
X13522365Y-6570932D01*
X13191718Y-6350000D01*
X13522365Y-6129068D01*
X13774472Y-5751764D01*
X13863000Y-5306703D01*
X13863000Y-4853297D01*
X13774472Y-4408236D01*
X13522365Y-4030932D01*
X13145061Y-3778825D01*
X12700000Y-3690297D01*
X12254939Y-3778825D01*
X11877635Y-4030932D01*
X11625528Y-4408236D01*
X11537000Y-4853297D01*
X11537000Y-5306703D01*
X11548512Y-5364576D01*
X11431226Y-5481862D01*
X11347008Y-5321000D01*
X11320156Y-5321000D01*
X11323000Y-5306703D01*
X11323000Y-4853297D01*
X11320156Y-4839000D01*
X11347008Y-4839000D01*
X11454627Y-4633440D01*
X11261725Y-4156776D01*
X10901095Y-3790216D01*
X10601215Y-3634861D01*
X10401000Y-3713893D01*
X10401000Y-3738235D01*
X10160000Y-3690297D01*
X9919000Y-3738235D01*
X9919000Y-3713893D01*
X9871693Y-3695219D01*
X10413913Y-3153000D01*
X30226088Y-3153000D01*
X31868512Y-4795424D01*
G36*
X37487000Y-8808962D02*
X37487000Y-11441087D01*
X31985111Y-16942977D01*
X31985111Y-16876801D01*
X37263457Y-11598456D01*
X37355692Y-11460415D01*
X37396338Y-11399585D01*
X37443000Y-11165000D01*
X37443000Y-8779562D01*
X37487000Y-8808962D01*
X37487000Y-8808962D01*
G37*
X37487000Y-8808962D02*
X37487000Y-11441087D01*
X31985111Y-16942977D01*
X31985111Y-16876801D01*
X37263457Y-11598456D01*
X37355692Y-11460415D01*
X37396338Y-11399585D01*
X37443000Y-11165000D01*
X37443000Y-8779562D01*
X37487000Y-8808962D01*
G36*
X34408512Y-7335424D02*
X34397000Y-7393297D01*
X34397000Y-7846703D01*
X34485528Y-8291764D01*
X34737635Y-8669068D01*
X35114939Y-8921175D01*
X35560000Y-9009703D01*
X36005061Y-8921175D01*
X36217000Y-8779562D01*
X36217000Y-10911087D01*
X31102378Y-16025710D01*
X30979585Y-15943662D01*
X30745000Y-15897000D01*
X30551900Y-15897000D01*
X30412006Y-15687635D01*
X30034702Y-15435528D01*
X29589641Y-15347000D01*
X28830359Y-15347000D01*
X28667523Y-15379390D01*
X28913913Y-15133000D01*
X29589641Y-15133000D01*
X30034702Y-15044472D01*
X30412006Y-14792365D01*
X30664113Y-14415061D01*
X30752641Y-13970000D01*
X30664113Y-13524939D01*
X30412006Y-13147635D01*
X30034702Y-12895528D01*
X29823000Y-12853418D01*
X29823000Y-9143912D01*
X31708581Y-7258331D01*
X31829250Y-7379000D01*
X31849889Y-7379000D01*
X31849889Y-7861000D01*
X31829250Y-7861000D01*
X31699000Y-7991250D01*
X31699000Y-8723634D01*
X31778318Y-8915123D01*
X31924878Y-9061683D01*
X32116367Y-9141000D01*
X32648750Y-9141000D01*
X32779000Y-9010750D01*
X32779000Y-8990111D01*
X33261000Y-8990111D01*
X33261000Y-9010750D01*
X33391250Y-9141000D01*
X33923633Y-9141000D01*
X34115122Y-9061683D01*
X34261682Y-8915123D01*
X34341000Y-8723634D01*
X34341000Y-7991250D01*
X34210750Y-7861000D01*
X34190111Y-7861000D01*
X34190111Y-7379000D01*
X34210750Y-7379000D01*
X34331419Y-7258331D01*
X34408512Y-7335424D01*
X34408512Y-7335424D01*
G37*
X34408512Y-7335424D02*
X34397000Y-7393297D01*
X34397000Y-7846703D01*
X34485528Y-8291764D01*
X34737635Y-8669068D01*
X35114939Y-8921175D01*
X35560000Y-9009703D01*
X36005061Y-8921175D01*
X36217000Y-8779562D01*
X36217000Y-10911087D01*
X31102378Y-16025710D01*
X30979585Y-15943662D01*
X30745000Y-15897000D01*
X30551900Y-15897000D01*
X30412006Y-15687635D01*
X30034702Y-15435528D01*
X29589641Y-15347000D01*
X28830359Y-15347000D01*
X28667523Y-15379390D01*
X28913913Y-15133000D01*
X29589641Y-15133000D01*
X30034702Y-15044472D01*
X30412006Y-14792365D01*
X30664113Y-14415061D01*
X30752641Y-13970000D01*
X30664113Y-13524939D01*
X30412006Y-13147635D01*
X30034702Y-12895528D01*
X29823000Y-12853418D01*
X29823000Y-9143912D01*
X31708581Y-7258331D01*
X31829250Y-7379000D01*
X31849889Y-7379000D01*
X31849889Y-7861000D01*
X31829250Y-7861000D01*
X31699000Y-7991250D01*
X31699000Y-8723634D01*
X31778318Y-8915123D01*
X31924878Y-9061683D01*
X32116367Y-9141000D01*
X32648750Y-9141000D01*
X32779000Y-9010750D01*
X32779000Y-8990111D01*
X33261000Y-8990111D01*
X33261000Y-9010750D01*
X33391250Y-9141000D01*
X33923633Y-9141000D01*
X34115122Y-9061683D01*
X34261682Y-8915123D01*
X34341000Y-8723634D01*
X34341000Y-7991250D01*
X34210750Y-7861000D01*
X34190111Y-7861000D01*
X34190111Y-7379000D01*
X34210750Y-7379000D01*
X34331419Y-7258331D01*
X34408512Y-7335424D01*
G36*
X15897000Y-11165000D02*
X15916204Y-11261543D01*
X15943662Y-11399585D01*
X16076544Y-11598456D01*
X18814889Y-14336801D01*
X18814889Y-14402976D01*
X15853000Y-11441088D01*
X15853000Y-8808962D01*
X15897000Y-8779562D01*
X15897000Y-11165000D01*
X15897000Y-11165000D01*
G37*
X15897000Y-11165000D02*
X15916204Y-11261543D01*
X15943662Y-11399585D01*
X16076544Y-11598456D01*
X18814889Y-14336801D01*
X18814889Y-14402976D01*
X15853000Y-11441088D01*
X15853000Y-8808962D01*
X15897000Y-8779562D01*
X15897000Y-11165000D01*
G36*
X8972992Y-4839000D02*
X8999844Y-4839000D01*
X8997000Y-4853297D01*
X8997000Y-5306703D01*
X8999844Y-5321000D01*
X8972992Y-5321000D01*
X8865373Y-5526560D01*
X9058275Y-6003224D01*
X9418905Y-6369784D01*
X9542696Y-6433915D01*
X9337635Y-6570932D01*
X9085528Y-6948236D01*
X8997000Y-7393297D01*
X8997000Y-7846703D01*
X9085528Y-8291764D01*
X9337635Y-8669068D01*
X9547000Y-8808962D01*
X9547000Y-9547000D01*
X7873913Y-9547000D01*
X7358331Y-9031419D01*
X7379000Y-9010750D01*
X7379000Y-8990111D01*
X7861000Y-8990111D01*
X7861000Y-9010750D01*
X7991250Y-9141000D01*
X8523633Y-9141000D01*
X8715122Y-9061683D01*
X8861682Y-8915123D01*
X8941000Y-8723634D01*
X8941000Y-7991250D01*
X8810750Y-7861000D01*
X8790111Y-7861000D01*
X8790111Y-7379000D01*
X8810750Y-7379000D01*
X8941000Y-7248750D01*
X8941000Y-6516366D01*
X8861682Y-6324877D01*
X8715122Y-6178317D01*
X8523633Y-6099000D01*
X8462456Y-6099000D01*
X8694472Y-5751764D01*
X8783000Y-5306703D01*
X8783000Y-4853297D01*
X8771488Y-4795424D01*
X8888774Y-4678138D01*
X8972992Y-4839000D01*
X8972992Y-4839000D01*
G37*
X8972992Y-4839000D02*
X8999844Y-4839000D01*
X8997000Y-4853297D01*
X8997000Y-5306703D01*
X8999844Y-5321000D01*
X8972992Y-5321000D01*
X8865373Y-5526560D01*
X9058275Y-6003224D01*
X9418905Y-6369784D01*
X9542696Y-6433915D01*
X9337635Y-6570932D01*
X9085528Y-6948236D01*
X8997000Y-7393297D01*
X8997000Y-7846703D01*
X9085528Y-8291764D01*
X9337635Y-8669068D01*
X9547000Y-8808962D01*
X9547000Y-9547000D01*
X7873913Y-9547000D01*
X7358331Y-9031419D01*
X7379000Y-9010750D01*
X7379000Y-8990111D01*
X7861000Y-8990111D01*
X7861000Y-9010750D01*
X7991250Y-9141000D01*
X8523633Y-9141000D01*
X8715122Y-9061683D01*
X8861682Y-8915123D01*
X8941000Y-8723634D01*
X8941000Y-7991250D01*
X8810750Y-7861000D01*
X8790111Y-7861000D01*
X8790111Y-7379000D01*
X8810750Y-7379000D01*
X8941000Y-7248750D01*
X8941000Y-6516366D01*
X8861682Y-6324877D01*
X8715122Y-6178317D01*
X8523633Y-6099000D01*
X8462456Y-6099000D01*
X8694472Y-5751764D01*
X8783000Y-5306703D01*
X8783000Y-4853297D01*
X8771488Y-4795424D01*
X8888774Y-4678138D01*
X8972992Y-4839000D01*
G36*
X33373749Y-3760662D02*
X33020000Y-3690297D01*
X32583946Y-3777033D01*
X30913456Y-2106544D01*
X30714585Y-1973662D01*
X30480000Y-1927000D01*
X10160000Y-1927000D01*
X9925415Y-1973662D01*
X9726543Y-2106544D01*
X8056054Y-3777033D01*
X7620000Y-3690297D01*
X7174939Y-3778825D01*
X6797635Y-4030932D01*
X6545528Y-4408236D01*
X6457000Y-4853297D01*
X6457000Y-5306703D01*
X6545528Y-5751764D01*
X6777544Y-6099000D01*
X6716367Y-6099000D01*
X6524878Y-6178317D01*
X6378318Y-6324877D01*
X6299000Y-6516366D01*
X6299000Y-7248750D01*
X6429250Y-7379000D01*
X6449889Y-7379000D01*
X6449889Y-7861000D01*
X6429250Y-7861000D01*
X6308581Y-7981669D01*
X5693000Y-7366088D01*
X5693000Y-4063912D01*
X7873913Y-1883000D01*
X31496088Y-1883000D01*
X33373749Y-3760662D01*
X33373749Y-3760662D01*
G37*
X33373749Y-3760662D02*
X33020000Y-3690297D01*
X32583946Y-3777033D01*
X30913456Y-2106544D01*
X30714585Y-1973662D01*
X30480000Y-1927000D01*
X10160000Y-1927000D01*
X9925415Y-1973662D01*
X9726543Y-2106544D01*
X8056054Y-3777033D01*
X7620000Y-3690297D01*
X7174939Y-3778825D01*
X6797635Y-4030932D01*
X6545528Y-4408236D01*
X6457000Y-4853297D01*
X6457000Y-5306703D01*
X6545528Y-5751764D01*
X6777544Y-6099000D01*
X6716367Y-6099000D01*
X6524878Y-6178317D01*
X6378318Y-6324877D01*
X6299000Y-6516366D01*
X6299000Y-7248750D01*
X6429250Y-7379000D01*
X6449889Y-7379000D01*
X6449889Y-7861000D01*
X6429250Y-7861000D01*
X6308581Y-7981669D01*
X5693000Y-7366088D01*
X5693000Y-4063912D01*
X7873913Y-1883000D01*
X31496088Y-1883000D01*
X33373749Y-3760662D01*
G36*
X36217000Y-6460438D02*
X36177304Y-6433915D01*
X36217000Y-6413350D01*
X36217000Y-6460438D01*
X36217000Y-6460438D01*
G37*
X36217000Y-6460438D02*
X36177304Y-6433915D01*
X36217000Y-6413350D01*
X36217000Y-6460438D01*
G36*
X10817000Y-6460438D02*
X10777304Y-6433915D01*
X10817000Y-6413350D01*
X10817000Y-6460438D01*
X10817000Y-6460438D01*
G37*
X10817000Y-6460438D02*
X10777304Y-6433915D01*
X10817000Y-6413350D01*
X10817000Y-6460438D01*
M02*
