G04 #@! TF.FileFunction,Profile,NP*
%FSLAX46Y46*%
G04 Gerber Fmt 4.6, Leading zero omitted, Abs format (unit mm)*
G04 Created by KiCad (PCBNEW 4.0.4-stable) date 12/14/16 08:21:57*
%MOMM*%
%LPD*%
G01*
G04 APERTURE LIST*
%ADD10C,0.100000*%
%ADD11C,0.150000*%
G04 APERTURE END LIST*
D10*
D11*
X47000000Y-6000000D02*
X47000000Y-5000000D01*
X48000000Y-7000000D02*
X47000000Y-6000000D01*
X47000000Y-8000000D02*
X48000000Y-7000000D01*
X53000000Y-6000000D02*
X53000000Y-5000000D01*
X52000000Y-7000000D02*
X53000000Y-6000000D01*
X55000000Y-10000000D02*
X52000000Y-7000000D01*
X45000000Y-10000000D02*
X47000000Y-8000000D01*
X50000000Y-6000000D02*
G75*
G03X51000000Y-5000000I0J1000000D01*
G01*
X49000000Y-5000000D02*
G75*
G03X50000000Y-6000000I1000000J0D01*
G01*
X50000000Y-4000000D02*
G75*
G03X49000000Y-5000000I0J-1000000D01*
G01*
X51000000Y-5000000D02*
G75*
G03X50000000Y-4000000I-1000000J0D01*
G01*
X50000000Y-2000000D02*
G75*
G03X47000000Y-5000000I0J-3000000D01*
G01*
X53000000Y-5000000D02*
G75*
G03X50000000Y-2000000I-3000000J0D01*
G01*
X45000000Y-10000000D02*
X30000000Y-25000000D01*
X55000000Y-10000000D02*
X70000000Y-25000000D01*
X60000000Y-25000000D02*
X70000000Y-25000000D01*
X80000000Y-45000000D02*
X60000000Y-25000000D01*
X65000000Y-45000000D02*
X80000000Y-45000000D01*
X90000000Y-70000000D02*
X65000000Y-45000000D01*
X70000000Y-70000000D02*
X90000000Y-70000000D01*
X100000000Y-100000000D02*
X70000000Y-70000000D01*
X0Y-100000000D02*
X100000000Y-100000000D01*
X30000000Y-70000000D02*
X0Y-100000000D01*
X10000000Y-70000000D02*
X30000000Y-70000000D01*
X35000000Y-45000000D02*
X10000000Y-70000000D01*
X20000000Y-45000000D02*
X35000000Y-45000000D01*
X40000000Y-25000000D02*
X20000000Y-45000000D01*
X30000000Y-25000000D02*
X40000000Y-25000000D01*
M02*
