G04 #@! TF.FileFunction,Copper,L2,Bot,Signal*
%FSLAX46Y46*%
G04 Gerber Fmt 4.6, Leading zero omitted, Abs format (unit mm)*
G04 Created by KiCad (PCBNEW 4.0.4-stable) date 11/07/16 20:20:24*
%MOMM*%
%LPD*%
G01*
G04 APERTURE LIST*
%ADD10C,0.100000*%
%ADD11O,1.500000X2.500000*%
%ADD12C,1.524000*%
%ADD13C,4.000000*%
%ADD14C,0.500000*%
%ADD15C,1.000000*%
%ADD16C,0.026000*%
G04 APERTURE END LIST*
D10*
D11*
X17000000Y-4000000D03*
X14500000Y-4000000D03*
X12000000Y-4000000D03*
X9500000Y-4000000D03*
D12*
X9540000Y-17000000D03*
X9540000Y-14460000D03*
X9540000Y-11920000D03*
X9540000Y-9380000D03*
X9540000Y-19540000D03*
X9540000Y-22080000D03*
X9540000Y-24620000D03*
X1920000Y-9380000D03*
X1920000Y-24620000D03*
D13*
X17000000Y-23000000D03*
X3000000Y-3000000D03*
D14*
X9540000Y-24620000D02*
X17000000Y-17160000D01*
X17000000Y-17160000D02*
X17000000Y-4000000D01*
X14500000Y-4000000D02*
X12500000Y-2000000D01*
X4120000Y-9380000D02*
X1920000Y-9380000D01*
X6000000Y-7500000D02*
X4120000Y-9380000D01*
X6000000Y-4500000D02*
X6000000Y-7500000D01*
X8500000Y-2000000D02*
X6000000Y-4500000D01*
X12500000Y-2000000D02*
X8500000Y-2000000D01*
D15*
X12000000Y-4000000D02*
X12000000Y-6920000D01*
X12000000Y-6920000D02*
X9540000Y-9380000D01*
X9540000Y-22080000D02*
X7000000Y-24620000D01*
X7000000Y-24620000D02*
X1920000Y-24620000D01*
X9540000Y-14460000D02*
X8000000Y-16000000D01*
X8000000Y-20540000D02*
X9540000Y-22080000D01*
X8000000Y-16000000D02*
X8000000Y-20540000D01*
X9540000Y-11920000D02*
X9540000Y-14460000D01*
X9500000Y-4000000D02*
X8000000Y-5500000D01*
X8000000Y-10380000D02*
X9540000Y-11920000D01*
X8000000Y-5500000D02*
X8000000Y-10380000D01*
D16*
G36*
X8414805Y-24842795D02*
X8585715Y-25256429D01*
X8890754Y-25562000D01*
X2568735Y-25562000D01*
X2647873Y-25483000D01*
X7000000Y-25483000D01*
X7330256Y-25417308D01*
X7610233Y-25230233D01*
X8415170Y-24425296D01*
X8414805Y-24842795D01*
X8414805Y-24842795D01*
G37*
X8414805Y-24842795D02*
X8585715Y-25256429D01*
X8890754Y-25562000D01*
X2568735Y-25562000D01*
X2647873Y-25483000D01*
X7000000Y-25483000D01*
X7330256Y-25417308D01*
X7610233Y-25230233D01*
X8415170Y-24425296D01*
X8414805Y-24842795D01*
G36*
X19562000Y-25562000D02*
X10188735Y-25562000D01*
X10493172Y-25258093D01*
X10664804Y-24844758D01*
X10665195Y-24397205D01*
X10654819Y-24372093D01*
X11558944Y-23467968D01*
X14636591Y-23467968D01*
X14995578Y-24336783D01*
X15659720Y-25002086D01*
X16527908Y-25362589D01*
X17467968Y-25363409D01*
X18336783Y-25004422D01*
X19002086Y-24340280D01*
X19362589Y-23472092D01*
X19363409Y-22532032D01*
X19004422Y-21663217D01*
X18340280Y-20997914D01*
X17472092Y-20637411D01*
X16532032Y-20636591D01*
X15663217Y-20995578D01*
X14997914Y-21659720D01*
X14637411Y-22527908D01*
X14636591Y-23467968D01*
X11558944Y-23467968D01*
X17433456Y-17593457D01*
X17566338Y-17394585D01*
X17596919Y-17240843D01*
X17613000Y-17160000D01*
X17613000Y-5434881D01*
X17787010Y-5318611D01*
X18028278Y-4957528D01*
X18113000Y-4531601D01*
X18113000Y-3468399D01*
X18028278Y-3042472D01*
X17787010Y-2681389D01*
X17425927Y-2440121D01*
X17000000Y-2355399D01*
X16574073Y-2440121D01*
X16212990Y-2681389D01*
X15971722Y-3042472D01*
X15887000Y-3468399D01*
X15887000Y-4531601D01*
X15971722Y-4957528D01*
X16212990Y-5318611D01*
X16387000Y-5434881D01*
X16387000Y-16906087D01*
X9788170Y-23504918D01*
X9764758Y-23495196D01*
X9345636Y-23494830D01*
X9635382Y-23205084D01*
X9762795Y-23205195D01*
X10176429Y-23034285D01*
X10493172Y-22718093D01*
X10664804Y-22304758D01*
X10665195Y-21857205D01*
X10494285Y-21443571D01*
X10178093Y-21126828D01*
X9764758Y-20955196D01*
X9635549Y-20955083D01*
X9345296Y-20664830D01*
X9762795Y-20665195D01*
X10176429Y-20494285D01*
X10493172Y-20178093D01*
X10664804Y-19764758D01*
X10665195Y-19317205D01*
X10494285Y-18903571D01*
X10178093Y-18586828D01*
X9764758Y-18415196D01*
X9317205Y-18414805D01*
X8903571Y-18585715D01*
X8863000Y-18626215D01*
X8863000Y-17914197D01*
X8901907Y-17953172D01*
X9315242Y-18124804D01*
X9762795Y-18125195D01*
X10176429Y-17954285D01*
X10493172Y-17638093D01*
X10664804Y-17224758D01*
X10665195Y-16777205D01*
X10494285Y-16363571D01*
X10178093Y-16046828D01*
X9764758Y-15875196D01*
X9345636Y-15874830D01*
X9635382Y-15585084D01*
X9762795Y-15585195D01*
X10176429Y-15414285D01*
X10493172Y-15098093D01*
X10664804Y-14684758D01*
X10665195Y-14237205D01*
X10494285Y-13823571D01*
X10403000Y-13732127D01*
X10403000Y-12648108D01*
X10493172Y-12558093D01*
X10664804Y-12144758D01*
X10665195Y-11697205D01*
X10494285Y-11283571D01*
X10178093Y-10966828D01*
X9764758Y-10795196D01*
X9635549Y-10795083D01*
X9345296Y-10504830D01*
X9762795Y-10505195D01*
X10176429Y-10334285D01*
X10493172Y-10018093D01*
X10664804Y-9604758D01*
X10664917Y-9475549D01*
X12610233Y-7530233D01*
X12797308Y-7250256D01*
X12863000Y-6920000D01*
X12863000Y-5204884D01*
X13028278Y-4957528D01*
X13113000Y-4531601D01*
X13113000Y-3479913D01*
X13387000Y-3753913D01*
X13387000Y-4531601D01*
X13471722Y-4957528D01*
X13712990Y-5318611D01*
X14074073Y-5559879D01*
X14500000Y-5644601D01*
X14925927Y-5559879D01*
X15287010Y-5318611D01*
X15528278Y-4957528D01*
X15613000Y-4531601D01*
X15613000Y-3468399D01*
X15528278Y-3042472D01*
X15287010Y-2681389D01*
X14925927Y-2440121D01*
X14500000Y-2355399D01*
X14074073Y-2440121D01*
X13913995Y-2547082D01*
X12933456Y-1566544D01*
X12734585Y-1433662D01*
X12500000Y-1387000D01*
X8500000Y-1387000D01*
X8265415Y-1433662D01*
X8066544Y-1566543D01*
X5566544Y-4066544D01*
X5433662Y-4265415D01*
X5387000Y-4500000D01*
X5387000Y-7246087D01*
X3866088Y-8767000D01*
X2883966Y-8767000D01*
X2874285Y-8743571D01*
X2558093Y-8426828D01*
X2144758Y-8255196D01*
X1697205Y-8254805D01*
X1283571Y-8425715D01*
X966828Y-8741907D01*
X795196Y-9155242D01*
X794805Y-9602795D01*
X965715Y-10016429D01*
X1281907Y-10333172D01*
X1695242Y-10504804D01*
X2142795Y-10505195D01*
X2556429Y-10334285D01*
X2873172Y-10018093D01*
X2883592Y-9993000D01*
X4120000Y-9993000D01*
X4354585Y-9946338D01*
X4553456Y-9813456D01*
X6433456Y-7933457D01*
X6566338Y-7734585D01*
X6569775Y-7717308D01*
X6613000Y-7500000D01*
X6613000Y-4753912D01*
X8753913Y-2613000D01*
X8815341Y-2613000D01*
X8712990Y-2681389D01*
X8471722Y-3042472D01*
X8387000Y-3468399D01*
X8387000Y-3892534D01*
X7389767Y-4889767D01*
X7202692Y-5169744D01*
X7137000Y-5500000D01*
X7137000Y-10380000D01*
X7202692Y-10710256D01*
X7389767Y-10990233D01*
X8414916Y-12015382D01*
X8414805Y-12142795D01*
X8585715Y-12556429D01*
X8677000Y-12647873D01*
X8677000Y-13731892D01*
X8586828Y-13821907D01*
X8415196Y-14235242D01*
X8415083Y-14364451D01*
X7389767Y-15389767D01*
X7202692Y-15669744D01*
X7137000Y-16000000D01*
X7137000Y-20540000D01*
X7202692Y-20870256D01*
X7389767Y-21150233D01*
X8319534Y-22080000D01*
X6642534Y-23757000D01*
X2648108Y-23757000D01*
X2558093Y-23666828D01*
X2144758Y-23495196D01*
X1697205Y-23494805D01*
X1283571Y-23665715D01*
X966828Y-23981907D01*
X795196Y-24395242D01*
X794805Y-24842795D01*
X965715Y-25256429D01*
X1270754Y-25562000D01*
X438000Y-25562000D01*
X438000Y-3467968D01*
X636591Y-3467968D01*
X995578Y-4336783D01*
X1659720Y-5002086D01*
X2527908Y-5362589D01*
X3467968Y-5363409D01*
X4336783Y-5004422D01*
X5002086Y-4340280D01*
X5362589Y-3472092D01*
X5363409Y-2532032D01*
X5004422Y-1663217D01*
X4340280Y-997914D01*
X3472092Y-637411D01*
X2532032Y-636591D01*
X1663217Y-995578D01*
X997914Y-1659720D01*
X637411Y-2527908D01*
X636591Y-3467968D01*
X438000Y-3467968D01*
X438000Y-438000D01*
X19562000Y-438000D01*
X19562000Y-25562000D01*
X19562000Y-25562000D01*
G37*
X19562000Y-25562000D02*
X10188735Y-25562000D01*
X10493172Y-25258093D01*
X10664804Y-24844758D01*
X10665195Y-24397205D01*
X10654819Y-24372093D01*
X11558944Y-23467968D01*
X14636591Y-23467968D01*
X14995578Y-24336783D01*
X15659720Y-25002086D01*
X16527908Y-25362589D01*
X17467968Y-25363409D01*
X18336783Y-25004422D01*
X19002086Y-24340280D01*
X19362589Y-23472092D01*
X19363409Y-22532032D01*
X19004422Y-21663217D01*
X18340280Y-20997914D01*
X17472092Y-20637411D01*
X16532032Y-20636591D01*
X15663217Y-20995578D01*
X14997914Y-21659720D01*
X14637411Y-22527908D01*
X14636591Y-23467968D01*
X11558944Y-23467968D01*
X17433456Y-17593457D01*
X17566338Y-17394585D01*
X17596919Y-17240843D01*
X17613000Y-17160000D01*
X17613000Y-5434881D01*
X17787010Y-5318611D01*
X18028278Y-4957528D01*
X18113000Y-4531601D01*
X18113000Y-3468399D01*
X18028278Y-3042472D01*
X17787010Y-2681389D01*
X17425927Y-2440121D01*
X17000000Y-2355399D01*
X16574073Y-2440121D01*
X16212990Y-2681389D01*
X15971722Y-3042472D01*
X15887000Y-3468399D01*
X15887000Y-4531601D01*
X15971722Y-4957528D01*
X16212990Y-5318611D01*
X16387000Y-5434881D01*
X16387000Y-16906087D01*
X9788170Y-23504918D01*
X9764758Y-23495196D01*
X9345636Y-23494830D01*
X9635382Y-23205084D01*
X9762795Y-23205195D01*
X10176429Y-23034285D01*
X10493172Y-22718093D01*
X10664804Y-22304758D01*
X10665195Y-21857205D01*
X10494285Y-21443571D01*
X10178093Y-21126828D01*
X9764758Y-20955196D01*
X9635549Y-20955083D01*
X9345296Y-20664830D01*
X9762795Y-20665195D01*
X10176429Y-20494285D01*
X10493172Y-20178093D01*
X10664804Y-19764758D01*
X10665195Y-19317205D01*
X10494285Y-18903571D01*
X10178093Y-18586828D01*
X9764758Y-18415196D01*
X9317205Y-18414805D01*
X8903571Y-18585715D01*
X8863000Y-18626215D01*
X8863000Y-17914197D01*
X8901907Y-17953172D01*
X9315242Y-18124804D01*
X9762795Y-18125195D01*
X10176429Y-17954285D01*
X10493172Y-17638093D01*
X10664804Y-17224758D01*
X10665195Y-16777205D01*
X10494285Y-16363571D01*
X10178093Y-16046828D01*
X9764758Y-15875196D01*
X9345636Y-15874830D01*
X9635382Y-15585084D01*
X9762795Y-15585195D01*
X10176429Y-15414285D01*
X10493172Y-15098093D01*
X10664804Y-14684758D01*
X10665195Y-14237205D01*
X10494285Y-13823571D01*
X10403000Y-13732127D01*
X10403000Y-12648108D01*
X10493172Y-12558093D01*
X10664804Y-12144758D01*
X10665195Y-11697205D01*
X10494285Y-11283571D01*
X10178093Y-10966828D01*
X9764758Y-10795196D01*
X9635549Y-10795083D01*
X9345296Y-10504830D01*
X9762795Y-10505195D01*
X10176429Y-10334285D01*
X10493172Y-10018093D01*
X10664804Y-9604758D01*
X10664917Y-9475549D01*
X12610233Y-7530233D01*
X12797308Y-7250256D01*
X12863000Y-6920000D01*
X12863000Y-5204884D01*
X13028278Y-4957528D01*
X13113000Y-4531601D01*
X13113000Y-3479913D01*
X13387000Y-3753913D01*
X13387000Y-4531601D01*
X13471722Y-4957528D01*
X13712990Y-5318611D01*
X14074073Y-5559879D01*
X14500000Y-5644601D01*
X14925927Y-5559879D01*
X15287010Y-5318611D01*
X15528278Y-4957528D01*
X15613000Y-4531601D01*
X15613000Y-3468399D01*
X15528278Y-3042472D01*
X15287010Y-2681389D01*
X14925927Y-2440121D01*
X14500000Y-2355399D01*
X14074073Y-2440121D01*
X13913995Y-2547082D01*
X12933456Y-1566544D01*
X12734585Y-1433662D01*
X12500000Y-1387000D01*
X8500000Y-1387000D01*
X8265415Y-1433662D01*
X8066544Y-1566543D01*
X5566544Y-4066544D01*
X5433662Y-4265415D01*
X5387000Y-4500000D01*
X5387000Y-7246087D01*
X3866088Y-8767000D01*
X2883966Y-8767000D01*
X2874285Y-8743571D01*
X2558093Y-8426828D01*
X2144758Y-8255196D01*
X1697205Y-8254805D01*
X1283571Y-8425715D01*
X966828Y-8741907D01*
X795196Y-9155242D01*
X794805Y-9602795D01*
X965715Y-10016429D01*
X1281907Y-10333172D01*
X1695242Y-10504804D01*
X2142795Y-10505195D01*
X2556429Y-10334285D01*
X2873172Y-10018093D01*
X2883592Y-9993000D01*
X4120000Y-9993000D01*
X4354585Y-9946338D01*
X4553456Y-9813456D01*
X6433456Y-7933457D01*
X6566338Y-7734585D01*
X6569775Y-7717308D01*
X6613000Y-7500000D01*
X6613000Y-4753912D01*
X8753913Y-2613000D01*
X8815341Y-2613000D01*
X8712990Y-2681389D01*
X8471722Y-3042472D01*
X8387000Y-3468399D01*
X8387000Y-3892534D01*
X7389767Y-4889767D01*
X7202692Y-5169744D01*
X7137000Y-5500000D01*
X7137000Y-10380000D01*
X7202692Y-10710256D01*
X7389767Y-10990233D01*
X8414916Y-12015382D01*
X8414805Y-12142795D01*
X8585715Y-12556429D01*
X8677000Y-12647873D01*
X8677000Y-13731892D01*
X8586828Y-13821907D01*
X8415196Y-14235242D01*
X8415083Y-14364451D01*
X7389767Y-15389767D01*
X7202692Y-15669744D01*
X7137000Y-16000000D01*
X7137000Y-20540000D01*
X7202692Y-20870256D01*
X7389767Y-21150233D01*
X8319534Y-22080000D01*
X6642534Y-23757000D01*
X2648108Y-23757000D01*
X2558093Y-23666828D01*
X2144758Y-23495196D01*
X1697205Y-23494805D01*
X1283571Y-23665715D01*
X966828Y-23981907D01*
X795196Y-24395242D01*
X794805Y-24842795D01*
X965715Y-25256429D01*
X1270754Y-25562000D01*
X438000Y-25562000D01*
X438000Y-3467968D01*
X636591Y-3467968D01*
X995578Y-4336783D01*
X1659720Y-5002086D01*
X2527908Y-5362589D01*
X3467968Y-5363409D01*
X4336783Y-5004422D01*
X5002086Y-4340280D01*
X5362589Y-3472092D01*
X5363409Y-2532032D01*
X5004422Y-1663217D01*
X4340280Y-997914D01*
X3472092Y-637411D01*
X2532032Y-636591D01*
X1663217Y-995578D01*
X997914Y-1659720D01*
X637411Y-2527908D01*
X636591Y-3467968D01*
X438000Y-3467968D01*
X438000Y-438000D01*
X19562000Y-438000D01*
X19562000Y-25562000D01*
G36*
X11212990Y-2681389D02*
X10971722Y-3042472D01*
X10887000Y-3468399D01*
X10887000Y-4531601D01*
X10971722Y-4957528D01*
X11137000Y-5204884D01*
X11137000Y-6562534D01*
X9444618Y-8254916D01*
X9317205Y-8254805D01*
X8903571Y-8425715D01*
X8863000Y-8466215D01*
X8863000Y-5857466D01*
X9146233Y-5574233D01*
X9500000Y-5644601D01*
X9925927Y-5559879D01*
X10287010Y-5318611D01*
X10528278Y-4957528D01*
X10613000Y-4531601D01*
X10613000Y-3468399D01*
X10528278Y-3042472D01*
X10287010Y-2681389D01*
X10184659Y-2613000D01*
X11315341Y-2613000D01*
X11212990Y-2681389D01*
X11212990Y-2681389D01*
G37*
X11212990Y-2681389D02*
X10971722Y-3042472D01*
X10887000Y-3468399D01*
X10887000Y-4531601D01*
X10971722Y-4957528D01*
X11137000Y-5204884D01*
X11137000Y-6562534D01*
X9444618Y-8254916D01*
X9317205Y-8254805D01*
X8903571Y-8425715D01*
X8863000Y-8466215D01*
X8863000Y-5857466D01*
X9146233Y-5574233D01*
X9500000Y-5644601D01*
X9925927Y-5559879D01*
X10287010Y-5318611D01*
X10528278Y-4957528D01*
X10613000Y-4531601D01*
X10613000Y-3468399D01*
X10528278Y-3042472D01*
X10287010Y-2681389D01*
X10184659Y-2613000D01*
X11315341Y-2613000D01*
X11212990Y-2681389D01*
M02*
