G04 #@! TF.FileFunction,Legend,Bot*
%FSLAX46Y46*%
G04 Gerber Fmt 4.6, Leading zero omitted, Abs format (unit mm)*
G04 Created by KiCad (PCBNEW 4.0.4-stable) date 12/09/16 20:23:21*
%MOMM*%
%LPD*%
G01*
G04 APERTURE LIST*
%ADD10C,0.100000*%
%ADD11C,0.300000*%
%ADD12C,0.150000*%
%ADD13C,0.500000*%
%ADD14C,0.101600*%
G04 APERTURE END LIST*
D10*
D11*
X22678571Y-16785715D02*
X22678571Y-17714286D01*
X23250000Y-17214286D01*
X23250000Y-17428572D01*
X23321429Y-17571429D01*
X23392857Y-17642858D01*
X23535714Y-17714286D01*
X23892857Y-17714286D01*
X24035714Y-17642858D01*
X24107143Y-17571429D01*
X24178571Y-17428572D01*
X24178571Y-17000000D01*
X24107143Y-16857143D01*
X24035714Y-16785715D01*
X24035714Y-18357143D02*
X24107143Y-18428571D01*
X24178571Y-18357143D01*
X24107143Y-18285714D01*
X24035714Y-18357143D01*
X24178571Y-18357143D01*
X22678571Y-18928572D02*
X22678571Y-19857143D01*
X23250000Y-19357143D01*
X23250000Y-19571429D01*
X23321429Y-19714286D01*
X23392857Y-19785715D01*
X23535714Y-19857143D01*
X23892857Y-19857143D01*
X24035714Y-19785715D01*
X24107143Y-19714286D01*
X24178571Y-19571429D01*
X24178571Y-19142857D01*
X24107143Y-19000000D01*
X24035714Y-18928572D01*
X22678571Y-20285714D02*
X24178571Y-20785714D01*
X22678571Y-21285714D01*
X22678571Y-8714287D02*
X22678571Y-8000001D01*
X23392857Y-7928572D01*
X23321429Y-8000001D01*
X23250000Y-8142858D01*
X23250000Y-8500001D01*
X23321429Y-8642858D01*
X23392857Y-8714287D01*
X23535714Y-8785715D01*
X23892857Y-8785715D01*
X24035714Y-8714287D01*
X24107143Y-8642858D01*
X24178571Y-8500001D01*
X24178571Y-8142858D01*
X24107143Y-8000001D01*
X24035714Y-7928572D01*
X22678571Y-9214286D02*
X24178571Y-9714286D01*
X22678571Y-10214286D01*
X11178571Y-38785715D02*
X11178571Y-39714286D01*
X11750000Y-39214286D01*
X11750000Y-39428572D01*
X11821429Y-39571429D01*
X11892857Y-39642858D01*
X12035714Y-39714286D01*
X12392857Y-39714286D01*
X12535714Y-39642858D01*
X12607143Y-39571429D01*
X12678571Y-39428572D01*
X12678571Y-39000000D01*
X12607143Y-38857143D01*
X12535714Y-38785715D01*
X12535714Y-40357143D02*
X12607143Y-40428571D01*
X12678571Y-40357143D01*
X12607143Y-40285714D01*
X12535714Y-40357143D01*
X12678571Y-40357143D01*
X11178571Y-40928572D02*
X11178571Y-41857143D01*
X11750000Y-41357143D01*
X11750000Y-41571429D01*
X11821429Y-41714286D01*
X11892857Y-41785715D01*
X12035714Y-41857143D01*
X12392857Y-41857143D01*
X12535714Y-41785715D01*
X12607143Y-41714286D01*
X12678571Y-41571429D01*
X12678571Y-41142857D01*
X12607143Y-41000000D01*
X12535714Y-40928572D01*
X11178571Y-42285714D02*
X12678571Y-42785714D01*
X11178571Y-43285714D01*
X17821429Y-44964285D02*
X19321429Y-44964285D01*
X17821429Y-44107142D01*
X19321429Y-44107142D01*
X17821429Y-42535713D02*
X18535714Y-43035713D01*
X17821429Y-43392856D02*
X19321429Y-43392856D01*
X19321429Y-42821428D01*
X19250000Y-42678570D01*
X19178571Y-42607142D01*
X19035714Y-42535713D01*
X18821429Y-42535713D01*
X18678571Y-42607142D01*
X18607143Y-42678570D01*
X18535714Y-42821428D01*
X18535714Y-43392856D01*
X17892857Y-41964285D02*
X17821429Y-41749999D01*
X17821429Y-41392856D01*
X17892857Y-41249999D01*
X17964286Y-41178570D01*
X18107143Y-41107142D01*
X18250000Y-41107142D01*
X18392857Y-41178570D01*
X18464286Y-41249999D01*
X18535714Y-41392856D01*
X18607143Y-41678570D01*
X18678571Y-41821428D01*
X18750000Y-41892856D01*
X18892857Y-41964285D01*
X19035714Y-41964285D01*
X19178571Y-41892856D01*
X19250000Y-41821428D01*
X19321429Y-41678570D01*
X19321429Y-41321428D01*
X19250000Y-41107142D01*
X19321429Y-40678571D02*
X19321429Y-39821428D01*
X17821429Y-40249999D02*
X19321429Y-40249999D01*
D12*
X16629000Y-1769000D02*
X16629000Y-3039000D01*
X9279000Y-1769000D02*
X9279000Y-3039000D01*
X9279000Y-26679000D02*
X9279000Y-25409000D01*
X16629000Y-26679000D02*
X16629000Y-25409000D01*
X16629000Y-1769000D02*
X9279000Y-1769000D01*
X16629000Y-26679000D02*
X9279000Y-26679000D01*
X16629000Y-3039000D02*
X17564000Y-3039000D01*
D13*
X21500000Y-12300000D02*
X24600000Y-12300000D01*
X21500000Y-5700000D02*
X24600000Y-5700000D01*
X24600000Y-5700000D02*
X24600000Y-12300000D01*
X21500000Y-5700000D02*
X21500000Y-12300000D01*
D12*
X5675000Y-29175000D02*
X5820000Y-29175000D01*
X5675000Y-33325000D02*
X5820000Y-33325000D01*
X10825000Y-33325000D02*
X10680000Y-33325000D01*
X10825000Y-29175000D02*
X10680000Y-29175000D01*
X5675000Y-29175000D02*
X5675000Y-33325000D01*
X10825000Y-29175000D02*
X10825000Y-33325000D01*
X5820000Y-29175000D02*
X5820000Y-27775000D01*
X16905000Y-43139000D02*
X13095000Y-43139000D01*
X13095000Y-43139000D02*
X13095000Y-41361000D01*
X13095000Y-41361000D02*
X16905000Y-41361000D01*
X16905000Y-43139000D02*
X16905000Y-41361000D01*
D13*
X21500000Y-22300000D02*
X24600000Y-22300000D01*
X21500000Y-15700000D02*
X24600000Y-15700000D01*
X24600000Y-15700000D02*
X24600000Y-22300000D01*
X21500000Y-15700000D02*
X21500000Y-22300000D01*
D12*
X5299140Y-26250060D02*
X5299140Y-25899540D01*
X5299140Y-22749940D02*
X5299140Y-23100460D01*
X1249560Y-26250060D02*
X1249560Y-25899540D01*
X5750440Y-26250060D02*
X5750440Y-25899540D01*
X5750440Y-22749940D02*
X5750440Y-23100460D01*
X1249560Y-22749940D02*
X1249560Y-23100460D01*
X5750440Y-26250060D02*
X1249560Y-26250060D01*
X5750440Y-22749940D02*
X1249560Y-22749940D01*
X20447000Y-21209000D02*
X20447000Y-25019000D01*
X20447000Y-25019000D02*
X18669000Y-25019000D01*
X18669000Y-25019000D02*
X18669000Y-21209000D01*
X20447000Y-21209000D02*
X18669000Y-21209000D01*
X20447000Y-12319000D02*
X20447000Y-16129000D01*
X20447000Y-16129000D02*
X18669000Y-16129000D01*
X18669000Y-16129000D02*
X18669000Y-12319000D01*
X20447000Y-12319000D02*
X18669000Y-12319000D01*
D14*
X13982929Y-45736048D02*
X13868024Y-45736048D01*
X13753119Y-45793500D01*
X13695667Y-45850952D01*
X13638214Y-45965857D01*
X13580762Y-46195667D01*
X13580762Y-46482929D01*
X13638214Y-46712738D01*
X13695667Y-46827643D01*
X13753119Y-46885095D01*
X13868024Y-46942548D01*
X13982929Y-46942548D01*
X14097833Y-46885095D01*
X14155286Y-46827643D01*
X14212738Y-46712738D01*
X14270190Y-46482929D01*
X14270190Y-46195667D01*
X14212738Y-45965857D01*
X14155286Y-45850952D01*
X14097833Y-45793500D01*
X13982929Y-45736048D01*
X13063690Y-46827643D02*
X13006238Y-46885095D01*
X13063690Y-46942548D01*
X13121142Y-46885095D01*
X13063690Y-46827643D01*
X13063690Y-46942548D01*
X11857190Y-46942548D02*
X12546618Y-46942548D01*
X12201904Y-46942548D02*
X12201904Y-45736048D01*
X12316809Y-45908405D01*
X12431714Y-46023310D01*
X12546618Y-46080762D01*
X10823047Y-46138214D02*
X10823047Y-46942548D01*
X11340118Y-46138214D02*
X11340118Y-46770190D01*
X11282666Y-46885095D01*
X11167761Y-46942548D01*
X10995404Y-46942548D01*
X10880499Y-46885095D01*
X10823047Y-46827643D01*
X9580762Y-46942548D02*
X10270190Y-46942548D01*
X9925476Y-46942548D02*
X9925476Y-45736048D01*
X10040381Y-45908405D01*
X10155286Y-46023310D01*
X10270190Y-46080762D01*
X8833881Y-45736048D02*
X8718976Y-45736048D01*
X8604071Y-45793500D01*
X8546619Y-45850952D01*
X8489166Y-45965857D01*
X8431714Y-46195667D01*
X8431714Y-46482929D01*
X8489166Y-46712738D01*
X8546619Y-46827643D01*
X8604071Y-46885095D01*
X8718976Y-46942548D01*
X8833881Y-46942548D01*
X8948785Y-46885095D01*
X9006238Y-46827643D01*
X9063690Y-46712738D01*
X9121142Y-46482929D01*
X9121142Y-46195667D01*
X9063690Y-45965857D01*
X9006238Y-45850952D01*
X8948785Y-45793500D01*
X8833881Y-45736048D01*
X7914642Y-46942548D02*
X7914642Y-45736048D01*
X7799737Y-46482929D02*
X7455023Y-46942548D01*
X7455023Y-46138214D02*
X7914642Y-46597833D01*
X17080762Y-38442548D02*
X17770190Y-38442548D01*
X17425476Y-38442548D02*
X17425476Y-37236048D01*
X17540381Y-37408405D01*
X17655286Y-37523310D01*
X17770190Y-37580762D01*
X16333881Y-37236048D02*
X16218976Y-37236048D01*
X16104071Y-37293500D01*
X16046619Y-37350952D01*
X15989166Y-37465857D01*
X15931714Y-37695667D01*
X15931714Y-37982929D01*
X15989166Y-38212738D01*
X16046619Y-38327643D01*
X16104071Y-38385095D01*
X16218976Y-38442548D01*
X16333881Y-38442548D01*
X16448785Y-38385095D01*
X16506238Y-38327643D01*
X16563690Y-38212738D01*
X16621142Y-37982929D01*
X16621142Y-37695667D01*
X16563690Y-37465857D01*
X16506238Y-37350952D01*
X16448785Y-37293500D01*
X16333881Y-37236048D01*
X15414642Y-38442548D02*
X15414642Y-37236048D01*
X15299737Y-37982929D02*
X14955023Y-38442548D01*
X14955023Y-37638214D02*
X15414642Y-38097833D01*
X5442548Y-36919238D02*
X5442548Y-36229810D01*
X5442548Y-36574524D02*
X4236048Y-36574524D01*
X4408405Y-36459619D01*
X4523310Y-36344714D01*
X4580762Y-36229810D01*
X4350952Y-37378858D02*
X4293500Y-37436310D01*
X4236048Y-37551215D01*
X4236048Y-37838477D01*
X4293500Y-37953381D01*
X4350952Y-38010834D01*
X4465857Y-38068286D01*
X4580762Y-38068286D01*
X4753119Y-38010834D01*
X5442548Y-37321405D01*
X5442548Y-38068286D01*
X4236048Y-38815167D02*
X4236048Y-38930072D01*
X4293500Y-39044977D01*
X4350952Y-39102429D01*
X4465857Y-39159882D01*
X4695667Y-39217334D01*
X4982929Y-39217334D01*
X5212738Y-39159882D01*
X5327643Y-39102429D01*
X5385095Y-39044977D01*
X5442548Y-38930072D01*
X5442548Y-38815167D01*
X5385095Y-38700263D01*
X5327643Y-38642810D01*
X5212738Y-38585358D01*
X4982929Y-38527906D01*
X4695667Y-38527906D01*
X4465857Y-38585358D01*
X4350952Y-38642810D01*
X4293500Y-38700263D01*
X4236048Y-38815167D01*
X25638214Y-2804333D02*
X26442548Y-2804333D01*
X25178595Y-2517071D02*
X26040381Y-2229810D01*
X26040381Y-2976690D01*
X26327643Y-3436310D02*
X26385095Y-3493762D01*
X26442548Y-3436310D01*
X26385095Y-3378858D01*
X26327643Y-3436310D01*
X26442548Y-3436310D01*
X25236048Y-3895929D02*
X25236048Y-4700262D01*
X26442548Y-4183191D01*
X25638214Y-5676953D02*
X26442548Y-5676953D01*
X25638214Y-5159882D02*
X26270190Y-5159882D01*
X26385095Y-5217334D01*
X26442548Y-5332239D01*
X26442548Y-5504596D01*
X26385095Y-5619501D01*
X26327643Y-5676953D01*
X25638214Y-22804333D02*
X26442548Y-22804333D01*
X25178595Y-22517071D02*
X26040381Y-22229810D01*
X26040381Y-22976690D01*
X26327643Y-23436310D02*
X26385095Y-23493762D01*
X26442548Y-23436310D01*
X26385095Y-23378858D01*
X26327643Y-23436310D01*
X26442548Y-23436310D01*
X25236048Y-23895929D02*
X25236048Y-24700262D01*
X26442548Y-24183191D01*
X25638214Y-25676953D02*
X26442548Y-25676953D01*
X25638214Y-25159882D02*
X26270190Y-25159882D01*
X26385095Y-25217334D01*
X26442548Y-25332239D01*
X26442548Y-25504596D01*
X26385095Y-25619501D01*
X26327643Y-25676953D01*
X25638214Y-12804333D02*
X26442548Y-12804333D01*
X25178595Y-12517071D02*
X26040381Y-12229810D01*
X26040381Y-12976690D01*
X26327643Y-13436310D02*
X26385095Y-13493762D01*
X26442548Y-13436310D01*
X26385095Y-13378858D01*
X26327643Y-13436310D01*
X26442548Y-13436310D01*
X25236048Y-13895929D02*
X25236048Y-14700262D01*
X26442548Y-14183191D01*
X25638214Y-15676953D02*
X26442548Y-15676953D01*
X25638214Y-15159882D02*
X26270190Y-15159882D01*
X26385095Y-15217334D01*
X26442548Y-15332239D01*
X26442548Y-15504596D01*
X26385095Y-15619501D01*
X26327643Y-15676953D01*
X19482929Y-33236048D02*
X19368024Y-33236048D01*
X19253119Y-33293500D01*
X19195667Y-33350952D01*
X19138214Y-33465857D01*
X19080762Y-33695667D01*
X19080762Y-33982929D01*
X19138214Y-34212738D01*
X19195667Y-34327643D01*
X19253119Y-34385095D01*
X19368024Y-34442548D01*
X19482929Y-34442548D01*
X19597833Y-34385095D01*
X19655286Y-34327643D01*
X19712738Y-34212738D01*
X19770190Y-33982929D01*
X19770190Y-33695667D01*
X19712738Y-33465857D01*
X19655286Y-33350952D01*
X19597833Y-33293500D01*
X19482929Y-33236048D01*
X18563690Y-34327643D02*
X18506238Y-34385095D01*
X18563690Y-34442548D01*
X18621142Y-34385095D01*
X18563690Y-34327643D01*
X18563690Y-34442548D01*
X17357190Y-34442548D02*
X18046618Y-34442548D01*
X17701904Y-34442548D02*
X17701904Y-33236048D01*
X17816809Y-33408405D01*
X17931714Y-33523310D01*
X18046618Y-33580762D01*
X16323047Y-33638214D02*
X16323047Y-34442548D01*
X16840118Y-33638214D02*
X16840118Y-34270190D01*
X16782666Y-34385095D01*
X16667761Y-34442548D01*
X16495404Y-34442548D01*
X16380499Y-34385095D01*
X16323047Y-34327643D01*
X7982929Y-24736048D02*
X7868024Y-24736048D01*
X7753119Y-24793500D01*
X7695667Y-24850952D01*
X7638214Y-24965857D01*
X7580762Y-25195667D01*
X7580762Y-25482929D01*
X7638214Y-25712738D01*
X7695667Y-25827643D01*
X7753119Y-25885095D01*
X7868024Y-25942548D01*
X7982929Y-25942548D01*
X8097833Y-25885095D01*
X8155286Y-25827643D01*
X8212738Y-25712738D01*
X8270190Y-25482929D01*
X8270190Y-25195667D01*
X8212738Y-24965857D01*
X8155286Y-24850952D01*
X8097833Y-24793500D01*
X7982929Y-24736048D01*
X7063690Y-25827643D02*
X7006238Y-25885095D01*
X7063690Y-25942548D01*
X7121142Y-25885095D01*
X7063690Y-25827643D01*
X7063690Y-25942548D01*
X5857190Y-25942548D02*
X6546618Y-25942548D01*
X6201904Y-25942548D02*
X6201904Y-24736048D01*
X6316809Y-24908405D01*
X6431714Y-25023310D01*
X6546618Y-25080762D01*
X4823047Y-25138214D02*
X4823047Y-25942548D01*
X5340118Y-25138214D02*
X5340118Y-25770190D01*
X5282666Y-25885095D01*
X5167761Y-25942548D01*
X4995404Y-25942548D01*
X4880499Y-25885095D01*
X4823047Y-25827643D01*
X33638214Y-20304333D02*
X34442548Y-20304333D01*
X33178595Y-20017071D02*
X34040381Y-19729810D01*
X34040381Y-20476690D01*
X34327643Y-20936310D02*
X34385095Y-20993762D01*
X34442548Y-20936310D01*
X34385095Y-20878858D01*
X34327643Y-20936310D01*
X34442548Y-20936310D01*
X33236048Y-21395929D02*
X33236048Y-22200262D01*
X34442548Y-21683191D01*
X34442548Y-22659882D02*
X33236048Y-22659882D01*
X33982929Y-22774787D02*
X34442548Y-23119501D01*
X33638214Y-23119501D02*
X34097833Y-22659882D01*
X31695667Y-13138214D02*
X31695667Y-13942548D01*
X31982929Y-12678595D02*
X32270190Y-13540381D01*
X31523310Y-13540381D01*
X31063690Y-13827643D02*
X31006238Y-13885095D01*
X31063690Y-13942548D01*
X31121142Y-13885095D01*
X31063690Y-13827643D01*
X31063690Y-13942548D01*
X30604071Y-12736048D02*
X29799738Y-12736048D01*
X30316809Y-13942548D01*
X29340118Y-13942548D02*
X29340118Y-12736048D01*
X29225213Y-13482929D02*
X28880499Y-13942548D01*
X28880499Y-13138214D02*
X29340118Y-13597833D01*
X33638214Y-7804333D02*
X34442548Y-7804333D01*
X33178595Y-7517071D02*
X34040381Y-7229810D01*
X34040381Y-7976690D01*
X34327643Y-8436310D02*
X34385095Y-8493762D01*
X34442548Y-8436310D01*
X34385095Y-8378858D01*
X34327643Y-8436310D01*
X34442548Y-8436310D01*
X33236048Y-8895929D02*
X33236048Y-9700262D01*
X34442548Y-9183191D01*
X34442548Y-10159882D02*
X33236048Y-10159882D01*
X33982929Y-10274787D02*
X34442548Y-10619501D01*
X33638214Y-10619501D02*
X34097833Y-10159882D01*
X31695667Y-638214D02*
X31695667Y-1442548D01*
X31982929Y-178595D02*
X32270190Y-1040381D01*
X31523310Y-1040381D01*
X31063690Y-1327643D02*
X31006238Y-1385095D01*
X31063690Y-1442548D01*
X31121142Y-1385095D01*
X31063690Y-1327643D01*
X31063690Y-1442548D01*
X30604071Y-236048D02*
X29799738Y-236048D01*
X30316809Y-1442548D01*
X29340118Y-1442548D02*
X29340118Y-236048D01*
X29225213Y-982929D02*
X28880499Y-1442548D01*
X28880499Y-638214D02*
X29340118Y-1097833D01*
X33638214Y-32804333D02*
X34442548Y-32804333D01*
X33178595Y-32517071D02*
X34040381Y-32229810D01*
X34040381Y-32976690D01*
X34327643Y-33436310D02*
X34385095Y-33493762D01*
X34442548Y-33436310D01*
X34385095Y-33378858D01*
X34327643Y-33436310D01*
X34442548Y-33436310D01*
X33236048Y-33895929D02*
X33236048Y-34700262D01*
X34442548Y-34183191D01*
X34442548Y-35159882D02*
X33236048Y-35159882D01*
X33982929Y-35274787D02*
X34442548Y-35619501D01*
X33638214Y-35619501D02*
X34097833Y-35159882D01*
X32195667Y-25638214D02*
X32195667Y-26442548D01*
X32482929Y-25178595D02*
X32770190Y-26040381D01*
X32023310Y-26040381D01*
X31563690Y-26327643D02*
X31506238Y-26385095D01*
X31563690Y-26442548D01*
X31621142Y-26385095D01*
X31563690Y-26327643D01*
X31563690Y-26442548D01*
X31104071Y-25236048D02*
X30299738Y-25236048D01*
X30816809Y-26442548D01*
X29840118Y-26442548D02*
X29840118Y-25236048D01*
X29725213Y-25982929D02*
X29380499Y-26442548D01*
X29380499Y-25638214D02*
X29840118Y-26097833D01*
X33638214Y-45304333D02*
X34442548Y-45304333D01*
X33178595Y-45017071D02*
X34040381Y-44729810D01*
X34040381Y-45476690D01*
X34327643Y-45936310D02*
X34385095Y-45993762D01*
X34442548Y-45936310D01*
X34385095Y-45878858D01*
X34327643Y-45936310D01*
X34442548Y-45936310D01*
X33236048Y-46395929D02*
X33236048Y-47200262D01*
X34442548Y-46683191D01*
X34442548Y-47659882D02*
X33236048Y-47659882D01*
X33982929Y-47774787D02*
X34442548Y-48119501D01*
X33638214Y-48119501D02*
X34097833Y-47659882D01*
X31695667Y-38138214D02*
X31695667Y-38942548D01*
X31982929Y-37678595D02*
X32270190Y-38540381D01*
X31523310Y-38540381D01*
X31063690Y-38827643D02*
X31006238Y-38885095D01*
X31063690Y-38942548D01*
X31121142Y-38885095D01*
X31063690Y-38827643D01*
X31063690Y-38942548D01*
X30604071Y-37736048D02*
X29799738Y-37736048D01*
X30316809Y-38942548D01*
X29340118Y-38942548D02*
X29340118Y-37736048D01*
X29225213Y-38482929D02*
X28880499Y-38942548D01*
X28880499Y-38138214D02*
X29340118Y-38597833D01*
D12*
X6661905Y-27902381D02*
X6661905Y-26902381D01*
X6090476Y-27902381D02*
X6519048Y-27330952D01*
X6090476Y-26902381D02*
X6661905Y-27473810D01*
X838095Y-27566667D02*
X361904Y-27566667D01*
X933333Y-27852381D02*
X600000Y-26852381D01*
X266666Y-27852381D01*
M02*
