  0
SECTION
  2
HEADER
  9
$ANGBASE
  50
0.0
  9
$ANGDIR
  70
  1
  9
$MEASUREMENT
  70
0
  0
ENDSEC
  0
SECTION
  2
TABLES
  0
TABLE
  2
LTYPE
  70
1
  0
LTYPE
  2
CONTINUOUS
  70
0
  3
Solid line
  72
65
  73
0
  40
0.0
  0
ENDTAB
  0
TABLE
  2
STYLE
  70
4
  0
STYLE
  2
KICAD
  70
0
  40
0
  41
1
  42
1
  50
0
  71
0
  3
isocp.shx
  0
STYLE
  2
KICADB
  70
0
  40
0
  41
1
  42
1
  50
0
  71
0
  3
isocp.shx
  0
STYLE
  2
KICADI
  70
0
  40
0
  41
1
  42
1
  50
15
  71
0
  3
isocp.shx
  0
STYLE
  2
KICADBI
  70
0
  40
0
  41
1
  42
1
  50
15
  71
0
  3
isocp.shx
  0
ENDTAB
  0
TABLE
  2
LAYER
  70
30
  0
LAYER
  2
BLACK
  70
0
  62
7
  6
CONTINUOUS
  0
LAYER
  2
GRAY1
  70
0
  62
251
  6
CONTINUOUS
  0
LAYER
  2
GRAY2
  70
0
  62
8
  6
CONTINUOUS
  0
LAYER
  2
GRAY3
  70
0
  62
9
  6
CONTINUOUS
  0
LAYER
  2
WHITE
  70
0
  62
7
  6
CONTINUOUS
  0
LAYER
  2
LYELLOW
  70
0
  62
51
  6
CONTINUOUS
  0
LAYER
  2
BLUE1
  70
0
  62
178
  6
CONTINUOUS
  0
LAYER
  2
GREEN1
  70
0
  62
98
  6
CONTINUOUS
  0
LAYER
  2
CYAN1
  70
0
  62
138
  6
CONTINUOUS
  0
LAYER
  2
RED1
  70
0
  62
18
  6
CONTINUOUS
  0
LAYER
  2
MAGENTA1
  70
0
  62
228
  6
CONTINUOUS
  0
LAYER
  2
BROWN1
  70
0
  62
58
  6
CONTINUOUS
  0
LAYER
  2
BLUE2
  70
0
  62
5
  6
CONTINUOUS
  0
LAYER
  2
GREEN2
  70
0
  62
3
  6
CONTINUOUS
  0
LAYER
  2
CYAN2
  70
0
  62
4
  6
CONTINUOUS
  0
LAYER
  2
RED2
  70
0
  62
1
  6
CONTINUOUS
  0
LAYER
  2
MAGENTA2
  70
0
  62
6
  6
CONTINUOUS
  0
LAYER
  2
BROWN2
  70
0
  62
54
  6
CONTINUOUS
  0
LAYER
  2
BLUE3
  70
0
  62
171
  6
CONTINUOUS
  0
LAYER
  2
GREEN3
  70
0
  62
91
  6
CONTINUOUS
  0
LAYER
  2
CYAN3
  70
0
  62
131
  6
CONTINUOUS
  0
LAYER
  2
RED3
  70
0
  62
11
  6
CONTINUOUS
  0
LAYER
  2
MAGENTA3
  70
0
  62
221
  6
CONTINUOUS
  0
LAYER
  2
YELLOW3
  70
0
  62
2
  6
CONTINUOUS
  0
LAYER
  2
BLUE4
  70
0
  62
5
  6
CONTINUOUS
  0
LAYER
  2
GREEN4
  70
0
  62
3
  6
CONTINUOUS
  0
LAYER
  2
CYAN4
  70
0
  62
4
  6
CONTINUOUS
  0
LAYER
  2
RED4
  70
0
  62
1
  6
CONTINUOUS
  0
LAYER
  2
MAGENTA4
  70
0
  62
6
  6
CONTINUOUS
  0
LAYER
  2
YELLOW4
  70
0
  62
2
  6
CONTINUOUS
  0
ENDTAB
  0
ENDSEC
  0
SECTION
  2
ENTITIES
0
LINE
8
Black
10
44.3526
20
1.28937
11
46.4665
21
0.796288
0
LINE
8
Black
10
46.4665
20
0.796288
11
46.4732
21
0.793406
0
LINE
8
Black
10
46.4732
20
0.793406
11
46.4801
21
0.790896
0
LINE
8
Black
10
46.4801
20
0.790896
11
47.7634
21
0.05
0
LINE
8
Black
10
47.7634
20
0.05
11
73
21
0.05
0
LINE
8
Black
10
73
20
0.05
11
73.0043
21
0.04924
0
LINE
8
Black
10
73.0043
20
0.04924
11
73.0087
21
0.04924
0
LINE
8
Black
10
73.0087
20
0.04924
11
74.0347
21
-0.131681
0
LINE
8
Black
10
74.0347
20
-0.131681
11
74.0347
21
-0.131681
0
LINE
8
Black
10
74.0347
20
-0.131681
11
74.0429
21
-0.134651
0
LINE
8
Black
10
74.0429
20
-0.134651
11
74.0511
21
-0.13762
0
LINE
8
Black
10
74.0511
20
-0.13762
11
74.0511
21
-0.137623
0
LINE
8
Black
10
74.0511
20
-0.137623
11
74.9534
21
-0.658566
0
LINE
8
Black
10
74.9534
20
-0.658566
11
74.9667
21
-0.669727
0
LINE
8
Black
10
74.9667
20
-0.669727
11
74.9667
21
-0.669734
0
LINE
8
Black
10
74.9667
20
-0.669734
11
75.6364
21
-1.46786
0
LINE
8
Black
10
75.6364
20
-1.46786
11
75.6364
21
-1.46786
0
LINE
8
Black
10
75.6364
20
-1.46786
11
75.6451
21
-1.4829
0
LINE
8
Black
10
75.6451
20
-1.4829
11
76.0014
21
-2.46195
0
LINE
8
Black
10
76.0014
20
-2.46195
11
76.0025
21
-2.46839
0
LINE
8
Black
10
76.0025
20
-2.46839
11
76.0042
21
-2.4747
0
LINE
8
Black
10
76.0042
20
-2.4747
11
76.0498
21
-2.99564
0
LINE
8
Black
10
76.0498
20
-2.99564
11
76.0496
21
-2.99783
0
LINE
8
Black
10
76.0496
20
-2.99783
11
76.05
21
-3
0
LINE
8
Black
10
76.05
20
-3
11
76.05
21
-72
0
LINE
8
Black
10
76.05
20
-72
11
76.0492
21
-72.0043
0
LINE
8
Black
10
76.0492
20
-72.0043
11
76.0492
21
-72.0087
0
LINE
8
Black
10
76.0492
20
-72.0087
11
75.8683
21
-73.0347
0
LINE
8
Black
10
75.8683
20
-73.0347
11
75.8683
21
-73.0347
0
LINE
8
Black
10
75.8683
20
-73.0347
11
75.8653
21
-73.0429
0
LINE
8
Black
10
75.8653
20
-73.0429
11
75.8624
21
-73.0511
0
LINE
8
Black
10
75.8624
20
-73.0511
11
75.8624
21
-73.0511
0
LINE
8
Black
10
75.8624
20
-73.0511
11
75.3414
21
-73.9534
0
LINE
8
Black
10
75.3414
20
-73.9534
11
75.3414
21
-73.9534
0
LINE
8
Black
10
75.3414
20
-73.9534
11
75.3303
21
-73.9667
0
LINE
8
Black
10
75.3303
20
-73.9667
11
74.5321
21
-74.6364
0
LINE
8
Black
10
74.5321
20
-74.6364
11
74.5321
21
-74.6364
0
LINE
8
Black
10
74.5321
20
-74.6364
11
74.5266
21
-74.6396
0
LINE
8
Black
10
74.5266
20
-74.6396
11
74.5171
21
-74.6451
0
LINE
8
Black
10
74.5171
20
-74.6451
11
74.5171
21
-74.6451
0
LINE
8
Black
10
74.5171
20
-74.6451
11
73.538
21
-75.0014
0
LINE
8
Black
10
73.538
20
-75.0014
11
73.5316
21
-75.0025
0
LINE
8
Black
10
73.5316
20
-75.0025
11
73.5253
21
-75.0042
0
LINE
8
Black
10
73.5253
20
-75.0042
11
73.0044
21
-75.0498
0
LINE
8
Black
10
73.0044
20
-75.0498
11
73.0022
21
-75.0496
0
LINE
8
Black
10
73.0022
20
-75.0496
11
73
21
-75.05
0
LINE
8
Black
10
73
20
-75.05
11
3
21
-75.05
0
LINE
8
Black
10
3
20
-75.05
11
2.99569
21
-75.0492
0
LINE
8
Black
10
2.99569
20
-75.0492
11
2.99132
21
-75.0492
0
LINE
8
Black
10
2.99132
20
-75.0492
11
1.96526
21
-74.8683
0
LINE
8
Black
10
1.96526
20
-74.8683
11
1.96526
21
-74.8683
0
LINE
8
Black
10
1.96526
20
-74.8683
11
1.9571
21
-74.8653
0
LINE
8
Black
10
1.9571
20
-74.8653
11
1.94894
21
-74.8624
0
LINE
8
Black
10
1.94894
20
-74.8624
11
1.94894
21
-74.8624
0
LINE
8
Black
10
1.94894
20
-74.8624
11
1.04664
21
-74.3414
0
LINE
8
Black
10
1.04664
20
-74.3414
11
1.04664
21
-74.3414
0
LINE
8
Black
10
1.04664
20
-74.3414
11
1.03333
21
-74.3303
0
LINE
8
Black
10
1.03333
20
-74.3303
11
0.363625
21
-73.5321
0
LINE
8
Black
10
0.363625
20
-73.5321
11
0.363622
21
-73.5321
0
LINE
8
Black
10
0.363622
20
-73.5321
11
0.360444
21
-73.5266
0
LINE
8
Black
10
0.360444
20
-73.5266
11
0.354939
21
-73.5171
0
LINE
8
Black
10
0.354939
20
-73.5171
11
0.354938
21
-73.5171
0
LINE
8
Black
10
0.354938
20
-73.5171
11
-0.001408
21
-72.538
0
LINE
8
Black
10
-0.001408
20
-72.538
11
-0.002542
21
-72.5316
0
LINE
8
Black
10
-0.002542
20
-72.5316
11
-0.004233
21
-72.5253
0
LINE
8
Black
10
-0.004233
20
-72.5253
11
-0.04981
21
-72.0044
0
LINE
8
Black
10
-0.04981
20
-72.0044
11
-0.049618
21
-72.0022
0
LINE
8
Black
10
-0.049618
20
-72.0022
11
-0.05
21
-72
0
LINE
8
Black
10
-0.05
20
-72
11
-0.05
21
0
0
LINE
8
Black
10
-0.05
20
0
11
-0.04924
21
0.004311
0
LINE
8
Black
10
-0.04924
20
0.004311
11
-0.04924
21
0.008682
0
LINE
8
Black
10
-0.04924
20
0.008682
11
-0.047745
21
0.012789
0
LINE
8
Black
10
-0.047745
20
0.012789
11
-0.046985
21
0.017101
0
LINE
8
Black
10
-0.046985
20
0.017101
11
-0.044796
21
0.020892
0
LINE
8
Black
10
-0.044796
20
0.020892
11
-0.043301
21
0.025
0
LINE
8
Black
10
-0.043301
20
0.025
11
-0.040489
21
0.028351
0
LINE
8
Black
10
-0.040489
20
0.028351
11
-0.038302
21
0.032139
0
LINE
8
Black
10
-0.038302
20
0.032139
11
-0.034951
21
0.034951
0
LINE
8
Black
10
-0.034951
20
0.034951
11
-0.032139
21
0.038302
0
LINE
8
Black
10
-0.032139
20
0.038302
11
-0.028351
21
0.040489
0
LINE
8
Black
10
-0.028351
20
0.040489
11
-0.025
21
0.043301
0
LINE
8
Black
10
-0.025
20
0.043301
11
-0.020892
21
0.044796
0
LINE
8
Black
10
-0.020892
20
0.044796
11
-0.017101
21
0.046985
0
LINE
8
Black
10
-0.017101
20
0.046985
11
-0.012789
21
0.047745
0
LINE
8
Black
10
-0.012789
20
0.047745
11
-0.008682
21
0.04924
0
LINE
8
Black
10
-0.008682
20
0.04924
11
-0.004311
21
0.04924
0
LINE
8
Black
10
-0.004311
20
0.04924
11
0
21
0.05
0
LINE
8
Black
10
0
20
0.05
11
40.2381
21
0.05
0
LINE
8
Black
10
40.2381
20
0.05
11
42.1637
21
1.02564
0
LINE
8
Black
10
42.1637
20
1.02564
11
42.1803
21
1.03068
0
LINE
8
Black
10
42.1803
20
1.03068
11
44.3353
21
1.29032
0
LINE
8
Black
10
44.3353
20
1.29032
11
44.3526
21
1.28937
0
LINE
8
Black
10
42.201
20
0.932453
11
40.2726
21
-0.044602
0
LINE
8
Black
10
40.2726
20
-0.044602
11
40.2697
21
-0.045477
0
LINE
8
Black
10
40.2697
20
-0.045477
11
40.2671
21
-0.046985
0
LINE
8
Black
10
40.2671
20
-0.046985
11
40.2615
21
-0.04798
0
LINE
8
Black
10
40.2615
20
-0.04798
11
40.256
21
-0.049641
0
LINE
8
Black
10
40.256
20
-0.049641
11
40.253
21
-0.049476
0
LINE
8
Black
10
40.253
20
-0.049476
11
40.25
21
-0.05
0
LINE
8
Black
10
40.25
20
-0.05
11
0.05
21
-0.05
0
LINE
8
Black
10
0.05
20
-0.05
11
0.05
21
-71.9978
0
LINE
8
Black
10
0.05
20
-71.9978
11
0.094813
21
-72.51
0
LINE
8
Black
10
0.094813
20
-72.51
11
0.445894
21
-73.4746
0
LINE
8
Black
10
0.445894
20
-73.4746
11
1.10427
21
-74.2592
0
LINE
8
Black
10
1.10427
20
-74.2592
11
1.9913
21
-74.7714
0
LINE
8
Black
10
1.9913
20
-74.7714
11
3.00437
21
-74.95
0
LINE
8
Black
10
3.00437
20
-74.95
11
72.9978
21
-74.95
0
LINE
8
Black
10
72.9978
20
-74.95
11
73.51
21
-74.9052
0
LINE
8
Black
10
73.51
20
-74.9052
11
74.4746
21
-74.5541
0
LINE
8
Black
10
74.4746
20
-74.5541
11
75.2592
21
-73.8957
0
LINE
8
Black
10
75.2592
20
-73.8957
11
75.7714
21
-73.0087
0
LINE
8
Black
10
75.7714
20
-73.0087
11
75.95
21
-71.9956
0
LINE
8
Black
10
75.95
20
-71.9956
11
75.95
21
-3.00219
0
LINE
8
Black
10
75.95
20
-3.00219
11
75.9052
21
-2.48997
0
LINE
8
Black
10
75.9052
20
-2.48997
11
75.5541
21
-1.52539
0
LINE
8
Black
10
75.5541
20
-1.52539
11
74.8957
21
-0.74076
0
LINE
8
Black
10
74.8957
20
-0.74076
11
74.0087
21
-0.228631
0
LINE
8
Black
10
74.0087
20
-0.228631
11
72.9956
21
-0.05
0
LINE
8
Black
10
72.9956
20
-0.05
11
47.75
21
-0.05
0
LINE
8
Black
10
47.75
20
-0.05
11
47.7457
21
-0.04924
0
LINE
8
Black
10
47.7457
20
-0.04924
11
47.7413
21
-0.04924
0
LINE
8
Black
10
47.7413
20
-0.04924
11
47.7372
21
-0.047745
0
LINE
8
Black
10
47.7372
20
-0.047745
11
47.7329
21
-0.046985
0
LINE
8
Black
10
47.7329
20
-0.046985
11
47.7291
21
-0.044796
0
LINE
8
Black
10
47.7291
20
-0.044796
11
47.725
21
-0.043301
0
LINE
8
Black
10
47.725
20
-0.043301
11
46.4365
21
0.700586
0
LINE
8
Black
10
46.4365
20
0.700586
11
44.3385
21
1.18998
0
LINE
8
Black
10
44.3385
20
1.18998
11
42.201
21
0.932453
  0
ENDSEC
  0
EOF
