%TF.GenerationSoftware,KiCad,Pcbnew,(6.0.5)*%
%TF.CreationDate,2022-08-05T23:54:08+09:00*%
%TF.ProjectId,ORION_VV_driver_v1,4f52494f-4e5f-4565-965f-647269766572,rev?*%
%TF.SameCoordinates,Original*%
%TF.FileFunction,Legend,Top*%
%TF.FilePolarity,Positive*%
%FSLAX46Y46*%
G04 Gerber Fmt 4.6, Leading zero omitted, Abs format (unit mm)*
G04 Created by KiCad (PCBNEW (6.0.5)) date 2022-08-05 23:54:08*
%MOMM*%
%LPD*%
G01*
G04 APERTURE LIST*
%ADD10C,0.150000*%
%ADD11C,0.300000*%
%ADD12C,0.200000*%
%ADD13C,0.120000*%
G04 APERTURE END LIST*
D10*
X71562857Y-47676785D02*
X71634285Y-47495357D01*
X71705714Y-47434880D01*
X71848571Y-47374404D01*
X72062857Y-47374404D01*
X72205714Y-47434880D01*
X72277142Y-47495357D01*
X72348571Y-47616309D01*
X72348571Y-48100119D01*
X70848571Y-48100119D01*
X70848571Y-47676785D01*
X70920000Y-47555833D01*
X70991428Y-47495357D01*
X71134285Y-47434880D01*
X71277142Y-47434880D01*
X71420000Y-47495357D01*
X71491428Y-47555833D01*
X71562857Y-47676785D01*
X71562857Y-48100119D01*
X72348571Y-46285833D02*
X71562857Y-46285833D01*
X71420000Y-46346309D01*
X71348571Y-46467261D01*
X71348571Y-46709166D01*
X71420000Y-46830119D01*
X72277142Y-46285833D02*
X72348571Y-46406785D01*
X72348571Y-46709166D01*
X72277142Y-46830119D01*
X72134285Y-46890595D01*
X71991428Y-46890595D01*
X71848571Y-46830119D01*
X71777142Y-46709166D01*
X71777142Y-46406785D01*
X71705714Y-46285833D01*
X71348571Y-45862500D02*
X71348571Y-45378690D01*
X70848571Y-45681071D02*
X72134285Y-45681071D01*
X72277142Y-45620595D01*
X72348571Y-45499642D01*
X72348571Y-45378690D01*
X71348571Y-45136785D02*
X71348571Y-44652976D01*
X70848571Y-44955357D02*
X72134285Y-44955357D01*
X72277142Y-44894880D01*
X72348571Y-44773928D01*
X72348571Y-44652976D01*
X70848571Y-44411071D02*
X72348571Y-43987738D01*
X70848571Y-43564404D01*
X74763571Y-48100119D02*
X73263571Y-48100119D01*
X74335000Y-47676785D01*
X73263571Y-47253452D01*
X74763571Y-47253452D01*
X74763571Y-45983452D02*
X74763571Y-46709166D01*
X74763571Y-46346309D02*
X73263571Y-46346309D01*
X73477857Y-46467261D01*
X73620714Y-46588214D01*
X73692142Y-46709166D01*
X74620714Y-43745833D02*
X74692142Y-43806309D01*
X74763571Y-43987738D01*
X74763571Y-44108690D01*
X74692142Y-44290119D01*
X74549285Y-44411071D01*
X74406428Y-44471547D01*
X74120714Y-44532023D01*
X73906428Y-44532023D01*
X73620714Y-44471547D01*
X73477857Y-44411071D01*
X73335000Y-44290119D01*
X73263571Y-44108690D01*
X73263571Y-43987738D01*
X73335000Y-43806309D01*
X73406428Y-43745833D01*
X73763571Y-42657261D02*
X74763571Y-42657261D01*
X73763571Y-43201547D02*
X74549285Y-43201547D01*
X74692142Y-43141071D01*
X74763571Y-43020119D01*
X74763571Y-42838690D01*
X74692142Y-42717738D01*
X74620714Y-42657261D01*
X74763571Y-42052500D02*
X73763571Y-42052500D01*
X74049285Y-42052500D02*
X73906428Y-41992023D01*
X73835000Y-41931547D01*
X73763571Y-41810595D01*
X73763571Y-41689642D01*
X74763571Y-41266309D02*
X73763571Y-41266309D01*
X74049285Y-41266309D02*
X73906428Y-41205833D01*
X73835000Y-41145357D01*
X73763571Y-41024404D01*
X73763571Y-40903452D01*
X74692142Y-39996309D02*
X74763571Y-40117261D01*
X74763571Y-40359166D01*
X74692142Y-40480119D01*
X74549285Y-40540595D01*
X73977857Y-40540595D01*
X73835000Y-40480119D01*
X73763571Y-40359166D01*
X73763571Y-40117261D01*
X73835000Y-39996309D01*
X73977857Y-39935833D01*
X74120714Y-39935833D01*
X74263571Y-40540595D01*
X73763571Y-39391547D02*
X74763571Y-39391547D01*
X73906428Y-39391547D02*
X73835000Y-39331071D01*
X73763571Y-39210119D01*
X73763571Y-39028690D01*
X73835000Y-38907738D01*
X73977857Y-38847261D01*
X74763571Y-38847261D01*
X73763571Y-38423928D02*
X73763571Y-37940119D01*
X73263571Y-38242500D02*
X74549285Y-38242500D01*
X74692142Y-38182023D01*
X74763571Y-38061071D01*
X74763571Y-37940119D01*
X77178571Y-48100119D02*
X75678571Y-48100119D01*
X76750000Y-47676785D01*
X75678571Y-47253452D01*
X77178571Y-47253452D01*
X77178571Y-45983452D02*
X77178571Y-46709166D01*
X77178571Y-46346309D02*
X75678571Y-46346309D01*
X75892857Y-46467261D01*
X76035714Y-46588214D01*
X76107142Y-46709166D01*
X75678571Y-44652976D02*
X75678571Y-43927261D01*
X77178571Y-44290119D02*
X75678571Y-44290119D01*
X77107142Y-43020119D02*
X77178571Y-43141071D01*
X77178571Y-43382976D01*
X77107142Y-43503928D01*
X76964285Y-43564404D01*
X76392857Y-43564404D01*
X76250000Y-43503928D01*
X76178571Y-43382976D01*
X76178571Y-43141071D01*
X76250000Y-43020119D01*
X76392857Y-42959642D01*
X76535714Y-42959642D01*
X76678571Y-43564404D01*
X77178571Y-42415357D02*
X76178571Y-42415357D01*
X76321428Y-42415357D02*
X76250000Y-42354880D01*
X76178571Y-42233928D01*
X76178571Y-42052500D01*
X76250000Y-41931547D01*
X76392857Y-41871071D01*
X77178571Y-41871071D01*
X76392857Y-41871071D02*
X76250000Y-41810595D01*
X76178571Y-41689642D01*
X76178571Y-41508214D01*
X76250000Y-41387261D01*
X76392857Y-41326785D01*
X77178571Y-41326785D01*
X76178571Y-40722023D02*
X77678571Y-40722023D01*
X76250000Y-40722023D02*
X76178571Y-40601071D01*
X76178571Y-40359166D01*
X76250000Y-40238214D01*
X76321428Y-40177738D01*
X76464285Y-40117261D01*
X76892857Y-40117261D01*
X77035714Y-40177738D01*
X77107142Y-40238214D01*
X77178571Y-40359166D01*
X77178571Y-40601071D01*
X77107142Y-40722023D01*
X79593571Y-48100119D02*
X78093571Y-48100119D01*
X79165000Y-47676785D01*
X78093571Y-47253452D01*
X79593571Y-47253452D01*
X78093571Y-46406785D02*
X78093571Y-46285833D01*
X78165000Y-46164880D01*
X78236428Y-46104404D01*
X78379285Y-46043928D01*
X78665000Y-45983452D01*
X79022142Y-45983452D01*
X79307857Y-46043928D01*
X79450714Y-46104404D01*
X79522142Y-46164880D01*
X79593571Y-46285833D01*
X79593571Y-46406785D01*
X79522142Y-46527738D01*
X79450714Y-46588214D01*
X79307857Y-46648690D01*
X79022142Y-46709166D01*
X78665000Y-46709166D01*
X78379285Y-46648690D01*
X78236428Y-46588214D01*
X78165000Y-46527738D01*
X78093571Y-46406785D01*
X78093571Y-44652976D02*
X78093571Y-43927261D01*
X79593571Y-44290119D02*
X78093571Y-44290119D01*
X79522142Y-43020119D02*
X79593571Y-43141071D01*
X79593571Y-43382976D01*
X79522142Y-43503928D01*
X79379285Y-43564404D01*
X78807857Y-43564404D01*
X78665000Y-43503928D01*
X78593571Y-43382976D01*
X78593571Y-43141071D01*
X78665000Y-43020119D01*
X78807857Y-42959642D01*
X78950714Y-42959642D01*
X79093571Y-43564404D01*
X79593571Y-42415357D02*
X78593571Y-42415357D01*
X78736428Y-42415357D02*
X78665000Y-42354880D01*
X78593571Y-42233928D01*
X78593571Y-42052500D01*
X78665000Y-41931547D01*
X78807857Y-41871071D01*
X79593571Y-41871071D01*
X78807857Y-41871071D02*
X78665000Y-41810595D01*
X78593571Y-41689642D01*
X78593571Y-41508214D01*
X78665000Y-41387261D01*
X78807857Y-41326785D01*
X79593571Y-41326785D01*
X78593571Y-40722023D02*
X80093571Y-40722023D01*
X78665000Y-40722023D02*
X78593571Y-40601071D01*
X78593571Y-40359166D01*
X78665000Y-40238214D01*
X78736428Y-40177738D01*
X78879285Y-40117261D01*
X79307857Y-40117261D01*
X79450714Y-40177738D01*
X79522142Y-40238214D01*
X79593571Y-40359166D01*
X79593571Y-40601071D01*
X79522142Y-40722023D01*
X82008571Y-48100119D02*
X80508571Y-48100119D01*
X81580000Y-47676785D01*
X80508571Y-47253452D01*
X82008571Y-47253452D01*
X80508571Y-46406785D02*
X80508571Y-46285833D01*
X80580000Y-46164880D01*
X80651428Y-46104404D01*
X80794285Y-46043928D01*
X81080000Y-45983452D01*
X81437142Y-45983452D01*
X81722857Y-46043928D01*
X81865714Y-46104404D01*
X81937142Y-46164880D01*
X82008571Y-46285833D01*
X82008571Y-46406785D01*
X81937142Y-46527738D01*
X81865714Y-46588214D01*
X81722857Y-46648690D01*
X81437142Y-46709166D01*
X81080000Y-46709166D01*
X80794285Y-46648690D01*
X80651428Y-46588214D01*
X80580000Y-46527738D01*
X80508571Y-46406785D01*
X81865714Y-43745833D02*
X81937142Y-43806309D01*
X82008571Y-43987738D01*
X82008571Y-44108690D01*
X81937142Y-44290119D01*
X81794285Y-44411071D01*
X81651428Y-44471547D01*
X81365714Y-44532023D01*
X81151428Y-44532023D01*
X80865714Y-44471547D01*
X80722857Y-44411071D01*
X80580000Y-44290119D01*
X80508571Y-44108690D01*
X80508571Y-43987738D01*
X80580000Y-43806309D01*
X80651428Y-43745833D01*
X81008571Y-42657261D02*
X82008571Y-42657261D01*
X81008571Y-43201547D02*
X81794285Y-43201547D01*
X81937142Y-43141071D01*
X82008571Y-43020119D01*
X82008571Y-42838690D01*
X81937142Y-42717738D01*
X81865714Y-42657261D01*
X82008571Y-42052500D02*
X81008571Y-42052500D01*
X81294285Y-42052500D02*
X81151428Y-41992023D01*
X81080000Y-41931547D01*
X81008571Y-41810595D01*
X81008571Y-41689642D01*
X82008571Y-41266309D02*
X81008571Y-41266309D01*
X81294285Y-41266309D02*
X81151428Y-41205833D01*
X81080000Y-41145357D01*
X81008571Y-41024404D01*
X81008571Y-40903452D01*
X81937142Y-39996309D02*
X82008571Y-40117261D01*
X82008571Y-40359166D01*
X81937142Y-40480119D01*
X81794285Y-40540595D01*
X81222857Y-40540595D01*
X81080000Y-40480119D01*
X81008571Y-40359166D01*
X81008571Y-40117261D01*
X81080000Y-39996309D01*
X81222857Y-39935833D01*
X81365714Y-39935833D01*
X81508571Y-40540595D01*
X81008571Y-39391547D02*
X82008571Y-39391547D01*
X81151428Y-39391547D02*
X81080000Y-39331071D01*
X81008571Y-39210119D01*
X81008571Y-39028690D01*
X81080000Y-38907738D01*
X81222857Y-38847261D01*
X82008571Y-38847261D01*
X81008571Y-38423928D02*
X81008571Y-37940119D01*
X80508571Y-38242500D02*
X81794285Y-38242500D01*
X81937142Y-38182023D01*
X82008571Y-38061071D01*
X82008571Y-37940119D01*
D11*
X23238095Y-74642857D02*
X24761904Y-74642857D01*
X24000000Y-75404761D02*
X24000000Y-73880952D01*
D10*
X83904761Y-63583333D02*
X83952380Y-63440476D01*
X83952380Y-63202380D01*
X83904761Y-63107142D01*
X83857142Y-63059523D01*
X83761904Y-63011904D01*
X83666666Y-63011904D01*
X83571428Y-63059523D01*
X83523809Y-63107142D01*
X83476190Y-63202380D01*
X83428571Y-63392857D01*
X83380952Y-63488095D01*
X83333333Y-63535714D01*
X83238095Y-63583333D01*
X83142857Y-63583333D01*
X83047619Y-63535714D01*
X83000000Y-63488095D01*
X82952380Y-63392857D01*
X82952380Y-63154761D01*
X83000000Y-63011904D01*
X82952380Y-62678571D02*
X83952380Y-62440476D01*
X83238095Y-62250000D01*
X83952380Y-62059523D01*
X82952380Y-61821428D01*
X82952380Y-61250000D02*
X82952380Y-61154761D01*
X83000000Y-61059523D01*
X83047619Y-61011904D01*
X83142857Y-60964285D01*
X83333333Y-60916666D01*
X83571428Y-60916666D01*
X83761904Y-60964285D01*
X83857142Y-61011904D01*
X83904761Y-61059523D01*
X83952380Y-61154761D01*
X83952380Y-61250000D01*
X83904761Y-61345238D01*
X83857142Y-61392857D01*
X83761904Y-61440476D01*
X83571428Y-61488095D01*
X83333333Y-61488095D01*
X83142857Y-61440476D01*
X83047619Y-61392857D01*
X83000000Y-61345238D01*
X82952380Y-61250000D01*
X83904761Y-56583333D02*
X83952380Y-56440476D01*
X83952380Y-56202380D01*
X83904761Y-56107142D01*
X83857142Y-56059523D01*
X83761904Y-56011904D01*
X83666666Y-56011904D01*
X83571428Y-56059523D01*
X83523809Y-56107142D01*
X83476190Y-56202380D01*
X83428571Y-56392857D01*
X83380952Y-56488095D01*
X83333333Y-56535714D01*
X83238095Y-56583333D01*
X83142857Y-56583333D01*
X83047619Y-56535714D01*
X83000000Y-56488095D01*
X82952380Y-56392857D01*
X82952380Y-56154761D01*
X83000000Y-56011904D01*
X82952380Y-55678571D02*
X83952380Y-55440476D01*
X83238095Y-55250000D01*
X83952380Y-55059523D01*
X82952380Y-54821428D01*
X83047619Y-54488095D02*
X83000000Y-54440476D01*
X82952380Y-54345238D01*
X82952380Y-54107142D01*
X83000000Y-54011904D01*
X83047619Y-53964285D01*
X83142857Y-53916666D01*
X83238095Y-53916666D01*
X83380952Y-53964285D01*
X83952380Y-54535714D01*
X83952380Y-53916666D01*
X65238095Y-100500000D02*
X65142857Y-100452380D01*
X65000000Y-100452380D01*
X64857142Y-100500000D01*
X64761904Y-100595238D01*
X64714285Y-100690476D01*
X64666666Y-100880952D01*
X64666666Y-101023809D01*
X64714285Y-101214285D01*
X64761904Y-101309523D01*
X64857142Y-101404761D01*
X65000000Y-101452380D01*
X65095238Y-101452380D01*
X65238095Y-101404761D01*
X65285714Y-101357142D01*
X65285714Y-101023809D01*
X65095238Y-101023809D01*
X65714285Y-101452380D02*
X65714285Y-100452380D01*
X66285714Y-101452380D01*
X66285714Y-100452380D01*
X66761904Y-101452380D02*
X66761904Y-100452380D01*
X67000000Y-100452380D01*
X67142857Y-100500000D01*
X67238095Y-100595238D01*
X67285714Y-100690476D01*
X67333333Y-100880952D01*
X67333333Y-101023809D01*
X67285714Y-101214285D01*
X67238095Y-101309523D01*
X67142857Y-101404761D01*
X67000000Y-101452380D01*
X66761904Y-101452380D01*
D11*
X31642857Y-81761904D02*
X31642857Y-80238095D01*
D12*
X37142857Y-27857142D02*
X34714285Y-27857142D01*
X34428571Y-28000000D01*
X34285714Y-28142857D01*
X34142857Y-28428571D01*
X34142857Y-29000000D01*
X34285714Y-29285714D01*
X34428571Y-29428571D01*
X34714285Y-29571428D01*
X37142857Y-29571428D01*
X37142857Y-32857142D02*
X34142857Y-33857142D01*
X37142857Y-34857142D01*
X37142857Y-37857142D02*
X34142857Y-38571428D01*
X36285714Y-39142857D01*
X34142857Y-39714285D01*
X37142857Y-40428571D01*
D10*
X79454642Y-87348571D02*
X79454642Y-85848571D01*
X79954642Y-86920000D01*
X80454642Y-85848571D01*
X80454642Y-87348571D01*
X81454642Y-85848571D02*
X81597500Y-85848571D01*
X81740357Y-85920000D01*
X81811785Y-85991428D01*
X81883214Y-86134285D01*
X81954642Y-86420000D01*
X81954642Y-86777142D01*
X81883214Y-87062857D01*
X81811785Y-87205714D01*
X81740357Y-87277142D01*
X81597500Y-87348571D01*
X81454642Y-87348571D01*
X81311785Y-87277142D01*
X81240357Y-87205714D01*
X81168928Y-87062857D01*
X81097500Y-86777142D01*
X81097500Y-86420000D01*
X81168928Y-86134285D01*
X81240357Y-85991428D01*
X81311785Y-85920000D01*
X81454642Y-85848571D01*
X82597500Y-86777142D02*
X83740357Y-86777142D01*
X84454642Y-87348571D02*
X84454642Y-85848571D01*
X85311785Y-87348571D01*
X85311785Y-85848571D01*
X85954642Y-87277142D02*
X86168928Y-87348571D01*
X86526071Y-87348571D01*
X86668928Y-87277142D01*
X86740357Y-87205714D01*
X86811785Y-87062857D01*
X86811785Y-86920000D01*
X86740357Y-86777142D01*
X86668928Y-86705714D01*
X86526071Y-86634285D01*
X86240357Y-86562857D01*
X86097500Y-86491428D01*
X86026071Y-86420000D01*
X85954642Y-86277142D01*
X85954642Y-86134285D01*
X86026071Y-85991428D01*
X86097500Y-85920000D01*
X86240357Y-85848571D01*
X86597500Y-85848571D01*
X86811785Y-85920000D01*
X87383214Y-87277142D02*
X87597500Y-87348571D01*
X87954642Y-87348571D01*
X88097500Y-87277142D01*
X88168928Y-87205714D01*
X88240357Y-87062857D01*
X88240357Y-86920000D01*
X88168928Y-86777142D01*
X88097500Y-86705714D01*
X87954642Y-86634285D01*
X87668928Y-86562857D01*
X87526071Y-86491428D01*
X87454642Y-86420000D01*
X87383214Y-86277142D01*
X87383214Y-86134285D01*
X87454642Y-85991428D01*
X87526071Y-85920000D01*
X87668928Y-85848571D01*
X88026071Y-85848571D01*
X88240357Y-85920000D01*
X79454642Y-89763571D02*
X79454642Y-88263571D01*
X79954642Y-89335000D01*
X80454642Y-88263571D01*
X80454642Y-89763571D01*
X81954642Y-89763571D02*
X81097500Y-89763571D01*
X81526071Y-89763571D02*
X81526071Y-88263571D01*
X81383214Y-88477857D01*
X81240357Y-88620714D01*
X81097500Y-88692142D01*
X82597500Y-89192142D02*
X83740357Y-89192142D01*
X84454642Y-89763571D02*
X84454642Y-88263571D01*
X85311785Y-89763571D01*
X85311785Y-88263571D01*
X85954642Y-89692142D02*
X86168928Y-89763571D01*
X86526071Y-89763571D01*
X86668928Y-89692142D01*
X86740357Y-89620714D01*
X86811785Y-89477857D01*
X86811785Y-89335000D01*
X86740357Y-89192142D01*
X86668928Y-89120714D01*
X86526071Y-89049285D01*
X86240357Y-88977857D01*
X86097500Y-88906428D01*
X86026071Y-88835000D01*
X85954642Y-88692142D01*
X85954642Y-88549285D01*
X86026071Y-88406428D01*
X86097500Y-88335000D01*
X86240357Y-88263571D01*
X86597500Y-88263571D01*
X86811785Y-88335000D01*
X87383214Y-89692142D02*
X87597500Y-89763571D01*
X87954642Y-89763571D01*
X88097500Y-89692142D01*
X88168928Y-89620714D01*
X88240357Y-89477857D01*
X88240357Y-89335000D01*
X88168928Y-89192142D01*
X88097500Y-89120714D01*
X87954642Y-89049285D01*
X87668928Y-88977857D01*
X87526071Y-88906428D01*
X87454642Y-88835000D01*
X87383214Y-88692142D01*
X87383214Y-88549285D01*
X87454642Y-88406428D01*
X87526071Y-88335000D01*
X87668928Y-88263571D01*
X88026071Y-88263571D01*
X88240357Y-88335000D01*
X80311785Y-92035714D02*
X80240357Y-92107142D01*
X80026071Y-92178571D01*
X79883214Y-92178571D01*
X79668928Y-92107142D01*
X79526071Y-91964285D01*
X79454642Y-91821428D01*
X79383214Y-91535714D01*
X79383214Y-91321428D01*
X79454642Y-91035714D01*
X79526071Y-90892857D01*
X79668928Y-90750000D01*
X79883214Y-90678571D01*
X80026071Y-90678571D01*
X80240357Y-90750000D01*
X80311785Y-90821428D01*
X81668928Y-92178571D02*
X80954642Y-92178571D01*
X80954642Y-90678571D01*
X82168928Y-92178571D02*
X82168928Y-90678571D01*
X83026071Y-92178571D02*
X82383214Y-91321428D01*
X83026071Y-90678571D02*
X82168928Y-91535714D01*
X79454642Y-94593571D02*
X79454642Y-93093571D01*
X79954642Y-94165000D01*
X80454642Y-93093571D01*
X80454642Y-94593571D01*
X81168928Y-94593571D02*
X81168928Y-93093571D01*
X81811785Y-94522142D02*
X82026071Y-94593571D01*
X82383214Y-94593571D01*
X82526071Y-94522142D01*
X82597500Y-94450714D01*
X82668928Y-94307857D01*
X82668928Y-94165000D01*
X82597500Y-94022142D01*
X82526071Y-93950714D01*
X82383214Y-93879285D01*
X82097500Y-93807857D01*
X81954642Y-93736428D01*
X81883214Y-93665000D01*
X81811785Y-93522142D01*
X81811785Y-93379285D01*
X81883214Y-93236428D01*
X81954642Y-93165000D01*
X82097500Y-93093571D01*
X82454642Y-93093571D01*
X82668928Y-93165000D01*
X83597500Y-93093571D02*
X83883214Y-93093571D01*
X84026071Y-93165000D01*
X84168928Y-93307857D01*
X84240357Y-93593571D01*
X84240357Y-94093571D01*
X84168928Y-94379285D01*
X84026071Y-94522142D01*
X83883214Y-94593571D01*
X83597500Y-94593571D01*
X83454642Y-94522142D01*
X83311785Y-94379285D01*
X83240357Y-94093571D01*
X83240357Y-93593571D01*
X83311785Y-93307857D01*
X83454642Y-93165000D01*
X83597500Y-93093571D01*
X79454642Y-97008571D02*
X79454642Y-95508571D01*
X79954642Y-96580000D01*
X80454642Y-95508571D01*
X80454642Y-97008571D01*
X81454642Y-95508571D02*
X81740357Y-95508571D01*
X81883214Y-95580000D01*
X82026071Y-95722857D01*
X82097500Y-96008571D01*
X82097500Y-96508571D01*
X82026071Y-96794285D01*
X81883214Y-96937142D01*
X81740357Y-97008571D01*
X81454642Y-97008571D01*
X81311785Y-96937142D01*
X81168928Y-96794285D01*
X81097500Y-96508571D01*
X81097500Y-96008571D01*
X81168928Y-95722857D01*
X81311785Y-95580000D01*
X81454642Y-95508571D01*
X82668928Y-96937142D02*
X82883214Y-97008571D01*
X83240357Y-97008571D01*
X83383214Y-96937142D01*
X83454642Y-96865714D01*
X83526071Y-96722857D01*
X83526071Y-96580000D01*
X83454642Y-96437142D01*
X83383214Y-96365714D01*
X83240357Y-96294285D01*
X82954642Y-96222857D01*
X82811785Y-96151428D01*
X82740357Y-96080000D01*
X82668928Y-95937142D01*
X82668928Y-95794285D01*
X82740357Y-95651428D01*
X82811785Y-95580000D01*
X82954642Y-95508571D01*
X83311785Y-95508571D01*
X83526071Y-95580000D01*
X84168928Y-97008571D02*
X84168928Y-95508571D01*
X83904761Y-60083333D02*
X83952380Y-59940476D01*
X83952380Y-59702380D01*
X83904761Y-59607142D01*
X83857142Y-59559523D01*
X83761904Y-59511904D01*
X83666666Y-59511904D01*
X83571428Y-59559523D01*
X83523809Y-59607142D01*
X83476190Y-59702380D01*
X83428571Y-59892857D01*
X83380952Y-59988095D01*
X83333333Y-60035714D01*
X83238095Y-60083333D01*
X83142857Y-60083333D01*
X83047619Y-60035714D01*
X83000000Y-59988095D01*
X82952380Y-59892857D01*
X82952380Y-59654761D01*
X83000000Y-59511904D01*
X82952380Y-59178571D02*
X83952380Y-58940476D01*
X83238095Y-58750000D01*
X83952380Y-58559523D01*
X82952380Y-58321428D01*
X83952380Y-57416666D02*
X83952380Y-57988095D01*
X83952380Y-57702380D02*
X82952380Y-57702380D01*
X83095238Y-57797619D01*
X83190476Y-57892857D01*
X83238095Y-57988095D01*
X59357142Y-63428571D02*
X59404761Y-63476190D01*
X59452380Y-63619047D01*
X59452380Y-63714285D01*
X59404761Y-63857142D01*
X59309523Y-63952380D01*
X59214285Y-64000000D01*
X59023809Y-64047619D01*
X58880952Y-64047619D01*
X58690476Y-64000000D01*
X58595238Y-63952380D01*
X58500000Y-63857142D01*
X58452380Y-63714285D01*
X58452380Y-63619047D01*
X58500000Y-63476190D01*
X58547619Y-63428571D01*
X59166666Y-63047619D02*
X59166666Y-62571428D01*
X59452380Y-63142857D02*
X58452380Y-62809523D01*
X59452380Y-62476190D01*
X59452380Y-62142857D02*
X58452380Y-62142857D01*
X59452380Y-61571428D01*
X58452380Y-61571428D01*
X58452380Y-59857142D02*
X58452380Y-60333333D01*
X58928571Y-60380952D01*
X58880952Y-60333333D01*
X58833333Y-60238095D01*
X58833333Y-60000000D01*
X58880952Y-59904761D01*
X58928571Y-59857142D01*
X59023809Y-59809523D01*
X59261904Y-59809523D01*
X59357142Y-59857142D01*
X59404761Y-59904761D01*
X59452380Y-60000000D01*
X59452380Y-60238095D01*
X59404761Y-60333333D01*
X59357142Y-60380952D01*
X58452380Y-59523809D02*
X59452380Y-59190476D01*
X58452380Y-58857142D01*
X70452380Y-85166666D02*
X69452380Y-85166666D01*
X70166666Y-84833333D01*
X69452380Y-84500000D01*
X70452380Y-84500000D01*
X69452380Y-83833333D02*
X69452380Y-83738095D01*
X69500000Y-83642857D01*
X69547619Y-83595238D01*
X69642857Y-83547619D01*
X69833333Y-83500000D01*
X70071428Y-83500000D01*
X70261904Y-83547619D01*
X70357142Y-83595238D01*
X70404761Y-83642857D01*
X70452380Y-83738095D01*
X70452380Y-83833333D01*
X70404761Y-83928571D01*
X70357142Y-83976190D01*
X70261904Y-84023809D01*
X70071428Y-84071428D01*
X69833333Y-84071428D01*
X69642857Y-84023809D01*
X69547619Y-83976190D01*
X69500000Y-83928571D01*
X69452380Y-83833333D01*
X69928571Y-82309523D02*
X69928571Y-81976190D01*
X70452380Y-81833333D02*
X70452380Y-82309523D01*
X69452380Y-82309523D01*
X69452380Y-81833333D01*
X70452380Y-81404761D02*
X69452380Y-81404761D01*
X70452380Y-80833333D01*
X69452380Y-80833333D01*
X70357142Y-79785714D02*
X70404761Y-79833333D01*
X70452380Y-79976190D01*
X70452380Y-80071428D01*
X70404761Y-80214285D01*
X70309523Y-80309523D01*
X70214285Y-80357142D01*
X70023809Y-80404761D01*
X69880952Y-80404761D01*
X69690476Y-80357142D01*
X69595238Y-80309523D01*
X69500000Y-80214285D01*
X69452380Y-80071428D01*
X69452380Y-79976190D01*
X69500000Y-79833333D01*
X69547619Y-79785714D01*
D12*
X37642857Y-88357142D02*
X35214285Y-88357142D01*
X34928571Y-88500000D01*
X34785714Y-88642857D01*
X34642857Y-88928571D01*
X34642857Y-89500000D01*
X34785714Y-89785714D01*
X34928571Y-89928571D01*
X35214285Y-90071428D01*
X37642857Y-90071428D01*
X37642857Y-93357142D02*
X34642857Y-94357142D01*
X37642857Y-95357142D01*
X37642857Y-98357142D02*
X34642857Y-99071428D01*
X36785714Y-99642857D01*
X34642857Y-100214285D01*
X37642857Y-100928571D01*
D10*
X54904761Y-73285714D02*
X54952380Y-73142857D01*
X54952380Y-72904761D01*
X54904761Y-72809523D01*
X54857142Y-72761904D01*
X54761904Y-72714285D01*
X54666666Y-72714285D01*
X54571428Y-72761904D01*
X54523809Y-72809523D01*
X54476190Y-72904761D01*
X54428571Y-73095238D01*
X54380952Y-73190476D01*
X54333333Y-73238095D01*
X54238095Y-73285714D01*
X54142857Y-73285714D01*
X54047619Y-73238095D01*
X54000000Y-73190476D01*
X53952380Y-73095238D01*
X53952380Y-72857142D01*
X54000000Y-72714285D01*
X53952380Y-72428571D02*
X53952380Y-71857142D01*
X54952380Y-72142857D02*
X53952380Y-72142857D01*
X54571428Y-71523809D02*
X54571428Y-70761904D01*
X54952380Y-69809523D02*
X54952380Y-70285714D01*
X53952380Y-70285714D01*
X54952380Y-69476190D02*
X54285714Y-69476190D01*
X53952380Y-69476190D02*
X54000000Y-69523809D01*
X54047619Y-69476190D01*
X54000000Y-69428571D01*
X53952380Y-69476190D01*
X54047619Y-69476190D01*
X54285714Y-69000000D02*
X54952380Y-69000000D01*
X54380952Y-69000000D02*
X54333333Y-68952380D01*
X54285714Y-68857142D01*
X54285714Y-68714285D01*
X54333333Y-68619047D01*
X54428571Y-68571428D01*
X54952380Y-68571428D01*
X54952380Y-68095238D02*
X53952380Y-68095238D01*
X54571428Y-68000000D02*
X54952380Y-67714285D01*
X54285714Y-67714285D02*
X54666666Y-68095238D01*
X54915357Y-88812773D02*
X54310595Y-88812773D01*
X54310595Y-87542773D01*
X55520119Y-88812773D02*
X55399166Y-88752297D01*
X55338690Y-88691821D01*
X55278214Y-88570869D01*
X55278214Y-88208011D01*
X55338690Y-88087059D01*
X55399166Y-88026583D01*
X55520119Y-87966107D01*
X55701547Y-87966107D01*
X55822500Y-88026583D01*
X55882976Y-88087059D01*
X55943452Y-88208011D01*
X55943452Y-88570869D01*
X55882976Y-88691821D01*
X55822500Y-88752297D01*
X55701547Y-88812773D01*
X55520119Y-88812773D01*
X56366785Y-87966107D02*
X56608690Y-88812773D01*
X56850595Y-88208011D01*
X57092500Y-88812773D01*
X57334404Y-87966107D01*
X59632500Y-87542773D02*
X59934880Y-88812773D01*
X60176785Y-87905630D01*
X60418690Y-88812773D01*
X60721071Y-87542773D01*
X59934880Y-89587473D02*
X60358214Y-90857473D01*
X60781547Y-89587473D01*
X59874404Y-91632173D02*
X59874404Y-92660269D01*
X59934880Y-92781221D01*
X59995357Y-92841697D01*
X60116309Y-92902173D01*
X60358214Y-92902173D01*
X60479166Y-92841697D01*
X60539642Y-92781221D01*
X60600119Y-92660269D01*
X60600119Y-91632173D01*
X54552500Y-94946873D02*
X54552500Y-93676873D01*
X54552500Y-94281635D02*
X55278214Y-94281635D01*
X55278214Y-94946873D02*
X55278214Y-93676873D01*
X55882976Y-94946873D02*
X55882976Y-94100207D01*
X55882976Y-93676873D02*
X55822500Y-93737350D01*
X55882976Y-93797826D01*
X55943452Y-93737350D01*
X55882976Y-93676873D01*
X55882976Y-93797826D01*
X57032023Y-94100207D02*
X57032023Y-95128302D01*
X56971547Y-95249254D01*
X56911071Y-95309730D01*
X56790119Y-95370207D01*
X56608690Y-95370207D01*
X56487738Y-95309730D01*
X57032023Y-94886397D02*
X56911071Y-94946873D01*
X56669166Y-94946873D01*
X56548214Y-94886397D01*
X56487738Y-94825921D01*
X56427261Y-94704969D01*
X56427261Y-94342111D01*
X56487738Y-94221159D01*
X56548214Y-94160683D01*
X56669166Y-94100207D01*
X56911071Y-94100207D01*
X57032023Y-94160683D01*
X57636785Y-94946873D02*
X57636785Y-93676873D01*
X58181071Y-94946873D02*
X58181071Y-94281635D01*
X58120595Y-94160683D01*
X57999642Y-94100207D01*
X57818214Y-94100207D01*
X57697261Y-94160683D01*
X57636785Y-94221159D01*
X59632500Y-93676873D02*
X59934880Y-94946873D01*
X60176785Y-94039730D01*
X60418690Y-94946873D01*
X60721071Y-93676873D01*
X59934880Y-95721573D02*
X60358214Y-96991573D01*
X60781547Y-95721573D01*
X59874404Y-97766273D02*
X59874404Y-98794369D01*
X59934880Y-98915321D01*
X59995357Y-98975797D01*
X60116309Y-99036273D01*
X60358214Y-99036273D01*
X60479166Y-98975797D01*
X60539642Y-98915321D01*
X60600119Y-98794369D01*
X60600119Y-97766273D01*
D11*
X23238095Y-55642857D02*
X24761904Y-55642857D01*
X24000000Y-56404761D02*
X24000000Y-54880952D01*
D10*
X113202380Y-88738095D02*
X113202380Y-88119047D01*
X113583333Y-88452380D01*
X113583333Y-88309523D01*
X113630952Y-88214285D01*
X113678571Y-88166666D01*
X113773809Y-88119047D01*
X114011904Y-88119047D01*
X114107142Y-88166666D01*
X114154761Y-88214285D01*
X114202380Y-88309523D01*
X114202380Y-88595238D01*
X114154761Y-88690476D01*
X114107142Y-88738095D01*
X113202380Y-87833333D02*
X114202380Y-87500000D01*
X113202380Y-87166666D01*
X113202380Y-86928571D02*
X113202380Y-86309523D01*
X113583333Y-86642857D01*
X113583333Y-86500000D01*
X113630952Y-86404761D01*
X113678571Y-86357142D01*
X113773809Y-86309523D01*
X114011904Y-86309523D01*
X114107142Y-86357142D01*
X114154761Y-86404761D01*
X114202380Y-86500000D01*
X114202380Y-86785714D01*
X114154761Y-86880952D01*
X114107142Y-86928571D01*
D11*
X32142857Y-48761904D02*
X32142857Y-47238095D01*
D10*
X65238095Y-43000000D02*
X65142857Y-42952380D01*
X65000000Y-42952380D01*
X64857142Y-43000000D01*
X64761904Y-43095238D01*
X64714285Y-43190476D01*
X64666666Y-43380952D01*
X64666666Y-43523809D01*
X64714285Y-43714285D01*
X64761904Y-43809523D01*
X64857142Y-43904761D01*
X65000000Y-43952380D01*
X65095238Y-43952380D01*
X65238095Y-43904761D01*
X65285714Y-43857142D01*
X65285714Y-43523809D01*
X65095238Y-43523809D01*
X65714285Y-43952380D02*
X65714285Y-42952380D01*
X66285714Y-43952380D01*
X66285714Y-42952380D01*
X66761904Y-43952380D02*
X66761904Y-42952380D01*
X67000000Y-42952380D01*
X67142857Y-43000000D01*
X67238095Y-43095238D01*
X67285714Y-43190476D01*
X67333333Y-43380952D01*
X67333333Y-43523809D01*
X67285714Y-43714285D01*
X67238095Y-43809523D01*
X67142857Y-43904761D01*
X67000000Y-43952380D01*
X66761904Y-43952380D01*
X83904761Y-53083333D02*
X83952380Y-52940476D01*
X83952380Y-52702380D01*
X83904761Y-52607142D01*
X83857142Y-52559523D01*
X83761904Y-52511904D01*
X83666666Y-52511904D01*
X83571428Y-52559523D01*
X83523809Y-52607142D01*
X83476190Y-52702380D01*
X83428571Y-52892857D01*
X83380952Y-52988095D01*
X83333333Y-53035714D01*
X83238095Y-53083333D01*
X83142857Y-53083333D01*
X83047619Y-53035714D01*
X83000000Y-52988095D01*
X82952380Y-52892857D01*
X82952380Y-52654761D01*
X83000000Y-52511904D01*
X82952380Y-52178571D02*
X83952380Y-51940476D01*
X83238095Y-51750000D01*
X83952380Y-51559523D01*
X82952380Y-51321428D01*
X82952380Y-51035714D02*
X82952380Y-50416666D01*
X83333333Y-50750000D01*
X83333333Y-50607142D01*
X83380952Y-50511904D01*
X83428571Y-50464285D01*
X83523809Y-50416666D01*
X83761904Y-50416666D01*
X83857142Y-50464285D01*
X83904761Y-50511904D01*
X83952380Y-50607142D01*
X83952380Y-50892857D01*
X83904761Y-50988095D01*
X83857142Y-51035714D01*
X83952380Y-68207619D02*
X83476190Y-68540952D01*
X83952380Y-68779047D02*
X82952380Y-68779047D01*
X82952380Y-68398095D01*
X83000000Y-68302857D01*
X83047619Y-68255238D01*
X83142857Y-68207619D01*
X83285714Y-68207619D01*
X83380952Y-68255238D01*
X83428571Y-68302857D01*
X83476190Y-68398095D01*
X83476190Y-68779047D01*
X83904761Y-67826666D02*
X83952380Y-67683809D01*
X83952380Y-67445714D01*
X83904761Y-67350476D01*
X83857142Y-67302857D01*
X83761904Y-67255238D01*
X83666666Y-67255238D01*
X83571428Y-67302857D01*
X83523809Y-67350476D01*
X83476190Y-67445714D01*
X83428571Y-67636190D01*
X83380952Y-67731428D01*
X83333333Y-67779047D01*
X83238095Y-67826666D01*
X83142857Y-67826666D01*
X83047619Y-67779047D01*
X83000000Y-67731428D01*
X82952380Y-67636190D01*
X82952380Y-67398095D01*
X83000000Y-67255238D01*
X82952380Y-66969523D02*
X82952380Y-66398095D01*
X83952380Y-66683809D02*
X82952380Y-66683809D01*
X45285714Y-52345238D02*
X45285714Y-51964285D01*
X44952380Y-52202380D02*
X45809523Y-52202380D01*
X45904761Y-52154761D01*
X45952380Y-52059523D01*
X45952380Y-51964285D01*
X45904761Y-51250000D02*
X45952380Y-51345238D01*
X45952380Y-51535714D01*
X45904761Y-51630952D01*
X45809523Y-51678571D01*
X45428571Y-51678571D01*
X45333333Y-51630952D01*
X45285714Y-51535714D01*
X45285714Y-51345238D01*
X45333333Y-51250000D01*
X45428571Y-51202380D01*
X45523809Y-51202380D01*
X45619047Y-51678571D01*
X45952380Y-50773809D02*
X45285714Y-50773809D01*
X45476190Y-50773809D02*
X45380952Y-50726190D01*
X45333333Y-50678571D01*
X45285714Y-50583333D01*
X45285714Y-50488095D01*
X45952380Y-50154761D02*
X45285714Y-50154761D01*
X45380952Y-50154761D02*
X45333333Y-50107142D01*
X45285714Y-50011904D01*
X45285714Y-49869047D01*
X45333333Y-49773809D01*
X45428571Y-49726190D01*
X45952380Y-49726190D01*
X45428571Y-49726190D02*
X45333333Y-49678571D01*
X45285714Y-49583333D01*
X45285714Y-49440476D01*
X45333333Y-49345238D01*
X45428571Y-49297619D01*
X45952380Y-49297619D01*
X55585357Y-31162773D02*
X54980595Y-31162773D01*
X54980595Y-29892773D01*
X56190119Y-31162773D02*
X56069166Y-31102297D01*
X56008690Y-31041821D01*
X55948214Y-30920869D01*
X55948214Y-30558011D01*
X56008690Y-30437059D01*
X56069166Y-30376583D01*
X56190119Y-30316107D01*
X56371547Y-30316107D01*
X56492500Y-30376583D01*
X56552976Y-30437059D01*
X56613452Y-30558011D01*
X56613452Y-30920869D01*
X56552976Y-31041821D01*
X56492500Y-31102297D01*
X56371547Y-31162773D01*
X56190119Y-31162773D01*
X57036785Y-30316107D02*
X57278690Y-31162773D01*
X57520595Y-30558011D01*
X57762500Y-31162773D01*
X58004404Y-30316107D01*
X60302500Y-29892773D02*
X60604880Y-31162773D01*
X60846785Y-30255630D01*
X61088690Y-31162773D01*
X61391071Y-29892773D01*
X60604880Y-31937473D02*
X61028214Y-33207473D01*
X61451547Y-31937473D01*
X60544404Y-33982173D02*
X60544404Y-35010269D01*
X60604880Y-35131221D01*
X60665357Y-35191697D01*
X60786309Y-35252173D01*
X61028214Y-35252173D01*
X61149166Y-35191697D01*
X61209642Y-35131221D01*
X61270119Y-35010269D01*
X61270119Y-33982173D01*
X55222500Y-37296873D02*
X55222500Y-36026873D01*
X55222500Y-36631635D02*
X55948214Y-36631635D01*
X55948214Y-37296873D02*
X55948214Y-36026873D01*
X56552976Y-37296873D02*
X56552976Y-36450207D01*
X56552976Y-36026873D02*
X56492500Y-36087350D01*
X56552976Y-36147826D01*
X56613452Y-36087350D01*
X56552976Y-36026873D01*
X56552976Y-36147826D01*
X57702023Y-36450207D02*
X57702023Y-37478302D01*
X57641547Y-37599254D01*
X57581071Y-37659730D01*
X57460119Y-37720207D01*
X57278690Y-37720207D01*
X57157738Y-37659730D01*
X57702023Y-37236397D02*
X57581071Y-37296873D01*
X57339166Y-37296873D01*
X57218214Y-37236397D01*
X57157738Y-37175921D01*
X57097261Y-37054969D01*
X57097261Y-36692111D01*
X57157738Y-36571159D01*
X57218214Y-36510683D01*
X57339166Y-36450207D01*
X57581071Y-36450207D01*
X57702023Y-36510683D01*
X58306785Y-37296873D02*
X58306785Y-36026873D01*
X58851071Y-37296873D02*
X58851071Y-36631635D01*
X58790595Y-36510683D01*
X58669642Y-36450207D01*
X58488214Y-36450207D01*
X58367261Y-36510683D01*
X58306785Y-36571159D01*
X60302500Y-36026873D02*
X60604880Y-37296873D01*
X60846785Y-36389730D01*
X61088690Y-37296873D01*
X61391071Y-36026873D01*
X60604880Y-38071573D02*
X61028214Y-39341573D01*
X61451547Y-38071573D01*
X60544404Y-40116273D02*
X60544404Y-41144369D01*
X60604880Y-41265321D01*
X60665357Y-41325797D01*
X60786309Y-41386273D01*
X61028214Y-41386273D01*
X61149166Y-41325797D01*
X61209642Y-41265321D01*
X61270119Y-41144369D01*
X61270119Y-40116273D01*
X93357142Y-90202380D02*
X93357142Y-89202380D01*
X93738095Y-89202380D01*
X93833333Y-89250000D01*
X93880952Y-89297619D01*
X93928571Y-89392857D01*
X93928571Y-89535714D01*
X93880952Y-89630952D01*
X93833333Y-89678571D01*
X93738095Y-89726190D01*
X93357142Y-89726190D01*
X94547619Y-89202380D02*
X94738095Y-89202380D01*
X94833333Y-89250000D01*
X94928571Y-89345238D01*
X94976190Y-89535714D01*
X94976190Y-89869047D01*
X94928571Y-90059523D01*
X94833333Y-90154761D01*
X94738095Y-90202380D01*
X94547619Y-90202380D01*
X94452380Y-90154761D01*
X94357142Y-90059523D01*
X94309523Y-89869047D01*
X94309523Y-89535714D01*
X94357142Y-89345238D01*
X94452380Y-89250000D01*
X94547619Y-89202380D01*
X95261904Y-89202380D02*
X95833333Y-89202380D01*
X95547619Y-90202380D02*
X95547619Y-89202380D01*
X96690476Y-90202380D02*
X96119047Y-90202380D01*
X96404761Y-90202380D02*
X96404761Y-89202380D01*
X96309523Y-89345238D01*
X96214285Y-89440476D01*
X96119047Y-89488095D01*
D12*
X16642857Y-80571428D02*
X19642857Y-80571428D01*
X17500000Y-81571428D01*
X19642857Y-82571428D01*
X16642857Y-82571428D01*
X16642857Y-85571428D02*
X16642857Y-83857142D01*
X16642857Y-84714285D02*
X19642857Y-84714285D01*
X19214285Y-84428571D01*
X18928571Y-84142857D01*
X18785714Y-83857142D01*
D10*
X113500000Y-29761904D02*
X113452380Y-29857142D01*
X113452380Y-30000000D01*
X113500000Y-30142857D01*
X113595238Y-30238095D01*
X113690476Y-30285714D01*
X113880952Y-30333333D01*
X114023809Y-30333333D01*
X114214285Y-30285714D01*
X114309523Y-30238095D01*
X114404761Y-30142857D01*
X114452380Y-30000000D01*
X114452380Y-29904761D01*
X114404761Y-29761904D01*
X114357142Y-29714285D01*
X114023809Y-29714285D01*
X114023809Y-29904761D01*
X114452380Y-29285714D02*
X113452380Y-29285714D01*
X114452380Y-28714285D01*
X113452380Y-28714285D01*
X114452380Y-28238095D02*
X113452380Y-28238095D01*
X113452380Y-28000000D01*
X113500000Y-27857142D01*
X113595238Y-27761904D01*
X113690476Y-27714285D01*
X113880952Y-27666666D01*
X114023809Y-27666666D01*
X114214285Y-27714285D01*
X114309523Y-27761904D01*
X114404761Y-27857142D01*
X114452380Y-28000000D01*
X114452380Y-28238095D01*
X70452380Y-95666666D02*
X69452380Y-95666666D01*
X70166666Y-95333333D01*
X69452380Y-95000000D01*
X70452380Y-95000000D01*
X70452380Y-94000000D02*
X70452380Y-94571428D01*
X70452380Y-94285714D02*
X69452380Y-94285714D01*
X69595238Y-94380952D01*
X69690476Y-94476190D01*
X69738095Y-94571428D01*
X69928571Y-92809523D02*
X69928571Y-92476190D01*
X70452380Y-92333333D02*
X70452380Y-92809523D01*
X69452380Y-92809523D01*
X69452380Y-92333333D01*
X70452380Y-91904761D02*
X69452380Y-91904761D01*
X70452380Y-91333333D01*
X69452380Y-91333333D01*
X70357142Y-90285714D02*
X70404761Y-90333333D01*
X70452380Y-90476190D01*
X70452380Y-90571428D01*
X70404761Y-90714285D01*
X70309523Y-90809523D01*
X70214285Y-90857142D01*
X70023809Y-90904761D01*
X69880952Y-90904761D01*
X69690476Y-90857142D01*
X69595238Y-90809523D01*
X69500000Y-90714285D01*
X69452380Y-90571428D01*
X69452380Y-90476190D01*
X69500000Y-90333333D01*
X69547619Y-90285714D01*
D12*
X81205714Y-70809142D02*
X81262857Y-70752000D01*
X81377142Y-70694857D01*
X81662857Y-70694857D01*
X81777142Y-70752000D01*
X81834285Y-70809142D01*
X81891428Y-70923428D01*
X81891428Y-71037714D01*
X81834285Y-71209142D01*
X81148571Y-71894857D01*
X81891428Y-71894857D01*
X81891428Y-73826857D02*
X81205714Y-73826857D01*
X81548571Y-73826857D02*
X81548571Y-72626857D01*
X81434285Y-72798285D01*
X81320000Y-72912571D01*
X81205714Y-72969714D01*
X81491428Y-74558857D02*
X81605714Y-74558857D01*
X81720000Y-74616000D01*
X81777142Y-74673142D01*
X81834285Y-74787428D01*
X81891428Y-75016000D01*
X81891428Y-75301714D01*
X81834285Y-75530285D01*
X81777142Y-75644571D01*
X81720000Y-75701714D01*
X81605714Y-75758857D01*
X81491428Y-75758857D01*
X81377142Y-75701714D01*
X81320000Y-75644571D01*
X81262857Y-75530285D01*
X81205714Y-75301714D01*
X81205714Y-75016000D01*
X81262857Y-74787428D01*
X81320000Y-74673142D01*
X81377142Y-74616000D01*
X81491428Y-74558857D01*
X78977142Y-76490857D02*
X79720000Y-76490857D01*
X79320000Y-76948000D01*
X79491428Y-76948000D01*
X79605714Y-77005142D01*
X79662857Y-77062285D01*
X79720000Y-77176571D01*
X79720000Y-77462285D01*
X79662857Y-77576571D01*
X79605714Y-77633714D01*
X79491428Y-77690857D01*
X79148571Y-77690857D01*
X79034285Y-77633714D01*
X78977142Y-77576571D01*
X80062857Y-76490857D02*
X80462857Y-77690857D01*
X80862857Y-76490857D01*
X81148571Y-76490857D02*
X81891428Y-76490857D01*
X81491428Y-76948000D01*
X81662857Y-76948000D01*
X81777142Y-77005142D01*
X81834285Y-77062285D01*
X81891428Y-77176571D01*
X81891428Y-77462285D01*
X81834285Y-77576571D01*
X81777142Y-77633714D01*
X81662857Y-77690857D01*
X81320000Y-77690857D01*
X81205714Y-77633714D01*
X81148571Y-77576571D01*
D10*
X106357142Y-90202380D02*
X106357142Y-89202380D01*
X106738095Y-89202380D01*
X106833333Y-89250000D01*
X106880952Y-89297619D01*
X106928571Y-89392857D01*
X106928571Y-89535714D01*
X106880952Y-89630952D01*
X106833333Y-89678571D01*
X106738095Y-89726190D01*
X106357142Y-89726190D01*
X107547619Y-89202380D02*
X107738095Y-89202380D01*
X107833333Y-89250000D01*
X107928571Y-89345238D01*
X107976190Y-89535714D01*
X107976190Y-89869047D01*
X107928571Y-90059523D01*
X107833333Y-90154761D01*
X107738095Y-90202380D01*
X107547619Y-90202380D01*
X107452380Y-90154761D01*
X107357142Y-90059523D01*
X107309523Y-89869047D01*
X107309523Y-89535714D01*
X107357142Y-89345238D01*
X107452380Y-89250000D01*
X107547619Y-89202380D01*
X108261904Y-89202380D02*
X108833333Y-89202380D01*
X108547619Y-90202380D02*
X108547619Y-89202380D01*
X109357142Y-89202380D02*
X109452380Y-89202380D01*
X109547619Y-89250000D01*
X109595238Y-89297619D01*
X109642857Y-89392857D01*
X109690476Y-89583333D01*
X109690476Y-89821428D01*
X109642857Y-90011904D01*
X109595238Y-90107142D01*
X109547619Y-90154761D01*
X109452380Y-90202380D01*
X109357142Y-90202380D01*
X109261904Y-90154761D01*
X109214285Y-90107142D01*
X109166666Y-90011904D01*
X109119047Y-89821428D01*
X109119047Y-89583333D01*
X109166666Y-89392857D01*
X109214285Y-89297619D01*
X109261904Y-89250000D01*
X109357142Y-89202380D01*
D12*
X16642857Y-42571428D02*
X19642857Y-42571428D01*
X17500000Y-43571428D01*
X19642857Y-44571428D01*
X16642857Y-44571428D01*
X19642857Y-46571428D02*
X19642857Y-46857142D01*
X19500000Y-47142857D01*
X19357142Y-47285714D01*
X19071428Y-47428571D01*
X18500000Y-47571428D01*
X17785714Y-47571428D01*
X17214285Y-47428571D01*
X16928571Y-47285714D01*
X16785714Y-47142857D01*
X16642857Y-46857142D01*
X16642857Y-46571428D01*
X16785714Y-46285714D01*
X16928571Y-46142857D01*
X17214285Y-46000000D01*
X17785714Y-45857142D01*
X18500000Y-45857142D01*
X19071428Y-46000000D01*
X19357142Y-46142857D01*
X19500000Y-46285714D01*
X19642857Y-46571428D01*
D10*
%TO.C,C7*%
X61357142Y-69666666D02*
X61404761Y-69714285D01*
X61452380Y-69857142D01*
X61452380Y-69952380D01*
X61404761Y-70095238D01*
X61309523Y-70190476D01*
X61214285Y-70238095D01*
X61023809Y-70285714D01*
X60880952Y-70285714D01*
X60690476Y-70238095D01*
X60595238Y-70190476D01*
X60500000Y-70095238D01*
X60452380Y-69952380D01*
X60452380Y-69857142D01*
X60500000Y-69714285D01*
X60547619Y-69666666D01*
X60452380Y-69333333D02*
X60452380Y-68666666D01*
X61452380Y-69095238D01*
%TO.C,FB1*%
X79608571Y-60833333D02*
X79608571Y-61166666D01*
X80132380Y-61166666D02*
X79132380Y-61166666D01*
X79132380Y-60690476D01*
X79608571Y-59976190D02*
X79656190Y-59833333D01*
X79703809Y-59785714D01*
X79799047Y-59738095D01*
X79941904Y-59738095D01*
X80037142Y-59785714D01*
X80084761Y-59833333D01*
X80132380Y-59928571D01*
X80132380Y-60309523D01*
X79132380Y-60309523D01*
X79132380Y-59976190D01*
X79180000Y-59880952D01*
X79227619Y-59833333D01*
X79322857Y-59785714D01*
X79418095Y-59785714D01*
X79513333Y-59833333D01*
X79560952Y-59880952D01*
X79608571Y-59976190D01*
X79608571Y-60309523D01*
X80132380Y-58785714D02*
X80132380Y-59357142D01*
X80132380Y-59071428D02*
X79132380Y-59071428D01*
X79275238Y-59166666D01*
X79370476Y-59261904D01*
X79418095Y-59357142D01*
%TO.C,J2*%
X52166666Y-56452380D02*
X52166666Y-57166666D01*
X52119047Y-57309523D01*
X52023809Y-57404761D01*
X51880952Y-57452380D01*
X51785714Y-57452380D01*
X52595238Y-56547619D02*
X52642857Y-56500000D01*
X52738095Y-56452380D01*
X52976190Y-56452380D01*
X53071428Y-56500000D01*
X53119047Y-56547619D01*
X53166666Y-56642857D01*
X53166666Y-56738095D01*
X53119047Y-56880952D01*
X52547619Y-57452380D01*
X53166666Y-57452380D01*
%TO.C,R5*%
X87583333Y-65452380D02*
X87250000Y-64976190D01*
X87011904Y-65452380D02*
X87011904Y-64452380D01*
X87392857Y-64452380D01*
X87488095Y-64500000D01*
X87535714Y-64547619D01*
X87583333Y-64642857D01*
X87583333Y-64785714D01*
X87535714Y-64880952D01*
X87488095Y-64928571D01*
X87392857Y-64976190D01*
X87011904Y-64976190D01*
X88488095Y-64452380D02*
X88011904Y-64452380D01*
X87964285Y-64928571D01*
X88011904Y-64880952D01*
X88107142Y-64833333D01*
X88345238Y-64833333D01*
X88440476Y-64880952D01*
X88488095Y-64928571D01*
X88535714Y-65023809D01*
X88535714Y-65261904D01*
X88488095Y-65357142D01*
X88440476Y-65404761D01*
X88345238Y-65452380D01*
X88107142Y-65452380D01*
X88011904Y-65404761D01*
X87964285Y-65357142D01*
%TO.C,R10*%
X30357142Y-70952380D02*
X30023809Y-70476190D01*
X29785714Y-70952380D02*
X29785714Y-69952380D01*
X30166666Y-69952380D01*
X30261904Y-70000000D01*
X30309523Y-70047619D01*
X30357142Y-70142857D01*
X30357142Y-70285714D01*
X30309523Y-70380952D01*
X30261904Y-70428571D01*
X30166666Y-70476190D01*
X29785714Y-70476190D01*
X31309523Y-70952380D02*
X30738095Y-70952380D01*
X31023809Y-70952380D02*
X31023809Y-69952380D01*
X30928571Y-70095238D01*
X30833333Y-70190476D01*
X30738095Y-70238095D01*
X31928571Y-69952380D02*
X32023809Y-69952380D01*
X32119047Y-70000000D01*
X32166666Y-70047619D01*
X32214285Y-70142857D01*
X32261904Y-70333333D01*
X32261904Y-70571428D01*
X32214285Y-70761904D01*
X32166666Y-70857142D01*
X32119047Y-70904761D01*
X32023809Y-70952380D01*
X31928571Y-70952380D01*
X31833333Y-70904761D01*
X31785714Y-70857142D01*
X31738095Y-70761904D01*
X31690476Y-70571428D01*
X31690476Y-70333333D01*
X31738095Y-70142857D01*
X31785714Y-70047619D01*
X31833333Y-70000000D01*
X31928571Y-69952380D01*
%TO.C,C22*%
X39357142Y-32142857D02*
X39404761Y-32190476D01*
X39452380Y-32333333D01*
X39452380Y-32428571D01*
X39404761Y-32571428D01*
X39309523Y-32666666D01*
X39214285Y-32714285D01*
X39023809Y-32761904D01*
X38880952Y-32761904D01*
X38690476Y-32714285D01*
X38595238Y-32666666D01*
X38500000Y-32571428D01*
X38452380Y-32428571D01*
X38452380Y-32333333D01*
X38500000Y-32190476D01*
X38547619Y-32142857D01*
X38547619Y-31761904D02*
X38500000Y-31714285D01*
X38452380Y-31619047D01*
X38452380Y-31380952D01*
X38500000Y-31285714D01*
X38547619Y-31238095D01*
X38642857Y-31190476D01*
X38738095Y-31190476D01*
X38880952Y-31238095D01*
X39452380Y-31809523D01*
X39452380Y-31190476D01*
X38547619Y-30809523D02*
X38500000Y-30761904D01*
X38452380Y-30666666D01*
X38452380Y-30428571D01*
X38500000Y-30333333D01*
X38547619Y-30285714D01*
X38642857Y-30238095D01*
X38738095Y-30238095D01*
X38880952Y-30285714D01*
X39452380Y-30857142D01*
X39452380Y-30238095D01*
%TO.C,J6*%
X70852380Y-37328333D02*
X71566666Y-37328333D01*
X71709523Y-37375952D01*
X71804761Y-37471190D01*
X71852380Y-37614047D01*
X71852380Y-37709285D01*
X70852380Y-36423571D02*
X70852380Y-36614047D01*
X70900000Y-36709285D01*
X70947619Y-36756904D01*
X71090476Y-36852142D01*
X71280952Y-36899761D01*
X71661904Y-36899761D01*
X71757142Y-36852142D01*
X71804761Y-36804523D01*
X71852380Y-36709285D01*
X71852380Y-36518809D01*
X71804761Y-36423571D01*
X71757142Y-36375952D01*
X71661904Y-36328333D01*
X71423809Y-36328333D01*
X71328571Y-36375952D01*
X71280952Y-36423571D01*
X71233333Y-36518809D01*
X71233333Y-36709285D01*
X71280952Y-36804523D01*
X71328571Y-36852142D01*
X71423809Y-36899761D01*
%TO.C,R2*%
X91333333Y-73702380D02*
X91000000Y-73226190D01*
X90761904Y-73702380D02*
X90761904Y-72702380D01*
X91142857Y-72702380D01*
X91238095Y-72750000D01*
X91285714Y-72797619D01*
X91333333Y-72892857D01*
X91333333Y-73035714D01*
X91285714Y-73130952D01*
X91238095Y-73178571D01*
X91142857Y-73226190D01*
X90761904Y-73226190D01*
X91714285Y-72797619D02*
X91761904Y-72750000D01*
X91857142Y-72702380D01*
X92095238Y-72702380D01*
X92190476Y-72750000D01*
X92238095Y-72797619D01*
X92285714Y-72892857D01*
X92285714Y-72988095D01*
X92238095Y-73130952D01*
X91666666Y-73702380D01*
X92285714Y-73702380D01*
%TO.C,R13*%
X33107142Y-58452380D02*
X32773809Y-57976190D01*
X32535714Y-58452380D02*
X32535714Y-57452380D01*
X32916666Y-57452380D01*
X33011904Y-57500000D01*
X33059523Y-57547619D01*
X33107142Y-57642857D01*
X33107142Y-57785714D01*
X33059523Y-57880952D01*
X33011904Y-57928571D01*
X32916666Y-57976190D01*
X32535714Y-57976190D01*
X34059523Y-58452380D02*
X33488095Y-58452380D01*
X33773809Y-58452380D02*
X33773809Y-57452380D01*
X33678571Y-57595238D01*
X33583333Y-57690476D01*
X33488095Y-57738095D01*
X34392857Y-57452380D02*
X35011904Y-57452380D01*
X34678571Y-57833333D01*
X34821428Y-57833333D01*
X34916666Y-57880952D01*
X34964285Y-57928571D01*
X35011904Y-58023809D01*
X35011904Y-58261904D01*
X34964285Y-58357142D01*
X34916666Y-58404761D01*
X34821428Y-58452380D01*
X34535714Y-58452380D01*
X34440476Y-58404761D01*
X34392857Y-58357142D01*
%TO.C,D2*%
X83062105Y-75092380D02*
X83062105Y-74092380D01*
X83300201Y-74092380D01*
X83443058Y-74140000D01*
X83538296Y-74235238D01*
X83585915Y-74330476D01*
X83633534Y-74520952D01*
X83633534Y-74663809D01*
X83585915Y-74854285D01*
X83538296Y-74949523D01*
X83443058Y-75044761D01*
X83300201Y-75092380D01*
X83062105Y-75092380D01*
X84014486Y-74187619D02*
X84062105Y-74140000D01*
X84157343Y-74092380D01*
X84395439Y-74092380D01*
X84490677Y-74140000D01*
X84538296Y-74187619D01*
X84585915Y-74282857D01*
X84585915Y-74378095D01*
X84538296Y-74520952D01*
X83966867Y-75092380D01*
X84585915Y-75092380D01*
%TO.C,C21*%
X43357142Y-41107142D02*
X43309523Y-41154761D01*
X43166666Y-41202380D01*
X43071428Y-41202380D01*
X42928571Y-41154761D01*
X42833333Y-41059523D01*
X42785714Y-40964285D01*
X42738095Y-40773809D01*
X42738095Y-40630952D01*
X42785714Y-40440476D01*
X42833333Y-40345238D01*
X42928571Y-40250000D01*
X43071428Y-40202380D01*
X43166666Y-40202380D01*
X43309523Y-40250000D01*
X43357142Y-40297619D01*
X43738095Y-40297619D02*
X43785714Y-40250000D01*
X43880952Y-40202380D01*
X44119047Y-40202380D01*
X44214285Y-40250000D01*
X44261904Y-40297619D01*
X44309523Y-40392857D01*
X44309523Y-40488095D01*
X44261904Y-40630952D01*
X43690476Y-41202380D01*
X44309523Y-41202380D01*
X45261904Y-41202380D02*
X44690476Y-41202380D01*
X44976190Y-41202380D02*
X44976190Y-40202380D01*
X44880952Y-40345238D01*
X44785714Y-40440476D01*
X44690476Y-40488095D01*
%TO.C,SW4*%
X91654761Y-56583333D02*
X91702380Y-56440476D01*
X91702380Y-56202380D01*
X91654761Y-56107142D01*
X91607142Y-56059523D01*
X91511904Y-56011904D01*
X91416666Y-56011904D01*
X91321428Y-56059523D01*
X91273809Y-56107142D01*
X91226190Y-56202380D01*
X91178571Y-56392857D01*
X91130952Y-56488095D01*
X91083333Y-56535714D01*
X90988095Y-56583333D01*
X90892857Y-56583333D01*
X90797619Y-56535714D01*
X90750000Y-56488095D01*
X90702380Y-56392857D01*
X90702380Y-56154761D01*
X90750000Y-56011904D01*
X90702380Y-55678571D02*
X91702380Y-55440476D01*
X90988095Y-55250000D01*
X91702380Y-55059523D01*
X90702380Y-54821428D01*
X91035714Y-54011904D02*
X91702380Y-54011904D01*
X90654761Y-54250000D02*
X91369047Y-54488095D01*
X91369047Y-53869047D01*
%TO.C,RV1*%
X104702380Y-86845238D02*
X104226190Y-87178571D01*
X104702380Y-87416666D02*
X103702380Y-87416666D01*
X103702380Y-87035714D01*
X103750000Y-86940476D01*
X103797619Y-86892857D01*
X103892857Y-86845238D01*
X104035714Y-86845238D01*
X104130952Y-86892857D01*
X104178571Y-86940476D01*
X104226190Y-87035714D01*
X104226190Y-87416666D01*
X103702380Y-86559523D02*
X104702380Y-86226190D01*
X103702380Y-85892857D01*
X104702380Y-85035714D02*
X104702380Y-85607142D01*
X104702380Y-85321428D02*
X103702380Y-85321428D01*
X103845238Y-85416666D01*
X103940476Y-85511904D01*
X103988095Y-85607142D01*
%TO.C,J10*%
X76690476Y-83547380D02*
X76690476Y-84261666D01*
X76642857Y-84404523D01*
X76547619Y-84499761D01*
X76404761Y-84547380D01*
X76309523Y-84547380D01*
X77690476Y-84547380D02*
X77119047Y-84547380D01*
X77404761Y-84547380D02*
X77404761Y-83547380D01*
X77309523Y-83690238D01*
X77214285Y-83785476D01*
X77119047Y-83833095D01*
X78309523Y-83547380D02*
X78404761Y-83547380D01*
X78500000Y-83595000D01*
X78547619Y-83642619D01*
X78595238Y-83737857D01*
X78642857Y-83928333D01*
X78642857Y-84166428D01*
X78595238Y-84356904D01*
X78547619Y-84452142D01*
X78500000Y-84499761D01*
X78404761Y-84547380D01*
X78309523Y-84547380D01*
X78214285Y-84499761D01*
X78166666Y-84452142D01*
X78119047Y-84356904D01*
X78071428Y-84166428D01*
X78071428Y-83928333D01*
X78119047Y-83737857D01*
X78166666Y-83642619D01*
X78214285Y-83595000D01*
X78309523Y-83547380D01*
%TO.C,R25*%
X29607142Y-55452380D02*
X29273809Y-54976190D01*
X29035714Y-55452380D02*
X29035714Y-54452380D01*
X29416666Y-54452380D01*
X29511904Y-54500000D01*
X29559523Y-54547619D01*
X29607142Y-54642857D01*
X29607142Y-54785714D01*
X29559523Y-54880952D01*
X29511904Y-54928571D01*
X29416666Y-54976190D01*
X29035714Y-54976190D01*
X29988095Y-54547619D02*
X30035714Y-54500000D01*
X30130952Y-54452380D01*
X30369047Y-54452380D01*
X30464285Y-54500000D01*
X30511904Y-54547619D01*
X30559523Y-54642857D01*
X30559523Y-54738095D01*
X30511904Y-54880952D01*
X29940476Y-55452380D01*
X30559523Y-55452380D01*
X31464285Y-54452380D02*
X30988095Y-54452380D01*
X30940476Y-54928571D01*
X30988095Y-54880952D01*
X31083333Y-54833333D01*
X31321428Y-54833333D01*
X31416666Y-54880952D01*
X31464285Y-54928571D01*
X31511904Y-55023809D01*
X31511904Y-55261904D01*
X31464285Y-55357142D01*
X31416666Y-55404761D01*
X31321428Y-55452380D01*
X31083333Y-55452380D01*
X30988095Y-55404761D01*
X30940476Y-55357142D01*
%TO.C,C16*%
X34607142Y-72357142D02*
X34559523Y-72404761D01*
X34416666Y-72452380D01*
X34321428Y-72452380D01*
X34178571Y-72404761D01*
X34083333Y-72309523D01*
X34035714Y-72214285D01*
X33988095Y-72023809D01*
X33988095Y-71880952D01*
X34035714Y-71690476D01*
X34083333Y-71595238D01*
X34178571Y-71500000D01*
X34321428Y-71452380D01*
X34416666Y-71452380D01*
X34559523Y-71500000D01*
X34607142Y-71547619D01*
X35559523Y-72452380D02*
X34988095Y-72452380D01*
X35273809Y-72452380D02*
X35273809Y-71452380D01*
X35178571Y-71595238D01*
X35083333Y-71690476D01*
X34988095Y-71738095D01*
X36416666Y-71452380D02*
X36226190Y-71452380D01*
X36130952Y-71500000D01*
X36083333Y-71547619D01*
X35988095Y-71690476D01*
X35940476Y-71880952D01*
X35940476Y-72261904D01*
X35988095Y-72357142D01*
X36035714Y-72404761D01*
X36130952Y-72452380D01*
X36321428Y-72452380D01*
X36416666Y-72404761D01*
X36464285Y-72357142D01*
X36511904Y-72261904D01*
X36511904Y-72023809D01*
X36464285Y-71928571D01*
X36416666Y-71880952D01*
X36321428Y-71833333D01*
X36130952Y-71833333D01*
X36035714Y-71880952D01*
X35988095Y-71928571D01*
X35940476Y-72023809D01*
%TO.C,C15*%
X41607142Y-76142857D02*
X41654761Y-76190476D01*
X41702380Y-76333333D01*
X41702380Y-76428571D01*
X41654761Y-76571428D01*
X41559523Y-76666666D01*
X41464285Y-76714285D01*
X41273809Y-76761904D01*
X41130952Y-76761904D01*
X40940476Y-76714285D01*
X40845238Y-76666666D01*
X40750000Y-76571428D01*
X40702380Y-76428571D01*
X40702380Y-76333333D01*
X40750000Y-76190476D01*
X40797619Y-76142857D01*
X41702380Y-75190476D02*
X41702380Y-75761904D01*
X41702380Y-75476190D02*
X40702380Y-75476190D01*
X40845238Y-75571428D01*
X40940476Y-75666666D01*
X40988095Y-75761904D01*
X40702380Y-74285714D02*
X40702380Y-74761904D01*
X41178571Y-74809523D01*
X41130952Y-74761904D01*
X41083333Y-74666666D01*
X41083333Y-74428571D01*
X41130952Y-74333333D01*
X41178571Y-74285714D01*
X41273809Y-74238095D01*
X41511904Y-74238095D01*
X41607142Y-74285714D01*
X41654761Y-74333333D01*
X41702380Y-74428571D01*
X41702380Y-74666666D01*
X41654761Y-74761904D01*
X41607142Y-74809523D01*
%TO.C,SW5*%
X91654761Y-53083333D02*
X91702380Y-52940476D01*
X91702380Y-52702380D01*
X91654761Y-52607142D01*
X91607142Y-52559523D01*
X91511904Y-52511904D01*
X91416666Y-52511904D01*
X91321428Y-52559523D01*
X91273809Y-52607142D01*
X91226190Y-52702380D01*
X91178571Y-52892857D01*
X91130952Y-52988095D01*
X91083333Y-53035714D01*
X90988095Y-53083333D01*
X90892857Y-53083333D01*
X90797619Y-53035714D01*
X90750000Y-52988095D01*
X90702380Y-52892857D01*
X90702380Y-52654761D01*
X90750000Y-52511904D01*
X90702380Y-52178571D02*
X91702380Y-51940476D01*
X90988095Y-51750000D01*
X91702380Y-51559523D01*
X90702380Y-51321428D01*
X90702380Y-50464285D02*
X90702380Y-50940476D01*
X91178571Y-50988095D01*
X91130952Y-50940476D01*
X91083333Y-50845238D01*
X91083333Y-50607142D01*
X91130952Y-50511904D01*
X91178571Y-50464285D01*
X91273809Y-50416666D01*
X91511904Y-50416666D01*
X91607142Y-50464285D01*
X91654761Y-50511904D01*
X91702380Y-50607142D01*
X91702380Y-50845238D01*
X91654761Y-50940476D01*
X91607142Y-50988095D01*
%TO.C,U3*%
X56988095Y-49702380D02*
X56988095Y-50511904D01*
X57035714Y-50607142D01*
X57083333Y-50654761D01*
X57178571Y-50702380D01*
X57369047Y-50702380D01*
X57464285Y-50654761D01*
X57511904Y-50607142D01*
X57559523Y-50511904D01*
X57559523Y-49702380D01*
X57940476Y-49702380D02*
X58559523Y-49702380D01*
X58226190Y-50083333D01*
X58369047Y-50083333D01*
X58464285Y-50130952D01*
X58511904Y-50178571D01*
X58559523Y-50273809D01*
X58559523Y-50511904D01*
X58511904Y-50607142D01*
X58464285Y-50654761D01*
X58369047Y-50702380D01*
X58083333Y-50702380D01*
X57988095Y-50654761D01*
X57940476Y-50607142D01*
%TO.C,D13*%
X30785714Y-60452380D02*
X30785714Y-59452380D01*
X31023809Y-59452380D01*
X31166666Y-59500000D01*
X31261904Y-59595238D01*
X31309523Y-59690476D01*
X31357142Y-59880952D01*
X31357142Y-60023809D01*
X31309523Y-60214285D01*
X31261904Y-60309523D01*
X31166666Y-60404761D01*
X31023809Y-60452380D01*
X30785714Y-60452380D01*
X32309523Y-60452380D02*
X31738095Y-60452380D01*
X32023809Y-60452380D02*
X32023809Y-59452380D01*
X31928571Y-59595238D01*
X31833333Y-59690476D01*
X31738095Y-59738095D01*
X32642857Y-59452380D02*
X33261904Y-59452380D01*
X32928571Y-59833333D01*
X33071428Y-59833333D01*
X33166666Y-59880952D01*
X33214285Y-59928571D01*
X33261904Y-60023809D01*
X33261904Y-60261904D01*
X33214285Y-60357142D01*
X33166666Y-60404761D01*
X33071428Y-60452380D01*
X32785714Y-60452380D01*
X32690476Y-60404761D01*
X32642857Y-60357142D01*
%TO.C,D8*%
X46702380Y-98888095D02*
X45702380Y-98888095D01*
X45702380Y-98650000D01*
X45750000Y-98507142D01*
X45845238Y-98411904D01*
X45940476Y-98364285D01*
X46130952Y-98316666D01*
X46273809Y-98316666D01*
X46464285Y-98364285D01*
X46559523Y-98411904D01*
X46654761Y-98507142D01*
X46702380Y-98650000D01*
X46702380Y-98888095D01*
X46130952Y-97745238D02*
X46083333Y-97840476D01*
X46035714Y-97888095D01*
X45940476Y-97935714D01*
X45892857Y-97935714D01*
X45797619Y-97888095D01*
X45750000Y-97840476D01*
X45702380Y-97745238D01*
X45702380Y-97554761D01*
X45750000Y-97459523D01*
X45797619Y-97411904D01*
X45892857Y-97364285D01*
X45940476Y-97364285D01*
X46035714Y-97411904D01*
X46083333Y-97459523D01*
X46130952Y-97554761D01*
X46130952Y-97745238D01*
X46178571Y-97840476D01*
X46226190Y-97888095D01*
X46321428Y-97935714D01*
X46511904Y-97935714D01*
X46607142Y-97888095D01*
X46654761Y-97840476D01*
X46702380Y-97745238D01*
X46702380Y-97554761D01*
X46654761Y-97459523D01*
X46607142Y-97411904D01*
X46511904Y-97364285D01*
X46321428Y-97364285D01*
X46226190Y-97411904D01*
X46178571Y-97459523D01*
X46130952Y-97554761D01*
%TO.C,J12*%
X16402380Y-35481023D02*
X17116666Y-35481023D01*
X17259523Y-35528642D01*
X17354761Y-35623880D01*
X17402380Y-35766738D01*
X17402380Y-35861976D01*
X17402380Y-34481023D02*
X17402380Y-35052452D01*
X17402380Y-34766738D02*
X16402380Y-34766738D01*
X16545238Y-34861976D01*
X16640476Y-34957214D01*
X16688095Y-35052452D01*
X16497619Y-34100071D02*
X16450000Y-34052452D01*
X16402380Y-33957214D01*
X16402380Y-33719119D01*
X16450000Y-33623880D01*
X16497619Y-33576261D01*
X16592857Y-33528642D01*
X16688095Y-33528642D01*
X16830952Y-33576261D01*
X17402380Y-34147690D01*
X17402380Y-33528642D01*
X20207142Y-38409595D02*
X20254761Y-38457214D01*
X20302380Y-38600071D01*
X20302380Y-38695309D01*
X20254761Y-38838166D01*
X20159523Y-38933404D01*
X20064285Y-38981023D01*
X19873809Y-39028642D01*
X19730952Y-39028642D01*
X19540476Y-38981023D01*
X19445238Y-38933404D01*
X19350000Y-38838166D01*
X19302380Y-38695309D01*
X19302380Y-38600071D01*
X19350000Y-38457214D01*
X19397619Y-38409595D01*
X20302380Y-37838166D02*
X20254761Y-37933404D01*
X20207142Y-37981023D01*
X20111904Y-38028642D01*
X19826190Y-38028642D01*
X19730952Y-37981023D01*
X19683333Y-37933404D01*
X19635714Y-37838166D01*
X19635714Y-37695309D01*
X19683333Y-37600071D01*
X19730952Y-37552452D01*
X19826190Y-37504833D01*
X20111904Y-37504833D01*
X20207142Y-37552452D01*
X20254761Y-37600071D01*
X20302380Y-37695309D01*
X20302380Y-37838166D01*
X19635714Y-37076261D02*
X20302380Y-37076261D01*
X19730952Y-37076261D02*
X19683333Y-37028642D01*
X19635714Y-36933404D01*
X19635714Y-36790547D01*
X19683333Y-36695309D01*
X19778571Y-36647690D01*
X20302380Y-36647690D01*
X19635714Y-36171500D02*
X20302380Y-36171500D01*
X19730952Y-36171500D02*
X19683333Y-36123880D01*
X19635714Y-36028642D01*
X19635714Y-35885785D01*
X19683333Y-35790547D01*
X19778571Y-35742928D01*
X20302380Y-35742928D01*
X20397619Y-35504833D02*
X20397619Y-34742928D01*
X19302380Y-34314357D02*
X19302380Y-34219119D01*
X19350000Y-34123880D01*
X19397619Y-34076261D01*
X19492857Y-34028642D01*
X19683333Y-33981023D01*
X19921428Y-33981023D01*
X20111904Y-34028642D01*
X20207142Y-34076261D01*
X20254761Y-34123880D01*
X20302380Y-34219119D01*
X20302380Y-34314357D01*
X20254761Y-34409595D01*
X20207142Y-34457214D01*
X20111904Y-34504833D01*
X19921428Y-34552452D01*
X19683333Y-34552452D01*
X19492857Y-34504833D01*
X19397619Y-34457214D01*
X19350000Y-34409595D01*
X19302380Y-34314357D01*
X20302380Y-33028642D02*
X20302380Y-33600071D01*
X20302380Y-33314357D02*
X19302380Y-33314357D01*
X19445238Y-33409595D01*
X19540476Y-33504833D01*
X19588095Y-33600071D01*
X20302380Y-32695309D02*
X19635714Y-32171500D01*
X19635714Y-32695309D02*
X20302380Y-32171500D01*
X19302380Y-31600071D02*
X19302380Y-31504833D01*
X19350000Y-31409595D01*
X19397619Y-31361976D01*
X19492857Y-31314357D01*
X19683333Y-31266738D01*
X19921428Y-31266738D01*
X20111904Y-31314357D01*
X20207142Y-31361976D01*
X20254761Y-31409595D01*
X20302380Y-31504833D01*
X20302380Y-31600071D01*
X20254761Y-31695309D01*
X20207142Y-31742928D01*
X20111904Y-31790547D01*
X19921428Y-31838166D01*
X19683333Y-31838166D01*
X19492857Y-31790547D01*
X19397619Y-31742928D01*
X19350000Y-31695309D01*
X19302380Y-31600071D01*
X19302380Y-30361976D02*
X19302380Y-30838166D01*
X19778571Y-30885785D01*
X19730952Y-30838166D01*
X19683333Y-30742928D01*
X19683333Y-30504833D01*
X19730952Y-30409595D01*
X19778571Y-30361976D01*
X19873809Y-30314357D01*
X20111904Y-30314357D01*
X20207142Y-30361976D01*
X20254761Y-30409595D01*
X20302380Y-30504833D01*
X20302380Y-30742928D01*
X20254761Y-30838166D01*
X20207142Y-30885785D01*
X21102380Y-32771500D02*
X21340476Y-32771500D01*
X21245238Y-33009595D02*
X21340476Y-32771500D01*
X21245238Y-32533404D01*
X21530952Y-32914357D02*
X21340476Y-32771500D01*
X21530952Y-32628642D01*
%TO.C,D10*%
X46285714Y-41452380D02*
X46285714Y-40452380D01*
X46523809Y-40452380D01*
X46666666Y-40500000D01*
X46761904Y-40595238D01*
X46809523Y-40690476D01*
X46857142Y-40880952D01*
X46857142Y-41023809D01*
X46809523Y-41214285D01*
X46761904Y-41309523D01*
X46666666Y-41404761D01*
X46523809Y-41452380D01*
X46285714Y-41452380D01*
X47809523Y-41452380D02*
X47238095Y-41452380D01*
X47523809Y-41452380D02*
X47523809Y-40452380D01*
X47428571Y-40595238D01*
X47333333Y-40690476D01*
X47238095Y-40738095D01*
X48428571Y-40452380D02*
X48523809Y-40452380D01*
X48619047Y-40500000D01*
X48666666Y-40547619D01*
X48714285Y-40642857D01*
X48761904Y-40833333D01*
X48761904Y-41071428D01*
X48714285Y-41261904D01*
X48666666Y-41357142D01*
X48619047Y-41404761D01*
X48523809Y-41452380D01*
X48428571Y-41452380D01*
X48333333Y-41404761D01*
X48285714Y-41357142D01*
X48238095Y-41261904D01*
X48190476Y-41071428D01*
X48190476Y-40833333D01*
X48238095Y-40642857D01*
X48285714Y-40547619D01*
X48333333Y-40500000D01*
X48428571Y-40452380D01*
%TO.C,R23*%
X29607142Y-56952380D02*
X29273809Y-56476190D01*
X29035714Y-56952380D02*
X29035714Y-55952380D01*
X29416666Y-55952380D01*
X29511904Y-56000000D01*
X29559523Y-56047619D01*
X29607142Y-56142857D01*
X29607142Y-56285714D01*
X29559523Y-56380952D01*
X29511904Y-56428571D01*
X29416666Y-56476190D01*
X29035714Y-56476190D01*
X29988095Y-56047619D02*
X30035714Y-56000000D01*
X30130952Y-55952380D01*
X30369047Y-55952380D01*
X30464285Y-56000000D01*
X30511904Y-56047619D01*
X30559523Y-56142857D01*
X30559523Y-56238095D01*
X30511904Y-56380952D01*
X29940476Y-56952380D01*
X30559523Y-56952380D01*
X30892857Y-55952380D02*
X31511904Y-55952380D01*
X31178571Y-56333333D01*
X31321428Y-56333333D01*
X31416666Y-56380952D01*
X31464285Y-56428571D01*
X31511904Y-56523809D01*
X31511904Y-56761904D01*
X31464285Y-56857142D01*
X31416666Y-56904761D01*
X31321428Y-56952380D01*
X31035714Y-56952380D01*
X30940476Y-56904761D01*
X30892857Y-56857142D01*
%TO.C,J14*%
X38940476Y-63197380D02*
X38940476Y-63911666D01*
X38892857Y-64054523D01*
X38797619Y-64149761D01*
X38654761Y-64197380D01*
X38559523Y-64197380D01*
X39940476Y-64197380D02*
X39369047Y-64197380D01*
X39654761Y-64197380D02*
X39654761Y-63197380D01*
X39559523Y-63340238D01*
X39464285Y-63435476D01*
X39369047Y-63483095D01*
X40797619Y-63530714D02*
X40797619Y-64197380D01*
X40559523Y-63149761D02*
X40321428Y-63864047D01*
X40940476Y-63864047D01*
%TO.C,GD2*%
X48474822Y-34904213D02*
X48373807Y-34937885D01*
X48272791Y-35038900D01*
X48205448Y-35173587D01*
X48205448Y-35308274D01*
X48239120Y-35409290D01*
X48340135Y-35577648D01*
X48441150Y-35678664D01*
X48609509Y-35779679D01*
X48710524Y-35813351D01*
X48845211Y-35813351D01*
X48979898Y-35746007D01*
X49047242Y-35678664D01*
X49114585Y-35543977D01*
X49114585Y-35476633D01*
X48878883Y-35240931D01*
X48744196Y-35375618D01*
X49484974Y-35240931D02*
X48777868Y-34533824D01*
X48946226Y-34365465D01*
X49080913Y-34298122D01*
X49215600Y-34298122D01*
X49316616Y-34331794D01*
X49484974Y-34432809D01*
X49585990Y-34533824D01*
X49687005Y-34702183D01*
X49720677Y-34803198D01*
X49720677Y-34937885D01*
X49653333Y-35072572D01*
X49484974Y-35240931D01*
X49518646Y-33927733D02*
X49518646Y-33860389D01*
X49552318Y-33759374D01*
X49720677Y-33591015D01*
X49821692Y-33557343D01*
X49889035Y-33557343D01*
X49990051Y-33591015D01*
X50057394Y-33658359D01*
X50124738Y-33793046D01*
X50124738Y-34601168D01*
X50562470Y-34163435D01*
%TO.C,C9*%
X74017142Y-56686666D02*
X74064761Y-56734285D01*
X74112380Y-56877142D01*
X74112380Y-56972380D01*
X74064761Y-57115238D01*
X73969523Y-57210476D01*
X73874285Y-57258095D01*
X73683809Y-57305714D01*
X73540952Y-57305714D01*
X73350476Y-57258095D01*
X73255238Y-57210476D01*
X73160000Y-57115238D01*
X73112380Y-56972380D01*
X73112380Y-56877142D01*
X73160000Y-56734285D01*
X73207619Y-56686666D01*
X74112380Y-56210476D02*
X74112380Y-56020000D01*
X74064761Y-55924761D01*
X74017142Y-55877142D01*
X73874285Y-55781904D01*
X73683809Y-55734285D01*
X73302857Y-55734285D01*
X73207619Y-55781904D01*
X73160000Y-55829523D01*
X73112380Y-55924761D01*
X73112380Y-56115238D01*
X73160000Y-56210476D01*
X73207619Y-56258095D01*
X73302857Y-56305714D01*
X73540952Y-56305714D01*
X73636190Y-56258095D01*
X73683809Y-56210476D01*
X73731428Y-56115238D01*
X73731428Y-55924761D01*
X73683809Y-55829523D01*
X73636190Y-55781904D01*
X73540952Y-55734285D01*
%TO.C,D1*%
X83062105Y-77132380D02*
X83062105Y-76132380D01*
X83300201Y-76132380D01*
X83443058Y-76180000D01*
X83538296Y-76275238D01*
X83585915Y-76370476D01*
X83633534Y-76560952D01*
X83633534Y-76703809D01*
X83585915Y-76894285D01*
X83538296Y-76989523D01*
X83443058Y-77084761D01*
X83300201Y-77132380D01*
X83062105Y-77132380D01*
X84585915Y-77132380D02*
X84014486Y-77132380D01*
X84300201Y-77132380D02*
X84300201Y-76132380D01*
X84204962Y-76275238D01*
X84109724Y-76370476D01*
X84014486Y-76418095D01*
%TO.C,U5*%
X36238095Y-73202380D02*
X36238095Y-74011904D01*
X36285714Y-74107142D01*
X36333333Y-74154761D01*
X36428571Y-74202380D01*
X36619047Y-74202380D01*
X36714285Y-74154761D01*
X36761904Y-74107142D01*
X36809523Y-74011904D01*
X36809523Y-73202380D01*
X37761904Y-73202380D02*
X37285714Y-73202380D01*
X37238095Y-73678571D01*
X37285714Y-73630952D01*
X37380952Y-73583333D01*
X37619047Y-73583333D01*
X37714285Y-73630952D01*
X37761904Y-73678571D01*
X37809523Y-73773809D01*
X37809523Y-74011904D01*
X37761904Y-74107142D01*
X37714285Y-74154761D01*
X37619047Y-74202380D01*
X37380952Y-74202380D01*
X37285714Y-74154761D01*
X37238095Y-74107142D01*
%TO.C,C5*%
X65833333Y-57107142D02*
X65785714Y-57154761D01*
X65642857Y-57202380D01*
X65547619Y-57202380D01*
X65404761Y-57154761D01*
X65309523Y-57059523D01*
X65261904Y-56964285D01*
X65214285Y-56773809D01*
X65214285Y-56630952D01*
X65261904Y-56440476D01*
X65309523Y-56345238D01*
X65404761Y-56250000D01*
X65547619Y-56202380D01*
X65642857Y-56202380D01*
X65785714Y-56250000D01*
X65833333Y-56297619D01*
X66738095Y-56202380D02*
X66261904Y-56202380D01*
X66214285Y-56678571D01*
X66261904Y-56630952D01*
X66357142Y-56583333D01*
X66595238Y-56583333D01*
X66690476Y-56630952D01*
X66738095Y-56678571D01*
X66785714Y-56773809D01*
X66785714Y-57011904D01*
X66738095Y-57107142D01*
X66690476Y-57154761D01*
X66595238Y-57202380D01*
X66357142Y-57202380D01*
X66261904Y-57154761D01*
X66214285Y-57107142D01*
%TO.C,C11*%
X80107142Y-63392857D02*
X80154761Y-63440476D01*
X80202380Y-63583333D01*
X80202380Y-63678571D01*
X80154761Y-63821428D01*
X80059523Y-63916666D01*
X79964285Y-63964285D01*
X79773809Y-64011904D01*
X79630952Y-64011904D01*
X79440476Y-63964285D01*
X79345238Y-63916666D01*
X79250000Y-63821428D01*
X79202380Y-63678571D01*
X79202380Y-63583333D01*
X79250000Y-63440476D01*
X79297619Y-63392857D01*
X80202380Y-62440476D02*
X80202380Y-63011904D01*
X80202380Y-62726190D02*
X79202380Y-62726190D01*
X79345238Y-62821428D01*
X79440476Y-62916666D01*
X79488095Y-63011904D01*
X80202380Y-61488095D02*
X80202380Y-62059523D01*
X80202380Y-61773809D02*
X79202380Y-61773809D01*
X79345238Y-61869047D01*
X79440476Y-61964285D01*
X79488095Y-62059523D01*
%TO.C,TH2*%
X76952380Y-57785714D02*
X76952380Y-57214285D01*
X77952380Y-57500000D02*
X76952380Y-57500000D01*
X77952380Y-56880952D02*
X76952380Y-56880952D01*
X77428571Y-56880952D02*
X77428571Y-56309523D01*
X77952380Y-56309523D02*
X76952380Y-56309523D01*
X77047619Y-55880952D02*
X77000000Y-55833333D01*
X76952380Y-55738095D01*
X76952380Y-55500000D01*
X77000000Y-55404761D01*
X77047619Y-55357142D01*
X77142857Y-55309523D01*
X77238095Y-55309523D01*
X77380952Y-55357142D01*
X77952380Y-55928571D01*
X77952380Y-55309523D01*
%TO.C,J11*%
X13127380Y-65809523D02*
X13841666Y-65809523D01*
X13984523Y-65857142D01*
X14079761Y-65952380D01*
X14127380Y-66095238D01*
X14127380Y-66190476D01*
X14127380Y-64809523D02*
X14127380Y-65380952D01*
X14127380Y-65095238D02*
X13127380Y-65095238D01*
X13270238Y-65190476D01*
X13365476Y-65285714D01*
X13413095Y-65380952D01*
X14127380Y-63857142D02*
X14127380Y-64428571D01*
X14127380Y-64142857D02*
X13127380Y-64142857D01*
X13270238Y-64238095D01*
X13365476Y-64333333D01*
X13413095Y-64428571D01*
X28282142Y-71071428D02*
X28282142Y-69928571D01*
X28853571Y-70500000D02*
X27710714Y-70500000D01*
X28282142Y-60071428D02*
X28282142Y-58928571D01*
%TO.C,J5*%
X74852380Y-93453333D02*
X75566666Y-93453333D01*
X75709523Y-93500952D01*
X75804761Y-93596190D01*
X75852380Y-93739047D01*
X75852380Y-93834285D01*
X74852380Y-92500952D02*
X74852380Y-92977142D01*
X75328571Y-93024761D01*
X75280952Y-92977142D01*
X75233333Y-92881904D01*
X75233333Y-92643809D01*
X75280952Y-92548571D01*
X75328571Y-92500952D01*
X75423809Y-92453333D01*
X75661904Y-92453333D01*
X75757142Y-92500952D01*
X75804761Y-92548571D01*
X75852380Y-92643809D01*
X75852380Y-92881904D01*
X75804761Y-92977142D01*
X75757142Y-93024761D01*
%TO.C,C12*%
X50857142Y-90607142D02*
X50809523Y-90654761D01*
X50666666Y-90702380D01*
X50571428Y-90702380D01*
X50428571Y-90654761D01*
X50333333Y-90559523D01*
X50285714Y-90464285D01*
X50238095Y-90273809D01*
X50238095Y-90130952D01*
X50285714Y-89940476D01*
X50333333Y-89845238D01*
X50428571Y-89750000D01*
X50571428Y-89702380D01*
X50666666Y-89702380D01*
X50809523Y-89750000D01*
X50857142Y-89797619D01*
X51809523Y-90702380D02*
X51238095Y-90702380D01*
X51523809Y-90702380D02*
X51523809Y-89702380D01*
X51428571Y-89845238D01*
X51333333Y-89940476D01*
X51238095Y-89988095D01*
X52190476Y-89797619D02*
X52238095Y-89750000D01*
X52333333Y-89702380D01*
X52571428Y-89702380D01*
X52666666Y-89750000D01*
X52714285Y-89797619D01*
X52761904Y-89892857D01*
X52761904Y-89988095D01*
X52714285Y-90130952D01*
X52142857Y-90702380D01*
X52761904Y-90702380D01*
%TO.C,C10*%
X71857142Y-74107142D02*
X71809523Y-74154761D01*
X71666666Y-74202380D01*
X71571428Y-74202380D01*
X71428571Y-74154761D01*
X71333333Y-74059523D01*
X71285714Y-73964285D01*
X71238095Y-73773809D01*
X71238095Y-73630952D01*
X71285714Y-73440476D01*
X71333333Y-73345238D01*
X71428571Y-73250000D01*
X71571428Y-73202380D01*
X71666666Y-73202380D01*
X71809523Y-73250000D01*
X71857142Y-73297619D01*
X72809523Y-74202380D02*
X72238095Y-74202380D01*
X72523809Y-74202380D02*
X72523809Y-73202380D01*
X72428571Y-73345238D01*
X72333333Y-73440476D01*
X72238095Y-73488095D01*
X73428571Y-73202380D02*
X73523809Y-73202380D01*
X73619047Y-73250000D01*
X73666666Y-73297619D01*
X73714285Y-73392857D01*
X73761904Y-73583333D01*
X73761904Y-73821428D01*
X73714285Y-74011904D01*
X73666666Y-74107142D01*
X73619047Y-74154761D01*
X73523809Y-74202380D01*
X73428571Y-74202380D01*
X73333333Y-74154761D01*
X73285714Y-74107142D01*
X73238095Y-74011904D01*
X73190476Y-73821428D01*
X73190476Y-73583333D01*
X73238095Y-73392857D01*
X73285714Y-73297619D01*
X73333333Y-73250000D01*
X73428571Y-73202380D01*
%TO.C,D6*%
X56761904Y-102202380D02*
X56761904Y-101202380D01*
X57000000Y-101202380D01*
X57142857Y-101250000D01*
X57238095Y-101345238D01*
X57285714Y-101440476D01*
X57333333Y-101630952D01*
X57333333Y-101773809D01*
X57285714Y-101964285D01*
X57238095Y-102059523D01*
X57142857Y-102154761D01*
X57000000Y-102202380D01*
X56761904Y-102202380D01*
X58190476Y-101202380D02*
X58000000Y-101202380D01*
X57904761Y-101250000D01*
X57857142Y-101297619D01*
X57761904Y-101440476D01*
X57714285Y-101630952D01*
X57714285Y-102011904D01*
X57761904Y-102107142D01*
X57809523Y-102154761D01*
X57904761Y-102202380D01*
X58095238Y-102202380D01*
X58190476Y-102154761D01*
X58238095Y-102107142D01*
X58285714Y-102011904D01*
X58285714Y-101773809D01*
X58238095Y-101678571D01*
X58190476Y-101630952D01*
X58095238Y-101583333D01*
X57904761Y-101583333D01*
X57809523Y-101630952D01*
X57761904Y-101678571D01*
X57714285Y-101773809D01*
%TO.C,TH1*%
X78952380Y-57785714D02*
X78952380Y-57214285D01*
X79952380Y-57500000D02*
X78952380Y-57500000D01*
X79952380Y-56880952D02*
X78952380Y-56880952D01*
X79428571Y-56880952D02*
X79428571Y-56309523D01*
X79952380Y-56309523D02*
X78952380Y-56309523D01*
X79952380Y-55309523D02*
X79952380Y-55880952D01*
X79952380Y-55595238D02*
X78952380Y-55595238D01*
X79095238Y-55690476D01*
X79190476Y-55785714D01*
X79238095Y-55880952D01*
%TO.C,R4*%
X91333333Y-77702380D02*
X91000000Y-77226190D01*
X90761904Y-77702380D02*
X90761904Y-76702380D01*
X91142857Y-76702380D01*
X91238095Y-76750000D01*
X91285714Y-76797619D01*
X91333333Y-76892857D01*
X91333333Y-77035714D01*
X91285714Y-77130952D01*
X91238095Y-77178571D01*
X91142857Y-77226190D01*
X90761904Y-77226190D01*
X92190476Y-77035714D02*
X92190476Y-77702380D01*
X91952380Y-76654761D02*
X91714285Y-77369047D01*
X92333333Y-77369047D01*
%TO.C,SW3*%
X91654761Y-60083333D02*
X91702380Y-59940476D01*
X91702380Y-59702380D01*
X91654761Y-59607142D01*
X91607142Y-59559523D01*
X91511904Y-59511904D01*
X91416666Y-59511904D01*
X91321428Y-59559523D01*
X91273809Y-59607142D01*
X91226190Y-59702380D01*
X91178571Y-59892857D01*
X91130952Y-59988095D01*
X91083333Y-60035714D01*
X90988095Y-60083333D01*
X90892857Y-60083333D01*
X90797619Y-60035714D01*
X90750000Y-59988095D01*
X90702380Y-59892857D01*
X90702380Y-59654761D01*
X90750000Y-59511904D01*
X90702380Y-59178571D02*
X91702380Y-58940476D01*
X90988095Y-58750000D01*
X91702380Y-58559523D01*
X90702380Y-58321428D01*
X90702380Y-58035714D02*
X90702380Y-57416666D01*
X91083333Y-57750000D01*
X91083333Y-57607142D01*
X91130952Y-57511904D01*
X91178571Y-57464285D01*
X91273809Y-57416666D01*
X91511904Y-57416666D01*
X91607142Y-57464285D01*
X91654761Y-57511904D01*
X91702380Y-57607142D01*
X91702380Y-57892857D01*
X91654761Y-57988095D01*
X91607142Y-58035714D01*
%TO.C,R24*%
X29607142Y-53952380D02*
X29273809Y-53476190D01*
X29035714Y-53952380D02*
X29035714Y-52952380D01*
X29416666Y-52952380D01*
X29511904Y-53000000D01*
X29559523Y-53047619D01*
X29607142Y-53142857D01*
X29607142Y-53285714D01*
X29559523Y-53380952D01*
X29511904Y-53428571D01*
X29416666Y-53476190D01*
X29035714Y-53476190D01*
X29988095Y-53047619D02*
X30035714Y-53000000D01*
X30130952Y-52952380D01*
X30369047Y-52952380D01*
X30464285Y-53000000D01*
X30511904Y-53047619D01*
X30559523Y-53142857D01*
X30559523Y-53238095D01*
X30511904Y-53380952D01*
X29940476Y-53952380D01*
X30559523Y-53952380D01*
X31416666Y-53285714D02*
X31416666Y-53952380D01*
X31178571Y-52904761D02*
X30940476Y-53619047D01*
X31559523Y-53619047D01*
%TO.C,R16*%
X29357142Y-73952380D02*
X29023809Y-73476190D01*
X28785714Y-73952380D02*
X28785714Y-72952380D01*
X29166666Y-72952380D01*
X29261904Y-73000000D01*
X29309523Y-73047619D01*
X29357142Y-73142857D01*
X29357142Y-73285714D01*
X29309523Y-73380952D01*
X29261904Y-73428571D01*
X29166666Y-73476190D01*
X28785714Y-73476190D01*
X30309523Y-73952380D02*
X29738095Y-73952380D01*
X30023809Y-73952380D02*
X30023809Y-72952380D01*
X29928571Y-73095238D01*
X29833333Y-73190476D01*
X29738095Y-73238095D01*
X31166666Y-72952380D02*
X30976190Y-72952380D01*
X30880952Y-73000000D01*
X30833333Y-73047619D01*
X30738095Y-73190476D01*
X30690476Y-73380952D01*
X30690476Y-73761904D01*
X30738095Y-73857142D01*
X30785714Y-73904761D01*
X30880952Y-73952380D01*
X31071428Y-73952380D01*
X31166666Y-73904761D01*
X31214285Y-73857142D01*
X31261904Y-73761904D01*
X31261904Y-73523809D01*
X31214285Y-73428571D01*
X31166666Y-73380952D01*
X31071428Y-73333333D01*
X30880952Y-73333333D01*
X30785714Y-73380952D01*
X30738095Y-73428571D01*
X30690476Y-73523809D01*
%TO.C,R3*%
X91333333Y-71702380D02*
X91000000Y-71226190D01*
X90761904Y-71702380D02*
X90761904Y-70702380D01*
X91142857Y-70702380D01*
X91238095Y-70750000D01*
X91285714Y-70797619D01*
X91333333Y-70892857D01*
X91333333Y-71035714D01*
X91285714Y-71130952D01*
X91238095Y-71178571D01*
X91142857Y-71226190D01*
X90761904Y-71226190D01*
X91666666Y-70702380D02*
X92285714Y-70702380D01*
X91952380Y-71083333D01*
X92095238Y-71083333D01*
X92190476Y-71130952D01*
X92238095Y-71178571D01*
X92285714Y-71273809D01*
X92285714Y-71511904D01*
X92238095Y-71607142D01*
X92190476Y-71654761D01*
X92095238Y-71702380D01*
X91809523Y-71702380D01*
X91714285Y-71654761D01*
X91666666Y-71607142D01*
%TO.C,C24*%
X39857142Y-58142857D02*
X39904761Y-58190476D01*
X39952380Y-58333333D01*
X39952380Y-58428571D01*
X39904761Y-58571428D01*
X39809523Y-58666666D01*
X39714285Y-58714285D01*
X39523809Y-58761904D01*
X39380952Y-58761904D01*
X39190476Y-58714285D01*
X39095238Y-58666666D01*
X39000000Y-58571428D01*
X38952380Y-58428571D01*
X38952380Y-58333333D01*
X39000000Y-58190476D01*
X39047619Y-58142857D01*
X39047619Y-57761904D02*
X39000000Y-57714285D01*
X38952380Y-57619047D01*
X38952380Y-57380952D01*
X39000000Y-57285714D01*
X39047619Y-57238095D01*
X39142857Y-57190476D01*
X39238095Y-57190476D01*
X39380952Y-57238095D01*
X39952380Y-57809523D01*
X39952380Y-57190476D01*
X39285714Y-56333333D02*
X39952380Y-56333333D01*
X38904761Y-56571428D02*
X39619047Y-56809523D01*
X39619047Y-56190476D01*
%TO.C,RV2*%
X91702380Y-86845238D02*
X91226190Y-87178571D01*
X91702380Y-87416666D02*
X90702380Y-87416666D01*
X90702380Y-87035714D01*
X90750000Y-86940476D01*
X90797619Y-86892857D01*
X90892857Y-86845238D01*
X91035714Y-86845238D01*
X91130952Y-86892857D01*
X91178571Y-86940476D01*
X91226190Y-87035714D01*
X91226190Y-87416666D01*
X90702380Y-86559523D02*
X91702380Y-86226190D01*
X90702380Y-85892857D01*
X90797619Y-85607142D02*
X90750000Y-85559523D01*
X90702380Y-85464285D01*
X90702380Y-85226190D01*
X90750000Y-85130952D01*
X90797619Y-85083333D01*
X90892857Y-85035714D01*
X90988095Y-85035714D01*
X91130952Y-85083333D01*
X91702380Y-85654761D01*
X91702380Y-85035714D01*
%TO.C,J1*%
X47166666Y-46847380D02*
X47166666Y-47561666D01*
X47119047Y-47704523D01*
X47023809Y-47799761D01*
X46880952Y-47847380D01*
X46785714Y-47847380D01*
X48166666Y-47847380D02*
X47595238Y-47847380D01*
X47880952Y-47847380D02*
X47880952Y-46847380D01*
X47785714Y-46990238D01*
X47690476Y-47085476D01*
X47595238Y-47133095D01*
%TO.C,D4*%
X83062105Y-79092380D02*
X83062105Y-78092380D01*
X83300201Y-78092380D01*
X83443058Y-78140000D01*
X83538296Y-78235238D01*
X83585915Y-78330476D01*
X83633534Y-78520952D01*
X83633534Y-78663809D01*
X83585915Y-78854285D01*
X83538296Y-78949523D01*
X83443058Y-79044761D01*
X83300201Y-79092380D01*
X83062105Y-79092380D01*
X84490677Y-78425714D02*
X84490677Y-79092380D01*
X84252581Y-78044761D02*
X84014486Y-78759047D01*
X84633534Y-78759047D01*
%TO.C,SW1*%
X91654761Y-69083333D02*
X91702380Y-68940476D01*
X91702380Y-68702380D01*
X91654761Y-68607142D01*
X91607142Y-68559523D01*
X91511904Y-68511904D01*
X91416666Y-68511904D01*
X91321428Y-68559523D01*
X91273809Y-68607142D01*
X91226190Y-68702380D01*
X91178571Y-68892857D01*
X91130952Y-68988095D01*
X91083333Y-69035714D01*
X90988095Y-69083333D01*
X90892857Y-69083333D01*
X90797619Y-69035714D01*
X90750000Y-68988095D01*
X90702380Y-68892857D01*
X90702380Y-68654761D01*
X90750000Y-68511904D01*
X90702380Y-68178571D02*
X91702380Y-67940476D01*
X90988095Y-67750000D01*
X91702380Y-67559523D01*
X90702380Y-67321428D01*
X91702380Y-66416666D02*
X91702380Y-66988095D01*
X91702380Y-66702380D02*
X90702380Y-66702380D01*
X90845238Y-66797619D01*
X90940476Y-66892857D01*
X90988095Y-66988095D01*
%TO.C,R19*%
X29357142Y-76952380D02*
X29023809Y-76476190D01*
X28785714Y-76952380D02*
X28785714Y-75952380D01*
X29166666Y-75952380D01*
X29261904Y-76000000D01*
X29309523Y-76047619D01*
X29357142Y-76142857D01*
X29357142Y-76285714D01*
X29309523Y-76380952D01*
X29261904Y-76428571D01*
X29166666Y-76476190D01*
X28785714Y-76476190D01*
X30309523Y-76952380D02*
X29738095Y-76952380D01*
X30023809Y-76952380D02*
X30023809Y-75952380D01*
X29928571Y-76095238D01*
X29833333Y-76190476D01*
X29738095Y-76238095D01*
X30785714Y-76952380D02*
X30976190Y-76952380D01*
X31071428Y-76904761D01*
X31119047Y-76857142D01*
X31214285Y-76714285D01*
X31261904Y-76523809D01*
X31261904Y-76142857D01*
X31214285Y-76047619D01*
X31166666Y-76000000D01*
X31071428Y-75952380D01*
X30880952Y-75952380D01*
X30785714Y-76000000D01*
X30738095Y-76047619D01*
X30690476Y-76142857D01*
X30690476Y-76380952D01*
X30738095Y-76476190D01*
X30785714Y-76523809D01*
X30880952Y-76571428D01*
X31071428Y-76571428D01*
X31166666Y-76523809D01*
X31214285Y-76476190D01*
X31261904Y-76380952D01*
%TO.C,D7*%
X51011904Y-103702380D02*
X51011904Y-102702380D01*
X51250000Y-102702380D01*
X51392857Y-102750000D01*
X51488095Y-102845238D01*
X51535714Y-102940476D01*
X51583333Y-103130952D01*
X51583333Y-103273809D01*
X51535714Y-103464285D01*
X51488095Y-103559523D01*
X51392857Y-103654761D01*
X51250000Y-103702380D01*
X51011904Y-103702380D01*
X51916666Y-102702380D02*
X52583333Y-102702380D01*
X52154761Y-103702380D01*
%TO.C,R17*%
X29357142Y-78452380D02*
X29023809Y-77976190D01*
X28785714Y-78452380D02*
X28785714Y-77452380D01*
X29166666Y-77452380D01*
X29261904Y-77500000D01*
X29309523Y-77547619D01*
X29357142Y-77642857D01*
X29357142Y-77785714D01*
X29309523Y-77880952D01*
X29261904Y-77928571D01*
X29166666Y-77976190D01*
X28785714Y-77976190D01*
X30309523Y-78452380D02*
X29738095Y-78452380D01*
X30023809Y-78452380D02*
X30023809Y-77452380D01*
X29928571Y-77595238D01*
X29833333Y-77690476D01*
X29738095Y-77738095D01*
X30642857Y-77452380D02*
X31309523Y-77452380D01*
X30880952Y-78452380D01*
%TO.C,J8*%
X62666666Y-45132380D02*
X62666666Y-45846666D01*
X62619047Y-45989523D01*
X62523809Y-46084761D01*
X62380952Y-46132380D01*
X62285714Y-46132380D01*
X63285714Y-45560952D02*
X63190476Y-45513333D01*
X63142857Y-45465714D01*
X63095238Y-45370476D01*
X63095238Y-45322857D01*
X63142857Y-45227619D01*
X63190476Y-45180000D01*
X63285714Y-45132380D01*
X63476190Y-45132380D01*
X63571428Y-45180000D01*
X63619047Y-45227619D01*
X63666666Y-45322857D01*
X63666666Y-45370476D01*
X63619047Y-45465714D01*
X63571428Y-45513333D01*
X63476190Y-45560952D01*
X63285714Y-45560952D01*
X63190476Y-45608571D01*
X63142857Y-45656190D01*
X63095238Y-45751428D01*
X63095238Y-45941904D01*
X63142857Y-46037142D01*
X63190476Y-46084761D01*
X63285714Y-46132380D01*
X63476190Y-46132380D01*
X63571428Y-46084761D01*
X63619047Y-46037142D01*
X63666666Y-45941904D01*
X63666666Y-45751428D01*
X63619047Y-45656190D01*
X63571428Y-45608571D01*
X63476190Y-45560952D01*
%TO.C,R15*%
X75952380Y-57142857D02*
X75476190Y-57476190D01*
X75952380Y-57714285D02*
X74952380Y-57714285D01*
X74952380Y-57333333D01*
X75000000Y-57238095D01*
X75047619Y-57190476D01*
X75142857Y-57142857D01*
X75285714Y-57142857D01*
X75380952Y-57190476D01*
X75428571Y-57238095D01*
X75476190Y-57333333D01*
X75476190Y-57714285D01*
X75952380Y-56190476D02*
X75952380Y-56761904D01*
X75952380Y-56476190D02*
X74952380Y-56476190D01*
X75095238Y-56571428D01*
X75190476Y-56666666D01*
X75238095Y-56761904D01*
X74952380Y-55285714D02*
X74952380Y-55761904D01*
X75428571Y-55809523D01*
X75380952Y-55761904D01*
X75333333Y-55666666D01*
X75333333Y-55428571D01*
X75380952Y-55333333D01*
X75428571Y-55285714D01*
X75523809Y-55238095D01*
X75761904Y-55238095D01*
X75857142Y-55285714D01*
X75904761Y-55333333D01*
X75952380Y-55428571D01*
X75952380Y-55666666D01*
X75904761Y-55761904D01*
X75857142Y-55809523D01*
%TO.C,Y1*%
X78226190Y-67476190D02*
X78702380Y-67476190D01*
X77702380Y-67809523D02*
X78226190Y-67476190D01*
X77702380Y-67142857D01*
X78702380Y-66285714D02*
X78702380Y-66857142D01*
X78702380Y-66571428D02*
X77702380Y-66571428D01*
X77845238Y-66666666D01*
X77940476Y-66761904D01*
X77988095Y-66857142D01*
%TO.C,D11*%
X39202380Y-35964285D02*
X38202380Y-35964285D01*
X38202380Y-35726190D01*
X38250000Y-35583333D01*
X38345238Y-35488095D01*
X38440476Y-35440476D01*
X38630952Y-35392857D01*
X38773809Y-35392857D01*
X38964285Y-35440476D01*
X39059523Y-35488095D01*
X39154761Y-35583333D01*
X39202380Y-35726190D01*
X39202380Y-35964285D01*
X39202380Y-34440476D02*
X39202380Y-35011904D01*
X39202380Y-34726190D02*
X38202380Y-34726190D01*
X38345238Y-34821428D01*
X38440476Y-34916666D01*
X38488095Y-35011904D01*
X39202380Y-33488095D02*
X39202380Y-34059523D01*
X39202380Y-33773809D02*
X38202380Y-33773809D01*
X38345238Y-33869047D01*
X38440476Y-33964285D01*
X38488095Y-34059523D01*
%TO.C,C20*%
X45857142Y-36427142D02*
X45809523Y-36474761D01*
X45666666Y-36522380D01*
X45571428Y-36522380D01*
X45428571Y-36474761D01*
X45333333Y-36379523D01*
X45285714Y-36284285D01*
X45238095Y-36093809D01*
X45238095Y-35950952D01*
X45285714Y-35760476D01*
X45333333Y-35665238D01*
X45428571Y-35570000D01*
X45571428Y-35522380D01*
X45666666Y-35522380D01*
X45809523Y-35570000D01*
X45857142Y-35617619D01*
X46238095Y-35617619D02*
X46285714Y-35570000D01*
X46380952Y-35522380D01*
X46619047Y-35522380D01*
X46714285Y-35570000D01*
X46761904Y-35617619D01*
X46809523Y-35712857D01*
X46809523Y-35808095D01*
X46761904Y-35950952D01*
X46190476Y-36522380D01*
X46809523Y-36522380D01*
X47428571Y-35522380D02*
X47523809Y-35522380D01*
X47619047Y-35570000D01*
X47666666Y-35617619D01*
X47714285Y-35712857D01*
X47761904Y-35903333D01*
X47761904Y-36141428D01*
X47714285Y-36331904D01*
X47666666Y-36427142D01*
X47619047Y-36474761D01*
X47523809Y-36522380D01*
X47428571Y-36522380D01*
X47333333Y-36474761D01*
X47285714Y-36427142D01*
X47238095Y-36331904D01*
X47190476Y-36141428D01*
X47190476Y-35903333D01*
X47238095Y-35712857D01*
X47285714Y-35617619D01*
X47333333Y-35570000D01*
X47428571Y-35522380D01*
%TO.C,R12*%
X37452380Y-82892857D02*
X36976190Y-83226190D01*
X37452380Y-83464285D02*
X36452380Y-83464285D01*
X36452380Y-83083333D01*
X36500000Y-82988095D01*
X36547619Y-82940476D01*
X36642857Y-82892857D01*
X36785714Y-82892857D01*
X36880952Y-82940476D01*
X36928571Y-82988095D01*
X36976190Y-83083333D01*
X36976190Y-83464285D01*
X37452380Y-81940476D02*
X37452380Y-82511904D01*
X37452380Y-82226190D02*
X36452380Y-82226190D01*
X36595238Y-82321428D01*
X36690476Y-82416666D01*
X36738095Y-82511904D01*
X36547619Y-81559523D02*
X36500000Y-81511904D01*
X36452380Y-81416666D01*
X36452380Y-81178571D01*
X36500000Y-81083333D01*
X36547619Y-81035714D01*
X36642857Y-80988095D01*
X36738095Y-80988095D01*
X36880952Y-81035714D01*
X37452380Y-81607142D01*
X37452380Y-80988095D01*
%TO.C,R20*%
X28932380Y-72142857D02*
X28456190Y-72476190D01*
X28932380Y-72714285D02*
X27932380Y-72714285D01*
X27932380Y-72333333D01*
X27980000Y-72238095D01*
X28027619Y-72190476D01*
X28122857Y-72142857D01*
X28265714Y-72142857D01*
X28360952Y-72190476D01*
X28408571Y-72238095D01*
X28456190Y-72333333D01*
X28456190Y-72714285D01*
X28027619Y-71761904D02*
X27980000Y-71714285D01*
X27932380Y-71619047D01*
X27932380Y-71380952D01*
X27980000Y-71285714D01*
X28027619Y-71238095D01*
X28122857Y-71190476D01*
X28218095Y-71190476D01*
X28360952Y-71238095D01*
X28932380Y-71809523D01*
X28932380Y-71190476D01*
X27932380Y-70571428D02*
X27932380Y-70476190D01*
X27980000Y-70380952D01*
X28027619Y-70333333D01*
X28122857Y-70285714D01*
X28313333Y-70238095D01*
X28551428Y-70238095D01*
X28741904Y-70285714D01*
X28837142Y-70333333D01*
X28884761Y-70380952D01*
X28932380Y-70476190D01*
X28932380Y-70571428D01*
X28884761Y-70666666D01*
X28837142Y-70714285D01*
X28741904Y-70761904D01*
X28551428Y-70809523D01*
X28313333Y-70809523D01*
X28122857Y-70761904D01*
X28027619Y-70714285D01*
X27980000Y-70666666D01*
X27932380Y-70571428D01*
%TO.C,U4*%
X67738095Y-72202380D02*
X67738095Y-73011904D01*
X67785714Y-73107142D01*
X67833333Y-73154761D01*
X67928571Y-73202380D01*
X68119047Y-73202380D01*
X68214285Y-73154761D01*
X68261904Y-73107142D01*
X68309523Y-73011904D01*
X68309523Y-72202380D01*
X69214285Y-72535714D02*
X69214285Y-73202380D01*
X68976190Y-72154761D02*
X68738095Y-72869047D01*
X69357142Y-72869047D01*
%TO.C,R11*%
X40202380Y-71142857D02*
X39726190Y-71476190D01*
X40202380Y-71714285D02*
X39202380Y-71714285D01*
X39202380Y-71333333D01*
X39250000Y-71238095D01*
X39297619Y-71190476D01*
X39392857Y-71142857D01*
X39535714Y-71142857D01*
X39630952Y-71190476D01*
X39678571Y-71238095D01*
X39726190Y-71333333D01*
X39726190Y-71714285D01*
X40202380Y-70190476D02*
X40202380Y-70761904D01*
X40202380Y-70476190D02*
X39202380Y-70476190D01*
X39345238Y-70571428D01*
X39440476Y-70666666D01*
X39488095Y-70761904D01*
X40202380Y-69238095D02*
X40202380Y-69809523D01*
X40202380Y-69523809D02*
X39202380Y-69523809D01*
X39345238Y-69619047D01*
X39440476Y-69714285D01*
X39488095Y-69809523D01*
%TO.C,D12*%
X31952380Y-68964285D02*
X30952380Y-68964285D01*
X30952380Y-68726190D01*
X31000000Y-68583333D01*
X31095238Y-68488095D01*
X31190476Y-68440476D01*
X31380952Y-68392857D01*
X31523809Y-68392857D01*
X31714285Y-68440476D01*
X31809523Y-68488095D01*
X31904761Y-68583333D01*
X31952380Y-68726190D01*
X31952380Y-68964285D01*
X31952380Y-67440476D02*
X31952380Y-68011904D01*
X31952380Y-67726190D02*
X30952380Y-67726190D01*
X31095238Y-67821428D01*
X31190476Y-67916666D01*
X31238095Y-68011904D01*
X31047619Y-67059523D02*
X31000000Y-67011904D01*
X30952380Y-66916666D01*
X30952380Y-66678571D01*
X31000000Y-66583333D01*
X31047619Y-66535714D01*
X31142857Y-66488095D01*
X31238095Y-66488095D01*
X31380952Y-66535714D01*
X31952380Y-67107142D01*
X31952380Y-66488095D01*
%TO.C,C13*%
X48357142Y-26927142D02*
X48309523Y-26974761D01*
X48166666Y-27022380D01*
X48071428Y-27022380D01*
X47928571Y-26974761D01*
X47833333Y-26879523D01*
X47785714Y-26784285D01*
X47738095Y-26593809D01*
X47738095Y-26450952D01*
X47785714Y-26260476D01*
X47833333Y-26165238D01*
X47928571Y-26070000D01*
X48071428Y-26022380D01*
X48166666Y-26022380D01*
X48309523Y-26070000D01*
X48357142Y-26117619D01*
X49309523Y-27022380D02*
X48738095Y-27022380D01*
X49023809Y-27022380D02*
X49023809Y-26022380D01*
X48928571Y-26165238D01*
X48833333Y-26260476D01*
X48738095Y-26308095D01*
X49642857Y-26022380D02*
X50261904Y-26022380D01*
X49928571Y-26403333D01*
X50071428Y-26403333D01*
X50166666Y-26450952D01*
X50214285Y-26498571D01*
X50261904Y-26593809D01*
X50261904Y-26831904D01*
X50214285Y-26927142D01*
X50166666Y-26974761D01*
X50071428Y-27022380D01*
X49785714Y-27022380D01*
X49690476Y-26974761D01*
X49642857Y-26927142D01*
%TO.C,J7*%
X68622380Y-50333333D02*
X69336666Y-50333333D01*
X69479523Y-50380952D01*
X69574761Y-50476190D01*
X69622380Y-50619047D01*
X69622380Y-50714285D01*
X68622380Y-49952380D02*
X68622380Y-49285714D01*
X69622380Y-49714285D01*
%TO.C,R6*%
X46522380Y-55666666D02*
X46046190Y-56000000D01*
X46522380Y-56238095D02*
X45522380Y-56238095D01*
X45522380Y-55857142D01*
X45570000Y-55761904D01*
X45617619Y-55714285D01*
X45712857Y-55666666D01*
X45855714Y-55666666D01*
X45950952Y-55714285D01*
X45998571Y-55761904D01*
X46046190Y-55857142D01*
X46046190Y-56238095D01*
X45522380Y-54809523D02*
X45522380Y-55000000D01*
X45570000Y-55095238D01*
X45617619Y-55142857D01*
X45760476Y-55238095D01*
X45950952Y-55285714D01*
X46331904Y-55285714D01*
X46427142Y-55238095D01*
X46474761Y-55190476D01*
X46522380Y-55095238D01*
X46522380Y-54904761D01*
X46474761Y-54809523D01*
X46427142Y-54761904D01*
X46331904Y-54714285D01*
X46093809Y-54714285D01*
X45998571Y-54761904D01*
X45950952Y-54809523D01*
X45903333Y-54904761D01*
X45903333Y-55095238D01*
X45950952Y-55190476D01*
X45998571Y-55238095D01*
X46093809Y-55285714D01*
%TO.C,GD1*%
X53799822Y-97784974D02*
X53698807Y-97818646D01*
X53597791Y-97919661D01*
X53530448Y-98054348D01*
X53530448Y-98189035D01*
X53564120Y-98290051D01*
X53665135Y-98458409D01*
X53766150Y-98559425D01*
X53934509Y-98660440D01*
X54035524Y-98694112D01*
X54170211Y-98694112D01*
X54304898Y-98626768D01*
X54372242Y-98559425D01*
X54439585Y-98424738D01*
X54439585Y-98357394D01*
X54203883Y-98121692D01*
X54069196Y-98256379D01*
X54809974Y-98121692D02*
X54102868Y-97414585D01*
X54271226Y-97246226D01*
X54405913Y-97178883D01*
X54540600Y-97178883D01*
X54641616Y-97212555D01*
X54809974Y-97313570D01*
X54910990Y-97414585D01*
X55012005Y-97582944D01*
X55045677Y-97683959D01*
X55045677Y-97818646D01*
X54978333Y-97953333D01*
X54809974Y-98121692D01*
X55887470Y-97044196D02*
X55483409Y-97448257D01*
X55685440Y-97246226D02*
X54978333Y-96539120D01*
X55012005Y-96707478D01*
X55012005Y-96842165D01*
X54978333Y-96943181D01*
%TO.C,J9*%
X62491666Y-102782380D02*
X62491666Y-103496666D01*
X62444047Y-103639523D01*
X62348809Y-103734761D01*
X62205952Y-103782380D01*
X62110714Y-103782380D01*
X63015476Y-103782380D02*
X63205952Y-103782380D01*
X63301190Y-103734761D01*
X63348809Y-103687142D01*
X63444047Y-103544285D01*
X63491666Y-103353809D01*
X63491666Y-102972857D01*
X63444047Y-102877619D01*
X63396428Y-102830000D01*
X63301190Y-102782380D01*
X63110714Y-102782380D01*
X63015476Y-102830000D01*
X62967857Y-102877619D01*
X62920238Y-102972857D01*
X62920238Y-103210952D01*
X62967857Y-103306190D01*
X63015476Y-103353809D01*
X63110714Y-103401428D01*
X63301190Y-103401428D01*
X63396428Y-103353809D01*
X63444047Y-103306190D01*
X63491666Y-103210952D01*
%TO.C,R8*%
X44333333Y-61382380D02*
X44000000Y-60906190D01*
X43761904Y-61382380D02*
X43761904Y-60382380D01*
X44142857Y-60382380D01*
X44238095Y-60430000D01*
X44285714Y-60477619D01*
X44333333Y-60572857D01*
X44333333Y-60715714D01*
X44285714Y-60810952D01*
X44238095Y-60858571D01*
X44142857Y-60906190D01*
X43761904Y-60906190D01*
X44904761Y-60810952D02*
X44809523Y-60763333D01*
X44761904Y-60715714D01*
X44714285Y-60620476D01*
X44714285Y-60572857D01*
X44761904Y-60477619D01*
X44809523Y-60430000D01*
X44904761Y-60382380D01*
X45095238Y-60382380D01*
X45190476Y-60430000D01*
X45238095Y-60477619D01*
X45285714Y-60572857D01*
X45285714Y-60620476D01*
X45238095Y-60715714D01*
X45190476Y-60763333D01*
X45095238Y-60810952D01*
X44904761Y-60810952D01*
X44809523Y-60858571D01*
X44761904Y-60906190D01*
X44714285Y-61001428D01*
X44714285Y-61191904D01*
X44761904Y-61287142D01*
X44809523Y-61334761D01*
X44904761Y-61382380D01*
X45095238Y-61382380D01*
X45190476Y-61334761D01*
X45238095Y-61287142D01*
X45285714Y-61191904D01*
X45285714Y-61001428D01*
X45238095Y-60906190D01*
X45190476Y-60858571D01*
X45095238Y-60810952D01*
%TO.C,J3*%
X54166666Y-56452380D02*
X54166666Y-57166666D01*
X54119047Y-57309523D01*
X54023809Y-57404761D01*
X53880952Y-57452380D01*
X53785714Y-57452380D01*
X54547619Y-56452380D02*
X55166666Y-56452380D01*
X54833333Y-56833333D01*
X54976190Y-56833333D01*
X55071428Y-56880952D01*
X55119047Y-56928571D01*
X55166666Y-57023809D01*
X55166666Y-57261904D01*
X55119047Y-57357142D01*
X55071428Y-57404761D01*
X54976190Y-57452380D01*
X54690476Y-57452380D01*
X54595238Y-57404761D01*
X54547619Y-57357142D01*
%TO.C,C19*%
X46607142Y-95933437D02*
X46654761Y-95981056D01*
X46702380Y-96123913D01*
X46702380Y-96219151D01*
X46654761Y-96362008D01*
X46559523Y-96457246D01*
X46464285Y-96504865D01*
X46273809Y-96552484D01*
X46130952Y-96552484D01*
X45940476Y-96504865D01*
X45845238Y-96457246D01*
X45750000Y-96362008D01*
X45702380Y-96219151D01*
X45702380Y-96123913D01*
X45750000Y-95981056D01*
X45797619Y-95933437D01*
X46702380Y-94981056D02*
X46702380Y-95552484D01*
X46702380Y-95266770D02*
X45702380Y-95266770D01*
X45845238Y-95362008D01*
X45940476Y-95457246D01*
X45988095Y-95552484D01*
X46702380Y-94504865D02*
X46702380Y-94314389D01*
X46654761Y-94219151D01*
X46607142Y-94171532D01*
X46464285Y-94076294D01*
X46273809Y-94028675D01*
X45892857Y-94028675D01*
X45797619Y-94076294D01*
X45750000Y-94123913D01*
X45702380Y-94219151D01*
X45702380Y-94409627D01*
X45750000Y-94504865D01*
X45797619Y-94552484D01*
X45892857Y-94600103D01*
X46130952Y-94600103D01*
X46226190Y-94552484D01*
X46273809Y-94504865D01*
X46321428Y-94409627D01*
X46321428Y-94219151D01*
X46273809Y-94123913D01*
X46226190Y-94076294D01*
X46130952Y-94028675D01*
%TO.C,R9*%
X45083333Y-71452380D02*
X44750000Y-70976190D01*
X44511904Y-71452380D02*
X44511904Y-70452380D01*
X44892857Y-70452380D01*
X44988095Y-70500000D01*
X45035714Y-70547619D01*
X45083333Y-70642857D01*
X45083333Y-70785714D01*
X45035714Y-70880952D01*
X44988095Y-70928571D01*
X44892857Y-70976190D01*
X44511904Y-70976190D01*
X45559523Y-71452380D02*
X45750000Y-71452380D01*
X45845238Y-71404761D01*
X45892857Y-71357142D01*
X45988095Y-71214285D01*
X46035714Y-71023809D01*
X46035714Y-70642857D01*
X45988095Y-70547619D01*
X45940476Y-70500000D01*
X45845238Y-70452380D01*
X45654761Y-70452380D01*
X45559523Y-70500000D01*
X45511904Y-70547619D01*
X45464285Y-70642857D01*
X45464285Y-70880952D01*
X45511904Y-70976190D01*
X45559523Y-71023809D01*
X45654761Y-71071428D01*
X45845238Y-71071428D01*
X45940476Y-71023809D01*
X45988095Y-70976190D01*
X46035714Y-70880952D01*
%TO.C,R1*%
X91333333Y-75702380D02*
X91000000Y-75226190D01*
X90761904Y-75702380D02*
X90761904Y-74702380D01*
X91142857Y-74702380D01*
X91238095Y-74750000D01*
X91285714Y-74797619D01*
X91333333Y-74892857D01*
X91333333Y-75035714D01*
X91285714Y-75130952D01*
X91238095Y-75178571D01*
X91142857Y-75226190D01*
X90761904Y-75226190D01*
X92285714Y-75702380D02*
X91714285Y-75702380D01*
X92000000Y-75702380D02*
X92000000Y-74702380D01*
X91904761Y-74845238D01*
X91809523Y-74940476D01*
X91714285Y-74988095D01*
%TO.C,U6*%
X36238095Y-51702380D02*
X36238095Y-52511904D01*
X36285714Y-52607142D01*
X36333333Y-52654761D01*
X36428571Y-52702380D01*
X36619047Y-52702380D01*
X36714285Y-52654761D01*
X36761904Y-52607142D01*
X36809523Y-52511904D01*
X36809523Y-51702380D01*
X37714285Y-51702380D02*
X37523809Y-51702380D01*
X37428571Y-51750000D01*
X37380952Y-51797619D01*
X37285714Y-51940476D01*
X37238095Y-52130952D01*
X37238095Y-52511904D01*
X37285714Y-52607142D01*
X37333333Y-52654761D01*
X37428571Y-52702380D01*
X37619047Y-52702380D01*
X37714285Y-52654761D01*
X37761904Y-52607142D01*
X37809523Y-52511904D01*
X37809523Y-52273809D01*
X37761904Y-52178571D01*
X37714285Y-52130952D01*
X37619047Y-52083333D01*
X37428571Y-52083333D01*
X37333333Y-52130952D01*
X37285714Y-52178571D01*
X37238095Y-52273809D01*
%TO.C,D3*%
X83062105Y-73092380D02*
X83062105Y-72092380D01*
X83300201Y-72092380D01*
X83443058Y-72140000D01*
X83538296Y-72235238D01*
X83585915Y-72330476D01*
X83633534Y-72520952D01*
X83633534Y-72663809D01*
X83585915Y-72854285D01*
X83538296Y-72949523D01*
X83443058Y-73044761D01*
X83300201Y-73092380D01*
X83062105Y-73092380D01*
X83966867Y-72092380D02*
X84585915Y-72092380D01*
X84252581Y-72473333D01*
X84395439Y-72473333D01*
X84490677Y-72520952D01*
X84538296Y-72568571D01*
X84585915Y-72663809D01*
X84585915Y-72901904D01*
X84538296Y-72997142D01*
X84490677Y-73044761D01*
X84395439Y-73092380D01*
X84109724Y-73092380D01*
X84014486Y-73044761D01*
X83966867Y-72997142D01*
%TO.C,J4*%
X49297619Y-68016666D02*
X48583333Y-68016666D01*
X48440476Y-67969047D01*
X48345238Y-67873809D01*
X48297619Y-67730952D01*
X48297619Y-67635714D01*
X48964285Y-68921428D02*
X48297619Y-68921428D01*
X49345238Y-68683333D02*
X48630952Y-68445238D01*
X48630952Y-69064285D01*
%TO.C,C6*%
X78607142Y-70666666D02*
X78654761Y-70714285D01*
X78702380Y-70857142D01*
X78702380Y-70952380D01*
X78654761Y-71095238D01*
X78559523Y-71190476D01*
X78464285Y-71238095D01*
X78273809Y-71285714D01*
X78130952Y-71285714D01*
X77940476Y-71238095D01*
X77845238Y-71190476D01*
X77750000Y-71095238D01*
X77702380Y-70952380D01*
X77702380Y-70857142D01*
X77750000Y-70714285D01*
X77797619Y-70666666D01*
X77702380Y-69809523D02*
X77702380Y-70000000D01*
X77750000Y-70095238D01*
X77797619Y-70142857D01*
X77940476Y-70238095D01*
X78130952Y-70285714D01*
X78511904Y-70285714D01*
X78607142Y-70238095D01*
X78654761Y-70190476D01*
X78702380Y-70095238D01*
X78702380Y-69904761D01*
X78654761Y-69809523D01*
X78607142Y-69761904D01*
X78511904Y-69714285D01*
X78273809Y-69714285D01*
X78178571Y-69761904D01*
X78130952Y-69809523D01*
X78083333Y-69904761D01*
X78083333Y-70095238D01*
X78130952Y-70190476D01*
X78178571Y-70238095D01*
X78273809Y-70285714D01*
%TO.C,C8*%
X64107142Y-54274502D02*
X64154761Y-54322121D01*
X64202380Y-54464978D01*
X64202380Y-54560216D01*
X64154761Y-54703074D01*
X64059523Y-54798312D01*
X63964285Y-54845931D01*
X63773809Y-54893550D01*
X63630952Y-54893550D01*
X63440476Y-54845931D01*
X63345238Y-54798312D01*
X63250000Y-54703074D01*
X63202380Y-54560216D01*
X63202380Y-54464978D01*
X63250000Y-54322121D01*
X63297619Y-54274502D01*
X63630952Y-53703074D02*
X63583333Y-53798312D01*
X63535714Y-53845931D01*
X63440476Y-53893550D01*
X63392857Y-53893550D01*
X63297619Y-53845931D01*
X63250000Y-53798312D01*
X63202380Y-53703074D01*
X63202380Y-53512597D01*
X63250000Y-53417359D01*
X63297619Y-53369740D01*
X63392857Y-53322121D01*
X63440476Y-53322121D01*
X63535714Y-53369740D01*
X63583333Y-53417359D01*
X63630952Y-53512597D01*
X63630952Y-53703074D01*
X63678571Y-53798312D01*
X63726190Y-53845931D01*
X63821428Y-53893550D01*
X64011904Y-53893550D01*
X64107142Y-53845931D01*
X64154761Y-53798312D01*
X64202380Y-53703074D01*
X64202380Y-53512597D01*
X64154761Y-53417359D01*
X64107142Y-53369740D01*
X64011904Y-53322121D01*
X63821428Y-53322121D01*
X63726190Y-53369740D01*
X63678571Y-53417359D01*
X63630952Y-53512597D01*
%TO.C,R18*%
X29357142Y-75452380D02*
X29023809Y-74976190D01*
X28785714Y-75452380D02*
X28785714Y-74452380D01*
X29166666Y-74452380D01*
X29261904Y-74500000D01*
X29309523Y-74547619D01*
X29357142Y-74642857D01*
X29357142Y-74785714D01*
X29309523Y-74880952D01*
X29261904Y-74928571D01*
X29166666Y-74976190D01*
X28785714Y-74976190D01*
X30309523Y-75452380D02*
X29738095Y-75452380D01*
X30023809Y-75452380D02*
X30023809Y-74452380D01*
X29928571Y-74595238D01*
X29833333Y-74690476D01*
X29738095Y-74738095D01*
X30880952Y-74880952D02*
X30785714Y-74833333D01*
X30738095Y-74785714D01*
X30690476Y-74690476D01*
X30690476Y-74642857D01*
X30738095Y-74547619D01*
X30785714Y-74500000D01*
X30880952Y-74452380D01*
X31071428Y-74452380D01*
X31166666Y-74500000D01*
X31214285Y-74547619D01*
X31261904Y-74642857D01*
X31261904Y-74690476D01*
X31214285Y-74785714D01*
X31166666Y-74833333D01*
X31071428Y-74880952D01*
X30880952Y-74880952D01*
X30785714Y-74928571D01*
X30738095Y-74976190D01*
X30690476Y-75071428D01*
X30690476Y-75261904D01*
X30738095Y-75357142D01*
X30785714Y-75404761D01*
X30880952Y-75452380D01*
X31071428Y-75452380D01*
X31166666Y-75404761D01*
X31214285Y-75357142D01*
X31261904Y-75261904D01*
X31261904Y-75071428D01*
X31214285Y-74976190D01*
X31166666Y-74928571D01*
X31071428Y-74880952D01*
%TO.C,D9*%
X49261904Y-39452380D02*
X49261904Y-38452380D01*
X49500000Y-38452380D01*
X49642857Y-38500000D01*
X49738095Y-38595238D01*
X49785714Y-38690476D01*
X49833333Y-38880952D01*
X49833333Y-39023809D01*
X49785714Y-39214285D01*
X49738095Y-39309523D01*
X49642857Y-39404761D01*
X49500000Y-39452380D01*
X49261904Y-39452380D01*
X50309523Y-39452380D02*
X50500000Y-39452380D01*
X50595238Y-39404761D01*
X50642857Y-39357142D01*
X50738095Y-39214285D01*
X50785714Y-39023809D01*
X50785714Y-38642857D01*
X50738095Y-38547619D01*
X50690476Y-38500000D01*
X50595238Y-38452380D01*
X50404761Y-38452380D01*
X50309523Y-38500000D01*
X50261904Y-38547619D01*
X50214285Y-38642857D01*
X50214285Y-38880952D01*
X50261904Y-38976190D01*
X50309523Y-39023809D01*
X50404761Y-39071428D01*
X50595238Y-39071428D01*
X50690476Y-39023809D01*
X50738095Y-38976190D01*
X50785714Y-38880952D01*
%TO.C,R14*%
X81952380Y-57142857D02*
X81476190Y-57476190D01*
X81952380Y-57714285D02*
X80952380Y-57714285D01*
X80952380Y-57333333D01*
X81000000Y-57238095D01*
X81047619Y-57190476D01*
X81142857Y-57142857D01*
X81285714Y-57142857D01*
X81380952Y-57190476D01*
X81428571Y-57238095D01*
X81476190Y-57333333D01*
X81476190Y-57714285D01*
X81952380Y-56190476D02*
X81952380Y-56761904D01*
X81952380Y-56476190D02*
X80952380Y-56476190D01*
X81095238Y-56571428D01*
X81190476Y-56666666D01*
X81238095Y-56761904D01*
X81285714Y-55333333D02*
X81952380Y-55333333D01*
X80904761Y-55571428D02*
X81619047Y-55809523D01*
X81619047Y-55190476D01*
%TO.C,R7*%
X75508333Y-75882380D02*
X75175000Y-75406190D01*
X74936904Y-75882380D02*
X74936904Y-74882380D01*
X75317857Y-74882380D01*
X75413095Y-74930000D01*
X75460714Y-74977619D01*
X75508333Y-75072857D01*
X75508333Y-75215714D01*
X75460714Y-75310952D01*
X75413095Y-75358571D01*
X75317857Y-75406190D01*
X74936904Y-75406190D01*
X75841666Y-74882380D02*
X76508333Y-74882380D01*
X76079761Y-75882380D01*
%TO.C,C18*%
X48041562Y-103607142D02*
X47993943Y-103654761D01*
X47851086Y-103702380D01*
X47755848Y-103702380D01*
X47612991Y-103654761D01*
X47517753Y-103559523D01*
X47470134Y-103464285D01*
X47422515Y-103273809D01*
X47422515Y-103130952D01*
X47470134Y-102940476D01*
X47517753Y-102845238D01*
X47612991Y-102750000D01*
X47755848Y-102702380D01*
X47851086Y-102702380D01*
X47993943Y-102750000D01*
X48041562Y-102797619D01*
X48993943Y-103702380D02*
X48422515Y-103702380D01*
X48708229Y-103702380D02*
X48708229Y-102702380D01*
X48612991Y-102845238D01*
X48517753Y-102940476D01*
X48422515Y-102988095D01*
X49565372Y-103130952D02*
X49470134Y-103083333D01*
X49422515Y-103035714D01*
X49374896Y-102940476D01*
X49374896Y-102892857D01*
X49422515Y-102797619D01*
X49470134Y-102750000D01*
X49565372Y-102702380D01*
X49755848Y-102702380D01*
X49851086Y-102750000D01*
X49898705Y-102797619D01*
X49946324Y-102892857D01*
X49946324Y-102940476D01*
X49898705Y-103035714D01*
X49851086Y-103083333D01*
X49755848Y-103130952D01*
X49565372Y-103130952D01*
X49470134Y-103178571D01*
X49422515Y-103226190D01*
X49374896Y-103321428D01*
X49374896Y-103511904D01*
X49422515Y-103607142D01*
X49470134Y-103654761D01*
X49565372Y-103702380D01*
X49755848Y-103702380D01*
X49851086Y-103654761D01*
X49898705Y-103607142D01*
X49946324Y-103511904D01*
X49946324Y-103321428D01*
X49898705Y-103226190D01*
X49851086Y-103178571D01*
X49755848Y-103130952D01*
%TO.C,C14*%
X41607142Y-54642857D02*
X41654761Y-54690476D01*
X41702380Y-54833333D01*
X41702380Y-54928571D01*
X41654761Y-55071428D01*
X41559523Y-55166666D01*
X41464285Y-55214285D01*
X41273809Y-55261904D01*
X41130952Y-55261904D01*
X40940476Y-55214285D01*
X40845238Y-55166666D01*
X40750000Y-55071428D01*
X40702380Y-54928571D01*
X40702380Y-54833333D01*
X40750000Y-54690476D01*
X40797619Y-54642857D01*
X41702380Y-53690476D02*
X41702380Y-54261904D01*
X41702380Y-53976190D02*
X40702380Y-53976190D01*
X40845238Y-54071428D01*
X40940476Y-54166666D01*
X40988095Y-54261904D01*
X41035714Y-52833333D02*
X41702380Y-52833333D01*
X40654761Y-53071428D02*
X41369047Y-53309523D01*
X41369047Y-52690476D01*
%TO.C,R22*%
X29607142Y-52452380D02*
X29273809Y-51976190D01*
X29035714Y-52452380D02*
X29035714Y-51452380D01*
X29416666Y-51452380D01*
X29511904Y-51500000D01*
X29559523Y-51547619D01*
X29607142Y-51642857D01*
X29607142Y-51785714D01*
X29559523Y-51880952D01*
X29511904Y-51928571D01*
X29416666Y-51976190D01*
X29035714Y-51976190D01*
X29988095Y-51547619D02*
X30035714Y-51500000D01*
X30130952Y-51452380D01*
X30369047Y-51452380D01*
X30464285Y-51500000D01*
X30511904Y-51547619D01*
X30559523Y-51642857D01*
X30559523Y-51738095D01*
X30511904Y-51880952D01*
X29940476Y-52452380D01*
X30559523Y-52452380D01*
X30940476Y-51547619D02*
X30988095Y-51500000D01*
X31083333Y-51452380D01*
X31321428Y-51452380D01*
X31416666Y-51500000D01*
X31464285Y-51547619D01*
X31511904Y-51642857D01*
X31511904Y-51738095D01*
X31464285Y-51880952D01*
X30892857Y-52452380D01*
X31511904Y-52452380D01*
%TO.C,C17*%
X54182142Y-101857142D02*
X54134523Y-101904761D01*
X53991666Y-101952380D01*
X53896428Y-101952380D01*
X53753571Y-101904761D01*
X53658333Y-101809523D01*
X53610714Y-101714285D01*
X53563095Y-101523809D01*
X53563095Y-101380952D01*
X53610714Y-101190476D01*
X53658333Y-101095238D01*
X53753571Y-101000000D01*
X53896428Y-100952380D01*
X53991666Y-100952380D01*
X54134523Y-101000000D01*
X54182142Y-101047619D01*
X55134523Y-101952380D02*
X54563095Y-101952380D01*
X54848809Y-101952380D02*
X54848809Y-100952380D01*
X54753571Y-101095238D01*
X54658333Y-101190476D01*
X54563095Y-101238095D01*
X55467857Y-100952380D02*
X56134523Y-100952380D01*
X55705952Y-101952380D01*
%TO.C,C23*%
X39857142Y-82892857D02*
X39904761Y-82940476D01*
X39952380Y-83083333D01*
X39952380Y-83178571D01*
X39904761Y-83321428D01*
X39809523Y-83416666D01*
X39714285Y-83464285D01*
X39523809Y-83511904D01*
X39380952Y-83511904D01*
X39190476Y-83464285D01*
X39095238Y-83416666D01*
X39000000Y-83321428D01*
X38952380Y-83178571D01*
X38952380Y-83083333D01*
X39000000Y-82940476D01*
X39047619Y-82892857D01*
X39047619Y-82511904D02*
X39000000Y-82464285D01*
X38952380Y-82369047D01*
X38952380Y-82130952D01*
X39000000Y-82035714D01*
X39047619Y-81988095D01*
X39142857Y-81940476D01*
X39238095Y-81940476D01*
X39380952Y-81988095D01*
X39952380Y-82559523D01*
X39952380Y-81940476D01*
X38952380Y-81607142D02*
X38952380Y-80988095D01*
X39333333Y-81321428D01*
X39333333Y-81178571D01*
X39380952Y-81083333D01*
X39428571Y-81035714D01*
X39523809Y-80988095D01*
X39761904Y-80988095D01*
X39857142Y-81035714D01*
X39904761Y-81083333D01*
X39952380Y-81178571D01*
X39952380Y-81464285D01*
X39904761Y-81559523D01*
X39857142Y-81607142D01*
%TO.C,J13*%
X16402380Y-95481023D02*
X17116666Y-95481023D01*
X17259523Y-95528642D01*
X17354761Y-95623880D01*
X17402380Y-95766738D01*
X17402380Y-95861976D01*
X17402380Y-94481023D02*
X17402380Y-95052452D01*
X17402380Y-94766738D02*
X16402380Y-94766738D01*
X16545238Y-94861976D01*
X16640476Y-94957214D01*
X16688095Y-95052452D01*
X16402380Y-94147690D02*
X16402380Y-93528642D01*
X16783333Y-93861976D01*
X16783333Y-93719119D01*
X16830952Y-93623880D01*
X16878571Y-93576261D01*
X16973809Y-93528642D01*
X17211904Y-93528642D01*
X17307142Y-93576261D01*
X17354761Y-93623880D01*
X17402380Y-93719119D01*
X17402380Y-94004833D01*
X17354761Y-94100071D01*
X17307142Y-94147690D01*
X20207142Y-98409595D02*
X20254761Y-98457214D01*
X20302380Y-98600071D01*
X20302380Y-98695309D01*
X20254761Y-98838166D01*
X20159523Y-98933404D01*
X20064285Y-98981023D01*
X19873809Y-99028642D01*
X19730952Y-99028642D01*
X19540476Y-98981023D01*
X19445238Y-98933404D01*
X19350000Y-98838166D01*
X19302380Y-98695309D01*
X19302380Y-98600071D01*
X19350000Y-98457214D01*
X19397619Y-98409595D01*
X20302380Y-97838166D02*
X20254761Y-97933404D01*
X20207142Y-97981023D01*
X20111904Y-98028642D01*
X19826190Y-98028642D01*
X19730952Y-97981023D01*
X19683333Y-97933404D01*
X19635714Y-97838166D01*
X19635714Y-97695309D01*
X19683333Y-97600071D01*
X19730952Y-97552452D01*
X19826190Y-97504833D01*
X20111904Y-97504833D01*
X20207142Y-97552452D01*
X20254761Y-97600071D01*
X20302380Y-97695309D01*
X20302380Y-97838166D01*
X19635714Y-97076261D02*
X20302380Y-97076261D01*
X19730952Y-97076261D02*
X19683333Y-97028642D01*
X19635714Y-96933404D01*
X19635714Y-96790547D01*
X19683333Y-96695309D01*
X19778571Y-96647690D01*
X20302380Y-96647690D01*
X19635714Y-96171500D02*
X20302380Y-96171500D01*
X19730952Y-96171500D02*
X19683333Y-96123880D01*
X19635714Y-96028642D01*
X19635714Y-95885785D01*
X19683333Y-95790547D01*
X19778571Y-95742928D01*
X20302380Y-95742928D01*
X20397619Y-95504833D02*
X20397619Y-94742928D01*
X19302380Y-94314357D02*
X19302380Y-94219119D01*
X19350000Y-94123880D01*
X19397619Y-94076261D01*
X19492857Y-94028642D01*
X19683333Y-93981023D01*
X19921428Y-93981023D01*
X20111904Y-94028642D01*
X20207142Y-94076261D01*
X20254761Y-94123880D01*
X20302380Y-94219119D01*
X20302380Y-94314357D01*
X20254761Y-94409595D01*
X20207142Y-94457214D01*
X20111904Y-94504833D01*
X19921428Y-94552452D01*
X19683333Y-94552452D01*
X19492857Y-94504833D01*
X19397619Y-94457214D01*
X19350000Y-94409595D01*
X19302380Y-94314357D01*
X20302380Y-93028642D02*
X20302380Y-93600071D01*
X20302380Y-93314357D02*
X19302380Y-93314357D01*
X19445238Y-93409595D01*
X19540476Y-93504833D01*
X19588095Y-93600071D01*
X20302380Y-92695309D02*
X19635714Y-92171500D01*
X19635714Y-92695309D02*
X20302380Y-92171500D01*
X19302380Y-91600071D02*
X19302380Y-91504833D01*
X19350000Y-91409595D01*
X19397619Y-91361976D01*
X19492857Y-91314357D01*
X19683333Y-91266738D01*
X19921428Y-91266738D01*
X20111904Y-91314357D01*
X20207142Y-91361976D01*
X20254761Y-91409595D01*
X20302380Y-91504833D01*
X20302380Y-91600071D01*
X20254761Y-91695309D01*
X20207142Y-91742928D01*
X20111904Y-91790547D01*
X19921428Y-91838166D01*
X19683333Y-91838166D01*
X19492857Y-91790547D01*
X19397619Y-91742928D01*
X19350000Y-91695309D01*
X19302380Y-91600071D01*
X19302380Y-90361976D02*
X19302380Y-90838166D01*
X19778571Y-90885785D01*
X19730952Y-90838166D01*
X19683333Y-90742928D01*
X19683333Y-90504833D01*
X19730952Y-90409595D01*
X19778571Y-90361976D01*
X19873809Y-90314357D01*
X20111904Y-90314357D01*
X20207142Y-90361976D01*
X20254761Y-90409595D01*
X20302380Y-90504833D01*
X20302380Y-90742928D01*
X20254761Y-90838166D01*
X20207142Y-90885785D01*
X21102380Y-92771500D02*
X21340476Y-92771500D01*
X21245238Y-93009595D02*
X21340476Y-92771500D01*
X21245238Y-92533404D01*
X21530952Y-92914357D02*
X21340476Y-92771500D01*
X21530952Y-92628642D01*
%TO.C,SW2*%
X91654761Y-63583333D02*
X91702380Y-63440476D01*
X91702380Y-63202380D01*
X91654761Y-63107142D01*
X91607142Y-63059523D01*
X91511904Y-63011904D01*
X91416666Y-63011904D01*
X91321428Y-63059523D01*
X91273809Y-63107142D01*
X91226190Y-63202380D01*
X91178571Y-63392857D01*
X91130952Y-63488095D01*
X91083333Y-63535714D01*
X90988095Y-63583333D01*
X90892857Y-63583333D01*
X90797619Y-63535714D01*
X90750000Y-63488095D01*
X90702380Y-63392857D01*
X90702380Y-63154761D01*
X90750000Y-63011904D01*
X90702380Y-62678571D02*
X91702380Y-62440476D01*
X90988095Y-62250000D01*
X91702380Y-62059523D01*
X90702380Y-61821428D01*
X90797619Y-61488095D02*
X90750000Y-61440476D01*
X90702380Y-61345238D01*
X90702380Y-61107142D01*
X90750000Y-61011904D01*
X90797619Y-60964285D01*
X90892857Y-60916666D01*
X90988095Y-60916666D01*
X91130952Y-60964285D01*
X91702380Y-61535714D01*
X91702380Y-60916666D01*
D13*
%TO.C,C7*%
X62660201Y-69102164D02*
X62660201Y-69317836D01*
X61940201Y-69102164D02*
X61940201Y-69317836D01*
%TO.C,FB1*%
X77727500Y-59762742D02*
X77727500Y-60237258D01*
X78772500Y-59762742D02*
X78772500Y-60237258D01*
%TO.C,J2*%
X52250000Y-64925000D02*
X52250000Y-64625000D01*
X53350000Y-58375000D02*
X53350000Y-58675000D01*
X53350000Y-64625000D02*
X53350000Y-64325000D01*
X51500000Y-58375000D02*
X50500000Y-58375000D01*
X52250000Y-64625000D02*
X53350000Y-64625000D01*
X53350000Y-64325000D02*
X53800000Y-64325000D01*
X53350000Y-59875000D02*
X53650000Y-59875000D01*
X50500000Y-58375000D02*
X50500000Y-64625000D01*
X53350000Y-62375000D02*
X53650000Y-62375000D01*
X52250000Y-58375000D02*
X53350000Y-58375000D01*
X49890000Y-57765000D02*
X49890000Y-59675000D01*
X53650000Y-62375000D02*
X53650000Y-63125000D01*
X51800000Y-57765000D02*
X49890000Y-57765000D01*
X51500000Y-58075000D02*
X51500000Y-58375000D01*
X53350000Y-58675000D02*
X53350000Y-59875000D01*
X50200000Y-64925000D02*
X53800000Y-64925000D01*
X53350000Y-60625000D02*
X53350000Y-62375000D01*
X53800000Y-58075000D02*
X50200000Y-58075000D01*
X53650000Y-59875000D02*
X53650000Y-60625000D01*
X50500000Y-64625000D02*
X51500000Y-64625000D01*
X53650000Y-60625000D02*
X53350000Y-60625000D01*
X53650000Y-63125000D02*
X53350000Y-63125000D01*
X53350000Y-63125000D02*
X53350000Y-64325000D01*
X51500000Y-64625000D02*
X51500000Y-64925000D01*
X52250000Y-58075000D02*
X52250000Y-58375000D01*
X53350000Y-58675000D02*
X53800000Y-58675000D01*
X50200000Y-58075000D02*
X50200000Y-64925000D01*
X53800000Y-64925000D02*
X53800000Y-58075000D01*
%TO.C,R5*%
X84762742Y-65522500D02*
X85237258Y-65522500D01*
X84762742Y-64477500D02*
X85237258Y-64477500D01*
%TO.C,R10*%
X33762742Y-69977500D02*
X34237258Y-69977500D01*
X33762742Y-71022500D02*
X34237258Y-71022500D01*
%TO.C,C22*%
X41010000Y-31359420D02*
X41010000Y-31640580D01*
X39990000Y-31359420D02*
X39990000Y-31640580D01*
%TO.C,J6*%
X72000000Y-77825000D02*
X72000000Y-78125000D01*
X73850000Y-78425000D02*
X74300000Y-78425000D01*
X73850000Y-79625000D02*
X74150000Y-79625000D01*
X72750000Y-87175000D02*
X72750000Y-86875000D01*
X71000000Y-86875000D02*
X72000000Y-86875000D01*
X74150000Y-84625000D02*
X74150000Y-85375000D01*
X70700000Y-77825000D02*
X70700000Y-87175000D01*
X73850000Y-78425000D02*
X73850000Y-79625000D01*
X72750000Y-77825000D02*
X72750000Y-78125000D01*
X73850000Y-84625000D02*
X74150000Y-84625000D01*
X71000000Y-78125000D02*
X71000000Y-86875000D01*
X73850000Y-78125000D02*
X73850000Y-78425000D01*
X72300000Y-77515000D02*
X70390000Y-77515000D01*
X72750000Y-86875000D02*
X73850000Y-86875000D01*
X72000000Y-86875000D02*
X72000000Y-87175000D01*
X74150000Y-85375000D02*
X73850000Y-85375000D01*
X72000000Y-78125000D02*
X71000000Y-78125000D01*
X74150000Y-79625000D02*
X74150000Y-80375000D01*
X72750000Y-78125000D02*
X73850000Y-78125000D01*
X74300000Y-87175000D02*
X74300000Y-77825000D01*
X70390000Y-77515000D02*
X70390000Y-79425000D01*
X74300000Y-77825000D02*
X70700000Y-77825000D01*
X70700000Y-87175000D02*
X74300000Y-87175000D01*
X73850000Y-86575000D02*
X74300000Y-86575000D01*
X73850000Y-85375000D02*
X73850000Y-86575000D01*
X74150000Y-80375000D02*
X73850000Y-80375000D01*
X73850000Y-86875000D02*
X73850000Y-86575000D01*
X73850000Y-80375000D02*
X73850000Y-84625000D01*
%TO.C,R2*%
X88037459Y-73732500D02*
X87562943Y-73732500D01*
X88037459Y-72687500D02*
X87562943Y-72687500D01*
%TO.C,R13*%
X36522500Y-57737258D02*
X36522500Y-57262742D01*
X35477500Y-57737258D02*
X35477500Y-57262742D01*
%TO.C,D2*%
X85285201Y-72475000D02*
X83000201Y-72475000D01*
X83000201Y-73945000D02*
X85285201Y-73945000D01*
X85285201Y-73945000D02*
X85285201Y-72475000D01*
%TO.C,C21*%
X43859420Y-40010000D02*
X44140580Y-40010000D01*
X43859420Y-38990000D02*
X44140580Y-38990000D01*
%TO.C,SW4*%
X88950000Y-53700000D02*
X84550000Y-53700000D01*
X84550000Y-55300000D02*
X84550000Y-55200000D01*
X88950000Y-55300000D02*
X88950000Y-55200000D01*
X84550000Y-56800000D02*
X88950000Y-56800000D01*
%TO.C,RV1*%
X107250000Y-36020000D02*
X108000000Y-35270000D01*
X106750000Y-88695000D02*
X106250000Y-88195000D01*
X103380000Y-32234000D02*
X103380000Y-27650000D01*
X103380000Y-27650000D02*
X105427000Y-27650000D01*
X110573000Y-87890000D02*
X112620000Y-87890000D01*
X106500000Y-35270000D02*
X109500000Y-35270000D01*
X108000000Y-35270000D02*
X108750000Y-36020000D01*
X108000000Y-80270000D02*
X108000000Y-35270000D01*
X112620000Y-31034000D02*
X112620000Y-27650000D01*
X112620000Y-81234000D02*
X112620000Y-34305000D01*
X107425000Y-87890000D02*
X108928000Y-87890000D01*
X107250000Y-79520000D02*
X108000000Y-80270000D01*
X112620000Y-87890000D02*
X112620000Y-84505000D01*
X105750000Y-88695000D02*
X106750000Y-88695000D01*
X107073000Y-27650000D02*
X112620000Y-27650000D01*
X108000000Y-80270000D02*
X108750000Y-79520000D01*
X103380000Y-80034000D02*
X103380000Y-35505000D01*
X103380000Y-87890000D02*
X103380000Y-83305000D01*
X106250000Y-88195000D02*
X105750000Y-88695000D01*
X106500000Y-80270000D02*
X109500000Y-80270000D01*
X103380000Y-87890000D02*
X105075000Y-87890000D01*
%TO.C,J10*%
X76170000Y-97915000D02*
X78830000Y-97915000D01*
X78830000Y-87695000D02*
X78830000Y-97915000D01*
X76170000Y-85095000D02*
X77500000Y-85095000D01*
X76170000Y-87695000D02*
X78830000Y-87695000D01*
X76170000Y-87695000D02*
X76170000Y-97915000D01*
X76170000Y-86425000D02*
X76170000Y-85095000D01*
%TO.C,R25*%
X32762742Y-54477500D02*
X33237258Y-54477500D01*
X32762742Y-55522500D02*
X33237258Y-55522500D01*
%TO.C,R26*%
X27485000Y-58710242D02*
X27485000Y-58289758D01*
X23515000Y-58710242D02*
X23515000Y-58289758D01*
%TO.C,C16*%
X37607836Y-71640000D02*
X37392164Y-71640000D01*
X37607836Y-72360000D02*
X37392164Y-72360000D01*
%TO.C,C15*%
X40360000Y-75607836D02*
X40360000Y-75392164D01*
X39640000Y-75607836D02*
X39640000Y-75392164D01*
%TO.C,SW5*%
X84550000Y-51800000D02*
X84550000Y-51700000D01*
X88950000Y-50200000D02*
X84550000Y-50200000D01*
X88950000Y-51800000D02*
X88950000Y-51700000D01*
X84550000Y-53300000D02*
X88950000Y-53300000D01*
%TO.C,U3*%
X58000000Y-51440000D02*
X56050000Y-51440000D01*
X58000000Y-56560000D02*
X56050000Y-56560000D01*
X58000000Y-56560000D02*
X61450000Y-56560000D01*
X58000000Y-51440000D02*
X59950000Y-51440000D01*
%TO.C,D13*%
X33515000Y-59265000D02*
X33515000Y-60735000D01*
X33515000Y-60735000D02*
X35800000Y-60735000D01*
X35800000Y-59265000D02*
X33515000Y-59265000D01*
%TO.C,D8*%
X48560000Y-96665000D02*
X47090000Y-96665000D01*
X48560000Y-98950000D02*
X48560000Y-96665000D01*
X47090000Y-96665000D02*
X47090000Y-98950000D01*
%TO.C,J12*%
X22975000Y-29396511D02*
X18345040Y-29396511D01*
X22975000Y-35901460D02*
X22975000Y-35641541D01*
X18345040Y-40146489D02*
X22975000Y-40146489D01*
X21915000Y-27618511D02*
X23185000Y-27618511D01*
X22550000Y-29142511D02*
X21915000Y-27618511D01*
X22975000Y-40146489D02*
X22975000Y-37641540D01*
X23185000Y-27618511D02*
X22550000Y-29142511D01*
X22975000Y-31901460D02*
X22975000Y-29396511D01*
X22975000Y-33901461D02*
X22975000Y-33641540D01*
X15025000Y-30855518D02*
X15025000Y-38687482D01*
%TO.C,D10*%
X46015000Y-40235000D02*
X48300000Y-40235000D01*
X48300000Y-38765000D02*
X46015000Y-38765000D01*
X46015000Y-38765000D02*
X46015000Y-40235000D01*
%TO.C,R23*%
X32762742Y-57022500D02*
X33237258Y-57022500D01*
X32762742Y-55977500D02*
X33237258Y-55977500D01*
%TO.C,J14*%
X32730000Y-61205000D02*
X34000000Y-61205000D01*
X35042929Y-67935000D02*
X35440000Y-67935000D01*
X35110000Y-62855000D02*
X35440000Y-62855000D01*
X32730000Y-62475000D02*
X32730000Y-61205000D01*
X44100000Y-64635000D02*
X44100000Y-65395000D01*
X38100000Y-62515000D02*
X44100000Y-62515000D01*
X38100000Y-62095000D02*
X44100000Y-62095000D01*
X44100000Y-62855000D02*
X38100000Y-62855000D01*
X35042929Y-65395000D02*
X35440000Y-65395000D01*
X44100000Y-67935000D02*
X38100000Y-67935000D01*
X38100000Y-67175000D02*
X44100000Y-67175000D01*
X35440000Y-66285000D02*
X38100000Y-66285000D01*
X35440000Y-63745000D02*
X38100000Y-63745000D01*
X38100000Y-64635000D02*
X44100000Y-64635000D01*
X35042929Y-67175000D02*
X35440000Y-67175000D01*
X38100000Y-62155000D02*
X44100000Y-62155000D01*
X38100000Y-62635000D02*
X44100000Y-62635000D01*
X38100000Y-61145000D02*
X35440000Y-61145000D01*
X38100000Y-62755000D02*
X44100000Y-62755000D01*
X44100000Y-62095000D02*
X44100000Y-62855000D01*
X35440000Y-68885000D02*
X38100000Y-68885000D01*
X38100000Y-62395000D02*
X44100000Y-62395000D01*
X38100000Y-68885000D02*
X38100000Y-61145000D01*
X44100000Y-65395000D02*
X38100000Y-65395000D01*
X35110000Y-62095000D02*
X35440000Y-62095000D01*
X38100000Y-62275000D02*
X44100000Y-62275000D01*
X35042929Y-64635000D02*
X35440000Y-64635000D01*
X44100000Y-67175000D02*
X44100000Y-67935000D01*
X35440000Y-61145000D02*
X35440000Y-68885000D01*
%TO.C,GD2*%
X49648115Y-32755115D02*
X49983991Y-32419239D01*
X47000000Y-29435248D02*
X47335876Y-29771124D01*
X47000000Y-35403230D02*
X46664124Y-35067354D01*
X44016009Y-32419239D02*
X44351885Y-32755115D01*
X44351885Y-32083363D02*
X44016009Y-32419239D01*
X47335876Y-35067354D02*
X47000000Y-35403230D01*
X46664124Y-29771124D02*
X47000000Y-29435248D01*
%TO.C,C9*%
X72140000Y-56412164D02*
X72140000Y-56627836D01*
X72860000Y-56412164D02*
X72860000Y-56627836D01*
%TO.C,D1*%
X85285201Y-74515000D02*
X83000201Y-74515000D01*
X85285201Y-75985000D02*
X85285201Y-74515000D01*
X83000201Y-75985000D02*
X85285201Y-75985000D01*
%TO.C,U5*%
X37000000Y-74440000D02*
X37800000Y-74440000D01*
X37000000Y-74440000D02*
X36200000Y-74440000D01*
X37000000Y-77560000D02*
X38800000Y-77560000D01*
X37000000Y-77560000D02*
X36200000Y-77560000D01*
%TO.C,C5*%
X66107836Y-58360000D02*
X65892164Y-58360000D01*
X66107836Y-57640000D02*
X65892164Y-57640000D01*
%TO.C,C11*%
X78610000Y-62607836D02*
X78610000Y-62392164D01*
X77890000Y-62607836D02*
X77890000Y-62392164D01*
%TO.C,TH2*%
X78022500Y-53737258D02*
X78022500Y-53262742D01*
X76977500Y-53737258D02*
X76977500Y-53262742D01*
%TO.C,J11*%
X19285000Y-70060000D02*
X24185000Y-70060000D01*
X14965000Y-70060000D02*
X17065000Y-70060000D01*
X17065000Y-70650000D02*
X17065000Y-70060000D01*
X19285000Y-70650000D02*
X19285000Y-70060000D01*
X14965000Y-70060000D02*
X14965000Y-59940000D01*
X17065000Y-59940000D02*
X17065000Y-59350000D01*
X19285000Y-59940000D02*
X19285000Y-59350000D01*
X24185000Y-70060000D02*
X24185000Y-59940000D01*
X19285000Y-59940000D02*
X24185000Y-59940000D01*
X14965000Y-59940000D02*
X17065000Y-59940000D01*
X17065000Y-70650000D02*
G75*
G03*
X19285000Y-70650000I1110000J0D01*
G01*
X19285000Y-59350000D02*
G75*
G03*
X17065000Y-59350000I-1110000J0D01*
G01*
%TO.C,J5*%
X71000000Y-88750000D02*
X71000000Y-97500000D01*
X74300000Y-97800000D02*
X74300000Y-88450000D01*
X74150000Y-91000000D02*
X73850000Y-91000000D01*
X74300000Y-88450000D02*
X70700000Y-88450000D01*
X70700000Y-88450000D02*
X70700000Y-97800000D01*
X70700000Y-97800000D02*
X74300000Y-97800000D01*
X74150000Y-90250000D02*
X74150000Y-91000000D01*
X74150000Y-96000000D02*
X73850000Y-96000000D01*
X72750000Y-88750000D02*
X73850000Y-88750000D01*
X72750000Y-97500000D02*
X73850000Y-97500000D01*
X73850000Y-89050000D02*
X73850000Y-90250000D01*
X72750000Y-97800000D02*
X72750000Y-97500000D01*
X73850000Y-89050000D02*
X74300000Y-89050000D01*
X73850000Y-97200000D02*
X74300000Y-97200000D01*
X74150000Y-95250000D02*
X74150000Y-96000000D01*
X73850000Y-91000000D02*
X73850000Y-95250000D01*
X72750000Y-88450000D02*
X72750000Y-88750000D01*
X72000000Y-97500000D02*
X72000000Y-97800000D01*
X71000000Y-97500000D02*
X72000000Y-97500000D01*
X73850000Y-95250000D02*
X74150000Y-95250000D01*
X70390000Y-88140000D02*
X70390000Y-90050000D01*
X73850000Y-97500000D02*
X73850000Y-97200000D01*
X72000000Y-88450000D02*
X72000000Y-88750000D01*
X72000000Y-88750000D02*
X71000000Y-88750000D01*
X72300000Y-88140000D02*
X70390000Y-88140000D01*
X73850000Y-96000000D02*
X73850000Y-97200000D01*
X73850000Y-88750000D02*
X73850000Y-89050000D01*
X73850000Y-90250000D02*
X74150000Y-90250000D01*
%TO.C,C12*%
X54459420Y-90660000D02*
X54740580Y-90660000D01*
X54459420Y-89640000D02*
X54740580Y-89640000D01*
%TO.C,C10*%
X73392164Y-72860000D02*
X73607836Y-72860000D01*
X73392164Y-72140000D02*
X73607836Y-72140000D01*
%TO.C,D6*%
X56340000Y-100885000D02*
X58625000Y-100885000D01*
X58625000Y-99415000D02*
X56340000Y-99415000D01*
X56340000Y-99415000D02*
X56340000Y-100885000D01*
%TO.C,TH1*%
X80022500Y-53737258D02*
X80022500Y-53262742D01*
X78977500Y-53737258D02*
X78977500Y-53262742D01*
%TO.C,R4*%
X88037459Y-77732500D02*
X87562943Y-77732500D01*
X88037459Y-76687500D02*
X87562943Y-76687500D01*
%TO.C,SW3*%
X88950000Y-58800000D02*
X88950000Y-58700000D01*
X84550000Y-60300000D02*
X88950000Y-60300000D01*
X88950000Y-57200000D02*
X84550000Y-57200000D01*
X84550000Y-58800000D02*
X84550000Y-58700000D01*
%TO.C,R24*%
X32762742Y-54022500D02*
X33237258Y-54022500D01*
X32762742Y-52977500D02*
X33237258Y-52977500D01*
%TO.C,R16*%
X32762742Y-72977500D02*
X33237258Y-72977500D01*
X32762742Y-74022500D02*
X33237258Y-74022500D01*
%TO.C,R3*%
X88037459Y-70687500D02*
X87562943Y-70687500D01*
X88037459Y-71732500D02*
X87562943Y-71732500D01*
%TO.C,C24*%
X38510000Y-57359420D02*
X38510000Y-57640580D01*
X37490000Y-57359420D02*
X37490000Y-57640580D01*
%TO.C,RV2*%
X95000000Y-80270000D02*
X95000000Y-35270000D01*
X94250000Y-79520000D02*
X95000000Y-80270000D01*
X99620000Y-31034000D02*
X99620000Y-27650000D01*
X95000000Y-35270000D02*
X95750000Y-36020000D01*
X93750000Y-88695000D02*
X93250000Y-88195000D01*
X92750000Y-88695000D02*
X93750000Y-88695000D01*
X90380000Y-27650000D02*
X92427000Y-27650000D01*
X93250000Y-88195000D02*
X92750000Y-88695000D01*
X94425000Y-87890000D02*
X95928000Y-87890000D01*
X90380000Y-32234000D02*
X90380000Y-27650000D01*
X90380000Y-87890000D02*
X90380000Y-83305000D01*
X97573000Y-87890000D02*
X99620000Y-87890000D01*
X90380000Y-80034000D02*
X90380000Y-35505000D01*
X94073000Y-27650000D02*
X99620000Y-27650000D01*
X99620000Y-81234000D02*
X99620000Y-34305000D01*
X90380000Y-87890000D02*
X92075000Y-87890000D01*
X93500000Y-80270000D02*
X96500000Y-80270000D01*
X94250000Y-36020000D02*
X95000000Y-35270000D01*
X95000000Y-80270000D02*
X95750000Y-79520000D01*
X99620000Y-87890000D02*
X99620000Y-84505000D01*
X93500000Y-35270000D02*
X96500000Y-35270000D01*
%TO.C,J1*%
X46170000Y-50995000D02*
X48830000Y-50995000D01*
X46170000Y-48395000D02*
X47500000Y-48395000D01*
X46170000Y-50995000D02*
X46170000Y-53595000D01*
X46170000Y-53595000D02*
X48830000Y-53595000D01*
X48830000Y-50995000D02*
X48830000Y-53595000D01*
X46170000Y-49725000D02*
X46170000Y-48395000D01*
%TO.C,D4*%
X85285201Y-76475000D02*
X83000201Y-76475000D01*
X83000201Y-77945000D02*
X85285201Y-77945000D01*
X85285201Y-77945000D02*
X85285201Y-76475000D01*
%TO.C,SW1*%
X84600201Y-67660000D02*
X84600201Y-67760000D01*
X89000201Y-66160000D02*
X84600201Y-66160000D01*
X89000201Y-67660000D02*
X89000201Y-67760000D01*
X84600201Y-69260000D02*
X89000201Y-69260000D01*
%TO.C,R19*%
X32762742Y-77022500D02*
X33237258Y-77022500D01*
X32762742Y-75977500D02*
X33237258Y-75977500D01*
%TO.C,D7*%
X50340000Y-102385000D02*
X52625000Y-102385000D01*
X52625000Y-100915000D02*
X50340000Y-100915000D01*
X50340000Y-100915000D02*
X50340000Y-102385000D01*
%TO.C,R17*%
X32762742Y-77477500D02*
X33237258Y-77477500D01*
X32762742Y-78522500D02*
X33237258Y-78522500D01*
%TO.C,J8*%
X64330000Y-43350000D02*
X64330000Y-44680000D01*
X64330000Y-29320000D02*
X61670000Y-29320000D01*
X64330000Y-42080000D02*
X61670000Y-42080000D01*
X61670000Y-42080000D02*
X61670000Y-29320000D01*
X64330000Y-44680000D02*
X63000000Y-44680000D01*
X64330000Y-42080000D02*
X64330000Y-29320000D01*
%TO.C,R15*%
X76022500Y-53262742D02*
X76022500Y-53737258D01*
X74977500Y-53262742D02*
X74977500Y-53737258D01*
%TO.C,Y1*%
X79500201Y-65410000D02*
X79100201Y-65410000D01*
X81500201Y-69010000D02*
X79500201Y-69010000D01*
X79500201Y-65210000D02*
X79100201Y-65210000D01*
X81500201Y-65410000D02*
X81500201Y-66410000D01*
X79500201Y-69010000D02*
X79100201Y-69010000D01*
X79100201Y-66410000D02*
X78700201Y-66410000D01*
X79500201Y-65410000D02*
X81500201Y-65410000D01*
X81500201Y-65210000D02*
X79500201Y-65210000D01*
X79100201Y-69010000D02*
X79100201Y-68210000D01*
X81500201Y-68210000D02*
X81500201Y-69010000D01*
X79100201Y-66410000D02*
X79100201Y-65410000D01*
%TO.C,D11*%
X39765000Y-33515000D02*
X39765000Y-35800000D01*
X41235000Y-35800000D02*
X41235000Y-33515000D01*
X41235000Y-33515000D02*
X39765000Y-33515000D01*
%TO.C,C20*%
X46359420Y-38010000D02*
X46640580Y-38010000D01*
X46359420Y-36990000D02*
X46640580Y-36990000D01*
%TO.C,R12*%
X36477500Y-79737258D02*
X36477500Y-79262742D01*
X37522500Y-79737258D02*
X37522500Y-79262742D01*
%TO.C,R20*%
X27485000Y-71289758D02*
X27485000Y-71710242D01*
X23515000Y-71289758D02*
X23515000Y-71710242D01*
%TO.C,U4*%
X74900201Y-69410000D02*
X76240201Y-69410000D01*
X64680201Y-70360000D02*
X64680201Y-69410000D01*
X65630201Y-60140000D02*
X64680201Y-60140000D01*
X73950201Y-60140000D02*
X74900201Y-60140000D01*
X74900201Y-70360000D02*
X74900201Y-69410000D01*
X64680201Y-60140000D02*
X64680201Y-61090000D01*
X74900201Y-60140000D02*
X74900201Y-61090000D01*
X65630201Y-70360000D02*
X64680201Y-70360000D01*
X73950201Y-70360000D02*
X74900201Y-70360000D01*
%TO.C,R11*%
X37262742Y-71022500D02*
X37737258Y-71022500D01*
X37262742Y-69977500D02*
X37737258Y-69977500D01*
%TO.C,D12*%
X32235000Y-65800000D02*
X32235000Y-63515000D01*
X32235000Y-63515000D02*
X30765000Y-63515000D01*
X30765000Y-63515000D02*
X30765000Y-65800000D01*
%TO.C,C13*%
X48859420Y-27490000D02*
X49140580Y-27490000D01*
X48859420Y-28510000D02*
X49140580Y-28510000D01*
%TO.C,J7*%
X71500000Y-51330000D02*
X70170000Y-51330000D01*
X82990000Y-51330000D02*
X82990000Y-48670000D01*
X72770000Y-48670000D02*
X82990000Y-48670000D01*
X72770000Y-51330000D02*
X72770000Y-48670000D01*
X70170000Y-51330000D02*
X70170000Y-50000000D01*
X72770000Y-51330000D02*
X82990000Y-51330000D01*
%TO.C,R6*%
X48022500Y-55737258D02*
X48022500Y-55262742D01*
X46977500Y-55737258D02*
X46977500Y-55262742D01*
%TO.C,GD1*%
X52660876Y-97948115D02*
X52325000Y-98283991D01*
X52325000Y-92316009D02*
X52660876Y-92651885D01*
X49341009Y-95300000D02*
X49676885Y-95635876D01*
X49676885Y-94964124D02*
X49341009Y-95300000D01*
X52325000Y-98283991D02*
X51989124Y-97948115D01*
X51989124Y-92651885D02*
X52325000Y-92316009D01*
X54973115Y-95635876D02*
X55308991Y-95300000D01*
%TO.C,J9*%
X64155000Y-102330000D02*
X62825000Y-102330000D01*
X64155000Y-101000000D02*
X64155000Y-102330000D01*
X64155000Y-99730000D02*
X61495000Y-99730000D01*
X61495000Y-99730000D02*
X61495000Y-86970000D01*
X64155000Y-99730000D02*
X64155000Y-86970000D01*
X64155000Y-86970000D02*
X61495000Y-86970000D01*
%TO.C,R8*%
X44737258Y-60022500D02*
X44262742Y-60022500D01*
X44737258Y-58977500D02*
X44262742Y-58977500D01*
%TO.C,J3*%
X57350000Y-63125000D02*
X57350000Y-64325000D01*
X57350000Y-58675000D02*
X57800000Y-58675000D01*
X57650000Y-59875000D02*
X57650000Y-60625000D01*
X57350000Y-64625000D02*
X57350000Y-64325000D01*
X56250000Y-58075000D02*
X56250000Y-58375000D01*
X55500000Y-58375000D02*
X54500000Y-58375000D01*
X56250000Y-58375000D02*
X57350000Y-58375000D01*
X57350000Y-59875000D02*
X57650000Y-59875000D01*
X56250000Y-64625000D02*
X57350000Y-64625000D01*
X57650000Y-62375000D02*
X57650000Y-63125000D01*
X57350000Y-58375000D02*
X57350000Y-58675000D01*
X55800000Y-57765000D02*
X53890000Y-57765000D01*
X56250000Y-64925000D02*
X56250000Y-64625000D01*
X54500000Y-64625000D02*
X55500000Y-64625000D01*
X57350000Y-60625000D02*
X57350000Y-62375000D01*
X57650000Y-63125000D02*
X57350000Y-63125000D01*
X55500000Y-58075000D02*
X55500000Y-58375000D01*
X54500000Y-58375000D02*
X54500000Y-64625000D01*
X57800000Y-58075000D02*
X54200000Y-58075000D01*
X54200000Y-58075000D02*
X54200000Y-64925000D01*
X57800000Y-64925000D02*
X57800000Y-58075000D01*
X57650000Y-60625000D02*
X57350000Y-60625000D01*
X55500000Y-64625000D02*
X55500000Y-64925000D01*
X54200000Y-64925000D02*
X57800000Y-64925000D01*
X53890000Y-57765000D02*
X53890000Y-59675000D01*
X57350000Y-64325000D02*
X57800000Y-64325000D01*
X57350000Y-58675000D02*
X57350000Y-59875000D01*
X57350000Y-62375000D02*
X57650000Y-62375000D01*
%TO.C,C19*%
X47315000Y-95009420D02*
X47315000Y-95290580D01*
X48335000Y-95009420D02*
X48335000Y-95290580D01*
%TO.C,R9*%
X42737258Y-71522500D02*
X42262742Y-71522500D01*
X42737258Y-70477500D02*
X42262742Y-70477500D01*
%TO.C,R1*%
X88037459Y-75772500D02*
X87562943Y-75772500D01*
X88037459Y-74727500D02*
X87562943Y-74727500D01*
%TO.C,U6*%
X37000000Y-52940000D02*
X36200000Y-52940000D01*
X37000000Y-56060000D02*
X36200000Y-56060000D01*
X37000000Y-56060000D02*
X38800000Y-56060000D01*
X37000000Y-52940000D02*
X37800000Y-52940000D01*
%TO.C,D3*%
X85285201Y-70475000D02*
X83000201Y-70475000D01*
X85285201Y-71945000D02*
X85285201Y-70475000D01*
X83000201Y-71945000D02*
X85285201Y-71945000D01*
D12*
%TO.C,J4*%
X53750000Y-65250000D02*
X53750000Y-75750000D01*
X53750000Y-65250000D02*
X50250000Y-65250000D01*
X50250000Y-75750000D02*
X50250000Y-65250000D01*
X53750000Y-75750000D02*
X50250000Y-75750000D01*
D13*
%TO.C,C6*%
X77360000Y-70607836D02*
X77360000Y-70392164D01*
X76640000Y-70607836D02*
X76640000Y-70392164D01*
%TO.C,C8*%
X62860000Y-54107836D02*
X62860000Y-53892164D01*
X62140000Y-54107836D02*
X62140000Y-53892164D01*
%TO.C,R18*%
X32762742Y-74477500D02*
X33237258Y-74477500D01*
X32762742Y-75522500D02*
X33237258Y-75522500D01*
%TO.C,D9*%
X48515000Y-36765000D02*
X48515000Y-38235000D01*
X50800000Y-36765000D02*
X48515000Y-36765000D01*
X48515000Y-38235000D02*
X50800000Y-38235000D01*
%TO.C,R14*%
X80977500Y-53262742D02*
X80977500Y-53737258D01*
X82022500Y-53262742D02*
X82022500Y-53737258D01*
%TO.C,R7*%
X75912258Y-74522500D02*
X75437742Y-74522500D01*
X75912258Y-73477500D02*
X75437742Y-73477500D01*
%TO.C,C18*%
X48684420Y-101140000D02*
X48965580Y-101140000D01*
X48684420Y-102160000D02*
X48965580Y-102160000D01*
%TO.C,C14*%
X39640000Y-54107836D02*
X39640000Y-53892164D01*
X40360000Y-54107836D02*
X40360000Y-53892164D01*
%TO.C,R22*%
X32762742Y-51477500D02*
X33237258Y-51477500D01*
X32762742Y-52522500D02*
X33237258Y-52522500D01*
%TO.C,C17*%
X54684420Y-99640000D02*
X54965580Y-99640000D01*
X54684420Y-100660000D02*
X54965580Y-100660000D01*
%TO.C,C23*%
X40010000Y-79359420D02*
X40010000Y-79640580D01*
X38990000Y-79359420D02*
X38990000Y-79640580D01*
%TO.C,J13*%
X22975000Y-95901460D02*
X22975000Y-95641541D01*
X23185000Y-87618511D02*
X22550000Y-89142511D01*
X18345040Y-100146489D02*
X22975000Y-100146489D01*
X22975000Y-100146489D02*
X22975000Y-97641540D01*
X22550000Y-89142511D02*
X21915000Y-87618511D01*
X22975000Y-93901461D02*
X22975000Y-93641540D01*
X21915000Y-87618511D02*
X23185000Y-87618511D01*
X15025000Y-90855518D02*
X15025000Y-98687482D01*
X22975000Y-91901460D02*
X22975000Y-89396511D01*
X22975000Y-89396511D02*
X18345040Y-89396511D01*
%TO.C,SW2*%
X88950000Y-62300000D02*
X88950000Y-62200000D01*
X84550000Y-62300000D02*
X84550000Y-62200000D01*
X84550000Y-63800000D02*
X88950000Y-63800000D01*
X88950000Y-60700000D02*
X84550000Y-60700000D01*
%TD*%
M02*
