G04 #@! TF.GenerationSoftware,KiCad,Pcbnew,(6.0.8)*
G04 #@! TF.CreationDate,2022-10-28T20:08:30+09:00*
G04 #@! TF.ProjectId,ORION_boost_v2,4f52494f-4e5f-4626-9f6f-73745f76322e,rev?*
G04 #@! TF.SameCoordinates,Original*
G04 #@! TF.FileFunction,Copper,L2,Inr*
G04 #@! TF.FilePolarity,Positive*
%FSLAX46Y46*%
G04 Gerber Fmt 4.6, Leading zero omitted, Abs format (unit mm)*
G04 Created by KiCad (PCBNEW (6.0.8)) date 2022-10-28 20:08:30*
%MOMM*%
%LPD*%
G01*
G04 APERTURE LIST*
G04 Aperture macros list*
%AMRoundRect*
0 Rectangle with rounded corners*
0 $1 Rounding radius*
0 $2 $3 $4 $5 $6 $7 $8 $9 X,Y pos of 4 corners*
0 Add a 4 corners polygon primitive as box body*
4,1,4,$2,$3,$4,$5,$6,$7,$8,$9,$2,$3,0*
0 Add four circle primitives for the rounded corners*
1,1,$1+$1,$2,$3*
1,1,$1+$1,$4,$5*
1,1,$1+$1,$6,$7*
1,1,$1+$1,$8,$9*
0 Add four rect primitives between the rounded corners*
20,1,$1+$1,$2,$3,$4,$5,0*
20,1,$1+$1,$4,$5,$6,$7,0*
20,1,$1+$1,$6,$7,$8,$9,0*
20,1,$1+$1,$8,$9,$2,$3,0*%
G04 Aperture macros list end*
G04 #@! TA.AperFunction,ComponentPad*
%ADD10RoundRect,0.250000X-0.980000X-1.150000X0.980000X-1.150000X0.980000X1.150000X-0.980000X1.150000X0*%
G04 #@! TD*
G04 #@! TA.AperFunction,ComponentPad*
%ADD11O,2.460000X2.800000*%
G04 #@! TD*
G04 #@! TA.AperFunction,ComponentPad*
%ADD12R,3.800000X3.800000*%
G04 #@! TD*
G04 #@! TA.AperFunction,ComponentPad*
%ADD13C,3.800000*%
G04 #@! TD*
G04 #@! TA.AperFunction,ComponentPad*
%ADD14RoundRect,0.250000X-0.350000X-0.575000X0.350000X-0.575000X0.350000X0.575000X-0.350000X0.575000X0*%
G04 #@! TD*
G04 #@! TA.AperFunction,ComponentPad*
%ADD15O,1.200000X1.650000*%
G04 #@! TD*
G04 #@! TA.AperFunction,ComponentPad*
%ADD16RoundRect,0.250000X0.575000X-0.350000X0.575000X0.350000X-0.575000X0.350000X-0.575000X-0.350000X0*%
G04 #@! TD*
G04 #@! TA.AperFunction,ComponentPad*
%ADD17O,1.650000X1.200000*%
G04 #@! TD*
G04 #@! TA.AperFunction,ComponentPad*
%ADD18R,1.700000X1.700000*%
G04 #@! TD*
G04 #@! TA.AperFunction,ComponentPad*
%ADD19O,1.700000X1.700000*%
G04 #@! TD*
G04 #@! TA.AperFunction,ComponentPad*
%ADD20C,5.000000*%
G04 #@! TD*
G04 #@! TA.AperFunction,ComponentPad*
%ADD21RoundRect,0.500000X-0.500000X2.000000X-0.500000X-2.000000X0.500000X-2.000000X0.500000X2.000000X0*%
G04 #@! TD*
G04 #@! TA.AperFunction,ComponentPad*
%ADD22R,2.000000X2.000000*%
G04 #@! TD*
G04 #@! TA.AperFunction,ComponentPad*
%ADD23C,2.000000*%
G04 #@! TD*
G04 #@! TA.AperFunction,ComponentPad*
%ADD24RoundRect,0.250000X0.980000X1.150000X-0.980000X1.150000X-0.980000X-1.150000X0.980000X-1.150000X0*%
G04 #@! TD*
G04 #@! TA.AperFunction,ComponentPad*
%ADD25RoundRect,0.225000X-0.575000X0.225000X-0.575000X-0.225000X0.575000X-0.225000X0.575000X0.225000X0*%
G04 #@! TD*
G04 #@! TA.AperFunction,ComponentPad*
%ADD26C,1.524000*%
G04 #@! TD*
G04 #@! TA.AperFunction,ComponentPad*
%ADD27RoundRect,0.250000X-0.350000X-0.625000X0.350000X-0.625000X0.350000X0.625000X-0.350000X0.625000X0*%
G04 #@! TD*
G04 #@! TA.AperFunction,ComponentPad*
%ADD28O,1.200000X1.750000*%
G04 #@! TD*
G04 #@! TA.AperFunction,ComponentPad*
%ADD29R,1.905000X2.000000*%
G04 #@! TD*
G04 #@! TA.AperFunction,ComponentPad*
%ADD30O,1.905000X2.000000*%
G04 #@! TD*
G04 #@! TA.AperFunction,ComponentPad*
%ADD31C,2.200000*%
G04 #@! TD*
G04 #@! TA.AperFunction,ViaPad*
%ADD32C,1.000000*%
G04 #@! TD*
G04 #@! TA.AperFunction,ViaPad*
%ADD33C,3.000000*%
G04 #@! TD*
G04 #@! TA.AperFunction,ViaPad*
%ADD34C,4.000000*%
G04 #@! TD*
G04 #@! TA.AperFunction,ViaPad*
%ADD35C,0.500000*%
G04 #@! TD*
G04 #@! TA.AperFunction,Conductor*
%ADD36C,0.500000*%
G04 #@! TD*
G04 #@! TA.AperFunction,Conductor*
%ADD37C,1.500000*%
G04 #@! TD*
G04 APERTURE END LIST*
D10*
X158520000Y-74950000D03*
D11*
X162480000Y-74950000D03*
D12*
X88000000Y-88000000D03*
D13*
X93000000Y-88000000D03*
D14*
X106500000Y-124000000D03*
D15*
X106500000Y-126000000D03*
X108500000Y-124000000D03*
X108500000Y-126000000D03*
X110500000Y-124000000D03*
X110500000Y-126000000D03*
X112500000Y-124000000D03*
X112500000Y-126000000D03*
D16*
X142000000Y-154000000D03*
D17*
X144000000Y-154000000D03*
X142000000Y-152000000D03*
X144000000Y-152000000D03*
X142000000Y-150000000D03*
X144000000Y-150000000D03*
X142000000Y-148000000D03*
X144000000Y-148000000D03*
D18*
X137500000Y-157500000D03*
D19*
X137500000Y-154960000D03*
X137500000Y-152420000D03*
X137500000Y-149880000D03*
X137500000Y-147340000D03*
X137500000Y-144800000D03*
X137500000Y-142260000D03*
X137500000Y-139720000D03*
X137500000Y-137180000D03*
X137500000Y-134640000D03*
D20*
X142500000Y-142500000D03*
D12*
X162000000Y-92500000D03*
D13*
X157000000Y-92500000D03*
D21*
X142500000Y-129250000D03*
X142500000Y-136750000D03*
D20*
X118000000Y-125000000D03*
D22*
X157132323Y-84500000D03*
D23*
X162132323Y-84500000D03*
D24*
X91480000Y-75050000D03*
D11*
X87520000Y-75050000D03*
D22*
X93000000Y-96000000D03*
D23*
X88000000Y-96000000D03*
D25*
X155500000Y-97000000D03*
X155500000Y-98500000D03*
X155500000Y-100000000D03*
X155500000Y-101500000D03*
X155500000Y-103000000D03*
X155500000Y-104500000D03*
D26*
X113460000Y-135000000D03*
X116000000Y-135000000D03*
X118540000Y-135000000D03*
D27*
X106500000Y-130000000D03*
D28*
X108500000Y-130000000D03*
D24*
X91480000Y-68950000D03*
D11*
X87520000Y-68950000D03*
D29*
X114000000Y-65217500D03*
D30*
X116540000Y-61407500D03*
X119080000Y-65217500D03*
D31*
X111500000Y-66500000D03*
X111500000Y-51500000D03*
D24*
X162480000Y-68950000D03*
D11*
X158520000Y-68950000D03*
D32*
X88500000Y-62000000D03*
X88500000Y-63000000D03*
X88500000Y-64000000D03*
X88500000Y-65000000D03*
X88500000Y-66000000D03*
X161500000Y-62000000D03*
X161500000Y-63000000D03*
X161500000Y-64000000D03*
X161500000Y-65000000D03*
X161500000Y-66000000D03*
D33*
X152500000Y-53000000D03*
D34*
X108500000Y-156300000D03*
X108500000Y-136300000D03*
D33*
X97500000Y-53000000D03*
D34*
X133500000Y-156300000D03*
X133500000Y-136300000D03*
D32*
X141500000Y-120000000D03*
X138500000Y-127000000D03*
X138500000Y-120000000D03*
X144500000Y-121500000D03*
X140500000Y-120000000D03*
X138500000Y-125000000D03*
X136500000Y-126000000D03*
X139500000Y-120000000D03*
X141500000Y-121500000D03*
X144500000Y-120000000D03*
X136500000Y-125000000D03*
X136500000Y-127000000D03*
X137500000Y-121500000D03*
X142500000Y-121500000D03*
X143500000Y-121500000D03*
D35*
X142000000Y-124000000D03*
D32*
X142500000Y-120000000D03*
X138500000Y-121500000D03*
X138500000Y-126000000D03*
X140500000Y-121500000D03*
X139500000Y-121500000D03*
X137500000Y-120000000D03*
X143500000Y-120000000D03*
D35*
X137500000Y-128500000D03*
X135000000Y-113000000D03*
D32*
X119500000Y-72000000D03*
X122500000Y-85500000D03*
X104000000Y-66000000D03*
X105000000Y-65000000D03*
X106000000Y-73000000D03*
X143000000Y-76000000D03*
X112000000Y-68000000D03*
X104000000Y-68000000D03*
X108000000Y-72000000D03*
X143000000Y-75000000D03*
X86000000Y-84000000D03*
X112000000Y-69000000D03*
X146000000Y-88500000D03*
X120500000Y-70000000D03*
X146000000Y-66000000D03*
X120500000Y-71000000D03*
X107000000Y-66000000D03*
D35*
X160500000Y-97500000D03*
D32*
X144000000Y-75000000D03*
X86000000Y-82000000D03*
X143000000Y-72000000D03*
X122500000Y-74000000D03*
X108000000Y-64000000D03*
X108000000Y-67000000D03*
X148000000Y-88500000D03*
X119500000Y-69000000D03*
X102000000Y-88500000D03*
X144000000Y-112000000D03*
X164000000Y-83000000D03*
X106000000Y-75000000D03*
X107000000Y-70000000D03*
X107000000Y-74000000D03*
X151000000Y-89500000D03*
X108000000Y-69000000D03*
X164000000Y-78000000D03*
X121500000Y-70000000D03*
X119500000Y-70000000D03*
X141000000Y-112000000D03*
X115000000Y-105000000D03*
X163000000Y-78000000D03*
X99000000Y-88500000D03*
X106000000Y-76000000D03*
X144000000Y-76000000D03*
X104000000Y-67000000D03*
X121500000Y-73000000D03*
X145000000Y-97000000D03*
X119472536Y-111972536D03*
X147000000Y-67000000D03*
X99000000Y-99500000D03*
X105000000Y-72000000D03*
X111000000Y-64000000D03*
X108000000Y-70000000D03*
X99000000Y-105500000D03*
X104000000Y-73000000D03*
X110000000Y-67000000D03*
X106000000Y-66000000D03*
X108000000Y-74000000D03*
X106000000Y-72000000D03*
X120500000Y-75000000D03*
X162000000Y-78000000D03*
X151000000Y-93500000D03*
X107000000Y-76000000D03*
X120500000Y-76000000D03*
X112000000Y-65000000D03*
X151000000Y-103000000D03*
X107000000Y-73000000D03*
X145000000Y-69000000D03*
X101838578Y-82972169D03*
X144000000Y-73000000D03*
X103000000Y-67000000D03*
X86000000Y-78000000D03*
X119500000Y-73000000D03*
X147500000Y-94500000D03*
D35*
X133500000Y-84500000D03*
D32*
X145000000Y-63000000D03*
X120500000Y-72000000D03*
X146000000Y-93000000D03*
X117500000Y-105000000D03*
X120500000Y-73000000D03*
X107000000Y-68000000D03*
X103000000Y-66000000D03*
X104000000Y-64000000D03*
X145000000Y-70000000D03*
X125000000Y-91500000D03*
X104000000Y-72000000D03*
X88000000Y-78000000D03*
X146000000Y-64000000D03*
X120500000Y-67000000D03*
X151000000Y-92500000D03*
X107000000Y-75000000D03*
X104000000Y-75000000D03*
X111000000Y-65000000D03*
X147000000Y-66000000D03*
X147000000Y-68000000D03*
X143000000Y-73000000D03*
X99000000Y-98500000D03*
X107000000Y-72000000D03*
X115000000Y-94500000D03*
X105000000Y-74000000D03*
X107000000Y-65000000D03*
X105000000Y-64000000D03*
X108000000Y-68000000D03*
X146000000Y-67000000D03*
X111000000Y-68000000D03*
X110000000Y-68000000D03*
X107000000Y-67000000D03*
X164000000Y-82000000D03*
X86000000Y-81000000D03*
X110000000Y-65000000D03*
X151000000Y-105000000D03*
X99000000Y-95500000D03*
X103000000Y-65000000D03*
X105000000Y-75000000D03*
X99000000Y-97500000D03*
X145000000Y-64000000D03*
X144000000Y-71000000D03*
X108000000Y-112000000D03*
X108000000Y-75000000D03*
X103000000Y-95000000D03*
X144000000Y-72000000D03*
X151000000Y-104000000D03*
X99000000Y-101500000D03*
X108000000Y-73000000D03*
X106000000Y-65000000D03*
X111000000Y-69000000D03*
X115000000Y-112000000D03*
X124000000Y-88000000D03*
X146000000Y-71000000D03*
X145000000Y-73000000D03*
X120500000Y-68000000D03*
X142000000Y-112000000D03*
X108000000Y-65000000D03*
X106000000Y-74000000D03*
X107000000Y-69000000D03*
X146000000Y-63000000D03*
X121500000Y-71000000D03*
X87000000Y-78000000D03*
X146000000Y-69000000D03*
X99000000Y-104500000D03*
X147000000Y-64000000D03*
X147000000Y-88500000D03*
X147000000Y-71000000D03*
X151000000Y-88500000D03*
X146000000Y-65000000D03*
X120500000Y-69000000D03*
X99000000Y-102500000D03*
X107000000Y-71000000D03*
X146000000Y-70000000D03*
X104000000Y-65000000D03*
X86000000Y-83000000D03*
X151000000Y-91500000D03*
X150000000Y-88500000D03*
X146000000Y-62000000D03*
X89000000Y-78000000D03*
X119500000Y-74000000D03*
X119500000Y-71000000D03*
X124000000Y-105000000D03*
X104161422Y-82027831D03*
X144000000Y-74000000D03*
X147000000Y-63000000D03*
X105000000Y-76000000D03*
X105000000Y-66000000D03*
X151000000Y-90500000D03*
X121500000Y-69000000D03*
X145000000Y-72000000D03*
X164000000Y-81000000D03*
X99000000Y-89500000D03*
X121500000Y-75000000D03*
X110000000Y-69000000D03*
X121500000Y-72000000D03*
X149000000Y-88500000D03*
X145000000Y-62000000D03*
X112000000Y-64000000D03*
X86000000Y-79000000D03*
X105000000Y-73000000D03*
X106000000Y-67000000D03*
X103000000Y-64000000D03*
X103000000Y-88500000D03*
X108000000Y-76000000D03*
X106000000Y-64000000D03*
X99000000Y-100500000D03*
X145000000Y-68000000D03*
X122500000Y-73000000D03*
D35*
X133500000Y-82500000D03*
D32*
X120500000Y-74000000D03*
X105000000Y-68000000D03*
X99000000Y-96500000D03*
X86000000Y-80000000D03*
X106000000Y-70000000D03*
X105000000Y-67000000D03*
X140500000Y-99500000D03*
X103000000Y-68000000D03*
X121500000Y-74000000D03*
X147000000Y-65000000D03*
X106000000Y-71000000D03*
X108000000Y-71000000D03*
X145000000Y-74000000D03*
X145000000Y-71000000D03*
X145000000Y-67000000D03*
X107000000Y-64000000D03*
X119500000Y-75000000D03*
X99000000Y-92500000D03*
X104000000Y-74000000D03*
X106000000Y-68000000D03*
X164000000Y-79000000D03*
X101000000Y-88500000D03*
X164000000Y-80000000D03*
X100000000Y-88500000D03*
X134000000Y-92000000D03*
X99000000Y-103500000D03*
X151000000Y-94500000D03*
X110000000Y-66000000D03*
X106000000Y-69000000D03*
D35*
X125175000Y-101000000D03*
D32*
X123000000Y-92500000D03*
X117500000Y-102000000D03*
X148000000Y-72500000D03*
X147000000Y-69000000D03*
X110000000Y-64000000D03*
X99000000Y-93500000D03*
X145000000Y-75000000D03*
X145000000Y-65000000D03*
X143000000Y-74000000D03*
X99000000Y-94500000D03*
X99000000Y-90500000D03*
X143000000Y-112000000D03*
X146000000Y-68000000D03*
X146500000Y-82500000D03*
X147000000Y-70000000D03*
D35*
X127000000Y-99000000D03*
D32*
X99000000Y-91500000D03*
X86000000Y-85000000D03*
X161000000Y-78000000D03*
X145000000Y-66000000D03*
X104000000Y-76000000D03*
X122500000Y-72000000D03*
X119500000Y-76000000D03*
X108000000Y-66000000D03*
D35*
X131425500Y-92425500D03*
D32*
X140000000Y-110000000D03*
X123000000Y-110000000D03*
D35*
X132574500Y-93574500D03*
X132574500Y-92425500D03*
X129500000Y-82500000D03*
X131425500Y-93574500D03*
X118000000Y-69500000D03*
X121000000Y-89500000D03*
X105000000Y-89500000D03*
D32*
X113500000Y-54000000D03*
X86500000Y-71000000D03*
X114500000Y-53000000D03*
X162500000Y-73000000D03*
X162500000Y-67000000D03*
X87500000Y-67000000D03*
X163500000Y-67000000D03*
X123500000Y-51000000D03*
X124500000Y-54000000D03*
X114500000Y-51000000D03*
X163500000Y-73000000D03*
X161500000Y-67000000D03*
X87500000Y-71000000D03*
X88500000Y-73000000D03*
X162500000Y-72000000D03*
X161500000Y-73000000D03*
X87500000Y-73000000D03*
X88500000Y-72000000D03*
X122500000Y-52000000D03*
X161500000Y-72000000D03*
X86500000Y-72000000D03*
X86500000Y-67000000D03*
X86500000Y-73000000D03*
X115500000Y-52000000D03*
X123500000Y-53000000D03*
X122500000Y-54000000D03*
X115500000Y-54000000D03*
X88500000Y-67000000D03*
X163500000Y-71000000D03*
X113500000Y-52000000D03*
X124500000Y-52000000D03*
X161500000Y-71000000D03*
X87500000Y-72000000D03*
X162500000Y-71000000D03*
X88500000Y-71000000D03*
X163500000Y-72000000D03*
X148000000Y-77000000D03*
X148000000Y-82000000D03*
X102000000Y-81500000D03*
X102000000Y-71000000D03*
X107000000Y-61000000D03*
D35*
X109000000Y-84500000D03*
X112325000Y-90500000D03*
X122500000Y-90500000D03*
X116985214Y-69542247D03*
X133459953Y-85470709D03*
D32*
X129000000Y-118000000D03*
X125000000Y-124000000D03*
X141000000Y-70500000D03*
X132000000Y-72500000D03*
X126000000Y-125000000D03*
X132000000Y-124000000D03*
X139000000Y-71500000D03*
X133000000Y-125000000D03*
X134000000Y-124000000D03*
X126000000Y-120000000D03*
X129000000Y-71500000D03*
X129000000Y-127000000D03*
X126000000Y-123000000D03*
X125000000Y-122000000D03*
X124000000Y-125000000D03*
X128000000Y-122000000D03*
X128000000Y-123000000D03*
X133000000Y-72500000D03*
X132000000Y-126000000D03*
X139000000Y-70500000D03*
X128000000Y-120000000D03*
X134000000Y-120000000D03*
X130000000Y-125000000D03*
X127000000Y-123000000D03*
X136000000Y-71500000D03*
X133000000Y-124000000D03*
X128000000Y-118000000D03*
X132000000Y-125000000D03*
X134000000Y-70500000D03*
X127000000Y-125000000D03*
X130000000Y-118000000D03*
X133000000Y-118000000D03*
X131000000Y-71500000D03*
X135000000Y-72500000D03*
X140000000Y-69500000D03*
X135000000Y-70500000D03*
X125000000Y-123000000D03*
X130000000Y-72500000D03*
X128000000Y-119000000D03*
X124000000Y-120000000D03*
X129000000Y-72500000D03*
X127000000Y-121000000D03*
X126000000Y-119000000D03*
X129000000Y-125000000D03*
D35*
X139500000Y-130500000D03*
D32*
X126000000Y-122000000D03*
X125000000Y-121000000D03*
X140000000Y-70500000D03*
X132000000Y-69500000D03*
X128000000Y-72500000D03*
X128000000Y-125000000D03*
X137000000Y-72500000D03*
X138000000Y-72500000D03*
X125000000Y-125000000D03*
X131000000Y-69500000D03*
X125000000Y-127000000D03*
X138000000Y-69500000D03*
X127000000Y-118000000D03*
X125000000Y-119000000D03*
X124000000Y-126000000D03*
X130000000Y-127000000D03*
X130000000Y-70500000D03*
X133000000Y-70500000D03*
X136000000Y-72500000D03*
X133000000Y-127000000D03*
X130000000Y-126000000D03*
X124000000Y-127000000D03*
X124000000Y-123000000D03*
X128000000Y-121000000D03*
X134000000Y-69500000D03*
X124000000Y-118000000D03*
X133000000Y-126000000D03*
X137000000Y-70500000D03*
X126000000Y-127000000D03*
X131000000Y-118000000D03*
X124000000Y-124000000D03*
X138000000Y-71500000D03*
X131000000Y-127000000D03*
X124000000Y-119000000D03*
X134000000Y-122000000D03*
X131000000Y-125000000D03*
X125000000Y-126000000D03*
X133000000Y-69500000D03*
X127000000Y-124000000D03*
X137000000Y-69500000D03*
X135974091Y-70482363D03*
X124000000Y-122000000D03*
X137000000Y-71500000D03*
X134000000Y-71500000D03*
X134000000Y-121000000D03*
X134000000Y-126000000D03*
X139000000Y-69500000D03*
X127000000Y-122000000D03*
X129000000Y-124000000D03*
X134000000Y-118000000D03*
X131000000Y-72500000D03*
X131000000Y-124000000D03*
X130000000Y-124000000D03*
X138000000Y-70500000D03*
X132000000Y-71500000D03*
X131000000Y-126000000D03*
X129000000Y-126000000D03*
X132000000Y-118000000D03*
X136000000Y-69500000D03*
X132000000Y-70500000D03*
X131000000Y-70500000D03*
X124000000Y-121000000D03*
X132000000Y-127000000D03*
X128000000Y-126000000D03*
X127000000Y-120000000D03*
X126000000Y-118000000D03*
X141000000Y-69500000D03*
X125000000Y-120000000D03*
X133000000Y-71500000D03*
X128000000Y-124000000D03*
X126000000Y-124000000D03*
X127000000Y-126000000D03*
X128000000Y-127000000D03*
X134000000Y-123000000D03*
X134000000Y-127000000D03*
X127000000Y-119000000D03*
X126000000Y-126000000D03*
X140000000Y-71500000D03*
X134000000Y-119000000D03*
X126000000Y-121000000D03*
X127000000Y-127000000D03*
X125000000Y-118000000D03*
X135000000Y-69500000D03*
X130000000Y-71500000D03*
D35*
X116500000Y-112500000D03*
D32*
X134000000Y-72500000D03*
X134000000Y-125000000D03*
X135000000Y-71500000D03*
X139000000Y-72500000D03*
X151000000Y-98000000D03*
X103000000Y-98434000D03*
X110000000Y-104500000D03*
D35*
X121500000Y-92500000D03*
X111000000Y-91500000D03*
X144500000Y-107699500D03*
X110500000Y-117500000D03*
X145000000Y-107000000D03*
X109500000Y-117500000D03*
X130500000Y-95000000D03*
X161500000Y-97000000D03*
X126001039Y-89425555D03*
X135500000Y-86000000D03*
X143500000Y-91000000D03*
X142500000Y-91000000D03*
X142000000Y-93925500D03*
X143000000Y-95000000D03*
D32*
X140500000Y-137500000D03*
X142500000Y-139500000D03*
X140500000Y-139500000D03*
X144500000Y-135500000D03*
X140500000Y-138500000D03*
X144500000Y-134500000D03*
X142500000Y-133500000D03*
X141500000Y-139500000D03*
X143500000Y-133500000D03*
X140500000Y-135500000D03*
X141500000Y-133500000D03*
X140500000Y-136500000D03*
X143500000Y-139500000D03*
X144500000Y-139500000D03*
X144500000Y-138500000D03*
X144500000Y-133500000D03*
X140500000Y-134500000D03*
X144500000Y-137500000D03*
X144500000Y-136500000D03*
X140500000Y-133500000D03*
D35*
X109954303Y-101545697D03*
X138500000Y-101000000D03*
D32*
X117000000Y-85500000D03*
D35*
X108025000Y-95500000D03*
X121500000Y-93500000D03*
X113000000Y-121000000D03*
X113000000Y-122000000D03*
D32*
X147000000Y-108500000D03*
X104500000Y-106000000D03*
D35*
X137000000Y-118500000D03*
X134000000Y-113074500D03*
D32*
X143500000Y-126500000D03*
X144500000Y-130500000D03*
X144500000Y-131500000D03*
D35*
X136000000Y-113000000D03*
D32*
X142500000Y-126500000D03*
X140500000Y-128500000D03*
X144500000Y-128500000D03*
D35*
X143000000Y-125000000D03*
D32*
X144500000Y-129500000D03*
X140500000Y-129500000D03*
X140500000Y-130500000D03*
X140500000Y-127500000D03*
X144500000Y-127500000D03*
X140500000Y-126500000D03*
X144500000Y-126500000D03*
X141500000Y-126500000D03*
D35*
X129500000Y-111925500D03*
X129000000Y-93500000D03*
X126000000Y-104500000D03*
X139500000Y-100000000D03*
X135500000Y-130000000D03*
X132500000Y-129000000D03*
D36*
X146500000Y-74000000D02*
X148000000Y-72500000D01*
D37*
X116000000Y-130000000D02*
X116000000Y-135000000D01*
D36*
X115500000Y-81500000D02*
X115500000Y-68000000D01*
D37*
X106500000Y-126000000D02*
X106500000Y-127000000D01*
D36*
X104000000Y-81866409D02*
X104161422Y-82027831D01*
D37*
X118000000Y-129500000D02*
X116000000Y-131500000D01*
D36*
X146500000Y-82500000D02*
X146500000Y-74000000D01*
D37*
X113775000Y-127775000D02*
X116000000Y-130000000D01*
D36*
X105000000Y-76000000D02*
X105000000Y-75000000D01*
D37*
X107275000Y-127775000D02*
X113775000Y-127775000D01*
D36*
X104000000Y-81343503D02*
X104000000Y-81866409D01*
X102371334Y-82972169D02*
X104000000Y-81343503D01*
X101838578Y-82972169D02*
X102371334Y-82972169D01*
X119500000Y-85500000D02*
X115500000Y-81500000D01*
X115500000Y-68000000D02*
X118282500Y-65217500D01*
X122500000Y-85500000D02*
X119500000Y-85500000D01*
X118282500Y-65217500D02*
X119080000Y-65217500D01*
D37*
X118000000Y-125000000D02*
X118000000Y-129500000D01*
X106500000Y-127000000D02*
X107275000Y-127775000D01*
D36*
X104000000Y-81343503D02*
X104000000Y-76000000D01*
X118000000Y-80500000D02*
X120000000Y-82500000D01*
X118000000Y-69500000D02*
X118000000Y-80500000D01*
X120000000Y-82500000D02*
X129500000Y-82500000D01*
X148000000Y-82000000D02*
X148000000Y-77000000D01*
X102000000Y-71000000D02*
X102000000Y-81500000D01*
X109000000Y-63000000D02*
X109000000Y-84500000D01*
X107000000Y-61000000D02*
X109000000Y-63000000D01*
X128500000Y-84000000D02*
X129970709Y-85470709D01*
X120000000Y-84000000D02*
X128500000Y-84000000D01*
X116985214Y-69542247D02*
X117000000Y-69557033D01*
X117000000Y-81000000D02*
X120000000Y-84000000D01*
X117000000Y-69557033D02*
X117000000Y-81000000D01*
X129970709Y-85470709D02*
X133459953Y-85470709D01*
X114500000Y-82000000D02*
X114500000Y-69000000D01*
X114000000Y-68500000D02*
X114000000Y-65217500D01*
X117000000Y-85500000D02*
X117000000Y-84500000D01*
X117000000Y-84500000D02*
X114500000Y-82000000D01*
X114500000Y-69000000D02*
X114000000Y-68500000D01*
X129000000Y-111425500D02*
X129000000Y-93500000D01*
X129500000Y-111925500D02*
X129000000Y-111425500D01*
G04 #@! TA.AperFunction,Conductor*
G36*
X140091949Y-55500607D02*
G01*
X140268527Y-55517999D01*
X140292744Y-55522815D01*
X140456596Y-55572518D01*
X140479416Y-55581971D01*
X140630412Y-55662680D01*
X140650950Y-55676403D01*
X140788114Y-55788971D01*
X140797275Y-55797275D01*
X148000000Y-63000000D01*
X154993813Y-63000000D01*
X155006163Y-63000607D01*
X155182740Y-63017999D01*
X155206957Y-63022815D01*
X155370809Y-63072518D01*
X155393629Y-63081971D01*
X155544631Y-63162683D01*
X155565158Y-63176399D01*
X155697521Y-63285026D01*
X155714974Y-63302479D01*
X155823601Y-63434842D01*
X155837319Y-63455372D01*
X155918029Y-63606371D01*
X155927482Y-63629190D01*
X155977185Y-63793043D01*
X155982002Y-63817263D01*
X155999393Y-63993837D01*
X156000000Y-64006187D01*
X156000000Y-73500000D01*
X158993813Y-73500000D01*
X159006163Y-73500607D01*
X159182740Y-73517999D01*
X159206957Y-73522815D01*
X159370809Y-73572518D01*
X159393629Y-73581971D01*
X159544631Y-73662683D01*
X159565158Y-73676399D01*
X159697521Y-73785026D01*
X159714974Y-73802479D01*
X159823601Y-73934842D01*
X159837319Y-73955372D01*
X159918029Y-74106371D01*
X159927482Y-74129190D01*
X159977185Y-74293043D01*
X159982002Y-74317263D01*
X159999393Y-74493837D01*
X160000000Y-74506187D01*
X160000000Y-77500000D01*
X163993813Y-77500000D01*
X164006163Y-77500607D01*
X164182740Y-77517999D01*
X164206957Y-77522815D01*
X164370809Y-77572518D01*
X164393629Y-77581971D01*
X164544631Y-77662683D01*
X164565158Y-77676399D01*
X164697515Y-77785021D01*
X164714977Y-77802484D01*
X164720899Y-77809700D01*
X164748653Y-77875047D01*
X164749500Y-77889633D01*
X164749500Y-94110367D01*
X164729498Y-94178488D01*
X164720899Y-94190300D01*
X164714977Y-94197516D01*
X164697515Y-94214979D01*
X164565158Y-94323601D01*
X164544631Y-94337317D01*
X164452417Y-94386607D01*
X164393629Y-94418029D01*
X164370810Y-94427482D01*
X164206957Y-94477185D01*
X164182740Y-94482001D01*
X164006163Y-94499393D01*
X163993813Y-94500000D01*
X160506187Y-94500000D01*
X160493837Y-94499393D01*
X160317260Y-94482001D01*
X160293043Y-94477185D01*
X160129190Y-94427482D01*
X160106371Y-94418029D01*
X160047583Y-94386607D01*
X159955369Y-94337317D01*
X159934842Y-94323601D01*
X159802479Y-94214974D01*
X159785026Y-94197521D01*
X159676399Y-94065158D01*
X159662681Y-94044628D01*
X159581971Y-93893629D01*
X159572518Y-93870809D01*
X159522815Y-93706957D01*
X159517998Y-93682737D01*
X159500607Y-93506163D01*
X159500000Y-93493813D01*
X159500000Y-83500000D01*
X152500000Y-76500000D01*
X148613669Y-76500000D01*
X148545548Y-76479998D01*
X148524263Y-76462784D01*
X148478205Y-76416403D01*
X148478201Y-76416400D01*
X148473242Y-76411406D01*
X148331079Y-76321187D01*
X148172462Y-76264706D01*
X148165474Y-76263873D01*
X148165471Y-76263872D01*
X148072300Y-76252762D01*
X148005273Y-76244769D01*
X147998270Y-76245505D01*
X147998269Y-76245505D01*
X147952712Y-76250293D01*
X147837821Y-76262369D01*
X147831155Y-76264638D01*
X147831152Y-76264639D01*
X147685098Y-76314360D01*
X147685095Y-76314361D01*
X147678431Y-76316630D01*
X147672436Y-76320318D01*
X147672432Y-76320320D01*
X147541021Y-76401165D01*
X147541019Y-76401167D01*
X147535022Y-76404856D01*
X147481401Y-76457366D01*
X147474603Y-76464023D01*
X147411938Y-76497394D01*
X147386445Y-76500000D01*
X143506187Y-76500000D01*
X143493837Y-76499393D01*
X143473541Y-76497394D01*
X143317260Y-76482001D01*
X143293043Y-76477185D01*
X143129190Y-76427482D01*
X143106371Y-76418029D01*
X143023998Y-76374000D01*
X142955369Y-76337317D01*
X142934842Y-76323601D01*
X142802479Y-76214974D01*
X142785026Y-76197521D01*
X142676399Y-76065158D01*
X142662681Y-76044628D01*
X142581971Y-75893629D01*
X142572518Y-75870809D01*
X142522815Y-75706957D01*
X142517998Y-75682737D01*
X142500607Y-75506163D01*
X142500000Y-75493813D01*
X142500000Y-68000000D01*
X129500000Y-68000000D01*
X121297275Y-76202725D01*
X121288114Y-76211029D01*
X121150950Y-76323597D01*
X121130412Y-76337320D01*
X120979416Y-76418029D01*
X120956597Y-76427482D01*
X120792744Y-76477185D01*
X120768527Y-76482001D01*
X120612245Y-76497394D01*
X120591949Y-76499393D01*
X120579599Y-76500000D01*
X118626500Y-76500000D01*
X118558379Y-76479998D01*
X118511886Y-76426342D01*
X118500500Y-76374000D01*
X118500500Y-69552576D01*
X118502246Y-69531671D01*
X118505496Y-69512354D01*
X118505647Y-69500000D01*
X118491796Y-69403279D01*
X118486596Y-69366968D01*
X118486595Y-69366965D01*
X118485323Y-69358082D01*
X118425984Y-69227572D01*
X118397843Y-69194913D01*
X118338260Y-69125763D01*
X118338257Y-69125760D01*
X118332400Y-69118963D01*
X118212095Y-69040985D01*
X118074739Y-68999907D01*
X118065763Y-68999852D01*
X118065762Y-68999852D01*
X118005555Y-68999484D01*
X117931376Y-68999031D01*
X117793529Y-69038428D01*
X117672280Y-69114930D01*
X117579961Y-69219462D01*
X117579960Y-69219463D01*
X117578807Y-69220769D01*
X117577377Y-69222388D01*
X117576955Y-69222015D01*
X117527791Y-69263763D01*
X117457419Y-69273165D01*
X117393136Y-69243029D01*
X117382864Y-69232594D01*
X117381478Y-69230697D01*
X117370735Y-69219954D01*
X117364377Y-69213107D01*
X117338259Y-69182796D01*
X117332400Y-69175996D01*
X117329320Y-69174000D01*
X117324165Y-69168813D01*
X117317614Y-69161210D01*
X117275359Y-69133821D01*
X117268328Y-69128916D01*
X117235221Y-69104104D01*
X117235220Y-69104103D01*
X117228038Y-69098721D01*
X117219633Y-69095570D01*
X117212365Y-69091591D01*
X117204843Y-69088115D01*
X117197309Y-69083232D01*
X117172856Y-69075919D01*
X117149081Y-69068809D01*
X117140954Y-69066074D01*
X117102202Y-69051547D01*
X117093794Y-69048395D01*
X117084837Y-69047729D01*
X117076749Y-69045951D01*
X117068554Y-69044726D01*
X117059953Y-69042154D01*
X117050980Y-69042099D01*
X117050979Y-69042099D01*
X117009602Y-69041846D01*
X117001037Y-69041502D01*
X116959774Y-69038436D01*
X116959773Y-69038436D01*
X116950822Y-69037771D01*
X116942044Y-69039645D01*
X116933758Y-69040210D01*
X116925562Y-69041333D01*
X116916590Y-69041278D01*
X116868154Y-69055122D01*
X116859861Y-69057189D01*
X116845796Y-69060191D01*
X116819396Y-69065826D01*
X116819392Y-69065827D01*
X116810615Y-69067701D01*
X116802716Y-69071963D01*
X116794933Y-69074827D01*
X116787375Y-69078208D01*
X116778743Y-69080675D01*
X116736143Y-69107553D01*
X116728763Y-69111865D01*
X116692343Y-69131516D01*
X116692341Y-69131517D01*
X116684443Y-69135779D01*
X116678057Y-69142087D01*
X116671411Y-69147005D01*
X116665091Y-69152384D01*
X116657494Y-69157177D01*
X116651552Y-69163905D01*
X116651551Y-69163906D01*
X116624167Y-69194913D01*
X116618275Y-69201144D01*
X116582451Y-69236533D01*
X116578093Y-69244378D01*
X116573087Y-69250973D01*
X116568531Y-69257909D01*
X116562591Y-69264635D01*
X116558778Y-69272757D01*
X116558775Y-69272761D01*
X116541190Y-69310214D01*
X116537285Y-69317846D01*
X116518224Y-69352163D01*
X116512836Y-69361863D01*
X116510855Y-69370618D01*
X116507900Y-69378356D01*
X116505476Y-69386284D01*
X116501661Y-69394410D01*
X116500280Y-69403278D01*
X116500280Y-69403279D01*
X116493915Y-69444157D01*
X116492308Y-69452577D01*
X116483176Y-69492935D01*
X116483175Y-69492942D01*
X116481195Y-69501694D01*
X116481751Y-69510653D01*
X116481088Y-69518895D01*
X116480986Y-69527197D01*
X116479605Y-69536070D01*
X116480769Y-69544972D01*
X116480769Y-69544977D01*
X116486132Y-69585988D01*
X116486954Y-69594520D01*
X116488837Y-69624871D01*
X116490073Y-69644785D01*
X116493123Y-69653232D01*
X116494806Y-69661361D01*
X116494855Y-69661536D01*
X116494880Y-69661716D01*
X116494942Y-69662017D01*
X116494921Y-69662021D01*
X116495258Y-69664479D01*
X116497723Y-69674626D01*
X116498193Y-69678219D01*
X116497160Y-69678354D01*
X116499500Y-69695432D01*
X116499500Y-76374000D01*
X116479498Y-76442121D01*
X116425842Y-76488614D01*
X116373500Y-76500000D01*
X115126500Y-76500000D01*
X115058379Y-76479998D01*
X115011886Y-76426342D01*
X115000500Y-76374000D01*
X115000500Y-69070181D01*
X115001828Y-69058296D01*
X115001318Y-69058255D01*
X115002038Y-69049309D01*
X115004019Y-69040553D01*
X115000742Y-68987736D01*
X115000500Y-68979933D01*
X115000500Y-68964060D01*
X114999052Y-68953948D01*
X114998022Y-68943894D01*
X114995697Y-68906425D01*
X114995141Y-68897462D01*
X114992093Y-68889018D01*
X114991324Y-68885306D01*
X114987657Y-68870601D01*
X114986596Y-68866973D01*
X114985323Y-68858082D01*
X114966061Y-68815718D01*
X114962254Y-68806363D01*
X114949509Y-68771057D01*
X114949507Y-68771053D01*
X114946460Y-68762613D01*
X114941165Y-68755365D01*
X114939389Y-68752025D01*
X114931726Y-68738911D01*
X114929697Y-68735739D01*
X114925984Y-68727572D01*
X114920129Y-68720777D01*
X114920127Y-68720774D01*
X114895613Y-68692325D01*
X114889324Y-68684404D01*
X114884352Y-68677598D01*
X114881478Y-68673664D01*
X114870735Y-68662921D01*
X114864377Y-68656074D01*
X114838259Y-68625763D01*
X114832400Y-68618963D01*
X114824866Y-68614080D01*
X114818104Y-68608181D01*
X114818108Y-68608176D01*
X114807014Y-68599200D01*
X114537405Y-68329591D01*
X114503379Y-68267279D01*
X114500500Y-68240496D01*
X114500500Y-66594000D01*
X114520502Y-66525879D01*
X114574158Y-66479386D01*
X114626500Y-66468000D01*
X114977174Y-66468000D01*
X115050240Y-66453466D01*
X115133101Y-66398101D01*
X115188466Y-66315240D01*
X115203000Y-66242174D01*
X115203000Y-64192826D01*
X115188466Y-64119760D01*
X115133101Y-64036899D01*
X115050240Y-63981534D01*
X114977174Y-63967000D01*
X113022826Y-63967000D01*
X112949760Y-63981534D01*
X112866899Y-64036899D01*
X112811534Y-64119760D01*
X112797000Y-64192826D01*
X112797000Y-66242174D01*
X112811534Y-66315240D01*
X112866899Y-66398101D01*
X112949760Y-66453466D01*
X113022826Y-66468000D01*
X113373500Y-66468000D01*
X113441621Y-66488002D01*
X113488114Y-66541658D01*
X113499500Y-66594000D01*
X113499500Y-68429819D01*
X113498172Y-68441704D01*
X113498682Y-68441745D01*
X113497962Y-68450691D01*
X113495981Y-68459447D01*
X113496537Y-68468407D01*
X113499258Y-68512264D01*
X113499500Y-68520067D01*
X113499500Y-68535940D01*
X113500135Y-68540374D01*
X113500948Y-68546050D01*
X113501978Y-68556106D01*
X113504859Y-68602538D01*
X113507907Y-68610982D01*
X113508676Y-68614694D01*
X113512343Y-68629399D01*
X113513404Y-68633027D01*
X113514677Y-68641918D01*
X113533939Y-68684282D01*
X113537746Y-68693637D01*
X113550491Y-68728943D01*
X113550493Y-68728947D01*
X113553540Y-68737387D01*
X113558835Y-68744635D01*
X113560611Y-68747975D01*
X113568274Y-68761089D01*
X113570303Y-68764261D01*
X113574016Y-68772428D01*
X113579871Y-68779223D01*
X113579873Y-68779226D01*
X113604387Y-68807675D01*
X113610675Y-68815595D01*
X113618522Y-68826336D01*
X113629265Y-68837079D01*
X113635623Y-68843925D01*
X113667600Y-68881037D01*
X113675134Y-68885920D01*
X113681896Y-68891819D01*
X113681892Y-68891824D01*
X113692986Y-68900800D01*
X113962595Y-69170409D01*
X113996621Y-69232721D01*
X113999500Y-69259504D01*
X113999500Y-76374000D01*
X113979498Y-76442121D01*
X113925842Y-76488614D01*
X113873500Y-76500000D01*
X109626500Y-76500000D01*
X109558379Y-76479998D01*
X109511886Y-76426342D01*
X109500500Y-76374000D01*
X109500500Y-63070180D01*
X109501828Y-63058295D01*
X109501318Y-63058254D01*
X109502038Y-63049308D01*
X109504019Y-63040552D01*
X109500742Y-62987735D01*
X109500500Y-62979932D01*
X109500500Y-62964060D01*
X109499052Y-62953948D01*
X109498022Y-62943894D01*
X109495697Y-62906425D01*
X109495141Y-62897462D01*
X109492093Y-62889018D01*
X109491324Y-62885306D01*
X109487657Y-62870601D01*
X109486596Y-62866973D01*
X109485323Y-62858082D01*
X109466061Y-62815718D01*
X109462254Y-62806363D01*
X109449509Y-62771057D01*
X109449507Y-62771053D01*
X109446460Y-62762613D01*
X109441165Y-62755365D01*
X109439389Y-62752025D01*
X109431726Y-62738911D01*
X109429697Y-62735739D01*
X109425984Y-62727572D01*
X109420129Y-62720777D01*
X109420127Y-62720774D01*
X109395613Y-62692325D01*
X109389324Y-62684404D01*
X109384352Y-62677598D01*
X109381478Y-62673664D01*
X109370735Y-62662921D01*
X109364377Y-62656074D01*
X109338259Y-62625763D01*
X109332400Y-62618963D01*
X109324866Y-62614080D01*
X109318104Y-62608181D01*
X109318108Y-62608176D01*
X109307014Y-62599200D01*
X109207814Y-62500000D01*
X114500000Y-62500000D01*
X115500000Y-63500000D01*
X117500000Y-63500000D01*
X118500000Y-62500000D01*
X118500000Y-60500000D01*
X117500000Y-59500000D01*
X115500000Y-59500000D01*
X114500000Y-60500000D01*
X114500000Y-62500000D01*
X109207814Y-62500000D01*
X107791806Y-61083992D01*
X107757780Y-61021680D01*
X107755217Y-61002301D01*
X107755249Y-61000000D01*
X107736481Y-60832676D01*
X107681108Y-60673668D01*
X107591884Y-60530879D01*
X107583723Y-60522661D01*
X107478205Y-60416403D01*
X107478201Y-60416400D01*
X107473242Y-60411406D01*
X107331079Y-60321187D01*
X107172462Y-60264706D01*
X107165474Y-60263873D01*
X107165471Y-60263872D01*
X107072300Y-60252762D01*
X107005273Y-60244769D01*
X106998270Y-60245505D01*
X106998269Y-60245505D01*
X106952712Y-60250293D01*
X106837821Y-60262369D01*
X106831155Y-60264638D01*
X106831152Y-60264639D01*
X106685098Y-60314360D01*
X106685095Y-60314361D01*
X106678431Y-60316630D01*
X106672436Y-60320318D01*
X106672432Y-60320320D01*
X106541021Y-60401165D01*
X106541019Y-60401167D01*
X106535022Y-60404856D01*
X106523231Y-60416403D01*
X106437865Y-60500000D01*
X106414724Y-60522661D01*
X106323515Y-60664190D01*
X106265927Y-60822409D01*
X106244825Y-60989455D01*
X106245512Y-60996462D01*
X106245512Y-60996465D01*
X106250166Y-61043931D01*
X106261255Y-61157025D01*
X106314402Y-61316791D01*
X106318049Y-61322813D01*
X106318050Y-61322815D01*
X106371703Y-61411406D01*
X106401624Y-61460812D01*
X106406513Y-61465875D01*
X106406514Y-61465876D01*
X106440054Y-61500607D01*
X106518586Y-61581929D01*
X106524483Y-61585788D01*
X106653577Y-61670266D01*
X106653581Y-61670268D01*
X106659475Y-61674125D01*
X106817289Y-61732815D01*
X106824270Y-61733746D01*
X106824272Y-61733747D01*
X106977204Y-61754152D01*
X106977206Y-61754152D01*
X106984183Y-61755083D01*
X106991190Y-61754445D01*
X106997182Y-61754571D01*
X107064869Y-61775998D01*
X107083634Y-61791448D01*
X108462595Y-63170409D01*
X108496621Y-63232721D01*
X108499500Y-63259504D01*
X108499500Y-76374000D01*
X108479498Y-76442121D01*
X108425842Y-76488614D01*
X108373500Y-76500000D01*
X102626500Y-76500000D01*
X102558379Y-76479998D01*
X102511886Y-76426342D01*
X102500500Y-76374000D01*
X102500500Y-71613799D01*
X102520502Y-71545678D01*
X102539608Y-71522554D01*
X102573450Y-71490327D01*
X102573456Y-71490319D01*
X102578554Y-71485465D01*
X102594934Y-71460812D01*
X102667836Y-71351085D01*
X102671731Y-71345223D01*
X102731521Y-71187823D01*
X102754955Y-71021088D01*
X102755249Y-71000000D01*
X102744577Y-70904856D01*
X102737266Y-70839672D01*
X102737265Y-70839669D01*
X102736481Y-70832676D01*
X102681108Y-70673668D01*
X102591884Y-70530879D01*
X102582161Y-70521088D01*
X102478205Y-70416403D01*
X102478201Y-70416400D01*
X102473242Y-70411406D01*
X102331079Y-70321187D01*
X102172462Y-70264706D01*
X102165474Y-70263873D01*
X102165471Y-70263872D01*
X102072300Y-70252762D01*
X102005273Y-70244769D01*
X101998270Y-70245505D01*
X101998269Y-70245505D01*
X101952712Y-70250293D01*
X101837821Y-70262369D01*
X101831155Y-70264638D01*
X101831152Y-70264639D01*
X101685098Y-70314360D01*
X101685095Y-70314361D01*
X101678431Y-70316630D01*
X101672436Y-70320318D01*
X101672432Y-70320320D01*
X101541021Y-70401165D01*
X101541019Y-70401167D01*
X101535022Y-70404856D01*
X101523231Y-70416403D01*
X101437865Y-70500000D01*
X101414724Y-70522661D01*
X101393053Y-70556288D01*
X101328133Y-70657025D01*
X101323515Y-70664190D01*
X101265927Y-70822409D01*
X101244825Y-70989455D01*
X101245512Y-70996462D01*
X101245512Y-70996465D01*
X101248081Y-71022661D01*
X101261255Y-71157025D01*
X101314402Y-71316791D01*
X101401624Y-71460812D01*
X101438688Y-71499193D01*
X101464137Y-71525546D01*
X101497069Y-71588443D01*
X101499500Y-71613073D01*
X101499500Y-76374000D01*
X101479498Y-76442121D01*
X101425842Y-76488614D01*
X101373500Y-76500000D01*
X97500000Y-76500000D01*
X90500000Y-83500000D01*
X90500000Y-96493813D01*
X90499393Y-96506163D01*
X90482002Y-96682737D01*
X90477185Y-96706957D01*
X90427482Y-96870809D01*
X90418029Y-96893629D01*
X90337319Y-97044628D01*
X90323601Y-97065158D01*
X90214974Y-97197521D01*
X90197521Y-97214974D01*
X90065158Y-97323601D01*
X90044631Y-97337317D01*
X89952417Y-97386607D01*
X89893629Y-97418029D01*
X89870810Y-97427482D01*
X89706957Y-97477185D01*
X89682740Y-97482001D01*
X89506163Y-97499393D01*
X89493813Y-97500000D01*
X86006187Y-97500000D01*
X85993837Y-97499393D01*
X85817260Y-97482001D01*
X85793043Y-97477185D01*
X85629190Y-97427482D01*
X85606371Y-97418029D01*
X85547583Y-97386607D01*
X85455369Y-97337317D01*
X85434842Y-97323601D01*
X85302485Y-97214979D01*
X85285023Y-97197516D01*
X85279101Y-97190300D01*
X85251347Y-97124953D01*
X85250500Y-97110367D01*
X85250500Y-77889633D01*
X85270502Y-77821512D01*
X85279101Y-77809700D01*
X85285023Y-77802484D01*
X85302485Y-77785021D01*
X85434842Y-77676399D01*
X85455369Y-77662683D01*
X85606371Y-77581971D01*
X85629191Y-77572518D01*
X85793043Y-77522815D01*
X85817260Y-77517999D01*
X85993837Y-77500607D01*
X86006187Y-77500000D01*
X90000000Y-77500000D01*
X90000000Y-74006187D01*
X90000607Y-73993837D01*
X90017999Y-73817260D01*
X90022815Y-73793043D01*
X90072518Y-73629190D01*
X90081971Y-73606371D01*
X90126632Y-73522816D01*
X90162683Y-73455369D01*
X90176399Y-73434842D01*
X90285026Y-73302479D01*
X90302479Y-73285026D01*
X90434842Y-73176399D01*
X90455369Y-73162683D01*
X90606371Y-73081971D01*
X90629191Y-73072518D01*
X90793043Y-73022815D01*
X90817260Y-73017999D01*
X90993837Y-73000607D01*
X91006187Y-73000000D01*
X94000000Y-73000000D01*
X94000000Y-62506187D01*
X94000607Y-62493837D01*
X94017998Y-62317263D01*
X94022815Y-62293043D01*
X94072518Y-62129190D01*
X94081971Y-62106371D01*
X94162681Y-61955372D01*
X94176399Y-61934842D01*
X94285026Y-61802479D01*
X94302479Y-61785026D01*
X94434842Y-61676399D01*
X94455369Y-61662683D01*
X94547583Y-61613393D01*
X94606371Y-61581971D01*
X94629191Y-61572518D01*
X94793043Y-61522815D01*
X94817260Y-61517999D01*
X94993837Y-61500607D01*
X95006187Y-61500000D01*
X102000000Y-61500000D01*
X107702725Y-55797275D01*
X107711886Y-55788971D01*
X107849050Y-55676403D01*
X107869588Y-55662680D01*
X108020584Y-55581971D01*
X108043404Y-55572518D01*
X108207256Y-55522815D01*
X108231473Y-55517999D01*
X108408051Y-55500607D01*
X108420401Y-55500000D01*
X140079599Y-55500000D01*
X140091949Y-55500607D01*
G37*
G04 #@! TD.AperFunction*
G04 #@! TA.AperFunction,Conductor*
G36*
X141006163Y-68500607D02*
G01*
X141182740Y-68517999D01*
X141206957Y-68522815D01*
X141370809Y-68572518D01*
X141393629Y-68581971D01*
X141544631Y-68662683D01*
X141565158Y-68676399D01*
X141697521Y-68785026D01*
X141714974Y-68802479D01*
X141823601Y-68934842D01*
X141837319Y-68955372D01*
X141918029Y-69106371D01*
X141927482Y-69129190D01*
X141977185Y-69293043D01*
X141982002Y-69317263D01*
X141999393Y-69493837D01*
X142000000Y-69506187D01*
X142000000Y-77000000D01*
X145873500Y-77000000D01*
X145941621Y-77020002D01*
X145988114Y-77073658D01*
X145999500Y-77126000D01*
X145999500Y-81886677D01*
X145979498Y-81954798D01*
X145961658Y-81976699D01*
X145958778Y-81979520D01*
X145921070Y-82016447D01*
X145914724Y-82022661D01*
X145848279Y-82125764D01*
X145828133Y-82157025D01*
X145823515Y-82164190D01*
X145821105Y-82170810D01*
X145821104Y-82170813D01*
X145802386Y-82222240D01*
X145765927Y-82322409D01*
X145744825Y-82489455D01*
X145745512Y-82496462D01*
X145745512Y-82496465D01*
X145749127Y-82533329D01*
X145761255Y-82657025D01*
X145814402Y-82816791D01*
X145818049Y-82822813D01*
X145818050Y-82822815D01*
X145895932Y-82951413D01*
X145901624Y-82960812D01*
X145906513Y-82965875D01*
X145906514Y-82965876D01*
X145941177Y-83001770D01*
X146018586Y-83081929D01*
X146024483Y-83085788D01*
X146153577Y-83170266D01*
X146153581Y-83170268D01*
X146159475Y-83174125D01*
X146317289Y-83232815D01*
X146324270Y-83233746D01*
X146324272Y-83233747D01*
X146369812Y-83239823D01*
X146484183Y-83255083D01*
X146491194Y-83254445D01*
X146491198Y-83254445D01*
X146644843Y-83240462D01*
X146651864Y-83239823D01*
X146658566Y-83237645D01*
X146658568Y-83237645D01*
X146805298Y-83189970D01*
X146805301Y-83189969D01*
X146811997Y-83187793D01*
X146956623Y-83101578D01*
X146961717Y-83096727D01*
X146961721Y-83096724D01*
X147073454Y-82990322D01*
X147073455Y-82990320D01*
X147078554Y-82985465D01*
X147094934Y-82960812D01*
X147139494Y-82893743D01*
X147171731Y-82845223D01*
X147189471Y-82798523D01*
X147209348Y-82746194D01*
X147231521Y-82687823D01*
X147245030Y-82591707D01*
X147274317Y-82527035D01*
X147333921Y-82488462D01*
X147404918Y-82488237D01*
X147460439Y-82521717D01*
X147502974Y-82565762D01*
X147518586Y-82581929D01*
X147524483Y-82585788D01*
X147653577Y-82670266D01*
X147653581Y-82670268D01*
X147659475Y-82674125D01*
X147817289Y-82732815D01*
X147824270Y-82733746D01*
X147824272Y-82733747D01*
X147868403Y-82739635D01*
X147984183Y-82755083D01*
X147991194Y-82754445D01*
X147991198Y-82754445D01*
X148144843Y-82740462D01*
X148151864Y-82739823D01*
X148158566Y-82737645D01*
X148158568Y-82737645D01*
X148305298Y-82689970D01*
X148305301Y-82689969D01*
X148311997Y-82687793D01*
X148456623Y-82601578D01*
X148461717Y-82596727D01*
X148461721Y-82596724D01*
X148573454Y-82490322D01*
X148573455Y-82490320D01*
X148578554Y-82485465D01*
X148585416Y-82475138D01*
X148633001Y-82403516D01*
X148671731Y-82345223D01*
X148678906Y-82326336D01*
X148711768Y-82239823D01*
X148731521Y-82187823D01*
X148749500Y-82059901D01*
X148754404Y-82025010D01*
X148754404Y-82025006D01*
X148754955Y-82021088D01*
X148755249Y-82000000D01*
X148751705Y-81968407D01*
X148737266Y-81839672D01*
X148737265Y-81839669D01*
X148736481Y-81832676D01*
X148681108Y-81673668D01*
X148591884Y-81530879D01*
X148582161Y-81521088D01*
X148537094Y-81475705D01*
X148503287Y-81413274D01*
X148500500Y-81386921D01*
X148500500Y-77613799D01*
X148520502Y-77545678D01*
X148539608Y-77522554D01*
X148573450Y-77490327D01*
X148573456Y-77490319D01*
X148578554Y-77485465D01*
X148594934Y-77460812D01*
X148667836Y-77351085D01*
X148671731Y-77345223D01*
X148731521Y-77187823D01*
X148742675Y-77108463D01*
X148771964Y-77043789D01*
X148831568Y-77005217D01*
X148867449Y-77000000D01*
X151579599Y-77000000D01*
X151591949Y-77000607D01*
X151768527Y-77017999D01*
X151792744Y-77022815D01*
X151956596Y-77072518D01*
X151979416Y-77081971D01*
X152130412Y-77162680D01*
X152150950Y-77176403D01*
X152288114Y-77288971D01*
X152297275Y-77297275D01*
X158702725Y-83702725D01*
X158711029Y-83711886D01*
X158823597Y-83849050D01*
X158837320Y-83869588D01*
X158918029Y-84020584D01*
X158927482Y-84043403D01*
X158977185Y-84207256D01*
X158982001Y-84231473D01*
X158990060Y-84313292D01*
X158999393Y-84408051D01*
X159000000Y-84420401D01*
X159000000Y-95000000D01*
X163993813Y-95000000D01*
X164006163Y-95000607D01*
X164182740Y-95017999D01*
X164206957Y-95022815D01*
X164370809Y-95072518D01*
X164393629Y-95081971D01*
X164544631Y-95162683D01*
X164565158Y-95176399D01*
X164697515Y-95285021D01*
X164714977Y-95302484D01*
X164720899Y-95309700D01*
X164748653Y-95375047D01*
X164749500Y-95389633D01*
X164749500Y-97844049D01*
X164729498Y-97912170D01*
X164712595Y-97933144D01*
X145849098Y-116796642D01*
X145830005Y-116812312D01*
X145829716Y-116812505D01*
X145829714Y-116812507D01*
X145819399Y-116819399D01*
X145783943Y-116872464D01*
X145764034Y-116902259D01*
X145761612Y-116914434D01*
X145761041Y-116915813D01*
X145716492Y-116971094D01*
X145656983Y-116992988D01*
X145608016Y-116997811D01*
X145591948Y-116999393D01*
X145579598Y-117000000D01*
X137500000Y-117000000D01*
X135500000Y-119000000D01*
X135500000Y-126493813D01*
X135499393Y-126506163D01*
X135489077Y-126610908D01*
X135482002Y-126682737D01*
X135477185Y-126706957D01*
X135428401Y-126867779D01*
X135427482Y-126870809D01*
X135418029Y-126893629D01*
X135337319Y-127044628D01*
X135323601Y-127065158D01*
X135214974Y-127197521D01*
X135197521Y-127214974D01*
X135065158Y-127323601D01*
X135044631Y-127337317D01*
X134952417Y-127386607D01*
X134893629Y-127418029D01*
X134870810Y-127427482D01*
X134706957Y-127477185D01*
X134682740Y-127482001D01*
X134506163Y-127499393D01*
X134493813Y-127500000D01*
X119629544Y-127500000D01*
X119561423Y-127479998D01*
X119514930Y-127426342D01*
X119504826Y-127356068D01*
X119534320Y-127291488D01*
X119553628Y-127273438D01*
X119562040Y-127267088D01*
X119789572Y-127095319D01*
X120028335Y-126865150D01*
X120237718Y-126607964D01*
X120341397Y-126443642D01*
X120412660Y-126330698D01*
X120412662Y-126330695D01*
X120414687Y-126327485D01*
X120419754Y-126316791D01*
X120555049Y-126031216D01*
X120556678Y-126027778D01*
X120565946Y-126000000D01*
X120633410Y-125797784D01*
X120661635Y-125713183D01*
X120728037Y-125388257D01*
X120754923Y-125057707D01*
X120755527Y-125000000D01*
X120754892Y-124989455D01*
X120735798Y-124672738D01*
X120735798Y-124672734D01*
X120735570Y-124668960D01*
X120675987Y-124342715D01*
X120577641Y-124025991D01*
X120565988Y-124000000D01*
X120499702Y-123852163D01*
X120441958Y-123723375D01*
X120270902Y-123439252D01*
X120268575Y-123436268D01*
X120268570Y-123436261D01*
X120069287Y-123180732D01*
X120069285Y-123180730D01*
X120066951Y-123177737D01*
X119833060Y-122942618D01*
X119812227Y-122926194D01*
X119575598Y-122739651D01*
X119572617Y-122737301D01*
X119289393Y-122564760D01*
X119067916Y-122464060D01*
X118990945Y-122429063D01*
X118990937Y-122429060D01*
X118987493Y-122427494D01*
X118671288Y-122327491D01*
X118526802Y-122300321D01*
X118349083Y-122266901D01*
X118349078Y-122266900D01*
X118345359Y-122266201D01*
X118014428Y-122244511D01*
X118010648Y-122244719D01*
X118010647Y-122244719D01*
X117912888Y-122250099D01*
X117683288Y-122262735D01*
X117679561Y-122263396D01*
X117679557Y-122263396D01*
X117414350Y-122310397D01*
X117356735Y-122320608D01*
X117353110Y-122321713D01*
X117353105Y-122321714D01*
X117132187Y-122389045D01*
X117039500Y-122417294D01*
X116736179Y-122551391D01*
X116625907Y-122616996D01*
X116454424Y-122719017D01*
X116454418Y-122719021D01*
X116451164Y-122720957D01*
X116188585Y-122923536D01*
X115952244Y-123156193D01*
X115745566Y-123415558D01*
X115571545Y-123697874D01*
X115569956Y-123701321D01*
X115434287Y-123995607D01*
X115434283Y-123995617D01*
X115432700Y-123999051D01*
X115431541Y-124002651D01*
X115431538Y-124002658D01*
X115332205Y-124311119D01*
X115331043Y-124314728D01*
X115330324Y-124318444D01*
X115330322Y-124318452D01*
X115268766Y-124636613D01*
X115268765Y-124636622D01*
X115268047Y-124640332D01*
X115267780Y-124644108D01*
X115267779Y-124644113D01*
X115264985Y-124683580D01*
X115244624Y-124971145D01*
X115248822Y-125055467D01*
X115258893Y-125257756D01*
X115261114Y-125302376D01*
X115261755Y-125306107D01*
X115261756Y-125306115D01*
X115312913Y-125603828D01*
X115317277Y-125629227D01*
X115318365Y-125632866D01*
X115318366Y-125632869D01*
X115409846Y-125938757D01*
X115412300Y-125946964D01*
X115544807Y-126250983D01*
X115546730Y-126254254D01*
X115546732Y-126254258D01*
X115710956Y-126533612D01*
X115710961Y-126533620D01*
X115712879Y-126536882D01*
X115715180Y-126539897D01*
X115911780Y-126797505D01*
X115911785Y-126797510D01*
X115914080Y-126800518D01*
X116145496Y-127038073D01*
X116403775Y-127246107D01*
X116407000Y-127248118D01*
X116407001Y-127248119D01*
X116437417Y-127267088D01*
X116484634Y-127320108D01*
X116495690Y-127390238D01*
X116467076Y-127455213D01*
X116407876Y-127494403D01*
X116370741Y-127500000D01*
X115506187Y-127500000D01*
X115493837Y-127499393D01*
X115317260Y-127482001D01*
X115293043Y-127477185D01*
X115129190Y-127427482D01*
X115106371Y-127418029D01*
X115047583Y-127386607D01*
X114955369Y-127337317D01*
X114934842Y-127323601D01*
X114802479Y-127214974D01*
X114785026Y-127197521D01*
X114676399Y-127065158D01*
X114662681Y-127044628D01*
X114581971Y-126893629D01*
X114572518Y-126870809D01*
X114571599Y-126867779D01*
X114522815Y-126706957D01*
X114517998Y-126682737D01*
X114510924Y-126610908D01*
X114500607Y-126506163D01*
X114500000Y-126493813D01*
X114500000Y-117000000D01*
X110576118Y-117000000D01*
X110574739Y-116999898D01*
X110574739Y-116999907D01*
X110438649Y-116999075D01*
X110438643Y-116999075D01*
X110431376Y-116999031D01*
X110428894Y-116999740D01*
X110425088Y-117000000D01*
X109576118Y-117000000D01*
X109574739Y-116999898D01*
X109574739Y-116999907D01*
X109438649Y-116999075D01*
X109438643Y-116999075D01*
X109431376Y-116999031D01*
X109428894Y-116999740D01*
X109425088Y-117000000D01*
X104420402Y-117000000D01*
X104408052Y-116999393D01*
X104391984Y-116997811D01*
X104343017Y-116992988D01*
X104277186Y-116966406D01*
X104238958Y-116915811D01*
X104238388Y-116914434D01*
X104235966Y-116902260D01*
X104194578Y-116840317D01*
X104194577Y-116840316D01*
X104180601Y-116819399D01*
X104170286Y-116812507D01*
X104170284Y-116812505D01*
X104169998Y-116812314D01*
X104150905Y-116796644D01*
X95320964Y-107966703D01*
X92854261Y-105500000D01*
X98000000Y-105500000D01*
X98299950Y-105799950D01*
X98318631Y-105823774D01*
X98401624Y-105960812D01*
X98406513Y-105965875D01*
X98406514Y-105965876D01*
X98459832Y-106021088D01*
X98518586Y-106081929D01*
X98659475Y-106174125D01*
X98666080Y-106176581D01*
X98669292Y-106178204D01*
X98701574Y-106201574D01*
X105500000Y-113000000D01*
X133374861Y-113000000D01*
X133442982Y-113020002D01*
X133489475Y-113073658D01*
X133499797Y-113109662D01*
X133512980Y-113210479D01*
X133516597Y-113218699D01*
X133561988Y-113321857D01*
X133570720Y-113341703D01*
X133576497Y-113348576D01*
X133576498Y-113348577D01*
X133594569Y-113370075D01*
X133662970Y-113451448D01*
X133782313Y-113530890D01*
X133919157Y-113573642D01*
X133928129Y-113573806D01*
X133928132Y-113573807D01*
X133993463Y-113575004D01*
X134062499Y-113576270D01*
X134071533Y-113573807D01*
X134192158Y-113540921D01*
X134192160Y-113540920D01*
X134200817Y-113538560D01*
X134322991Y-113463545D01*
X134333972Y-113451413D01*
X134413179Y-113363907D01*
X134413182Y-113363903D01*
X134419200Y-113357254D01*
X134423113Y-113349178D01*
X134426085Y-113344771D01*
X134480759Y-113299480D01*
X134551240Y-113290938D01*
X134615150Y-113321857D01*
X134626992Y-113334147D01*
X134662970Y-113376948D01*
X134782313Y-113456390D01*
X134919157Y-113499142D01*
X134928129Y-113499306D01*
X134928132Y-113499307D01*
X134993463Y-113500504D01*
X135062499Y-113501770D01*
X135071533Y-113499307D01*
X135192158Y-113466421D01*
X135192160Y-113466420D01*
X135200817Y-113464060D01*
X135322991Y-113389045D01*
X135329014Y-113382391D01*
X135329018Y-113382388D01*
X135407613Y-113295557D01*
X135468156Y-113258476D01*
X135539136Y-113260013D01*
X135597479Y-113299037D01*
X135652008Y-113363907D01*
X135662970Y-113376948D01*
X135782313Y-113456390D01*
X135919157Y-113499142D01*
X135928129Y-113499306D01*
X135928132Y-113499307D01*
X135993463Y-113500504D01*
X136062499Y-113501770D01*
X136071533Y-113499307D01*
X136192158Y-113466421D01*
X136192160Y-113466420D01*
X136200817Y-113464060D01*
X136322991Y-113389045D01*
X136359621Y-113348577D01*
X136390441Y-113314527D01*
X136419200Y-113282754D01*
X136481710Y-113153733D01*
X136489893Y-113105095D01*
X136520920Y-113041237D01*
X136581546Y-113004291D01*
X136614147Y-113000000D01*
X144500000Y-113000000D01*
X152000000Y-105500000D01*
X152000000Y-104229985D01*
X154449500Y-104229985D01*
X154449501Y-104770014D01*
X154455816Y-104828157D01*
X154503628Y-104955695D01*
X154585313Y-105064687D01*
X154694305Y-105146372D01*
X154821843Y-105194184D01*
X154829696Y-105195037D01*
X154829700Y-105195038D01*
X154876586Y-105200131D01*
X154876590Y-105200131D01*
X154879985Y-105200500D01*
X155499909Y-105200500D01*
X156120014Y-105200499D01*
X156178157Y-105194184D01*
X156305695Y-105146372D01*
X156414687Y-105064687D01*
X156496372Y-104955695D01*
X156544184Y-104828157D01*
X156545037Y-104820304D01*
X156545038Y-104820300D01*
X156550131Y-104773414D01*
X156550131Y-104773410D01*
X156550500Y-104770015D01*
X156550499Y-104229986D01*
X156544184Y-104171843D01*
X156496372Y-104044305D01*
X156414687Y-103935313D01*
X156305695Y-103853628D01*
X156307008Y-103851876D01*
X156265488Y-103810263D01*
X156250473Y-103740872D01*
X156275357Y-103674379D01*
X156306476Y-103647414D01*
X156305695Y-103646372D01*
X156407507Y-103570068D01*
X156414687Y-103564687D01*
X156496372Y-103455695D01*
X156544184Y-103328157D01*
X156545037Y-103320304D01*
X156545038Y-103320300D01*
X156550131Y-103273414D01*
X156550131Y-103273410D01*
X156550500Y-103270015D01*
X156550499Y-102729986D01*
X156544184Y-102671843D01*
X156496372Y-102544305D01*
X156414687Y-102435313D01*
X156305695Y-102353628D01*
X156307008Y-102351876D01*
X156265488Y-102310263D01*
X156250473Y-102240872D01*
X156275357Y-102174379D01*
X156306476Y-102147414D01*
X156305695Y-102146372D01*
X156407507Y-102070068D01*
X156414687Y-102064687D01*
X156496372Y-101955695D01*
X156544184Y-101828157D01*
X156545037Y-101820304D01*
X156545038Y-101820300D01*
X156550131Y-101773414D01*
X156550131Y-101773410D01*
X156550500Y-101770015D01*
X156550499Y-101229986D01*
X156544184Y-101171843D01*
X156496372Y-101044305D01*
X156414687Y-100935313D01*
X156305695Y-100853628D01*
X156307008Y-100851876D01*
X156265488Y-100810263D01*
X156250473Y-100740872D01*
X156275357Y-100674379D01*
X156306476Y-100647414D01*
X156305695Y-100646372D01*
X156407507Y-100570068D01*
X156414687Y-100564687D01*
X156496372Y-100455695D01*
X156544184Y-100328157D01*
X156545037Y-100320304D01*
X156545038Y-100320300D01*
X156550131Y-100273414D01*
X156550131Y-100273410D01*
X156550500Y-100270015D01*
X156550499Y-99729986D01*
X156544184Y-99671843D01*
X156496372Y-99544305D01*
X156414687Y-99435313D01*
X156305695Y-99353628D01*
X156307008Y-99351876D01*
X156265488Y-99310263D01*
X156250473Y-99240872D01*
X156275357Y-99174379D01*
X156306476Y-99147414D01*
X156305695Y-99146372D01*
X156356728Y-99108125D01*
X156414687Y-99064687D01*
X156496372Y-98955695D01*
X156544184Y-98828157D01*
X156545037Y-98820304D01*
X156545038Y-98820300D01*
X156550131Y-98773414D01*
X156550131Y-98773410D01*
X156550500Y-98770015D01*
X156550499Y-98229986D01*
X156544184Y-98171843D01*
X156496372Y-98044305D01*
X156414687Y-97935313D01*
X156305695Y-97853628D01*
X156307008Y-97851876D01*
X156265488Y-97810263D01*
X156250473Y-97740872D01*
X156275357Y-97674379D01*
X156306476Y-97647414D01*
X156305695Y-97646372D01*
X156407507Y-97570068D01*
X156414687Y-97564687D01*
X156467797Y-97493823D01*
X159994391Y-97493823D01*
X159995555Y-97502725D01*
X159995555Y-97502728D01*
X160002719Y-97557507D01*
X160012980Y-97635979D01*
X160070720Y-97767203D01*
X160076497Y-97774076D01*
X160076498Y-97774077D01*
X160157190Y-97870072D01*
X160162970Y-97876948D01*
X160282313Y-97956390D01*
X160419157Y-97999142D01*
X160428129Y-97999306D01*
X160428132Y-97999307D01*
X160493463Y-98000504D01*
X160562499Y-98001770D01*
X160571533Y-97999307D01*
X160692158Y-97966421D01*
X160692160Y-97966420D01*
X160700817Y-97964060D01*
X160822991Y-97889045D01*
X160919200Y-97782754D01*
X160981710Y-97653733D01*
X161005496Y-97512354D01*
X161005575Y-97505872D01*
X161005753Y-97505294D01*
X161005991Y-97502637D01*
X161006553Y-97502687D01*
X161026405Y-97438001D01*
X161080623Y-97392164D01*
X161151015Y-97382917D01*
X161201385Y-97402520D01*
X161268638Y-97447287D01*
X161282313Y-97456390D01*
X161419157Y-97499142D01*
X161428129Y-97499306D01*
X161428132Y-97499307D01*
X161493463Y-97500504D01*
X161562499Y-97501770D01*
X161571533Y-97499307D01*
X161692158Y-97466421D01*
X161692160Y-97466420D01*
X161700817Y-97464060D01*
X161822991Y-97389045D01*
X161919200Y-97282754D01*
X161981710Y-97153733D01*
X162005496Y-97012354D01*
X162005647Y-97000000D01*
X161985323Y-96858082D01*
X161979477Y-96845223D01*
X161929700Y-96735746D01*
X161925984Y-96727572D01*
X161871591Y-96664446D01*
X161838260Y-96625763D01*
X161838257Y-96625760D01*
X161832400Y-96618963D01*
X161712095Y-96540985D01*
X161574739Y-96499907D01*
X161565763Y-96499852D01*
X161565762Y-96499852D01*
X161505555Y-96499484D01*
X161431376Y-96499031D01*
X161293529Y-96538428D01*
X161172280Y-96614930D01*
X161077377Y-96722388D01*
X161016447Y-96852163D01*
X160994391Y-96993823D01*
X160994831Y-96997189D01*
X160974824Y-97062374D01*
X160920605Y-97108209D01*
X160850213Y-97117454D01*
X160801136Y-97098698D01*
X160712095Y-97040985D01*
X160574739Y-96999907D01*
X160565763Y-96999852D01*
X160565762Y-96999852D01*
X160505555Y-96999484D01*
X160431376Y-96999031D01*
X160293529Y-97038428D01*
X160172280Y-97114930D01*
X160077377Y-97222388D01*
X160016447Y-97352163D01*
X160008607Y-97402520D01*
X159999209Y-97462881D01*
X159994391Y-97493823D01*
X156467797Y-97493823D01*
X156496372Y-97455695D01*
X156544184Y-97328157D01*
X156545037Y-97320304D01*
X156545038Y-97320300D01*
X156550131Y-97273414D01*
X156550131Y-97273410D01*
X156550500Y-97270015D01*
X156550499Y-96729986D01*
X156544184Y-96671843D01*
X156496372Y-96544305D01*
X156414687Y-96435313D01*
X156305695Y-96353628D01*
X156178157Y-96305816D01*
X156170304Y-96304963D01*
X156170300Y-96304962D01*
X156123414Y-96299869D01*
X156123410Y-96299869D01*
X156120015Y-96299500D01*
X155500091Y-96299500D01*
X154879986Y-96299501D01*
X154821843Y-96305816D01*
X154694305Y-96353628D01*
X154585313Y-96435313D01*
X154503628Y-96544305D01*
X154455816Y-96671843D01*
X154454963Y-96679696D01*
X154454963Y-96679698D01*
X154449500Y-96729985D01*
X154449501Y-97270014D01*
X154455816Y-97328157D01*
X154503628Y-97455695D01*
X154585313Y-97564687D01*
X154592493Y-97570068D01*
X154694305Y-97646372D01*
X154692992Y-97648124D01*
X154734512Y-97689737D01*
X154749527Y-97759128D01*
X154724643Y-97825621D01*
X154693524Y-97852586D01*
X154694305Y-97853628D01*
X154585313Y-97935313D01*
X154503628Y-98044305D01*
X154455816Y-98171843D01*
X154454963Y-98179696D01*
X154454962Y-98179700D01*
X154454080Y-98187823D01*
X154449500Y-98229985D01*
X154449501Y-98770014D01*
X154455816Y-98828157D01*
X154503628Y-98955695D01*
X154585313Y-99064687D01*
X154643272Y-99108125D01*
X154694305Y-99146372D01*
X154692992Y-99148124D01*
X154734512Y-99189737D01*
X154749527Y-99259128D01*
X154724643Y-99325621D01*
X154693524Y-99352586D01*
X154694305Y-99353628D01*
X154585313Y-99435313D01*
X154503628Y-99544305D01*
X154455816Y-99671843D01*
X154454963Y-99679696D01*
X154454963Y-99679698D01*
X154449500Y-99729985D01*
X154449501Y-100270014D01*
X154455816Y-100328157D01*
X154503628Y-100455695D01*
X154585313Y-100564687D01*
X154592493Y-100570068D01*
X154694305Y-100646372D01*
X154692992Y-100648124D01*
X154734512Y-100689737D01*
X154749527Y-100759128D01*
X154724643Y-100825621D01*
X154693524Y-100852586D01*
X154694305Y-100853628D01*
X154585313Y-100935313D01*
X154503628Y-101044305D01*
X154455816Y-101171843D01*
X154454963Y-101179696D01*
X154454963Y-101179698D01*
X154449500Y-101229985D01*
X154449501Y-101770014D01*
X154455816Y-101828157D01*
X154503628Y-101955695D01*
X154585313Y-102064687D01*
X154592493Y-102070068D01*
X154694305Y-102146372D01*
X154692992Y-102148124D01*
X154734512Y-102189737D01*
X154749527Y-102259128D01*
X154724643Y-102325621D01*
X154693524Y-102352586D01*
X154694305Y-102353628D01*
X154585313Y-102435313D01*
X154503628Y-102544305D01*
X154455816Y-102671843D01*
X154454963Y-102679696D01*
X154454963Y-102679698D01*
X154449500Y-102729985D01*
X154449501Y-103270014D01*
X154455816Y-103328157D01*
X154503628Y-103455695D01*
X154585313Y-103564687D01*
X154592493Y-103570068D01*
X154694305Y-103646372D01*
X154692992Y-103648124D01*
X154734512Y-103689737D01*
X154749527Y-103759128D01*
X154724643Y-103825621D01*
X154693524Y-103852586D01*
X154694305Y-103853628D01*
X154585313Y-103935313D01*
X154503628Y-104044305D01*
X154455816Y-104171843D01*
X154454963Y-104179696D01*
X154454963Y-104179698D01*
X154449500Y-104229985D01*
X152000000Y-104229985D01*
X152000000Y-87500000D01*
X124613669Y-87500000D01*
X124545548Y-87479998D01*
X124524263Y-87462784D01*
X124478205Y-87416403D01*
X124478201Y-87416400D01*
X124473242Y-87411406D01*
X124331079Y-87321187D01*
X124172462Y-87264706D01*
X124165474Y-87263873D01*
X124165471Y-87263872D01*
X124072300Y-87252762D01*
X124005273Y-87244769D01*
X123998270Y-87245505D01*
X123998269Y-87245505D01*
X123952712Y-87250293D01*
X123837821Y-87262369D01*
X123831155Y-87264638D01*
X123831152Y-87264639D01*
X123685098Y-87314360D01*
X123685095Y-87314361D01*
X123678431Y-87316630D01*
X123672436Y-87320318D01*
X123672432Y-87320320D01*
X123541021Y-87401165D01*
X123541019Y-87401167D01*
X123535022Y-87404856D01*
X123523231Y-87416403D01*
X123474603Y-87464023D01*
X123411938Y-87497394D01*
X123386445Y-87500000D01*
X98000000Y-87500000D01*
X98000000Y-105500000D01*
X92854261Y-105500000D01*
X86452643Y-99098383D01*
X86418617Y-99036071D01*
X86416345Y-99021641D01*
X86415430Y-99012347D01*
X86415430Y-98987650D01*
X86419406Y-98947287D01*
X86432212Y-98817259D01*
X86437031Y-98793033D01*
X86486731Y-98629194D01*
X86496183Y-98606374D01*
X86576895Y-98455372D01*
X86590618Y-98434835D01*
X86699235Y-98302485D01*
X86716698Y-98285022D01*
X86849051Y-98176403D01*
X86869588Y-98162680D01*
X87020584Y-98081971D01*
X87043404Y-98072518D01*
X87207256Y-98022815D01*
X87231473Y-98017999D01*
X87408051Y-98000607D01*
X87420401Y-98000000D01*
X91000000Y-98000000D01*
X91000000Y-84420401D01*
X91000607Y-84408051D01*
X91009940Y-84313292D01*
X91017999Y-84231473D01*
X91022815Y-84207256D01*
X91072518Y-84043403D01*
X91081971Y-84020584D01*
X91162680Y-83869588D01*
X91176403Y-83849050D01*
X91288971Y-83711886D01*
X91297275Y-83702725D01*
X97702725Y-77297275D01*
X97711886Y-77288971D01*
X97849050Y-77176403D01*
X97869588Y-77162680D01*
X98020584Y-77081971D01*
X98043404Y-77072518D01*
X98207256Y-77022815D01*
X98231473Y-77017999D01*
X98408051Y-77000607D01*
X98420401Y-77000000D01*
X101373500Y-77000000D01*
X101441621Y-77020002D01*
X101488114Y-77073658D01*
X101499500Y-77126000D01*
X101499500Y-80886677D01*
X101479498Y-80954798D01*
X101461657Y-80976701D01*
X101421359Y-81016164D01*
X101414724Y-81022661D01*
X101369023Y-81093575D01*
X101328133Y-81157025D01*
X101323515Y-81164190D01*
X101265927Y-81322409D01*
X101244825Y-81489455D01*
X101245512Y-81496462D01*
X101245512Y-81496465D01*
X101249472Y-81536853D01*
X101261255Y-81657025D01*
X101314402Y-81816791D01*
X101318049Y-81822813D01*
X101318050Y-81822815D01*
X101391379Y-81943895D01*
X101401624Y-81960812D01*
X101406513Y-81965875D01*
X101406514Y-81965876D01*
X101513694Y-82076864D01*
X101513698Y-82076867D01*
X101518586Y-82081929D01*
X101524477Y-82085784D01*
X101526427Y-82087397D01*
X101566165Y-82146230D01*
X101567786Y-82217208D01*
X101530777Y-82277796D01*
X101512135Y-82291798D01*
X101473451Y-82315596D01*
X101379599Y-82373334D01*
X101379597Y-82373336D01*
X101373600Y-82377025D01*
X101326907Y-82422750D01*
X101258791Y-82489455D01*
X101253302Y-82494830D01*
X101162093Y-82636359D01*
X101159683Y-82642979D01*
X101159682Y-82642982D01*
X101148802Y-82672875D01*
X101104505Y-82794578D01*
X101083403Y-82961624D01*
X101084090Y-82968631D01*
X101084090Y-82968634D01*
X101091807Y-83047334D01*
X101099833Y-83129194D01*
X101152980Y-83288960D01*
X101156627Y-83294982D01*
X101156628Y-83294984D01*
X101233357Y-83421678D01*
X101240202Y-83432981D01*
X101245091Y-83438044D01*
X101245092Y-83438045D01*
X101300599Y-83495524D01*
X101357164Y-83554098D01*
X101363061Y-83557957D01*
X101492155Y-83642435D01*
X101492159Y-83642437D01*
X101498053Y-83646294D01*
X101655867Y-83704984D01*
X101662848Y-83705915D01*
X101662850Y-83705916D01*
X101707596Y-83711886D01*
X101822761Y-83727252D01*
X101829772Y-83726614D01*
X101829776Y-83726614D01*
X101983421Y-83712631D01*
X101990442Y-83711992D01*
X101997144Y-83709814D01*
X101997146Y-83709814D01*
X102143876Y-83662139D01*
X102143879Y-83662138D01*
X102150575Y-83659962D01*
X102295201Y-83573747D01*
X102300295Y-83568896D01*
X102300299Y-83568893D01*
X102369054Y-83503418D01*
X102432179Y-83470926D01*
X102448142Y-83468906D01*
X102473872Y-83467310D01*
X102482316Y-83464262D01*
X102486028Y-83463493D01*
X102500733Y-83459826D01*
X102504361Y-83458765D01*
X102513252Y-83457492D01*
X102555616Y-83438230D01*
X102564971Y-83434423D01*
X102600277Y-83421678D01*
X102600281Y-83421676D01*
X102608721Y-83418629D01*
X102615969Y-83413334D01*
X102619309Y-83411558D01*
X102632423Y-83403895D01*
X102635595Y-83401866D01*
X102643762Y-83398153D01*
X102650557Y-83392298D01*
X102650560Y-83392296D01*
X102679009Y-83367782D01*
X102686930Y-83361493D01*
X102693736Y-83356521D01*
X102697670Y-83353647D01*
X102708413Y-83342904D01*
X102715260Y-83336546D01*
X102733969Y-83320425D01*
X102752371Y-83304569D01*
X102757254Y-83297035D01*
X102763153Y-83290273D01*
X102763158Y-83290277D01*
X102772134Y-83279183D01*
X103472199Y-82579118D01*
X103534511Y-82545092D01*
X103605326Y-82550157D01*
X103651930Y-82580685D01*
X103675113Y-82604692D01*
X103675117Y-82604696D01*
X103680008Y-82609760D01*
X103685905Y-82613619D01*
X103814999Y-82698097D01*
X103815003Y-82698099D01*
X103820897Y-82701956D01*
X103978711Y-82760646D01*
X103985692Y-82761577D01*
X103985694Y-82761578D01*
X104027854Y-82767203D01*
X104145605Y-82782914D01*
X104152616Y-82782276D01*
X104152620Y-82782276D01*
X104306265Y-82768293D01*
X104313286Y-82767654D01*
X104319988Y-82765476D01*
X104319990Y-82765476D01*
X104466720Y-82717801D01*
X104466723Y-82717800D01*
X104473419Y-82715624D01*
X104618045Y-82629409D01*
X104623139Y-82624558D01*
X104623143Y-82624555D01*
X104734876Y-82518153D01*
X104734877Y-82518151D01*
X104739976Y-82513296D01*
X104746998Y-82502728D01*
X104812914Y-82403516D01*
X104833153Y-82373054D01*
X104846819Y-82337079D01*
X104863427Y-82293356D01*
X104892943Y-82215654D01*
X104910969Y-82087397D01*
X104915826Y-82052841D01*
X104915826Y-82052837D01*
X104916377Y-82048919D01*
X104916671Y-82027831D01*
X104915538Y-82017733D01*
X104898688Y-81867503D01*
X104898687Y-81867500D01*
X104897903Y-81860507D01*
X104842530Y-81701499D01*
X104753306Y-81558710D01*
X104723389Y-81528583D01*
X104639627Y-81444234D01*
X104639623Y-81444231D01*
X104634664Y-81439237D01*
X104560381Y-81392096D01*
X104513585Y-81338710D01*
X104505914Y-81308802D01*
X104504476Y-81309109D01*
X104503276Y-81303487D01*
X104502385Y-81295040D01*
X104502189Y-81294278D01*
X104501991Y-81291372D01*
X104501997Y-81291372D01*
X104500500Y-81277185D01*
X104500500Y-77126000D01*
X104520502Y-77057879D01*
X104574158Y-77011386D01*
X104626500Y-77000000D01*
X108373500Y-77000000D01*
X108441621Y-77020002D01*
X108488114Y-77073658D01*
X108499500Y-77126000D01*
X108499500Y-84451259D01*
X108498000Y-84470643D01*
X108495946Y-84483836D01*
X108494391Y-84493823D01*
X108495555Y-84502725D01*
X108495555Y-84502727D01*
X108499242Y-84530918D01*
X108499500Y-84533474D01*
X108499500Y-84535940D01*
X108500135Y-84540371D01*
X108500135Y-84540377D01*
X108503986Y-84567268D01*
X108504194Y-84568791D01*
X108512980Y-84635979D01*
X108514235Y-84638831D01*
X108514677Y-84641918D01*
X108517999Y-84649225D01*
X108518001Y-84649231D01*
X108542791Y-84703752D01*
X108543373Y-84705051D01*
X108570720Y-84767203D01*
X108572725Y-84769588D01*
X108574016Y-84772428D01*
X108617083Y-84822409D01*
X108618339Y-84823867D01*
X108619313Y-84825012D01*
X108662970Y-84876948D01*
X108665565Y-84878676D01*
X108667600Y-84881037D01*
X108674321Y-84885393D01*
X108674324Y-84885396D01*
X108724519Y-84917931D01*
X108725806Y-84918776D01*
X108775627Y-84951940D01*
X108775630Y-84951942D01*
X108782313Y-84956390D01*
X108785290Y-84957320D01*
X108787905Y-84959015D01*
X108795597Y-84961315D01*
X108795598Y-84961316D01*
X108811819Y-84966167D01*
X108852945Y-84978467D01*
X108854388Y-84978908D01*
X108911489Y-84996747D01*
X108911492Y-84996747D01*
X108919157Y-84999142D01*
X108922272Y-84999199D01*
X108925261Y-85000093D01*
X108993209Y-85000508D01*
X108994626Y-85000525D01*
X109041715Y-85001389D01*
X109054478Y-85001623D01*
X109054479Y-85001623D01*
X109062499Y-85001770D01*
X109065507Y-85000950D01*
X109068624Y-85000969D01*
X109133874Y-84982320D01*
X109135347Y-84981909D01*
X109200817Y-84964060D01*
X109203474Y-84962429D01*
X109206471Y-84961572D01*
X109263881Y-84925350D01*
X109265117Y-84924581D01*
X109316151Y-84893245D01*
X109316152Y-84893244D01*
X109322991Y-84889045D01*
X109325083Y-84886734D01*
X109327720Y-84885070D01*
X109372592Y-84834262D01*
X109373616Y-84833115D01*
X109383306Y-84822409D01*
X109419200Y-84782754D01*
X109420559Y-84779949D01*
X109422623Y-84777612D01*
X109451509Y-84716088D01*
X109452157Y-84714731D01*
X109463888Y-84690518D01*
X109481710Y-84653733D01*
X109482227Y-84650662D01*
X109483553Y-84647837D01*
X109484956Y-84638831D01*
X109493996Y-84580765D01*
X109494229Y-84579325D01*
X109505496Y-84512354D01*
X109505647Y-84500000D01*
X109501773Y-84472949D01*
X109500500Y-84455087D01*
X109500500Y-77126000D01*
X109520502Y-77057879D01*
X109574158Y-77011386D01*
X109626500Y-77000000D01*
X113873500Y-77000000D01*
X113941621Y-77020002D01*
X113988114Y-77073658D01*
X113999500Y-77126000D01*
X113999500Y-81929819D01*
X113998172Y-81941704D01*
X113998682Y-81941745D01*
X113997962Y-81950691D01*
X113995981Y-81959447D01*
X113996537Y-81968407D01*
X113999258Y-82012264D01*
X113999500Y-82020067D01*
X113999500Y-82035940D01*
X114000135Y-82040374D01*
X114000948Y-82046050D01*
X114001978Y-82056106D01*
X114002534Y-82065067D01*
X114004859Y-82102538D01*
X114007907Y-82110982D01*
X114008676Y-82114694D01*
X114012343Y-82129399D01*
X114013404Y-82133027D01*
X114014677Y-82141918D01*
X114033939Y-82184282D01*
X114037746Y-82193637D01*
X114050491Y-82228943D01*
X114050493Y-82228947D01*
X114053540Y-82237387D01*
X114058835Y-82244635D01*
X114060611Y-82247975D01*
X114068274Y-82261089D01*
X114070303Y-82264261D01*
X114074016Y-82272428D01*
X114079871Y-82279223D01*
X114079873Y-82279226D01*
X114104387Y-82307675D01*
X114110675Y-82315595D01*
X114118522Y-82326336D01*
X114129265Y-82337079D01*
X114135623Y-82343925D01*
X114167600Y-82381037D01*
X114175134Y-82385920D01*
X114181896Y-82391819D01*
X114181892Y-82391824D01*
X114192986Y-82400800D01*
X115341217Y-83549030D01*
X116462595Y-84670408D01*
X116496620Y-84732720D01*
X116499500Y-84759503D01*
X116499500Y-84886677D01*
X116479498Y-84954798D01*
X116461658Y-84976699D01*
X116414724Y-85022661D01*
X116371538Y-85089673D01*
X116328133Y-85157025D01*
X116323515Y-85164190D01*
X116321105Y-85170810D01*
X116321104Y-85170813D01*
X116308131Y-85206457D01*
X116265927Y-85322409D01*
X116244825Y-85489455D01*
X116245512Y-85496462D01*
X116245512Y-85496465D01*
X116251158Y-85554050D01*
X116261255Y-85657025D01*
X116314402Y-85816791D01*
X116318049Y-85822813D01*
X116318050Y-85822815D01*
X116385685Y-85934493D01*
X116401624Y-85960812D01*
X116406513Y-85965875D01*
X116406514Y-85965876D01*
X116451398Y-86012354D01*
X116518586Y-86081929D01*
X116524482Y-86085787D01*
X116524483Y-86085788D01*
X116653577Y-86170266D01*
X116653581Y-86170268D01*
X116659475Y-86174125D01*
X116817289Y-86232815D01*
X116824270Y-86233746D01*
X116824272Y-86233747D01*
X116869812Y-86239823D01*
X116984183Y-86255083D01*
X116991194Y-86254445D01*
X116991198Y-86254445D01*
X117144843Y-86240462D01*
X117151864Y-86239823D01*
X117158566Y-86237645D01*
X117158568Y-86237645D01*
X117305298Y-86189970D01*
X117305301Y-86189969D01*
X117311997Y-86187793D01*
X117456623Y-86101578D01*
X117461717Y-86096727D01*
X117461721Y-86096724D01*
X117573454Y-85990322D01*
X117573455Y-85990320D01*
X117578554Y-85985465D01*
X117587031Y-85972707D01*
X117656530Y-85868102D01*
X117671731Y-85845223D01*
X117675219Y-85836042D01*
X117719006Y-85720769D01*
X117731521Y-85687823D01*
X117754955Y-85521088D01*
X117755249Y-85500000D01*
X117750942Y-85461598D01*
X117737266Y-85339672D01*
X117737265Y-85339669D01*
X117736481Y-85332676D01*
X117681108Y-85173668D01*
X117591884Y-85030879D01*
X117582161Y-85021088D01*
X117537094Y-84975705D01*
X117503287Y-84913274D01*
X117500500Y-84886921D01*
X117500500Y-84570181D01*
X117501828Y-84558296D01*
X117501318Y-84558255D01*
X117502038Y-84549310D01*
X117504019Y-84540553D01*
X117503419Y-84530879D01*
X117502897Y-84522459D01*
X117518644Y-84453230D01*
X117569318Y-84403505D01*
X117638832Y-84389071D01*
X117705115Y-84414510D01*
X117717750Y-84425564D01*
X119096466Y-85804280D01*
X119103932Y-85813624D01*
X119104322Y-85813292D01*
X119110140Y-85820128D01*
X119114930Y-85827720D01*
X119121658Y-85833662D01*
X119121659Y-85833663D01*
X119154600Y-85862755D01*
X119160288Y-85868102D01*
X119171506Y-85879320D01*
X119175094Y-85882009D01*
X119175095Y-85882010D01*
X119179684Y-85885450D01*
X119187523Y-85891832D01*
X119204741Y-85907038D01*
X119222388Y-85922623D01*
X119230511Y-85926437D01*
X119233664Y-85928508D01*
X119246676Y-85936327D01*
X119249994Y-85938143D01*
X119257176Y-85943526D01*
X119300741Y-85959858D01*
X119310050Y-85963780D01*
X119352163Y-85983553D01*
X119361036Y-85984935D01*
X119364658Y-85986042D01*
X119379328Y-85989891D01*
X119383017Y-85990702D01*
X119391419Y-85993852D01*
X119400364Y-85994517D01*
X119400374Y-85994519D01*
X119437828Y-85997302D01*
X119447855Y-85998452D01*
X119461009Y-86000500D01*
X119476203Y-86000500D01*
X119485541Y-86000846D01*
X119534391Y-86004476D01*
X119543167Y-86002603D01*
X119552124Y-86001992D01*
X119552124Y-86001998D01*
X119566317Y-86000500D01*
X121886467Y-86000500D01*
X121954588Y-86020502D01*
X121977100Y-86038970D01*
X122018586Y-86081929D01*
X122041195Y-86096724D01*
X122153577Y-86170266D01*
X122153581Y-86170268D01*
X122159475Y-86174125D01*
X122317289Y-86232815D01*
X122324270Y-86233746D01*
X122324272Y-86233747D01*
X122369812Y-86239823D01*
X122484183Y-86255083D01*
X122491194Y-86254445D01*
X122491198Y-86254445D01*
X122644843Y-86240462D01*
X122651864Y-86239823D01*
X122658566Y-86237645D01*
X122658568Y-86237645D01*
X122805298Y-86189970D01*
X122805301Y-86189969D01*
X122811997Y-86187793D01*
X122956623Y-86101578D01*
X122961717Y-86096727D01*
X122961721Y-86096724D01*
X123069778Y-85993823D01*
X134994391Y-85993823D01*
X134995555Y-86002725D01*
X134995555Y-86002728D01*
X135000295Y-86038972D01*
X135012980Y-86135979D01*
X135070720Y-86267203D01*
X135076497Y-86274076D01*
X135076498Y-86274077D01*
X135083792Y-86282754D01*
X135162970Y-86376948D01*
X135282313Y-86456390D01*
X135419157Y-86499142D01*
X135428129Y-86499306D01*
X135428132Y-86499307D01*
X135493463Y-86500504D01*
X135562499Y-86501770D01*
X135571533Y-86499307D01*
X135692158Y-86466421D01*
X135692160Y-86466420D01*
X135700817Y-86464060D01*
X135822991Y-86389045D01*
X135919200Y-86282754D01*
X135981710Y-86153733D01*
X136005496Y-86012354D01*
X136005647Y-86000000D01*
X135992334Y-85907038D01*
X135986596Y-85866968D01*
X135986595Y-85866965D01*
X135985323Y-85858082D01*
X135980220Y-85846857D01*
X135960328Y-85803109D01*
X135925984Y-85727572D01*
X135869848Y-85662423D01*
X135838260Y-85625763D01*
X135838257Y-85625760D01*
X135832400Y-85618963D01*
X135712095Y-85540985D01*
X135574739Y-85499907D01*
X135565763Y-85499852D01*
X135565762Y-85499852D01*
X135505555Y-85499484D01*
X135431376Y-85499031D01*
X135293529Y-85538428D01*
X135172280Y-85614930D01*
X135077377Y-85722388D01*
X135016447Y-85852163D01*
X135013532Y-85870886D01*
X134997293Y-85975185D01*
X134994391Y-85993823D01*
X123069778Y-85993823D01*
X123073454Y-85990322D01*
X123073455Y-85990320D01*
X123078554Y-85985465D01*
X123087031Y-85972707D01*
X123156530Y-85868102D01*
X123171731Y-85845223D01*
X123175219Y-85836042D01*
X123219006Y-85720769D01*
X123231521Y-85687823D01*
X123254955Y-85521088D01*
X123255249Y-85500000D01*
X123250942Y-85461598D01*
X123237266Y-85339672D01*
X123237265Y-85339669D01*
X123236481Y-85332676D01*
X123181108Y-85173668D01*
X123091884Y-85030879D01*
X123082161Y-85021088D01*
X122978205Y-84916403D01*
X122978201Y-84916400D01*
X122973242Y-84911406D01*
X122964513Y-84905866D01*
X122870225Y-84846030D01*
X122831079Y-84821187D01*
X122672462Y-84764706D01*
X122665474Y-84763873D01*
X122665471Y-84763872D01*
X122562674Y-84751614D01*
X122497462Y-84723712D01*
X122460610Y-84747396D01*
X122438283Y-84751810D01*
X122337821Y-84762369D01*
X122331155Y-84764638D01*
X122331152Y-84764639D01*
X122185098Y-84814360D01*
X122185095Y-84814361D01*
X122178431Y-84816630D01*
X122172436Y-84820318D01*
X122172432Y-84820320D01*
X122041021Y-84901165D01*
X122041019Y-84901167D01*
X122035022Y-84904856D01*
X122014880Y-84924581D01*
X121975112Y-84963524D01*
X121912447Y-84996894D01*
X121886955Y-84999500D01*
X119759504Y-84999500D01*
X119691383Y-84979498D01*
X119670409Y-84962595D01*
X116037405Y-81329591D01*
X116003379Y-81267279D01*
X116000500Y-81240496D01*
X116000500Y-77126000D01*
X116020502Y-77057879D01*
X116074158Y-77011386D01*
X116126500Y-77000000D01*
X116373500Y-77000000D01*
X116441621Y-77020002D01*
X116488114Y-77073658D01*
X116499500Y-77126000D01*
X116499500Y-80929819D01*
X116498172Y-80941704D01*
X116498682Y-80941745D01*
X116497962Y-80950691D01*
X116495981Y-80959447D01*
X116496537Y-80968407D01*
X116499258Y-81012264D01*
X116499500Y-81020067D01*
X116499500Y-81035940D01*
X116500135Y-81040374D01*
X116500948Y-81046050D01*
X116501978Y-81056106D01*
X116503709Y-81083999D01*
X116504859Y-81102538D01*
X116507907Y-81110982D01*
X116508676Y-81114694D01*
X116512343Y-81129399D01*
X116513404Y-81133027D01*
X116514677Y-81141918D01*
X116533939Y-81184282D01*
X116537746Y-81193637D01*
X116550491Y-81228943D01*
X116550493Y-81228947D01*
X116553540Y-81237387D01*
X116558835Y-81244635D01*
X116560611Y-81247975D01*
X116568274Y-81261089D01*
X116570303Y-81264261D01*
X116574016Y-81272428D01*
X116579871Y-81279223D01*
X116579873Y-81279226D01*
X116604387Y-81307675D01*
X116610675Y-81315595D01*
X116618522Y-81326336D01*
X116629265Y-81337079D01*
X116635623Y-81343925D01*
X116667600Y-81381037D01*
X116675134Y-81385920D01*
X116681896Y-81391819D01*
X116681892Y-81391824D01*
X116692986Y-81400800D01*
X119596466Y-84304280D01*
X119603932Y-84313624D01*
X119604322Y-84313292D01*
X119610140Y-84320128D01*
X119614930Y-84327720D01*
X119621658Y-84333662D01*
X119621659Y-84333663D01*
X119654600Y-84362755D01*
X119660288Y-84368102D01*
X119671507Y-84379321D01*
X119675095Y-84382010D01*
X119675096Y-84382011D01*
X119679684Y-84385450D01*
X119687523Y-84391832D01*
X119713202Y-84414510D01*
X119722388Y-84422623D01*
X119730506Y-84426434D01*
X119733659Y-84428506D01*
X119746680Y-84436329D01*
X119749989Y-84438141D01*
X119757176Y-84443527D01*
X119765581Y-84446678D01*
X119765583Y-84446679D01*
X119800737Y-84459857D01*
X119810057Y-84463784D01*
X119852163Y-84483553D01*
X119861035Y-84484934D01*
X119864658Y-84486042D01*
X119879317Y-84489888D01*
X119883014Y-84490701D01*
X119891420Y-84493852D01*
X119937843Y-84497302D01*
X119947856Y-84498452D01*
X119961009Y-84500500D01*
X119976204Y-84500500D01*
X119985542Y-84500846D01*
X120034392Y-84504476D01*
X120043168Y-84502603D01*
X120052125Y-84501992D01*
X120052125Y-84501998D01*
X120066318Y-84500500D01*
X122425112Y-84500500D01*
X122493233Y-84520502D01*
X122500906Y-84529357D01*
X122556661Y-84502251D01*
X122577594Y-84500500D01*
X128240496Y-84500500D01*
X128308617Y-84520502D01*
X128329591Y-84537405D01*
X129567175Y-85774989D01*
X129574641Y-85784333D01*
X129575031Y-85784001D01*
X129580849Y-85790837D01*
X129585639Y-85798429D01*
X129592367Y-85804371D01*
X129592368Y-85804372D01*
X129625309Y-85833464D01*
X129630997Y-85838811D01*
X129642216Y-85850030D01*
X129645804Y-85852719D01*
X129645805Y-85852720D01*
X129650393Y-85856159D01*
X129658232Y-85862541D01*
X129661394Y-85865333D01*
X129693097Y-85893332D01*
X129701215Y-85897143D01*
X129704368Y-85899215D01*
X129717389Y-85907038D01*
X129720698Y-85908850D01*
X129727885Y-85914236D01*
X129736290Y-85917387D01*
X129736292Y-85917388D01*
X129771446Y-85930566D01*
X129780766Y-85934493D01*
X129822872Y-85954262D01*
X129831744Y-85955643D01*
X129835367Y-85956751D01*
X129850026Y-85960597D01*
X129853723Y-85961410D01*
X129862129Y-85964561D01*
X129908552Y-85968011D01*
X129918565Y-85969161D01*
X129931718Y-85971209D01*
X129946913Y-85971209D01*
X129956251Y-85971555D01*
X130005101Y-85975185D01*
X130013877Y-85973312D01*
X130022834Y-85972701D01*
X130022834Y-85972707D01*
X130037027Y-85971209D01*
X133452016Y-85971209D01*
X133454327Y-85971230D01*
X133522452Y-85972479D01*
X133531107Y-85970120D01*
X133531111Y-85970119D01*
X133554120Y-85963846D01*
X133569396Y-85960683D01*
X133601871Y-85956032D01*
X133610037Y-85952319D01*
X133610041Y-85952318D01*
X133621239Y-85947226D01*
X133640243Y-85940365D01*
X133660770Y-85934769D01*
X133688739Y-85917596D01*
X133702504Y-85910278D01*
X133724204Y-85900412D01*
X133724210Y-85900408D01*
X133732381Y-85896693D01*
X133739182Y-85890833D01*
X133739188Y-85890829D01*
X133748499Y-85882806D01*
X133764815Y-85870886D01*
X133775293Y-85864452D01*
X133775294Y-85864451D01*
X133782944Y-85859754D01*
X133788968Y-85853099D01*
X133788970Y-85853097D01*
X133804965Y-85835426D01*
X133816134Y-85824526D01*
X133834192Y-85808967D01*
X133834194Y-85808965D01*
X133840990Y-85803109D01*
X133845869Y-85795581D01*
X133845873Y-85795577D01*
X133852565Y-85785252D01*
X133864880Y-85769232D01*
X133873128Y-85760120D01*
X133873129Y-85760118D01*
X133879153Y-85753463D01*
X133893460Y-85723934D01*
X133901117Y-85710344D01*
X133914084Y-85690339D01*
X133918968Y-85682804D01*
X133925067Y-85662411D01*
X133932385Y-85643591D01*
X133941663Y-85624442D01*
X133947106Y-85592088D01*
X133950643Y-85576889D01*
X133957474Y-85554050D01*
X133957475Y-85554046D01*
X133960046Y-85545448D01*
X133960176Y-85524173D01*
X133961920Y-85504038D01*
X133963259Y-85496077D01*
X133965449Y-85483063D01*
X133965600Y-85470709D01*
X133962039Y-85445842D01*
X133960768Y-85427211D01*
X133960867Y-85411056D01*
X133960922Y-85402085D01*
X133952960Y-85374225D01*
X133949383Y-85357466D01*
X133946548Y-85337675D01*
X133945276Y-85328791D01*
X133941563Y-85320624D01*
X133941562Y-85320621D01*
X133934878Y-85305921D01*
X133928430Y-85288397D01*
X133923991Y-85272864D01*
X133923989Y-85272860D01*
X133921525Y-85264238D01*
X133906064Y-85239733D01*
X133897927Y-85224651D01*
X133889655Y-85206457D01*
X133889653Y-85206454D01*
X133885937Y-85198281D01*
X133869534Y-85179245D01*
X133858426Y-85164232D01*
X133845023Y-85142989D01*
X133838294Y-85137046D01*
X133838292Y-85137044D01*
X133823309Y-85123812D01*
X133811263Y-85111618D01*
X133798213Y-85096473D01*
X133792354Y-85089673D01*
X133793284Y-85088872D01*
X133759848Y-85036459D01*
X133760087Y-84965462D01*
X133798671Y-84905866D01*
X133814935Y-84893992D01*
X133815340Y-84893744D01*
X133815346Y-84893739D01*
X133822991Y-84889045D01*
X133830240Y-84881037D01*
X133913178Y-84789407D01*
X133919200Y-84782754D01*
X133981710Y-84653733D01*
X134005496Y-84512354D01*
X134005647Y-84500000D01*
X133994248Y-84420401D01*
X133986596Y-84366968D01*
X133986595Y-84366965D01*
X133985323Y-84358082D01*
X133979477Y-84345223D01*
X133941916Y-84262613D01*
X133925984Y-84227572D01*
X133867423Y-84159609D01*
X133838260Y-84125763D01*
X133838257Y-84125760D01*
X133832400Y-84118963D01*
X133712095Y-84040985D01*
X133574739Y-83999907D01*
X133565763Y-83999852D01*
X133565762Y-83999852D01*
X133505555Y-83999484D01*
X133431376Y-83999031D01*
X133293529Y-84038428D01*
X133172280Y-84114930D01*
X133077377Y-84222388D01*
X133016447Y-84352163D01*
X133012713Y-84376148D01*
X132995946Y-84483836D01*
X132994391Y-84493823D01*
X132995555Y-84502725D01*
X132995555Y-84502728D01*
X133002535Y-84556105D01*
X133012980Y-84635979D01*
X133070720Y-84767203D01*
X133076495Y-84774073D01*
X133078707Y-84777627D01*
X133097723Y-84846030D01*
X133076739Y-84913854D01*
X133022417Y-84959567D01*
X132971736Y-84970209D01*
X130230213Y-84970209D01*
X130162092Y-84950207D01*
X130141118Y-84933304D01*
X128903534Y-83695720D01*
X128896068Y-83686376D01*
X128895678Y-83686708D01*
X128889860Y-83679872D01*
X128885070Y-83672280D01*
X128873588Y-83662139D01*
X128845400Y-83637245D01*
X128839712Y-83631898D01*
X128828494Y-83620680D01*
X128824905Y-83617990D01*
X128820316Y-83614550D01*
X128812477Y-83608168D01*
X128784339Y-83583318D01*
X128777612Y-83577377D01*
X128769489Y-83573563D01*
X128766336Y-83571492D01*
X128753324Y-83563673D01*
X128750005Y-83561856D01*
X128742824Y-83556474D01*
X128722968Y-83549030D01*
X128699264Y-83540144D01*
X128689947Y-83536217D01*
X128655966Y-83520263D01*
X128655963Y-83520262D01*
X128647837Y-83516447D01*
X128638963Y-83515065D01*
X128635350Y-83513961D01*
X128620693Y-83510115D01*
X128616990Y-83509301D01*
X128608580Y-83506148D01*
X128562157Y-83502698D01*
X128552144Y-83501548D01*
X128538991Y-83499500D01*
X128523796Y-83499500D01*
X128514459Y-83499154D01*
X128499036Y-83498008D01*
X128465608Y-83495524D01*
X128456832Y-83497397D01*
X128447875Y-83498008D01*
X128447875Y-83498002D01*
X128433682Y-83499500D01*
X120259504Y-83499500D01*
X120191383Y-83479498D01*
X120170409Y-83462595D01*
X119926323Y-83218509D01*
X119892297Y-83156197D01*
X119897362Y-83085382D01*
X119939909Y-83028546D01*
X120006429Y-83003735D01*
X120024755Y-83003760D01*
X120034391Y-83004476D01*
X120043167Y-83002603D01*
X120052124Y-83001992D01*
X120052124Y-83001998D01*
X120066317Y-83000500D01*
X129492063Y-83000500D01*
X129494374Y-83000521D01*
X129562499Y-83001770D01*
X129571154Y-82999411D01*
X129571158Y-82999410D01*
X129594167Y-82993137D01*
X129609443Y-82989974D01*
X129641918Y-82985323D01*
X129650084Y-82981610D01*
X129650088Y-82981609D01*
X129661286Y-82976517D01*
X129680290Y-82969656D01*
X129700817Y-82964060D01*
X129728786Y-82946887D01*
X129742551Y-82939569D01*
X129764251Y-82929703D01*
X129764257Y-82929699D01*
X129772428Y-82925984D01*
X129779229Y-82920124D01*
X129779235Y-82920120D01*
X129788546Y-82912097D01*
X129804862Y-82900177D01*
X129815340Y-82893743D01*
X129815341Y-82893742D01*
X129822991Y-82889045D01*
X129829015Y-82882390D01*
X129829017Y-82882388D01*
X129845012Y-82864717D01*
X129856181Y-82853817D01*
X129874239Y-82838258D01*
X129874241Y-82838256D01*
X129881037Y-82832400D01*
X129885916Y-82824872D01*
X129885920Y-82824868D01*
X129892612Y-82814543D01*
X129904927Y-82798523D01*
X129913175Y-82789411D01*
X129913178Y-82789407D01*
X129919200Y-82782754D01*
X129933507Y-82753225D01*
X129941164Y-82739635D01*
X129954131Y-82719630D01*
X129959015Y-82712095D01*
X129965114Y-82691702D01*
X129972432Y-82672882D01*
X129981710Y-82653733D01*
X129987153Y-82621379D01*
X129990690Y-82606180D01*
X129997521Y-82583341D01*
X129997522Y-82583337D01*
X130000093Y-82574739D01*
X130000223Y-82553464D01*
X130001967Y-82533329D01*
X130003762Y-82522661D01*
X130005496Y-82512354D01*
X130005647Y-82500000D01*
X130004958Y-82495184D01*
X130004763Y-82493823D01*
X132994391Y-82493823D01*
X132995555Y-82502725D01*
X132995555Y-82502728D01*
X133002190Y-82553464D01*
X133012980Y-82635979D01*
X133070720Y-82767203D01*
X133076497Y-82774076D01*
X133076498Y-82774077D01*
X133157190Y-82870072D01*
X133162970Y-82876948D01*
X133171147Y-82882391D01*
X133264498Y-82944531D01*
X133282313Y-82956390D01*
X133419157Y-82999142D01*
X133428129Y-82999306D01*
X133428132Y-82999307D01*
X133493228Y-83000500D01*
X133562499Y-83001770D01*
X133571533Y-82999307D01*
X133692158Y-82966421D01*
X133692160Y-82966420D01*
X133700817Y-82964060D01*
X133822991Y-82889045D01*
X133845012Y-82864717D01*
X133904927Y-82798523D01*
X133919200Y-82782754D01*
X133981710Y-82653733D01*
X134005496Y-82512354D01*
X134005647Y-82500000D01*
X133990155Y-82391824D01*
X133986596Y-82366968D01*
X133986595Y-82366965D01*
X133985323Y-82358082D01*
X133981609Y-82349912D01*
X133952523Y-82285942D01*
X133925984Y-82227572D01*
X133896645Y-82193523D01*
X133838260Y-82125763D01*
X133838257Y-82125760D01*
X133832400Y-82118963D01*
X133712095Y-82040985D01*
X133574739Y-81999907D01*
X133565763Y-81999852D01*
X133565762Y-81999852D01*
X133505555Y-81999484D01*
X133431376Y-81999031D01*
X133293529Y-82038428D01*
X133172280Y-82114930D01*
X133166338Y-82121658D01*
X133166337Y-82121659D01*
X133149336Y-82140909D01*
X133077377Y-82222388D01*
X133016447Y-82352163D01*
X133011809Y-82381954D01*
X132996159Y-82482468D01*
X132994391Y-82493823D01*
X130004763Y-82493823D01*
X130002086Y-82475138D01*
X130000815Y-82456502D01*
X130000914Y-82440347D01*
X130000969Y-82431376D01*
X129993007Y-82403516D01*
X129989430Y-82386757D01*
X129987467Y-82373054D01*
X129985323Y-82358082D01*
X129981609Y-82349913D01*
X129981609Y-82349912D01*
X129974925Y-82335212D01*
X129968477Y-82317688D01*
X129964038Y-82302155D01*
X129964036Y-82302151D01*
X129961572Y-82293529D01*
X129946111Y-82269024D01*
X129937974Y-82253942D01*
X129929702Y-82235748D01*
X129929700Y-82235745D01*
X129925984Y-82227572D01*
X129909581Y-82208536D01*
X129898473Y-82193523D01*
X129895540Y-82188875D01*
X129885070Y-82172280D01*
X129878341Y-82166337D01*
X129878339Y-82166335D01*
X129863356Y-82153103D01*
X129851310Y-82140909D01*
X129838260Y-82125764D01*
X129838259Y-82125763D01*
X129832400Y-82118963D01*
X129811314Y-82105296D01*
X129796444Y-82094009D01*
X129784338Y-82083317D01*
X129784337Y-82083317D01*
X129777612Y-82077377D01*
X129751391Y-82065066D01*
X129736413Y-82056746D01*
X129719631Y-82045869D01*
X129719628Y-82045868D01*
X129712095Y-82040985D01*
X129688019Y-82033785D01*
X129670589Y-82027129D01*
X129647837Y-82016447D01*
X129619213Y-82011990D01*
X129602495Y-82008207D01*
X129583340Y-82002478D01*
X129583332Y-82002477D01*
X129574739Y-81999907D01*
X129565768Y-81999852D01*
X129565767Y-81999852D01*
X129561038Y-81999823D01*
X129540818Y-81999699D01*
X129540075Y-81999668D01*
X129538991Y-81999500D01*
X129508574Y-81999500D01*
X129507804Y-81999498D01*
X129507191Y-81999494D01*
X129431376Y-81999031D01*
X129430047Y-81999411D01*
X129428737Y-81999500D01*
X120259504Y-81999500D01*
X120191383Y-81979498D01*
X120170409Y-81962595D01*
X118537405Y-80329591D01*
X118503379Y-80267279D01*
X118500500Y-80240496D01*
X118500500Y-77126000D01*
X118520502Y-77057879D01*
X118574158Y-77011386D01*
X118626500Y-77000000D01*
X121500000Y-77000000D01*
X129702725Y-68797275D01*
X129711886Y-68788971D01*
X129849050Y-68676403D01*
X129869588Y-68662680D01*
X130020584Y-68581971D01*
X130043404Y-68572518D01*
X130207256Y-68522815D01*
X130231473Y-68517999D01*
X130408051Y-68500607D01*
X130420401Y-68500000D01*
X140993813Y-68500000D01*
X141006163Y-68500607D01*
G37*
G04 #@! TD.AperFunction*
G04 #@! TA.AperFunction,Conductor*
G36*
X145691621Y-133020002D02*
G01*
X145738114Y-133073658D01*
X145749500Y-133126000D01*
X145749500Y-144874000D01*
X145729498Y-144942121D01*
X145675842Y-144988614D01*
X145623500Y-145000000D01*
X140126000Y-145000000D01*
X140057879Y-144979998D01*
X140011386Y-144926342D01*
X140000000Y-144874000D01*
X140000000Y-133126000D01*
X140020002Y-133057879D01*
X140073658Y-133011386D01*
X140126000Y-133000000D01*
X145623500Y-133000000D01*
X145691621Y-133020002D01*
G37*
G04 #@! TD.AperFunction*
G04 #@! TA.AperFunction,Conductor*
G36*
X145691621Y-125020002D02*
G01*
X145738114Y-125073658D01*
X145749500Y-125126000D01*
X145749500Y-131874000D01*
X145729498Y-131942121D01*
X145675842Y-131988614D01*
X145623500Y-132000000D01*
X141052190Y-132000000D01*
X140984069Y-131979998D01*
X140963095Y-131963095D01*
X140036905Y-131036905D01*
X140002879Y-130974593D01*
X140000000Y-130947810D01*
X140000000Y-130555548D01*
X140001746Y-130534643D01*
X140004689Y-130517149D01*
X140005496Y-130512354D01*
X140005647Y-130500000D01*
X140001271Y-130469444D01*
X140000000Y-130451595D01*
X140000000Y-125126000D01*
X140020002Y-125057879D01*
X140073658Y-125011386D01*
X140126000Y-125000000D01*
X145623500Y-125000000D01*
X145691621Y-125020002D01*
G37*
G04 #@! TD.AperFunction*
G04 #@! TA.AperFunction,Conductor*
G36*
X145691621Y-119520002D02*
G01*
X145738114Y-119573658D01*
X145749500Y-119626000D01*
X145749500Y-123874000D01*
X145729498Y-123942121D01*
X145675842Y-123988614D01*
X145623500Y-124000000D01*
X139500000Y-124000000D01*
X139500000Y-127874000D01*
X139479998Y-127942121D01*
X139426342Y-127988614D01*
X139374000Y-128000000D01*
X136126000Y-128000000D01*
X136057879Y-127979998D01*
X136011386Y-127926342D01*
X136000000Y-127874000D01*
X136000000Y-119626000D01*
X136020002Y-119557879D01*
X136073658Y-119511386D01*
X136126000Y-119500000D01*
X145623500Y-119500000D01*
X145691621Y-119520002D01*
G37*
G04 #@! TD.AperFunction*
G04 #@! TA.AperFunction,Conductor*
G36*
X149178488Y-50270502D02*
G01*
X149190300Y-50279101D01*
X149197516Y-50285023D01*
X149214979Y-50302485D01*
X149323601Y-50434842D01*
X149337319Y-50455372D01*
X149418029Y-50606371D01*
X149427482Y-50629190D01*
X149477185Y-50793043D01*
X149482002Y-50817263D01*
X149499393Y-50993837D01*
X149500000Y-51006187D01*
X149500000Y-54500000D01*
X151000000Y-56000000D01*
X158458618Y-56000000D01*
X158470981Y-56000608D01*
X158647748Y-56018037D01*
X158672002Y-56022867D01*
X158681705Y-56025814D01*
X158741073Y-56064750D01*
X158749926Y-56076484D01*
X164728338Y-65044102D01*
X164749500Y-65113994D01*
X164749500Y-76110367D01*
X164729498Y-76178488D01*
X164720899Y-76190300D01*
X164714977Y-76197516D01*
X164697515Y-76214979D01*
X164565158Y-76323601D01*
X164544631Y-76337317D01*
X164452417Y-76386607D01*
X164393629Y-76418029D01*
X164370810Y-76427482D01*
X164206957Y-76477185D01*
X164182740Y-76482001D01*
X164006163Y-76499393D01*
X163993813Y-76500000D01*
X162006187Y-76500000D01*
X161993837Y-76499393D01*
X161817260Y-76482001D01*
X161793043Y-76477185D01*
X161629190Y-76427482D01*
X161606371Y-76418029D01*
X161547583Y-76386607D01*
X161455369Y-76337317D01*
X161434842Y-76323601D01*
X161302479Y-76214974D01*
X161285026Y-76197521D01*
X161176399Y-76065158D01*
X161162681Y-76044628D01*
X161081971Y-75893629D01*
X161072518Y-75870809D01*
X161022815Y-75706957D01*
X161017998Y-75682737D01*
X161000607Y-75506163D01*
X161000000Y-75493813D01*
X161000000Y-66500000D01*
X158006187Y-66500000D01*
X157993837Y-66499393D01*
X157817260Y-66482001D01*
X157793043Y-66477185D01*
X157629190Y-66427482D01*
X157606371Y-66418029D01*
X157504019Y-66363321D01*
X157455369Y-66337317D01*
X157434842Y-66323601D01*
X157302479Y-66214974D01*
X157285026Y-66197521D01*
X157176399Y-66065158D01*
X157162681Y-66044628D01*
X157128557Y-65980785D01*
X157081971Y-65893629D01*
X157072518Y-65870809D01*
X157022860Y-65707107D01*
X157022815Y-65706957D01*
X157017998Y-65682737D01*
X157004396Y-65544628D01*
X157000607Y-65506163D01*
X157000000Y-65493813D01*
X157000000Y-62000000D01*
X148920401Y-62000000D01*
X148908051Y-61999393D01*
X148731473Y-61982001D01*
X148707256Y-61977185D01*
X148543403Y-61927482D01*
X148520584Y-61918029D01*
X148369588Y-61837320D01*
X148349050Y-61823597D01*
X148211886Y-61711029D01*
X148202725Y-61702725D01*
X141000000Y-54500000D01*
X107500000Y-54500000D01*
X101797275Y-60202725D01*
X101788114Y-60211029D01*
X101650950Y-60323597D01*
X101630412Y-60337320D01*
X101479416Y-60418029D01*
X101456597Y-60427482D01*
X101292744Y-60477185D01*
X101268527Y-60482001D01*
X101091949Y-60499393D01*
X101079599Y-60500000D01*
X93000000Y-60500000D01*
X93000000Y-64993813D01*
X92999393Y-65006163D01*
X92988773Y-65113994D01*
X92982002Y-65182737D01*
X92977185Y-65206957D01*
X92927482Y-65370809D01*
X92918029Y-65393629D01*
X92837319Y-65544628D01*
X92823601Y-65565158D01*
X92714974Y-65697521D01*
X92697521Y-65714974D01*
X92565158Y-65823601D01*
X92544631Y-65837317D01*
X92481972Y-65870809D01*
X92393629Y-65918029D01*
X92370810Y-65927482D01*
X92206957Y-65977185D01*
X92182740Y-65982001D01*
X92006163Y-65999393D01*
X91993813Y-66000000D01*
X89000000Y-66000000D01*
X89000000Y-75493813D01*
X88999393Y-75506163D01*
X88982002Y-75682737D01*
X88977185Y-75706957D01*
X88927482Y-75870809D01*
X88918029Y-75893629D01*
X88837319Y-76044628D01*
X88823601Y-76065158D01*
X88714974Y-76197521D01*
X88697521Y-76214974D01*
X88565158Y-76323601D01*
X88544631Y-76337317D01*
X88452417Y-76386607D01*
X88393629Y-76418029D01*
X88370810Y-76427482D01*
X88206957Y-76477185D01*
X88182740Y-76482001D01*
X88006163Y-76499393D01*
X87993813Y-76500000D01*
X86006187Y-76500000D01*
X85993837Y-76499393D01*
X85817260Y-76482001D01*
X85793043Y-76477185D01*
X85629190Y-76427482D01*
X85606371Y-76418029D01*
X85547583Y-76386607D01*
X85455369Y-76337317D01*
X85434842Y-76323601D01*
X85302485Y-76214979D01*
X85285023Y-76197516D01*
X85279101Y-76190300D01*
X85251347Y-76124953D01*
X85250500Y-76110367D01*
X85250500Y-65113994D01*
X85271662Y-65044102D01*
X87697826Y-61404856D01*
X91250075Y-56076483D01*
X91304504Y-56030898D01*
X91318304Y-56025811D01*
X91328006Y-56022865D01*
X91352252Y-56018037D01*
X91529019Y-56000608D01*
X91541382Y-56000000D01*
X99000000Y-56000000D01*
X100500000Y-54500000D01*
X100500000Y-51006187D01*
X100500607Y-50993837D01*
X100517998Y-50817263D01*
X100522815Y-50793043D01*
X100572518Y-50629190D01*
X100581971Y-50606371D01*
X100662681Y-50455372D01*
X100676399Y-50434842D01*
X100785021Y-50302485D01*
X100802484Y-50285023D01*
X100809700Y-50279101D01*
X100875047Y-50251347D01*
X100889633Y-50250500D01*
X149110367Y-50250500D01*
X149178488Y-50270502D01*
G37*
G04 #@! TD.AperFunction*
G04 #@! TA.AperFunction,Conductor*
G36*
X150506163Y-88000607D02*
G01*
X150682740Y-88017999D01*
X150706957Y-88022815D01*
X150870809Y-88072518D01*
X150893629Y-88081971D01*
X151044631Y-88162683D01*
X151065158Y-88176399D01*
X151197521Y-88285026D01*
X151214974Y-88302479D01*
X151323601Y-88434842D01*
X151337319Y-88455372D01*
X151418029Y-88606371D01*
X151427482Y-88629190D01*
X151477185Y-88793043D01*
X151482002Y-88817263D01*
X151499393Y-88993837D01*
X151500000Y-89006187D01*
X151500000Y-97202807D01*
X151479998Y-97270928D01*
X151426342Y-97317421D01*
X151356068Y-97327525D01*
X151331511Y-97319973D01*
X151331079Y-97321187D01*
X151179098Y-97267069D01*
X151172462Y-97264706D01*
X151165474Y-97263873D01*
X151165471Y-97263872D01*
X151072300Y-97252762D01*
X151005273Y-97244769D01*
X150998270Y-97245505D01*
X150998269Y-97245505D01*
X150952712Y-97250293D01*
X150837821Y-97262369D01*
X150831155Y-97264638D01*
X150831152Y-97264639D01*
X150685098Y-97314360D01*
X150685095Y-97314361D01*
X150678431Y-97316630D01*
X150672436Y-97320318D01*
X150672432Y-97320320D01*
X150541021Y-97401165D01*
X150541019Y-97401167D01*
X150535022Y-97404856D01*
X150414724Y-97522661D01*
X150323515Y-97664190D01*
X150321105Y-97670810D01*
X150321104Y-97670813D01*
X150310976Y-97698639D01*
X150265927Y-97822409D01*
X150244825Y-97989455D01*
X150245512Y-97996462D01*
X150245512Y-97996465D01*
X150254399Y-98087104D01*
X150261255Y-98157025D01*
X150314402Y-98316791D01*
X150401624Y-98460812D01*
X150518586Y-98581929D01*
X150524483Y-98585788D01*
X150653577Y-98670266D01*
X150653581Y-98670268D01*
X150659475Y-98674125D01*
X150817289Y-98732815D01*
X150824270Y-98733746D01*
X150824272Y-98733747D01*
X150869812Y-98739823D01*
X150984183Y-98755083D01*
X150991194Y-98754445D01*
X150991198Y-98754445D01*
X151144843Y-98740462D01*
X151151864Y-98739823D01*
X151158566Y-98737645D01*
X151158568Y-98737645D01*
X151267810Y-98702150D01*
X151311997Y-98687793D01*
X151318042Y-98684190D01*
X151321952Y-98682416D01*
X151392251Y-98672492D01*
X151456756Y-98702150D01*
X151494987Y-98761975D01*
X151500000Y-98797163D01*
X151500000Y-105079599D01*
X151499393Y-105091949D01*
X151482385Y-105264639D01*
X151482002Y-105268524D01*
X151477185Y-105292744D01*
X151442335Y-105407631D01*
X151427482Y-105456596D01*
X151418029Y-105479416D01*
X151337320Y-105630412D01*
X151323597Y-105650950D01*
X151211029Y-105788114D01*
X151202725Y-105797275D01*
X144797275Y-112202725D01*
X144788114Y-112211029D01*
X144650950Y-112323597D01*
X144630412Y-112337320D01*
X144479416Y-112418029D01*
X144456597Y-112427482D01*
X144292744Y-112477185D01*
X144268527Y-112482001D01*
X144095178Y-112499075D01*
X144091949Y-112499393D01*
X144079599Y-112500000D01*
X136076118Y-112500000D01*
X136074739Y-112499898D01*
X136074739Y-112499907D01*
X135938649Y-112499075D01*
X135938643Y-112499075D01*
X135931376Y-112499031D01*
X135928894Y-112499740D01*
X135925088Y-112500000D01*
X135076118Y-112500000D01*
X135074739Y-112499898D01*
X135074739Y-112499907D01*
X134938649Y-112499075D01*
X134938643Y-112499075D01*
X134931376Y-112499031D01*
X134928894Y-112499740D01*
X134925088Y-112500000D01*
X129939125Y-112500000D01*
X129871004Y-112479998D01*
X129824511Y-112426342D01*
X129814407Y-112356068D01*
X129845710Y-112289445D01*
X129859348Y-112274378D01*
X129864189Y-112269320D01*
X129902763Y-112231214D01*
X129907121Y-112223367D01*
X129910265Y-112219226D01*
X129913178Y-112214907D01*
X129919200Y-112208254D01*
X129942824Y-112159494D01*
X129946058Y-112153269D01*
X129968018Y-112113734D01*
X129968019Y-112113732D01*
X129972378Y-112105884D01*
X129974358Y-112097131D01*
X129976207Y-112092290D01*
X129977796Y-112087311D01*
X129981710Y-112079233D01*
X129990696Y-112025818D01*
X129992057Y-112018915D01*
X129996544Y-111999086D01*
X130004019Y-111966053D01*
X130003463Y-111957093D01*
X130004130Y-111948806D01*
X130004292Y-111947502D01*
X130004254Y-111947499D01*
X130004688Y-111942655D01*
X130005496Y-111937854D01*
X130005647Y-111925500D01*
X129999050Y-111879435D01*
X129998022Y-111869395D01*
X129995697Y-111831925D01*
X129995141Y-111822962D01*
X129992093Y-111814518D01*
X129991324Y-111810806D01*
X129987657Y-111796101D01*
X129986596Y-111792473D01*
X129985323Y-111783582D01*
X129966061Y-111741218D01*
X129962254Y-111731863D01*
X129949509Y-111696557D01*
X129949507Y-111696553D01*
X129946460Y-111688113D01*
X129941165Y-111680865D01*
X129939389Y-111677525D01*
X129931726Y-111664411D01*
X129929697Y-111661239D01*
X129925984Y-111653072D01*
X129920129Y-111646277D01*
X129920127Y-111646274D01*
X129895613Y-111617825D01*
X129889324Y-111609904D01*
X129884352Y-111603098D01*
X129881478Y-111599164D01*
X129870735Y-111588421D01*
X129864377Y-111581574D01*
X129838259Y-111551263D01*
X129832400Y-111544463D01*
X129824866Y-111539580D01*
X129818104Y-111533681D01*
X129818108Y-111533676D01*
X129807014Y-111524700D01*
X129537405Y-111255091D01*
X129503379Y-111192779D01*
X129500500Y-111165996D01*
X129500500Y-109989455D01*
X139244825Y-109989455D01*
X139245512Y-109996462D01*
X139245512Y-109996465D01*
X139248311Y-110025010D01*
X139261255Y-110157025D01*
X139314402Y-110316791D01*
X139401624Y-110460812D01*
X139406513Y-110465875D01*
X139406514Y-110465876D01*
X139477825Y-110539720D01*
X139518586Y-110581929D01*
X139524483Y-110585788D01*
X139653577Y-110670266D01*
X139653581Y-110670268D01*
X139659475Y-110674125D01*
X139817289Y-110732815D01*
X139824270Y-110733746D01*
X139824272Y-110733747D01*
X139869812Y-110739823D01*
X139984183Y-110755083D01*
X139991194Y-110754445D01*
X139991198Y-110754445D01*
X140144843Y-110740462D01*
X140151864Y-110739823D01*
X140158566Y-110737645D01*
X140158568Y-110737645D01*
X140305298Y-110689970D01*
X140305301Y-110689969D01*
X140311997Y-110687793D01*
X140456623Y-110601578D01*
X140461717Y-110596727D01*
X140461721Y-110596724D01*
X140573454Y-110490322D01*
X140573455Y-110490320D01*
X140578554Y-110485465D01*
X140594934Y-110460812D01*
X140667836Y-110351085D01*
X140671731Y-110345223D01*
X140731521Y-110187823D01*
X140754955Y-110021088D01*
X140755249Y-110000000D01*
X140736481Y-109832676D01*
X140681108Y-109673668D01*
X140591884Y-109530879D01*
X140583723Y-109522661D01*
X140478205Y-109416403D01*
X140478201Y-109416400D01*
X140473242Y-109411406D01*
X140331079Y-109321187D01*
X140172462Y-109264706D01*
X140165474Y-109263873D01*
X140165471Y-109263872D01*
X140072300Y-109252762D01*
X140005273Y-109244769D01*
X139998270Y-109245505D01*
X139998269Y-109245505D01*
X139952712Y-109250293D01*
X139837821Y-109262369D01*
X139831155Y-109264638D01*
X139831152Y-109264639D01*
X139685098Y-109314360D01*
X139685095Y-109314361D01*
X139678431Y-109316630D01*
X139672436Y-109320318D01*
X139672432Y-109320320D01*
X139541021Y-109401165D01*
X139541019Y-109401167D01*
X139535022Y-109404856D01*
X139414724Y-109522661D01*
X139323515Y-109664190D01*
X139265927Y-109822409D01*
X139244825Y-109989455D01*
X129500500Y-109989455D01*
X129500500Y-108489455D01*
X146244825Y-108489455D01*
X146245512Y-108496462D01*
X146245512Y-108496465D01*
X146248311Y-108525010D01*
X146261255Y-108657025D01*
X146314402Y-108816791D01*
X146401624Y-108960812D01*
X146406513Y-108965875D01*
X146406514Y-108965876D01*
X146477825Y-109039720D01*
X146518586Y-109081929D01*
X146524483Y-109085788D01*
X146653577Y-109170266D01*
X146653581Y-109170268D01*
X146659475Y-109174125D01*
X146817289Y-109232815D01*
X146824270Y-109233746D01*
X146824272Y-109233747D01*
X146869812Y-109239823D01*
X146984183Y-109255083D01*
X146991194Y-109254445D01*
X146991198Y-109254445D01*
X147144843Y-109240462D01*
X147151864Y-109239823D01*
X147158566Y-109237645D01*
X147158568Y-109237645D01*
X147305298Y-109189970D01*
X147305301Y-109189969D01*
X147311997Y-109187793D01*
X147456623Y-109101578D01*
X147461717Y-109096727D01*
X147461721Y-109096724D01*
X147573454Y-108990322D01*
X147573455Y-108990320D01*
X147578554Y-108985465D01*
X147594934Y-108960812D01*
X147667836Y-108851085D01*
X147671731Y-108845223D01*
X147731521Y-108687823D01*
X147754955Y-108521088D01*
X147755249Y-108500000D01*
X147736481Y-108332676D01*
X147681108Y-108173668D01*
X147591884Y-108030879D01*
X147583723Y-108022661D01*
X147478205Y-107916403D01*
X147478201Y-107916400D01*
X147473242Y-107911406D01*
X147331079Y-107821187D01*
X147172462Y-107764706D01*
X147165474Y-107763873D01*
X147165471Y-107763872D01*
X147072300Y-107752762D01*
X147005273Y-107744769D01*
X146998270Y-107745505D01*
X146998269Y-107745505D01*
X146952712Y-107750293D01*
X146837821Y-107762369D01*
X146831155Y-107764638D01*
X146831152Y-107764639D01*
X146685098Y-107814360D01*
X146685095Y-107814361D01*
X146678431Y-107816630D01*
X146672436Y-107820318D01*
X146672432Y-107820320D01*
X146541021Y-107901165D01*
X146541019Y-107901167D01*
X146535022Y-107904856D01*
X146414724Y-108022661D01*
X146323515Y-108164190D01*
X146265927Y-108322409D01*
X146244825Y-108489455D01*
X129500500Y-108489455D01*
X129500500Y-107693323D01*
X143994391Y-107693323D01*
X143995555Y-107702225D01*
X143995555Y-107702228D01*
X144001227Y-107745603D01*
X144012980Y-107835479D01*
X144070720Y-107966703D01*
X144076497Y-107973576D01*
X144076498Y-107973577D01*
X144083792Y-107982254D01*
X144162970Y-108076448D01*
X144282313Y-108155890D01*
X144419157Y-108198642D01*
X144428129Y-108198806D01*
X144428132Y-108198807D01*
X144493463Y-108200004D01*
X144562499Y-108201270D01*
X144571533Y-108198807D01*
X144692158Y-108165921D01*
X144692160Y-108165920D01*
X144700817Y-108163560D01*
X144822991Y-108088545D01*
X144919200Y-107982254D01*
X144981710Y-107853233D01*
X145005496Y-107711854D01*
X145005647Y-107699500D01*
X144996305Y-107634269D01*
X145006449Y-107564003D01*
X145052972Y-107510374D01*
X145087889Y-107494848D01*
X145143422Y-107479708D01*
X145192158Y-107466421D01*
X145192160Y-107466420D01*
X145200817Y-107464060D01*
X145322991Y-107389045D01*
X145419200Y-107282754D01*
X145457536Y-107203629D01*
X145477795Y-107161814D01*
X145477795Y-107161813D01*
X145481710Y-107153733D01*
X145505496Y-107012354D01*
X145505647Y-107000000D01*
X145485323Y-106858082D01*
X145425984Y-106727572D01*
X145376606Y-106670266D01*
X145338260Y-106625763D01*
X145338257Y-106625760D01*
X145332400Y-106618963D01*
X145212095Y-106540985D01*
X145074739Y-106499907D01*
X145065763Y-106499852D01*
X145065762Y-106499852D01*
X145005555Y-106499484D01*
X144931376Y-106499031D01*
X144793529Y-106538428D01*
X144672280Y-106614930D01*
X144577377Y-106722388D01*
X144516447Y-106852163D01*
X144494391Y-106993823D01*
X144495555Y-107002725D01*
X144495555Y-107002728D01*
X144503848Y-107066143D01*
X144492848Y-107136282D01*
X144445673Y-107189339D01*
X144413537Y-107203629D01*
X144336206Y-107225731D01*
X144293529Y-107237928D01*
X144172280Y-107314430D01*
X144077377Y-107421888D01*
X144016447Y-107551663D01*
X143994391Y-107693323D01*
X129500500Y-107693323D01*
X129500500Y-100993823D01*
X137994391Y-100993823D01*
X137995555Y-101002725D01*
X137995555Y-101002728D01*
X138003686Y-101064901D01*
X138012980Y-101135979D01*
X138070720Y-101267203D01*
X138076497Y-101274076D01*
X138076498Y-101274077D01*
X138078292Y-101276211D01*
X138162970Y-101376948D01*
X138282313Y-101456390D01*
X138419157Y-101499142D01*
X138428129Y-101499306D01*
X138428132Y-101499307D01*
X138493463Y-101500504D01*
X138562499Y-101501770D01*
X138571533Y-101499307D01*
X138692158Y-101466421D01*
X138692160Y-101466420D01*
X138700817Y-101464060D01*
X138822991Y-101389045D01*
X138919200Y-101282754D01*
X138954089Y-101210743D01*
X138977795Y-101161814D01*
X138977795Y-101161813D01*
X138981710Y-101153733D01*
X139005496Y-101012354D01*
X139005647Y-101000000D01*
X138985323Y-100858082D01*
X138925984Y-100727572D01*
X138907598Y-100706234D01*
X138838260Y-100625763D01*
X138838257Y-100625760D01*
X138832400Y-100618963D01*
X138712095Y-100540985D01*
X138574739Y-100499907D01*
X138565763Y-100499852D01*
X138565762Y-100499852D01*
X138505555Y-100499484D01*
X138431376Y-100499031D01*
X138293529Y-100538428D01*
X138172280Y-100614930D01*
X138077377Y-100722388D01*
X138016447Y-100852163D01*
X137994391Y-100993823D01*
X129500500Y-100993823D01*
X129500500Y-99993823D01*
X138994391Y-99993823D01*
X138995555Y-100002725D01*
X138995555Y-100002728D01*
X138996814Y-100012354D01*
X139012980Y-100135979D01*
X139070720Y-100267203D01*
X139076497Y-100274076D01*
X139076498Y-100274077D01*
X139083792Y-100282754D01*
X139162970Y-100376948D01*
X139282313Y-100456390D01*
X139419157Y-100499142D01*
X139428129Y-100499306D01*
X139428132Y-100499307D01*
X139493463Y-100500504D01*
X139562499Y-100501770D01*
X139571533Y-100499307D01*
X139692158Y-100466421D01*
X139692160Y-100466420D01*
X139700817Y-100464060D01*
X139822991Y-100389045D01*
X139919200Y-100282754D01*
X139981710Y-100153733D01*
X140005496Y-100012354D01*
X140005647Y-100000000D01*
X139985323Y-99858082D01*
X139925984Y-99727572D01*
X139907598Y-99706234D01*
X139838260Y-99625763D01*
X139838257Y-99625760D01*
X139832400Y-99618963D01*
X139712095Y-99540985D01*
X139574739Y-99499907D01*
X139565763Y-99499852D01*
X139565762Y-99499852D01*
X139505555Y-99499484D01*
X139431376Y-99499031D01*
X139293529Y-99538428D01*
X139172280Y-99614930D01*
X139077377Y-99722388D01*
X139016447Y-99852163D01*
X138994391Y-99993823D01*
X129500500Y-99993823D01*
X129500500Y-94993823D01*
X129994391Y-94993823D01*
X129995555Y-95002725D01*
X129995555Y-95002728D01*
X130000224Y-95038428D01*
X130012980Y-95135979D01*
X130016597Y-95144199D01*
X130050289Y-95220769D01*
X130070720Y-95267203D01*
X130076497Y-95274076D01*
X130076498Y-95274077D01*
X130149594Y-95361035D01*
X130162970Y-95376948D01*
X130282313Y-95456390D01*
X130419157Y-95499142D01*
X130428129Y-95499306D01*
X130428132Y-95499307D01*
X130493463Y-95500504D01*
X130562499Y-95501770D01*
X130571533Y-95499307D01*
X130692158Y-95466421D01*
X130692160Y-95466420D01*
X130700817Y-95464060D01*
X130822991Y-95389045D01*
X130919200Y-95282754D01*
X130981710Y-95153733D01*
X131005496Y-95012354D01*
X131005647Y-95000000D01*
X131004762Y-94993823D01*
X142494391Y-94993823D01*
X142495555Y-95002725D01*
X142495555Y-95002728D01*
X142500224Y-95038428D01*
X142512980Y-95135979D01*
X142516597Y-95144199D01*
X142550289Y-95220769D01*
X142570720Y-95267203D01*
X142576497Y-95274076D01*
X142576498Y-95274077D01*
X142649594Y-95361035D01*
X142662970Y-95376948D01*
X142782313Y-95456390D01*
X142919157Y-95499142D01*
X142928129Y-95499306D01*
X142928132Y-95499307D01*
X142993463Y-95500504D01*
X143062499Y-95501770D01*
X143071533Y-95499307D01*
X143192158Y-95466421D01*
X143192160Y-95466420D01*
X143200817Y-95464060D01*
X143322991Y-95389045D01*
X143419200Y-95282754D01*
X143481710Y-95153733D01*
X143505496Y-95012354D01*
X143505647Y-95000000D01*
X143485323Y-94858082D01*
X143425984Y-94727572D01*
X143407598Y-94706234D01*
X143338260Y-94625763D01*
X143338257Y-94625760D01*
X143332400Y-94618963D01*
X143212095Y-94540985D01*
X143074739Y-94499907D01*
X143065763Y-94499852D01*
X143065762Y-94499852D01*
X143005555Y-94499484D01*
X142931376Y-94499031D01*
X142793529Y-94538428D01*
X142672280Y-94614930D01*
X142577377Y-94722388D01*
X142516447Y-94852163D01*
X142494391Y-94993823D01*
X131004762Y-94993823D01*
X130985323Y-94858082D01*
X130925984Y-94727572D01*
X130907598Y-94706234D01*
X130838260Y-94625763D01*
X130838257Y-94625760D01*
X130832400Y-94618963D01*
X130712095Y-94540985D01*
X130574739Y-94499907D01*
X130565763Y-94499852D01*
X130565762Y-94499852D01*
X130505555Y-94499484D01*
X130431376Y-94499031D01*
X130293529Y-94538428D01*
X130172280Y-94614930D01*
X130077377Y-94722388D01*
X130016447Y-94852163D01*
X129994391Y-94993823D01*
X129500500Y-94993823D01*
X129500500Y-93568323D01*
X130919891Y-93568323D01*
X130921055Y-93577225D01*
X130921055Y-93577228D01*
X130928738Y-93635979D01*
X130938480Y-93710479D01*
X130996220Y-93841703D01*
X131001997Y-93848576D01*
X131001998Y-93848577D01*
X131070743Y-93930359D01*
X131088470Y-93951448D01*
X131207813Y-94030890D01*
X131344657Y-94073642D01*
X131353629Y-94073806D01*
X131353632Y-94073807D01*
X131418963Y-94075004D01*
X131487999Y-94076270D01*
X131497033Y-94073807D01*
X131617658Y-94040921D01*
X131617660Y-94040920D01*
X131626317Y-94038560D01*
X131748491Y-93963545D01*
X131844700Y-93857254D01*
X131886880Y-93770193D01*
X131934580Y-93717612D01*
X132003139Y-93699166D01*
X132070787Y-93720713D01*
X132115600Y-93774387D01*
X132119282Y-93782754D01*
X132145220Y-93841703D01*
X132150997Y-93848576D01*
X132150998Y-93848577D01*
X132219743Y-93930359D01*
X132237470Y-93951448D01*
X132356813Y-94030890D01*
X132493657Y-94073642D01*
X132502629Y-94073806D01*
X132502632Y-94073807D01*
X132567963Y-94075004D01*
X132636999Y-94076270D01*
X132646033Y-94073807D01*
X132766658Y-94040921D01*
X132766660Y-94040920D01*
X132775317Y-94038560D01*
X132897491Y-93963545D01*
X132937518Y-93919323D01*
X141494391Y-93919323D01*
X141495555Y-93928225D01*
X141495555Y-93928228D01*
X141500241Y-93964060D01*
X141512980Y-94061479D01*
X141570720Y-94192703D01*
X141576497Y-94199576D01*
X141576498Y-94199577D01*
X141583792Y-94208254D01*
X141662970Y-94302448D01*
X141782313Y-94381890D01*
X141919157Y-94424642D01*
X141928129Y-94424806D01*
X141928132Y-94424807D01*
X141993463Y-94426004D01*
X142062499Y-94427270D01*
X142071533Y-94424807D01*
X142192158Y-94391921D01*
X142192160Y-94391920D01*
X142200817Y-94389560D01*
X142322991Y-94314545D01*
X142419200Y-94208254D01*
X142481710Y-94079233D01*
X142505496Y-93937854D01*
X142505647Y-93925500D01*
X142494631Y-93848577D01*
X142486596Y-93792468D01*
X142486595Y-93792465D01*
X142485323Y-93783582D01*
X142481143Y-93774387D01*
X142448036Y-93701574D01*
X142425984Y-93653072D01*
X142403583Y-93627074D01*
X142338260Y-93551263D01*
X142338257Y-93551260D01*
X142332400Y-93544463D01*
X142212095Y-93466485D01*
X142074739Y-93425407D01*
X142065763Y-93425352D01*
X142065762Y-93425352D01*
X142005555Y-93424984D01*
X141931376Y-93424531D01*
X141793529Y-93463928D01*
X141672280Y-93540430D01*
X141577377Y-93647888D01*
X141516447Y-93777663D01*
X141514142Y-93792468D01*
X141500214Y-93881925D01*
X141494391Y-93919323D01*
X132937518Y-93919323D01*
X132993700Y-93857254D01*
X133056210Y-93728233D01*
X133079996Y-93586854D01*
X133080147Y-93574500D01*
X133064998Y-93468717D01*
X133061096Y-93441468D01*
X133061095Y-93441465D01*
X133059823Y-93432582D01*
X133000484Y-93302072D01*
X132943334Y-93235746D01*
X132912760Y-93200263D01*
X132912757Y-93200260D01*
X132906900Y-93193463D01*
X132786595Y-93115485D01*
X132780318Y-93113608D01*
X132727789Y-93067681D01*
X132708090Y-92999472D01*
X132728395Y-92931441D01*
X132776213Y-92891019D01*
X132775317Y-92889560D01*
X132786993Y-92882391D01*
X132897491Y-92814545D01*
X132934121Y-92774077D01*
X132987678Y-92714907D01*
X132993700Y-92708254D01*
X133056210Y-92579233D01*
X133079996Y-92437854D01*
X133080147Y-92425500D01*
X133070492Y-92358082D01*
X133061096Y-92292468D01*
X133061095Y-92292465D01*
X133059823Y-92283582D01*
X133000484Y-92153072D01*
X132963491Y-92110140D01*
X132912760Y-92051263D01*
X132912757Y-92051260D01*
X132906900Y-92044463D01*
X132786595Y-91966485D01*
X132649239Y-91925407D01*
X132640263Y-91925352D01*
X132640262Y-91925352D01*
X132580055Y-91924984D01*
X132505876Y-91924531D01*
X132368029Y-91963928D01*
X132246780Y-92040430D01*
X132151877Y-92147888D01*
X132122888Y-92209632D01*
X132113963Y-92228641D01*
X132066906Y-92281803D01*
X131998578Y-92301085D01*
X131930672Y-92280365D01*
X131885207Y-92227243D01*
X131883000Y-92222388D01*
X131851484Y-92153072D01*
X131814491Y-92110140D01*
X131763760Y-92051263D01*
X131763757Y-92051260D01*
X131757900Y-92044463D01*
X131637595Y-91966485D01*
X131500239Y-91925407D01*
X131491263Y-91925352D01*
X131491262Y-91925352D01*
X131431055Y-91924984D01*
X131356876Y-91924531D01*
X131219029Y-91963928D01*
X131097780Y-92040430D01*
X131002877Y-92147888D01*
X130941947Y-92277663D01*
X130932710Y-92336990D01*
X130928043Y-92366968D01*
X130919891Y-92419323D01*
X130921055Y-92428225D01*
X130921055Y-92428228D01*
X130922314Y-92437854D01*
X130938480Y-92561479D01*
X130942097Y-92569699D01*
X130982629Y-92661814D01*
X130996220Y-92692703D01*
X131001997Y-92699576D01*
X131001998Y-92699577D01*
X131077508Y-92789407D01*
X131088470Y-92802448D01*
X131207813Y-92881890D01*
X131216386Y-92884568D01*
X131220109Y-92886344D01*
X131272984Y-92933723D01*
X131291850Y-93002167D01*
X131270717Y-93069946D01*
X131220303Y-93112564D01*
X131219029Y-93112928D01*
X131097780Y-93189430D01*
X131091838Y-93196158D01*
X131091837Y-93196159D01*
X131068673Y-93222388D01*
X131002877Y-93296888D01*
X130941947Y-93426663D01*
X130936145Y-93463928D01*
X130922343Y-93552576D01*
X130919891Y-93568323D01*
X129500500Y-93568323D01*
X129500500Y-93552576D01*
X129502246Y-93531671D01*
X129504689Y-93517148D01*
X129505496Y-93512354D01*
X129505647Y-93500000D01*
X129495333Y-93427980D01*
X129486596Y-93366968D01*
X129486595Y-93366965D01*
X129485323Y-93358082D01*
X129425984Y-93227572D01*
X129388991Y-93184640D01*
X129338260Y-93125763D01*
X129338257Y-93125760D01*
X129332400Y-93118963D01*
X129212095Y-93040985D01*
X129074739Y-92999907D01*
X129065763Y-92999852D01*
X129065762Y-92999852D01*
X129003548Y-92999472D01*
X128931376Y-92999031D01*
X128793529Y-93038428D01*
X128672280Y-93114930D01*
X128577377Y-93222388D01*
X128516447Y-93352163D01*
X128515066Y-93361035D01*
X128497887Y-93471371D01*
X128494391Y-93493823D01*
X128495555Y-93502725D01*
X128495555Y-93502728D01*
X128498436Y-93524756D01*
X128499500Y-93541093D01*
X128499500Y-111355319D01*
X128498172Y-111367204D01*
X128498682Y-111367245D01*
X128497962Y-111376191D01*
X128495981Y-111384947D01*
X128496537Y-111393907D01*
X128499258Y-111437764D01*
X128499500Y-111445567D01*
X128499500Y-111461440D01*
X128500135Y-111465874D01*
X128500948Y-111471550D01*
X128501978Y-111481606D01*
X128504859Y-111528038D01*
X128507907Y-111536482D01*
X128508676Y-111540194D01*
X128512343Y-111554899D01*
X128513404Y-111558527D01*
X128514677Y-111567418D01*
X128533939Y-111609782D01*
X128537746Y-111619137D01*
X128550491Y-111654443D01*
X128550493Y-111654447D01*
X128553540Y-111662887D01*
X128558835Y-111670135D01*
X128560611Y-111673475D01*
X128568274Y-111686589D01*
X128570303Y-111689761D01*
X128574016Y-111697928D01*
X128579871Y-111704723D01*
X128579873Y-111704726D01*
X128604387Y-111733175D01*
X128610675Y-111741095D01*
X128618522Y-111751836D01*
X128629265Y-111762579D01*
X128635623Y-111769425D01*
X128667600Y-111806537D01*
X128675134Y-111811420D01*
X128681896Y-111817319D01*
X128681892Y-111817324D01*
X128692986Y-111826300D01*
X129126613Y-112259927D01*
X129133969Y-112267947D01*
X129154965Y-112292925D01*
X129183486Y-112357941D01*
X129172330Y-112428055D01*
X129125037Y-112481008D01*
X129058514Y-112500000D01*
X117114888Y-112500000D01*
X117046767Y-112479998D01*
X117000274Y-112426342D01*
X116990161Y-112391864D01*
X116989481Y-112387115D01*
X116985323Y-112358082D01*
X116968909Y-112321980D01*
X116947265Y-112274378D01*
X116925984Y-112227572D01*
X116867342Y-112159515D01*
X116838260Y-112125763D01*
X116838257Y-112125760D01*
X116832400Y-112118963D01*
X116712095Y-112040985D01*
X116574739Y-111999907D01*
X116565763Y-111999852D01*
X116565762Y-111999852D01*
X116505555Y-111999484D01*
X116431376Y-111999031D01*
X116293529Y-112038428D01*
X116172280Y-112114930D01*
X116077377Y-112222388D01*
X116016447Y-112352163D01*
X116013045Y-112374016D01*
X116010029Y-112393384D01*
X115979785Y-112457617D01*
X115919616Y-112495302D01*
X115885529Y-112500000D01*
X105920401Y-112500000D01*
X105908051Y-112499393D01*
X105904822Y-112499075D01*
X105731473Y-112482001D01*
X105707256Y-112477185D01*
X105543403Y-112427482D01*
X105520584Y-112418029D01*
X105369588Y-112337320D01*
X105349050Y-112323597D01*
X105211886Y-112211029D01*
X105202725Y-112202725D01*
X102989455Y-109989455D01*
X122244825Y-109989455D01*
X122245512Y-109996462D01*
X122245512Y-109996465D01*
X122248311Y-110025010D01*
X122261255Y-110157025D01*
X122314402Y-110316791D01*
X122401624Y-110460812D01*
X122406513Y-110465875D01*
X122406514Y-110465876D01*
X122477825Y-110539720D01*
X122518586Y-110581929D01*
X122524483Y-110585788D01*
X122653577Y-110670266D01*
X122653581Y-110670268D01*
X122659475Y-110674125D01*
X122817289Y-110732815D01*
X122824270Y-110733746D01*
X122824272Y-110733747D01*
X122869812Y-110739823D01*
X122984183Y-110755083D01*
X122991194Y-110754445D01*
X122991198Y-110754445D01*
X123144843Y-110740462D01*
X123151864Y-110739823D01*
X123158566Y-110737645D01*
X123158568Y-110737645D01*
X123305298Y-110689970D01*
X123305301Y-110689969D01*
X123311997Y-110687793D01*
X123456623Y-110601578D01*
X123461717Y-110596727D01*
X123461721Y-110596724D01*
X123573454Y-110490322D01*
X123573455Y-110490320D01*
X123578554Y-110485465D01*
X123594934Y-110460812D01*
X123667836Y-110351085D01*
X123671731Y-110345223D01*
X123731521Y-110187823D01*
X123754955Y-110021088D01*
X123755249Y-110000000D01*
X123736481Y-109832676D01*
X123681108Y-109673668D01*
X123591884Y-109530879D01*
X123583723Y-109522661D01*
X123478205Y-109416403D01*
X123478201Y-109416400D01*
X123473242Y-109411406D01*
X123331079Y-109321187D01*
X123172462Y-109264706D01*
X123165474Y-109263873D01*
X123165471Y-109263872D01*
X123072300Y-109252762D01*
X123005273Y-109244769D01*
X122998270Y-109245505D01*
X122998269Y-109245505D01*
X122952712Y-109250293D01*
X122837821Y-109262369D01*
X122831155Y-109264638D01*
X122831152Y-109264639D01*
X122685098Y-109314360D01*
X122685095Y-109314361D01*
X122678431Y-109316630D01*
X122672436Y-109320318D01*
X122672432Y-109320320D01*
X122541021Y-109401165D01*
X122541019Y-109401167D01*
X122535022Y-109404856D01*
X122414724Y-109522661D01*
X122323515Y-109664190D01*
X122265927Y-109822409D01*
X122244825Y-109989455D01*
X102989455Y-109989455D01*
X98989455Y-105989455D01*
X103744825Y-105989455D01*
X103745512Y-105996462D01*
X103745512Y-105996465D01*
X103748311Y-106025010D01*
X103761255Y-106157025D01*
X103814402Y-106316791D01*
X103901624Y-106460812D01*
X103906513Y-106465875D01*
X103906514Y-106465876D01*
X103974196Y-106535962D01*
X104018586Y-106581929D01*
X104024483Y-106585788D01*
X104153577Y-106670266D01*
X104153581Y-106670268D01*
X104159475Y-106674125D01*
X104317289Y-106732815D01*
X104324270Y-106733746D01*
X104324272Y-106733747D01*
X104369812Y-106739823D01*
X104484183Y-106755083D01*
X104491194Y-106754445D01*
X104491198Y-106754445D01*
X104644843Y-106740462D01*
X104651864Y-106739823D01*
X104658566Y-106737645D01*
X104658568Y-106737645D01*
X104805298Y-106689970D01*
X104805301Y-106689969D01*
X104811997Y-106687793D01*
X104956623Y-106601578D01*
X104961717Y-106596727D01*
X104961721Y-106596724D01*
X105073454Y-106490322D01*
X105073455Y-106490320D01*
X105078554Y-106485465D01*
X105094934Y-106460812D01*
X105167836Y-106351085D01*
X105171731Y-106345223D01*
X105231521Y-106187823D01*
X105254955Y-106021088D01*
X105255249Y-106000000D01*
X105236481Y-105832676D01*
X105181108Y-105673668D01*
X105091884Y-105530879D01*
X105083723Y-105522661D01*
X104978205Y-105416403D01*
X104978201Y-105416400D01*
X104973242Y-105411406D01*
X104831079Y-105321187D01*
X104672462Y-105264706D01*
X104665474Y-105263873D01*
X104665471Y-105263872D01*
X104572300Y-105252762D01*
X104505273Y-105244769D01*
X104498270Y-105245505D01*
X104498269Y-105245505D01*
X104452712Y-105250293D01*
X104337821Y-105262369D01*
X104331155Y-105264638D01*
X104331152Y-105264639D01*
X104185098Y-105314360D01*
X104185095Y-105314361D01*
X104178431Y-105316630D01*
X104172436Y-105320318D01*
X104172432Y-105320320D01*
X104041021Y-105401165D01*
X104041019Y-105401167D01*
X104035022Y-105404856D01*
X103914724Y-105522661D01*
X103823515Y-105664190D01*
X103765927Y-105822409D01*
X103744825Y-105989455D01*
X98989455Y-105989455D01*
X98797275Y-105797275D01*
X98788971Y-105788114D01*
X98676403Y-105650950D01*
X98662680Y-105630412D01*
X98581971Y-105479416D01*
X98572518Y-105456596D01*
X98557665Y-105407631D01*
X98522815Y-105292744D01*
X98517998Y-105268524D01*
X98517616Y-105264639D01*
X98500607Y-105091949D01*
X98500000Y-105079599D01*
X98500000Y-104489455D01*
X109244825Y-104489455D01*
X109245512Y-104496462D01*
X109245512Y-104496465D01*
X109248311Y-104525010D01*
X109261255Y-104657025D01*
X109314402Y-104816791D01*
X109318049Y-104822813D01*
X109318050Y-104822815D01*
X109395932Y-104951413D01*
X109401624Y-104960812D01*
X109406513Y-104965875D01*
X109406514Y-104965876D01*
X109441177Y-105001770D01*
X109518586Y-105081929D01*
X109524483Y-105085788D01*
X109653577Y-105170266D01*
X109653581Y-105170268D01*
X109659475Y-105174125D01*
X109817289Y-105232815D01*
X109824270Y-105233746D01*
X109824272Y-105233747D01*
X109869812Y-105239823D01*
X109984183Y-105255083D01*
X109991194Y-105254445D01*
X109991198Y-105254445D01*
X110144843Y-105240462D01*
X110151864Y-105239823D01*
X110158566Y-105237645D01*
X110158568Y-105237645D01*
X110305298Y-105189970D01*
X110305301Y-105189969D01*
X110311997Y-105187793D01*
X110456623Y-105101578D01*
X110461717Y-105096727D01*
X110461721Y-105096724D01*
X110573454Y-104990322D01*
X110573455Y-104990320D01*
X110578554Y-104985465D01*
X110594934Y-104960812D01*
X110625659Y-104914567D01*
X110671731Y-104845223D01*
X110731521Y-104687823D01*
X110754955Y-104521088D01*
X110755249Y-104500000D01*
X110754556Y-104493823D01*
X125494391Y-104493823D01*
X125495555Y-104502725D01*
X125495555Y-104502728D01*
X125496814Y-104512354D01*
X125512980Y-104635979D01*
X125570720Y-104767203D01*
X125576497Y-104774076D01*
X125576498Y-104774077D01*
X125636302Y-104845223D01*
X125662970Y-104876948D01*
X125782313Y-104956390D01*
X125919157Y-104999142D01*
X125928129Y-104999306D01*
X125928132Y-104999307D01*
X125993463Y-105000504D01*
X126062499Y-105001770D01*
X126071533Y-104999307D01*
X126192158Y-104966421D01*
X126192160Y-104966420D01*
X126200817Y-104964060D01*
X126322991Y-104889045D01*
X126419200Y-104782754D01*
X126481710Y-104653733D01*
X126505496Y-104512354D01*
X126505647Y-104500000D01*
X126485323Y-104358082D01*
X126425984Y-104227572D01*
X126374389Y-104167693D01*
X126338260Y-104125763D01*
X126338257Y-104125760D01*
X126332400Y-104118963D01*
X126212095Y-104040985D01*
X126074739Y-103999907D01*
X126065763Y-103999852D01*
X126065762Y-103999852D01*
X126005555Y-103999484D01*
X125931376Y-103999031D01*
X125793529Y-104038428D01*
X125672280Y-104114930D01*
X125577377Y-104222388D01*
X125516447Y-104352163D01*
X125515066Y-104361035D01*
X125496159Y-104482468D01*
X125494391Y-104493823D01*
X110754556Y-104493823D01*
X110753283Y-104482468D01*
X110737266Y-104339672D01*
X110737265Y-104339669D01*
X110736481Y-104332676D01*
X110681108Y-104173668D01*
X110591884Y-104030879D01*
X110583723Y-104022661D01*
X110478205Y-103916403D01*
X110478201Y-103916400D01*
X110473242Y-103911406D01*
X110331079Y-103821187D01*
X110172462Y-103764706D01*
X110165474Y-103763873D01*
X110165471Y-103763872D01*
X110072300Y-103752762D01*
X110005273Y-103744769D01*
X109998270Y-103745505D01*
X109998269Y-103745505D01*
X109952712Y-103750293D01*
X109837821Y-103762369D01*
X109831155Y-103764638D01*
X109831152Y-103764639D01*
X109685098Y-103814360D01*
X109685095Y-103814361D01*
X109678431Y-103816630D01*
X109672436Y-103820318D01*
X109672432Y-103820320D01*
X109541021Y-103901165D01*
X109541019Y-103901167D01*
X109535022Y-103904856D01*
X109523231Y-103916403D01*
X109437960Y-103999907D01*
X109414724Y-104022661D01*
X109323515Y-104164190D01*
X109321105Y-104170810D01*
X109321104Y-104170813D01*
X109302332Y-104222388D01*
X109265927Y-104322409D01*
X109244825Y-104489455D01*
X98500000Y-104489455D01*
X98500000Y-101539520D01*
X109448694Y-101539520D01*
X109449858Y-101548422D01*
X109449858Y-101548425D01*
X109451117Y-101558051D01*
X109467283Y-101681676D01*
X109525023Y-101812900D01*
X109530800Y-101819773D01*
X109530801Y-101819774D01*
X109538095Y-101828451D01*
X109617273Y-101922645D01*
X109736616Y-102002087D01*
X109873460Y-102044839D01*
X109882432Y-102045003D01*
X109882435Y-102045004D01*
X109947766Y-102046201D01*
X110016802Y-102047467D01*
X110025836Y-102045004D01*
X110146461Y-102012118D01*
X110146463Y-102012117D01*
X110155120Y-102009757D01*
X110277294Y-101934742D01*
X110373503Y-101828451D01*
X110436013Y-101699430D01*
X110459799Y-101558051D01*
X110459950Y-101545697D01*
X110447544Y-101459069D01*
X110440899Y-101412665D01*
X110440898Y-101412662D01*
X110439626Y-101403779D01*
X110380287Y-101273269D01*
X110361901Y-101251931D01*
X110292563Y-101171460D01*
X110292560Y-101171457D01*
X110286703Y-101164660D01*
X110166398Y-101086682D01*
X110029042Y-101045604D01*
X110020066Y-101045549D01*
X110020065Y-101045549D01*
X109959858Y-101045181D01*
X109885679Y-101044728D01*
X109747832Y-101084125D01*
X109626583Y-101160627D01*
X109531680Y-101268085D01*
X109470750Y-101397860D01*
X109469369Y-101406732D01*
X109454572Y-101501770D01*
X109448694Y-101539520D01*
X98500000Y-101539520D01*
X98500000Y-98423455D01*
X102244825Y-98423455D01*
X102245512Y-98430462D01*
X102245512Y-98430465D01*
X102248311Y-98459010D01*
X102261255Y-98591025D01*
X102314402Y-98750791D01*
X102401624Y-98894812D01*
X102406513Y-98899875D01*
X102406514Y-98899876D01*
X102477825Y-98973720D01*
X102518586Y-99015929D01*
X102524483Y-99019788D01*
X102653577Y-99104266D01*
X102653581Y-99104268D01*
X102659475Y-99108125D01*
X102817289Y-99166815D01*
X102824270Y-99167746D01*
X102824272Y-99167747D01*
X102869812Y-99173823D01*
X102984183Y-99189083D01*
X102991194Y-99188445D01*
X102991198Y-99188445D01*
X103144843Y-99174462D01*
X103151864Y-99173823D01*
X103158566Y-99171645D01*
X103158568Y-99171645D01*
X103305298Y-99123970D01*
X103305301Y-99123969D01*
X103311997Y-99121793D01*
X103456623Y-99035578D01*
X103461717Y-99030727D01*
X103461721Y-99030724D01*
X103573454Y-98924322D01*
X103573455Y-98924320D01*
X103578554Y-98919465D01*
X103594934Y-98894812D01*
X103625659Y-98848567D01*
X103671731Y-98779223D01*
X103686698Y-98739823D01*
X103710721Y-98676581D01*
X103731521Y-98621823D01*
X103754955Y-98455088D01*
X103755249Y-98434000D01*
X103736481Y-98266676D01*
X103681108Y-98107668D01*
X103591884Y-97964879D01*
X103583723Y-97956661D01*
X103478205Y-97850403D01*
X103478201Y-97850400D01*
X103473242Y-97845406D01*
X103448021Y-97829400D01*
X103410237Y-97805422D01*
X103331079Y-97755187D01*
X103172462Y-97698706D01*
X103165474Y-97697873D01*
X103165471Y-97697872D01*
X103072300Y-97686762D01*
X103005273Y-97678769D01*
X102998270Y-97679505D01*
X102998269Y-97679505D01*
X102952712Y-97684293D01*
X102837821Y-97696369D01*
X102831155Y-97698638D01*
X102831152Y-97698639D01*
X102685098Y-97748360D01*
X102685095Y-97748361D01*
X102678431Y-97750630D01*
X102672436Y-97754318D01*
X102672432Y-97754320D01*
X102541021Y-97835165D01*
X102541019Y-97835167D01*
X102535022Y-97838856D01*
X102414724Y-97956661D01*
X102323515Y-98098190D01*
X102321105Y-98104810D01*
X102321104Y-98104813D01*
X102302100Y-98157025D01*
X102265927Y-98256409D01*
X102244825Y-98423455D01*
X98500000Y-98423455D01*
X98500000Y-95493823D01*
X107519391Y-95493823D01*
X107520555Y-95502725D01*
X107520555Y-95502728D01*
X107521814Y-95512354D01*
X107537980Y-95635979D01*
X107595720Y-95767203D01*
X107601497Y-95774076D01*
X107601498Y-95774077D01*
X107608792Y-95782754D01*
X107687970Y-95876948D01*
X107807313Y-95956390D01*
X107944157Y-95999142D01*
X107953129Y-95999306D01*
X107953132Y-95999307D01*
X108018463Y-96000504D01*
X108087499Y-96001770D01*
X108096533Y-95999307D01*
X108217158Y-95966421D01*
X108217160Y-95966420D01*
X108225817Y-95964060D01*
X108347991Y-95889045D01*
X108444200Y-95782754D01*
X108506710Y-95653733D01*
X108530496Y-95512354D01*
X108530647Y-95500000D01*
X108515430Y-95393741D01*
X108511596Y-95366968D01*
X108511595Y-95366965D01*
X108510323Y-95358082D01*
X108450984Y-95227572D01*
X108387360Y-95153733D01*
X108363260Y-95125763D01*
X108363257Y-95125760D01*
X108357400Y-95118963D01*
X108237095Y-95040985D01*
X108099739Y-94999907D01*
X108090763Y-94999852D01*
X108090762Y-94999852D01*
X108030555Y-94999484D01*
X107956376Y-94999031D01*
X107818529Y-95038428D01*
X107697280Y-95114930D01*
X107602377Y-95222388D01*
X107541447Y-95352163D01*
X107519391Y-95493823D01*
X98500000Y-95493823D01*
X98500000Y-93493823D01*
X120994391Y-93493823D01*
X120995555Y-93502725D01*
X120995555Y-93502728D01*
X121000572Y-93541093D01*
X121012980Y-93635979D01*
X121016597Y-93644199D01*
X121057129Y-93736314D01*
X121070720Y-93767203D01*
X121076497Y-93774076D01*
X121076498Y-93774077D01*
X121152008Y-93863907D01*
X121162970Y-93876948D01*
X121170447Y-93881925D01*
X121243208Y-93930359D01*
X121282313Y-93956390D01*
X121419157Y-93999142D01*
X121428129Y-93999306D01*
X121428132Y-93999307D01*
X121493463Y-94000504D01*
X121562499Y-94001770D01*
X121571533Y-93999307D01*
X121692158Y-93966421D01*
X121692160Y-93966420D01*
X121700817Y-93964060D01*
X121822991Y-93889045D01*
X121859621Y-93848577D01*
X121913178Y-93789407D01*
X121919200Y-93782754D01*
X121981710Y-93653733D01*
X122005496Y-93512354D01*
X122005647Y-93500000D01*
X121995333Y-93427980D01*
X121986596Y-93366968D01*
X121986595Y-93366965D01*
X121985323Y-93358082D01*
X121925984Y-93227572D01*
X121888991Y-93184640D01*
X121838260Y-93125763D01*
X121838257Y-93125760D01*
X121832400Y-93118963D01*
X121813235Y-93106541D01*
X121766952Y-93052706D01*
X121757122Y-92982393D01*
X121786867Y-92917927D01*
X121808543Y-92899604D01*
X121808436Y-92899475D01*
X121815342Y-92893741D01*
X121822991Y-92889045D01*
X121919200Y-92782754D01*
X121981710Y-92653733D01*
X122005496Y-92512354D01*
X122005647Y-92500000D01*
X121985323Y-92358082D01*
X121925984Y-92227572D01*
X121868834Y-92161246D01*
X121838260Y-92125763D01*
X121838257Y-92125760D01*
X121832400Y-92118963D01*
X121712095Y-92040985D01*
X121574739Y-91999907D01*
X121565763Y-91999852D01*
X121565762Y-91999852D01*
X121505555Y-91999484D01*
X121431376Y-91999031D01*
X121293529Y-92038428D01*
X121172280Y-92114930D01*
X121166338Y-92121658D01*
X121166337Y-92121659D01*
X121143173Y-92147888D01*
X121077377Y-92222388D01*
X121016447Y-92352163D01*
X121015066Y-92361035D01*
X121002359Y-92442649D01*
X120994391Y-92493823D01*
X120995555Y-92502725D01*
X120995555Y-92502728D01*
X121003238Y-92561479D01*
X121012980Y-92635979D01*
X121070720Y-92767203D01*
X121076497Y-92774076D01*
X121076498Y-92774077D01*
X121100346Y-92802448D01*
X121162970Y-92876948D01*
X121170447Y-92881925D01*
X121170449Y-92881927D01*
X121189220Y-92894422D01*
X121234843Y-92948819D01*
X121243815Y-93019246D01*
X121213286Y-93083344D01*
X121186640Y-93105869D01*
X121179874Y-93110138D01*
X121179871Y-93110140D01*
X121172280Y-93114930D01*
X121077377Y-93222388D01*
X121016447Y-93352163D01*
X121015066Y-93361035D01*
X120997887Y-93471371D01*
X120994391Y-93493823D01*
X98500000Y-93493823D01*
X98500000Y-91493823D01*
X110494391Y-91493823D01*
X110495555Y-91502725D01*
X110495555Y-91502728D01*
X110496814Y-91512354D01*
X110512980Y-91635979D01*
X110570720Y-91767203D01*
X110576497Y-91774076D01*
X110576498Y-91774077D01*
X110583792Y-91782754D01*
X110662970Y-91876948D01*
X110782313Y-91956390D01*
X110919157Y-91999142D01*
X110928129Y-91999306D01*
X110928132Y-91999307D01*
X110993463Y-92000504D01*
X111062499Y-92001770D01*
X111071533Y-91999307D01*
X111192158Y-91966421D01*
X111192160Y-91966420D01*
X111200817Y-91964060D01*
X111322991Y-91889045D01*
X111419200Y-91782754D01*
X111481710Y-91653733D01*
X111505496Y-91512354D01*
X111505647Y-91500000D01*
X111490430Y-91393741D01*
X111486596Y-91366968D01*
X111486595Y-91366965D01*
X111485323Y-91358082D01*
X111425984Y-91227572D01*
X111362360Y-91153733D01*
X111338260Y-91125763D01*
X111338257Y-91125760D01*
X111332400Y-91118963D01*
X111212095Y-91040985D01*
X111074739Y-90999907D01*
X111065763Y-90999852D01*
X111065762Y-90999852D01*
X111005555Y-90999484D01*
X110931376Y-90999031D01*
X110793529Y-91038428D01*
X110672280Y-91114930D01*
X110577377Y-91222388D01*
X110516447Y-91352163D01*
X110494391Y-91493823D01*
X98500000Y-91493823D01*
X98500000Y-90493823D01*
X111819391Y-90493823D01*
X111820555Y-90502725D01*
X111820555Y-90502728D01*
X111825224Y-90538428D01*
X111837980Y-90635979D01*
X111841597Y-90644199D01*
X111884311Y-90741273D01*
X111895720Y-90767203D01*
X111901497Y-90774076D01*
X111901498Y-90774077D01*
X111974594Y-90861035D01*
X111987970Y-90876948D01*
X112107313Y-90956390D01*
X112244157Y-90999142D01*
X112253129Y-90999306D01*
X112253132Y-90999307D01*
X112318463Y-91000504D01*
X112387499Y-91001770D01*
X112396533Y-90999307D01*
X112517158Y-90966421D01*
X112517160Y-90966420D01*
X112525817Y-90964060D01*
X112647991Y-90889045D01*
X112744200Y-90782754D01*
X112806710Y-90653733D01*
X112830496Y-90512354D01*
X112830647Y-90500000D01*
X112829762Y-90493823D01*
X121994391Y-90493823D01*
X121995555Y-90502725D01*
X121995555Y-90502728D01*
X122000224Y-90538428D01*
X122012980Y-90635979D01*
X122016597Y-90644199D01*
X122059311Y-90741273D01*
X122070720Y-90767203D01*
X122076497Y-90774076D01*
X122076498Y-90774077D01*
X122149594Y-90861035D01*
X122162970Y-90876948D01*
X122282313Y-90956390D01*
X122419157Y-90999142D01*
X122428129Y-90999306D01*
X122428132Y-90999307D01*
X122493463Y-91000504D01*
X122562499Y-91001770D01*
X122571533Y-90999307D01*
X122591648Y-90993823D01*
X141994391Y-90993823D01*
X141995555Y-91002725D01*
X141995555Y-91002728D01*
X142000224Y-91038428D01*
X142012980Y-91135979D01*
X142016597Y-91144199D01*
X142050289Y-91220769D01*
X142070720Y-91267203D01*
X142076497Y-91274076D01*
X142076498Y-91274077D01*
X142149594Y-91361035D01*
X142162970Y-91376948D01*
X142282313Y-91456390D01*
X142419157Y-91499142D01*
X142428129Y-91499306D01*
X142428132Y-91499307D01*
X142493463Y-91500504D01*
X142562499Y-91501770D01*
X142571533Y-91499307D01*
X142692158Y-91466421D01*
X142692160Y-91466420D01*
X142700817Y-91464060D01*
X142822991Y-91389045D01*
X142829014Y-91382391D01*
X142829018Y-91382388D01*
X142907613Y-91295557D01*
X142968156Y-91258476D01*
X143039136Y-91260013D01*
X143097479Y-91299037D01*
X143149594Y-91361035D01*
X143162970Y-91376948D01*
X143282313Y-91456390D01*
X143419157Y-91499142D01*
X143428129Y-91499306D01*
X143428132Y-91499307D01*
X143493463Y-91500504D01*
X143562499Y-91501770D01*
X143571533Y-91499307D01*
X143692158Y-91466421D01*
X143692160Y-91466420D01*
X143700817Y-91464060D01*
X143822991Y-91389045D01*
X143919200Y-91282754D01*
X143981710Y-91153733D01*
X144005496Y-91012354D01*
X144005647Y-91000000D01*
X143990430Y-90893741D01*
X143986596Y-90866968D01*
X143986595Y-90866965D01*
X143985323Y-90858082D01*
X143925984Y-90727572D01*
X143907598Y-90706234D01*
X143838260Y-90625763D01*
X143838257Y-90625760D01*
X143832400Y-90618963D01*
X143712095Y-90540985D01*
X143574739Y-90499907D01*
X143565763Y-90499852D01*
X143565762Y-90499852D01*
X143505555Y-90499484D01*
X143431376Y-90499031D01*
X143293529Y-90538428D01*
X143172280Y-90614930D01*
X143095123Y-90702295D01*
X143094099Y-90703454D01*
X143034013Y-90741273D01*
X142963020Y-90740603D01*
X142904204Y-90702295D01*
X142838260Y-90625763D01*
X142838257Y-90625760D01*
X142832400Y-90618963D01*
X142712095Y-90540985D01*
X142574739Y-90499907D01*
X142565763Y-90499852D01*
X142565762Y-90499852D01*
X142505555Y-90499484D01*
X142431376Y-90499031D01*
X142293529Y-90538428D01*
X142172280Y-90614930D01*
X142077377Y-90722388D01*
X142016447Y-90852163D01*
X141994391Y-90993823D01*
X122591648Y-90993823D01*
X122692158Y-90966421D01*
X122692160Y-90966420D01*
X122700817Y-90964060D01*
X122822991Y-90889045D01*
X122919200Y-90782754D01*
X122981710Y-90653733D01*
X123005496Y-90512354D01*
X123005647Y-90500000D01*
X122985323Y-90358082D01*
X122925984Y-90227572D01*
X122907598Y-90206234D01*
X122838260Y-90125763D01*
X122838257Y-90125760D01*
X122832400Y-90118963D01*
X122712095Y-90040985D01*
X122574739Y-89999907D01*
X122565763Y-89999852D01*
X122565762Y-89999852D01*
X122505555Y-89999484D01*
X122431376Y-89999031D01*
X122293529Y-90038428D01*
X122172280Y-90114930D01*
X122077377Y-90222388D01*
X122016447Y-90352163D01*
X121994391Y-90493823D01*
X112829762Y-90493823D01*
X112810323Y-90358082D01*
X112750984Y-90227572D01*
X112732598Y-90206234D01*
X112663260Y-90125763D01*
X112663257Y-90125760D01*
X112657400Y-90118963D01*
X112537095Y-90040985D01*
X112399739Y-89999907D01*
X112390763Y-89999852D01*
X112390762Y-89999852D01*
X112330555Y-89999484D01*
X112256376Y-89999031D01*
X112118529Y-90038428D01*
X111997280Y-90114930D01*
X111902377Y-90222388D01*
X111841447Y-90352163D01*
X111819391Y-90493823D01*
X98500000Y-90493823D01*
X98500000Y-89493823D01*
X104494391Y-89493823D01*
X104495555Y-89502725D01*
X104495555Y-89502728D01*
X104496814Y-89512354D01*
X104512980Y-89635979D01*
X104570720Y-89767203D01*
X104576497Y-89774076D01*
X104576498Y-89774077D01*
X104657190Y-89870072D01*
X104662970Y-89876948D01*
X104782313Y-89956390D01*
X104919157Y-89999142D01*
X104928129Y-89999306D01*
X104928132Y-89999307D01*
X104993463Y-90000504D01*
X105062499Y-90001770D01*
X105071533Y-89999307D01*
X105192158Y-89966421D01*
X105192160Y-89966420D01*
X105200817Y-89964060D01*
X105322991Y-89889045D01*
X105333923Y-89876968D01*
X105413178Y-89789407D01*
X105419200Y-89782754D01*
X105455268Y-89708309D01*
X105477795Y-89661814D01*
X105477795Y-89661813D01*
X105481710Y-89653733D01*
X105505496Y-89512354D01*
X105505647Y-89500000D01*
X105504762Y-89493823D01*
X120494391Y-89493823D01*
X120495555Y-89502725D01*
X120495555Y-89502728D01*
X120496814Y-89512354D01*
X120512980Y-89635979D01*
X120570720Y-89767203D01*
X120576497Y-89774076D01*
X120576498Y-89774077D01*
X120657190Y-89870072D01*
X120662970Y-89876948D01*
X120782313Y-89956390D01*
X120919157Y-89999142D01*
X120928129Y-89999306D01*
X120928132Y-89999307D01*
X120993463Y-90000504D01*
X121062499Y-90001770D01*
X121071533Y-89999307D01*
X121192158Y-89966421D01*
X121192160Y-89966420D01*
X121200817Y-89964060D01*
X121322991Y-89889045D01*
X121333923Y-89876968D01*
X121413178Y-89789407D01*
X121419200Y-89782754D01*
X121455268Y-89708309D01*
X121477795Y-89661814D01*
X121477795Y-89661813D01*
X121481710Y-89653733D01*
X121505496Y-89512354D01*
X121505647Y-89500000D01*
X121495682Y-89430414D01*
X121494102Y-89419378D01*
X125495430Y-89419378D01*
X125496594Y-89428280D01*
X125496594Y-89428283D01*
X125504725Y-89490456D01*
X125514019Y-89561534D01*
X125517636Y-89569754D01*
X125550393Y-89644199D01*
X125571759Y-89692758D01*
X125577536Y-89699631D01*
X125577537Y-89699632D01*
X125640619Y-89774677D01*
X125664009Y-89802503D01*
X125671486Y-89807480D01*
X125765516Y-89870072D01*
X125783352Y-89881945D01*
X125920196Y-89924697D01*
X125929168Y-89924861D01*
X125929171Y-89924862D01*
X125994502Y-89926059D01*
X126063538Y-89927325D01*
X126072572Y-89924862D01*
X126193197Y-89891976D01*
X126193199Y-89891975D01*
X126201856Y-89889615D01*
X126324030Y-89814600D01*
X126420239Y-89708309D01*
X126482749Y-89579288D01*
X126506535Y-89437909D01*
X126506686Y-89425555D01*
X126486362Y-89283637D01*
X126427023Y-89153127D01*
X126389983Y-89110140D01*
X126339299Y-89051318D01*
X126339296Y-89051315D01*
X126333439Y-89044518D01*
X126213134Y-88966540D01*
X126075778Y-88925462D01*
X126066802Y-88925407D01*
X126066801Y-88925407D01*
X126006594Y-88925039D01*
X125932415Y-88924586D01*
X125794568Y-88963983D01*
X125673319Y-89040485D01*
X125578416Y-89147943D01*
X125517486Y-89277718D01*
X125516105Y-89286590D01*
X125504974Y-89358082D01*
X125495430Y-89419378D01*
X121494102Y-89419378D01*
X121486596Y-89366968D01*
X121486595Y-89366965D01*
X121485323Y-89358082D01*
X121425984Y-89227572D01*
X121351573Y-89141214D01*
X121338260Y-89125763D01*
X121338257Y-89125760D01*
X121332400Y-89118963D01*
X121212095Y-89040985D01*
X121074739Y-88999907D01*
X121065763Y-88999852D01*
X121065762Y-88999852D01*
X121005555Y-88999484D01*
X120931376Y-88999031D01*
X120793529Y-89038428D01*
X120672280Y-89114930D01*
X120666338Y-89121658D01*
X120666337Y-89121659D01*
X120631327Y-89161301D01*
X120577377Y-89222388D01*
X120516447Y-89352163D01*
X120515066Y-89361035D01*
X120503097Y-89437909D01*
X120494391Y-89493823D01*
X105504762Y-89493823D01*
X105495682Y-89430414D01*
X105486596Y-89366968D01*
X105486595Y-89366965D01*
X105485323Y-89358082D01*
X105425984Y-89227572D01*
X105351573Y-89141214D01*
X105338260Y-89125763D01*
X105338257Y-89125760D01*
X105332400Y-89118963D01*
X105212095Y-89040985D01*
X105074739Y-88999907D01*
X105065763Y-88999852D01*
X105065762Y-88999852D01*
X105005555Y-88999484D01*
X104931376Y-88999031D01*
X104793529Y-89038428D01*
X104672280Y-89114930D01*
X104666338Y-89121658D01*
X104666337Y-89121659D01*
X104631327Y-89161301D01*
X104577377Y-89222388D01*
X104516447Y-89352163D01*
X104515066Y-89361035D01*
X104503097Y-89437909D01*
X104494391Y-89493823D01*
X98500000Y-89493823D01*
X98500000Y-89006187D01*
X98500607Y-88993837D01*
X98517998Y-88817263D01*
X98522815Y-88793043D01*
X98572518Y-88629190D01*
X98581971Y-88606371D01*
X98662681Y-88455372D01*
X98676399Y-88434842D01*
X98785026Y-88302479D01*
X98802479Y-88285026D01*
X98934842Y-88176399D01*
X98955369Y-88162683D01*
X99106371Y-88081971D01*
X99129191Y-88072518D01*
X99293043Y-88022815D01*
X99317260Y-88017999D01*
X99493837Y-88000607D01*
X99506187Y-88000000D01*
X150493813Y-88000000D01*
X150506163Y-88000607D01*
G37*
G04 #@! TD.AperFunction*
M02*
