%TF.GenerationSoftware,KiCad,Pcbnew,(6.0.8)*%
%TF.CreationDate,2022-10-14T23:08:25+09:00*%
%TF.ProjectId,ORION_VV_driver_v2,4f52494f-4e5f-4565-965f-647269766572,rev?*%
%TF.SameCoordinates,Original*%
%TF.FileFunction,Legend,Top*%
%TF.FilePolarity,Positive*%
%FSLAX46Y46*%
G04 Gerber Fmt 4.6, Leading zero omitted, Abs format (unit mm)*
G04 Created by KiCad (PCBNEW (6.0.8)) date 2022-10-14 23:08:25*
%MOMM*%
%LPD*%
G01*
G04 APERTURE LIST*
%ADD10C,0.150000*%
%ADD11C,0.300000*%
%ADD12C,0.100000*%
%ADD13C,0.120000*%
%ADD14C,0.200000*%
G04 APERTURE END LIST*
D10*
X117714158Y-113343693D02*
X117310097Y-112939632D01*
X117512128Y-113141663D02*
X118219234Y-112434556D01*
X118050876Y-112468228D01*
X117916189Y-112468228D01*
X117815173Y-112434556D01*
X119061028Y-113276350D02*
X118724311Y-112939632D01*
X118353921Y-113242678D01*
X118421265Y-113242678D01*
X118522280Y-113276350D01*
X118690639Y-113444709D01*
X118724311Y-113545724D01*
X118724311Y-113613067D01*
X118690639Y-113714083D01*
X118522280Y-113882441D01*
X118421265Y-113916113D01*
X118353921Y-113916113D01*
X118252906Y-113882441D01*
X118084547Y-113714083D01*
X118050876Y-113613067D01*
X118050876Y-113545724D01*
X119296730Y-113512052D02*
X118825326Y-114454861D01*
X119768135Y-113983457D01*
X122950115Y-117838873D02*
X123017458Y-117973560D01*
X123017458Y-118040903D01*
X122983787Y-118141918D01*
X122882771Y-118242934D01*
X122781756Y-118276605D01*
X122714413Y-118276605D01*
X122613397Y-118242934D01*
X122344023Y-117973560D01*
X123051130Y-117266453D01*
X123286832Y-117502155D01*
X123320504Y-117603170D01*
X123320504Y-117670514D01*
X123286832Y-117771529D01*
X123219489Y-117838873D01*
X123118474Y-117872544D01*
X123051130Y-117872544D01*
X122950115Y-117838873D01*
X122714413Y-117603170D01*
X123219489Y-118444964D02*
X123556207Y-118781682D01*
X122950115Y-118579651D02*
X123892924Y-118108247D01*
X123421520Y-119051056D01*
X124263313Y-118478636D02*
X124667374Y-118882697D01*
X123758237Y-119387773D02*
X124465344Y-118680667D01*
D11*
X131941379Y-96991938D02*
X130322331Y-96991938D01*
X130131855Y-97087177D01*
X130036617Y-97182415D01*
X129941379Y-97372891D01*
X129941379Y-97753843D01*
X130036617Y-97944319D01*
X130131855Y-98039557D01*
X130322331Y-98134796D01*
X131941379Y-98134796D01*
X131941379Y-100325272D02*
X129941379Y-100991938D01*
X131941379Y-101658605D01*
X131941379Y-103658605D02*
X129941379Y-104134796D01*
X131369950Y-104515748D01*
X129941379Y-104896700D01*
X131941379Y-105372891D01*
X65291361Y-171832433D02*
X65291361Y-170213385D01*
X65196122Y-170022909D01*
X65100884Y-169927671D01*
X64910408Y-169832433D01*
X64529456Y-169832433D01*
X64338980Y-169927671D01*
X64243742Y-170022909D01*
X64148503Y-170213385D01*
X64148503Y-171832433D01*
X61958027Y-171832433D02*
X61291361Y-169832433D01*
X60624694Y-171832433D01*
X58624694Y-171832433D02*
X58148503Y-169832433D01*
X57767551Y-171261004D01*
X57386599Y-169832433D01*
X56910408Y-171832433D01*
D10*
X92140462Y-152588120D02*
X92140462Y-152520777D01*
X92174134Y-152419762D01*
X92342493Y-152251403D01*
X92443508Y-152217731D01*
X92510852Y-152217731D01*
X92611867Y-152251403D01*
X92679210Y-152318746D01*
X92746554Y-152453433D01*
X92746554Y-153261555D01*
X93184287Y-152823823D01*
X91770073Y-154238036D02*
X91366012Y-154642097D01*
X91568042Y-154440066D02*
X90860935Y-153732959D01*
X90894607Y-153901318D01*
X90894607Y-154036005D01*
X90860935Y-154137020D01*
X89413051Y-155180845D02*
X89480394Y-155113502D01*
X89581409Y-155079830D01*
X89648753Y-155079830D01*
X89749768Y-155113502D01*
X89918127Y-155214517D01*
X90086486Y-155382876D01*
X90187501Y-155551234D01*
X90221173Y-155652250D01*
X90221173Y-155719593D01*
X90187501Y-155820608D01*
X90120157Y-155887952D01*
X90019142Y-155921624D01*
X89951799Y-155921624D01*
X89850783Y-155887952D01*
X89682425Y-155786937D01*
X89514066Y-155618578D01*
X89413051Y-155450219D01*
X89379379Y-155349204D01*
X89379379Y-155281860D01*
X89413051Y-155180845D01*
X87577940Y-156039475D02*
X88015673Y-156477208D01*
X87510597Y-156510879D01*
X87611612Y-156611895D01*
X87645284Y-156712910D01*
X87645284Y-156780253D01*
X87611612Y-156881269D01*
X87443253Y-157049627D01*
X87342238Y-157083299D01*
X87274894Y-157083299D01*
X87173879Y-157049627D01*
X86971849Y-156847597D01*
X86938177Y-156746582D01*
X86938177Y-156679238D01*
X88217703Y-156679238D02*
X87746299Y-157622047D01*
X88689108Y-157150643D01*
X88857467Y-157319001D02*
X89295199Y-157756734D01*
X88790123Y-157790406D01*
X88891138Y-157891421D01*
X88924810Y-157992436D01*
X88924810Y-158059780D01*
X88891138Y-158160795D01*
X88722780Y-158329154D01*
X88621764Y-158362826D01*
X88554421Y-158362826D01*
X88453406Y-158329154D01*
X88251375Y-158127123D01*
X88217703Y-158026108D01*
X88217703Y-157958765D01*
D12*
X79052544Y-144212339D02*
X79052544Y-145012339D01*
X78885878Y-144440910D01*
X78719211Y-145012339D01*
X78719211Y-144212339D01*
X78385878Y-145012339D02*
X78290639Y-145012339D01*
X78243020Y-144974244D01*
X78195401Y-144898053D01*
X78171592Y-144745672D01*
X78171592Y-144479005D01*
X78195401Y-144326624D01*
X78243020Y-144250434D01*
X78290639Y-144212339D01*
X78385878Y-144212339D01*
X78433497Y-144250434D01*
X78481116Y-144326624D01*
X78504925Y-144479005D01*
X78504925Y-144745672D01*
X78481116Y-144898053D01*
X78433497Y-144974244D01*
X78385878Y-145012339D01*
X77576354Y-144212339D02*
X77576354Y-145012339D01*
X77409687Y-144440910D01*
X77243020Y-145012339D01*
X77243020Y-144212339D01*
X77004925Y-144212339D02*
X77004925Y-145012339D01*
X76100163Y-144288529D02*
X76123973Y-144250434D01*
X76195401Y-144212339D01*
X76243020Y-144212339D01*
X76314449Y-144250434D01*
X76362068Y-144326624D01*
X76385878Y-144402815D01*
X76409687Y-144555196D01*
X76409687Y-144669482D01*
X76385878Y-144821863D01*
X76362068Y-144898053D01*
X76314449Y-144974244D01*
X76243020Y-145012339D01*
X76195401Y-145012339D01*
X76123973Y-144974244D01*
X76100163Y-144936148D01*
X75885878Y-144212339D02*
X75885878Y-145012339D01*
X75600163Y-144212339D02*
X75814449Y-144669482D01*
X75600163Y-145012339D02*
X75885878Y-144555196D01*
X75028735Y-144250434D02*
X74957306Y-144212339D01*
X74838259Y-144212339D01*
X74790639Y-144250434D01*
X74766830Y-144288529D01*
X74743020Y-144364720D01*
X74743020Y-144440910D01*
X74766830Y-144517101D01*
X74790639Y-144555196D01*
X74838259Y-144593291D01*
X74933497Y-144631386D01*
X74981116Y-144669482D01*
X75004925Y-144707577D01*
X75028735Y-144783767D01*
X75028735Y-144859958D01*
X75004925Y-144936148D01*
X74981116Y-144974244D01*
X74933497Y-145012339D01*
X74814449Y-145012339D01*
X74743020Y-144974244D01*
X74552544Y-144250434D02*
X74481116Y-144212339D01*
X74362068Y-144212339D01*
X74314449Y-144250434D01*
X74290639Y-144288529D01*
X74266830Y-144364720D01*
X74266830Y-144440910D01*
X74290639Y-144517101D01*
X74314449Y-144555196D01*
X74362068Y-144593291D01*
X74457306Y-144631386D01*
X74504925Y-144669482D01*
X74528735Y-144707577D01*
X74552544Y-144783767D01*
X74552544Y-144859958D01*
X74528735Y-144936148D01*
X74504925Y-144974244D01*
X74457306Y-145012339D01*
X74338259Y-145012339D01*
X74266830Y-144974244D01*
X73719211Y-145012339D02*
X73409687Y-145012339D01*
X73576354Y-144707577D01*
X73504925Y-144707577D01*
X73457306Y-144669482D01*
X73433497Y-144631386D01*
X73409687Y-144555196D01*
X73409687Y-144364720D01*
X73433497Y-144288529D01*
X73457306Y-144250434D01*
X73504925Y-144212339D01*
X73647782Y-144212339D01*
X73695401Y-144250434D01*
X73719211Y-144288529D01*
X73266830Y-145012339D02*
X73100163Y-144212339D01*
X72933497Y-145012339D01*
X72123973Y-144974244D02*
X72171592Y-145012339D01*
X72243020Y-145012339D01*
X72314449Y-144974244D01*
X72362068Y-144898053D01*
X72385878Y-144821863D01*
X72409687Y-144669482D01*
X72409687Y-144555196D01*
X72385878Y-144402815D01*
X72362068Y-144326624D01*
X72314449Y-144250434D01*
X72243020Y-144212339D01*
X72195401Y-144212339D01*
X72123973Y-144250434D01*
X72100163Y-144288529D01*
X72100163Y-144555196D01*
X72195401Y-144555196D01*
X71885878Y-144212339D02*
X71885878Y-145012339D01*
X71766830Y-145012339D01*
X71695401Y-144974244D01*
X71647782Y-144898053D01*
X71623973Y-144821863D01*
X71600163Y-144669482D01*
X71600163Y-144555196D01*
X71623973Y-144402815D01*
X71647782Y-144326624D01*
X71695401Y-144250434D01*
X71766830Y-144212339D01*
X71885878Y-144212339D01*
X105028392Y-110807920D02*
X105828392Y-110807920D01*
X105256963Y-110974586D01*
X105828392Y-111141253D01*
X105028392Y-111141253D01*
X105828392Y-111474586D02*
X105828392Y-111569825D01*
X105790297Y-111617444D01*
X105714106Y-111665063D01*
X105561725Y-111688872D01*
X105295058Y-111688872D01*
X105142677Y-111665063D01*
X105066487Y-111617444D01*
X105028392Y-111569825D01*
X105028392Y-111474586D01*
X105066487Y-111426967D01*
X105142677Y-111379348D01*
X105295058Y-111355539D01*
X105561725Y-111355539D01*
X105714106Y-111379348D01*
X105790297Y-111426967D01*
X105828392Y-111474586D01*
X105028392Y-112284110D02*
X105828392Y-112284110D01*
X105256963Y-112450777D01*
X105828392Y-112617444D01*
X105028392Y-112617444D01*
X105028392Y-112855539D02*
X105828392Y-112855539D01*
X105104582Y-113760301D02*
X105066487Y-113736491D01*
X105028392Y-113665063D01*
X105028392Y-113617444D01*
X105066487Y-113546015D01*
X105142677Y-113498396D01*
X105218868Y-113474586D01*
X105371249Y-113450777D01*
X105485535Y-113450777D01*
X105637916Y-113474586D01*
X105714106Y-113498396D01*
X105790297Y-113546015D01*
X105828392Y-113617444D01*
X105828392Y-113665063D01*
X105790297Y-113736491D01*
X105752201Y-113760301D01*
X105028392Y-113974586D02*
X105828392Y-113974586D01*
X105028392Y-114260301D02*
X105485535Y-114046015D01*
X105828392Y-114260301D02*
X105371249Y-113974586D01*
X105066487Y-114831729D02*
X105028392Y-114903158D01*
X105028392Y-115022206D01*
X105066487Y-115069825D01*
X105104582Y-115093634D01*
X105180773Y-115117444D01*
X105256963Y-115117444D01*
X105333154Y-115093634D01*
X105371249Y-115069825D01*
X105409344Y-115022206D01*
X105447439Y-114926967D01*
X105485535Y-114879348D01*
X105523630Y-114855539D01*
X105599820Y-114831729D01*
X105676011Y-114831729D01*
X105752201Y-114855539D01*
X105790297Y-114879348D01*
X105828392Y-114926967D01*
X105828392Y-115046015D01*
X105790297Y-115117444D01*
X105066487Y-115307920D02*
X105028392Y-115379348D01*
X105028392Y-115498396D01*
X105066487Y-115546015D01*
X105104582Y-115569825D01*
X105180773Y-115593634D01*
X105256963Y-115593634D01*
X105333154Y-115569825D01*
X105371249Y-115546015D01*
X105409344Y-115498396D01*
X105447439Y-115403158D01*
X105485535Y-115355539D01*
X105523630Y-115331729D01*
X105599820Y-115307920D01*
X105676011Y-115307920D01*
X105752201Y-115331729D01*
X105790297Y-115355539D01*
X105828392Y-115403158D01*
X105828392Y-115522206D01*
X105790297Y-115593634D01*
X105828392Y-116141253D02*
X105828392Y-116450777D01*
X105523630Y-116284110D01*
X105523630Y-116355539D01*
X105485535Y-116403158D01*
X105447439Y-116426967D01*
X105371249Y-116450777D01*
X105180773Y-116450777D01*
X105104582Y-116426967D01*
X105066487Y-116403158D01*
X105028392Y-116355539D01*
X105028392Y-116212682D01*
X105066487Y-116165063D01*
X105104582Y-116141253D01*
X105828392Y-116593634D02*
X105028392Y-116760301D01*
X105828392Y-116926967D01*
X105790297Y-117736491D02*
X105828392Y-117688872D01*
X105828392Y-117617444D01*
X105790297Y-117546015D01*
X105714106Y-117498396D01*
X105637916Y-117474586D01*
X105485535Y-117450777D01*
X105371249Y-117450777D01*
X105218868Y-117474586D01*
X105142677Y-117498396D01*
X105066487Y-117546015D01*
X105028392Y-117617444D01*
X105028392Y-117665063D01*
X105066487Y-117736491D01*
X105104582Y-117760301D01*
X105371249Y-117760301D01*
X105371249Y-117665063D01*
X105028392Y-117974586D02*
X105828392Y-117974586D01*
X105828392Y-118093634D01*
X105790297Y-118165063D01*
X105714106Y-118212682D01*
X105637916Y-118236491D01*
X105485535Y-118260301D01*
X105371249Y-118260301D01*
X105218868Y-118236491D01*
X105142677Y-118212682D01*
X105066487Y-118165063D01*
X105028392Y-118093634D01*
X105028392Y-117974586D01*
D10*
X108420754Y-123512563D02*
X108521769Y-123478891D01*
X108622784Y-123377876D01*
X108690128Y-123243189D01*
X108690128Y-123108502D01*
X108656456Y-123007487D01*
X108555441Y-122839128D01*
X108454426Y-122738113D01*
X108286067Y-122637097D01*
X108185052Y-122603426D01*
X108050365Y-122603426D01*
X107915678Y-122670769D01*
X107848334Y-122738113D01*
X107780991Y-122872800D01*
X107780991Y-122940143D01*
X108016693Y-123175845D01*
X108151380Y-123041158D01*
X107242243Y-124758418D02*
X107578960Y-124421700D01*
X107275914Y-124051311D01*
X107275914Y-124118654D01*
X107242243Y-124219670D01*
X107073884Y-124388028D01*
X106972869Y-124421700D01*
X106905525Y-124421700D01*
X106804510Y-124388028D01*
X106636151Y-124219670D01*
X106602479Y-124118654D01*
X106602479Y-124051311D01*
X106636151Y-123950296D01*
X106804510Y-123781937D01*
X106905525Y-123748265D01*
X106972869Y-123748265D01*
X105322953Y-125263494D02*
X105659670Y-124926776D01*
X106366777Y-125633883D01*
X104548503Y-126037944D02*
X105255609Y-126745051D01*
X104918892Y-126408333D02*
X104514831Y-126812394D01*
X104144442Y-126442005D02*
X104851548Y-127149112D01*
X87207551Y-144725766D02*
X87308566Y-144692094D01*
X87409581Y-144591079D01*
X87476925Y-144456392D01*
X87476925Y-144321705D01*
X87443253Y-144220690D01*
X87342238Y-144052331D01*
X87241223Y-143951316D01*
X87072864Y-143850300D01*
X86971849Y-143816629D01*
X86837162Y-143816629D01*
X86702475Y-143883972D01*
X86635131Y-143951316D01*
X86567788Y-144086003D01*
X86567788Y-144153346D01*
X86803490Y-144389048D01*
X86938177Y-144254361D01*
X86029040Y-145971621D02*
X86365757Y-145634903D01*
X86062711Y-145264514D01*
X86062711Y-145331857D01*
X86029040Y-145432873D01*
X85860681Y-145601231D01*
X85759666Y-145634903D01*
X85692322Y-145634903D01*
X85591307Y-145601231D01*
X85422948Y-145432873D01*
X85389276Y-145331857D01*
X85389276Y-145264514D01*
X85422948Y-145163499D01*
X85591307Y-144995140D01*
X85692322Y-144961468D01*
X85759666Y-144961468D01*
X84109750Y-146476697D02*
X84446467Y-146139979D01*
X85153574Y-146847086D01*
X83335300Y-147251147D02*
X84042406Y-147958254D01*
X83705689Y-147621536D02*
X83301628Y-148025597D01*
X82931239Y-147655208D02*
X83638345Y-148362315D01*
X81904250Y-141745816D02*
X81904250Y-141678472D01*
X81971594Y-141543785D01*
X82038937Y-141476442D01*
X82173624Y-141409098D01*
X82308311Y-141409098D01*
X82409326Y-141442770D01*
X82577685Y-141543785D01*
X82678700Y-141644800D01*
X82779716Y-141813159D01*
X82813387Y-141914174D01*
X82813387Y-142048861D01*
X82746044Y-142183548D01*
X82678700Y-142250892D01*
X82544013Y-142318235D01*
X82476670Y-142318235D01*
X81769563Y-142149877D02*
X81432845Y-142486594D01*
X81634876Y-141880503D02*
X82106281Y-142823312D01*
X81163471Y-142351907D01*
X80927769Y-142587610D02*
X81634876Y-143294716D01*
X80523708Y-142991671D01*
X81230815Y-143698777D01*
X103117453Y-120532613D02*
X103117453Y-120465269D01*
X103184797Y-120330582D01*
X103252140Y-120263239D01*
X103386827Y-120195895D01*
X103521514Y-120195895D01*
X103622529Y-120229567D01*
X103790888Y-120330582D01*
X103891903Y-120431597D01*
X103992919Y-120599956D01*
X104026590Y-120700971D01*
X104026590Y-120835658D01*
X103959247Y-120970345D01*
X103891903Y-121037689D01*
X103757216Y-121105032D01*
X103689873Y-121105032D01*
X102982766Y-120936674D02*
X102646048Y-121273391D01*
X102848079Y-120667300D02*
X103319484Y-121610109D01*
X102376674Y-121138704D01*
X102140972Y-121374407D02*
X102848079Y-122081513D01*
X101736911Y-121778468D01*
X102444018Y-122485574D01*
D11*
X62815170Y-150033443D02*
X62815170Y-152033443D01*
X62148503Y-150604871D01*
X61481837Y-152033443D01*
X61481837Y-150033443D01*
X59481837Y-150033443D02*
X60624694Y-150033443D01*
X60053265Y-150033443D02*
X60053265Y-152033443D01*
X60243742Y-151747728D01*
X60434218Y-151557252D01*
X60624694Y-151462014D01*
X110849496Y-98761022D02*
X112849496Y-98761022D01*
X111420924Y-99427689D01*
X112849496Y-100094355D01*
X110849496Y-100094355D01*
X112849496Y-101427689D02*
X112849496Y-101618165D01*
X112754258Y-101808641D01*
X112659019Y-101903879D01*
X112468543Y-101999117D01*
X112087591Y-102094355D01*
X111611400Y-102094355D01*
X111230448Y-101999117D01*
X111039972Y-101903879D01*
X110944734Y-101808641D01*
X110849496Y-101618165D01*
X110849496Y-101427689D01*
X110944734Y-101237212D01*
X111039972Y-101141974D01*
X111230448Y-101046736D01*
X111611400Y-100951498D01*
X112087591Y-100951498D01*
X112468543Y-101046736D01*
X112659019Y-101141974D01*
X112754258Y-101237212D01*
X112849496Y-101427689D01*
D10*
X114161788Y-111340224D02*
X113589368Y-111239209D01*
X113757727Y-111744285D02*
X113050620Y-111037179D01*
X113319994Y-110767805D01*
X113421009Y-110734133D01*
X113488353Y-110734133D01*
X113589368Y-110767805D01*
X113690383Y-110868820D01*
X113724055Y-110969835D01*
X113724055Y-111037179D01*
X113690383Y-111138194D01*
X113421009Y-111407568D01*
X114397490Y-111037179D02*
X114532177Y-110969835D01*
X114700536Y-110801476D01*
X114734208Y-110700461D01*
X114734208Y-110633117D01*
X114700536Y-110532102D01*
X114633193Y-110464759D01*
X114532177Y-110431087D01*
X114464834Y-110431087D01*
X114363819Y-110464759D01*
X114195460Y-110565774D01*
X114094444Y-110599446D01*
X114027101Y-110599446D01*
X113926086Y-110565774D01*
X113858742Y-110498430D01*
X113825070Y-110397415D01*
X113825070Y-110330072D01*
X113858742Y-110229056D01*
X114027101Y-110060698D01*
X114161788Y-109993354D01*
X114330147Y-109757652D02*
X114734208Y-109353591D01*
X115239284Y-110262728D02*
X114532177Y-109555621D01*
X114717371Y-152672299D02*
X114582684Y-152739642D01*
X114515341Y-152739642D01*
X114414326Y-152705971D01*
X114313310Y-152604955D01*
X114279639Y-152503940D01*
X114279639Y-152436597D01*
X114313310Y-152335581D01*
X114582684Y-152066207D01*
X115289791Y-152773314D01*
X115054089Y-153009016D01*
X114953074Y-153042688D01*
X114885730Y-153042688D01*
X114784715Y-153009016D01*
X114717371Y-152941673D01*
X114683700Y-152840658D01*
X114683700Y-152773314D01*
X114717371Y-152672299D01*
X114953074Y-152436597D01*
X114111280Y-152941673D02*
X113774562Y-153278390D01*
X113976593Y-152672299D02*
X114447997Y-153615108D01*
X113505188Y-153143703D01*
X114077608Y-153985497D02*
X113673547Y-154389558D01*
X113168471Y-153480421D02*
X113875578Y-154187528D01*
X113538860Y-154524245D02*
X113134799Y-154928306D01*
X112629723Y-154019169D02*
X113336829Y-154726276D01*
X94076589Y-149170438D02*
X81348667Y-136442516D01*
X138892822Y-95430322D02*
G75*
G03*
X138892822Y-95430322I-83000000J0D01*
G01*
X109675364Y-133571662D02*
X96947442Y-120843740D01*
X81870578Y-165029833D02*
X81803235Y-164895146D01*
X81634876Y-164726787D01*
X81533861Y-164693115D01*
X81466517Y-164693115D01*
X81365502Y-164726787D01*
X81298159Y-164794130D01*
X81264487Y-164895146D01*
X81264487Y-164962489D01*
X81298159Y-165063504D01*
X81399174Y-165231863D01*
X81432846Y-165332878D01*
X81432846Y-165400222D01*
X81399174Y-165501237D01*
X81331830Y-165568581D01*
X81230815Y-165602252D01*
X81163472Y-165602252D01*
X81062456Y-165568581D01*
X80894098Y-165400222D01*
X80826754Y-165265535D01*
X80557380Y-165063504D02*
X81096128Y-164188039D01*
X80456365Y-164558428D01*
X80826754Y-163918665D01*
X79951289Y-164457413D01*
X79547228Y-164053352D02*
X79479884Y-163986008D01*
X79446212Y-163884993D01*
X79446212Y-163817650D01*
X79479884Y-163716634D01*
X79580899Y-163548276D01*
X79749258Y-163379917D01*
X79917617Y-163278902D01*
X80018632Y-163245230D01*
X80085976Y-163245230D01*
X80186991Y-163278902D01*
X80254334Y-163346245D01*
X80288006Y-163447260D01*
X80288006Y-163514604D01*
X80254334Y-163615619D01*
X80153319Y-163783978D01*
X79984960Y-163952337D01*
X79816602Y-164053352D01*
X79715586Y-164087024D01*
X79648243Y-164087024D01*
X79547228Y-164053352D01*
X76920830Y-160080085D02*
X76853487Y-159945398D01*
X76685128Y-159777039D01*
X76584113Y-159743367D01*
X76516769Y-159743367D01*
X76415754Y-159777039D01*
X76348411Y-159844382D01*
X76314739Y-159945398D01*
X76314739Y-160012741D01*
X76348411Y-160113756D01*
X76449426Y-160282115D01*
X76483098Y-160383130D01*
X76483098Y-160450474D01*
X76449426Y-160551489D01*
X76382082Y-160618833D01*
X76281067Y-160652504D01*
X76213724Y-160652504D01*
X76112708Y-160618833D01*
X75944350Y-160450474D01*
X75877006Y-160315787D01*
X75607632Y-160113756D02*
X76146380Y-159238291D01*
X75506617Y-159608680D01*
X75877006Y-158968917D01*
X75001541Y-159507665D01*
X74833182Y-159204619D02*
X74765838Y-159204619D01*
X74664823Y-159170947D01*
X74496464Y-159002589D01*
X74462793Y-158901573D01*
X74462793Y-158834230D01*
X74496464Y-158733215D01*
X74563808Y-158665871D01*
X74698495Y-158598528D01*
X75506617Y-158598528D01*
X75068884Y-158160795D01*
X79395704Y-162554959D02*
X79328361Y-162420272D01*
X79160002Y-162251913D01*
X79058987Y-162218241D01*
X78991643Y-162218241D01*
X78890628Y-162251913D01*
X78823285Y-162319256D01*
X78789613Y-162420272D01*
X78789613Y-162487615D01*
X78823285Y-162588630D01*
X78924300Y-162756989D01*
X78957972Y-162858004D01*
X78957972Y-162925348D01*
X78924300Y-163026363D01*
X78856956Y-163093707D01*
X78755941Y-163127378D01*
X78688598Y-163127378D01*
X78587582Y-163093707D01*
X78419224Y-162925348D01*
X78351880Y-162790661D01*
X78082506Y-162588630D02*
X78621254Y-161713165D01*
X77981491Y-162083554D01*
X78351880Y-161443791D01*
X77476415Y-161982539D01*
X77543758Y-160635669D02*
X77947819Y-161039730D01*
X77745789Y-160837699D02*
X77038682Y-161544806D01*
X77207041Y-161511134D01*
X77341728Y-161511134D01*
X77442743Y-161544806D01*
X74445957Y-157605211D02*
X74378614Y-157470524D01*
X74210255Y-157302165D01*
X74109240Y-157268493D01*
X74041896Y-157268493D01*
X73940881Y-157302165D01*
X73873538Y-157369508D01*
X73839866Y-157470524D01*
X73839866Y-157537867D01*
X73873538Y-157638882D01*
X73974553Y-157807241D01*
X74008225Y-157908256D01*
X74008225Y-157975600D01*
X73974553Y-158076615D01*
X73907209Y-158143959D01*
X73806194Y-158177630D01*
X73738851Y-158177630D01*
X73637835Y-158143959D01*
X73469477Y-157975600D01*
X73402133Y-157840913D01*
X73132759Y-157638882D02*
X73671507Y-156763417D01*
X73031744Y-157133806D01*
X73402133Y-156494043D01*
X72526668Y-157032791D01*
X72324637Y-156830760D02*
X71886904Y-156393028D01*
X72391981Y-156359356D01*
X72290965Y-156258341D01*
X72257294Y-156157325D01*
X72257294Y-156089982D01*
X72290965Y-155988967D01*
X72459324Y-155820608D01*
X72560339Y-155786936D01*
X72627683Y-155786936D01*
X72728698Y-155820608D01*
X72930729Y-156022638D01*
X72964400Y-156123654D01*
X72964400Y-156190997D01*
%TO.C,U2*%
X118623295Y-125701227D02*
X119195715Y-125128807D01*
X119229387Y-125027792D01*
X119229387Y-124960448D01*
X119195715Y-124859433D01*
X119061028Y-124724746D01*
X118960013Y-124691074D01*
X118892669Y-124691074D01*
X118791654Y-124724746D01*
X118219234Y-125297166D01*
X117983532Y-124926776D02*
X117916189Y-124926776D01*
X117815173Y-124893105D01*
X117646815Y-124724746D01*
X117613143Y-124623731D01*
X117613143Y-124556387D01*
X117646815Y-124455372D01*
X117714158Y-124388028D01*
X117848845Y-124320685D01*
X118656967Y-124320685D01*
X118219234Y-123882952D01*
%TO.C,R17*%
X122074650Y-116424660D02*
X121973635Y-116997079D01*
X122478711Y-116828721D02*
X121771604Y-117535827D01*
X121502230Y-117266453D01*
X121468558Y-117165438D01*
X121468558Y-117098095D01*
X121502230Y-116997079D01*
X121603245Y-116896064D01*
X121704261Y-116862392D01*
X121771604Y-116862392D01*
X121872619Y-116896064D01*
X122141993Y-117165438D01*
X121401215Y-115751224D02*
X121805276Y-116155285D01*
X121603245Y-115953255D02*
X120896138Y-116660362D01*
X121064497Y-116626690D01*
X121199184Y-116626690D01*
X121300200Y-116660362D01*
X120458406Y-116222629D02*
X119987001Y-115751224D01*
X120997154Y-115347163D01*
%TO.C,R16*%
X117124902Y-111474912D02*
X117023887Y-112047331D01*
X117528963Y-111878973D02*
X116821856Y-112586079D01*
X116552482Y-112316705D01*
X116518810Y-112215690D01*
X116518810Y-112148347D01*
X116552482Y-112047331D01*
X116653497Y-111946316D01*
X116754513Y-111912644D01*
X116821856Y-111912644D01*
X116922871Y-111946316D01*
X117192245Y-112215690D01*
X116451467Y-110801476D02*
X116855528Y-111205537D01*
X116653497Y-111003507D02*
X115946390Y-111710614D01*
X116114749Y-111676942D01*
X116249436Y-111676942D01*
X116350452Y-111710614D01*
X115138268Y-110902492D02*
X115272955Y-111037179D01*
X115373971Y-111070850D01*
X115441314Y-111070850D01*
X115609673Y-111037179D01*
X115778032Y-110936163D01*
X116047406Y-110666789D01*
X116081077Y-110565774D01*
X116081077Y-110498431D01*
X116047406Y-110397415D01*
X115912719Y-110262728D01*
X115811703Y-110229057D01*
X115744360Y-110229057D01*
X115643345Y-110262728D01*
X115474986Y-110431087D01*
X115441314Y-110532102D01*
X115441314Y-110599446D01*
X115474986Y-110700461D01*
X115609673Y-110835148D01*
X115710688Y-110868820D01*
X115778032Y-110868820D01*
X115879047Y-110835148D01*
%TO.C,D15*%
X121418050Y-120010701D02*
X120710943Y-120717807D01*
X120542584Y-120549449D01*
X120475241Y-120414762D01*
X120475241Y-120280075D01*
X120508913Y-120179059D01*
X120609928Y-120010701D01*
X120710943Y-119909685D01*
X120879302Y-119808670D01*
X120980317Y-119774998D01*
X121115004Y-119774998D01*
X121249691Y-119842342D01*
X121418050Y-120010701D01*
X120340554Y-118933204D02*
X120744615Y-119337265D01*
X120542584Y-119135235D02*
X119835477Y-119842342D01*
X120003836Y-119808670D01*
X120138523Y-119808670D01*
X120239539Y-119842342D01*
X118993684Y-119000548D02*
X119330401Y-119337265D01*
X119700790Y-119034220D01*
X119633447Y-119034220D01*
X119532432Y-119000548D01*
X119364073Y-118832189D01*
X119330401Y-118731174D01*
X119330401Y-118663830D01*
X119364073Y-118562815D01*
X119532432Y-118394456D01*
X119633447Y-118360785D01*
X119700790Y-118360785D01*
X119801806Y-118394456D01*
X119970164Y-118562815D01*
X120003836Y-118663830D01*
X120003836Y-118731174D01*
%TO.C,D14*%
X119296730Y-117889381D02*
X118589623Y-118596487D01*
X118421264Y-118428129D01*
X118353921Y-118293442D01*
X118353921Y-118158755D01*
X118387593Y-118057739D01*
X118488608Y-117889381D01*
X118589623Y-117788365D01*
X118757982Y-117687350D01*
X118858997Y-117653678D01*
X118993684Y-117653678D01*
X119128371Y-117721022D01*
X119296730Y-117889381D01*
X118219234Y-116811884D02*
X118623295Y-117215945D01*
X118421264Y-117013915D02*
X117714157Y-117721022D01*
X117882516Y-117687350D01*
X118017203Y-117687350D01*
X118118219Y-117721022D01*
X117141738Y-116677197D02*
X117613142Y-116205793D01*
X117040722Y-117114930D02*
X117714157Y-116778213D01*
X117276425Y-116340480D01*
%TO.C,J2*%
X101349687Y-126812394D02*
X101854763Y-126307318D01*
X101989450Y-126239974D01*
X102124137Y-126239974D01*
X102258824Y-126307318D01*
X102326167Y-126374661D01*
X101113984Y-126442005D02*
X101046641Y-126442005D01*
X100945626Y-126408333D01*
X100777267Y-126239974D01*
X100743595Y-126138959D01*
X100743595Y-126071615D01*
X100777267Y-125970600D01*
X100844610Y-125903257D01*
X100979297Y-125835913D01*
X101787419Y-125835913D01*
X101349687Y-125398180D01*
%TO.C,R5*%
X113616811Y-119280529D02*
X113515796Y-119852949D01*
X114020872Y-119684590D02*
X113313766Y-120391697D01*
X113044391Y-120122323D01*
X113010720Y-120021308D01*
X113010720Y-119953964D01*
X113044391Y-119852949D01*
X113145407Y-119751934D01*
X113246422Y-119718262D01*
X113313766Y-119718262D01*
X113414781Y-119751934D01*
X113684155Y-120021308D01*
X112269941Y-119347872D02*
X112606659Y-119684590D01*
X112977048Y-119381544D01*
X112909704Y-119381544D01*
X112808689Y-119347872D01*
X112640330Y-119179514D01*
X112606659Y-119078498D01*
X112606659Y-119011155D01*
X112640330Y-118910140D01*
X112808689Y-118741781D01*
X112909704Y-118708109D01*
X112977048Y-118708109D01*
X113078063Y-118741781D01*
X113246422Y-118910140D01*
X113280094Y-119011155D01*
X113280094Y-119078498D01*
%TO.C,R2*%
X95900250Y-156774865D02*
X95799235Y-157347285D01*
X96304311Y-157178926D02*
X95597205Y-157886033D01*
X95327830Y-157616659D01*
X95294159Y-157515644D01*
X95294159Y-157448300D01*
X95327830Y-157347285D01*
X95428846Y-157246270D01*
X95529861Y-157212598D01*
X95597205Y-157212598D01*
X95698220Y-157246270D01*
X95967594Y-157515644D01*
X94991113Y-157145254D02*
X94923769Y-157145254D01*
X94822754Y-157111583D01*
X94654395Y-156943224D01*
X94620724Y-156842208D01*
X94620724Y-156774865D01*
X94654395Y-156673850D01*
X94721739Y-156606506D01*
X94856426Y-156539163D01*
X95664548Y-156539163D01*
X95226815Y-156101430D01*
%TO.C,D2*%
X94918382Y-155736429D02*
X94211276Y-156443536D01*
X94042917Y-156275177D01*
X93975573Y-156140490D01*
X93975573Y-156005803D01*
X94009245Y-155904788D01*
X94110260Y-155736429D01*
X94211276Y-155635414D01*
X94379634Y-155534399D01*
X94480650Y-155500727D01*
X94615337Y-155500727D01*
X94750024Y-155568070D01*
X94918382Y-155736429D01*
X93605184Y-155702757D02*
X93537840Y-155702757D01*
X93436825Y-155669086D01*
X93268466Y-155500727D01*
X93234795Y-155399711D01*
X93234795Y-155332368D01*
X93268466Y-155231353D01*
X93335810Y-155164009D01*
X93470497Y-155096666D01*
X94278619Y-155096666D01*
X93840886Y-154658933D01*
%TO.C,SW4*%
X81517024Y-155130338D02*
X81449681Y-154995651D01*
X81281322Y-154827292D01*
X81180307Y-154793620D01*
X81112963Y-154793620D01*
X81011948Y-154827292D01*
X80944605Y-154894635D01*
X80910933Y-154995651D01*
X80910933Y-155062994D01*
X80944605Y-155164009D01*
X81045620Y-155332368D01*
X81079292Y-155433383D01*
X81079292Y-155500727D01*
X81045620Y-155601742D01*
X80978276Y-155669086D01*
X80877261Y-155702757D01*
X80809918Y-155702757D01*
X80708902Y-155669086D01*
X80540544Y-155500727D01*
X80473200Y-155366040D01*
X80203826Y-155164009D02*
X80742574Y-154288544D01*
X80102811Y-154658933D01*
X80473200Y-154019170D01*
X79597735Y-154557918D01*
X79261017Y-153749796D02*
X79732422Y-153278391D01*
X79160002Y-154187529D02*
X79833437Y-153850811D01*
X79395704Y-153413078D01*
%TO.C,C37*%
X124482179Y-122502410D02*
X124549523Y-122502410D01*
X124684210Y-122569754D01*
X124751553Y-122637097D01*
X124818897Y-122771784D01*
X124818897Y-122906471D01*
X124785225Y-123007486D01*
X124684210Y-123175845D01*
X124583195Y-123276860D01*
X124414836Y-123377876D01*
X124313821Y-123411547D01*
X124179134Y-123411547D01*
X124044447Y-123344204D01*
X123977103Y-123276860D01*
X123909760Y-123142173D01*
X123909760Y-123074830D01*
X123606714Y-122906471D02*
X123168981Y-122468738D01*
X123674057Y-122435067D01*
X123573042Y-122334051D01*
X123539370Y-122233036D01*
X123539370Y-122165692D01*
X123573042Y-122064677D01*
X123741401Y-121896318D01*
X123842416Y-121862647D01*
X123909760Y-121862647D01*
X124010775Y-121896318D01*
X124212805Y-122098349D01*
X124246477Y-122199364D01*
X124246477Y-122266708D01*
X122933279Y-122233036D02*
X122461874Y-121761631D01*
X123472027Y-121357570D01*
%TO.C,R26*%
X121872619Y-136863412D02*
X121300200Y-136762397D01*
X121468558Y-137267473D02*
X120761452Y-136560366D01*
X121030826Y-136290992D01*
X121131841Y-136257320D01*
X121199184Y-136257320D01*
X121300200Y-136290992D01*
X121401215Y-136392007D01*
X121434887Y-136493023D01*
X121434887Y-136560366D01*
X121401215Y-136661381D01*
X121131841Y-136930755D01*
X121502230Y-135954274D02*
X121502230Y-135886931D01*
X121535902Y-135785916D01*
X121704261Y-135617557D01*
X121805276Y-135583885D01*
X121872619Y-135583885D01*
X121973635Y-135617557D01*
X122040978Y-135684900D01*
X122108322Y-135819587D01*
X122108322Y-136627710D01*
X122546055Y-136189977D01*
X122445039Y-134876778D02*
X122310352Y-135011465D01*
X122276681Y-135112481D01*
X122276681Y-135179824D01*
X122310352Y-135348183D01*
X122411368Y-135516542D01*
X122680742Y-135785916D01*
X122781757Y-135819587D01*
X122849100Y-135819587D01*
X122950116Y-135785916D01*
X123084803Y-135651229D01*
X123118474Y-135550213D01*
X123118474Y-135482870D01*
X123084803Y-135381855D01*
X122916444Y-135213496D01*
X122815429Y-135179824D01*
X122748085Y-135179824D01*
X122647070Y-135213496D01*
X122512383Y-135348183D01*
X122478711Y-135449198D01*
X122478711Y-135516542D01*
X122512383Y-135617557D01*
%TO.C,C26*%
X80291595Y-166783858D02*
X80339214Y-166831477D01*
X80386833Y-166974334D01*
X80386833Y-167069572D01*
X80339214Y-167212429D01*
X80243976Y-167307667D01*
X80148738Y-167355286D01*
X79958262Y-167402905D01*
X79815405Y-167402905D01*
X79624929Y-167355286D01*
X79529691Y-167307667D01*
X79434453Y-167212429D01*
X79386833Y-167069572D01*
X79386833Y-166974334D01*
X79434453Y-166831477D01*
X79482072Y-166783858D01*
X79482072Y-166402905D02*
X79434453Y-166355286D01*
X79386833Y-166260048D01*
X79386833Y-166021953D01*
X79434453Y-165926715D01*
X79482072Y-165879096D01*
X79577310Y-165831477D01*
X79672548Y-165831477D01*
X79815405Y-165879096D01*
X80386833Y-166450524D01*
X80386833Y-165831477D01*
X79386833Y-164974334D02*
X79386833Y-165164810D01*
X79434453Y-165260048D01*
X79482072Y-165307667D01*
X79624929Y-165402905D01*
X79815405Y-165450524D01*
X80196357Y-165450524D01*
X80291595Y-165402905D01*
X80339214Y-165355286D01*
X80386833Y-165260048D01*
X80386833Y-165069572D01*
X80339214Y-164974334D01*
X80291595Y-164926715D01*
X80196357Y-164879096D01*
X79958262Y-164879096D01*
X79863024Y-164926715D01*
X79815405Y-164974334D01*
X79767786Y-165069572D01*
X79767786Y-165260048D01*
X79815405Y-165355286D01*
X79863024Y-165402905D01*
X79958262Y-165450524D01*
%TO.C,SW5*%
X79218928Y-152832240D02*
X79151585Y-152697553D01*
X78983226Y-152529194D01*
X78882211Y-152495522D01*
X78814867Y-152495522D01*
X78713852Y-152529194D01*
X78646509Y-152596537D01*
X78612837Y-152697553D01*
X78612837Y-152764896D01*
X78646509Y-152865911D01*
X78747524Y-153034270D01*
X78781196Y-153135285D01*
X78781196Y-153202629D01*
X78747524Y-153303644D01*
X78680180Y-153370988D01*
X78579165Y-153404659D01*
X78511822Y-153404659D01*
X78410806Y-153370988D01*
X78242448Y-153202629D01*
X78175104Y-153067942D01*
X77905730Y-152865911D02*
X78444478Y-151990446D01*
X77804715Y-152360835D01*
X78175104Y-151721072D01*
X77299639Y-152259820D01*
X76693547Y-151653728D02*
X77030265Y-151990446D01*
X77400654Y-151687400D01*
X77333310Y-151687400D01*
X77232295Y-151653728D01*
X77063936Y-151485370D01*
X77030265Y-151384354D01*
X77030265Y-151317011D01*
X77063936Y-151215996D01*
X77232295Y-151047637D01*
X77333310Y-151013965D01*
X77400654Y-151013965D01*
X77501669Y-151047637D01*
X77670028Y-151215996D01*
X77703700Y-151317011D01*
X77703700Y-151384354D01*
%TO.C,D13*%
X108357995Y-121328484D02*
X107650889Y-120621377D01*
X107819247Y-120453018D01*
X107953934Y-120385675D01*
X108088621Y-120385675D01*
X108189637Y-120419347D01*
X108357995Y-120520362D01*
X108459011Y-120621377D01*
X108560026Y-120789736D01*
X108593698Y-120890751D01*
X108593698Y-121025438D01*
X108526354Y-121160125D01*
X108357995Y-121328484D01*
X109435492Y-120250988D02*
X109031431Y-120655049D01*
X109233461Y-120453018D02*
X108526354Y-119745911D01*
X108560026Y-119914270D01*
X108560026Y-120048957D01*
X108526354Y-120149973D01*
X108964087Y-119308179D02*
X109401820Y-118870446D01*
X109435492Y-119375522D01*
X109536507Y-119274507D01*
X109637522Y-119240835D01*
X109704866Y-119240835D01*
X109805881Y-119274507D01*
X109974240Y-119442866D01*
X110007911Y-119543881D01*
X110007911Y-119611224D01*
X109974240Y-119712240D01*
X109772209Y-119914270D01*
X109671194Y-119947942D01*
X109603850Y-119947942D01*
%TO.C,J12*%
X119409686Y-101443147D02*
X120123972Y-101443147D01*
X120266829Y-101490766D01*
X120362067Y-101586004D01*
X120409686Y-101728862D01*
X120409686Y-101824100D01*
X120409686Y-100443147D02*
X120409686Y-101014576D01*
X120409686Y-100728862D02*
X119409686Y-100728862D01*
X119552544Y-100824100D01*
X119647782Y-100919338D01*
X119695401Y-101014576D01*
X119504925Y-100062195D02*
X119457306Y-100014576D01*
X119409686Y-99919338D01*
X119409686Y-99681243D01*
X119457306Y-99586004D01*
X119504925Y-99538385D01*
X119600163Y-99490766D01*
X119695401Y-99490766D01*
X119838258Y-99538385D01*
X120409686Y-100109814D01*
X120409686Y-99490766D01*
X123214448Y-104371719D02*
X123262067Y-104419338D01*
X123309686Y-104562195D01*
X123309686Y-104657433D01*
X123262067Y-104800290D01*
X123166829Y-104895528D01*
X123071591Y-104943147D01*
X122881115Y-104990766D01*
X122738258Y-104990766D01*
X122547782Y-104943147D01*
X122452544Y-104895528D01*
X122357306Y-104800290D01*
X122309686Y-104657433D01*
X122309686Y-104562195D01*
X122357306Y-104419338D01*
X122404925Y-104371719D01*
X123309686Y-103800290D02*
X123262067Y-103895528D01*
X123214448Y-103943147D01*
X123119210Y-103990766D01*
X122833496Y-103990766D01*
X122738258Y-103943147D01*
X122690639Y-103895528D01*
X122643020Y-103800290D01*
X122643020Y-103657433D01*
X122690639Y-103562195D01*
X122738258Y-103514576D01*
X122833496Y-103466957D01*
X123119210Y-103466957D01*
X123214448Y-103514576D01*
X123262067Y-103562195D01*
X123309686Y-103657433D01*
X123309686Y-103800290D01*
X122643020Y-103038385D02*
X123309686Y-103038385D01*
X122738258Y-103038385D02*
X122690639Y-102990766D01*
X122643020Y-102895528D01*
X122643020Y-102752671D01*
X122690639Y-102657433D01*
X122785877Y-102609814D01*
X123309686Y-102609814D01*
X122643020Y-102133624D02*
X123309686Y-102133624D01*
X122738258Y-102133624D02*
X122690639Y-102086004D01*
X122643020Y-101990766D01*
X122643020Y-101847909D01*
X122690639Y-101752671D01*
X122785877Y-101705052D01*
X123309686Y-101705052D01*
X123404925Y-101466957D02*
X123404925Y-100705052D01*
X122309686Y-100276481D02*
X122309686Y-100181243D01*
X122357306Y-100086004D01*
X122404925Y-100038385D01*
X122500163Y-99990766D01*
X122690639Y-99943147D01*
X122928734Y-99943147D01*
X123119210Y-99990766D01*
X123214448Y-100038385D01*
X123262067Y-100086004D01*
X123309686Y-100181243D01*
X123309686Y-100276481D01*
X123262067Y-100371719D01*
X123214448Y-100419338D01*
X123119210Y-100466957D01*
X122928734Y-100514576D01*
X122690639Y-100514576D01*
X122500163Y-100466957D01*
X122404925Y-100419338D01*
X122357306Y-100371719D01*
X122309686Y-100276481D01*
X123309686Y-98990766D02*
X123309686Y-99562195D01*
X123309686Y-99276481D02*
X122309686Y-99276481D01*
X122452544Y-99371719D01*
X122547782Y-99466957D01*
X122595401Y-99562195D01*
X123309686Y-98657433D02*
X122643020Y-98133624D01*
X122643020Y-98657433D02*
X123309686Y-98133624D01*
X122309686Y-97562195D02*
X122309686Y-97466957D01*
X122357306Y-97371719D01*
X122404925Y-97324100D01*
X122500163Y-97276481D01*
X122690639Y-97228862D01*
X122928734Y-97228862D01*
X123119210Y-97276481D01*
X123214448Y-97324100D01*
X123262067Y-97371719D01*
X123309686Y-97466957D01*
X123309686Y-97562195D01*
X123262067Y-97657433D01*
X123214448Y-97705052D01*
X123119210Y-97752671D01*
X122928734Y-97800290D01*
X122690639Y-97800290D01*
X122500163Y-97752671D01*
X122404925Y-97705052D01*
X122357306Y-97657433D01*
X122309686Y-97562195D01*
X122309686Y-96324100D02*
X122309686Y-96800290D01*
X122785877Y-96847909D01*
X122738258Y-96800290D01*
X122690639Y-96705052D01*
X122690639Y-96466957D01*
X122738258Y-96371719D01*
X122785877Y-96324100D01*
X122881115Y-96276481D01*
X123119210Y-96276481D01*
X123214448Y-96324100D01*
X123262067Y-96371719D01*
X123309686Y-96466957D01*
X123309686Y-96705052D01*
X123262067Y-96800290D01*
X123214448Y-96847909D01*
X124109686Y-98733624D02*
X124347782Y-98733624D01*
X124252544Y-98971719D02*
X124347782Y-98733624D01*
X124252544Y-98495528D01*
X124538258Y-98876481D02*
X124347782Y-98733624D01*
X124538258Y-98590766D01*
%TO.C,J14*%
X114771414Y-129266897D02*
X115276490Y-128761821D01*
X115411177Y-128694478D01*
X115545864Y-128694478D01*
X115680551Y-128761821D01*
X115747895Y-128829165D01*
X114771414Y-127852684D02*
X115175475Y-128256745D01*
X114973445Y-128054714D02*
X114266338Y-128761821D01*
X114434697Y-128728149D01*
X114569384Y-128728149D01*
X114670399Y-128761821D01*
X113693918Y-127717997D02*
X114165323Y-127246592D01*
X113592903Y-128155730D02*
X114266338Y-127819012D01*
X113828605Y-127381279D01*
%TO.C,D1*%
X93504168Y-157150643D02*
X92797062Y-157857750D01*
X92628703Y-157689391D01*
X92561359Y-157554704D01*
X92561359Y-157420017D01*
X92595031Y-157319002D01*
X92696046Y-157150643D01*
X92797062Y-157049628D01*
X92965420Y-156948613D01*
X93066436Y-156914941D01*
X93201123Y-156914941D01*
X93335810Y-156982284D01*
X93504168Y-157150643D01*
X92426672Y-156073147D02*
X92830733Y-156477208D01*
X92628703Y-156275177D02*
X91921596Y-156982284D01*
X92089955Y-156948613D01*
X92224642Y-156948613D01*
X92325657Y-156982284D01*
%TO.C,D5*%
X84505393Y-149481900D02*
X83798286Y-148774794D01*
X83966645Y-148606435D01*
X84101332Y-148539091D01*
X84236019Y-148539091D01*
X84337034Y-148572763D01*
X84505393Y-148673778D01*
X84606408Y-148774794D01*
X84707423Y-148943152D01*
X84741095Y-149044168D01*
X84741095Y-149178855D01*
X84673752Y-149313542D01*
X84505393Y-149481900D01*
X84842111Y-147730969D02*
X84505393Y-148067687D01*
X84808439Y-148438076D01*
X84808439Y-148370732D01*
X84842111Y-148269717D01*
X85010469Y-148101358D01*
X85111485Y-148067687D01*
X85178828Y-148067687D01*
X85279843Y-148101358D01*
X85448202Y-148269717D01*
X85481874Y-148370732D01*
X85481874Y-148438076D01*
X85448202Y-148539091D01*
X85279843Y-148707450D01*
X85178828Y-148741122D01*
X85111485Y-148741122D01*
%TO.C,C36*%
X126249946Y-120734643D02*
X126317290Y-120734643D01*
X126451977Y-120801987D01*
X126519320Y-120869330D01*
X126586664Y-121004017D01*
X126586664Y-121138704D01*
X126552992Y-121239719D01*
X126451977Y-121408078D01*
X126350962Y-121509093D01*
X126182603Y-121610109D01*
X126081588Y-121643780D01*
X125946901Y-121643780D01*
X125812214Y-121576437D01*
X125744870Y-121509093D01*
X125677527Y-121374406D01*
X125677527Y-121307063D01*
X125374481Y-121138704D02*
X124936748Y-120700971D01*
X125441824Y-120667300D01*
X125340809Y-120566284D01*
X125307137Y-120465269D01*
X125307137Y-120397925D01*
X125340809Y-120296910D01*
X125509168Y-120128551D01*
X125610183Y-120094880D01*
X125677527Y-120094880D01*
X125778542Y-120128551D01*
X125980572Y-120330582D01*
X126014244Y-120431597D01*
X126014244Y-120498941D01*
X124330656Y-120094880D02*
X124465343Y-120229567D01*
X124566359Y-120263238D01*
X124633702Y-120263238D01*
X124802061Y-120229567D01*
X124970420Y-120128551D01*
X125239794Y-119859177D01*
X125273465Y-119758162D01*
X125273465Y-119690819D01*
X125239794Y-119589803D01*
X125105107Y-119455116D01*
X125004091Y-119421445D01*
X124936748Y-119421445D01*
X124835733Y-119455116D01*
X124667374Y-119623475D01*
X124633702Y-119724490D01*
X124633702Y-119791834D01*
X124667374Y-119892849D01*
X124802061Y-120027536D01*
X124903076Y-120061208D01*
X124970420Y-120061208D01*
X125071435Y-120027536D01*
%TO.C,J11*%
X105968610Y-138165667D02*
X106473686Y-138670743D01*
X106541029Y-138805430D01*
X106541029Y-138940117D01*
X106473686Y-139074804D01*
X106406342Y-139142148D01*
X107382823Y-138165667D02*
X106978762Y-138569728D01*
X107180793Y-138367698D02*
X106473686Y-137660591D01*
X106507358Y-137828950D01*
X106507358Y-137963637D01*
X106473686Y-138064652D01*
X108056258Y-137492232D02*
X107652197Y-137896293D01*
X107854228Y-137694263D02*
X107147121Y-136987156D01*
X107180793Y-137155515D01*
X107180793Y-137290202D01*
X107147121Y-137391217D01*
X112963916Y-152602430D02*
X113772038Y-151794308D01*
X113772038Y-152602430D02*
X112963916Y-151794308D01*
%TO.C,J6*%
X106610444Y-107430917D02*
X107324730Y-107430917D01*
X107467587Y-107478536D01*
X107562825Y-107573774D01*
X107610444Y-107716631D01*
X107610444Y-107811869D01*
X106610444Y-106526155D02*
X106610444Y-106716631D01*
X106658064Y-106811869D01*
X106705683Y-106859488D01*
X106848540Y-106954726D01*
X107039016Y-107002345D01*
X107419968Y-107002345D01*
X107515206Y-106954726D01*
X107562825Y-106907107D01*
X107610444Y-106811869D01*
X107610444Y-106621393D01*
X107562825Y-106526155D01*
X107515206Y-106478536D01*
X107419968Y-106430917D01*
X107181873Y-106430917D01*
X107086635Y-106478536D01*
X107039016Y-106526155D01*
X106991397Y-106621393D01*
X106991397Y-106811869D01*
X107039016Y-106907107D01*
X107086635Y-106954726D01*
X107181873Y-107002345D01*
%TO.C,C3*%
X72159867Y-165954113D02*
X72207486Y-166001732D01*
X72255105Y-166144589D01*
X72255105Y-166239827D01*
X72207486Y-166382685D01*
X72112248Y-166477923D01*
X72017010Y-166525542D01*
X71826534Y-166573161D01*
X71683677Y-166573161D01*
X71493201Y-166525542D01*
X71397963Y-166477923D01*
X71302725Y-166382685D01*
X71255105Y-166239827D01*
X71255105Y-166144589D01*
X71302725Y-166001732D01*
X71350344Y-165954113D01*
X71255105Y-165620780D02*
X71255105Y-165001732D01*
X71636058Y-165335066D01*
X71636058Y-165192208D01*
X71683677Y-165096970D01*
X71731296Y-165049351D01*
X71826534Y-165001732D01*
X72064629Y-165001732D01*
X72159867Y-165049351D01*
X72207486Y-165096970D01*
X72255105Y-165192208D01*
X72255105Y-165477923D01*
X72207486Y-165573161D01*
X72159867Y-165620780D01*
%TO.C,C25*%
X125960642Y-119121988D02*
X125913023Y-119169607D01*
X125770166Y-119217226D01*
X125674928Y-119217226D01*
X125532071Y-119169607D01*
X125436833Y-119074369D01*
X125389214Y-118979131D01*
X125341595Y-118788655D01*
X125341595Y-118645798D01*
X125389214Y-118455322D01*
X125436833Y-118360084D01*
X125532071Y-118264846D01*
X125674928Y-118217226D01*
X125770166Y-118217226D01*
X125913023Y-118264846D01*
X125960642Y-118312465D01*
X126341595Y-118312465D02*
X126389214Y-118264846D01*
X126484452Y-118217226D01*
X126722547Y-118217226D01*
X126817785Y-118264846D01*
X126865404Y-118312465D01*
X126913023Y-118407703D01*
X126913023Y-118502941D01*
X126865404Y-118645798D01*
X126293976Y-119217226D01*
X126913023Y-119217226D01*
X127817785Y-118217226D02*
X127341595Y-118217226D01*
X127293976Y-118693417D01*
X127341595Y-118645798D01*
X127436833Y-118598179D01*
X127674928Y-118598179D01*
X127770166Y-118645798D01*
X127817785Y-118693417D01*
X127865404Y-118788655D01*
X127865404Y-119026750D01*
X127817785Y-119121988D01*
X127770166Y-119169607D01*
X127674928Y-119217226D01*
X127436833Y-119217226D01*
X127341595Y-119169607D01*
X127293976Y-119121988D01*
%TO.C,R4*%
X93071823Y-159603292D02*
X92970808Y-160175712D01*
X93475884Y-160007353D02*
X92768778Y-160714460D01*
X92499403Y-160445086D01*
X92465732Y-160344071D01*
X92465732Y-160276727D01*
X92499403Y-160175712D01*
X92600419Y-160074697D01*
X92701434Y-160041025D01*
X92768778Y-160041025D01*
X92869793Y-160074697D01*
X93139167Y-160344071D01*
X91994327Y-159468605D02*
X92465732Y-158997200D01*
X91893312Y-159906338D02*
X92566747Y-159569620D01*
X92129014Y-159131887D01*
%TO.C,SW3*%
X84168675Y-157781988D02*
X84101332Y-157647301D01*
X83932973Y-157478942D01*
X83831958Y-157445270D01*
X83764614Y-157445270D01*
X83663599Y-157478942D01*
X83596256Y-157546285D01*
X83562584Y-157647301D01*
X83562584Y-157714644D01*
X83596256Y-157815659D01*
X83697271Y-157984018D01*
X83730943Y-158085033D01*
X83730943Y-158152377D01*
X83697271Y-158253392D01*
X83629927Y-158320736D01*
X83528912Y-158354407D01*
X83461569Y-158354407D01*
X83360553Y-158320736D01*
X83192195Y-158152377D01*
X83124851Y-158017690D01*
X82855477Y-157815659D02*
X83394225Y-156940194D01*
X82754462Y-157310583D01*
X83124851Y-156670820D01*
X82249386Y-157209568D01*
X82047355Y-157007537D02*
X81609622Y-156569805D01*
X82114699Y-156536133D01*
X82013683Y-156435118D01*
X81980012Y-156334102D01*
X81980012Y-156266759D01*
X82013683Y-156165744D01*
X82182042Y-155997385D01*
X82283057Y-155963713D01*
X82350401Y-155963713D01*
X82451416Y-155997385D01*
X82653447Y-156199415D01*
X82687118Y-156300431D01*
X82687118Y-156367774D01*
%TO.C,R3*%
X97314464Y-155360652D02*
X97213449Y-155933072D01*
X97718525Y-155764713D02*
X97011419Y-156471820D01*
X96742044Y-156202446D01*
X96708373Y-156101431D01*
X96708373Y-156034087D01*
X96742044Y-155933072D01*
X96843060Y-155832057D01*
X96944075Y-155798385D01*
X97011419Y-155798385D01*
X97112434Y-155832057D01*
X97381808Y-156101431D01*
X96371655Y-155832057D02*
X95933922Y-155394324D01*
X96438999Y-155360652D01*
X96337983Y-155259637D01*
X96304312Y-155158621D01*
X96304312Y-155091278D01*
X96337983Y-154990263D01*
X96506342Y-154821904D01*
X96607357Y-154788232D01*
X96674701Y-154788232D01*
X96775716Y-154821904D01*
X96977747Y-155023934D01*
X97011419Y-155124950D01*
X97011419Y-155192293D01*
%TO.C,C4*%
X122141994Y-124438537D02*
X122141994Y-124505880D01*
X122074650Y-124640567D01*
X122007307Y-124707911D01*
X121872619Y-124775254D01*
X121737932Y-124775254D01*
X121636917Y-124741583D01*
X121468558Y-124640567D01*
X121367543Y-124539552D01*
X121266528Y-124371193D01*
X121232856Y-124270178D01*
X121232856Y-124135491D01*
X121300200Y-124000804D01*
X121367543Y-123933460D01*
X121502230Y-123866117D01*
X121569574Y-123866117D01*
X122344024Y-123428384D02*
X122815429Y-123899789D01*
X121906291Y-123327369D02*
X122243009Y-124000804D01*
X122680742Y-123563071D01*
%TO.C,D4*%
X92089954Y-158564856D02*
X91382848Y-159271963D01*
X91214489Y-159103604D01*
X91147145Y-158968917D01*
X91147145Y-158834230D01*
X91180817Y-158733215D01*
X91281832Y-158564856D01*
X91382848Y-158463841D01*
X91551206Y-158362826D01*
X91652222Y-158329154D01*
X91786909Y-158329154D01*
X91921596Y-158396497D01*
X92089954Y-158564856D01*
X90608397Y-158026108D02*
X91079802Y-157554703D01*
X90507382Y-158463841D02*
X91180817Y-158127123D01*
X90743084Y-157689390D01*
%TO.C,SW1*%
X114072220Y-115560642D02*
X114004877Y-115425955D01*
X113836518Y-115257596D01*
X113735503Y-115223924D01*
X113668159Y-115223924D01*
X113567144Y-115257596D01*
X113499801Y-115324939D01*
X113466129Y-115425955D01*
X113466129Y-115493298D01*
X113499801Y-115594313D01*
X113600816Y-115762672D01*
X113634488Y-115863687D01*
X113634488Y-115931031D01*
X113600816Y-116032046D01*
X113533472Y-116099390D01*
X113432457Y-116133061D01*
X113365114Y-116133061D01*
X113264098Y-116099390D01*
X113095740Y-115931031D01*
X113028396Y-115796344D01*
X112759022Y-115594313D02*
X113297770Y-114718848D01*
X112658007Y-115089237D01*
X113028396Y-114449474D01*
X112152931Y-114988222D01*
X112220274Y-113641352D02*
X112624335Y-114045413D01*
X112422305Y-113843382D02*
X111715198Y-114550489D01*
X111883557Y-114516817D01*
X112018244Y-114516817D01*
X112119259Y-114550489D01*
%TO.C,R15*%
X79998702Y-148915711D02*
X79665369Y-148439521D01*
X79427274Y-148915711D02*
X79427274Y-147915711D01*
X79808226Y-147915711D01*
X79903464Y-147963331D01*
X79951083Y-148010950D01*
X79998702Y-148106188D01*
X79998702Y-148249045D01*
X79951083Y-148344283D01*
X79903464Y-148391902D01*
X79808226Y-148439521D01*
X79427274Y-148439521D01*
X80951083Y-148915711D02*
X80379655Y-148915711D01*
X80665369Y-148915711D02*
X80665369Y-147915711D01*
X80570131Y-148058569D01*
X80474893Y-148153807D01*
X80379655Y-148201426D01*
X81855845Y-147915711D02*
X81379655Y-147915711D01*
X81332036Y-148391902D01*
X81379655Y-148344283D01*
X81474893Y-148296664D01*
X81712988Y-148296664D01*
X81808226Y-148344283D01*
X81855845Y-148391902D01*
X81903464Y-148487140D01*
X81903464Y-148725235D01*
X81855845Y-148820473D01*
X81808226Y-148868092D01*
X81712988Y-148915711D01*
X81474893Y-148915711D01*
X81379655Y-148868092D01*
X81332036Y-148820473D01*
%TO.C,C34*%
X129078373Y-130634138D02*
X129145717Y-130634138D01*
X129280404Y-130701482D01*
X129347747Y-130768825D01*
X129415091Y-130903512D01*
X129415091Y-131038199D01*
X129381419Y-131139214D01*
X129280404Y-131307573D01*
X129179389Y-131408588D01*
X129011030Y-131509604D01*
X128910015Y-131543275D01*
X128775328Y-131543275D01*
X128640641Y-131475932D01*
X128573297Y-131408588D01*
X128505954Y-131273901D01*
X128505954Y-131206558D01*
X128202908Y-131038199D02*
X127765175Y-130600466D01*
X128270251Y-130566795D01*
X128169236Y-130465779D01*
X128135564Y-130364764D01*
X128135564Y-130297420D01*
X128169236Y-130196405D01*
X128337595Y-130028046D01*
X128438610Y-129994375D01*
X128505954Y-129994375D01*
X128606969Y-130028046D01*
X128808999Y-130230077D01*
X128842671Y-130331092D01*
X128842671Y-130398436D01*
X127394786Y-129758672D02*
X127866190Y-129287268D01*
X127293770Y-130196405D02*
X127967205Y-129859688D01*
X127529473Y-129421955D01*
%TO.C,R20*%
X96063221Y-162672810D02*
X95490802Y-162571795D01*
X95659160Y-163076871D02*
X94952054Y-162369764D01*
X95221428Y-162100390D01*
X95322443Y-162066718D01*
X95389786Y-162066718D01*
X95490802Y-162100390D01*
X95591817Y-162201405D01*
X95625489Y-162302421D01*
X95625489Y-162369764D01*
X95591817Y-162470779D01*
X95322443Y-162740153D01*
X95692832Y-161763672D02*
X95692832Y-161696329D01*
X95726504Y-161595314D01*
X95894863Y-161426955D01*
X95995878Y-161393283D01*
X96063221Y-161393283D01*
X96164237Y-161426955D01*
X96231580Y-161494298D01*
X96298924Y-161628985D01*
X96298924Y-162437108D01*
X96736657Y-161999375D01*
X96467283Y-160854535D02*
X96534626Y-160787192D01*
X96635641Y-160753520D01*
X96702985Y-160753520D01*
X96804000Y-160787192D01*
X96972359Y-160888207D01*
X97140718Y-161056566D01*
X97241733Y-161224924D01*
X97275405Y-161325940D01*
X97275405Y-161393283D01*
X97241733Y-161494298D01*
X97174389Y-161561642D01*
X97073374Y-161595314D01*
X97006031Y-161595314D01*
X96905015Y-161561642D01*
X96736657Y-161460627D01*
X96568298Y-161292268D01*
X96467283Y-161123909D01*
X96433611Y-161022894D01*
X96433611Y-160955550D01*
X96467283Y-160854535D01*
%TO.C,C33*%
X83469987Y-169878564D02*
X83537331Y-169878564D01*
X83672018Y-169945908D01*
X83739361Y-170013251D01*
X83806705Y-170147938D01*
X83806705Y-170282625D01*
X83773033Y-170383640D01*
X83672018Y-170551999D01*
X83571003Y-170653014D01*
X83402644Y-170754030D01*
X83301629Y-170787701D01*
X83166942Y-170787701D01*
X83032255Y-170720358D01*
X82964911Y-170653014D01*
X82897568Y-170518327D01*
X82897568Y-170450984D01*
X82594522Y-170282625D02*
X82156789Y-169844892D01*
X82661865Y-169811221D01*
X82560850Y-169710205D01*
X82527178Y-169609190D01*
X82527178Y-169541846D01*
X82560850Y-169440831D01*
X82729209Y-169272472D01*
X82830224Y-169238801D01*
X82897568Y-169238801D01*
X82998583Y-169272472D01*
X83200613Y-169474503D01*
X83234285Y-169575518D01*
X83234285Y-169642862D01*
X81921087Y-169609190D02*
X81483354Y-169171457D01*
X81988430Y-169137785D01*
X81887415Y-169036770D01*
X81853743Y-168935755D01*
X81853743Y-168868411D01*
X81887415Y-168767396D01*
X82055774Y-168599037D01*
X82156789Y-168565366D01*
X82224132Y-168565366D01*
X82325148Y-168599037D01*
X82527178Y-168801068D01*
X82560850Y-168902083D01*
X82560850Y-168969427D01*
%TO.C,D12*%
X116291527Y-124076565D02*
X115584420Y-124783671D01*
X115416061Y-124615313D01*
X115348718Y-124480626D01*
X115348718Y-124345939D01*
X115382390Y-124244923D01*
X115483405Y-124076565D01*
X115584420Y-123975549D01*
X115752779Y-123874534D01*
X115853794Y-123840862D01*
X115988481Y-123840862D01*
X116123168Y-123908206D01*
X116291527Y-124076565D01*
X115214031Y-122999068D02*
X115618092Y-123403129D01*
X115416061Y-123201099D02*
X114708954Y-123908206D01*
X114877313Y-123874534D01*
X115012000Y-123874534D01*
X115113016Y-123908206D01*
X114304893Y-123369458D02*
X114237550Y-123369458D01*
X114136535Y-123335786D01*
X113968176Y-123167427D01*
X113934504Y-123066412D01*
X113934504Y-122999068D01*
X113968176Y-122898053D01*
X114035519Y-122830710D01*
X114170206Y-122763366D01*
X114978328Y-122763366D01*
X114540596Y-122325633D01*
%TO.C,C32*%
X127310606Y-132401905D02*
X127377950Y-132401905D01*
X127512637Y-132469249D01*
X127579980Y-132536592D01*
X127647324Y-132671279D01*
X127647324Y-132805966D01*
X127613652Y-132906981D01*
X127512637Y-133075340D01*
X127411622Y-133176355D01*
X127243263Y-133277371D01*
X127142248Y-133311042D01*
X127007561Y-133311042D01*
X126872874Y-133243699D01*
X126805530Y-133176355D01*
X126738187Y-133041668D01*
X126738187Y-132974325D01*
X126435141Y-132805966D02*
X125997408Y-132368233D01*
X126502484Y-132334562D01*
X126401469Y-132233546D01*
X126367797Y-132132531D01*
X126367797Y-132065187D01*
X126401469Y-131964172D01*
X126569828Y-131795813D01*
X126670843Y-131762142D01*
X126738187Y-131762142D01*
X126839202Y-131795813D01*
X127041232Y-131997844D01*
X127074904Y-132098859D01*
X127074904Y-132166203D01*
X125795377Y-132031516D02*
X125728034Y-132031516D01*
X125627019Y-131997844D01*
X125458660Y-131829485D01*
X125424988Y-131728470D01*
X125424988Y-131661126D01*
X125458660Y-131560111D01*
X125526003Y-131492768D01*
X125660690Y-131425424D01*
X126468812Y-131425424D01*
X126031080Y-130987691D01*
%TO.C,C2*%
X115306628Y-116862391D02*
X115373971Y-116862391D01*
X115508658Y-116929735D01*
X115576002Y-116997079D01*
X115643345Y-117131766D01*
X115643345Y-117266453D01*
X115609674Y-117367468D01*
X115508658Y-117535827D01*
X115407643Y-117636842D01*
X115239284Y-117737857D01*
X115138269Y-117771529D01*
X115003582Y-117771529D01*
X114868895Y-117704185D01*
X114801551Y-117636842D01*
X114734208Y-117502155D01*
X114734208Y-117434811D01*
X114464834Y-117165437D02*
X114397490Y-117165437D01*
X114296475Y-117131766D01*
X114128116Y-116963407D01*
X114094445Y-116862391D01*
X114094445Y-116795048D01*
X114128116Y-116694033D01*
X114195460Y-116626689D01*
X114330147Y-116559346D01*
X115138269Y-116559346D01*
X114700536Y-116121613D01*
%TO.C,J3*%
X86146891Y-141308083D02*
X86651967Y-140803007D01*
X86786654Y-140735663D01*
X86921341Y-140735663D01*
X87056028Y-140803007D01*
X87123371Y-140870350D01*
X85877517Y-141038709D02*
X85439784Y-140600976D01*
X85944860Y-140567304D01*
X85843845Y-140466289D01*
X85810173Y-140365274D01*
X85810173Y-140297930D01*
X85843845Y-140196915D01*
X86012204Y-140028556D01*
X86113219Y-139994885D01*
X86180562Y-139994885D01*
X86281578Y-140028556D01*
X86483608Y-140230587D01*
X86517280Y-140331602D01*
X86517280Y-140398946D01*
%TO.C,C38*%
X53083770Y-163601877D02*
X53131389Y-163649496D01*
X53179008Y-163792353D01*
X53179008Y-163887591D01*
X53131389Y-164030448D01*
X53036151Y-164125686D01*
X52940913Y-164173305D01*
X52750437Y-164220924D01*
X52607580Y-164220924D01*
X52417104Y-164173305D01*
X52321866Y-164125686D01*
X52226628Y-164030448D01*
X52179008Y-163887591D01*
X52179008Y-163792353D01*
X52226628Y-163649496D01*
X52274247Y-163601877D01*
X52179008Y-163268543D02*
X52179008Y-162649496D01*
X52559961Y-162982829D01*
X52559961Y-162839972D01*
X52607580Y-162744734D01*
X52655199Y-162697115D01*
X52750437Y-162649496D01*
X52988532Y-162649496D01*
X53083770Y-162697115D01*
X53131389Y-162744734D01*
X53179008Y-162839972D01*
X53179008Y-163125686D01*
X53131389Y-163220924D01*
X53083770Y-163268543D01*
X52607580Y-162078067D02*
X52559961Y-162173305D01*
X52512342Y-162220924D01*
X52417104Y-162268543D01*
X52369485Y-162268543D01*
X52274247Y-162220924D01*
X52226628Y-162173305D01*
X52179008Y-162078067D01*
X52179008Y-161887591D01*
X52226628Y-161792353D01*
X52274247Y-161744734D01*
X52369485Y-161697115D01*
X52417104Y-161697115D01*
X52512342Y-161744734D01*
X52559961Y-161792353D01*
X52607580Y-161887591D01*
X52607580Y-162078067D01*
X52655199Y-162173305D01*
X52702818Y-162220924D01*
X52798056Y-162268543D01*
X52988532Y-162268543D01*
X53083770Y-162220924D01*
X53131389Y-162173305D01*
X53179008Y-162078067D01*
X53179008Y-161887591D01*
X53131389Y-161792353D01*
X53083770Y-161744734D01*
X52988532Y-161697115D01*
X52798056Y-161697115D01*
X52702818Y-161744734D01*
X52655199Y-161792353D01*
X52607580Y-161887591D01*
%TO.C,C10*%
X89480393Y-160332623D02*
X89547737Y-160332623D01*
X89682424Y-160399967D01*
X89749767Y-160467310D01*
X89817111Y-160601997D01*
X89817111Y-160736684D01*
X89783439Y-160837699D01*
X89682424Y-161006058D01*
X89581409Y-161107073D01*
X89413050Y-161208089D01*
X89312035Y-161241760D01*
X89177348Y-161241760D01*
X89042661Y-161174417D01*
X88975317Y-161107073D01*
X88907974Y-160972386D01*
X88907974Y-160905043D01*
X88874302Y-159591844D02*
X89278363Y-159995905D01*
X89076332Y-159793875D02*
X88369225Y-160500982D01*
X88537584Y-160467310D01*
X88672271Y-160467310D01*
X88773286Y-160500982D01*
X87729462Y-159861218D02*
X87662119Y-159793875D01*
X87628447Y-159692860D01*
X87628447Y-159625516D01*
X87662119Y-159524501D01*
X87763134Y-159356142D01*
X87931493Y-159187783D01*
X88099851Y-159086768D01*
X88200867Y-159053096D01*
X88268210Y-159053096D01*
X88369225Y-159086768D01*
X88436569Y-159154112D01*
X88470241Y-159255127D01*
X88470241Y-159322470D01*
X88436569Y-159423486D01*
X88335554Y-159591844D01*
X88167195Y-159760203D01*
X87998836Y-159861218D01*
X87897821Y-159894890D01*
X87830477Y-159894890D01*
X87729462Y-159861218D01*
%TO.C,J15*%
X96758544Y-145926164D02*
X97263620Y-146431240D01*
X97330963Y-146565927D01*
X97330963Y-146700614D01*
X97263620Y-146835301D01*
X97196276Y-146902645D01*
X98172757Y-145926164D02*
X97768696Y-146330225D01*
X97970727Y-146128195D02*
X97263620Y-145421088D01*
X97297292Y-145589447D01*
X97297292Y-145724134D01*
X97263620Y-145825149D01*
X98105414Y-144579294D02*
X97768696Y-144916012D01*
X98071742Y-145286401D01*
X98071742Y-145219057D01*
X98105414Y-145118042D01*
X98273772Y-144949683D01*
X98374788Y-144916012D01*
X98442131Y-144916012D01*
X98543146Y-144949683D01*
X98711505Y-145118042D01*
X98745177Y-145219057D01*
X98745177Y-145286401D01*
X98711505Y-145387416D01*
X98543146Y-145555775D01*
X98442131Y-145589447D01*
X98374788Y-145589447D01*
X103294230Y-159903308D02*
X104102352Y-159095186D01*
X112239131Y-153291860D02*
X113047253Y-152483738D01*
X113047253Y-153291860D02*
X112239131Y-152483738D01*
%TO.C,R1*%
X94486036Y-158189079D02*
X94385021Y-158761499D01*
X94890097Y-158593140D02*
X94182991Y-159300247D01*
X93913616Y-159030873D01*
X93879945Y-158929858D01*
X93879945Y-158862514D01*
X93913616Y-158761499D01*
X94014632Y-158660484D01*
X94115647Y-158626812D01*
X94182991Y-158626812D01*
X94284006Y-158660484D01*
X94553380Y-158929858D01*
X93812601Y-157515644D02*
X94216662Y-157919705D01*
X94014632Y-157717674D02*
X93307525Y-158424781D01*
X93475884Y-158391110D01*
X93610571Y-158391110D01*
X93711586Y-158424781D01*
%TO.C,J5*%
X66905963Y-147882944D02*
X66905963Y-148597230D01*
X66858344Y-148740087D01*
X66763106Y-148835325D01*
X66620249Y-148882944D01*
X66525011Y-148882944D01*
X67858344Y-147882944D02*
X67382154Y-147882944D01*
X67334535Y-148359135D01*
X67382154Y-148311516D01*
X67477392Y-148263897D01*
X67715487Y-148263897D01*
X67810725Y-148311516D01*
X67858344Y-148359135D01*
X67905963Y-148454373D01*
X67905963Y-148692468D01*
X67858344Y-148787706D01*
X67810725Y-148835325D01*
X67715487Y-148882944D01*
X67477392Y-148882944D01*
X67382154Y-148835325D01*
X67334535Y-148787706D01*
%TO.C,D3*%
X96332595Y-154322215D02*
X95625489Y-155029322D01*
X95457130Y-154860963D01*
X95389786Y-154726276D01*
X95389786Y-154591589D01*
X95423458Y-154490574D01*
X95524473Y-154322215D01*
X95625489Y-154221200D01*
X95793847Y-154120185D01*
X95894863Y-154086513D01*
X96029550Y-154086513D01*
X96164237Y-154153856D01*
X96332595Y-154322215D01*
X94985725Y-154389559D02*
X94547992Y-153951826D01*
X95053069Y-153918154D01*
X94952053Y-153817139D01*
X94918382Y-153716123D01*
X94918382Y-153648780D01*
X94952053Y-153547765D01*
X95120412Y-153379406D01*
X95221427Y-153345734D01*
X95288771Y-153345734D01*
X95389786Y-153379406D01*
X95591817Y-153581436D01*
X95625489Y-153682452D01*
X95625489Y-153749795D01*
%TO.C,C39*%
X122778662Y-92605484D02*
X122731043Y-92653103D01*
X122588186Y-92700722D01*
X122492948Y-92700722D01*
X122350091Y-92653103D01*
X122254853Y-92557865D01*
X122207234Y-92462627D01*
X122159615Y-92272151D01*
X122159615Y-92129294D01*
X122207234Y-91938818D01*
X122254853Y-91843580D01*
X122350091Y-91748342D01*
X122492948Y-91700722D01*
X122588186Y-91700722D01*
X122731043Y-91748342D01*
X122778662Y-91795961D01*
X123111996Y-91700722D02*
X123731043Y-91700722D01*
X123397710Y-92081675D01*
X123540567Y-92081675D01*
X123635805Y-92129294D01*
X123683424Y-92176913D01*
X123731043Y-92272151D01*
X123731043Y-92510246D01*
X123683424Y-92605484D01*
X123635805Y-92653103D01*
X123540567Y-92700722D01*
X123254853Y-92700722D01*
X123159615Y-92653103D01*
X123111996Y-92605484D01*
X124207234Y-92700722D02*
X124397710Y-92700722D01*
X124492948Y-92653103D01*
X124540567Y-92605484D01*
X124635805Y-92462627D01*
X124683424Y-92272151D01*
X124683424Y-91891199D01*
X124635805Y-91795961D01*
X124588186Y-91748342D01*
X124492948Y-91700722D01*
X124302472Y-91700722D01*
X124207234Y-91748342D01*
X124159615Y-91795961D01*
X124111996Y-91891199D01*
X124111996Y-92129294D01*
X124159615Y-92224532D01*
X124207234Y-92272151D01*
X124302472Y-92319770D01*
X124492948Y-92319770D01*
X124588186Y-92272151D01*
X124635805Y-92224532D01*
X124683424Y-92129294D01*
%TO.C,J4*%
X87796807Y-146897595D02*
X88301883Y-147402671D01*
X88369227Y-147537358D01*
X88369227Y-147672045D01*
X88301883Y-147806732D01*
X88234540Y-147874075D01*
X88672273Y-146493534D02*
X89143677Y-146964938D01*
X88234540Y-146392518D02*
X88571257Y-147065953D01*
X89008990Y-146628221D01*
%TO.C,C31*%
X87864150Y-170737194D02*
X87864150Y-170804538D01*
X87796806Y-170939225D01*
X87729463Y-171006568D01*
X87594776Y-171073912D01*
X87460089Y-171073912D01*
X87359074Y-171040240D01*
X87190715Y-170939225D01*
X87089700Y-170838210D01*
X86988684Y-170669851D01*
X86955013Y-170568836D01*
X86955013Y-170434149D01*
X87022356Y-170299462D01*
X87089700Y-170232118D01*
X87224387Y-170164775D01*
X87291730Y-170164775D01*
X87460089Y-169861729D02*
X87897822Y-169423996D01*
X87931493Y-169929072D01*
X88032509Y-169828057D01*
X88133524Y-169794385D01*
X88200868Y-169794385D01*
X88301883Y-169828057D01*
X88470242Y-169996416D01*
X88503913Y-170097431D01*
X88503913Y-170164775D01*
X88470242Y-170265790D01*
X88268211Y-170467820D01*
X88167196Y-170501492D01*
X88099852Y-170501492D01*
X89278364Y-169457668D02*
X88874303Y-169861729D01*
X89076333Y-169659698D02*
X88369226Y-168952591D01*
X88402898Y-169120950D01*
X88402898Y-169255637D01*
X88369226Y-169356652D01*
%TO.C,C30*%
X125960642Y-114879348D02*
X125913023Y-114926967D01*
X125770166Y-114974586D01*
X125674928Y-114974586D01*
X125532071Y-114926967D01*
X125436833Y-114831729D01*
X125389214Y-114736491D01*
X125341595Y-114546015D01*
X125341595Y-114403158D01*
X125389214Y-114212682D01*
X125436833Y-114117444D01*
X125532071Y-114022206D01*
X125674928Y-113974586D01*
X125770166Y-113974586D01*
X125913023Y-114022206D01*
X125960642Y-114069825D01*
X126293976Y-113974586D02*
X126913023Y-113974586D01*
X126579690Y-114355539D01*
X126722547Y-114355539D01*
X126817785Y-114403158D01*
X126865404Y-114450777D01*
X126913023Y-114546015D01*
X126913023Y-114784110D01*
X126865404Y-114879348D01*
X126817785Y-114926967D01*
X126722547Y-114974586D01*
X126436833Y-114974586D01*
X126341595Y-114926967D01*
X126293976Y-114879348D01*
X127532071Y-113974586D02*
X127627309Y-113974586D01*
X127722547Y-114022206D01*
X127770166Y-114069825D01*
X127817785Y-114165063D01*
X127865404Y-114355539D01*
X127865404Y-114593634D01*
X127817785Y-114784110D01*
X127770166Y-114879348D01*
X127722547Y-114926967D01*
X127627309Y-114974586D01*
X127532071Y-114974586D01*
X127436833Y-114926967D01*
X127389214Y-114879348D01*
X127341595Y-114784110D01*
X127293976Y-114593634D01*
X127293976Y-114355539D01*
X127341595Y-114165063D01*
X127389214Y-114069825D01*
X127436833Y-114022206D01*
X127532071Y-113974586D01*
%TO.C,C35*%
X90339023Y-168262321D02*
X90339023Y-168329665D01*
X90271679Y-168464352D01*
X90204336Y-168531695D01*
X90069649Y-168599039D01*
X89934962Y-168599039D01*
X89833947Y-168565367D01*
X89665588Y-168464352D01*
X89564573Y-168363337D01*
X89463557Y-168194978D01*
X89429886Y-168093963D01*
X89429886Y-167959276D01*
X89497229Y-167824589D01*
X89564573Y-167757245D01*
X89699260Y-167689902D01*
X89766603Y-167689902D01*
X89934962Y-167386856D02*
X90372695Y-166949123D01*
X90406366Y-167454199D01*
X90507382Y-167353184D01*
X90608397Y-167319512D01*
X90675741Y-167319512D01*
X90776756Y-167353184D01*
X90945115Y-167521543D01*
X90978786Y-167622558D01*
X90978786Y-167689902D01*
X90945115Y-167790917D01*
X90743084Y-167992947D01*
X90642069Y-168026619D01*
X90574725Y-168026619D01*
X91012458Y-166309360D02*
X90675741Y-166646077D01*
X90978786Y-167016466D01*
X90978786Y-166949123D01*
X91012458Y-166848108D01*
X91180817Y-166679749D01*
X91281832Y-166646077D01*
X91349176Y-166646077D01*
X91450191Y-166679749D01*
X91618550Y-166848108D01*
X91652221Y-166949123D01*
X91652221Y-167016466D01*
X91618550Y-167117482D01*
X91450191Y-167285840D01*
X91349176Y-167319512D01*
X91281832Y-167319512D01*
%TO.C,R14*%
X112560192Y-111983082D02*
X112084002Y-112316415D01*
X112560192Y-112554510D02*
X111560192Y-112554510D01*
X111560192Y-112173558D01*
X111607812Y-112078320D01*
X111655431Y-112030701D01*
X111750669Y-111983082D01*
X111893526Y-111983082D01*
X111988764Y-112030701D01*
X112036383Y-112078320D01*
X112084002Y-112173558D01*
X112084002Y-112554510D01*
X112560192Y-111030701D02*
X112560192Y-111602129D01*
X112560192Y-111316415D02*
X111560192Y-111316415D01*
X111703050Y-111411653D01*
X111798288Y-111506891D01*
X111845907Y-111602129D01*
X111893526Y-110173558D02*
X112560192Y-110173558D01*
X111512573Y-110411653D02*
X112226859Y-110649748D01*
X112226859Y-110030701D01*
%TO.C,C1*%
X74988294Y-165954113D02*
X75035913Y-166001732D01*
X75083532Y-166144589D01*
X75083532Y-166239827D01*
X75035913Y-166382685D01*
X74940675Y-166477923D01*
X74845437Y-166525542D01*
X74654961Y-166573161D01*
X74512104Y-166573161D01*
X74321628Y-166525542D01*
X74226390Y-166477923D01*
X74131152Y-166382685D01*
X74083532Y-166239827D01*
X74083532Y-166144589D01*
X74131152Y-166001732D01*
X74178771Y-165954113D01*
X75083532Y-165001732D02*
X75083532Y-165573161D01*
X75083532Y-165287447D02*
X74083532Y-165287447D01*
X74226390Y-165382685D01*
X74321628Y-165477923D01*
X74369247Y-165573161D01*
%TO.C,C28*%
X77816721Y-166430304D02*
X77864340Y-166477923D01*
X77911959Y-166620780D01*
X77911959Y-166716018D01*
X77864340Y-166858875D01*
X77769102Y-166954113D01*
X77673864Y-167001732D01*
X77483388Y-167049351D01*
X77340531Y-167049351D01*
X77150055Y-167001732D01*
X77054817Y-166954113D01*
X76959579Y-166858875D01*
X76911959Y-166716018D01*
X76911959Y-166620780D01*
X76959579Y-166477923D01*
X77007198Y-166430304D01*
X77007198Y-166049351D02*
X76959579Y-166001732D01*
X76911959Y-165906494D01*
X76911959Y-165668399D01*
X76959579Y-165573161D01*
X77007198Y-165525542D01*
X77102436Y-165477923D01*
X77197674Y-165477923D01*
X77340531Y-165525542D01*
X77911959Y-166096970D01*
X77911959Y-165477923D01*
X77340531Y-164906494D02*
X77292912Y-165001732D01*
X77245293Y-165049351D01*
X77150055Y-165096970D01*
X77102436Y-165096970D01*
X77007198Y-165049351D01*
X76959579Y-165001732D01*
X76911959Y-164906494D01*
X76911959Y-164716018D01*
X76959579Y-164620780D01*
X77007198Y-164573161D01*
X77102436Y-164525542D01*
X77150055Y-164525542D01*
X77245293Y-164573161D01*
X77292912Y-164620780D01*
X77340531Y-164716018D01*
X77340531Y-164906494D01*
X77388150Y-165001732D01*
X77435769Y-165049351D01*
X77531007Y-165096970D01*
X77721483Y-165096970D01*
X77816721Y-165049351D01*
X77864340Y-165001732D01*
X77911959Y-164906494D01*
X77911959Y-164716018D01*
X77864340Y-164620780D01*
X77816721Y-164573161D01*
X77721483Y-164525542D01*
X77531007Y-164525542D01*
X77435769Y-164573161D01*
X77388150Y-164620780D01*
X77340531Y-164716018D01*
%TO.C,C27*%
X125960642Y-117707775D02*
X125913023Y-117755394D01*
X125770166Y-117803013D01*
X125674928Y-117803013D01*
X125532071Y-117755394D01*
X125436833Y-117660156D01*
X125389214Y-117564918D01*
X125341595Y-117374442D01*
X125341595Y-117231585D01*
X125389214Y-117041109D01*
X125436833Y-116945871D01*
X125532071Y-116850633D01*
X125674928Y-116803013D01*
X125770166Y-116803013D01*
X125913023Y-116850633D01*
X125960642Y-116898252D01*
X126341595Y-116898252D02*
X126389214Y-116850633D01*
X126484452Y-116803013D01*
X126722547Y-116803013D01*
X126817785Y-116850633D01*
X126865404Y-116898252D01*
X126913023Y-116993490D01*
X126913023Y-117088728D01*
X126865404Y-117231585D01*
X126293976Y-117803013D01*
X126913023Y-117803013D01*
X127246357Y-116803013D02*
X127913023Y-116803013D01*
X127484452Y-117803013D01*
%TO.C,C29*%
X125960642Y-112050920D02*
X125913023Y-112098539D01*
X125770166Y-112146158D01*
X125674928Y-112146158D01*
X125532071Y-112098539D01*
X125436833Y-112003301D01*
X125389214Y-111908063D01*
X125341595Y-111717587D01*
X125341595Y-111574730D01*
X125389214Y-111384254D01*
X125436833Y-111289016D01*
X125532071Y-111193778D01*
X125674928Y-111146158D01*
X125770166Y-111146158D01*
X125913023Y-111193778D01*
X125960642Y-111241397D01*
X126341595Y-111241397D02*
X126389214Y-111193778D01*
X126484452Y-111146158D01*
X126722547Y-111146158D01*
X126817785Y-111193778D01*
X126865404Y-111241397D01*
X126913023Y-111336635D01*
X126913023Y-111431873D01*
X126865404Y-111574730D01*
X126293976Y-112146158D01*
X126913023Y-112146158D01*
X127389214Y-112146158D02*
X127579690Y-112146158D01*
X127674928Y-112098539D01*
X127722547Y-112050920D01*
X127817785Y-111908063D01*
X127865404Y-111717587D01*
X127865404Y-111336635D01*
X127817785Y-111241397D01*
X127770166Y-111193778D01*
X127674928Y-111146158D01*
X127484452Y-111146158D01*
X127389214Y-111193778D01*
X127341595Y-111241397D01*
X127293976Y-111336635D01*
X127293976Y-111574730D01*
X127341595Y-111669968D01*
X127389214Y-111717587D01*
X127484452Y-111765206D01*
X127674928Y-111765206D01*
X127770166Y-111717587D01*
X127817785Y-111669968D01*
X127865404Y-111574730D01*
%TO.C,J13*%
X60607920Y-158932720D02*
X60607920Y-159647006D01*
X60560301Y-159789863D01*
X60465063Y-159885101D01*
X60322205Y-159932720D01*
X60226967Y-159932720D01*
X61607920Y-159932720D02*
X61036491Y-159932720D01*
X61322205Y-159932720D02*
X61322205Y-158932720D01*
X61226967Y-159075578D01*
X61131729Y-159170816D01*
X61036491Y-159218435D01*
X61941253Y-158932720D02*
X62560301Y-158932720D01*
X62226967Y-159313673D01*
X62369824Y-159313673D01*
X62465063Y-159361292D01*
X62512682Y-159408911D01*
X62560301Y-159504149D01*
X62560301Y-159742244D01*
X62512682Y-159837482D01*
X62465063Y-159885101D01*
X62369824Y-159932720D01*
X62084110Y-159932720D01*
X61988872Y-159885101D01*
X61941253Y-159837482D01*
X57679348Y-162737482D02*
X57631729Y-162785101D01*
X57488872Y-162832720D01*
X57393634Y-162832720D01*
X57250777Y-162785101D01*
X57155539Y-162689863D01*
X57107920Y-162594625D01*
X57060301Y-162404149D01*
X57060301Y-162261292D01*
X57107920Y-162070816D01*
X57155539Y-161975578D01*
X57250777Y-161880340D01*
X57393634Y-161832720D01*
X57488872Y-161832720D01*
X57631729Y-161880340D01*
X57679348Y-161927959D01*
X58250777Y-162832720D02*
X58155539Y-162785101D01*
X58107920Y-162737482D01*
X58060301Y-162642244D01*
X58060301Y-162356530D01*
X58107920Y-162261292D01*
X58155539Y-162213673D01*
X58250777Y-162166054D01*
X58393634Y-162166054D01*
X58488872Y-162213673D01*
X58536491Y-162261292D01*
X58584110Y-162356530D01*
X58584110Y-162642244D01*
X58536491Y-162737482D01*
X58488872Y-162785101D01*
X58393634Y-162832720D01*
X58250777Y-162832720D01*
X59012682Y-162166054D02*
X59012682Y-162832720D01*
X59012682Y-162261292D02*
X59060301Y-162213673D01*
X59155539Y-162166054D01*
X59298396Y-162166054D01*
X59393634Y-162213673D01*
X59441253Y-162308911D01*
X59441253Y-162832720D01*
X59917444Y-162166054D02*
X59917444Y-162832720D01*
X59917444Y-162261292D02*
X59965063Y-162213673D01*
X60060301Y-162166054D01*
X60203158Y-162166054D01*
X60298396Y-162213673D01*
X60346015Y-162308911D01*
X60346015Y-162832720D01*
X60584110Y-162927959D02*
X61346015Y-162927959D01*
X61774586Y-161832720D02*
X61869824Y-161832720D01*
X61965063Y-161880340D01*
X62012682Y-161927959D01*
X62060301Y-162023197D01*
X62107920Y-162213673D01*
X62107920Y-162451768D01*
X62060301Y-162642244D01*
X62012682Y-162737482D01*
X61965063Y-162785101D01*
X61869824Y-162832720D01*
X61774586Y-162832720D01*
X61679348Y-162785101D01*
X61631729Y-162737482D01*
X61584110Y-162642244D01*
X61536491Y-162451768D01*
X61536491Y-162213673D01*
X61584110Y-162023197D01*
X61631729Y-161927959D01*
X61679348Y-161880340D01*
X61774586Y-161832720D01*
X63060301Y-162832720D02*
X62488872Y-162832720D01*
X62774586Y-162832720D02*
X62774586Y-161832720D01*
X62679348Y-161975578D01*
X62584110Y-162070816D01*
X62488872Y-162118435D01*
X63393634Y-162832720D02*
X63917444Y-162166054D01*
X63393634Y-162166054D02*
X63917444Y-162832720D01*
X64488872Y-161832720D02*
X64584110Y-161832720D01*
X64679348Y-161880340D01*
X64726967Y-161927959D01*
X64774586Y-162023197D01*
X64822205Y-162213673D01*
X64822205Y-162451768D01*
X64774586Y-162642244D01*
X64726967Y-162737482D01*
X64679348Y-162785101D01*
X64584110Y-162832720D01*
X64488872Y-162832720D01*
X64393634Y-162785101D01*
X64346015Y-162737482D01*
X64298396Y-162642244D01*
X64250777Y-162451768D01*
X64250777Y-162213673D01*
X64298396Y-162023197D01*
X64346015Y-161927959D01*
X64393634Y-161880340D01*
X64488872Y-161832720D01*
X65726967Y-161832720D02*
X65250777Y-161832720D01*
X65203158Y-162308911D01*
X65250777Y-162261292D01*
X65346015Y-162213673D01*
X65584110Y-162213673D01*
X65679348Y-162261292D01*
X65726967Y-162308911D01*
X65774586Y-162404149D01*
X65774586Y-162642244D01*
X65726967Y-162737482D01*
X65679348Y-162785101D01*
X65584110Y-162832720D01*
X65346015Y-162832720D01*
X65250777Y-162785101D01*
X65203158Y-162737482D01*
X63317444Y-163632720D02*
X63317444Y-163870816D01*
X63079348Y-163775578D02*
X63317444Y-163870816D01*
X63555539Y-163775578D01*
X63174586Y-164061292D02*
X63317444Y-163870816D01*
X63460301Y-164061292D01*
%TO.C,SW2*%
X86643549Y-160256862D02*
X86576206Y-160122175D01*
X86407847Y-159953816D01*
X86306832Y-159920144D01*
X86239488Y-159920144D01*
X86138473Y-159953816D01*
X86071130Y-160021159D01*
X86037458Y-160122175D01*
X86037458Y-160189518D01*
X86071130Y-160290533D01*
X86172145Y-160458892D01*
X86205817Y-160559907D01*
X86205817Y-160627251D01*
X86172145Y-160728266D01*
X86104801Y-160795610D01*
X86003786Y-160829281D01*
X85936443Y-160829281D01*
X85835427Y-160795610D01*
X85667069Y-160627251D01*
X85599725Y-160492564D01*
X85330351Y-160290533D02*
X85869099Y-159415068D01*
X85229336Y-159785457D01*
X85599725Y-159145694D01*
X84724260Y-159684442D01*
X84555901Y-159381396D02*
X84488557Y-159381396D01*
X84387542Y-159347724D01*
X84219183Y-159179366D01*
X84185512Y-159078350D01*
X84185512Y-159011007D01*
X84219183Y-158909992D01*
X84286527Y-158842648D01*
X84421214Y-158775305D01*
X85229336Y-158775305D01*
X84791603Y-158337572D01*
D13*
%TO.C,U2*%
X114214990Y-120037638D02*
X116138320Y-118114308D01*
X117552534Y-123375182D02*
X116626224Y-122448872D01*
X119475864Y-121451852D02*
X119313230Y-121289217D01*
X116138320Y-118114308D02*
X116300955Y-118276942D01*
X115141300Y-120963948D02*
X114214990Y-120037638D01*
X119475864Y-121451852D02*
X117552534Y-123375182D01*
X120119331Y-120483116D02*
X119313230Y-121289217D01*
%TO.C,R17*%
X119702310Y-117552330D02*
X120037843Y-117887863D01*
X120441237Y-116813403D02*
X120776770Y-117148936D01*
%TO.C,R16*%
X114752562Y-112602582D02*
X115088095Y-112938115D01*
X115491489Y-111863655D02*
X115827022Y-112199188D01*
%TO.C,D15*%
X121144636Y-119295176D02*
X122760375Y-120910915D01*
X122184083Y-118255729D02*
X121144636Y-119295176D01*
X123799822Y-119871468D02*
X122184083Y-118255729D01*
%TO.C,D14*%
X116194889Y-114345429D02*
X117810628Y-115961168D01*
X117234336Y-113305982D02*
X116194889Y-114345429D01*
X118850075Y-114921721D02*
X117234336Y-113305982D01*
%TO.C,J2*%
X106928255Y-120408869D02*
X106716123Y-120621001D01*
X101518888Y-124262601D02*
X101731020Y-124050469D01*
X105938305Y-119843184D02*
X105726173Y-120055316D01*
X102827036Y-125570748D02*
X103534142Y-126277855D01*
X106716123Y-120621001D02*
X105938305Y-119843184D01*
X105726173Y-120055316D02*
X105407975Y-119737118D01*
X102579548Y-123201941D02*
X102367416Y-122989809D01*
X103534142Y-126277855D02*
X107953560Y-121858438D01*
X104347315Y-121434174D02*
X104135183Y-121222042D01*
X102296705Y-125040418D02*
X101518888Y-124262601D01*
X103534142Y-127140526D02*
X104884716Y-125789952D01*
X104135183Y-121222042D02*
X104665513Y-120691712D01*
X102183568Y-125789952D02*
X103534142Y-127140526D01*
X102614903Y-125782881D02*
X102827036Y-125570748D01*
X101731020Y-124050469D02*
X102579548Y-123201941D01*
X108377824Y-121858438D02*
X105832239Y-119312853D01*
X103109878Y-122671611D02*
X104347315Y-121434174D01*
X100988558Y-124156535D02*
X103534142Y-126702119D01*
X102367416Y-122989809D02*
X102897746Y-122459479D01*
X107953560Y-121858438D02*
X107246453Y-121151331D01*
X102897746Y-122459479D02*
X103109878Y-122671611D01*
X104665513Y-120691712D02*
X104877645Y-120903844D01*
X104877645Y-120903844D02*
X105726173Y-120055316D01*
X107246453Y-121151331D02*
X107458585Y-120939199D01*
X102084573Y-125252550D02*
X102296705Y-125040418D01*
X101731020Y-124050469D02*
X101412822Y-123732271D01*
X103534142Y-126702119D02*
X108377824Y-121858438D01*
X105832239Y-119312853D02*
X100988558Y-124156535D01*
%TO.C,R5*%
X110863475Y-118612990D02*
X111199008Y-118948523D01*
X111602402Y-117874063D02*
X111937935Y-118209596D01*
%TO.C,R2*%
X92460678Y-154657415D02*
X92125145Y-154321882D01*
X93199605Y-153918488D02*
X92864072Y-153582955D01*
%TO.C,D2*%
X91907539Y-152325902D02*
X90291800Y-150710163D01*
X89252353Y-151749610D02*
X90868092Y-153365349D01*
X90868092Y-153365349D02*
X91907539Y-152325902D01*
%TO.C,SW4*%
X78449528Y-154473739D02*
X75338259Y-157585008D01*
X76469629Y-158716379D02*
X76398919Y-158645669D01*
X79580899Y-155605109D02*
X79510189Y-155534399D01*
X77530290Y-159777039D02*
X80641559Y-156665770D01*
%TO.C,C37*%
X126109411Y-125921652D02*
X125103549Y-124915790D01*
X127396345Y-124634718D02*
X126390483Y-123628856D01*
%TO.C,R26*%
X123571609Y-133796340D02*
X123868937Y-133499012D01*
X120764395Y-130989126D02*
X121061723Y-130691798D01*
%TO.C,C26*%
X81198006Y-170741340D02*
X81198006Y-169318836D01*
X79378006Y-170741340D02*
X79378006Y-169318836D01*
%TO.C,SW5*%
X73994756Y-156241505D02*
X73924046Y-156170795D01*
X75974655Y-151998865D02*
X72863386Y-155110134D01*
X77106026Y-153130235D02*
X77035316Y-153059525D01*
X75055417Y-157302165D02*
X78166686Y-154190896D01*
%TO.C,D13*%
X111556268Y-120709390D02*
X110516821Y-119669943D01*
X110516821Y-119669943D02*
X108901082Y-121285682D01*
X109940529Y-122325129D02*
X111556268Y-120709390D01*
%TO.C,J12*%
X125982306Y-95358635D02*
X121352346Y-95358635D01*
X125982306Y-101863584D02*
X125982306Y-101603665D01*
X121352346Y-106108613D02*
X125982306Y-106108613D01*
X124922306Y-93580635D02*
X126192306Y-93580635D01*
X125557306Y-95104635D02*
X124922306Y-93580635D01*
X125982306Y-106108613D02*
X125982306Y-103603664D01*
X126192306Y-93580635D02*
X125557306Y-95104635D01*
X125982306Y-97863584D02*
X125982306Y-95358635D01*
X125982306Y-99863585D02*
X125982306Y-99603664D01*
X118032306Y-96817642D02*
X118032306Y-104649606D01*
%TO.C,J14*%
X111418382Y-121547312D02*
X112316408Y-122445337D01*
X108295041Y-127941628D02*
X108575813Y-128222400D01*
X111934570Y-124396952D02*
X112167915Y-124630297D01*
X110520356Y-122445337D02*
X111418382Y-121547312D01*
X117032810Y-132012492D02*
X116495409Y-132549893D01*
X114289236Y-126270785D02*
X118531876Y-130513426D01*
X114586220Y-125973800D02*
X118828861Y-130216441D01*
X118291460Y-130753842D02*
X114048819Y-126511201D01*
X110091092Y-126145577D02*
X110371864Y-126426349D01*
X114699357Y-134345945D02*
X110456717Y-130103304D01*
X110994118Y-129565903D02*
X115236759Y-133808543D01*
X109742539Y-127055674D02*
X111623443Y-128936578D01*
X111538590Y-125259622D02*
X113419494Y-127140526D01*
X112790169Y-127769851D02*
X117032810Y-132012492D01*
X108832442Y-127404227D02*
X109113214Y-127684999D01*
X114543794Y-126016227D02*
X118786435Y-130258867D01*
X114204383Y-126355638D02*
X118447023Y-130598279D01*
X115257972Y-125302049D02*
X113377068Y-123421145D01*
X114119530Y-126440491D02*
X118362171Y-130683131D01*
X118828861Y-130216441D02*
X118291460Y-130753842D01*
X107904061Y-128894151D02*
X109784965Y-130775055D01*
X114374088Y-126185932D02*
X118616729Y-130428573D01*
X109784965Y-130775055D02*
X115257972Y-125302049D01*
X116495409Y-132549893D02*
X112252768Y-128307253D01*
X112471971Y-123859551D02*
X112705316Y-124092896D01*
X114458941Y-126101079D02*
X118701582Y-130343720D01*
X110628494Y-125608176D02*
X110909265Y-125888947D01*
X115236759Y-133808543D02*
X114699357Y-134345945D01*
X113377068Y-123421145D02*
X107904061Y-128894151D01*
%TO.C,D1*%
X90465041Y-153768400D02*
X88849302Y-152152661D01*
X89425594Y-154807847D02*
X90465041Y-153768400D01*
X87809855Y-153192108D02*
X89425594Y-154807847D01*
%TO.C,D5*%
X87868191Y-146518787D02*
X86828744Y-145479340D01*
X86828744Y-145479340D02*
X85213005Y-147095079D01*
X86252452Y-148134526D02*
X87868191Y-146518787D01*
%TO.C,C36*%
X129164112Y-122866951D02*
X128158250Y-121861089D01*
X127877178Y-124153885D02*
X126871316Y-123148023D01*
%TO.C,J11*%
X114890278Y-137952189D02*
G75*
G03*
X113320500Y-136382411I-784889J784889D01*
G01*
X105330193Y-144372718D02*
G75*
G03*
X106899970Y-145942495I784889J-784888D01*
G01*
X111418383Y-135314680D02*
X112903307Y-136799604D01*
X114473084Y-138369381D02*
X117937907Y-141834205D01*
X110781987Y-148990125D02*
X117937907Y-141834205D01*
X114473084Y-138369381D02*
X114890277Y-137952188D01*
X112903307Y-136799604D02*
X113320500Y-136382411D01*
X104262462Y-142470601D02*
X111418383Y-135314680D01*
X106899970Y-145942495D02*
X107317163Y-145525302D01*
X105330193Y-144372718D02*
X105747386Y-143955525D01*
X104262462Y-142470601D02*
X105747386Y-143955525D01*
X107317163Y-145525302D02*
X110781987Y-148990125D01*
%TO.C,J6*%
X106515171Y-118161545D02*
X106065171Y-118161545D01*
X106215171Y-109961545D02*
X106515171Y-109961545D01*
X107615171Y-108461545D02*
X106515171Y-108461545D01*
X106515171Y-108761545D02*
X106065171Y-108761545D01*
X106515171Y-116211545D02*
X106515171Y-110711545D01*
X109365171Y-108461545D02*
X108365171Y-108461545D01*
X108365171Y-118761545D02*
X108365171Y-118461545D01*
X108365171Y-108461545D02*
X108365171Y-108161545D01*
X106065171Y-118761545D02*
X109665171Y-118761545D01*
X107615171Y-118761545D02*
X107615171Y-118461545D01*
X109975171Y-119071545D02*
X109975171Y-117161545D01*
X106515171Y-118461545D02*
X106515171Y-118161545D01*
X106515171Y-116961545D02*
X106215171Y-116961545D01*
X106215171Y-110711545D02*
X106215171Y-109961545D01*
X109665171Y-118761545D02*
X109665171Y-108161545D01*
X109665171Y-108161545D02*
X106065171Y-108161545D01*
X106515171Y-110711545D02*
X106215171Y-110711545D01*
X106515171Y-108461545D02*
X106515171Y-108761545D01*
X109365171Y-118461545D02*
X109365171Y-108461545D01*
X107615171Y-108161545D02*
X107615171Y-108461545D01*
X106215171Y-116961545D02*
X106215171Y-116211545D01*
X107615171Y-118461545D02*
X106515171Y-118461545D01*
X106065171Y-108161545D02*
X106065171Y-118761545D01*
X108065171Y-119071545D02*
X109975171Y-119071545D01*
X108365171Y-118461545D02*
X109365171Y-118461545D01*
X106515171Y-109961545D02*
X106515171Y-108761545D01*
X106215171Y-116211545D02*
X106515171Y-116211545D01*
X106515171Y-118161545D02*
X106515171Y-116961545D01*
%TO.C,C3*%
X72712725Y-170802127D02*
X72712725Y-169379623D01*
X70892725Y-170802127D02*
X70892725Y-169379623D01*
%TO.C,C25*%
X130850286Y-121089060D02*
X129427782Y-121089060D01*
X130850286Y-119269060D02*
X129427782Y-119269060D01*
%TO.C,R4*%
X90371178Y-156746915D02*
X90035645Y-156411382D01*
X89632251Y-157485842D02*
X89296718Y-157150309D01*
%TO.C,SW3*%
X82055773Y-158079983D02*
X81985063Y-158009273D01*
X80005164Y-162251913D02*
X83116433Y-159140644D01*
X80924402Y-156948613D02*
X77813133Y-160059882D01*
X78944503Y-161191253D02*
X78873793Y-161120543D01*
%TO.C,R3*%
X94613819Y-152504275D02*
X94278286Y-152168742D01*
X93874892Y-153243202D02*
X93539359Y-152907669D01*
%TO.C,C4*%
X120733629Y-123800332D02*
X121739491Y-122794470D01*
X119446695Y-122513398D02*
X120452557Y-121507536D01*
%TO.C,D4*%
X88039664Y-156193776D02*
X89079111Y-155154329D01*
X86423925Y-154578037D02*
X88039664Y-156193776D01*
X89079111Y-155154329D02*
X87463372Y-153538590D01*
%TO.C,SW1*%
X111223928Y-116396039D02*
X111294638Y-116466749D01*
X113274537Y-112224109D02*
X110163268Y-115335378D01*
X114335198Y-113284769D02*
X114405908Y-113355479D01*
X112355299Y-117527409D02*
X115466568Y-114416140D01*
%TO.C,R15*%
X76282624Y-150753598D02*
X75808108Y-150753598D01*
X76282624Y-149708598D02*
X75808108Y-149708598D01*
%TO.C,C34*%
X125628578Y-126402485D02*
X124622716Y-125396623D01*
X124341644Y-127689419D02*
X123335782Y-126683557D01*
%TO.C,R20*%
X93861093Y-163506856D02*
X93563765Y-163804184D01*
X91053879Y-160699642D02*
X90756551Y-160996970D01*
%TO.C,C33*%
X82975898Y-169055165D02*
X81970036Y-168049303D01*
X84262832Y-167768231D02*
X83256970Y-166762369D01*
%TO.C,D12*%
X114253881Y-121639235D02*
X112638142Y-120023496D01*
X112638142Y-120023496D02*
X111598695Y-121062943D01*
X111598695Y-121062943D02*
X113214434Y-122678682D01*
%TO.C,C32*%
X122573877Y-129457186D02*
X121568015Y-128451324D01*
X123860811Y-128170252D02*
X122854949Y-127164390D01*
%TO.C,C2*%
X113789841Y-116856543D02*
X114795703Y-115850681D01*
X115076775Y-118143477D02*
X116082637Y-117137615D01*
%TO.C,J3*%
X83363921Y-146235944D02*
X82515393Y-147084472D01*
X86510546Y-143089319D02*
X86828744Y-143407517D01*
X85874150Y-144149979D02*
X85343820Y-144680309D01*
X82303261Y-147296604D02*
X82515393Y-147084472D01*
X86156993Y-141887238D02*
X85944861Y-142099370D01*
X85414530Y-141569040D02*
X84707424Y-140861933D01*
X85944861Y-142099370D02*
X86722678Y-142877187D01*
X85662018Y-143937847D02*
X85874150Y-144149979D01*
X81525443Y-146518787D02*
X82303261Y-147296604D01*
X84106383Y-145917746D02*
X83576053Y-146448076D01*
X86722678Y-142877187D02*
X86510546Y-143089319D01*
X86057998Y-141349836D02*
X84707424Y-139999262D01*
X81313311Y-146730919D02*
X81525443Y-146518787D01*
X80288006Y-145281350D02*
X80995113Y-145988457D01*
X85131688Y-144468177D02*
X83894251Y-145705614D01*
X83576053Y-146448076D02*
X83363921Y-146235944D01*
X85626663Y-141356907D02*
X85414530Y-141569040D01*
X84707424Y-140861933D02*
X80288006Y-145281350D01*
X87253008Y-142983253D02*
X84707424Y-140437669D01*
X84707424Y-140437669D02*
X79863742Y-145281350D01*
X82409327Y-147826935D02*
X87253008Y-142983253D01*
X85343820Y-144680309D02*
X85131688Y-144468177D01*
X80995113Y-145988457D02*
X80782981Y-146200589D01*
X79863742Y-145281350D02*
X82409327Y-147826935D01*
X84707424Y-139999262D02*
X83356850Y-141349836D01*
X82515393Y-147084472D02*
X82833591Y-147402670D01*
X86510546Y-143089319D02*
X85662018Y-143937847D01*
X83894251Y-145705614D02*
X84106383Y-145917746D01*
%TO.C,C38*%
X51806628Y-162818440D02*
X51806628Y-163099600D01*
X50786628Y-162818440D02*
X50786628Y-163099600D01*
%TO.C,C10*%
X89566132Y-162464931D02*
X88560270Y-161459069D01*
X88279198Y-163751865D02*
X87273336Y-162746003D01*
%TO.C,J15*%
X99330392Y-154509094D02*
X100779961Y-155958663D01*
X99330392Y-154509094D02*
X99705159Y-154134327D01*
X101854764Y-158023415D02*
X110000634Y-149877545D01*
X106486313Y-147353173D02*
X107935882Y-148802742D01*
X95462518Y-149891687D02*
X99705159Y-154134327D01*
X95462518Y-149891687D02*
X101847692Y-143506513D01*
X101868906Y-143485299D02*
X106111546Y-147727940D01*
X106111546Y-147727940D02*
X106486313Y-147353173D01*
X100284986Y-156453638D02*
X100779961Y-155958663D01*
X107935882Y-148802742D02*
X108430857Y-148307768D01*
X100362768Y-156375856D02*
G75*
G03*
X101801664Y-158057613I784889J-784888D01*
G01*
X109922852Y-149955326D02*
G75*
G03*
X108353075Y-148385549I-784889J784888D01*
G01*
%TO.C,R1*%
X91018180Y-156099913D02*
X90682647Y-155764380D01*
X91757107Y-155360986D02*
X91421574Y-155025453D01*
%TO.C,J5*%
X68484958Y-147006224D02*
X68784958Y-147006224D01*
X77284958Y-145906224D02*
X78484958Y-145906224D01*
X68784958Y-145906224D02*
X69084958Y-145906224D01*
X71034958Y-145606224D02*
X71034958Y-145906224D01*
X68784958Y-147006224D02*
X68784958Y-145906224D01*
X79084958Y-147006224D02*
X78784958Y-147006224D01*
X78784958Y-145906224D02*
X78484958Y-145906224D01*
X68174958Y-149366224D02*
X70084958Y-149366224D01*
X68174958Y-147456224D02*
X68174958Y-149366224D01*
X68484958Y-149056224D02*
X79084958Y-149056224D01*
X78784958Y-147756224D02*
X79084958Y-147756224D01*
X78484958Y-145906224D02*
X78484958Y-145456224D01*
X68784958Y-148756224D02*
X78784958Y-148756224D01*
X71034958Y-145906224D02*
X76534958Y-145906224D01*
X78784958Y-148756224D02*
X78784958Y-147756224D01*
X68484958Y-145456224D02*
X68484958Y-149056224D01*
X70284958Y-145606224D02*
X71034958Y-145606224D01*
X69084958Y-145906224D02*
X69084958Y-145456224D01*
X76534958Y-145906224D02*
X76534958Y-145606224D01*
X70284958Y-145906224D02*
X70284958Y-145606224D01*
X68784958Y-147756224D02*
X68784958Y-148756224D01*
X79084958Y-145456224D02*
X68484958Y-145456224D01*
X68484958Y-147756224D02*
X68784958Y-147756224D01*
X76534958Y-145606224D02*
X77284958Y-145606224D01*
X77284958Y-145606224D02*
X77284958Y-145906224D01*
X79084958Y-149056224D02*
X79084958Y-145456224D01*
X78784958Y-147006224D02*
X78784958Y-145906224D01*
X69084958Y-145906224D02*
X70284958Y-145906224D01*
%TO.C,D3*%
X93321752Y-150911688D02*
X91706013Y-149295949D01*
X92282305Y-151951135D02*
X93321752Y-150911688D01*
X90666566Y-150335396D02*
X92282305Y-151951135D01*
%TO.C,C39*%
X123280940Y-91344128D02*
X123562100Y-91344128D01*
X123280940Y-90324128D02*
X123562100Y-90324128D01*
D14*
%TO.C,J4*%
X91460294Y-147968357D02*
X84035673Y-155392978D01*
X91460294Y-147968357D02*
X88985420Y-145493483D01*
X81560799Y-152918104D02*
X88985420Y-145493483D01*
X84035673Y-155392978D02*
X81560799Y-152918104D01*
D13*
%TO.C,C31*%
X86030598Y-166000465D02*
X85024736Y-164994603D01*
X84743664Y-167287399D02*
X83737802Y-166281537D01*
%TO.C,C30*%
X130850286Y-115432206D02*
X129427782Y-115432206D01*
X130850286Y-113612206D02*
X129427782Y-113612206D01*
%TO.C,C35*%
X86511431Y-165519632D02*
X85505569Y-164513770D01*
X87798365Y-164232698D02*
X86792503Y-163226836D01*
%TO.C,R14*%
X110171098Y-111102967D02*
X110171098Y-111577483D01*
X111216098Y-111102967D02*
X111216098Y-111577483D01*
%TO.C,C1*%
X73721152Y-170741340D02*
X73721152Y-169318836D01*
X75541152Y-170741340D02*
X75541152Y-169318836D01*
%TO.C,C28*%
X76549579Y-170741340D02*
X76549579Y-169318836D01*
X78369579Y-170741340D02*
X78369579Y-169318836D01*
%TO.C,C27*%
X130850286Y-116440633D02*
X129427782Y-116440633D01*
X130850286Y-118260633D02*
X129427782Y-118260633D01*
%TO.C,C29*%
X130850286Y-112603778D02*
X129427782Y-112603778D01*
X130850286Y-110783778D02*
X129427782Y-110783778D01*
%TO.C,J13*%
X60187484Y-165505340D02*
X60447403Y-165505340D01*
X68470433Y-165715340D02*
X66946433Y-165080340D01*
X55942455Y-160875380D02*
X55942455Y-165505340D01*
X55942455Y-165505340D02*
X58447404Y-165505340D01*
X66946433Y-165080340D02*
X68470433Y-164445340D01*
X62187483Y-165505340D02*
X62447404Y-165505340D01*
X68470433Y-164445340D02*
X68470433Y-165715340D01*
X65233426Y-157555340D02*
X57401462Y-157555340D01*
X64187484Y-165505340D02*
X66692433Y-165505340D01*
X66692433Y-165505340D02*
X66692433Y-160875380D01*
%TO.C,SW2*%
X84530647Y-160554857D02*
X84459937Y-160484147D01*
X81419377Y-163666127D02*
X81348667Y-163595417D01*
X82480038Y-164726787D02*
X85591307Y-161615518D01*
X83399276Y-159423487D02*
X80288007Y-162534756D01*
%TD*%
M02*
