M48
;DRILL file {KiCad 4.0.4-stable} date 12/02/16 15:41:45
;FORMAT={-:-/ absolute / metric / decimal}
FMAT,2
METRIC,TZ
T1C1.000
T2C3.000
%
G90
G05
M71
T1
X28.37Y-51.23
X28.37Y-53.77
X29.5Y-38.
X30.91Y-51.23
X30.91Y-53.77
X32.Y-38.
X33.45Y-51.23
X33.45Y-53.77
X35.99Y-51.23
X35.99Y-53.77
X37.Y-38.
X38.53Y-51.23
X38.53Y-53.77
X39.5Y-38.
X41.07Y-51.23
X41.07Y-53.77
X43.61Y-51.23
X43.61Y-53.77
X46.15Y-51.23
X46.15Y-53.77
X48.69Y-51.23
X48.69Y-53.77
X51.23Y-51.23
X51.23Y-53.77
X53.77Y-51.23
X53.77Y-53.77
X56.31Y-51.23
X56.31Y-53.77
X58.85Y-51.23
X58.85Y-53.77
X61.39Y-51.23
X61.39Y-53.77
X63.93Y-51.23
X63.93Y-53.77
X64.5Y-38.
X66.47Y-51.23
X66.47Y-53.77
X67.Y-38.
X69.01Y-51.23
X69.01Y-53.77
X69.5Y-38.
X71.55Y-51.23
X71.55Y-53.77
X72.Y-38.
X74.09Y-51.23
X74.09Y-53.77
X76.63Y-51.23
X76.63Y-53.77
T2
X30.75Y-31.5
X38.25Y-31.5
X68.25Y-31.5
T0
M30
