G04 #@! TF.FileFunction,Copper,L2,Bot,Signal*
%FSLAX46Y46*%
G04 Gerber Fmt 4.6, Leading zero omitted, Abs format (unit mm)*
G04 Created by KiCad (PCBNEW 4.0.5) date 02/15/17 11:53:04*
%MOMM*%
%LPD*%
G01*
G04 APERTURE LIST*
%ADD10C,0.100000*%
%ADD11R,0.800000X1.000000*%
%ADD12C,4.064000*%
%ADD13C,1.524000*%
%ADD14C,0.026000*%
G04 APERTURE END LIST*
D10*
D11*
X900000Y-6000000D03*
X-900000Y-6000000D03*
D12*
X-14500000Y0D03*
X14500000Y0D03*
D11*
X8150000Y-2750000D03*
X6350000Y-2750000D03*
X6350000Y-750000D03*
X8150000Y-750000D03*
X9850000Y-1750000D03*
X11650000Y-1750000D03*
D13*
X11500000Y-5000000D03*
X6500000Y-5000000D03*
D14*
G36*
X-15488000Y2000000D02*
X-15488000Y-2000000D01*
X-15450853Y-2186750D01*
X-15345068Y-2345068D01*
X-15186750Y-2450853D01*
X-15000000Y-2488000D01*
X-14000000Y-2488000D01*
X-13813250Y-2450853D01*
X-13654932Y-2345068D01*
X-13549147Y-2186750D01*
X-13512000Y-2000000D01*
X-13512000Y2000000D01*
X-13529305Y2087000D01*
X-13105384Y2087000D01*
X-11009192Y-9192D01*
X-11004892Y-12045D01*
X-11000000Y-13000D01*
X-4985414Y-13000D01*
X-4608311Y-1908825D01*
X-3527049Y-3527049D01*
X-1908825Y-4608311D01*
X-213000Y-4945632D01*
X-213000Y-17969632D01*
X-6892894Y-16640918D01*
X-12736407Y-12736407D01*
X-16640918Y-6892894D01*
X-18012000Y0D01*
X-17596870Y2087000D01*
X-15470695Y2087000D01*
X-15488000Y2000000D01*
X-15488000Y2000000D01*
G37*
X-15488000Y2000000D02*
X-15488000Y-2000000D01*
X-15450853Y-2186750D01*
X-15345068Y-2345068D01*
X-15186750Y-2450853D01*
X-15000000Y-2488000D01*
X-14000000Y-2488000D01*
X-13813250Y-2450853D01*
X-13654932Y-2345068D01*
X-13549147Y-2186750D01*
X-13512000Y-2000000D01*
X-13512000Y2000000D01*
X-13529305Y2087000D01*
X-13105384Y2087000D01*
X-11009192Y-9192D01*
X-11004892Y-12045D01*
X-11000000Y-13000D01*
X-4985414Y-13000D01*
X-4608311Y-1908825D01*
X-3527049Y-3527049D01*
X-1908825Y-4608311D01*
X-213000Y-4945632D01*
X-213000Y-17969632D01*
X-6892894Y-16640918D01*
X-12736407Y-12736407D01*
X-16640918Y-6892894D01*
X-18012000Y0D01*
X-17596870Y2087000D01*
X-15470695Y2087000D01*
X-15488000Y2000000D01*
G36*
X-14488000Y-1512000D02*
X-14512000Y-1512000D01*
X-14512000Y1512000D01*
X-14488000Y1512000D01*
X-14488000Y-1512000D01*
X-14488000Y-1512000D01*
G37*
X-14488000Y-1512000D02*
X-14512000Y-1512000D01*
X-14512000Y1512000D01*
X-14488000Y1512000D01*
X-14488000Y-1512000D01*
G36*
X7087000Y-7400000D02*
X7088024Y-7405058D01*
X7090935Y-7409319D01*
X7095275Y-7412111D01*
X7100000Y-7413000D01*
X16293394Y-7413000D01*
X12736407Y-12736407D01*
X6892894Y-16640918D01*
X213000Y-17969632D01*
X213000Y-4945632D01*
X1908825Y-4608311D01*
X3527049Y-3527049D01*
X4608311Y-1908825D01*
X4985414Y-13000D01*
X7087000Y-13000D01*
X7087000Y-7400000D01*
X7087000Y-7400000D01*
G37*
X7087000Y-7400000D02*
X7088024Y-7405058D01*
X7090935Y-7409319D01*
X7095275Y-7412111D01*
X7100000Y-7413000D01*
X16293394Y-7413000D01*
X12736407Y-12736407D01*
X6892894Y-16640918D01*
X213000Y-17969632D01*
X213000Y-4945632D01*
X1908825Y-4608311D01*
X3527049Y-3527049D01*
X4608311Y-1908825D01*
X4985414Y-13000D01*
X7087000Y-13000D01*
X7087000Y-7400000D01*
G36*
X13512000Y2000000D02*
X13512000Y-2000000D01*
X13549147Y-2186750D01*
X13654932Y-2345068D01*
X13813250Y-2450853D01*
X14000000Y-2488000D01*
X15000000Y-2488000D01*
X15186750Y-2450853D01*
X15345068Y-2345068D01*
X15450853Y-2186750D01*
X15488000Y-2000000D01*
X15488000Y2000000D01*
X15470695Y2087000D01*
X17596870Y2087000D01*
X18012000Y0D01*
X16640918Y-6892894D01*
X16578038Y-6987000D01*
X10913000Y-6987000D01*
X10913000Y-5563D01*
X13105209Y2087000D01*
X13529305Y2087000D01*
X13512000Y2000000D01*
X13512000Y2000000D01*
G37*
X13512000Y2000000D02*
X13512000Y-2000000D01*
X13549147Y-2186750D01*
X13654932Y-2345068D01*
X13813250Y-2450853D01*
X14000000Y-2488000D01*
X15000000Y-2488000D01*
X15186750Y-2450853D01*
X15345068Y-2345068D01*
X15450853Y-2186750D01*
X15488000Y-2000000D01*
X15488000Y2000000D01*
X15470695Y2087000D01*
X17596870Y2087000D01*
X18012000Y0D01*
X16640918Y-6892894D01*
X16578038Y-6987000D01*
X10913000Y-6987000D01*
X10913000Y-5563D01*
X13105209Y2087000D01*
X13529305Y2087000D01*
X13512000Y2000000D01*
G36*
X14512000Y-1512000D02*
X14488000Y-1512000D01*
X14488000Y1512000D01*
X14512000Y1512000D01*
X14512000Y-1512000D01*
X14512000Y-1512000D01*
G37*
X14512000Y-1512000D02*
X14488000Y-1512000D01*
X14488000Y1512000D01*
X14512000Y1512000D01*
X14512000Y-1512000D01*
G36*
X10487000Y-4375605D02*
X10325204Y-4765253D01*
X10324796Y-5232697D01*
X10487000Y-5625261D01*
X10487000Y-6987000D01*
X7513000Y-6987000D01*
X7513000Y-5624395D01*
X7674796Y-5234747D01*
X7675204Y-4767303D01*
X7513000Y-4374739D01*
X7513000Y-13000D01*
X10487000Y-13000D01*
X10487000Y-4375605D01*
X10487000Y-4375605D01*
G37*
X10487000Y-4375605D02*
X10325204Y-4765253D01*
X10324796Y-5232697D01*
X10487000Y-5625261D01*
X10487000Y-6987000D01*
X7513000Y-6987000D01*
X7513000Y-5624395D01*
X7674796Y-5234747D01*
X7675204Y-4767303D01*
X7513000Y-4374739D01*
X7513000Y-13000D01*
X10487000Y-13000D01*
X10487000Y-4375605D01*
G36*
X6892894Y16640918D02*
X12736407Y12736407D01*
X16640918Y6892894D01*
X17512133Y2513000D01*
X13100000Y2513000D01*
X13094942Y2511976D01*
X13090808Y2509192D01*
X10994616Y413000D01*
X4905849Y413000D01*
X4608311Y1908825D01*
X3527049Y3527049D01*
X1908825Y4608311D01*
X0Y4988000D01*
X-1908825Y4608311D01*
X-3527049Y3527049D01*
X-4608311Y1908825D01*
X-4905849Y413000D01*
X-10994616Y413000D01*
X-13090808Y2509192D01*
X-13095108Y2512045D01*
X-13100000Y2513000D01*
X-17512133Y2513000D01*
X-16640918Y6892894D01*
X-12736407Y12736407D01*
X-6892894Y16640918D01*
X0Y18012000D01*
X6892894Y16640918D01*
X6892894Y16640918D01*
G37*
X6892894Y16640918D02*
X12736407Y12736407D01*
X16640918Y6892894D01*
X17512133Y2513000D01*
X13100000Y2513000D01*
X13094942Y2511976D01*
X13090808Y2509192D01*
X10994616Y413000D01*
X4905849Y413000D01*
X4608311Y1908825D01*
X3527049Y3527049D01*
X1908825Y4608311D01*
X0Y4988000D01*
X-1908825Y4608311D01*
X-3527049Y3527049D01*
X-4608311Y1908825D01*
X-4905849Y413000D01*
X-10994616Y413000D01*
X-13090808Y2509192D01*
X-13095108Y2512045D01*
X-13100000Y2513000D01*
X-17512133Y2513000D01*
X-16640918Y6892894D01*
X-12736407Y12736407D01*
X-6892894Y16640918D01*
X0Y18012000D01*
X6892894Y16640918D01*
G36*
X1535326Y3706605D02*
X2836912Y2836912D01*
X3706605Y1535326D01*
X3929849Y413000D01*
X-3929849Y413000D01*
X-3706605Y1535326D01*
X-2836912Y2836912D01*
X-1535326Y3706605D01*
X0Y4012000D01*
X1535326Y3706605D01*
X1535326Y3706605D01*
G37*
X1535326Y3706605D02*
X2836912Y2836912D01*
X3706605Y1535326D01*
X3929849Y413000D01*
X-3929849Y413000D01*
X-3706605Y1535326D01*
X-2836912Y2836912D01*
X-1535326Y3706605D01*
X0Y4012000D01*
X1535326Y3706605D01*
G36*
X18487000Y2518698D02*
X17542625Y7266393D01*
X13426544Y13426544D01*
X7266393Y17542625D01*
X0Y18988000D01*
X-7266393Y17542625D01*
X-13426544Y13426544D01*
X-17542625Y7266393D01*
X-18487000Y2518698D01*
X-18487000Y19487000D01*
X18487000Y19487000D01*
X18487000Y2518698D01*
X18487000Y2518698D01*
G37*
X18487000Y2518698D02*
X17542625Y7266393D01*
X13426544Y13426544D01*
X7266393Y17542625D01*
X0Y18988000D01*
X-7266393Y17542625D01*
X-13426544Y13426544D01*
X-17542625Y7266393D01*
X-18487000Y2518698D01*
X-18487000Y19487000D01*
X18487000Y19487000D01*
X18487000Y2518698D01*
M02*
