M48
;DRILL file {KiCad 4.0.6} date 03/21/17 17:19:54
;FORMAT={-:-/ absolute / metric / decimal}
FMAT,2
METRIC,TZ
T1C0.400
T2C0.700
T3C0.800
T4C1.000
T5C1.016
%
G90
G05
M71
T1
X6.35Y-29.972
X7.62Y-27.686
X7.62Y-32.512
X8.89Y-32.512
X9.3Y-29.9
X10.16Y-29.972
X11.684Y-5.334
X12.192Y-7.874
X12.5Y-48.
X12.7Y-10.414
X13.208Y-12.954
X13.25Y-39.75
X13.716Y-15.494
X14.224Y-18.034
X14.25Y-39.5
X14.732Y-20.574
X15.24Y-22.86
X15.5Y-34.
X15.7Y-35.8
X16.Y-28.5
X16.Y-37.75
X16.5Y-34.6
X16.5Y-37.
X16.5Y-48.
X16.7Y-27.1
X16.9Y-28.3
X16.9Y-29.2
X17.5Y-38.
X17.5Y-40.
X17.78Y-36.322
X18.2Y-32.7
X18.5Y-37.
X19.Y-32.4
X19.8Y-40.5
X19.812Y-35.56
X21.59Y-25.654
X22.Y-34.8
X22.5Y-3.
X22.5Y-41.
X22.5Y-42.3
X22.9Y-34.7
X23.5Y-35.6
X23.8Y-34.7
X24.5Y-3.
X24.5Y-35.5
X27.Y-35.
T2
X9.Y-44.25
X10.5Y-44.25
X12.Y-44.25
X13.5Y-44.25
X15.Y-44.25
X16.5Y-44.25
T3
X9.144Y-4.064
X9.144Y-6.604
X9.144Y-9.144
X9.144Y-11.684
X9.144Y-14.224
X9.144Y-16.764
X9.144Y-19.304
X9.144Y-21.844
X9.144Y-24.384
X10.414Y-1.016
X15.494Y-3.048
X16.764Y-4.064
X16.764Y-6.604
X16.764Y-9.144
X16.764Y-11.684
X16.764Y-14.224
X16.764Y-16.764
X16.764Y-19.304
X16.764Y-21.844
X16.764Y-24.384
X17.78Y-23.114
X24.5Y-10.5
X25.2Y-18.7
X25.4Y-30.2
X26.Y-4.5
X26.Y-21.8
T4
X3.5Y-27.5
X3.5Y-30.
X3.5Y-32.5
X3.5Y-35.
X3.5Y-40.
X3.5Y-42.5
X3.5Y-45.
X3.5Y-47.5
X31.5Y-2.5
X31.5Y-5.
X31.5Y-7.5
X31.5Y-10.
X31.5Y-15.
X31.5Y-17.5
X31.5Y-20.
X31.5Y-22.5
X31.5Y-27.5
X31.5Y-30.
X31.5Y-32.5
X31.5Y-35.
X31.5Y-40.
X31.5Y-42.5
X31.5Y-45.
X31.5Y-47.5
T5
X1.524Y-4.064
X1.524Y-6.604
X1.524Y-9.144
X1.524Y-11.684
X1.524Y-14.224
X1.524Y-16.764
X1.524Y-19.304
X1.524Y-21.844
X4.064Y-4.064
X4.064Y-6.604
X4.064Y-9.144
X4.064Y-11.684
X4.064Y-14.224
X4.064Y-16.764
X4.064Y-19.304
X4.064Y-21.844
X6.604Y-4.064
X6.604Y-6.604
X6.604Y-9.144
X6.604Y-11.684
X6.604Y-14.224
X6.604Y-16.764
X6.604Y-19.304
X6.604Y-21.844
X8.5Y-36.5
X8.5Y-39.04
X25.5Y-40.
X28.04Y-40.
T0
M30
