G04 #@! TF.FileFunction,Legend,Bot*
%FSLAX46Y46*%
G04 Gerber Fmt 4.6, Leading zero omitted, Abs format (unit mm)*
G04 Created by KiCad (PCBNEW 4.0.3-stable) date 08/16/16 04:16:06*
%MOMM*%
%LPD*%
G01*
G04 APERTURE LIST*
%ADD10C,0.100000*%
%ADD11C,0.150000*%
%ADD12C,0.101600*%
G04 APERTURE END LIST*
D10*
D11*
X9060000Y-26635000D02*
X9060000Y-26780000D01*
X4910000Y-26635000D02*
X4910000Y-26780000D01*
X4910000Y-31785000D02*
X4910000Y-31640000D01*
X9060000Y-31785000D02*
X9060000Y-31640000D01*
X9060000Y-26635000D02*
X4910000Y-26635000D01*
X9060000Y-31785000D02*
X4910000Y-31785000D01*
X9060000Y-26780000D02*
X10460000Y-26780000D01*
D12*
X462643Y-30821690D02*
X520095Y-30764238D01*
X577548Y-30591881D01*
X577548Y-30476976D01*
X520095Y-30304619D01*
X405190Y-30189714D01*
X290286Y-30132262D01*
X60476Y-30074810D01*
X-111881Y-30074810D01*
X-341690Y-30132262D01*
X-456595Y-30189714D01*
X-571500Y-30304619D01*
X-628952Y-30476976D01*
X-628952Y-30591881D01*
X-571500Y-30764238D01*
X-514048Y-30821690D01*
X577548Y-31396214D02*
X577548Y-31626024D01*
X520095Y-31740929D01*
X462643Y-31798381D01*
X290286Y-31913286D01*
X60476Y-31970738D01*
X-399143Y-31970738D01*
X-514048Y-31913286D01*
X-571500Y-31855833D01*
X-628952Y-31740929D01*
X-628952Y-31511119D01*
X-571500Y-31396214D01*
X-514048Y-31338762D01*
X-399143Y-31281310D01*
X-111881Y-31281310D01*
X3024Y-31338762D01*
X60476Y-31396214D01*
X117929Y-31511119D01*
X117929Y-31740929D01*
X60476Y-31855833D01*
X3024Y-31913286D01*
X-111881Y-31970738D01*
X3117548Y-30764238D02*
X3117548Y-30074810D01*
X3117548Y-30419524D02*
X1911048Y-30419524D01*
X2083405Y-30304619D01*
X2198310Y-30189714D01*
X2255762Y-30074810D01*
X2313214Y-31281310D02*
X3117548Y-31281310D01*
X2428119Y-31281310D02*
X2370667Y-31338762D01*
X2313214Y-31453667D01*
X2313214Y-31626024D01*
X2370667Y-31740929D01*
X2485571Y-31798381D01*
X3117548Y-31798381D01*
D11*
X7746905Y-25162381D02*
X7746905Y-25971905D01*
X7699286Y-26067143D01*
X7651667Y-26114762D01*
X7556429Y-26162381D01*
X7365952Y-26162381D01*
X7270714Y-26114762D01*
X7223095Y-26067143D01*
X7175476Y-25971905D01*
X7175476Y-25162381D01*
X6270714Y-25495714D02*
X6270714Y-26162381D01*
X6508810Y-25114762D02*
X6746905Y-25829048D01*
X6127857Y-25829048D01*
D12*
X14263310Y-12527643D02*
X14320762Y-12585095D01*
X14493119Y-12642548D01*
X14608024Y-12642548D01*
X14780381Y-12585095D01*
X14895286Y-12470190D01*
X14952738Y-12355286D01*
X15010190Y-12125476D01*
X15010190Y-11953119D01*
X14952738Y-11723310D01*
X14895286Y-11608405D01*
X14780381Y-11493500D01*
X14608024Y-11436048D01*
X14493119Y-11436048D01*
X14320762Y-11493500D01*
X14263310Y-11550952D01*
X13861143Y-11436048D02*
X13056810Y-11436048D01*
X13573881Y-12642548D01*
X14722929Y-13976048D02*
X14608024Y-13976048D01*
X14493119Y-14033500D01*
X14435667Y-14090952D01*
X14378214Y-14205857D01*
X14320762Y-14435667D01*
X14320762Y-14722929D01*
X14378214Y-14952738D01*
X14435667Y-15067643D01*
X14493119Y-15125095D01*
X14608024Y-15182548D01*
X14722929Y-15182548D01*
X14837833Y-15125095D01*
X14895286Y-15067643D01*
X14952738Y-14952738D01*
X15010190Y-14722929D01*
X15010190Y-14435667D01*
X14952738Y-14205857D01*
X14895286Y-14090952D01*
X14837833Y-14033500D01*
X14722929Y-13976048D01*
X13803690Y-15067643D02*
X13746238Y-15125095D01*
X13803690Y-15182548D01*
X13861142Y-15125095D01*
X13803690Y-15067643D01*
X13803690Y-15182548D01*
X12597190Y-15182548D02*
X13286618Y-15182548D01*
X12941904Y-15182548D02*
X12941904Y-13976048D01*
X13056809Y-14148405D01*
X13171714Y-14263310D01*
X13286618Y-14320762D01*
X11563047Y-14378214D02*
X11563047Y-15182548D01*
X12080118Y-14378214D02*
X12080118Y-15010190D01*
X12022666Y-15125095D01*
X11907761Y-15182548D01*
X11735404Y-15182548D01*
X11620499Y-15125095D01*
X11563047Y-15067643D01*
M02*
