%TF.GenerationSoftware,KiCad,Pcbnew,(6.0.11)*%
%TF.CreationDate,2024-01-21T20:47:10+09:00*%
%TF.ProjectId,ORION_enc_v2,4f52494f-4e5f-4656-9e63-5f76322e6b69,rev?*%
%TF.SameCoordinates,Original*%
%TF.FileFunction,Copper,L2,Bot*%
%TF.FilePolarity,Positive*%
%FSLAX46Y46*%
G04 Gerber Fmt 4.6, Leading zero omitted, Abs format (unit mm)*
G04 Created by KiCad (PCBNEW (6.0.11)) date 2024-01-21 20:47:10*
%MOMM*%
%LPD*%
G01*
G04 APERTURE LIST*
%TA.AperFunction,ViaPad*%
%ADD10C,0.800000*%
%TD*%
%TA.AperFunction,Conductor*%
%ADD11C,0.250000*%
%TD*%
G04 APERTURE END LIST*
D10*
%TO.N,*%
X68000000Y-48200000D03*
%TO.N,+3V3*%
X71000000Y-48000000D03*
X71000000Y-45600000D03*
X72500000Y-56500000D03*
X71000000Y-46500000D03*
%TO.N,GND*%
X72000000Y-50200000D03*
X63500000Y-62000000D03*
X74500000Y-66000000D03*
X65600000Y-45600000D03*
X72400000Y-45600000D03*
X70500000Y-62500000D03*
X68600000Y-56200000D03*
X68500000Y-59000000D03*
X74000000Y-56500000D03*
X63500000Y-67500000D03*
X63487701Y-66000000D03*
X66000000Y-70500000D03*
X72000000Y-70500000D03*
X70000000Y-70500000D03*
X70000000Y-53000000D03*
X72000000Y-54500000D03*
X63500000Y-58000000D03*
X74500000Y-64000000D03*
X71500000Y-65000000D03*
X66500000Y-59000000D03*
X69500000Y-59000000D03*
X71000000Y-70500000D03*
X69000000Y-70500000D03*
X63500000Y-69000000D03*
X68000000Y-70500000D03*
X67000000Y-70500000D03*
X65600000Y-49000000D03*
X74500000Y-70500000D03*
X72400000Y-49000000D03*
X64000000Y-56500000D03*
X69000000Y-61500000D03*
X74500000Y-61000000D03*
X74500000Y-62500000D03*
X63500000Y-60500000D03*
X74500000Y-58000000D03*
X74500000Y-69000000D03*
X69000000Y-68500000D03*
X63500000Y-70500000D03*
X63500000Y-63500000D03*
X74500000Y-67500000D03*
X67500000Y-65500000D03*
X69000000Y-64000000D03*
X67500000Y-59000000D03*
X72000000Y-51200000D03*
X67500000Y-62500000D03*
X70012299Y-65987701D03*
%TO.N,/NSS*%
X70000000Y-50200000D03*
X67000000Y-55000000D03*
X70000000Y-51200000D03*
X66500000Y-67500000D03*
%TO.N,/CLK*%
X69000000Y-48000000D03*
X69000000Y-46600000D03*
X69000000Y-45600000D03*
X72000000Y-61500000D03*
%TO.N,/MISO*%
X70400000Y-55500000D03*
X70775500Y-67775500D03*
X68000000Y-51200000D03*
X68000000Y-50200000D03*
%TO.N,/MOSI*%
X67000000Y-48000000D03*
X67000000Y-45600000D03*
X67000000Y-46500000D03*
X65796672Y-66500000D03*
%TO.N,Net-(J7-Pad1)*%
X66000000Y-50200000D03*
X66000000Y-51200000D03*
%TD*%
D11*
%TO.N,+3V3*%
X71000000Y-55000000D02*
X71000000Y-48000000D01*
X72500000Y-56500000D02*
X71000000Y-55000000D01*
%TO.N,GND*%
X74000000Y-66000000D02*
X71500000Y-68500000D01*
X73500000Y-56000000D02*
X72000000Y-54500000D01*
X70012299Y-65987701D02*
X70512299Y-65987701D01*
X73500000Y-58000000D02*
X73500000Y-56000000D01*
X70512299Y-65987701D02*
X71500000Y-65000000D01*
X71500000Y-68500000D02*
X69000000Y-68500000D01*
X74000000Y-58500000D02*
X74000000Y-66000000D01*
X73500000Y-58000000D02*
X74000000Y-58500000D01*
%TO.N,/NSS*%
X64500000Y-66500000D02*
X65500000Y-67500000D01*
X66975386Y-55000000D02*
X64500000Y-57475386D01*
X64500000Y-57475386D02*
X64500000Y-66500000D01*
X67000000Y-55000000D02*
X66975386Y-55000000D01*
X65500000Y-67500000D02*
X66500000Y-67500000D01*
%TO.N,/CLK*%
X69600000Y-56000000D02*
X72000000Y-58400000D01*
X69600000Y-54375386D02*
X69600000Y-56000000D01*
X69000000Y-48000000D02*
X69000000Y-53775386D01*
X69000000Y-53775386D02*
X69600000Y-54375386D01*
X72000000Y-58400000D02*
X72000000Y-61500000D01*
%TO.N,/MISO*%
X73000000Y-58500000D02*
X73000000Y-66000000D01*
X70400000Y-55900000D02*
X73000000Y-58500000D01*
X71224500Y-67775500D02*
X70775500Y-67775500D01*
X70400000Y-55500000D02*
X70400000Y-55900000D01*
X73000000Y-66000000D02*
X71224500Y-67775500D01*
%TO.N,/MOSI*%
X65000000Y-65703328D02*
X65000000Y-58381153D01*
X65796672Y-66500000D02*
X65000000Y-65703328D01*
X65000000Y-58381153D02*
X67724511Y-55656642D01*
X67200000Y-48200000D02*
X67000000Y-48000000D01*
X67724511Y-54699897D02*
X67200000Y-54175386D01*
X67724511Y-55656642D02*
X67724511Y-54699897D01*
X67200000Y-54175386D02*
X67200000Y-48200000D01*
%TD*%
%TA.AperFunction,Conductor*%
%TO.N,GND*%
G36*
X66395050Y-45220502D02*
G01*
X66441543Y-45274158D01*
X66451647Y-45344432D01*
X66443338Y-45374718D01*
X66414956Y-45443238D01*
X66394318Y-45600000D01*
X66414956Y-45756762D01*
X66475464Y-45902841D01*
X66480491Y-45909392D01*
X66529526Y-45973296D01*
X66555126Y-46039516D01*
X66540861Y-46109065D01*
X66529527Y-46126703D01*
X66475464Y-46197159D01*
X66414956Y-46343238D01*
X66394318Y-46500000D01*
X66414956Y-46656762D01*
X66475464Y-46802841D01*
X66571718Y-46928282D01*
X66697159Y-47024536D01*
X66843238Y-47085044D01*
X67000000Y-47105682D01*
X67008188Y-47104604D01*
X67148574Y-47086122D01*
X67156762Y-47085044D01*
X67302841Y-47024536D01*
X67428282Y-46928282D01*
X67524536Y-46802841D01*
X67585044Y-46656762D01*
X67605682Y-46500000D01*
X67585044Y-46343238D01*
X67524536Y-46197159D01*
X67470474Y-46126704D01*
X67444874Y-46060484D01*
X67459139Y-45990935D01*
X67470474Y-45973296D01*
X67519509Y-45909392D01*
X67524536Y-45902841D01*
X67585044Y-45756762D01*
X67605682Y-45600000D01*
X67585044Y-45443238D01*
X67556662Y-45374718D01*
X67549073Y-45304128D01*
X67580852Y-45240641D01*
X67641910Y-45204414D01*
X67673071Y-45200500D01*
X68326929Y-45200500D01*
X68395050Y-45220502D01*
X68441543Y-45274158D01*
X68451647Y-45344432D01*
X68443338Y-45374718D01*
X68414956Y-45443238D01*
X68394318Y-45600000D01*
X68414956Y-45756762D01*
X68475464Y-45902841D01*
X68480491Y-45909392D01*
X68567892Y-46023296D01*
X68593492Y-46089517D01*
X68579227Y-46159065D01*
X68567892Y-46176704D01*
X68475464Y-46297159D01*
X68414956Y-46443238D01*
X68394318Y-46600000D01*
X68414956Y-46756762D01*
X68475464Y-46902841D01*
X68571718Y-47028282D01*
X68697159Y-47124536D01*
X68823188Y-47176739D01*
X68839730Y-47183591D01*
X68895011Y-47228139D01*
X68917432Y-47295503D01*
X68899874Y-47364294D01*
X68847912Y-47412672D01*
X68839730Y-47416409D01*
X68697159Y-47475464D01*
X68571718Y-47571718D01*
X68566695Y-47578264D01*
X68498674Y-47666911D01*
X68441336Y-47708778D01*
X68370465Y-47713000D01*
X68322009Y-47690171D01*
X68309396Y-47680493D01*
X68309392Y-47680491D01*
X68302841Y-47675464D01*
X68156762Y-47614956D01*
X68000000Y-47594318D01*
X67843238Y-47614956D01*
X67697159Y-47675464D01*
X67690608Y-47680491D01*
X67690604Y-47680493D01*
X67677991Y-47690171D01*
X67611770Y-47715770D01*
X67542222Y-47701504D01*
X67501326Y-47666911D01*
X67433305Y-47578264D01*
X67428282Y-47571718D01*
X67302841Y-47475464D01*
X67156762Y-47414956D01*
X67000000Y-47394318D01*
X66843238Y-47414956D01*
X66697159Y-47475464D01*
X66571718Y-47571718D01*
X66475464Y-47697159D01*
X66414956Y-47843238D01*
X66394318Y-48000000D01*
X66414956Y-48156762D01*
X66475464Y-48302841D01*
X66480491Y-48309392D01*
X66561134Y-48414488D01*
X66571718Y-48428282D01*
X66697159Y-48524536D01*
X66764452Y-48552410D01*
X66796718Y-48565775D01*
X66851999Y-48610324D01*
X66874500Y-48682184D01*
X66874500Y-54155676D01*
X66874020Y-54166658D01*
X66870736Y-54204193D01*
X66880491Y-54240596D01*
X66882870Y-54251328D01*
X66889412Y-54288429D01*
X66885262Y-54289161D01*
X66888402Y-54338529D01*
X66853886Y-54400571D01*
X66813714Y-54427185D01*
X66774000Y-54443635D01*
X66697159Y-54475464D01*
X66571718Y-54571718D01*
X66475464Y-54697159D01*
X66414956Y-54843238D01*
X66394318Y-55000000D01*
X66395396Y-55008188D01*
X66395396Y-55008191D01*
X66400254Y-55045093D01*
X66389314Y-55115241D01*
X66364427Y-55150633D01*
X64283785Y-57231275D01*
X64275681Y-57238702D01*
X64246806Y-57262931D01*
X64241293Y-57272480D01*
X64227961Y-57295571D01*
X64222055Y-57304842D01*
X64200446Y-57335702D01*
X64197592Y-57346352D01*
X64196115Y-57349520D01*
X64194923Y-57352796D01*
X64189412Y-57362341D01*
X64183462Y-57396085D01*
X64182870Y-57399444D01*
X64180492Y-57410171D01*
X64170736Y-57446579D01*
X64171697Y-57457564D01*
X64171697Y-57457566D01*
X64174020Y-57484114D01*
X64174500Y-57495096D01*
X64174500Y-66480290D01*
X64174020Y-66491272D01*
X64170736Y-66528807D01*
X64173590Y-66539456D01*
X64180491Y-66565210D01*
X64182870Y-66575942D01*
X64189412Y-66613045D01*
X64194923Y-66622590D01*
X64196115Y-66625866D01*
X64197592Y-66629034D01*
X64200446Y-66639684D01*
X64217749Y-66664395D01*
X64222055Y-66670544D01*
X64227961Y-66679815D01*
X64241293Y-66702906D01*
X64246806Y-66712455D01*
X64255251Y-66719541D01*
X64275682Y-66736685D01*
X64283785Y-66744111D01*
X65255889Y-67716215D01*
X65263316Y-67724319D01*
X65287545Y-67753194D01*
X65297094Y-67758707D01*
X65320185Y-67772039D01*
X65329456Y-67777945D01*
X65360316Y-67799554D01*
X65370966Y-67802408D01*
X65374134Y-67803885D01*
X65377410Y-67805077D01*
X65386955Y-67810588D01*
X65420699Y-67816538D01*
X65424058Y-67817130D01*
X65434785Y-67819508D01*
X65471193Y-67829264D01*
X65482169Y-67828304D01*
X65482172Y-67828304D01*
X65508743Y-67825979D01*
X65519724Y-67825500D01*
X65930714Y-67825500D01*
X65998835Y-67845502D01*
X66030677Y-67874796D01*
X66071718Y-67928282D01*
X66197159Y-68024536D01*
X66343238Y-68085044D01*
X66351426Y-68086122D01*
X66408114Y-68093585D01*
X66500000Y-68105682D01*
X66508188Y-68104604D01*
X66648574Y-68086122D01*
X66656762Y-68085044D01*
X66802841Y-68024536D01*
X66928282Y-67928282D01*
X67024536Y-67802841D01*
X67085044Y-67656762D01*
X67105682Y-67500000D01*
X67085044Y-67343238D01*
X67024536Y-67197159D01*
X66928282Y-67071718D01*
X66802841Y-66975464D01*
X66656762Y-66914956D01*
X66500000Y-66894318D01*
X66487186Y-66896005D01*
X66417037Y-66885063D01*
X66363941Y-66837933D01*
X66344753Y-66769578D01*
X66354336Y-66722863D01*
X66378555Y-66664395D01*
X66378556Y-66664390D01*
X66381716Y-66656762D01*
X66402354Y-66500000D01*
X66381716Y-66343238D01*
X66321208Y-66197159D01*
X66224954Y-66071718D01*
X66099513Y-65975464D01*
X65953434Y-65914956D01*
X65796672Y-65894318D01*
X65729831Y-65903118D01*
X65659684Y-65892179D01*
X65624291Y-65867292D01*
X65362405Y-65605407D01*
X65328380Y-65543094D01*
X65325500Y-65516311D01*
X65325500Y-58568169D01*
X65345502Y-58500048D01*
X65362405Y-58479074D01*
X67940733Y-55900747D01*
X67948837Y-55893320D01*
X67969260Y-55876183D01*
X67977705Y-55869097D01*
X67996550Y-55836457D01*
X68002454Y-55827189D01*
X68017742Y-55805355D01*
X68024064Y-55796326D01*
X68026917Y-55785680D01*
X68028394Y-55782512D01*
X68029587Y-55779235D01*
X68035099Y-55769687D01*
X68041643Y-55732573D01*
X68044023Y-55721838D01*
X68050921Y-55696096D01*
X68053774Y-55685449D01*
X68050490Y-55647911D01*
X68050011Y-55636930D01*
X68050011Y-54719607D01*
X68050491Y-54708625D01*
X68052814Y-54682077D01*
X68052814Y-54682075D01*
X68053775Y-54671090D01*
X68044019Y-54634682D01*
X68041641Y-54623955D01*
X68041049Y-54620596D01*
X68035099Y-54586852D01*
X68029588Y-54577307D01*
X68028396Y-54574031D01*
X68026919Y-54570863D01*
X68024065Y-54560213D01*
X68002456Y-54529353D01*
X67996550Y-54520082D01*
X67983218Y-54496991D01*
X67977705Y-54487442D01*
X67948828Y-54463212D01*
X67940726Y-54455786D01*
X67562405Y-54077465D01*
X67528379Y-54015153D01*
X67525500Y-53988370D01*
X67525500Y-51842005D01*
X67545502Y-51773884D01*
X67599158Y-51727391D01*
X67669432Y-51717287D01*
X67699718Y-51725596D01*
X67843238Y-51785044D01*
X68000000Y-51805682D01*
X68008188Y-51804604D01*
X68148574Y-51786122D01*
X68156762Y-51785044D01*
X68302841Y-51724536D01*
X68428282Y-51628282D01*
X68448537Y-51601885D01*
X68505875Y-51560018D01*
X68576746Y-51555796D01*
X68638649Y-51590560D01*
X68671930Y-51653272D01*
X68674500Y-51678589D01*
X68674500Y-53755676D01*
X68674020Y-53766658D01*
X68670736Y-53804193D01*
X68673590Y-53814842D01*
X68680491Y-53840596D01*
X68682870Y-53851328D01*
X68689412Y-53888431D01*
X68694923Y-53897976D01*
X68696115Y-53901252D01*
X68697592Y-53904420D01*
X68700446Y-53915070D01*
X68706770Y-53924101D01*
X68722055Y-53945930D01*
X68727961Y-53955201D01*
X68741293Y-53978292D01*
X68746806Y-53987841D01*
X68755251Y-53994927D01*
X68775682Y-54012071D01*
X68783785Y-54019497D01*
X69237595Y-54473307D01*
X69271621Y-54535619D01*
X69274500Y-54562402D01*
X69274500Y-55980290D01*
X69274020Y-55991272D01*
X69270736Y-56028807D01*
X69280491Y-56065210D01*
X69282870Y-56075942D01*
X69283462Y-56079301D01*
X69289412Y-56113045D01*
X69294923Y-56122590D01*
X69296115Y-56125866D01*
X69297592Y-56129034D01*
X69300446Y-56139684D01*
X69306770Y-56148715D01*
X69322055Y-56170544D01*
X69327961Y-56179815D01*
X69334193Y-56190608D01*
X69346806Y-56212455D01*
X69355251Y-56219541D01*
X69375682Y-56236685D01*
X69383785Y-56244111D01*
X71637595Y-58497921D01*
X71671621Y-58560233D01*
X71674500Y-58587016D01*
X71674500Y-60930714D01*
X71654498Y-60998835D01*
X71625204Y-61030677D01*
X71571718Y-61071718D01*
X71475464Y-61197159D01*
X71414956Y-61343238D01*
X71394318Y-61500000D01*
X71414956Y-61656762D01*
X71475464Y-61802841D01*
X71571718Y-61928282D01*
X71697159Y-62024536D01*
X71843238Y-62085044D01*
X72000000Y-62105682D01*
X72008188Y-62104604D01*
X72148574Y-62086122D01*
X72156762Y-62085044D01*
X72302841Y-62024536D01*
X72428282Y-61928282D01*
X72448537Y-61901885D01*
X72505875Y-61860018D01*
X72576746Y-61855796D01*
X72638649Y-61890560D01*
X72671930Y-61953272D01*
X72674500Y-61978589D01*
X72674500Y-65812983D01*
X72654498Y-65881104D01*
X72637595Y-65902078D01*
X71937483Y-66602191D01*
X71275508Y-67264166D01*
X71213196Y-67298191D01*
X71142381Y-67293127D01*
X71109710Y-67275034D01*
X71084894Y-67255992D01*
X71084892Y-67255991D01*
X71078341Y-67250964D01*
X70932262Y-67190456D01*
X70775500Y-67169818D01*
X70618738Y-67190456D01*
X70472659Y-67250964D01*
X70347218Y-67347218D01*
X70250964Y-67472659D01*
X70190456Y-67618738D01*
X70169818Y-67775500D01*
X70190456Y-67932262D01*
X70250964Y-68078341D01*
X70347218Y-68203782D01*
X70472659Y-68300036D01*
X70618738Y-68360544D01*
X70775500Y-68381182D01*
X70783688Y-68380104D01*
X70924074Y-68361622D01*
X70932262Y-68360544D01*
X71078341Y-68300036D01*
X71203782Y-68203782D01*
X71257464Y-68133822D01*
X71314802Y-68091955D01*
X71318611Y-68090942D01*
X71326689Y-68088002D01*
X71337545Y-68086088D01*
X71347090Y-68080577D01*
X71350366Y-68079385D01*
X71353534Y-68077908D01*
X71364184Y-68075054D01*
X71395044Y-68053445D01*
X71404315Y-68047539D01*
X71427406Y-68034207D01*
X71436955Y-68028694D01*
X71461185Y-67999817D01*
X71468611Y-67991715D01*
X73216222Y-66244105D01*
X73224326Y-66236678D01*
X73244750Y-66219540D01*
X73253194Y-66212455D01*
X73258704Y-66202912D01*
X73258707Y-66202908D01*
X73272036Y-66179821D01*
X73277941Y-66170551D01*
X73279288Y-66168628D01*
X73299554Y-66139684D01*
X73302407Y-66129036D01*
X73303886Y-66125865D01*
X73305078Y-66122589D01*
X73310588Y-66113045D01*
X73317134Y-66075924D01*
X73319508Y-66065217D01*
X73329263Y-66028807D01*
X73325979Y-65991269D01*
X73325500Y-65980288D01*
X73325500Y-58519713D01*
X73325979Y-58508732D01*
X73328303Y-58482170D01*
X73328303Y-58482168D01*
X73329263Y-58471193D01*
X73319508Y-58434783D01*
X73317133Y-58424072D01*
X73312501Y-58397806D01*
X73310588Y-58386955D01*
X73305078Y-58377411D01*
X73303886Y-58374135D01*
X73302407Y-58370964D01*
X73299554Y-58360316D01*
X73277940Y-58329448D01*
X73272036Y-58320179D01*
X73258709Y-58297096D01*
X73258707Y-58297093D01*
X73253194Y-58287545D01*
X73237485Y-58274363D01*
X73224331Y-58263326D01*
X73216239Y-58255912D01*
X72262674Y-57302347D01*
X72228651Y-57240038D01*
X72233715Y-57169223D01*
X72276262Y-57112387D01*
X72342782Y-57087576D01*
X72368217Y-57088333D01*
X72491812Y-57104604D01*
X72500000Y-57105682D01*
X72508188Y-57104604D01*
X72648574Y-57086122D01*
X72656762Y-57085044D01*
X72802841Y-57024536D01*
X72928282Y-56928282D01*
X73024536Y-56802841D01*
X73085044Y-56656762D01*
X73105682Y-56500000D01*
X73085044Y-56343238D01*
X73024536Y-56197159D01*
X72928282Y-56071718D01*
X72802841Y-55975464D01*
X72656762Y-55914956D01*
X72500000Y-55894318D01*
X72433159Y-55903118D01*
X72363011Y-55892179D01*
X72327621Y-55867294D01*
X71362404Y-54902078D01*
X71328380Y-54839767D01*
X71325500Y-54812984D01*
X71325500Y-48569286D01*
X71345502Y-48501165D01*
X71374796Y-48469323D01*
X71421736Y-48433305D01*
X71428282Y-48428282D01*
X71438867Y-48414488D01*
X71519509Y-48309392D01*
X71524536Y-48302841D01*
X71585044Y-48156762D01*
X71605682Y-48000000D01*
X71585044Y-47843238D01*
X71524536Y-47697159D01*
X71428282Y-47571718D01*
X71302841Y-47475464D01*
X71156762Y-47414956D01*
X71000000Y-47394318D01*
X70843238Y-47414956D01*
X70697159Y-47475464D01*
X70571718Y-47571718D01*
X70475464Y-47697159D01*
X70414956Y-47843238D01*
X70394318Y-48000000D01*
X70414956Y-48156762D01*
X70475464Y-48302841D01*
X70480491Y-48309392D01*
X70561134Y-48414488D01*
X70571718Y-48428282D01*
X70578264Y-48433305D01*
X70625204Y-48469323D01*
X70667071Y-48526661D01*
X70674500Y-48569286D01*
X70674500Y-49721411D01*
X70654498Y-49789532D01*
X70600842Y-49836025D01*
X70530568Y-49846129D01*
X70465988Y-49816635D01*
X70448537Y-49798115D01*
X70433305Y-49778264D01*
X70428282Y-49771718D01*
X70302841Y-49675464D01*
X70156762Y-49614956D01*
X70000000Y-49594318D01*
X69843238Y-49614956D01*
X69697159Y-49675464D01*
X69571718Y-49771718D01*
X69566695Y-49778264D01*
X69551463Y-49798115D01*
X69494125Y-49839982D01*
X69423254Y-49844204D01*
X69361351Y-49809440D01*
X69328070Y-49746728D01*
X69325500Y-49721411D01*
X69325500Y-48569286D01*
X69345502Y-48501165D01*
X69374796Y-48469323D01*
X69421736Y-48433305D01*
X69428282Y-48428282D01*
X69438867Y-48414488D01*
X69519509Y-48309392D01*
X69524536Y-48302841D01*
X69585044Y-48156762D01*
X69605682Y-48000000D01*
X69585044Y-47843238D01*
X69524536Y-47697159D01*
X69428282Y-47571718D01*
X69302841Y-47475464D01*
X69160270Y-47416409D01*
X69104989Y-47371861D01*
X69082568Y-47304497D01*
X69100126Y-47235706D01*
X69152088Y-47187328D01*
X69160270Y-47183591D01*
X69176812Y-47176739D01*
X69302841Y-47124536D01*
X69428282Y-47028282D01*
X69524536Y-46902841D01*
X69585044Y-46756762D01*
X69605682Y-46600000D01*
X69585044Y-46443238D01*
X69524536Y-46297159D01*
X69432108Y-46176704D01*
X69406508Y-46110483D01*
X69420773Y-46040935D01*
X69432108Y-46023296D01*
X69519509Y-45909392D01*
X69524536Y-45902841D01*
X69585044Y-45756762D01*
X69605682Y-45600000D01*
X69585044Y-45443238D01*
X69556662Y-45374718D01*
X69549073Y-45304128D01*
X69580852Y-45240641D01*
X69641910Y-45204414D01*
X69673071Y-45200500D01*
X70326929Y-45200500D01*
X70395050Y-45220502D01*
X70441543Y-45274158D01*
X70451647Y-45344432D01*
X70443338Y-45374718D01*
X70414956Y-45443238D01*
X70394318Y-45600000D01*
X70414956Y-45756762D01*
X70475464Y-45902841D01*
X70480491Y-45909392D01*
X70529526Y-45973296D01*
X70555126Y-46039516D01*
X70540861Y-46109065D01*
X70529527Y-46126703D01*
X70475464Y-46197159D01*
X70414956Y-46343238D01*
X70394318Y-46500000D01*
X70414956Y-46656762D01*
X70475464Y-46802841D01*
X70571718Y-46928282D01*
X70697159Y-47024536D01*
X70843238Y-47085044D01*
X71000000Y-47105682D01*
X71008188Y-47104604D01*
X71148574Y-47086122D01*
X71156762Y-47085044D01*
X71302841Y-47024536D01*
X71428282Y-46928282D01*
X71524536Y-46802841D01*
X71585044Y-46656762D01*
X71605682Y-46500000D01*
X71585044Y-46343238D01*
X71524536Y-46197159D01*
X71470474Y-46126704D01*
X71444874Y-46060484D01*
X71459139Y-45990935D01*
X71470474Y-45973296D01*
X71519509Y-45909392D01*
X71524536Y-45902841D01*
X71585044Y-45756762D01*
X71605682Y-45600000D01*
X71585044Y-45443238D01*
X71556662Y-45374718D01*
X71549073Y-45304128D01*
X71580852Y-45240641D01*
X71641910Y-45204414D01*
X71673071Y-45200500D01*
X72673500Y-45200500D01*
X72741621Y-45220502D01*
X72788114Y-45274158D01*
X72799500Y-45326500D01*
X72799500Y-52965409D01*
X72797297Y-52986222D01*
X72797332Y-52988873D01*
X72794362Y-53002746D01*
X72804646Y-53045205D01*
X72804988Y-53046659D01*
X72814688Y-53089185D01*
X72823533Y-53100284D01*
X72824559Y-53102416D01*
X72836006Y-53120344D01*
X74786664Y-57021660D01*
X74799736Y-57070401D01*
X74805714Y-57169223D01*
X74811551Y-57265726D01*
X74812237Y-57269467D01*
X74812237Y-57269468D01*
X74853585Y-57495096D01*
X74859537Y-57527577D01*
X74938736Y-57781734D01*
X74940301Y-57785211D01*
X74988899Y-57893191D01*
X75000000Y-57944903D01*
X75000000Y-70055097D01*
X74988899Y-70106809D01*
X74938736Y-70218266D01*
X74859537Y-70472423D01*
X74811551Y-70734274D01*
X74811322Y-70738066D01*
X74811321Y-70738071D01*
X74802639Y-70881608D01*
X74778561Y-70948396D01*
X74722196Y-70991565D01*
X74676869Y-71000000D01*
X63323131Y-71000000D01*
X63255010Y-70979998D01*
X63208517Y-70926342D01*
X63197361Y-70881608D01*
X63188679Y-70738071D01*
X63188678Y-70738066D01*
X63188449Y-70734274D01*
X63140463Y-70472423D01*
X63061264Y-70218266D01*
X63011101Y-70106809D01*
X63000000Y-70055097D01*
X63000000Y-57944903D01*
X63011101Y-57893191D01*
X63059699Y-57785211D01*
X63061264Y-57781734D01*
X63140463Y-57527577D01*
X63146416Y-57495096D01*
X63164026Y-57398997D01*
X63188449Y-57265726D01*
X63200263Y-57070403D01*
X63213335Y-57021661D01*
X65163867Y-53120599D01*
X65175139Y-53102978D01*
X65176293Y-53100591D01*
X65185156Y-53089508D01*
X65194944Y-53046940D01*
X65195278Y-53045533D01*
X65205633Y-53003105D01*
X65202686Y-52989224D01*
X65202722Y-52986861D01*
X65200500Y-52965700D01*
X65200500Y-51472464D01*
X65220502Y-51404343D01*
X65274158Y-51357850D01*
X65344432Y-51347746D01*
X65409012Y-51377240D01*
X65442909Y-51424245D01*
X65475464Y-51502841D01*
X65571718Y-51628282D01*
X65697159Y-51724536D01*
X65843238Y-51785044D01*
X66000000Y-51805682D01*
X66008188Y-51804604D01*
X66148574Y-51786122D01*
X66156762Y-51785044D01*
X66302841Y-51724536D01*
X66428282Y-51628282D01*
X66524536Y-51502841D01*
X66585044Y-51356762D01*
X66605682Y-51200000D01*
X66585044Y-51043238D01*
X66524536Y-50897159D01*
X66432108Y-50776704D01*
X66406508Y-50710483D01*
X66420773Y-50640935D01*
X66432108Y-50623296D01*
X66519509Y-50509392D01*
X66524536Y-50502841D01*
X66585044Y-50356762D01*
X66605682Y-50200000D01*
X66585044Y-50043238D01*
X66524536Y-49897159D01*
X66428282Y-49771718D01*
X66302841Y-49675464D01*
X66156762Y-49614956D01*
X66000000Y-49594318D01*
X65843238Y-49614956D01*
X65697159Y-49675464D01*
X65571718Y-49771718D01*
X65475464Y-49897159D01*
X65442909Y-49975754D01*
X65398361Y-50031035D01*
X65330997Y-50053456D01*
X65262206Y-50035898D01*
X65213828Y-49983936D01*
X65200500Y-49927536D01*
X65200500Y-45326500D01*
X65220502Y-45258379D01*
X65274158Y-45211886D01*
X65326500Y-45200500D01*
X66326929Y-45200500D01*
X66395050Y-45220502D01*
G37*
%TD.AperFunction*%
%TA.AperFunction,Conductor*%
G36*
X69534012Y-51583365D02*
G01*
X69551463Y-51601885D01*
X69571718Y-51628282D01*
X69697159Y-51724536D01*
X69843238Y-51785044D01*
X70000000Y-51805682D01*
X70008188Y-51804604D01*
X70148574Y-51786122D01*
X70156762Y-51785044D01*
X70302841Y-51724536D01*
X70428282Y-51628282D01*
X70448537Y-51601885D01*
X70505875Y-51560018D01*
X70576746Y-51555796D01*
X70638649Y-51590560D01*
X70671930Y-51653272D01*
X70674500Y-51678589D01*
X70674500Y-54786781D01*
X70654498Y-54854902D01*
X70600842Y-54901395D01*
X70532054Y-54911703D01*
X70408188Y-54895396D01*
X70400000Y-54894318D01*
X70243238Y-54914956D01*
X70235609Y-54918116D01*
X70099718Y-54974404D01*
X70029128Y-54981993D01*
X69965641Y-54950214D01*
X69929414Y-54889156D01*
X69925500Y-54857995D01*
X69925500Y-54395099D01*
X69925979Y-54384118D01*
X69928303Y-54357556D01*
X69928303Y-54357554D01*
X69929263Y-54346579D01*
X69919508Y-54310169D01*
X69917133Y-54299458D01*
X69915317Y-54289161D01*
X69910588Y-54262341D01*
X69905079Y-54252798D01*
X69903888Y-54249526D01*
X69902408Y-54246353D01*
X69899554Y-54235702D01*
X69877945Y-54204842D01*
X69872039Y-54195571D01*
X69858707Y-54172480D01*
X69853194Y-54162931D01*
X69824317Y-54138701D01*
X69816215Y-54131275D01*
X69362405Y-53677465D01*
X69328379Y-53615153D01*
X69325500Y-53588370D01*
X69325500Y-51678589D01*
X69345502Y-51610468D01*
X69399158Y-51563975D01*
X69469432Y-51553871D01*
X69534012Y-51583365D01*
G37*
%TD.AperFunction*%
%TD*%
M02*
