G04 #@! TF.FileFunction,Profile,NP*
%FSLAX46Y46*%
G04 Gerber Fmt 4.6, Leading zero omitted, Abs format (unit mm)*
G04 Created by KiCad (PCBNEW 4.0.7) date 04/07/18 13:13:02*
%MOMM*%
%LPD*%
G01*
G04 APERTURE LIST*
%ADD10C,0.100000*%
%ADD11C,0.150000*%
G04 APERTURE END LIST*
D10*
D11*
X110490000Y-74930000D02*
X104140000Y-74930000D01*
X104140000Y-72390000D02*
X110490000Y-72390000D01*
X96520000Y-72390000D02*
X90170000Y-72390000D01*
X90170000Y-74930000D02*
X96520000Y-74930000D01*
X81280000Y-74930000D02*
X87630000Y-74930000D01*
X87630000Y-72390000D02*
X81280000Y-72390000D01*
X73660000Y-72390000D02*
X67310000Y-72390000D01*
X67310000Y-74930000D02*
X73660000Y-74930000D01*
X58420000Y-74930000D02*
X64770000Y-74930000D01*
X64770000Y-72390000D02*
X58420000Y-72390000D01*
X50800000Y-74930000D02*
X44450000Y-74930000D01*
X44450000Y-72390000D02*
X50800000Y-72390000D01*
X41910000Y-74930000D02*
X35560000Y-74930000D01*
X35560000Y-72390000D02*
X41910000Y-72390000D01*
X21590000Y-74930000D02*
X27940000Y-74930000D01*
X27940000Y-72390000D02*
X21590000Y-72390000D01*
X104140000Y-72390000D02*
G75*
G03X102870000Y-73660000I0J-1270000D01*
G01*
X102870000Y-73660000D02*
G75*
G03X104140000Y-74930000I1270000J0D01*
G01*
X96520000Y-74930000D02*
G75*
G03X97790000Y-73660000I0J1270000D01*
G01*
X97790000Y-73660000D02*
G75*
G03X96520000Y-72390000I-1270000J0D01*
G01*
X81280000Y-72390000D02*
G75*
G03X80010000Y-73660000I0J-1270000D01*
G01*
X80010000Y-73660000D02*
G75*
G03X81280000Y-74930000I1270000J0D01*
G01*
X73660000Y-74930000D02*
G75*
G03X74930000Y-73660000I0J1270000D01*
G01*
X74930000Y-73660000D02*
G75*
G03X73660000Y-72390000I-1270000J0D01*
G01*
X58420000Y-72390000D02*
G75*
G03X57150000Y-73660000I0J-1270000D01*
G01*
X57150000Y-73660000D02*
G75*
G03X58420000Y-74930000I1270000J0D01*
G01*
X50800000Y-74930000D02*
G75*
G03X52070000Y-73660000I0J1270000D01*
G01*
X52070000Y-73660000D02*
G75*
G03X50800000Y-72390000I-1270000J0D01*
G01*
X34290000Y-73660000D02*
G75*
G03X35560000Y-74930000I1270000J0D01*
G01*
X35560000Y-72390000D02*
G75*
G03X34290000Y-73660000I0J-1270000D01*
G01*
X27940000Y-74930000D02*
G75*
G03X29210000Y-73660000I0J1270000D01*
G01*
X29210000Y-73660000D02*
G75*
G03X27940000Y-72390000I-1270000J0D01*
G01*
X110490000Y-74930000D02*
X110490000Y-128270000D01*
X110490000Y-128270000D02*
X90170000Y-128270000D01*
X87630000Y-128270000D02*
X67310000Y-128270000D01*
X64770000Y-128270000D02*
X44450000Y-128270000D01*
X44450000Y-74930000D02*
X44450000Y-77470000D01*
X43180000Y-78740000D02*
G75*
G03X44450000Y-77470000I0J1270000D01*
G01*
X41910000Y-77470000D02*
G75*
G03X43180000Y-78740000I1270000J0D01*
G01*
X43180000Y-81280000D02*
G75*
G03X41910000Y-82550000I0J-1270000D01*
G01*
X44450000Y-82550000D02*
G75*
G03X43180000Y-81280000I-1270000J0D01*
G01*
X44450000Y-128270000D02*
X44450000Y-125730000D01*
X44450000Y-125730000D02*
G75*
G03X43180000Y-124460000I-1270000J0D01*
G01*
X43180000Y-124460000D02*
G75*
G03X41910000Y-125730000I0J-1270000D01*
G01*
X43180000Y-121920000D02*
G75*
G03X44450000Y-120650000I0J1270000D01*
G01*
X41910000Y-120650000D02*
G75*
G03X43180000Y-121920000I1270000J0D01*
G01*
X67310000Y-125730000D02*
G75*
G03X66040000Y-124460000I-1270000J0D01*
G01*
X66040000Y-124460000D02*
G75*
G03X64770000Y-125730000I0J-1270000D01*
G01*
X90170000Y-125730000D02*
G75*
G03X88900000Y-124460000I-1270000J0D01*
G01*
X88900000Y-124460000D02*
G75*
G03X87630000Y-125730000I0J-1270000D01*
G01*
X90170000Y-125730000D02*
X90170000Y-128270000D01*
X87630000Y-125730000D02*
X87630000Y-128270000D01*
X64770000Y-125730000D02*
X64770000Y-128270000D01*
X67310000Y-125730000D02*
X67310000Y-128270000D01*
X66040000Y-78740000D02*
G75*
G03X67310000Y-77470000I0J1270000D01*
G01*
X64770000Y-77470000D02*
G75*
G03X66040000Y-78740000I1270000J0D01*
G01*
X87630000Y-77470000D02*
G75*
G03X88900000Y-78740000I1270000J0D01*
G01*
X88900000Y-78740000D02*
G75*
G03X90170000Y-77470000I0J1270000D01*
G01*
X90170000Y-77470000D02*
X90170000Y-74930000D01*
X87630000Y-77470000D02*
X87630000Y-74930000D01*
X64770000Y-74930000D02*
X64770000Y-77470000D01*
X67310000Y-77470000D02*
X67310000Y-74930000D01*
X66040000Y-81280000D02*
G75*
G03X64770000Y-82550000I0J-1270000D01*
G01*
X67310000Y-82550000D02*
G75*
G03X66040000Y-81280000I-1270000J0D01*
G01*
X88900000Y-81280000D02*
G75*
G03X87630000Y-82550000I0J-1270000D01*
G01*
X90170000Y-82550000D02*
G75*
G03X88900000Y-81280000I-1270000J0D01*
G01*
X64770000Y-120650000D02*
G75*
G03X66040000Y-121920000I1270000J0D01*
G01*
X66040000Y-121920000D02*
G75*
G03X67310000Y-120650000I0J1270000D01*
G01*
X87630000Y-120650000D02*
G75*
G03X88900000Y-121920000I1270000J0D01*
G01*
X88900000Y-121920000D02*
G75*
G03X90170000Y-120650000I0J1270000D01*
G01*
X43180000Y-100330000D02*
G75*
G03X44450000Y-99060000I0J1270000D01*
G01*
X41910000Y-99060000D02*
G75*
G03X43180000Y-100330000I1270000J0D01*
G01*
X43180000Y-102870000D02*
G75*
G03X41910000Y-104140000I0J-1270000D01*
G01*
X44450000Y-104140000D02*
G75*
G03X43180000Y-102870000I-1270000J0D01*
G01*
X66040000Y-100330000D02*
G75*
G03X67310000Y-99060000I0J1270000D01*
G01*
X64770000Y-99060000D02*
G75*
G03X66040000Y-100330000I1270000J0D01*
G01*
X66040000Y-102870000D02*
G75*
G03X64770000Y-104140000I0J-1270000D01*
G01*
X67310000Y-104140000D02*
G75*
G03X66040000Y-102870000I-1270000J0D01*
G01*
X87630000Y-99060000D02*
G75*
G03X88900000Y-100330000I1270000J0D01*
G01*
X88900000Y-100330000D02*
G75*
G03X90170000Y-99060000I0J1270000D01*
G01*
X88900000Y-102870000D02*
G75*
G03X87630000Y-104140000I0J-1270000D01*
G01*
X90170000Y-104140000D02*
G75*
G03X88900000Y-102870000I-1270000J0D01*
G01*
X90170000Y-99060000D02*
X90170000Y-82550000D01*
X87630000Y-82550000D02*
X87630000Y-99060000D01*
X87630000Y-104140000D02*
X87630000Y-120650000D01*
X90170000Y-120650000D02*
X90170000Y-104140000D01*
X64770000Y-120650000D02*
X64770000Y-104140000D01*
X67310000Y-104140000D02*
X67310000Y-120650000D01*
X67310000Y-99060000D02*
X67310000Y-82550000D01*
X64770000Y-82550000D02*
X64770000Y-99060000D01*
X41910000Y-99060000D02*
X41910000Y-82550000D01*
X44450000Y-82550000D02*
X44450000Y-99060000D01*
X41910000Y-120650000D02*
X41910000Y-104140000D01*
X44450000Y-104140000D02*
X44450000Y-120650000D01*
X41910000Y-77470000D02*
X41910000Y-74930000D01*
X21590000Y-74930000D02*
X21590000Y-128270000D01*
X21590000Y-128270000D02*
X41910000Y-128270000D01*
X41910000Y-128270000D02*
X41910000Y-125730000D01*
X41910000Y-72390000D02*
X41910000Y-69850000D01*
X21590000Y-19050000D02*
X21590000Y-72390000D01*
X41910000Y-19050000D02*
X21590000Y-19050000D01*
X41910000Y-21590000D02*
X41910000Y-19050000D01*
X44450000Y-48260000D02*
X44450000Y-64770000D01*
X41910000Y-64770000D02*
X41910000Y-48260000D01*
X44450000Y-26670000D02*
X44450000Y-43180000D01*
X41910000Y-43180000D02*
X41910000Y-26670000D01*
X64770000Y-26670000D02*
X64770000Y-43180000D01*
X67310000Y-43180000D02*
X67310000Y-26670000D01*
X67310000Y-48260000D02*
X67310000Y-64770000D01*
X64770000Y-64770000D02*
X64770000Y-48260000D01*
X90170000Y-64770000D02*
X90170000Y-48260000D01*
X87630000Y-48260000D02*
X87630000Y-64770000D01*
X87630000Y-26670000D02*
X87630000Y-43180000D01*
X90170000Y-43180000D02*
X90170000Y-26670000D01*
X90170000Y-48260000D02*
G75*
G03X88900000Y-46990000I-1270000J0D01*
G01*
X88900000Y-46990000D02*
G75*
G03X87630000Y-48260000I0J-1270000D01*
G01*
X88900000Y-44450000D02*
G75*
G03X90170000Y-43180000I0J1270000D01*
G01*
X87630000Y-43180000D02*
G75*
G03X88900000Y-44450000I1270000J0D01*
G01*
X67310000Y-48260000D02*
G75*
G03X66040000Y-46990000I-1270000J0D01*
G01*
X66040000Y-46990000D02*
G75*
G03X64770000Y-48260000I0J-1270000D01*
G01*
X64770000Y-43180000D02*
G75*
G03X66040000Y-44450000I1270000J0D01*
G01*
X66040000Y-44450000D02*
G75*
G03X67310000Y-43180000I0J1270000D01*
G01*
X44450000Y-48260000D02*
G75*
G03X43180000Y-46990000I-1270000J0D01*
G01*
X43180000Y-46990000D02*
G75*
G03X41910000Y-48260000I0J-1270000D01*
G01*
X41910000Y-43180000D02*
G75*
G03X43180000Y-44450000I1270000J0D01*
G01*
X43180000Y-44450000D02*
G75*
G03X44450000Y-43180000I0J1270000D01*
G01*
X88900000Y-66040000D02*
G75*
G03X90170000Y-64770000I0J1270000D01*
G01*
X87630000Y-64770000D02*
G75*
G03X88900000Y-66040000I1270000J0D01*
G01*
X66040000Y-66040000D02*
G75*
G03X67310000Y-64770000I0J1270000D01*
G01*
X64770000Y-64770000D02*
G75*
G03X66040000Y-66040000I1270000J0D01*
G01*
X90170000Y-26670000D02*
G75*
G03X88900000Y-25400000I-1270000J0D01*
G01*
X88900000Y-25400000D02*
G75*
G03X87630000Y-26670000I0J-1270000D01*
G01*
X67310000Y-26670000D02*
G75*
G03X66040000Y-25400000I-1270000J0D01*
G01*
X66040000Y-25400000D02*
G75*
G03X64770000Y-26670000I0J-1270000D01*
G01*
X67310000Y-21590000D02*
X67310000Y-19050000D01*
X64770000Y-19050000D02*
X64770000Y-21590000D01*
X87630000Y-21590000D02*
X87630000Y-19050000D01*
X90170000Y-21590000D02*
X90170000Y-19050000D01*
X88900000Y-22860000D02*
G75*
G03X90170000Y-21590000I0J1270000D01*
G01*
X87630000Y-21590000D02*
G75*
G03X88900000Y-22860000I1270000J0D01*
G01*
X64770000Y-21590000D02*
G75*
G03X66040000Y-22860000I1270000J0D01*
G01*
X66040000Y-22860000D02*
G75*
G03X67310000Y-21590000I0J1270000D01*
G01*
X67310000Y-69850000D02*
X67310000Y-72390000D01*
X64770000Y-69850000D02*
X64770000Y-72390000D01*
X87630000Y-69850000D02*
X87630000Y-72390000D01*
X90170000Y-69850000D02*
X90170000Y-72390000D01*
X88900000Y-68580000D02*
G75*
G03X87630000Y-69850000I0J-1270000D01*
G01*
X90170000Y-69850000D02*
G75*
G03X88900000Y-68580000I-1270000J0D01*
G01*
X66040000Y-68580000D02*
G75*
G03X64770000Y-69850000I0J-1270000D01*
G01*
X67310000Y-69850000D02*
G75*
G03X66040000Y-68580000I-1270000J0D01*
G01*
X41910000Y-64770000D02*
G75*
G03X43180000Y-66040000I1270000J0D01*
G01*
X43180000Y-66040000D02*
G75*
G03X44450000Y-64770000I0J1270000D01*
G01*
X43180000Y-68580000D02*
G75*
G03X41910000Y-69850000I0J-1270000D01*
G01*
X44450000Y-69850000D02*
G75*
G03X43180000Y-68580000I-1270000J0D01*
G01*
X44450000Y-72390000D02*
X44450000Y-69850000D01*
X44450000Y-26670000D02*
G75*
G03X43180000Y-25400000I-1270000J0D01*
G01*
X43180000Y-25400000D02*
G75*
G03X41910000Y-26670000I0J-1270000D01*
G01*
X41910000Y-21590000D02*
G75*
G03X43180000Y-22860000I1270000J0D01*
G01*
X43180000Y-22860000D02*
G75*
G03X44450000Y-21590000I0J1270000D01*
G01*
X44450000Y-19050000D02*
X44450000Y-21590000D01*
X44450000Y-19050000D02*
X64770000Y-19050000D01*
X67310000Y-19050000D02*
X87630000Y-19050000D01*
X110490000Y-19050000D02*
X110490000Y-72390000D01*
X90170000Y-19050000D02*
X110490000Y-19050000D01*
M02*
