G04 #@! TF.FileFunction,Copper,L2,Bot,Signal*
%FSLAX46Y46*%
G04 Gerber Fmt 4.6, Leading zero omitted, Abs format (unit mm)*
G04 Created by KiCad (PCBNEW 4.0.7) date 07/09/18 09:37:44*
%MOMM*%
%LPD*%
G01*
G04 APERTURE LIST*
%ADD10C,0.100000*%
%ADD11R,0.965200X1.270000*%
%ADD12O,2.500000X1.500000*%
%ADD13O,1.000000X1.524000*%
%ADD14R,2.032000X2.032000*%
%ADD15O,2.032000X2.032000*%
%ADD16R,2.400000X1.500000*%
%ADD17R,7.000240X7.000240*%
%ADD18R,1.550000X0.600000*%
%ADD19R,1.700000X1.200000*%
%ADD20R,1.700000X3.300000*%
%ADD21R,1.400000X1.800000*%
%ADD22R,1.000000X0.700000*%
%ADD23O,1.524000X1.000000*%
%ADD24R,1.501140X2.700020*%
%ADD25R,2.499360X2.499360*%
%ADD26C,2.000000*%
%ADD27R,1.699260X1.300480*%
%ADD28O,1.500000X2.500000*%
%ADD29C,1.510000*%
%ADD30R,1.510000X1.510000*%
%ADD31C,1.700000*%
%ADD32R,1.700000X1.700000*%
%ADD33R,3.200000X1.000000*%
%ADD34R,0.700000X1.000000*%
%ADD35C,4.000000*%
%ADD36C,0.600000*%
%ADD37C,1.000000*%
%ADD38C,0.250000*%
%ADD39C,0.400000*%
%ADD40C,3.000000*%
%ADD41C,0.026000*%
G04 APERTURE END LIST*
D10*
D11*
X17270000Y-33000000D03*
X16000000Y-33000000D03*
X14730000Y-33000000D03*
D12*
X3000000Y-25000000D03*
X3000000Y-22500000D03*
X3000000Y-20000000D03*
X3000000Y-17500000D03*
X3000000Y-12500000D03*
X3000000Y-10000000D03*
X3000000Y-7500000D03*
X3000000Y-5000000D03*
D13*
X14500000Y-35500000D03*
X16000000Y-35500000D03*
X17500000Y-35500000D03*
X19000000Y-35500000D03*
X20500000Y-35500000D03*
X22000000Y-35500000D03*
D14*
X8000000Y-7500000D03*
D15*
X8000000Y-4960000D03*
D16*
X79550000Y-10800000D03*
X79550000Y-6200000D03*
D17*
X85449320Y-8500000D03*
D16*
X67550000Y-10800000D03*
X67550000Y-6200000D03*
D17*
X73449320Y-8500000D03*
D16*
X79550000Y-19800000D03*
X79550000Y-15200000D03*
D17*
X85449320Y-17500000D03*
D16*
X67550000Y-19800000D03*
X67550000Y-15200000D03*
D17*
X73449320Y-17500000D03*
D16*
X79550000Y-28800000D03*
X79550000Y-24200000D03*
D17*
X85449320Y-26500000D03*
D16*
X67550000Y-28800000D03*
X67550000Y-24200000D03*
D17*
X73449320Y-26500000D03*
D18*
X14200000Y-11095000D03*
X14200000Y-12365000D03*
X14200000Y-13635000D03*
X14200000Y-14905000D03*
X8800000Y-14905000D03*
X8800000Y-13635000D03*
X8800000Y-12365000D03*
X8800000Y-11095000D03*
D19*
X10000000Y-29700000D03*
X10000000Y-32000000D03*
X10000000Y-34300000D03*
D20*
X3700000Y-32000000D03*
D21*
X6900000Y-27000000D03*
X10100000Y-27000000D03*
X6900000Y-37000000D03*
X10100000Y-37000000D03*
D22*
X16500000Y-12000000D03*
X16500000Y-14000000D03*
X11000000Y-7500000D03*
X11000000Y-5500000D03*
D13*
X38500000Y-35500000D03*
X40000000Y-35500000D03*
X41500000Y-35500000D03*
X43000000Y-35500000D03*
X44500000Y-35500000D03*
X46000000Y-35500000D03*
D14*
X50000000Y-36000000D03*
D15*
X52540000Y-36000000D03*
D23*
X37000000Y-43000000D03*
X37000000Y-44500000D03*
X37000000Y-46000000D03*
X37000000Y-47500000D03*
X37000000Y-49000000D03*
X37000000Y-50500000D03*
D14*
X24500000Y-44500000D03*
D15*
X24500000Y-47040000D03*
D24*
X15400300Y-86000000D03*
X10599700Y-86000000D03*
X10599700Y-82000000D03*
X15400300Y-82000000D03*
D25*
X6500000Y-66531500D03*
X6500000Y-70468500D03*
X6500000Y-75531500D03*
X6500000Y-79468500D03*
D26*
X78880000Y-46020000D03*
X78880000Y-48560000D03*
X78880000Y-51100000D03*
X78880000Y-53640000D03*
X78880000Y-56180000D03*
X78880000Y-58720000D03*
X78880000Y-61260000D03*
X78880000Y-63800000D03*
X78880000Y-66340000D03*
X78880000Y-68880000D03*
X78880000Y-71420000D03*
X78880000Y-73960000D03*
X78880000Y-76500000D03*
X78880000Y-79040000D03*
X78880000Y-81580000D03*
X78880000Y-84120000D03*
X78880000Y-86660000D03*
X78880000Y-89200000D03*
X78880000Y-91740000D03*
X78880000Y-94280000D03*
X78880000Y-96820000D03*
X96660000Y-96820000D03*
X96660000Y-94280000D03*
X96660000Y-91740000D03*
X96660000Y-89200000D03*
X96660000Y-86660000D03*
X96660000Y-84120000D03*
X96660000Y-81580000D03*
X96660000Y-79040000D03*
X96660000Y-76500000D03*
X96660000Y-73960000D03*
X96660000Y-71420000D03*
X96660000Y-68880000D03*
X96660000Y-66340000D03*
X96660000Y-63800000D03*
X96660000Y-61260000D03*
X96660000Y-58720000D03*
X96660000Y-56180000D03*
X96660000Y-53640000D03*
X96660000Y-51100000D03*
X96660000Y-48560000D03*
X96660000Y-46020000D03*
D25*
X6500000Y-93531500D03*
X6500000Y-97468500D03*
X6500000Y-57531500D03*
X6500000Y-61468500D03*
X6500000Y-84531500D03*
X6500000Y-88468500D03*
D27*
X3500000Y-70250060D03*
X3500000Y-66749940D03*
X3500000Y-61250060D03*
X3500000Y-57749940D03*
D28*
X69000000Y-44000000D03*
X66500000Y-44000000D03*
D29*
X60000000Y-55080000D03*
D30*
X60000000Y-50000000D03*
D29*
X57460000Y-52540000D03*
D31*
X19000000Y-72500000D03*
D32*
X19000000Y-67500000D03*
D31*
X33000000Y-64500000D03*
D32*
X28000000Y-64500000D03*
D31*
X42000000Y-72500000D03*
D32*
X42000000Y-67500000D03*
D33*
X64000000Y-5900000D03*
X64000000Y-12100000D03*
X64000000Y-14900000D03*
X64000000Y-21100000D03*
X64000000Y-23900000D03*
X64000000Y-30100000D03*
D18*
X71700000Y-69695000D03*
X71700000Y-72235000D03*
X66300000Y-72235000D03*
X66300000Y-70965000D03*
X66300000Y-69695000D03*
X71700000Y-64695000D03*
X71700000Y-67235000D03*
X66300000Y-67235000D03*
X66300000Y-65965000D03*
X66300000Y-64695000D03*
D22*
X73500000Y-68000000D03*
X73500000Y-70000000D03*
X75000000Y-70500000D03*
X75000000Y-72500000D03*
D34*
X55500000Y-32500000D03*
X53500000Y-32500000D03*
D35*
X13500000Y-46500000D03*
X47500000Y-46500000D03*
D36*
X23500000Y-23500000D03*
X34000000Y-23000000D03*
X34500000Y-12000000D03*
X42000000Y-22000000D03*
X45000000Y-25000000D03*
D37*
X1000000Y-19500000D03*
X10000000Y-30000000D03*
D36*
X30000000Y-8000000D03*
X33000000Y-8000000D03*
X45500000Y-33000000D03*
X27000000Y-27000000D03*
X28000000Y-26000000D03*
X29000000Y-27000000D03*
X28000000Y-28000000D03*
X36000000Y-26000000D03*
X36500000Y-20000000D03*
X36500000Y-18000000D03*
D37*
X45000000Y-23237437D03*
X43762563Y-22000000D03*
X46237437Y-22000000D03*
X45000000Y-20762563D03*
X46500000Y-29500000D03*
X36500000Y-30000000D03*
D36*
X28000000Y-27000000D03*
D37*
X12000000Y-32000000D03*
D36*
X9500000Y-13500000D03*
X10500000Y-9500000D03*
X31500000Y-30500000D03*
X31000000Y-34000000D03*
X28000000Y-35000000D03*
X29000000Y-35000000D03*
X29000000Y-34000000D03*
X30000000Y-35000000D03*
D37*
X59500000Y-34000000D03*
X60500000Y-34000000D03*
X61500000Y-34000000D03*
X62500000Y-34000000D03*
X61500000Y-33000000D03*
X60500000Y-33000000D03*
X59500000Y-33000000D03*
X58500000Y-33000000D03*
X58500000Y-34000000D03*
X58500000Y-32000000D03*
X59500000Y-32000000D03*
X60500000Y-32000000D03*
X61500000Y-32000000D03*
X62500000Y-32000000D03*
X63500000Y-32000000D03*
X64500000Y-32000000D03*
X64500000Y-33000000D03*
X64500000Y-34000000D03*
X63500000Y-34000000D03*
X63500000Y-33000000D03*
X62500000Y-33000000D03*
D36*
X58500000Y-24000000D03*
X54000000Y-21000000D03*
X64000000Y-28000000D03*
X57500000Y-27000000D03*
X54000000Y-27000000D03*
X57500000Y-11000000D03*
X64000000Y-10500000D03*
X19500000Y-29000000D03*
X19500000Y-27000000D03*
X19500000Y-25000000D03*
X19500000Y-23000000D03*
X54000000Y-25000000D03*
X57500000Y-18500000D03*
X54000000Y-23000000D03*
X64000000Y-19000000D03*
X79000000Y-8500000D03*
D37*
X70500000Y-9500000D03*
X70500000Y-8500000D03*
X70500000Y-7500000D03*
X71500000Y-7500000D03*
X71500000Y-8500000D03*
X72500000Y-8500000D03*
X72500000Y-7500000D03*
X73500000Y-7500000D03*
X73500000Y-8500000D03*
X74500000Y-8500000D03*
X74500000Y-7500000D03*
X72500000Y-11500000D03*
X72500000Y-10500000D03*
X73500000Y-10500000D03*
X74500000Y-10500000D03*
X74500000Y-9500000D03*
X73500000Y-9500000D03*
X72500000Y-9500000D03*
X71500000Y-9500000D03*
X71500000Y-10500000D03*
X70500000Y-6500000D03*
X71500000Y-6500000D03*
X72500000Y-6500000D03*
X73500000Y-6500000D03*
X74500000Y-6500000D03*
X75500000Y-6500000D03*
X75500000Y-7500000D03*
X75500000Y-8500000D03*
X75500000Y-9500000D03*
X75500000Y-10500000D03*
X75500000Y-11500000D03*
X74500000Y-11500000D03*
X73500000Y-11500000D03*
D36*
X53500000Y-14000000D03*
X69500000Y-11500000D03*
X15000000Y-23000000D03*
X81000000Y-8000000D03*
D37*
X82000000Y-32000000D03*
X82000000Y-33000000D03*
X82000000Y-34000000D03*
X42500000Y-8000000D03*
X87000000Y-33000000D03*
X87000000Y-32000000D03*
X86000000Y-32000000D03*
X86000000Y-33000000D03*
X86000000Y-34000000D03*
X85000000Y-34000000D03*
X85000000Y-33000000D03*
X85000000Y-32000000D03*
X84000000Y-32000000D03*
X84000000Y-33000000D03*
X84000000Y-34000000D03*
X83000000Y-34000000D03*
X83000000Y-33000000D03*
X83000000Y-32000000D03*
X88000000Y-32000000D03*
X88000000Y-33000000D03*
X88000000Y-34000000D03*
X87000000Y-34000000D03*
X88000000Y-6000000D03*
X88000000Y-7500000D03*
X88000000Y-9000000D03*
X88000000Y-10500000D03*
X88000000Y-12000000D03*
X88000000Y-13500000D03*
X88000000Y-15000000D03*
X88000000Y-16500000D03*
X88000000Y-18000000D03*
X88000000Y-19500000D03*
X88000000Y-21000000D03*
X88000000Y-22500000D03*
X88000000Y-24000000D03*
X88000000Y-25500000D03*
X88000000Y-27000000D03*
X88000000Y-28500000D03*
X88000000Y-30000000D03*
D36*
X81000000Y-13000000D03*
X15000000Y-29000000D03*
X53500000Y-13000000D03*
X67500000Y-9500000D03*
X54000000Y-22000000D03*
X56500000Y-11000000D03*
X64000000Y-9500000D03*
X67500000Y-8500000D03*
X79500000Y-18500000D03*
D37*
X71000000Y-18500000D03*
X71000000Y-17500000D03*
X71000000Y-16500000D03*
X72000000Y-16500000D03*
X72000000Y-17500000D03*
X73000000Y-17500000D03*
X73000000Y-16500000D03*
X74000000Y-16500000D03*
X74000000Y-17500000D03*
X75000000Y-17500000D03*
X75000000Y-16500000D03*
X76000000Y-16500000D03*
X76000000Y-17500000D03*
X75000000Y-18500000D03*
X74000000Y-19500000D03*
X73000000Y-19500000D03*
X72000000Y-19500000D03*
X72000000Y-18500000D03*
X73000000Y-18500000D03*
X74000000Y-18500000D03*
X76000000Y-14500000D03*
X75000000Y-14500000D03*
X74000000Y-14500000D03*
X73000000Y-14500000D03*
X72000000Y-14500000D03*
X71000000Y-14500000D03*
X71000000Y-15500000D03*
X72000000Y-15500000D03*
X73000000Y-15500000D03*
X74000000Y-15500000D03*
X75000000Y-15500000D03*
X76000000Y-15500000D03*
D36*
X54500000Y-14000000D03*
X68000000Y-12500000D03*
X15000000Y-25000000D03*
X79000000Y-17000000D03*
X67500000Y-18000000D03*
X54000000Y-24000000D03*
X56500000Y-17500000D03*
X64000000Y-16500000D03*
X67500000Y-16500000D03*
X80000000Y-27000000D03*
D37*
X70500000Y-26000000D03*
X70500000Y-25000000D03*
X71500000Y-25000000D03*
X71500000Y-26000000D03*
X72500000Y-26000000D03*
X72500000Y-25000000D03*
X73500000Y-25000000D03*
X73500000Y-26000000D03*
X74500000Y-26000000D03*
X74500000Y-25000000D03*
X75500000Y-25000000D03*
X75500000Y-26000000D03*
X75500000Y-29000000D03*
X74500000Y-29000000D03*
X73500000Y-29000000D03*
X72500000Y-29000000D03*
X71500000Y-29000000D03*
X70500000Y-29000000D03*
X70500000Y-28000000D03*
X71500000Y-28000000D03*
X72500000Y-28000000D03*
X73500000Y-28000000D03*
X74500000Y-28000000D03*
X75500000Y-28000000D03*
X75500000Y-27000000D03*
X74500000Y-27000000D03*
X73500000Y-27000000D03*
X72500000Y-27000000D03*
X71500000Y-27000000D03*
X70500000Y-27000000D03*
X70500000Y-24000000D03*
X71500000Y-24000000D03*
X72500000Y-24000000D03*
X73500000Y-24000000D03*
X74500000Y-24000000D03*
X75500000Y-24000000D03*
X76500000Y-24000000D03*
X76500000Y-25000000D03*
X76500000Y-26000000D03*
X76500000Y-27000000D03*
X76500000Y-28000000D03*
X76500000Y-29000000D03*
D36*
X55500000Y-14000000D03*
X68000000Y-13500000D03*
X15000000Y-27000000D03*
X79500000Y-26000000D03*
X67500000Y-26000000D03*
X64000000Y-25000000D03*
X67500000Y-22500000D03*
X53000000Y-30500000D03*
X39000000Y-17500000D03*
X40000000Y-18500000D03*
X27000000Y-20500000D03*
X49000000Y-31500000D03*
X26000000Y-20500000D03*
X49000000Y-32500000D03*
X49000000Y-33500000D03*
X25000000Y-21500000D03*
X21000000Y-28500000D03*
X35000000Y-19000000D03*
X22000000Y-29000000D03*
X32000000Y-34000000D03*
X40000000Y-32500000D03*
X39500000Y-31500000D03*
X25000000Y-25500000D03*
X25000000Y-26500000D03*
D37*
X16000000Y-85000000D03*
X16000000Y-86000000D03*
X16000000Y-87000000D03*
X15000000Y-87000000D03*
X15000000Y-86000000D03*
X15000000Y-85000000D03*
D36*
X25000000Y-78500000D03*
D37*
X36000000Y-90500000D03*
X36000000Y-89500000D03*
X36000000Y-88500000D03*
X36000000Y-87500000D03*
X36000000Y-86500000D03*
X36000000Y-85500000D03*
X36000000Y-84500000D03*
X36000000Y-83500000D03*
X36000000Y-82500000D03*
X51000000Y-83000000D03*
X51000000Y-84000000D03*
X51000000Y-85000000D03*
X51000000Y-86000000D03*
X51000000Y-87000000D03*
X49000000Y-82000000D03*
X48000000Y-82000000D03*
X47000000Y-82000000D03*
X47000000Y-83000000D03*
X47000000Y-84000000D03*
X48000000Y-84000000D03*
X48000000Y-83000000D03*
X49000000Y-83000000D03*
X49000000Y-84000000D03*
X49000000Y-85000000D03*
X48000000Y-85000000D03*
X47000000Y-85000000D03*
X50000000Y-87000000D03*
X50000000Y-86000000D03*
X50000000Y-85000000D03*
X50000000Y-84000000D03*
X50000000Y-83000000D03*
X50000000Y-82000000D03*
X51000000Y-82000000D03*
X52000000Y-82000000D03*
X53000000Y-82000000D03*
X54000000Y-82000000D03*
X55000000Y-82000000D03*
X56000000Y-82000000D03*
X56000000Y-83000000D03*
X56000000Y-84000000D03*
X56000000Y-85000000D03*
X56000000Y-86000000D03*
X56000000Y-87000000D03*
X56000000Y-88000000D03*
X55000000Y-88000000D03*
X54000000Y-88000000D03*
X53000000Y-88000000D03*
X52000000Y-88000000D03*
X51000000Y-88000000D03*
X50000000Y-88000000D03*
X36000000Y-96000000D03*
X35000000Y-96000000D03*
X34000000Y-96000000D03*
X33000000Y-96000000D03*
X32000000Y-96000000D03*
X31000000Y-96000000D03*
X30000000Y-96000000D03*
X29000000Y-96000000D03*
X28000000Y-96000000D03*
X27000000Y-96000000D03*
X26000000Y-96000000D03*
X25000000Y-96000000D03*
X24000000Y-96000000D03*
X23000000Y-96000000D03*
X22000000Y-96000000D03*
X21000000Y-96000000D03*
X20000000Y-96000000D03*
X19000000Y-96000000D03*
X18000000Y-96000000D03*
X73500000Y-80000000D03*
X73500000Y-83500000D03*
X64500000Y-75000000D03*
X56500000Y-71000000D03*
X58000000Y-99000000D03*
X65000000Y-96000000D03*
X65000000Y-86500000D03*
X55500000Y-89500000D03*
X65000000Y-80000000D03*
X58000000Y-86500000D03*
D36*
X75000000Y-94000000D03*
X72500000Y-93000000D03*
X72500000Y-81500000D03*
D37*
X15000000Y-81000000D03*
X16000000Y-81000000D03*
X16000000Y-82000000D03*
X16000000Y-83000000D03*
X15000000Y-83000000D03*
X15000000Y-82000000D03*
D36*
X74500000Y-67500000D03*
D37*
X56500000Y-68000000D03*
X64500000Y-70000000D03*
X64500000Y-63500000D03*
X56500000Y-59000000D03*
X65000000Y-81500000D03*
X58000000Y-81500000D03*
X65000000Y-89500000D03*
X58000000Y-89500000D03*
X74500000Y-69000000D03*
X88000000Y-51000000D03*
X48000000Y-93000000D03*
X48000000Y-94000000D03*
X50000000Y-93000000D03*
X50000000Y-94000000D03*
X50000000Y-95000000D03*
X51000000Y-96000000D03*
X51000000Y-97000000D03*
X51000000Y-93000000D03*
X51000000Y-94000000D03*
X51000000Y-95000000D03*
X49000000Y-93000000D03*
X49000000Y-94000000D03*
X52000000Y-92000000D03*
X53000000Y-92000000D03*
X54000000Y-92000000D03*
X55000000Y-92000000D03*
X47000000Y-94000000D03*
X47000000Y-93000000D03*
X47000000Y-92000000D03*
X48000000Y-92000000D03*
X49000000Y-92000000D03*
X50000000Y-92000000D03*
X51000000Y-92000000D03*
X56000000Y-92000000D03*
X56000000Y-93000000D03*
X56000000Y-94000000D03*
X56000000Y-95000000D03*
X56000000Y-96000000D03*
X56000000Y-97000000D03*
X56000000Y-98000000D03*
X55000000Y-98000000D03*
X54000000Y-98000000D03*
X53000000Y-98000000D03*
X52000000Y-98000000D03*
X51000000Y-98000000D03*
X50000000Y-98000000D03*
X50000000Y-97000000D03*
X50000000Y-96000000D03*
X49000000Y-95000000D03*
X48000000Y-95000000D03*
X47000000Y-95000000D03*
X29000000Y-97500000D03*
X30000000Y-97500000D03*
X31000000Y-97500000D03*
X32000000Y-97500000D03*
X33000000Y-97500000D03*
X34000000Y-97500000D03*
X35000000Y-97500000D03*
X36000000Y-97500000D03*
X27000000Y-99000000D03*
X28000000Y-99000000D03*
X29000000Y-99000000D03*
X30000000Y-99000000D03*
X31000000Y-99000000D03*
X32000000Y-99000000D03*
X33000000Y-99000000D03*
X34000000Y-99000000D03*
X35000000Y-99000000D03*
X36000000Y-99000000D03*
X18000000Y-99000000D03*
X26000000Y-99000000D03*
X25000000Y-99000000D03*
X24000000Y-99000000D03*
X23000000Y-99000000D03*
X22000000Y-99000000D03*
X21000000Y-99000000D03*
X20000000Y-99000000D03*
X19000000Y-99000000D03*
X18000000Y-97500000D03*
X19000000Y-97500000D03*
X20000000Y-97500000D03*
X21000000Y-97500000D03*
X22000000Y-97500000D03*
X23000000Y-97500000D03*
X24000000Y-97500000D03*
X25000000Y-97500000D03*
X26000000Y-97500000D03*
X27000000Y-97500000D03*
X28000000Y-97500000D03*
X65000000Y-94500000D03*
X56500000Y-90500000D03*
X67500000Y-69000000D03*
X64500000Y-66000000D03*
X58000000Y-96500000D03*
X65000000Y-92000000D03*
X57500000Y-61500000D03*
X64500000Y-62000000D03*
X67500000Y-75000000D03*
X67000000Y-63000000D03*
D36*
X73000000Y-72500000D03*
X73500000Y-73500000D03*
X22000000Y-27500000D03*
X35000000Y-23500000D03*
X86000000Y-44500000D03*
X72000000Y-52000000D03*
X71000000Y-55000000D03*
X70000000Y-60000000D03*
X42500000Y-31000000D03*
X25000000Y-28500000D03*
X75000000Y-70000000D03*
X75000000Y-65000000D03*
D38*
X23500000Y-23500000D02*
X24500000Y-23500000D01*
X24500000Y-23500000D02*
X27000000Y-26000000D01*
D39*
X29000000Y-27000000D02*
X30500000Y-28500000D01*
X30500000Y-28500000D02*
X34500000Y-28500000D01*
X34500000Y-28500000D02*
X35500000Y-29500000D01*
X53500000Y-32500000D02*
X52500000Y-32500000D01*
X49500000Y-29500000D02*
X46500000Y-29500000D01*
X52500000Y-32500000D02*
X49500000Y-29500000D01*
D38*
X41792893Y-23292893D02*
X41500000Y-23000000D01*
X41500000Y-22500000D02*
X42000000Y-22000000D01*
X41500000Y-23000000D02*
X41500000Y-22500000D01*
X36000000Y-26000000D02*
X38500000Y-26000000D01*
X36000000Y-26000000D02*
X34500000Y-26000000D01*
X34500000Y-26000000D02*
X34000000Y-25500000D01*
X34000000Y-25500000D02*
X34000000Y-23000000D01*
X33000000Y-8000000D02*
X34500000Y-9500000D01*
X34500000Y-9500000D02*
X34500000Y-12000000D01*
X27000000Y-27000000D02*
X27000000Y-26000000D01*
D39*
X35500000Y-32500000D02*
X38500000Y-35500000D01*
X35500000Y-29500000D02*
X35500000Y-32500000D01*
D38*
X45000000Y-25000000D02*
X42000000Y-22000000D01*
D39*
X3000000Y-17500000D02*
X1000000Y-19500000D01*
D38*
X13000000Y-12365000D02*
X13000000Y-5500000D01*
X4500000Y-3500000D02*
X3000000Y-5000000D01*
X11000000Y-3500000D02*
X4500000Y-3500000D01*
X13000000Y-5500000D02*
X11000000Y-3500000D01*
D39*
X10000000Y-30000000D02*
X10000000Y-29700000D01*
X10100000Y-37000000D02*
X13000000Y-37000000D01*
X13000000Y-37000000D02*
X14500000Y-35500000D01*
D38*
X33000000Y-8000000D02*
X30000000Y-8000000D01*
X45500000Y-33000000D02*
X40500000Y-28000000D01*
X40500000Y-28000000D02*
X38500000Y-26000000D01*
D39*
X10000000Y-29700000D02*
X10000000Y-27100000D01*
X10000000Y-27100000D02*
X10100000Y-27000000D01*
D38*
X14200000Y-12365000D02*
X16135000Y-12365000D01*
X16135000Y-12365000D02*
X16500000Y-12000000D01*
X14200000Y-12365000D02*
X13000000Y-12365000D01*
X13000000Y-12365000D02*
X10500000Y-12365000D01*
X10500000Y-12365000D02*
X10500000Y-12500000D01*
X8800000Y-14905000D02*
X10095000Y-14905000D01*
X10095000Y-11095000D02*
X8800000Y-11095000D01*
X10500000Y-11500000D02*
X10095000Y-11095000D01*
X10500000Y-14500000D02*
X10500000Y-12500000D01*
X10500000Y-12500000D02*
X10500000Y-11500000D01*
X10095000Y-14905000D02*
X10500000Y-14500000D01*
D39*
X3000000Y-5000000D02*
X1000000Y-7000000D01*
X1000000Y-7000000D02*
X1000000Y-15500000D01*
X1000000Y-15500000D02*
X3000000Y-17500000D01*
D38*
X28000000Y-28000000D02*
X27000000Y-27000000D01*
X29000000Y-27000000D02*
X28000000Y-26000000D01*
X28000000Y-28000000D02*
X29000000Y-27000000D01*
D39*
X45000000Y-23237437D02*
X46500000Y-24737437D01*
D38*
X36500000Y-20000000D02*
X36500000Y-19500000D01*
D39*
X43762563Y-22000000D02*
X46237437Y-22000000D01*
X45000000Y-23237437D02*
X45000000Y-20762563D01*
X45000000Y-23237437D02*
X46237437Y-22000000D01*
X46237437Y-22000000D02*
X45000000Y-20762563D01*
X45000000Y-20762563D02*
X43762563Y-22000000D01*
X43762563Y-22000000D02*
X45000000Y-23237437D01*
D38*
X43762563Y-22000000D02*
X42762563Y-21000000D01*
X36500000Y-19500000D02*
X36500000Y-18000000D01*
X38000000Y-21000000D02*
X36500000Y-19500000D01*
X42762563Y-21000000D02*
X38000000Y-21000000D01*
X45000000Y-23237437D02*
X45000000Y-23000000D01*
X43762563Y-22000000D02*
X44000000Y-22000000D01*
D39*
X46237437Y-22000000D02*
X46000000Y-22000000D01*
X45000000Y-20762563D02*
X45000000Y-21000000D01*
D38*
X43207107Y-24707107D02*
X44500000Y-26000000D01*
X44500000Y-26000000D02*
X46500000Y-26000000D01*
D39*
X46500000Y-24737437D02*
X46500000Y-26000000D01*
X46500000Y-26000000D02*
X46500000Y-29500000D01*
X36500000Y-30000000D02*
X37500000Y-30000000D01*
X37500000Y-30000000D02*
X38500000Y-31000000D01*
X38500000Y-31000000D02*
X38500000Y-32500000D01*
X40000000Y-35500000D02*
X40000000Y-34000000D01*
X40000000Y-34000000D02*
X38500000Y-32500000D01*
X14730000Y-33000000D02*
X13000000Y-33000000D01*
X13000000Y-33000000D02*
X12000000Y-32000000D01*
X10000000Y-32000000D02*
X12000000Y-32000000D01*
X6900000Y-27000000D02*
X6900000Y-19100000D01*
X12365000Y-13635000D02*
X14200000Y-13635000D01*
X6900000Y-19100000D02*
X12365000Y-13635000D01*
X6900000Y-27000000D02*
X6900000Y-32000000D01*
X6900000Y-32000000D02*
X7000000Y-32000000D01*
X3700000Y-32000000D02*
X7000000Y-32000000D01*
X7000000Y-32000000D02*
X10000000Y-32000000D01*
D38*
X14200000Y-13635000D02*
X16135000Y-13635000D01*
X16135000Y-13635000D02*
X16500000Y-14000000D01*
D39*
X3000000Y-20000000D02*
X1000000Y-22000000D01*
X3500000Y-37000000D02*
X6900000Y-37000000D01*
X1000000Y-34500000D02*
X3500000Y-37000000D01*
X1000000Y-22000000D02*
X1000000Y-34500000D01*
X6900000Y-37000000D02*
X6900000Y-35100000D01*
X6900000Y-35100000D02*
X7700000Y-34300000D01*
X7700000Y-34300000D02*
X10000000Y-34300000D01*
X16000000Y-35500000D02*
X16000000Y-33000000D01*
D38*
X11000000Y-7500000D02*
X10500000Y-8000000D01*
X9500000Y-13500000D02*
X8935000Y-13500000D01*
X10500000Y-8000000D02*
X10500000Y-9500000D01*
X8935000Y-13500000D02*
X8800000Y-13635000D01*
X5000000Y-14500000D02*
X5865000Y-13635000D01*
X5865000Y-13635000D02*
X8800000Y-13635000D01*
X3000000Y-25000000D02*
X5000000Y-23000000D01*
X5000000Y-14500000D02*
X3000000Y-12500000D01*
X5000000Y-23000000D02*
X5000000Y-14500000D01*
X3000000Y-10000000D02*
X5500000Y-10000000D01*
X5500000Y-10000000D02*
X8000000Y-7500000D01*
X3000000Y-10000000D02*
X5365000Y-12365000D01*
X5365000Y-12365000D02*
X8800000Y-12365000D01*
X23000000Y-37500000D02*
X23500000Y-37000000D01*
X23500000Y-37000000D02*
X30500000Y-37000000D01*
X33000000Y-34500000D02*
X30500000Y-37000000D01*
X33000000Y-33500000D02*
X33000000Y-34500000D01*
X31500000Y-32000000D02*
X33000000Y-33500000D01*
X31500000Y-30500000D02*
X31500000Y-32000000D01*
X19500000Y-37500000D02*
X17500000Y-35500000D01*
X23000000Y-37500000D02*
X19500000Y-37500000D01*
X22500000Y-37000000D02*
X23000000Y-36500000D01*
X23000000Y-36500000D02*
X30000000Y-36500000D01*
X30000000Y-36500000D02*
X31000000Y-35500000D01*
X19000000Y-35500000D02*
X20500000Y-37000000D01*
X31000000Y-35500000D02*
X31000000Y-34000000D01*
X20500000Y-37000000D02*
X22500000Y-37000000D01*
X28000000Y-35000000D02*
X23500000Y-35000000D01*
X22000000Y-34000000D02*
X20500000Y-35500000D01*
X22500000Y-34000000D02*
X22000000Y-34000000D01*
X23500000Y-35000000D02*
X22500000Y-34000000D01*
X22000000Y-35500000D02*
X27000000Y-35500000D01*
X27000000Y-35500000D02*
X27500000Y-36000000D01*
X27500000Y-36000000D02*
X28000000Y-36000000D01*
X28000000Y-36000000D02*
X29000000Y-35000000D01*
X8000000Y-4960000D02*
X8540000Y-5500000D01*
X8540000Y-5500000D02*
X11000000Y-5500000D01*
X14200000Y-14905000D02*
X15405000Y-14905000D01*
X26500000Y-31500000D02*
X14000000Y-31500000D01*
X14000000Y-31500000D02*
X12000000Y-29500000D01*
X12000000Y-29500000D02*
X12000000Y-21000000D01*
X29000000Y-34000000D02*
X26500000Y-31500000D01*
X16000000Y-17000000D02*
X12000000Y-21000000D01*
X16000000Y-15500000D02*
X16000000Y-17000000D01*
X15405000Y-14905000D02*
X16000000Y-15500000D01*
X12500000Y-21500000D02*
X18000000Y-16000000D01*
X30000000Y-33500000D02*
X27500000Y-31000000D01*
X27500000Y-31000000D02*
X14500000Y-31000000D01*
X14500000Y-31000000D02*
X12500000Y-29000000D01*
X12500000Y-29000000D02*
X12500000Y-21500000D01*
X30000000Y-35000000D02*
X30000000Y-33500000D01*
X17095000Y-11095000D02*
X14200000Y-11095000D01*
X18000000Y-12000000D02*
X17095000Y-11095000D01*
X18000000Y-16000000D02*
X18000000Y-12000000D01*
X59500000Y-34000000D02*
X60500000Y-34000000D01*
X61500000Y-34000000D02*
X62500000Y-34000000D01*
X62500000Y-33000000D02*
X61500000Y-33000000D01*
X60500000Y-33000000D02*
X59500000Y-33000000D01*
X58500000Y-33000000D02*
X58500000Y-34000000D01*
X59500000Y-32000000D02*
X60500000Y-32000000D01*
X61500000Y-32000000D02*
X62500000Y-32000000D01*
X63500000Y-32000000D02*
X64500000Y-32000000D01*
X64500000Y-33000000D02*
X64500000Y-34000000D01*
X63500000Y-34000000D02*
X63500000Y-33000000D01*
X54000000Y-21000000D02*
X54000000Y-17500000D01*
X52500000Y-16000000D02*
X49000000Y-16000000D01*
X54000000Y-17500000D02*
X52500000Y-16000000D01*
X19500000Y-23000000D02*
X19500000Y-21500000D01*
X25000000Y-16000000D02*
X49000000Y-16000000D01*
X19500000Y-21500000D02*
X25000000Y-16000000D01*
X64000000Y-28000000D02*
X64000000Y-30100000D01*
X54000000Y-27000000D02*
X57500000Y-27000000D01*
D39*
X55500000Y-32500000D02*
X58000000Y-32500000D01*
X60400000Y-30100000D02*
X64000000Y-30100000D01*
X58000000Y-32500000D02*
X58500000Y-32000000D01*
X58500000Y-32000000D02*
X60400000Y-30100000D01*
D38*
X57500000Y-15000000D02*
X55500000Y-17000000D01*
X57500000Y-11000000D02*
X57500000Y-15000000D01*
X64000000Y-10500000D02*
X64000000Y-10950000D01*
X19500000Y-27000000D02*
X19500000Y-29000000D01*
X19500000Y-25000000D02*
X19500000Y-27000000D01*
X19500000Y-23000000D02*
X19500000Y-25000000D01*
X56500000Y-22500000D02*
X54000000Y-25000000D01*
X56500000Y-19500000D02*
X56500000Y-22500000D01*
X57500000Y-18500000D02*
X56500000Y-19500000D01*
X55500000Y-21500000D02*
X55500000Y-17000000D01*
X54000000Y-23000000D02*
X55500000Y-21500000D01*
X64000000Y-19000000D02*
X64000000Y-19950000D01*
X79000000Y-8500000D02*
X79550000Y-9050000D01*
X79550000Y-9050000D02*
X79550000Y-10800000D01*
X79550000Y-10800000D02*
X79550000Y-9050000D01*
X80000000Y-10350000D02*
X79550000Y-10800000D01*
X73449320Y-8500000D02*
X72449320Y-9500000D01*
X72449320Y-9500000D02*
X70500000Y-9500000D01*
X70500000Y-8500000D02*
X70500000Y-7500000D01*
X71500000Y-7500000D02*
X71500000Y-8500000D01*
X72500000Y-8500000D02*
X72500000Y-7500000D01*
X73500000Y-7500000D02*
X73500000Y-8500000D01*
X74500000Y-8500000D02*
X74500000Y-7500000D01*
X72500000Y-11500000D02*
X72500000Y-10500000D01*
X73500000Y-10500000D02*
X74500000Y-10500000D01*
X74500000Y-9500000D02*
X73500000Y-9500000D01*
X72500000Y-9500000D02*
X71500000Y-9500000D01*
X71500000Y-10500000D02*
X73449320Y-8500000D01*
X73449320Y-8500000D02*
X71449320Y-6500000D01*
X71449320Y-6500000D02*
X70500000Y-6500000D01*
X71500000Y-6500000D02*
X72500000Y-6500000D01*
X73500000Y-6500000D02*
X74500000Y-6500000D01*
X75500000Y-6500000D02*
X75500000Y-7500000D01*
X75500000Y-8500000D02*
X75500000Y-9500000D01*
X75500000Y-10500000D02*
X75500000Y-11500000D01*
X74500000Y-11500000D02*
X73500000Y-11500000D01*
X53000000Y-14500000D02*
X23500000Y-14500000D01*
X53500000Y-14000000D02*
X53000000Y-14500000D01*
X73449320Y-8500000D02*
X70449320Y-11500000D01*
X70449320Y-11500000D02*
X69500000Y-11500000D01*
X15000000Y-23000000D02*
X23500000Y-14500000D01*
X81200000Y-6200000D02*
X79550000Y-6200000D01*
X81500000Y-6500000D02*
X81200000Y-6200000D01*
X81500000Y-7500000D02*
X81500000Y-6500000D01*
X81000000Y-8000000D02*
X81500000Y-7500000D01*
X82000000Y-32000000D02*
X82000000Y-33000000D01*
D39*
X85449320Y-8500000D02*
X85449320Y-5449320D01*
X85449320Y-5449320D02*
X84000000Y-4000000D01*
X53000000Y-8000000D02*
X42500000Y-8000000D01*
X57000000Y-4000000D02*
X53000000Y-8000000D01*
X84000000Y-4000000D02*
X57000000Y-4000000D01*
D38*
X87000000Y-34000000D02*
X87000000Y-33000000D01*
X87000000Y-32000000D02*
X86000000Y-32000000D01*
X86000000Y-33000000D02*
X86000000Y-34000000D01*
X85000000Y-34000000D02*
X85000000Y-33000000D01*
X85000000Y-32000000D02*
X84000000Y-32000000D01*
X84000000Y-33000000D02*
X84000000Y-34000000D01*
X83000000Y-34000000D02*
X83000000Y-33000000D01*
X85449320Y-29449320D02*
X88000000Y-32000000D01*
X88000000Y-33000000D02*
X88000000Y-34000000D01*
X85449320Y-8500000D02*
X85500000Y-8500000D01*
X85500000Y-8500000D02*
X88000000Y-6000000D01*
X88000000Y-7500000D02*
X88000000Y-9000000D01*
X88000000Y-10500000D02*
X88000000Y-12000000D01*
X88000000Y-13500000D02*
X88000000Y-15000000D01*
X88000000Y-16500000D02*
X88000000Y-18000000D01*
X88000000Y-19500000D02*
X88000000Y-21000000D01*
X88000000Y-22500000D02*
X88000000Y-24000000D01*
X88000000Y-25500000D02*
X88000000Y-27000000D01*
X88000000Y-28500000D02*
X88000000Y-30000000D01*
X85449320Y-26500000D02*
X85449320Y-29449320D01*
X85449320Y-12550680D02*
X85000000Y-13000000D01*
X85000000Y-13000000D02*
X81000000Y-13000000D01*
X85449320Y-8500000D02*
X85449320Y-12550680D01*
X14000000Y-28000000D02*
X15000000Y-29000000D01*
X14000000Y-23000000D02*
X14000000Y-28000000D01*
X23000000Y-14000000D02*
X14000000Y-23000000D01*
X52500000Y-14000000D02*
X23000000Y-14000000D01*
X53500000Y-13000000D02*
X52500000Y-14000000D01*
X67500000Y-9500000D02*
X67500000Y-10750000D01*
X67500000Y-10750000D02*
X67550000Y-10800000D01*
X54000000Y-22000000D02*
X55000000Y-21000000D01*
X55000000Y-21000000D02*
X55000000Y-16500000D01*
X56500000Y-15000000D02*
X55000000Y-16500000D01*
X56500000Y-11000000D02*
X56500000Y-15000000D01*
X64000000Y-6050000D02*
X64000000Y-9500000D01*
X67500000Y-8500000D02*
X67500000Y-6250000D01*
X67500000Y-6250000D02*
X67550000Y-6200000D01*
X79550000Y-19800000D02*
X79550000Y-18550000D01*
X79550000Y-18550000D02*
X79500000Y-18500000D01*
X71000000Y-18500000D02*
X71000000Y-17500000D01*
X71000000Y-16500000D02*
X72000000Y-16500000D01*
X72000000Y-17500000D02*
X73000000Y-17500000D01*
X73000000Y-16500000D02*
X74000000Y-16500000D01*
X74000000Y-17500000D02*
X75000000Y-17500000D01*
X75000000Y-16500000D02*
X73449320Y-17500000D01*
X73449320Y-17500000D02*
X74449320Y-16500000D01*
X74449320Y-16500000D02*
X76000000Y-16500000D01*
X76000000Y-17500000D02*
X75000000Y-18500000D01*
X74000000Y-19500000D02*
X73000000Y-19500000D01*
X72000000Y-19500000D02*
X72000000Y-18500000D01*
X73000000Y-18500000D02*
X74000000Y-18500000D01*
X73449320Y-17500000D02*
X76000000Y-14949320D01*
X76000000Y-14949320D02*
X76000000Y-14500000D01*
X75000000Y-14500000D02*
X74000000Y-14500000D01*
X73000000Y-14500000D02*
X72000000Y-14500000D01*
X71000000Y-14500000D02*
X71000000Y-15500000D01*
X72000000Y-15500000D02*
X73000000Y-15500000D01*
X74000000Y-15500000D02*
X75000000Y-15500000D01*
X76000000Y-15500000D02*
X73449320Y-17500000D01*
X24000000Y-15000000D02*
X53500000Y-15000000D01*
X53500000Y-15000000D02*
X54500000Y-14000000D01*
X15000000Y-25000000D02*
X16000000Y-24000000D01*
X16000000Y-23000000D02*
X24000000Y-15000000D01*
X16000000Y-24000000D02*
X16000000Y-23000000D01*
X73449320Y-13449320D02*
X72500000Y-12500000D01*
X72500000Y-12500000D02*
X68000000Y-12500000D01*
X73449320Y-13449320D02*
X73449320Y-17500000D01*
X79550000Y-16450000D02*
X79550000Y-15200000D01*
X79000000Y-17000000D02*
X79550000Y-16450000D01*
X67550000Y-19800000D02*
X67550000Y-18050000D01*
X67550000Y-18050000D02*
X67500000Y-18000000D01*
X67500000Y-19750000D02*
X67550000Y-19800000D01*
X56000000Y-22000000D02*
X54000000Y-24000000D01*
X56000000Y-18000000D02*
X56000000Y-22000000D01*
X56500000Y-17500000D02*
X56000000Y-18000000D01*
X64000000Y-15050000D02*
X64000000Y-16500000D01*
X67500000Y-16500000D02*
X67500000Y-15250000D01*
X67500000Y-15250000D02*
X67550000Y-15200000D01*
X79550000Y-28800000D02*
X79550000Y-27450000D01*
X79550000Y-27450000D02*
X80000000Y-27000000D01*
X70500000Y-26000000D02*
X70500000Y-25000000D01*
X71500000Y-25000000D02*
X71500000Y-26000000D01*
X72500000Y-26000000D02*
X72500000Y-25000000D01*
X73500000Y-25000000D02*
X73500000Y-26000000D01*
X74500000Y-26000000D02*
X74500000Y-25000000D01*
X75500000Y-25000000D02*
X75500000Y-26000000D01*
X75500000Y-29000000D02*
X74500000Y-29000000D01*
X73500000Y-29000000D02*
X72500000Y-29000000D01*
X71500000Y-29000000D02*
X70500000Y-29000000D01*
X70500000Y-28000000D02*
X71500000Y-28000000D01*
X72500000Y-28000000D02*
X73500000Y-28000000D01*
X74500000Y-28000000D02*
X75500000Y-28000000D01*
X75500000Y-27000000D02*
X74500000Y-27000000D01*
X73500000Y-27000000D02*
X72500000Y-27000000D01*
X71500000Y-27000000D02*
X70500000Y-27000000D01*
X73449320Y-26500000D02*
X70949320Y-24000000D01*
X70949320Y-24000000D02*
X70500000Y-24000000D01*
X71500000Y-24000000D02*
X72500000Y-24000000D01*
X73500000Y-24000000D02*
X74500000Y-24000000D01*
X75500000Y-24000000D02*
X76500000Y-24000000D01*
X76500000Y-25000000D02*
X76500000Y-26000000D01*
X76500000Y-27000000D02*
X76500000Y-28000000D01*
X76500000Y-29000000D02*
X73449320Y-26500000D01*
X54000000Y-15500000D02*
X24500000Y-15500000D01*
X55500000Y-14000000D02*
X54000000Y-15500000D01*
X69500000Y-22550680D02*
X69500000Y-14000000D01*
X69500000Y-14000000D02*
X69000000Y-13500000D01*
X69000000Y-13500000D02*
X68000000Y-13500000D01*
X69500000Y-22550680D02*
X73449320Y-26500000D01*
X16500000Y-23500000D02*
X24500000Y-15500000D01*
X16500000Y-25500000D02*
X16500000Y-23500000D01*
X15000000Y-27000000D02*
X16500000Y-25500000D01*
X79550000Y-24200000D02*
X79550000Y-25950000D01*
X79550000Y-25950000D02*
X79500000Y-26000000D01*
X67550000Y-28800000D02*
X67550000Y-26050000D01*
X67550000Y-26050000D02*
X67500000Y-26000000D01*
X64000000Y-25000000D02*
X64000000Y-24050000D01*
X67550000Y-22550000D02*
X67550000Y-24200000D01*
X67500000Y-22500000D02*
X67550000Y-22550000D01*
D39*
X39000000Y-17500000D02*
X49000000Y-17500000D01*
X49000000Y-17500000D02*
X50000000Y-18500000D01*
X51500000Y-29000000D02*
X51500000Y-20000000D01*
X53000000Y-30500000D02*
X51500000Y-29000000D01*
X50000000Y-18500000D02*
X51500000Y-20000000D01*
D38*
X40000000Y-18500000D02*
X39000000Y-17500000D01*
X27000000Y-20500000D02*
X36000000Y-20500000D01*
X36000000Y-20500000D02*
X47000000Y-31500000D01*
X47000000Y-31500000D02*
X49000000Y-31500000D01*
X26000000Y-20500000D02*
X26000000Y-21000000D01*
X26500000Y-21500000D02*
X27500000Y-21500000D01*
X26000000Y-21000000D02*
X26500000Y-21500000D01*
X35500000Y-21000000D02*
X47000000Y-32500000D01*
X28000000Y-21000000D02*
X35500000Y-21000000D01*
X27500000Y-21500000D02*
X28000000Y-21000000D01*
X47000000Y-32500000D02*
X49000000Y-32500000D01*
X49000000Y-32500000D02*
X47000000Y-32500000D01*
X28000000Y-22000000D02*
X25500000Y-22000000D01*
X25500000Y-22000000D02*
X25000000Y-21500000D01*
X47000000Y-33500000D02*
X35000000Y-21500000D01*
X28500000Y-21500000D02*
X28000000Y-22000000D01*
X35000000Y-21500000D02*
X28500000Y-21500000D01*
X49000000Y-33500000D02*
X47000000Y-33500000D01*
X21000000Y-21000000D02*
X25500000Y-16500000D01*
X32500000Y-16500000D02*
X35000000Y-19000000D01*
X25500000Y-16500000D02*
X32500000Y-16500000D01*
X21000000Y-28500000D02*
X21000000Y-21000000D01*
X25000000Y-30000000D02*
X30000000Y-30000000D01*
X30000000Y-30000000D02*
X31000000Y-31000000D01*
X31000000Y-31000000D02*
X31000000Y-33000000D01*
X22000000Y-29000000D02*
X24000000Y-29000000D01*
X24000000Y-29000000D02*
X25000000Y-30000000D01*
X32000000Y-34000000D02*
X31000000Y-33000000D01*
X40000000Y-32500000D02*
X42500000Y-32500000D01*
X42500000Y-32500000D02*
X44500000Y-34500000D01*
X44500000Y-34500000D02*
X44500000Y-35500000D01*
X40500000Y-31500000D02*
X41000000Y-32000000D01*
X41000000Y-32000000D02*
X43000000Y-32000000D01*
X46000000Y-35500000D02*
X46000000Y-35000000D01*
X46000000Y-35000000D02*
X43000000Y-32000000D01*
X40500000Y-31500000D02*
X39500000Y-31500000D01*
X33000000Y-29500000D02*
X33000000Y-31500000D01*
X33000000Y-31500000D02*
X34000000Y-32500000D01*
X50000000Y-36000000D02*
X49000000Y-37000000D01*
X49000000Y-37000000D02*
X36000000Y-37000000D01*
X36000000Y-37000000D02*
X34000000Y-35000000D01*
X34000000Y-35000000D02*
X34000000Y-32500000D01*
X33000000Y-29500000D02*
X32500000Y-29000000D01*
X32500000Y-29000000D02*
X27500000Y-29000000D01*
X27500000Y-29000000D02*
X26000000Y-27500000D01*
X26000000Y-27500000D02*
X26000000Y-26500000D01*
X26000000Y-26500000D02*
X25000000Y-25500000D01*
X32500000Y-30000000D02*
X32500000Y-32000000D01*
X32500000Y-32000000D02*
X33500000Y-33000000D01*
X25000000Y-26500000D02*
X25500000Y-27000000D01*
X25500000Y-27000000D02*
X25500000Y-28000000D01*
X51040000Y-37500000D02*
X52540000Y-36000000D01*
X35500000Y-37500000D02*
X51040000Y-37500000D01*
X33500000Y-35500000D02*
X35500000Y-37500000D01*
X33500000Y-33000000D02*
X33500000Y-35500000D01*
X32000000Y-29500000D02*
X32500000Y-30000000D01*
X27000000Y-29500000D02*
X32000000Y-29500000D01*
X25500000Y-28000000D02*
X27000000Y-29500000D01*
D40*
X18500000Y-78500000D02*
X15531500Y-75531500D01*
X19000000Y-67500000D02*
X10500000Y-67500000D01*
X10500000Y-67500000D02*
X12000000Y-67500000D01*
X12000000Y-67500000D02*
X10500000Y-67500000D01*
X28000000Y-64500000D02*
X22000000Y-64500000D01*
X22000000Y-64500000D02*
X19000000Y-67500000D01*
X42000000Y-67500000D02*
X31000000Y-67500000D01*
X31000000Y-67500000D02*
X28000000Y-64500000D01*
D39*
X16000000Y-85000000D02*
X16000000Y-86000000D01*
X16000000Y-87000000D02*
X15000000Y-87000000D01*
X15000000Y-86000000D02*
X15000000Y-85000000D01*
D38*
X25000000Y-78500000D02*
X18500000Y-78500000D01*
X18500000Y-78500000D02*
X19000000Y-79000000D01*
D40*
X15400300Y-86000000D02*
X17500000Y-86000000D01*
X15531500Y-75531500D02*
X6500000Y-75531500D01*
X18500000Y-85000000D02*
X18500000Y-78500000D01*
X17500000Y-86000000D02*
X18500000Y-85000000D01*
X6500000Y-75531500D02*
X10500000Y-71531500D01*
X10500000Y-71531500D02*
X10500000Y-67500000D01*
X10500000Y-67500000D02*
X10500000Y-63000000D01*
X3500000Y-61250060D02*
X6281560Y-61250060D01*
X6281560Y-61250060D02*
X6500000Y-61468500D01*
X6500000Y-61468500D02*
X8968500Y-61468500D01*
X8968500Y-61468500D02*
X10500000Y-63000000D01*
X6500000Y-70468500D02*
X6281560Y-70250060D01*
X6281560Y-70250060D02*
X3500000Y-70250060D01*
D39*
X36000000Y-90500000D02*
X36000000Y-89500000D01*
X36000000Y-88500000D02*
X36000000Y-87500000D01*
X36000000Y-86500000D02*
X36000000Y-85500000D01*
X36000000Y-84500000D02*
X36000000Y-83500000D01*
X51000000Y-83000000D02*
X51000000Y-84000000D01*
X51000000Y-85000000D02*
X51000000Y-86000000D01*
X49000000Y-82000000D02*
X48000000Y-82000000D01*
X47000000Y-82000000D02*
X47000000Y-83000000D01*
X47000000Y-84000000D02*
X48000000Y-84000000D01*
X48000000Y-83000000D02*
X49000000Y-83000000D01*
X49000000Y-84000000D02*
X49000000Y-85000000D01*
X48000000Y-85000000D02*
X47000000Y-85000000D01*
X50000000Y-88000000D02*
X50000000Y-87000000D01*
X50000000Y-86000000D02*
X50000000Y-85000000D01*
X50000000Y-84000000D02*
X50000000Y-83000000D01*
X50000000Y-82000000D02*
X51000000Y-82000000D01*
X52000000Y-82000000D02*
X53000000Y-82000000D01*
X54000000Y-82000000D02*
X55000000Y-82000000D01*
X56000000Y-82000000D02*
X56000000Y-83000000D01*
X56000000Y-84000000D02*
X56000000Y-85000000D01*
X56000000Y-86000000D02*
X56000000Y-87000000D01*
X56000000Y-88000000D02*
X55000000Y-88000000D01*
X54000000Y-88000000D02*
X53000000Y-88000000D01*
X52000000Y-88000000D02*
X51000000Y-88000000D01*
X36000000Y-96000000D02*
X35000000Y-96000000D01*
X34000000Y-96000000D02*
X33000000Y-96000000D01*
X32000000Y-96000000D02*
X31000000Y-96000000D01*
X30000000Y-96000000D02*
X29000000Y-96000000D01*
X28000000Y-96000000D02*
X27000000Y-96000000D01*
X26000000Y-96000000D02*
X25000000Y-96000000D01*
X24000000Y-96000000D02*
X23000000Y-96000000D01*
X22000000Y-96000000D02*
X21000000Y-96000000D01*
X20000000Y-96000000D02*
X19000000Y-96000000D01*
X73500000Y-83500000D02*
X73500000Y-80000000D01*
D40*
X10599700Y-82000000D02*
X10599700Y-86000000D01*
X10599700Y-86000000D02*
X8131200Y-88468500D01*
X8131200Y-88468500D02*
X6500000Y-88468500D01*
D39*
X60500000Y-75000000D02*
X64500000Y-75000000D01*
X56500000Y-71000000D02*
X60500000Y-75000000D01*
X58000000Y-99000000D02*
X62000000Y-99000000D01*
X62000000Y-99000000D02*
X65000000Y-96000000D01*
X63000000Y-88500000D02*
X65000000Y-86500000D01*
X57500000Y-88500000D02*
X63000000Y-88500000D01*
X56500000Y-89500000D02*
X57500000Y-88500000D01*
X55500000Y-89500000D02*
X56500000Y-89500000D01*
X65000000Y-80000000D02*
X58500000Y-86500000D01*
X58500000Y-86500000D02*
X58000000Y-86500000D01*
D38*
X72500000Y-93000000D02*
X73500000Y-94000000D01*
X73500000Y-94000000D02*
X75000000Y-94000000D01*
X72500000Y-81500000D02*
X72500000Y-86500000D01*
X72500000Y-86500000D02*
X72500000Y-93000000D01*
X71700000Y-67235000D02*
X72765000Y-67235000D01*
X72765000Y-67235000D02*
X74000000Y-66000000D01*
X74000000Y-66000000D02*
X76000000Y-66000000D01*
X71700000Y-72235000D02*
X70735000Y-72235000D01*
X70735000Y-72235000D02*
X70500000Y-72000000D01*
X70500000Y-72000000D02*
X70500000Y-67500000D01*
X70500000Y-67500000D02*
X70765000Y-67235000D01*
X70765000Y-67235000D02*
X71700000Y-67235000D01*
D39*
X66300000Y-67235000D02*
X62735000Y-67235000D01*
X62735000Y-67235000D02*
X61000000Y-65500000D01*
X61000000Y-65500000D02*
X61000000Y-63500000D01*
X64500000Y-70000000D02*
X64500000Y-72000000D01*
X64500000Y-72000000D02*
X64735000Y-72235000D01*
X64735000Y-72235000D02*
X66300000Y-72235000D01*
D38*
X74500000Y-67500000D02*
X76000000Y-66000000D01*
X76000000Y-66000000D02*
X76500000Y-65500000D01*
X76500000Y-65500000D02*
X76500000Y-44500000D01*
X76500000Y-44500000D02*
X77500000Y-43500000D01*
X83500000Y-43500000D02*
X86020000Y-46020000D01*
X86020000Y-46020000D02*
X96660000Y-46020000D01*
X60000000Y-50000000D02*
X66500000Y-50000000D01*
D39*
X66500000Y-44000000D02*
X66500000Y-50000000D01*
X66500000Y-50000000D02*
X66500000Y-61500000D01*
X66500000Y-61500000D02*
X66531500Y-61468500D01*
X15000000Y-81000000D02*
X16000000Y-81000000D01*
X16000000Y-82000000D02*
X16000000Y-83000000D01*
X15000000Y-83000000D02*
X15000000Y-82000000D01*
X64500000Y-63500000D02*
X66531500Y-61468500D01*
X65000000Y-89500000D02*
X67500000Y-89500000D01*
X74820000Y-96820000D02*
X78880000Y-96820000D01*
X67500000Y-89500000D02*
X74820000Y-96820000D01*
D38*
X77500000Y-43500000D02*
X83500000Y-43500000D01*
D39*
X56500000Y-69000000D02*
X56500000Y-68000000D01*
X57500000Y-70000000D02*
X56500000Y-69000000D01*
X64500000Y-70000000D02*
X57500000Y-70000000D01*
X64500000Y-63500000D02*
X61000000Y-63500000D01*
X61000000Y-63500000D02*
X58000000Y-63500000D01*
X58000000Y-63500000D02*
X56500000Y-62000000D01*
X56500000Y-62000000D02*
X56500000Y-59000000D01*
X66000000Y-80500000D02*
X65000000Y-81500000D01*
X66000000Y-79000000D02*
X66000000Y-80500000D01*
X65500000Y-78500000D02*
X66000000Y-79000000D01*
X61000000Y-78500000D02*
X65500000Y-78500000D01*
X58000000Y-81500000D02*
X61000000Y-78500000D01*
X65000000Y-89500000D02*
X58000000Y-89500000D01*
X74500000Y-69000000D02*
X77000000Y-66500000D01*
X88000000Y-51000000D02*
X81000000Y-44000000D01*
X81000000Y-44000000D02*
X78000000Y-44000000D01*
X77000000Y-45000000D02*
X77000000Y-66500000D01*
X78000000Y-44000000D02*
X77000000Y-45000000D01*
X48000000Y-93000000D02*
X48000000Y-94000000D01*
X50000000Y-92000000D02*
X50000000Y-93000000D01*
X50000000Y-94000000D02*
X50000000Y-95000000D01*
X51000000Y-96000000D02*
X51000000Y-97000000D01*
X51000000Y-92000000D02*
X51000000Y-93000000D01*
X51000000Y-94000000D02*
X51000000Y-95000000D01*
X49000000Y-92000000D02*
X49000000Y-93000000D01*
X51000000Y-92000000D02*
X52000000Y-92000000D01*
X53000000Y-92000000D02*
X54000000Y-92000000D01*
X47000000Y-94000000D02*
X47000000Y-93000000D01*
X47000000Y-92000000D02*
X48000000Y-92000000D01*
X49000000Y-92000000D02*
X50000000Y-92000000D01*
X56000000Y-92000000D02*
X56000000Y-93000000D01*
X56000000Y-94000000D02*
X56000000Y-95000000D01*
X56000000Y-96000000D02*
X56000000Y-97000000D01*
X56000000Y-98000000D02*
X55000000Y-98000000D01*
X54000000Y-98000000D02*
X53000000Y-98000000D01*
X52000000Y-98000000D02*
X51000000Y-98000000D01*
X50000000Y-98000000D02*
X50000000Y-97000000D01*
X50000000Y-96000000D02*
X49000000Y-95000000D01*
X48000000Y-95000000D02*
X47000000Y-95000000D01*
X29000000Y-97500000D02*
X30000000Y-97500000D01*
X31000000Y-97500000D02*
X32000000Y-97500000D01*
X33000000Y-97500000D02*
X34000000Y-97500000D01*
X35000000Y-97500000D02*
X36000000Y-97500000D01*
X18000000Y-99000000D02*
X18000000Y-97500000D01*
X28000000Y-99000000D02*
X29000000Y-99000000D01*
X30000000Y-99000000D02*
X31000000Y-99000000D01*
X32000000Y-99000000D02*
X33000000Y-99000000D01*
X34000000Y-99000000D02*
X35000000Y-99000000D01*
X24000000Y-99000000D02*
X25000000Y-99000000D01*
X22000000Y-99000000D02*
X23000000Y-99000000D01*
X20000000Y-99000000D02*
X21000000Y-99000000D01*
X18000000Y-99000000D02*
X19000000Y-99000000D01*
X26000000Y-99000000D02*
X27000000Y-99000000D01*
X19000000Y-97500000D02*
X20000000Y-97500000D01*
X21000000Y-97500000D02*
X22000000Y-97500000D01*
X23000000Y-97500000D02*
X24000000Y-97500000D01*
X25000000Y-97500000D02*
X26000000Y-97500000D01*
X27000000Y-97500000D02*
X28000000Y-97500000D01*
X65000000Y-94500000D02*
X66000000Y-93500000D01*
X66000000Y-93500000D02*
X66000000Y-91500000D01*
X66000000Y-91500000D02*
X65000000Y-90500000D01*
X65000000Y-90500000D02*
X56500000Y-90500000D01*
X66300000Y-69695000D02*
X66805000Y-69695000D01*
X66805000Y-69695000D02*
X67500000Y-69000000D01*
X66300000Y-64695000D02*
X64805000Y-64695000D01*
X64805000Y-64695000D02*
X64500000Y-65000000D01*
X64500000Y-65000000D02*
X64500000Y-66000000D01*
X58000000Y-96500000D02*
X60500000Y-96500000D01*
X60500000Y-96500000D02*
X65000000Y-92000000D01*
X58000000Y-62000000D02*
X57500000Y-61500000D01*
X64500000Y-62000000D02*
X58000000Y-62000000D01*
X66300000Y-70965000D02*
X66965000Y-70965000D01*
X66965000Y-70965000D02*
X67500000Y-71500000D01*
X67500000Y-71500000D02*
X67500000Y-75000000D01*
X66300000Y-65965000D02*
X67535000Y-65965000D01*
X67535000Y-65965000D02*
X68000000Y-65500000D01*
X68000000Y-65500000D02*
X68000000Y-64000000D01*
X68000000Y-64000000D02*
X67000000Y-63000000D01*
D38*
X73500000Y-70000000D02*
X73500000Y-72000000D01*
X74080000Y-71420000D02*
X78880000Y-71420000D01*
X73000000Y-72500000D02*
X73500000Y-72000000D01*
X73500000Y-72000000D02*
X74080000Y-71420000D01*
X75000000Y-73960000D02*
X75000000Y-72500000D01*
X78880000Y-73960000D02*
X75000000Y-73960000D01*
X75000000Y-73960000D02*
X73960000Y-73960000D01*
X73960000Y-73960000D02*
X73500000Y-73500000D01*
D40*
X3500000Y-66749940D02*
X6281560Y-66749940D01*
X6281560Y-66749940D02*
X6500000Y-66531500D01*
X3500000Y-57749940D02*
X6281560Y-57749940D01*
X6281560Y-57749940D02*
X6500000Y-57531500D01*
D38*
X24500000Y-22000000D02*
X22500000Y-22000000D01*
X22500000Y-22000000D02*
X21500000Y-23000000D01*
X21500000Y-23000000D02*
X21500000Y-27000000D01*
X21500000Y-27000000D02*
X22000000Y-27500000D01*
X35000000Y-23500000D02*
X35000000Y-22500000D01*
X35000000Y-22500000D02*
X34500000Y-22000000D01*
X34500000Y-22000000D02*
X29000000Y-22000000D01*
X29000000Y-22000000D02*
X28500000Y-22500000D01*
X28500000Y-22500000D02*
X25000000Y-22500000D01*
X25000000Y-22500000D02*
X24500000Y-22000000D01*
X79500000Y-42000000D02*
X83500000Y-42000000D01*
X83500000Y-42000000D02*
X86000000Y-44500000D01*
X57460000Y-52540000D02*
X57460000Y-46540000D01*
X57460000Y-46540000D02*
X62000000Y-42000000D01*
X62000000Y-42000000D02*
X79500000Y-42000000D01*
X73500000Y-76500000D02*
X70000000Y-73000000D01*
X70000000Y-73000000D02*
X70000000Y-62500000D01*
X70000000Y-62500000D02*
X72000000Y-60500000D01*
X72000000Y-52000000D02*
X72000000Y-60500000D01*
X73500000Y-76500000D02*
X78880000Y-76500000D01*
X71000000Y-60500000D02*
X69500000Y-62000000D01*
X69500000Y-62000000D02*
X69500000Y-73500000D01*
X69500000Y-73500000D02*
X75040000Y-79040000D01*
X78880000Y-79040000D02*
X75040000Y-79040000D01*
X71000000Y-60500000D02*
X71000000Y-55000000D01*
X76500000Y-81500000D02*
X69000000Y-74000000D01*
X69000000Y-74000000D02*
X69000000Y-61000000D01*
X69000000Y-61000000D02*
X70000000Y-60000000D01*
X76500000Y-81500000D02*
X76580000Y-81580000D01*
X76580000Y-81580000D02*
X78880000Y-81580000D01*
X42500000Y-31000000D02*
X38500000Y-27000000D01*
X38500000Y-27000000D02*
X34500000Y-27000000D01*
X34500000Y-27000000D02*
X30500000Y-23000000D01*
X30500000Y-23000000D02*
X24500000Y-23000000D01*
X24500000Y-23000000D02*
X24000000Y-22500000D01*
X24000000Y-22500000D02*
X23000000Y-22500000D01*
X23000000Y-22500000D02*
X22500000Y-23000000D01*
X22500000Y-23000000D02*
X22500000Y-26000000D01*
X22500000Y-26000000D02*
X25000000Y-28500000D01*
X71700000Y-69695000D02*
X71700000Y-68800000D01*
X71700000Y-68800000D02*
X72500000Y-68000000D01*
X72500000Y-68000000D02*
X73500000Y-68000000D01*
X75000000Y-70000000D02*
X75000000Y-70500000D01*
X71700000Y-64695000D02*
X74695000Y-64695000D01*
X74695000Y-64695000D02*
X75000000Y-65000000D01*
D41*
G36*
X61987000Y-10000000D02*
X61988024Y-10005058D01*
X61990935Y-10009319D01*
X61995275Y-10012111D01*
X62000000Y-10013000D01*
X63575299Y-10013000D01*
X63623950Y-10061736D01*
X63867543Y-10162885D01*
X64131300Y-10163115D01*
X64375069Y-10062392D01*
X64424547Y-10013000D01*
X65487000Y-10013000D01*
X65487000Y-13487000D01*
X62000000Y-13487000D01*
X61994942Y-13488024D01*
X61990681Y-13490935D01*
X61987889Y-13495275D01*
X61987000Y-13500000D01*
X61987000Y-19000000D01*
X61988024Y-19005058D01*
X61990935Y-19009319D01*
X61995275Y-19012111D01*
X62000000Y-19013000D01*
X65487000Y-19013000D01*
X65487000Y-22487000D01*
X62000000Y-22487000D01*
X61994942Y-22488024D01*
X61990681Y-22490935D01*
X61987889Y-22495275D01*
X61987000Y-22500000D01*
X61987000Y-28000000D01*
X61988024Y-28005058D01*
X61990935Y-28009319D01*
X61995275Y-28012111D01*
X62000000Y-28013000D01*
X65487000Y-28013000D01*
X65487000Y-34987000D01*
X58013000Y-34987000D01*
X58013000Y-5513000D01*
X61987000Y-5513000D01*
X61987000Y-10000000D01*
X61987000Y-10000000D01*
G37*
X61987000Y-10000000D02*
X61988024Y-10005058D01*
X61990935Y-10009319D01*
X61995275Y-10012111D01*
X62000000Y-10013000D01*
X63575299Y-10013000D01*
X63623950Y-10061736D01*
X63867543Y-10162885D01*
X64131300Y-10163115D01*
X64375069Y-10062392D01*
X64424547Y-10013000D01*
X65487000Y-10013000D01*
X65487000Y-13487000D01*
X62000000Y-13487000D01*
X61994942Y-13488024D01*
X61990681Y-13490935D01*
X61987889Y-13495275D01*
X61987000Y-13500000D01*
X61987000Y-19000000D01*
X61988024Y-19005058D01*
X61990935Y-19009319D01*
X61995275Y-19012111D01*
X62000000Y-19013000D01*
X65487000Y-19013000D01*
X65487000Y-22487000D01*
X62000000Y-22487000D01*
X61994942Y-22488024D01*
X61990681Y-22490935D01*
X61987889Y-22495275D01*
X61987000Y-22500000D01*
X61987000Y-28000000D01*
X61988024Y-28005058D01*
X61990935Y-28009319D01*
X61995275Y-28012111D01*
X62000000Y-28013000D01*
X65487000Y-28013000D01*
X65487000Y-34987000D01*
X58013000Y-34987000D01*
X58013000Y-5513000D01*
X61987000Y-5513000D01*
X61987000Y-10000000D01*
G36*
X88987000Y-34987000D02*
X81513000Y-34987000D01*
X81513000Y-8424701D01*
X81561736Y-8376050D01*
X81662885Y-8132457D01*
X81662977Y-8027159D01*
X81845068Y-7845068D01*
X81950854Y-7686749D01*
X81988000Y-7500000D01*
X81988000Y-6500000D01*
X81950853Y-6313250D01*
X81845068Y-6154932D01*
X81545068Y-5854932D01*
X81513000Y-5833505D01*
X81513000Y-5013000D01*
X88987000Y-5013000D01*
X88987000Y-34987000D01*
X88987000Y-34987000D01*
G37*
X88987000Y-34987000D02*
X81513000Y-34987000D01*
X81513000Y-8424701D01*
X81561736Y-8376050D01*
X81662885Y-8132457D01*
X81662977Y-8027159D01*
X81845068Y-7845068D01*
X81950854Y-7686749D01*
X81988000Y-7500000D01*
X81988000Y-6500000D01*
X81950853Y-6313250D01*
X81845068Y-6154932D01*
X81545068Y-5854932D01*
X81513000Y-5833505D01*
X81513000Y-5013000D01*
X88987000Y-5013000D01*
X88987000Y-34987000D01*
G36*
X80987000Y-25487000D02*
X78000000Y-25487000D01*
X77994942Y-25488024D01*
X77990681Y-25490935D01*
X77987889Y-25495275D01*
X77987000Y-25500000D01*
X77987000Y-28014885D01*
X77979889Y-28050000D01*
X77979889Y-29550000D01*
X77987000Y-29587791D01*
X77987000Y-29987000D01*
X70013000Y-29987000D01*
X70013000Y-23013000D01*
X80987000Y-23013000D01*
X80987000Y-25487000D01*
X80987000Y-25487000D01*
G37*
X80987000Y-25487000D02*
X78000000Y-25487000D01*
X77994942Y-25488024D01*
X77990681Y-25490935D01*
X77987889Y-25495275D01*
X77987000Y-25500000D01*
X77987000Y-28014885D01*
X77979889Y-28050000D01*
X77979889Y-29550000D01*
X77987000Y-29587791D01*
X77987000Y-29987000D01*
X70013000Y-29987000D01*
X70013000Y-23013000D01*
X80987000Y-23013000D01*
X80987000Y-25487000D01*
G36*
X80987000Y-16487000D02*
X78000000Y-16487000D01*
X77994942Y-16488024D01*
X77990681Y-16490935D01*
X77987889Y-16495275D01*
X77987000Y-16500000D01*
X77987000Y-19014885D01*
X77979889Y-19050000D01*
X77979889Y-20550000D01*
X77987000Y-20587791D01*
X77987000Y-20987000D01*
X70013000Y-20987000D01*
X70013000Y-14013000D01*
X80987000Y-14013000D01*
X80987000Y-16487000D01*
X80987000Y-16487000D01*
G37*
X80987000Y-16487000D02*
X78000000Y-16487000D01*
X77994942Y-16488024D01*
X77990681Y-16490935D01*
X77987889Y-16495275D01*
X77987000Y-16500000D01*
X77987000Y-19014885D01*
X77979889Y-19050000D01*
X77979889Y-20550000D01*
X77987000Y-20587791D01*
X77987000Y-20987000D01*
X70013000Y-20987000D01*
X70013000Y-14013000D01*
X80987000Y-14013000D01*
X80987000Y-16487000D01*
G36*
X80987000Y-7487000D02*
X78000000Y-7487000D01*
X77994942Y-7488024D01*
X77990681Y-7490935D01*
X77987889Y-7495275D01*
X77987000Y-7500000D01*
X77987000Y-10014885D01*
X77979889Y-10050000D01*
X77979889Y-11550000D01*
X77987000Y-11587791D01*
X77987000Y-11987000D01*
X70013000Y-11987000D01*
X70013000Y-5013000D01*
X80987000Y-5013000D01*
X80987000Y-7487000D01*
X80987000Y-7487000D01*
G37*
X80987000Y-7487000D02*
X78000000Y-7487000D01*
X77994942Y-7488024D01*
X77990681Y-7490935D01*
X77987889Y-7495275D01*
X77987000Y-7500000D01*
X77987000Y-10014885D01*
X77979889Y-10050000D01*
X77979889Y-11550000D01*
X77987000Y-11587791D01*
X77987000Y-11987000D01*
X70013000Y-11987000D01*
X70013000Y-5013000D01*
X80987000Y-5013000D01*
X80987000Y-7487000D01*
G36*
X68987000Y-24987000D02*
X62513000Y-24987000D01*
X62513000Y-23013000D01*
X68987000Y-23013000D01*
X68987000Y-24987000D01*
X68987000Y-24987000D01*
G37*
X68987000Y-24987000D02*
X62513000Y-24987000D01*
X62513000Y-23013000D01*
X68987000Y-23013000D01*
X68987000Y-24987000D01*
G36*
X67623950Y-14061736D02*
X67867543Y-14162885D01*
X68131300Y-14163115D01*
X68375069Y-14062392D01*
X68424547Y-14013000D01*
X68822864Y-14013000D01*
X68987000Y-14177136D01*
X68987000Y-15987000D01*
X62513000Y-15987000D01*
X62513000Y-14013000D01*
X67575299Y-14013000D01*
X67623950Y-14061736D01*
X67623950Y-14061736D01*
G37*
X67623950Y-14061736D02*
X67867543Y-14162885D01*
X68131300Y-14163115D01*
X68375069Y-14062392D01*
X68424547Y-14013000D01*
X68822864Y-14013000D01*
X68987000Y-14177136D01*
X68987000Y-15987000D01*
X62513000Y-15987000D01*
X62513000Y-14013000D01*
X67575299Y-14013000D01*
X67623950Y-14061736D01*
G36*
X68987000Y-6987000D02*
X62513000Y-6987000D01*
X62513000Y-5013000D01*
X68987000Y-5013000D01*
X68987000Y-6987000D01*
X68987000Y-6987000D01*
G37*
X68987000Y-6987000D02*
X62513000Y-6987000D01*
X62513000Y-5013000D01*
X68987000Y-5013000D01*
X68987000Y-6987000D01*
G36*
X53987000Y-6216798D02*
X52766798Y-7437000D01*
X43157384Y-7437000D01*
X42989488Y-7268811D01*
X42672414Y-7137150D01*
X42329092Y-7136851D01*
X42011789Y-7267958D01*
X41768811Y-7510512D01*
X41637150Y-7827586D01*
X41636851Y-8170908D01*
X41767958Y-8488211D01*
X42010512Y-8731189D01*
X42327586Y-8862850D01*
X42670908Y-8863149D01*
X42988211Y-8732042D01*
X43157548Y-8563000D01*
X53000000Y-8563000D01*
X53215451Y-8520144D01*
X53398101Y-8398101D01*
X53987000Y-7809202D01*
X53987000Y-12549408D01*
X53876050Y-12438264D01*
X53632457Y-12337115D01*
X53368700Y-12336885D01*
X53124931Y-12437608D01*
X52938264Y-12623950D01*
X52837115Y-12867543D01*
X52837023Y-12972841D01*
X52297864Y-13512000D01*
X23000000Y-13512000D01*
X22813250Y-13549147D01*
X22701300Y-13623950D01*
X22654932Y-13654932D01*
X13654932Y-22654932D01*
X13549147Y-22813250D01*
X13512000Y-23000000D01*
X13512000Y-28000000D01*
X13549147Y-28186750D01*
X13618638Y-28290750D01*
X13654932Y-28345068D01*
X14336976Y-29027112D01*
X14336885Y-29131300D01*
X14437608Y-29375069D01*
X14623950Y-29561736D01*
X14867543Y-29662885D01*
X15131300Y-29663115D01*
X15375069Y-29562392D01*
X15561736Y-29376050D01*
X15662885Y-29132457D01*
X15663115Y-28868700D01*
X15562392Y-28624931D01*
X15376050Y-28438264D01*
X15132457Y-28337115D01*
X15027159Y-28337023D01*
X14488000Y-27797864D01*
X14488000Y-27425549D01*
X14623950Y-27561736D01*
X14867543Y-27662885D01*
X15131300Y-27663115D01*
X15375069Y-27562392D01*
X15561736Y-27376050D01*
X15662885Y-27132457D01*
X15662977Y-27027159D01*
X16845068Y-25845068D01*
X16922028Y-25729889D01*
X16950853Y-25686750D01*
X16988000Y-25500000D01*
X16988000Y-23702136D01*
X19012000Y-21678136D01*
X19012000Y-22550342D01*
X18938264Y-22623950D01*
X18837115Y-22867543D01*
X18836885Y-23131300D01*
X18937608Y-23375069D01*
X19012000Y-23449591D01*
X19012000Y-24550342D01*
X18938264Y-24623950D01*
X18837115Y-24867543D01*
X18836885Y-25131300D01*
X18937608Y-25375069D01*
X19012000Y-25449591D01*
X19012000Y-26550342D01*
X18938264Y-26623950D01*
X18837115Y-26867543D01*
X18836885Y-27131300D01*
X18937608Y-27375069D01*
X19012000Y-27449591D01*
X19012000Y-28550342D01*
X18938264Y-28623950D01*
X18837115Y-28867543D01*
X18836885Y-29131300D01*
X18937608Y-29375069D01*
X19123950Y-29561736D01*
X19367543Y-29662885D01*
X19631300Y-29663115D01*
X19875069Y-29562392D01*
X20061736Y-29376050D01*
X20162885Y-29132457D01*
X20163115Y-28868700D01*
X20062392Y-28624931D01*
X19988000Y-28550409D01*
X19988000Y-27449658D01*
X20061736Y-27376050D01*
X20162885Y-27132457D01*
X20163115Y-26868700D01*
X20062392Y-26624931D01*
X19988000Y-26550409D01*
X19988000Y-25449658D01*
X20061736Y-25376050D01*
X20162885Y-25132457D01*
X20163115Y-24868700D01*
X20062392Y-24624931D01*
X19988000Y-24550409D01*
X19988000Y-23449658D01*
X20061736Y-23376050D01*
X20162885Y-23132457D01*
X20163115Y-22868700D01*
X20062392Y-22624931D01*
X19988000Y-22550409D01*
X19988000Y-21702136D01*
X20512000Y-21178136D01*
X20512000Y-28050342D01*
X20438264Y-28123950D01*
X20337115Y-28367543D01*
X20336885Y-28631300D01*
X20437608Y-28875069D01*
X20623950Y-29061736D01*
X20867543Y-29162885D01*
X21131300Y-29163115D01*
X21336931Y-29078150D01*
X21336885Y-29131300D01*
X21437608Y-29375069D01*
X21623950Y-29561736D01*
X21867543Y-29662885D01*
X22131300Y-29663115D01*
X22375069Y-29562392D01*
X22449591Y-29488000D01*
X23797864Y-29488000D01*
X24654932Y-30345068D01*
X24813251Y-30450854D01*
X25000000Y-30488000D01*
X29797864Y-30488000D01*
X30512000Y-31202136D01*
X30512000Y-33000000D01*
X30549147Y-33186750D01*
X30621560Y-33295123D01*
X30654932Y-33345068D01*
X30711643Y-33401779D01*
X30624931Y-33437608D01*
X30488000Y-33574301D01*
X30488000Y-33500000D01*
X30450853Y-33313250D01*
X30345068Y-33154932D01*
X27845068Y-30654932D01*
X27798700Y-30623950D01*
X27686750Y-30549147D01*
X27500000Y-30512000D01*
X14702136Y-30512000D01*
X12988000Y-28797864D01*
X12988000Y-21702136D01*
X18345068Y-16345068D01*
X18450854Y-16186749D01*
X18488000Y-16000000D01*
X18488000Y-12000000D01*
X18450853Y-11813250D01*
X18345068Y-11654932D01*
X17440068Y-10749932D01*
X17281750Y-10644147D01*
X17095000Y-10607000D01*
X15285386Y-10607000D01*
X15240298Y-10536932D01*
X15118994Y-10454049D01*
X14975000Y-10424889D01*
X13425000Y-10424889D01*
X13290480Y-10450201D01*
X13166932Y-10529702D01*
X13084049Y-10651006D01*
X13054889Y-10795000D01*
X13054889Y-11395000D01*
X13080201Y-11529520D01*
X13138310Y-11619824D01*
X13129878Y-11623317D01*
X12983318Y-11769877D01*
X12904000Y-11961366D01*
X12904000Y-12084750D01*
X13034250Y-12215000D01*
X13959000Y-12215000D01*
X13959000Y-12104000D01*
X14441000Y-12104000D01*
X14441000Y-12215000D01*
X14461000Y-12215000D01*
X14461000Y-12515000D01*
X14441000Y-12515000D01*
X14441000Y-12626000D01*
X13959000Y-12626000D01*
X13959000Y-12515000D01*
X13034250Y-12515000D01*
X12904000Y-12645250D01*
X12904000Y-12768634D01*
X12983318Y-12960123D01*
X13095195Y-13072000D01*
X12365000Y-13072000D01*
X12149549Y-13114856D01*
X11966899Y-13236899D01*
X10057274Y-15146524D01*
X9965750Y-15055000D01*
X9041000Y-15055000D01*
X9041000Y-15595750D01*
X9171250Y-15726000D01*
X9477798Y-15726000D01*
X6501899Y-18701899D01*
X6379856Y-18884549D01*
X6337000Y-19100000D01*
X6337000Y-25729889D01*
X6200000Y-25729889D01*
X6065480Y-25755201D01*
X5941932Y-25834702D01*
X5859049Y-25956006D01*
X5829889Y-26100000D01*
X5829889Y-27900000D01*
X5855201Y-28034520D01*
X5934702Y-28158068D01*
X6056006Y-28240951D01*
X6200000Y-28270111D01*
X6337000Y-28270111D01*
X6337000Y-31437000D01*
X4920111Y-31437000D01*
X4920111Y-30350000D01*
X4894799Y-30215480D01*
X4815298Y-30091932D01*
X4693994Y-30009049D01*
X4550000Y-29979889D01*
X2850000Y-29979889D01*
X2715480Y-30005201D01*
X2591932Y-30084702D01*
X2509049Y-30206006D01*
X2479889Y-30350000D01*
X2479889Y-33650000D01*
X2505201Y-33784520D01*
X2584702Y-33908068D01*
X2706006Y-33990951D01*
X2850000Y-34020111D01*
X4550000Y-34020111D01*
X4684520Y-33994799D01*
X4808068Y-33915298D01*
X4890951Y-33793994D01*
X4920111Y-33650000D01*
X4920111Y-32563000D01*
X8779889Y-32563000D01*
X8779889Y-32600000D01*
X8805201Y-32734520D01*
X8884702Y-32858068D01*
X9006006Y-32940951D01*
X9150000Y-32970111D01*
X10850000Y-32970111D01*
X10984520Y-32944799D01*
X11108068Y-32865298D01*
X11190951Y-32743994D01*
X11220111Y-32600000D01*
X11220111Y-32563000D01*
X11342616Y-32563000D01*
X11510512Y-32731189D01*
X11827586Y-32862850D01*
X12066856Y-32863058D01*
X12601899Y-33398101D01*
X12784550Y-33520145D01*
X13000000Y-33563000D01*
X13877289Y-33563000D01*
X13877289Y-33635000D01*
X13902601Y-33769520D01*
X13982102Y-33893068D01*
X14103406Y-33975951D01*
X14247400Y-34005111D01*
X15212600Y-34005111D01*
X15347120Y-33979799D01*
X15363557Y-33969222D01*
X15373406Y-33975951D01*
X15437000Y-33988829D01*
X15437000Y-34574167D01*
X15389767Y-34605727D01*
X15343143Y-34675504D01*
X15118571Y-34422336D01*
X14893239Y-34295767D01*
X14741000Y-34380472D01*
X14741000Y-35259000D01*
X14761000Y-35259000D01*
X14761000Y-35741000D01*
X14741000Y-35741000D01*
X14741000Y-36619528D01*
X14893239Y-36704233D01*
X15118571Y-36577664D01*
X15343143Y-36324496D01*
X15389767Y-36394273D01*
X15669744Y-36581348D01*
X16000000Y-36647040D01*
X16330256Y-36581348D01*
X16610233Y-36394273D01*
X16750000Y-36185097D01*
X16889767Y-36394273D01*
X17169744Y-36581348D01*
X17500000Y-36647040D01*
X17830256Y-36581348D01*
X17866796Y-36556932D01*
X19154932Y-37845068D01*
X19313250Y-37950853D01*
X19500000Y-37988000D01*
X23000000Y-37988000D01*
X23186750Y-37950853D01*
X23345068Y-37845068D01*
X23702136Y-37488000D01*
X30500000Y-37488000D01*
X30686750Y-37450853D01*
X30845068Y-37345068D01*
X33012000Y-35178136D01*
X33012000Y-35500000D01*
X33049147Y-35686750D01*
X33128077Y-35804877D01*
X33154932Y-35845068D01*
X35154932Y-37845068D01*
X35313250Y-37950853D01*
X35500000Y-37988000D01*
X51040000Y-37988000D01*
X51226750Y-37950853D01*
X51385068Y-37845068D01*
X51962411Y-37267725D01*
X52012280Y-37301046D01*
X52540000Y-37406016D01*
X53067720Y-37301046D01*
X53515100Y-37002116D01*
X53814030Y-36554736D01*
X53919000Y-36027016D01*
X53919000Y-35972984D01*
X53814030Y-35445264D01*
X53515100Y-34997884D01*
X53067720Y-34698954D01*
X52540000Y-34593984D01*
X52012280Y-34698954D01*
X51564900Y-34997884D01*
X51386111Y-35265460D01*
X51386111Y-34984000D01*
X51360799Y-34849480D01*
X51281298Y-34725932D01*
X51159994Y-34643049D01*
X51016000Y-34613889D01*
X48984000Y-34613889D01*
X48849480Y-34639201D01*
X48725932Y-34718702D01*
X48643049Y-34840006D01*
X48613889Y-34984000D01*
X48613889Y-36512000D01*
X46434042Y-36512000D01*
X46610233Y-36394273D01*
X46797308Y-36114296D01*
X46863000Y-35784040D01*
X46863000Y-35215960D01*
X46797308Y-34885704D01*
X46610233Y-34605727D01*
X46330256Y-34418652D01*
X46053797Y-34363661D01*
X43345068Y-31654932D01*
X43276700Y-31609250D01*
X43186750Y-31549147D01*
X43000000Y-31512000D01*
X42925549Y-31512000D01*
X43061736Y-31376050D01*
X43162885Y-31132457D01*
X43163115Y-30868700D01*
X43062392Y-30624931D01*
X42876050Y-30438264D01*
X42632457Y-30337115D01*
X42527159Y-30337023D01*
X38845068Y-26654932D01*
X38798700Y-26623950D01*
X38686750Y-26549147D01*
X38500000Y-26512000D01*
X34702136Y-26512000D01*
X30845068Y-22654932D01*
X30706572Y-22562392D01*
X30686750Y-22549147D01*
X30500000Y-22512000D01*
X29178136Y-22512000D01*
X29202136Y-22488000D01*
X34297864Y-22488000D01*
X34512000Y-22702136D01*
X34512000Y-23050342D01*
X34438264Y-23123950D01*
X34337115Y-23367543D01*
X34336885Y-23631300D01*
X34437608Y-23875069D01*
X34623950Y-24061736D01*
X34867543Y-24162885D01*
X35131300Y-24163115D01*
X35375069Y-24062392D01*
X35561736Y-23876050D01*
X35662885Y-23632457D01*
X35663115Y-23368700D01*
X35562392Y-23124931D01*
X35488000Y-23050409D01*
X35488000Y-22678136D01*
X46654932Y-33845068D01*
X46813251Y-33950854D01*
X47000000Y-33988000D01*
X48550342Y-33988000D01*
X48623950Y-34061736D01*
X48867543Y-34162885D01*
X49131300Y-34163115D01*
X49375069Y-34062392D01*
X49561736Y-33876050D01*
X49662885Y-33632457D01*
X49663115Y-33368700D01*
X49562392Y-33124931D01*
X49437624Y-32999946D01*
X49561736Y-32876050D01*
X49563729Y-32871250D01*
X52629000Y-32871250D01*
X52629000Y-33103634D01*
X52708318Y-33295123D01*
X52854878Y-33441683D01*
X53046367Y-33521000D01*
X53194750Y-33521000D01*
X53325000Y-33390750D01*
X53325000Y-32741000D01*
X52759250Y-32741000D01*
X52629000Y-32871250D01*
X49563729Y-32871250D01*
X49662885Y-32632457D01*
X49663115Y-32368700D01*
X49562392Y-32124931D01*
X49437624Y-31999946D01*
X49541384Y-31896366D01*
X52629000Y-31896366D01*
X52629000Y-32128750D01*
X52759250Y-32259000D01*
X53325000Y-32259000D01*
X53325000Y-31609250D01*
X53194750Y-31479000D01*
X53046367Y-31479000D01*
X52854878Y-31558317D01*
X52708318Y-31704877D01*
X52629000Y-31896366D01*
X49541384Y-31896366D01*
X49561736Y-31876050D01*
X49662885Y-31632457D01*
X49663115Y-31368700D01*
X49562392Y-31124931D01*
X49376050Y-30938264D01*
X49132457Y-30837115D01*
X48868700Y-30836885D01*
X48624931Y-30937608D01*
X48550409Y-31012000D01*
X47202136Y-31012000D01*
X36345068Y-20154932D01*
X36298700Y-20123950D01*
X36186750Y-20049147D01*
X36000000Y-20012000D01*
X27449658Y-20012000D01*
X27376050Y-19938264D01*
X27132457Y-19837115D01*
X26868700Y-19836885D01*
X26624931Y-19937608D01*
X26499946Y-20062376D01*
X26376050Y-19938264D01*
X26132457Y-19837115D01*
X25868700Y-19836885D01*
X25624931Y-19937608D01*
X25438264Y-20123950D01*
X25337115Y-20367543D01*
X25336885Y-20631300D01*
X25437608Y-20875069D01*
X25512000Y-20949591D01*
X25512000Y-21000000D01*
X25530495Y-21092978D01*
X25376050Y-20938264D01*
X25132457Y-20837115D01*
X24868700Y-20836885D01*
X24624931Y-20937608D01*
X24438264Y-21123950D01*
X24337115Y-21367543D01*
X24336989Y-21512000D01*
X22500000Y-21512000D01*
X22313251Y-21549146D01*
X22154932Y-21654932D01*
X21488000Y-22321864D01*
X21488000Y-21202136D01*
X25702136Y-16988000D01*
X32297864Y-16988000D01*
X34336976Y-19027112D01*
X34336885Y-19131300D01*
X34437608Y-19375069D01*
X34623950Y-19561736D01*
X34867543Y-19662885D01*
X35131300Y-19663115D01*
X35375069Y-19562392D01*
X35561736Y-19376050D01*
X35662885Y-19132457D01*
X35663115Y-18868700D01*
X35562392Y-18624931D01*
X35376050Y-18438264D01*
X35132457Y-18337115D01*
X35027159Y-18337023D01*
X34321436Y-17631300D01*
X38336885Y-17631300D01*
X38437608Y-17875069D01*
X38623950Y-18061736D01*
X38867543Y-18162885D01*
X38972841Y-18162977D01*
X39336976Y-18527112D01*
X39336885Y-18631300D01*
X39437608Y-18875069D01*
X39623950Y-19061736D01*
X39867543Y-19162885D01*
X40131300Y-19163115D01*
X40375069Y-19062392D01*
X40561736Y-18876050D01*
X40662885Y-18632457D01*
X40663115Y-18368700D01*
X40562392Y-18124931D01*
X40500569Y-18063000D01*
X48766798Y-18063000D01*
X50937000Y-20233202D01*
X50937000Y-29000000D01*
X50979856Y-29215451D01*
X51087165Y-29376050D01*
X51101899Y-29398101D01*
X52338143Y-30634345D01*
X52437608Y-30875069D01*
X52623950Y-31061736D01*
X52867543Y-31162885D01*
X53131300Y-31163115D01*
X53375069Y-31062392D01*
X53561736Y-30876050D01*
X53662885Y-30632457D01*
X53663115Y-30368700D01*
X53562392Y-30124931D01*
X53376050Y-29938264D01*
X53133928Y-29837726D01*
X52063000Y-28766798D01*
X52063000Y-20000000D01*
X52020144Y-19784549D01*
X51898101Y-19601899D01*
X49398101Y-17101899D01*
X49319152Y-17049147D01*
X49215451Y-16979856D01*
X49000000Y-16937000D01*
X39373006Y-16937000D01*
X39132457Y-16837115D01*
X38868700Y-16836885D01*
X38624931Y-16937608D01*
X38438264Y-17123950D01*
X38337115Y-17367543D01*
X38336885Y-17631300D01*
X34321436Y-17631300D01*
X33178136Y-16488000D01*
X52297864Y-16488000D01*
X53512000Y-17702136D01*
X53512000Y-20550342D01*
X53438264Y-20623950D01*
X53337115Y-20867543D01*
X53336885Y-21131300D01*
X53437608Y-21375069D01*
X53562376Y-21500054D01*
X53438264Y-21623950D01*
X53337115Y-21867543D01*
X53336885Y-22131300D01*
X53437608Y-22375069D01*
X53562376Y-22500054D01*
X53438264Y-22623950D01*
X53337115Y-22867543D01*
X53336885Y-23131300D01*
X53437608Y-23375069D01*
X53562376Y-23500054D01*
X53438264Y-23623950D01*
X53337115Y-23867543D01*
X53336885Y-24131300D01*
X53437608Y-24375069D01*
X53562376Y-24500054D01*
X53438264Y-24623950D01*
X53337115Y-24867543D01*
X53336885Y-25131300D01*
X53437608Y-25375069D01*
X53623950Y-25561736D01*
X53867543Y-25662885D01*
X53987000Y-25662989D01*
X53987000Y-26336988D01*
X53868700Y-26336885D01*
X53624931Y-26437608D01*
X53438264Y-26623950D01*
X53337115Y-26867543D01*
X53336885Y-27131300D01*
X53437608Y-27375069D01*
X53623950Y-27561736D01*
X53867543Y-27662885D01*
X53987000Y-27662989D01*
X53987000Y-31492821D01*
X53953633Y-31479000D01*
X53805250Y-31479000D01*
X53675000Y-31609250D01*
X53675000Y-32259000D01*
X53761000Y-32259000D01*
X53761000Y-32741000D01*
X53675000Y-32741000D01*
X53675000Y-33390750D01*
X53805250Y-33521000D01*
X53953633Y-33521000D01*
X53987000Y-33507179D01*
X53987000Y-38487000D01*
X413000Y-38487000D01*
X413000Y-22000000D01*
X437000Y-22000000D01*
X437000Y-34500000D01*
X479856Y-34715451D01*
X593616Y-34885704D01*
X601899Y-34898101D01*
X3101899Y-37398101D01*
X3284549Y-37520144D01*
X3500000Y-37563000D01*
X5829889Y-37563000D01*
X5829889Y-37900000D01*
X5855201Y-38034520D01*
X5934702Y-38158068D01*
X6056006Y-38240951D01*
X6200000Y-38270111D01*
X7600000Y-38270111D01*
X7734520Y-38244799D01*
X7858068Y-38165298D01*
X7940951Y-38043994D01*
X7970111Y-37900000D01*
X7970111Y-37371250D01*
X8879000Y-37371250D01*
X8879000Y-38003634D01*
X8958318Y-38195123D01*
X9104878Y-38341683D01*
X9296367Y-38421000D01*
X9728750Y-38421000D01*
X9859000Y-38290750D01*
X9859000Y-37241000D01*
X10341000Y-37241000D01*
X10341000Y-38290750D01*
X10471250Y-38421000D01*
X10903633Y-38421000D01*
X11095122Y-38341683D01*
X11241682Y-38195123D01*
X11321000Y-38003634D01*
X11321000Y-37371250D01*
X11190750Y-37241000D01*
X10341000Y-37241000D01*
X9859000Y-37241000D01*
X9009250Y-37241000D01*
X8879000Y-37371250D01*
X7970111Y-37371250D01*
X7970111Y-36100000D01*
X7950611Y-35996366D01*
X8879000Y-35996366D01*
X8879000Y-36628750D01*
X9009250Y-36759000D01*
X9859000Y-36759000D01*
X9859000Y-35709250D01*
X10341000Y-35709250D01*
X10341000Y-36759000D01*
X11190750Y-36759000D01*
X11321000Y-36628750D01*
X11321000Y-35996366D01*
X11281649Y-35901365D01*
X13485843Y-35901365D01*
X13616374Y-36278858D01*
X13881429Y-36577664D01*
X14106761Y-36704233D01*
X14259000Y-36619528D01*
X14259000Y-35741000D01*
X13606777Y-35741000D01*
X13485843Y-35901365D01*
X11281649Y-35901365D01*
X11241682Y-35804877D01*
X11095122Y-35658317D01*
X10903633Y-35579000D01*
X10471250Y-35579000D01*
X10341000Y-35709250D01*
X9859000Y-35709250D01*
X9728750Y-35579000D01*
X9296367Y-35579000D01*
X9104878Y-35658317D01*
X8958318Y-35804877D01*
X8879000Y-35996366D01*
X7950611Y-35996366D01*
X7944799Y-35965480D01*
X7865298Y-35841932D01*
X7743994Y-35759049D01*
X7600000Y-35729889D01*
X7463000Y-35729889D01*
X7463000Y-35333202D01*
X7933202Y-34863000D01*
X8779889Y-34863000D01*
X8779889Y-34900000D01*
X8805201Y-35034520D01*
X8884702Y-35158068D01*
X9006006Y-35240951D01*
X9150000Y-35270111D01*
X10850000Y-35270111D01*
X10984520Y-35244799D01*
X11108068Y-35165298D01*
X11153616Y-35098635D01*
X13485843Y-35098635D01*
X13606777Y-35259000D01*
X14259000Y-35259000D01*
X14259000Y-34380472D01*
X14106761Y-34295767D01*
X13881429Y-34422336D01*
X13616374Y-34721142D01*
X13485843Y-35098635D01*
X11153616Y-35098635D01*
X11190951Y-35043994D01*
X11220111Y-34900000D01*
X11220111Y-33700000D01*
X11194799Y-33565480D01*
X11115298Y-33441932D01*
X10993994Y-33359049D01*
X10850000Y-33329889D01*
X9150000Y-33329889D01*
X9015480Y-33355201D01*
X8891932Y-33434702D01*
X8809049Y-33556006D01*
X8779889Y-33700000D01*
X8779889Y-33737000D01*
X7700000Y-33737000D01*
X7484549Y-33779856D01*
X7351585Y-33868700D01*
X7301899Y-33901899D01*
X6501899Y-34701899D01*
X6379856Y-34884549D01*
X6337000Y-35100000D01*
X6337000Y-35729889D01*
X6200000Y-35729889D01*
X6065480Y-35755201D01*
X5941932Y-35834702D01*
X5859049Y-35956006D01*
X5829889Y-36100000D01*
X5829889Y-36437000D01*
X3733202Y-36437000D01*
X1563000Y-34266798D01*
X1563000Y-25609828D01*
X1681389Y-25787010D01*
X2042472Y-26028278D01*
X2468399Y-26113000D01*
X3531601Y-26113000D01*
X3957528Y-26028278D01*
X4318611Y-25787010D01*
X4559879Y-25425927D01*
X4644601Y-25000000D01*
X4559879Y-24574073D01*
X4382111Y-24308025D01*
X5345068Y-23345068D01*
X5383861Y-23287010D01*
X5450853Y-23186750D01*
X5488000Y-23000000D01*
X5488000Y-15185250D01*
X7504000Y-15185250D01*
X7504000Y-15308634D01*
X7583318Y-15500123D01*
X7729878Y-15646683D01*
X7921367Y-15726000D01*
X8428750Y-15726000D01*
X8559000Y-15595750D01*
X8559000Y-15055000D01*
X7634250Y-15055000D01*
X7504000Y-15185250D01*
X5488000Y-15185250D01*
X5488000Y-14702136D01*
X6067136Y-14123000D01*
X7714614Y-14123000D01*
X7738310Y-14159824D01*
X7729878Y-14163317D01*
X7583318Y-14309877D01*
X7504000Y-14501366D01*
X7504000Y-14624750D01*
X7634250Y-14755000D01*
X8559000Y-14755000D01*
X8559000Y-14644000D01*
X9041000Y-14644000D01*
X9041000Y-14755000D01*
X9965750Y-14755000D01*
X10096000Y-14624750D01*
X10096000Y-14501366D01*
X10016682Y-14309877D01*
X9870122Y-14163317D01*
X9860936Y-14159512D01*
X9915951Y-14078994D01*
X9930523Y-14007034D01*
X10061736Y-13876050D01*
X10162885Y-13632457D01*
X10163115Y-13368700D01*
X10062392Y-13124931D01*
X9876050Y-12938264D01*
X9838328Y-12922600D01*
X9915951Y-12808994D01*
X9945111Y-12665000D01*
X9945111Y-12065000D01*
X9919799Y-11930480D01*
X9861690Y-11840176D01*
X9870122Y-11836683D01*
X10016682Y-11690123D01*
X10096000Y-11498634D01*
X10096000Y-11375250D01*
X9965750Y-11245000D01*
X9041000Y-11245000D01*
X9041000Y-11356000D01*
X8559000Y-11356000D01*
X8559000Y-11245000D01*
X7634250Y-11245000D01*
X7504000Y-11375250D01*
X7504000Y-11498634D01*
X7583318Y-11690123D01*
X7729878Y-11836683D01*
X7739064Y-11840488D01*
X7714117Y-11877000D01*
X5567136Y-11877000D01*
X4382111Y-10691975D01*
X4382517Y-10691366D01*
X7504000Y-10691366D01*
X7504000Y-10814750D01*
X7634250Y-10945000D01*
X8559000Y-10945000D01*
X8559000Y-10404250D01*
X9041000Y-10404250D01*
X9041000Y-10945000D01*
X9965750Y-10945000D01*
X10096000Y-10814750D01*
X10096000Y-10691366D01*
X10016682Y-10499877D01*
X9870122Y-10353317D01*
X9678633Y-10274000D01*
X9171250Y-10274000D01*
X9041000Y-10404250D01*
X8559000Y-10404250D01*
X8428750Y-10274000D01*
X7921367Y-10274000D01*
X7729878Y-10353317D01*
X7583318Y-10499877D01*
X7504000Y-10691366D01*
X4382517Y-10691366D01*
X4518403Y-10488000D01*
X5500000Y-10488000D01*
X5686750Y-10450853D01*
X5845068Y-10345068D01*
X6558836Y-9631300D01*
X9836885Y-9631300D01*
X9937608Y-9875069D01*
X10123950Y-10061736D01*
X10367543Y-10162885D01*
X10631300Y-10163115D01*
X10875069Y-10062392D01*
X11061736Y-9876050D01*
X11162885Y-9632457D01*
X11163115Y-9368700D01*
X11062392Y-9124931D01*
X10988000Y-9050409D01*
X10988000Y-8220111D01*
X11500000Y-8220111D01*
X11634520Y-8194799D01*
X11758068Y-8115298D01*
X11840951Y-7993994D01*
X11870111Y-7850000D01*
X11870111Y-7150000D01*
X11844799Y-7015480D01*
X11765298Y-6891932D01*
X11643994Y-6809049D01*
X11500000Y-6779889D01*
X10500000Y-6779889D01*
X10365480Y-6805201D01*
X10241932Y-6884702D01*
X10159049Y-7006006D01*
X10129889Y-7150000D01*
X10129889Y-7692411D01*
X10049147Y-7813250D01*
X10012000Y-8000000D01*
X10012000Y-9050342D01*
X9938264Y-9123950D01*
X9837115Y-9367543D01*
X9836885Y-9631300D01*
X6558836Y-9631300D01*
X7304025Y-8886111D01*
X9016000Y-8886111D01*
X9150520Y-8860799D01*
X9274068Y-8781298D01*
X9356951Y-8659994D01*
X9386111Y-8516000D01*
X9386111Y-6484000D01*
X9360799Y-6349480D01*
X9281298Y-6225932D01*
X9159994Y-6143049D01*
X9016000Y-6113889D01*
X8734540Y-6113889D01*
X8922946Y-5988000D01*
X10157440Y-5988000D01*
X10234702Y-6108068D01*
X10356006Y-6190951D01*
X10500000Y-6220111D01*
X11500000Y-6220111D01*
X11634520Y-6194799D01*
X11758068Y-6115298D01*
X11840951Y-5993994D01*
X11870111Y-5850000D01*
X11870111Y-5150000D01*
X11844799Y-5015480D01*
X11765298Y-4891932D01*
X11643994Y-4809049D01*
X11500000Y-4779889D01*
X10500000Y-4779889D01*
X10365480Y-4805201D01*
X10241932Y-4884702D01*
X10159049Y-5006006D01*
X10157835Y-5012000D01*
X9395673Y-5012000D01*
X9406016Y-4960000D01*
X9301046Y-4432280D01*
X9002116Y-3984900D01*
X8554736Y-3685970D01*
X8027016Y-3581000D01*
X7972984Y-3581000D01*
X7445264Y-3685970D01*
X6997884Y-3984900D01*
X6698954Y-4432280D01*
X6593984Y-4960000D01*
X6698954Y-5487720D01*
X6997884Y-5935100D01*
X7265460Y-6113889D01*
X6984000Y-6113889D01*
X6849480Y-6139201D01*
X6725932Y-6218702D01*
X6643049Y-6340006D01*
X6613889Y-6484000D01*
X6613889Y-8195975D01*
X5297864Y-9512000D01*
X4518403Y-9512000D01*
X4318611Y-9212990D01*
X3957528Y-8971722D01*
X3531601Y-8887000D01*
X2468399Y-8887000D01*
X2042472Y-8971722D01*
X1681389Y-9212990D01*
X1440121Y-9574073D01*
X1355399Y-10000000D01*
X1440121Y-10425927D01*
X1681389Y-10787010D01*
X2042472Y-11028278D01*
X2468399Y-11113000D01*
X3422864Y-11113000D01*
X3737899Y-11428035D01*
X3531601Y-11387000D01*
X2468399Y-11387000D01*
X2042472Y-11471722D01*
X1681389Y-11712990D01*
X1440121Y-12074073D01*
X1355399Y-12500000D01*
X1440121Y-12925927D01*
X1681389Y-13287010D01*
X2042472Y-13528278D01*
X2468399Y-13613000D01*
X3422864Y-13613000D01*
X4512000Y-14702136D01*
X4512000Y-16715549D01*
X4209046Y-16417976D01*
X3741000Y-16229000D01*
X3241000Y-16229000D01*
X3241000Y-17259000D01*
X3261000Y-17259000D01*
X3261000Y-17741000D01*
X3241000Y-17741000D01*
X3241000Y-18771000D01*
X3741000Y-18771000D01*
X4209046Y-18582024D01*
X4512000Y-18284451D01*
X4512000Y-19502417D01*
X4318611Y-19212990D01*
X3957528Y-18971722D01*
X3531601Y-18887000D01*
X2468399Y-18887000D01*
X2042472Y-18971722D01*
X1681389Y-19212990D01*
X1440121Y-19574073D01*
X1355399Y-20000000D01*
X1440121Y-20425927D01*
X1575405Y-20628393D01*
X601899Y-21601899D01*
X479856Y-21784549D01*
X437000Y-22000000D01*
X413000Y-22000000D01*
X413000Y-17933254D01*
X1305123Y-17933254D01*
X1430854Y-18228320D01*
X1790954Y-18582024D01*
X2259000Y-18771000D01*
X2759000Y-18771000D01*
X2759000Y-17741000D01*
X1384998Y-17741000D01*
X1305123Y-17933254D01*
X413000Y-17933254D01*
X413000Y-17066746D01*
X1305123Y-17066746D01*
X1384998Y-17259000D01*
X2759000Y-17259000D01*
X2759000Y-16229000D01*
X2259000Y-16229000D01*
X1790954Y-16417976D01*
X1430854Y-16771680D01*
X1305123Y-17066746D01*
X413000Y-17066746D01*
X413000Y-7500000D01*
X1355399Y-7500000D01*
X1440121Y-7925927D01*
X1681389Y-8287010D01*
X2042472Y-8528278D01*
X2468399Y-8613000D01*
X3531601Y-8613000D01*
X3957528Y-8528278D01*
X4318611Y-8287010D01*
X4559879Y-7925927D01*
X4644601Y-7500000D01*
X4559879Y-7074073D01*
X4318611Y-6712990D01*
X3957528Y-6471722D01*
X3531601Y-6387000D01*
X2468399Y-6387000D01*
X2042472Y-6471722D01*
X1681389Y-6712990D01*
X1440121Y-7074073D01*
X1355399Y-7500000D01*
X413000Y-7500000D01*
X413000Y-5433254D01*
X1305123Y-5433254D01*
X1430854Y-5728320D01*
X1790954Y-6082024D01*
X2259000Y-6271000D01*
X2759000Y-6271000D01*
X2759000Y-5241000D01*
X3241000Y-5241000D01*
X3241000Y-6271000D01*
X3741000Y-6271000D01*
X4209046Y-6082024D01*
X4569146Y-5728320D01*
X4694877Y-5433254D01*
X4615002Y-5241000D01*
X3241000Y-5241000D01*
X2759000Y-5241000D01*
X1384998Y-5241000D01*
X1305123Y-5433254D01*
X413000Y-5433254D01*
X413000Y-4566746D01*
X1305123Y-4566746D01*
X1384998Y-4759000D01*
X2759000Y-4759000D01*
X2759000Y-3729000D01*
X3241000Y-3729000D01*
X3241000Y-4759000D01*
X4615002Y-4759000D01*
X4694877Y-4566746D01*
X4569146Y-4271680D01*
X4209046Y-3917976D01*
X3741000Y-3729000D01*
X3241000Y-3729000D01*
X2759000Y-3729000D01*
X2259000Y-3729000D01*
X1790954Y-3917976D01*
X1430854Y-4271680D01*
X1305123Y-4566746D01*
X413000Y-4566746D01*
X413000Y-413000D01*
X53987000Y-413000D01*
X53987000Y-6216798D01*
X53987000Y-6216798D01*
G37*
X53987000Y-6216798D02*
X52766798Y-7437000D01*
X43157384Y-7437000D01*
X42989488Y-7268811D01*
X42672414Y-7137150D01*
X42329092Y-7136851D01*
X42011789Y-7267958D01*
X41768811Y-7510512D01*
X41637150Y-7827586D01*
X41636851Y-8170908D01*
X41767958Y-8488211D01*
X42010512Y-8731189D01*
X42327586Y-8862850D01*
X42670908Y-8863149D01*
X42988211Y-8732042D01*
X43157548Y-8563000D01*
X53000000Y-8563000D01*
X53215451Y-8520144D01*
X53398101Y-8398101D01*
X53987000Y-7809202D01*
X53987000Y-12549408D01*
X53876050Y-12438264D01*
X53632457Y-12337115D01*
X53368700Y-12336885D01*
X53124931Y-12437608D01*
X52938264Y-12623950D01*
X52837115Y-12867543D01*
X52837023Y-12972841D01*
X52297864Y-13512000D01*
X23000000Y-13512000D01*
X22813250Y-13549147D01*
X22701300Y-13623950D01*
X22654932Y-13654932D01*
X13654932Y-22654932D01*
X13549147Y-22813250D01*
X13512000Y-23000000D01*
X13512000Y-28000000D01*
X13549147Y-28186750D01*
X13618638Y-28290750D01*
X13654932Y-28345068D01*
X14336976Y-29027112D01*
X14336885Y-29131300D01*
X14437608Y-29375069D01*
X14623950Y-29561736D01*
X14867543Y-29662885D01*
X15131300Y-29663115D01*
X15375069Y-29562392D01*
X15561736Y-29376050D01*
X15662885Y-29132457D01*
X15663115Y-28868700D01*
X15562392Y-28624931D01*
X15376050Y-28438264D01*
X15132457Y-28337115D01*
X15027159Y-28337023D01*
X14488000Y-27797864D01*
X14488000Y-27425549D01*
X14623950Y-27561736D01*
X14867543Y-27662885D01*
X15131300Y-27663115D01*
X15375069Y-27562392D01*
X15561736Y-27376050D01*
X15662885Y-27132457D01*
X15662977Y-27027159D01*
X16845068Y-25845068D01*
X16922028Y-25729889D01*
X16950853Y-25686750D01*
X16988000Y-25500000D01*
X16988000Y-23702136D01*
X19012000Y-21678136D01*
X19012000Y-22550342D01*
X18938264Y-22623950D01*
X18837115Y-22867543D01*
X18836885Y-23131300D01*
X18937608Y-23375069D01*
X19012000Y-23449591D01*
X19012000Y-24550342D01*
X18938264Y-24623950D01*
X18837115Y-24867543D01*
X18836885Y-25131300D01*
X18937608Y-25375069D01*
X19012000Y-25449591D01*
X19012000Y-26550342D01*
X18938264Y-26623950D01*
X18837115Y-26867543D01*
X18836885Y-27131300D01*
X18937608Y-27375069D01*
X19012000Y-27449591D01*
X19012000Y-28550342D01*
X18938264Y-28623950D01*
X18837115Y-28867543D01*
X18836885Y-29131300D01*
X18937608Y-29375069D01*
X19123950Y-29561736D01*
X19367543Y-29662885D01*
X19631300Y-29663115D01*
X19875069Y-29562392D01*
X20061736Y-29376050D01*
X20162885Y-29132457D01*
X20163115Y-28868700D01*
X20062392Y-28624931D01*
X19988000Y-28550409D01*
X19988000Y-27449658D01*
X20061736Y-27376050D01*
X20162885Y-27132457D01*
X20163115Y-26868700D01*
X20062392Y-26624931D01*
X19988000Y-26550409D01*
X19988000Y-25449658D01*
X20061736Y-25376050D01*
X20162885Y-25132457D01*
X20163115Y-24868700D01*
X20062392Y-24624931D01*
X19988000Y-24550409D01*
X19988000Y-23449658D01*
X20061736Y-23376050D01*
X20162885Y-23132457D01*
X20163115Y-22868700D01*
X20062392Y-22624931D01*
X19988000Y-22550409D01*
X19988000Y-21702136D01*
X20512000Y-21178136D01*
X20512000Y-28050342D01*
X20438264Y-28123950D01*
X20337115Y-28367543D01*
X20336885Y-28631300D01*
X20437608Y-28875069D01*
X20623950Y-29061736D01*
X20867543Y-29162885D01*
X21131300Y-29163115D01*
X21336931Y-29078150D01*
X21336885Y-29131300D01*
X21437608Y-29375069D01*
X21623950Y-29561736D01*
X21867543Y-29662885D01*
X22131300Y-29663115D01*
X22375069Y-29562392D01*
X22449591Y-29488000D01*
X23797864Y-29488000D01*
X24654932Y-30345068D01*
X24813251Y-30450854D01*
X25000000Y-30488000D01*
X29797864Y-30488000D01*
X30512000Y-31202136D01*
X30512000Y-33000000D01*
X30549147Y-33186750D01*
X30621560Y-33295123D01*
X30654932Y-33345068D01*
X30711643Y-33401779D01*
X30624931Y-33437608D01*
X30488000Y-33574301D01*
X30488000Y-33500000D01*
X30450853Y-33313250D01*
X30345068Y-33154932D01*
X27845068Y-30654932D01*
X27798700Y-30623950D01*
X27686750Y-30549147D01*
X27500000Y-30512000D01*
X14702136Y-30512000D01*
X12988000Y-28797864D01*
X12988000Y-21702136D01*
X18345068Y-16345068D01*
X18450854Y-16186749D01*
X18488000Y-16000000D01*
X18488000Y-12000000D01*
X18450853Y-11813250D01*
X18345068Y-11654932D01*
X17440068Y-10749932D01*
X17281750Y-10644147D01*
X17095000Y-10607000D01*
X15285386Y-10607000D01*
X15240298Y-10536932D01*
X15118994Y-10454049D01*
X14975000Y-10424889D01*
X13425000Y-10424889D01*
X13290480Y-10450201D01*
X13166932Y-10529702D01*
X13084049Y-10651006D01*
X13054889Y-10795000D01*
X13054889Y-11395000D01*
X13080201Y-11529520D01*
X13138310Y-11619824D01*
X13129878Y-11623317D01*
X12983318Y-11769877D01*
X12904000Y-11961366D01*
X12904000Y-12084750D01*
X13034250Y-12215000D01*
X13959000Y-12215000D01*
X13959000Y-12104000D01*
X14441000Y-12104000D01*
X14441000Y-12215000D01*
X14461000Y-12215000D01*
X14461000Y-12515000D01*
X14441000Y-12515000D01*
X14441000Y-12626000D01*
X13959000Y-12626000D01*
X13959000Y-12515000D01*
X13034250Y-12515000D01*
X12904000Y-12645250D01*
X12904000Y-12768634D01*
X12983318Y-12960123D01*
X13095195Y-13072000D01*
X12365000Y-13072000D01*
X12149549Y-13114856D01*
X11966899Y-13236899D01*
X10057274Y-15146524D01*
X9965750Y-15055000D01*
X9041000Y-15055000D01*
X9041000Y-15595750D01*
X9171250Y-15726000D01*
X9477798Y-15726000D01*
X6501899Y-18701899D01*
X6379856Y-18884549D01*
X6337000Y-19100000D01*
X6337000Y-25729889D01*
X6200000Y-25729889D01*
X6065480Y-25755201D01*
X5941932Y-25834702D01*
X5859049Y-25956006D01*
X5829889Y-26100000D01*
X5829889Y-27900000D01*
X5855201Y-28034520D01*
X5934702Y-28158068D01*
X6056006Y-28240951D01*
X6200000Y-28270111D01*
X6337000Y-28270111D01*
X6337000Y-31437000D01*
X4920111Y-31437000D01*
X4920111Y-30350000D01*
X4894799Y-30215480D01*
X4815298Y-30091932D01*
X4693994Y-30009049D01*
X4550000Y-29979889D01*
X2850000Y-29979889D01*
X2715480Y-30005201D01*
X2591932Y-30084702D01*
X2509049Y-30206006D01*
X2479889Y-30350000D01*
X2479889Y-33650000D01*
X2505201Y-33784520D01*
X2584702Y-33908068D01*
X2706006Y-33990951D01*
X2850000Y-34020111D01*
X4550000Y-34020111D01*
X4684520Y-33994799D01*
X4808068Y-33915298D01*
X4890951Y-33793994D01*
X4920111Y-33650000D01*
X4920111Y-32563000D01*
X8779889Y-32563000D01*
X8779889Y-32600000D01*
X8805201Y-32734520D01*
X8884702Y-32858068D01*
X9006006Y-32940951D01*
X9150000Y-32970111D01*
X10850000Y-32970111D01*
X10984520Y-32944799D01*
X11108068Y-32865298D01*
X11190951Y-32743994D01*
X11220111Y-32600000D01*
X11220111Y-32563000D01*
X11342616Y-32563000D01*
X11510512Y-32731189D01*
X11827586Y-32862850D01*
X12066856Y-32863058D01*
X12601899Y-33398101D01*
X12784550Y-33520145D01*
X13000000Y-33563000D01*
X13877289Y-33563000D01*
X13877289Y-33635000D01*
X13902601Y-33769520D01*
X13982102Y-33893068D01*
X14103406Y-33975951D01*
X14247400Y-34005111D01*
X15212600Y-34005111D01*
X15347120Y-33979799D01*
X15363557Y-33969222D01*
X15373406Y-33975951D01*
X15437000Y-33988829D01*
X15437000Y-34574167D01*
X15389767Y-34605727D01*
X15343143Y-34675504D01*
X15118571Y-34422336D01*
X14893239Y-34295767D01*
X14741000Y-34380472D01*
X14741000Y-35259000D01*
X14761000Y-35259000D01*
X14761000Y-35741000D01*
X14741000Y-35741000D01*
X14741000Y-36619528D01*
X14893239Y-36704233D01*
X15118571Y-36577664D01*
X15343143Y-36324496D01*
X15389767Y-36394273D01*
X15669744Y-36581348D01*
X16000000Y-36647040D01*
X16330256Y-36581348D01*
X16610233Y-36394273D01*
X16750000Y-36185097D01*
X16889767Y-36394273D01*
X17169744Y-36581348D01*
X17500000Y-36647040D01*
X17830256Y-36581348D01*
X17866796Y-36556932D01*
X19154932Y-37845068D01*
X19313250Y-37950853D01*
X19500000Y-37988000D01*
X23000000Y-37988000D01*
X23186750Y-37950853D01*
X23345068Y-37845068D01*
X23702136Y-37488000D01*
X30500000Y-37488000D01*
X30686750Y-37450853D01*
X30845068Y-37345068D01*
X33012000Y-35178136D01*
X33012000Y-35500000D01*
X33049147Y-35686750D01*
X33128077Y-35804877D01*
X33154932Y-35845068D01*
X35154932Y-37845068D01*
X35313250Y-37950853D01*
X35500000Y-37988000D01*
X51040000Y-37988000D01*
X51226750Y-37950853D01*
X51385068Y-37845068D01*
X51962411Y-37267725D01*
X52012280Y-37301046D01*
X52540000Y-37406016D01*
X53067720Y-37301046D01*
X53515100Y-37002116D01*
X53814030Y-36554736D01*
X53919000Y-36027016D01*
X53919000Y-35972984D01*
X53814030Y-35445264D01*
X53515100Y-34997884D01*
X53067720Y-34698954D01*
X52540000Y-34593984D01*
X52012280Y-34698954D01*
X51564900Y-34997884D01*
X51386111Y-35265460D01*
X51386111Y-34984000D01*
X51360799Y-34849480D01*
X51281298Y-34725932D01*
X51159994Y-34643049D01*
X51016000Y-34613889D01*
X48984000Y-34613889D01*
X48849480Y-34639201D01*
X48725932Y-34718702D01*
X48643049Y-34840006D01*
X48613889Y-34984000D01*
X48613889Y-36512000D01*
X46434042Y-36512000D01*
X46610233Y-36394273D01*
X46797308Y-36114296D01*
X46863000Y-35784040D01*
X46863000Y-35215960D01*
X46797308Y-34885704D01*
X46610233Y-34605727D01*
X46330256Y-34418652D01*
X46053797Y-34363661D01*
X43345068Y-31654932D01*
X43276700Y-31609250D01*
X43186750Y-31549147D01*
X43000000Y-31512000D01*
X42925549Y-31512000D01*
X43061736Y-31376050D01*
X43162885Y-31132457D01*
X43163115Y-30868700D01*
X43062392Y-30624931D01*
X42876050Y-30438264D01*
X42632457Y-30337115D01*
X42527159Y-30337023D01*
X38845068Y-26654932D01*
X38798700Y-26623950D01*
X38686750Y-26549147D01*
X38500000Y-26512000D01*
X34702136Y-26512000D01*
X30845068Y-22654932D01*
X30706572Y-22562392D01*
X30686750Y-22549147D01*
X30500000Y-22512000D01*
X29178136Y-22512000D01*
X29202136Y-22488000D01*
X34297864Y-22488000D01*
X34512000Y-22702136D01*
X34512000Y-23050342D01*
X34438264Y-23123950D01*
X34337115Y-23367543D01*
X34336885Y-23631300D01*
X34437608Y-23875069D01*
X34623950Y-24061736D01*
X34867543Y-24162885D01*
X35131300Y-24163115D01*
X35375069Y-24062392D01*
X35561736Y-23876050D01*
X35662885Y-23632457D01*
X35663115Y-23368700D01*
X35562392Y-23124931D01*
X35488000Y-23050409D01*
X35488000Y-22678136D01*
X46654932Y-33845068D01*
X46813251Y-33950854D01*
X47000000Y-33988000D01*
X48550342Y-33988000D01*
X48623950Y-34061736D01*
X48867543Y-34162885D01*
X49131300Y-34163115D01*
X49375069Y-34062392D01*
X49561736Y-33876050D01*
X49662885Y-33632457D01*
X49663115Y-33368700D01*
X49562392Y-33124931D01*
X49437624Y-32999946D01*
X49561736Y-32876050D01*
X49563729Y-32871250D01*
X52629000Y-32871250D01*
X52629000Y-33103634D01*
X52708318Y-33295123D01*
X52854878Y-33441683D01*
X53046367Y-33521000D01*
X53194750Y-33521000D01*
X53325000Y-33390750D01*
X53325000Y-32741000D01*
X52759250Y-32741000D01*
X52629000Y-32871250D01*
X49563729Y-32871250D01*
X49662885Y-32632457D01*
X49663115Y-32368700D01*
X49562392Y-32124931D01*
X49437624Y-31999946D01*
X49541384Y-31896366D01*
X52629000Y-31896366D01*
X52629000Y-32128750D01*
X52759250Y-32259000D01*
X53325000Y-32259000D01*
X53325000Y-31609250D01*
X53194750Y-31479000D01*
X53046367Y-31479000D01*
X52854878Y-31558317D01*
X52708318Y-31704877D01*
X52629000Y-31896366D01*
X49541384Y-31896366D01*
X49561736Y-31876050D01*
X49662885Y-31632457D01*
X49663115Y-31368700D01*
X49562392Y-31124931D01*
X49376050Y-30938264D01*
X49132457Y-30837115D01*
X48868700Y-30836885D01*
X48624931Y-30937608D01*
X48550409Y-31012000D01*
X47202136Y-31012000D01*
X36345068Y-20154932D01*
X36298700Y-20123950D01*
X36186750Y-20049147D01*
X36000000Y-20012000D01*
X27449658Y-20012000D01*
X27376050Y-19938264D01*
X27132457Y-19837115D01*
X26868700Y-19836885D01*
X26624931Y-19937608D01*
X26499946Y-20062376D01*
X26376050Y-19938264D01*
X26132457Y-19837115D01*
X25868700Y-19836885D01*
X25624931Y-19937608D01*
X25438264Y-20123950D01*
X25337115Y-20367543D01*
X25336885Y-20631300D01*
X25437608Y-20875069D01*
X25512000Y-20949591D01*
X25512000Y-21000000D01*
X25530495Y-21092978D01*
X25376050Y-20938264D01*
X25132457Y-20837115D01*
X24868700Y-20836885D01*
X24624931Y-20937608D01*
X24438264Y-21123950D01*
X24337115Y-21367543D01*
X24336989Y-21512000D01*
X22500000Y-21512000D01*
X22313251Y-21549146D01*
X22154932Y-21654932D01*
X21488000Y-22321864D01*
X21488000Y-21202136D01*
X25702136Y-16988000D01*
X32297864Y-16988000D01*
X34336976Y-19027112D01*
X34336885Y-19131300D01*
X34437608Y-19375069D01*
X34623950Y-19561736D01*
X34867543Y-19662885D01*
X35131300Y-19663115D01*
X35375069Y-19562392D01*
X35561736Y-19376050D01*
X35662885Y-19132457D01*
X35663115Y-18868700D01*
X35562392Y-18624931D01*
X35376050Y-18438264D01*
X35132457Y-18337115D01*
X35027159Y-18337023D01*
X34321436Y-17631300D01*
X38336885Y-17631300D01*
X38437608Y-17875069D01*
X38623950Y-18061736D01*
X38867543Y-18162885D01*
X38972841Y-18162977D01*
X39336976Y-18527112D01*
X39336885Y-18631300D01*
X39437608Y-18875069D01*
X39623950Y-19061736D01*
X39867543Y-19162885D01*
X40131300Y-19163115D01*
X40375069Y-19062392D01*
X40561736Y-18876050D01*
X40662885Y-18632457D01*
X40663115Y-18368700D01*
X40562392Y-18124931D01*
X40500569Y-18063000D01*
X48766798Y-18063000D01*
X50937000Y-20233202D01*
X50937000Y-29000000D01*
X50979856Y-29215451D01*
X51087165Y-29376050D01*
X51101899Y-29398101D01*
X52338143Y-30634345D01*
X52437608Y-30875069D01*
X52623950Y-31061736D01*
X52867543Y-31162885D01*
X53131300Y-31163115D01*
X53375069Y-31062392D01*
X53561736Y-30876050D01*
X53662885Y-30632457D01*
X53663115Y-30368700D01*
X53562392Y-30124931D01*
X53376050Y-29938264D01*
X53133928Y-29837726D01*
X52063000Y-28766798D01*
X52063000Y-20000000D01*
X52020144Y-19784549D01*
X51898101Y-19601899D01*
X49398101Y-17101899D01*
X49319152Y-17049147D01*
X49215451Y-16979856D01*
X49000000Y-16937000D01*
X39373006Y-16937000D01*
X39132457Y-16837115D01*
X38868700Y-16836885D01*
X38624931Y-16937608D01*
X38438264Y-17123950D01*
X38337115Y-17367543D01*
X38336885Y-17631300D01*
X34321436Y-17631300D01*
X33178136Y-16488000D01*
X52297864Y-16488000D01*
X53512000Y-17702136D01*
X53512000Y-20550342D01*
X53438264Y-20623950D01*
X53337115Y-20867543D01*
X53336885Y-21131300D01*
X53437608Y-21375069D01*
X53562376Y-21500054D01*
X53438264Y-21623950D01*
X53337115Y-21867543D01*
X53336885Y-22131300D01*
X53437608Y-22375069D01*
X53562376Y-22500054D01*
X53438264Y-22623950D01*
X53337115Y-22867543D01*
X53336885Y-23131300D01*
X53437608Y-23375069D01*
X53562376Y-23500054D01*
X53438264Y-23623950D01*
X53337115Y-23867543D01*
X53336885Y-24131300D01*
X53437608Y-24375069D01*
X53562376Y-24500054D01*
X53438264Y-24623950D01*
X53337115Y-24867543D01*
X53336885Y-25131300D01*
X53437608Y-25375069D01*
X53623950Y-25561736D01*
X53867543Y-25662885D01*
X53987000Y-25662989D01*
X53987000Y-26336988D01*
X53868700Y-26336885D01*
X53624931Y-26437608D01*
X53438264Y-26623950D01*
X53337115Y-26867543D01*
X53336885Y-27131300D01*
X53437608Y-27375069D01*
X53623950Y-27561736D01*
X53867543Y-27662885D01*
X53987000Y-27662989D01*
X53987000Y-31492821D01*
X53953633Y-31479000D01*
X53805250Y-31479000D01*
X53675000Y-31609250D01*
X53675000Y-32259000D01*
X53761000Y-32259000D01*
X53761000Y-32741000D01*
X53675000Y-32741000D01*
X53675000Y-33390750D01*
X53805250Y-33521000D01*
X53953633Y-33521000D01*
X53987000Y-33507179D01*
X53987000Y-38487000D01*
X413000Y-38487000D01*
X413000Y-22000000D01*
X437000Y-22000000D01*
X437000Y-34500000D01*
X479856Y-34715451D01*
X593616Y-34885704D01*
X601899Y-34898101D01*
X3101899Y-37398101D01*
X3284549Y-37520144D01*
X3500000Y-37563000D01*
X5829889Y-37563000D01*
X5829889Y-37900000D01*
X5855201Y-38034520D01*
X5934702Y-38158068D01*
X6056006Y-38240951D01*
X6200000Y-38270111D01*
X7600000Y-38270111D01*
X7734520Y-38244799D01*
X7858068Y-38165298D01*
X7940951Y-38043994D01*
X7970111Y-37900000D01*
X7970111Y-37371250D01*
X8879000Y-37371250D01*
X8879000Y-38003634D01*
X8958318Y-38195123D01*
X9104878Y-38341683D01*
X9296367Y-38421000D01*
X9728750Y-38421000D01*
X9859000Y-38290750D01*
X9859000Y-37241000D01*
X10341000Y-37241000D01*
X10341000Y-38290750D01*
X10471250Y-38421000D01*
X10903633Y-38421000D01*
X11095122Y-38341683D01*
X11241682Y-38195123D01*
X11321000Y-38003634D01*
X11321000Y-37371250D01*
X11190750Y-37241000D01*
X10341000Y-37241000D01*
X9859000Y-37241000D01*
X9009250Y-37241000D01*
X8879000Y-37371250D01*
X7970111Y-37371250D01*
X7970111Y-36100000D01*
X7950611Y-35996366D01*
X8879000Y-35996366D01*
X8879000Y-36628750D01*
X9009250Y-36759000D01*
X9859000Y-36759000D01*
X9859000Y-35709250D01*
X10341000Y-35709250D01*
X10341000Y-36759000D01*
X11190750Y-36759000D01*
X11321000Y-36628750D01*
X11321000Y-35996366D01*
X11281649Y-35901365D01*
X13485843Y-35901365D01*
X13616374Y-36278858D01*
X13881429Y-36577664D01*
X14106761Y-36704233D01*
X14259000Y-36619528D01*
X14259000Y-35741000D01*
X13606777Y-35741000D01*
X13485843Y-35901365D01*
X11281649Y-35901365D01*
X11241682Y-35804877D01*
X11095122Y-35658317D01*
X10903633Y-35579000D01*
X10471250Y-35579000D01*
X10341000Y-35709250D01*
X9859000Y-35709250D01*
X9728750Y-35579000D01*
X9296367Y-35579000D01*
X9104878Y-35658317D01*
X8958318Y-35804877D01*
X8879000Y-35996366D01*
X7950611Y-35996366D01*
X7944799Y-35965480D01*
X7865298Y-35841932D01*
X7743994Y-35759049D01*
X7600000Y-35729889D01*
X7463000Y-35729889D01*
X7463000Y-35333202D01*
X7933202Y-34863000D01*
X8779889Y-34863000D01*
X8779889Y-34900000D01*
X8805201Y-35034520D01*
X8884702Y-35158068D01*
X9006006Y-35240951D01*
X9150000Y-35270111D01*
X10850000Y-35270111D01*
X10984520Y-35244799D01*
X11108068Y-35165298D01*
X11153616Y-35098635D01*
X13485843Y-35098635D01*
X13606777Y-35259000D01*
X14259000Y-35259000D01*
X14259000Y-34380472D01*
X14106761Y-34295767D01*
X13881429Y-34422336D01*
X13616374Y-34721142D01*
X13485843Y-35098635D01*
X11153616Y-35098635D01*
X11190951Y-35043994D01*
X11220111Y-34900000D01*
X11220111Y-33700000D01*
X11194799Y-33565480D01*
X11115298Y-33441932D01*
X10993994Y-33359049D01*
X10850000Y-33329889D01*
X9150000Y-33329889D01*
X9015480Y-33355201D01*
X8891932Y-33434702D01*
X8809049Y-33556006D01*
X8779889Y-33700000D01*
X8779889Y-33737000D01*
X7700000Y-33737000D01*
X7484549Y-33779856D01*
X7351585Y-33868700D01*
X7301899Y-33901899D01*
X6501899Y-34701899D01*
X6379856Y-34884549D01*
X6337000Y-35100000D01*
X6337000Y-35729889D01*
X6200000Y-35729889D01*
X6065480Y-35755201D01*
X5941932Y-35834702D01*
X5859049Y-35956006D01*
X5829889Y-36100000D01*
X5829889Y-36437000D01*
X3733202Y-36437000D01*
X1563000Y-34266798D01*
X1563000Y-25609828D01*
X1681389Y-25787010D01*
X2042472Y-26028278D01*
X2468399Y-26113000D01*
X3531601Y-26113000D01*
X3957528Y-26028278D01*
X4318611Y-25787010D01*
X4559879Y-25425927D01*
X4644601Y-25000000D01*
X4559879Y-24574073D01*
X4382111Y-24308025D01*
X5345068Y-23345068D01*
X5383861Y-23287010D01*
X5450853Y-23186750D01*
X5488000Y-23000000D01*
X5488000Y-15185250D01*
X7504000Y-15185250D01*
X7504000Y-15308634D01*
X7583318Y-15500123D01*
X7729878Y-15646683D01*
X7921367Y-15726000D01*
X8428750Y-15726000D01*
X8559000Y-15595750D01*
X8559000Y-15055000D01*
X7634250Y-15055000D01*
X7504000Y-15185250D01*
X5488000Y-15185250D01*
X5488000Y-14702136D01*
X6067136Y-14123000D01*
X7714614Y-14123000D01*
X7738310Y-14159824D01*
X7729878Y-14163317D01*
X7583318Y-14309877D01*
X7504000Y-14501366D01*
X7504000Y-14624750D01*
X7634250Y-14755000D01*
X8559000Y-14755000D01*
X8559000Y-14644000D01*
X9041000Y-14644000D01*
X9041000Y-14755000D01*
X9965750Y-14755000D01*
X10096000Y-14624750D01*
X10096000Y-14501366D01*
X10016682Y-14309877D01*
X9870122Y-14163317D01*
X9860936Y-14159512D01*
X9915951Y-14078994D01*
X9930523Y-14007034D01*
X10061736Y-13876050D01*
X10162885Y-13632457D01*
X10163115Y-13368700D01*
X10062392Y-13124931D01*
X9876050Y-12938264D01*
X9838328Y-12922600D01*
X9915951Y-12808994D01*
X9945111Y-12665000D01*
X9945111Y-12065000D01*
X9919799Y-11930480D01*
X9861690Y-11840176D01*
X9870122Y-11836683D01*
X10016682Y-11690123D01*
X10096000Y-11498634D01*
X10096000Y-11375250D01*
X9965750Y-11245000D01*
X9041000Y-11245000D01*
X9041000Y-11356000D01*
X8559000Y-11356000D01*
X8559000Y-11245000D01*
X7634250Y-11245000D01*
X7504000Y-11375250D01*
X7504000Y-11498634D01*
X7583318Y-11690123D01*
X7729878Y-11836683D01*
X7739064Y-11840488D01*
X7714117Y-11877000D01*
X5567136Y-11877000D01*
X4382111Y-10691975D01*
X4382517Y-10691366D01*
X7504000Y-10691366D01*
X7504000Y-10814750D01*
X7634250Y-10945000D01*
X8559000Y-10945000D01*
X8559000Y-10404250D01*
X9041000Y-10404250D01*
X9041000Y-10945000D01*
X9965750Y-10945000D01*
X10096000Y-10814750D01*
X10096000Y-10691366D01*
X10016682Y-10499877D01*
X9870122Y-10353317D01*
X9678633Y-10274000D01*
X9171250Y-10274000D01*
X9041000Y-10404250D01*
X8559000Y-10404250D01*
X8428750Y-10274000D01*
X7921367Y-10274000D01*
X7729878Y-10353317D01*
X7583318Y-10499877D01*
X7504000Y-10691366D01*
X4382517Y-10691366D01*
X4518403Y-10488000D01*
X5500000Y-10488000D01*
X5686750Y-10450853D01*
X5845068Y-10345068D01*
X6558836Y-9631300D01*
X9836885Y-9631300D01*
X9937608Y-9875069D01*
X10123950Y-10061736D01*
X10367543Y-10162885D01*
X10631300Y-10163115D01*
X10875069Y-10062392D01*
X11061736Y-9876050D01*
X11162885Y-9632457D01*
X11163115Y-9368700D01*
X11062392Y-9124931D01*
X10988000Y-9050409D01*
X10988000Y-8220111D01*
X11500000Y-8220111D01*
X11634520Y-8194799D01*
X11758068Y-8115298D01*
X11840951Y-7993994D01*
X11870111Y-7850000D01*
X11870111Y-7150000D01*
X11844799Y-7015480D01*
X11765298Y-6891932D01*
X11643994Y-6809049D01*
X11500000Y-6779889D01*
X10500000Y-6779889D01*
X10365480Y-6805201D01*
X10241932Y-6884702D01*
X10159049Y-7006006D01*
X10129889Y-7150000D01*
X10129889Y-7692411D01*
X10049147Y-7813250D01*
X10012000Y-8000000D01*
X10012000Y-9050342D01*
X9938264Y-9123950D01*
X9837115Y-9367543D01*
X9836885Y-9631300D01*
X6558836Y-9631300D01*
X7304025Y-8886111D01*
X9016000Y-8886111D01*
X9150520Y-8860799D01*
X9274068Y-8781298D01*
X9356951Y-8659994D01*
X9386111Y-8516000D01*
X9386111Y-6484000D01*
X9360799Y-6349480D01*
X9281298Y-6225932D01*
X9159994Y-6143049D01*
X9016000Y-6113889D01*
X8734540Y-6113889D01*
X8922946Y-5988000D01*
X10157440Y-5988000D01*
X10234702Y-6108068D01*
X10356006Y-6190951D01*
X10500000Y-6220111D01*
X11500000Y-6220111D01*
X11634520Y-6194799D01*
X11758068Y-6115298D01*
X11840951Y-5993994D01*
X11870111Y-5850000D01*
X11870111Y-5150000D01*
X11844799Y-5015480D01*
X11765298Y-4891932D01*
X11643994Y-4809049D01*
X11500000Y-4779889D01*
X10500000Y-4779889D01*
X10365480Y-4805201D01*
X10241932Y-4884702D01*
X10159049Y-5006006D01*
X10157835Y-5012000D01*
X9395673Y-5012000D01*
X9406016Y-4960000D01*
X9301046Y-4432280D01*
X9002116Y-3984900D01*
X8554736Y-3685970D01*
X8027016Y-3581000D01*
X7972984Y-3581000D01*
X7445264Y-3685970D01*
X6997884Y-3984900D01*
X6698954Y-4432280D01*
X6593984Y-4960000D01*
X6698954Y-5487720D01*
X6997884Y-5935100D01*
X7265460Y-6113889D01*
X6984000Y-6113889D01*
X6849480Y-6139201D01*
X6725932Y-6218702D01*
X6643049Y-6340006D01*
X6613889Y-6484000D01*
X6613889Y-8195975D01*
X5297864Y-9512000D01*
X4518403Y-9512000D01*
X4318611Y-9212990D01*
X3957528Y-8971722D01*
X3531601Y-8887000D01*
X2468399Y-8887000D01*
X2042472Y-8971722D01*
X1681389Y-9212990D01*
X1440121Y-9574073D01*
X1355399Y-10000000D01*
X1440121Y-10425927D01*
X1681389Y-10787010D01*
X2042472Y-11028278D01*
X2468399Y-11113000D01*
X3422864Y-11113000D01*
X3737899Y-11428035D01*
X3531601Y-11387000D01*
X2468399Y-11387000D01*
X2042472Y-11471722D01*
X1681389Y-11712990D01*
X1440121Y-12074073D01*
X1355399Y-12500000D01*
X1440121Y-12925927D01*
X1681389Y-13287010D01*
X2042472Y-13528278D01*
X2468399Y-13613000D01*
X3422864Y-13613000D01*
X4512000Y-14702136D01*
X4512000Y-16715549D01*
X4209046Y-16417976D01*
X3741000Y-16229000D01*
X3241000Y-16229000D01*
X3241000Y-17259000D01*
X3261000Y-17259000D01*
X3261000Y-17741000D01*
X3241000Y-17741000D01*
X3241000Y-18771000D01*
X3741000Y-18771000D01*
X4209046Y-18582024D01*
X4512000Y-18284451D01*
X4512000Y-19502417D01*
X4318611Y-19212990D01*
X3957528Y-18971722D01*
X3531601Y-18887000D01*
X2468399Y-18887000D01*
X2042472Y-18971722D01*
X1681389Y-19212990D01*
X1440121Y-19574073D01*
X1355399Y-20000000D01*
X1440121Y-20425927D01*
X1575405Y-20628393D01*
X601899Y-21601899D01*
X479856Y-21784549D01*
X437000Y-22000000D01*
X413000Y-22000000D01*
X413000Y-17933254D01*
X1305123Y-17933254D01*
X1430854Y-18228320D01*
X1790954Y-18582024D01*
X2259000Y-18771000D01*
X2759000Y-18771000D01*
X2759000Y-17741000D01*
X1384998Y-17741000D01*
X1305123Y-17933254D01*
X413000Y-17933254D01*
X413000Y-17066746D01*
X1305123Y-17066746D01*
X1384998Y-17259000D01*
X2759000Y-17259000D01*
X2759000Y-16229000D01*
X2259000Y-16229000D01*
X1790954Y-16417976D01*
X1430854Y-16771680D01*
X1305123Y-17066746D01*
X413000Y-17066746D01*
X413000Y-7500000D01*
X1355399Y-7500000D01*
X1440121Y-7925927D01*
X1681389Y-8287010D01*
X2042472Y-8528278D01*
X2468399Y-8613000D01*
X3531601Y-8613000D01*
X3957528Y-8528278D01*
X4318611Y-8287010D01*
X4559879Y-7925927D01*
X4644601Y-7500000D01*
X4559879Y-7074073D01*
X4318611Y-6712990D01*
X3957528Y-6471722D01*
X3531601Y-6387000D01*
X2468399Y-6387000D01*
X2042472Y-6471722D01*
X1681389Y-6712990D01*
X1440121Y-7074073D01*
X1355399Y-7500000D01*
X413000Y-7500000D01*
X413000Y-5433254D01*
X1305123Y-5433254D01*
X1430854Y-5728320D01*
X1790954Y-6082024D01*
X2259000Y-6271000D01*
X2759000Y-6271000D01*
X2759000Y-5241000D01*
X3241000Y-5241000D01*
X3241000Y-6271000D01*
X3741000Y-6271000D01*
X4209046Y-6082024D01*
X4569146Y-5728320D01*
X4694877Y-5433254D01*
X4615002Y-5241000D01*
X3241000Y-5241000D01*
X2759000Y-5241000D01*
X1384998Y-5241000D01*
X1305123Y-5433254D01*
X413000Y-5433254D01*
X413000Y-4566746D01*
X1305123Y-4566746D01*
X1384998Y-4759000D01*
X2759000Y-4759000D01*
X2759000Y-3729000D01*
X3241000Y-3729000D01*
X3241000Y-4759000D01*
X4615002Y-4759000D01*
X4694877Y-4566746D01*
X4569146Y-4271680D01*
X4209046Y-3917976D01*
X3741000Y-3729000D01*
X3241000Y-3729000D01*
X2759000Y-3729000D01*
X2259000Y-3729000D01*
X1790954Y-3917976D01*
X1430854Y-4271680D01*
X1305123Y-4566746D01*
X413000Y-4566746D01*
X413000Y-413000D01*
X53987000Y-413000D01*
X53987000Y-6216798D01*
G36*
X24154932Y-23345068D02*
X24313251Y-23450854D01*
X24500000Y-23488000D01*
X30297864Y-23488000D01*
X34154932Y-27345068D01*
X34313250Y-27450853D01*
X34500000Y-27488000D01*
X38297864Y-27488000D01*
X41836976Y-31027112D01*
X41836885Y-31131300D01*
X41937608Y-31375069D01*
X42074301Y-31512000D01*
X41202136Y-31512000D01*
X40845068Y-31154932D01*
X40706572Y-31062392D01*
X40686750Y-31049147D01*
X40500000Y-31012000D01*
X39949658Y-31012000D01*
X39876050Y-30938264D01*
X39632457Y-30837115D01*
X39368700Y-30836885D01*
X39124931Y-30937608D01*
X39062906Y-30999525D01*
X39050720Y-30938264D01*
X39020145Y-30784550D01*
X38898101Y-30601899D01*
X37898101Y-29601899D01*
X37715451Y-29479856D01*
X37500000Y-29437000D01*
X37157384Y-29437000D01*
X36989488Y-29268811D01*
X36672414Y-29137150D01*
X36329092Y-29136851D01*
X36011789Y-29267958D01*
X35768811Y-29510512D01*
X35637150Y-29827586D01*
X35636851Y-30170908D01*
X35767958Y-30488211D01*
X36010512Y-30731189D01*
X36327586Y-30862850D01*
X36670908Y-30863149D01*
X36988211Y-30732042D01*
X37157548Y-30563000D01*
X37266798Y-30563000D01*
X37937000Y-31233202D01*
X37937000Y-32500000D01*
X37979856Y-32715451D01*
X38087165Y-32876050D01*
X38101899Y-32898101D01*
X39437000Y-34233202D01*
X39437000Y-34574167D01*
X39389767Y-34605727D01*
X39343143Y-34675504D01*
X39118571Y-34422336D01*
X38893239Y-34295767D01*
X38741000Y-34380472D01*
X38741000Y-35259000D01*
X38761000Y-35259000D01*
X38761000Y-35741000D01*
X38741000Y-35741000D01*
X38741000Y-35761000D01*
X38259000Y-35761000D01*
X38259000Y-35741000D01*
X37606777Y-35741000D01*
X37485843Y-35901365D01*
X37616374Y-36278858D01*
X37823182Y-36512000D01*
X36202136Y-36512000D01*
X34788771Y-35098635D01*
X37485843Y-35098635D01*
X37606777Y-35259000D01*
X38259000Y-35259000D01*
X38259000Y-34380472D01*
X38106761Y-34295767D01*
X37881429Y-34422336D01*
X37616374Y-34721142D01*
X37485843Y-35098635D01*
X34788771Y-35098635D01*
X34488000Y-34797864D01*
X34488000Y-32500000D01*
X34478224Y-32450853D01*
X34450854Y-32313251D01*
X34345068Y-32154932D01*
X33488000Y-31297864D01*
X33488000Y-29500000D01*
X33478224Y-29450853D01*
X33450854Y-29313251D01*
X33345068Y-29154932D01*
X32845068Y-28654932D01*
X32798700Y-28623950D01*
X32686750Y-28549147D01*
X32500000Y-28512000D01*
X27702136Y-28512000D01*
X26488000Y-27297864D01*
X26488000Y-27131300D01*
X27336885Y-27131300D01*
X27437608Y-27375069D01*
X27623950Y-27561736D01*
X27867543Y-27662885D01*
X28131300Y-27663115D01*
X28375069Y-27562392D01*
X28561736Y-27376050D01*
X28662885Y-27132457D01*
X28663115Y-26868700D01*
X28562392Y-26624931D01*
X28376050Y-26438264D01*
X28132457Y-26337115D01*
X27868700Y-26336885D01*
X27624931Y-26437608D01*
X27438264Y-26623950D01*
X27337115Y-26867543D01*
X27336885Y-27131300D01*
X26488000Y-27131300D01*
X26488000Y-26500000D01*
X26475720Y-26438264D01*
X26450854Y-26313251D01*
X26345068Y-26154932D01*
X25663024Y-25472888D01*
X25663115Y-25368700D01*
X25562392Y-25124931D01*
X25376050Y-24938264D01*
X25132457Y-24837115D01*
X24868700Y-24836885D01*
X24624931Y-24937608D01*
X24438264Y-25123950D01*
X24337115Y-25367543D01*
X24336885Y-25631300D01*
X24437608Y-25875069D01*
X24562376Y-26000054D01*
X24438264Y-26123950D01*
X24337115Y-26367543D01*
X24336885Y-26631300D01*
X24437608Y-26875069D01*
X24623950Y-27061736D01*
X24867543Y-27162885D01*
X24972841Y-27162977D01*
X25012000Y-27202136D01*
X25012000Y-27821864D01*
X22988000Y-25797864D01*
X22988000Y-23202136D01*
X23202136Y-22988000D01*
X23797864Y-22988000D01*
X24154932Y-23345068D01*
X24154932Y-23345068D01*
G37*
X24154932Y-23345068D02*
X24313251Y-23450854D01*
X24500000Y-23488000D01*
X30297864Y-23488000D01*
X34154932Y-27345068D01*
X34313250Y-27450853D01*
X34500000Y-27488000D01*
X38297864Y-27488000D01*
X41836976Y-31027112D01*
X41836885Y-31131300D01*
X41937608Y-31375069D01*
X42074301Y-31512000D01*
X41202136Y-31512000D01*
X40845068Y-31154932D01*
X40706572Y-31062392D01*
X40686750Y-31049147D01*
X40500000Y-31012000D01*
X39949658Y-31012000D01*
X39876050Y-30938264D01*
X39632457Y-30837115D01*
X39368700Y-30836885D01*
X39124931Y-30937608D01*
X39062906Y-30999525D01*
X39050720Y-30938264D01*
X39020145Y-30784550D01*
X38898101Y-30601899D01*
X37898101Y-29601899D01*
X37715451Y-29479856D01*
X37500000Y-29437000D01*
X37157384Y-29437000D01*
X36989488Y-29268811D01*
X36672414Y-29137150D01*
X36329092Y-29136851D01*
X36011789Y-29267958D01*
X35768811Y-29510512D01*
X35637150Y-29827586D01*
X35636851Y-30170908D01*
X35767958Y-30488211D01*
X36010512Y-30731189D01*
X36327586Y-30862850D01*
X36670908Y-30863149D01*
X36988211Y-30732042D01*
X37157548Y-30563000D01*
X37266798Y-30563000D01*
X37937000Y-31233202D01*
X37937000Y-32500000D01*
X37979856Y-32715451D01*
X38087165Y-32876050D01*
X38101899Y-32898101D01*
X39437000Y-34233202D01*
X39437000Y-34574167D01*
X39389767Y-34605727D01*
X39343143Y-34675504D01*
X39118571Y-34422336D01*
X38893239Y-34295767D01*
X38741000Y-34380472D01*
X38741000Y-35259000D01*
X38761000Y-35259000D01*
X38761000Y-35741000D01*
X38741000Y-35741000D01*
X38741000Y-35761000D01*
X38259000Y-35761000D01*
X38259000Y-35741000D01*
X37606777Y-35741000D01*
X37485843Y-35901365D01*
X37616374Y-36278858D01*
X37823182Y-36512000D01*
X36202136Y-36512000D01*
X34788771Y-35098635D01*
X37485843Y-35098635D01*
X37606777Y-35259000D01*
X38259000Y-35259000D01*
X38259000Y-34380472D01*
X38106761Y-34295767D01*
X37881429Y-34422336D01*
X37616374Y-34721142D01*
X37485843Y-35098635D01*
X34788771Y-35098635D01*
X34488000Y-34797864D01*
X34488000Y-32500000D01*
X34478224Y-32450853D01*
X34450854Y-32313251D01*
X34345068Y-32154932D01*
X33488000Y-31297864D01*
X33488000Y-29500000D01*
X33478224Y-29450853D01*
X33450854Y-29313251D01*
X33345068Y-29154932D01*
X32845068Y-28654932D01*
X32798700Y-28623950D01*
X32686750Y-28549147D01*
X32500000Y-28512000D01*
X27702136Y-28512000D01*
X26488000Y-27297864D01*
X26488000Y-27131300D01*
X27336885Y-27131300D01*
X27437608Y-27375069D01*
X27623950Y-27561736D01*
X27867543Y-27662885D01*
X28131300Y-27663115D01*
X28375069Y-27562392D01*
X28561736Y-27376050D01*
X28662885Y-27132457D01*
X28663115Y-26868700D01*
X28562392Y-26624931D01*
X28376050Y-26438264D01*
X28132457Y-26337115D01*
X27868700Y-26336885D01*
X27624931Y-26437608D01*
X27438264Y-26623950D01*
X27337115Y-26867543D01*
X27336885Y-27131300D01*
X26488000Y-27131300D01*
X26488000Y-26500000D01*
X26475720Y-26438264D01*
X26450854Y-26313251D01*
X26345068Y-26154932D01*
X25663024Y-25472888D01*
X25663115Y-25368700D01*
X25562392Y-25124931D01*
X25376050Y-24938264D01*
X25132457Y-24837115D01*
X24868700Y-24836885D01*
X24624931Y-24937608D01*
X24438264Y-25123950D01*
X24337115Y-25367543D01*
X24336885Y-25631300D01*
X24437608Y-25875069D01*
X24562376Y-26000054D01*
X24438264Y-26123950D01*
X24337115Y-26367543D01*
X24336885Y-26631300D01*
X24437608Y-26875069D01*
X24623950Y-27061736D01*
X24867543Y-27162885D01*
X24972841Y-27162977D01*
X25012000Y-27202136D01*
X25012000Y-27821864D01*
X22988000Y-25797864D01*
X22988000Y-23202136D01*
X23202136Y-22988000D01*
X23797864Y-22988000D01*
X24154932Y-23345068D01*
G36*
X13273730Y-14270979D02*
X13166932Y-14339702D01*
X13084049Y-14461006D01*
X13054889Y-14605000D01*
X13054889Y-15205000D01*
X13080201Y-15339520D01*
X13159702Y-15463068D01*
X13281006Y-15545951D01*
X13425000Y-15575111D01*
X14975000Y-15575111D01*
X15109520Y-15549799D01*
X15233068Y-15470298D01*
X15252184Y-15442320D01*
X15512000Y-15702136D01*
X15512000Y-16797864D01*
X11654932Y-20654932D01*
X11549147Y-20813250D01*
X11512000Y-21000000D01*
X11512000Y-29500000D01*
X11549147Y-29686750D01*
X11614495Y-29784550D01*
X11654932Y-29845068D01*
X13654932Y-31845068D01*
X13813250Y-31950853D01*
X14000000Y-31988000D01*
X26297864Y-31988000D01*
X28336976Y-34027112D01*
X28336885Y-34131300D01*
X28437608Y-34375069D01*
X28562376Y-34500054D01*
X28499946Y-34562376D01*
X28376050Y-34438264D01*
X28132457Y-34337115D01*
X27868700Y-34336885D01*
X27624931Y-34437608D01*
X27550409Y-34512000D01*
X23702136Y-34512000D01*
X22845068Y-33654932D01*
X22798700Y-33623950D01*
X22686750Y-33549147D01*
X22500000Y-33512000D01*
X22000000Y-33512000D01*
X21813250Y-33549147D01*
X21701300Y-33623950D01*
X21654932Y-33654932D01*
X20866796Y-34443068D01*
X20830256Y-34418652D01*
X20500000Y-34352960D01*
X20169744Y-34418652D01*
X19889767Y-34605727D01*
X19750000Y-34814903D01*
X19610233Y-34605727D01*
X19330256Y-34418652D01*
X19000000Y-34352960D01*
X18669744Y-34418652D01*
X18389767Y-34605727D01*
X18250000Y-34814903D01*
X18110233Y-34605727D01*
X17830256Y-34418652D01*
X17500000Y-34352960D01*
X17169744Y-34418652D01*
X16889767Y-34605727D01*
X16750000Y-34814903D01*
X16610233Y-34605727D01*
X16563000Y-34574167D01*
X16563000Y-33989983D01*
X16617120Y-33979799D01*
X16633557Y-33969222D01*
X16643406Y-33975951D01*
X16787400Y-34005111D01*
X17752600Y-34005111D01*
X17887120Y-33979799D01*
X18010668Y-33900298D01*
X18093551Y-33778994D01*
X18122711Y-33635000D01*
X18122711Y-32365000D01*
X18097399Y-32230480D01*
X18017898Y-32106932D01*
X17896594Y-32024049D01*
X17752600Y-31994889D01*
X16787400Y-31994889D01*
X16652880Y-32020201D01*
X16636443Y-32030778D01*
X16626594Y-32024049D01*
X16482600Y-31994889D01*
X15517400Y-31994889D01*
X15382880Y-32020201D01*
X15366443Y-32030778D01*
X15356594Y-32024049D01*
X15212600Y-31994889D01*
X14247400Y-31994889D01*
X14112880Y-32020201D01*
X13989332Y-32099702D01*
X13906449Y-32221006D01*
X13877289Y-32365000D01*
X13877289Y-32437000D01*
X13233202Y-32437000D01*
X12862942Y-32066740D01*
X12863149Y-31829092D01*
X12732042Y-31511789D01*
X12489488Y-31268811D01*
X12172414Y-31137150D01*
X11829092Y-31136851D01*
X11511789Y-31267958D01*
X11342452Y-31437000D01*
X11220111Y-31437000D01*
X11220111Y-31400000D01*
X11194799Y-31265480D01*
X11115298Y-31141932D01*
X10993994Y-31059049D01*
X10850000Y-31029889D01*
X9150000Y-31029889D01*
X9015480Y-31055201D01*
X8891932Y-31134702D01*
X8809049Y-31256006D01*
X8779889Y-31400000D01*
X8779889Y-31437000D01*
X7463000Y-31437000D01*
X7463000Y-30071250D01*
X8629000Y-30071250D01*
X8629000Y-30403633D01*
X8708317Y-30595122D01*
X8854877Y-30741682D01*
X9046366Y-30821000D01*
X9628750Y-30821000D01*
X9759000Y-30690750D01*
X9759000Y-29941000D01*
X10241000Y-29941000D01*
X10241000Y-30690750D01*
X10371250Y-30821000D01*
X10953634Y-30821000D01*
X11145123Y-30741682D01*
X11291683Y-30595122D01*
X11371000Y-30403633D01*
X11371000Y-30071250D01*
X11240750Y-29941000D01*
X10241000Y-29941000D01*
X9759000Y-29941000D01*
X8759250Y-29941000D01*
X8629000Y-30071250D01*
X7463000Y-30071250D01*
X7463000Y-28996367D01*
X8629000Y-28996367D01*
X8629000Y-29328750D01*
X8759250Y-29459000D01*
X9759000Y-29459000D01*
X9759000Y-28709250D01*
X10241000Y-28709250D01*
X10241000Y-29459000D01*
X11240750Y-29459000D01*
X11371000Y-29328750D01*
X11371000Y-28996367D01*
X11291683Y-28804878D01*
X11145123Y-28658318D01*
X10953634Y-28579000D01*
X10371250Y-28579000D01*
X10241000Y-28709250D01*
X9759000Y-28709250D01*
X9628750Y-28579000D01*
X9046366Y-28579000D01*
X8854877Y-28658318D01*
X8708317Y-28804878D01*
X8629000Y-28996367D01*
X7463000Y-28996367D01*
X7463000Y-28270111D01*
X7600000Y-28270111D01*
X7734520Y-28244799D01*
X7858068Y-28165298D01*
X7940951Y-28043994D01*
X7970111Y-27900000D01*
X7970111Y-27371250D01*
X8879000Y-27371250D01*
X8879000Y-28003634D01*
X8958318Y-28195123D01*
X9104878Y-28341683D01*
X9296367Y-28421000D01*
X9728750Y-28421000D01*
X9859000Y-28290750D01*
X9859000Y-27241000D01*
X10341000Y-27241000D01*
X10341000Y-28290750D01*
X10471250Y-28421000D01*
X10903633Y-28421000D01*
X11095122Y-28341683D01*
X11241682Y-28195123D01*
X11321000Y-28003634D01*
X11321000Y-27371250D01*
X11190750Y-27241000D01*
X10341000Y-27241000D01*
X9859000Y-27241000D01*
X9009250Y-27241000D01*
X8879000Y-27371250D01*
X7970111Y-27371250D01*
X7970111Y-26100000D01*
X7950611Y-25996366D01*
X8879000Y-25996366D01*
X8879000Y-26628750D01*
X9009250Y-26759000D01*
X9859000Y-26759000D01*
X9859000Y-25709250D01*
X10341000Y-25709250D01*
X10341000Y-26759000D01*
X11190750Y-26759000D01*
X11321000Y-26628750D01*
X11321000Y-25996366D01*
X11241682Y-25804877D01*
X11095122Y-25658317D01*
X10903633Y-25579000D01*
X10471250Y-25579000D01*
X10341000Y-25709250D01*
X9859000Y-25709250D01*
X9728750Y-25579000D01*
X9296367Y-25579000D01*
X9104878Y-25658317D01*
X8958318Y-25804877D01*
X8879000Y-25996366D01*
X7950611Y-25996366D01*
X7944799Y-25965480D01*
X7865298Y-25841932D01*
X7743994Y-25759049D01*
X7600000Y-25729889D01*
X7463000Y-25729889D01*
X7463000Y-19333202D01*
X12598202Y-14198000D01*
X13166920Y-14198000D01*
X13273730Y-14270979D01*
X13273730Y-14270979D01*
G37*
X13273730Y-14270979D02*
X13166932Y-14339702D01*
X13084049Y-14461006D01*
X13054889Y-14605000D01*
X13054889Y-15205000D01*
X13080201Y-15339520D01*
X13159702Y-15463068D01*
X13281006Y-15545951D01*
X13425000Y-15575111D01*
X14975000Y-15575111D01*
X15109520Y-15549799D01*
X15233068Y-15470298D01*
X15252184Y-15442320D01*
X15512000Y-15702136D01*
X15512000Y-16797864D01*
X11654932Y-20654932D01*
X11549147Y-20813250D01*
X11512000Y-21000000D01*
X11512000Y-29500000D01*
X11549147Y-29686750D01*
X11614495Y-29784550D01*
X11654932Y-29845068D01*
X13654932Y-31845068D01*
X13813250Y-31950853D01*
X14000000Y-31988000D01*
X26297864Y-31988000D01*
X28336976Y-34027112D01*
X28336885Y-34131300D01*
X28437608Y-34375069D01*
X28562376Y-34500054D01*
X28499946Y-34562376D01*
X28376050Y-34438264D01*
X28132457Y-34337115D01*
X27868700Y-34336885D01*
X27624931Y-34437608D01*
X27550409Y-34512000D01*
X23702136Y-34512000D01*
X22845068Y-33654932D01*
X22798700Y-33623950D01*
X22686750Y-33549147D01*
X22500000Y-33512000D01*
X22000000Y-33512000D01*
X21813250Y-33549147D01*
X21701300Y-33623950D01*
X21654932Y-33654932D01*
X20866796Y-34443068D01*
X20830256Y-34418652D01*
X20500000Y-34352960D01*
X20169744Y-34418652D01*
X19889767Y-34605727D01*
X19750000Y-34814903D01*
X19610233Y-34605727D01*
X19330256Y-34418652D01*
X19000000Y-34352960D01*
X18669744Y-34418652D01*
X18389767Y-34605727D01*
X18250000Y-34814903D01*
X18110233Y-34605727D01*
X17830256Y-34418652D01*
X17500000Y-34352960D01*
X17169744Y-34418652D01*
X16889767Y-34605727D01*
X16750000Y-34814903D01*
X16610233Y-34605727D01*
X16563000Y-34574167D01*
X16563000Y-33989983D01*
X16617120Y-33979799D01*
X16633557Y-33969222D01*
X16643406Y-33975951D01*
X16787400Y-34005111D01*
X17752600Y-34005111D01*
X17887120Y-33979799D01*
X18010668Y-33900298D01*
X18093551Y-33778994D01*
X18122711Y-33635000D01*
X18122711Y-32365000D01*
X18097399Y-32230480D01*
X18017898Y-32106932D01*
X17896594Y-32024049D01*
X17752600Y-31994889D01*
X16787400Y-31994889D01*
X16652880Y-32020201D01*
X16636443Y-32030778D01*
X16626594Y-32024049D01*
X16482600Y-31994889D01*
X15517400Y-31994889D01*
X15382880Y-32020201D01*
X15366443Y-32030778D01*
X15356594Y-32024049D01*
X15212600Y-31994889D01*
X14247400Y-31994889D01*
X14112880Y-32020201D01*
X13989332Y-32099702D01*
X13906449Y-32221006D01*
X13877289Y-32365000D01*
X13877289Y-32437000D01*
X13233202Y-32437000D01*
X12862942Y-32066740D01*
X12863149Y-31829092D01*
X12732042Y-31511789D01*
X12489488Y-31268811D01*
X12172414Y-31137150D01*
X11829092Y-31136851D01*
X11511789Y-31267958D01*
X11342452Y-31437000D01*
X11220111Y-31437000D01*
X11220111Y-31400000D01*
X11194799Y-31265480D01*
X11115298Y-31141932D01*
X10993994Y-31059049D01*
X10850000Y-31029889D01*
X9150000Y-31029889D01*
X9015480Y-31055201D01*
X8891932Y-31134702D01*
X8809049Y-31256006D01*
X8779889Y-31400000D01*
X8779889Y-31437000D01*
X7463000Y-31437000D01*
X7463000Y-30071250D01*
X8629000Y-30071250D01*
X8629000Y-30403633D01*
X8708317Y-30595122D01*
X8854877Y-30741682D01*
X9046366Y-30821000D01*
X9628750Y-30821000D01*
X9759000Y-30690750D01*
X9759000Y-29941000D01*
X10241000Y-29941000D01*
X10241000Y-30690750D01*
X10371250Y-30821000D01*
X10953634Y-30821000D01*
X11145123Y-30741682D01*
X11291683Y-30595122D01*
X11371000Y-30403633D01*
X11371000Y-30071250D01*
X11240750Y-29941000D01*
X10241000Y-29941000D01*
X9759000Y-29941000D01*
X8759250Y-29941000D01*
X8629000Y-30071250D01*
X7463000Y-30071250D01*
X7463000Y-28996367D01*
X8629000Y-28996367D01*
X8629000Y-29328750D01*
X8759250Y-29459000D01*
X9759000Y-29459000D01*
X9759000Y-28709250D01*
X10241000Y-28709250D01*
X10241000Y-29459000D01*
X11240750Y-29459000D01*
X11371000Y-29328750D01*
X11371000Y-28996367D01*
X11291683Y-28804878D01*
X11145123Y-28658318D01*
X10953634Y-28579000D01*
X10371250Y-28579000D01*
X10241000Y-28709250D01*
X9759000Y-28709250D01*
X9628750Y-28579000D01*
X9046366Y-28579000D01*
X8854877Y-28658318D01*
X8708317Y-28804878D01*
X8629000Y-28996367D01*
X7463000Y-28996367D01*
X7463000Y-28270111D01*
X7600000Y-28270111D01*
X7734520Y-28244799D01*
X7858068Y-28165298D01*
X7940951Y-28043994D01*
X7970111Y-27900000D01*
X7970111Y-27371250D01*
X8879000Y-27371250D01*
X8879000Y-28003634D01*
X8958318Y-28195123D01*
X9104878Y-28341683D01*
X9296367Y-28421000D01*
X9728750Y-28421000D01*
X9859000Y-28290750D01*
X9859000Y-27241000D01*
X10341000Y-27241000D01*
X10341000Y-28290750D01*
X10471250Y-28421000D01*
X10903633Y-28421000D01*
X11095122Y-28341683D01*
X11241682Y-28195123D01*
X11321000Y-28003634D01*
X11321000Y-27371250D01*
X11190750Y-27241000D01*
X10341000Y-27241000D01*
X9859000Y-27241000D01*
X9009250Y-27241000D01*
X8879000Y-27371250D01*
X7970111Y-27371250D01*
X7970111Y-26100000D01*
X7950611Y-25996366D01*
X8879000Y-25996366D01*
X8879000Y-26628750D01*
X9009250Y-26759000D01*
X9859000Y-26759000D01*
X9859000Y-25709250D01*
X10341000Y-25709250D01*
X10341000Y-26759000D01*
X11190750Y-26759000D01*
X11321000Y-26628750D01*
X11321000Y-25996366D01*
X11241682Y-25804877D01*
X11095122Y-25658317D01*
X10903633Y-25579000D01*
X10471250Y-25579000D01*
X10341000Y-25709250D01*
X9859000Y-25709250D01*
X9728750Y-25579000D01*
X9296367Y-25579000D01*
X9104878Y-25658317D01*
X8958318Y-25804877D01*
X8879000Y-25996366D01*
X7950611Y-25996366D01*
X7944799Y-25965480D01*
X7865298Y-25841932D01*
X7743994Y-25759049D01*
X7600000Y-25729889D01*
X7463000Y-25729889D01*
X7463000Y-19333202D01*
X12598202Y-14198000D01*
X13166920Y-14198000D01*
X13273730Y-14270979D01*
G36*
X16741000Y-11825000D02*
X16761000Y-11825000D01*
X16761000Y-12175000D01*
X16741000Y-12175000D01*
X16741000Y-12740750D01*
X16871250Y-12871000D01*
X17103634Y-12871000D01*
X17295123Y-12791682D01*
X17441683Y-12645122D01*
X17512000Y-12475361D01*
X17512000Y-15797864D01*
X16488000Y-16821864D01*
X16488000Y-15500000D01*
X16450853Y-15313250D01*
X16345068Y-15154932D01*
X15887456Y-14697320D01*
X16000000Y-14720111D01*
X17000000Y-14720111D01*
X17134520Y-14694799D01*
X17258068Y-14615298D01*
X17340951Y-14493994D01*
X17370111Y-14350000D01*
X17370111Y-13650000D01*
X17344799Y-13515480D01*
X17265298Y-13391932D01*
X17143994Y-13309049D01*
X17000000Y-13279889D01*
X16465038Y-13279889D01*
X16321750Y-13184147D01*
X16135000Y-13147000D01*
X15285386Y-13147000D01*
X15261690Y-13110176D01*
X15270122Y-13106683D01*
X15416682Y-12960123D01*
X15496000Y-12768634D01*
X15496000Y-12645250D01*
X15456752Y-12606002D01*
X15496000Y-12606002D01*
X15496000Y-12494675D01*
X15558317Y-12645122D01*
X15704877Y-12791682D01*
X15896366Y-12871000D01*
X16128750Y-12871000D01*
X16259000Y-12740750D01*
X16259000Y-12175000D01*
X16239000Y-12175000D01*
X16239000Y-11825000D01*
X16259000Y-11825000D01*
X16259000Y-11739000D01*
X16741000Y-11739000D01*
X16741000Y-11825000D01*
X16741000Y-11825000D01*
G37*
X16741000Y-11825000D02*
X16761000Y-11825000D01*
X16761000Y-12175000D01*
X16741000Y-12175000D01*
X16741000Y-12740750D01*
X16871250Y-12871000D01*
X17103634Y-12871000D01*
X17295123Y-12791682D01*
X17441683Y-12645122D01*
X17512000Y-12475361D01*
X17512000Y-15797864D01*
X16488000Y-16821864D01*
X16488000Y-15500000D01*
X16450853Y-15313250D01*
X16345068Y-15154932D01*
X15887456Y-14697320D01*
X16000000Y-14720111D01*
X17000000Y-14720111D01*
X17134520Y-14694799D01*
X17258068Y-14615298D01*
X17340951Y-14493994D01*
X17370111Y-14350000D01*
X17370111Y-13650000D01*
X17344799Y-13515480D01*
X17265298Y-13391932D01*
X17143994Y-13309049D01*
X17000000Y-13279889D01*
X16465038Y-13279889D01*
X16321750Y-13184147D01*
X16135000Y-13147000D01*
X15285386Y-13147000D01*
X15261690Y-13110176D01*
X15270122Y-13106683D01*
X15416682Y-12960123D01*
X15496000Y-12768634D01*
X15496000Y-12645250D01*
X15456752Y-12606002D01*
X15496000Y-12606002D01*
X15496000Y-12494675D01*
X15558317Y-12645122D01*
X15704877Y-12791682D01*
X15896366Y-12871000D01*
X16128750Y-12871000D01*
X16259000Y-12740750D01*
X16259000Y-12175000D01*
X16239000Y-12175000D01*
X16239000Y-11825000D01*
X16259000Y-11825000D01*
X16259000Y-11739000D01*
X16741000Y-11739000D01*
X16741000Y-11825000D01*
G36*
X56987000Y-99587000D02*
X17513000Y-99587000D01*
X17513000Y-97013000D01*
X37500000Y-97013000D01*
X37505058Y-97011976D01*
X37509319Y-97009065D01*
X37512111Y-97004725D01*
X37513000Y-97000000D01*
X37513000Y-91513000D01*
X56987000Y-91513000D01*
X56987000Y-99587000D01*
X56987000Y-99587000D01*
G37*
X56987000Y-99587000D02*
X17513000Y-99587000D01*
X17513000Y-97013000D01*
X37500000Y-97013000D01*
X37505058Y-97011976D01*
X37509319Y-97009065D01*
X37512111Y-97004725D01*
X37513000Y-97000000D01*
X37513000Y-91513000D01*
X56987000Y-91513000D01*
X56987000Y-99587000D01*
G36*
X36987000Y-96487000D02*
X17000000Y-96487000D01*
X16994942Y-96488024D01*
X16990681Y-96490935D01*
X16987889Y-96495275D01*
X16987000Y-96500000D01*
X16987000Y-99587000D01*
X3013000Y-99587000D01*
X3013000Y-95513000D01*
X13000000Y-95513000D01*
X13005058Y-95511976D01*
X13009192Y-95509192D01*
X17005384Y-91513000D01*
X36987000Y-91513000D01*
X36987000Y-96487000D01*
X36987000Y-96487000D01*
G37*
X36987000Y-96487000D02*
X17000000Y-96487000D01*
X16994942Y-96488024D01*
X16990681Y-96490935D01*
X16987889Y-96495275D01*
X16987000Y-96500000D01*
X16987000Y-99587000D01*
X3013000Y-99587000D01*
X3013000Y-95513000D01*
X13000000Y-95513000D01*
X13005058Y-95511976D01*
X13009192Y-95509192D01*
X17005384Y-91513000D01*
X36987000Y-91513000D01*
X36987000Y-96487000D01*
G36*
X56987000Y-88216798D02*
X56716798Y-88487000D01*
X39500000Y-88487000D01*
X39494942Y-88488024D01*
X39490808Y-88490808D01*
X36994616Y-90987000D01*
X16500000Y-90987000D01*
X16494942Y-90988024D01*
X16490808Y-90990808D01*
X12494616Y-94987000D01*
X3013000Y-94987000D01*
X3013000Y-92013000D01*
X11000000Y-92013000D01*
X11005058Y-92011976D01*
X11009192Y-92009192D01*
X15005384Y-88013000D01*
X24000000Y-88013000D01*
X24005058Y-88011976D01*
X24009192Y-88009192D01*
X30505384Y-81513000D01*
X56987000Y-81513000D01*
X56987000Y-88216798D01*
X56987000Y-88216798D01*
G37*
X56987000Y-88216798D02*
X56716798Y-88487000D01*
X39500000Y-88487000D01*
X39494942Y-88488024D01*
X39490808Y-88490808D01*
X36994616Y-90987000D01*
X16500000Y-90987000D01*
X16494942Y-90988024D01*
X16490808Y-90990808D01*
X12494616Y-94987000D01*
X3013000Y-94987000D01*
X3013000Y-92013000D01*
X11000000Y-92013000D01*
X11005058Y-92011976D01*
X11009192Y-92009192D01*
X15005384Y-88013000D01*
X24000000Y-88013000D01*
X24005058Y-88011976D01*
X24009192Y-88009192D01*
X30505384Y-81513000D01*
X56987000Y-81513000D01*
X56987000Y-88216798D01*
M02*
