M48
;DRILL file {KiCad 4.0.5} date 01/02/17 19:36:31
;FORMAT={-:-/ absolute / metric / decimal}
FMAT,2
METRIC,TZ
T1C0.400
T2C0.700
T3C0.800
T4C1.000
T5C1.016
T6C3.000
%
G90
G05
M71
T1
X3.75Y-25.
X3.75Y-58.5
X3.75Y-61.
X3.75Y-63.75
X4.25Y-55.75
X4.5Y-24.25
X5.25Y-23.5
X5.25Y-65.25
X6.Y-22.75
X6.5Y-28.
X6.75Y-22.
X7.25Y-31.5
X7.25Y-44.25
X7.5Y-21.25
X8.25Y-20.5
X8.25Y-50.25
X9.75Y-48.75
X10.25Y-19.75
X11.75Y-31.5
X12.Y-27.75
X12.25Y-21.75
X13.Y-27.
X14.Y-20.
X15.75Y-26.
X16.Y-32.
X16.5Y-30.5
X17.5Y-27.25
X17.75Y-14.25
X18.25Y-28.25
X18.5Y-20.25
X19.Y-10.
X20.Y-9.5
X20.Y-28.25
X20.25Y-12.25
X20.5Y-14.5
X20.5Y-16.
X21.25Y-25.
X21.5Y-9.5
X23.25Y-28.75
X24.Y-29.5
X24.5Y-17.75
X25.Y-18.5
X26.Y-19.75
X26.Y-20.75
X26.75Y-14.75
X27.Y-18.75
X28.Y-30.5
X28.5Y-42.5
X28.6Y-15.3
X28.75Y-33.
X29.75Y-30.
X29.75Y-37.25
X30.5Y-38.
X32.75Y-25.25
T2
X31.5Y-17.5
X31.5Y-19.
X31.5Y-20.5
X31.5Y-22.
X31.5Y-23.5
X31.5Y-25.
T3
X10.795Y-53.975
X11.5Y-44.5
X12.7Y-53.34
X16.75Y-24.35
X19.75Y-50.75
X20.Y-34.45
X20.Y-41.
X21.Y-17.5
X22.5Y-33.
X22.5Y-36.5
X23.Y-7.
X24.13Y-53.975
X26.035Y-53.34
X27.Y-48.5
X30.734Y-57.658
T4
X8.89Y-63.5
X9.01Y-3.175
X9.01Y-59.055
X11.39Y-63.5
X11.51Y-3.175
X11.51Y-59.055
X13.89Y-63.5
X14.01Y-3.175
X14.01Y-59.055
X16.39Y-63.5
X16.51Y-3.175
X16.51Y-59.055
X21.59Y-63.5
X21.71Y-3.175
X21.71Y-59.055
X24.09Y-63.5
X24.21Y-3.175
X24.21Y-59.055
X26.59Y-63.5
X26.71Y-3.175
X26.71Y-59.055
X29.09Y-63.5
X29.21Y-3.175
X29.21Y-59.055
T5
X1.27Y-1.27
X1.27Y-3.81
X1.27Y-6.35
X1.27Y-8.89
X1.27Y-11.43
X1.27Y-13.97
X1.27Y-16.51
X1.27Y-19.05
X1.27Y-21.59
X1.27Y-24.13
X1.27Y-26.67
X1.27Y-29.21
X1.27Y-31.75
X1.27Y-34.29
X1.27Y-36.83
X1.27Y-39.37
X1.27Y-41.91
X1.27Y-44.45
X1.27Y-46.99
X1.27Y-49.53
X1.27Y-52.07
X1.27Y-54.61
X1.27Y-57.15
X1.27Y-59.69
X1.27Y-62.23
X1.27Y-64.77
X1.27Y-67.31
X1.27Y-69.85
X5.08Y-67.31
X5.08Y-69.85
X33.02Y-67.31
X33.02Y-69.85
X36.83Y-1.27
X36.83Y-3.81
X36.83Y-6.35
X36.83Y-8.89
X36.83Y-11.43
X36.83Y-13.97
X36.83Y-16.51
X36.83Y-19.05
X36.83Y-21.59
X36.83Y-24.13
X36.83Y-26.67
X36.83Y-29.21
X36.83Y-31.75
X36.83Y-34.29
X36.83Y-36.83
X36.83Y-39.37
X36.83Y-41.91
X36.83Y-44.45
X36.83Y-46.99
X36.83Y-49.53
X36.83Y-52.07
X36.83Y-54.61
X36.83Y-57.15
X36.83Y-59.69
X36.83Y-62.23
X36.83Y-64.77
X36.83Y-67.31
X36.83Y-69.85
T6
X12.64Y-70.
X25.34Y-70.
T0
M30
