G04 #@! TF.FileFunction,Soldermask,Bot*
%FSLAX46Y46*%
G04 Gerber Fmt 4.6, Leading zero omitted, Abs format (unit mm)*
G04 Created by KiCad (PCBNEW 4.0.7) date 01/30/18 18:32:40*
%MOMM*%
%LPD*%
G01*
G04 APERTURE LIST*
%ADD10C,0.100000*%
%ADD11R,1.400000X1.000000*%
%ADD12R,1.900000X2.800000*%
%ADD13R,7.400240X7.400240*%
%ADD14R,2.127200X2.432000*%
%ADD15O,2.127200X2.432000*%
%ADD16R,1.365200X1.670000*%
%ADD17R,2.100000X1.600000*%
%ADD18R,2.100000X3.700000*%
%ADD19R,1.700000X1.700000*%
%ADD20C,1.700000*%
%ADD21R,2.432000X2.127200*%
%ADD22O,2.432000X2.127200*%
%ADD23R,1.000000X1.400000*%
%ADD24C,0.026000*%
G04 APERTURE END LIST*
D10*
D11*
X8890000Y-25035000D03*
X8890000Y-27035000D03*
X19050000Y-25035000D03*
X19050000Y-27035000D03*
D12*
X11190000Y-14880000D03*
X6590000Y-14880000D03*
D13*
X8890000Y-8980680D03*
D12*
X11190000Y-26310000D03*
X6590000Y-26310000D03*
D13*
X8890000Y-20410680D03*
D12*
X21350000Y-14880000D03*
X16750000Y-14880000D03*
D13*
X19050000Y-8980680D03*
D12*
X21350000Y-26310000D03*
X16750000Y-26310000D03*
D13*
X19050000Y-20410680D03*
D14*
X5080000Y-39370000D03*
D15*
X7620000Y-39370000D03*
X10160000Y-39370000D03*
X12700000Y-39370000D03*
X15240000Y-39370000D03*
X17780000Y-39370000D03*
X20320000Y-39370000D03*
X22860000Y-39370000D03*
X25400000Y-39370000D03*
X27940000Y-39370000D03*
X30480000Y-39370000D03*
X33020000Y-39370000D03*
X35560000Y-39370000D03*
X38100000Y-39370000D03*
X40640000Y-39370000D03*
X43180000Y-39370000D03*
D12*
X31510000Y-14880000D03*
X26910000Y-14880000D03*
D13*
X29210000Y-8980680D03*
D12*
X31510000Y-26310000D03*
X26910000Y-26310000D03*
D13*
X29210000Y-20410680D03*
D12*
X41670000Y-14880000D03*
X37070000Y-14880000D03*
D13*
X39370000Y-8980680D03*
D12*
X41670000Y-26310000D03*
X37070000Y-26310000D03*
D13*
X39370000Y-20410680D03*
D11*
X29210000Y-25035000D03*
X29210000Y-27035000D03*
X39370000Y-25035000D03*
X39370000Y-27035000D03*
D16*
X14605000Y-36830000D03*
X15875000Y-36830000D03*
X24765000Y-36830000D03*
X26035000Y-36830000D03*
X34925000Y-36830000D03*
X36195000Y-36830000D03*
X43815000Y-36830000D03*
X42545000Y-36830000D03*
D17*
X52070000Y-31990000D03*
X52070000Y-34290000D03*
X52070000Y-36590000D03*
D18*
X45770000Y-34290000D03*
D19*
X48260000Y-25400000D03*
D20*
X48260000Y-30400000D03*
D19*
X48260000Y-15240000D03*
D20*
X48260000Y-20240000D03*
D14*
X50800000Y-39370000D03*
D15*
X48260000Y-39370000D03*
X45720000Y-39370000D03*
D21*
X45720000Y-6350000D03*
D22*
X45720000Y-8890000D03*
X45720000Y-11430000D03*
X45720000Y-13970000D03*
D21*
X50800000Y-6350000D03*
D22*
X50800000Y-8890000D03*
X50800000Y-11430000D03*
X50800000Y-13970000D03*
D23*
X47355000Y-31750000D03*
X45355000Y-31750000D03*
D24*
G36*
X27927000Y-13840384D02*
X27927000Y-16639616D01*
X27434616Y-17132000D01*
X26540384Y-17132000D01*
X26048000Y-16639616D01*
X26048000Y-13840384D01*
X26540384Y-13348000D01*
X27434616Y-13348000D01*
X27927000Y-13840384D01*
X27927000Y-13840384D01*
G37*
X27927000Y-13840384D02*
X27927000Y-16639616D01*
X27434616Y-17132000D01*
X26540384Y-17132000D01*
X26048000Y-16639616D01*
X26048000Y-13840384D01*
X26540384Y-13348000D01*
X27434616Y-13348000D01*
X27927000Y-13840384D01*
G36*
X38087000Y-13840384D02*
X38087000Y-16639616D01*
X37594616Y-17132000D01*
X36700384Y-17132000D01*
X36208000Y-16639616D01*
X36208000Y-13840384D01*
X36700384Y-13348000D01*
X37594616Y-13348000D01*
X38087000Y-13840384D01*
X38087000Y-13840384D01*
G37*
X38087000Y-13840384D02*
X38087000Y-16639616D01*
X37594616Y-17132000D01*
X36700384Y-17132000D01*
X36208000Y-16639616D01*
X36208000Y-13840384D01*
X36700384Y-13348000D01*
X37594616Y-13348000D01*
X38087000Y-13840384D01*
G36*
X17767000Y-13840384D02*
X17767000Y-16639616D01*
X17274616Y-17132000D01*
X16380384Y-17132000D01*
X15888000Y-16639616D01*
X15888000Y-13840384D01*
X16380384Y-13348000D01*
X17274616Y-13348000D01*
X17767000Y-13840384D01*
X17767000Y-13840384D01*
G37*
X17767000Y-13840384D02*
X17767000Y-16639616D01*
X17274616Y-17132000D01*
X16380384Y-17132000D01*
X15888000Y-16639616D01*
X15888000Y-13840384D01*
X16380384Y-13348000D01*
X17274616Y-13348000D01*
X17767000Y-13840384D01*
G36*
X7607000Y-13840384D02*
X7607000Y-16639616D01*
X7114616Y-17132000D01*
X6220384Y-17132000D01*
X5728000Y-16639616D01*
X5728000Y-13840384D01*
X6220384Y-13348000D01*
X7114616Y-13348000D01*
X7607000Y-13840384D01*
X7607000Y-13840384D01*
G37*
X7607000Y-13840384D02*
X7607000Y-16639616D01*
X7114616Y-17132000D01*
X6220384Y-17132000D01*
X5728000Y-16639616D01*
X5728000Y-13840384D01*
X6220384Y-13348000D01*
X7114616Y-13348000D01*
X7607000Y-13840384D01*
G36*
X49517000Y-5585384D02*
X49517000Y-12835000D01*
X49517990Y-12839975D01*
X49871543Y-13693528D01*
X49874361Y-13697745D01*
X50435426Y-14258810D01*
X50787000Y-15107585D01*
X50787000Y-26802415D01*
X50435426Y-27651190D01*
X49241190Y-28845426D01*
X48392415Y-29197000D01*
X4950384Y-29197000D01*
X4458000Y-28704616D01*
X4458000Y-28445384D01*
X4950384Y-27953000D01*
X47760000Y-27953000D01*
X47764975Y-27952010D01*
X48618528Y-27598457D01*
X48622745Y-27595639D01*
X49185639Y-27032745D01*
X49188457Y-27028528D01*
X49542010Y-26174975D01*
X49543000Y-26170000D01*
X49543000Y-15105000D01*
X49542010Y-15100025D01*
X49188457Y-14246472D01*
X49185639Y-14242255D01*
X48624574Y-13681190D01*
X48273000Y-12832415D01*
X48273000Y-5585384D01*
X48765384Y-5093000D01*
X49024616Y-5093000D01*
X49517000Y-5585384D01*
X49517000Y-5585384D01*
G37*
X49517000Y-5585384D02*
X49517000Y-12835000D01*
X49517990Y-12839975D01*
X49871543Y-13693528D01*
X49874361Y-13697745D01*
X50435426Y-14258810D01*
X50787000Y-15107585D01*
X50787000Y-26802415D01*
X50435426Y-27651190D01*
X49241190Y-28845426D01*
X48392415Y-29197000D01*
X4950384Y-29197000D01*
X4458000Y-28704616D01*
X4458000Y-28445384D01*
X4950384Y-27953000D01*
X47760000Y-27953000D01*
X47764975Y-27952010D01*
X48618528Y-27598457D01*
X48622745Y-27595639D01*
X49185639Y-27032745D01*
X49188457Y-27028528D01*
X49542010Y-26174975D01*
X49543000Y-26170000D01*
X49543000Y-15105000D01*
X49542010Y-15100025D01*
X49188457Y-14246472D01*
X49185639Y-14242255D01*
X48624574Y-13681190D01*
X48273000Y-12832415D01*
X48273000Y-5585384D01*
X48765384Y-5093000D01*
X49024616Y-5093000D01*
X49517000Y-5585384D01*
M02*
