G04 #@! TF.FileFunction,Legend,Bot*
%FSLAX46Y46*%
G04 Gerber Fmt 4.6, Leading zero omitted, Abs format (unit mm)*
G04 Created by KiCad (PCBNEW 4.0.7) date 12/18/17 20:41:25*
%MOMM*%
%LPD*%
G01*
G04 APERTURE LIST*
%ADD10C,0.100000*%
%ADD11C,0.200000*%
%ADD12C,0.500000*%
%ADD13C,0.150000*%
%ADD14C,0.101600*%
G04 APERTURE END LIST*
D10*
D11*
X14047619Y-37976190D02*
X14047619Y-37357142D01*
X13666667Y-37690476D01*
X13666667Y-37547618D01*
X13619048Y-37452380D01*
X13571429Y-37404761D01*
X13476190Y-37357142D01*
X13238095Y-37357142D01*
X13142857Y-37404761D01*
X13095238Y-37452380D01*
X13047619Y-37547618D01*
X13047619Y-37833333D01*
X13095238Y-37928571D01*
X13142857Y-37976190D01*
X13142857Y-36928571D02*
X13095238Y-36880952D01*
X13047619Y-36928571D01*
X13095238Y-36976190D01*
X13142857Y-36928571D01*
X13047619Y-36928571D01*
X14047619Y-36547619D02*
X14047619Y-35928571D01*
X13666667Y-36261905D01*
X13666667Y-36119047D01*
X13619048Y-36023809D01*
X13571429Y-35976190D01*
X13476190Y-35928571D01*
X13238095Y-35928571D01*
X13142857Y-35976190D01*
X13095238Y-36023809D01*
X13047619Y-36119047D01*
X13047619Y-36404762D01*
X13095238Y-36500000D01*
X13142857Y-36547619D01*
X14047619Y-35642857D02*
X13047619Y-35309524D01*
X14047619Y-34976190D01*
X6797619Y-48547619D02*
X6797619Y-49119048D01*
X6797619Y-48833334D02*
X7797619Y-48833334D01*
X7654762Y-48928572D01*
X7559524Y-49023810D01*
X7511905Y-49119048D01*
X7702381Y-48166667D02*
X7750000Y-48119048D01*
X7797619Y-48023810D01*
X7797619Y-47785714D01*
X7750000Y-47690476D01*
X7702381Y-47642857D01*
X7607143Y-47595238D01*
X7511905Y-47595238D01*
X7369048Y-47642857D01*
X6797619Y-48214286D01*
X6797619Y-47595238D01*
X7797619Y-45928571D02*
X7797619Y-46404762D01*
X7321429Y-46452381D01*
X7369048Y-46404762D01*
X7416667Y-46309524D01*
X7416667Y-46071428D01*
X7369048Y-45976190D01*
X7321429Y-45928571D01*
X7226190Y-45880952D01*
X6988095Y-45880952D01*
X6892857Y-45928571D01*
X6845238Y-45976190D01*
X6797619Y-46071428D01*
X6797619Y-46309524D01*
X6845238Y-46404762D01*
X6892857Y-46452381D01*
X9904762Y-12202381D02*
X9285714Y-12202381D01*
X9619048Y-12583333D01*
X9476190Y-12583333D01*
X9380952Y-12630952D01*
X9333333Y-12678571D01*
X9285714Y-12773810D01*
X9285714Y-13011905D01*
X9333333Y-13107143D01*
X9380952Y-13154762D01*
X9476190Y-13202381D01*
X9761905Y-13202381D01*
X9857143Y-13154762D01*
X9904762Y-13107143D01*
X8857143Y-13107143D02*
X8809524Y-13154762D01*
X8857143Y-13202381D01*
X8904762Y-13154762D01*
X8857143Y-13107143D01*
X8857143Y-13202381D01*
X8476191Y-12202381D02*
X7857143Y-12202381D01*
X8190477Y-12583333D01*
X8047619Y-12583333D01*
X7952381Y-12630952D01*
X7904762Y-12678571D01*
X7857143Y-12773810D01*
X7857143Y-13011905D01*
X7904762Y-13107143D01*
X7952381Y-13154762D01*
X8047619Y-13202381D01*
X8333334Y-13202381D01*
X8428572Y-13154762D01*
X8476191Y-13107143D01*
X6190476Y-12202381D02*
X6666667Y-12202381D01*
X6714286Y-12678571D01*
X6666667Y-12630952D01*
X6571429Y-12583333D01*
X6333333Y-12583333D01*
X6238095Y-12630952D01*
X6190476Y-12678571D01*
X6142857Y-12773810D01*
X6142857Y-13011905D01*
X6190476Y-13107143D01*
X6238095Y-13154762D01*
X6333333Y-13202381D01*
X6571429Y-13202381D01*
X6666667Y-13154762D01*
X6714286Y-13107143D01*
X7797619Y-64904762D02*
X7797619Y-64285714D01*
X7416667Y-64619048D01*
X7416667Y-64476190D01*
X7369048Y-64380952D01*
X7321429Y-64333333D01*
X7226190Y-64285714D01*
X6988095Y-64285714D01*
X6892857Y-64333333D01*
X6845238Y-64380952D01*
X6797619Y-64476190D01*
X6797619Y-64761905D01*
X6845238Y-64857143D01*
X6892857Y-64904762D01*
X6892857Y-63857143D02*
X6845238Y-63809524D01*
X6797619Y-63857143D01*
X6845238Y-63904762D01*
X6892857Y-63857143D01*
X6797619Y-63857143D01*
X7797619Y-63476191D02*
X7797619Y-62857143D01*
X7416667Y-63190477D01*
X7416667Y-63047619D01*
X7369048Y-62952381D01*
X7321429Y-62904762D01*
X7226190Y-62857143D01*
X6988095Y-62857143D01*
X6892857Y-62904762D01*
X6845238Y-62952381D01*
X6797619Y-63047619D01*
X6797619Y-63333334D01*
X6845238Y-63428572D01*
X6892857Y-63476191D01*
X7797619Y-61190476D02*
X7797619Y-61666667D01*
X7321429Y-61714286D01*
X7369048Y-61666667D01*
X7416667Y-61571429D01*
X7416667Y-61333333D01*
X7369048Y-61238095D01*
X7321429Y-61190476D01*
X7226190Y-61142857D01*
X6988095Y-61142857D01*
X6892857Y-61190476D01*
X6845238Y-61238095D01*
X6797619Y-61333333D01*
X6797619Y-61571429D01*
X6845238Y-61666667D01*
X6892857Y-61714286D01*
X20714286Y-42797619D02*
X21333334Y-42797619D01*
X21000000Y-42416667D01*
X21142858Y-42416667D01*
X21238096Y-42369048D01*
X21285715Y-42321429D01*
X21333334Y-42226190D01*
X21333334Y-41988095D01*
X21285715Y-41892857D01*
X21238096Y-41845238D01*
X21142858Y-41797619D01*
X20857143Y-41797619D01*
X20761905Y-41845238D01*
X20714286Y-41892857D01*
X21761905Y-41892857D02*
X21809524Y-41845238D01*
X21761905Y-41797619D01*
X21714286Y-41845238D01*
X21761905Y-41892857D01*
X21761905Y-41797619D01*
X22142857Y-42797619D02*
X22761905Y-42797619D01*
X22428571Y-42416667D01*
X22571429Y-42416667D01*
X22666667Y-42369048D01*
X22714286Y-42321429D01*
X22761905Y-42226190D01*
X22761905Y-41988095D01*
X22714286Y-41892857D01*
X22666667Y-41845238D01*
X22571429Y-41797619D01*
X22285714Y-41797619D01*
X22190476Y-41845238D01*
X22142857Y-41892857D01*
X25190477Y-42797619D02*
X24714286Y-42797619D01*
X24666667Y-42321429D01*
X24714286Y-42369048D01*
X24809524Y-42416667D01*
X25047620Y-42416667D01*
X25142858Y-42369048D01*
X25190477Y-42321429D01*
X25238096Y-42226190D01*
X25238096Y-41988095D01*
X25190477Y-41892857D01*
X25142858Y-41845238D01*
X25047620Y-41797619D01*
X24809524Y-41797619D01*
X24714286Y-41845238D01*
X24666667Y-41892857D01*
X7261904Y-25452381D02*
X7738095Y-25452381D01*
X7785714Y-25928571D01*
X7738095Y-25880952D01*
X7642857Y-25833333D01*
X7404761Y-25833333D01*
X7309523Y-25880952D01*
X7261904Y-25928571D01*
X7214285Y-26023810D01*
X7214285Y-26261905D01*
X7261904Y-26357143D01*
X7309523Y-26404762D01*
X7404761Y-26452381D01*
X7642857Y-26452381D01*
X7738095Y-26404762D01*
X7785714Y-26357143D01*
X8797619Y-23452381D02*
X8178571Y-23452381D01*
X8511905Y-23833333D01*
X8369047Y-23833333D01*
X8273809Y-23880952D01*
X8226190Y-23928571D01*
X8178571Y-24023810D01*
X8178571Y-24261905D01*
X8226190Y-24357143D01*
X8273809Y-24404762D01*
X8369047Y-24452381D01*
X8654762Y-24452381D01*
X8750000Y-24404762D01*
X8797619Y-24357143D01*
X7750000Y-24357143D02*
X7702381Y-24404762D01*
X7750000Y-24452381D01*
X7797619Y-24404762D01*
X7750000Y-24357143D01*
X7750000Y-24452381D01*
X7369048Y-23452381D02*
X6750000Y-23452381D01*
X7083334Y-23833333D01*
X6940476Y-23833333D01*
X6845238Y-23880952D01*
X6797619Y-23928571D01*
X6750000Y-24023810D01*
X6750000Y-24261905D01*
X6797619Y-24357143D01*
X6845238Y-24404762D01*
X6940476Y-24452381D01*
X7226191Y-24452381D01*
X7321429Y-24404762D01*
X7369048Y-24357143D01*
X6154762Y-16726191D02*
X6202381Y-16869048D01*
X6202381Y-17107144D01*
X6154762Y-17202382D01*
X6107143Y-17250001D01*
X6011905Y-17297620D01*
X5916667Y-17297620D01*
X5821429Y-17250001D01*
X5773810Y-17202382D01*
X5726190Y-17107144D01*
X5678571Y-16916667D01*
X5630952Y-16821429D01*
X5583333Y-16773810D01*
X5488095Y-16726191D01*
X5392857Y-16726191D01*
X5297619Y-16773810D01*
X5250000Y-16821429D01*
X5202381Y-16916667D01*
X5202381Y-17154763D01*
X5250000Y-17297620D01*
X6202381Y-17726191D02*
X5202381Y-17726191D01*
X5202381Y-18107144D01*
X5250000Y-18202382D01*
X5297619Y-18250001D01*
X5392857Y-18297620D01*
X5535714Y-18297620D01*
X5630952Y-18250001D01*
X5678571Y-18202382D01*
X5726190Y-18107144D01*
X5726190Y-17726191D01*
X6202381Y-18726191D02*
X5202381Y-18726191D01*
X7916667Y-16750000D02*
X7916667Y-17226191D01*
X8202381Y-16654762D02*
X7202381Y-16988095D01*
X8202381Y-17321429D01*
X8202381Y-17654762D02*
X7202381Y-17654762D01*
X8202381Y-18130952D02*
X7202381Y-18130952D01*
X8202381Y-18702381D01*
X7202381Y-18702381D01*
D12*
X15000000Y-33200000D02*
X11900000Y-33200000D01*
X15000000Y-39800000D02*
X11900000Y-39800000D01*
X11900000Y-39800000D02*
X11900000Y-33200000D01*
X15000000Y-39800000D02*
X15000000Y-33200000D01*
D13*
X63432300Y-9705100D02*
X64626100Y-9705100D01*
X64626100Y-9705100D02*
X64626100Y-4294900D01*
X64626100Y-4294900D02*
X63419600Y-4294900D01*
X57425200Y-5272800D02*
X54516900Y-5272800D01*
X54516900Y-4129800D02*
X57425200Y-4129800D01*
X54516900Y-5272800D02*
X54516900Y-4129800D01*
X54516900Y-9870200D02*
X54516900Y-8727200D01*
X54516900Y-8727200D02*
X57425200Y-8727200D01*
X57425200Y-9870200D02*
X54516900Y-9870200D01*
X57425200Y-3647200D02*
X63419600Y-3647200D01*
X63419600Y-3647200D02*
X63419600Y-10352800D01*
X63419600Y-10352800D02*
X57425200Y-10352800D01*
X57425200Y-3647200D02*
X57425200Y-10352800D01*
X63432300Y-17705100D02*
X64626100Y-17705100D01*
X64626100Y-17705100D02*
X64626100Y-12294900D01*
X64626100Y-12294900D02*
X63419600Y-12294900D01*
X57425200Y-13272800D02*
X54516900Y-13272800D01*
X54516900Y-12129800D02*
X57425200Y-12129800D01*
X54516900Y-13272800D02*
X54516900Y-12129800D01*
X54516900Y-17870200D02*
X54516900Y-16727200D01*
X54516900Y-16727200D02*
X57425200Y-16727200D01*
X57425200Y-17870200D02*
X54516900Y-17870200D01*
X57425200Y-11647200D02*
X63419600Y-11647200D01*
X63419600Y-11647200D02*
X63419600Y-18352800D01*
X63419600Y-18352800D02*
X57425200Y-18352800D01*
X57425200Y-11647200D02*
X57425200Y-18352800D01*
X74432300Y-25705100D02*
X75626100Y-25705100D01*
X75626100Y-25705100D02*
X75626100Y-20294900D01*
X75626100Y-20294900D02*
X74419600Y-20294900D01*
X68425200Y-21272800D02*
X65516900Y-21272800D01*
X65516900Y-20129800D02*
X68425200Y-20129800D01*
X65516900Y-21272800D02*
X65516900Y-20129800D01*
X65516900Y-25870200D02*
X65516900Y-24727200D01*
X65516900Y-24727200D02*
X68425200Y-24727200D01*
X68425200Y-25870200D02*
X65516900Y-25870200D01*
X68425200Y-19647200D02*
X74419600Y-19647200D01*
X74419600Y-19647200D02*
X74419600Y-26352800D01*
X74419600Y-26352800D02*
X68425200Y-26352800D01*
X68425200Y-19647200D02*
X68425200Y-26352800D01*
X63432300Y-25705100D02*
X64626100Y-25705100D01*
X64626100Y-25705100D02*
X64626100Y-20294900D01*
X64626100Y-20294900D02*
X63419600Y-20294900D01*
X57425200Y-21272800D02*
X54516900Y-21272800D01*
X54516900Y-20129800D02*
X57425200Y-20129800D01*
X54516900Y-21272800D02*
X54516900Y-20129800D01*
X54516900Y-25870200D02*
X54516900Y-24727200D01*
X54516900Y-24727200D02*
X57425200Y-24727200D01*
X57425200Y-25870200D02*
X54516900Y-25870200D01*
X57425200Y-19647200D02*
X63419600Y-19647200D01*
X63419600Y-19647200D02*
X63419600Y-26352800D01*
X63419600Y-26352800D02*
X57425200Y-26352800D01*
X57425200Y-19647200D02*
X57425200Y-26352800D01*
X74432300Y-33705100D02*
X75626100Y-33705100D01*
X75626100Y-33705100D02*
X75626100Y-28294900D01*
X75626100Y-28294900D02*
X74419600Y-28294900D01*
X68425200Y-29272800D02*
X65516900Y-29272800D01*
X65516900Y-28129800D02*
X68425200Y-28129800D01*
X65516900Y-29272800D02*
X65516900Y-28129800D01*
X65516900Y-33870200D02*
X65516900Y-32727200D01*
X65516900Y-32727200D02*
X68425200Y-32727200D01*
X68425200Y-33870200D02*
X65516900Y-33870200D01*
X68425200Y-27647200D02*
X74419600Y-27647200D01*
X74419600Y-27647200D02*
X74419600Y-34352800D01*
X74419600Y-34352800D02*
X68425200Y-34352800D01*
X68425200Y-27647200D02*
X68425200Y-34352800D01*
X63432300Y-33705100D02*
X64626100Y-33705100D01*
X64626100Y-33705100D02*
X64626100Y-28294900D01*
X64626100Y-28294900D02*
X63419600Y-28294900D01*
X57425200Y-29272800D02*
X54516900Y-29272800D01*
X54516900Y-28129800D02*
X57425200Y-28129800D01*
X54516900Y-29272800D02*
X54516900Y-28129800D01*
X54516900Y-33870200D02*
X54516900Y-32727200D01*
X54516900Y-32727200D02*
X57425200Y-32727200D01*
X57425200Y-33870200D02*
X54516900Y-33870200D01*
X57425200Y-27647200D02*
X63419600Y-27647200D01*
X63419600Y-27647200D02*
X63419600Y-34352800D01*
X63419600Y-34352800D02*
X57425200Y-34352800D01*
X57425200Y-27647200D02*
X57425200Y-34352800D01*
X74432300Y-67705100D02*
X75626100Y-67705100D01*
X75626100Y-67705100D02*
X75626100Y-62294900D01*
X75626100Y-62294900D02*
X74419600Y-62294900D01*
X68425200Y-63272800D02*
X65516900Y-63272800D01*
X65516900Y-62129800D02*
X68425200Y-62129800D01*
X65516900Y-63272800D02*
X65516900Y-62129800D01*
X65516900Y-67870200D02*
X65516900Y-66727200D01*
X65516900Y-66727200D02*
X68425200Y-66727200D01*
X68425200Y-67870200D02*
X65516900Y-67870200D01*
X68425200Y-61647200D02*
X74419600Y-61647200D01*
X74419600Y-61647200D02*
X74419600Y-68352800D01*
X74419600Y-68352800D02*
X68425200Y-68352800D01*
X68425200Y-61647200D02*
X68425200Y-68352800D01*
X63432300Y-67705100D02*
X64626100Y-67705100D01*
X64626100Y-67705100D02*
X64626100Y-62294900D01*
X64626100Y-62294900D02*
X63419600Y-62294900D01*
X57425200Y-63272800D02*
X54516900Y-63272800D01*
X54516900Y-62129800D02*
X57425200Y-62129800D01*
X54516900Y-63272800D02*
X54516900Y-62129800D01*
X54516900Y-67870200D02*
X54516900Y-66727200D01*
X54516900Y-66727200D02*
X57425200Y-66727200D01*
X57425200Y-67870200D02*
X54516900Y-67870200D01*
X57425200Y-61647200D02*
X63419600Y-61647200D01*
X63419600Y-61647200D02*
X63419600Y-68352800D01*
X63419600Y-68352800D02*
X57425200Y-68352800D01*
X57425200Y-61647200D02*
X57425200Y-68352800D01*
X74432300Y-75705100D02*
X75626100Y-75705100D01*
X75626100Y-75705100D02*
X75626100Y-70294900D01*
X75626100Y-70294900D02*
X74419600Y-70294900D01*
X68425200Y-71272800D02*
X65516900Y-71272800D01*
X65516900Y-70129800D02*
X68425200Y-70129800D01*
X65516900Y-71272800D02*
X65516900Y-70129800D01*
X65516900Y-75870200D02*
X65516900Y-74727200D01*
X65516900Y-74727200D02*
X68425200Y-74727200D01*
X68425200Y-75870200D02*
X65516900Y-75870200D01*
X68425200Y-69647200D02*
X74419600Y-69647200D01*
X74419600Y-69647200D02*
X74419600Y-76352800D01*
X74419600Y-76352800D02*
X68425200Y-76352800D01*
X68425200Y-69647200D02*
X68425200Y-76352800D01*
X63432300Y-75705100D02*
X64626100Y-75705100D01*
X64626100Y-75705100D02*
X64626100Y-70294900D01*
X64626100Y-70294900D02*
X63419600Y-70294900D01*
X57425200Y-71272800D02*
X54516900Y-71272800D01*
X54516900Y-70129800D02*
X57425200Y-70129800D01*
X54516900Y-71272800D02*
X54516900Y-70129800D01*
X54516900Y-75870200D02*
X54516900Y-74727200D01*
X54516900Y-74727200D02*
X57425200Y-74727200D01*
X57425200Y-75870200D02*
X54516900Y-75870200D01*
X57425200Y-69647200D02*
X63419600Y-69647200D01*
X63419600Y-69647200D02*
X63419600Y-76352800D01*
X63419600Y-76352800D02*
X57425200Y-76352800D01*
X57425200Y-69647200D02*
X57425200Y-76352800D01*
X74432300Y-9705100D02*
X75626100Y-9705100D01*
X75626100Y-9705100D02*
X75626100Y-4294900D01*
X75626100Y-4294900D02*
X74419600Y-4294900D01*
X68425200Y-5272800D02*
X65516900Y-5272800D01*
X65516900Y-4129800D02*
X68425200Y-4129800D01*
X65516900Y-5272800D02*
X65516900Y-4129800D01*
X65516900Y-9870200D02*
X65516900Y-8727200D01*
X65516900Y-8727200D02*
X68425200Y-8727200D01*
X68425200Y-9870200D02*
X65516900Y-9870200D01*
X68425200Y-3647200D02*
X74419600Y-3647200D01*
X74419600Y-3647200D02*
X74419600Y-10352800D01*
X74419600Y-10352800D02*
X68425200Y-10352800D01*
X68425200Y-3647200D02*
X68425200Y-10352800D01*
X74432300Y-17705100D02*
X75626100Y-17705100D01*
X75626100Y-17705100D02*
X75626100Y-12294900D01*
X75626100Y-12294900D02*
X74419600Y-12294900D01*
X68425200Y-13272800D02*
X65516900Y-13272800D01*
X65516900Y-12129800D02*
X68425200Y-12129800D01*
X65516900Y-13272800D02*
X65516900Y-12129800D01*
X65516900Y-17870200D02*
X65516900Y-16727200D01*
X65516900Y-16727200D02*
X68425200Y-16727200D01*
X68425200Y-17870200D02*
X65516900Y-17870200D01*
X68425200Y-11647200D02*
X74419600Y-11647200D01*
X74419600Y-11647200D02*
X74419600Y-18352800D01*
X74419600Y-18352800D02*
X68425200Y-18352800D01*
X68425200Y-11647200D02*
X68425200Y-18352800D01*
X6389000Y-61095000D02*
X6389000Y-64905000D01*
X6389000Y-64905000D02*
X4611000Y-64905000D01*
X4611000Y-64905000D02*
X4611000Y-61095000D01*
X6389000Y-61095000D02*
X4611000Y-61095000D01*
X24905000Y-44889000D02*
X21095000Y-44889000D01*
X21095000Y-44889000D02*
X21095000Y-43111000D01*
X21095000Y-43111000D02*
X24905000Y-43111000D01*
X24905000Y-44889000D02*
X24905000Y-43111000D01*
X4611000Y-26905000D02*
X4611000Y-23095000D01*
X4611000Y-23095000D02*
X6389000Y-23095000D01*
X6389000Y-23095000D02*
X6389000Y-26905000D01*
X4611000Y-26905000D02*
X6389000Y-26905000D01*
X74432300Y-83705100D02*
X75626100Y-83705100D01*
X75626100Y-83705100D02*
X75626100Y-78294900D01*
X75626100Y-78294900D02*
X74419600Y-78294900D01*
X68425200Y-79272800D02*
X65516900Y-79272800D01*
X65516900Y-78129800D02*
X68425200Y-78129800D01*
X65516900Y-79272800D02*
X65516900Y-78129800D01*
X65516900Y-83870200D02*
X65516900Y-82727200D01*
X65516900Y-82727200D02*
X68425200Y-82727200D01*
X68425200Y-83870200D02*
X65516900Y-83870200D01*
X68425200Y-77647200D02*
X74419600Y-77647200D01*
X74419600Y-77647200D02*
X74419600Y-84352800D01*
X74419600Y-84352800D02*
X68425200Y-84352800D01*
X68425200Y-77647200D02*
X68425200Y-84352800D01*
X63432300Y-83705100D02*
X64626100Y-83705100D01*
X64626100Y-83705100D02*
X64626100Y-78294900D01*
X64626100Y-78294900D02*
X63419600Y-78294900D01*
X57425200Y-79272800D02*
X54516900Y-79272800D01*
X54516900Y-78129800D02*
X57425200Y-78129800D01*
X54516900Y-79272800D02*
X54516900Y-78129800D01*
X54516900Y-83870200D02*
X54516900Y-82727200D01*
X54516900Y-82727200D02*
X57425200Y-82727200D01*
X57425200Y-83870200D02*
X54516900Y-83870200D01*
X57425200Y-77647200D02*
X63419600Y-77647200D01*
X63419600Y-77647200D02*
X63419600Y-84352800D01*
X63419600Y-84352800D02*
X57425200Y-84352800D01*
X57425200Y-77647200D02*
X57425200Y-84352800D01*
X74432300Y-91705100D02*
X75626100Y-91705100D01*
X75626100Y-91705100D02*
X75626100Y-86294900D01*
X75626100Y-86294900D02*
X74419600Y-86294900D01*
X68425200Y-87272800D02*
X65516900Y-87272800D01*
X65516900Y-86129800D02*
X68425200Y-86129800D01*
X65516900Y-87272800D02*
X65516900Y-86129800D01*
X65516900Y-91870200D02*
X65516900Y-90727200D01*
X65516900Y-90727200D02*
X68425200Y-90727200D01*
X68425200Y-91870200D02*
X65516900Y-91870200D01*
X68425200Y-85647200D02*
X74419600Y-85647200D01*
X74419600Y-85647200D02*
X74419600Y-92352800D01*
X74419600Y-92352800D02*
X68425200Y-92352800D01*
X68425200Y-85647200D02*
X68425200Y-92352800D01*
X63432300Y-91705100D02*
X64626100Y-91705100D01*
X64626100Y-91705100D02*
X64626100Y-86294900D01*
X64626100Y-86294900D02*
X63419600Y-86294900D01*
X57425200Y-87272800D02*
X54516900Y-87272800D01*
X54516900Y-86129800D02*
X57425200Y-86129800D01*
X54516900Y-87272800D02*
X54516900Y-86129800D01*
X54516900Y-91870200D02*
X54516900Y-90727200D01*
X54516900Y-90727200D02*
X57425200Y-90727200D01*
X57425200Y-91870200D02*
X54516900Y-91870200D01*
X57425200Y-85647200D02*
X63419600Y-85647200D01*
X63419600Y-85647200D02*
X63419600Y-92352800D01*
X63419600Y-92352800D02*
X57425200Y-92352800D01*
X57425200Y-85647200D02*
X57425200Y-92352800D01*
X6095000Y-9861000D02*
X9905000Y-9861000D01*
X9905000Y-9861000D02*
X9905000Y-11639000D01*
X9905000Y-11639000D02*
X6095000Y-11639000D01*
X6095000Y-9861000D02*
X6095000Y-11639000D01*
X6389000Y-45595000D02*
X6389000Y-49405000D01*
X6389000Y-49405000D02*
X4611000Y-49405000D01*
X4611000Y-49405000D02*
X4611000Y-45595000D01*
X6389000Y-45595000D02*
X4611000Y-45595000D01*
X4595000Y-19111000D02*
X8405000Y-19111000D01*
X8405000Y-19111000D02*
X8405000Y-20889000D01*
X8405000Y-20889000D02*
X4595000Y-20889000D01*
X4595000Y-19111000D02*
X4595000Y-20889000D01*
X8405000Y-22889000D02*
X4595000Y-22889000D01*
X4595000Y-22889000D02*
X4595000Y-21111000D01*
X4595000Y-21111000D02*
X8405000Y-21111000D01*
X8405000Y-22889000D02*
X8405000Y-21111000D01*
D14*
X13445667Y-29638214D02*
X13445667Y-30442548D01*
X13732929Y-29178595D02*
X14020190Y-30040381D01*
X13273310Y-30040381D01*
X12813690Y-30327643D02*
X12756238Y-30385095D01*
X12813690Y-30442548D01*
X12871142Y-30385095D01*
X12813690Y-30327643D01*
X12813690Y-30442548D01*
X12354071Y-29236048D02*
X11549738Y-29236048D01*
X12066809Y-30442548D01*
X10573047Y-29638214D02*
X10573047Y-30442548D01*
X11090118Y-29638214D02*
X11090118Y-30270190D01*
X11032666Y-30385095D01*
X10917761Y-30442548D01*
X10745404Y-30442548D01*
X10630499Y-30385095D01*
X10573047Y-30327643D01*
X13695667Y-43138214D02*
X13695667Y-43942548D01*
X13982929Y-42678595D02*
X14270190Y-43540381D01*
X13523310Y-43540381D01*
X13063690Y-43827643D02*
X13006238Y-43885095D01*
X13063690Y-43942548D01*
X13121142Y-43885095D01*
X13063690Y-43827643D01*
X13063690Y-43942548D01*
X12604071Y-42736048D02*
X11799738Y-42736048D01*
X12316809Y-43942548D01*
X10823047Y-43138214D02*
X10823047Y-43942548D01*
X11340118Y-43138214D02*
X11340118Y-43770190D01*
X11282666Y-43885095D01*
X11167761Y-43942548D01*
X10995404Y-43942548D01*
X10880499Y-43885095D01*
X10823047Y-43827643D01*
X69195667Y-44638214D02*
X69195667Y-45442548D01*
X69482929Y-44178595D02*
X69770190Y-45040381D01*
X69023310Y-45040381D01*
X68563690Y-45327643D02*
X68506238Y-45385095D01*
X68563690Y-45442548D01*
X68621142Y-45385095D01*
X68563690Y-45327643D01*
X68563690Y-45442548D01*
X68104071Y-44236048D02*
X67299738Y-44236048D01*
X67816809Y-45442548D01*
X66323047Y-44638214D02*
X66323047Y-45442548D01*
X66840118Y-44638214D02*
X66840118Y-45270190D01*
X66782666Y-45385095D01*
X66667761Y-45442548D01*
X66495404Y-45442548D01*
X66380499Y-45385095D01*
X66323047Y-45327643D01*
X66695667Y-38138214D02*
X66695667Y-38942548D01*
X66982929Y-37678595D02*
X67270190Y-38540381D01*
X66523310Y-38540381D01*
X66063690Y-38827643D02*
X66006238Y-38885095D01*
X66063690Y-38942548D01*
X66121142Y-38885095D01*
X66063690Y-38827643D01*
X66063690Y-38942548D01*
X65604071Y-37736048D02*
X64799738Y-37736048D01*
X65316809Y-38942548D01*
X63823047Y-38138214D02*
X63823047Y-38942548D01*
X64340118Y-38138214D02*
X64340118Y-38770190D01*
X64282666Y-38885095D01*
X64167761Y-38942548D01*
X63995404Y-38942548D01*
X63880499Y-38885095D01*
X63823047Y-38827643D01*
X65195667Y-44638214D02*
X65195667Y-45442548D01*
X65482929Y-44178595D02*
X65770190Y-45040381D01*
X65023310Y-45040381D01*
X64563690Y-45327643D02*
X64506238Y-45385095D01*
X64563690Y-45442548D01*
X64621142Y-45385095D01*
X64563690Y-45327643D01*
X64563690Y-45442548D01*
X64104071Y-44236048D02*
X63299738Y-44236048D01*
X63816809Y-45442548D01*
X62323047Y-44638214D02*
X62323047Y-45442548D01*
X62840118Y-44638214D02*
X62840118Y-45270190D01*
X62782666Y-45385095D01*
X62667761Y-45442548D01*
X62495404Y-45442548D01*
X62380499Y-45385095D01*
X62323047Y-45327643D01*
X65195667Y-51638214D02*
X65195667Y-52442548D01*
X65482929Y-51178595D02*
X65770190Y-52040381D01*
X65023310Y-52040381D01*
X64563690Y-52327643D02*
X64506238Y-52385095D01*
X64563690Y-52442548D01*
X64621142Y-52385095D01*
X64563690Y-52327643D01*
X64563690Y-52442548D01*
X64104071Y-51236048D02*
X63299738Y-51236048D01*
X63816809Y-52442548D01*
X62323047Y-51638214D02*
X62323047Y-52442548D01*
X62840118Y-51638214D02*
X62840118Y-52270190D01*
X62782666Y-52385095D01*
X62667761Y-52442548D01*
X62495404Y-52442548D01*
X62380499Y-52385095D01*
X62323047Y-52327643D01*
X69195667Y-51638214D02*
X69195667Y-52442548D01*
X69482929Y-51178595D02*
X69770190Y-52040381D01*
X69023310Y-52040381D01*
X68563690Y-52327643D02*
X68506238Y-52385095D01*
X68563690Y-52442548D01*
X68621142Y-52385095D01*
X68563690Y-52327643D01*
X68563690Y-52442548D01*
X68104071Y-51236048D02*
X67299738Y-51236048D01*
X67816809Y-52442548D01*
X66323047Y-51638214D02*
X66323047Y-52442548D01*
X66840118Y-51638214D02*
X66840118Y-52270190D01*
X66782666Y-52385095D01*
X66667761Y-52442548D01*
X66495404Y-52442548D01*
X66380499Y-52385095D01*
X66323047Y-52327643D01*
X66695667Y-58138214D02*
X66695667Y-58942548D01*
X66982929Y-57678595D02*
X67270190Y-58540381D01*
X66523310Y-58540381D01*
X66063690Y-58827643D02*
X66006238Y-58885095D01*
X66063690Y-58942548D01*
X66121142Y-58885095D01*
X66063690Y-58827643D01*
X66063690Y-58942548D01*
X65604071Y-57736048D02*
X64799738Y-57736048D01*
X65316809Y-58942548D01*
X63823047Y-58138214D02*
X63823047Y-58942548D01*
X64340118Y-58138214D02*
X64340118Y-58770190D01*
X64282666Y-58885095D01*
X64167761Y-58942548D01*
X63995404Y-58942548D01*
X63880499Y-58885095D01*
X63823047Y-58827643D01*
X35712738Y-13442548D02*
X35712738Y-12236048D01*
X35425476Y-12236048D01*
X35253119Y-12293500D01*
X35138214Y-12408405D01*
X35080762Y-12523310D01*
X35023310Y-12753119D01*
X35023310Y-12925476D01*
X35080762Y-13155286D01*
X35138214Y-13270190D01*
X35253119Y-13385095D01*
X35425476Y-13442548D01*
X35712738Y-13442548D01*
X34506238Y-13442548D02*
X34506238Y-12236048D01*
X33701905Y-12236048D02*
X33472095Y-12236048D01*
X33357190Y-12293500D01*
X33242286Y-12408405D01*
X33184833Y-12638214D01*
X33184833Y-13040381D01*
X33242286Y-13270190D01*
X33357190Y-13385095D01*
X33472095Y-13442548D01*
X33701905Y-13442548D01*
X33816809Y-13385095D01*
X33931714Y-13270190D01*
X33989166Y-13040381D01*
X33989166Y-12638214D01*
X33931714Y-12408405D01*
X33816809Y-12293500D01*
X33701905Y-12236048D01*
X32667762Y-13442548D02*
X32667762Y-12236048D01*
X32380500Y-12236048D01*
X32208143Y-12293500D01*
X32093238Y-12408405D01*
X32035786Y-12523310D01*
X31978334Y-12753119D01*
X31978334Y-12925476D01*
X32035786Y-13155286D01*
X32093238Y-13270190D01*
X32208143Y-13385095D01*
X32380500Y-13442548D01*
X32667762Y-13442548D01*
X31461262Y-12810571D02*
X31059095Y-12810571D01*
X30886738Y-13442548D02*
X31461262Y-13442548D01*
X31461262Y-12236048D01*
X30886738Y-12236048D01*
M02*
