%TF.GenerationSoftware,KiCad,Pcbnew,(6.0.5)*%
%TF.CreationDate,2022-08-05T23:54:08+09:00*%
%TF.ProjectId,ORION_VV_driver_v1,4f52494f-4e5f-4565-965f-647269766572,rev?*%
%TF.SameCoordinates,Original*%
%TF.FileFunction,Copper,L1,Top*%
%TF.FilePolarity,Positive*%
%FSLAX46Y46*%
G04 Gerber Fmt 4.6, Leading zero omitted, Abs format (unit mm)*
G04 Created by KiCad (PCBNEW (6.0.5)) date 2022-08-05 23:54:08*
%MOMM*%
%LPD*%
G01*
G04 APERTURE LIST*
G04 Aperture macros list*
%AMRoundRect*
0 Rectangle with rounded corners*
0 $1 Rounding radius*
0 $2 $3 $4 $5 $6 $7 $8 $9 X,Y pos of 4 corners*
0 Add a 4 corners polygon primitive as box body*
4,1,4,$2,$3,$4,$5,$6,$7,$8,$9,$2,$3,0*
0 Add four circle primitives for the rounded corners*
1,1,$1+$1,$2,$3*
1,1,$1+$1,$4,$5*
1,1,$1+$1,$6,$7*
1,1,$1+$1,$8,$9*
0 Add four rect primitives between the rounded corners*
20,1,$1+$1,$2,$3,$4,$5,0*
20,1,$1+$1,$4,$5,$6,$7,0*
20,1,$1+$1,$6,$7,$8,$9,0*
20,1,$1+$1,$8,$9,$2,$3,0*%
%AMRotRect*
0 Rectangle, with rotation*
0 The origin of the aperture is its center*
0 $1 length*
0 $2 width*
0 $3 Rotation angle, in degrees counterclockwise*
0 Add horizontal line*
21,1,$1,$2,0,0,$3*%
G04 Aperture macros list end*
%TA.AperFunction,SMDPad,CuDef*%
%ADD10RoundRect,0.140000X-0.170000X0.140000X-0.170000X-0.140000X0.170000X-0.140000X0.170000X0.140000X0*%
%TD*%
%TA.AperFunction,SMDPad,CuDef*%
%ADD11RoundRect,0.200000X-0.275000X0.200000X-0.275000X-0.200000X0.275000X-0.200000X0.275000X0.200000X0*%
%TD*%
%TA.AperFunction,ComponentPad*%
%ADD12RoundRect,0.225000X-0.475000X0.225000X-0.475000X-0.225000X0.475000X-0.225000X0.475000X0.225000X0*%
%TD*%
%TA.AperFunction,ComponentPad*%
%ADD13O,1.400000X0.900000*%
%TD*%
%TA.AperFunction,SMDPad,CuDef*%
%ADD14RoundRect,0.200000X-0.200000X-0.275000X0.200000X-0.275000X0.200000X0.275000X-0.200000X0.275000X0*%
%TD*%
%TA.AperFunction,SMDPad,CuDef*%
%ADD15RoundRect,0.225000X-0.250000X0.225000X-0.250000X-0.225000X0.250000X-0.225000X0.250000X0.225000X0*%
%TD*%
%TA.AperFunction,SMDPad,CuDef*%
%ADD16RoundRect,0.200000X0.200000X0.275000X-0.200000X0.275000X-0.200000X-0.275000X0.200000X-0.275000X0*%
%TD*%
%TA.AperFunction,SMDPad,CuDef*%
%ADD17RoundRect,0.200000X0.275000X-0.200000X0.275000X0.200000X-0.275000X0.200000X-0.275000X-0.200000X0*%
%TD*%
%TA.AperFunction,SMDPad,CuDef*%
%ADD18RoundRect,0.218750X0.218750X0.256250X-0.218750X0.256250X-0.218750X-0.256250X0.218750X-0.256250X0*%
%TD*%
%TA.AperFunction,SMDPad,CuDef*%
%ADD19RoundRect,0.225000X-0.225000X-0.250000X0.225000X-0.250000X0.225000X0.250000X-0.225000X0.250000X0*%
%TD*%
%TA.AperFunction,SMDPad,CuDef*%
%ADD20R,0.900000X1.000000*%
%TD*%
%TA.AperFunction,ComponentPad*%
%ADD21R,1.750000X1.750000*%
%TD*%
%TA.AperFunction,ComponentPad*%
%ADD22C,1.750000*%
%TD*%
%TA.AperFunction,ComponentPad*%
%ADD23C,2.700000*%
%TD*%
%TA.AperFunction,ComponentPad*%
%ADD24R,1.700000X1.700000*%
%TD*%
%TA.AperFunction,ComponentPad*%
%ADD25O,1.700000X1.700000*%
%TD*%
%TA.AperFunction,SMDPad,CuDef*%
%ADD26RoundRect,0.250000X1.775000X-0.262500X1.775000X0.262500X-1.775000X0.262500X-1.775000X-0.262500X0*%
%TD*%
%TA.AperFunction,SMDPad,CuDef*%
%ADD27RoundRect,0.140000X0.140000X0.170000X-0.140000X0.170000X-0.140000X-0.170000X0.140000X-0.170000X0*%
%TD*%
%TA.AperFunction,SMDPad,CuDef*%
%ADD28RoundRect,0.140000X0.170000X-0.140000X0.170000X0.140000X-0.170000X0.140000X-0.170000X-0.140000X0*%
%TD*%
%TA.AperFunction,SMDPad,CuDef*%
%ADD29RoundRect,0.150000X0.725000X0.150000X-0.725000X0.150000X-0.725000X-0.150000X0.725000X-0.150000X0*%
%TD*%
%TA.AperFunction,SMDPad,CuDef*%
%ADD30RoundRect,0.218750X-0.218750X-0.256250X0.218750X-0.256250X0.218750X0.256250X-0.218750X0.256250X0*%
%TD*%
%TA.AperFunction,SMDPad,CuDef*%
%ADD31RoundRect,0.218750X-0.256250X0.218750X-0.256250X-0.218750X0.256250X-0.218750X0.256250X0.218750X0*%
%TD*%
%TA.AperFunction,SMDPad,CuDef*%
%ADD32R,1.450000X1.100000*%
%TD*%
%TA.AperFunction,SMDPad,CuDef*%
%ADD33R,2.899999X1.350000*%
%TD*%
%TA.AperFunction,SMDPad,CuDef*%
%ADD34RoundRect,0.062500X0.203293X0.291682X-0.291682X-0.203293X-0.203293X-0.291682X0.291682X0.203293X0*%
%TD*%
%TA.AperFunction,SMDPad,CuDef*%
%ADD35RoundRect,0.062500X-0.203293X0.291682X-0.291682X0.203293X0.203293X-0.291682X0.291682X-0.203293X0*%
%TD*%
%TA.AperFunction,ComponentPad*%
%ADD36C,0.500000*%
%TD*%
%TA.AperFunction,ComponentPad*%
%ADD37C,2.000000*%
%TD*%
%TA.AperFunction,SMDPad,CuDef*%
%ADD38RotRect,2.600000X2.600000X225.000000*%
%TD*%
%TA.AperFunction,SMDPad,CuDef*%
%ADD39RoundRect,0.150000X0.512500X0.150000X-0.512500X0.150000X-0.512500X-0.150000X0.512500X-0.150000X0*%
%TD*%
%TA.AperFunction,ComponentPad*%
%ADD40C,1.400000*%
%TD*%
%TA.AperFunction,ComponentPad*%
%ADD41R,3.500000X3.500000*%
%TD*%
%TA.AperFunction,ComponentPad*%
%ADD42C,3.500000*%
%TD*%
%TA.AperFunction,SMDPad,CuDef*%
%ADD43RoundRect,0.140000X-0.140000X-0.170000X0.140000X-0.170000X0.140000X0.170000X-0.140000X0.170000X0*%
%TD*%
%TA.AperFunction,SMDPad,CuDef*%
%ADD44R,1.900000X0.400000*%
%TD*%
%TA.AperFunction,SMDPad,CuDef*%
%ADD45RoundRect,0.250000X-1.775000X0.262500X-1.775000X-0.262500X1.775000X-0.262500X1.775000X0.262500X0*%
%TD*%
%TA.AperFunction,SMDPad,CuDef*%
%ADD46RoundRect,0.075000X0.700000X0.075000X-0.700000X0.075000X-0.700000X-0.075000X0.700000X-0.075000X0*%
%TD*%
%TA.AperFunction,SMDPad,CuDef*%
%ADD47RoundRect,0.075000X0.075000X0.700000X-0.075000X0.700000X-0.075000X-0.700000X0.075000X-0.700000X0*%
%TD*%
%TA.AperFunction,ComponentPad*%
%ADD48RoundRect,0.225000X-0.575000X0.225000X-0.575000X-0.225000X0.575000X-0.225000X0.575000X0.225000X0*%
%TD*%
%TA.AperFunction,ViaPad*%
%ADD49C,4.000000*%
%TD*%
%TA.AperFunction,ViaPad*%
%ADD50C,0.800000*%
%TD*%
%TA.AperFunction,Conductor*%
%ADD51C,0.250000*%
%TD*%
%TA.AperFunction,Conductor*%
%ADD52C,1.000000*%
%TD*%
G04 APERTURE END LIST*
D10*
%TO.P,C7,1*%
%TO.N,GND*%
X62300201Y-68730000D03*
%TO.P,C7,2*%
%TO.N,+3V3*%
X62300201Y-69690000D03*
%TD*%
D11*
%TO.P,FB1,1*%
%TO.N,+3V3*%
X78250000Y-59175000D03*
%TO.P,FB1,2*%
%TO.N,Net-(C11-Pad2)*%
X78250000Y-60825000D03*
%TD*%
D12*
%TO.P,J2,1,Pin_1*%
%TO.N,GND*%
X51500000Y-59625000D03*
D13*
%TO.P,J2,2,Pin_2*%
%TO.N,+5V*%
X51500000Y-60875000D03*
%TO.P,J2,3,Pin_3*%
%TO.N,/CAN_L*%
X51500000Y-62125000D03*
%TO.P,J2,4,Pin_4*%
%TO.N,/CAN_H*%
X51500000Y-63375000D03*
%TD*%
D14*
%TO.P,R5,1*%
%TO.N,/NRST*%
X84175000Y-65000000D03*
%TO.P,R5,2*%
%TO.N,+3V3*%
X85825000Y-65000000D03*
%TD*%
%TO.P,R10,1*%
%TO.N,+BATT*%
X33175000Y-70500000D03*
%TO.P,R10,2*%
%TO.N,/BATT_V_SENS*%
X34825000Y-70500000D03*
%TD*%
D15*
%TO.P,C22,1*%
%TO.N,/M0_U*%
X40500000Y-30725000D03*
%TO.P,C22,2*%
%TO.N,Net-(C22-Pad2)*%
X40500000Y-32275000D03*
%TD*%
D12*
%TO.P,J6,1,Pin_1*%
%TO.N,GND*%
X72000000Y-79375000D03*
D13*
%TO.P,J6,2,Pin_2*%
%TO.N,+3V3*%
X72000000Y-80625000D03*
%TO.P,J6,3,Pin_3*%
%TO.N,/NSS_ENC1*%
X72000000Y-81875000D03*
%TO.P,J6,4,Pin_4*%
%TO.N,/SPI_CLK*%
X72000000Y-83125000D03*
%TO.P,J6,5,Pin_5*%
%TO.N,/SPI_MISO*%
X72000000Y-84375000D03*
%TO.P,J6,6,Pin_6*%
%TO.N,/SPI_MOSI*%
X72000000Y-85625000D03*
%TD*%
D16*
%TO.P,R2,1*%
%TO.N,GND*%
X88625201Y-73210000D03*
%TO.P,R2,2*%
%TO.N,Net-(D2-Pad1)*%
X86975201Y-73210000D03*
%TD*%
D17*
%TO.P,R13,1*%
%TO.N,/M0_CS*%
X36000000Y-58325000D03*
%TO.P,R13,2*%
%TO.N,Net-(R13-Pad2)*%
X36000000Y-56675000D03*
%TD*%
D18*
%TO.P,D2,1,K*%
%TO.N,Net-(D2-Pad1)*%
X84587701Y-73210000D03*
%TO.P,D2,2,A*%
%TO.N,/LED_1*%
X83012701Y-73210000D03*
%TD*%
D19*
%TO.P,C21,1*%
%TO.N,/M0_V*%
X43225000Y-39500000D03*
%TO.P,C21,2*%
%TO.N,Net-(C21-Pad2)*%
X44775000Y-39500000D03*
%TD*%
D20*
%TO.P,SW4,1,1*%
%TO.N,GND*%
X88800000Y-54450000D03*
X84700000Y-54450000D03*
%TO.P,SW4,2,2*%
%TO.N,/SW2*%
X84700000Y-56050000D03*
X88800000Y-56050000D03*
%TD*%
D21*
%TO.P,RV1,1,1*%
%TO.N,+3V3*%
X106250000Y-87020000D03*
D22*
%TO.P,RV1,2,2*%
%TO.N,/POT_0*%
X109750000Y-87020000D03*
%TO.P,RV1,3,3*%
%TO.N,GND*%
X106250000Y-28520000D03*
D23*
%TO.P,RV1,MP*%
%TO.N,N/C*%
X103800000Y-81670000D03*
X112200000Y-32670000D03*
X112200000Y-82870000D03*
X103800000Y-33870000D03*
%TD*%
D24*
%TO.P,J10,1,Pin_1*%
%TO.N,/NSS_ENC0*%
X77500000Y-86425000D03*
D25*
%TO.P,J10,2,Pin_2*%
%TO.N,/NSS_ENC1*%
X77500000Y-88965000D03*
%TO.P,J10,3,Pin_3*%
%TO.N,/SPI_CLK*%
X77500000Y-91505000D03*
%TO.P,J10,4,Pin_4*%
%TO.N,/SPI_MISO*%
X77500000Y-94045000D03*
%TO.P,J10,5,Pin_5*%
%TO.N,/SPI_MOSI*%
X77500000Y-96585000D03*
%TD*%
D14*
%TO.P,R25,1*%
%TO.N,GNDPWR*%
X32175000Y-55000000D03*
%TO.P,R25,2*%
%TO.N,/M0_CSL*%
X33825000Y-55000000D03*
%TD*%
D26*
%TO.P,R26,1*%
%TO.N,+BATT*%
X25500000Y-59437500D03*
%TO.P,R26,2*%
%TO.N,Net-(J12-Pad4)*%
X25500000Y-57562500D03*
%TD*%
D27*
%TO.P,C16,1*%
%TO.N,GND*%
X37980000Y-72000000D03*
%TO.P,C16,2*%
%TO.N,/BATT_V_SENS*%
X37020000Y-72000000D03*
%TD*%
D28*
%TO.P,C15,1*%
%TO.N,GND*%
X40000000Y-75980000D03*
%TO.P,C15,2*%
%TO.N,+3V3*%
X40000000Y-75020000D03*
%TD*%
D20*
%TO.P,SW5,1,1*%
%TO.N,GND*%
X88800000Y-50950000D03*
X84700000Y-50950000D03*
%TO.P,SW5,2,2*%
%TO.N,/SW3*%
X84700000Y-52550000D03*
X88800000Y-52550000D03*
%TD*%
D29*
%TO.P,U3,1,TXD*%
%TO.N,/CAN_TX*%
X60575000Y-55905000D03*
%TO.P,U3,2,GND*%
%TO.N,GND*%
X60575000Y-54635000D03*
%TO.P,U3,3,VDD*%
%TO.N,+3V3*%
X60575000Y-53365000D03*
%TO.P,U3,4,RXD*%
%TO.N,/CAN_RX*%
X60575000Y-52095000D03*
%TO.P,U3,5,SHDN*%
%TO.N,GND*%
X55425000Y-52095000D03*
%TO.P,U3,6,CANL*%
%TO.N,/CAN_L*%
X55425000Y-53365000D03*
%TO.P,U3,7,CANH*%
%TO.N,/CAN_H*%
X55425000Y-54635000D03*
%TO.P,U3,8,RS*%
%TO.N,GND*%
X55425000Y-55905000D03*
%TD*%
D30*
%TO.P,D13,1,K*%
%TO.N,Net-(D12-Pad1)*%
X34212500Y-60000000D03*
%TO.P,D13,2,A*%
%TO.N,+5V*%
X35787500Y-60000000D03*
%TD*%
D31*
%TO.P,D8,1,K*%
%TO.N,Net-(C19-Pad2)*%
X47825000Y-97362500D03*
%TO.P,D8,2,A*%
%TO.N,+15V*%
X47825000Y-98937500D03*
%TD*%
D32*
%TO.P,J12,1,Pin_1*%
%TO.N,/M0_U*%
X22550000Y-32771500D03*
%TO.P,J12,2,Pin_2*%
%TO.N,/M0_V*%
X22550000Y-34771501D03*
%TO.P,J12,3,Pin_3*%
%TO.N,/M0_W*%
X22550000Y-36771500D03*
D33*
%TO.P,J12,4,Pin_4*%
%TO.N,Net-(J12-Pad4)*%
X16575001Y-29876502D03*
%TO.P,J12,5,Pin_5*%
X16575001Y-39666498D03*
%TD*%
D30*
%TO.P,D10,1,K*%
%TO.N,Net-(C21-Pad2)*%
X46712500Y-39500000D03*
%TO.P,D10,2,A*%
%TO.N,+15V*%
X48287500Y-39500000D03*
%TD*%
D14*
%TO.P,R23,1*%
%TO.N,Net-(J12-Pad4)*%
X32175000Y-56500000D03*
%TO.P,R23,2*%
%TO.N,/M0_CSL*%
X33825000Y-56500000D03*
%TD*%
D24*
%TO.P,J14,1,Pin_1*%
%TO.N,Net-(D12-Pad1)*%
X34000000Y-62475000D03*
D25*
%TO.P,J14,2,Pin_2*%
%TO.N,GND*%
X34000000Y-65015000D03*
%TO.P,J14,3,Pin_3*%
%TO.N,+3V3*%
X34000000Y-67555000D03*
%TD*%
D34*
%TO.P,GD2,1,LIN1*%
%TO.N,/M0_UL*%
X49253903Y-31933103D03*
%TO.P,GD2,2,LIN2*%
%TO.N,/M0_VL*%
X48900349Y-31579550D03*
%TO.P,GD2,3,LIN3*%
%TO.N,/M0_WL*%
X48546796Y-31225996D03*
%TO.P,GD2,4,VCC*%
%TO.N,+15V*%
X48193243Y-30872443D03*
%TO.P,GD2,5,NC*%
%TO.N,unconnected-(GD2-Pad5)*%
X47839689Y-30518890D03*
%TO.P,GD2,6,COM*%
%TO.N,Net-(C13-Pad1)*%
X47486136Y-30165336D03*
D35*
%TO.P,GD2,7,NC*%
%TO.N,unconnected-(GD2-Pad7)*%
X46513864Y-30165336D03*
%TO.P,GD2,8,NC*%
%TO.N,unconnected-(GD2-Pad8)*%
X46160311Y-30518890D03*
%TO.P,GD2,9,LO3*%
%TO.N,Net-(GD2-Pad9)*%
X45806757Y-30872443D03*
%TO.P,GD2,10,LO2*%
%TO.N,Net-(GD2-Pad10)*%
X45453204Y-31225996D03*
%TO.P,GD2,11,LO1*%
%TO.N,Net-(GD2-Pad11)*%
X45099651Y-31579550D03*
%TO.P,GD2,12,VS3*%
%TO.N,/M0_U*%
X44746097Y-31933103D03*
D34*
%TO.P,GD2,13,HO3*%
%TO.N,Net-(GD2-Pad13)*%
X44746097Y-32905375D03*
%TO.P,GD2,14,VB3*%
%TO.N,Net-(C22-Pad2)*%
X45099651Y-33258928D03*
%TO.P,GD2,15,VS2*%
%TO.N,/M0_V*%
X45453204Y-33612482D03*
%TO.P,GD2,16,HO2*%
%TO.N,Net-(GD2-Pad16)*%
X45806757Y-33966035D03*
%TO.P,GD2,17,VB2*%
%TO.N,Net-(C21-Pad2)*%
X46160311Y-34319588D03*
%TO.P,GD2,18,VS1*%
%TO.N,/M0_W*%
X46513864Y-34673142D03*
D35*
%TO.P,GD2,19,HO1*%
%TO.N,Net-(GD2-Pad19)*%
X47486136Y-34673142D03*
%TO.P,GD2,20,VB1*%
%TO.N,Net-(C20-Pad2)*%
X47839689Y-34319588D03*
%TO.P,GD2,21,NC*%
%TO.N,unconnected-(GD2-Pad21)*%
X48193243Y-33966035D03*
%TO.P,GD2,22,HIN1*%
%TO.N,/M0_UH*%
X48546796Y-33612482D03*
%TO.P,GD2,23,HIN2*%
%TO.N,/M0_VH*%
X48900349Y-33258928D03*
%TO.P,GD2,24,HIN3*%
%TO.N,/M0_WH*%
X49253903Y-32905375D03*
D36*
%TO.P,GD2,25*%
%TO.N,N/C*%
X46257538Y-31676777D03*
X47000000Y-30934315D03*
X47000000Y-33904163D03*
D37*
X47000000Y-32419239D03*
D36*
X46257538Y-33161701D03*
X47742462Y-31676777D03*
X47742462Y-33161701D03*
X48484924Y-32419239D03*
X45515076Y-32419239D03*
D38*
X47000000Y-32419239D03*
%TD*%
D10*
%TO.P,C9,1*%
%TO.N,GND*%
X72500000Y-56040000D03*
%TO.P,C9,2*%
%TO.N,+3V3*%
X72500000Y-57000000D03*
%TD*%
D18*
%TO.P,D1,1,K*%
%TO.N,Net-(D1-Pad1)*%
X84587701Y-75250000D03*
%TO.P,D1,2,A*%
%TO.N,/LED_0*%
X83012701Y-75250000D03*
%TD*%
D39*
%TO.P,U5,1,REF*%
%TO.N,/3V3_HARF_REF*%
X38137500Y-76950000D03*
%TO.P,U5,2,GND*%
%TO.N,GND*%
X38137500Y-76000000D03*
%TO.P,U5,3,VDD*%
%TO.N,+3V3*%
X38137500Y-75050000D03*
%TO.P,U5,4,IN+*%
%TO.N,/M1_CSH*%
X35862500Y-75050000D03*
%TO.P,U5,5,IN-*%
%TO.N,/M1_CSL*%
X35862500Y-76000000D03*
%TO.P,U5,6,OUT*%
%TO.N,Net-(R12-Pad2)*%
X35862500Y-76950000D03*
%TD*%
D27*
%TO.P,C5,1*%
%TO.N,GND*%
X66480000Y-58000000D03*
%TO.P,C5,2*%
%TO.N,+3V3*%
X65520000Y-58000000D03*
%TD*%
D28*
%TO.P,C11,1*%
%TO.N,GND*%
X78250000Y-62980000D03*
%TO.P,C11,2*%
%TO.N,Net-(C11-Pad2)*%
X78250000Y-62020000D03*
%TD*%
D17*
%TO.P,TH2,1*%
%TO.N,+3V3*%
X77500000Y-54325000D03*
%TO.P,TH2,2*%
%TO.N,/TEMP_1*%
X77500000Y-52675000D03*
%TD*%
D40*
%TO.P,J11,*%
%TO.N,*%
X18175000Y-70500000D03*
X18175000Y-59500000D03*
D41*
%TO.P,J11,1,Pin_1*%
%TO.N,GNDPWR*%
X28175000Y-62500000D03*
D42*
%TO.P,J11,2,Pin_2*%
%TO.N,+BATT*%
X28175000Y-67500000D03*
%TD*%
D12*
%TO.P,J5,1,Pin_1*%
%TO.N,GND*%
X72000000Y-90000000D03*
D13*
%TO.P,J5,2,Pin_2*%
%TO.N,+3V3*%
X72000000Y-91250000D03*
%TO.P,J5,3,Pin_3*%
%TO.N,/NSS_ENC0*%
X72000000Y-92500000D03*
%TO.P,J5,4,Pin_4*%
%TO.N,/SPI_CLK*%
X72000000Y-93750000D03*
%TO.P,J5,5,Pin_5*%
%TO.N,/SPI_MISO*%
X72000000Y-95000000D03*
%TO.P,J5,6,Pin_6*%
%TO.N,/SPI_MOSI*%
X72000000Y-96250000D03*
%TD*%
D19*
%TO.P,C12,1*%
%TO.N,Net-(C12-Pad1)*%
X53825000Y-90150000D03*
%TO.P,C12,2*%
%TO.N,+15V*%
X55375000Y-90150000D03*
%TD*%
D43*
%TO.P,C10,1*%
%TO.N,GND*%
X73020000Y-72500000D03*
%TO.P,C10,2*%
%TO.N,+3V3*%
X73980000Y-72500000D03*
%TD*%
D30*
%TO.P,D6,1,K*%
%TO.N,Net-(C17-Pad2)*%
X57037500Y-100150000D03*
%TO.P,D6,2,A*%
%TO.N,+15V*%
X58612500Y-100150000D03*
%TD*%
D17*
%TO.P,TH1,1*%
%TO.N,+3V3*%
X79500000Y-54325000D03*
%TO.P,TH1,2*%
%TO.N,/TEMP_0*%
X79500000Y-52675000D03*
%TD*%
D16*
%TO.P,R4,1*%
%TO.N,GND*%
X88625201Y-77210000D03*
%TO.P,R4,2*%
%TO.N,Net-(D4-Pad1)*%
X86975201Y-77210000D03*
%TD*%
D20*
%TO.P,SW3,1,1*%
%TO.N,GND*%
X84700000Y-57950000D03*
X88800000Y-57950000D03*
%TO.P,SW3,2,2*%
%TO.N,/SW1*%
X84700000Y-59550000D03*
X88800000Y-59550000D03*
%TD*%
D14*
%TO.P,R24,1*%
%TO.N,Net-(C13-Pad1)*%
X32175000Y-53500000D03*
%TO.P,R24,2*%
%TO.N,/M0_CSH*%
X33825000Y-53500000D03*
%TD*%
%TO.P,R16,1*%
%TO.N,+BATT*%
X32175000Y-73500000D03*
%TO.P,R16,2*%
%TO.N,/M1_CSH*%
X33825000Y-73500000D03*
%TD*%
D16*
%TO.P,R3,1*%
%TO.N,GND*%
X88625201Y-71210000D03*
%TO.P,R3,2*%
%TO.N,Net-(D3-Pad1)*%
X86975201Y-71210000D03*
%TD*%
D15*
%TO.P,C24,1*%
%TO.N,GND*%
X38000000Y-56725000D03*
%TO.P,C24,2*%
%TO.N,/M0_CS*%
X38000000Y-58275000D03*
%TD*%
D21*
%TO.P,RV2,1,1*%
%TO.N,+3V3*%
X93250000Y-87020000D03*
D22*
%TO.P,RV2,2,2*%
%TO.N,/POT_1*%
X96750000Y-87020000D03*
%TO.P,RV2,3,3*%
%TO.N,GND*%
X93250000Y-28520000D03*
D23*
%TO.P,RV2,MP*%
%TO.N,N/C*%
X99200000Y-82870000D03*
X90800000Y-33870000D03*
X90800000Y-81670000D03*
X99200000Y-32670000D03*
%TD*%
D24*
%TO.P,J1,1,Pin_1*%
%TO.N,/CAN_L*%
X47500000Y-49725000D03*
D25*
%TO.P,J1,2,Pin_2*%
%TO.N,Net-(J1-Pad2)*%
X47500000Y-52265000D03*
%TD*%
D18*
%TO.P,D4,1,K*%
%TO.N,Net-(D4-Pad1)*%
X84587701Y-77210000D03*
%TO.P,D4,2,A*%
%TO.N,+3V3*%
X83012701Y-77210000D03*
%TD*%
D20*
%TO.P,SW1,1,1*%
%TO.N,GND*%
X88850201Y-68510000D03*
X84750201Y-68510000D03*
%TO.P,SW1,2,2*%
%TO.N,/NRST*%
X84750201Y-66910000D03*
X88850201Y-66910000D03*
%TD*%
D14*
%TO.P,R19,1*%
%TO.N,GNDPWR*%
X32175000Y-76500000D03*
%TO.P,R19,2*%
%TO.N,/M1_CSL*%
X33825000Y-76500000D03*
%TD*%
D30*
%TO.P,D7,1,K*%
%TO.N,Net-(C18-Pad2)*%
X51037500Y-101650000D03*
%TO.P,D7,2,A*%
%TO.N,+15V*%
X52612500Y-101650000D03*
%TD*%
D14*
%TO.P,R17,1*%
%TO.N,Net-(J13-Pad4)*%
X32175000Y-78000000D03*
%TO.P,R17,2*%
%TO.N,/M1_CSL*%
X33825000Y-78000000D03*
%TD*%
D24*
%TO.P,J8,1,Pin_1*%
%TO.N,/M0_UH*%
X63000000Y-43350000D03*
D25*
%TO.P,J8,2,Pin_2*%
%TO.N,/M0_VH*%
X63000000Y-40810000D03*
%TO.P,J8,3,Pin_3*%
%TO.N,/M0_WH*%
X63000000Y-38270000D03*
%TO.P,J8,4,Pin_4*%
%TO.N,/M0_UL*%
X63000000Y-35730000D03*
%TO.P,J8,5,Pin_5*%
%TO.N,/M0_VL*%
X63000000Y-33190000D03*
%TO.P,J8,6,Pin_6*%
%TO.N,/M0_WL*%
X63000000Y-30650000D03*
%TD*%
D11*
%TO.P,R15,1*%
%TO.N,/TEMP_1*%
X75500000Y-52675000D03*
%TO.P,R15,2*%
%TO.N,GND*%
X75500000Y-54325000D03*
%TD*%
D44*
%TO.P,Y1,1,1*%
%TO.N,/OSC_OUT*%
X80300201Y-66010000D03*
%TO.P,Y1,2,2*%
%TO.N,GND*%
X80300201Y-67210000D03*
%TO.P,Y1,3,3*%
%TO.N,/OSC_IN*%
X80300201Y-68410000D03*
%TD*%
D31*
%TO.P,D11,1,K*%
%TO.N,Net-(C22-Pad2)*%
X40500000Y-34212500D03*
%TO.P,D11,2,A*%
%TO.N,+15V*%
X40500000Y-35787500D03*
%TD*%
D19*
%TO.P,C20,1*%
%TO.N,/M0_W*%
X45725000Y-37500000D03*
%TO.P,C20,2*%
%TO.N,Net-(C20-Pad2)*%
X47275000Y-37500000D03*
%TD*%
D17*
%TO.P,R12,1*%
%TO.N,/M1_CS*%
X37000000Y-80325000D03*
%TO.P,R12,2*%
%TO.N,Net-(R12-Pad2)*%
X37000000Y-78675000D03*
%TD*%
D45*
%TO.P,R20,1*%
%TO.N,+BATT*%
X25500000Y-70562500D03*
%TO.P,R20,2*%
%TO.N,Net-(J13-Pad4)*%
X25500000Y-72437500D03*
%TD*%
D46*
%TO.P,U4,1,VBAT*%
%TO.N,+3V3*%
X75465201Y-69000000D03*
%TO.P,U4,2,PC13*%
%TO.N,/LED_0*%
X75465201Y-68500000D03*
%TO.P,U4,3,PC14*%
%TO.N,/LED_1*%
X75465201Y-68000000D03*
%TO.P,U4,4,PC15*%
%TO.N,/LED_2*%
X75465201Y-67500000D03*
%TO.P,U4,5,PF0*%
%TO.N,/OSC_IN*%
X75465201Y-67000000D03*
%TO.P,U4,6,PF1*%
%TO.N,/OSC_OUT*%
X75465201Y-66500000D03*
%TO.P,U4,7,NRST*%
%TO.N,/NRST*%
X75465201Y-66000000D03*
%TO.P,U4,8,PC0*%
%TO.N,/SW0*%
X75465201Y-65500000D03*
%TO.P,U4,9,PC1*%
%TO.N,/SW1*%
X75465201Y-65000000D03*
%TO.P,U4,10,PC2*%
%TO.N,/SW2*%
X75465201Y-64500000D03*
%TO.P,U4,11,PC3*%
%TO.N,/SW3*%
X75465201Y-64000000D03*
%TO.P,U4,12,VSSA*%
%TO.N,GND*%
X75465201Y-63500000D03*
%TO.P,U4,13,VDDA*%
%TO.N,Net-(C11-Pad2)*%
X75465201Y-63000000D03*
%TO.P,U4,14,PA0*%
%TO.N,/M0_CS*%
X75465201Y-62500000D03*
%TO.P,U4,15,PA1*%
%TO.N,/M0_V_CS*%
X75465201Y-62000000D03*
%TO.P,U4,16,PA2*%
%TO.N,/M0_W_CS*%
X75465201Y-61500000D03*
D47*
%TO.P,U4,17,PA3*%
%TO.N,/TEMP_0*%
X73540201Y-59575000D03*
%TO.P,U4,18,PF4*%
%TO.N,/TEMP_1*%
X73040201Y-59575000D03*
%TO.P,U4,19,VDD*%
%TO.N,+3V3*%
X72540201Y-59575000D03*
%TO.P,U4,20,PA4*%
%TO.N,/M1_CS*%
X72040201Y-59575000D03*
%TO.P,U4,21,PA5*%
%TO.N,/M1_V_CS*%
X71540201Y-59575000D03*
%TO.P,U4,22,PA6*%
%TO.N,/M1_W_CS*%
X71040201Y-59575000D03*
%TO.P,U4,23,PA7*%
%TO.N,/M0_UL*%
X70540201Y-59575000D03*
%TO.P,U4,24,PC4*%
%TO.N,/UART1_TX*%
X70040201Y-59575000D03*
%TO.P,U4,25,PC5*%
%TO.N,/UART1_RX*%
X69540201Y-59575000D03*
%TO.P,U4,26,PB0*%
%TO.N,/M0_VL*%
X69040201Y-59575000D03*
%TO.P,U4,27,PB1*%
%TO.N,/M0_WL*%
X68540201Y-59575000D03*
%TO.P,U4,28,PB2*%
%TO.N,unconnected-(U4-Pad28)*%
X68040201Y-59575000D03*
%TO.P,U4,29,PB10*%
%TO.N,unconnected-(U4-Pad29)*%
X67540201Y-59575000D03*
%TO.P,U4,30,PB11*%
%TO.N,unconnected-(U4-Pad30)*%
X67040201Y-59575000D03*
%TO.P,U4,31,VSS*%
%TO.N,GND*%
X66540201Y-59575000D03*
%TO.P,U4,32,VDD*%
%TO.N,+3V3*%
X66040201Y-59575000D03*
D46*
%TO.P,U4,33,PB12*%
%TO.N,unconnected-(U4-Pad33)*%
X64115201Y-61500000D03*
%TO.P,U4,34,PB13*%
%TO.N,/BATT_V_SENS*%
X64115201Y-62000000D03*
%TO.P,U4,35,PB14*%
%TO.N,/POT_0*%
X64115201Y-62500000D03*
%TO.P,U4,36,PB15*%
%TO.N,/POT_1*%
X64115201Y-63000000D03*
%TO.P,U4,37,PC6*%
%TO.N,/M1_UH*%
X64115201Y-63500000D03*
%TO.P,U4,38,PC7*%
%TO.N,/M1_VH*%
X64115201Y-64000000D03*
%TO.P,U4,39,PC8*%
%TO.N,/M1_WH*%
X64115201Y-64500000D03*
%TO.P,U4,40,PC9*%
%TO.N,unconnected-(U4-Pad40)*%
X64115201Y-65000000D03*
%TO.P,U4,41,PA8*%
%TO.N,/M0_UH*%
X64115201Y-65500000D03*
%TO.P,U4,42,PA9*%
%TO.N,/M0_VH*%
X64115201Y-66000000D03*
%TO.P,U4,43,PA10*%
%TO.N,/M0_WH*%
X64115201Y-66500000D03*
%TO.P,U4,44,PA11*%
%TO.N,/CAN_RX*%
X64115201Y-67000000D03*
%TO.P,U4,45,PA12*%
%TO.N,/CAN_TX*%
X64115201Y-67500000D03*
%TO.P,U4,46,PA13*%
%TO.N,/SWDIO*%
X64115201Y-68000000D03*
%TO.P,U4,47,VSS*%
%TO.N,GND*%
X64115201Y-68500000D03*
%TO.P,U4,48,VDD*%
%TO.N,+3V3*%
X64115201Y-69000000D03*
D47*
%TO.P,U4,49,PA14*%
%TO.N,/SWCLK*%
X66040201Y-70925000D03*
%TO.P,U4,50,PA15*%
%TO.N,unconnected-(U4-Pad50)*%
X66540201Y-70925000D03*
%TO.P,U4,51,PC10*%
%TO.N,/M1_UL*%
X67040201Y-70925000D03*
%TO.P,U4,52,PC11*%
%TO.N,/M1_VL*%
X67540201Y-70925000D03*
%TO.P,U4,53,PC12*%
%TO.N,/M1_WL*%
X68040201Y-70925000D03*
%TO.P,U4,54,PD2*%
%TO.N,unconnected-(U4-Pad54)*%
X68540201Y-70925000D03*
%TO.P,U4,55,PB3*%
%TO.N,/SPI_CLK*%
X69040201Y-70925000D03*
%TO.P,U4,56,PB4*%
%TO.N,/SPI_MISO*%
X69540201Y-70925000D03*
%TO.P,U4,57,PB5*%
%TO.N,/SPI_MOSI*%
X70040201Y-70925000D03*
%TO.P,U4,58,PB6*%
%TO.N,/NSS_ENC0*%
X70540201Y-70925000D03*
%TO.P,U4,59,PB7*%
%TO.N,/NSS_ENC1*%
X71040201Y-70925000D03*
%TO.P,U4,60,BOOT0*%
%TO.N,Net-(R7-Pad2)*%
X71540201Y-70925000D03*
%TO.P,U4,61,PB8*%
%TO.N,unconnected-(U4-Pad61)*%
X72040201Y-70925000D03*
%TO.P,U4,62,PB9*%
%TO.N,unconnected-(U4-Pad62)*%
X72540201Y-70925000D03*
%TO.P,U4,63,VSS*%
%TO.N,GND*%
X73040201Y-70925000D03*
%TO.P,U4,64,VDD*%
%TO.N,+3V3*%
X73540201Y-70925000D03*
%TD*%
D14*
%TO.P,R11,1*%
%TO.N,/BATT_V_SENS*%
X36675000Y-70500000D03*
%TO.P,R11,2*%
%TO.N,GND*%
X38325000Y-70500000D03*
%TD*%
D31*
%TO.P,D12,1,K*%
%TO.N,Net-(D12-Pad1)*%
X31500000Y-64212500D03*
%TO.P,D12,2,A*%
%TO.N,+BATT*%
X31500000Y-65787500D03*
%TD*%
D19*
%TO.P,C13,1*%
%TO.N,Net-(C13-Pad1)*%
X48225000Y-28000000D03*
%TO.P,C13,2*%
%TO.N,+15V*%
X49775000Y-28000000D03*
%TD*%
D24*
%TO.P,J7,1,Pin_1*%
%TO.N,/BATT_V_SENS*%
X71500000Y-50000000D03*
D25*
%TO.P,J7,2,Pin_2*%
%TO.N,/M1_CS*%
X74040000Y-50000000D03*
%TO.P,J7,3,Pin_3*%
%TO.N,/TEMP_1*%
X76580000Y-50000000D03*
%TO.P,J7,4,Pin_4*%
%TO.N,/TEMP_0*%
X79120000Y-50000000D03*
%TO.P,J7,5,Pin_5*%
%TO.N,/M0_CS*%
X81660000Y-50000000D03*
%TD*%
D17*
%TO.P,R6,1*%
%TO.N,/CAN_H*%
X47500000Y-56325000D03*
%TO.P,R6,2*%
%TO.N,Net-(J1-Pad2)*%
X47500000Y-54675000D03*
%TD*%
D34*
%TO.P,GD1,1,LIN1*%
%TO.N,/M1_UL*%
X54578903Y-94813864D03*
%TO.P,GD1,2,LIN2*%
%TO.N,/M1_VL*%
X54225349Y-94460311D03*
%TO.P,GD1,3,LIN3*%
%TO.N,/M1_WL*%
X53871796Y-94106757D03*
%TO.P,GD1,4,VCC*%
%TO.N,+15V*%
X53518243Y-93753204D03*
%TO.P,GD1,5,NC*%
%TO.N,unconnected-(GD1-Pad5)*%
X53164689Y-93399651D03*
%TO.P,GD1,6,COM*%
%TO.N,Net-(C12-Pad1)*%
X52811136Y-93046097D03*
D35*
%TO.P,GD1,7,NC*%
%TO.N,unconnected-(GD1-Pad7)*%
X51838864Y-93046097D03*
%TO.P,GD1,8,NC*%
%TO.N,unconnected-(GD1-Pad8)*%
X51485311Y-93399651D03*
%TO.P,GD1,9,LO3*%
%TO.N,Net-(GD1-Pad9)*%
X51131757Y-93753204D03*
%TO.P,GD1,10,LO2*%
%TO.N,Net-(GD1-Pad10)*%
X50778204Y-94106757D03*
%TO.P,GD1,11,LO1*%
%TO.N,Net-(GD1-Pad11)*%
X50424651Y-94460311D03*
%TO.P,GD1,12,VS3*%
%TO.N,/M1_U*%
X50071097Y-94813864D03*
D34*
%TO.P,GD1,13,HO3*%
%TO.N,Net-(GD1-Pad13)*%
X50071097Y-95786136D03*
%TO.P,GD1,14,VB3*%
%TO.N,Net-(C19-Pad2)*%
X50424651Y-96139689D03*
%TO.P,GD1,15,VS2*%
%TO.N,/M1_V*%
X50778204Y-96493243D03*
%TO.P,GD1,16,HO2*%
%TO.N,Net-(GD1-Pad16)*%
X51131757Y-96846796D03*
%TO.P,GD1,17,VB2*%
%TO.N,Net-(C18-Pad2)*%
X51485311Y-97200349D03*
%TO.P,GD1,18,VS1*%
%TO.N,/M1_W*%
X51838864Y-97553903D03*
D35*
%TO.P,GD1,19,HO1*%
%TO.N,Net-(GD1-Pad19)*%
X52811136Y-97553903D03*
%TO.P,GD1,20,VB1*%
%TO.N,Net-(C17-Pad2)*%
X53164689Y-97200349D03*
%TO.P,GD1,21,NC*%
%TO.N,unconnected-(GD1-Pad21)*%
X53518243Y-96846796D03*
%TO.P,GD1,22,HIN1*%
%TO.N,/M1_UH*%
X53871796Y-96493243D03*
%TO.P,GD1,23,HIN2*%
%TO.N,/M1_VH*%
X54225349Y-96139689D03*
%TO.P,GD1,24,HIN3*%
%TO.N,/M1_WH*%
X54578903Y-95786136D03*
D36*
%TO.P,GD1,25*%
%TO.N,N/C*%
X52325000Y-96784924D03*
X52325000Y-93815076D03*
X53067462Y-94557538D03*
D38*
X52325000Y-95300000D03*
D36*
X53067462Y-96042462D03*
X51582538Y-94557538D03*
X51582538Y-96042462D03*
D37*
X52325000Y-95300000D03*
D36*
X53809924Y-95300000D03*
X50840076Y-95300000D03*
%TD*%
D24*
%TO.P,J9,1,Pin_1*%
%TO.N,/M1_UH*%
X62825000Y-101000000D03*
D25*
%TO.P,J9,2,Pin_2*%
%TO.N,/M1_VH*%
X62825000Y-98460000D03*
%TO.P,J9,3,Pin_3*%
%TO.N,/M1_WH*%
X62825000Y-95920000D03*
%TO.P,J9,4,Pin_4*%
%TO.N,/M1_UL*%
X62825000Y-93380000D03*
%TO.P,J9,5,Pin_5*%
%TO.N,/M1_VL*%
X62825000Y-90840000D03*
%TO.P,J9,6,Pin_6*%
%TO.N,/M1_WL*%
X62825000Y-88300000D03*
%TD*%
D16*
%TO.P,R8,1*%
%TO.N,+3V3*%
X45325000Y-59500000D03*
%TO.P,R8,2*%
%TO.N,/3V3_HARF_REF*%
X43675000Y-59500000D03*
%TD*%
D12*
%TO.P,J3,1,Pin_1*%
%TO.N,GND*%
X55500000Y-59625000D03*
D13*
%TO.P,J3,2,Pin_2*%
%TO.N,+5V*%
X55500000Y-60875000D03*
%TO.P,J3,3,Pin_3*%
%TO.N,/CAN_L*%
X55500000Y-62125000D03*
%TO.P,J3,4,Pin_4*%
%TO.N,/CAN_H*%
X55500000Y-63375000D03*
%TD*%
D15*
%TO.P,C19,1*%
%TO.N,/M1_U*%
X47825000Y-94375000D03*
%TO.P,C19,2*%
%TO.N,Net-(C19-Pad2)*%
X47825000Y-95925000D03*
%TD*%
D16*
%TO.P,R9,1*%
%TO.N,/3V3_HARF_REF*%
X43325000Y-71000000D03*
%TO.P,R9,2*%
%TO.N,GND*%
X41675000Y-71000000D03*
%TD*%
%TO.P,R1,1*%
%TO.N,GND*%
X88625201Y-75250000D03*
%TO.P,R1,2*%
%TO.N,Net-(D1-Pad1)*%
X86975201Y-75250000D03*
%TD*%
D39*
%TO.P,U6,1,REF*%
%TO.N,/3V3_HARF_REF*%
X38137500Y-55450000D03*
%TO.P,U6,2,GND*%
%TO.N,GND*%
X38137500Y-54500000D03*
%TO.P,U6,3,VDD*%
%TO.N,+3V3*%
X38137500Y-53550000D03*
%TO.P,U6,4,IN+*%
%TO.N,/M0_CSH*%
X35862500Y-53550000D03*
%TO.P,U6,5,IN-*%
%TO.N,/M0_CSL*%
X35862500Y-54500000D03*
%TO.P,U6,6,OUT*%
%TO.N,Net-(R13-Pad2)*%
X35862500Y-55450000D03*
%TD*%
D18*
%TO.P,D3,1,K*%
%TO.N,Net-(D3-Pad1)*%
X84587701Y-71210000D03*
%TO.P,D3,2,A*%
%TO.N,/LED_2*%
X83012701Y-71210000D03*
%TD*%
D48*
%TO.P,J4,1,Pin_1*%
%TO.N,GND*%
X52450000Y-66750000D03*
%TO.P,J4,2,Pin_2*%
%TO.N,Net-(D5-Pad2)*%
X52450000Y-68250000D03*
%TO.P,J4,3,Pin_3*%
%TO.N,/SWDIO*%
X52450000Y-69750000D03*
%TO.P,J4,4,Pin_4*%
%TO.N,/SWCLK*%
X52450000Y-71250000D03*
%TO.P,J4,5,Pin_5*%
%TO.N,/UART1_TX*%
X52450000Y-72750000D03*
%TO.P,J4,6,Pin_6*%
%TO.N,/UART1_RX*%
X52450000Y-74250000D03*
%TD*%
D28*
%TO.P,C6,1*%
%TO.N,GND*%
X77000000Y-70980000D03*
%TO.P,C6,2*%
%TO.N,+3V3*%
X77000000Y-70020000D03*
%TD*%
%TO.P,C8,1*%
%TO.N,GND*%
X62500000Y-54480000D03*
%TO.P,C8,2*%
%TO.N,+3V3*%
X62500000Y-53520000D03*
%TD*%
D14*
%TO.P,R18,1*%
%TO.N,Net-(C12-Pad1)*%
X32175000Y-75000000D03*
%TO.P,R18,2*%
%TO.N,/M1_CSH*%
X33825000Y-75000000D03*
%TD*%
D30*
%TO.P,D9,1,K*%
%TO.N,Net-(C20-Pad2)*%
X49212500Y-37500000D03*
%TO.P,D9,2,A*%
%TO.N,+15V*%
X50787500Y-37500000D03*
%TD*%
D11*
%TO.P,R14,1*%
%TO.N,/TEMP_0*%
X81500000Y-52675000D03*
%TO.P,R14,2*%
%TO.N,GND*%
X81500000Y-54325000D03*
%TD*%
D16*
%TO.P,R7,1*%
%TO.N,GND*%
X76500000Y-74000000D03*
%TO.P,R7,2*%
%TO.N,Net-(R7-Pad2)*%
X74850000Y-74000000D03*
%TD*%
D19*
%TO.P,C18,1*%
%TO.N,/M1_V*%
X48050000Y-101650000D03*
%TO.P,C18,2*%
%TO.N,Net-(C18-Pad2)*%
X49600000Y-101650000D03*
%TD*%
D28*
%TO.P,C14,1*%
%TO.N,GND*%
X40000000Y-54480000D03*
%TO.P,C14,2*%
%TO.N,+3V3*%
X40000000Y-53520000D03*
%TD*%
D14*
%TO.P,R22,1*%
%TO.N,+BATT*%
X32175000Y-52000000D03*
%TO.P,R22,2*%
%TO.N,/M0_CSH*%
X33825000Y-52000000D03*
%TD*%
D19*
%TO.P,C17,1*%
%TO.N,/M1_W*%
X54050000Y-100150000D03*
%TO.P,C17,2*%
%TO.N,Net-(C17-Pad2)*%
X55600000Y-100150000D03*
%TD*%
D15*
%TO.P,C23,1*%
%TO.N,GND*%
X39500000Y-78725000D03*
%TO.P,C23,2*%
%TO.N,/M1_CS*%
X39500000Y-80275000D03*
%TD*%
D32*
%TO.P,J13,1,Pin_1*%
%TO.N,/M1_U*%
X22550000Y-92771500D03*
%TO.P,J13,2,Pin_2*%
%TO.N,/M1_V*%
X22550000Y-94771501D03*
%TO.P,J13,3,Pin_3*%
%TO.N,/M1_W*%
X22550000Y-96771500D03*
D33*
%TO.P,J13,4,Pin_4*%
%TO.N,Net-(J13-Pad4)*%
X16575001Y-89876502D03*
%TO.P,J13,5,Pin_5*%
X16575001Y-99666498D03*
%TD*%
D20*
%TO.P,SW2,1,1*%
%TO.N,GND*%
X88800000Y-61450000D03*
X84700000Y-61450000D03*
%TO.P,SW2,2,2*%
%TO.N,/SW0*%
X84700000Y-63050000D03*
X88800000Y-63050000D03*
%TD*%
D49*
%TO.N,*%
X88500000Y-106500000D03*
X17500000Y-23500000D03*
X88500000Y-23500000D03*
X17500000Y-106500000D03*
D50*
%TO.N,GNDPWR*%
X30500000Y-58000000D03*
X30224500Y-74500000D03*
%TO.N,+15V*%
X46500000Y-43000000D03*
X51000000Y-28000000D03*
X56500000Y-90000000D03*
X58000000Y-98500000D03*
%TO.N,/M1_W*%
X52325000Y-100150000D03*
X25500000Y-99500000D03*
X23500000Y-100500000D03*
X24500000Y-101500000D03*
X23500000Y-99500000D03*
X24500000Y-100500000D03*
X25500000Y-101500000D03*
X26500000Y-100500000D03*
X25500000Y-100500000D03*
X26500000Y-101500000D03*
X21000000Y-101000000D03*
X23500000Y-101500000D03*
X24500000Y-99500000D03*
X26500000Y-99500000D03*
%TO.N,Net-(C12-Pad1)*%
X32500000Y-88000000D03*
X30500000Y-88000000D03*
X31000000Y-85500000D03*
X30500000Y-89000000D03*
X30500000Y-93500000D03*
X30500000Y-99500000D03*
X31500000Y-95500000D03*
X33000000Y-85500000D03*
X32500000Y-94500000D03*
X29000000Y-82500000D03*
X29000000Y-83500000D03*
X33500000Y-100500000D03*
X33500000Y-88000000D03*
X34000000Y-85500000D03*
X32500000Y-90000000D03*
X29000000Y-81500000D03*
X32500000Y-93500000D03*
X28500000Y-101000000D03*
X30500000Y-90000000D03*
X31500000Y-94500000D03*
X31500000Y-100500000D03*
X29000000Y-80500000D03*
X32500000Y-95500000D03*
X33500000Y-89000000D03*
X33500000Y-90000000D03*
X33500000Y-95500000D03*
X30000000Y-85500000D03*
X31500000Y-93500000D03*
X33500000Y-94500000D03*
X29013342Y-71988744D03*
X30500000Y-94500000D03*
X28500000Y-90000000D03*
X32500000Y-99500000D03*
X32500000Y-89000000D03*
X31500000Y-99500000D03*
X31500000Y-90000000D03*
X29000000Y-85500000D03*
X33500000Y-93500000D03*
X31500000Y-88000000D03*
X32000000Y-85500000D03*
X29000000Y-84500000D03*
X28500000Y-95500000D03*
X31500000Y-89000000D03*
X30500000Y-95500000D03*
X33500000Y-99500000D03*
X30500000Y-100500000D03*
X32500000Y-100500000D03*
%TO.N,/M1_V*%
X26000000Y-94500000D03*
X24000000Y-95500000D03*
X27000000Y-93500000D03*
X25000000Y-95500000D03*
X23000000Y-94500000D03*
X22000000Y-94500000D03*
X26000000Y-93500000D03*
X48500000Y-100000000D03*
X26000000Y-95500000D03*
X26000000Y-96500000D03*
X25000000Y-94500000D03*
X24000000Y-94500000D03*
X27000000Y-94500000D03*
X21000000Y-95500000D03*
X27000000Y-95500000D03*
X25000000Y-93500000D03*
X27000000Y-96500000D03*
X25000000Y-96500000D03*
%TO.N,Net-(C13-Pad1)*%
X30500000Y-30000000D03*
X29000000Y-45500000D03*
X31500000Y-38000000D03*
X30000000Y-43500000D03*
X29000000Y-47500000D03*
X33500000Y-35000000D03*
X29000000Y-44500000D03*
X31500000Y-39000000D03*
X31500000Y-28000000D03*
X33500000Y-29000000D03*
X30500000Y-40000000D03*
X29500000Y-57000000D03*
X32500000Y-39000000D03*
X33000000Y-43500000D03*
X31000000Y-43500000D03*
X30500000Y-35000000D03*
X30500000Y-33000000D03*
X33500000Y-28000000D03*
X33500000Y-38000000D03*
X32500000Y-28000000D03*
X33500000Y-33000000D03*
X30500000Y-38000000D03*
X30500000Y-34000000D03*
X33500000Y-34000000D03*
X32500000Y-29000000D03*
X32500000Y-35000000D03*
X32500000Y-30000000D03*
X31500000Y-30000000D03*
X32500000Y-34000000D03*
X30500000Y-28000000D03*
X30500000Y-39000000D03*
X34000000Y-43500000D03*
X29000000Y-46500000D03*
X31500000Y-33000000D03*
X29000000Y-43500000D03*
X31500000Y-35000000D03*
X32500000Y-33000000D03*
X33500000Y-39000000D03*
X33500000Y-40000000D03*
X31500000Y-40000000D03*
X32000000Y-43500000D03*
X32500000Y-40000000D03*
X31500000Y-34000000D03*
X33500000Y-30000000D03*
X30500000Y-29000000D03*
X29000000Y-48500000D03*
X32500000Y-38000000D03*
X31500000Y-29000000D03*
%TO.N,/M1_U*%
X23500000Y-90500000D03*
X26500000Y-90500000D03*
X25500000Y-88500000D03*
X26500000Y-88500000D03*
X25500000Y-89500000D03*
X21000000Y-90000000D03*
X25500000Y-90500000D03*
X23500000Y-88500000D03*
X24500000Y-89500000D03*
X26500000Y-89500000D03*
X24500000Y-90500000D03*
X43000000Y-95000000D03*
X23500000Y-89500000D03*
X24500000Y-88500000D03*
%TO.N,/M0_W*%
X24500000Y-40500000D03*
X46500000Y-36000000D03*
X26500000Y-38500000D03*
X24500000Y-39500000D03*
X21000000Y-40000000D03*
X26500000Y-39500000D03*
X25500000Y-39500000D03*
X25500000Y-38500000D03*
X23500000Y-38500000D03*
X26500000Y-40500000D03*
X23500000Y-39500000D03*
X25500000Y-40500000D03*
X24500000Y-38500000D03*
X23500000Y-40500000D03*
%TO.N,/M0_V*%
X26500000Y-34500000D03*
X22500000Y-34500000D03*
X27500000Y-34500000D03*
X23500000Y-34500000D03*
X24500000Y-35500000D03*
X27500000Y-33500000D03*
X26500000Y-33500000D03*
X24500000Y-33500000D03*
X21000000Y-35000000D03*
X24500000Y-34500000D03*
X25500000Y-34500000D03*
X25500000Y-33500000D03*
X43000000Y-35000000D03*
X25500000Y-35500000D03*
X26500000Y-35500000D03*
X27500000Y-35500000D03*
%TO.N,/M1_UL*%
X66000000Y-78000000D03*
%TO.N,/M1_VL*%
X67500000Y-69000000D03*
%TO.N,/M1_WL*%
X67224500Y-73500000D03*
%TO.N,Net-(GD1-Pad9)*%
X47000000Y-92000000D03*
X28500000Y-91500000D03*
%TO.N,Net-(GD1-Pad10)*%
X28500000Y-97000000D03*
X44000000Y-94500000D03*
%TO.N,Net-(GD1-Pad11)*%
X46000000Y-94500000D03*
X28500000Y-102500000D03*
%TO.N,Net-(GD1-Pad13)*%
X21000000Y-91500000D03*
X49325000Y-96150000D03*
%TO.N,Net-(GD1-Pad16)*%
X50313000Y-100500000D03*
X21000000Y-97000000D03*
%TO.N,Net-(GD1-Pad19)*%
X53500000Y-99000000D03*
X21000000Y-102500000D03*
%TO.N,/M1_UH*%
X65500000Y-63500000D03*
%TO.N,/M1_VH*%
X62500000Y-64000000D03*
%TO.N,/M1_WH*%
X67815303Y-64932819D03*
%TO.N,/M0_UL*%
X70500000Y-61000000D03*
%TO.N,/M0_VL*%
X69000000Y-61000000D03*
%TO.N,/M0_WL*%
X68500000Y-58000000D03*
%TO.N,Net-(GD2-Pad9)*%
X41000000Y-28000000D03*
X28500000Y-31000000D03*
%TO.N,Net-(GD2-Pad10)*%
X28487714Y-36024100D03*
X41500000Y-29000000D03*
%TO.N,Net-(GD2-Pad11)*%
X28500000Y-41500000D03*
X42000000Y-30000000D03*
%TO.N,Net-(GD2-Pad13)*%
X43500000Y-33488000D03*
X21000000Y-31500000D03*
%TO.N,Net-(GD2-Pad16)*%
X44000000Y-36500000D03*
X21000000Y-36500000D03*
%TO.N,Net-(GD2-Pad19)*%
X48000000Y-36000000D03*
X21000000Y-41500000D03*
%TO.N,/M0_UH*%
X65500000Y-65500000D03*
%TO.N,/M0_VH*%
X62500000Y-66000000D03*
%TO.N,/M0_WH*%
X65500000Y-66500000D03*
%TO.N,/M0_U*%
X20938942Y-30000000D03*
X25500000Y-28000000D03*
X26500000Y-28000000D03*
X25500000Y-30000000D03*
X23500000Y-28000000D03*
X23500000Y-30000000D03*
X24500000Y-29000000D03*
X25500000Y-29000000D03*
X26500000Y-30000000D03*
X24500000Y-30000000D03*
X24500000Y-28000000D03*
X23500000Y-29000000D03*
X26500000Y-29000000D03*
X43500000Y-31500000D03*
%TO.N,/POT_0*%
X65500000Y-62250000D03*
X62250000Y-47000000D03*
%TO.N,/POT_1*%
X63250000Y-46250000D03*
X62500000Y-62750000D03*
%TO.N,/M1_CS*%
X52987701Y-53487701D03*
X42000000Y-78500000D03*
X71789684Y-58000000D03*
%TO.N,/M0_CS*%
X77012299Y-62012299D03*
X59000000Y-49000000D03*
X42950500Y-57500000D03*
%TO.N,unconnected-(U4-Pad40)*%
X62500000Y-65000000D03*
%TO.N,/CAN_H*%
X57000000Y-54000000D03*
X50000000Y-57500000D03*
%TO.N,/SWDIO*%
X60000000Y-70500000D03*
%TO.N,/SWCLK*%
X59000000Y-75000000D03*
%TO.N,/NSS_ENC0*%
X70500000Y-72500000D03*
X74500000Y-77000000D03*
%TO.N,/NRST*%
X83000000Y-65000000D03*
X74000000Y-66000000D03*
%TO.N,+3V3*%
X79500000Y-55500000D03*
X87000000Y-65000000D03*
X73500000Y-56500000D03*
X74500000Y-71500000D03*
X62500000Y-70500000D03*
X77500000Y-55500000D03*
X40000000Y-74000000D03*
X40000000Y-52500000D03*
X70514263Y-63486030D03*
X78250000Y-58250000D03*
X71500000Y-66000000D03*
X76000000Y-70500000D03*
X69000000Y-67000000D03*
X46500000Y-59500000D03*
X65000000Y-58000000D03*
X62500000Y-52500000D03*
X68009434Y-63952351D03*
%TO.N,GND*%
X62481551Y-55493850D03*
X70824799Y-65210000D03*
X89750000Y-51000000D03*
X83500000Y-68500000D03*
X69800201Y-66234598D03*
X69800201Y-64185402D03*
X89750000Y-54500000D03*
X73500000Y-55500000D03*
X66000000Y-57000000D03*
X81500000Y-55500000D03*
X89750000Y-58000000D03*
X40012299Y-55487701D03*
X77500000Y-74000000D03*
X75500000Y-55500000D03*
X81000000Y-67000000D03*
X89750000Y-61500000D03*
X61512299Y-69012299D03*
X77000000Y-71500000D03*
X68775603Y-65210000D03*
X79500000Y-67000000D03*
X40972536Y-69972536D03*
X41000000Y-75500000D03*
X90000000Y-68500000D03*
%TO.N,/TEMP_0*%
X73500000Y-61000000D03*
%TO.N,/BATT_V_SENS*%
X61000000Y-57500000D03*
X61000000Y-60500000D03*
X47500000Y-70000000D03*
%TO.N,/SPI_CLK*%
X69500000Y-68500000D03*
%TO.N,/SPI_MISO*%
X69500000Y-72500000D03*
%TO.N,/SPI_MOSI*%
X70000000Y-69500000D03*
%TO.N,/NSS_ENC1*%
X72000000Y-69500000D03*
%TO.N,/CAN_TX*%
X58500000Y-56500000D03*
X60500000Y-67500000D03*
%TO.N,/CAN_RX*%
X59000000Y-53000000D03*
X60512299Y-66487701D03*
%TO.N,/TEMP_1*%
X74000000Y-58000000D03*
%TO.N,Net-(J12-Pad4)*%
X16000000Y-52000000D03*
X19000000Y-26500000D03*
X18000000Y-42000000D03*
X16000000Y-57000000D03*
X19000000Y-32000000D03*
X18000000Y-26500000D03*
X16000000Y-32000000D03*
X20000000Y-26500000D03*
X16000000Y-47000000D03*
X16000000Y-43000000D03*
X16000000Y-48000000D03*
X17000000Y-42000000D03*
X16000000Y-50000000D03*
X20000000Y-42000000D03*
X16000000Y-54000000D03*
X20000000Y-37000000D03*
X18000000Y-32000000D03*
X20000000Y-32000000D03*
X17000000Y-32000000D03*
X16000000Y-55000000D03*
X18000000Y-37000000D03*
X17000000Y-37000000D03*
X17000000Y-26500000D03*
X19000000Y-42000000D03*
X16000000Y-58000000D03*
X16000000Y-42000000D03*
X16000000Y-51000000D03*
X16000000Y-53000000D03*
X16000000Y-46000000D03*
X16000000Y-45000000D03*
X16000000Y-26500000D03*
X16000000Y-49000000D03*
X19000000Y-37000000D03*
X16000000Y-56000000D03*
X16000000Y-44000000D03*
X16000000Y-37000000D03*
%TO.N,Net-(J13-Pad4)*%
X16000000Y-78500000D03*
X17000000Y-86500000D03*
X19000000Y-86500000D03*
X18000000Y-92000000D03*
X17000000Y-103500000D03*
X16000000Y-80500000D03*
X16000000Y-85500000D03*
X18000000Y-97500000D03*
X16000000Y-97500000D03*
X16000000Y-103500000D03*
X17000000Y-92000000D03*
X19000000Y-92000000D03*
X18000000Y-103500000D03*
X20000000Y-103500000D03*
X16000000Y-83500000D03*
X16000000Y-84500000D03*
X16000000Y-81500000D03*
X18000000Y-86500000D03*
X16000000Y-79500000D03*
X16000000Y-82500000D03*
X16000000Y-86500000D03*
X16000000Y-76500000D03*
X19000000Y-97500000D03*
X16000000Y-92000000D03*
X16000000Y-77500000D03*
X16000000Y-75500000D03*
X17000000Y-97500000D03*
X16000000Y-73500000D03*
X16000000Y-72500000D03*
X19000000Y-103500000D03*
X16000000Y-74500000D03*
%TO.N,/3V3_HARF_REF*%
X44000000Y-71000000D03*
X44000000Y-59500000D03*
%TD*%
D51*
%TO.N,GNDPWR*%
X30500000Y-58000000D02*
X30500000Y-56675000D01*
X31500000Y-76500000D02*
X32175000Y-76500000D01*
X30224500Y-75224500D02*
X31500000Y-76500000D01*
X30500000Y-56675000D02*
X32175000Y-55000000D01*
X30224500Y-74500000D02*
X30224500Y-75224500D01*
%TO.N,+15V*%
X58000000Y-98500000D02*
X58612500Y-99112500D01*
X46500000Y-43000000D02*
X48287500Y-41212500D01*
X49775000Y-28000000D02*
X51000000Y-28000000D01*
X58612500Y-99112500D02*
X58612500Y-100150000D01*
X47325000Y-102650000D02*
X51612500Y-102650000D01*
X47825000Y-98937500D02*
X47275480Y-99487020D01*
X55375000Y-90150000D02*
X55375000Y-91896447D01*
X56350000Y-90150000D02*
X56500000Y-90000000D01*
X58612500Y-100150000D02*
X57112500Y-101650000D01*
X51612500Y-102650000D02*
X52612500Y-101650000D01*
X47275480Y-99487020D02*
X47275480Y-102600480D01*
X47275480Y-102600480D02*
X47325000Y-102650000D01*
X49775000Y-28000000D02*
X49775000Y-29290686D01*
X46500000Y-43000000D02*
X43500000Y-43000000D01*
X55375000Y-90150000D02*
X56350000Y-90150000D01*
X40500000Y-40000000D02*
X40500000Y-35787500D01*
X43500000Y-43000000D02*
X40500000Y-40000000D01*
X48287500Y-41212500D02*
X48287500Y-39500000D01*
X50787500Y-38712500D02*
X50000000Y-39500000D01*
X50000000Y-39500000D02*
X48287500Y-39500000D01*
X49775000Y-29290686D02*
X48193243Y-30872443D01*
X50787500Y-37500000D02*
X50787500Y-38712500D01*
X57112500Y-101650000D02*
X52612500Y-101650000D01*
X55375000Y-91896447D02*
X53518243Y-93753204D01*
D52*
%TO.N,+5V*%
X39875000Y-60875000D02*
X39000000Y-60000000D01*
X39000000Y-60000000D02*
X35787500Y-60000000D01*
X55500000Y-60875000D02*
X51500000Y-60875000D01*
X51500000Y-60875000D02*
X39875000Y-60875000D01*
D51*
%TO.N,Net-(C11-Pad2)*%
X77049212Y-63000000D02*
X78029212Y-62020000D01*
X78250000Y-60825000D02*
X78250000Y-62020000D01*
X78029212Y-62020000D02*
X78250000Y-62020000D01*
X75465201Y-63000000D02*
X77049212Y-63000000D01*
%TO.N,/M1_W*%
X51487020Y-99312020D02*
X51487020Y-97905747D01*
X51487020Y-97905747D02*
X51838864Y-97553903D01*
X54050000Y-100150000D02*
X52325000Y-100150000D01*
X52325000Y-100150000D02*
X51487020Y-99312020D01*
%TO.N,Net-(C12-Pad1)*%
X53825000Y-92032233D02*
X52811136Y-93046097D01*
D52*
X53825000Y-90150000D02*
X44650000Y-90150000D01*
D51*
X53825000Y-90150000D02*
X53825000Y-92032233D01*
D52*
X44650000Y-90150000D02*
X43500000Y-89000000D01*
D51*
X29163744Y-71988744D02*
X29013342Y-71988744D01*
X32175000Y-75000000D02*
X29163744Y-71988744D01*
D52*
X43500000Y-89000000D02*
X33500000Y-89000000D01*
D51*
%TO.N,/M1_V*%
X49863480Y-99836520D02*
X49863480Y-97407967D01*
X48050000Y-100450000D02*
X48050000Y-101650000D01*
X48050000Y-101650000D02*
X49863480Y-99836520D01*
X48500000Y-100000000D02*
X48050000Y-100450000D01*
X49863480Y-97407967D02*
X50778204Y-96493243D01*
%TO.N,Net-(C13-Pad1)*%
X48225000Y-29426472D02*
X47486136Y-30165336D01*
D52*
X45500000Y-28000000D02*
X44000000Y-26500000D01*
D51*
X48225000Y-28000000D02*
X48225000Y-29426472D01*
D52*
X48225000Y-28000000D02*
X45500000Y-28000000D01*
X38500000Y-26500000D02*
X36000000Y-29000000D01*
D51*
X29500000Y-57000000D02*
X29500000Y-56175000D01*
D52*
X36000000Y-29000000D02*
X33500000Y-29000000D01*
D51*
X29500000Y-56175000D02*
X32175000Y-53500000D01*
D52*
X44000000Y-26500000D02*
X38500000Y-26500000D01*
D51*
%TO.N,/M1_U*%
X43000000Y-95000000D02*
X43500000Y-95500000D01*
X48263864Y-94813864D02*
X47825000Y-94375000D01*
X46700000Y-95500000D02*
X47825000Y-94375000D01*
X50071097Y-94813864D02*
X48263864Y-94813864D01*
X43500000Y-95500000D02*
X46700000Y-95500000D01*
%TO.N,Net-(C18-Pad2)*%
X51037500Y-97648160D02*
X51485311Y-97200349D01*
X51037500Y-101650000D02*
X51037500Y-97648160D01*
X49600000Y-101650000D02*
X51037500Y-101650000D01*
%TO.N,/M0_W*%
X46000000Y-36000000D02*
X46500000Y-36000000D01*
X45725000Y-35462006D02*
X46513864Y-34673142D01*
X45725000Y-35725000D02*
X46000000Y-36000000D01*
X45725000Y-37500000D02*
X45725000Y-35725000D01*
X45725000Y-35725000D02*
X45725000Y-35462006D01*
%TO.N,Net-(C21-Pad2)*%
X44775000Y-35704899D02*
X44775000Y-39500000D01*
X46712500Y-39500000D02*
X44775000Y-39500000D01*
X46160311Y-34319588D02*
X44775000Y-35704899D01*
%TO.N,/M0_V*%
X43282843Y-35782843D02*
X45453204Y-33612482D01*
X43282843Y-35782843D02*
X43000000Y-35500000D01*
X43000000Y-35500000D02*
X43000000Y-35000000D01*
X43225000Y-35840686D02*
X43282843Y-35782843D01*
X43225000Y-39500000D02*
X43225000Y-35840686D01*
%TO.N,Net-(C22-Pad2)*%
X40500000Y-32275000D02*
X40500000Y-34212500D01*
X45099651Y-33258928D02*
X44146079Y-34212500D01*
X44146079Y-34212500D02*
X40500000Y-34212500D01*
%TO.N,/M1_UL*%
X54578903Y-94813864D02*
X56012767Y-93380000D01*
X67040201Y-71765006D02*
X67040201Y-70925000D01*
X66500000Y-77500000D02*
X66500000Y-72305207D01*
X66000000Y-78000000D02*
X66500000Y-77500000D01*
X66500000Y-72305207D02*
X67040201Y-71765006D01*
X56012767Y-93380000D02*
X62825000Y-93380000D01*
%TO.N,/M1_VL*%
X67540201Y-69040201D02*
X67540201Y-70925000D01*
X62825000Y-90840000D02*
X57845660Y-90840000D01*
X57845660Y-90840000D02*
X54225349Y-94460311D01*
X67500000Y-69000000D02*
X67540201Y-69040201D01*
%TO.N,/M1_WL*%
X67224500Y-73500000D02*
X67224500Y-72580707D01*
X53871796Y-94103204D02*
X59675000Y-88300000D01*
X68040201Y-71765006D02*
X68040201Y-70925000D01*
X67224500Y-72580707D02*
X68040201Y-71765006D01*
X59675000Y-88300000D02*
X62825000Y-88300000D01*
X53871796Y-94106757D02*
X53871796Y-94103204D01*
%TO.N,Net-(GD1-Pad9)*%
X49378553Y-92000000D02*
X51131757Y-93753204D01*
X47000000Y-92000000D02*
X49378553Y-92000000D01*
%TO.N,Net-(GD1-Pad10)*%
X44000000Y-94500000D02*
X45349040Y-93150960D01*
X45349040Y-93150960D02*
X49822407Y-93150960D01*
X49822407Y-93150960D02*
X50778204Y-94106757D01*
%TO.N,Net-(GD1-Pad11)*%
X46000000Y-94500000D02*
X46899520Y-93600480D01*
X46899520Y-93600480D02*
X49564820Y-93600480D01*
X49564820Y-93600480D02*
X50424651Y-94460311D01*
%TO.N,Net-(GD1-Pad13)*%
X50071097Y-95786136D02*
X49688864Y-95786136D01*
X49688864Y-95786136D02*
X49325000Y-96150000D01*
%TO.N,Net-(GD1-Pad16)*%
X50313000Y-97665553D02*
X51131757Y-96846796D01*
X50313000Y-100500000D02*
X50313000Y-97665553D01*
%TO.N,Net-(GD1-Pad19)*%
X53500000Y-98242767D02*
X52811136Y-97553903D01*
X53500000Y-99000000D02*
X53500000Y-98242767D01*
%TO.N,/M1_UH*%
X62825000Y-101000000D02*
X59325000Y-97500000D01*
X59325000Y-97500000D02*
X54878553Y-97500000D01*
X64115201Y-63500000D02*
X65500000Y-63500000D01*
X54878553Y-97500000D02*
X53871796Y-96493243D01*
%TO.N,/M1_VH*%
X64115201Y-64000000D02*
X62500000Y-64000000D01*
X54225349Y-96139689D02*
X55085660Y-97000000D01*
X61365000Y-97000000D02*
X62825000Y-98460000D01*
X55085660Y-97000000D02*
X61365000Y-97000000D01*
%TO.N,/M1_WH*%
X55292767Y-96500000D02*
X54578903Y-95786136D01*
X67382484Y-64500000D02*
X64115201Y-64500000D01*
X62245000Y-96500000D02*
X55292767Y-96500000D01*
X67815303Y-64932819D02*
X67382484Y-64500000D01*
X62825000Y-95920000D02*
X62245000Y-96500000D01*
%TO.N,/M0_UL*%
X49253903Y-31933103D02*
X49637966Y-31549040D01*
X70540201Y-60959799D02*
X70500000Y-61000000D01*
X59230000Y-35730000D02*
X63000000Y-35730000D01*
X49637966Y-31549040D02*
X55049040Y-31549040D01*
X55049040Y-31549040D02*
X59230000Y-35730000D01*
X70540201Y-59575000D02*
X70540201Y-60959799D01*
%TO.N,/M0_VL*%
X69040201Y-60959799D02*
X69000000Y-61000000D01*
X69040201Y-59575000D02*
X69040201Y-60959799D01*
X57690000Y-33190000D02*
X55599520Y-31099520D01*
X63000000Y-33190000D02*
X57690000Y-33190000D01*
X49380379Y-31099520D02*
X48900349Y-31579550D01*
X55599520Y-31099520D02*
X49380379Y-31099520D01*
%TO.N,/M0_WL*%
X68540201Y-59575000D02*
X68540201Y-58040201D01*
X63000000Y-30650000D02*
X49122792Y-30650000D01*
X49122792Y-30650000D02*
X48546796Y-31225996D01*
X68540201Y-58040201D02*
X68500000Y-58000000D01*
%TO.N,Net-(GD2-Pad9)*%
X45806757Y-30872443D02*
X42934314Y-28000000D01*
X42934314Y-28000000D02*
X41000000Y-28000000D01*
%TO.N,Net-(GD2-Pad10)*%
X45453204Y-31225996D02*
X43227208Y-29000000D01*
X43227208Y-29000000D02*
X41500000Y-29000000D01*
%TO.N,Net-(GD2-Pad11)*%
X45099651Y-31579550D02*
X43520101Y-30000000D01*
X43520101Y-30000000D02*
X42000000Y-30000000D01*
%TO.N,Net-(GD2-Pad13)*%
X44746097Y-32905375D02*
X44163472Y-33488000D01*
X44163472Y-33488000D02*
X43500000Y-33488000D01*
%TO.N,Net-(GD2-Pad16)*%
X44000000Y-35772792D02*
X44000000Y-36500000D01*
X45806757Y-33966035D02*
X44000000Y-35772792D01*
%TO.N,Net-(GD2-Pad19)*%
X48000000Y-35187006D02*
X48000000Y-36000000D01*
X47486136Y-34673142D02*
X48000000Y-35187006D01*
%TO.N,/M0_UH*%
X52500000Y-34500000D02*
X49434314Y-34500000D01*
X49434314Y-34500000D02*
X48546796Y-33612482D01*
X63000000Y-43350000D02*
X61350000Y-43350000D01*
X61350000Y-43350000D02*
X52500000Y-34500000D01*
X64115201Y-65500000D02*
X65500000Y-65500000D01*
%TO.N,/M0_VH*%
X53000000Y-34000000D02*
X49641421Y-34000000D01*
X59810000Y-40810000D02*
X53000000Y-34000000D01*
X64115201Y-66000000D02*
X62500000Y-66000000D01*
X49641421Y-34000000D02*
X48900349Y-33258928D01*
X63000000Y-40810000D02*
X59810000Y-40810000D01*
%TO.N,/M0_WH*%
X64115201Y-66500000D02*
X65500000Y-66500000D01*
X53500000Y-33500000D02*
X49848528Y-33500000D01*
X49848528Y-33500000D02*
X49253903Y-32905375D01*
X58270000Y-38270000D02*
X53500000Y-33500000D01*
X63000000Y-38270000D02*
X58270000Y-38270000D01*
%TO.N,+BATT*%
X32899520Y-58125094D02*
X32899520Y-52724520D01*
X32175000Y-72125787D02*
X30611713Y-70562500D01*
X32899520Y-52724520D02*
X32175000Y-52000000D01*
X32175000Y-73500000D02*
X32175000Y-72125787D01*
X33175000Y-69675000D02*
X33175000Y-70500000D01*
X31587114Y-59437500D02*
X32899520Y-58125094D01*
X30611713Y-70562500D02*
X25500000Y-70562500D01*
D52*
X28175000Y-67500000D02*
X31000000Y-67500000D01*
X31000000Y-67500000D02*
X31500000Y-67000000D01*
D51*
X31000000Y-67500000D02*
X33175000Y-69675000D01*
D52*
X31500000Y-67000000D02*
X31500000Y-65787500D01*
D51*
X25500000Y-59437500D02*
X31587114Y-59437500D01*
%TO.N,/M0_U*%
X43537994Y-30725000D02*
X40500000Y-30725000D01*
X44746097Y-31933103D02*
X43933103Y-31933103D01*
X43933103Y-31933103D02*
X43500000Y-31500000D01*
X44746097Y-31933103D02*
X43537994Y-30725000D01*
%TO.N,Net-(C17-Pad2)*%
X55600000Y-100150000D02*
X57037500Y-100150000D01*
X53164689Y-97200349D02*
X55600000Y-99635660D01*
X55600000Y-99635660D02*
X55600000Y-100150000D01*
%TO.N,Net-(D1-Pad1)*%
X84587701Y-75250000D02*
X86975201Y-75250000D01*
%TO.N,Net-(C19-Pad2)*%
X47825000Y-95925000D02*
X47825000Y-97362500D01*
X49201840Y-97362500D02*
X47825000Y-97362500D01*
X50424651Y-96139689D02*
X49201840Y-97362500D01*
%TO.N,Net-(D2-Pad1)*%
X86975201Y-73210000D02*
X84587701Y-73210000D01*
%TO.N,Net-(C20-Pad2)*%
X47839689Y-34319588D02*
X49212500Y-35692399D01*
X47275000Y-37500000D02*
X49212500Y-37500000D01*
X49212500Y-35692399D02*
X49212500Y-37500000D01*
%TO.N,Net-(D3-Pad1)*%
X84587701Y-71210000D02*
X86975201Y-71210000D01*
%TO.N,Net-(D4-Pad1)*%
X86975201Y-77210000D02*
X84587701Y-77210000D01*
%TO.N,/POT_0*%
X63225386Y-45250000D02*
X89250000Y-45250000D01*
X65250000Y-62500000D02*
X64115201Y-62500000D01*
X65500000Y-62250000D02*
X65250000Y-62500000D01*
X109750000Y-65750000D02*
X109750000Y-87020000D01*
X89250000Y-45250000D02*
X109750000Y-65750000D01*
X62250000Y-46225386D02*
X63225386Y-45250000D01*
X62250000Y-47000000D02*
X62250000Y-46225386D01*
%TO.N,/POT_1*%
X64115201Y-63000000D02*
X62750000Y-63000000D01*
X96750000Y-54000000D02*
X96750000Y-87020000D01*
X63250000Y-46250000D02*
X63750000Y-45750000D01*
X62750000Y-63000000D02*
X62500000Y-62750000D01*
X63750000Y-45750000D02*
X88500000Y-45750000D01*
X88500000Y-45750000D02*
X96750000Y-54000000D01*
%TO.N,/SW0*%
X75465201Y-65500000D02*
X79250000Y-65500000D01*
X84700000Y-63050000D02*
X88800000Y-63050000D01*
X84700000Y-63050000D02*
X81700000Y-63050000D01*
X81700000Y-63050000D02*
X79250000Y-65500000D01*
%TO.N,/SW1*%
X84335718Y-59550000D02*
X84700000Y-59550000D01*
X75465201Y-65000000D02*
X78885718Y-65000000D01*
X78885718Y-65000000D02*
X84335718Y-59550000D01*
X88800000Y-59550000D02*
X84700000Y-59550000D01*
%TO.N,/M1_CS*%
X52987701Y-53487701D02*
X52987701Y-51512299D01*
X41725000Y-80275000D02*
X42000000Y-80000000D01*
X37050000Y-80275000D02*
X37000000Y-80325000D01*
X39500000Y-80275000D02*
X41725000Y-80275000D01*
X71789684Y-58000000D02*
X72040201Y-58250517D01*
X54000000Y-50500000D02*
X64000000Y-50500000D01*
X39500000Y-80275000D02*
X37050000Y-80275000D01*
X42000000Y-80000000D02*
X42000000Y-78500000D01*
X72040201Y-58250517D02*
X72040201Y-59575000D01*
X72540000Y-48500000D02*
X74040000Y-50000000D01*
X66000000Y-48500000D02*
X72540000Y-48500000D01*
X64000000Y-50500000D02*
X66000000Y-48500000D01*
X52987701Y-51512299D02*
X54000000Y-50500000D01*
%TO.N,/M0_CS*%
X79660000Y-48000000D02*
X81660000Y-50000000D01*
X36000000Y-58325000D02*
X37950000Y-58325000D01*
X75465201Y-62500000D02*
X76524598Y-62500000D01*
X42175500Y-58275000D02*
X42950500Y-57500000D01*
X59000000Y-49000000D02*
X61000000Y-49000000D01*
X38000000Y-58275000D02*
X42175500Y-58275000D01*
X76524598Y-62500000D02*
X77012299Y-62012299D01*
X61000000Y-49000000D02*
X62000000Y-48000000D01*
X62000000Y-48000000D02*
X79660000Y-48000000D01*
X37950000Y-58325000D02*
X38000000Y-58275000D01*
%TO.N,/CAN_L*%
X57500000Y-61000000D02*
X56375000Y-62125000D01*
X53000000Y-57000000D02*
X54000000Y-58000000D01*
X51500000Y-62125000D02*
X55500000Y-62125000D01*
X51000000Y-51000000D02*
X51000000Y-54000000D01*
X55425000Y-53365000D02*
X54135000Y-53365000D01*
X56375000Y-62125000D02*
X55500000Y-62125000D01*
X51500000Y-54500000D02*
X53000000Y-54500000D01*
X53000000Y-54500000D02*
X53000000Y-57000000D01*
X51000000Y-54000000D02*
X51500000Y-54500000D01*
X49725000Y-49725000D02*
X51000000Y-51000000D01*
X57500000Y-59000000D02*
X57500000Y-61000000D01*
X56500000Y-58000000D02*
X57500000Y-59000000D01*
X54000000Y-58000000D02*
X56500000Y-58000000D01*
X54135000Y-53365000D02*
X53000000Y-54500000D01*
X47500000Y-49725000D02*
X49725000Y-49725000D01*
%TO.N,/SW2*%
X83250000Y-60000000D02*
X83250000Y-56500000D01*
X75465201Y-64500000D02*
X78750000Y-64500000D01*
X83700000Y-56050000D02*
X84700000Y-56050000D01*
X84700000Y-56050000D02*
X88800000Y-56050000D01*
X83250000Y-56500000D02*
X83700000Y-56050000D01*
X78750000Y-64500000D02*
X83250000Y-60000000D01*
%TO.N,/SW3*%
X82500000Y-60000000D02*
X78500000Y-64000000D01*
X88800000Y-52550000D02*
X84700000Y-52550000D01*
X83450000Y-52550000D02*
X82500000Y-53500000D01*
X82500000Y-53500000D02*
X82500000Y-60000000D01*
X84700000Y-52550000D02*
X83450000Y-52550000D01*
X78500000Y-64000000D02*
X75465201Y-64000000D01*
%TO.N,unconnected-(U4-Pad40)*%
X64115201Y-65000000D02*
X62500000Y-65000000D01*
%TO.N,/CAN_H*%
X53500000Y-55000000D02*
X53500000Y-56500000D01*
X54500000Y-57500000D02*
X57000000Y-57500000D01*
X55500000Y-63375000D02*
X51500000Y-63375000D01*
X57000000Y-57500000D02*
X58000000Y-58500000D01*
X58000000Y-58500000D02*
X58000000Y-63000000D01*
X53865000Y-54635000D02*
X53500000Y-55000000D01*
X57625000Y-63375000D02*
X55500000Y-63375000D01*
X55425000Y-54635000D02*
X56365000Y-54635000D01*
X50000000Y-57500000D02*
X48825000Y-56325000D01*
X55425000Y-54635000D02*
X53865000Y-54635000D01*
X56365000Y-54635000D02*
X57000000Y-54000000D01*
X53500000Y-56500000D02*
X54500000Y-57500000D01*
X58000000Y-63000000D02*
X57625000Y-63375000D01*
X48825000Y-56325000D02*
X47500000Y-56325000D01*
%TO.N,/SWDIO*%
X60000000Y-69500000D02*
X61500000Y-68000000D01*
X60000000Y-70500000D02*
X60000000Y-69500000D01*
X61500000Y-68000000D02*
X64115201Y-68000000D01*
%TO.N,/SWCLK*%
X59000000Y-75000000D02*
X64500000Y-75000000D01*
X66040201Y-73459799D02*
X66040201Y-70925000D01*
X64500000Y-75000000D02*
X66040201Y-73459799D01*
%TO.N,/UART1_TX*%
X59000000Y-60682141D02*
X64182141Y-55500000D01*
X59000000Y-69500000D02*
X59000000Y-60682141D01*
X52450000Y-72750000D02*
X55750000Y-72750000D01*
X55750000Y-72750000D02*
X59000000Y-69500000D01*
X64182141Y-55500000D02*
X68500000Y-55500000D01*
X68500000Y-55500000D02*
X70065681Y-57065681D01*
X70065681Y-57065681D02*
X70065681Y-60000000D01*
%TO.N,/UART1_RX*%
X59500000Y-69635717D02*
X54885717Y-74250000D01*
X59500000Y-60817859D02*
X59500000Y-69635717D01*
X64317859Y-56000000D02*
X59500000Y-60817859D01*
X68000000Y-56000000D02*
X64317859Y-56000000D01*
X69540201Y-59575000D02*
X69540201Y-57540201D01*
X54885717Y-74250000D02*
X52450000Y-74250000D01*
X69540201Y-57540201D02*
X68000000Y-56000000D01*
%TO.N,/NSS_ENC0*%
X70540201Y-73040201D02*
X74500000Y-77000000D01*
X70540201Y-70925000D02*
X70540201Y-72459799D01*
X70540201Y-72459799D02*
X70500000Y-72500000D01*
X70540201Y-70925000D02*
X70540201Y-73040201D01*
%TO.N,/NRST*%
X84175000Y-65000000D02*
X84175000Y-66334799D01*
X84750201Y-66910000D02*
X88850201Y-66910000D01*
X75465201Y-66000000D02*
X74000000Y-66000000D01*
X84175000Y-65000000D02*
X83000000Y-65000000D01*
X84175000Y-66334799D02*
X84750201Y-66910000D01*
%TO.N,+3V3*%
X78302701Y-72500000D02*
X83012701Y-77210000D01*
X62310000Y-69690000D02*
X63000000Y-69000000D01*
X73980000Y-72500000D02*
X78302701Y-72500000D01*
X72540201Y-62470000D02*
X72540201Y-59575000D01*
X66040201Y-61450000D02*
X66040201Y-59575000D01*
X45325000Y-59500000D02*
X46500000Y-59500000D01*
X77000000Y-69500000D02*
X76500000Y-69000000D01*
X60575000Y-53365000D02*
X62345000Y-53365000D01*
X78250000Y-59175000D02*
X78250000Y-58250000D01*
X68542553Y-63952351D02*
X68009434Y-63952351D01*
X66040201Y-59040201D02*
X65500000Y-58500000D01*
X73980000Y-72020000D02*
X74500000Y-71500000D01*
X65500000Y-58020000D02*
X65520000Y-58000000D01*
X68545101Y-63954899D02*
X68542553Y-63952351D01*
X65500000Y-58500000D02*
X65500000Y-58020000D01*
X102770000Y-90500000D02*
X96730000Y-90500000D01*
X38167500Y-53520000D02*
X38137500Y-53550000D01*
X68755100Y-66255100D02*
X71005100Y-64005100D01*
X62300201Y-69690000D02*
X62300201Y-70300201D01*
X70514263Y-63514263D02*
X70514263Y-63486030D01*
X62300201Y-70300201D02*
X62500000Y-70500000D01*
X65520000Y-58000000D02*
X65000000Y-58000000D01*
X62500000Y-53520000D02*
X62500000Y-52500000D01*
X40000000Y-75020000D02*
X40000000Y-74000000D01*
X68755100Y-66255100D02*
X69000000Y-66500000D01*
X64115201Y-69000000D02*
X66010201Y-69000000D01*
X66010201Y-69000000D02*
X68755100Y-66255100D01*
X77000000Y-70020000D02*
X76480000Y-70020000D01*
X66040201Y-59575000D02*
X66040201Y-59040201D01*
X77500000Y-54325000D02*
X77500000Y-55500000D01*
X63000000Y-69000000D02*
X64115201Y-69000000D01*
X68545101Y-63954899D02*
X66040201Y-61450000D01*
X79500000Y-54325000D02*
X79500000Y-55500000D01*
X73590201Y-69000000D02*
X73540201Y-68950000D01*
X38137500Y-75050000D02*
X39970000Y-75050000D01*
X45325000Y-55825000D02*
X43020000Y-53520000D01*
X76500000Y-69000000D02*
X75465201Y-69000000D01*
X75465201Y-69000000D02*
X73590201Y-69000000D01*
X73540201Y-68950000D02*
X71045101Y-66454899D01*
X45325000Y-59500000D02*
X45325000Y-55825000D01*
X40000000Y-53520000D02*
X40000000Y-52500000D01*
X73000000Y-57000000D02*
X73500000Y-56500000D01*
X87520000Y-87020000D02*
X83012701Y-82512701D01*
X73540201Y-72060201D02*
X73980000Y-72500000D01*
X96730000Y-90500000D02*
X93250000Y-87020000D01*
X62345000Y-53365000D02*
X62500000Y-53520000D01*
X43020000Y-53520000D02*
X40000000Y-53520000D01*
X39970000Y-75050000D02*
X40000000Y-75020000D01*
X71005100Y-64005100D02*
X70514263Y-63514263D01*
X71005100Y-64005100D02*
X72540201Y-62470000D01*
X62300201Y-69690000D02*
X62310000Y-69690000D01*
X87000000Y-65000000D02*
X85825000Y-65000000D01*
X93250000Y-87020000D02*
X87520000Y-87020000D01*
X73540201Y-70925000D02*
X73540201Y-72060201D01*
X72540201Y-59575000D02*
X72540201Y-57040201D01*
X77000000Y-70020000D02*
X77000000Y-69500000D01*
X69000000Y-66500000D02*
X69000000Y-67000000D01*
X40000000Y-53520000D02*
X38167500Y-53520000D01*
X76480000Y-70020000D02*
X76000000Y-70500000D01*
X106250000Y-87020000D02*
X102770000Y-90500000D01*
X73980000Y-72500000D02*
X73980000Y-72020000D01*
X83012701Y-82512701D02*
X83012701Y-77210000D01*
X72540201Y-57040201D02*
X72500000Y-57000000D01*
X73540201Y-70925000D02*
X73540201Y-68950000D01*
X71045101Y-66454899D02*
X68545101Y-63954899D01*
X71045101Y-66454899D02*
X71500000Y-66000000D01*
X72500000Y-57000000D02*
X73000000Y-57000000D01*
%TO.N,GND*%
X75465201Y-63500000D02*
X77730000Y-63500000D01*
X66540201Y-60925402D02*
X69800201Y-64185402D01*
X62345000Y-54635000D02*
X62500000Y-54480000D01*
X66480000Y-57480000D02*
X66480000Y-58000000D01*
X38578928Y-78725000D02*
X39500000Y-78725000D01*
X82000000Y-67500000D02*
X82000000Y-66000000D01*
X37150480Y-55875480D02*
X37150480Y-55024040D01*
X81710000Y-67210000D02*
X82000000Y-67500000D01*
X81500000Y-54325000D02*
X81500000Y-55500000D01*
X38157500Y-75980000D02*
X38137500Y-76000000D01*
X61794598Y-68730000D02*
X61512299Y-69012299D01*
X73040201Y-70925000D02*
X73040201Y-72479799D01*
X66540201Y-59575000D02*
X66540201Y-58060201D01*
X73500000Y-55500000D02*
X73040000Y-55500000D01*
X88800000Y-50950000D02*
X89700000Y-50950000D01*
X84750201Y-68510000D02*
X83510000Y-68510000D01*
X40500000Y-71000000D02*
X40000000Y-70500000D01*
X83510000Y-68510000D02*
X83500000Y-68500000D01*
X84700000Y-50950000D02*
X88800000Y-50950000D01*
X88800000Y-61450000D02*
X89700000Y-61450000D01*
X87010000Y-68510000D02*
X88850201Y-68510000D01*
X82000000Y-67500000D02*
X82000000Y-69000000D01*
X38157500Y-54480000D02*
X38137500Y-54500000D01*
D52*
X45515000Y-65015000D02*
X47250000Y-66750000D01*
D51*
X40000000Y-75980000D02*
X40520000Y-75980000D01*
X75465201Y-63500000D02*
X72534799Y-63500000D01*
X37000000Y-77146072D02*
X38578928Y-78725000D01*
X84700000Y-54450000D02*
X88800000Y-54450000D01*
X55425000Y-55905000D02*
X57865000Y-55905000D01*
X88625201Y-70625201D02*
X87010000Y-69010000D01*
X40000000Y-54480000D02*
X40000000Y-55475402D01*
X81500000Y-69500000D02*
X80000000Y-69500000D01*
X41675000Y-70675000D02*
X40972536Y-69972536D01*
X88625201Y-77210000D02*
X88625201Y-75250000D01*
X73040000Y-55500000D02*
X72500000Y-56040000D01*
X40000000Y-70500000D02*
X38325000Y-70500000D01*
X41675000Y-71000000D02*
X41675000Y-70675000D01*
X88625201Y-75250000D02*
X88625201Y-73210000D01*
X38325000Y-70500000D02*
X38325000Y-71655000D01*
X37753928Y-76000000D02*
X37000000Y-76753928D01*
X62300201Y-68730000D02*
X61794598Y-68730000D01*
X73040201Y-70925000D02*
X73040201Y-69474598D01*
X87010000Y-69010000D02*
X87010000Y-68510000D01*
X65485603Y-68500000D02*
X64115201Y-68500000D01*
X77730000Y-63500000D02*
X78250000Y-62980000D01*
X84750201Y-68510000D02*
X87010000Y-68510000D01*
X88625201Y-71210000D02*
X88625201Y-70625201D01*
X84700000Y-61450000D02*
X88800000Y-61450000D01*
X40000000Y-75980000D02*
X38157500Y-75980000D01*
X82000000Y-69000000D02*
X81500000Y-69500000D01*
X60575000Y-54635000D02*
X62345000Y-54635000D01*
X89990000Y-68510000D02*
X90000000Y-68500000D01*
X62530201Y-68500000D02*
X62300201Y-68730000D01*
X37674520Y-54500000D02*
X38137500Y-54500000D01*
X37000000Y-76753928D02*
X37000000Y-77146072D01*
X66540201Y-58060201D02*
X66480000Y-58000000D01*
X89700000Y-50950000D02*
X89750000Y-51000000D01*
X82000000Y-66000000D02*
X81500000Y-65500000D01*
X64115201Y-68500000D02*
X62530201Y-68500000D01*
X89700000Y-54450000D02*
X89750000Y-54500000D01*
X88625201Y-71210000D02*
X88625201Y-73210000D01*
X84700000Y-57950000D02*
X88800000Y-57950000D01*
X73040201Y-69474598D02*
X69800201Y-66234598D01*
X37150480Y-55024040D02*
X37674520Y-54500000D01*
X40520000Y-75980000D02*
X41000000Y-75500000D01*
X76500000Y-74000000D02*
X77500000Y-74000000D01*
X73040201Y-72479799D02*
X73020000Y-72500000D01*
X77000000Y-70980000D02*
X77000000Y-71500000D01*
X62481551Y-55493850D02*
X62500000Y-55475401D01*
X38000000Y-56725000D02*
X37150480Y-55875480D01*
X80300201Y-67210000D02*
X79710000Y-67210000D01*
X89700000Y-57950000D02*
X89750000Y-58000000D01*
X88800000Y-57950000D02*
X89700000Y-57950000D01*
X75500000Y-54325000D02*
X75500000Y-55500000D01*
X89700000Y-61450000D02*
X89750000Y-61500000D01*
X66000000Y-57000000D02*
X66480000Y-57480000D01*
X66540201Y-59575000D02*
X66540201Y-60925402D01*
X79710000Y-67210000D02*
X79500000Y-67000000D01*
X55425000Y-52095000D02*
X56595000Y-52095000D01*
X57865000Y-55905000D02*
X59135000Y-54635000D01*
X40000000Y-54480000D02*
X38157500Y-54480000D01*
X41675000Y-71000000D02*
X40500000Y-71000000D01*
X80300201Y-67210000D02*
X81710000Y-67210000D01*
X88850201Y-68510000D02*
X89990000Y-68510000D01*
D52*
X47250000Y-66750000D02*
X52450000Y-66750000D01*
D51*
X56595000Y-52095000D02*
X59135000Y-54635000D01*
X72534799Y-63500000D02*
X70824799Y-65210000D01*
D52*
X34000000Y-65015000D02*
X45515000Y-65015000D01*
D51*
X38137500Y-76000000D02*
X37753928Y-76000000D01*
X93250000Y-28520000D02*
X106250000Y-28520000D01*
X38325000Y-71655000D02*
X37980000Y-72000000D01*
X62500000Y-55475401D02*
X62500000Y-54480000D01*
X68775603Y-65210000D02*
X65485603Y-68500000D01*
X40000000Y-55475402D02*
X40012299Y-55487701D01*
X88800000Y-54450000D02*
X89700000Y-54450000D01*
D52*
X51500000Y-59625000D02*
X55500000Y-59625000D01*
D51*
X59135000Y-54635000D02*
X60575000Y-54635000D01*
%TO.N,/LED_0*%
X75465201Y-68500000D02*
X76864282Y-68500000D01*
X83012701Y-74648419D02*
X83012701Y-75250000D01*
X76864282Y-68500000D02*
X83012701Y-74648419D01*
%TO.N,/LED_1*%
X82210000Y-73210000D02*
X77000000Y-68000000D01*
X83012701Y-73210000D02*
X82210000Y-73210000D01*
X77000000Y-68000000D02*
X75465201Y-68000000D01*
%TO.N,/LED_2*%
X80845718Y-71210000D02*
X83012701Y-71210000D01*
X75465201Y-67500000D02*
X77135718Y-67500000D01*
X77135718Y-67500000D02*
X80845718Y-71210000D01*
%TO.N,/OSC_IN*%
X78090201Y-67000000D02*
X79500201Y-68410000D01*
X79500201Y-68410000D02*
X80300201Y-68410000D01*
X75465201Y-67000000D02*
X78090201Y-67000000D01*
%TO.N,/OSC_OUT*%
X75465201Y-66500000D02*
X78510201Y-66500000D01*
X78510201Y-66500000D02*
X79000201Y-66010000D01*
X79000201Y-66010000D02*
X80300201Y-66010000D01*
%TO.N,Net-(J1-Pad2)*%
X47500000Y-52265000D02*
X47500000Y-54675000D01*
%TO.N,/TEMP_0*%
X79120000Y-51120000D02*
X79500000Y-51500000D01*
X79120000Y-50000000D02*
X79120000Y-51120000D01*
X73540201Y-60959799D02*
X73500000Y-61000000D01*
X79500000Y-52675000D02*
X81500000Y-52675000D01*
X79500000Y-51500000D02*
X79500000Y-52675000D01*
X73540201Y-59575000D02*
X73540201Y-60959799D01*
%TO.N,/BATT_V_SENS*%
X37500000Y-68500000D02*
X36675000Y-69325000D01*
X61500000Y-57500000D02*
X64000000Y-55000000D01*
X64000000Y-55000000D02*
X69500000Y-55000000D01*
X69500000Y-55000000D02*
X71500000Y-53000000D01*
X44416976Y-68500000D02*
X37500000Y-68500000D01*
X47500000Y-70000000D02*
X45916976Y-70000000D01*
X45916976Y-70000000D02*
X44416976Y-68500000D01*
X64115201Y-62000000D02*
X62500000Y-62000000D01*
X34825000Y-70500000D02*
X36675000Y-70500000D01*
X36675000Y-69325000D02*
X36675000Y-70500000D01*
X36675000Y-71655000D02*
X37020000Y-72000000D01*
X36675000Y-70500000D02*
X36675000Y-71655000D01*
X71500000Y-53000000D02*
X71500000Y-50000000D01*
X62500000Y-62000000D02*
X61000000Y-60500000D01*
X61000000Y-57500000D02*
X61500000Y-57500000D01*
%TO.N,/SPI_CLK*%
X72000000Y-93750000D02*
X70650000Y-93750000D01*
X74125000Y-83125000D02*
X72000000Y-83125000D01*
X69500000Y-68500000D02*
X69040201Y-68959799D01*
X76000000Y-85000000D02*
X74125000Y-83125000D01*
X70650000Y-93750000D02*
X70000000Y-93100000D01*
X70000000Y-93100000D02*
X70000000Y-83500000D01*
X70000000Y-83500000D02*
X70375000Y-83125000D01*
X69040201Y-68959799D02*
X69040201Y-70925000D01*
X76000000Y-90005000D02*
X76000000Y-85000000D01*
X77500000Y-91505000D02*
X76000000Y-90005000D01*
X70375000Y-83125000D02*
X72000000Y-83125000D01*
%TO.N,/SPI_MISO*%
X75455000Y-94045000D02*
X75000000Y-94500000D01*
X75000000Y-86000000D02*
X75000000Y-94500000D01*
X74500000Y-95000000D02*
X72000000Y-95000000D01*
X69540201Y-70925000D02*
X69540201Y-72459799D01*
X73375000Y-84375000D02*
X75000000Y-86000000D01*
X75000000Y-94500000D02*
X74500000Y-95000000D01*
X77500000Y-94045000D02*
X75455000Y-94045000D01*
X69540201Y-72459799D02*
X69500000Y-72500000D01*
X72000000Y-84375000D02*
X73375000Y-84375000D01*
%TO.N,/SPI_MOSI*%
X70040201Y-70925000D02*
X70040201Y-69540201D01*
X70040201Y-69540201D02*
X70000000Y-69500000D01*
X75085000Y-96585000D02*
X77500000Y-96585000D01*
X72000000Y-96250000D02*
X74750000Y-96250000D01*
X74750000Y-96250000D02*
X75085000Y-96585000D01*
%TO.N,/NSS_ENC1*%
X72000000Y-69500000D02*
X71625195Y-69500000D01*
X78674511Y-85250489D02*
X75299022Y-81875000D01*
X71625195Y-69500000D02*
X71040201Y-70084994D01*
X77500000Y-88965000D02*
X78674511Y-87790489D01*
X78674511Y-87790489D02*
X78674511Y-85250489D01*
X75299022Y-81875000D02*
X72000000Y-81875000D01*
X71040201Y-70084994D02*
X71040201Y-70925000D01*
%TO.N,Net-(R7-Pad2)*%
X74850000Y-74000000D02*
X72500000Y-74000000D01*
X72500000Y-74000000D02*
X71540201Y-73040201D01*
X71540201Y-73040201D02*
X71540201Y-70925000D01*
%TO.N,/CAN_TX*%
X60500000Y-67500000D02*
X64115201Y-67500000D01*
X58500000Y-56500000D02*
X59095000Y-55905000D01*
X59095000Y-55905000D02*
X60575000Y-55905000D01*
%TO.N,/CAN_RX*%
X59000000Y-53000000D02*
X59905000Y-52095000D01*
X60524598Y-66500000D02*
X60512299Y-66487701D01*
X64115201Y-67000000D02*
X61024614Y-67000000D01*
X60524614Y-66500000D02*
X60524598Y-66500000D01*
X61024614Y-67000000D02*
X60524614Y-66500000D01*
X59905000Y-52095000D02*
X60575000Y-52095000D01*
%TO.N,/TEMP_1*%
X76580000Y-51080000D02*
X76580000Y-50000000D01*
X73775195Y-58000000D02*
X73040201Y-58734994D01*
X73040201Y-58734994D02*
X73040201Y-59575000D01*
X75500000Y-52675000D02*
X77500000Y-52675000D01*
X74000000Y-58000000D02*
X73775195Y-58000000D01*
X77500000Y-52675000D02*
X77500000Y-52000000D01*
X77500000Y-52000000D02*
X76580000Y-51080000D01*
%TO.N,Net-(J12-Pad4)*%
X32175000Y-57849614D02*
X32175000Y-56500000D01*
X28562500Y-57562500D02*
X29274992Y-58274992D01*
X29274992Y-58300103D02*
X29962869Y-58987980D01*
X29274992Y-58274992D02*
X29274992Y-58300103D01*
X29962869Y-58987980D02*
X31036634Y-58987980D01*
X31036634Y-58987980D02*
X32175000Y-57849614D01*
X25500000Y-57562500D02*
X28562500Y-57562500D01*
%TO.N,Net-(J13-Pad4)*%
X25500000Y-72437500D02*
X28437500Y-72437500D01*
X29500000Y-76500000D02*
X31000000Y-78000000D01*
X29500000Y-73500000D02*
X29500000Y-76500000D01*
X31000000Y-78000000D02*
X32175000Y-78000000D01*
X28437500Y-72437500D02*
X29500000Y-73500000D01*
%TO.N,/3V3_HARF_REF*%
X38137500Y-76950000D02*
X41550000Y-76950000D01*
X43325000Y-71000000D02*
X44000000Y-71000000D01*
X43325000Y-75175000D02*
X43325000Y-71000000D01*
X44000000Y-59500000D02*
X43675000Y-59500000D01*
X38950000Y-55450000D02*
X39712212Y-56212212D01*
X43212212Y-56212212D02*
X43675000Y-56675000D01*
X39712212Y-56212212D02*
X43212212Y-56212212D01*
X41550000Y-76950000D02*
X43325000Y-75175000D01*
X43675000Y-56675000D02*
X43675000Y-59500000D01*
X38137500Y-55450000D02*
X38950000Y-55450000D01*
%TO.N,Net-(R12-Pad2)*%
X35862500Y-78362500D02*
X36175000Y-78675000D01*
X36175000Y-78675000D02*
X37000000Y-78675000D01*
X35862500Y-76950000D02*
X35862500Y-78362500D01*
%TO.N,Net-(R13-Pad2)*%
X35862500Y-56537500D02*
X36000000Y-56675000D01*
X35862500Y-55450000D02*
X35862500Y-56537500D01*
%TO.N,/M1_CSH*%
X33825000Y-73500000D02*
X33825000Y-75000000D01*
X35862500Y-75050000D02*
X33875000Y-75050000D01*
X33875000Y-75050000D02*
X33825000Y-75000000D01*
%TO.N,/M1_CSL*%
X35862500Y-76000000D02*
X34325000Y-76000000D01*
X34325000Y-76000000D02*
X33825000Y-76500000D01*
X33825000Y-76500000D02*
X33825000Y-78000000D01*
%TO.N,/M0_CSH*%
X33875000Y-53550000D02*
X33825000Y-53500000D01*
X35862500Y-53550000D02*
X33875000Y-53550000D01*
X33825000Y-53500000D02*
X33825000Y-52000000D01*
%TO.N,/M0_CSL*%
X33825000Y-55000000D02*
X33825000Y-56500000D01*
X34325000Y-54500000D02*
X33825000Y-55000000D01*
X35862500Y-54500000D02*
X34325000Y-54500000D01*
D52*
%TO.N,Net-(D12-Pad1)*%
X31500000Y-63000000D02*
X31500000Y-64212500D01*
X34212500Y-60000000D02*
X34212500Y-62262500D01*
X34212500Y-62262500D02*
X34000000Y-62475000D01*
X32025000Y-62475000D02*
X31500000Y-63000000D01*
X34000000Y-62475000D02*
X32025000Y-62475000D01*
%TD*%
%TA.AperFunction,Conductor*%
%TO.N,+BATT*%
G36*
X16961758Y-59020002D02*
G01*
X17008251Y-59073658D01*
X17018355Y-59143932D01*
X17015344Y-59158611D01*
X16980314Y-59289345D01*
X16961884Y-59500000D01*
X16980314Y-59710655D01*
X17035044Y-59914910D01*
X17124411Y-60106558D01*
X17245699Y-60279776D01*
X17395224Y-60429301D01*
X17568442Y-60550589D01*
X17573420Y-60552910D01*
X17573423Y-60552912D01*
X17755108Y-60637633D01*
X17760090Y-60639956D01*
X17765398Y-60641378D01*
X17765400Y-60641379D01*
X17959030Y-60693262D01*
X17959032Y-60693262D01*
X17964345Y-60694686D01*
X18175000Y-60713116D01*
X18385655Y-60694686D01*
X18390968Y-60693262D01*
X18390970Y-60693262D01*
X18584600Y-60641379D01*
X18584602Y-60641378D01*
X18589910Y-60639956D01*
X18594892Y-60637633D01*
X18776577Y-60552912D01*
X18776580Y-60552910D01*
X18781558Y-60550589D01*
X18954776Y-60429301D01*
X19104301Y-60279776D01*
X19225589Y-60106558D01*
X19314956Y-59914910D01*
X19369686Y-59710655D01*
X19388116Y-59500000D01*
X19369686Y-59289345D01*
X19334656Y-59158611D01*
X19336346Y-59087635D01*
X19376140Y-59028839D01*
X19441404Y-59000891D01*
X19456363Y-59000000D01*
X29026794Y-59000000D01*
X29094915Y-59020002D01*
X29115887Y-59036903D01*
X29459222Y-59380238D01*
X29466756Y-59388517D01*
X29470869Y-59394998D01*
X29520520Y-59441623D01*
X29523362Y-59444378D01*
X29543099Y-59464115D01*
X29546296Y-59466595D01*
X29555316Y-59474298D01*
X29587548Y-59504566D01*
X29594494Y-59508385D01*
X29594497Y-59508387D01*
X29605303Y-59514328D01*
X29621822Y-59525179D01*
X29637828Y-59537594D01*
X29645097Y-59540739D01*
X29645101Y-59540742D01*
X29678406Y-59555154D01*
X29689056Y-59560371D01*
X29727809Y-59581675D01*
X29735484Y-59583646D01*
X29735485Y-59583646D01*
X29747431Y-59586713D01*
X29766136Y-59593117D01*
X29784724Y-59601161D01*
X29792547Y-59602400D01*
X29792557Y-59602403D01*
X29828393Y-59608079D01*
X29840013Y-59610485D01*
X29864398Y-59616745D01*
X29882839Y-59621480D01*
X29890072Y-59621480D01*
X29954865Y-59649736D01*
X29994269Y-59708794D01*
X30000000Y-59746363D01*
X30000000Y-60115500D01*
X29979998Y-60183621D01*
X29926342Y-60230114D01*
X29874000Y-60241500D01*
X26376866Y-60241500D01*
X26314684Y-60248255D01*
X26178295Y-60299385D01*
X26061739Y-60386739D01*
X25974385Y-60503295D01*
X25923255Y-60639684D01*
X25916500Y-60701866D01*
X25916500Y-64298134D01*
X25923255Y-64360316D01*
X25974385Y-64496705D01*
X25979771Y-64503892D01*
X25984079Y-64511760D01*
X25980879Y-64513512D01*
X25999671Y-64563756D01*
X26000000Y-64572858D01*
X26000000Y-65000000D01*
X29874000Y-65000000D01*
X29942121Y-65020002D01*
X29988614Y-65073658D01*
X30000000Y-65126000D01*
X30000000Y-70874000D01*
X29979998Y-70942121D01*
X29926342Y-70988614D01*
X29874000Y-71000000D01*
X19456363Y-71000000D01*
X19388242Y-70979998D01*
X19341749Y-70926342D01*
X19331645Y-70856068D01*
X19334656Y-70841389D01*
X19368262Y-70715970D01*
X19368262Y-70715968D01*
X19369686Y-70710655D01*
X19388116Y-70500000D01*
X19369686Y-70289345D01*
X19314956Y-70085090D01*
X19225589Y-69893442D01*
X19104301Y-69720224D01*
X18954776Y-69570699D01*
X18781558Y-69449411D01*
X18776580Y-69447090D01*
X18776577Y-69447088D01*
X18594892Y-69362367D01*
X18594891Y-69362366D01*
X18589910Y-69360044D01*
X18584602Y-69358622D01*
X18584600Y-69358621D01*
X18390970Y-69306738D01*
X18390968Y-69306738D01*
X18385655Y-69305314D01*
X18175000Y-69286884D01*
X17964345Y-69305314D01*
X17959032Y-69306738D01*
X17959030Y-69306738D01*
X17765400Y-69358621D01*
X17765398Y-69358622D01*
X17760090Y-69360044D01*
X17755109Y-69362366D01*
X17755108Y-69362367D01*
X17573423Y-69447088D01*
X17573420Y-69447090D01*
X17568442Y-69449411D01*
X17395224Y-69570699D01*
X17245699Y-69720224D01*
X17124411Y-69893442D01*
X17035044Y-70085090D01*
X16980314Y-70289345D01*
X16961884Y-70500000D01*
X16980314Y-70710655D01*
X16981738Y-70715968D01*
X16981738Y-70715970D01*
X17015344Y-70841389D01*
X17013654Y-70912365D01*
X16973860Y-70971161D01*
X16908596Y-70999109D01*
X16893637Y-71000000D01*
X15634500Y-71000000D01*
X15566379Y-70979998D01*
X15519886Y-70926342D01*
X15508500Y-70874000D01*
X15508500Y-59126000D01*
X15528502Y-59057879D01*
X15582158Y-59011386D01*
X15634500Y-59000000D01*
X16893637Y-59000000D01*
X16961758Y-59020002D01*
G37*
%TD.AperFunction*%
%TD*%
%TA.AperFunction,Conductor*%
%TO.N,/M0_W*%
G36*
X23015931Y-36020002D02*
G01*
X23036905Y-36036905D01*
X24500000Y-37500000D01*
X27874000Y-37500000D01*
X27942121Y-37520002D01*
X27988614Y-37573658D01*
X28000000Y-37626000D01*
X28000000Y-41123055D01*
X27983120Y-41186054D01*
X27980491Y-41190607D01*
X27975464Y-41197159D01*
X27914956Y-41343238D01*
X27894318Y-41500000D01*
X27914956Y-41656762D01*
X27975464Y-41802841D01*
X27980490Y-41809391D01*
X27981419Y-41811000D01*
X27998157Y-41879995D01*
X27974937Y-41947087D01*
X27919129Y-41990974D01*
X27872300Y-42000000D01*
X21627700Y-42000000D01*
X21559579Y-41979998D01*
X21513086Y-41926342D01*
X21502982Y-41856068D01*
X21518581Y-41811000D01*
X21519510Y-41809391D01*
X21524536Y-41802841D01*
X21585044Y-41656762D01*
X21605682Y-41500000D01*
X21585044Y-41343238D01*
X21524536Y-41197159D01*
X21519509Y-41190607D01*
X21516880Y-41186054D01*
X21500000Y-41123055D01*
X21500000Y-36876945D01*
X21516880Y-36813946D01*
X21519509Y-36809393D01*
X21524536Y-36802841D01*
X21585044Y-36656762D01*
X21605682Y-36500000D01*
X21585044Y-36343238D01*
X21524536Y-36197159D01*
X21519510Y-36190609D01*
X21518581Y-36189000D01*
X21501843Y-36120005D01*
X21525063Y-36052913D01*
X21580871Y-36009026D01*
X21627700Y-36000000D01*
X22947810Y-36000000D01*
X23015931Y-36020002D01*
G37*
%TD.AperFunction*%
%TD*%
%TA.AperFunction,Conductor*%
%TO.N,Net-(C13-Pad1)*%
G36*
X59942121Y-21220502D02*
G01*
X59988614Y-21274158D01*
X60000000Y-21326500D01*
X60000000Y-30198500D01*
X59979998Y-30266621D01*
X59926342Y-30313114D01*
X59874000Y-30324500D01*
X49505703Y-30324500D01*
X49437582Y-30304498D01*
X49391089Y-30250842D01*
X49380985Y-30180568D01*
X49410479Y-30115988D01*
X49416608Y-30109404D01*
X49649033Y-29876980D01*
X49991228Y-29534785D01*
X49999332Y-29527359D01*
X50019750Y-29510226D01*
X50028194Y-29503141D01*
X50033704Y-29493598D01*
X50033707Y-29493594D01*
X50047036Y-29470507D01*
X50052941Y-29461237D01*
X50068232Y-29439399D01*
X50074554Y-29430370D01*
X50077407Y-29419722D01*
X50078886Y-29416551D01*
X50080078Y-29413275D01*
X50085588Y-29403731D01*
X50092134Y-29366610D01*
X50094508Y-29355903D01*
X50104263Y-29319493D01*
X50100979Y-29281955D01*
X50100500Y-29270974D01*
X50100500Y-28753556D01*
X50120502Y-28685435D01*
X50169297Y-28641289D01*
X50244388Y-28603028D01*
X50244387Y-28603028D01*
X50253220Y-28598528D01*
X50348528Y-28503220D01*
X50353162Y-28494125D01*
X50370941Y-28459234D01*
X50419689Y-28407619D01*
X50488604Y-28390554D01*
X50555806Y-28413455D01*
X50568617Y-28424240D01*
X50571718Y-28428282D01*
X50697159Y-28524536D01*
X50843238Y-28585044D01*
X50851426Y-28586122D01*
X50900115Y-28592532D01*
X51000000Y-28605682D01*
X51008188Y-28604604D01*
X51148574Y-28586122D01*
X51156762Y-28585044D01*
X51302841Y-28524536D01*
X51428282Y-28428282D01*
X51524536Y-28302841D01*
X51585044Y-28156762D01*
X51605682Y-28000000D01*
X51585044Y-27843238D01*
X51524536Y-27697159D01*
X51428282Y-27571718D01*
X51302841Y-27475464D01*
X51156762Y-27414956D01*
X51107595Y-27408483D01*
X51008188Y-27395396D01*
X51000000Y-27394318D01*
X50991812Y-27395396D01*
X50892406Y-27408483D01*
X50843238Y-27414956D01*
X50697159Y-27475464D01*
X50571718Y-27571718D01*
X50570057Y-27573883D01*
X50509990Y-27606683D01*
X50439175Y-27601618D01*
X50382339Y-27559071D01*
X50370941Y-27540766D01*
X50353030Y-27505615D01*
X50353028Y-27505612D01*
X50348528Y-27496780D01*
X50253220Y-27401472D01*
X50133126Y-27340281D01*
X50123337Y-27338731D01*
X50123335Y-27338730D01*
X50093851Y-27334060D01*
X50033488Y-27324500D01*
X49516512Y-27324500D01*
X49456149Y-27334060D01*
X49426665Y-27338730D01*
X49426663Y-27338731D01*
X49416874Y-27340281D01*
X49296780Y-27401472D01*
X49201472Y-27496780D01*
X49140281Y-27616874D01*
X49124500Y-27716512D01*
X49124500Y-28283488D01*
X49140281Y-28383126D01*
X49201472Y-28503220D01*
X49296780Y-28598528D01*
X49305613Y-28603028D01*
X49305612Y-28603028D01*
X49380703Y-28641289D01*
X49432318Y-28690037D01*
X49449500Y-28753556D01*
X49449500Y-29103669D01*
X49429498Y-29171790D01*
X49412600Y-29192759D01*
X48485630Y-30119730D01*
X48423319Y-30153754D01*
X48352504Y-30148690D01*
X48307441Y-30119729D01*
X48215017Y-30027305D01*
X48215012Y-30027301D01*
X48210637Y-30022926D01*
X48205488Y-30019485D01*
X48155916Y-29986362D01*
X48145600Y-29979469D01*
X48133431Y-29977048D01*
X48133430Y-29977048D01*
X48055153Y-29961478D01*
X48042982Y-29959057D01*
X47940365Y-29979469D01*
X47930047Y-29986363D01*
X47930045Y-29986364D01*
X47880476Y-30019485D01*
X47875328Y-30022925D01*
X47870953Y-30027300D01*
X47870947Y-30027305D01*
X47389615Y-30508637D01*
X47327303Y-30542663D01*
X47256488Y-30537598D01*
X47211425Y-30508637D01*
X47127811Y-30425023D01*
X47121734Y-30420963D01*
X47121357Y-30420511D01*
X47117879Y-30417657D01*
X47118420Y-30416997D01*
X47076208Y-30366490D01*
X47068158Y-30340781D01*
X47055706Y-30278183D01*
X47053285Y-30266012D01*
X47046391Y-30255694D01*
X47046390Y-30255692D01*
X47013269Y-30206123D01*
X47013268Y-30206121D01*
X47009829Y-30200975D01*
X46478225Y-29669372D01*
X46473076Y-29665931D01*
X46448287Y-29649368D01*
X46413188Y-29625915D01*
X46310571Y-29605503D01*
X46298400Y-29607924D01*
X46220123Y-29623494D01*
X46220122Y-29623494D01*
X46207953Y-29625915D01*
X46142916Y-29669371D01*
X46017900Y-29794388D01*
X45974443Y-29859425D01*
X45972022Y-29871596D01*
X45970951Y-29876980D01*
X45938044Y-29939889D01*
X45871952Y-29975978D01*
X45854400Y-29979469D01*
X45844081Y-29986364D01*
X45811419Y-30008188D01*
X45789363Y-30022925D01*
X45737014Y-30075275D01*
X45692560Y-30119729D01*
X45630248Y-30153754D01*
X45559432Y-30148690D01*
X45514369Y-30119729D01*
X43178425Y-27783785D01*
X43170998Y-27775681D01*
X43153855Y-27755251D01*
X43153856Y-27755251D01*
X43146769Y-27746806D01*
X43137220Y-27741293D01*
X43114129Y-27727961D01*
X43104858Y-27722055D01*
X43096942Y-27716512D01*
X43073998Y-27700446D01*
X43063348Y-27697592D01*
X43060180Y-27696115D01*
X43056904Y-27694923D01*
X43047359Y-27689412D01*
X43013615Y-27683462D01*
X43010256Y-27682870D01*
X42999529Y-27680492D01*
X42963121Y-27670736D01*
X42952136Y-27671697D01*
X42952134Y-27671697D01*
X42925586Y-27674020D01*
X42914604Y-27674500D01*
X41569286Y-27674500D01*
X41501165Y-27654498D01*
X41469323Y-27625204D01*
X41433305Y-27578264D01*
X41428282Y-27571718D01*
X41302841Y-27475464D01*
X41156762Y-27414956D01*
X41107595Y-27408483D01*
X41008188Y-27395396D01*
X41000000Y-27394318D01*
X40991812Y-27395396D01*
X40892406Y-27408483D01*
X40843238Y-27414956D01*
X40697159Y-27475464D01*
X40571718Y-27571718D01*
X40475464Y-27697159D01*
X40414956Y-27843238D01*
X40394318Y-28000000D01*
X40414956Y-28156762D01*
X40475464Y-28302841D01*
X40571718Y-28428282D01*
X40697159Y-28524536D01*
X40843238Y-28585044D01*
X40851426Y-28586122D01*
X40859402Y-28588259D01*
X40858952Y-28589938D01*
X40914789Y-28614638D01*
X40953881Y-28673902D01*
X40954726Y-28744894D01*
X40949825Y-28759056D01*
X40914956Y-28843238D01*
X40894318Y-29000000D01*
X40914956Y-29156762D01*
X40975464Y-29302841D01*
X41020248Y-29361205D01*
X41062717Y-29416551D01*
X41071718Y-29428282D01*
X41197159Y-29524536D01*
X41343238Y-29585044D01*
X41351426Y-29586122D01*
X41359402Y-29588259D01*
X41358952Y-29589938D01*
X41414789Y-29614638D01*
X41453881Y-29673902D01*
X41454726Y-29744894D01*
X41449825Y-29759056D01*
X41437003Y-29790013D01*
X41414956Y-29843238D01*
X41394318Y-30000000D01*
X41414956Y-30156762D01*
X41418116Y-30164391D01*
X41443338Y-30225282D01*
X41450927Y-30295872D01*
X41419148Y-30359359D01*
X41358090Y-30395586D01*
X41326929Y-30399500D01*
X41253556Y-30399500D01*
X41185435Y-30379498D01*
X41141289Y-30330703D01*
X41114529Y-30278183D01*
X41098528Y-30246780D01*
X41003220Y-30151472D01*
X40883126Y-30090281D01*
X40873337Y-30088731D01*
X40873335Y-30088730D01*
X40843851Y-30084060D01*
X40783488Y-30074500D01*
X40216512Y-30074500D01*
X40156149Y-30084060D01*
X40126665Y-30088730D01*
X40126663Y-30088731D01*
X40116874Y-30090281D01*
X39996780Y-30151472D01*
X39901472Y-30246780D01*
X39840281Y-30366874D01*
X39838731Y-30376663D01*
X39838730Y-30376665D01*
X39838199Y-30380019D01*
X39824500Y-30466512D01*
X39824500Y-30983488D01*
X39828412Y-31008188D01*
X39838282Y-31070502D01*
X39840281Y-31083126D01*
X39901472Y-31203220D01*
X39996780Y-31298528D01*
X40116874Y-31359719D01*
X40126663Y-31361269D01*
X40126665Y-31361270D01*
X40216512Y-31375500D01*
X40216156Y-31377750D01*
X40273676Y-31399674D01*
X40315816Y-31456812D01*
X40320375Y-31527662D01*
X40285906Y-31589729D01*
X40223352Y-31623309D01*
X40216480Y-31624297D01*
X40216512Y-31624500D01*
X40126665Y-31638730D01*
X40126663Y-31638731D01*
X40116874Y-31640281D01*
X39996780Y-31701472D01*
X39901472Y-31796780D01*
X39840281Y-31916874D01*
X39838731Y-31926663D01*
X39838730Y-31926665D01*
X39834060Y-31956149D01*
X39824500Y-32016512D01*
X39824500Y-32533488D01*
X39840281Y-32633126D01*
X39901472Y-32753220D01*
X39996780Y-32848528D01*
X40005613Y-32853028D01*
X40005612Y-32853028D01*
X40105703Y-32904027D01*
X40157318Y-32952775D01*
X40174500Y-33016294D01*
X40174500Y-33481286D01*
X40154498Y-33549407D01*
X40105703Y-33593553D01*
X39994249Y-33650342D01*
X39900342Y-33744249D01*
X39840049Y-33862580D01*
X39824500Y-33960754D01*
X39824500Y-34464246D01*
X39840049Y-34562420D01*
X39844550Y-34571253D01*
X39844550Y-34571254D01*
X39855176Y-34592109D01*
X39900342Y-34680751D01*
X39994249Y-34774658D01*
X40051610Y-34803885D01*
X40101419Y-34829264D01*
X40112580Y-34834951D01*
X40210754Y-34850500D01*
X40789246Y-34850500D01*
X40887420Y-34834951D01*
X40898582Y-34829264D01*
X40948390Y-34803885D01*
X41005751Y-34774658D01*
X41099658Y-34680751D01*
X41104159Y-34671918D01*
X41104162Y-34671914D01*
X41137341Y-34606797D01*
X41186089Y-34555182D01*
X41249607Y-34538000D01*
X42352817Y-34538000D01*
X42420938Y-34558002D01*
X42467431Y-34611658D01*
X42477535Y-34681932D01*
X42469226Y-34712218D01*
X42418389Y-34834951D01*
X42414956Y-34843238D01*
X42394318Y-35000000D01*
X42414956Y-35156762D01*
X42475464Y-35302841D01*
X42571718Y-35428282D01*
X42578264Y-35433305D01*
X42578267Y-35433308D01*
X42628524Y-35471871D01*
X42670392Y-35529209D01*
X42673528Y-35539225D01*
X42680491Y-35565213D01*
X42682870Y-35575942D01*
X42683462Y-35579301D01*
X42689412Y-35613045D01*
X42694923Y-35622590D01*
X42696115Y-35625866D01*
X42697592Y-35629034D01*
X42700446Y-35639684D01*
X42717187Y-35663592D01*
X42722055Y-35670544D01*
X42727961Y-35679815D01*
X42734193Y-35690608D01*
X42746806Y-35712455D01*
X42755251Y-35719541D01*
X42775681Y-35736684D01*
X42783785Y-35744111D01*
X42862595Y-35822921D01*
X42896621Y-35885233D01*
X42899500Y-35912016D01*
X42899500Y-38746444D01*
X42879498Y-38814565D01*
X42830703Y-38858711D01*
X42746780Y-38901472D01*
X42651472Y-38996780D01*
X42590281Y-39116874D01*
X42574500Y-39216512D01*
X42574500Y-39783488D01*
X42590281Y-39883126D01*
X42651472Y-40003220D01*
X42746780Y-40098528D01*
X42866874Y-40159719D01*
X42876663Y-40161269D01*
X42876665Y-40161270D01*
X42906149Y-40165940D01*
X42966512Y-40175500D01*
X43483488Y-40175500D01*
X43543851Y-40165940D01*
X43573335Y-40161270D01*
X43573337Y-40161269D01*
X43583126Y-40159719D01*
X43703220Y-40098528D01*
X43798528Y-40003220D01*
X43859719Y-39883126D01*
X43862563Y-39865174D01*
X43875500Y-39783488D01*
X43877750Y-39783844D01*
X43899674Y-39726324D01*
X43956812Y-39684184D01*
X44027662Y-39679625D01*
X44089729Y-39714094D01*
X44123309Y-39776648D01*
X44124297Y-39783520D01*
X44124500Y-39783488D01*
X44137438Y-39865174D01*
X44140281Y-39883126D01*
X44201472Y-40003220D01*
X44296780Y-40098528D01*
X44416874Y-40159719D01*
X44426663Y-40161269D01*
X44426665Y-40161270D01*
X44456149Y-40165940D01*
X44516512Y-40175500D01*
X45033488Y-40175500D01*
X45093851Y-40165940D01*
X45123335Y-40161270D01*
X45123337Y-40161269D01*
X45133126Y-40159719D01*
X45253220Y-40098528D01*
X45348528Y-40003220D01*
X45404027Y-39894297D01*
X45452775Y-39842682D01*
X45516294Y-39825500D01*
X45981286Y-39825500D01*
X46049407Y-39845502D01*
X46093553Y-39894297D01*
X46150342Y-40005751D01*
X46244249Y-40099658D01*
X46362580Y-40159951D01*
X46460754Y-40175500D01*
X46964246Y-40175500D01*
X47062420Y-40159951D01*
X47180751Y-40099658D01*
X47274658Y-40005751D01*
X47334951Y-39887420D01*
X47350500Y-39789246D01*
X47350500Y-39210754D01*
X47334951Y-39112580D01*
X47274658Y-38994249D01*
X47180751Y-38900342D01*
X47062420Y-38840049D01*
X46964246Y-38824500D01*
X46460754Y-38824500D01*
X46362580Y-38840049D01*
X46244249Y-38900342D01*
X46150342Y-38994249D01*
X46095561Y-39101763D01*
X46093553Y-39105703D01*
X46044804Y-39157318D01*
X45981286Y-39174500D01*
X45516294Y-39174500D01*
X45448173Y-39154498D01*
X45404027Y-39105703D01*
X45353028Y-39005612D01*
X45348528Y-38996780D01*
X45253220Y-38901472D01*
X45169297Y-38858711D01*
X45117682Y-38809963D01*
X45100500Y-38746444D01*
X45100500Y-38229608D01*
X45120502Y-38161487D01*
X45174158Y-38114994D01*
X45244432Y-38104890D01*
X45283702Y-38117341D01*
X45366874Y-38159719D01*
X45376663Y-38161269D01*
X45376665Y-38161270D01*
X45406149Y-38165940D01*
X45466512Y-38175500D01*
X45983488Y-38175500D01*
X46043851Y-38165940D01*
X46073335Y-38161270D01*
X46073337Y-38161269D01*
X46083126Y-38159719D01*
X46203220Y-38098528D01*
X46298528Y-38003220D01*
X46359719Y-37883126D01*
X46375500Y-37783488D01*
X46377750Y-37783844D01*
X46399674Y-37726324D01*
X46456812Y-37684184D01*
X46527662Y-37679625D01*
X46589729Y-37714094D01*
X46623309Y-37776648D01*
X46624297Y-37783520D01*
X46624500Y-37783488D01*
X46640281Y-37883126D01*
X46701472Y-38003220D01*
X46796780Y-38098528D01*
X46916874Y-38159719D01*
X46926663Y-38161269D01*
X46926665Y-38161270D01*
X46956149Y-38165940D01*
X47016512Y-38175500D01*
X47533488Y-38175500D01*
X47593851Y-38165940D01*
X47623335Y-38161270D01*
X47623337Y-38161269D01*
X47633126Y-38159719D01*
X47753220Y-38098528D01*
X47848528Y-38003220D01*
X47904027Y-37894297D01*
X47952775Y-37842682D01*
X48016294Y-37825500D01*
X48481286Y-37825500D01*
X48549407Y-37845502D01*
X48593553Y-37894297D01*
X48650342Y-38005751D01*
X48744249Y-38099658D01*
X48862580Y-38159951D01*
X48960754Y-38175500D01*
X49464246Y-38175500D01*
X49562420Y-38159951D01*
X49680751Y-38099658D01*
X49774658Y-38005751D01*
X49834951Y-37887420D01*
X49850500Y-37789246D01*
X49850500Y-37210754D01*
X49834951Y-37112580D01*
X49774658Y-36994249D01*
X49680751Y-36900342D01*
X49671920Y-36895842D01*
X49671914Y-36895838D01*
X49606797Y-36862659D01*
X49555182Y-36813911D01*
X49538000Y-36750393D01*
X49538000Y-35712109D01*
X49538480Y-35701127D01*
X49540803Y-35674579D01*
X49540803Y-35674577D01*
X49541764Y-35663592D01*
X49532008Y-35627184D01*
X49529630Y-35616457D01*
X49527145Y-35602364D01*
X49523088Y-35579354D01*
X49517577Y-35569809D01*
X49516385Y-35566533D01*
X49514908Y-35563365D01*
X49512054Y-35552715D01*
X49490445Y-35521855D01*
X49484539Y-35512584D01*
X49471207Y-35489493D01*
X49465694Y-35479944D01*
X49436817Y-35455714D01*
X49428715Y-35448288D01*
X48592404Y-34611977D01*
X48558378Y-34549665D01*
X48563443Y-34478850D01*
X48592403Y-34433788D01*
X48626699Y-34399491D01*
X48660995Y-34365196D01*
X48723308Y-34331171D01*
X48794123Y-34336237D01*
X48839185Y-34365197D01*
X49190203Y-34716215D01*
X49197630Y-34724319D01*
X49221859Y-34753194D01*
X49231408Y-34758707D01*
X49254499Y-34772039D01*
X49263770Y-34777945D01*
X49294630Y-34799554D01*
X49305280Y-34802408D01*
X49308448Y-34803885D01*
X49311724Y-34805077D01*
X49321269Y-34810588D01*
X49355013Y-34816538D01*
X49358372Y-34817130D01*
X49369099Y-34819508D01*
X49405507Y-34829264D01*
X49416492Y-34828303D01*
X49416494Y-34828303D01*
X49443042Y-34825980D01*
X49454024Y-34825500D01*
X52312984Y-34825500D01*
X52381105Y-34845502D01*
X52402079Y-34862405D01*
X59963095Y-42423421D01*
X59997121Y-42485733D01*
X60000000Y-42512516D01*
X60000000Y-43874000D01*
X59979998Y-43942121D01*
X59926342Y-43988614D01*
X59874000Y-44000000D01*
X41000000Y-44000000D01*
X35036905Y-49963095D01*
X34974593Y-49997121D01*
X34947810Y-50000000D01*
X28626000Y-50000000D01*
X28557879Y-49979998D01*
X28511386Y-49926342D01*
X28500000Y-49874000D01*
X28500000Y-42216181D01*
X28520002Y-42148060D01*
X28573658Y-42101567D01*
X28609554Y-42091259D01*
X28648574Y-42086122D01*
X28656762Y-42085044D01*
X28802841Y-42024536D01*
X28928282Y-41928282D01*
X29024536Y-41802841D01*
X29085044Y-41656762D01*
X29105682Y-41500000D01*
X29085044Y-41343238D01*
X29024536Y-41197159D01*
X28928282Y-41071718D01*
X28802841Y-40975464D01*
X28656762Y-40914956D01*
X28609554Y-40908741D01*
X28544627Y-40880019D01*
X28505535Y-40820754D01*
X28500000Y-40783819D01*
X28500000Y-36738664D01*
X28520002Y-36670543D01*
X28573658Y-36624050D01*
X28609553Y-36613742D01*
X28630147Y-36611030D01*
X28644476Y-36609144D01*
X28790555Y-36548636D01*
X28915996Y-36452382D01*
X29012250Y-36326941D01*
X29072758Y-36180862D01*
X29091402Y-36039246D01*
X39824500Y-36039246D01*
X39840049Y-36137420D01*
X39900342Y-36255751D01*
X39994249Y-36349658D01*
X40094287Y-36400630D01*
X40105703Y-36406447D01*
X40157318Y-36455196D01*
X40174500Y-36518714D01*
X40174500Y-39980290D01*
X40174020Y-39991272D01*
X40170736Y-40028807D01*
X40173590Y-40039456D01*
X40180491Y-40065210D01*
X40182870Y-40075942D01*
X40189412Y-40113045D01*
X40194923Y-40122590D01*
X40196115Y-40125866D01*
X40197592Y-40129034D01*
X40200446Y-40139684D01*
X40215561Y-40161270D01*
X40222055Y-40170544D01*
X40227961Y-40179815D01*
X40241293Y-40202906D01*
X40246806Y-40212455D01*
X40275682Y-40236685D01*
X40283785Y-40244111D01*
X43255889Y-43216215D01*
X43263316Y-43224319D01*
X43287545Y-43253194D01*
X43297094Y-43258707D01*
X43320185Y-43272039D01*
X43329456Y-43277945D01*
X43360316Y-43299554D01*
X43370966Y-43302408D01*
X43374134Y-43303885D01*
X43377410Y-43305077D01*
X43386955Y-43310588D01*
X43420699Y-43316538D01*
X43424058Y-43317130D01*
X43434785Y-43319508D01*
X43471193Y-43329264D01*
X43482169Y-43328304D01*
X43482172Y-43328304D01*
X43508743Y-43325979D01*
X43519724Y-43325500D01*
X45930714Y-43325500D01*
X45998835Y-43345502D01*
X46030677Y-43374796D01*
X46071718Y-43428282D01*
X46197159Y-43524536D01*
X46343238Y-43585044D01*
X46500000Y-43605682D01*
X46508188Y-43604604D01*
X46648574Y-43586122D01*
X46656762Y-43585044D01*
X46802841Y-43524536D01*
X46928282Y-43428282D01*
X47024536Y-43302841D01*
X47085044Y-43156762D01*
X47105682Y-43000000D01*
X47096882Y-42933157D01*
X47107821Y-42863010D01*
X47132709Y-42827617D01*
X48503715Y-41456611D01*
X48511819Y-41449184D01*
X48532249Y-41432041D01*
X48540694Y-41424955D01*
X48546207Y-41415406D01*
X48559539Y-41392315D01*
X48565445Y-41383044D01*
X48580730Y-41361215D01*
X48587054Y-41352184D01*
X48589908Y-41341534D01*
X48591385Y-41338366D01*
X48592577Y-41335090D01*
X48598088Y-41325545D01*
X48604630Y-41288442D01*
X48607009Y-41277710D01*
X48616764Y-41241307D01*
X48613479Y-41203757D01*
X48613000Y-41192776D01*
X48613000Y-40249607D01*
X48633002Y-40181486D01*
X48681797Y-40137341D01*
X48746914Y-40104162D01*
X48746920Y-40104158D01*
X48755751Y-40099658D01*
X48849658Y-40005751D01*
X48906447Y-39894297D01*
X48955196Y-39842682D01*
X49018714Y-39825500D01*
X49980290Y-39825500D01*
X49991272Y-39825980D01*
X50017820Y-39828303D01*
X50017822Y-39828303D01*
X50028807Y-39829264D01*
X50065215Y-39819508D01*
X50075942Y-39817130D01*
X50079301Y-39816538D01*
X50113045Y-39810588D01*
X50122590Y-39805077D01*
X50125866Y-39803885D01*
X50129034Y-39802408D01*
X50139684Y-39799554D01*
X50170544Y-39777945D01*
X50179815Y-39772039D01*
X50202906Y-39758707D01*
X50212455Y-39753194D01*
X50236679Y-39724325D01*
X50244106Y-39716220D01*
X51003728Y-38956599D01*
X51011832Y-38949173D01*
X51032250Y-38932040D01*
X51040694Y-38924955D01*
X51046204Y-38915412D01*
X51046207Y-38915408D01*
X51059536Y-38892321D01*
X51065441Y-38883051D01*
X51080732Y-38861213D01*
X51087054Y-38852184D01*
X51089907Y-38841536D01*
X51091386Y-38838365D01*
X51092578Y-38835089D01*
X51098088Y-38825545D01*
X51104634Y-38788424D01*
X51107008Y-38777717D01*
X51116763Y-38741307D01*
X51113479Y-38703769D01*
X51113000Y-38692788D01*
X51113000Y-38249607D01*
X51133002Y-38181486D01*
X51181797Y-38137341D01*
X51246914Y-38104162D01*
X51246920Y-38104158D01*
X51255751Y-38099658D01*
X51349658Y-38005751D01*
X51409951Y-37887420D01*
X51425500Y-37789246D01*
X51425500Y-37210754D01*
X51409951Y-37112580D01*
X51349658Y-36994249D01*
X51255751Y-36900342D01*
X51137420Y-36840049D01*
X51039246Y-36824500D01*
X50535754Y-36824500D01*
X50437580Y-36840049D01*
X50319249Y-36900342D01*
X50225342Y-36994249D01*
X50165049Y-37112580D01*
X50149500Y-37210754D01*
X50149500Y-37789246D01*
X50165049Y-37887420D01*
X50225342Y-38005751D01*
X50319249Y-38099658D01*
X50328080Y-38104158D01*
X50328086Y-38104162D01*
X50393203Y-38137341D01*
X50444818Y-38186089D01*
X50462000Y-38249607D01*
X50462000Y-38525482D01*
X50441998Y-38593603D01*
X50425096Y-38614577D01*
X49902079Y-39137595D01*
X49839766Y-39171620D01*
X49812983Y-39174500D01*
X49018714Y-39174500D01*
X48950593Y-39154498D01*
X48906447Y-39105703D01*
X48904439Y-39101763D01*
X48849658Y-38994249D01*
X48755751Y-38900342D01*
X48637420Y-38840049D01*
X48539246Y-38824500D01*
X48035754Y-38824500D01*
X47937580Y-38840049D01*
X47819249Y-38900342D01*
X47725342Y-38994249D01*
X47665049Y-39112580D01*
X47649500Y-39210754D01*
X47649500Y-39789246D01*
X47665049Y-39887420D01*
X47725342Y-40005751D01*
X47819249Y-40099658D01*
X47828080Y-40104158D01*
X47828086Y-40104162D01*
X47893203Y-40137341D01*
X47944818Y-40186089D01*
X47962000Y-40249607D01*
X47962000Y-41025484D01*
X47941998Y-41093605D01*
X47925095Y-41114579D01*
X46672383Y-42367291D01*
X46610071Y-42401317D01*
X46566843Y-42403118D01*
X46500000Y-42394318D01*
X46343238Y-42414956D01*
X46197159Y-42475464D01*
X46071718Y-42571718D01*
X46066695Y-42578264D01*
X46030677Y-42625204D01*
X45973339Y-42667071D01*
X45930714Y-42674500D01*
X43687016Y-42674500D01*
X43618895Y-42654498D01*
X43597921Y-42637595D01*
X40862405Y-39902079D01*
X40828379Y-39839767D01*
X40825500Y-39812984D01*
X40825500Y-36518714D01*
X40845502Y-36450593D01*
X40894297Y-36406447D01*
X40905713Y-36400630D01*
X41005751Y-36349658D01*
X41099658Y-36255751D01*
X41159951Y-36137420D01*
X41175500Y-36039246D01*
X41175500Y-35535754D01*
X41159951Y-35437580D01*
X41155214Y-35428282D01*
X41127567Y-35374024D01*
X41099658Y-35319249D01*
X41005751Y-35225342D01*
X40887420Y-35165049D01*
X40789246Y-35149500D01*
X40210754Y-35149500D01*
X40112580Y-35165049D01*
X39994249Y-35225342D01*
X39900342Y-35319249D01*
X39872433Y-35374024D01*
X39844787Y-35428282D01*
X39840049Y-35437580D01*
X39824500Y-35535754D01*
X39824500Y-36039246D01*
X29091402Y-36039246D01*
X29093396Y-36024100D01*
X29072758Y-35867338D01*
X29012250Y-35721259D01*
X28915996Y-35595818D01*
X28790555Y-35499564D01*
X28644476Y-35439056D01*
X28630147Y-35437170D01*
X28609553Y-35434458D01*
X28544626Y-35405735D01*
X28505535Y-35346469D01*
X28500000Y-35309536D01*
X28500000Y-31716181D01*
X28520002Y-31648060D01*
X28573658Y-31601567D01*
X28609554Y-31591259D01*
X28648574Y-31586122D01*
X28656762Y-31585044D01*
X28802841Y-31524536D01*
X28928282Y-31428282D01*
X29024536Y-31302841D01*
X29085044Y-31156762D01*
X29105682Y-31000000D01*
X29085044Y-30843238D01*
X29024536Y-30697159D01*
X28943341Y-30591343D01*
X28933305Y-30578264D01*
X28928282Y-30571718D01*
X28802841Y-30475464D01*
X28656762Y-30414956D01*
X28609554Y-30408741D01*
X28544627Y-30380019D01*
X28505535Y-30320754D01*
X28500000Y-30283819D01*
X28500000Y-21326500D01*
X28520002Y-21258379D01*
X28573658Y-21211886D01*
X28626000Y-21200500D01*
X59874000Y-21200500D01*
X59942121Y-21220502D01*
G37*
%TD.AperFunction*%
%TD*%
%TA.AperFunction,Conductor*%
%TO.N,/M1_V*%
G36*
X27942121Y-92520002D02*
G01*
X27988614Y-92573658D01*
X28000000Y-92626000D01*
X28000000Y-95123055D01*
X27983120Y-95186054D01*
X27980491Y-95190607D01*
X27975464Y-95197159D01*
X27914956Y-95343238D01*
X27894318Y-95500000D01*
X27914956Y-95656762D01*
X27975464Y-95802841D01*
X27980491Y-95809393D01*
X27983120Y-95813946D01*
X28000000Y-95876945D01*
X28000000Y-96623055D01*
X27983120Y-96686054D01*
X27980491Y-96690607D01*
X27975464Y-96697159D01*
X27914956Y-96843238D01*
X27913878Y-96851426D01*
X27908741Y-96890446D01*
X27880019Y-96955373D01*
X27820754Y-96994465D01*
X27783819Y-97000000D01*
X24552190Y-97000000D01*
X24484069Y-96979998D01*
X24463095Y-96963095D01*
X23000000Y-95500000D01*
X21626000Y-95500000D01*
X21557879Y-95479998D01*
X21511386Y-95426342D01*
X21500000Y-95374000D01*
X21500000Y-94126000D01*
X21520002Y-94057879D01*
X21573658Y-94011386D01*
X21626000Y-94000000D01*
X23000000Y-94000000D01*
X24463095Y-92536905D01*
X24525407Y-92502879D01*
X24552190Y-92500000D01*
X27874000Y-92500000D01*
X27942121Y-92520002D01*
G37*
%TD.AperFunction*%
%TD*%
%TA.AperFunction,Conductor*%
%TO.N,Net-(C12-Pad1)*%
G36*
X34015931Y-79020002D02*
G01*
X34036905Y-79036905D01*
X40000000Y-85000000D01*
X59874000Y-85000000D01*
X59942121Y-85020002D01*
X59988614Y-85073658D01*
X60000000Y-85126000D01*
X60000000Y-87848500D01*
X59979998Y-87916621D01*
X59926342Y-87963114D01*
X59874000Y-87974500D01*
X59694710Y-87974500D01*
X59683728Y-87974020D01*
X59657180Y-87971697D01*
X59657178Y-87971697D01*
X59646193Y-87970736D01*
X59609785Y-87980492D01*
X59599058Y-87982870D01*
X59595699Y-87983462D01*
X59561955Y-87989412D01*
X59552410Y-87994923D01*
X59549134Y-87996115D01*
X59545966Y-87997592D01*
X59535316Y-88000446D01*
X59526285Y-88006770D01*
X59504456Y-88022055D01*
X59495185Y-88027961D01*
X59472094Y-88041293D01*
X59462545Y-88046806D01*
X59455459Y-88055251D01*
X59438315Y-88075682D01*
X59430889Y-88083785D01*
X57306140Y-90208534D01*
X57243828Y-90242560D01*
X57173013Y-90237495D01*
X57116177Y-90194948D01*
X57091366Y-90128428D01*
X57092123Y-90102993D01*
X57104604Y-90008188D01*
X57105682Y-90000000D01*
X57085044Y-89843238D01*
X57024536Y-89697159D01*
X56928282Y-89571718D01*
X56802841Y-89475464D01*
X56656762Y-89414956D01*
X56500000Y-89394318D01*
X56343238Y-89414956D01*
X56197159Y-89475464D01*
X56071718Y-89571718D01*
X56066690Y-89578271D01*
X56062452Y-89582509D01*
X56000140Y-89616536D01*
X55929324Y-89611473D01*
X55884259Y-89582511D01*
X55853220Y-89551472D01*
X55733126Y-89490281D01*
X55723337Y-89488731D01*
X55723335Y-89488730D01*
X55693851Y-89484060D01*
X55633488Y-89474500D01*
X55116512Y-89474500D01*
X55056149Y-89484060D01*
X55026665Y-89488730D01*
X55026663Y-89488731D01*
X55016874Y-89490281D01*
X54896780Y-89551472D01*
X54801472Y-89646780D01*
X54740281Y-89766874D01*
X54724500Y-89866512D01*
X54724500Y-90433488D01*
X54725665Y-90440842D01*
X54736131Y-90506921D01*
X54740281Y-90533126D01*
X54801472Y-90653220D01*
X54896780Y-90748528D01*
X54905613Y-90753028D01*
X54905612Y-90753028D01*
X54980703Y-90791289D01*
X55032318Y-90840037D01*
X55049500Y-90903556D01*
X55049500Y-91709431D01*
X55029498Y-91777552D01*
X55012595Y-91798526D01*
X53810631Y-93000490D01*
X53748319Y-93034516D01*
X53677504Y-93029451D01*
X53632441Y-93000490D01*
X53540017Y-92908066D01*
X53540012Y-92908062D01*
X53535637Y-92903687D01*
X53530488Y-92900246D01*
X53480916Y-92867123D01*
X53470600Y-92860230D01*
X53458431Y-92857809D01*
X53458430Y-92857809D01*
X53380153Y-92842239D01*
X53367982Y-92839818D01*
X53265365Y-92860230D01*
X53255047Y-92867124D01*
X53255045Y-92867125D01*
X53209188Y-92897766D01*
X53200328Y-92903686D01*
X53195953Y-92908061D01*
X53195947Y-92908066D01*
X52714615Y-93389398D01*
X52652303Y-93423424D01*
X52581488Y-93418359D01*
X52536425Y-93389398D01*
X52452811Y-93305784D01*
X52446734Y-93301724D01*
X52446357Y-93301272D01*
X52442879Y-93298418D01*
X52443420Y-93297758D01*
X52401208Y-93247251D01*
X52393158Y-93221542D01*
X52380706Y-93158944D01*
X52378285Y-93146773D01*
X52371391Y-93136455D01*
X52371390Y-93136453D01*
X52338269Y-93086884D01*
X52338268Y-93086882D01*
X52334829Y-93081736D01*
X51803225Y-92550133D01*
X51798076Y-92546692D01*
X51764917Y-92524536D01*
X51738188Y-92506676D01*
X51635571Y-92486264D01*
X51623400Y-92488685D01*
X51545123Y-92504255D01*
X51545122Y-92504255D01*
X51532953Y-92506676D01*
X51467916Y-92550132D01*
X51342900Y-92675149D01*
X51339465Y-92680290D01*
X51339464Y-92680291D01*
X51327237Y-92698590D01*
X51299443Y-92740186D01*
X51297022Y-92752357D01*
X51295951Y-92757741D01*
X51263044Y-92820650D01*
X51196952Y-92856739D01*
X51179400Y-92860230D01*
X51114363Y-92903686D01*
X51109987Y-92908062D01*
X51017560Y-93000490D01*
X50955248Y-93034515D01*
X50884432Y-93029451D01*
X50839369Y-93000490D01*
X49622664Y-91783785D01*
X49615237Y-91775681D01*
X49598094Y-91755251D01*
X49598095Y-91755251D01*
X49591008Y-91746806D01*
X49581459Y-91741293D01*
X49558368Y-91727961D01*
X49549097Y-91722055D01*
X49518237Y-91700446D01*
X49507587Y-91697592D01*
X49504419Y-91696115D01*
X49501143Y-91694923D01*
X49491598Y-91689412D01*
X49457854Y-91683462D01*
X49454495Y-91682870D01*
X49443768Y-91680492D01*
X49407360Y-91670736D01*
X49396375Y-91671697D01*
X49396373Y-91671697D01*
X49369825Y-91674020D01*
X49358843Y-91674500D01*
X47569286Y-91674500D01*
X47501165Y-91654498D01*
X47469323Y-91625204D01*
X47433305Y-91578264D01*
X47428282Y-91571718D01*
X47302841Y-91475464D01*
X47156762Y-91414956D01*
X47000000Y-91394318D01*
X46843238Y-91414956D01*
X46697159Y-91475464D01*
X46571718Y-91571718D01*
X46475464Y-91697159D01*
X46414956Y-91843238D01*
X46394318Y-92000000D01*
X46414956Y-92156762D01*
X46475464Y-92302841D01*
X46571718Y-92428282D01*
X46697159Y-92524536D01*
X46769518Y-92554508D01*
X46838426Y-92583051D01*
X46893707Y-92627600D01*
X46916128Y-92694963D01*
X46898570Y-92763754D01*
X46846608Y-92812132D01*
X46790208Y-92825460D01*
X45368750Y-92825460D01*
X45357768Y-92824980D01*
X45331220Y-92822657D01*
X45331218Y-92822657D01*
X45320233Y-92821696D01*
X45283825Y-92831452D01*
X45273098Y-92833830D01*
X45269739Y-92834422D01*
X45235995Y-92840372D01*
X45226450Y-92845883D01*
X45223174Y-92847075D01*
X45220006Y-92848552D01*
X45209356Y-92851406D01*
X45186908Y-92867125D01*
X45178496Y-92873015D01*
X45169225Y-92878921D01*
X45146134Y-92892253D01*
X45136585Y-92897766D01*
X45129499Y-92906211D01*
X45112355Y-92926642D01*
X45104929Y-92934745D01*
X44172383Y-93867291D01*
X44110071Y-93901317D01*
X44066843Y-93903118D01*
X44000000Y-93894318D01*
X43843238Y-93914956D01*
X43697159Y-93975464D01*
X43571718Y-94071718D01*
X43475464Y-94197159D01*
X43414956Y-94343238D01*
X43413878Y-94351426D01*
X43411741Y-94359402D01*
X43410062Y-94358952D01*
X43385362Y-94414789D01*
X43326098Y-94453881D01*
X43255106Y-94454726D01*
X43240944Y-94449825D01*
X43164392Y-94418116D01*
X43164389Y-94418115D01*
X43156762Y-94414956D01*
X43000000Y-94394318D01*
X42843238Y-94414956D01*
X42697159Y-94475464D01*
X42571718Y-94571718D01*
X42475464Y-94697159D01*
X42414956Y-94843238D01*
X42394318Y-95000000D01*
X42395396Y-95008188D01*
X42412666Y-95139364D01*
X42414956Y-95156762D01*
X42418116Y-95164391D01*
X42421110Y-95171620D01*
X42475464Y-95302841D01*
X42571718Y-95428282D01*
X42697159Y-95524536D01*
X42843238Y-95585044D01*
X43000000Y-95605682D01*
X43066843Y-95596882D01*
X43136990Y-95607821D01*
X43172383Y-95632709D01*
X43255889Y-95716215D01*
X43263316Y-95724319D01*
X43287545Y-95753194D01*
X43297094Y-95758707D01*
X43320185Y-95772039D01*
X43329456Y-95777945D01*
X43360316Y-95799554D01*
X43370966Y-95802408D01*
X43374134Y-95803885D01*
X43377410Y-95805077D01*
X43386955Y-95810588D01*
X43420699Y-95816538D01*
X43424058Y-95817130D01*
X43434785Y-95819508D01*
X43471193Y-95829264D01*
X43482169Y-95828304D01*
X43482172Y-95828304D01*
X43508743Y-95825979D01*
X43519724Y-95825500D01*
X46680290Y-95825500D01*
X46691272Y-95825980D01*
X46717820Y-95828303D01*
X46717822Y-95828303D01*
X46728807Y-95829264D01*
X46765215Y-95819508D01*
X46775942Y-95817130D01*
X46779301Y-95816538D01*
X46813045Y-95810588D01*
X46822590Y-95805077D01*
X46825866Y-95803885D01*
X46829034Y-95802408D01*
X46839684Y-95799554D01*
X46870544Y-95777945D01*
X46879815Y-95772039D01*
X46902910Y-95758705D01*
X46902911Y-95758704D01*
X46912455Y-95753194D01*
X46926980Y-95735884D01*
X46986089Y-95696559D01*
X47057076Y-95695433D01*
X47117404Y-95732865D01*
X47147917Y-95796970D01*
X47149500Y-95816877D01*
X47149500Y-96183488D01*
X47153813Y-96210717D01*
X47159529Y-96246806D01*
X47165281Y-96283126D01*
X47226472Y-96403220D01*
X47321780Y-96498528D01*
X47330613Y-96503029D01*
X47330615Y-96503030D01*
X47396349Y-96536523D01*
X47447965Y-96585271D01*
X47465031Y-96654186D01*
X47442131Y-96721387D01*
X47396350Y-96761057D01*
X47319249Y-96800342D01*
X47225342Y-96894249D01*
X47165049Y-97012580D01*
X47149500Y-97110754D01*
X47149500Y-97614246D01*
X47165049Y-97712420D01*
X47169550Y-97721253D01*
X47169550Y-97721254D01*
X47172416Y-97726879D01*
X47225342Y-97830751D01*
X47319249Y-97924658D01*
X47437580Y-97984951D01*
X47535754Y-98000500D01*
X48114246Y-98000500D01*
X48212420Y-97984951D01*
X48330751Y-97924658D01*
X48424658Y-97830751D01*
X48429159Y-97821918D01*
X48429162Y-97821914D01*
X48462341Y-97756797D01*
X48511089Y-97705182D01*
X48574607Y-97688000D01*
X49182130Y-97688000D01*
X49193112Y-97688480D01*
X49219660Y-97690803D01*
X49219662Y-97690803D01*
X49230647Y-97691764D01*
X49267055Y-97682008D01*
X49277782Y-97679630D01*
X49281141Y-97679038D01*
X49314885Y-97673088D01*
X49324430Y-97667577D01*
X49327706Y-97666385D01*
X49330874Y-97664908D01*
X49341524Y-97662054D01*
X49350556Y-97655730D01*
X49358730Y-97651918D01*
X49428922Y-97641257D01*
X49493734Y-97670237D01*
X49532591Y-97729657D01*
X49537980Y-97766113D01*
X49537980Y-99649504D01*
X49517978Y-99717625D01*
X49501075Y-99738599D01*
X49301938Y-99937736D01*
X49239626Y-99971762D01*
X49168811Y-99966697D01*
X49111975Y-99924150D01*
X49087921Y-99865090D01*
X49086122Y-99851425D01*
X49086122Y-99851424D01*
X49085044Y-99843238D01*
X49024536Y-99697159D01*
X48938181Y-99584619D01*
X48933305Y-99578264D01*
X48928282Y-99571718D01*
X48802841Y-99475464D01*
X48656762Y-99414956D01*
X48627306Y-99411078D01*
X48596909Y-99407076D01*
X48531982Y-99378353D01*
X48492891Y-99319088D01*
X48488907Y-99262444D01*
X48499725Y-99194138D01*
X48500500Y-99189246D01*
X48500500Y-98685754D01*
X48484951Y-98587580D01*
X48424658Y-98469249D01*
X48330751Y-98375342D01*
X48242109Y-98330176D01*
X48221254Y-98319550D01*
X48221253Y-98319550D01*
X48212420Y-98315049D01*
X48114246Y-98299500D01*
X47535754Y-98299500D01*
X47437580Y-98315049D01*
X47428747Y-98319550D01*
X47428746Y-98319550D01*
X47407891Y-98330176D01*
X47319249Y-98375342D01*
X47225342Y-98469249D01*
X47165049Y-98587580D01*
X47149500Y-98685754D01*
X47149500Y-99100484D01*
X47129498Y-99168605D01*
X47112595Y-99189579D01*
X47059265Y-99242909D01*
X47051161Y-99250336D01*
X47022286Y-99274565D01*
X47016773Y-99284114D01*
X47003441Y-99307205D01*
X46997535Y-99316476D01*
X46975926Y-99347336D01*
X46973072Y-99357986D01*
X46971595Y-99361154D01*
X46970403Y-99364430D01*
X46964892Y-99373975D01*
X46961107Y-99395444D01*
X46958350Y-99411078D01*
X46955972Y-99421805D01*
X46946216Y-99458213D01*
X46947177Y-99469198D01*
X46947177Y-99469200D01*
X46949500Y-99495748D01*
X46949980Y-99506730D01*
X46949980Y-102580770D01*
X46949500Y-102591752D01*
X46946216Y-102629287D01*
X46955623Y-102664391D01*
X46955971Y-102665690D01*
X46958350Y-102676422D01*
X46964892Y-102713525D01*
X46970403Y-102723070D01*
X46971595Y-102726346D01*
X46973072Y-102729514D01*
X46975926Y-102740164D01*
X46982250Y-102749195D01*
X46997535Y-102771024D01*
X47003441Y-102780295D01*
X47012053Y-102795211D01*
X47022286Y-102812935D01*
X47030731Y-102820021D01*
X47051162Y-102837165D01*
X47059265Y-102844591D01*
X47080889Y-102866215D01*
X47088315Y-102874318D01*
X47112545Y-102903194D01*
X47122094Y-102908707D01*
X47145185Y-102922039D01*
X47154456Y-102927945D01*
X47185316Y-102949554D01*
X47195966Y-102952408D01*
X47199134Y-102953885D01*
X47202410Y-102955077D01*
X47211955Y-102960588D01*
X47245699Y-102966538D01*
X47249058Y-102967130D01*
X47259785Y-102969508D01*
X47296193Y-102979264D01*
X47307169Y-102978304D01*
X47307172Y-102978304D01*
X47333743Y-102975979D01*
X47344724Y-102975500D01*
X51592790Y-102975500D01*
X51603772Y-102975980D01*
X51630320Y-102978303D01*
X51630322Y-102978303D01*
X51641307Y-102979264D01*
X51677715Y-102969508D01*
X51688442Y-102967130D01*
X51691801Y-102966538D01*
X51725545Y-102960588D01*
X51735090Y-102955077D01*
X51738366Y-102953885D01*
X51741534Y-102952408D01*
X51752184Y-102949554D01*
X51783044Y-102927945D01*
X51792315Y-102922039D01*
X51815406Y-102908707D01*
X51824955Y-102903194D01*
X51849185Y-102874317D01*
X51856611Y-102866215D01*
X52360421Y-102362405D01*
X52422733Y-102328379D01*
X52449516Y-102325500D01*
X52864246Y-102325500D01*
X52962420Y-102309951D01*
X53080751Y-102249658D01*
X53174658Y-102155751D01*
X53231447Y-102044297D01*
X53280196Y-101992682D01*
X53343714Y-101975500D01*
X57092790Y-101975500D01*
X57103772Y-101975980D01*
X57130320Y-101978303D01*
X57130322Y-101978303D01*
X57141307Y-101979264D01*
X57177715Y-101969508D01*
X57188442Y-101967130D01*
X57191801Y-101966538D01*
X57225545Y-101960588D01*
X57235090Y-101955077D01*
X57238366Y-101953885D01*
X57241534Y-101952408D01*
X57252184Y-101949554D01*
X57283044Y-101927945D01*
X57292315Y-101922039D01*
X57315406Y-101908707D01*
X57324955Y-101903194D01*
X57349185Y-101874317D01*
X57356611Y-101866215D01*
X58360422Y-100862405D01*
X58422734Y-100828379D01*
X58449517Y-100825500D01*
X58864246Y-100825500D01*
X58962420Y-100809951D01*
X58981399Y-100800281D01*
X59001633Y-100789971D01*
X59080751Y-100749658D01*
X59174658Y-100655751D01*
X59234951Y-100537420D01*
X59250500Y-100439246D01*
X59250500Y-99860754D01*
X59234951Y-99762580D01*
X59228398Y-99749718D01*
X59180449Y-99655615D01*
X59174658Y-99644249D01*
X59080751Y-99550342D01*
X59071920Y-99545842D01*
X59071914Y-99545838D01*
X59006797Y-99512659D01*
X58955182Y-99463911D01*
X58938000Y-99400393D01*
X58938000Y-99132210D01*
X58938480Y-99121228D01*
X58940803Y-99094680D01*
X58940803Y-99094678D01*
X58941764Y-99083693D01*
X58932008Y-99047285D01*
X58929630Y-99036558D01*
X58927510Y-99024536D01*
X58923088Y-98999455D01*
X58917577Y-98989910D01*
X58916385Y-98986634D01*
X58914908Y-98983466D01*
X58912054Y-98972816D01*
X58890445Y-98941956D01*
X58884539Y-98932685D01*
X58871207Y-98909594D01*
X58865694Y-98900045D01*
X58836817Y-98875815D01*
X58828715Y-98868389D01*
X58632709Y-98672383D01*
X58598683Y-98610071D01*
X58596882Y-98566842D01*
X58596902Y-98566695D01*
X58605682Y-98500000D01*
X58585044Y-98343238D01*
X58524536Y-98197159D01*
X58428282Y-98071718D01*
X58401885Y-98051463D01*
X58360018Y-97994125D01*
X58355796Y-97923254D01*
X58390560Y-97861351D01*
X58453272Y-97828070D01*
X58478589Y-97825500D01*
X59137984Y-97825500D01*
X59206105Y-97845502D01*
X59227079Y-97862405D01*
X59963095Y-98598421D01*
X59997121Y-98660733D01*
X60000000Y-98687516D01*
X60000000Y-108673500D01*
X59979998Y-108741621D01*
X59926342Y-108788114D01*
X59874000Y-108799500D01*
X28626000Y-108799500D01*
X28557879Y-108779498D01*
X28511386Y-108725842D01*
X28500000Y-108673500D01*
X28500000Y-103216181D01*
X28520002Y-103148060D01*
X28573658Y-103101567D01*
X28609554Y-103091259D01*
X28648574Y-103086122D01*
X28656762Y-103085044D01*
X28802841Y-103024536D01*
X28928282Y-102928282D01*
X29024536Y-102802841D01*
X29085044Y-102656762D01*
X29105682Y-102500000D01*
X29085044Y-102343238D01*
X29024536Y-102197159D01*
X28928282Y-102071718D01*
X28802841Y-101975464D01*
X28656762Y-101914956D01*
X28609554Y-101908741D01*
X28544627Y-101880019D01*
X28505535Y-101820754D01*
X28500000Y-101783819D01*
X28500000Y-97716181D01*
X28520002Y-97648060D01*
X28573658Y-97601567D01*
X28609554Y-97591259D01*
X28648574Y-97586122D01*
X28656762Y-97585044D01*
X28802841Y-97524536D01*
X28928282Y-97428282D01*
X29024536Y-97302841D01*
X29085044Y-97156762D01*
X29105682Y-97000000D01*
X29085044Y-96843238D01*
X29024536Y-96697159D01*
X28928282Y-96571718D01*
X28802841Y-96475464D01*
X28656762Y-96414956D01*
X28609554Y-96408741D01*
X28544627Y-96380019D01*
X28505535Y-96320754D01*
X28500000Y-96283819D01*
X28500000Y-92216181D01*
X28520002Y-92148060D01*
X28573658Y-92101567D01*
X28609554Y-92091259D01*
X28648574Y-92086122D01*
X28656762Y-92085044D01*
X28802841Y-92024536D01*
X28928282Y-91928282D01*
X29024536Y-91802841D01*
X29085044Y-91656762D01*
X29088159Y-91633105D01*
X29104604Y-91508188D01*
X29105682Y-91500000D01*
X29085044Y-91343238D01*
X29024536Y-91197159D01*
X28928282Y-91071718D01*
X28802841Y-90975464D01*
X28656762Y-90914956D01*
X28609554Y-90908741D01*
X28544627Y-90880019D01*
X28505535Y-90820754D01*
X28500000Y-90783819D01*
X28500000Y-79126000D01*
X28520002Y-79057879D01*
X28573658Y-79011386D01*
X28626000Y-79000000D01*
X33947810Y-79000000D01*
X34015931Y-79020002D01*
G37*
%TD.AperFunction*%
%TD*%
%TA.AperFunction,Conductor*%
%TO.N,/M0_V*%
G36*
X27942121Y-32020002D02*
G01*
X27988614Y-32073658D01*
X28000000Y-32126000D01*
X28000000Y-35630501D01*
X27979998Y-35698622D01*
X27973974Y-35707189D01*
X27963178Y-35721259D01*
X27902670Y-35867338D01*
X27882032Y-36024100D01*
X27902670Y-36180862D01*
X27963178Y-36326941D01*
X27973964Y-36340998D01*
X27999563Y-36407215D01*
X28000000Y-36417699D01*
X28000000Y-36874000D01*
X27979998Y-36942121D01*
X27926342Y-36988614D01*
X27874000Y-37000000D01*
X24552190Y-37000000D01*
X24484069Y-36979998D01*
X24463095Y-36963095D01*
X23000000Y-35500000D01*
X21626000Y-35500000D01*
X21557879Y-35479998D01*
X21511386Y-35426342D01*
X21500000Y-35374000D01*
X21500000Y-34126000D01*
X21520002Y-34057879D01*
X21573658Y-34011386D01*
X21626000Y-34000000D01*
X23000000Y-34000000D01*
X24963095Y-32036905D01*
X25025407Y-32002879D01*
X25052190Y-32000000D01*
X27874000Y-32000000D01*
X27942121Y-32020002D01*
G37*
%TD.AperFunction*%
%TD*%
%TA.AperFunction,Conductor*%
%TO.N,/M0_U*%
G36*
X27942121Y-27020002D02*
G01*
X27988614Y-27073658D01*
X28000000Y-27126000D01*
X28000000Y-30623055D01*
X27983120Y-30686054D01*
X27980491Y-30690607D01*
X27975464Y-30697159D01*
X27914956Y-30843238D01*
X27894318Y-31000000D01*
X27914956Y-31156762D01*
X27975464Y-31302841D01*
X27980490Y-31309391D01*
X27981419Y-31311000D01*
X27998157Y-31379995D01*
X27974937Y-31447087D01*
X27919129Y-31490974D01*
X27872300Y-31500000D01*
X25000000Y-31500000D01*
X23036905Y-33463095D01*
X22974593Y-33497121D01*
X22947810Y-33500000D01*
X21626000Y-33500000D01*
X21557879Y-33479998D01*
X21511386Y-33426342D01*
X21500000Y-33374000D01*
X21500000Y-31876945D01*
X21516880Y-31813946D01*
X21519509Y-31809393D01*
X21524536Y-31802841D01*
X21585044Y-31656762D01*
X21605682Y-31500000D01*
X21585044Y-31343238D01*
X21524536Y-31197159D01*
X21519509Y-31190607D01*
X21516880Y-31186054D01*
X21500000Y-31123055D01*
X21500000Y-27126000D01*
X21520002Y-27057879D01*
X21573658Y-27011386D01*
X21626000Y-27000000D01*
X27874000Y-27000000D01*
X27942121Y-27020002D01*
G37*
%TD.AperFunction*%
%TD*%
%TA.AperFunction,Conductor*%
%TO.N,/M1_W*%
G36*
X23015931Y-96020002D02*
G01*
X23036905Y-96036905D01*
X24500000Y-97500000D01*
X27874000Y-97500000D01*
X27942121Y-97520002D01*
X27988614Y-97573658D01*
X28000000Y-97626000D01*
X28000000Y-100623055D01*
X27983120Y-100686054D01*
X27980491Y-100690607D01*
X27975464Y-100697159D01*
X27914956Y-100843238D01*
X27894318Y-101000000D01*
X27914956Y-101156762D01*
X27975464Y-101302841D01*
X27980491Y-101309393D01*
X27983120Y-101313946D01*
X28000000Y-101376945D01*
X28000000Y-102123055D01*
X27983120Y-102186054D01*
X27980491Y-102190607D01*
X27975464Y-102197159D01*
X27914956Y-102343238D01*
X27913878Y-102351426D01*
X27908741Y-102390446D01*
X27880019Y-102455373D01*
X27820754Y-102494465D01*
X27783819Y-102500000D01*
X21716181Y-102500000D01*
X21648060Y-102479998D01*
X21601567Y-102426342D01*
X21591259Y-102390446D01*
X21586122Y-102351426D01*
X21585044Y-102343238D01*
X21524536Y-102197159D01*
X21519509Y-102190607D01*
X21516880Y-102186054D01*
X21500000Y-102123055D01*
X21500000Y-97376945D01*
X21516880Y-97313946D01*
X21519509Y-97309393D01*
X21524536Y-97302841D01*
X21585044Y-97156762D01*
X21605682Y-97000000D01*
X21585044Y-96843238D01*
X21524536Y-96697159D01*
X21519509Y-96690607D01*
X21516880Y-96686054D01*
X21500000Y-96623055D01*
X21500000Y-96126000D01*
X21520002Y-96057879D01*
X21573658Y-96011386D01*
X21626000Y-96000000D01*
X22947810Y-96000000D01*
X23015931Y-96020002D01*
G37*
%TD.AperFunction*%
%TD*%
%TA.AperFunction,Conductor*%
%TO.N,/M1_U*%
G36*
X27942121Y-87020002D02*
G01*
X27988614Y-87073658D01*
X28000000Y-87126000D01*
X28000000Y-89623055D01*
X27983120Y-89686054D01*
X27980491Y-89690607D01*
X27975464Y-89697159D01*
X27914956Y-89843238D01*
X27894318Y-90000000D01*
X27914956Y-90156762D01*
X27975464Y-90302841D01*
X27980491Y-90309393D01*
X27983120Y-90313946D01*
X28000000Y-90376945D01*
X28000000Y-91123055D01*
X27983120Y-91186054D01*
X27980491Y-91190607D01*
X27975464Y-91197159D01*
X27914956Y-91343238D01*
X27894318Y-91500000D01*
X27914956Y-91656762D01*
X27918116Y-91664391D01*
X27972304Y-91795211D01*
X27975464Y-91802841D01*
X27980490Y-91809391D01*
X27981419Y-91811000D01*
X27998157Y-91879995D01*
X27974937Y-91947087D01*
X27919129Y-91990974D01*
X27872300Y-92000000D01*
X24500000Y-92000000D01*
X23036905Y-93463095D01*
X22974593Y-93497121D01*
X22947810Y-93500000D01*
X21626000Y-93500000D01*
X21557879Y-93479998D01*
X21511386Y-93426342D01*
X21500000Y-93374000D01*
X21500000Y-91876945D01*
X21516880Y-91813946D01*
X21519509Y-91809393D01*
X21524536Y-91802841D01*
X21585044Y-91656762D01*
X21605682Y-91500000D01*
X21585044Y-91343238D01*
X21524536Y-91197159D01*
X21519509Y-91190607D01*
X21516880Y-91186054D01*
X21500000Y-91123055D01*
X21500000Y-87126000D01*
X21520002Y-87057879D01*
X21573658Y-87011386D01*
X21626000Y-87000000D01*
X27874000Y-87000000D01*
X27942121Y-87020002D01*
G37*
%TD.AperFunction*%
%TD*%
%TA.AperFunction,Conductor*%
%TO.N,Net-(J13-Pad4)*%
G36*
X27942121Y-71520002D02*
G01*
X27988614Y-71573658D01*
X28000000Y-71626000D01*
X28000000Y-86374000D01*
X27979998Y-86442121D01*
X27926342Y-86488614D01*
X27874000Y-86500000D01*
X20500000Y-86500000D01*
X20500000Y-89623055D01*
X20483120Y-89686054D01*
X20480491Y-89690607D01*
X20475464Y-89697159D01*
X20414956Y-89843238D01*
X20394318Y-90000000D01*
X20414956Y-90156762D01*
X20475464Y-90302841D01*
X20480491Y-90309393D01*
X20483120Y-90313946D01*
X20500000Y-90376945D01*
X20500000Y-91123055D01*
X20483120Y-91186054D01*
X20480491Y-91190607D01*
X20475464Y-91197159D01*
X20414956Y-91343238D01*
X20394318Y-91500000D01*
X20414956Y-91656762D01*
X20475464Y-91802841D01*
X20480491Y-91809393D01*
X20483120Y-91813946D01*
X20500000Y-91876945D01*
X20500000Y-95123055D01*
X20483120Y-95186054D01*
X20480491Y-95190607D01*
X20475464Y-95197159D01*
X20414956Y-95343238D01*
X20394318Y-95500000D01*
X20414956Y-95656762D01*
X20475464Y-95802841D01*
X20480491Y-95809393D01*
X20483120Y-95813946D01*
X20500000Y-95876945D01*
X20500000Y-96623055D01*
X20483120Y-96686054D01*
X20480491Y-96690607D01*
X20475464Y-96697159D01*
X20414956Y-96843238D01*
X20394318Y-97000000D01*
X20414956Y-97156762D01*
X20475464Y-97302841D01*
X20480491Y-97309393D01*
X20483120Y-97313946D01*
X20500000Y-97376945D01*
X20500000Y-100623055D01*
X20483120Y-100686054D01*
X20480491Y-100690607D01*
X20475464Y-100697159D01*
X20414956Y-100843238D01*
X20394318Y-101000000D01*
X20414956Y-101156762D01*
X20475464Y-101302841D01*
X20480491Y-101309393D01*
X20483120Y-101313946D01*
X20500000Y-101376945D01*
X20500000Y-102123055D01*
X20483120Y-102186054D01*
X20480491Y-102190607D01*
X20475464Y-102197159D01*
X20414956Y-102343238D01*
X20394318Y-102500000D01*
X20414956Y-102656762D01*
X20475464Y-102802841D01*
X20480491Y-102809393D01*
X20483120Y-102813946D01*
X20500000Y-102876945D01*
X20500000Y-103874000D01*
X20479998Y-103942121D01*
X20426342Y-103988614D01*
X20374000Y-104000000D01*
X15326500Y-104000000D01*
X15258379Y-103979998D01*
X15211886Y-103926342D01*
X15200500Y-103874000D01*
X15200500Y-71626000D01*
X15220502Y-71557879D01*
X15274158Y-71511386D01*
X15326500Y-71500000D01*
X27874000Y-71500000D01*
X27942121Y-71520002D01*
G37*
%TD.AperFunction*%
%TD*%
%TA.AperFunction,Conductor*%
%TO.N,Net-(J12-Pad4)*%
G36*
X20442121Y-26020002D02*
G01*
X20488614Y-26073658D01*
X20500000Y-26126000D01*
X20500000Y-29542838D01*
X20479998Y-29610959D01*
X20473963Y-29619541D01*
X20419435Y-29690604D01*
X20419433Y-29690608D01*
X20414406Y-29697159D01*
X20353898Y-29843238D01*
X20333260Y-30000000D01*
X20353898Y-30156762D01*
X20414406Y-30302841D01*
X20419433Y-30309392D01*
X20419435Y-30309396D01*
X20473963Y-30380459D01*
X20499563Y-30446679D01*
X20500000Y-30457162D01*
X20500000Y-31123055D01*
X20483120Y-31186054D01*
X20480491Y-31190607D01*
X20475464Y-31197159D01*
X20414956Y-31343238D01*
X20394318Y-31500000D01*
X20414956Y-31656762D01*
X20475464Y-31802841D01*
X20480491Y-31809393D01*
X20483120Y-31813946D01*
X20500000Y-31876945D01*
X20500000Y-34623055D01*
X20483120Y-34686054D01*
X20480491Y-34690607D01*
X20475464Y-34697159D01*
X20414956Y-34843238D01*
X20394318Y-35000000D01*
X20414956Y-35156762D01*
X20475464Y-35302841D01*
X20480491Y-35309393D01*
X20483120Y-35313946D01*
X20500000Y-35376945D01*
X20500000Y-36123055D01*
X20483120Y-36186054D01*
X20480491Y-36190607D01*
X20475464Y-36197159D01*
X20414956Y-36343238D01*
X20394318Y-36500000D01*
X20414956Y-36656762D01*
X20475464Y-36802841D01*
X20480491Y-36809393D01*
X20483120Y-36813946D01*
X20500000Y-36876945D01*
X20500000Y-39623055D01*
X20483120Y-39686054D01*
X20480491Y-39690607D01*
X20475464Y-39697159D01*
X20414956Y-39843238D01*
X20394318Y-40000000D01*
X20414956Y-40156762D01*
X20475464Y-40302841D01*
X20480491Y-40309393D01*
X20483120Y-40313946D01*
X20500000Y-40376945D01*
X20500000Y-41123055D01*
X20483120Y-41186054D01*
X20480491Y-41190607D01*
X20475464Y-41197159D01*
X20414956Y-41343238D01*
X20394318Y-41500000D01*
X20414956Y-41656762D01*
X20475464Y-41802841D01*
X20480491Y-41809393D01*
X20483120Y-41813946D01*
X20500000Y-41876945D01*
X20500000Y-42500000D01*
X27874000Y-42500000D01*
X27942121Y-42520002D01*
X27988614Y-42573658D01*
X28000000Y-42626000D01*
X28000000Y-58374000D01*
X27979998Y-58442121D01*
X27926342Y-58488614D01*
X27874000Y-58500000D01*
X15326500Y-58500000D01*
X15258379Y-58479998D01*
X15211886Y-58426342D01*
X15200500Y-58374000D01*
X15200500Y-26126000D01*
X15220502Y-26057879D01*
X15274158Y-26011386D01*
X15326500Y-26000000D01*
X20374000Y-26000000D01*
X20442121Y-26020002D01*
G37*
%TD.AperFunction*%
%TD*%
M02*
