M48
;DRILL file {KiCad 4.0.5} date 02/07/17 23:03:01
;FORMAT={-:-/ absolute / metric / decimal}
FMAT,2
METRIC,TZ
T1C0.400
T2C0.500
T3C0.700
T4C0.762
T5C0.800
T6C1.000
T7C1.016
T8C1.600
T9C2.000
T10C3.000
%
G90
G05
M71
T1
X12.Y-48.
X12.25Y-42.75
X13.Y-48.
X14.Y-48.
X15.Y-48.
X15.5Y-40.
X16.Y-48.
X17.Y-48.
X17.25Y-39.25
X18.Y-38.5
X18.Y-48.
X18.25Y-37.5
X18.5Y-34.5
X18.5Y-40.
X19.Y-37.5
X19.Y-48.
X19.25Y-39.25
X20.Y-38.5
X20.Y-48.
X20.75Y-56.5
X21.Y-48.
X22.Y-48.
X22.Y-50.
X23.Y-48.
X23.Y-50.
X24.Y-48.
X24.Y-50.
X24.5Y-55.
X25.Y-48.
X25.Y-50.
X25.Y-73.75
X26.Y-48.
X26.Y-50.
X27.Y-48.
X27.Y-50.
X27.Y-73.25
X28.Y-48.
X28.Y-50.
X29.Y-48.
X29.Y-50.
X30.Y-48.
X30.Y-50.
X31.Y-48.
X31.Y-50.
X32.Y-50.
X33.Y-50.
X33.25Y-69.5
X34.Y-50.
X34.5Y-71.5
X35.Y-50.
X36.Y-50.
X36.25Y-32.
X36.25Y-36.
X36.75Y-35.5
X37.Y-50.
X37.5Y-15.5
X37.5Y-18.5
X38.Y-50.
X38.2Y-35.2
X38.5Y-65.
X38.5Y-68.5
X39.Y-34.5
X39.Y-50.
X39.Y-70.5
X39.5Y-74.
X40.Y-48.
X40.Y-50.
X40.5Y-38.75
X40.5Y-65.
X40.6Y-36.9
X41.Y-48.
X41.Y-50.
X41.25Y-40.25
X41.25Y-42.25
X41.5Y-17.5
X41.5Y-70.5
X41.905Y-67.905
X42.Y-48.
X42.Y-50.
X42.25Y-41.75
X42.5Y-37.75
X43.Y-29.
X43.Y-48.
X43.Y-50.
X43.25Y-38.25
X43.25Y-40.25
X43.5Y-67.5
X44.Y-48.
X44.Y-50.
X44.25Y-39.75
X44.5Y-54.
X44.5Y-74.
X45.Y-48.
X45.Y-50.
X45.25Y-64.25
X45.5Y-21.75
X45.5Y-24.25
X46.Y-48.
X46.Y-50.
X47.Y-48.
X47.Y-50.
X47.75Y-56.5
X48.Y-48.
X48.Y-50.
X48.25Y-25.
X49.Y-48.
X49.Y-50.
X50.Y-48.
X50.Y-50.
X51.Y-48.
X51.Y-50.
X52.Y-41.5
X52.Y-48.
X52.Y-50.
X52.5Y-56.5
X53.Y-48.
X53.Y-50.
X54.Y-48.
X54.Y-50.
X54.5Y-57.75
X54.5Y-58.75
X55.Y-48.
X55.Y-50.
X56.Y-48.
X56.Y-50.
X57.Y-48.
X57.Y-50.
X58.Y-48.
X58.Y-50.
X59.Y-48.
X59.Y-50.
X59.Y-54.5
X60.Y-48.
X60.Y-50.
X61.Y-48.
X61.Y-50.
X62.Y-48.
X62.Y-50.
X63.Y-48.
X63.Y-50.
X64.Y-48.
X64.Y-50.
X65.Y-48.
X66.Y-48.
X67.Y-48.
X67.8Y-53.6
X68.Y-48.
X68.Y-55.5
X69.Y-48.
X69.2Y-53.6
T2
X24.Y-34.5
X36.5Y-40.25
X37.Y-33.6
X37.Y-55.
X45.5Y-55.
X47.Y-33.5
X50.5Y-52.
X51.Y-34.5
X54.5Y-46.
X54.5Y-52.
X67.5Y-35.
X68.Y-38.
T3
X33.Y-40.5
X33.Y-42.
X33.Y-43.5
X33.Y-45.
X33.Y-46.5
X33.Y-48.
T4
X22.59Y-51.5
X24.5Y-51.5
X26.41Y-51.5
X58.59Y-51.5
X60.5Y-51.5
X62.41Y-51.5
T5
X44.5Y-18.5
X47.75Y-64.5
X47.75Y-68.75
X48.75Y-33.5
X52.5Y-72.5
T6
X16.5Y-68.96
X16.5Y-71.5
X19.04Y-68.96
X19.04Y-71.5
X21.58Y-68.96
X21.58Y-71.5
X24.12Y-68.96
X24.12Y-71.5
X25.5Y-14.
X26.66Y-68.96
X26.66Y-71.5
X30.58Y-14.
X54.5Y-68.96
X54.5Y-71.5
X57.04Y-68.96
X57.04Y-71.5
X57.5Y-13.5
X59.58Y-68.96
X59.58Y-71.5
X62.12Y-68.96
X62.12Y-71.5
X62.58Y-13.5
X64.66Y-68.96
X64.66Y-71.5
T7
X39.88Y-52.
X41.42Y-13.
X42.42Y-52.
X43.96Y-13.
X44.96Y-52.
X46.5Y-13.
X47.5Y-52.
X56.Y-58.16
X56.Y-60.7
X58.54Y-58.16
X58.54Y-60.7
X61.08Y-58.16
X61.08Y-60.7
X63.62Y-58.16
X63.62Y-60.7
X66.16Y-58.16
X66.16Y-60.7
X68.7Y-58.16
X68.7Y-60.7
T9
X3.Y-39.
X73.Y-66.
T10
X21.69Y-6.38
X34.39Y-6.38
X53.69Y-5.88
X66.39Y-5.88
T8
X21.5Y-30.1G85X17.5Y-30.1
G05
X23.2Y-22.55G85X23.2Y-25.45
G05
X30.35Y-24.4G85X27.45Y-24.4
G05
X31.5Y-30.1G85X27.5Y-30.1
G05
X57.5Y-30.1G85X53.5Y-30.1
G05
X59.2Y-22.55G85X59.2Y-25.45
G05
X66.35Y-24.4G85X63.45Y-24.4
G05
X67.5Y-30.1G85X63.5Y-30.1
G05
T0
M30
