G04 #@! TF.FileFunction,Legend,Top*
%FSLAX46Y46*%
G04 Gerber Fmt 4.6, Leading zero omitted, Abs format (unit mm)*
G04 Created by KiCad (PCBNEW 4.0.6) date 03/21/17 17:19:15*
%MOMM*%
%LPD*%
G01*
G04 APERTURE LIST*
%ADD10C,0.100000*%
%ADD11C,0.300000*%
%ADD12C,0.500000*%
%ADD13C,0.200000*%
%ADD14C,0.150000*%
%ADD15C,0.010000*%
%ADD16C,0.101600*%
G04 APERTURE END LIST*
D10*
D11*
X47614286Y-31342857D02*
X48014286Y-32542857D01*
X48414286Y-31342857D01*
X48528571Y-32657143D02*
X49442857Y-32657143D01*
X49557143Y-31342857D02*
X50242857Y-31342857D01*
X49900000Y-32542857D02*
X49900000Y-31342857D01*
X50528572Y-31342857D02*
X51328572Y-32542857D01*
X51328572Y-31342857D02*
X50528572Y-32542857D01*
X35914286Y-30842857D02*
X35971429Y-30671428D01*
X36028571Y-30614285D01*
X36142857Y-30557142D01*
X36314286Y-30557142D01*
X36428571Y-30614285D01*
X36485714Y-30671428D01*
X36542857Y-30785714D01*
X36542857Y-31242857D01*
X35342857Y-31242857D01*
X35342857Y-30842857D01*
X35400000Y-30728571D01*
X35457143Y-30671428D01*
X35571429Y-30614285D01*
X35685714Y-30614285D01*
X35800000Y-30671428D01*
X35857143Y-30728571D01*
X35914286Y-30842857D01*
X35914286Y-31242857D01*
X36200000Y-30100000D02*
X36200000Y-29528571D01*
X36542857Y-30214285D02*
X35342857Y-29814285D01*
X36542857Y-29414285D01*
X35342857Y-29185714D02*
X35342857Y-28500000D01*
X36542857Y-28842857D02*
X35342857Y-28842857D01*
X35342857Y-28271428D02*
X35342857Y-27585714D01*
X36542857Y-27928571D02*
X35342857Y-27928571D01*
X59042857Y-38157142D02*
X58471429Y-38557142D01*
X59042857Y-38842857D02*
X57842857Y-38842857D01*
X57842857Y-38385714D01*
X57900000Y-38271428D01*
X57957143Y-38214285D01*
X58071429Y-38157142D01*
X58242857Y-38157142D01*
X58357143Y-38214285D01*
X58414286Y-38271428D01*
X58471429Y-38385714D01*
X58471429Y-38842857D01*
X58985714Y-37700000D02*
X59042857Y-37528571D01*
X59042857Y-37242857D01*
X58985714Y-37128571D01*
X58928571Y-37071428D01*
X58814286Y-37014285D01*
X58700000Y-37014285D01*
X58585714Y-37071428D01*
X58528571Y-37128571D01*
X58471429Y-37242857D01*
X58414286Y-37471428D01*
X58357143Y-37585714D01*
X58300000Y-37642857D01*
X58185714Y-37700000D01*
X58071429Y-37700000D01*
X57957143Y-37642857D01*
X57900000Y-37585714D01*
X57842857Y-37471428D01*
X57842857Y-37185714D01*
X57900000Y-37014285D01*
X57842857Y-36671428D02*
X57842857Y-35985714D01*
X59042857Y-36328571D02*
X57842857Y-36328571D01*
X67842857Y-36257142D02*
X67842857Y-35514285D01*
X68300000Y-35914285D01*
X68300000Y-35742857D01*
X68357143Y-35628571D01*
X68414286Y-35571428D01*
X68528571Y-35514285D01*
X68814286Y-35514285D01*
X68928571Y-35571428D01*
X68985714Y-35628571D01*
X69042857Y-35742857D01*
X69042857Y-36085714D01*
X68985714Y-36200000D01*
X68928571Y-36257142D01*
X68928571Y-35000000D02*
X68985714Y-34942857D01*
X69042857Y-35000000D01*
X68985714Y-35057143D01*
X68928571Y-35000000D01*
X69042857Y-35000000D01*
X67842857Y-34542856D02*
X67842857Y-33799999D01*
X68300000Y-34199999D01*
X68300000Y-34028571D01*
X68357143Y-33914285D01*
X68414286Y-33857142D01*
X68528571Y-33799999D01*
X68814286Y-33799999D01*
X68928571Y-33857142D01*
X68985714Y-33914285D01*
X69042857Y-34028571D01*
X69042857Y-34371428D01*
X68985714Y-34485714D01*
X68928571Y-34542856D01*
X65400000Y-35914285D02*
X65342857Y-36028571D01*
X65342857Y-36200000D01*
X65400000Y-36371428D01*
X65514286Y-36485714D01*
X65628571Y-36542857D01*
X65857143Y-36600000D01*
X66028571Y-36600000D01*
X66257143Y-36542857D01*
X66371429Y-36485714D01*
X66485714Y-36371428D01*
X66542857Y-36200000D01*
X66542857Y-36085714D01*
X66485714Y-35914285D01*
X66428571Y-35857142D01*
X66028571Y-35857142D01*
X66028571Y-36085714D01*
X66542857Y-35342857D02*
X65342857Y-35342857D01*
X66542857Y-34657142D01*
X65342857Y-34657142D01*
X66542857Y-34085714D02*
X65342857Y-34085714D01*
X65342857Y-33799999D01*
X65400000Y-33628571D01*
X65514286Y-33514285D01*
X65628571Y-33457142D01*
X65857143Y-33399999D01*
X66028571Y-33399999D01*
X66257143Y-33457142D01*
X66371429Y-33514285D01*
X66485714Y-33628571D01*
X66542857Y-33799999D01*
X66542857Y-34085714D01*
X66242858Y-59342857D02*
X66985715Y-59342857D01*
X66585715Y-59800000D01*
X66757143Y-59800000D01*
X66871429Y-59857143D01*
X66928572Y-59914286D01*
X66985715Y-60028571D01*
X66985715Y-60314286D01*
X66928572Y-60428571D01*
X66871429Y-60485714D01*
X66757143Y-60542857D01*
X66414286Y-60542857D01*
X66300000Y-60485714D01*
X66242858Y-60428571D01*
X67500000Y-60428571D02*
X67557143Y-60485714D01*
X67500000Y-60542857D01*
X67442857Y-60485714D01*
X67500000Y-60428571D01*
X67500000Y-60542857D01*
X67957144Y-59342857D02*
X68700001Y-59342857D01*
X68300001Y-59800000D01*
X68471429Y-59800000D01*
X68585715Y-59857143D01*
X68642858Y-59914286D01*
X68700001Y-60028571D01*
X68700001Y-60314286D01*
X68642858Y-60428571D01*
X68585715Y-60485714D01*
X68471429Y-60542857D01*
X68128572Y-60542857D01*
X68014286Y-60485714D01*
X67957144Y-60428571D01*
X67785715Y-54342857D02*
X67214286Y-54342857D01*
X67157143Y-54914286D01*
X67214286Y-54857143D01*
X67328572Y-54800000D01*
X67614286Y-54800000D01*
X67728572Y-54857143D01*
X67785715Y-54914286D01*
X67842858Y-55028571D01*
X67842858Y-55314286D01*
X67785715Y-55428571D01*
X67728572Y-55485714D01*
X67614286Y-55542857D01*
X67328572Y-55542857D01*
X67214286Y-55485714D01*
X67157143Y-55428571D01*
X53800001Y-51428571D02*
X53742858Y-51485714D01*
X53571429Y-51542857D01*
X53457143Y-51542857D01*
X53285715Y-51485714D01*
X53171429Y-51371429D01*
X53114286Y-51257143D01*
X53057143Y-51028571D01*
X53057143Y-50857143D01*
X53114286Y-50628571D01*
X53171429Y-50514286D01*
X53285715Y-50400000D01*
X53457143Y-50342857D01*
X53571429Y-50342857D01*
X53742858Y-50400000D01*
X53800001Y-50457143D01*
X54257143Y-51485714D02*
X54428572Y-51542857D01*
X54714286Y-51542857D01*
X54828572Y-51485714D01*
X54885715Y-51428571D01*
X54942858Y-51314286D01*
X54942858Y-51200000D01*
X54885715Y-51085714D01*
X54828572Y-51028571D01*
X54714286Y-50971429D01*
X54485715Y-50914286D01*
X54371429Y-50857143D01*
X54314286Y-50800000D01*
X54257143Y-50685714D01*
X54257143Y-50571429D01*
X54314286Y-50457143D01*
X54371429Y-50400000D01*
X54485715Y-50342857D01*
X54771429Y-50342857D01*
X54942858Y-50400000D01*
X20800001Y-51428571D02*
X20742858Y-51485714D01*
X20571429Y-51542857D01*
X20457143Y-51542857D01*
X20285715Y-51485714D01*
X20171429Y-51371429D01*
X20114286Y-51257143D01*
X20057143Y-51028571D01*
X20057143Y-50857143D01*
X20114286Y-50628571D01*
X20171429Y-50514286D01*
X20285715Y-50400000D01*
X20457143Y-50342857D01*
X20571429Y-50342857D01*
X20742858Y-50400000D01*
X20800001Y-50457143D01*
X21257143Y-51485714D02*
X21428572Y-51542857D01*
X21714286Y-51542857D01*
X21828572Y-51485714D01*
X21885715Y-51428571D01*
X21942858Y-51314286D01*
X21942858Y-51200000D01*
X21885715Y-51085714D01*
X21828572Y-51028571D01*
X21714286Y-50971429D01*
X21485715Y-50914286D01*
X21371429Y-50857143D01*
X21314286Y-50800000D01*
X21257143Y-50685714D01*
X21257143Y-50571429D01*
X21314286Y-50457143D01*
X21371429Y-50400000D01*
X21485715Y-50342857D01*
X21771429Y-50342857D01*
X21942858Y-50400000D01*
X57085715Y-50400000D02*
X56971429Y-50342857D01*
X56800000Y-50342857D01*
X56628572Y-50400000D01*
X56514286Y-50514286D01*
X56457143Y-50628571D01*
X56400000Y-50857143D01*
X56400000Y-51028571D01*
X56457143Y-51257143D01*
X56514286Y-51371429D01*
X56628572Y-51485714D01*
X56800000Y-51542857D01*
X56914286Y-51542857D01*
X57085715Y-51485714D01*
X57142858Y-51428571D01*
X57142858Y-51028571D01*
X56914286Y-51028571D01*
X57657143Y-51542857D02*
X57657143Y-50342857D01*
X58342858Y-51542857D01*
X58342858Y-50342857D01*
X58914286Y-51542857D02*
X58914286Y-50342857D01*
X59200001Y-50342857D01*
X59371429Y-50400000D01*
X59485715Y-50514286D01*
X59542858Y-50628571D01*
X59600001Y-50857143D01*
X59600001Y-51028571D01*
X59542858Y-51257143D01*
X59485715Y-51371429D01*
X59371429Y-51485714D01*
X59200001Y-51542857D01*
X58914286Y-51542857D01*
X23742858Y-50342857D02*
X24485715Y-50342857D01*
X24085715Y-50800000D01*
X24257143Y-50800000D01*
X24371429Y-50857143D01*
X24428572Y-50914286D01*
X24485715Y-51028571D01*
X24485715Y-51314286D01*
X24428572Y-51428571D01*
X24371429Y-51485714D01*
X24257143Y-51542857D01*
X23914286Y-51542857D01*
X23800000Y-51485714D01*
X23742858Y-51428571D01*
X25000000Y-51428571D02*
X25057143Y-51485714D01*
X25000000Y-51542857D01*
X24942857Y-51485714D01*
X25000000Y-51428571D01*
X25000000Y-51542857D01*
X25457144Y-50342857D02*
X26200001Y-50342857D01*
X25800001Y-50800000D01*
X25971429Y-50800000D01*
X26085715Y-50857143D01*
X26142858Y-50914286D01*
X26200001Y-51028571D01*
X26200001Y-51314286D01*
X26142858Y-51428571D01*
X26085715Y-51485714D01*
X25971429Y-51542857D01*
X25628572Y-51542857D01*
X25514286Y-51485714D01*
X25457144Y-51428571D01*
D12*
X27404761Y-64357143D02*
X28071428Y-64357143D01*
X28357142Y-65404762D02*
X27404761Y-65404762D01*
X27404761Y-63404762D01*
X28357142Y-63404762D01*
X29214285Y-65404762D02*
X29214285Y-63404762D01*
X30357143Y-65404762D01*
X30357143Y-63404762D01*
X32452381Y-65214286D02*
X32357143Y-65309524D01*
X32071428Y-65404762D01*
X31880952Y-65404762D01*
X31595238Y-65309524D01*
X31404762Y-65119048D01*
X31309523Y-64928571D01*
X31214285Y-64547619D01*
X31214285Y-64261905D01*
X31309523Y-63880952D01*
X31404762Y-63690476D01*
X31595238Y-63500000D01*
X31880952Y-63404762D01*
X32071428Y-63404762D01*
X32357143Y-63500000D01*
X32452381Y-63595238D01*
X32833333Y-65595238D02*
X34357143Y-65595238D01*
X34738095Y-64833333D02*
X35690476Y-64833333D01*
X34547619Y-65404762D02*
X35214286Y-63404762D01*
X35880953Y-65404762D01*
X46261904Y-64357143D02*
X46928571Y-64357143D01*
X47214285Y-65404762D02*
X46261904Y-65404762D01*
X46261904Y-63404762D01*
X47214285Y-63404762D01*
X48071428Y-65404762D02*
X48071428Y-63404762D01*
X49214286Y-65404762D01*
X49214286Y-63404762D01*
X51309524Y-65214286D02*
X51214286Y-65309524D01*
X50928571Y-65404762D01*
X50738095Y-65404762D01*
X50452381Y-65309524D01*
X50261905Y-65119048D01*
X50166666Y-64928571D01*
X50071428Y-64547619D01*
X50071428Y-64261905D01*
X50166666Y-63880952D01*
X50261905Y-63690476D01*
X50452381Y-63500000D01*
X50738095Y-63404762D01*
X50928571Y-63404762D01*
X51214286Y-63500000D01*
X51309524Y-63595238D01*
X51690476Y-65595238D02*
X53214286Y-65595238D01*
X54357143Y-64357143D02*
X54642857Y-64452381D01*
X54738096Y-64547619D01*
X54833334Y-64738095D01*
X54833334Y-65023810D01*
X54738096Y-65214286D01*
X54642857Y-65309524D01*
X54452381Y-65404762D01*
X53690476Y-65404762D01*
X53690476Y-63404762D01*
X54357143Y-63404762D01*
X54547619Y-63500000D01*
X54642857Y-63595238D01*
X54738096Y-63785714D01*
X54738096Y-63976190D01*
X54642857Y-64166667D01*
X54547619Y-64261905D01*
X54357143Y-64357143D01*
X53690476Y-64357143D01*
D13*
X21000000Y-16500000D02*
G75*
G03X21000000Y-16500000I-4000000J0D01*
G01*
X33000000Y-16500000D02*
G75*
G03X33000000Y-16500000I-4000000J0D01*
G01*
X66000000Y-16500000D02*
G75*
G03X66000000Y-16500000I-4000000J0D01*
G01*
X54000000Y-16500000D02*
G75*
G03X54000000Y-16500000I-4000000J0D01*
G01*
D11*
X57238095Y-404762D02*
X57619047Y-404762D01*
X57809523Y-500000D01*
X58000000Y-690476D01*
X58095238Y-1071429D01*
X58095238Y-1738095D01*
X58000000Y-2119048D01*
X57809523Y-2309524D01*
X57619047Y-2404762D01*
X57238095Y-2404762D01*
X57047619Y-2309524D01*
X56857142Y-2119048D01*
X56761904Y-1738095D01*
X56761904Y-1071429D01*
X56857142Y-690476D01*
X57047619Y-500000D01*
X57238095Y-404762D01*
X58952380Y-404762D02*
X58952380Y-2023810D01*
X59047619Y-2214286D01*
X59142857Y-2309524D01*
X59333333Y-2404762D01*
X59714285Y-2404762D01*
X59904761Y-2309524D01*
X60000000Y-2214286D01*
X60095238Y-2023810D01*
X60095238Y-404762D01*
X60761904Y-404762D02*
X61904761Y-404762D01*
X61333333Y-2404762D02*
X61333333Y-404762D01*
X62095238Y-2595238D02*
X63619048Y-2595238D01*
X64761905Y-1357143D02*
X65047619Y-1452381D01*
X65142858Y-1547619D01*
X65238096Y-1738095D01*
X65238096Y-2023810D01*
X65142858Y-2214286D01*
X65047619Y-2309524D01*
X64857143Y-2404762D01*
X64095238Y-2404762D01*
X64095238Y-404762D01*
X64761905Y-404762D01*
X64952381Y-500000D01*
X65047619Y-595238D01*
X65142858Y-785714D01*
X65142858Y-976190D01*
X65047619Y-1166667D01*
X64952381Y-1261905D01*
X64761905Y-1357143D01*
X64095238Y-1357143D01*
X24380952Y-404762D02*
X24761904Y-404762D01*
X24952380Y-500000D01*
X25142857Y-690476D01*
X25238095Y-1071429D01*
X25238095Y-1738095D01*
X25142857Y-2119048D01*
X24952380Y-2309524D01*
X24761904Y-2404762D01*
X24380952Y-2404762D01*
X24190476Y-2309524D01*
X23999999Y-2119048D01*
X23904761Y-1738095D01*
X23904761Y-1071429D01*
X23999999Y-690476D01*
X24190476Y-500000D01*
X24380952Y-404762D01*
X26095237Y-404762D02*
X26095237Y-2023810D01*
X26190476Y-2214286D01*
X26285714Y-2309524D01*
X26476190Y-2404762D01*
X26857142Y-2404762D01*
X27047618Y-2309524D01*
X27142857Y-2214286D01*
X27238095Y-2023810D01*
X27238095Y-404762D01*
X27904761Y-404762D02*
X29047618Y-404762D01*
X28476190Y-2404762D02*
X28476190Y-404762D01*
X29238095Y-2595238D02*
X30761905Y-2595238D01*
X31142857Y-1833333D02*
X32095238Y-1833333D01*
X30952381Y-2404762D02*
X31619048Y-404762D01*
X32285715Y-2404762D01*
D12*
X34700000Y-32500000D02*
X31200000Y-32500000D01*
X34700000Y-43000000D02*
X34700000Y-32500000D01*
X31200000Y-43000000D02*
X31200000Y-32500000D01*
X31200000Y-43000000D02*
X34700000Y-43000000D01*
X42800000Y-19000000D02*
X42800000Y-22100000D01*
X36200000Y-19000000D02*
X36200000Y-22100000D01*
X36200000Y-22100000D02*
X42800000Y-22100000D01*
X36200000Y-19000000D02*
X42800000Y-19000000D01*
X51100000Y-40500000D02*
X51100000Y-35500000D01*
X47900000Y-35500000D02*
X47900000Y-40500000D01*
D14*
X44075000Y-74575000D02*
X44075000Y-74470000D01*
X39925000Y-74575000D02*
X39925000Y-74470000D01*
X39925000Y-64425000D02*
X39925000Y-64530000D01*
X44075000Y-64425000D02*
X44075000Y-64530000D01*
X44075000Y-74575000D02*
X39925000Y-74575000D01*
X44075000Y-64425000D02*
X39925000Y-64425000D01*
X44075000Y-74470000D02*
X45450000Y-74470000D01*
X45125000Y-41125000D02*
X45125000Y-40600000D01*
X37875000Y-41125000D02*
X37875000Y-40600000D01*
X37875000Y-33875000D02*
X37875000Y-34400000D01*
X45125000Y-33875000D02*
X45125000Y-34400000D01*
X45125000Y-41125000D02*
X44600000Y-41125000D01*
X45125000Y-33875000D02*
X44600000Y-33875000D01*
X37875000Y-33875000D02*
X38400000Y-33875000D01*
X37875000Y-41125000D02*
X38400000Y-41125000D01*
X45125000Y-40600000D02*
X46500000Y-40600000D01*
D12*
X56300000Y-36000000D02*
X54700000Y-36000000D01*
X54700000Y-36000000D02*
X54700000Y-39000000D01*
X54700000Y-39000000D02*
X56300000Y-39000000D01*
X56300000Y-39000000D02*
X56300000Y-36000000D01*
X57300000Y-34500000D02*
X53700000Y-34500000D01*
X53700000Y-34500000D02*
X53700000Y-40500000D01*
X53700000Y-40500000D02*
X57300000Y-40500000D01*
X57300000Y-40500000D02*
X57300000Y-34500000D01*
D14*
X68600000Y-55950000D02*
X66700000Y-55950000D01*
X68600000Y-57050000D02*
X66700000Y-57050000D01*
X67700000Y-56500000D02*
X67250000Y-56500000D01*
X67750000Y-56750000D02*
X67750000Y-56250000D01*
X67750000Y-56500000D02*
X67500000Y-56750000D01*
X67500000Y-56750000D02*
X67500000Y-56250000D01*
X67500000Y-56250000D02*
X67750000Y-56500000D01*
X68600000Y-57950000D02*
X66700000Y-57950000D01*
X68600000Y-59050000D02*
X66700000Y-59050000D01*
X67700000Y-58500000D02*
X67250000Y-58500000D01*
X67750000Y-58750000D02*
X67750000Y-58250000D01*
X67750000Y-58500000D02*
X67500000Y-58750000D01*
X67500000Y-58750000D02*
X67500000Y-58250000D01*
X67500000Y-58250000D02*
X67750000Y-58500000D01*
X44900000Y-28050000D02*
X46800000Y-28050000D01*
X44900000Y-26950000D02*
X46800000Y-26950000D01*
X45800000Y-27500000D02*
X46250000Y-27500000D01*
X45750000Y-27250000D02*
X45750000Y-27750000D01*
X45750000Y-27500000D02*
X46000000Y-27250000D01*
X46000000Y-27250000D02*
X46000000Y-27750000D01*
X46000000Y-27750000D02*
X45750000Y-27500000D01*
X37900000Y-28050000D02*
X39800000Y-28050000D01*
X37900000Y-26950000D02*
X39800000Y-26950000D01*
X38800000Y-27500000D02*
X39250000Y-27500000D01*
X38750000Y-27250000D02*
X38750000Y-27750000D01*
X38750000Y-27500000D02*
X39000000Y-27250000D01*
X39000000Y-27250000D02*
X39000000Y-27750000D01*
X39000000Y-27750000D02*
X38750000Y-27500000D01*
X58803219Y-49500000D02*
G75*
G03X58803219Y-49500000I-803219J0D01*
G01*
X25803219Y-49500000D02*
G75*
G03X25803219Y-49500000I-803219J0D01*
G01*
X54803219Y-49500000D02*
G75*
G03X54803219Y-49500000I-803219J0D01*
G01*
X21803219Y-49500000D02*
G75*
G03X21803219Y-49500000I-803219J0D01*
G01*
X29803219Y-27000000D02*
G75*
G03X29803219Y-27000000I-803219J0D01*
G01*
X34803219Y-27000000D02*
G75*
G03X34803219Y-27000000I-803219J0D01*
G01*
X47303219Y-32000000D02*
G75*
G03X47303219Y-32000000I-803219J0D01*
G01*
X67803219Y-27000000D02*
G75*
G03X67803219Y-27000000I-803219J0D01*
G01*
X36803219Y-27000000D02*
G75*
G03X36803219Y-27000000I-803219J0D01*
G01*
X69303219Y-32500000D02*
G75*
G03X69303219Y-32500000I-803219J0D01*
G01*
X66803219Y-32500000D02*
G75*
G03X66803219Y-32500000I-803219J0D01*
G01*
X62803219Y-27000000D02*
G75*
G03X62803219Y-27000000I-803219J0D01*
G01*
X13920000Y-66180000D02*
X34240000Y-66180000D01*
X14460000Y-66730000D02*
X33680000Y-66730000D01*
X13920000Y-75280000D02*
X34240000Y-75280000D01*
X14460000Y-74730000D02*
X21830000Y-74730000D01*
X26330000Y-74730000D02*
X33680000Y-74730000D01*
X21830000Y-74730000D02*
X21830000Y-75280000D01*
X26330000Y-74730000D02*
X26330000Y-75280000D01*
X13920000Y-66180000D02*
X13920000Y-75280000D01*
X14460000Y-66730000D02*
X14460000Y-74730000D01*
X34240000Y-66180000D02*
X34240000Y-75280000D01*
X33680000Y-66730000D02*
X33680000Y-74730000D01*
X13920000Y-66180000D02*
X14460000Y-66730000D01*
X34240000Y-66180000D02*
X33680000Y-66730000D01*
X13920000Y-75280000D02*
X14460000Y-74730000D01*
X34240000Y-75280000D02*
X33680000Y-74730000D01*
X49920000Y-66180000D02*
X70240000Y-66180000D01*
X50460000Y-66730000D02*
X69680000Y-66730000D01*
X49920000Y-75280000D02*
X70240000Y-75280000D01*
X50460000Y-74730000D02*
X57830000Y-74730000D01*
X62330000Y-74730000D02*
X69680000Y-74730000D01*
X57830000Y-74730000D02*
X57830000Y-75280000D01*
X62330000Y-74730000D02*
X62330000Y-75280000D01*
X49920000Y-66180000D02*
X49920000Y-75280000D01*
X50460000Y-66730000D02*
X50460000Y-74730000D01*
X70240000Y-66180000D02*
X70240000Y-75280000D01*
X69680000Y-66730000D02*
X69680000Y-74730000D01*
X49920000Y-66180000D02*
X50460000Y-66730000D01*
X70240000Y-66180000D02*
X69680000Y-66730000D01*
X49920000Y-75280000D02*
X50460000Y-74730000D01*
X70240000Y-75280000D02*
X69680000Y-74730000D01*
D12*
X19200000Y-62250000D02*
X19200000Y-58750000D01*
X19200000Y-58750000D02*
X20200000Y-58750000D01*
X20200000Y-58750000D02*
X20200000Y-55500000D01*
X20200000Y-65500000D02*
X20200000Y-62250000D01*
X20200000Y-62250000D02*
X19200000Y-62250000D01*
X13800000Y-65500000D02*
X13800000Y-55500000D01*
X13800000Y-55500000D02*
X20200000Y-55500000D01*
X13800000Y-65500000D02*
X20200000Y-65500000D01*
X19200000Y-52250000D02*
X19200000Y-48750000D01*
X19200000Y-48750000D02*
X20200000Y-48750000D01*
X20200000Y-48750000D02*
X20200000Y-45500000D01*
X20200000Y-55500000D02*
X20200000Y-52250000D01*
X20200000Y-52250000D02*
X19200000Y-52250000D01*
X13800000Y-55500000D02*
X13800000Y-45500000D01*
X13800000Y-45500000D02*
X20200000Y-45500000D01*
X13800000Y-55500000D02*
X20200000Y-55500000D01*
D15*
G36*
X17389403Y-29306246D02*
X17705218Y-29436997D01*
X18064902Y-29647421D01*
X18070091Y-29650838D01*
X18347670Y-29832361D01*
X18591297Y-29987790D01*
X18850661Y-30148717D01*
X18920112Y-30191264D01*
X19025364Y-30247785D01*
X19123656Y-30273269D01*
X19237470Y-30264824D01*
X19389287Y-30219554D01*
X19601590Y-30134567D01*
X19705244Y-30090202D01*
X19876226Y-30030274D01*
X20035444Y-29991456D01*
X20196826Y-29956492D01*
X20331600Y-29917409D01*
X20474963Y-29884762D01*
X20695010Y-29855970D01*
X20966855Y-29832346D01*
X21265613Y-29815207D01*
X21566399Y-29805865D01*
X21844327Y-29805636D01*
X22074512Y-29815835D01*
X22138118Y-29821985D01*
X22664229Y-29893140D01*
X23100407Y-29974641D01*
X23458031Y-30069192D01*
X23748483Y-30179501D01*
X23848810Y-30228859D01*
X24031292Y-30273902D01*
X24230478Y-30222477D01*
X24450134Y-30073554D01*
X24466092Y-30059700D01*
X24564545Y-29992293D01*
X24629545Y-29970800D01*
X24700112Y-29941972D01*
X24708866Y-29928341D01*
X24760371Y-29881785D01*
X24880103Y-29801105D01*
X25046118Y-29698991D01*
X25236469Y-29588132D01*
X25429211Y-29481217D01*
X25602400Y-29390936D01*
X25734089Y-29329977D01*
X25762080Y-29319354D01*
X26016653Y-29259424D01*
X26232506Y-29279891D01*
X26439691Y-29386365D01*
X26538708Y-29464352D01*
X26756644Y-29703539D01*
X26903565Y-29992120D01*
X26984303Y-30342493D01*
X27004386Y-30659219D01*
X26975465Y-31067987D01*
X26877486Y-31415456D01*
X26705113Y-31719459D01*
X26675327Y-31758815D01*
X26571120Y-31897193D01*
X26505072Y-32011053D01*
X26478503Y-32120631D01*
X26492734Y-32246164D01*
X26549084Y-32407889D01*
X26648874Y-32626042D01*
X26744687Y-32821957D01*
X26882265Y-33101163D01*
X26982060Y-33304895D01*
X27050943Y-33448941D01*
X27095785Y-33549086D01*
X27123460Y-33621119D01*
X27140837Y-33680826D01*
X27154788Y-33743994D01*
X27162764Y-33782467D01*
X27201852Y-33945457D01*
X27253958Y-34135297D01*
X27269424Y-34187200D01*
X27324517Y-34426361D01*
X27369561Y-34735236D01*
X27401629Y-35082187D01*
X27417792Y-35435578D01*
X27415196Y-35762000D01*
X27355903Y-36458016D01*
X27240335Y-37070477D01*
X27068130Y-37600654D01*
X26838928Y-38049821D01*
X26717139Y-38225800D01*
X26377378Y-38627271D01*
X26041857Y-38932544D01*
X25712514Y-39140280D01*
X25391287Y-39249138D01*
X25211732Y-39266435D01*
X25024806Y-39248607D01*
X24807646Y-39200868D01*
X24595897Y-39133935D01*
X24425208Y-39058523D01*
X24350349Y-39007466D01*
X24257905Y-38936482D01*
X24198151Y-38911600D01*
X24133175Y-38877314D01*
X24026937Y-38790619D01*
X23904250Y-38675753D01*
X23789928Y-38556957D01*
X23708781Y-38458472D01*
X23684400Y-38409693D01*
X23657021Y-38355475D01*
X23645151Y-38352800D01*
X23608194Y-38306459D01*
X23568387Y-38184638D01*
X23530915Y-38013137D01*
X23500965Y-37817758D01*
X23483722Y-37624301D01*
X23481483Y-37538512D01*
X23505882Y-37214359D01*
X23586935Y-36940670D01*
X23737532Y-36676215D01*
X23761875Y-36641773D01*
X23873637Y-36486521D01*
X23973289Y-36348070D01*
X24019850Y-36283369D01*
X24084068Y-36139010D01*
X24133322Y-35920822D01*
X24164988Y-35655825D01*
X24176444Y-35371038D01*
X24165069Y-35093480D01*
X24148611Y-34956770D01*
X24109851Y-34749206D01*
X24063878Y-34563273D01*
X24020285Y-34437458D01*
X24018044Y-34432842D01*
X23952646Y-34272210D01*
X23913112Y-34136911D01*
X23879848Y-34030161D01*
X23846015Y-33984045D01*
X23845164Y-33984000D01*
X23803967Y-33942422D01*
X23747462Y-33840300D01*
X23738127Y-33819817D01*
X23635375Y-33642382D01*
X23486045Y-33488225D01*
X23268216Y-33336485D01*
X23169684Y-33278930D01*
X22796013Y-33111849D01*
X22379910Y-33012369D01*
X21905378Y-32977366D01*
X21652400Y-32982538D01*
X21221109Y-33026117D01*
X20851552Y-33120703D01*
X20511944Y-33277596D01*
X20170497Y-33508098D01*
X20167359Y-33510511D01*
X19871245Y-33780843D01*
X19652037Y-34083648D01*
X19501699Y-34435149D01*
X19412194Y-34851571D01*
X19388157Y-35083585D01*
X19379397Y-35441620D01*
X19409973Y-35728293D01*
X19477655Y-35937624D01*
X19580213Y-36063637D01*
X19715418Y-36100353D01*
X19764392Y-36092474D01*
X19901984Y-36038269D01*
X19994300Y-35945977D01*
X20049027Y-35798504D01*
X20073852Y-35578760D01*
X20077600Y-35396104D01*
X20083541Y-35142784D01*
X20108960Y-34949234D01*
X20165245Y-34779551D01*
X20263784Y-34597827D01*
X20393083Y-34401503D01*
X20619004Y-34151956D01*
X20906866Y-33977900D01*
X21209227Y-33884760D01*
X21539132Y-33844286D01*
X21841631Y-33872453D01*
X22137589Y-33975316D01*
X22447873Y-34158930D01*
X22634512Y-34298368D01*
X22846022Y-34479969D01*
X22991876Y-34647791D01*
X23095829Y-34836303D01*
X23181637Y-35079979D01*
X23188051Y-35101600D01*
X23287979Y-35603832D01*
X23302623Y-36120275D01*
X23234952Y-36630490D01*
X23087937Y-37114038D01*
X22864547Y-37550481D01*
X22823077Y-37612890D01*
X22432322Y-38102750D01*
X21993584Y-38503749D01*
X21502282Y-38818887D01*
X20953832Y-39051166D01*
X20414888Y-39190455D01*
X20177723Y-39232480D01*
X19985736Y-39254257D01*
X19803835Y-39255845D01*
X19596930Y-39237305D01*
X19329932Y-39198698D01*
X19290200Y-39192404D01*
X18816201Y-39086581D01*
X18405514Y-38927059D01*
X18274200Y-38858323D01*
X18030587Y-38718430D01*
X17865788Y-38614552D01*
X17767332Y-38538095D01*
X17722749Y-38480464D01*
X17721531Y-38477458D01*
X17657722Y-38411434D01*
X17623631Y-38403600D01*
X17552824Y-38366873D01*
X17435246Y-38268639D01*
X17287480Y-38126819D01*
X17126111Y-37959330D01*
X16967725Y-37784093D01*
X16828904Y-37619028D01*
X16726234Y-37482054D01*
X16676300Y-37391090D01*
X16674000Y-37377520D01*
X16656298Y-37300530D01*
X16635600Y-37286000D01*
X16599111Y-37256809D01*
X16550310Y-37161866D01*
X16484393Y-36990114D01*
X16403793Y-36752600D01*
X16311313Y-36404165D01*
X16252846Y-36017241D01*
X16226587Y-35572993D01*
X16230734Y-35052586D01*
X16233559Y-34974600D01*
X16269409Y-34427768D01*
X16335863Y-33948913D01*
X16440738Y-33506997D01*
X16591850Y-33070985D01*
X16797017Y-32609840D01*
X16862591Y-32477200D01*
X16953195Y-32291357D01*
X17001640Y-32167634D01*
X17014037Y-32078752D01*
X16996500Y-31997431D01*
X16979752Y-31954299D01*
X16900026Y-31810910D01*
X16787970Y-31661396D01*
X16765541Y-31636432D01*
X16663296Y-31500283D01*
X16595982Y-31362052D01*
X16588466Y-31333834D01*
X16556522Y-31230863D01*
X16522305Y-31190000D01*
X16486100Y-31143257D01*
X16463085Y-31017327D01*
X16452456Y-30833650D01*
X16453409Y-30613670D01*
X16465141Y-30378829D01*
X16486847Y-30150572D01*
X16517726Y-29950340D01*
X16556972Y-29799576D01*
X16576064Y-29755589D01*
X16616336Y-29649405D01*
X16623262Y-29603189D01*
X16654204Y-29524399D01*
X16729963Y-29415412D01*
X16743472Y-29399300D01*
X16904700Y-29286671D01*
X17121287Y-29255896D01*
X17389403Y-29306246D01*
X17389403Y-29306246D01*
G37*
X17389403Y-29306246D02*
X17705218Y-29436997D01*
X18064902Y-29647421D01*
X18070091Y-29650838D01*
X18347670Y-29832361D01*
X18591297Y-29987790D01*
X18850661Y-30148717D01*
X18920112Y-30191264D01*
X19025364Y-30247785D01*
X19123656Y-30273269D01*
X19237470Y-30264824D01*
X19389287Y-30219554D01*
X19601590Y-30134567D01*
X19705244Y-30090202D01*
X19876226Y-30030274D01*
X20035444Y-29991456D01*
X20196826Y-29956492D01*
X20331600Y-29917409D01*
X20474963Y-29884762D01*
X20695010Y-29855970D01*
X20966855Y-29832346D01*
X21265613Y-29815207D01*
X21566399Y-29805865D01*
X21844327Y-29805636D01*
X22074512Y-29815835D01*
X22138118Y-29821985D01*
X22664229Y-29893140D01*
X23100407Y-29974641D01*
X23458031Y-30069192D01*
X23748483Y-30179501D01*
X23848810Y-30228859D01*
X24031292Y-30273902D01*
X24230478Y-30222477D01*
X24450134Y-30073554D01*
X24466092Y-30059700D01*
X24564545Y-29992293D01*
X24629545Y-29970800D01*
X24700112Y-29941972D01*
X24708866Y-29928341D01*
X24760371Y-29881785D01*
X24880103Y-29801105D01*
X25046118Y-29698991D01*
X25236469Y-29588132D01*
X25429211Y-29481217D01*
X25602400Y-29390936D01*
X25734089Y-29329977D01*
X25762080Y-29319354D01*
X26016653Y-29259424D01*
X26232506Y-29279891D01*
X26439691Y-29386365D01*
X26538708Y-29464352D01*
X26756644Y-29703539D01*
X26903565Y-29992120D01*
X26984303Y-30342493D01*
X27004386Y-30659219D01*
X26975465Y-31067987D01*
X26877486Y-31415456D01*
X26705113Y-31719459D01*
X26675327Y-31758815D01*
X26571120Y-31897193D01*
X26505072Y-32011053D01*
X26478503Y-32120631D01*
X26492734Y-32246164D01*
X26549084Y-32407889D01*
X26648874Y-32626042D01*
X26744687Y-32821957D01*
X26882265Y-33101163D01*
X26982060Y-33304895D01*
X27050943Y-33448941D01*
X27095785Y-33549086D01*
X27123460Y-33621119D01*
X27140837Y-33680826D01*
X27154788Y-33743994D01*
X27162764Y-33782467D01*
X27201852Y-33945457D01*
X27253958Y-34135297D01*
X27269424Y-34187200D01*
X27324517Y-34426361D01*
X27369561Y-34735236D01*
X27401629Y-35082187D01*
X27417792Y-35435578D01*
X27415196Y-35762000D01*
X27355903Y-36458016D01*
X27240335Y-37070477D01*
X27068130Y-37600654D01*
X26838928Y-38049821D01*
X26717139Y-38225800D01*
X26377378Y-38627271D01*
X26041857Y-38932544D01*
X25712514Y-39140280D01*
X25391287Y-39249138D01*
X25211732Y-39266435D01*
X25024806Y-39248607D01*
X24807646Y-39200868D01*
X24595897Y-39133935D01*
X24425208Y-39058523D01*
X24350349Y-39007466D01*
X24257905Y-38936482D01*
X24198151Y-38911600D01*
X24133175Y-38877314D01*
X24026937Y-38790619D01*
X23904250Y-38675753D01*
X23789928Y-38556957D01*
X23708781Y-38458472D01*
X23684400Y-38409693D01*
X23657021Y-38355475D01*
X23645151Y-38352800D01*
X23608194Y-38306459D01*
X23568387Y-38184638D01*
X23530915Y-38013137D01*
X23500965Y-37817758D01*
X23483722Y-37624301D01*
X23481483Y-37538512D01*
X23505882Y-37214359D01*
X23586935Y-36940670D01*
X23737532Y-36676215D01*
X23761875Y-36641773D01*
X23873637Y-36486521D01*
X23973289Y-36348070D01*
X24019850Y-36283369D01*
X24084068Y-36139010D01*
X24133322Y-35920822D01*
X24164988Y-35655825D01*
X24176444Y-35371038D01*
X24165069Y-35093480D01*
X24148611Y-34956770D01*
X24109851Y-34749206D01*
X24063878Y-34563273D01*
X24020285Y-34437458D01*
X24018044Y-34432842D01*
X23952646Y-34272210D01*
X23913112Y-34136911D01*
X23879848Y-34030161D01*
X23846015Y-33984045D01*
X23845164Y-33984000D01*
X23803967Y-33942422D01*
X23747462Y-33840300D01*
X23738127Y-33819817D01*
X23635375Y-33642382D01*
X23486045Y-33488225D01*
X23268216Y-33336485D01*
X23169684Y-33278930D01*
X22796013Y-33111849D01*
X22379910Y-33012369D01*
X21905378Y-32977366D01*
X21652400Y-32982538D01*
X21221109Y-33026117D01*
X20851552Y-33120703D01*
X20511944Y-33277596D01*
X20170497Y-33508098D01*
X20167359Y-33510511D01*
X19871245Y-33780843D01*
X19652037Y-34083648D01*
X19501699Y-34435149D01*
X19412194Y-34851571D01*
X19388157Y-35083585D01*
X19379397Y-35441620D01*
X19409973Y-35728293D01*
X19477655Y-35937624D01*
X19580213Y-36063637D01*
X19715418Y-36100353D01*
X19764392Y-36092474D01*
X19901984Y-36038269D01*
X19994300Y-35945977D01*
X20049027Y-35798504D01*
X20073852Y-35578760D01*
X20077600Y-35396104D01*
X20083541Y-35142784D01*
X20108960Y-34949234D01*
X20165245Y-34779551D01*
X20263784Y-34597827D01*
X20393083Y-34401503D01*
X20619004Y-34151956D01*
X20906866Y-33977900D01*
X21209227Y-33884760D01*
X21539132Y-33844286D01*
X21841631Y-33872453D01*
X22137589Y-33975316D01*
X22447873Y-34158930D01*
X22634512Y-34298368D01*
X22846022Y-34479969D01*
X22991876Y-34647791D01*
X23095829Y-34836303D01*
X23181637Y-35079979D01*
X23188051Y-35101600D01*
X23287979Y-35603832D01*
X23302623Y-36120275D01*
X23234952Y-36630490D01*
X23087937Y-37114038D01*
X22864547Y-37550481D01*
X22823077Y-37612890D01*
X22432322Y-38102750D01*
X21993584Y-38503749D01*
X21502282Y-38818887D01*
X20953832Y-39051166D01*
X20414888Y-39190455D01*
X20177723Y-39232480D01*
X19985736Y-39254257D01*
X19803835Y-39255845D01*
X19596930Y-39237305D01*
X19329932Y-39198698D01*
X19290200Y-39192404D01*
X18816201Y-39086581D01*
X18405514Y-38927059D01*
X18274200Y-38858323D01*
X18030587Y-38718430D01*
X17865788Y-38614552D01*
X17767332Y-38538095D01*
X17722749Y-38480464D01*
X17721531Y-38477458D01*
X17657722Y-38411434D01*
X17623631Y-38403600D01*
X17552824Y-38366873D01*
X17435246Y-38268639D01*
X17287480Y-38126819D01*
X17126111Y-37959330D01*
X16967725Y-37784093D01*
X16828904Y-37619028D01*
X16726234Y-37482054D01*
X16676300Y-37391090D01*
X16674000Y-37377520D01*
X16656298Y-37300530D01*
X16635600Y-37286000D01*
X16599111Y-37256809D01*
X16550310Y-37161866D01*
X16484393Y-36990114D01*
X16403793Y-36752600D01*
X16311313Y-36404165D01*
X16252846Y-36017241D01*
X16226587Y-35572993D01*
X16230734Y-35052586D01*
X16233559Y-34974600D01*
X16269409Y-34427768D01*
X16335863Y-33948913D01*
X16440738Y-33506997D01*
X16591850Y-33070985D01*
X16797017Y-32609840D01*
X16862591Y-32477200D01*
X16953195Y-32291357D01*
X17001640Y-32167634D01*
X17014037Y-32078752D01*
X16996500Y-31997431D01*
X16979752Y-31954299D01*
X16900026Y-31810910D01*
X16787970Y-31661396D01*
X16765541Y-31636432D01*
X16663296Y-31500283D01*
X16595982Y-31362052D01*
X16588466Y-31333834D01*
X16556522Y-31230863D01*
X16522305Y-31190000D01*
X16486100Y-31143257D01*
X16463085Y-31017327D01*
X16452456Y-30833650D01*
X16453409Y-30613670D01*
X16465141Y-30378829D01*
X16486847Y-30150572D01*
X16517726Y-29950340D01*
X16556972Y-29799576D01*
X16576064Y-29755589D01*
X16616336Y-29649405D01*
X16623262Y-29603189D01*
X16654204Y-29524399D01*
X16729963Y-29415412D01*
X16743472Y-29399300D01*
X16904700Y-29286671D01*
X17121287Y-29255896D01*
X17389403Y-29306246D01*
D16*
X45017071Y-50736048D02*
X45131976Y-50736048D01*
X45246881Y-50793500D01*
X45304333Y-50850952D01*
X45361786Y-50965857D01*
X45419238Y-51195667D01*
X45419238Y-51482929D01*
X45361786Y-51712738D01*
X45304333Y-51827643D01*
X45246881Y-51885095D01*
X45131976Y-51942548D01*
X45017071Y-51942548D01*
X44902167Y-51885095D01*
X44844714Y-51827643D01*
X44787262Y-51712738D01*
X44729810Y-51482929D01*
X44729810Y-51195667D01*
X44787262Y-50965857D01*
X44844714Y-50850952D01*
X44902167Y-50793500D01*
X45017071Y-50736048D01*
X45936310Y-51827643D02*
X45993762Y-51885095D01*
X45936310Y-51942548D01*
X45878858Y-51885095D01*
X45936310Y-51827643D01*
X45936310Y-51942548D01*
X47142810Y-51942548D02*
X46453382Y-51942548D01*
X46798096Y-51942548D02*
X46798096Y-50736048D01*
X46683191Y-50908405D01*
X46568286Y-51023310D01*
X46453382Y-51080762D01*
X48176953Y-51138214D02*
X48176953Y-51942548D01*
X47659882Y-51138214D02*
X47659882Y-51770190D01*
X47717334Y-51885095D01*
X47832239Y-51942548D01*
X48004596Y-51942548D01*
X48119501Y-51885095D01*
X48176953Y-51827643D01*
X43942548Y-73080762D02*
X43942548Y-73770190D01*
X43942548Y-73425476D02*
X42736048Y-73425476D01*
X42908405Y-73540381D01*
X43023310Y-73655286D01*
X43080762Y-73770190D01*
X42850952Y-72621142D02*
X42793500Y-72563690D01*
X42736048Y-72448785D01*
X42736048Y-72161523D01*
X42793500Y-72046619D01*
X42850952Y-71989166D01*
X42965857Y-71931714D01*
X43080762Y-71931714D01*
X43253119Y-71989166D01*
X43942548Y-72678595D01*
X43942548Y-71931714D01*
X42736048Y-71184833D02*
X42736048Y-71069928D01*
X42793500Y-70955023D01*
X42850952Y-70897571D01*
X42965857Y-70840118D01*
X43195667Y-70782666D01*
X43482929Y-70782666D01*
X43712738Y-70840118D01*
X43827643Y-70897571D01*
X43885095Y-70955023D01*
X43942548Y-71069928D01*
X43942548Y-71184833D01*
X43885095Y-71299737D01*
X43827643Y-71357190D01*
X43712738Y-71414642D01*
X43482929Y-71472094D01*
X43195667Y-71472094D01*
X42965857Y-71414642D01*
X42850952Y-71357190D01*
X42793500Y-71299737D01*
X42736048Y-71184833D01*
X43942548Y-67080762D02*
X43942548Y-67770190D01*
X43942548Y-67425476D02*
X42736048Y-67425476D01*
X42908405Y-67540381D01*
X43023310Y-67655286D01*
X43080762Y-67770190D01*
X42850952Y-66621142D02*
X42793500Y-66563690D01*
X42736048Y-66448785D01*
X42736048Y-66161523D01*
X42793500Y-66046619D01*
X42850952Y-65989166D01*
X42965857Y-65931714D01*
X43080762Y-65931714D01*
X43253119Y-65989166D01*
X43942548Y-66678595D01*
X43942548Y-65931714D01*
X42736048Y-65184833D02*
X42736048Y-65069928D01*
X42793500Y-64955023D01*
X42850952Y-64897571D01*
X42965857Y-64840118D01*
X43195667Y-64782666D01*
X43482929Y-64782666D01*
X43712738Y-64840118D01*
X43827643Y-64897571D01*
X43885095Y-64955023D01*
X43942548Y-65069928D01*
X43942548Y-65184833D01*
X43885095Y-65299737D01*
X43827643Y-65357190D01*
X43712738Y-65414642D01*
X43482929Y-65472094D01*
X43195667Y-65472094D01*
X42965857Y-65414642D01*
X42850952Y-65357190D01*
X42793500Y-65299737D01*
X42736048Y-65184833D01*
X41442548Y-73080762D02*
X41442548Y-73770190D01*
X41442548Y-73425476D02*
X40236048Y-73425476D01*
X40408405Y-73540381D01*
X40523310Y-73655286D01*
X40580762Y-73770190D01*
X40350952Y-72621142D02*
X40293500Y-72563690D01*
X40236048Y-72448785D01*
X40236048Y-72161523D01*
X40293500Y-72046619D01*
X40350952Y-71989166D01*
X40465857Y-71931714D01*
X40580762Y-71931714D01*
X40753119Y-71989166D01*
X41442548Y-72678595D01*
X41442548Y-71931714D01*
X40236048Y-71184833D02*
X40236048Y-71069928D01*
X40293500Y-70955023D01*
X40350952Y-70897571D01*
X40465857Y-70840118D01*
X40695667Y-70782666D01*
X40982929Y-70782666D01*
X41212738Y-70840118D01*
X41327643Y-70897571D01*
X41385095Y-70955023D01*
X41442548Y-71069928D01*
X41442548Y-71184833D01*
X41385095Y-71299737D01*
X41327643Y-71357190D01*
X41212738Y-71414642D01*
X40982929Y-71472094D01*
X40695667Y-71472094D01*
X40465857Y-71414642D01*
X40350952Y-71357190D01*
X40293500Y-71299737D01*
X40236048Y-71184833D01*
X41442548Y-67080762D02*
X41442548Y-67770190D01*
X41442548Y-67425476D02*
X40236048Y-67425476D01*
X40408405Y-67540381D01*
X40523310Y-67655286D01*
X40580762Y-67770190D01*
X40350952Y-66621142D02*
X40293500Y-66563690D01*
X40236048Y-66448785D01*
X40236048Y-66161523D01*
X40293500Y-66046619D01*
X40350952Y-65989166D01*
X40465857Y-65931714D01*
X40580762Y-65931714D01*
X40753119Y-65989166D01*
X41442548Y-66678595D01*
X41442548Y-65931714D01*
X40236048Y-65184833D02*
X40236048Y-65069928D01*
X40293500Y-64955023D01*
X40350952Y-64897571D01*
X40465857Y-64840118D01*
X40695667Y-64782666D01*
X40982929Y-64782666D01*
X41212738Y-64840118D01*
X41327643Y-64897571D01*
X41385095Y-64955023D01*
X41442548Y-65069928D01*
X41442548Y-65184833D01*
X41385095Y-65299737D01*
X41327643Y-65357190D01*
X41212738Y-65414642D01*
X40982929Y-65472094D01*
X40695667Y-65472094D01*
X40465857Y-65414642D01*
X40350952Y-65357190D01*
X40293500Y-65299737D01*
X40236048Y-65184833D01*
X51229810Y-41350952D02*
X51287262Y-41293500D01*
X51402167Y-41236048D01*
X51689429Y-41236048D01*
X51804333Y-41293500D01*
X51861786Y-41350952D01*
X51919238Y-41465857D01*
X51919238Y-41580762D01*
X51861786Y-41753119D01*
X51172357Y-42442548D01*
X51919238Y-42442548D01*
X52378858Y-41350952D02*
X52436310Y-41293500D01*
X52551215Y-41236048D01*
X52838477Y-41236048D01*
X52953381Y-41293500D01*
X53010834Y-41350952D01*
X53068286Y-41465857D01*
X53068286Y-41580762D01*
X53010834Y-41753119D01*
X52321405Y-42442548D01*
X53068286Y-42442548D01*
X53585358Y-41638214D02*
X53585358Y-42844714D01*
X53585358Y-41695667D02*
X53700263Y-41638214D01*
X53930072Y-41638214D01*
X54044977Y-41695667D01*
X54102429Y-41753119D01*
X54159882Y-41868024D01*
X54159882Y-42212738D01*
X54102429Y-42327643D01*
X54044977Y-42385095D01*
X53930072Y-42442548D01*
X53700263Y-42442548D01*
X53585358Y-42385095D01*
X51229810Y-33350952D02*
X51287262Y-33293500D01*
X51402167Y-33236048D01*
X51689429Y-33236048D01*
X51804333Y-33293500D01*
X51861786Y-33350952D01*
X51919238Y-33465857D01*
X51919238Y-33580762D01*
X51861786Y-33753119D01*
X51172357Y-34442548D01*
X51919238Y-34442548D01*
X52378858Y-33350952D02*
X52436310Y-33293500D01*
X52551215Y-33236048D01*
X52838477Y-33236048D01*
X52953381Y-33293500D01*
X53010834Y-33350952D01*
X53068286Y-33465857D01*
X53068286Y-33580762D01*
X53010834Y-33753119D01*
X52321405Y-34442548D01*
X53068286Y-34442548D01*
X53585358Y-33638214D02*
X53585358Y-34844714D01*
X53585358Y-33695667D02*
X53700263Y-33638214D01*
X53930072Y-33638214D01*
X54044977Y-33695667D01*
X54102429Y-33753119D01*
X54159882Y-33868024D01*
X54159882Y-34212738D01*
X54102429Y-34327643D01*
X54044977Y-34385095D01*
X53930072Y-34442548D01*
X53700263Y-34442548D01*
X53585358Y-34385095D01*
X36259373Y-41971875D02*
X36340624Y-42053125D01*
X36381249Y-42175000D01*
X36381249Y-42256250D01*
X36340624Y-42378125D01*
X36218749Y-42581250D01*
X36015624Y-42784375D01*
X35812500Y-42906250D01*
X35690624Y-42946875D01*
X35609375Y-42946875D01*
X35487499Y-42906250D01*
X35406249Y-42825000D01*
X35365625Y-42703125D01*
X35365624Y-42621875D01*
X35406250Y-42500000D01*
X35528125Y-42296876D01*
X35731250Y-42093751D01*
X35934374Y-41971875D01*
X36056249Y-41931250D01*
X36137499Y-41931251D01*
X36259373Y-41971875D01*
X36137499Y-43393750D02*
X36137499Y-43474999D01*
X36056249Y-43475000D01*
X36056250Y-43393750D01*
X36137499Y-43393750D01*
X36056249Y-43475000D01*
X36909374Y-44328124D02*
X36421874Y-43840625D01*
X36665624Y-44084375D02*
X37518748Y-43231250D01*
X37315623Y-43271875D01*
X37153123Y-43271875D01*
X37031249Y-43231250D01*
X38209373Y-44490624D02*
X37640623Y-45059374D01*
X37843749Y-44124999D02*
X37396874Y-44571874D01*
X37356249Y-44693749D01*
X37396873Y-44815624D01*
X37518748Y-44937499D01*
X37640624Y-44978124D01*
X37721873Y-44978124D01*
X40919238Y-45942548D02*
X40229810Y-45942548D01*
X40574524Y-45942548D02*
X40574524Y-44736048D01*
X40459619Y-44908405D01*
X40344714Y-45023310D01*
X40229810Y-45080762D01*
X41666119Y-44736048D02*
X41781024Y-44736048D01*
X41895929Y-44793500D01*
X41953381Y-44850952D01*
X42010834Y-44965857D01*
X42068286Y-45195667D01*
X42068286Y-45482929D01*
X42010834Y-45712738D01*
X41953381Y-45827643D01*
X41895929Y-45885095D01*
X41781024Y-45942548D01*
X41666119Y-45942548D01*
X41551215Y-45885095D01*
X41493762Y-45827643D01*
X41436310Y-45712738D01*
X41378858Y-45482929D01*
X41378858Y-45195667D01*
X41436310Y-44965857D01*
X41493762Y-44850952D01*
X41551215Y-44793500D01*
X41666119Y-44736048D01*
X42585358Y-45942548D02*
X42585358Y-44736048D01*
X42700263Y-45482929D02*
X43044977Y-45942548D01*
X43044977Y-45138214D02*
X42585358Y-45597833D01*
X46138214Y-20695667D02*
X46942548Y-20695667D01*
X45678595Y-20982929D02*
X46540381Y-21270190D01*
X46540381Y-20523310D01*
X46827643Y-20063690D02*
X46885095Y-20006238D01*
X46942548Y-20063690D01*
X46885095Y-20121142D01*
X46827643Y-20063690D01*
X46942548Y-20063690D01*
X45736048Y-19604071D02*
X45736048Y-18799738D01*
X46942548Y-19316809D01*
X46138214Y-17823047D02*
X46942548Y-17823047D01*
X46138214Y-18340118D02*
X46770190Y-18340118D01*
X46885095Y-18282666D01*
X46942548Y-18167761D01*
X46942548Y-17995404D01*
X46885095Y-17880499D01*
X46827643Y-17823047D01*
X32638214Y-20695667D02*
X33442548Y-20695667D01*
X32178595Y-20982929D02*
X33040381Y-21270190D01*
X33040381Y-20523310D01*
X33327643Y-20063690D02*
X33385095Y-20006238D01*
X33442548Y-20063690D01*
X33385095Y-20121142D01*
X33327643Y-20063690D01*
X33442548Y-20063690D01*
X32236048Y-19604071D02*
X32236048Y-18799738D01*
X33442548Y-19316809D01*
X32638214Y-17823047D02*
X33442548Y-17823047D01*
X32638214Y-18340118D02*
X33270190Y-18340118D01*
X33385095Y-18282666D01*
X33442548Y-18167761D01*
X33442548Y-17995404D01*
X33385095Y-17880499D01*
X33327643Y-17823047D01*
X34971875Y-32240627D02*
X35053125Y-32159376D01*
X35175000Y-32118751D01*
X35256250Y-32118751D01*
X35378125Y-32159376D01*
X35581250Y-32281251D01*
X35784375Y-32484376D01*
X35906250Y-32687500D01*
X35946875Y-32809376D01*
X35946875Y-32890625D01*
X35906250Y-33012501D01*
X35825000Y-33093751D01*
X35703125Y-33134375D01*
X35621875Y-33134376D01*
X35500000Y-33093750D01*
X35296876Y-32971875D01*
X35093751Y-32768750D01*
X34971875Y-32565626D01*
X34931250Y-32443751D01*
X34931251Y-32362501D01*
X34971875Y-32240627D01*
X36393750Y-32362501D02*
X36474999Y-32362501D01*
X36475000Y-32443751D01*
X36393750Y-32443750D01*
X36393750Y-32362501D01*
X36475000Y-32443751D01*
X37328124Y-31590626D02*
X36840625Y-32078126D01*
X37084375Y-31834376D02*
X36231250Y-30981252D01*
X36271875Y-31184377D01*
X36271875Y-31346877D01*
X36231250Y-31468751D01*
X37490624Y-30290627D02*
X38059374Y-30859377D01*
X37124999Y-30656251D02*
X37571874Y-31103126D01*
X37693749Y-31143751D01*
X37815624Y-31103127D01*
X37937499Y-30981252D01*
X37978124Y-30859376D01*
X37978124Y-30778127D01*
X45295098Y-43392277D02*
X45376348Y-43311026D01*
X45498223Y-43270401D01*
X45579473Y-43270401D01*
X45701348Y-43311026D01*
X45904473Y-43432901D01*
X46107598Y-43636026D01*
X46229473Y-43839150D01*
X46270098Y-43961026D01*
X46270098Y-44042275D01*
X46229473Y-44164151D01*
X46148223Y-44245401D01*
X46026348Y-44286025D01*
X45945098Y-44286026D01*
X45823223Y-44245400D01*
X45620099Y-44123525D01*
X45416974Y-43920400D01*
X45295098Y-43717276D01*
X45254473Y-43595401D01*
X45254474Y-43514151D01*
X45295098Y-43392277D01*
X46716973Y-43514151D02*
X46798222Y-43514151D01*
X46798223Y-43595401D01*
X46716973Y-43595400D01*
X46716973Y-43514151D01*
X46798223Y-43595401D01*
X47651347Y-42742276D02*
X47163848Y-43229776D01*
X47407598Y-42986026D02*
X46554473Y-42132902D01*
X46595098Y-42336027D01*
X46595098Y-42498527D01*
X46554473Y-42620401D01*
X47813847Y-41442277D02*
X48382597Y-42011027D01*
X47448222Y-41807901D02*
X47895097Y-42254776D01*
X48016972Y-42295401D01*
X48138847Y-42254777D01*
X48260722Y-42132902D01*
X48301347Y-42011026D01*
X48301347Y-41929777D01*
X59804333Y-56138214D02*
X59804333Y-56942548D01*
X59517071Y-55678595D02*
X59229810Y-56540381D01*
X59976690Y-56540381D01*
X60436310Y-56827643D02*
X60493762Y-56885095D01*
X60436310Y-56942548D01*
X60378858Y-56885095D01*
X60436310Y-56827643D01*
X60436310Y-56942548D01*
X60895929Y-55736048D02*
X61700262Y-55736048D01*
X61183191Y-56942548D01*
X62159882Y-56942548D02*
X62159882Y-55736048D01*
X62274787Y-56482929D02*
X62619501Y-56942548D01*
X62619501Y-56138214D02*
X62159882Y-56597833D01*
X59919238Y-58942548D02*
X59229810Y-58942548D01*
X59574524Y-58942548D02*
X59574524Y-57736048D01*
X59459619Y-57908405D01*
X59344714Y-58023310D01*
X59229810Y-58080762D01*
X60666119Y-57736048D02*
X60781024Y-57736048D01*
X60895929Y-57793500D01*
X60953381Y-57850952D01*
X61010834Y-57965857D01*
X61068286Y-58195667D01*
X61068286Y-58482929D01*
X61010834Y-58712738D01*
X60953381Y-58827643D01*
X60895929Y-58885095D01*
X60781024Y-58942548D01*
X60666119Y-58942548D01*
X60551215Y-58885095D01*
X60493762Y-58827643D01*
X60436310Y-58712738D01*
X60378858Y-58482929D01*
X60378858Y-58195667D01*
X60436310Y-57965857D01*
X60493762Y-57850952D01*
X60551215Y-57793500D01*
X60666119Y-57736048D01*
X61815167Y-57736048D02*
X61930072Y-57736048D01*
X62044977Y-57793500D01*
X62102429Y-57850952D01*
X62159882Y-57965857D01*
X62217334Y-58195667D01*
X62217334Y-58482929D01*
X62159882Y-58712738D01*
X62102429Y-58827643D01*
X62044977Y-58885095D01*
X61930072Y-58942548D01*
X61815167Y-58942548D01*
X61700263Y-58885095D01*
X61642810Y-58827643D01*
X61585358Y-58712738D01*
X61527906Y-58482929D01*
X61527906Y-58195667D01*
X61585358Y-57965857D01*
X61642810Y-57850952D01*
X61700263Y-57793500D01*
X61815167Y-57736048D01*
X48919238Y-29442548D02*
X48229810Y-29442548D01*
X48574524Y-29442548D02*
X48574524Y-28236048D01*
X48459619Y-28408405D01*
X48344714Y-28523310D01*
X48229810Y-28580762D01*
X49666119Y-28236048D02*
X49781024Y-28236048D01*
X49895929Y-28293500D01*
X49953381Y-28350952D01*
X50010834Y-28465857D01*
X50068286Y-28695667D01*
X50068286Y-28982929D01*
X50010834Y-29212738D01*
X49953381Y-29327643D01*
X49895929Y-29385095D01*
X49781024Y-29442548D01*
X49666119Y-29442548D01*
X49551215Y-29385095D01*
X49493762Y-29327643D01*
X49436310Y-29212738D01*
X49378858Y-28982929D01*
X49378858Y-28695667D01*
X49436310Y-28465857D01*
X49493762Y-28350952D01*
X49551215Y-28293500D01*
X49666119Y-28236048D01*
X50815167Y-28236048D02*
X50930072Y-28236048D01*
X51044977Y-28293500D01*
X51102429Y-28350952D01*
X51159882Y-28465857D01*
X51217334Y-28695667D01*
X51217334Y-28982929D01*
X51159882Y-29212738D01*
X51102429Y-29327643D01*
X51044977Y-29385095D01*
X50930072Y-29442548D01*
X50815167Y-29442548D01*
X50700263Y-29385095D01*
X50642810Y-29327643D01*
X50585358Y-29212738D01*
X50527906Y-28982929D01*
X50527906Y-28695667D01*
X50585358Y-28465857D01*
X50642810Y-28350952D01*
X50700263Y-28293500D01*
X50815167Y-28236048D01*
X41304333Y-28638214D02*
X41304333Y-29442548D01*
X41017071Y-28178595D02*
X40729810Y-29040381D01*
X41476690Y-29040381D01*
X41936310Y-29327643D02*
X41993762Y-29385095D01*
X41936310Y-29442548D01*
X41878858Y-29385095D01*
X41936310Y-29327643D01*
X41936310Y-29442548D01*
X42395929Y-28236048D02*
X43200262Y-28236048D01*
X42683191Y-29442548D01*
X43659882Y-29442548D02*
X43659882Y-28236048D01*
X43774787Y-28982929D02*
X44119501Y-29442548D01*
X44119501Y-28638214D02*
X43659882Y-29097833D01*
X33804333Y-25638214D02*
X33804333Y-26442548D01*
X33517071Y-25178595D02*
X33229810Y-26040381D01*
X33976690Y-26040381D01*
X34436310Y-26327643D02*
X34493762Y-26385095D01*
X34436310Y-26442548D01*
X34378858Y-26385095D01*
X34436310Y-26327643D01*
X34436310Y-26442548D01*
X34895929Y-25236048D02*
X35700262Y-25236048D01*
X35183191Y-26442548D01*
X36159882Y-26442548D02*
X36159882Y-25236048D01*
X36274787Y-25982929D02*
X36619501Y-26442548D01*
X36619501Y-25638214D02*
X36159882Y-26097833D01*
X26804333Y-25638214D02*
X26804333Y-26442548D01*
X26517071Y-25178595D02*
X26229810Y-26040381D01*
X26976690Y-26040381D01*
X27436310Y-26327643D02*
X27493762Y-26385095D01*
X27436310Y-26442548D01*
X27378858Y-26385095D01*
X27436310Y-26327643D01*
X27436310Y-26442548D01*
X27895929Y-25236048D02*
X28700262Y-25236048D01*
X28183191Y-26442548D01*
X29159882Y-26442548D02*
X29159882Y-25236048D01*
X29274787Y-25982929D02*
X29619501Y-26442548D01*
X29619501Y-25638214D02*
X29159882Y-26097833D01*
X59804333Y-25138214D02*
X59804333Y-25942548D01*
X59517071Y-24678595D02*
X59229810Y-25540381D01*
X59976690Y-25540381D01*
X60436310Y-25827643D02*
X60493762Y-25885095D01*
X60436310Y-25942548D01*
X60378858Y-25885095D01*
X60436310Y-25827643D01*
X60436310Y-25942548D01*
X60895929Y-24736048D02*
X61700262Y-24736048D01*
X61183191Y-25942548D01*
X62159882Y-25942548D02*
X62159882Y-24736048D01*
X62274787Y-25482929D02*
X62619501Y-25942548D01*
X62619501Y-25138214D02*
X62159882Y-25597833D01*
X66804333Y-25138214D02*
X66804333Y-25942548D01*
X66517071Y-24678595D02*
X66229810Y-25540381D01*
X66976690Y-25540381D01*
X67436310Y-25827643D02*
X67493762Y-25885095D01*
X67436310Y-25942548D01*
X67378858Y-25885095D01*
X67436310Y-25827643D01*
X67436310Y-25942548D01*
X67895929Y-24736048D02*
X68700262Y-24736048D01*
X68183191Y-25942548D01*
X69159882Y-25942548D02*
X69159882Y-24736048D01*
X69274787Y-25482929D02*
X69619501Y-25942548D01*
X69619501Y-25138214D02*
X69159882Y-25597833D01*
X33638214Y-30695667D02*
X34442548Y-30695667D01*
X33178595Y-30982929D02*
X34040381Y-31270190D01*
X34040381Y-30523310D01*
X33236048Y-30178595D02*
X33236048Y-29374262D01*
X34442548Y-29891333D01*
X33236048Y-28684833D02*
X33236048Y-28569928D01*
X33293500Y-28455023D01*
X33350952Y-28397571D01*
X33465857Y-28340118D01*
X33695667Y-28282666D01*
X33982929Y-28282666D01*
X34212738Y-28340118D01*
X34327643Y-28397571D01*
X34385095Y-28455023D01*
X34442548Y-28569928D01*
X34442548Y-28684833D01*
X34385095Y-28799737D01*
X34327643Y-28857190D01*
X34212738Y-28914642D01*
X33982929Y-28972094D01*
X33695667Y-28972094D01*
X33465857Y-28914642D01*
X33350952Y-28857190D01*
X33293500Y-28799737D01*
X33236048Y-28684833D01*
X29138214Y-30695667D02*
X29942548Y-30695667D01*
X28678595Y-30982929D02*
X29540381Y-31270190D01*
X29540381Y-30523310D01*
X28736048Y-30178595D02*
X28736048Y-29374262D01*
X29942548Y-29891333D01*
X28736048Y-28684833D02*
X28736048Y-28569928D01*
X28793500Y-28455023D01*
X28850952Y-28397571D01*
X28965857Y-28340118D01*
X29195667Y-28282666D01*
X29482929Y-28282666D01*
X29712738Y-28340118D01*
X29827643Y-28397571D01*
X29885095Y-28455023D01*
X29942548Y-28569928D01*
X29942548Y-28684833D01*
X29885095Y-28799737D01*
X29827643Y-28857190D01*
X29712738Y-28914642D01*
X29482929Y-28972094D01*
X29195667Y-28972094D01*
X28965857Y-28914642D01*
X28850952Y-28857190D01*
X28793500Y-28799737D01*
X28736048Y-28684833D01*
X62138214Y-31195667D02*
X62942548Y-31195667D01*
X61678595Y-31482929D02*
X62540381Y-31770190D01*
X62540381Y-31023310D01*
X61736048Y-30678595D02*
X61736048Y-29874262D01*
X62942548Y-30391333D01*
X61736048Y-29184833D02*
X61736048Y-29069928D01*
X61793500Y-28955023D01*
X61850952Y-28897571D01*
X61965857Y-28840118D01*
X62195667Y-28782666D01*
X62482929Y-28782666D01*
X62712738Y-28840118D01*
X62827643Y-28897571D01*
X62885095Y-28955023D01*
X62942548Y-29069928D01*
X62942548Y-29184833D01*
X62885095Y-29299737D01*
X62827643Y-29357190D01*
X62712738Y-29414642D01*
X62482929Y-29472094D01*
X62195667Y-29472094D01*
X61965857Y-29414642D01*
X61850952Y-29357190D01*
X61793500Y-29299737D01*
X61736048Y-29184833D01*
X66638214Y-31195667D02*
X67442548Y-31195667D01*
X66178595Y-31482929D02*
X67040381Y-31770190D01*
X67040381Y-31023310D01*
X66236048Y-30678595D02*
X66236048Y-29874262D01*
X67442548Y-30391333D01*
X66236048Y-29184833D02*
X66236048Y-29069928D01*
X66293500Y-28955023D01*
X66350952Y-28897571D01*
X66465857Y-28840118D01*
X66695667Y-28782666D01*
X66982929Y-28782666D01*
X67212738Y-28840118D01*
X67327643Y-28897571D01*
X67385095Y-28955023D01*
X67442548Y-29069928D01*
X67442548Y-29184833D01*
X67385095Y-29299737D01*
X67327643Y-29357190D01*
X67212738Y-29414642D01*
X66982929Y-29472094D01*
X66695667Y-29472094D01*
X66465857Y-29414642D01*
X66350952Y-29357190D01*
X66293500Y-29299737D01*
X66236048Y-29184833D01*
M02*
