M48
;DRILL file {KiCad 4.0.3-stable} date 09/17/16 11:46:12
;FORMAT={-:-/ absolute / metric / decimal}
FMAT,2
METRIC,TZ
T1C1.000
T2C1.001
T3C1.016
T4C3.000
%
G90
G05
M71
T1
X79.Y-8.5
X81.5Y-8.5
X86.5Y-8.5
X89.Y-8.5
T2
X2.5Y-1.5
X2.5Y-4.04
X2.5Y-6.
X2.5Y-8.54
X7.Y-1.5
X7.Y-4.04
X7.Y-6.
X7.Y-8.54
X11.5Y-1.5
X11.5Y-4.04
X11.5Y-6.
X11.5Y-8.54
X16.Y-1.5
X16.Y-4.04
X16.Y-6.
X16.Y-8.54
X20.5Y-1.5
X20.5Y-4.04
X20.5Y-6.
X20.5Y-8.54
X25.Y-1.5
X25.Y-4.04
X25.Y-6.
X25.Y-8.54
X29.5Y-1.5
X29.5Y-4.04
X29.5Y-6.
X29.5Y-8.54
X34.Y-1.5
X34.Y-4.04
X34.Y-6.
X34.Y-8.54
X38.5Y-1.5
X38.5Y-4.04
X38.5Y-6.
X38.5Y-8.54
X43.Y-1.5
X43.Y-4.04
X43.Y-6.
X43.Y-8.54
X47.5Y-1.5
X47.5Y-4.04
X47.5Y-6.
X47.5Y-8.54
X52.Y-1.5
X52.Y-4.04
X52.Y-6.
X52.Y-8.54
X56.5Y-1.5
X56.5Y-4.04
X56.5Y-6.
X56.5Y-8.54
X61.Y-1.5
X61.Y-4.04
X61.Y-6.
X61.Y-8.54
X65.5Y-1.5
X65.5Y-4.04
X65.5Y-6.
X65.5Y-8.54
X70.Y-1.5
X70.Y-4.04
X70.Y-6.
X70.Y-8.54
T3
X74.5Y-1.42
X74.5Y-3.96
X74.5Y-6.5
T4
X80.25Y-2.
X87.75Y-2.
T0
M30
