G04 #@! TF.FileFunction,Copper,L2,Bot,Signal*
%FSLAX46Y46*%
G04 Gerber Fmt 4.6, Leading zero omitted, Abs format (unit mm)*
G04 Created by KiCad (PCBNEW 4.0.4-stable) date 11/12/16 18:43:52*
%MOMM*%
%LPD*%
G01*
G04 APERTURE LIST*
%ADD10C,0.100000*%
%ADD11C,2.000000*%
%ADD12C,3.500000*%
%ADD13C,1.800000*%
%ADD14O,2.500000X1.500000*%
%ADD15C,3.000000*%
%ADD16R,1.800000X1.600000*%
%ADD17R,0.800000X1.000000*%
%ADD18R,1.300000X1.300000*%
%ADD19C,1.300000*%
%ADD20R,2.000000X2.000000*%
%ADD21C,4.064000*%
%ADD22R,2.032000X2.032000*%
%ADD23O,2.032000X2.032000*%
%ADD24R,1.000000X0.800000*%
%ADD25R,3.200000X1.000000*%
%ADD26R,1.800860X0.800100*%
%ADD27C,1.676400*%
%ADD28R,2.000000X3.000000*%
%ADD29R,5.000000X3.000000*%
%ADD30O,1.501140X2.499360*%
%ADD31R,1.700000X0.650000*%
%ADD32R,3.000000X2.000000*%
%ADD33R,3.000000X5.000000*%
%ADD34C,1.998980*%
%ADD35R,1.600000X1.800000*%
%ADD36C,4.000000*%
%ADD37C,1.500000*%
%ADD38C,0.500000*%
%ADD39C,2.000000*%
%ADD40C,0.250000*%
%ADD41C,1.000000*%
%ADD42C,0.026000*%
G04 APERTURE END LIST*
D10*
D11*
X40640000Y-94996000D03*
X40640000Y-89916000D03*
X40640000Y-79756000D03*
X86360000Y-77216000D03*
X86360000Y-87376000D03*
X86360000Y-97536000D03*
D12*
X18000000Y-50000000D03*
D13*
X18000000Y-60200000D03*
X18000000Y-56000000D03*
D12*
X15800000Y-66000000D03*
X30100000Y-52300000D03*
X30100000Y-63300000D03*
D11*
X38608000Y-38100000D03*
X38608000Y-33020000D03*
X38608000Y-25400000D03*
X58928000Y-25400000D03*
X58928000Y-35560000D03*
X58928000Y-45720000D03*
D12*
X18000000Y-23000000D03*
D13*
X18000000Y-33200000D03*
X18000000Y-29000000D03*
D12*
X15800000Y-39000000D03*
X30100000Y-25300000D03*
X30100000Y-36300000D03*
D14*
X9500000Y-11000000D03*
X9500000Y-13500000D03*
D15*
X3000000Y-12250000D03*
D16*
X37000000Y-10100000D03*
X37000000Y-6900000D03*
D17*
X54900000Y-8500000D03*
X53100000Y-8500000D03*
D18*
X57000000Y-10000000D03*
D19*
X62000000Y-10000000D03*
D20*
X14500000Y-5500000D03*
D11*
X11960000Y-5500000D03*
D20*
X74500000Y-18500000D03*
D11*
X74500000Y-21040000D03*
D20*
X68500000Y-43000000D03*
D11*
X65960000Y-43000000D03*
D20*
X9500000Y-36000000D03*
D11*
X6960000Y-36000000D03*
D20*
X9500000Y-60000000D03*
D11*
X6960000Y-60000000D03*
D20*
X9500000Y-44000000D03*
D11*
X6960000Y-44000000D03*
D20*
X72500000Y-72000000D03*
D11*
X69960000Y-72000000D03*
X38608000Y-64008000D03*
X38608000Y-58928000D03*
X38608000Y-51308000D03*
X58928000Y-51308000D03*
X58928000Y-61468000D03*
X58928000Y-71628000D03*
D21*
X8500000Y-31000000D03*
D14*
X9500000Y-18500000D03*
X9500000Y-21000000D03*
D15*
X3000000Y-19750000D03*
D21*
X3500000Y-50000000D03*
X22500000Y-16000000D03*
X17500000Y-16000000D03*
D22*
X12500000Y-13500000D03*
D23*
X12500000Y-10960000D03*
D21*
X8500000Y-50000000D03*
X3500000Y-31000000D03*
X8500000Y-66000000D03*
X3500000Y-66000000D03*
D24*
X9500000Y-5600000D03*
X9500000Y-7400000D03*
D25*
X22000000Y-6400000D03*
X22000000Y-12600000D03*
D17*
X63900000Y-60500000D03*
X62100000Y-60500000D03*
X76600000Y-21000000D03*
X78400000Y-21000000D03*
D24*
X66000000Y-45600000D03*
X66000000Y-47400000D03*
D17*
X63900000Y-31000000D03*
X62100000Y-31000000D03*
D24*
X36000000Y-69600000D03*
X36000000Y-71400000D03*
D25*
X18000000Y-6400000D03*
X18000000Y-12600000D03*
D17*
X8400000Y-39000000D03*
X6600000Y-39000000D03*
X8400000Y-57000000D03*
X6600000Y-57000000D03*
X8400000Y-41000000D03*
X6600000Y-41000000D03*
X66900000Y-72000000D03*
X65100000Y-72000000D03*
X73900000Y-16000000D03*
X72100000Y-16000000D03*
X72600000Y-68500000D03*
X74400000Y-68500000D03*
D19*
X78500000Y-68500000D03*
D18*
X78500000Y-72000000D03*
D19*
X70000000Y-25000000D03*
D18*
X70000000Y-28500000D03*
D19*
X69500000Y-34500000D03*
D18*
X69500000Y-38000000D03*
X24500000Y-9000000D03*
D19*
X24500000Y-4000000D03*
D18*
X35000000Y-9000000D03*
D19*
X35000000Y-4000000D03*
D14*
X86500000Y-53500000D03*
X86500000Y-51000000D03*
X86500000Y-48500000D03*
X86500000Y-46000000D03*
X86500000Y-41000000D03*
X86500000Y-38500000D03*
X86500000Y-36000000D03*
X86500000Y-33500000D03*
X77500000Y-28500000D03*
X77500000Y-26000000D03*
X86500000Y-72000000D03*
X86500000Y-69500000D03*
D20*
X9500000Y-84000000D03*
D11*
X6960000Y-84000000D03*
D21*
X8500000Y-77000000D03*
X3500000Y-77000000D03*
X8500000Y-89000000D03*
X3500000Y-89000000D03*
D17*
X8400000Y-81000000D03*
X6600000Y-81000000D03*
D12*
X18000000Y-77000000D03*
D13*
X18000000Y-87200000D03*
X18000000Y-83000000D03*
D12*
X15800000Y-93000000D03*
X30100000Y-79300000D03*
X30100000Y-90300000D03*
D14*
X80500000Y-21000000D03*
X80500000Y-18500000D03*
X80500000Y-16000000D03*
X80500000Y-13500000D03*
D15*
X87000000Y-17250000D03*
D26*
X34001140Y-69550000D03*
X34001140Y-71450000D03*
X30998860Y-70500000D03*
D27*
X34000000Y-73040000D03*
X34000000Y-67960000D03*
D28*
X31600000Y-15000000D03*
D29*
X27000000Y-15000000D03*
D14*
X77500000Y-36000000D03*
X77500000Y-33500000D03*
X86500000Y-28500000D03*
X86500000Y-26000000D03*
D17*
X49600000Y-17000000D03*
X51400000Y-17000000D03*
X54900000Y-6500000D03*
X53100000Y-6500000D03*
D24*
X43000000Y-9100000D03*
X43000000Y-10900000D03*
D17*
X51100000Y-13000000D03*
X52900000Y-13000000D03*
X51100000Y-15000000D03*
X52900000Y-15000000D03*
D30*
X48500000Y-7500000D03*
X45960000Y-7500000D03*
X51040000Y-7500000D03*
X44690000Y-10800000D03*
X47230000Y-10800000D03*
X49770000Y-10800000D03*
X52310000Y-10800000D03*
D31*
X62650000Y-27865000D03*
X62650000Y-29135000D03*
X55350000Y-29135000D03*
X55350000Y-27865000D03*
X62650000Y-57365000D03*
X62650000Y-58635000D03*
X55350000Y-58635000D03*
X55350000Y-57365000D03*
X62650000Y-67865000D03*
X62650000Y-69135000D03*
X55350000Y-69135000D03*
X55350000Y-67865000D03*
X67650000Y-19865000D03*
X67650000Y-21135000D03*
X60350000Y-21135000D03*
X60350000Y-19865000D03*
X62350000Y-16135000D03*
X62350000Y-14865000D03*
X69650000Y-14865000D03*
X69650000Y-16135000D03*
D24*
X49500000Y-13100000D03*
X49500000Y-14900000D03*
D32*
X40000000Y-5400000D03*
D33*
X40000000Y-10000000D03*
D17*
X72100000Y-13500000D03*
X73900000Y-13500000D03*
D34*
X44500000Y-14000000D03*
X44500000Y-21500000D03*
D27*
X57703949Y-21296051D03*
X61296051Y-17703949D03*
D35*
X40100000Y-19000000D03*
X36900000Y-19000000D03*
D36*
X85000000Y-60000000D03*
X85000000Y-5000000D03*
X5000000Y-95000000D03*
X5000000Y-5000000D03*
D37*
X59500000Y-18500000D03*
X56000000Y-15000000D03*
X27500000Y-17500000D03*
X35000000Y-17500000D03*
X80500000Y-44000000D03*
X80500000Y-50500000D03*
X82500000Y-44000000D03*
X82500000Y-52000000D03*
X33000000Y-19000000D03*
X26000000Y-19000000D03*
X78500000Y-48500000D03*
X78500000Y-43000000D03*
D38*
X3500000Y-31000000D02*
X3500000Y-26500000D01*
X7500000Y-22500000D02*
X7500000Y-9400000D01*
X3500000Y-26500000D02*
X7500000Y-22500000D01*
X9500000Y-7400000D02*
X7500000Y-9400000D01*
D39*
X35000000Y-4000000D02*
X36400000Y-5400000D01*
X36400000Y-5400000D02*
X40000000Y-5400000D01*
X24500000Y-4000000D02*
X35000000Y-4000000D01*
D38*
X40640000Y-89916000D02*
X41416000Y-89916000D01*
X62350000Y-14865000D02*
X59500000Y-14865000D01*
X59500000Y-14865000D02*
X59500000Y-15000000D01*
X36000000Y-71400000D02*
X36000000Y-73500000D01*
X35000000Y-92500000D02*
X36000000Y-93500000D01*
X35000000Y-74500000D02*
X35000000Y-92500000D01*
X36000000Y-73500000D02*
X35000000Y-74500000D01*
D39*
X62000000Y-10000000D02*
X59500000Y-10000000D01*
X59500000Y-15000000D02*
X59500000Y-10000000D01*
X59500000Y-10000000D02*
X59500000Y-7500000D01*
X40000000Y-5400000D02*
X40900000Y-4500000D01*
X40900000Y-4500000D02*
X47500000Y-4500000D01*
X59500000Y-7500000D02*
X56500000Y-4500000D01*
X56500000Y-4500000D02*
X47500000Y-4500000D01*
D38*
X53900000Y-5500000D02*
X50500000Y-5500000D01*
X50500000Y-5500000D02*
X48500000Y-7500000D01*
X54900000Y-6500000D02*
X53900000Y-5500000D01*
D39*
X48500000Y-5500000D02*
X48500000Y-7500000D01*
X47500000Y-4500000D02*
X48500000Y-5500000D01*
D38*
X52900000Y-15000000D02*
X52900000Y-13000000D01*
X52900000Y-13000000D02*
X54900000Y-11000000D01*
X54900000Y-11000000D02*
X54900000Y-8500000D01*
D39*
X38608000Y-25400000D02*
X49100000Y-25400000D01*
D38*
X54900000Y-8500000D02*
X54900000Y-6500000D01*
X42500000Y-91776000D02*
X40640000Y-89916000D01*
X42500000Y-96000000D02*
X42500000Y-91776000D01*
X41500000Y-97000000D02*
X42500000Y-96000000D01*
X39500000Y-97000000D02*
X41500000Y-97000000D01*
X36000000Y-93500000D02*
X39500000Y-97000000D01*
D39*
X40640000Y-79756000D02*
X41500000Y-78896000D01*
X41500000Y-61820000D02*
X38608000Y-58928000D01*
X41500000Y-78896000D02*
X41500000Y-61820000D01*
X40640000Y-89916000D02*
X40640000Y-79756000D01*
X38608000Y-51308000D02*
X41148000Y-48768000D01*
X41148000Y-48768000D02*
X41148000Y-35372000D01*
D38*
X3500000Y-39000000D02*
X3500000Y-31000000D01*
X6600000Y-39000000D02*
X3500000Y-39000000D01*
X3500000Y-39000000D02*
X3500000Y-41000000D01*
D39*
X38608000Y-32832000D02*
X38608000Y-25212000D01*
X41148000Y-35372000D02*
X38608000Y-32832000D01*
X38608000Y-58740000D02*
X38608000Y-51120000D01*
D38*
X34001140Y-71450000D02*
X35950000Y-71450000D01*
X35950000Y-71450000D02*
X36000000Y-71400000D01*
X3500000Y-66000000D02*
X3500000Y-77000000D01*
X3500000Y-66000000D02*
X3500000Y-57000000D01*
X6600000Y-57000000D02*
X3500000Y-57000000D01*
X3500000Y-57000000D02*
X3500000Y-50000000D01*
X3500000Y-50000000D02*
X3500000Y-41000000D01*
X3500000Y-41000000D02*
X6600000Y-41000000D01*
X3500000Y-81000000D02*
X3500000Y-89000000D01*
X6600000Y-81000000D02*
X3500000Y-81000000D01*
X3500000Y-81000000D02*
X3500000Y-77000000D01*
D39*
X49100000Y-25400000D02*
X59000000Y-15500000D01*
X59000000Y-15500000D02*
X59500000Y-15000000D01*
X30100000Y-25300000D02*
X30100000Y-18400000D01*
X31600000Y-16900000D02*
X31600000Y-15000000D01*
X30100000Y-18400000D02*
X31600000Y-16900000D01*
D38*
X20500000Y-48500000D02*
X20500000Y-53000000D01*
X20500000Y-43700000D02*
X20500000Y-48500000D01*
X15800000Y-39000000D02*
X20500000Y-43700000D01*
X15500000Y-54000000D02*
X9500000Y-60000000D01*
X19500000Y-54000000D02*
X15500000Y-54000000D01*
X20500000Y-53000000D02*
X19500000Y-54000000D01*
X9500000Y-60000000D02*
X9500000Y-65000000D01*
X9500000Y-65000000D02*
X8500000Y-66000000D01*
D40*
X37000000Y-10100000D02*
X37000000Y-11000000D01*
X37000000Y-11000000D02*
X37000000Y-12000000D01*
X37000000Y-12000000D02*
X37000000Y-11000000D01*
D39*
X45500000Y-16500000D02*
X47000000Y-15000000D01*
D41*
X46500000Y-15500000D02*
X45500000Y-16500000D01*
X47230000Y-10800000D02*
X46500000Y-11530000D01*
X46500000Y-11530000D02*
X46500000Y-15500000D01*
X47230000Y-10800000D02*
X47500000Y-11070000D01*
X47500000Y-11070000D02*
X47500000Y-14500000D01*
X47500000Y-14500000D02*
X46500000Y-15500000D01*
X47230000Y-10800000D02*
X47000000Y-11030000D01*
D39*
X35000000Y-9000000D02*
X37000000Y-11000000D01*
X37000000Y-11000000D02*
X37000000Y-11000000D01*
X37000000Y-11000000D02*
X37000000Y-13000000D01*
X37000000Y-13000000D02*
X40500000Y-16500000D01*
X40500000Y-16500000D02*
X45500000Y-16500000D01*
X22000000Y-6400000D02*
X24500000Y-8900000D01*
X24500000Y-8900000D02*
X24500000Y-9000000D01*
X18000000Y-6400000D02*
X22000000Y-6400000D01*
X35000000Y-9000000D02*
X24500000Y-9000000D01*
D38*
X53100000Y-8500000D02*
X52310000Y-9290000D01*
X52310000Y-9290000D02*
X52310000Y-10800000D01*
X63900000Y-31000000D02*
X65000000Y-31000000D01*
X65000000Y-31000000D02*
X66250000Y-32250000D01*
X73900000Y-13500000D02*
X76400000Y-11000000D01*
X83000000Y-13000000D02*
X83000000Y-18500000D01*
X81000000Y-11000000D02*
X83000000Y-13000000D01*
X76400000Y-11000000D02*
X81000000Y-11000000D01*
X74500000Y-18500000D02*
X80500000Y-18500000D01*
D39*
X58928000Y-45720000D02*
X58928000Y-39572000D01*
X58928000Y-39572000D02*
X66250000Y-32250000D01*
X66250000Y-32250000D02*
X68000000Y-30500000D01*
X68000000Y-30500000D02*
X70000000Y-28500000D01*
X77500000Y-28500000D02*
X70000000Y-28500000D01*
X80500000Y-18500000D02*
X83000000Y-18500000D01*
X83000000Y-18500000D02*
X89000000Y-24500000D01*
X86500000Y-28500000D02*
X89000000Y-28500000D01*
X89000000Y-28500000D02*
X89000000Y-24500000D01*
X86500000Y-28500000D02*
X77500000Y-28500000D01*
D38*
X11960000Y-5500000D02*
X11860000Y-5600000D01*
X11860000Y-5600000D02*
X9500000Y-5600000D01*
X76600000Y-21000000D02*
X74540000Y-21000000D01*
X74540000Y-21000000D02*
X74500000Y-21040000D01*
X65960000Y-43000000D02*
X65960000Y-45560000D01*
X65960000Y-45560000D02*
X66000000Y-45600000D01*
X62100000Y-60500000D02*
X62000000Y-60500000D01*
X62000000Y-60500000D02*
X60500000Y-59000000D01*
X60500000Y-59000000D02*
X60500000Y-58500000D01*
X60500000Y-58500000D02*
X61635000Y-57365000D01*
X61635000Y-57365000D02*
X62650000Y-57365000D01*
D39*
X22500000Y-16000000D02*
X23500000Y-15000000D01*
X23500000Y-15000000D02*
X27000000Y-15000000D01*
D38*
X8500000Y-31000000D02*
X9500000Y-32000000D01*
X9500000Y-32000000D02*
X9500000Y-36000000D01*
X6960000Y-36000000D02*
X6960000Y-37560000D01*
X6960000Y-37560000D02*
X8400000Y-39000000D01*
X6960000Y-60000000D02*
X6960000Y-58440000D01*
X6960000Y-58440000D02*
X8400000Y-57000000D01*
D39*
X17500000Y-16000000D02*
X17500000Y-13100000D01*
X17500000Y-13100000D02*
X18000000Y-12600000D01*
X18000000Y-12600000D02*
X22000000Y-12600000D01*
D38*
X23000000Y-10500000D02*
X25000000Y-12500000D01*
X40100000Y-19000000D02*
X33600000Y-12500000D01*
X23000000Y-10500000D02*
X12960000Y-10500000D01*
X25000000Y-12500000D02*
X33600000Y-12500000D01*
X12500000Y-10960000D02*
X14500000Y-8960000D01*
X14500000Y-8960000D02*
X14500000Y-5500000D01*
X12500000Y-10960000D02*
X12960000Y-10500000D01*
X13040000Y-10960000D02*
X12500000Y-10960000D01*
X40100000Y-19000000D02*
X40100000Y-21500000D01*
X40000000Y-21000000D02*
X40000000Y-21500000D01*
X40000000Y-21400000D02*
X40000000Y-21000000D01*
X40100000Y-21500000D02*
X40000000Y-21400000D01*
X60350000Y-19865000D02*
X60350000Y-19350000D01*
X60350000Y-19350000D02*
X59500000Y-18500000D01*
D39*
X38608000Y-64008000D02*
X38608000Y-75392000D01*
X37000000Y-91356000D02*
X40640000Y-94996000D01*
X37000000Y-77000000D02*
X37000000Y-91356000D01*
X38608000Y-75392000D02*
X37000000Y-77000000D01*
X49500000Y-21500000D02*
X44500000Y-21500000D01*
X54500000Y-16500000D02*
X49500000Y-21500000D01*
D38*
X51400000Y-17000000D02*
X54000000Y-17000000D01*
D39*
X57000000Y-14000000D02*
X56000000Y-15000000D01*
X57000000Y-10000000D02*
X57000000Y-14000000D01*
X56000000Y-15000000D02*
X54500000Y-16500000D01*
D38*
X54000000Y-17000000D02*
X54500000Y-17000000D01*
X54500000Y-17000000D02*
X54500000Y-16500000D01*
D39*
X38608000Y-38100000D02*
X36068000Y-35560000D01*
X36068000Y-35560000D02*
X36068000Y-23876000D01*
X36068000Y-23876000D02*
X38444000Y-21500000D01*
X38444000Y-21500000D02*
X40000000Y-21500000D01*
X40000000Y-21500000D02*
X44500000Y-21500000D01*
D38*
X9500000Y-11000000D02*
X12460000Y-11000000D01*
X12460000Y-11000000D02*
X12500000Y-10960000D01*
D39*
X38608000Y-63820000D02*
X36000000Y-61212000D01*
X36000000Y-40520000D02*
X38608000Y-37912000D01*
X36000000Y-61212000D02*
X36000000Y-40520000D01*
D38*
X67650000Y-21135000D02*
X66635000Y-21135000D01*
X68135000Y-14865000D02*
X69650000Y-14865000D01*
X66000000Y-17000000D02*
X68135000Y-14865000D01*
X66000000Y-20500000D02*
X66000000Y-17000000D01*
X66635000Y-21135000D02*
X66000000Y-20500000D01*
X67650000Y-21135000D02*
X69135000Y-21135000D01*
X70000000Y-22000000D02*
X70000000Y-25000000D01*
X69135000Y-21135000D02*
X70000000Y-22000000D01*
X62650000Y-29135000D02*
X65365000Y-29135000D01*
X66500000Y-28000000D02*
X66500000Y-25400000D01*
X65365000Y-29135000D02*
X66500000Y-28000000D01*
X69650000Y-24650000D02*
X70000000Y-25000000D01*
X78400000Y-21000000D02*
X80500000Y-21000000D01*
D39*
X70000000Y-25000000D02*
X71000000Y-26000000D01*
X71000000Y-26000000D02*
X77500000Y-26000000D01*
X70000000Y-25000000D02*
X69600000Y-25400000D01*
X69600000Y-25400000D02*
X66500000Y-25400000D01*
X66500000Y-25400000D02*
X66000000Y-25400000D01*
X66000000Y-25400000D02*
X58928000Y-25400000D01*
X80500000Y-21000000D02*
X80500000Y-26000000D01*
X77500000Y-26000000D02*
X80500000Y-26000000D01*
X80500000Y-26000000D02*
X86500000Y-26000000D01*
D38*
X62650000Y-27865000D02*
X61635000Y-27865000D01*
X61000000Y-29900000D02*
X62100000Y-31000000D01*
X61000000Y-28500000D02*
X61000000Y-29900000D01*
X61635000Y-27865000D02*
X61000000Y-28500000D01*
X55350000Y-57365000D02*
X55350000Y-29135000D01*
X34000000Y-67960000D02*
X34000000Y-69548860D01*
X34000000Y-69548860D02*
X34001140Y-69550000D01*
X34001140Y-69550000D02*
X35950000Y-69550000D01*
X35950000Y-69550000D02*
X36000000Y-69600000D01*
X8500000Y-50000000D02*
X9500000Y-49000000D01*
X9500000Y-49000000D02*
X9500000Y-44000000D01*
X6960000Y-44000000D02*
X6960000Y-42440000D01*
X6960000Y-42440000D02*
X8400000Y-41000000D01*
X72600000Y-68500000D02*
X70500000Y-68500000D01*
X69960000Y-69040000D02*
X69960000Y-72000000D01*
X70500000Y-68500000D02*
X69960000Y-69040000D01*
X65100000Y-72000000D02*
X63500000Y-72000000D01*
X61635000Y-67865000D02*
X62650000Y-67865000D01*
X61000000Y-68500000D02*
X61635000Y-67865000D01*
X61000000Y-69500000D02*
X61000000Y-68500000D01*
X63500000Y-72000000D02*
X61000000Y-69500000D01*
X67650000Y-19865000D02*
X70135000Y-19865000D01*
X72100000Y-17900000D02*
X72100000Y-16000000D01*
X70135000Y-19865000D02*
X72100000Y-17900000D01*
X68235000Y-19865000D02*
X67650000Y-19865000D01*
X9500000Y-21000000D02*
X11000000Y-21000000D01*
X11000000Y-21000000D02*
X12500000Y-19500000D01*
X35000000Y-17500000D02*
X35000000Y-19000000D01*
X35000000Y-19000000D02*
X34000000Y-20000000D01*
X25000000Y-17500000D02*
X27500000Y-17500000D01*
X23000000Y-19500000D02*
X25000000Y-17500000D01*
X12500000Y-19500000D02*
X23000000Y-19500000D01*
X56800000Y-69750000D02*
X56250000Y-70300000D01*
X56250000Y-70300000D02*
X56250000Y-85750000D01*
X56800000Y-59250000D02*
X56250000Y-59800000D01*
X56250000Y-66500000D02*
X56800000Y-67050000D01*
X56250000Y-59800000D02*
X56250000Y-66500000D01*
X56800000Y-30000000D02*
X56250000Y-30550000D01*
X56250000Y-56250000D02*
X56800000Y-56800000D01*
X56250000Y-30550000D02*
X56250000Y-56250000D01*
X56800000Y-22250000D02*
X56250000Y-22800000D01*
X56250000Y-26500000D02*
X56800000Y-27050000D01*
X56250000Y-22800000D02*
X56250000Y-26500000D01*
X56800000Y-22200000D02*
X56800000Y-22250000D01*
X56800000Y-27050000D02*
X56800000Y-30000000D01*
X56800000Y-56800000D02*
X56800000Y-59250000D01*
X56800000Y-67050000D02*
X56800000Y-69750000D01*
X56800000Y-22200000D02*
X57703949Y-21296051D01*
X27500000Y-17500000D02*
X27500000Y-21000000D01*
X19500000Y-29000000D02*
X19500000Y-31700000D01*
X27500000Y-21000000D02*
X19500000Y-29000000D01*
X19500000Y-31700000D02*
X18000000Y-33200000D01*
X27000000Y-78200000D02*
X18000000Y-87200000D01*
X27000000Y-78200000D02*
X27000000Y-74500000D01*
X18000000Y-60200000D02*
X24000000Y-54200000D01*
X24000000Y-39200000D02*
X18000000Y-33200000D01*
X24000000Y-54200000D02*
X24000000Y-39200000D01*
X27000000Y-74500000D02*
X29000000Y-72500000D01*
X56250000Y-85750000D02*
X43000000Y-99000000D01*
X43000000Y-99000000D02*
X38500000Y-99000000D01*
X38500000Y-99000000D02*
X33000000Y-93500000D01*
X33000000Y-93500000D02*
X33000000Y-74500000D01*
X31000000Y-72500000D02*
X33000000Y-74500000D01*
X34000000Y-20000000D02*
X34000000Y-66000000D01*
X31000000Y-72500000D02*
X32500000Y-71000000D01*
X32500000Y-71000000D02*
X32500000Y-69000000D01*
X32500000Y-69000000D02*
X32500000Y-67500000D01*
X32500000Y-67500000D02*
X34000000Y-66000000D01*
X29000000Y-72500000D02*
X31000000Y-72500000D01*
X86500000Y-51000000D02*
X86000000Y-50500000D01*
X86000000Y-50500000D02*
X80500000Y-50500000D01*
X84000000Y-38500000D02*
X86500000Y-38500000D01*
X80500000Y-42000000D02*
X84000000Y-38500000D01*
X80500000Y-44000000D02*
X80500000Y-42000000D01*
X86500000Y-38500000D02*
X86000000Y-38500000D01*
X86500000Y-53500000D02*
X83000000Y-53500000D01*
X83500000Y-41000000D02*
X86500000Y-41000000D01*
X82500000Y-42000000D02*
X83500000Y-41000000D01*
X82500000Y-44000000D02*
X82500000Y-42000000D01*
X82500000Y-53000000D02*
X82500000Y-52000000D01*
X83000000Y-53500000D02*
X82500000Y-53000000D01*
X86500000Y-41000000D02*
X85500000Y-41000000D01*
X33000000Y-19000000D02*
X33500000Y-18500000D01*
X36900000Y-17400000D02*
X36900000Y-19000000D01*
X35500000Y-16000000D02*
X36900000Y-17400000D01*
X34500000Y-16000000D02*
X35500000Y-16000000D01*
X33500000Y-17000000D02*
X34500000Y-16000000D01*
X33500000Y-18500000D02*
X33500000Y-17000000D01*
X30998860Y-70500000D02*
X31500000Y-69998860D01*
X31500000Y-69998860D02*
X31500000Y-67000000D01*
X18000000Y-56000000D02*
X20000000Y-56000000D01*
X23000000Y-53000000D02*
X23000000Y-51000000D01*
X20000000Y-56000000D02*
X23000000Y-53000000D01*
X26000000Y-19000000D02*
X26000000Y-21000000D01*
X26000000Y-21000000D02*
X18000000Y-29000000D01*
X31500000Y-67000000D02*
X33000000Y-65500000D01*
X33000000Y-65500000D02*
X33000000Y-19000000D01*
X18000000Y-83000000D02*
X23000000Y-78000000D01*
X26000000Y-70500000D02*
X30998860Y-70500000D01*
X23000000Y-73500000D02*
X26000000Y-70500000D01*
X23000000Y-78000000D02*
X23000000Y-73500000D01*
X23000000Y-51000000D02*
X23000000Y-40500000D01*
X23000000Y-40500000D02*
X16500000Y-34000000D01*
X16500000Y-34000000D02*
X16500000Y-30500000D01*
X16500000Y-30500000D02*
X18000000Y-29000000D01*
X60350000Y-21135000D02*
X59635000Y-21135000D01*
X59635000Y-21135000D02*
X58000000Y-19500000D01*
X58000000Y-19500000D02*
X57500000Y-19500000D01*
X57500000Y-19500000D02*
X55350000Y-21650000D01*
X55350000Y-21650000D02*
X55350000Y-27865000D01*
X62650000Y-69135000D02*
X67865000Y-69135000D01*
X72900000Y-67000000D02*
X74400000Y-68500000D01*
X70000000Y-67000000D02*
X72900000Y-67000000D01*
X67865000Y-69135000D02*
X70000000Y-67000000D01*
X78500000Y-68500000D02*
X74400000Y-68500000D01*
D39*
X86500000Y-69500000D02*
X79500000Y-69500000D01*
X79500000Y-69500000D02*
X78500000Y-68500000D01*
X89000000Y-82704000D02*
X89000000Y-84736000D01*
X89000000Y-82704000D02*
X89000000Y-69500000D01*
X86500000Y-69500000D02*
X89000000Y-69500000D01*
X89000000Y-84736000D02*
X86360000Y-87376000D01*
D38*
X66900000Y-72000000D02*
X66900000Y-72400000D01*
X66900000Y-72400000D02*
X68000000Y-73500000D01*
X68000000Y-73500000D02*
X71000000Y-73500000D01*
X71000000Y-73500000D02*
X72500000Y-72000000D01*
X72500000Y-72000000D02*
X78500000Y-72000000D01*
D39*
X78500000Y-72000000D02*
X84000000Y-72000000D01*
X86360000Y-97536000D02*
X84000000Y-95176000D01*
X84000000Y-95176000D02*
X84000000Y-72000000D01*
X84000000Y-72000000D02*
X86500000Y-72000000D01*
D38*
X62650000Y-58635000D02*
X63865000Y-58635000D01*
X65500000Y-55000000D02*
X60368000Y-49868000D01*
X65500000Y-57000000D02*
X65500000Y-55000000D01*
X63865000Y-58635000D02*
X65500000Y-57000000D01*
X66000000Y-47400000D02*
X62836000Y-47400000D01*
X62836000Y-47400000D02*
X62000000Y-48236000D01*
D39*
X69500000Y-34500000D02*
X70500000Y-33500000D01*
X70500000Y-33500000D02*
X77500000Y-33500000D01*
X58928000Y-51308000D02*
X60368000Y-49868000D01*
X60368000Y-49868000D02*
X62000000Y-48236000D01*
X62000000Y-42000000D02*
X69500000Y-34500000D01*
X62000000Y-48236000D02*
X62000000Y-42000000D01*
X86500000Y-46000000D02*
X75500000Y-46000000D01*
X75500000Y-46000000D02*
X74000000Y-44500000D01*
X74000000Y-44500000D02*
X74000000Y-35000000D01*
X74000000Y-35000000D02*
X75500000Y-33500000D01*
X75500000Y-33500000D02*
X77500000Y-33500000D01*
X86500000Y-33500000D02*
X77500000Y-33500000D01*
X78500000Y-36500000D02*
X78500000Y-43000000D01*
X78500000Y-36500000D02*
X79000000Y-36000000D01*
X77500000Y-36000000D02*
X79000000Y-36000000D01*
X79000000Y-36000000D02*
X86500000Y-36000000D01*
X78500000Y-48500000D02*
X86500000Y-48500000D01*
X71500000Y-43000000D02*
X71500000Y-45500000D01*
X71500000Y-45500000D02*
X74500000Y-48500000D01*
X74500000Y-48500000D02*
X78500000Y-48500000D01*
X70500000Y-56000000D02*
X70500000Y-52500000D01*
X64000000Y-62500000D02*
X70500000Y-56000000D01*
X70500000Y-52500000D02*
X74500000Y-48500000D01*
D41*
X74500000Y-48500000D02*
X71500000Y-45500000D01*
X71500000Y-45500000D02*
X71500000Y-42500000D01*
D38*
X68500000Y-43000000D02*
X71500000Y-43000000D01*
X71000000Y-42500000D02*
X71500000Y-42500000D01*
X71500000Y-43000000D02*
X71000000Y-42500000D01*
D39*
X69500000Y-38000000D02*
X71500000Y-40000000D01*
X71500000Y-40000000D02*
X71500000Y-42500000D01*
D38*
X63900000Y-60500000D02*
X63900000Y-62600000D01*
X64000000Y-63000000D02*
X64000000Y-62500000D01*
X64000000Y-62700000D02*
X64000000Y-63000000D01*
X63900000Y-62600000D02*
X64000000Y-62700000D01*
D39*
X58928000Y-71628000D02*
X58928000Y-67572000D01*
X58928000Y-67572000D02*
X64000000Y-62500000D01*
D38*
X9500000Y-84000000D02*
X9500000Y-78000000D01*
X9500000Y-78000000D02*
X8500000Y-77000000D01*
X6960000Y-84000000D02*
X6960000Y-82440000D01*
X6960000Y-82440000D02*
X8400000Y-81000000D01*
X72000000Y-14500000D02*
X76500000Y-14500000D01*
X79500000Y-14500000D02*
X80500000Y-13500000D01*
X76500000Y-14500000D02*
X79500000Y-14500000D01*
X69650000Y-16135000D02*
X70365000Y-16135000D01*
X70365000Y-16135000D02*
X72000000Y-14500000D01*
X72000000Y-14500000D02*
X72100000Y-14400000D01*
X72100000Y-14400000D02*
X72100000Y-13500000D01*
X55350000Y-67865000D02*
X55350000Y-58635000D01*
X34000000Y-73040000D02*
X34000000Y-93000000D01*
X34000000Y-93000000D02*
X35000000Y-94000000D01*
X55350000Y-85150000D02*
X55350000Y-69135000D01*
X42500000Y-98000000D02*
X55350000Y-85150000D01*
X39000000Y-98000000D02*
X42500000Y-98000000D01*
X35000000Y-94000000D02*
X39000000Y-98000000D01*
X73900000Y-16000000D02*
X80500000Y-16000000D01*
D39*
X42500000Y-7500000D02*
X42500000Y-7500000D01*
D38*
X43000000Y-9100000D02*
X43000000Y-7500000D01*
X43000000Y-7500000D02*
X42500000Y-8000000D01*
X42500000Y-8000000D02*
X42500000Y-7500000D01*
D39*
X45960000Y-7500000D02*
X42500000Y-7500000D01*
X42500000Y-7500000D02*
X40000000Y-10000000D01*
X40000000Y-12500000D02*
X40000000Y-10000000D01*
X44500000Y-14000000D02*
X41500000Y-14000000D01*
X41500000Y-14000000D02*
X40000000Y-12500000D01*
D38*
X43000000Y-10900000D02*
X44590000Y-10900000D01*
X44590000Y-10900000D02*
X44690000Y-10800000D01*
X49500000Y-13100000D02*
X49500000Y-11070000D01*
X49770000Y-11370000D02*
X49770000Y-10800000D01*
X49500000Y-11070000D02*
X49770000Y-10800000D01*
X50000000Y-11030000D02*
X49770000Y-10800000D01*
X49500000Y-13100000D02*
X51000000Y-13100000D01*
X51000000Y-13100000D02*
X51100000Y-13000000D01*
X49500000Y-14900000D02*
X51000000Y-14900000D01*
X51000000Y-14900000D02*
X51100000Y-15000000D01*
X48500000Y-15900000D02*
X48500000Y-9800000D01*
X48500000Y-9800000D02*
X50800000Y-7500000D01*
X50800000Y-7500000D02*
X51040000Y-7500000D01*
X51040000Y-7500000D02*
X50800000Y-7500000D01*
X52040000Y-6500000D02*
X51040000Y-7500000D01*
X49600000Y-17000000D02*
X48500000Y-15900000D01*
X53100000Y-6500000D02*
X52040000Y-6500000D01*
X61296051Y-17703949D02*
X61296051Y-17188949D01*
X61296051Y-17188949D02*
X62350000Y-16135000D01*
X9500000Y-13500000D02*
X9500000Y-18500000D01*
X9500000Y-13500000D02*
X12500000Y-13500000D01*
D42*
G36*
X63987000Y-22987000D02*
X57500000Y-22987000D01*
X57494942Y-22988024D01*
X57490681Y-22990935D01*
X57487889Y-22995275D01*
X57487000Y-23000000D01*
X57487000Y-99562000D01*
X43241077Y-99562000D01*
X43433456Y-99433456D01*
X56683457Y-86183456D01*
X56816338Y-85984585D01*
X56863000Y-85750000D01*
X56863000Y-70553912D01*
X57233456Y-70183457D01*
X57366338Y-69984585D01*
X57385749Y-69887000D01*
X57413000Y-69750000D01*
X57413000Y-67050000D01*
X57366338Y-66815415D01*
X57312329Y-66734585D01*
X57233456Y-66616543D01*
X56863000Y-66246088D01*
X56863000Y-60053912D01*
X57233456Y-59683457D01*
X57366338Y-59484585D01*
X57385749Y-59387000D01*
X57413000Y-59250000D01*
X57413000Y-56800000D01*
X57366338Y-56565415D01*
X57278303Y-56433662D01*
X57233456Y-56366543D01*
X56863000Y-55996088D01*
X56863000Y-30803912D01*
X57233456Y-30433457D01*
X57366338Y-30234585D01*
X57381363Y-30159049D01*
X57413000Y-30000000D01*
X57413000Y-27050000D01*
X57366338Y-26815415D01*
X57312329Y-26734585D01*
X57233456Y-26616543D01*
X56863000Y-26246088D01*
X56863000Y-23053912D01*
X57233456Y-22683457D01*
X57334141Y-22532771D01*
X57397479Y-22469434D01*
X57463967Y-22497042D01*
X57941834Y-22497459D01*
X58383485Y-22314973D01*
X58721683Y-21977365D01*
X58904940Y-21536033D01*
X58905170Y-21272083D01*
X59138419Y-21505332D01*
X59155201Y-21594520D01*
X59234702Y-21718068D01*
X59356006Y-21800951D01*
X59500000Y-21830111D01*
X61200000Y-21830111D01*
X61334520Y-21804799D01*
X61458068Y-21725298D01*
X61540951Y-21603994D01*
X61570111Y-21460000D01*
X61570111Y-20810000D01*
X61544799Y-20675480D01*
X61465298Y-20551932D01*
X61388956Y-20499770D01*
X61458068Y-20455298D01*
X61540951Y-20333994D01*
X61570111Y-20190000D01*
X61570111Y-19540000D01*
X61544799Y-19405480D01*
X61465298Y-19281932D01*
X61343994Y-19199049D01*
X61200000Y-19169889D01*
X60927174Y-19169889D01*
X60916338Y-19115415D01*
X60839220Y-19000000D01*
X60783457Y-18916544D01*
X60605902Y-18738989D01*
X60612806Y-18722361D01*
X60612808Y-18719751D01*
X60614737Y-18721683D01*
X61056069Y-18904940D01*
X61533936Y-18905357D01*
X61975587Y-18722871D01*
X62313785Y-18385263D01*
X62497042Y-17943931D01*
X62497459Y-17466064D01*
X62318635Y-17033277D01*
X62521801Y-16830111D01*
X63200000Y-16830111D01*
X63334520Y-16804799D01*
X63458068Y-16725298D01*
X63540951Y-16603994D01*
X63570111Y-16460000D01*
X63570111Y-15810000D01*
X63544799Y-15675480D01*
X63465298Y-15551932D01*
X63343994Y-15469049D01*
X63200000Y-15439889D01*
X61500000Y-15439889D01*
X61365480Y-15465201D01*
X61241932Y-15544702D01*
X61159049Y-15666006D01*
X61129889Y-15810000D01*
X61129889Y-16460000D01*
X61134355Y-16483733D01*
X61115497Y-16502591D01*
X61058166Y-16502541D01*
X60616515Y-16685027D01*
X60278317Y-17022635D01*
X60095060Y-17463967D01*
X60094992Y-17541924D01*
X59722361Y-17387194D01*
X59279582Y-17386807D01*
X58870360Y-17555894D01*
X58556995Y-17868713D01*
X58387194Y-18277639D01*
X58386807Y-18720418D01*
X58555894Y-19129640D01*
X58868713Y-19443005D01*
X59129889Y-19551455D01*
X59129889Y-19762977D01*
X58433456Y-19066544D01*
X58234585Y-18933662D01*
X58233549Y-18933456D01*
X58000000Y-18887000D01*
X57500000Y-18887000D01*
X57266451Y-18933456D01*
X57265415Y-18933662D01*
X57066543Y-19066544D01*
X54916544Y-21216544D01*
X54783662Y-21415415D01*
X54737000Y-21650000D01*
X54737000Y-27169889D01*
X54500000Y-27169889D01*
X54365480Y-27195201D01*
X54241932Y-27274702D01*
X54159049Y-27396006D01*
X54129889Y-27540000D01*
X54129889Y-28190000D01*
X54155201Y-28324520D01*
X54234702Y-28448068D01*
X54311044Y-28500230D01*
X54241932Y-28544702D01*
X54159049Y-28666006D01*
X54129889Y-28810000D01*
X54129889Y-29460000D01*
X54155201Y-29594520D01*
X54234702Y-29718068D01*
X54356006Y-29800951D01*
X54500000Y-29830111D01*
X54737000Y-29830111D01*
X54737000Y-56669889D01*
X54500000Y-56669889D01*
X54365480Y-56695201D01*
X54241932Y-56774702D01*
X54159049Y-56896006D01*
X54129889Y-57040000D01*
X54129889Y-57690000D01*
X54155201Y-57824520D01*
X54234702Y-57948068D01*
X54311044Y-58000230D01*
X54241932Y-58044702D01*
X54159049Y-58166006D01*
X54129889Y-58310000D01*
X54129889Y-58960000D01*
X54155201Y-59094520D01*
X54234702Y-59218068D01*
X54356006Y-59300951D01*
X54500000Y-59330111D01*
X54737000Y-59330111D01*
X54737000Y-67169889D01*
X54500000Y-67169889D01*
X54365480Y-67195201D01*
X54241932Y-67274702D01*
X54159049Y-67396006D01*
X54129889Y-67540000D01*
X54129889Y-68190000D01*
X54155201Y-68324520D01*
X54234702Y-68448068D01*
X54311044Y-68500230D01*
X54241932Y-68544702D01*
X54159049Y-68666006D01*
X54129889Y-68810000D01*
X54129889Y-69460000D01*
X54155201Y-69594520D01*
X54234702Y-69718068D01*
X54356006Y-69800951D01*
X54500000Y-69830111D01*
X54737000Y-69830111D01*
X54737000Y-84896087D01*
X42246088Y-97387000D01*
X39253913Y-97387000D01*
X35433459Y-93566547D01*
X35433457Y-93566544D01*
X34613000Y-92746088D01*
X34613000Y-74086414D01*
X34679536Y-74058922D01*
X35017734Y-73721314D01*
X35200991Y-73279982D01*
X35201408Y-72802115D01*
X35018922Y-72360464D01*
X34681314Y-72022266D01*
X34239982Y-71839009D01*
X33762115Y-71838592D01*
X33513000Y-71941524D01*
X33513000Y-70320161D01*
X34901570Y-70320161D01*
X35036090Y-70294849D01*
X35159638Y-70215348D01*
X35184138Y-70179490D01*
X35234702Y-70258068D01*
X35356006Y-70340951D01*
X35500000Y-70370111D01*
X36500000Y-70370111D01*
X36634520Y-70344799D01*
X36758068Y-70265298D01*
X36840951Y-70143994D01*
X36870111Y-70000000D01*
X36870111Y-69200000D01*
X36844799Y-69065480D01*
X36765298Y-68941932D01*
X36643994Y-68859049D01*
X36500000Y-68829889D01*
X35500000Y-68829889D01*
X35365480Y-68855201D01*
X35241932Y-68934702D01*
X35240362Y-68937000D01*
X35195901Y-68937000D01*
X35166868Y-68891882D01*
X35045564Y-68808999D01*
X34901570Y-68779839D01*
X34878967Y-68779839D01*
X35017734Y-68641314D01*
X35200991Y-68199982D01*
X35201408Y-67722115D01*
X35018922Y-67280464D01*
X34681314Y-66942266D01*
X34239982Y-66759009D01*
X34108019Y-66758894D01*
X34433456Y-66433457D01*
X34566338Y-66234585D01*
X34571427Y-66209000D01*
X34613000Y-66000000D01*
X34613000Y-20253912D01*
X35433457Y-19433456D01*
X35513113Y-19314241D01*
X35566338Y-19234585D01*
X35613000Y-19000000D01*
X35613000Y-18450982D01*
X35629640Y-18444106D01*
X35729889Y-18344032D01*
X35729889Y-19900000D01*
X35755201Y-20034520D01*
X35834702Y-20158068D01*
X35956006Y-20240951D01*
X36100000Y-20270111D01*
X37700000Y-20270111D01*
X37834520Y-20244799D01*
X37958068Y-20165298D01*
X38040951Y-20043994D01*
X38070111Y-19900000D01*
X38070111Y-18100000D01*
X38044799Y-17965480D01*
X37965298Y-17841932D01*
X37843994Y-17759049D01*
X37700000Y-17729889D01*
X37513000Y-17729889D01*
X37513000Y-17400000D01*
X37483182Y-17250095D01*
X38929889Y-18696802D01*
X38929889Y-19900000D01*
X38955201Y-20034520D01*
X39021145Y-20137000D01*
X38444000Y-20137000D01*
X37922402Y-20240752D01*
X37480213Y-20536213D01*
X37480211Y-20536216D01*
X35104213Y-22912213D01*
X34808752Y-23354402D01*
X34808752Y-23354403D01*
X34704999Y-23876000D01*
X34705000Y-23876005D01*
X34705000Y-35559995D01*
X34704999Y-35560000D01*
X34759165Y-35832307D01*
X34808752Y-36081598D01*
X34910975Y-36234585D01*
X35104213Y-36523787D01*
X36586426Y-38006000D01*
X35036213Y-39556213D01*
X34740752Y-39998402D01*
X34740752Y-39998403D01*
X34636999Y-40520000D01*
X34637000Y-40520005D01*
X34637000Y-61211995D01*
X34636999Y-61212000D01*
X34668450Y-61370111D01*
X34740752Y-61733598D01*
X35008066Y-62133662D01*
X35036213Y-62175787D01*
X37245000Y-64384574D01*
X37245000Y-74827427D01*
X36036213Y-76036213D01*
X35740752Y-76478402D01*
X35740752Y-76478403D01*
X35636999Y-77000000D01*
X35637000Y-77000005D01*
X35637000Y-91355995D01*
X35636999Y-91356000D01*
X35723538Y-91791059D01*
X35740752Y-91877598D01*
X35882855Y-92090270D01*
X36036213Y-92319787D01*
X39675373Y-95958946D01*
X39866914Y-96150822D01*
X40367693Y-96358763D01*
X40909928Y-96359236D01*
X41411069Y-96152169D01*
X41794822Y-95769086D01*
X42002763Y-95268307D01*
X42003236Y-94726072D01*
X41796169Y-94224931D01*
X41413086Y-93841178D01*
X41412513Y-93840940D01*
X38363000Y-90791426D01*
X38363000Y-77564574D01*
X39571784Y-76355789D01*
X39571787Y-76355787D01*
X39867248Y-75913598D01*
X39971000Y-75392000D01*
X39971000Y-64008616D01*
X39971236Y-63738072D01*
X39939358Y-63660921D01*
X39867248Y-63298403D01*
X39571787Y-62856213D01*
X37363000Y-60647426D01*
X37363000Y-41084574D01*
X39059265Y-39388309D01*
X39379069Y-39256169D01*
X39762822Y-38873086D01*
X39970763Y-38372307D01*
X39971236Y-37830072D01*
X39939358Y-37752921D01*
X39867248Y-37390403D01*
X39571787Y-36948213D01*
X39129597Y-36652752D01*
X39078077Y-36642504D01*
X37431000Y-34995426D01*
X37431000Y-24440574D01*
X39008573Y-22863000D01*
X49499995Y-22863000D01*
X49500000Y-22863001D01*
X49935059Y-22776462D01*
X50021598Y-22759248D01*
X50463787Y-22463787D01*
X55463784Y-17463789D01*
X55463787Y-17463787D01*
X56963784Y-15963789D01*
X56963787Y-15963787D01*
X57963784Y-14963789D01*
X57963787Y-14963787D01*
X58259248Y-14521598D01*
X58259249Y-14521597D01*
X58363001Y-14000000D01*
X58363000Y-13999995D01*
X58363000Y-10000000D01*
X58259248Y-9478402D01*
X57963787Y-9036213D01*
X57521598Y-8740752D01*
X57000000Y-8637000D01*
X56478402Y-8740752D01*
X56036213Y-9036213D01*
X55740752Y-9478402D01*
X55637000Y-10000000D01*
X55637000Y-13435427D01*
X55036213Y-14036213D01*
X55036211Y-14036216D01*
X53536213Y-15536213D01*
X53536211Y-15536216D01*
X52685427Y-16387000D01*
X52148848Y-16387000D01*
X52144799Y-16365480D01*
X52065298Y-16241932D01*
X51943994Y-16159049D01*
X51800000Y-16129889D01*
X51000000Y-16129889D01*
X50865480Y-16155201D01*
X50741932Y-16234702D01*
X50659049Y-16356006D01*
X50629889Y-16500000D01*
X50629889Y-17500000D01*
X50655201Y-17634520D01*
X50734702Y-17758068D01*
X50856006Y-17840951D01*
X51000000Y-17870111D01*
X51202316Y-17870111D01*
X48935426Y-20137000D01*
X41177403Y-20137000D01*
X41240951Y-20043994D01*
X41270111Y-19900000D01*
X41270111Y-18100000D01*
X41244799Y-17965480D01*
X41178855Y-17863000D01*
X45499995Y-17863000D01*
X45500000Y-17863001D01*
X45935059Y-17776462D01*
X46021598Y-17759248D01*
X46463787Y-17463787D01*
X46463788Y-17463786D01*
X47910323Y-16017250D01*
X47920128Y-16066544D01*
X47933662Y-16134585D01*
X48066544Y-16333456D01*
X48829889Y-17096802D01*
X48829889Y-17500000D01*
X48855201Y-17634520D01*
X48934702Y-17758068D01*
X49056006Y-17840951D01*
X49200000Y-17870111D01*
X50000000Y-17870111D01*
X50134520Y-17844799D01*
X50258068Y-17765298D01*
X50340951Y-17643994D01*
X50370111Y-17500000D01*
X50370111Y-16500000D01*
X50344799Y-16365480D01*
X50265298Y-16241932D01*
X50143994Y-16159049D01*
X50000000Y-16129889D01*
X49596802Y-16129889D01*
X49137023Y-15670111D01*
X50000000Y-15670111D01*
X50134520Y-15644799D01*
X50258068Y-15565298D01*
X50293801Y-15513000D01*
X50332335Y-15513000D01*
X50355201Y-15634520D01*
X50434702Y-15758068D01*
X50556006Y-15840951D01*
X50700000Y-15870111D01*
X51500000Y-15870111D01*
X51634520Y-15844799D01*
X51758068Y-15765298D01*
X51840951Y-15643994D01*
X51870111Y-15500000D01*
X51870111Y-14500000D01*
X51844799Y-14365480D01*
X51765298Y-14241932D01*
X51643994Y-14159049D01*
X51500000Y-14129889D01*
X50700000Y-14129889D01*
X50565480Y-14155201D01*
X50441932Y-14234702D01*
X50406199Y-14287000D01*
X50294298Y-14287000D01*
X50265298Y-14241932D01*
X50143994Y-14159049D01*
X50000000Y-14129889D01*
X49113000Y-14129889D01*
X49113000Y-13870111D01*
X50000000Y-13870111D01*
X50134520Y-13844799D01*
X50258068Y-13765298D01*
X50293801Y-13713000D01*
X50405702Y-13713000D01*
X50434702Y-13758068D01*
X50556006Y-13840951D01*
X50700000Y-13870111D01*
X51500000Y-13870111D01*
X51634520Y-13844799D01*
X51758068Y-13765298D01*
X51840951Y-13643994D01*
X51870111Y-13500000D01*
X51870111Y-12500000D01*
X51844799Y-12365480D01*
X51808600Y-12309225D01*
X51883855Y-12359509D01*
X52310000Y-12444274D01*
X52736145Y-12359509D01*
X53097413Y-12118117D01*
X53338805Y-11756849D01*
X53423570Y-11330704D01*
X53423570Y-10269296D01*
X53338805Y-9843151D01*
X53097413Y-9481883D01*
X53030044Y-9436868D01*
X53096801Y-9370111D01*
X53500000Y-9370111D01*
X53634520Y-9344799D01*
X53758068Y-9265298D01*
X53840951Y-9143994D01*
X53870111Y-9000000D01*
X53870111Y-8000000D01*
X53844799Y-7865480D01*
X53765298Y-7741932D01*
X53643994Y-7659049D01*
X53500000Y-7629889D01*
X52700000Y-7629889D01*
X52565480Y-7655201D01*
X52441932Y-7734702D01*
X52359049Y-7856006D01*
X52329889Y-8000000D01*
X52329889Y-8403198D01*
X51876544Y-8856544D01*
X51743662Y-9055415D01*
X51697000Y-9290000D01*
X51697000Y-9365344D01*
X51522587Y-9481883D01*
X51281195Y-9843151D01*
X51196430Y-10269296D01*
X51196430Y-11330704D01*
X51281195Y-11756849D01*
X51522587Y-12118117D01*
X51557689Y-12141572D01*
X51500000Y-12129889D01*
X50700000Y-12129889D01*
X50565480Y-12155201D01*
X50441932Y-12234702D01*
X50359049Y-12356006D01*
X50332522Y-12487000D01*
X50294298Y-12487000D01*
X50265298Y-12441932D01*
X50156274Y-12367440D01*
X50196145Y-12359509D01*
X50557413Y-12118117D01*
X50798805Y-11756849D01*
X50883570Y-11330704D01*
X50883570Y-10269296D01*
X50798805Y-9843151D01*
X50557413Y-9481883D01*
X50196145Y-9240491D01*
X49971171Y-9195741D01*
X50310260Y-8856653D01*
X50613855Y-9059509D01*
X51040000Y-9144274D01*
X51466145Y-9059509D01*
X51827413Y-8818117D01*
X52068805Y-8456849D01*
X52153570Y-8030704D01*
X52153570Y-7253343D01*
X52293913Y-7113000D01*
X52351152Y-7113000D01*
X52355201Y-7134520D01*
X52434702Y-7258068D01*
X52556006Y-7340951D01*
X52700000Y-7370111D01*
X53500000Y-7370111D01*
X53634520Y-7344799D01*
X53758068Y-7265298D01*
X53840951Y-7143994D01*
X53870111Y-7000000D01*
X53870111Y-6000000D01*
X53844799Y-5865480D01*
X53765298Y-5741932D01*
X53643994Y-5659049D01*
X53500000Y-5629889D01*
X52700000Y-5629889D01*
X52565480Y-5655201D01*
X52441932Y-5734702D01*
X52359049Y-5856006D01*
X52352772Y-5887000D01*
X52040000Y-5887000D01*
X51805415Y-5933662D01*
X51725759Y-5986887D01*
X51630670Y-6050423D01*
X51466145Y-5940491D01*
X51040000Y-5855726D01*
X50613855Y-5940491D01*
X50252587Y-6181883D01*
X50011195Y-6543151D01*
X49926430Y-6969296D01*
X49926430Y-7506657D01*
X48066544Y-9366544D01*
X47998099Y-9468978D01*
X47656145Y-9240491D01*
X47230000Y-9155726D01*
X46803855Y-9240491D01*
X46442587Y-9481883D01*
X46201195Y-9843151D01*
X46116430Y-10269296D01*
X46116430Y-10693104D01*
X45889767Y-10919767D01*
X45803570Y-11048770D01*
X45803570Y-10269296D01*
X45718805Y-9843151D01*
X45477413Y-9481883D01*
X45116145Y-9240491D01*
X44690000Y-9155726D01*
X44263855Y-9240491D01*
X43902587Y-9481883D01*
X43861252Y-9543745D01*
X43870111Y-9500000D01*
X43870111Y-8863000D01*
X45239759Y-8863000D01*
X45533855Y-9059509D01*
X45960000Y-9144274D01*
X46386145Y-9059509D01*
X46747413Y-8818117D01*
X46988805Y-8456849D01*
X47014400Y-8328176D01*
X47219248Y-8021598D01*
X47323000Y-7500000D01*
X47219248Y-6978402D01*
X47014400Y-6671824D01*
X46988805Y-6543151D01*
X46747413Y-6181883D01*
X46386145Y-5940491D01*
X45960000Y-5855726D01*
X45533855Y-5940491D01*
X45239759Y-6137000D01*
X42500005Y-6137000D01*
X42500000Y-6136999D01*
X42117926Y-6212999D01*
X41978402Y-6240752D01*
X41763000Y-6384679D01*
X41763000Y-6250000D01*
X41761976Y-6244942D01*
X41759065Y-6240681D01*
X41754725Y-6237889D01*
X41750000Y-6237000D01*
X38250000Y-6237000D01*
X38244942Y-6238024D01*
X38240681Y-6240935D01*
X38237889Y-6245275D01*
X38237000Y-6250000D01*
X38237000Y-7241920D01*
X38159049Y-7356006D01*
X38129889Y-7500000D01*
X38129889Y-9017738D01*
X38043994Y-8959049D01*
X37900000Y-8929889D01*
X36857463Y-8929889D01*
X35963787Y-8036213D01*
X35879492Y-7979889D01*
X35521598Y-7740752D01*
X35435059Y-7723538D01*
X35000000Y-7636999D01*
X34999995Y-7637000D01*
X25164573Y-7637000D01*
X23970111Y-6442537D01*
X23970111Y-5900000D01*
X23944799Y-5765480D01*
X23865298Y-5641932D01*
X23743994Y-5559049D01*
X23600000Y-5529889D01*
X23057463Y-5529889D01*
X22963787Y-5436213D01*
X22857830Y-5365415D01*
X22521598Y-5140752D01*
X22435059Y-5123538D01*
X22000000Y-5036999D01*
X21999995Y-5037000D01*
X18000000Y-5037000D01*
X17478402Y-5140752D01*
X17036213Y-5436213D01*
X16973621Y-5529889D01*
X16400000Y-5529889D01*
X16265480Y-5555201D01*
X16141932Y-5634702D01*
X16059049Y-5756006D01*
X16029889Y-5900000D01*
X16029889Y-6900000D01*
X16055201Y-7034520D01*
X16134702Y-7158068D01*
X16256006Y-7240951D01*
X16400000Y-7270111D01*
X16973621Y-7270111D01*
X17036213Y-7363787D01*
X17478402Y-7659248D01*
X18000000Y-7763000D01*
X21435426Y-7763000D01*
X23334845Y-9662418D01*
X23536213Y-9963787D01*
X23978402Y-10259248D01*
X24500000Y-10363000D01*
X34435426Y-10363000D01*
X35637000Y-11564573D01*
X35637000Y-12999995D01*
X35636999Y-13000000D01*
X35703553Y-13334585D01*
X35740752Y-13521598D01*
X36035687Y-13963000D01*
X36036213Y-13963787D01*
X39536211Y-17463784D01*
X39536213Y-17463787D01*
X39895641Y-17703949D01*
X39934463Y-17729889D01*
X39696802Y-17729889D01*
X34033456Y-12066544D01*
X33834585Y-11933662D01*
X33831257Y-11933000D01*
X33600000Y-11887000D01*
X25500000Y-11887000D01*
X25294742Y-11927829D01*
X23433456Y-10066544D01*
X23234585Y-9933662D01*
X23000000Y-9887000D01*
X14439913Y-9887000D01*
X14933456Y-9393457D01*
X15066338Y-9194585D01*
X15074012Y-9156006D01*
X15113000Y-8960000D01*
X15113000Y-6870111D01*
X15500000Y-6870111D01*
X15634520Y-6844799D01*
X15758068Y-6765298D01*
X15840951Y-6643994D01*
X15870111Y-6500000D01*
X15870111Y-4500000D01*
X15844799Y-4365480D01*
X15765298Y-4241932D01*
X15643994Y-4159049D01*
X15500000Y-4129889D01*
X13500000Y-4129889D01*
X13365480Y-4155201D01*
X13241932Y-4234702D01*
X13159049Y-4356006D01*
X13129889Y-4500000D01*
X13129889Y-4762136D01*
X13116169Y-4728931D01*
X12733086Y-4345178D01*
X12232307Y-4137237D01*
X11690072Y-4136764D01*
X11188931Y-4343831D01*
X10805178Y-4726914D01*
X10697181Y-4987000D01*
X10294298Y-4987000D01*
X10265298Y-4941932D01*
X10143994Y-4859049D01*
X10000000Y-4829889D01*
X9000000Y-4829889D01*
X8865480Y-4855201D01*
X8741932Y-4934702D01*
X8659049Y-5056006D01*
X8629889Y-5200000D01*
X8629889Y-6000000D01*
X8655201Y-6134520D01*
X8734702Y-6258068D01*
X8856006Y-6340951D01*
X9000000Y-6370111D01*
X10000000Y-6370111D01*
X10134520Y-6344799D01*
X10258068Y-6265298D01*
X10293801Y-6213000D01*
X10779837Y-6213000D01*
X10803831Y-6271069D01*
X11186914Y-6654822D01*
X11687693Y-6862763D01*
X12229928Y-6863236D01*
X12731069Y-6656169D01*
X13114822Y-6273086D01*
X13129889Y-6236801D01*
X13129889Y-6500000D01*
X13155201Y-6634520D01*
X13234702Y-6758068D01*
X13356006Y-6840951D01*
X13500000Y-6870111D01*
X13887000Y-6870111D01*
X13887000Y-8706087D01*
X12931609Y-9661479D01*
X12527016Y-9581000D01*
X12472984Y-9581000D01*
X11945264Y-9685970D01*
X11497884Y-9984900D01*
X11229209Y-10387000D01*
X10934881Y-10387000D01*
X10818611Y-10212990D01*
X10457528Y-9971722D01*
X10031601Y-9887000D01*
X8968399Y-9887000D01*
X8542472Y-9971722D01*
X8181389Y-10212990D01*
X7940121Y-10574073D01*
X7855399Y-11000000D01*
X7940121Y-11425927D01*
X8181389Y-11787010D01*
X8542472Y-12028278D01*
X8968399Y-12113000D01*
X10031601Y-12113000D01*
X10457528Y-12028278D01*
X10818611Y-11787010D01*
X10934881Y-11613000D01*
X11282663Y-11613000D01*
X11497884Y-11935100D01*
X11765460Y-12113889D01*
X11484000Y-12113889D01*
X11349480Y-12139201D01*
X11225932Y-12218702D01*
X11143049Y-12340006D01*
X11113889Y-12484000D01*
X11113889Y-12887000D01*
X10934881Y-12887000D01*
X10818611Y-12712990D01*
X10457528Y-12471722D01*
X10031601Y-12387000D01*
X8968399Y-12387000D01*
X8542472Y-12471722D01*
X8181389Y-12712990D01*
X7940121Y-13074073D01*
X7855399Y-13500000D01*
X7940121Y-13925927D01*
X8181389Y-14287010D01*
X8542472Y-14528278D01*
X8887000Y-14596809D01*
X8887000Y-17403191D01*
X8542472Y-17471722D01*
X8181389Y-17712990D01*
X7940121Y-18074073D01*
X7855399Y-18500000D01*
X7940121Y-18925927D01*
X8181389Y-19287010D01*
X8542472Y-19528278D01*
X8968399Y-19613000D01*
X10031601Y-19613000D01*
X10457528Y-19528278D01*
X10818611Y-19287010D01*
X11059879Y-18925927D01*
X11144601Y-18500000D01*
X11059879Y-18074073D01*
X10818611Y-17712990D01*
X10457528Y-17471722D01*
X10113000Y-17403191D01*
X10113000Y-14596809D01*
X10457528Y-14528278D01*
X10818611Y-14287010D01*
X10934881Y-14113000D01*
X11113889Y-14113000D01*
X11113889Y-14516000D01*
X11139201Y-14650520D01*
X11218702Y-14774068D01*
X11340006Y-14856951D01*
X11484000Y-14886111D01*
X13516000Y-14886111D01*
X13650520Y-14860799D01*
X13774068Y-14781298D01*
X13856951Y-14659994D01*
X13886111Y-14516000D01*
X13886111Y-12484000D01*
X13860799Y-12349480D01*
X13781298Y-12225932D01*
X13659994Y-12143049D01*
X13516000Y-12113889D01*
X13234540Y-12113889D01*
X13502116Y-11935100D01*
X13801046Y-11487720D01*
X13875582Y-11113000D01*
X22746088Y-11113000D01*
X23362977Y-11729889D01*
X23026379Y-11729889D01*
X22963787Y-11636213D01*
X22521598Y-11340752D01*
X22000000Y-11237000D01*
X18000005Y-11237000D01*
X18000000Y-11236999D01*
X17564941Y-11323538D01*
X17478402Y-11340752D01*
X17036213Y-11636213D01*
X17036211Y-11636216D01*
X16942538Y-11729889D01*
X16400000Y-11729889D01*
X16265480Y-11755201D01*
X16141932Y-11834702D01*
X16059049Y-11956006D01*
X16029889Y-12100000D01*
X16029889Y-13100000D01*
X16055201Y-13234520D01*
X16134702Y-13358068D01*
X16137000Y-13359638D01*
X16137000Y-13976534D01*
X15470802Y-14641570D01*
X15105416Y-15521515D01*
X15104585Y-16474305D01*
X15468434Y-17354886D01*
X16141570Y-18029198D01*
X17021515Y-18394584D01*
X17974305Y-18395415D01*
X18854886Y-18031566D01*
X19529198Y-17358430D01*
X19894584Y-16478485D01*
X19895415Y-15525695D01*
X19531566Y-14645114D01*
X18863000Y-13975380D01*
X18863000Y-13963000D01*
X21158265Y-13963000D01*
X21145114Y-13968434D01*
X20470802Y-14641570D01*
X20105416Y-15521515D01*
X20104585Y-16474305D01*
X20468434Y-17354886D01*
X21141570Y-18029198D01*
X22021515Y-18394584D01*
X22974305Y-18395415D01*
X23423119Y-18209969D01*
X22746088Y-18887000D01*
X12500000Y-18887000D01*
X12266451Y-18933456D01*
X12265415Y-18933662D01*
X12066543Y-19066544D01*
X10859261Y-20273827D01*
X10818611Y-20212990D01*
X10457528Y-19971722D01*
X10031601Y-19887000D01*
X8968399Y-19887000D01*
X8542472Y-19971722D01*
X8181389Y-20212990D01*
X7940121Y-20574073D01*
X7855399Y-21000000D01*
X7940121Y-21425927D01*
X8181389Y-21787010D01*
X8542472Y-22028278D01*
X8968399Y-22113000D01*
X10031601Y-22113000D01*
X10457528Y-22028278D01*
X10818611Y-21787010D01*
X10934881Y-21613000D01*
X11000000Y-21613000D01*
X11234585Y-21566338D01*
X11433456Y-21433456D01*
X12753913Y-20113000D01*
X14368616Y-20113000D01*
X5490808Y-28990808D01*
X5487955Y-28995108D01*
X5487000Y-29000000D01*
X5487000Y-91500000D01*
X5488024Y-91505058D01*
X5490808Y-91509192D01*
X10490808Y-96509192D01*
X10495108Y-96512045D01*
X10500000Y-96513000D01*
X33500000Y-96513000D01*
X33505058Y-96511976D01*
X33509319Y-96509065D01*
X33512111Y-96504725D01*
X33513000Y-96500000D01*
X33513000Y-94879912D01*
X38066544Y-99433457D01*
X38258923Y-99562000D01*
X438000Y-99562000D01*
X438000Y-95467968D01*
X2636591Y-95467968D01*
X2995578Y-96336783D01*
X3659720Y-97002086D01*
X4527908Y-97362589D01*
X5467968Y-97363409D01*
X6336783Y-97004422D01*
X7002086Y-96340280D01*
X7362589Y-95472092D01*
X7363409Y-94532032D01*
X7004422Y-93663217D01*
X6340280Y-92997914D01*
X5472092Y-92637411D01*
X4532032Y-92636591D01*
X3663217Y-92995578D01*
X2997914Y-93659720D01*
X2637411Y-94527908D01*
X2636591Y-95467968D01*
X438000Y-95467968D01*
X438000Y-20118948D01*
X1136678Y-20118948D01*
X1419705Y-20803926D01*
X1943318Y-21328453D01*
X2627801Y-21612676D01*
X3368948Y-21613322D01*
X4053926Y-21330295D01*
X4578453Y-20806682D01*
X4862676Y-20122199D01*
X4863322Y-19381052D01*
X4580295Y-18696074D01*
X4056682Y-18171547D01*
X3372199Y-17887324D01*
X2631052Y-17886678D01*
X1946074Y-18169705D01*
X1421547Y-18693318D01*
X1137324Y-19377801D01*
X1136678Y-20118948D01*
X438000Y-20118948D01*
X438000Y-12618948D01*
X1136678Y-12618948D01*
X1419705Y-13303926D01*
X1943318Y-13828453D01*
X2627801Y-14112676D01*
X3368948Y-14113322D01*
X4053926Y-13830295D01*
X4578453Y-13306682D01*
X4862676Y-12622199D01*
X4863322Y-11881052D01*
X4580295Y-11196074D01*
X4056682Y-10671547D01*
X3372199Y-10387324D01*
X2631052Y-10386678D01*
X1946074Y-10669705D01*
X1421547Y-11193318D01*
X1137324Y-11877801D01*
X1136678Y-12618948D01*
X438000Y-12618948D01*
X438000Y-5467968D01*
X2636591Y-5467968D01*
X2995578Y-6336783D01*
X3659720Y-7002086D01*
X4527908Y-7362589D01*
X5467968Y-7363409D01*
X6336783Y-7004422D01*
X7002086Y-6340280D01*
X7362589Y-5472092D01*
X7363409Y-4532032D01*
X7004422Y-3663217D01*
X6340280Y-2997914D01*
X5472092Y-2637411D01*
X4532032Y-2636591D01*
X3663217Y-2995578D01*
X2997914Y-3659720D01*
X2637411Y-4527908D01*
X2636591Y-5467968D01*
X438000Y-5467968D01*
X438000Y-438000D01*
X63987000Y-438000D01*
X63987000Y-22987000D01*
X63987000Y-22987000D01*
G37*
X63987000Y-22987000D02*
X57500000Y-22987000D01*
X57494942Y-22988024D01*
X57490681Y-22990935D01*
X57487889Y-22995275D01*
X57487000Y-23000000D01*
X57487000Y-99562000D01*
X43241077Y-99562000D01*
X43433456Y-99433456D01*
X56683457Y-86183456D01*
X56816338Y-85984585D01*
X56863000Y-85750000D01*
X56863000Y-70553912D01*
X57233456Y-70183457D01*
X57366338Y-69984585D01*
X57385749Y-69887000D01*
X57413000Y-69750000D01*
X57413000Y-67050000D01*
X57366338Y-66815415D01*
X57312329Y-66734585D01*
X57233456Y-66616543D01*
X56863000Y-66246088D01*
X56863000Y-60053912D01*
X57233456Y-59683457D01*
X57366338Y-59484585D01*
X57385749Y-59387000D01*
X57413000Y-59250000D01*
X57413000Y-56800000D01*
X57366338Y-56565415D01*
X57278303Y-56433662D01*
X57233456Y-56366543D01*
X56863000Y-55996088D01*
X56863000Y-30803912D01*
X57233456Y-30433457D01*
X57366338Y-30234585D01*
X57381363Y-30159049D01*
X57413000Y-30000000D01*
X57413000Y-27050000D01*
X57366338Y-26815415D01*
X57312329Y-26734585D01*
X57233456Y-26616543D01*
X56863000Y-26246088D01*
X56863000Y-23053912D01*
X57233456Y-22683457D01*
X57334141Y-22532771D01*
X57397479Y-22469434D01*
X57463967Y-22497042D01*
X57941834Y-22497459D01*
X58383485Y-22314973D01*
X58721683Y-21977365D01*
X58904940Y-21536033D01*
X58905170Y-21272083D01*
X59138419Y-21505332D01*
X59155201Y-21594520D01*
X59234702Y-21718068D01*
X59356006Y-21800951D01*
X59500000Y-21830111D01*
X61200000Y-21830111D01*
X61334520Y-21804799D01*
X61458068Y-21725298D01*
X61540951Y-21603994D01*
X61570111Y-21460000D01*
X61570111Y-20810000D01*
X61544799Y-20675480D01*
X61465298Y-20551932D01*
X61388956Y-20499770D01*
X61458068Y-20455298D01*
X61540951Y-20333994D01*
X61570111Y-20190000D01*
X61570111Y-19540000D01*
X61544799Y-19405480D01*
X61465298Y-19281932D01*
X61343994Y-19199049D01*
X61200000Y-19169889D01*
X60927174Y-19169889D01*
X60916338Y-19115415D01*
X60839220Y-19000000D01*
X60783457Y-18916544D01*
X60605902Y-18738989D01*
X60612806Y-18722361D01*
X60612808Y-18719751D01*
X60614737Y-18721683D01*
X61056069Y-18904940D01*
X61533936Y-18905357D01*
X61975587Y-18722871D01*
X62313785Y-18385263D01*
X62497042Y-17943931D01*
X62497459Y-17466064D01*
X62318635Y-17033277D01*
X62521801Y-16830111D01*
X63200000Y-16830111D01*
X63334520Y-16804799D01*
X63458068Y-16725298D01*
X63540951Y-16603994D01*
X63570111Y-16460000D01*
X63570111Y-15810000D01*
X63544799Y-15675480D01*
X63465298Y-15551932D01*
X63343994Y-15469049D01*
X63200000Y-15439889D01*
X61500000Y-15439889D01*
X61365480Y-15465201D01*
X61241932Y-15544702D01*
X61159049Y-15666006D01*
X61129889Y-15810000D01*
X61129889Y-16460000D01*
X61134355Y-16483733D01*
X61115497Y-16502591D01*
X61058166Y-16502541D01*
X60616515Y-16685027D01*
X60278317Y-17022635D01*
X60095060Y-17463967D01*
X60094992Y-17541924D01*
X59722361Y-17387194D01*
X59279582Y-17386807D01*
X58870360Y-17555894D01*
X58556995Y-17868713D01*
X58387194Y-18277639D01*
X58386807Y-18720418D01*
X58555894Y-19129640D01*
X58868713Y-19443005D01*
X59129889Y-19551455D01*
X59129889Y-19762977D01*
X58433456Y-19066544D01*
X58234585Y-18933662D01*
X58233549Y-18933456D01*
X58000000Y-18887000D01*
X57500000Y-18887000D01*
X57266451Y-18933456D01*
X57265415Y-18933662D01*
X57066543Y-19066544D01*
X54916544Y-21216544D01*
X54783662Y-21415415D01*
X54737000Y-21650000D01*
X54737000Y-27169889D01*
X54500000Y-27169889D01*
X54365480Y-27195201D01*
X54241932Y-27274702D01*
X54159049Y-27396006D01*
X54129889Y-27540000D01*
X54129889Y-28190000D01*
X54155201Y-28324520D01*
X54234702Y-28448068D01*
X54311044Y-28500230D01*
X54241932Y-28544702D01*
X54159049Y-28666006D01*
X54129889Y-28810000D01*
X54129889Y-29460000D01*
X54155201Y-29594520D01*
X54234702Y-29718068D01*
X54356006Y-29800951D01*
X54500000Y-29830111D01*
X54737000Y-29830111D01*
X54737000Y-56669889D01*
X54500000Y-56669889D01*
X54365480Y-56695201D01*
X54241932Y-56774702D01*
X54159049Y-56896006D01*
X54129889Y-57040000D01*
X54129889Y-57690000D01*
X54155201Y-57824520D01*
X54234702Y-57948068D01*
X54311044Y-58000230D01*
X54241932Y-58044702D01*
X54159049Y-58166006D01*
X54129889Y-58310000D01*
X54129889Y-58960000D01*
X54155201Y-59094520D01*
X54234702Y-59218068D01*
X54356006Y-59300951D01*
X54500000Y-59330111D01*
X54737000Y-59330111D01*
X54737000Y-67169889D01*
X54500000Y-67169889D01*
X54365480Y-67195201D01*
X54241932Y-67274702D01*
X54159049Y-67396006D01*
X54129889Y-67540000D01*
X54129889Y-68190000D01*
X54155201Y-68324520D01*
X54234702Y-68448068D01*
X54311044Y-68500230D01*
X54241932Y-68544702D01*
X54159049Y-68666006D01*
X54129889Y-68810000D01*
X54129889Y-69460000D01*
X54155201Y-69594520D01*
X54234702Y-69718068D01*
X54356006Y-69800951D01*
X54500000Y-69830111D01*
X54737000Y-69830111D01*
X54737000Y-84896087D01*
X42246088Y-97387000D01*
X39253913Y-97387000D01*
X35433459Y-93566547D01*
X35433457Y-93566544D01*
X34613000Y-92746088D01*
X34613000Y-74086414D01*
X34679536Y-74058922D01*
X35017734Y-73721314D01*
X35200991Y-73279982D01*
X35201408Y-72802115D01*
X35018922Y-72360464D01*
X34681314Y-72022266D01*
X34239982Y-71839009D01*
X33762115Y-71838592D01*
X33513000Y-71941524D01*
X33513000Y-70320161D01*
X34901570Y-70320161D01*
X35036090Y-70294849D01*
X35159638Y-70215348D01*
X35184138Y-70179490D01*
X35234702Y-70258068D01*
X35356006Y-70340951D01*
X35500000Y-70370111D01*
X36500000Y-70370111D01*
X36634520Y-70344799D01*
X36758068Y-70265298D01*
X36840951Y-70143994D01*
X36870111Y-70000000D01*
X36870111Y-69200000D01*
X36844799Y-69065480D01*
X36765298Y-68941932D01*
X36643994Y-68859049D01*
X36500000Y-68829889D01*
X35500000Y-68829889D01*
X35365480Y-68855201D01*
X35241932Y-68934702D01*
X35240362Y-68937000D01*
X35195901Y-68937000D01*
X35166868Y-68891882D01*
X35045564Y-68808999D01*
X34901570Y-68779839D01*
X34878967Y-68779839D01*
X35017734Y-68641314D01*
X35200991Y-68199982D01*
X35201408Y-67722115D01*
X35018922Y-67280464D01*
X34681314Y-66942266D01*
X34239982Y-66759009D01*
X34108019Y-66758894D01*
X34433456Y-66433457D01*
X34566338Y-66234585D01*
X34571427Y-66209000D01*
X34613000Y-66000000D01*
X34613000Y-20253912D01*
X35433457Y-19433456D01*
X35513113Y-19314241D01*
X35566338Y-19234585D01*
X35613000Y-19000000D01*
X35613000Y-18450982D01*
X35629640Y-18444106D01*
X35729889Y-18344032D01*
X35729889Y-19900000D01*
X35755201Y-20034520D01*
X35834702Y-20158068D01*
X35956006Y-20240951D01*
X36100000Y-20270111D01*
X37700000Y-20270111D01*
X37834520Y-20244799D01*
X37958068Y-20165298D01*
X38040951Y-20043994D01*
X38070111Y-19900000D01*
X38070111Y-18100000D01*
X38044799Y-17965480D01*
X37965298Y-17841932D01*
X37843994Y-17759049D01*
X37700000Y-17729889D01*
X37513000Y-17729889D01*
X37513000Y-17400000D01*
X37483182Y-17250095D01*
X38929889Y-18696802D01*
X38929889Y-19900000D01*
X38955201Y-20034520D01*
X39021145Y-20137000D01*
X38444000Y-20137000D01*
X37922402Y-20240752D01*
X37480213Y-20536213D01*
X37480211Y-20536216D01*
X35104213Y-22912213D01*
X34808752Y-23354402D01*
X34808752Y-23354403D01*
X34704999Y-23876000D01*
X34705000Y-23876005D01*
X34705000Y-35559995D01*
X34704999Y-35560000D01*
X34759165Y-35832307D01*
X34808752Y-36081598D01*
X34910975Y-36234585D01*
X35104213Y-36523787D01*
X36586426Y-38006000D01*
X35036213Y-39556213D01*
X34740752Y-39998402D01*
X34740752Y-39998403D01*
X34636999Y-40520000D01*
X34637000Y-40520005D01*
X34637000Y-61211995D01*
X34636999Y-61212000D01*
X34668450Y-61370111D01*
X34740752Y-61733598D01*
X35008066Y-62133662D01*
X35036213Y-62175787D01*
X37245000Y-64384574D01*
X37245000Y-74827427D01*
X36036213Y-76036213D01*
X35740752Y-76478402D01*
X35740752Y-76478403D01*
X35636999Y-77000000D01*
X35637000Y-77000005D01*
X35637000Y-91355995D01*
X35636999Y-91356000D01*
X35723538Y-91791059D01*
X35740752Y-91877598D01*
X35882855Y-92090270D01*
X36036213Y-92319787D01*
X39675373Y-95958946D01*
X39866914Y-96150822D01*
X40367693Y-96358763D01*
X40909928Y-96359236D01*
X41411069Y-96152169D01*
X41794822Y-95769086D01*
X42002763Y-95268307D01*
X42003236Y-94726072D01*
X41796169Y-94224931D01*
X41413086Y-93841178D01*
X41412513Y-93840940D01*
X38363000Y-90791426D01*
X38363000Y-77564574D01*
X39571784Y-76355789D01*
X39571787Y-76355787D01*
X39867248Y-75913598D01*
X39971000Y-75392000D01*
X39971000Y-64008616D01*
X39971236Y-63738072D01*
X39939358Y-63660921D01*
X39867248Y-63298403D01*
X39571787Y-62856213D01*
X37363000Y-60647426D01*
X37363000Y-41084574D01*
X39059265Y-39388309D01*
X39379069Y-39256169D01*
X39762822Y-38873086D01*
X39970763Y-38372307D01*
X39971236Y-37830072D01*
X39939358Y-37752921D01*
X39867248Y-37390403D01*
X39571787Y-36948213D01*
X39129597Y-36652752D01*
X39078077Y-36642504D01*
X37431000Y-34995426D01*
X37431000Y-24440574D01*
X39008573Y-22863000D01*
X49499995Y-22863000D01*
X49500000Y-22863001D01*
X49935059Y-22776462D01*
X50021598Y-22759248D01*
X50463787Y-22463787D01*
X55463784Y-17463789D01*
X55463787Y-17463787D01*
X56963784Y-15963789D01*
X56963787Y-15963787D01*
X57963784Y-14963789D01*
X57963787Y-14963787D01*
X58259248Y-14521598D01*
X58259249Y-14521597D01*
X58363001Y-14000000D01*
X58363000Y-13999995D01*
X58363000Y-10000000D01*
X58259248Y-9478402D01*
X57963787Y-9036213D01*
X57521598Y-8740752D01*
X57000000Y-8637000D01*
X56478402Y-8740752D01*
X56036213Y-9036213D01*
X55740752Y-9478402D01*
X55637000Y-10000000D01*
X55637000Y-13435427D01*
X55036213Y-14036213D01*
X55036211Y-14036216D01*
X53536213Y-15536213D01*
X53536211Y-15536216D01*
X52685427Y-16387000D01*
X52148848Y-16387000D01*
X52144799Y-16365480D01*
X52065298Y-16241932D01*
X51943994Y-16159049D01*
X51800000Y-16129889D01*
X51000000Y-16129889D01*
X50865480Y-16155201D01*
X50741932Y-16234702D01*
X50659049Y-16356006D01*
X50629889Y-16500000D01*
X50629889Y-17500000D01*
X50655201Y-17634520D01*
X50734702Y-17758068D01*
X50856006Y-17840951D01*
X51000000Y-17870111D01*
X51202316Y-17870111D01*
X48935426Y-20137000D01*
X41177403Y-20137000D01*
X41240951Y-20043994D01*
X41270111Y-19900000D01*
X41270111Y-18100000D01*
X41244799Y-17965480D01*
X41178855Y-17863000D01*
X45499995Y-17863000D01*
X45500000Y-17863001D01*
X45935059Y-17776462D01*
X46021598Y-17759248D01*
X46463787Y-17463787D01*
X46463788Y-17463786D01*
X47910323Y-16017250D01*
X47920128Y-16066544D01*
X47933662Y-16134585D01*
X48066544Y-16333456D01*
X48829889Y-17096802D01*
X48829889Y-17500000D01*
X48855201Y-17634520D01*
X48934702Y-17758068D01*
X49056006Y-17840951D01*
X49200000Y-17870111D01*
X50000000Y-17870111D01*
X50134520Y-17844799D01*
X50258068Y-17765298D01*
X50340951Y-17643994D01*
X50370111Y-17500000D01*
X50370111Y-16500000D01*
X50344799Y-16365480D01*
X50265298Y-16241932D01*
X50143994Y-16159049D01*
X50000000Y-16129889D01*
X49596802Y-16129889D01*
X49137023Y-15670111D01*
X50000000Y-15670111D01*
X50134520Y-15644799D01*
X50258068Y-15565298D01*
X50293801Y-15513000D01*
X50332335Y-15513000D01*
X50355201Y-15634520D01*
X50434702Y-15758068D01*
X50556006Y-15840951D01*
X50700000Y-15870111D01*
X51500000Y-15870111D01*
X51634520Y-15844799D01*
X51758068Y-15765298D01*
X51840951Y-15643994D01*
X51870111Y-15500000D01*
X51870111Y-14500000D01*
X51844799Y-14365480D01*
X51765298Y-14241932D01*
X51643994Y-14159049D01*
X51500000Y-14129889D01*
X50700000Y-14129889D01*
X50565480Y-14155201D01*
X50441932Y-14234702D01*
X50406199Y-14287000D01*
X50294298Y-14287000D01*
X50265298Y-14241932D01*
X50143994Y-14159049D01*
X50000000Y-14129889D01*
X49113000Y-14129889D01*
X49113000Y-13870111D01*
X50000000Y-13870111D01*
X50134520Y-13844799D01*
X50258068Y-13765298D01*
X50293801Y-13713000D01*
X50405702Y-13713000D01*
X50434702Y-13758068D01*
X50556006Y-13840951D01*
X50700000Y-13870111D01*
X51500000Y-13870111D01*
X51634520Y-13844799D01*
X51758068Y-13765298D01*
X51840951Y-13643994D01*
X51870111Y-13500000D01*
X51870111Y-12500000D01*
X51844799Y-12365480D01*
X51808600Y-12309225D01*
X51883855Y-12359509D01*
X52310000Y-12444274D01*
X52736145Y-12359509D01*
X53097413Y-12118117D01*
X53338805Y-11756849D01*
X53423570Y-11330704D01*
X53423570Y-10269296D01*
X53338805Y-9843151D01*
X53097413Y-9481883D01*
X53030044Y-9436868D01*
X53096801Y-9370111D01*
X53500000Y-9370111D01*
X53634520Y-9344799D01*
X53758068Y-9265298D01*
X53840951Y-9143994D01*
X53870111Y-9000000D01*
X53870111Y-8000000D01*
X53844799Y-7865480D01*
X53765298Y-7741932D01*
X53643994Y-7659049D01*
X53500000Y-7629889D01*
X52700000Y-7629889D01*
X52565480Y-7655201D01*
X52441932Y-7734702D01*
X52359049Y-7856006D01*
X52329889Y-8000000D01*
X52329889Y-8403198D01*
X51876544Y-8856544D01*
X51743662Y-9055415D01*
X51697000Y-9290000D01*
X51697000Y-9365344D01*
X51522587Y-9481883D01*
X51281195Y-9843151D01*
X51196430Y-10269296D01*
X51196430Y-11330704D01*
X51281195Y-11756849D01*
X51522587Y-12118117D01*
X51557689Y-12141572D01*
X51500000Y-12129889D01*
X50700000Y-12129889D01*
X50565480Y-12155201D01*
X50441932Y-12234702D01*
X50359049Y-12356006D01*
X50332522Y-12487000D01*
X50294298Y-12487000D01*
X50265298Y-12441932D01*
X50156274Y-12367440D01*
X50196145Y-12359509D01*
X50557413Y-12118117D01*
X50798805Y-11756849D01*
X50883570Y-11330704D01*
X50883570Y-10269296D01*
X50798805Y-9843151D01*
X50557413Y-9481883D01*
X50196145Y-9240491D01*
X49971171Y-9195741D01*
X50310260Y-8856653D01*
X50613855Y-9059509D01*
X51040000Y-9144274D01*
X51466145Y-9059509D01*
X51827413Y-8818117D01*
X52068805Y-8456849D01*
X52153570Y-8030704D01*
X52153570Y-7253343D01*
X52293913Y-7113000D01*
X52351152Y-7113000D01*
X52355201Y-7134520D01*
X52434702Y-7258068D01*
X52556006Y-7340951D01*
X52700000Y-7370111D01*
X53500000Y-7370111D01*
X53634520Y-7344799D01*
X53758068Y-7265298D01*
X53840951Y-7143994D01*
X53870111Y-7000000D01*
X53870111Y-6000000D01*
X53844799Y-5865480D01*
X53765298Y-5741932D01*
X53643994Y-5659049D01*
X53500000Y-5629889D01*
X52700000Y-5629889D01*
X52565480Y-5655201D01*
X52441932Y-5734702D01*
X52359049Y-5856006D01*
X52352772Y-5887000D01*
X52040000Y-5887000D01*
X51805415Y-5933662D01*
X51725759Y-5986887D01*
X51630670Y-6050423D01*
X51466145Y-5940491D01*
X51040000Y-5855726D01*
X50613855Y-5940491D01*
X50252587Y-6181883D01*
X50011195Y-6543151D01*
X49926430Y-6969296D01*
X49926430Y-7506657D01*
X48066544Y-9366544D01*
X47998099Y-9468978D01*
X47656145Y-9240491D01*
X47230000Y-9155726D01*
X46803855Y-9240491D01*
X46442587Y-9481883D01*
X46201195Y-9843151D01*
X46116430Y-10269296D01*
X46116430Y-10693104D01*
X45889767Y-10919767D01*
X45803570Y-11048770D01*
X45803570Y-10269296D01*
X45718805Y-9843151D01*
X45477413Y-9481883D01*
X45116145Y-9240491D01*
X44690000Y-9155726D01*
X44263855Y-9240491D01*
X43902587Y-9481883D01*
X43861252Y-9543745D01*
X43870111Y-9500000D01*
X43870111Y-8863000D01*
X45239759Y-8863000D01*
X45533855Y-9059509D01*
X45960000Y-9144274D01*
X46386145Y-9059509D01*
X46747413Y-8818117D01*
X46988805Y-8456849D01*
X47014400Y-8328176D01*
X47219248Y-8021598D01*
X47323000Y-7500000D01*
X47219248Y-6978402D01*
X47014400Y-6671824D01*
X46988805Y-6543151D01*
X46747413Y-6181883D01*
X46386145Y-5940491D01*
X45960000Y-5855726D01*
X45533855Y-5940491D01*
X45239759Y-6137000D01*
X42500005Y-6137000D01*
X42500000Y-6136999D01*
X42117926Y-6212999D01*
X41978402Y-6240752D01*
X41763000Y-6384679D01*
X41763000Y-6250000D01*
X41761976Y-6244942D01*
X41759065Y-6240681D01*
X41754725Y-6237889D01*
X41750000Y-6237000D01*
X38250000Y-6237000D01*
X38244942Y-6238024D01*
X38240681Y-6240935D01*
X38237889Y-6245275D01*
X38237000Y-6250000D01*
X38237000Y-7241920D01*
X38159049Y-7356006D01*
X38129889Y-7500000D01*
X38129889Y-9017738D01*
X38043994Y-8959049D01*
X37900000Y-8929889D01*
X36857463Y-8929889D01*
X35963787Y-8036213D01*
X35879492Y-7979889D01*
X35521598Y-7740752D01*
X35435059Y-7723538D01*
X35000000Y-7636999D01*
X34999995Y-7637000D01*
X25164573Y-7637000D01*
X23970111Y-6442537D01*
X23970111Y-5900000D01*
X23944799Y-5765480D01*
X23865298Y-5641932D01*
X23743994Y-5559049D01*
X23600000Y-5529889D01*
X23057463Y-5529889D01*
X22963787Y-5436213D01*
X22857830Y-5365415D01*
X22521598Y-5140752D01*
X22435059Y-5123538D01*
X22000000Y-5036999D01*
X21999995Y-5037000D01*
X18000000Y-5037000D01*
X17478402Y-5140752D01*
X17036213Y-5436213D01*
X16973621Y-5529889D01*
X16400000Y-5529889D01*
X16265480Y-5555201D01*
X16141932Y-5634702D01*
X16059049Y-5756006D01*
X16029889Y-5900000D01*
X16029889Y-6900000D01*
X16055201Y-7034520D01*
X16134702Y-7158068D01*
X16256006Y-7240951D01*
X16400000Y-7270111D01*
X16973621Y-7270111D01*
X17036213Y-7363787D01*
X17478402Y-7659248D01*
X18000000Y-7763000D01*
X21435426Y-7763000D01*
X23334845Y-9662418D01*
X23536213Y-9963787D01*
X23978402Y-10259248D01*
X24500000Y-10363000D01*
X34435426Y-10363000D01*
X35637000Y-11564573D01*
X35637000Y-12999995D01*
X35636999Y-13000000D01*
X35703553Y-13334585D01*
X35740752Y-13521598D01*
X36035687Y-13963000D01*
X36036213Y-13963787D01*
X39536211Y-17463784D01*
X39536213Y-17463787D01*
X39895641Y-17703949D01*
X39934463Y-17729889D01*
X39696802Y-17729889D01*
X34033456Y-12066544D01*
X33834585Y-11933662D01*
X33831257Y-11933000D01*
X33600000Y-11887000D01*
X25500000Y-11887000D01*
X25294742Y-11927829D01*
X23433456Y-10066544D01*
X23234585Y-9933662D01*
X23000000Y-9887000D01*
X14439913Y-9887000D01*
X14933456Y-9393457D01*
X15066338Y-9194585D01*
X15074012Y-9156006D01*
X15113000Y-8960000D01*
X15113000Y-6870111D01*
X15500000Y-6870111D01*
X15634520Y-6844799D01*
X15758068Y-6765298D01*
X15840951Y-6643994D01*
X15870111Y-6500000D01*
X15870111Y-4500000D01*
X15844799Y-4365480D01*
X15765298Y-4241932D01*
X15643994Y-4159049D01*
X15500000Y-4129889D01*
X13500000Y-4129889D01*
X13365480Y-4155201D01*
X13241932Y-4234702D01*
X13159049Y-4356006D01*
X13129889Y-4500000D01*
X13129889Y-4762136D01*
X13116169Y-4728931D01*
X12733086Y-4345178D01*
X12232307Y-4137237D01*
X11690072Y-4136764D01*
X11188931Y-4343831D01*
X10805178Y-4726914D01*
X10697181Y-4987000D01*
X10294298Y-4987000D01*
X10265298Y-4941932D01*
X10143994Y-4859049D01*
X10000000Y-4829889D01*
X9000000Y-4829889D01*
X8865480Y-4855201D01*
X8741932Y-4934702D01*
X8659049Y-5056006D01*
X8629889Y-5200000D01*
X8629889Y-6000000D01*
X8655201Y-6134520D01*
X8734702Y-6258068D01*
X8856006Y-6340951D01*
X9000000Y-6370111D01*
X10000000Y-6370111D01*
X10134520Y-6344799D01*
X10258068Y-6265298D01*
X10293801Y-6213000D01*
X10779837Y-6213000D01*
X10803831Y-6271069D01*
X11186914Y-6654822D01*
X11687693Y-6862763D01*
X12229928Y-6863236D01*
X12731069Y-6656169D01*
X13114822Y-6273086D01*
X13129889Y-6236801D01*
X13129889Y-6500000D01*
X13155201Y-6634520D01*
X13234702Y-6758068D01*
X13356006Y-6840951D01*
X13500000Y-6870111D01*
X13887000Y-6870111D01*
X13887000Y-8706087D01*
X12931609Y-9661479D01*
X12527016Y-9581000D01*
X12472984Y-9581000D01*
X11945264Y-9685970D01*
X11497884Y-9984900D01*
X11229209Y-10387000D01*
X10934881Y-10387000D01*
X10818611Y-10212990D01*
X10457528Y-9971722D01*
X10031601Y-9887000D01*
X8968399Y-9887000D01*
X8542472Y-9971722D01*
X8181389Y-10212990D01*
X7940121Y-10574073D01*
X7855399Y-11000000D01*
X7940121Y-11425927D01*
X8181389Y-11787010D01*
X8542472Y-12028278D01*
X8968399Y-12113000D01*
X10031601Y-12113000D01*
X10457528Y-12028278D01*
X10818611Y-11787010D01*
X10934881Y-11613000D01*
X11282663Y-11613000D01*
X11497884Y-11935100D01*
X11765460Y-12113889D01*
X11484000Y-12113889D01*
X11349480Y-12139201D01*
X11225932Y-12218702D01*
X11143049Y-12340006D01*
X11113889Y-12484000D01*
X11113889Y-12887000D01*
X10934881Y-12887000D01*
X10818611Y-12712990D01*
X10457528Y-12471722D01*
X10031601Y-12387000D01*
X8968399Y-12387000D01*
X8542472Y-12471722D01*
X8181389Y-12712990D01*
X7940121Y-13074073D01*
X7855399Y-13500000D01*
X7940121Y-13925927D01*
X8181389Y-14287010D01*
X8542472Y-14528278D01*
X8887000Y-14596809D01*
X8887000Y-17403191D01*
X8542472Y-17471722D01*
X8181389Y-17712990D01*
X7940121Y-18074073D01*
X7855399Y-18500000D01*
X7940121Y-18925927D01*
X8181389Y-19287010D01*
X8542472Y-19528278D01*
X8968399Y-19613000D01*
X10031601Y-19613000D01*
X10457528Y-19528278D01*
X10818611Y-19287010D01*
X11059879Y-18925927D01*
X11144601Y-18500000D01*
X11059879Y-18074073D01*
X10818611Y-17712990D01*
X10457528Y-17471722D01*
X10113000Y-17403191D01*
X10113000Y-14596809D01*
X10457528Y-14528278D01*
X10818611Y-14287010D01*
X10934881Y-14113000D01*
X11113889Y-14113000D01*
X11113889Y-14516000D01*
X11139201Y-14650520D01*
X11218702Y-14774068D01*
X11340006Y-14856951D01*
X11484000Y-14886111D01*
X13516000Y-14886111D01*
X13650520Y-14860799D01*
X13774068Y-14781298D01*
X13856951Y-14659994D01*
X13886111Y-14516000D01*
X13886111Y-12484000D01*
X13860799Y-12349480D01*
X13781298Y-12225932D01*
X13659994Y-12143049D01*
X13516000Y-12113889D01*
X13234540Y-12113889D01*
X13502116Y-11935100D01*
X13801046Y-11487720D01*
X13875582Y-11113000D01*
X22746088Y-11113000D01*
X23362977Y-11729889D01*
X23026379Y-11729889D01*
X22963787Y-11636213D01*
X22521598Y-11340752D01*
X22000000Y-11237000D01*
X18000005Y-11237000D01*
X18000000Y-11236999D01*
X17564941Y-11323538D01*
X17478402Y-11340752D01*
X17036213Y-11636213D01*
X17036211Y-11636216D01*
X16942538Y-11729889D01*
X16400000Y-11729889D01*
X16265480Y-11755201D01*
X16141932Y-11834702D01*
X16059049Y-11956006D01*
X16029889Y-12100000D01*
X16029889Y-13100000D01*
X16055201Y-13234520D01*
X16134702Y-13358068D01*
X16137000Y-13359638D01*
X16137000Y-13976534D01*
X15470802Y-14641570D01*
X15105416Y-15521515D01*
X15104585Y-16474305D01*
X15468434Y-17354886D01*
X16141570Y-18029198D01*
X17021515Y-18394584D01*
X17974305Y-18395415D01*
X18854886Y-18031566D01*
X19529198Y-17358430D01*
X19894584Y-16478485D01*
X19895415Y-15525695D01*
X19531566Y-14645114D01*
X18863000Y-13975380D01*
X18863000Y-13963000D01*
X21158265Y-13963000D01*
X21145114Y-13968434D01*
X20470802Y-14641570D01*
X20105416Y-15521515D01*
X20104585Y-16474305D01*
X20468434Y-17354886D01*
X21141570Y-18029198D01*
X22021515Y-18394584D01*
X22974305Y-18395415D01*
X23423119Y-18209969D01*
X22746088Y-18887000D01*
X12500000Y-18887000D01*
X12266451Y-18933456D01*
X12265415Y-18933662D01*
X12066543Y-19066544D01*
X10859261Y-20273827D01*
X10818611Y-20212990D01*
X10457528Y-19971722D01*
X10031601Y-19887000D01*
X8968399Y-19887000D01*
X8542472Y-19971722D01*
X8181389Y-20212990D01*
X7940121Y-20574073D01*
X7855399Y-21000000D01*
X7940121Y-21425927D01*
X8181389Y-21787010D01*
X8542472Y-22028278D01*
X8968399Y-22113000D01*
X10031601Y-22113000D01*
X10457528Y-22028278D01*
X10818611Y-21787010D01*
X10934881Y-21613000D01*
X11000000Y-21613000D01*
X11234585Y-21566338D01*
X11433456Y-21433456D01*
X12753913Y-20113000D01*
X14368616Y-20113000D01*
X5490808Y-28990808D01*
X5487955Y-28995108D01*
X5487000Y-29000000D01*
X5487000Y-91500000D01*
X5488024Y-91505058D01*
X5490808Y-91509192D01*
X10490808Y-96509192D01*
X10495108Y-96512045D01*
X10500000Y-96513000D01*
X33500000Y-96513000D01*
X33505058Y-96511976D01*
X33509319Y-96509065D01*
X33512111Y-96504725D01*
X33513000Y-96500000D01*
X33513000Y-94879912D01*
X38066544Y-99433457D01*
X38258923Y-99562000D01*
X438000Y-99562000D01*
X438000Y-95467968D01*
X2636591Y-95467968D01*
X2995578Y-96336783D01*
X3659720Y-97002086D01*
X4527908Y-97362589D01*
X5467968Y-97363409D01*
X6336783Y-97004422D01*
X7002086Y-96340280D01*
X7362589Y-95472092D01*
X7363409Y-94532032D01*
X7004422Y-93663217D01*
X6340280Y-92997914D01*
X5472092Y-92637411D01*
X4532032Y-92636591D01*
X3663217Y-92995578D01*
X2997914Y-93659720D01*
X2637411Y-94527908D01*
X2636591Y-95467968D01*
X438000Y-95467968D01*
X438000Y-20118948D01*
X1136678Y-20118948D01*
X1419705Y-20803926D01*
X1943318Y-21328453D01*
X2627801Y-21612676D01*
X3368948Y-21613322D01*
X4053926Y-21330295D01*
X4578453Y-20806682D01*
X4862676Y-20122199D01*
X4863322Y-19381052D01*
X4580295Y-18696074D01*
X4056682Y-18171547D01*
X3372199Y-17887324D01*
X2631052Y-17886678D01*
X1946074Y-18169705D01*
X1421547Y-18693318D01*
X1137324Y-19377801D01*
X1136678Y-20118948D01*
X438000Y-20118948D01*
X438000Y-12618948D01*
X1136678Y-12618948D01*
X1419705Y-13303926D01*
X1943318Y-13828453D01*
X2627801Y-14112676D01*
X3368948Y-14113322D01*
X4053926Y-13830295D01*
X4578453Y-13306682D01*
X4862676Y-12622199D01*
X4863322Y-11881052D01*
X4580295Y-11196074D01*
X4056682Y-10671547D01*
X3372199Y-10387324D01*
X2631052Y-10386678D01*
X1946074Y-10669705D01*
X1421547Y-11193318D01*
X1137324Y-11877801D01*
X1136678Y-12618948D01*
X438000Y-12618948D01*
X438000Y-5467968D01*
X2636591Y-5467968D01*
X2995578Y-6336783D01*
X3659720Y-7002086D01*
X4527908Y-7362589D01*
X5467968Y-7363409D01*
X6336783Y-7004422D01*
X7002086Y-6340280D01*
X7362589Y-5472092D01*
X7363409Y-4532032D01*
X7004422Y-3663217D01*
X6340280Y-2997914D01*
X5472092Y-2637411D01*
X4532032Y-2636591D01*
X3663217Y-2995578D01*
X2997914Y-3659720D01*
X2637411Y-4527908D01*
X2636591Y-5467968D01*
X438000Y-5467968D01*
X438000Y-438000D01*
X63987000Y-438000D01*
X63987000Y-22987000D01*
G36*
X19987000Y-79987000D02*
X6513000Y-79987000D01*
X6513000Y-74013000D01*
X19987000Y-74013000D01*
X19987000Y-79987000D01*
X19987000Y-79987000D01*
G37*
X19987000Y-79987000D02*
X6513000Y-79987000D01*
X6513000Y-74013000D01*
X19987000Y-74013000D01*
X19987000Y-79987000D01*
G36*
X19837000Y-52725377D02*
X19575377Y-52987000D01*
X6513000Y-52987000D01*
X6513000Y-47013000D01*
X19837000Y-47013000D01*
X19837000Y-52725377D01*
X19837000Y-52725377D01*
G37*
X19837000Y-52725377D02*
X19575377Y-52987000D01*
X6513000Y-52987000D01*
X6513000Y-47013000D01*
X19837000Y-47013000D01*
X19837000Y-52725377D01*
G36*
X19987000Y-23494616D02*
X10494616Y-32987000D01*
X6513000Y-32987000D01*
X6513000Y-29505384D01*
X15005384Y-21013000D01*
X19987000Y-21013000D01*
X19987000Y-23494616D01*
X19987000Y-23494616D01*
G37*
X19987000Y-23494616D02*
X10494616Y-32987000D01*
X6513000Y-32987000D01*
X6513000Y-29505384D01*
X15005384Y-21013000D01*
X19987000Y-21013000D01*
X19987000Y-23494616D01*
G36*
X31987000Y-65494616D02*
X30740808Y-66740808D01*
X30737955Y-66745108D01*
X30737000Y-66750000D01*
X30737000Y-69487000D01*
X6513000Y-69487000D01*
X6513000Y-62013000D01*
X26500000Y-62013000D01*
X26505058Y-62011976D01*
X26509319Y-62009065D01*
X26512111Y-62004725D01*
X26513000Y-62000000D01*
X26513000Y-25005384D01*
X28505384Y-23013000D01*
X31987000Y-23013000D01*
X31987000Y-65494616D01*
X31987000Y-65494616D01*
G37*
X31987000Y-65494616D02*
X30740808Y-66740808D01*
X30737955Y-66745108D01*
X30737000Y-66750000D01*
X30737000Y-69487000D01*
X6513000Y-69487000D01*
X6513000Y-62013000D01*
X26500000Y-62013000D01*
X26505058Y-62011976D01*
X26509319Y-62009065D01*
X26512111Y-62004725D01*
X26513000Y-62000000D01*
X26513000Y-25005384D01*
X28505384Y-23013000D01*
X31987000Y-23013000D01*
X31987000Y-65494616D01*
G36*
X32337000Y-93500000D02*
X32387468Y-93753719D01*
X32487000Y-93902680D01*
X32487000Y-95487000D01*
X11005384Y-95487000D01*
X6513000Y-90994616D01*
X6513000Y-86013000D01*
X13237000Y-86013000D01*
X13237000Y-88500000D01*
X13238024Y-88505058D01*
X13240935Y-88509319D01*
X13245275Y-88512111D01*
X13250000Y-88513000D01*
X17999999Y-88513000D01*
X18260026Y-88513227D01*
X18260575Y-88513000D01*
X28000000Y-88513000D01*
X28005058Y-88511976D01*
X28009319Y-88509065D01*
X28012111Y-88504725D01*
X28013000Y-88500000D01*
X28013000Y-75013000D01*
X32337000Y-75013000D01*
X32337000Y-93500000D01*
X32337000Y-93500000D01*
G37*
X32337000Y-93500000D02*
X32387468Y-93753719D01*
X32487000Y-93902680D01*
X32487000Y-95487000D01*
X11005384Y-95487000D01*
X6513000Y-90994616D01*
X6513000Y-86013000D01*
X13237000Y-86013000D01*
X13237000Y-88500000D01*
X13238024Y-88505058D01*
X13240935Y-88509319D01*
X13245275Y-88512111D01*
X13250000Y-88513000D01*
X17999999Y-88513000D01*
X18260026Y-88513227D01*
X18260575Y-88513000D01*
X28000000Y-88513000D01*
X28005058Y-88511976D01*
X28009319Y-88509065D01*
X28012111Y-88504725D01*
X28013000Y-88500000D01*
X28013000Y-75013000D01*
X32337000Y-75013000D01*
X32337000Y-93500000D01*
G36*
X89562000Y-68267748D02*
X89521598Y-68240752D01*
X89000000Y-68137000D01*
X80064573Y-68137000D01*
X79463787Y-67536213D01*
X79021597Y-67240752D01*
X78500000Y-67136999D01*
X77978403Y-67240752D01*
X77536213Y-67536213D01*
X77301825Y-67887000D01*
X75148848Y-67887000D01*
X75144799Y-67865480D01*
X75065298Y-67741932D01*
X74943994Y-67659049D01*
X74800000Y-67629889D01*
X74396802Y-67629889D01*
X73333456Y-66566544D01*
X73134585Y-66433662D01*
X72900000Y-66387000D01*
X70000000Y-66387000D01*
X69765415Y-66433662D01*
X69566544Y-66566544D01*
X67611088Y-68522000D01*
X63721491Y-68522000D01*
X63688956Y-68499770D01*
X63758068Y-68455298D01*
X63840951Y-68333994D01*
X63870111Y-68190000D01*
X63870111Y-67540000D01*
X63844799Y-67405480D01*
X63765298Y-67281932D01*
X63643994Y-67199049D01*
X63500000Y-67169889D01*
X61800000Y-67169889D01*
X61665480Y-67195201D01*
X61551356Y-67268638D01*
X61400415Y-67298662D01*
X61201544Y-67431543D01*
X60566545Y-68066543D01*
X60566544Y-68066544D01*
X60433662Y-68265415D01*
X60387000Y-68500000D01*
X60387000Y-69500000D01*
X60427049Y-69701338D01*
X60433662Y-69734585D01*
X60566544Y-69933456D01*
X63066544Y-72433457D01*
X63198457Y-72521598D01*
X63265415Y-72566338D01*
X63500000Y-72613000D01*
X64351152Y-72613000D01*
X64355201Y-72634520D01*
X64434702Y-72758068D01*
X64556006Y-72840951D01*
X64700000Y-72870111D01*
X65500000Y-72870111D01*
X65634520Y-72844799D01*
X65758068Y-72765298D01*
X65840951Y-72643994D01*
X65870111Y-72500000D01*
X65870111Y-71500000D01*
X65844799Y-71365480D01*
X65765298Y-71241932D01*
X65643994Y-71159049D01*
X65500000Y-71129889D01*
X64700000Y-71129889D01*
X64565480Y-71155201D01*
X64441932Y-71234702D01*
X64359049Y-71356006D01*
X64352772Y-71387000D01*
X63753913Y-71387000D01*
X62197023Y-69830111D01*
X63500000Y-69830111D01*
X63634520Y-69804799D01*
X63722788Y-69748000D01*
X67865000Y-69748000D01*
X68099585Y-69701338D01*
X68298456Y-69568456D01*
X70253912Y-67613000D01*
X72646088Y-67613000D01*
X72662977Y-67629889D01*
X72200000Y-67629889D01*
X72065480Y-67655201D01*
X71941932Y-67734702D01*
X71859049Y-67856006D01*
X71852772Y-67887000D01*
X70500000Y-67887000D01*
X70265415Y-67933662D01*
X70066543Y-68066544D01*
X69526544Y-68606544D01*
X69393662Y-68805415D01*
X69347000Y-69040000D01*
X69347000Y-70778518D01*
X69188931Y-70843831D01*
X68805178Y-71226914D01*
X68597237Y-71727693D01*
X68596764Y-72269928D01*
X68803831Y-72771069D01*
X68919560Y-72887000D01*
X68253913Y-72887000D01*
X67670111Y-72303199D01*
X67670111Y-71500000D01*
X67644799Y-71365480D01*
X67565298Y-71241932D01*
X67443994Y-71159049D01*
X67300000Y-71129889D01*
X66500000Y-71129889D01*
X66365480Y-71155201D01*
X66241932Y-71234702D01*
X66159049Y-71356006D01*
X66129889Y-71500000D01*
X66129889Y-72500000D01*
X66155201Y-72634520D01*
X66234702Y-72758068D01*
X66356006Y-72840951D01*
X66500000Y-72870111D01*
X66503199Y-72870111D01*
X67566544Y-73933457D01*
X67765415Y-74066338D01*
X68000000Y-74113000D01*
X71000000Y-74113000D01*
X71234585Y-74066338D01*
X71433456Y-73933456D01*
X71996801Y-73370111D01*
X73500000Y-73370111D01*
X73634520Y-73344799D01*
X73758068Y-73265298D01*
X73840951Y-73143994D01*
X73870111Y-73000000D01*
X73870111Y-72613000D01*
X77301825Y-72613000D01*
X77536213Y-72963787D01*
X77978402Y-73259248D01*
X78500000Y-73363000D01*
X82637000Y-73363000D01*
X82637000Y-95175995D01*
X82636999Y-95176000D01*
X82723538Y-95611059D01*
X82740752Y-95697598D01*
X83036213Y-96139787D01*
X85395944Y-98499518D01*
X85586914Y-98690822D01*
X86087693Y-98898763D01*
X86359998Y-98899001D01*
X86360002Y-98899001D01*
X86629928Y-98899236D01*
X87131069Y-98692169D01*
X87514822Y-98309086D01*
X87722763Y-97808307D01*
X87723236Y-97266072D01*
X87516169Y-96764931D01*
X87133086Y-96381178D01*
X87132515Y-96380941D01*
X85363000Y-94611426D01*
X85363000Y-88306516D01*
X85586914Y-88530822D01*
X86087693Y-88738763D01*
X86359998Y-88739001D01*
X86360002Y-88739001D01*
X86629928Y-88739236D01*
X87131069Y-88532169D01*
X87514822Y-88149086D01*
X87515059Y-88148515D01*
X89562000Y-86101573D01*
X89562000Y-99562000D01*
X58513000Y-99562000D01*
X58513000Y-72931512D01*
X58655693Y-72990763D01*
X59197928Y-72991236D01*
X59699069Y-72784169D01*
X60082822Y-72401086D01*
X60290763Y-71900307D01*
X60291236Y-71358072D01*
X60291000Y-71357501D01*
X60291000Y-68136574D01*
X64963784Y-63463789D01*
X64963787Y-63463787D01*
X67959605Y-60467968D01*
X82636591Y-60467968D01*
X82995578Y-61336783D01*
X83659720Y-62002086D01*
X84527908Y-62362589D01*
X85467968Y-62363409D01*
X86336783Y-62004422D01*
X87002086Y-61340280D01*
X87362589Y-60472092D01*
X87363409Y-59532032D01*
X87004422Y-58663217D01*
X86340280Y-57997914D01*
X85472092Y-57637411D01*
X84532032Y-57636591D01*
X83663217Y-57995578D01*
X82997914Y-58659720D01*
X82637411Y-59527908D01*
X82636591Y-60467968D01*
X67959605Y-60467968D01*
X71463784Y-56963789D01*
X71463787Y-56963787D01*
X71759248Y-56521598D01*
X71786021Y-56387001D01*
X71863001Y-56000000D01*
X71863000Y-55999995D01*
X71863000Y-53064574D01*
X75064573Y-49863000D01*
X79562718Y-49863000D01*
X79556995Y-49868713D01*
X79387194Y-50277639D01*
X79386807Y-50720418D01*
X79555894Y-51129640D01*
X79868713Y-51443005D01*
X80277639Y-51612806D01*
X80720418Y-51613193D01*
X81129640Y-51444106D01*
X81443005Y-51131287D01*
X81450598Y-51113000D01*
X81813154Y-51113000D01*
X81556995Y-51368713D01*
X81387194Y-51777639D01*
X81386807Y-52220418D01*
X81555894Y-52629640D01*
X81868713Y-52943005D01*
X81887000Y-52950598D01*
X81887000Y-53000000D01*
X81909439Y-53112806D01*
X81933662Y-53234585D01*
X82066544Y-53433456D01*
X82566544Y-53933457D01*
X82765415Y-54066338D01*
X83000000Y-54113000D01*
X85065119Y-54113000D01*
X85181389Y-54287010D01*
X85542472Y-54528278D01*
X85968399Y-54613000D01*
X87031601Y-54613000D01*
X87457528Y-54528278D01*
X87818611Y-54287010D01*
X88059879Y-53925927D01*
X88144601Y-53500000D01*
X88059879Y-53074073D01*
X87818611Y-52712990D01*
X87457528Y-52471722D01*
X87031601Y-52387000D01*
X85968399Y-52387000D01*
X85542472Y-52471722D01*
X85181389Y-52712990D01*
X85065119Y-52887000D01*
X83253913Y-52887000D01*
X83220408Y-52853496D01*
X83443005Y-52631287D01*
X83612806Y-52222361D01*
X83613193Y-51779582D01*
X83444106Y-51370360D01*
X83187194Y-51113000D01*
X84877876Y-51113000D01*
X84940121Y-51425927D01*
X85181389Y-51787010D01*
X85542472Y-52028278D01*
X85968399Y-52113000D01*
X87031601Y-52113000D01*
X87457528Y-52028278D01*
X87818611Y-51787010D01*
X88059879Y-51425927D01*
X88144601Y-51000000D01*
X88059879Y-50574073D01*
X87818611Y-50212990D01*
X87457528Y-49971722D01*
X87031601Y-49887000D01*
X81450982Y-49887000D01*
X81444106Y-49870360D01*
X81436759Y-49863000D01*
X86500000Y-49863000D01*
X87021598Y-49759248D01*
X87329011Y-49553842D01*
X87457528Y-49528278D01*
X87818611Y-49287010D01*
X88059879Y-48925927D01*
X88144601Y-48500000D01*
X88059879Y-48074073D01*
X87818611Y-47712990D01*
X87457528Y-47471722D01*
X87329011Y-47446158D01*
X87035439Y-47250000D01*
X87329011Y-47053842D01*
X87457528Y-47028278D01*
X87818611Y-46787010D01*
X88059879Y-46425927D01*
X88144601Y-46000000D01*
X88059879Y-45574073D01*
X87818611Y-45212990D01*
X87457528Y-44971722D01*
X87329011Y-44946158D01*
X87021598Y-44740752D01*
X86500000Y-44637000D01*
X83437282Y-44637000D01*
X83443005Y-44631287D01*
X83612806Y-44222361D01*
X83613193Y-43779582D01*
X83444106Y-43370360D01*
X83131287Y-43056995D01*
X83113000Y-43049402D01*
X83113000Y-42253912D01*
X83753913Y-41613000D01*
X85065119Y-41613000D01*
X85181389Y-41787010D01*
X85542472Y-42028278D01*
X85968399Y-42113000D01*
X87031601Y-42113000D01*
X87457528Y-42028278D01*
X87818611Y-41787010D01*
X88059879Y-41425927D01*
X88144601Y-41000000D01*
X88059879Y-40574073D01*
X87818611Y-40212990D01*
X87457528Y-39971722D01*
X87031601Y-39887000D01*
X85968399Y-39887000D01*
X85542472Y-39971722D01*
X85181389Y-40212990D01*
X85065119Y-40387000D01*
X83500000Y-40387000D01*
X83265415Y-40433662D01*
X83185759Y-40486887D01*
X83066544Y-40566543D01*
X82066544Y-41566544D01*
X81933662Y-41765415D01*
X81887000Y-42000000D01*
X81887000Y-43049018D01*
X81870360Y-43055894D01*
X81556995Y-43368713D01*
X81500070Y-43505803D01*
X81444106Y-43370360D01*
X81131287Y-43056995D01*
X81113000Y-43049402D01*
X81113000Y-42253912D01*
X84253913Y-39113000D01*
X85065119Y-39113000D01*
X85181389Y-39287010D01*
X85542472Y-39528278D01*
X85968399Y-39613000D01*
X87031601Y-39613000D01*
X87457528Y-39528278D01*
X87818611Y-39287010D01*
X88059879Y-38925927D01*
X88144601Y-38500000D01*
X88059879Y-38074073D01*
X87818611Y-37712990D01*
X87457528Y-37471722D01*
X87031601Y-37387000D01*
X85968399Y-37387000D01*
X85542472Y-37471722D01*
X85181389Y-37712990D01*
X85065119Y-37887000D01*
X84000000Y-37887000D01*
X83765415Y-37933662D01*
X83566543Y-38066544D01*
X80066544Y-41566544D01*
X79933662Y-41765415D01*
X79887000Y-42000000D01*
X79887000Y-43049018D01*
X79870360Y-43055894D01*
X79847304Y-43078910D01*
X79863000Y-43000000D01*
X79863000Y-37363000D01*
X86500000Y-37363000D01*
X87021598Y-37259248D01*
X87329011Y-37053842D01*
X87457528Y-37028278D01*
X87818611Y-36787010D01*
X88059879Y-36425927D01*
X88144601Y-36000000D01*
X88059879Y-35574073D01*
X87818611Y-35212990D01*
X87457528Y-34971722D01*
X87329011Y-34946158D01*
X87035439Y-34750000D01*
X87329011Y-34553842D01*
X87457528Y-34528278D01*
X87818611Y-34287010D01*
X88059879Y-33925927D01*
X88144601Y-33500000D01*
X88059879Y-33074073D01*
X87818611Y-32712990D01*
X87457528Y-32471722D01*
X87329011Y-32446158D01*
X87021598Y-32240752D01*
X86500000Y-32137000D01*
X70500005Y-32137000D01*
X70500000Y-32136999D01*
X69978403Y-32240751D01*
X69978401Y-32240752D01*
X69978402Y-32240752D01*
X69536213Y-32536213D01*
X69536211Y-32536216D01*
X68536213Y-33536213D01*
X68536211Y-33536216D01*
X61036213Y-41036213D01*
X60740752Y-41478402D01*
X60740752Y-41478403D01*
X60636999Y-42000000D01*
X60637000Y-42000005D01*
X60637000Y-47671427D01*
X59404213Y-48904213D01*
X59404211Y-48904216D01*
X58513000Y-49795426D01*
X58513000Y-47023512D01*
X58655693Y-47082763D01*
X59197928Y-47083236D01*
X59699069Y-46876169D01*
X60082822Y-46493086D01*
X60290763Y-45992307D01*
X60291236Y-45450072D01*
X60291000Y-45449501D01*
X60291000Y-40136574D01*
X67213784Y-33213789D01*
X67213787Y-33213787D01*
X68963784Y-31463789D01*
X68963787Y-31463787D01*
X70564573Y-29863000D01*
X89000000Y-29863000D01*
X89521598Y-29759248D01*
X89562000Y-29732252D01*
X89562000Y-68267748D01*
X89562000Y-68267748D01*
G37*
X89562000Y-68267748D02*
X89521598Y-68240752D01*
X89000000Y-68137000D01*
X80064573Y-68137000D01*
X79463787Y-67536213D01*
X79021597Y-67240752D01*
X78500000Y-67136999D01*
X77978403Y-67240752D01*
X77536213Y-67536213D01*
X77301825Y-67887000D01*
X75148848Y-67887000D01*
X75144799Y-67865480D01*
X75065298Y-67741932D01*
X74943994Y-67659049D01*
X74800000Y-67629889D01*
X74396802Y-67629889D01*
X73333456Y-66566544D01*
X73134585Y-66433662D01*
X72900000Y-66387000D01*
X70000000Y-66387000D01*
X69765415Y-66433662D01*
X69566544Y-66566544D01*
X67611088Y-68522000D01*
X63721491Y-68522000D01*
X63688956Y-68499770D01*
X63758068Y-68455298D01*
X63840951Y-68333994D01*
X63870111Y-68190000D01*
X63870111Y-67540000D01*
X63844799Y-67405480D01*
X63765298Y-67281932D01*
X63643994Y-67199049D01*
X63500000Y-67169889D01*
X61800000Y-67169889D01*
X61665480Y-67195201D01*
X61551356Y-67268638D01*
X61400415Y-67298662D01*
X61201544Y-67431543D01*
X60566545Y-68066543D01*
X60566544Y-68066544D01*
X60433662Y-68265415D01*
X60387000Y-68500000D01*
X60387000Y-69500000D01*
X60427049Y-69701338D01*
X60433662Y-69734585D01*
X60566544Y-69933456D01*
X63066544Y-72433457D01*
X63198457Y-72521598D01*
X63265415Y-72566338D01*
X63500000Y-72613000D01*
X64351152Y-72613000D01*
X64355201Y-72634520D01*
X64434702Y-72758068D01*
X64556006Y-72840951D01*
X64700000Y-72870111D01*
X65500000Y-72870111D01*
X65634520Y-72844799D01*
X65758068Y-72765298D01*
X65840951Y-72643994D01*
X65870111Y-72500000D01*
X65870111Y-71500000D01*
X65844799Y-71365480D01*
X65765298Y-71241932D01*
X65643994Y-71159049D01*
X65500000Y-71129889D01*
X64700000Y-71129889D01*
X64565480Y-71155201D01*
X64441932Y-71234702D01*
X64359049Y-71356006D01*
X64352772Y-71387000D01*
X63753913Y-71387000D01*
X62197023Y-69830111D01*
X63500000Y-69830111D01*
X63634520Y-69804799D01*
X63722788Y-69748000D01*
X67865000Y-69748000D01*
X68099585Y-69701338D01*
X68298456Y-69568456D01*
X70253912Y-67613000D01*
X72646088Y-67613000D01*
X72662977Y-67629889D01*
X72200000Y-67629889D01*
X72065480Y-67655201D01*
X71941932Y-67734702D01*
X71859049Y-67856006D01*
X71852772Y-67887000D01*
X70500000Y-67887000D01*
X70265415Y-67933662D01*
X70066543Y-68066544D01*
X69526544Y-68606544D01*
X69393662Y-68805415D01*
X69347000Y-69040000D01*
X69347000Y-70778518D01*
X69188931Y-70843831D01*
X68805178Y-71226914D01*
X68597237Y-71727693D01*
X68596764Y-72269928D01*
X68803831Y-72771069D01*
X68919560Y-72887000D01*
X68253913Y-72887000D01*
X67670111Y-72303199D01*
X67670111Y-71500000D01*
X67644799Y-71365480D01*
X67565298Y-71241932D01*
X67443994Y-71159049D01*
X67300000Y-71129889D01*
X66500000Y-71129889D01*
X66365480Y-71155201D01*
X66241932Y-71234702D01*
X66159049Y-71356006D01*
X66129889Y-71500000D01*
X66129889Y-72500000D01*
X66155201Y-72634520D01*
X66234702Y-72758068D01*
X66356006Y-72840951D01*
X66500000Y-72870111D01*
X66503199Y-72870111D01*
X67566544Y-73933457D01*
X67765415Y-74066338D01*
X68000000Y-74113000D01*
X71000000Y-74113000D01*
X71234585Y-74066338D01*
X71433456Y-73933456D01*
X71996801Y-73370111D01*
X73500000Y-73370111D01*
X73634520Y-73344799D01*
X73758068Y-73265298D01*
X73840951Y-73143994D01*
X73870111Y-73000000D01*
X73870111Y-72613000D01*
X77301825Y-72613000D01*
X77536213Y-72963787D01*
X77978402Y-73259248D01*
X78500000Y-73363000D01*
X82637000Y-73363000D01*
X82637000Y-95175995D01*
X82636999Y-95176000D01*
X82723538Y-95611059D01*
X82740752Y-95697598D01*
X83036213Y-96139787D01*
X85395944Y-98499518D01*
X85586914Y-98690822D01*
X86087693Y-98898763D01*
X86359998Y-98899001D01*
X86360002Y-98899001D01*
X86629928Y-98899236D01*
X87131069Y-98692169D01*
X87514822Y-98309086D01*
X87722763Y-97808307D01*
X87723236Y-97266072D01*
X87516169Y-96764931D01*
X87133086Y-96381178D01*
X87132515Y-96380941D01*
X85363000Y-94611426D01*
X85363000Y-88306516D01*
X85586914Y-88530822D01*
X86087693Y-88738763D01*
X86359998Y-88739001D01*
X86360002Y-88739001D01*
X86629928Y-88739236D01*
X87131069Y-88532169D01*
X87514822Y-88149086D01*
X87515059Y-88148515D01*
X89562000Y-86101573D01*
X89562000Y-99562000D01*
X58513000Y-99562000D01*
X58513000Y-72931512D01*
X58655693Y-72990763D01*
X59197928Y-72991236D01*
X59699069Y-72784169D01*
X60082822Y-72401086D01*
X60290763Y-71900307D01*
X60291236Y-71358072D01*
X60291000Y-71357501D01*
X60291000Y-68136574D01*
X64963784Y-63463789D01*
X64963787Y-63463787D01*
X67959605Y-60467968D01*
X82636591Y-60467968D01*
X82995578Y-61336783D01*
X83659720Y-62002086D01*
X84527908Y-62362589D01*
X85467968Y-62363409D01*
X86336783Y-62004422D01*
X87002086Y-61340280D01*
X87362589Y-60472092D01*
X87363409Y-59532032D01*
X87004422Y-58663217D01*
X86340280Y-57997914D01*
X85472092Y-57637411D01*
X84532032Y-57636591D01*
X83663217Y-57995578D01*
X82997914Y-58659720D01*
X82637411Y-59527908D01*
X82636591Y-60467968D01*
X67959605Y-60467968D01*
X71463784Y-56963789D01*
X71463787Y-56963787D01*
X71759248Y-56521598D01*
X71786021Y-56387001D01*
X71863001Y-56000000D01*
X71863000Y-55999995D01*
X71863000Y-53064574D01*
X75064573Y-49863000D01*
X79562718Y-49863000D01*
X79556995Y-49868713D01*
X79387194Y-50277639D01*
X79386807Y-50720418D01*
X79555894Y-51129640D01*
X79868713Y-51443005D01*
X80277639Y-51612806D01*
X80720418Y-51613193D01*
X81129640Y-51444106D01*
X81443005Y-51131287D01*
X81450598Y-51113000D01*
X81813154Y-51113000D01*
X81556995Y-51368713D01*
X81387194Y-51777639D01*
X81386807Y-52220418D01*
X81555894Y-52629640D01*
X81868713Y-52943005D01*
X81887000Y-52950598D01*
X81887000Y-53000000D01*
X81909439Y-53112806D01*
X81933662Y-53234585D01*
X82066544Y-53433456D01*
X82566544Y-53933457D01*
X82765415Y-54066338D01*
X83000000Y-54113000D01*
X85065119Y-54113000D01*
X85181389Y-54287010D01*
X85542472Y-54528278D01*
X85968399Y-54613000D01*
X87031601Y-54613000D01*
X87457528Y-54528278D01*
X87818611Y-54287010D01*
X88059879Y-53925927D01*
X88144601Y-53500000D01*
X88059879Y-53074073D01*
X87818611Y-52712990D01*
X87457528Y-52471722D01*
X87031601Y-52387000D01*
X85968399Y-52387000D01*
X85542472Y-52471722D01*
X85181389Y-52712990D01*
X85065119Y-52887000D01*
X83253913Y-52887000D01*
X83220408Y-52853496D01*
X83443005Y-52631287D01*
X83612806Y-52222361D01*
X83613193Y-51779582D01*
X83444106Y-51370360D01*
X83187194Y-51113000D01*
X84877876Y-51113000D01*
X84940121Y-51425927D01*
X85181389Y-51787010D01*
X85542472Y-52028278D01*
X85968399Y-52113000D01*
X87031601Y-52113000D01*
X87457528Y-52028278D01*
X87818611Y-51787010D01*
X88059879Y-51425927D01*
X88144601Y-51000000D01*
X88059879Y-50574073D01*
X87818611Y-50212990D01*
X87457528Y-49971722D01*
X87031601Y-49887000D01*
X81450982Y-49887000D01*
X81444106Y-49870360D01*
X81436759Y-49863000D01*
X86500000Y-49863000D01*
X87021598Y-49759248D01*
X87329011Y-49553842D01*
X87457528Y-49528278D01*
X87818611Y-49287010D01*
X88059879Y-48925927D01*
X88144601Y-48500000D01*
X88059879Y-48074073D01*
X87818611Y-47712990D01*
X87457528Y-47471722D01*
X87329011Y-47446158D01*
X87035439Y-47250000D01*
X87329011Y-47053842D01*
X87457528Y-47028278D01*
X87818611Y-46787010D01*
X88059879Y-46425927D01*
X88144601Y-46000000D01*
X88059879Y-45574073D01*
X87818611Y-45212990D01*
X87457528Y-44971722D01*
X87329011Y-44946158D01*
X87021598Y-44740752D01*
X86500000Y-44637000D01*
X83437282Y-44637000D01*
X83443005Y-44631287D01*
X83612806Y-44222361D01*
X83613193Y-43779582D01*
X83444106Y-43370360D01*
X83131287Y-43056995D01*
X83113000Y-43049402D01*
X83113000Y-42253912D01*
X83753913Y-41613000D01*
X85065119Y-41613000D01*
X85181389Y-41787010D01*
X85542472Y-42028278D01*
X85968399Y-42113000D01*
X87031601Y-42113000D01*
X87457528Y-42028278D01*
X87818611Y-41787010D01*
X88059879Y-41425927D01*
X88144601Y-41000000D01*
X88059879Y-40574073D01*
X87818611Y-40212990D01*
X87457528Y-39971722D01*
X87031601Y-39887000D01*
X85968399Y-39887000D01*
X85542472Y-39971722D01*
X85181389Y-40212990D01*
X85065119Y-40387000D01*
X83500000Y-40387000D01*
X83265415Y-40433662D01*
X83185759Y-40486887D01*
X83066544Y-40566543D01*
X82066544Y-41566544D01*
X81933662Y-41765415D01*
X81887000Y-42000000D01*
X81887000Y-43049018D01*
X81870360Y-43055894D01*
X81556995Y-43368713D01*
X81500070Y-43505803D01*
X81444106Y-43370360D01*
X81131287Y-43056995D01*
X81113000Y-43049402D01*
X81113000Y-42253912D01*
X84253913Y-39113000D01*
X85065119Y-39113000D01*
X85181389Y-39287010D01*
X85542472Y-39528278D01*
X85968399Y-39613000D01*
X87031601Y-39613000D01*
X87457528Y-39528278D01*
X87818611Y-39287010D01*
X88059879Y-38925927D01*
X88144601Y-38500000D01*
X88059879Y-38074073D01*
X87818611Y-37712990D01*
X87457528Y-37471722D01*
X87031601Y-37387000D01*
X85968399Y-37387000D01*
X85542472Y-37471722D01*
X85181389Y-37712990D01*
X85065119Y-37887000D01*
X84000000Y-37887000D01*
X83765415Y-37933662D01*
X83566543Y-38066544D01*
X80066544Y-41566544D01*
X79933662Y-41765415D01*
X79887000Y-42000000D01*
X79887000Y-43049018D01*
X79870360Y-43055894D01*
X79847304Y-43078910D01*
X79863000Y-43000000D01*
X79863000Y-37363000D01*
X86500000Y-37363000D01*
X87021598Y-37259248D01*
X87329011Y-37053842D01*
X87457528Y-37028278D01*
X87818611Y-36787010D01*
X88059879Y-36425927D01*
X88144601Y-36000000D01*
X88059879Y-35574073D01*
X87818611Y-35212990D01*
X87457528Y-34971722D01*
X87329011Y-34946158D01*
X87035439Y-34750000D01*
X87329011Y-34553842D01*
X87457528Y-34528278D01*
X87818611Y-34287010D01*
X88059879Y-33925927D01*
X88144601Y-33500000D01*
X88059879Y-33074073D01*
X87818611Y-32712990D01*
X87457528Y-32471722D01*
X87329011Y-32446158D01*
X87021598Y-32240752D01*
X86500000Y-32137000D01*
X70500005Y-32137000D01*
X70500000Y-32136999D01*
X69978403Y-32240751D01*
X69978401Y-32240752D01*
X69978402Y-32240752D01*
X69536213Y-32536213D01*
X69536211Y-32536216D01*
X68536213Y-33536213D01*
X68536211Y-33536216D01*
X61036213Y-41036213D01*
X60740752Y-41478402D01*
X60740752Y-41478403D01*
X60636999Y-42000000D01*
X60637000Y-42000005D01*
X60637000Y-47671427D01*
X59404213Y-48904213D01*
X59404211Y-48904216D01*
X58513000Y-49795426D01*
X58513000Y-47023512D01*
X58655693Y-47082763D01*
X59197928Y-47083236D01*
X59699069Y-46876169D01*
X60082822Y-46493086D01*
X60290763Y-45992307D01*
X60291236Y-45450072D01*
X60291000Y-45449501D01*
X60291000Y-40136574D01*
X67213784Y-33213789D01*
X67213787Y-33213787D01*
X68963784Y-31463789D01*
X68963787Y-31463787D01*
X70564573Y-29863000D01*
X89000000Y-29863000D01*
X89521598Y-29759248D01*
X89562000Y-29732252D01*
X89562000Y-68267748D01*
G36*
X87637000Y-84171427D02*
X85396482Y-86411944D01*
X85363000Y-86445368D01*
X85363000Y-78146516D01*
X85566476Y-78350349D01*
X85540494Y-78376331D01*
X85654512Y-78597035D01*
X86236714Y-78761889D01*
X86837685Y-78691395D01*
X87065488Y-78597035D01*
X87179506Y-78376331D01*
X87153226Y-78350051D01*
X87494349Y-78009524D01*
X87520331Y-78035506D01*
X87637000Y-77975234D01*
X87637000Y-84171427D01*
X87637000Y-84171427D01*
G37*
X87637000Y-84171427D02*
X85396482Y-86411944D01*
X85363000Y-86445368D01*
X85363000Y-78146516D01*
X85566476Y-78350349D01*
X85540494Y-78376331D01*
X85654512Y-78597035D01*
X86236714Y-78761889D01*
X86837685Y-78691395D01*
X87065488Y-78597035D01*
X87179506Y-78376331D01*
X87153226Y-78350051D01*
X87494349Y-78009524D01*
X87520331Y-78035506D01*
X87637000Y-77975234D01*
X87637000Y-84171427D01*
G36*
X87637000Y-76456766D02*
X87520331Y-76396494D01*
X87494051Y-76422774D01*
X87153524Y-76081651D01*
X87179506Y-76055669D01*
X87065488Y-75834965D01*
X86483286Y-75670111D01*
X85882315Y-75740605D01*
X85654512Y-75834965D01*
X85540494Y-76055669D01*
X85566774Y-76081949D01*
X85363000Y-76285368D01*
X85363000Y-73363000D01*
X86500000Y-73363000D01*
X87021598Y-73259248D01*
X87329011Y-73053842D01*
X87457528Y-73028278D01*
X87637000Y-72908359D01*
X87637000Y-76456766D01*
X87637000Y-76456766D01*
G37*
X87637000Y-76456766D02*
X87520331Y-76396494D01*
X87494051Y-76422774D01*
X87153524Y-76081651D01*
X87179506Y-76055669D01*
X87065488Y-75834965D01*
X86483286Y-75670111D01*
X85882315Y-75740605D01*
X85654512Y-75834965D01*
X85540494Y-76055669D01*
X85566774Y-76081949D01*
X85363000Y-76285368D01*
X85363000Y-73363000D01*
X86500000Y-73363000D01*
X87021598Y-73259248D01*
X87329011Y-73053842D01*
X87457528Y-73028278D01*
X87637000Y-72908359D01*
X87637000Y-76456766D01*
G36*
X73629889Y-68596802D02*
X73629889Y-69000000D01*
X73655201Y-69134520D01*
X73734702Y-69258068D01*
X73856006Y-69340951D01*
X74000000Y-69370111D01*
X74800000Y-69370111D01*
X74934520Y-69344799D01*
X75058068Y-69265298D01*
X75140951Y-69143994D01*
X75147228Y-69113000D01*
X77301825Y-69113000D01*
X77536213Y-69463787D01*
X78536211Y-70463784D01*
X78536213Y-70463787D01*
X78795445Y-70637000D01*
X78500000Y-70637000D01*
X77978402Y-70740752D01*
X77536213Y-71036213D01*
X77301825Y-71387000D01*
X73870111Y-71387000D01*
X73870111Y-71000000D01*
X73844799Y-70865480D01*
X73765298Y-70741932D01*
X73643994Y-70659049D01*
X73500000Y-70629889D01*
X71500000Y-70629889D01*
X71365480Y-70655201D01*
X71241932Y-70734702D01*
X71159049Y-70856006D01*
X71129889Y-71000000D01*
X71129889Y-71262136D01*
X71116169Y-71228931D01*
X70733086Y-70845178D01*
X70573000Y-70778705D01*
X70573000Y-69293912D01*
X70753913Y-69113000D01*
X71851152Y-69113000D01*
X71855201Y-69134520D01*
X71934702Y-69258068D01*
X72056006Y-69340951D01*
X72200000Y-69370111D01*
X73000000Y-69370111D01*
X73134520Y-69344799D01*
X73258068Y-69265298D01*
X73340951Y-69143994D01*
X73370111Y-69000000D01*
X73370111Y-68337024D01*
X73629889Y-68596802D01*
X73629889Y-68596802D01*
G37*
X73629889Y-68596802D02*
X73629889Y-69000000D01*
X73655201Y-69134520D01*
X73734702Y-69258068D01*
X73856006Y-69340951D01*
X74000000Y-69370111D01*
X74800000Y-69370111D01*
X74934520Y-69344799D01*
X75058068Y-69265298D01*
X75140951Y-69143994D01*
X75147228Y-69113000D01*
X77301825Y-69113000D01*
X77536213Y-69463787D01*
X78536211Y-70463784D01*
X78536213Y-70463787D01*
X78795445Y-70637000D01*
X78500000Y-70637000D01*
X77978402Y-70740752D01*
X77536213Y-71036213D01*
X77301825Y-71387000D01*
X73870111Y-71387000D01*
X73870111Y-71000000D01*
X73844799Y-70865480D01*
X73765298Y-70741932D01*
X73643994Y-70659049D01*
X73500000Y-70629889D01*
X71500000Y-70629889D01*
X71365480Y-70655201D01*
X71241932Y-70734702D01*
X71159049Y-70856006D01*
X71129889Y-71000000D01*
X71129889Y-71262136D01*
X71116169Y-71228931D01*
X70733086Y-70845178D01*
X70573000Y-70778705D01*
X70573000Y-69293912D01*
X70753913Y-69113000D01*
X71851152Y-69113000D01*
X71855201Y-69134520D01*
X71934702Y-69258068D01*
X72056006Y-69340951D01*
X72200000Y-69370111D01*
X73000000Y-69370111D01*
X73134520Y-69344799D01*
X73258068Y-69265298D01*
X73340951Y-69143994D01*
X73370111Y-69000000D01*
X73370111Y-68337024D01*
X73629889Y-68596802D01*
G36*
X87637000Y-71091641D02*
X87457528Y-70971722D01*
X87329011Y-70946158D01*
X87204555Y-70863000D01*
X87637000Y-70863000D01*
X87637000Y-71091641D01*
X87637000Y-71091641D01*
G37*
X87637000Y-71091641D02*
X87457528Y-70971722D01*
X87329011Y-70946158D01*
X87204555Y-70863000D01*
X87637000Y-70863000D01*
X87637000Y-71091641D01*
G36*
X68136999Y-38000000D02*
X68240752Y-38521597D01*
X68536213Y-38963787D01*
X70137000Y-40564573D01*
X70137000Y-42387000D01*
X69870111Y-42387000D01*
X69870111Y-42000000D01*
X69844799Y-41865480D01*
X69765298Y-41741932D01*
X69643994Y-41659049D01*
X69500000Y-41629889D01*
X67500000Y-41629889D01*
X67365480Y-41655201D01*
X67241932Y-41734702D01*
X67159049Y-41856006D01*
X67129889Y-42000000D01*
X67129889Y-42262136D01*
X67116169Y-42228931D01*
X66733086Y-41845178D01*
X66232307Y-41637237D01*
X65690072Y-41636764D01*
X65188931Y-41843831D01*
X64805178Y-42226914D01*
X64597237Y-42727693D01*
X64596764Y-43269928D01*
X64803831Y-43771069D01*
X65186914Y-44154822D01*
X65347000Y-44221295D01*
X65347000Y-44867093D01*
X65241932Y-44934702D01*
X65159049Y-45056006D01*
X65129889Y-45200000D01*
X65129889Y-46000000D01*
X65155201Y-46134520D01*
X65234702Y-46258068D01*
X65356006Y-46340951D01*
X65500000Y-46370111D01*
X66500000Y-46370111D01*
X66634520Y-46344799D01*
X66758068Y-46265298D01*
X66840951Y-46143994D01*
X66870111Y-46000000D01*
X66870111Y-45200000D01*
X66844799Y-45065480D01*
X66765298Y-44941932D01*
X66643994Y-44859049D01*
X66573000Y-44844672D01*
X66573000Y-44221482D01*
X66731069Y-44156169D01*
X67114822Y-43773086D01*
X67129889Y-43736801D01*
X67129889Y-44000000D01*
X67155201Y-44134520D01*
X67234702Y-44258068D01*
X67356006Y-44340951D01*
X67500000Y-44370111D01*
X69500000Y-44370111D01*
X69634520Y-44344799D01*
X69758068Y-44265298D01*
X69840951Y-44143994D01*
X69870111Y-44000000D01*
X69870111Y-43613000D01*
X70137000Y-43613000D01*
X70137000Y-45499995D01*
X70136999Y-45500000D01*
X70188567Y-45759248D01*
X70240752Y-46021598D01*
X70454137Y-46340951D01*
X70536213Y-46463787D01*
X72572427Y-48500000D01*
X69536213Y-51536213D01*
X69240752Y-51978402D01*
X69240752Y-51978403D01*
X69136999Y-52500000D01*
X69137000Y-52500005D01*
X69137000Y-55435427D01*
X64654641Y-59917785D01*
X64644799Y-59865480D01*
X64565298Y-59741932D01*
X64443994Y-59659049D01*
X64300000Y-59629889D01*
X63500000Y-59629889D01*
X63365480Y-59655201D01*
X63241932Y-59734702D01*
X63159049Y-59856006D01*
X63129889Y-60000000D01*
X63129889Y-61000000D01*
X63155201Y-61134520D01*
X63234702Y-61258068D01*
X63282024Y-61290402D01*
X63036213Y-61536213D01*
X63036211Y-61536216D01*
X58513000Y-66059426D01*
X58513000Y-62931288D01*
X58804714Y-63013889D01*
X59405685Y-62943395D01*
X59633488Y-62849035D01*
X59747506Y-62628331D01*
X59721226Y-62602051D01*
X60062349Y-62261524D01*
X60088331Y-62287506D01*
X60309035Y-62173488D01*
X60473889Y-61591286D01*
X60403395Y-60990315D01*
X60309035Y-60762512D01*
X60088331Y-60648494D01*
X60062051Y-60674774D01*
X59721524Y-60333651D01*
X59747506Y-60307669D01*
X59633488Y-60086965D01*
X59051286Y-59922111D01*
X58513000Y-59985252D01*
X58513000Y-52611512D01*
X58655693Y-52670763D01*
X58927998Y-52671001D01*
X58928002Y-52671001D01*
X59197928Y-52671236D01*
X59699069Y-52464169D01*
X60082822Y-52081086D01*
X60083059Y-52080515D01*
X60898331Y-51265243D01*
X64887000Y-55253912D01*
X64887000Y-56746087D01*
X63851580Y-57781508D01*
X63870111Y-57690000D01*
X63870111Y-57040000D01*
X63844799Y-56905480D01*
X63765298Y-56781932D01*
X63643994Y-56699049D01*
X63500000Y-56669889D01*
X61800000Y-56669889D01*
X61665480Y-56695201D01*
X61551356Y-56768638D01*
X61400415Y-56798662D01*
X61201543Y-56931544D01*
X60066544Y-58066544D01*
X59933662Y-58265415D01*
X59887000Y-58500000D01*
X59887000Y-59000000D01*
X59907686Y-59103994D01*
X59933662Y-59234585D01*
X60066544Y-59433456D01*
X61329889Y-60696802D01*
X61329889Y-61000000D01*
X61355201Y-61134520D01*
X61434702Y-61258068D01*
X61556006Y-61340951D01*
X61700000Y-61370111D01*
X62500000Y-61370111D01*
X62634520Y-61344799D01*
X62758068Y-61265298D01*
X62840951Y-61143994D01*
X62870111Y-61000000D01*
X62870111Y-60000000D01*
X62844799Y-59865480D01*
X62765298Y-59741932D01*
X62643994Y-59659049D01*
X62500000Y-59629889D01*
X61996802Y-59629889D01*
X61670874Y-59303962D01*
X61800000Y-59330111D01*
X63500000Y-59330111D01*
X63634520Y-59304799D01*
X63722788Y-59248000D01*
X63865000Y-59248000D01*
X64099585Y-59201338D01*
X64298456Y-59068456D01*
X65933456Y-57433457D01*
X66066338Y-57234585D01*
X66113000Y-57000000D01*
X66113000Y-55000000D01*
X66066338Y-54765415D01*
X65933456Y-54566544D01*
X61765243Y-50398331D01*
X62963784Y-49199789D01*
X62963787Y-49199787D01*
X63259248Y-48757598D01*
X63259249Y-48757597D01*
X63363001Y-48236000D01*
X63363000Y-48235995D01*
X63363000Y-48013000D01*
X65205702Y-48013000D01*
X65234702Y-48058068D01*
X65356006Y-48140951D01*
X65500000Y-48170111D01*
X66500000Y-48170111D01*
X66634520Y-48144799D01*
X66758068Y-48065298D01*
X66840951Y-47943994D01*
X66870111Y-47800000D01*
X66870111Y-47000000D01*
X66844799Y-46865480D01*
X66765298Y-46741932D01*
X66643994Y-46659049D01*
X66500000Y-46629889D01*
X65500000Y-46629889D01*
X65365480Y-46655201D01*
X65241932Y-46734702D01*
X65206199Y-46787000D01*
X63363000Y-46787000D01*
X63363000Y-42564574D01*
X68189001Y-37738573D01*
X68136999Y-38000000D01*
X68136999Y-38000000D01*
G37*
X68136999Y-38000000D02*
X68240752Y-38521597D01*
X68536213Y-38963787D01*
X70137000Y-40564573D01*
X70137000Y-42387000D01*
X69870111Y-42387000D01*
X69870111Y-42000000D01*
X69844799Y-41865480D01*
X69765298Y-41741932D01*
X69643994Y-41659049D01*
X69500000Y-41629889D01*
X67500000Y-41629889D01*
X67365480Y-41655201D01*
X67241932Y-41734702D01*
X67159049Y-41856006D01*
X67129889Y-42000000D01*
X67129889Y-42262136D01*
X67116169Y-42228931D01*
X66733086Y-41845178D01*
X66232307Y-41637237D01*
X65690072Y-41636764D01*
X65188931Y-41843831D01*
X64805178Y-42226914D01*
X64597237Y-42727693D01*
X64596764Y-43269928D01*
X64803831Y-43771069D01*
X65186914Y-44154822D01*
X65347000Y-44221295D01*
X65347000Y-44867093D01*
X65241932Y-44934702D01*
X65159049Y-45056006D01*
X65129889Y-45200000D01*
X65129889Y-46000000D01*
X65155201Y-46134520D01*
X65234702Y-46258068D01*
X65356006Y-46340951D01*
X65500000Y-46370111D01*
X66500000Y-46370111D01*
X66634520Y-46344799D01*
X66758068Y-46265298D01*
X66840951Y-46143994D01*
X66870111Y-46000000D01*
X66870111Y-45200000D01*
X66844799Y-45065480D01*
X66765298Y-44941932D01*
X66643994Y-44859049D01*
X66573000Y-44844672D01*
X66573000Y-44221482D01*
X66731069Y-44156169D01*
X67114822Y-43773086D01*
X67129889Y-43736801D01*
X67129889Y-44000000D01*
X67155201Y-44134520D01*
X67234702Y-44258068D01*
X67356006Y-44340951D01*
X67500000Y-44370111D01*
X69500000Y-44370111D01*
X69634520Y-44344799D01*
X69758068Y-44265298D01*
X69840951Y-44143994D01*
X69870111Y-44000000D01*
X69870111Y-43613000D01*
X70137000Y-43613000D01*
X70137000Y-45499995D01*
X70136999Y-45500000D01*
X70188567Y-45759248D01*
X70240752Y-46021598D01*
X70454137Y-46340951D01*
X70536213Y-46463787D01*
X72572427Y-48500000D01*
X69536213Y-51536213D01*
X69240752Y-51978402D01*
X69240752Y-51978403D01*
X69136999Y-52500000D01*
X69137000Y-52500005D01*
X69137000Y-55435427D01*
X64654641Y-59917785D01*
X64644799Y-59865480D01*
X64565298Y-59741932D01*
X64443994Y-59659049D01*
X64300000Y-59629889D01*
X63500000Y-59629889D01*
X63365480Y-59655201D01*
X63241932Y-59734702D01*
X63159049Y-59856006D01*
X63129889Y-60000000D01*
X63129889Y-61000000D01*
X63155201Y-61134520D01*
X63234702Y-61258068D01*
X63282024Y-61290402D01*
X63036213Y-61536213D01*
X63036211Y-61536216D01*
X58513000Y-66059426D01*
X58513000Y-62931288D01*
X58804714Y-63013889D01*
X59405685Y-62943395D01*
X59633488Y-62849035D01*
X59747506Y-62628331D01*
X59721226Y-62602051D01*
X60062349Y-62261524D01*
X60088331Y-62287506D01*
X60309035Y-62173488D01*
X60473889Y-61591286D01*
X60403395Y-60990315D01*
X60309035Y-60762512D01*
X60088331Y-60648494D01*
X60062051Y-60674774D01*
X59721524Y-60333651D01*
X59747506Y-60307669D01*
X59633488Y-60086965D01*
X59051286Y-59922111D01*
X58513000Y-59985252D01*
X58513000Y-52611512D01*
X58655693Y-52670763D01*
X58927998Y-52671001D01*
X58928002Y-52671001D01*
X59197928Y-52671236D01*
X59699069Y-52464169D01*
X60082822Y-52081086D01*
X60083059Y-52080515D01*
X60898331Y-51265243D01*
X64887000Y-55253912D01*
X64887000Y-56746087D01*
X63851580Y-57781508D01*
X63870111Y-57690000D01*
X63870111Y-57040000D01*
X63844799Y-56905480D01*
X63765298Y-56781932D01*
X63643994Y-56699049D01*
X63500000Y-56669889D01*
X61800000Y-56669889D01*
X61665480Y-56695201D01*
X61551356Y-56768638D01*
X61400415Y-56798662D01*
X61201543Y-56931544D01*
X60066544Y-58066544D01*
X59933662Y-58265415D01*
X59887000Y-58500000D01*
X59887000Y-59000000D01*
X59907686Y-59103994D01*
X59933662Y-59234585D01*
X60066544Y-59433456D01*
X61329889Y-60696802D01*
X61329889Y-61000000D01*
X61355201Y-61134520D01*
X61434702Y-61258068D01*
X61556006Y-61340951D01*
X61700000Y-61370111D01*
X62500000Y-61370111D01*
X62634520Y-61344799D01*
X62758068Y-61265298D01*
X62840951Y-61143994D01*
X62870111Y-61000000D01*
X62870111Y-60000000D01*
X62844799Y-59865480D01*
X62765298Y-59741932D01*
X62643994Y-59659049D01*
X62500000Y-59629889D01*
X61996802Y-59629889D01*
X61670874Y-59303962D01*
X61800000Y-59330111D01*
X63500000Y-59330111D01*
X63634520Y-59304799D01*
X63722788Y-59248000D01*
X63865000Y-59248000D01*
X64099585Y-59201338D01*
X64298456Y-59068456D01*
X65933456Y-57433457D01*
X66066338Y-57234585D01*
X66113000Y-57000000D01*
X66113000Y-55000000D01*
X66066338Y-54765415D01*
X65933456Y-54566544D01*
X61765243Y-50398331D01*
X62963784Y-49199789D01*
X62963787Y-49199787D01*
X63259248Y-48757598D01*
X63259249Y-48757597D01*
X63363001Y-48236000D01*
X63363000Y-48235995D01*
X63363000Y-48013000D01*
X65205702Y-48013000D01*
X65234702Y-48058068D01*
X65356006Y-48140951D01*
X65500000Y-48170111D01*
X66500000Y-48170111D01*
X66634520Y-48144799D01*
X66758068Y-48065298D01*
X66840951Y-47943994D01*
X66870111Y-47800000D01*
X66870111Y-47000000D01*
X66844799Y-46865480D01*
X66765298Y-46741932D01*
X66643994Y-46659049D01*
X66500000Y-46629889D01*
X65500000Y-46629889D01*
X65365480Y-46655201D01*
X65241932Y-46734702D01*
X65206199Y-46787000D01*
X63363000Y-46787000D01*
X63363000Y-42564574D01*
X68189001Y-37738573D01*
X68136999Y-38000000D01*
G36*
X61429889Y-58960000D02*
X61453757Y-59086844D01*
X61116912Y-58750000D01*
X61429889Y-58437023D01*
X61429889Y-58960000D01*
X61429889Y-58960000D01*
G37*
X61429889Y-58960000D02*
X61453757Y-59086844D01*
X61116912Y-58750000D01*
X61429889Y-58437023D01*
X61429889Y-58960000D01*
G36*
X76670989Y-34946158D02*
X76542472Y-34971722D01*
X76181389Y-35212990D01*
X75940121Y-35574073D01*
X75855399Y-36000000D01*
X75940121Y-36425927D01*
X76181389Y-36787010D01*
X76542472Y-37028278D01*
X76670989Y-37053842D01*
X76978402Y-37259248D01*
X77137000Y-37290795D01*
X77137000Y-43000000D01*
X77240752Y-43521598D01*
X77536213Y-43963787D01*
X77978402Y-44259248D01*
X78500000Y-44363000D01*
X79021598Y-44259248D01*
X79386986Y-44015103D01*
X79386807Y-44220418D01*
X79555894Y-44629640D01*
X79563241Y-44637000D01*
X76064573Y-44637000D01*
X75363000Y-43935426D01*
X75363000Y-35564574D01*
X76064573Y-34863000D01*
X76795445Y-34863000D01*
X76670989Y-34946158D01*
X76670989Y-34946158D01*
G37*
X76670989Y-34946158D02*
X76542472Y-34971722D01*
X76181389Y-35212990D01*
X75940121Y-35574073D01*
X75855399Y-36000000D01*
X75940121Y-36425927D01*
X76181389Y-36787010D01*
X76542472Y-37028278D01*
X76670989Y-37053842D01*
X76978402Y-37259248D01*
X77137000Y-37290795D01*
X77137000Y-43000000D01*
X77240752Y-43521598D01*
X77536213Y-43963787D01*
X77978402Y-44259248D01*
X78500000Y-44363000D01*
X79021598Y-44259248D01*
X79386986Y-44015103D01*
X79386807Y-44220418D01*
X79555894Y-44629640D01*
X79563241Y-44637000D01*
X76064573Y-44637000D01*
X75363000Y-43935426D01*
X75363000Y-35564574D01*
X76064573Y-34863000D01*
X76795445Y-34863000D01*
X76670989Y-34946158D01*
G36*
X81555894Y-44629640D02*
X81563241Y-44637000D01*
X81437282Y-44637000D01*
X81443005Y-44631287D01*
X81499930Y-44494197D01*
X81555894Y-44629640D01*
X81555894Y-44629640D01*
G37*
X81555894Y-44629640D02*
X81563241Y-44637000D01*
X81437282Y-44637000D01*
X81443005Y-44631287D01*
X81499930Y-44494197D01*
X81555894Y-44629640D01*
G36*
X72636999Y-35000000D02*
X72637000Y-35000005D01*
X72637000Y-39295445D01*
X72463787Y-39036213D01*
X72463784Y-39036211D01*
X70463787Y-37036213D01*
X70021597Y-36740752D01*
X69500000Y-36636999D01*
X69238573Y-36689001D01*
X70463784Y-35463789D01*
X70463787Y-35463787D01*
X71064573Y-34863000D01*
X72664250Y-34863000D01*
X72636999Y-35000000D01*
X72636999Y-35000000D01*
G37*
X72636999Y-35000000D02*
X72637000Y-35000005D01*
X72637000Y-39295445D01*
X72463787Y-39036213D01*
X72463784Y-39036211D01*
X70463787Y-37036213D01*
X70021597Y-36740752D01*
X69500000Y-36636999D01*
X69238573Y-36689001D01*
X70463784Y-35463789D01*
X70463787Y-35463787D01*
X71064573Y-34863000D01*
X72664250Y-34863000D01*
X72636999Y-35000000D01*
G36*
X58513000Y-38059426D02*
X58513000Y-37023288D01*
X58804714Y-37105889D01*
X59405685Y-37035395D01*
X59629909Y-36942518D01*
X58513000Y-38059426D01*
X58513000Y-38059426D01*
G37*
X58513000Y-38059426D02*
X58513000Y-37023288D01*
X58804714Y-37105889D01*
X59405685Y-37035395D01*
X59629909Y-36942518D01*
X58513000Y-38059426D01*
G36*
X59635729Y-36936697D02*
X59747506Y-36720331D01*
X59721226Y-36694051D01*
X60062349Y-36353524D01*
X60088331Y-36379506D01*
X60304698Y-36267729D01*
X59635729Y-36936697D01*
X59635729Y-36936697D01*
G37*
X59635729Y-36936697D02*
X59747506Y-36720331D01*
X59721226Y-36694051D01*
X60062349Y-36353524D01*
X60088331Y-36379506D01*
X60304698Y-36267729D01*
X59635729Y-36936697D01*
G36*
X58655693Y-26762763D02*
X59197928Y-26763236D01*
X59198499Y-26763000D01*
X65887000Y-26763000D01*
X65887000Y-27746087D01*
X65111088Y-28522000D01*
X63721491Y-28522000D01*
X63688956Y-28499770D01*
X63758068Y-28455298D01*
X63840951Y-28333994D01*
X63870111Y-28190000D01*
X63870111Y-27540000D01*
X63844799Y-27405480D01*
X63765298Y-27281932D01*
X63643994Y-27199049D01*
X63500000Y-27169889D01*
X61800000Y-27169889D01*
X61665480Y-27195201D01*
X61551356Y-27268638D01*
X61400415Y-27298662D01*
X61201544Y-27431543D01*
X60566544Y-28066544D01*
X60433662Y-28265415D01*
X60387000Y-28500000D01*
X60387000Y-29900000D01*
X60432728Y-30129889D01*
X60433662Y-30134585D01*
X60566544Y-30333456D01*
X61329889Y-31096802D01*
X61329889Y-31500000D01*
X61355201Y-31634520D01*
X61434702Y-31758068D01*
X61556006Y-31840951D01*
X61700000Y-31870111D01*
X62500000Y-31870111D01*
X62634520Y-31844799D01*
X62758068Y-31765298D01*
X62840951Y-31643994D01*
X62870111Y-31500000D01*
X62870111Y-30500000D01*
X62844799Y-30365480D01*
X62765298Y-30241932D01*
X62643994Y-30159049D01*
X62500000Y-30129889D01*
X62096802Y-30129889D01*
X61796267Y-29829355D01*
X61800000Y-29830111D01*
X63500000Y-29830111D01*
X63634520Y-29804799D01*
X63722788Y-29748000D01*
X65365000Y-29748000D01*
X65599585Y-29701338D01*
X65798456Y-29568456D01*
X66933456Y-28433457D01*
X67066338Y-28234585D01*
X67113000Y-28000000D01*
X67113000Y-26763000D01*
X69599995Y-26763000D01*
X69600000Y-26763001D01*
X69796367Y-26723941D01*
X70036211Y-26963784D01*
X70036213Y-26963787D01*
X70132731Y-27028278D01*
X70295445Y-27137000D01*
X70000005Y-27137000D01*
X70000000Y-27136999D01*
X69564941Y-27223538D01*
X69478402Y-27240752D01*
X69036213Y-27536213D01*
X69036211Y-27536216D01*
X67036213Y-29536213D01*
X67036211Y-29536216D01*
X65719669Y-30852757D01*
X65433456Y-30566544D01*
X65234585Y-30433662D01*
X65000000Y-30387000D01*
X64648848Y-30387000D01*
X64644799Y-30365480D01*
X64565298Y-30241932D01*
X64443994Y-30159049D01*
X64300000Y-30129889D01*
X63500000Y-30129889D01*
X63365480Y-30155201D01*
X63241932Y-30234702D01*
X63159049Y-30356006D01*
X63129889Y-30500000D01*
X63129889Y-31500000D01*
X63155201Y-31634520D01*
X63234702Y-31758068D01*
X63356006Y-31840951D01*
X63500000Y-31870111D01*
X64300000Y-31870111D01*
X64434520Y-31844799D01*
X64558068Y-31765298D01*
X64640951Y-31643994D01*
X64647228Y-31613000D01*
X64746088Y-31613000D01*
X64852757Y-31719669D01*
X60309863Y-36262563D01*
X60473889Y-35683286D01*
X60403395Y-35082315D01*
X60309035Y-34854512D01*
X60088331Y-34740494D01*
X60062051Y-34766774D01*
X59721524Y-34425651D01*
X59747506Y-34399669D01*
X59633488Y-34178965D01*
X59051286Y-34014111D01*
X58513000Y-34077252D01*
X58513000Y-26703512D01*
X58655693Y-26762763D01*
X58655693Y-26762763D01*
G37*
X58655693Y-26762763D02*
X59197928Y-26763236D01*
X59198499Y-26763000D01*
X65887000Y-26763000D01*
X65887000Y-27746087D01*
X65111088Y-28522000D01*
X63721491Y-28522000D01*
X63688956Y-28499770D01*
X63758068Y-28455298D01*
X63840951Y-28333994D01*
X63870111Y-28190000D01*
X63870111Y-27540000D01*
X63844799Y-27405480D01*
X63765298Y-27281932D01*
X63643994Y-27199049D01*
X63500000Y-27169889D01*
X61800000Y-27169889D01*
X61665480Y-27195201D01*
X61551356Y-27268638D01*
X61400415Y-27298662D01*
X61201544Y-27431543D01*
X60566544Y-28066544D01*
X60433662Y-28265415D01*
X60387000Y-28500000D01*
X60387000Y-29900000D01*
X60432728Y-30129889D01*
X60433662Y-30134585D01*
X60566544Y-30333456D01*
X61329889Y-31096802D01*
X61329889Y-31500000D01*
X61355201Y-31634520D01*
X61434702Y-31758068D01*
X61556006Y-31840951D01*
X61700000Y-31870111D01*
X62500000Y-31870111D01*
X62634520Y-31844799D01*
X62758068Y-31765298D01*
X62840951Y-31643994D01*
X62870111Y-31500000D01*
X62870111Y-30500000D01*
X62844799Y-30365480D01*
X62765298Y-30241932D01*
X62643994Y-30159049D01*
X62500000Y-30129889D01*
X62096802Y-30129889D01*
X61796267Y-29829355D01*
X61800000Y-29830111D01*
X63500000Y-29830111D01*
X63634520Y-29804799D01*
X63722788Y-29748000D01*
X65365000Y-29748000D01*
X65599585Y-29701338D01*
X65798456Y-29568456D01*
X66933456Y-28433457D01*
X67066338Y-28234585D01*
X67113000Y-28000000D01*
X67113000Y-26763000D01*
X69599995Y-26763000D01*
X69600000Y-26763001D01*
X69796367Y-26723941D01*
X70036211Y-26963784D01*
X70036213Y-26963787D01*
X70132731Y-27028278D01*
X70295445Y-27137000D01*
X70000005Y-27137000D01*
X70000000Y-27136999D01*
X69564941Y-27223538D01*
X69478402Y-27240752D01*
X69036213Y-27536213D01*
X69036211Y-27536216D01*
X67036213Y-29536213D01*
X67036211Y-29536216D01*
X65719669Y-30852757D01*
X65433456Y-30566544D01*
X65234585Y-30433662D01*
X65000000Y-30387000D01*
X64648848Y-30387000D01*
X64644799Y-30365480D01*
X64565298Y-30241932D01*
X64443994Y-30159049D01*
X64300000Y-30129889D01*
X63500000Y-30129889D01*
X63365480Y-30155201D01*
X63241932Y-30234702D01*
X63159049Y-30356006D01*
X63129889Y-30500000D01*
X63129889Y-31500000D01*
X63155201Y-31634520D01*
X63234702Y-31758068D01*
X63356006Y-31840951D01*
X63500000Y-31870111D01*
X64300000Y-31870111D01*
X64434520Y-31844799D01*
X64558068Y-31765298D01*
X64640951Y-31643994D01*
X64647228Y-31613000D01*
X64746088Y-31613000D01*
X64852757Y-31719669D01*
X60309863Y-36262563D01*
X60473889Y-35683286D01*
X60403395Y-35082315D01*
X60309035Y-34854512D01*
X60088331Y-34740494D01*
X60062051Y-34766774D01*
X59721524Y-34425651D01*
X59747506Y-34399669D01*
X59633488Y-34178965D01*
X59051286Y-34014111D01*
X58513000Y-34077252D01*
X58513000Y-26703512D01*
X58655693Y-26762763D01*
G36*
X87637000Y-27137000D02*
X87204555Y-27137000D01*
X87329011Y-27053842D01*
X87457528Y-27028278D01*
X87637000Y-26908359D01*
X87637000Y-27137000D01*
X87637000Y-27137000D01*
G37*
X87637000Y-27137000D02*
X87204555Y-27137000D01*
X87329011Y-27053842D01*
X87457528Y-27028278D01*
X87637000Y-26908359D01*
X87637000Y-27137000D01*
G36*
X87637000Y-25064573D02*
X87637000Y-25091641D01*
X87457528Y-24971722D01*
X87329011Y-24946158D01*
X87021598Y-24740752D01*
X86500000Y-24637000D01*
X81863000Y-24637000D01*
X81863000Y-21720577D01*
X82059879Y-21425927D01*
X82144601Y-21000000D01*
X82059879Y-20574073D01*
X81818611Y-20212990D01*
X81457528Y-19971722D01*
X81329011Y-19946158D01*
X81204555Y-19863000D01*
X82435426Y-19863000D01*
X87637000Y-25064573D01*
X87637000Y-25064573D01*
G37*
X87637000Y-25064573D02*
X87637000Y-25091641D01*
X87457528Y-24971722D01*
X87329011Y-24946158D01*
X87021598Y-24740752D01*
X86500000Y-24637000D01*
X81863000Y-24637000D01*
X81863000Y-21720577D01*
X82059879Y-21425927D01*
X82144601Y-21000000D01*
X82059879Y-20574073D01*
X81818611Y-20212990D01*
X81457528Y-19971722D01*
X81329011Y-19946158D01*
X81204555Y-19863000D01*
X82435426Y-19863000D01*
X87637000Y-25064573D01*
G36*
X82387000Y-13253913D02*
X82387000Y-17137000D01*
X80500000Y-17137000D01*
X79978402Y-17240752D01*
X79670989Y-17446158D01*
X79542472Y-17471722D01*
X79181389Y-17712990D01*
X79065119Y-17887000D01*
X75870111Y-17887000D01*
X75870111Y-17500000D01*
X75844799Y-17365480D01*
X75765298Y-17241932D01*
X75643994Y-17159049D01*
X75500000Y-17129889D01*
X73500000Y-17129889D01*
X73365480Y-17155201D01*
X73241932Y-17234702D01*
X73159049Y-17356006D01*
X73129889Y-17500000D01*
X73129889Y-19500000D01*
X73155201Y-19634520D01*
X73234702Y-19758068D01*
X73356006Y-19840951D01*
X73500000Y-19870111D01*
X73762136Y-19870111D01*
X73728931Y-19883831D01*
X73345178Y-20266914D01*
X73137237Y-20767693D01*
X73136764Y-21309928D01*
X73343831Y-21811069D01*
X73726914Y-22194822D01*
X74227693Y-22402763D01*
X74769928Y-22403236D01*
X75271069Y-22196169D01*
X75654822Y-21813086D01*
X75737905Y-21613000D01*
X75851152Y-21613000D01*
X75855201Y-21634520D01*
X75934702Y-21758068D01*
X76056006Y-21840951D01*
X76200000Y-21870111D01*
X77000000Y-21870111D01*
X77134520Y-21844799D01*
X77258068Y-21765298D01*
X77340951Y-21643994D01*
X77370111Y-21500000D01*
X77370111Y-20500000D01*
X77344799Y-20365480D01*
X77265298Y-20241932D01*
X77143994Y-20159049D01*
X77000000Y-20129889D01*
X76200000Y-20129889D01*
X76065480Y-20155201D01*
X75941932Y-20234702D01*
X75859049Y-20356006D01*
X75852772Y-20387000D01*
X75704954Y-20387000D01*
X75656169Y-20268931D01*
X75273086Y-19885178D01*
X75236801Y-19870111D01*
X75500000Y-19870111D01*
X75634520Y-19844799D01*
X75758068Y-19765298D01*
X75840951Y-19643994D01*
X75870111Y-19500000D01*
X75870111Y-19113000D01*
X79065119Y-19113000D01*
X79181389Y-19287010D01*
X79542472Y-19528278D01*
X79670989Y-19553842D01*
X79964561Y-19750000D01*
X79670989Y-19946158D01*
X79542472Y-19971722D01*
X79181389Y-20212990D01*
X79112763Y-20315695D01*
X79065298Y-20241932D01*
X78943994Y-20159049D01*
X78800000Y-20129889D01*
X78000000Y-20129889D01*
X77865480Y-20155201D01*
X77741932Y-20234702D01*
X77659049Y-20356006D01*
X77629889Y-20500000D01*
X77629889Y-21500000D01*
X77655201Y-21634520D01*
X77734702Y-21758068D01*
X77856006Y-21840951D01*
X78000000Y-21870111D01*
X78800000Y-21870111D01*
X78934520Y-21844799D01*
X79058068Y-21765298D01*
X79113082Y-21684782D01*
X79137000Y-21720577D01*
X79137000Y-24637000D01*
X71564573Y-24637000D01*
X70963787Y-24036213D01*
X70613000Y-23801825D01*
X70613000Y-22000000D01*
X70566338Y-21765415D01*
X70485207Y-21643994D01*
X70433457Y-21566544D01*
X69568456Y-20701544D01*
X69369585Y-20568662D01*
X69358932Y-20566543D01*
X69135000Y-20522000D01*
X68721491Y-20522000D01*
X68688956Y-20499770D01*
X68722788Y-20478000D01*
X70135000Y-20478000D01*
X70369585Y-20431338D01*
X70568456Y-20298456D01*
X72533457Y-18333456D01*
X72666338Y-18134585D01*
X72713000Y-17900000D01*
X72713000Y-16794298D01*
X72758068Y-16765298D01*
X72840951Y-16643994D01*
X72870111Y-16500000D01*
X72870111Y-15500000D01*
X72844799Y-15365480D01*
X72765298Y-15241932D01*
X72643994Y-15159049D01*
X72500000Y-15129889D01*
X72237024Y-15129889D01*
X72253913Y-15113000D01*
X79331035Y-15113000D01*
X79181389Y-15212990D01*
X79065119Y-15387000D01*
X74648848Y-15387000D01*
X74644799Y-15365480D01*
X74565298Y-15241932D01*
X74443994Y-15159049D01*
X74300000Y-15129889D01*
X73500000Y-15129889D01*
X73365480Y-15155201D01*
X73241932Y-15234702D01*
X73159049Y-15356006D01*
X73129889Y-15500000D01*
X73129889Y-16500000D01*
X73155201Y-16634520D01*
X73234702Y-16758068D01*
X73356006Y-16840951D01*
X73500000Y-16870111D01*
X74300000Y-16870111D01*
X74434520Y-16844799D01*
X74558068Y-16765298D01*
X74640951Y-16643994D01*
X74647228Y-16613000D01*
X79065119Y-16613000D01*
X79181389Y-16787010D01*
X79542472Y-17028278D01*
X79968399Y-17113000D01*
X81031601Y-17113000D01*
X81457528Y-17028278D01*
X81818611Y-16787010D01*
X82059879Y-16425927D01*
X82144601Y-16000000D01*
X82059879Y-15574073D01*
X81818611Y-15212990D01*
X81457528Y-14971722D01*
X81031601Y-14887000D01*
X79979912Y-14887000D01*
X80253912Y-14613000D01*
X81031601Y-14613000D01*
X81457528Y-14528278D01*
X81818611Y-14287010D01*
X82059879Y-13925927D01*
X82144601Y-13500000D01*
X82059879Y-13074073D01*
X81818611Y-12712990D01*
X81457528Y-12471722D01*
X81031601Y-12387000D01*
X79968399Y-12387000D01*
X79542472Y-12471722D01*
X79181389Y-12712990D01*
X78940121Y-13074073D01*
X78855399Y-13500000D01*
X78932378Y-13887000D01*
X74670111Y-13887000D01*
X74670111Y-13596801D01*
X76653913Y-11613000D01*
X80746088Y-11613000D01*
X82387000Y-13253913D01*
X82387000Y-13253913D01*
G37*
X82387000Y-13253913D02*
X82387000Y-17137000D01*
X80500000Y-17137000D01*
X79978402Y-17240752D01*
X79670989Y-17446158D01*
X79542472Y-17471722D01*
X79181389Y-17712990D01*
X79065119Y-17887000D01*
X75870111Y-17887000D01*
X75870111Y-17500000D01*
X75844799Y-17365480D01*
X75765298Y-17241932D01*
X75643994Y-17159049D01*
X75500000Y-17129889D01*
X73500000Y-17129889D01*
X73365480Y-17155201D01*
X73241932Y-17234702D01*
X73159049Y-17356006D01*
X73129889Y-17500000D01*
X73129889Y-19500000D01*
X73155201Y-19634520D01*
X73234702Y-19758068D01*
X73356006Y-19840951D01*
X73500000Y-19870111D01*
X73762136Y-19870111D01*
X73728931Y-19883831D01*
X73345178Y-20266914D01*
X73137237Y-20767693D01*
X73136764Y-21309928D01*
X73343831Y-21811069D01*
X73726914Y-22194822D01*
X74227693Y-22402763D01*
X74769928Y-22403236D01*
X75271069Y-22196169D01*
X75654822Y-21813086D01*
X75737905Y-21613000D01*
X75851152Y-21613000D01*
X75855201Y-21634520D01*
X75934702Y-21758068D01*
X76056006Y-21840951D01*
X76200000Y-21870111D01*
X77000000Y-21870111D01*
X77134520Y-21844799D01*
X77258068Y-21765298D01*
X77340951Y-21643994D01*
X77370111Y-21500000D01*
X77370111Y-20500000D01*
X77344799Y-20365480D01*
X77265298Y-20241932D01*
X77143994Y-20159049D01*
X77000000Y-20129889D01*
X76200000Y-20129889D01*
X76065480Y-20155201D01*
X75941932Y-20234702D01*
X75859049Y-20356006D01*
X75852772Y-20387000D01*
X75704954Y-20387000D01*
X75656169Y-20268931D01*
X75273086Y-19885178D01*
X75236801Y-19870111D01*
X75500000Y-19870111D01*
X75634520Y-19844799D01*
X75758068Y-19765298D01*
X75840951Y-19643994D01*
X75870111Y-19500000D01*
X75870111Y-19113000D01*
X79065119Y-19113000D01*
X79181389Y-19287010D01*
X79542472Y-19528278D01*
X79670989Y-19553842D01*
X79964561Y-19750000D01*
X79670989Y-19946158D01*
X79542472Y-19971722D01*
X79181389Y-20212990D01*
X79112763Y-20315695D01*
X79065298Y-20241932D01*
X78943994Y-20159049D01*
X78800000Y-20129889D01*
X78000000Y-20129889D01*
X77865480Y-20155201D01*
X77741932Y-20234702D01*
X77659049Y-20356006D01*
X77629889Y-20500000D01*
X77629889Y-21500000D01*
X77655201Y-21634520D01*
X77734702Y-21758068D01*
X77856006Y-21840951D01*
X78000000Y-21870111D01*
X78800000Y-21870111D01*
X78934520Y-21844799D01*
X79058068Y-21765298D01*
X79113082Y-21684782D01*
X79137000Y-21720577D01*
X79137000Y-24637000D01*
X71564573Y-24637000D01*
X70963787Y-24036213D01*
X70613000Y-23801825D01*
X70613000Y-22000000D01*
X70566338Y-21765415D01*
X70485207Y-21643994D01*
X70433457Y-21566544D01*
X69568456Y-20701544D01*
X69369585Y-20568662D01*
X69358932Y-20566543D01*
X69135000Y-20522000D01*
X68721491Y-20522000D01*
X68688956Y-20499770D01*
X68722788Y-20478000D01*
X70135000Y-20478000D01*
X70369585Y-20431338D01*
X70568456Y-20298456D01*
X72533457Y-18333456D01*
X72666338Y-18134585D01*
X72713000Y-17900000D01*
X72713000Y-16794298D01*
X72758068Y-16765298D01*
X72840951Y-16643994D01*
X72870111Y-16500000D01*
X72870111Y-15500000D01*
X72844799Y-15365480D01*
X72765298Y-15241932D01*
X72643994Y-15159049D01*
X72500000Y-15129889D01*
X72237024Y-15129889D01*
X72253913Y-15113000D01*
X79331035Y-15113000D01*
X79181389Y-15212990D01*
X79065119Y-15387000D01*
X74648848Y-15387000D01*
X74644799Y-15365480D01*
X74565298Y-15241932D01*
X74443994Y-15159049D01*
X74300000Y-15129889D01*
X73500000Y-15129889D01*
X73365480Y-15155201D01*
X73241932Y-15234702D01*
X73159049Y-15356006D01*
X73129889Y-15500000D01*
X73129889Y-16500000D01*
X73155201Y-16634520D01*
X73234702Y-16758068D01*
X73356006Y-16840951D01*
X73500000Y-16870111D01*
X74300000Y-16870111D01*
X74434520Y-16844799D01*
X74558068Y-16765298D01*
X74640951Y-16643994D01*
X74647228Y-16613000D01*
X79065119Y-16613000D01*
X79181389Y-16787010D01*
X79542472Y-17028278D01*
X79968399Y-17113000D01*
X81031601Y-17113000D01*
X81457528Y-17028278D01*
X81818611Y-16787010D01*
X82059879Y-16425927D01*
X82144601Y-16000000D01*
X82059879Y-15574073D01*
X81818611Y-15212990D01*
X81457528Y-14971722D01*
X81031601Y-14887000D01*
X79979912Y-14887000D01*
X80253912Y-14613000D01*
X81031601Y-14613000D01*
X81457528Y-14528278D01*
X81818611Y-14287010D01*
X82059879Y-13925927D01*
X82144601Y-13500000D01*
X82059879Y-13074073D01*
X81818611Y-12712990D01*
X81457528Y-12471722D01*
X81031601Y-12387000D01*
X79968399Y-12387000D01*
X79542472Y-12471722D01*
X79181389Y-12712990D01*
X78940121Y-13074073D01*
X78855399Y-13500000D01*
X78932378Y-13887000D01*
X74670111Y-13887000D01*
X74670111Y-13596801D01*
X76653913Y-11613000D01*
X80746088Y-11613000D01*
X82387000Y-13253913D01*
G36*
X89562000Y-23134427D02*
X83963787Y-17536213D01*
X83859518Y-17466543D01*
X83613000Y-17301825D01*
X83613000Y-17006607D01*
X84953831Y-17006607D01*
X85016444Y-17808169D01*
X85202729Y-18257901D01*
X85475307Y-18433867D01*
X85512396Y-18396778D01*
X85852924Y-18737902D01*
X85816133Y-18774693D01*
X85992099Y-19047271D01*
X86756607Y-19296169D01*
X87558169Y-19233556D01*
X88007901Y-19047271D01*
X88183867Y-18774693D01*
X88146778Y-18737604D01*
X88487902Y-18397076D01*
X88524693Y-18433867D01*
X88797271Y-18257901D01*
X89046169Y-17493393D01*
X88983556Y-16691831D01*
X88797271Y-16242099D01*
X88524693Y-16066133D01*
X88487604Y-16103222D01*
X88147076Y-15762098D01*
X88183867Y-15725307D01*
X88007901Y-15452729D01*
X87243393Y-15203831D01*
X86441831Y-15266444D01*
X85992099Y-15452729D01*
X85816133Y-15725307D01*
X85853222Y-15762396D01*
X85512098Y-16102924D01*
X85475307Y-16066133D01*
X85202729Y-16242099D01*
X84953831Y-17006607D01*
X83613000Y-17006607D01*
X83613000Y-13000000D01*
X83566338Y-12765415D01*
X83531309Y-12712990D01*
X83433456Y-12566543D01*
X81433456Y-10566544D01*
X81234585Y-10433662D01*
X81000000Y-10387000D01*
X76400000Y-10387000D01*
X76165415Y-10433662D01*
X75966544Y-10566543D01*
X73903199Y-12629889D01*
X73500000Y-12629889D01*
X73365480Y-12655201D01*
X73241932Y-12734702D01*
X73159049Y-12856006D01*
X73129889Y-13000000D01*
X73129889Y-13887000D01*
X72870111Y-13887000D01*
X72870111Y-13000000D01*
X72844799Y-12865480D01*
X72765298Y-12741932D01*
X72643994Y-12659049D01*
X72500000Y-12629889D01*
X71700000Y-12629889D01*
X71565480Y-12655201D01*
X71441932Y-12734702D01*
X71359049Y-12856006D01*
X71329889Y-13000000D01*
X71329889Y-14000000D01*
X71355201Y-14134520D01*
X71411334Y-14221753D01*
X70870111Y-14762976D01*
X70870111Y-14540000D01*
X70844799Y-14405480D01*
X70765298Y-14281932D01*
X70643994Y-14199049D01*
X70500000Y-14169889D01*
X68800000Y-14169889D01*
X68665480Y-14195201D01*
X68577212Y-14252000D01*
X68135000Y-14252000D01*
X67900415Y-14298662D01*
X67701544Y-14431544D01*
X65566544Y-16566544D01*
X65433662Y-16765415D01*
X65387000Y-17000000D01*
X65387000Y-20500000D01*
X65427090Y-20701543D01*
X65433662Y-20734585D01*
X65566544Y-20933456D01*
X66201544Y-21568457D01*
X66400415Y-21701338D01*
X66555310Y-21732149D01*
X66656006Y-21800951D01*
X66800000Y-21830111D01*
X68500000Y-21830111D01*
X68634520Y-21804799D01*
X68722788Y-21748000D01*
X68881088Y-21748000D01*
X69387000Y-22253913D01*
X69387000Y-23801825D01*
X69301286Y-23859097D01*
X69036213Y-24036213D01*
X69036211Y-24036216D01*
X69035427Y-24037000D01*
X58928616Y-24037000D01*
X58658072Y-24036764D01*
X58513000Y-24096706D01*
X58513000Y-24013000D01*
X65000000Y-24013000D01*
X65005058Y-24011976D01*
X65009319Y-24009065D01*
X65012111Y-24004725D01*
X65013000Y-24000000D01*
X65013000Y-5467968D01*
X82636591Y-5467968D01*
X82995578Y-6336783D01*
X83659720Y-7002086D01*
X84527908Y-7362589D01*
X85467968Y-7363409D01*
X86336783Y-7004422D01*
X87002086Y-6340280D01*
X87362589Y-5472092D01*
X87363409Y-4532032D01*
X87004422Y-3663217D01*
X86340280Y-2997914D01*
X85472092Y-2637411D01*
X84532032Y-2636591D01*
X83663217Y-2995578D01*
X82997914Y-3659720D01*
X82637411Y-4527908D01*
X82636591Y-5467968D01*
X65013000Y-5467968D01*
X65013000Y-438000D01*
X89562000Y-438000D01*
X89562000Y-23134427D01*
X89562000Y-23134427D01*
G37*
X89562000Y-23134427D02*
X83963787Y-17536213D01*
X83859518Y-17466543D01*
X83613000Y-17301825D01*
X83613000Y-17006607D01*
X84953831Y-17006607D01*
X85016444Y-17808169D01*
X85202729Y-18257901D01*
X85475307Y-18433867D01*
X85512396Y-18396778D01*
X85852924Y-18737902D01*
X85816133Y-18774693D01*
X85992099Y-19047271D01*
X86756607Y-19296169D01*
X87558169Y-19233556D01*
X88007901Y-19047271D01*
X88183867Y-18774693D01*
X88146778Y-18737604D01*
X88487902Y-18397076D01*
X88524693Y-18433867D01*
X88797271Y-18257901D01*
X89046169Y-17493393D01*
X88983556Y-16691831D01*
X88797271Y-16242099D01*
X88524693Y-16066133D01*
X88487604Y-16103222D01*
X88147076Y-15762098D01*
X88183867Y-15725307D01*
X88007901Y-15452729D01*
X87243393Y-15203831D01*
X86441831Y-15266444D01*
X85992099Y-15452729D01*
X85816133Y-15725307D01*
X85853222Y-15762396D01*
X85512098Y-16102924D01*
X85475307Y-16066133D01*
X85202729Y-16242099D01*
X84953831Y-17006607D01*
X83613000Y-17006607D01*
X83613000Y-13000000D01*
X83566338Y-12765415D01*
X83531309Y-12712990D01*
X83433456Y-12566543D01*
X81433456Y-10566544D01*
X81234585Y-10433662D01*
X81000000Y-10387000D01*
X76400000Y-10387000D01*
X76165415Y-10433662D01*
X75966544Y-10566543D01*
X73903199Y-12629889D01*
X73500000Y-12629889D01*
X73365480Y-12655201D01*
X73241932Y-12734702D01*
X73159049Y-12856006D01*
X73129889Y-13000000D01*
X73129889Y-13887000D01*
X72870111Y-13887000D01*
X72870111Y-13000000D01*
X72844799Y-12865480D01*
X72765298Y-12741932D01*
X72643994Y-12659049D01*
X72500000Y-12629889D01*
X71700000Y-12629889D01*
X71565480Y-12655201D01*
X71441932Y-12734702D01*
X71359049Y-12856006D01*
X71329889Y-13000000D01*
X71329889Y-14000000D01*
X71355201Y-14134520D01*
X71411334Y-14221753D01*
X70870111Y-14762976D01*
X70870111Y-14540000D01*
X70844799Y-14405480D01*
X70765298Y-14281932D01*
X70643994Y-14199049D01*
X70500000Y-14169889D01*
X68800000Y-14169889D01*
X68665480Y-14195201D01*
X68577212Y-14252000D01*
X68135000Y-14252000D01*
X67900415Y-14298662D01*
X67701544Y-14431544D01*
X65566544Y-16566544D01*
X65433662Y-16765415D01*
X65387000Y-17000000D01*
X65387000Y-20500000D01*
X65427090Y-20701543D01*
X65433662Y-20734585D01*
X65566544Y-20933456D01*
X66201544Y-21568457D01*
X66400415Y-21701338D01*
X66555310Y-21732149D01*
X66656006Y-21800951D01*
X66800000Y-21830111D01*
X68500000Y-21830111D01*
X68634520Y-21804799D01*
X68722788Y-21748000D01*
X68881088Y-21748000D01*
X69387000Y-22253913D01*
X69387000Y-23801825D01*
X69301286Y-23859097D01*
X69036213Y-24036213D01*
X69036211Y-24036216D01*
X69035427Y-24037000D01*
X58928616Y-24037000D01*
X58658072Y-24036764D01*
X58513000Y-24096706D01*
X58513000Y-24013000D01*
X65000000Y-24013000D01*
X65005058Y-24011976D01*
X65009319Y-24009065D01*
X65012111Y-24004725D01*
X65013000Y-24000000D01*
X65013000Y-5467968D01*
X82636591Y-5467968D01*
X82995578Y-6336783D01*
X83659720Y-7002086D01*
X84527908Y-7362589D01*
X85467968Y-7363409D01*
X86336783Y-7004422D01*
X87002086Y-6340280D01*
X87362589Y-5472092D01*
X87363409Y-4532032D01*
X87004422Y-3663217D01*
X86340280Y-2997914D01*
X85472092Y-2637411D01*
X84532032Y-2636591D01*
X83663217Y-2995578D01*
X82997914Y-3659720D01*
X82637411Y-4527908D01*
X82636591Y-5467968D01*
X65013000Y-5467968D01*
X65013000Y-438000D01*
X89562000Y-438000D01*
X89562000Y-23134427D01*
G36*
X68611044Y-15500230D02*
X68541932Y-15544702D01*
X68459049Y-15666006D01*
X68429889Y-15810000D01*
X68429889Y-16460000D01*
X68455201Y-16594520D01*
X68534702Y-16718068D01*
X68656006Y-16800951D01*
X68800000Y-16830111D01*
X70500000Y-16830111D01*
X70634520Y-16804799D01*
X70758068Y-16725298D01*
X70840951Y-16603994D01*
X70860766Y-16506146D01*
X71329889Y-16037023D01*
X71329889Y-16500000D01*
X71355201Y-16634520D01*
X71434702Y-16758068D01*
X71487000Y-16793801D01*
X71487000Y-17646087D01*
X69881088Y-19252000D01*
X68721491Y-19252000D01*
X68643994Y-19199049D01*
X68500000Y-19169889D01*
X66800000Y-19169889D01*
X66665480Y-19195201D01*
X66613000Y-19228971D01*
X66613000Y-17253912D01*
X68388912Y-15478000D01*
X68578509Y-15478000D01*
X68611044Y-15500230D01*
X68611044Y-15500230D01*
G37*
X68611044Y-15500230D02*
X68541932Y-15544702D01*
X68459049Y-15666006D01*
X68429889Y-15810000D01*
X68429889Y-16460000D01*
X68455201Y-16594520D01*
X68534702Y-16718068D01*
X68656006Y-16800951D01*
X68800000Y-16830111D01*
X70500000Y-16830111D01*
X70634520Y-16804799D01*
X70758068Y-16725298D01*
X70840951Y-16603994D01*
X70860766Y-16506146D01*
X71329889Y-16037023D01*
X71329889Y-16500000D01*
X71355201Y-16634520D01*
X71434702Y-16758068D01*
X71487000Y-16793801D01*
X71487000Y-17646087D01*
X69881088Y-19252000D01*
X68721491Y-19252000D01*
X68643994Y-19199049D01*
X68500000Y-19169889D01*
X66800000Y-19169889D01*
X66665480Y-19195201D01*
X66613000Y-19228971D01*
X66613000Y-17253912D01*
X68388912Y-15478000D01*
X68578509Y-15478000D01*
X68611044Y-15500230D01*
M02*
