M48
;DRILL file {KiCad 4.0.6} date 08/07/17 13:49:47
;FORMAT={-:-/ absolute / metric / decimal}
FMAT,2
METRIC,TZ
T1C0.400
T2C0.500
T3C0.700
T4C0.800
T5C1.000
T6C1.016
T7C1.199
T8C1.200
T9C3.000
%
G90
G05
M71
T1
X0.5Y-0.5
X0.5Y-13.
X1.27Y-69.215
X5.Y-52.
X5.5Y-56.
X6.Y-33.
X6.5Y-50.
X7.Y-33.5
X7.Y-42.5
X7.Y-43.5
X7.Y-47.5
X7.5Y-0.5
X7.5Y-18.5
X8.Y-42.
X8.Y-51.5
X8.5Y-14.
X8.5Y-15.
X8.5Y-16.5
X8.5Y-17.5
X8.5Y-19.
X8.5Y-20.
X8.5Y-21.5
X8.5Y-22.5
X8.5Y-26.
X9.5Y-51.5
X9.6Y-31.5
X10.5Y-7.
X10.5Y-9.5
X10.5Y-14.
X10.5Y-15.
X10.5Y-16.5
X10.5Y-17.5
X10.5Y-19.
X10.5Y-20.
X10.5Y-21.5
X10.5Y-22.5
X10.5Y-47.5
X11.Y-41.5
X11.8Y-81.3
X12.Y-15.5
X12.Y-68.
X12.Y-69.5
X12.Y-71.5
X12.Y-75.
X12.065Y-73.66
X12.2Y-76.8
X12.5Y-5.
X12.5Y-80.6
X13.Y-26.5
X13.5Y-11.5
X14.5Y-68.5
X14.8Y-71.2
X15.Y-7.
X15.5Y-5.5
X15.5Y-31.
X15.5Y-68.5
X15.5Y-72.
X15.6Y-29.2
X15.6Y-78.6
X15.9Y-84.2
X15.9Y-85.1
X16.Y-77.5
X16.2Y-71.2
X16.8Y-63.
X16.9Y-82.9
X17.Y-88.4
X17.5Y-41.
X17.5Y-65.
X18.Y-47.5
X18.Y-48.5
X18.3Y-28.4
X18.3Y-31.9
X18.4Y-86.8
X18.5Y-24.
X18.5Y-30.5
X18.5Y-38.
X18.5Y-71.5
X18.6Y-62.2
X18.75Y-29.5
X19.Y-34.
X19.1Y-81.6
X19.5Y-8.5
X19.5Y-25.
X19.5Y-38.
X19.5Y-87.6
X19.9Y-81.3
X20.Y-90.5
X20.5Y-37.
X20.5Y-38.
X20.5Y-71.5
X20.5Y-93.
X20.6Y-31.1
X21.Y-7.
X21.Y-94.5
X21.2Y-40.
X21.5Y-30.2
X21.5Y-32.
X22.Y-34.
X22.Y-62.
X22.1Y-39.
X22.4Y-31.1
X23.Y-62.
X23.5Y-8.5
X23.5Y-28.
X24.5Y-32.
X24.5Y-37.5
X24.5Y-64.5
X25.Y-65.5
X25.Y-80.5
X26.5Y-79.
X27.Y-49.
X27.7Y-31.5
X28.5Y-28.5
X28.7Y-31.9
X30.3Y-30.3
X30.8Y-80.5
X31.Y-50.
X31.Y-68.
X31.Y-77.
X32.Y-34.5
X32.Y-38.
X33.Y-27.
X33.Y-29.5
X33.Y-31.
X33.Y-32.
X33.8Y-63.2
X33.8Y-64.1
X34.5Y-28.5
X34.7Y-50.
X35.Y-26.5
X35.2Y-63.2
X35.2Y-64.1
X36.Y-32.5
X36.2Y-33.4
X36.2Y-52.
X36.2Y-53.8
X36.4Y-31.6
X36.4Y-64.6
X36.5Y-25.
X36.5Y-28.
X38.Y-69.5
X38.Y-70.5
X38.5Y-34.5
X38.5Y-36.
X38.5Y-39.
X39.Y-24.
X39.2Y-63.8
X39.5Y-25.
X40.Y-24.
X40.Y-69.5
X40.Y-70.5
X40.5Y-30.5
X40.5Y-33.5
X40.5Y-37.
X40.5Y-39.
X40.5Y-42.5
X40.5Y-44.
X40.5Y-51.
X40.5Y-53.5
X40.5Y-59.
X40.5Y-61.
X40.5Y-66.5
X40.5Y-71.5
X40.5Y-74.5
X41.Y-9.5
X41.Y-13.5
X41.Y-15.5
X41.Y-20.5
X41.Y-77.
X41.Y-81.5
X41.Y-90.
X41.5Y-26.5
X41.5Y-28.5
X41.5Y-34.5
X41.5Y-36.
X41.5Y-42.5
X41.5Y-44.
X41.5Y-50.5
X41.5Y-52.
X41.5Y-58.5
X41.5Y-60.
X41.5Y-66.5
X41.5Y-68.
X41.5Y-74.5
X41.5Y-76.
X45.5Y-82.
X45.5Y-83.
X45.5Y-85.
X45.5Y-86.
X46.5Y-82.
X46.5Y-83.
X46.5Y-85.
X46.5Y-86.
T2
X4.5Y-79.5
X5.Y-64.
X9.5Y-33.
X9.5Y-34.5
X11.Y-43.5
X11.5Y-85.
X12.Y-64.
X12.08Y-90.17
X12.5Y-18.5
X14.Y-18.5
X14.8Y-87.6
X14.9Y-79.4
X15.5Y-83.185
X18.5Y-63.5
X23.Y-17.
X23.Y-30.
X26.5Y-17.
X26.5Y-89.
X31.5Y-51.5
X32.Y-41.5
X33.2Y-55.6
X35.5Y-23.
X36.5Y-55.6
X37.Y-40.
X39.5Y-34.5
X39.5Y-36.1
X39.5Y-42.5
X39.5Y-44.5
X39.5Y-52.2
X39.5Y-53.8
X40.Y-26.5
X40.Y-28.1
X43.Y-1.
X43.Y-2.
X43.Y-3.
X43.Y-4.
X44.Y-1.
X44.Y-2.
X44.Y-3.
X44.Y-4.
X45.Y-1.
X45.Y-2.
X45.Y-3.
X45.Y-4.
X45.5Y-6.
X45.5Y-8.
X45.5Y-9.
X46.Y-1.
X46.Y-2.
X46.Y-3.
X46.Y-4.
X46.5Y-6.
X46.5Y-8.
X46.5Y-9.
X47.Y-1.
X47.Y-2.
X47.Y-3.
X47.Y-4.
X48.Y-1.
X48.Y-2.
X48.Y-3.
X48.Y-4.
X49.Y-1.
X49.Y-2.
X49.Y-3.
X49.Y-4.
X50.Y-1.
X50.Y-2.
X50.Y-3.
X50.Y-4.
X50.5Y-80.
X51.Y-1.
X51.Y-2.
X51.Y-3.
X51.Y-4.
X52.Y-1.
X52.Y-2.
X52.Y-3.
X52.Y-4.
X53.Y-1.
X53.Y-2.
X53.Y-3.
X53.Y-4.
X53.5Y-19.5
X53.5Y-27.5
X53.5Y-35.5
X53.5Y-43.5
X53.5Y-51.5
X53.5Y-59.5
X53.5Y-67.5
X53.5Y-75.5
X53.6Y-24.
X53.6Y-32.
X53.6Y-40.
X53.6Y-48.
X53.6Y-56.
X53.6Y-64.
X53.6Y-72.
X54.Y-1.
X54.Y-2.
X54.Y-3.
X54.Y-4.
X54.4Y-20.5
X54.4Y-28.5
X54.4Y-36.5
X54.4Y-44.5
X54.4Y-52.5
X54.4Y-60.5
X54.4Y-68.5
X54.4Y-76.5
X55.Y-1.
X55.Y-2.
X55.Y-3.
X55.Y-4.
X56.Y-19.
X56.Y-20.
X56.Y-21.
X56.Y-22.
X56.Y-23.
X56.Y-27.
X56.Y-28.
X56.Y-29.
X56.Y-30.
X56.Y-31.
X56.Y-35.
X56.Y-36.
X56.Y-37.
X56.Y-38.
X56.Y-39.
X56.Y-43.
X56.Y-44.
X56.Y-45.
X56.Y-46.
X56.Y-47.
X56.Y-51.
X56.Y-52.
X56.Y-53.
X56.Y-54.
X56.Y-55.
X56.Y-59.
X56.Y-60.
X56.Y-61.
X56.Y-62.
X56.Y-63.
X56.Y-67.
X56.Y-68.
X56.Y-69.
X56.Y-70.
X56.Y-71.
X56.Y-75.
X56.Y-76.
X56.Y-77.
X56.Y-78.
X56.Y-79.
X57.Y-1.
X57.Y-2.
X57.Y-3.
X57.Y-4.
X57.Y-18.
X57.Y-19.
X57.Y-20.
X57.Y-21.
X57.Y-22.
X57.Y-23.
X57.Y-26.
X57.Y-27.
X57.Y-28.
X57.Y-29.
X57.Y-30.
X57.Y-31.
X57.Y-34.
X57.Y-35.
X57.Y-36.
X57.Y-37.
X57.Y-38.
X57.Y-39.
X57.Y-42.
X57.Y-43.
X57.Y-44.
X57.Y-45.
X57.Y-46.
X57.Y-47.
X57.Y-50.
X57.Y-51.
X57.Y-52.
X57.Y-53.
X57.Y-54.
X57.Y-55.
X57.Y-58.
X57.Y-59.
X57.Y-60.
X57.Y-61.
X57.Y-62.
X57.Y-63.
X57.Y-66.
X57.Y-67.
X57.Y-68.
X57.Y-69.
X57.Y-70.
X57.Y-71.
X57.Y-74.
X57.Y-75.
X57.Y-76.
X57.Y-77.
X57.Y-78.
X57.Y-79.
X58.Y-1.
X58.Y-2.
X58.Y-3.
X58.Y-4.
X58.Y-18.
X58.Y-19.
X58.Y-20.
X58.Y-21.
X58.Y-22.
X58.Y-23.
X58.Y-26.
X58.Y-27.
X58.Y-28.
X58.Y-29.
X58.Y-30.
X58.Y-31.
X58.Y-34.
X58.Y-35.
X58.Y-36.
X58.Y-37.
X58.Y-38.
X58.Y-39.
X58.Y-42.
X58.Y-43.
X58.Y-44.
X58.Y-45.
X58.Y-46.
X58.Y-47.
X58.Y-50.
X58.Y-51.
X58.Y-52.
X58.Y-53.
X58.Y-54.
X58.Y-55.
X58.Y-58.
X58.Y-59.
X58.Y-60.
X58.Y-61.
X58.Y-62.
X58.Y-63.
X58.Y-66.
X58.Y-67.
X58.Y-68.
X58.Y-69.
X58.Y-70.
X58.Y-71.
X58.Y-74.
X58.Y-75.
X58.Y-76.
X58.Y-77.
X58.Y-78.
X58.Y-79.
X59.Y-1.
X59.Y-2.
X59.Y-3.
X59.Y-4.
X59.Y-18.
X59.Y-19.
X59.Y-20.
X59.Y-21.
X59.Y-22.
X59.Y-23.
X59.Y-26.
X59.Y-27.
X59.Y-28.
X59.Y-29.
X59.Y-30.
X59.Y-31.
X59.Y-34.
X59.Y-35.
X59.Y-36.
X59.Y-37.
X59.Y-38.
X59.Y-39.
X59.Y-42.
X59.Y-43.
X59.Y-44.
X59.Y-45.
X59.Y-46.
X59.Y-47.
X59.Y-50.
X59.Y-51.
X59.Y-52.
X59.Y-53.
X59.Y-54.
X59.Y-55.
X59.Y-58.
X59.Y-59.
X59.Y-60.
X59.Y-61.
X59.Y-62.
X59.Y-63.
X59.Y-66.
X59.Y-67.
X59.Y-68.
X59.Y-69.
X59.Y-70.
X59.Y-71.
X59.Y-74.
X59.Y-75.
X59.Y-76.
X59.Y-77.
X59.Y-78.
X59.Y-79.
X60.Y-1.
X60.Y-2.
X60.Y-3.
X60.Y-4.
X60.Y-18.
X60.Y-19.
X60.Y-20.
X60.Y-21.
X60.Y-22.
X60.Y-23.
X60.Y-26.
X60.Y-27.
X60.Y-28.
X60.Y-29.
X60.Y-30.
X60.Y-31.
X60.Y-34.
X60.Y-35.
X60.Y-36.
X60.Y-37.
X60.Y-38.
X60.Y-39.
X60.Y-42.
X60.Y-43.
X60.Y-44.
X60.Y-45.
X60.Y-46.
X60.Y-47.
X60.Y-50.
X60.Y-51.
X60.Y-52.
X60.Y-53.
X60.Y-54.
X60.Y-55.
X60.Y-58.
X60.Y-59.
X60.Y-60.
X60.Y-61.
X60.Y-62.
X60.Y-63.
X60.Y-66.
X60.Y-67.
X60.Y-68.
X60.Y-69.
X60.Y-70.
X60.Y-71.
X60.Y-74.
X60.Y-75.
X60.Y-76.
X60.Y-77.
X60.Y-78.
X60.Y-79.
X61.Y-1.
X61.Y-2.
X61.Y-3.
X61.Y-4.
X61.Y-18.
X61.Y-19.
X61.Y-20.
X61.Y-21.
X61.Y-22.
X61.Y-23.
X61.Y-26.
X61.Y-27.
X61.Y-28.
X61.Y-29.
X61.Y-30.
X61.Y-31.
X61.Y-34.
X61.Y-35.
X61.Y-36.
X61.Y-37.
X61.Y-38.
X61.Y-39.
X61.Y-42.
X61.Y-43.
X61.Y-44.
X61.Y-45.
X61.Y-46.
X61.Y-47.
X61.Y-50.
X61.Y-51.
X61.Y-52.
X61.Y-53.
X61.Y-54.
X61.Y-55.
X61.Y-58.
X61.Y-59.
X61.Y-60.
X61.Y-61.
X61.Y-62.
X61.Y-63.
X61.Y-66.
X61.Y-67.
X61.Y-68.
X61.Y-69.
X61.Y-70.
X61.Y-71.
X61.Y-74.
X61.Y-75.
X61.Y-76.
X61.Y-77.
X61.Y-78.
X61.Y-79.
X62.Y-1.
X62.Y-2.
X62.Y-3.
X62.Y-4.
X62.Y-18.
X62.Y-19.
X62.Y-20.
X62.Y-21.
X62.Y-22.
X62.Y-23.
X62.Y-26.
X62.Y-27.
X62.Y-28.
X62.Y-29.
X62.Y-30.
X62.Y-31.
X62.Y-34.
X62.Y-35.
X62.Y-36.
X62.Y-37.
X62.Y-38.
X62.Y-39.
X62.Y-42.
X62.Y-43.
X62.Y-44.
X62.Y-45.
X62.Y-46.
X62.Y-47.
X62.Y-50.
X62.Y-51.
X62.Y-52.
X62.Y-53.
X62.Y-54.
X62.Y-55.
X62.Y-58.
X62.Y-59.
X62.Y-60.
X62.Y-61.
X62.Y-62.
X62.Y-63.
X62.Y-66.
X62.Y-67.
X62.Y-68.
X62.Y-69.
X62.Y-70.
X62.Y-71.
X62.Y-74.
X62.Y-75.
X62.Y-76.
X62.Y-77.
X62.Y-78.
X62.Y-79.
X63.Y-1.
X63.Y-2.
X63.Y-3.
X63.Y-4.
X64.Y-1.
X64.Y-2.
X64.Y-3.
X64.Y-4.
X64.Y-19.5
X64.Y-27.5
X64.Y-36.
X64.Y-44.
X64.Y-52.
X64.Y-60.
X64.Y-68.
X64.Y-76.
X65.Y-1.
X65.Y-2.
X65.Y-3.
X65.Y-4.
X65.Y-18.
X65.Y-25.5
X65.Y-33.5
X65.Y-41.5
X65.Y-49.5
X65.Y-57.5
X65.Y-65.5
X65.Y-73.5
X66.Y-1.
X66.Y-2.
X66.Y-3.
X66.Y-4.
X67.Y-1.
X67.Y-2.
X67.Y-3.
X67.Y-4.
X68.Y-1.
X68.Y-2.
X68.Y-3.
X68.Y-4.
X68.Y-15.
X68.Y-24.
X68.Y-32.
X68.Y-40.
X68.Y-48.
X68.Y-56.
X68.Y-64.
X68.Y-72.
X68.Y-80.
X69.Y-1.
X69.Y-2.
X69.Y-3.
X69.Y-4.
X70.Y-1.
X70.Y-2.
X70.Y-3.
X70.Y-4.
X76.Y-10.
X76.Y-15.
X76.Y-20.
X76.Y-25.
X76.Y-30.
X76.Y-35.
X76.Y-40.
X76.Y-45.
X76.Y-50.
X76.Y-55.
X76.Y-60.
X76.Y-65.
X76.Y-70.
X76.Y-75.
X76.Y-80.
X76.Y-85.
T3
X19.5Y-41.5
X21.Y-41.5
X22.5Y-41.5
X24.Y-41.5
X25.5Y-41.5
X26.5Y-94.
X27.Y-41.5
X28.Y-94.
X29.5Y-94.
X31.Y-94.
X32.5Y-94.
X34.Y-94.
T4
X3.Y-10.
X3.Y-12.5
X3.Y-15.
X9.Y-3.46
X9.Y-6.
X9.Y-8.54
X46.Y-7.
X46.Y-12.
X46.Y-84.
X46.Y-89.
X56.5Y-7.
X56.5Y-12.
X56.5Y-84.
X56.5Y-89.
X67.Y-7.
X67.Y-12.
X67.Y-84.
X67.Y-89.
T5
X3.Y-2.5
X3.Y-5.
X3.Y-20.
X3.Y-22.5
X3.Y-25.
X3.Y-27.5
X3.Y-32.5
X3.Y-35.
X3.Y-37.5
X3.Y-40.
X3.Y-45.
X3.Y-47.5
X3.Y-50.
X3.Y-52.5
X3.Y-55.
X3.Y-57.5
X3.Y-63.5
X3.Y-66.
X3.Y-68.5
X3.Y-71.
X3.Y-73.5
X3.Y-76.
X3.Y-81.
X3.Y-83.5
X3.Y-86.
X3.Y-88.5
X3.Y-91.
X3.Y-93.5
X9.Y-0.92
X9.Y-11.08
X13.5Y-50.
X13.5Y-52.5
X13.5Y-55.
X13.5Y-57.5
T6
X8.Y-55.96
X8.Y-58.5
X8.27Y-66.675
X8.27Y-69.215
X8.27Y-71.755
X8.27Y-74.295
X8.27Y-76.835
X8.27Y-79.375
X8.27Y-81.915
X8.27Y-84.455
X8.27Y-86.995
X8.27Y-89.535
X8.27Y-92.075
X8.27Y-94.615
X13.38Y-3.
X14.5Y-38.38
X14.5Y-40.92
X14.5Y-43.46
X14.5Y-46.
X15.92Y-3.
X18.46Y-3.
X21.Y-3.
X23.51Y-66.675
X23.51Y-69.215
X23.51Y-71.755
X23.51Y-74.295
X23.51Y-76.835
X23.51Y-79.375
X23.51Y-81.915
X23.51Y-84.455
X23.51Y-86.995
X23.51Y-89.535
X23.51Y-92.075
X23.51Y-94.615
X24.38Y-3.
X26.92Y-3.
X29.46Y-3.
X32.Y-3.
X33.Y-72.5
X33.Y-75.04
X33.Y-77.58
X33.Y-80.12
X33.Y-82.66
X33.Y-85.2
X33.Y-87.74
X33.Y-90.28
T7
X28.Y-82.059
X28.Y-86.941
T8
X9.5Y-14.38
X9.5Y-16.92
X9.5Y-19.46
X9.5Y-22.
X16.75Y-8.5
X16.75Y-12.75
X28.Y-84.5
X29.Y-7.
T9
X39.Y-3.
X39.Y-93.
X74.Y-3.
X74.Y-93.
T0
M30
