  0
SECTION
  2
HEADER
  9
$ANGBASE
  50
0.0
  9
$ANGDIR
  70
  1
  9
$MEASUREMENT
  70
0
  0
ENDSEC
  0
SECTION
  2
TABLES
  0
TABLE
  2
LTYPE
  70
1
  0
LTYPE
  2
CONTINUOUS
  70
0
  3
Solid line
  72
65
  73
0
  40
0.0
  0
ENDTAB
  0
TABLE
  2
STYLE
  70
4
  0
STYLE
  2
KICAD
  70
0
  40
0
  41
1
  42
1
  50
0
  71
0
  3
isocp.shx
  0
STYLE
  2
KICADB
  70
0
  40
0
  41
1
  42
1
  50
0
  71
0
  3
isocp.shx
  0
STYLE
  2
KICADI
  70
0
  40
0
  41
1
  42
1
  50
15
  71
0
  3
isocp.shx
  0
STYLE
  2
KICADBI
  70
0
  40
0
  41
1
  42
1
  50
15
  71
0
  3
isocp.shx
  0
ENDTAB
  0
TABLE
  2
LAYER
  70
30
  0
LAYER
  2
BLACK
  70
0
  62
7
  6
CONTINUOUS
  0
LAYER
  2
GRAY1
  70
0
  62
251
  6
CONTINUOUS
  0
LAYER
  2
GRAY2
  70
0
  62
8
  6
CONTINUOUS
  0
LAYER
  2
GRAY3
  70
0
  62
9
  6
CONTINUOUS
  0
LAYER
  2
WHITE
  70
0
  62
7
  6
CONTINUOUS
  0
LAYER
  2
LYELLOW
  70
0
  62
51
  6
CONTINUOUS
  0
LAYER
  2
BLUE1
  70
0
  62
178
  6
CONTINUOUS
  0
LAYER
  2
GREEN1
  70
0
  62
98
  6
CONTINUOUS
  0
LAYER
  2
CYAN1
  70
0
  62
138
  6
CONTINUOUS
  0
LAYER
  2
RED1
  70
0
  62
18
  6
CONTINUOUS
  0
LAYER
  2
MAGENTA1
  70
0
  62
228
  6
CONTINUOUS
  0
LAYER
  2
BROWN1
  70
0
  62
58
  6
CONTINUOUS
  0
LAYER
  2
BLUE2
  70
0
  62
5
  6
CONTINUOUS
  0
LAYER
  2
GREEN2
  70
0
  62
3
  6
CONTINUOUS
  0
LAYER
  2
CYAN2
  70
0
  62
4
  6
CONTINUOUS
  0
LAYER
  2
RED2
  70
0
  62
1
  6
CONTINUOUS
  0
LAYER
  2
MAGENTA2
  70
0
  62
6
  6
CONTINUOUS
  0
LAYER
  2
BROWN2
  70
0
  62
54
  6
CONTINUOUS
  0
LAYER
  2
BLUE3
  70
0
  62
171
  6
CONTINUOUS
  0
LAYER
  2
GREEN3
  70
0
  62
91
  6
CONTINUOUS
  0
LAYER
  2
CYAN3
  70
0
  62
131
  6
CONTINUOUS
  0
LAYER
  2
RED3
  70
0
  62
11
  6
CONTINUOUS
  0
LAYER
  2
MAGENTA3
  70
0
  62
221
  6
CONTINUOUS
  0
LAYER
  2
YELLOW3
  70
0
  62
2
  6
CONTINUOUS
  0
LAYER
  2
BLUE4
  70
0
  62
5
  6
CONTINUOUS
  0
LAYER
  2
GREEN4
  70
0
  62
3
  6
CONTINUOUS
  0
LAYER
  2
CYAN4
  70
0
  62
4
  6
CONTINUOUS
  0
LAYER
  2
RED4
  70
0
  62
1
  6
CONTINUOUS
  0
LAYER
  2
MAGENTA4
  70
0
  62
6
  6
CONTINUOUS
  0
LAYER
  2
YELLOW4
  70
0
  62
2
  6
CONTINUOUS
  0
ENDTAB
  0
ENDSEC
  0
SECTION
  2
ENTITIES
0
LINE
8
Black
10
73.9892
20
0.064209
11
73.9936
21
0.064209
0
LINE
8
Black
10
73.9936
20
0.064209
11
75.0197
21
-0.116712
0
LINE
8
Black
10
75.0197
20
-0.116712
11
75.0197
21
-0.116712
0
LINE
8
Black
10
75.0197
20
-0.116712
11
75.0278
21
-0.119682
0
LINE
8
Black
10
75.0278
20
-0.119682
11
75.036
21
-0.122651
0
LINE
8
Black
10
75.036
20
-0.122651
11
75.036
21
-0.122654
0
LINE
8
Black
10
75.036
20
-0.122654
11
75.9383
21
-0.643597
0
LINE
8
Black
10
75.9383
20
-0.643597
11
75.9516
21
-0.654758
0
LINE
8
Black
10
75.9516
20
-0.654758
11
75.9516
21
-0.654765
0
LINE
8
Black
10
75.9516
20
-0.654765
11
76.6213
21
-1.45289
0
LINE
8
Black
10
76.6213
20
-1.45289
11
76.6213
21
-1.45289
0
LINE
8
Black
10
76.6213
20
-1.45289
11
76.63
21
-1.46793
0
LINE
8
Black
10
76.63
20
-1.46793
11
76.9863
21
-2.44698
0
LINE
8
Black
10
76.9863
20
-2.44698
11
76.9875
21
-2.45342
0
LINE
8
Black
10
76.9875
20
-2.45342
11
76.9892
21
-2.45973
0
LINE
8
Black
10
76.9892
20
-2.45973
11
77.0347
21
-2.98067
0
LINE
8
Black
10
77.0347
20
-2.98067
11
77.0345
21
-2.98287
0
LINE
8
Black
10
77.0345
20
-2.98287
11
77.0349
21
-2.98503
0
LINE
8
Black
10
77.0349
20
-2.98503
11
77.0349
21
-92.985
0
LINE
8
Black
10
77.0349
20
-92.985
11
77.0342
21
-92.9893
0
LINE
8
Black
10
77.0342
20
-92.9893
11
77.0342
21
-92.9937
0
LINE
8
Black
10
77.0342
20
-92.9937
11
76.8532
21
-94.0198
0
LINE
8
Black
10
76.8532
20
-94.0198
11
76.8532
21
-94.0198
0
LINE
8
Black
10
76.8532
20
-94.0198
11
76.8503
21
-94.0279
0
LINE
8
Black
10
76.8503
20
-94.0279
11
76.8473
21
-94.0361
0
LINE
8
Black
10
76.8473
20
-94.0361
11
76.8473
21
-94.0361
0
LINE
8
Black
10
76.8473
20
-94.0361
11
76.3264
21
-94.9384
0
LINE
8
Black
10
76.3264
20
-94.9384
11
76.3264
21
-94.9384
0
LINE
8
Black
10
76.3264
20
-94.9384
11
76.3152
21
-94.9517
0
LINE
8
Black
10
76.3152
20
-94.9517
11
75.5171
21
-95.6214
0
LINE
8
Black
10
75.5171
20
-95.6214
11
75.5171
21
-95.6214
0
LINE
8
Black
10
75.5171
20
-95.6214
11
75.5116
21
-95.6246
0
LINE
8
Black
10
75.5116
20
-95.6246
11
75.502
21
-95.6301
0
LINE
8
Black
10
75.502
20
-95.6301
11
75.502
21
-95.6301
0
LINE
8
Black
10
75.502
20
-95.6301
11
74.523
21
-95.9864
0
LINE
8
Black
10
74.523
20
-95.9864
11
74.5165
21
-95.9876
0
LINE
8
Black
10
74.5165
20
-95.9876
11
74.5102
21
-95.9893
0
LINE
8
Black
10
74.5102
20
-95.9893
11
73.9893
21
-96.0348
0
LINE
8
Black
10
73.9893
20
-96.0348
11
73.9871
21
-96.0346
0
LINE
8
Black
10
73.9871
20
-96.0346
11
73.9849
21
-96.035
0
LINE
8
Black
10
73.9849
20
-96.035
11
-0.015079
21
-96.035
0
LINE
8
Black
10
-0.015079
20
-96.035
11
-0.01939
21
-96.0343
0
LINE
8
Black
10
-0.01939
20
-96.0343
11
-0.023761
21
-96.0343
0
LINE
8
Black
10
-0.023761
20
-96.0343
11
-0.027868
21
-96.0328
0
LINE
8
Black
10
-0.027868
20
-96.0328
11
-0.03218
21
-96.032
0
LINE
8
Black
10
-0.03218
20
-96.032
11
-0.035971
21
-96.0298
0
LINE
8
Black
10
-0.035971
20
-96.0298
11
-0.040079
21
-96.0283
0
LINE
8
Black
10
-0.040079
20
-96.0283
11
-0.04343
21
-96.0255
0
LINE
8
Black
10
-0.04343
20
-96.0255
11
-0.047218
21
-96.0233
0
LINE
8
Black
10
-0.047218
20
-96.0233
11
-0.05003
21
-96.02
0
LINE
8
Black
10
-0.05003
20
-96.02
11
-0.053381
21
-96.0172
0
LINE
8
Black
10
-0.053381
20
-96.0172
11
-0.055568
21
-96.0134
0
LINE
8
Black
10
-0.055568
20
-96.0134
11
-0.05838
21
-96.01
0
LINE
8
Black
10
-0.05838
20
-96.01
11
-0.059875
21
-96.0059
0
LINE
8
Black
10
-0.059875
20
-96.0059
11
-0.062064
21
-96.0021
0
LINE
8
Black
10
-0.062064
20
-96.0021
11
-0.062824
21
-95.9978
0
LINE
8
Black
10
-0.062824
20
-95.9978
11
-0.064319
21
-95.9937
0
LINE
8
Black
10
-0.064319
20
-95.9937
11
-0.064319
21
-95.9893
0
LINE
8
Black
10
-0.064319
20
-95.9893
11
-0.065079
21
-95.985
0
LINE
8
Black
10
-0.065079
20
-95.985
11
-0.065079
21
0.014969
0
LINE
8
Black
10
-0.065079
20
0.014969
11
-0.064319
21
0.01928
0
LINE
8
Black
10
-0.064319
20
0.01928
11
-0.064319
21
0.023651
0
LINE
8
Black
10
-0.064319
20
0.023651
11
-0.062824
21
0.027758
0
LINE
8
Black
10
-0.062824
20
0.027758
11
-0.062064
21
0.03207
0
LINE
8
Black
10
-0.062064
20
0.03207
11
-0.059875
21
0.035861
0
LINE
8
Black
10
-0.059875
20
0.035861
11
-0.05838
21
0.039969
0
LINE
8
Black
10
-0.05838
20
0.039969
11
-0.055568
21
0.04332
0
LINE
8
Black
10
-0.055568
20
0.04332
11
-0.053381
21
0.047108
0
LINE
8
Black
10
-0.053381
20
0.047108
11
-0.05003
21
0.04992
0
LINE
8
Black
10
-0.05003
20
0.04992
11
-0.047218
21
0.053271
0
LINE
8
Black
10
-0.047218
20
0.053271
11
-0.04343
21
0.055458
0
LINE
8
Black
10
-0.04343
20
0.055458
11
-0.040079
21
0.05827
0
LINE
8
Black
10
-0.040079
20
0.05827
11
-0.035971
21
0.059765
0
LINE
8
Black
10
-0.035971
20
0.059765
11
-0.03218
21
0.061954
0
LINE
8
Black
10
-0.03218
20
0.061954
11
-0.027868
21
0.062714
0
LINE
8
Black
10
-0.027868
20
0.062714
11
-0.023761
21
0.064209
0
LINE
8
Black
10
-0.023761
20
0.064209
11
-0.01939
21
0.064209
0
LINE
8
Black
10
-0.01939
20
0.064209
11
-0.015079
21
0.064969
0
LINE
8
Black
10
-0.015079
20
0.064969
11
73.9849
21
0.064969
0
LINE
8
Black
10
73.9849
20
0.064969
11
73.9892
21
0.064209
0
LINE
8
Black
10
0.034921
20
-0.035031
11
0.034921
21
-95.935
0
LINE
8
Black
10
0.034921
20
-95.935
11
73.9827
21
-95.935
0
LINE
8
Black
10
73.9827
20
-95.935
11
74.495
21
-95.8902
0
LINE
8
Black
10
74.495
20
-95.8902
11
75.4595
21
-95.5391
0
LINE
8
Black
10
75.4595
20
-95.5391
11
76.2442
21
-94.8808
0
LINE
8
Black
10
76.2442
20
-94.8808
11
76.7563
21
-93.9937
0
LINE
8
Black
10
76.7563
20
-93.9937
11
76.9349
21
-92.9807
0
LINE
8
Black
10
76.9349
20
-92.9807
11
76.9349
21
-2.98722
0
LINE
8
Black
10
76.9349
20
-2.98722
11
76.8901
21
-2.475
0
LINE
8
Black
10
76.8901
20
-2.475
11
76.539
21
-1.51042
0
LINE
8
Black
10
76.539
20
-1.51042
11
75.8806
21
-0.725791
0
LINE
8
Black
10
75.8806
20
-0.725791
11
74.9936
21
-0.213662
0
LINE
8
Black
10
74.9936
20
-0.213662
11
73.9805
21
-0.035031
0
LINE
8
Black
10
73.9805
20
-0.035031
11
0.034921
21
-0.035031
  0
ENDSEC
  0
EOF
