  0
SECTION
  2
HEADER
  9
$ACADVER
  1
AC1009
  9
$INSBASE
 10
0
 20
0
 30
0
  9
$EXTMIN
 10
0
 20
0
  9
$EXTMAX
 10
84.100000000000009
 20
59.400000000000006
  9
$LIMMIN
 10
0
 20
0
  9
$LIMMAX
 10
84.100000000000009
 20
59.400000000000006
  9
$LTSCALE
 40
0.1
  0
ENDSEC
  0
SECTION
  2
TABLES
  0
TABLE
  2
LTYPE
 70
     9
  0
LTYPE
  2
CONTINUOUS
 70
    64
  3
実線
 72
    65
 73
     0
 40
0.0
  0
LTYPE
  2
DASHED1
 70
    64
  3
--  --  --  --  --  --  --  --  
 72
    65
 73
     2
 40
2.5
 49
1.25
 49
-1.25
  0
LTYPE
  2
DASHED2
 70
    64
  3
----    ----    ----    ----    
 72
    65
 73
     2
 40
5.0
 49
2.5
 49
-2.5
  0
LTYPE
  2
DASHED3
 70
    64
  3
------  ------  ------  ------  
 72
    65
 73
     2
 40
5.0
 49
3.75
 49
-1.25
  0
LTYPE
  2
CENTER1
 70
    64
  3
----- - ----- - ----- - ----- - 
 72
    65
 73
     4
 40
10.0
 49
6.25
 49
-1.25
 49
1.25
 49
-1.25
  0
LTYPE
  2
CENTER2
 70
    64
  3
----------  --  ----------  --  
 72
    65
 73
     4
 40
20.0
 49
12.5
 49
-2.5
 49
2.5
 49
-2.5
  0
LTYPE
  2
PHANTOM1
 70
    64
  3
--- - - --- - - --- - - --- - - 
 72
    65
 73
     6
 40
10.0
 49
3.25
 49
-1.25
 49
1.25
 49
-1.25
 49
1.25
 49
-1.25
  0
LTYPE
  2
PHANTOM2
 70
    64
  3
--------  -  -  --------  -  -  
 72
    65
 73
     6
 40
20.0
 49
10.0
 49
-2.5
 49
1.25
 49
-2.5
 49
1.25
 49
-2.5
  0
LTYPE
  2
DOT
 70
    64
  3
-   -   -   -   -   -   -   -   
 72
    65
 73
     2
 40
2.5
 49
0.625
 49
-1.875
  0
LTYPE
  2
DUMMY
 70
    64
  3
ダミー
 72
    65
 73
     0
 40
0.0
  0
LTYPE
  2
RAND1
 70
    64
  3
ランダム線1
 72
    65
 73
     4
 40
10.0
 49
1.0
 49
-2.0
 49
3.0
 49
-4.0
  0
LTYPE
  2
RAND2
 70
    64
  3
ランダム線2
 72
    65
 73
     4
 40
14.0
 49
2.0
 49
-3.0
 49
4.0
 49
-5.0
  0
LTYPE
  2
RAND3
 70
    64
  3
ランダム線3
 72
    65
 73
     4
 40
18.0
 49
3.0
 49
-4.0
 49
5.0
 49
-6.0
  0
LTYPE
  2
RAND4
 70
    64
  3
ランダム線4
 72
    65
 73
     4
 40
22.0
 49
4.0
 49
-5.0
 49
6.0
 49
-7.0
  0
LTYPE
  2
RAND5
 70
    64
  3
ランダム線5
 72
    65
 73
     4
 40
26.0
 49
5.0
 49
-6.0
 49
7.0
 49
-8.0
  0
LTYPE
  2
LONG1
 70
    64
  3
----------  --  ----------  --  
 72
    65
 73
     4
 40
40.0
 49
32.5
 49
-2.5
 49
2.5
 49
-2.5
  0
LTYPE
  2
LONG2
 70
    64
  3
--------  -  -  --------  -  -  
 72
    65
 73
     6
 40
40.0
 49
30.0
 49
-2.5
 49
1.25
 49
-2.5
 49
1.25
 49
-2.5
  0
LTYPE
  2
LONG3
 70
    64
  3
+++++++++++++++..+++++++++++++++
 72
    65
 73
     2
 40
40.0
 49
37.5
 49
-2.5
  0
LTYPE
  2
LONG4
 70
    64
  3
+++++++++++++++..+++++++++++++++
 72
    65
 73
     2
 40
80.0
 49
75.0
 49
-5.0
  0
LTYPE
  2
LONG5
 70
    64
  3
----------  --  ----------  --  
 72
    65
 73
     4
 40
60.0
 49
37.5
 49
-7.5
 49
7.5
 49
-7.5
  0
LTYPE
  2
dashed
 70
   64
  3
-------   -------------   ------
 72
   65
 73
    2
 40
7.5
 49
6
 49
-1.5
  0
LTYPE
  2
dashed_spaced
 70
   64
  3
----        --------        ----
 72
   65
 73
    2
 40
12
 49
6
 49
-6
  0
LTYPE
  2
long_dashed_dotted
 70
   64
  3
------------- --- --------------
 72
   65
 73
    4
 40
15.25
 49
12
 49
-1.5
 49
0.25
 49
-1.5
  0
LTYPE
  2
long_dashed_double-dotted
 70
   64
  3
----------- --- --- ------------
 72
   65
 73
    6
 40
17
 49
12
 49
-1.5
 49
0.25
 49
-1.5
 49
0.25
 49
-1.5
  0
LTYPE
  2
long_dashed_triplicate-dotted
 70
   64
  3
--------- --- --- --- ----------
 72
   65
 73
    8
 40
18.75
 49
12
 49
-1.5
 49
0.25
 49
-1.5
 49
0.25
 49
-1.5
 49
0.25
 49
-1.5
  0
LTYPE
  2
dotted
 70
   64
  3
   -       -       -       -    
 72
   65
 73
    2
 40
1.75
 49
0.25
 49
-1.5
  0
LTYPE
  2
chain
 70
   64
  3
-------------- -- --------------
 72
   65
 73
    4
 40
18.5
 49
12
 49
-1.5
 49
3.5
 49
-1.5
  0
LTYPE
  2
chain_double_dash
 70
   64
  3
------------ -- -- -------------
 72
   65
 73
    6
 40
23.5
 49
12
 49
-1.5
 49
3.5
 49
-1.5
 49
3.5
 49
-1.5
  0
LTYPE
  2
dashed_dotted
 70
   64
  3
-----------     -     ----------
 72
   65
 73
    4
 40
9.25
 49
6
 49
-1.5
 49
0.25
 49
-1.5
  0
LTYPE
  2
double-dashed_dotted
 70
   64
  3
------   -----------   -   -----
 72
   65
 73
    6
 40
16.75
 49
6
 49
-1.5
 49
6
 49
-1.5
 49
0.25
 49
-1.5
  0
LTYPE
  2
dashed_double-dotted
 70
   64
  3
---------    -    -    ---------
 72
   65
 73
    6
 40
11
 49
6
 49
-1.5
 49
0.25
 49
-1.5
 49
0.25
 49
-1.5
  0
LTYPE
  2
double-dashed_double-dotted
 70
   64
  3
-----   ---------   -   -   ----
 72
   65
 73
    8
 40
18.5
 49
6
 49
-1.5
 49
6
 49
-1.5
 49
0.25
 49
-1.5
 49
0.25
 49
-1.5
  0
LTYPE
  2
dashed_triplicate-dotted
 70
   64
  3
-------    -    -    -    ------
 72
   65
 73
    8
 40
12.75
 49
6
 49
-1.5
 49
0.25
 49
-1.5
 49
0.25
 49
-1.5
 49
0.25
 49
-1.5
  0
LTYPE
  2
double-dashed_triplicate-dotted
 70
   64
  3
-----  ---------  -  -  -  -----
 72
   65
 73
   10
 40
20.25
 49
6
 49
-1.5
 49
6
 49
-1.5
 49
0.25
 49
-1.5
 49
0.25
 49
-1.5
 49
0.25
 49
-1.5
  0
LTYPE
  2
undefined
 70
   64
  3
--------------------------------
 72
   65
 73
    0
 40
0
  0
LTYPE
  2
_
 70
   64
  3
                                
 72
   65
 73
    0
 40
0
  0
LTYPE
  2
__18
 70
   64
  3
                                
 72
   65
 73
    0
 40
0
  0
LTYPE
  2
__19
 70
   64
  3
                                
 72
   65
 73
    0
 40
0
  0
LTYPE
  2
__20
 70
   64
  3
                                
 72
   65
 73
    0
 40
0
  0
LTYPE
  2
__21
 70
   64
  3
                                
 72
   65
 73
    0
 40
0
  0
LTYPE
  2
__22
 70
   64
  3
                                
 72
   65
 73
    0
 40
0
  0
LTYPE
  2
__23
 70
   64
  3
                                
 72
   65
 73
    0
 40
0
  0
LTYPE
  2
__24
 70
   64
  3
                                
 72
   65
 73
    0
 40
0
  0
LTYPE
  2
__25
 70
   64
  3
                                
 72
   65
 73
    0
 40
0
  0
LTYPE
  2
__26
 70
   64
  3
                                
 72
   65
 73
    0
 40
0
  0
LTYPE
  2
__27
 70
   64
  3
                                
 72
   65
 73
    0
 40
0
  0
LTYPE
  2
__28
 70
   64
  3
                                
 72
   65
 73
    0
 40
0
  0
LTYPE
  2
__29
 70
   64
  3
                                
 72
   65
 73
    0
 40
0
  0
LTYPE
  2
__30
 70
   64
  3
                                
 72
   65
 73
    0
 40
0
  0
LTYPE
  2
__31
 70
   64
  3
                                
 72
   65
 73
    0
 40
0
  0
LTYPE
  2
__32
 70
   64
  3
                                
 72
   65
 73
    0
 40
0
  0
ENDTAB
  0
TABLE
  2
STYLE
  5
3
100
AcDbSymbolTable
 70
     1
  0
STYLE
  5
10
100
AcDbSymbolTableRecord
100
AcDbTextStyleTableRecord
  2
STANDARD
 70
     0
 40
0.0
 41
1.0
 50
0.0
 71
     0
 42
0.2
  3
txt
  4
bigfont.shx
  0
STYLE
  5
26
100
AcDbSymbolTableRecord
100
AcDbTextStyleTableRecord
  2
TATEGAKI
 70
    68
 40
0.0
 41
1.0
 50
0.0
 71
     0
 42
1.0
  3
txt
  4
bigfont.shx
  0
ENDTAB
  0
TABLE
  2
LAYER
 70
    2
  0
LAYER
  2
_0-0_
 70
   64
 62
    7
  6
CONTINUOUS
  0
LAYER
  2
ADD_LINE
 70
   64
 62
    7
  6
CONTINUOUS
  0
ENDTAB
  0
ENDSEC
  0
SECTION
  2
BLOCKS
  0
ENDSEC
  0
SECTION
  2
ENTITIES
  0
LINE
  8
_0-0_
  6
CONTINUOUS
 62
    7
 10
16.521223050446661
 20
34.900328296421399
 11
15.814116269260115
 21
35.607435077607946
  0
LINE
  8
_0-0_
  6
CONTINUOUS
 62
    7
 10
18.642543394006303
 20
37.021648639981038
 11
16.521223050446661
 21
34.900328296421399
  0
LINE
  8
_0-0_
  6
CONTINUOUS
 62
    7
 10
17.935436612819753
 20
37.728755421167584
 11
18.642543394006303
 21
37.021648639981038
  0
LINE
  8
_0-0_
  6
CONTINUOUS
 62
    7
 10
15.814116269260115
 20
35.607435077607946
 11
17.935436612819753
 21
37.728755421167584
  0
LINE
  8
_0-0_
  6
CONTINUOUS
 62
    7
 10
8.9609189277859524
 20
42.460632419082103
 11
9.6680257089725057
 21
41.753525637895557
  0
LINE
  8
_0-0_
  6
CONTINUOUS
 62
    7
 10
11.0822392713456
 20
44.581952762641748
 11
8.9609189277859524
 21
42.460632419082103
  0
LINE
  8
_0-0_
  6
CONTINUOUS
 62
    7
 10
11.789346052532142
 20
43.874845981455195
 11
11.0822392713456
 21
44.581952762641748
  0
LINE
  8
_0-0_
  6
CONTINUOUS
 62
    7
 10
9.6680257089725057
 20
41.753525637895557
 11
11.789346052532142
 21
43.874845981455195
  0
LINE
  8
_0-0_
  6
CONTINUOUS
 62
    7
 10
15.814116269260115
 20
43.874845981455195
 11
17.935436612819753
 21
41.753525637895557
  0
LINE
  8
_0-0_
  6
CONTINUOUS
 62
    7
 10
16.521223050446661
 20
44.581952762641748
 11
15.814116269260115
 21
43.874845981455195
  0
LINE
  8
_0-0_
  6
CONTINUOUS
 62
    7
 10
18.642543394006303
 20
42.460632419082103
 11
16.521223050446661
 21
44.581952762641748
  0
LINE
  8
_0-0_
  6
CONTINUOUS
 62
    7
 10
17.935436612819753
 20
41.753525637895557
 11
18.642543394006303
 21
42.460632419082103
  0
LINE
  8
_0-0_
  6
CONTINUOUS
 62
    7
 10
9.6680257089725004
 20
37.728755421167584
 11
11.789346052532142
 21
35.607435077607946
  0
LINE
  8
_0-0_
  6
CONTINUOUS
 62
    7
 10
8.9609189277859524
 20
37.021648639981038
 11
9.6680257089725004
 21
37.728755421167584
  0
LINE
  8
_0-0_
  6
CONTINUOUS
 62
    7
 10
11.082239271345594
 20
34.900328296421399
 11
8.9609189277859524
 21
37.021648639981038
  0
LINE
  8
_0-0_
  6
CONTINUOUS
 62
    7
 10
11.789346052532142
 20
35.607435077607946
 11
11.082239271345594
 21
34.900328296421399
  0
CIRCLE
  8
_0-0_
  6
CONTINUOUS
 62
    7
 10
13.801731160896129
 20
39.741140529531577
 40
4.3459423129659971
  0
LINE
  8
_0-0_
  6
CONTINUOUS
 62
    7
 10
13.801731160896129
 20
51.778411405295323
 11
13.801731160896129
 21
26.070672097759672
  0
LINE
  8
_0-0_
  6
CONTINUOUS
 62
    7
 10
27.4284359206457
 20
49.941330366347351
 11
27.4284359206457
 21
27.237868044555082
  0
LINE
  8
_0-0_
  6
CONTINUOUS
 62
    7
 10
32.139961860827121
 20
42.229290491820343
 11
33.005987264611569
 21
42.729290491820343
  0
LINE
  8
_0-0_
  6
CONTINUOUS
 62
    7
 10
33.005987264611569
 20
42.729290491820343
 11
31.505987264611566
 21
45.327366703173659
  0
LINE
  8
_0-0_
  6
CONTINUOUS
 62
    7
 10
31.505987264611566
 20
45.327366703173659
 11
30.639961860827125
 21
44.827366703173659
  0
LINE
  8
_0-0_
  6
CONTINUOUS
 62
    7
 10
30.639961860827125
 20
44.827366703173659
 11
32.139961860827121
 21
42.229290491820343
  0
LINE
  8
_0-0_
  6
CONTINUOUS
 62
    7
 10
21.850884576679839
 20
42.729290491820343
 11
22.716909980464276
 21
42.229290491820343
  0
LINE
  8
_0-0_
  6
CONTINUOUS
 62
    7
 10
22.716909980464276
 20
42.229290491820343
 11
24.216909980464276
 21
44.827366703173659
  0
LINE
  8
_0-0_
  6
CONTINUOUS
 62
    7
 10
24.216909980464276
 20
44.827366703173659
 11
23.350884576679839
 21
45.327366703173659
  0
LINE
  8
_0-0_
  6
CONTINUOUS
 62
    7
 10
23.350884576679839
 20
45.327366703173659
 11
21.850884576679839
 21
42.729290491820343
  0
LINE
  8
_0-0_
  6
CONTINUOUS
 62
    7
 10
23.899922682356493
 20
43.778328597497001
 11
30.956949158934908
 21
43.778328597497001
  0
LINE
  8
_0-0_
  6
CONTINUOUS
 62
    7
 10
27.4284359206457
 20
41.241140529531577
 11
20.830119106726716
 21
45.050680518246125
  0
LINE
  8
_0-0_
  6
CONTINUOUS
 62
    7
 10
27.4284359206457
 20
41.241140529531577
 11
32.955694207064994
 21
44.432304589076345
  0
LINE
  8
_0-0_
  6
CONTINUOUS
 62
    7
 10
22.71690998046428
 20
37.252990567242797
 11
21.850884576679842
 21
36.752990567242797
  0
LINE
  8
_0-0_
  6
CONTINUOUS
 62
    7
 10
21.850884576679842
 20
36.752990567242797
 11
23.350884576679842
 21
34.154914355889481
  0
LINE
  8
_0-0_
  6
CONTINUOUS
 62
    7
 10
23.350884576679842
 20
34.154914355889481
 11
24.21690998046428
 21
34.654914355889481
  0
LINE
  8
_0-0_
  6
CONTINUOUS
 62
    7
 10
24.21690998046428
 20
34.654914355889481
 11
22.71690998046428
 21
37.252990567242797
  0
LINE
  8
_0-0_
  6
CONTINUOUS
 62
    7
 10
33.005987264611569
 20
36.752990567242797
 11
32.139961860827128
 21
37.252990567242797
  0
LINE
  8
_0-0_
  6
CONTINUOUS
 62
    7
 10
32.139961860827128
 20
37.252990567242797
 11
30.639961860827128
 21
34.654914355889481
  0
LINE
  8
_0-0_
  6
CONTINUOUS
 62
    7
 10
30.639961860827128
 20
34.654914355889481
 11
31.505987264611566
 21
34.154914355889481
  0
LINE
  8
_0-0_
  6
CONTINUOUS
 62
    7
 10
31.505987264611566
 20
34.154914355889481
 11
33.005987264611569
 21
36.752990567242797
  0
LINE
  8
_0-0_
  6
CONTINUOUS
 62
    7
 10
30.956949158934908
 20
35.703952461566139
 11
23.8999226823565
 21
35.703952461566139
  0
LINE
  8
_0-0_
  6
CONTINUOUS
 62
    7
 10
27.4284359206457
 20
38.24114052953157
 11
34.026752734564688
 21
34.431600540817008
  0
LINE
  8
_0-0_
  6
CONTINUOUS
 62
    7
 10
27.4284359206457
 20
38.24114052953157
 11
21.901177634226407
 21
35.049976469986802
  0
LINE
  8
_0-0_
  6
CONTINUOUS
 62
    7
 10
23.899922682356493
 20
43.778328597497001
 11
23.899922682356493
 21
35.703952461566139
  0
LINE
  8
_0-0_
  6
CONTINUOUS
 62
    7
 10
30.956949158934908
 20
35.703952461566139
 11
30.956949158934908
 21
43.778328597497001
  0
LINE
  8
_0-0_
  6
CONTINUOUS
 62
    7
 10
-3.0141547861507152
 20
39.741140529531577
 11
36.528392687022091
 21
39.741140529531577
  0
LINE
  8
_0-0_
  6
CONTINUOUS
 62
    7
 10
8.9682526911009912
 20
44.574618999326709
 11
19.148293424298533
 21
34.394578266129137
  0
LINE
  8
_0-0_
  6
CONTINUOUS
 62
    7
 10
19.482848753558567
 20
45.422258122194009
 11
7.9406898940880923
 21
33.88009926272354
  0
ENDSEC
  0
EOF
